<?xml version="1.0" encoding="utf-8"?>
<!-- Generator: Adobe Illustrator 13.0.0, SVG Export Plug-In . SVG Version: 6.00 Build 14948)  -->
<!DOCTYPE svg PUBLIC "-//W3C//DTD SVG 1.1//EN" "http://www.w3.org/Graphics/SVG/1.1/DTD/svg11.dtd">
<svg version="1.1" id="Layer_1" xmlns="http://www.w3.org/2000/svg" xmlns:xlink="http://www.w3.org/1999/xlink" x="0px" y="0px"
	 width="128px" height="128px" viewBox="0 0 128 128" enable-background="new 0 0 128 128" xml:space="preserve">
<g>
	
		<linearGradient id="SVGID_1_" gradientUnits="userSpaceOnUse" x1="-531.4854" y1="3.4292" x2="-425.3433" y2="3.4292" gradientTransform="matrix(0 1 1 0 54.6475 550.8433)">
		<stop  offset="0" style="stop-color:#ECEEF0"/>
		<stop  offset="0.2485" style="stop-color:#E8E8E9"/>
		<stop  offset="0.5636" style="stop-color:#EEEFF2"/>
		<stop  offset="0.9212" style="stop-color:#D4D5D6"/>
	</linearGradient>
	<path fill="url(#SVGID_1_)" stroke="#B3B3B3" stroke-width="2" d="M102.314,110.518l-0.049-76.176
		c0-8.276-6.709-14.984-14.984-14.984H28.823c-8.275,0-14.984,6.708-14.984,14.984v76.176c0,8.274,6.709,14.982,14.984,14.982H87.33
		C95.607,125.5,102.314,118.792,102.314,110.518z"/>
	<path fill="#FFFFFF" d="M28.99,27.406h58.316c7.389,0,13.512,5.367,14.717,12.413l-0.002-3.687c0-8.214-6.655-14.87-14.869-14.87
		H29.143c-8.211,0-14.869,6.656-14.869,14.87v3.671C15.486,32.765,21.605,27.406,28.99,27.406z"/>
	<path fill="#B3B3B3" d="M87.154,121.014h-58.01c-8.066,0-14.614-6.425-14.847-14.435c-0.006-0.038-0.018-0.075-0.024-0.113
		l0.003,3.687c0,8.215,6.655,14.871,14.868,14.871h58.01c8.212,0,14.869-6.656,14.869-14.871v-3.67
		c-0.006,0.033-0.017,0.066-0.021,0.103C101.768,114.591,95.218,121.014,87.154,121.014z"/>
	<g>
		
			<linearGradient id="SVGID_2_" gradientUnits="userSpaceOnUse" x1="-267.2422" y1="106.626" x2="-274.2466" y2="111.5305" gradientTransform="matrix(1 0 0 -1 289.2754 151.834)">
			<stop  offset="0" style="stop-color:#9A9A9A"/>
			<stop  offset="1" style="stop-color:#DEDEDE"/>
		</linearGradient>
		<path fill="url(#SVGID_2_)" d="M22.805,42.758c0,2.359-1.914,4.272-4.276,4.272c-2.36,0-4.273-1.913-4.273-4.272
			c0-2.364,1.913-4.275,4.273-4.275C20.891,38.482,22.805,40.394,22.805,42.758z"/>
		
			<linearGradient id="SVGID_3_" gradientUnits="userSpaceOnUse" x1="-267.2422" y1="94.7568" x2="-274.2464" y2="99.6612" gradientTransform="matrix(1 0 0 -1 289.2754 151.834)">
			<stop  offset="0" style="stop-color:#9A9A9A"/>
			<stop  offset="1" style="stop-color:#DEDEDE"/>
		</linearGradient>
		<path fill="url(#SVGID_3_)" d="M22.805,54.628c0,2.359-1.914,4.271-4.276,4.271c-2.36,0-4.273-1.912-4.273-4.271
			c0-2.365,1.913-4.277,4.273-4.277C20.891,50.351,22.805,52.263,22.805,54.628z"/>
		
			<linearGradient id="SVGID_4_" gradientUnits="userSpaceOnUse" x1="-267.2437" y1="82.8877" x2="-274.2469" y2="87.7915" gradientTransform="matrix(1 0 0 -1 289.2754 151.834)">
			<stop  offset="0" style="stop-color:#9A9A9A"/>
			<stop  offset="1" style="stop-color:#DEDEDE"/>
		</linearGradient>
		<path fill="url(#SVGID_4_)" d="M22.805,66.497c0,2.358-1.914,4.271-4.276,4.271c-2.36,0-4.273-1.912-4.273-4.271
			c0-2.365,1.913-4.275,4.273-4.275C20.891,62.222,22.805,64.132,22.805,66.497z"/>
		
			<linearGradient id="SVGID_5_" gradientUnits="userSpaceOnUse" x1="-267.2437" y1="71.0176" x2="-274.2477" y2="75.9219" gradientTransform="matrix(1 0 0 -1 289.2754 151.834)">
			<stop  offset="0" style="stop-color:#9A9A9A"/>
			<stop  offset="1" style="stop-color:#DEDEDE"/>
		</linearGradient>
		<path fill="url(#SVGID_5_)" d="M22.805,78.365c0,2.359-1.914,4.271-4.276,4.271c-2.36,0-4.273-1.912-4.273-4.271
			c0-2.363,1.913-4.274,4.273-4.274C20.891,74.091,22.805,76.002,22.805,78.365z"/>
		
			<linearGradient id="SVGID_6_" gradientUnits="userSpaceOnUse" x1="-267.2432" y1="59.147" x2="-274.248" y2="64.0517" gradientTransform="matrix(1 0 0 -1 289.2754 151.834)">
			<stop  offset="0" style="stop-color:#9A9A9A"/>
			<stop  offset="1" style="stop-color:#DEDEDE"/>
		</linearGradient>
		<circle fill="url(#SVGID_6_)" cx="18.53" cy="90.234" r="4.275"/>
		
			<linearGradient id="SVGID_7_" gradientUnits="userSpaceOnUse" x1="-267.2432" y1="47.2773" x2="-274.2479" y2="52.1821" gradientTransform="matrix(1 0 0 -1 289.2754 151.834)">
			<stop  offset="0" style="stop-color:#9A9A9A"/>
			<stop  offset="1" style="stop-color:#DEDEDE"/>
		</linearGradient>
		<circle fill="url(#SVGID_7_)" cx="18.53" cy="102.103" r="4.275"/>
	</g>
	
		<linearGradient id="SVGID_8_" gradientUnits="userSpaceOnUse" x1="-269.5498" y1="104.958" x2="-281.3216" y2="113.2007" gradientTransform="matrix(1 0 0 -1 289.2754 151.834)">
		<stop  offset="0" style="stop-color:#FF1F00"/>
		<stop  offset="1" style="stop-color:#FF9D00"/>
	</linearGradient>
	<path fill="url(#SVGID_8_)" d="M21.955,42.755c0,1.639-1.328,2.968-2.966,2.968H8.69c-1.638,0-2.968-1.329-2.968-2.968l0,0
		c0-1.64,1.33-2.965,2.968-2.965h10.299C20.627,39.79,21.955,41.115,21.955,42.755L21.955,42.755z"/>
	
		<linearGradient id="SVGID_9_" gradientUnits="userSpaceOnUse" x1="-269.5503" y1="93.0879" x2="-281.3219" y2="101.3304" gradientTransform="matrix(1 0 0 -1 289.2754 151.834)">
		<stop  offset="0" style="stop-color:#FF1F00"/>
		<stop  offset="1" style="stop-color:#FF9D00"/>
	</linearGradient>
	<path fill="url(#SVGID_9_)" d="M21.955,54.624c0,1.638-1.328,2.968-2.966,2.968H8.69c-1.638,0-2.968-1.33-2.968-2.968l0,0
		c0-1.641,1.33-2.965,2.968-2.965h10.299C20.627,51.659,21.955,52.983,21.955,54.624L21.955,54.624z"/>
	
		<linearGradient id="SVGID_10_" gradientUnits="userSpaceOnUse" x1="-269.5503" y1="81.2178" x2="-281.3227" y2="89.4609" gradientTransform="matrix(1 0 0 -1 289.2754 151.834)">
		<stop  offset="0" style="stop-color:#FF1F00"/>
		<stop  offset="1" style="stop-color:#FF9D00"/>
	</linearGradient>
	<path fill="url(#SVGID_10_)" d="M21.955,66.495c0,1.637-1.328,2.968-2.966,2.968H8.69c-1.638,0-2.968-1.331-2.968-2.968l0,0
		c0-1.642,1.33-2.968,2.968-2.968h10.299C20.627,63.527,21.955,64.854,21.955,66.495L21.955,66.495z"/>
	
		<linearGradient id="SVGID_11_" gradientUnits="userSpaceOnUse" x1="-269.5508" y1="69.3477" x2="-281.3225" y2="77.5903" gradientTransform="matrix(1 0 0 -1 289.2754 151.834)">
		<stop  offset="0" style="stop-color:#FF1F00"/>
		<stop  offset="1" style="stop-color:#FF9D00"/>
	</linearGradient>
	<path fill="url(#SVGID_11_)" d="M21.955,78.365c0,1.637-1.328,2.966-2.966,2.966H8.69c-1.638,0-2.968-1.329-2.968-2.966l0,0
		c0-1.641,1.33-2.967,2.968-2.967h10.299C20.627,75.398,21.955,76.725,21.955,78.365L21.955,78.365z"/>
	
		<linearGradient id="SVGID_12_" gradientUnits="userSpaceOnUse" x1="-269.5503" y1="57.48" x2="-281.3221" y2="65.7227" gradientTransform="matrix(1 0 0 -1 289.2754 151.834)">
		<stop  offset="0" style="stop-color:#FF1F00"/>
		<stop  offset="1" style="stop-color:#FF9D00"/>
	</linearGradient>
	<path fill="url(#SVGID_12_)" d="M21.955,90.23c0,1.642-1.328,2.969-2.966,2.969H8.69c-1.638,0-2.968-1.327-2.968-2.969l0,0
		c0-1.637,1.33-2.965,2.968-2.965h10.299C20.627,87.268,21.955,88.594,21.955,90.23L21.955,90.23z"/>
	
		<linearGradient id="SVGID_13_" gradientUnits="userSpaceOnUse" x1="-269.5493" y1="45.6099" x2="-281.3218" y2="53.8531" gradientTransform="matrix(1 0 0 -1 289.2754 151.834)">
		<stop  offset="0" style="stop-color:#FF1F00"/>
		<stop  offset="1" style="stop-color:#FF9D00"/>
	</linearGradient>
	<path fill="url(#SVGID_13_)" d="M21.955,102.102c0,1.642-1.328,2.969-2.966,2.969H8.69c-1.638,0-2.968-1.327-2.968-2.969l0,0
		c0-1.64,1.33-2.967,2.968-2.967h10.299C20.627,99.135,21.955,100.462,21.955,102.102L21.955,102.102z"/>
</g>
<linearGradient id="SVGID_14_" gradientUnits="userSpaceOnUse" x1="-437.2295" y1="-612.3374" x2="-437.2295" y2="-566.4854" gradientTransform="matrix(1 0 0 -1 535.9648 -563.8105)">
	<stop  offset="0" style="stop-color:#00B2DE"/>
	<stop  offset="1" style="stop-color:#99DBF6"/>
</linearGradient>
<polygon fill="url(#SVGID_14_)" points="117.828,12.812 108.77,4.924 99.893,19.857 97.199,2.675 85.795,6.568 94.312,21.706 
	78.148,15.432 75.801,27.214 93.18,27.562 79.725,38.326 88.785,46.214 97.645,31.427 98.959,39.977 100.273,48.527 111.68,44.633 
	103.16,29.498 119.326,35.771 121.67,23.99 112.98,23.814 104.357,23.721 "/>
</svg>
