<?xml version="1.0" encoding="utf-8"?>
<!-- Generator: Adobe Illustrator 13.0.0, SVG Export Plug-In . SVG Version: 6.00 Build 14948)  -->
<!DOCTYPE svg PUBLIC "-//W3C//DTD SVG 1.1//EN" "http://www.w3.org/Graphics/SVG/1.1/DTD/svg11.dtd">
<svg version="1.1" id="Layer_1" xmlns="http://www.w3.org/2000/svg" xmlns:xlink="http://www.w3.org/1999/xlink" x="0px" y="0px"
	 width="128px" height="128px" viewBox="0 0 128 128" enable-background="new 0 0 128 128" xml:space="preserve">
<g>
	
		<linearGradient id="SVGID_1_" gradientUnits="userSpaceOnUse" x1="8295.3887" y1="14.6685" x2="8295.3887" y2="132.5933" gradientTransform="matrix(-1 -0.0022 -0.0022 1 8337.6699 8.6393)">
		<stop  offset="0" style="stop-color:#EB7680"/>
		<stop  offset="1" style="stop-color:#C1282F"/>
	</linearGradient>
	<path fill="url(#SVGID_1_)" d="M11.05,59.25c0.109-0.153,0.232-0.292,0.362-0.429L63.495,6.68c1.215-1.217,2.896-1.904,4.615-1.899
		c3.6,0.008,6.515,2.938,6.508,6.536l-0.034,12.171l-0.012,5.249C61.959,41.37,49.7,53.641,49.639,53.712l-1.032,1.255
		c-1.823,2.566-2.789,5.579-2.797,8.727c-0.008,3.138,0.945,6.156,2.735,8.714c0,0,1.087,1.323,1.193,1.43l24.745,24.956
		l-0.004,5.233l-0.027,12.171h0.016c-0.008,3.598-2.939,6.515-6.537,6.507c-1.742-0.003-3.382-0.683-4.607-1.912L11.392,68.404
		c-0.131-0.13-0.253-0.27-0.359-0.424c-0.902-1.29-1.383-2.804-1.381-4.369C9.655,62.046,10.143,60.537,11.05,59.25z"/>
	
		<linearGradient id="SVGID_2_" gradientUnits="userSpaceOnUse" x1="8251.6611" y1="14.6685" x2="8251.6611" y2="132.5942" gradientTransform="matrix(-1 -0.0022 -0.0022 1 8337.6699 8.6393)">
		<stop  offset="0" style="stop-color:#EB7680"/>
		<stop  offset="1" style="stop-color:#C1282F"/>
	</linearGradient>
	<path fill="url(#SVGID_2_)" d="M55.136,58.917l52.082-52.139c1.223-1.218,2.904-1.904,4.615-1.9
		c3.599,0.008,6.524,2.938,6.517,6.537l-0.044,12.17l-0.103,80.541l-0.027,12.169l0.016,0.001c-0.009,3.599-2.938,6.516-6.537,6.508
		c-1.742-0.005-3.376-0.684-4.601-1.912l-51.938-52.39c-0.124-0.131-0.245-0.269-0.353-0.423c-0.91-1.291-1.383-2.804-1.38-4.369
		c0.005-1.565,0.483-3.076,1.399-4.363C54.891,59.195,55.013,59.056,55.136,58.917z"/>
	<path opacity="0.5" fill="#FFFFFF" d="M57.368,61.818c-0.599,0.596-0.601,1.564-0.006,2.162l0,0c0.596,0.598,1.564,0.6,2.164,0.005
		l51.857-51.626c0.598-0.596,0.601-1.563,0.006-2.162l0,0c-0.598-0.598-1.565-0.601-2.162-0.005L57.368,61.818z"/>
	<path opacity="0.5" fill="#FFFFFF" d="M12.851,61.719c-0.6,0.596-0.603,1.564-0.006,2.162l0,0c0.596,0.599,1.564,0.6,2.162,0.005
		L66.866,12.26c0.598-0.596,0.601-1.563,0.004-2.163l0,0c-0.596-0.597-1.562-0.6-2.162-0.005L12.851,61.719z"/>
</g>
</svg>
