<?xml version="1.0" encoding="utf-8"?>
<!-- Generator: Adobe Illustrator 13.0.0, SVG Export Plug-In . SVG Version: 6.00 Build 14948)  -->
<!DOCTYPE svg PUBLIC "-//W3C//DTD SVG 1.1//EN" "http://www.w3.org/Graphics/SVG/1.1/DTD/svg11.dtd">
<svg version="1.1" id="Layer_1" xmlns="http://www.w3.org/2000/svg" xmlns:xlink="http://www.w3.org/1999/xlink" x="0px" y="0px"
	 width="128px" height="128px" viewBox="0 0 128 128" enable-background="new 0 0 128 128" xml:space="preserve">
<g>
	
		<linearGradient id="SVGID_1_" gradientUnits="userSpaceOnUse" x1="91.2305" y1="-3.7114" x2="91.2305" y2="114.2134" gradientTransform="matrix(1 -0.0022 0.0022 1 -5.4709 8.6393)">
		<stop  offset="0" style="stop-color:#EB7680"/>
		<stop  offset="1" style="stop-color:#C1282F"/>
	</linearGradient>
	<path fill="url(#SVGID_1_)" d="M116.95,59.249c-0.109-0.153-0.232-0.292-0.362-0.429L64.505,6.68
		c-1.214-1.217-2.896-1.904-4.615-1.899c-3.6,0.008-6.515,2.938-6.508,6.536l0.034,12.171l0.012,5.249
		C66.041,41.369,78.3,53.641,78.361,53.712l1.032,1.255c1.823,2.566,2.789,5.579,2.797,8.727c0.008,3.139-0.945,6.156-2.735,8.715
		c0,0-1.087,1.323-1.193,1.43L53.517,98.794l0.004,5.233l0.027,12.171h-0.016c0.008,3.598,2.939,6.515,6.537,6.507
		c1.742-0.003,3.382-0.683,4.607-1.912l51.932-52.389c0.131-0.13,0.253-0.27,0.359-0.424c0.902-1.29,1.383-2.804,1.381-4.369
		C118.345,62.046,117.857,60.536,116.95,59.249z"/>
	
		<linearGradient id="SVGID_2_" gradientUnits="userSpaceOnUse" x1="47.5024" y1="-3.7119" x2="47.5024" y2="114.2144" gradientTransform="matrix(1 -0.0022 0.0022 1 -5.4709 8.6393)">
		<stop  offset="0" style="stop-color:#EB7680"/>
		<stop  offset="1" style="stop-color:#C1282F"/>
	</linearGradient>
	<path fill="url(#SVGID_2_)" d="M72.864,58.917L20.783,6.778c-1.223-1.218-2.904-1.904-4.615-1.9
		c-3.599,0.008-6.524,2.938-6.517,6.537l0.044,12.17l0.103,80.541l0.027,12.169l-0.016,0.001c0.009,3.599,2.938,6.516,6.537,6.508
		c1.742-0.005,3.376-0.684,4.601-1.912l51.938-52.39c0.124-0.131,0.245-0.269,0.353-0.423c0.91-1.291,1.383-2.804,1.38-4.369
		c-0.005-1.565-0.483-3.076-1.399-4.363C73.109,59.194,72.987,59.056,72.864,58.917z"/>
	<path opacity="0.5" fill="#FFFFFF" d="M70.632,61.817c0.599,0.596,0.601,1.564,0.006,2.162l0,0
		c-0.596,0.599-1.564,0.601-2.164,0.005L16.617,12.358c-0.598-0.596-0.601-1.563-0.006-2.162l0,0
		c0.598-0.598,1.565-0.601,2.162-0.005L70.632,61.817z"/>
	<path opacity="0.5" fill="#FFFFFF" d="M115.149,61.719c0.6,0.596,0.603,1.564,0.006,2.162l0,0c-0.596,0.599-1.564,0.6-2.162,0.005
		L61.134,12.26c-0.598-0.596-0.601-1.563-0.004-2.163l0,0c0.596-0.597,1.562-0.6,2.162-0.005L115.149,61.719z"/>
</g>
</svg>
