<?xml version="1.0" encoding="utf-8"?>
<!-- Generator: Adobe Illustrator 13.0.0, SVG Export Plug-In . SVG Version: 6.00 Build 14948)  -->
<!DOCTYPE svg PUBLIC "-//W3C//DTD SVG 1.1//EN" "http://www.w3.org/Graphics/SVG/1.1/DTD/svg11.dtd">
<svg version="1.1" id="Layer_1" xmlns="http://www.w3.org/2000/svg" xmlns:xlink="http://www.w3.org/1999/xlink" x="0px" y="0px"
	 width="128px" height="128px" viewBox="0 0 128 128" enable-background="new 0 0 128 128" xml:space="preserve">
<g>
	<g>
		
			<linearGradient id="SVGID_1_" gradientUnits="userSpaceOnUse" x1="-210.5796" y1="820.4033" x2="-217.9559" y2="815.2383" gradientTransform="matrix(1 0 0 1 246.6895 -715.6445)">
			<stop  offset="0" style="stop-color:#181500"/>
			<stop  offset="1" style="stop-color:#5F5D5C"/>
		</linearGradient>
		<polygon fill="url(#SVGID_1_)" points="45.13,76.179 19.381,122.655 18.473,128.04 22.402,124.335 48.27,77.642 		"/>
		
			<linearGradient id="SVGID_2_" gradientUnits="userSpaceOnUse" x1="-214.0273" y1="758.1309" x2="-141.3535" y2="758.1309" gradientTransform="matrix(1 0 0 1 246.6895 -715.6445)">
			<stop  offset="0" style="stop-color:#FAFAFA"/>
			<stop  offset="0.3629" style="stop-color:#E5E5E5"/>
			<stop  offset="1" style="stop-color:#C4C4C4"/>
		</linearGradient>
		<path fill="url(#SVGID_2_)" stroke="#000000" stroke-width="2" stroke-miterlimit="3.8637" d="M52.7,3.983l-5.093,9.195
			c0,0,2.002,3.134,4.259,5.53c2.698,2.86,5.229,4.925,5.229,4.925L32.662,59.137c0,0,5.529,13.145,14.214,17.96
			c8.687,4.819,21.693,3.802,21.693,3.802l17.885-40.98c0,0,3.326,1.299,7.268,2.006c3.074,0.547,6.516,0.431,6.516,0.431
			l5.099-9.199L52.7,3.983L52.7,3.983z"/>
		<g>
			<g>
				
					<linearGradient id="SVGID_3_" gradientUnits="userSpaceOnUse" x1="-234.8457" y1="795.7402" x2="-171.918" y2="795.7402" gradientTransform="matrix(1 0 0 1 246.6895 -715.6445)">
					<stop  offset="0" style="stop-color:#FAFAFA"/>
					<stop  offset="0.3629" style="stop-color:#E5E5E5"/>
					<stop  offset="1" style="stop-color:#C4C4C4"/>
				</linearGradient>
				<path id="SVGID_20_" fill="url(#SVGID_3_)" stroke="#000000" stroke-width="2" stroke-miterlimit="3.8637" d="M32.626,58.698
					c0,0-8.672,0.045-13.038,1.863c-1.572,0.652-7.744,6.99-7.744,6.99s4.279,12.71,25.799,24.649
					c21.524,11.94,34.806,8.965,34.806,8.965s2.553-7.819,2.307-10.004c-0.609-5.418-5.379-12.082-5.379-12.082
					s-9.187,1.453-21.135-5.553C36.801,66.821,32.626,58.698,32.626,58.698L32.626,58.698z"/>
			</g>
			<g>
				<g>
					<defs>
						<path id="SVGID_4_" d="M32.626,58.698c0,0-8.672,0.045-13.038,1.863c-1.572,0.652-7.744,6.99-7.744,6.99
							s4.279,12.71,25.799,24.649c21.524,11.94,34.806,8.965,34.806,8.965s2.553-7.819,2.307-10.004
							c-0.609-5.418-5.379-12.082-5.379-12.082s-9.187,1.453-21.135-5.553C36.801,66.821,32.626,58.698,32.626,58.698L32.626,58.698
							z"/>
					</defs>
					<clipPath id="SVGID_5_">
						<use xlink:href="#SVGID_4_"  overflow="visible"/>
					</clipPath>
					
						<linearGradient id="SVGID_6_" gradientUnits="userSpaceOnUse" x1="-198.02" y1="804.3594" x2="-198.02" y2="772.2432" gradientTransform="matrix(1 0 0 1 246.6895 -715.6445)">
						<stop  offset="0" style="stop-color:#181500"/>
						<stop  offset="1" style="stop-color:#5F5D5C"/>
					</linearGradient>
					<path clip-path="url(#SVGID_5_)" fill="url(#SVGID_6_)" d="M21.674,58.108c0,0,3.219,11.624,23.24,22.73
						c20.022,11.104,30.751,7.218,30.751,7.218l-4.236-9.705l-21.435-5.896L32.217,56.598L21.674,58.108L21.674,58.108z"/>
				</g>
			</g>
		</g>
		
			<linearGradient id="SVGID_7_" gradientUnits="userSpaceOnUse" x1="-167.7993" y1="749.4531" x2="-167.7993" y2="719.4297" gradientTransform="matrix(1 0 0 1 246.6895 -715.6445)">
			<stop  offset="0" style="stop-color:#181500"/>
			<stop  offset="1" style="stop-color:#5F5D5C"/>
		</linearGradient>
		<path fill="url(#SVGID_7_)" stroke="#000000" stroke-width="2" stroke-miterlimit="3.8637" d="M52.578,4.198
			c1.064-1.922,13.708,3.055,28.239,11.119c14.533,8.061,25.451,16.151,24.385,18.078c-1.066,1.924-13.709-3.054-28.242-11.113
			C62.432,14.214,51.514,6.12,52.578,4.198L52.578,4.198z"/>
	</g>
	<path opacity="0.66" fill="#666666" d="M79.375,13.097C65.459,5.503,53.609,0.914,52.58,2.772
		c-1.016,1.833,8.871,9.28,22.392,16.964C75.951,17.28,77.457,15.034,79.375,13.097z"/>
	
		<linearGradient id="SVGID_8_" gradientUnits="userSpaceOnUse" x1="-325.8286" y1="888.7539" x2="-325.8286" y2="916.8516" gradientTransform="matrix(1 0 0 1 412.6201 -813.9912)">
		<stop  offset="0" style="stop-color:#FFD207"/>
		<stop  offset="1" style="stop-color:#FAA61A"/>
	</linearGradient>
	<path fill="url(#SVGID_8_)" d="M65.381,74.762l42.818,0.002c4.432,0,8.027,3.598,8.027,8.034l0.002,12.031
		c0,4.435-3.595,8.03-8.027,8.03l-42.818-0.002c-4.432,0-8.025-3.596-8.025-8.033l-0.002-12.028
		C57.354,78.357,60.948,74.762,65.381,74.762L65.381,74.762z"/>
	<g>
		
			<linearGradient id="SVGID_9_" gradientUnits="userSpaceOnUse" x1="-338.3057" y1="906.002" x2="-347.4403" y2="899.6058" gradientTransform="matrix(1 0 0 1 412.6201 -813.9912)">
			<stop  offset="0" style="stop-color:#5F5D5C"/>
			<stop  offset="1" style="stop-color:#181500"/>
		</linearGradient>
		<path fill="url(#SVGID_9_)" d="M74.258,91.52c0,0.996-0.807,1.805-1.805,1.805h-5.414c-0.996,0-1.805-0.809-1.805-1.805v-5.416
			c0-0.996,0.809-1.804,1.805-1.804h5.414c0.998,0,1.805,0.808,1.805,1.804V91.52z"/>
		
			<linearGradient id="SVGID_10_" gradientUnits="userSpaceOnUse" x1="-317.5513" y1="898.291" x2="-317.5513" y2="907.3164" gradientTransform="matrix(1 0 0 1 412.6201 -813.9912)">
			<stop  offset="0" style="stop-color:#5F5D5C"/>
			<stop  offset="1" style="stop-color:#181500"/>
		</linearGradient>
		<path fill="url(#SVGID_10_)" d="M99.58,91.52c0,0.996-0.807,1.805-1.805,1.805h-5.412c-0.998,0-1.805-0.809-1.805-1.805v-5.416
			c0-0.996,0.807-1.804,1.805-1.804h5.412c0.998,0,1.805,0.808,1.805,1.804V91.52z"/>
	</g>
</g>
</svg>
