<?xml version="1.0" encoding="utf-8"?>
<!-- Generator: Adobe Illustrator 13.0.0, SVG Export Plug-In . SVG Version: 6.00 Build 14948)  -->
<!DOCTYPE svg PUBLIC "-//W3C//DTD SVG 1.1//EN" "http://www.w3.org/Graphics/SVG/1.1/DTD/svg11.dtd">
<svg version="1.1" id="Layer_1" xmlns="http://www.w3.org/2000/svg" xmlns:xlink="http://www.w3.org/1999/xlink" x="0px" y="0px"
	 width="128px" height="128px" viewBox="0 0 128 128" enable-background="new 0 0 128 128" xml:space="preserve">
<g>
	<g>
		
			<linearGradient id="SVGID_1_" gradientUnits="userSpaceOnUse" x1="-205.2231" y1="819.6895" x2="-212.6003" y2="814.5239" gradientTransform="matrix(1 0 0 1 246.6895 -715.6445)">
			<stop  offset="0" style="stop-color:#181500"/>
			<stop  offset="1" style="stop-color:#5F5D5C"/>
		</linearGradient>
		<polygon fill="url(#SVGID_1_)" points="50.486,75.465 24.737,121.941 23.829,127.326 27.759,123.621 53.626,76.928 		"/>
		
			<linearGradient id="SVGID_2_" gradientUnits="userSpaceOnUse" x1="-208.6709" y1="757.417" x2="-135.9971" y2="757.417" gradientTransform="matrix(1 0 0 1 246.6895 -715.6445)">
			<stop  offset="0" style="stop-color:#FAFAFA"/>
			<stop  offset="0.3629" style="stop-color:#E5E5E5"/>
			<stop  offset="1" style="stop-color:#C4C4C4"/>
		</linearGradient>
		<path fill="url(#SVGID_2_)" stroke="#000000" stroke-width="2" stroke-miterlimit="3.8637" d="M58.057,3.27l-5.093,9.195
			c0,0,2.002,3.134,4.259,5.53c2.698,2.86,5.229,4.925,5.229,4.925L38.019,58.424c0,0,5.529,13.144,14.214,17.959
			c8.687,4.819,21.693,3.802,21.693,3.802l17.885-40.979c0,0,3.326,1.299,7.268,2.006c3.074,0.547,6.516,0.431,6.516,0.431
			l5.099-9.199L58.057,3.27L58.057,3.27z"/>
		<g>
			<g>
				
					<linearGradient id="SVGID_3_" gradientUnits="userSpaceOnUse" x1="-229.4893" y1="795.0273" x2="-166.5615" y2="795.0273" gradientTransform="matrix(1 0 0 1 246.6895 -715.6445)">
					<stop  offset="0" style="stop-color:#FAFAFA"/>
					<stop  offset="0.3629" style="stop-color:#E5E5E5"/>
					<stop  offset="1" style="stop-color:#C4C4C4"/>
				</linearGradient>
				<path id="SVGID_15_" fill="url(#SVGID_3_)" stroke="#000000" stroke-width="2" stroke-miterlimit="3.8637" d="M37.982,57.985
					c0,0-8.672,0.045-13.038,1.863C23.372,60.5,17.2,66.837,17.2,66.837s4.279,12.71,25.799,24.649
					c21.524,11.94,34.806,8.965,34.806,8.965s2.553-7.819,2.307-10.004c-0.609-5.418-5.379-12.082-5.379-12.082
					s-9.187,1.453-21.135-5.553C42.157,66.107,37.982,57.985,37.982,57.985L37.982,57.985z"/>
			</g>
			<g>
				<g>
					<defs>
						<path id="SVGID_4_" d="M37.982,57.985c0,0-8.672,0.045-13.038,1.863C23.372,60.5,17.2,66.837,17.2,66.837
							s4.279,12.71,25.799,24.649c21.524,11.94,34.806,8.965,34.806,8.965s2.553-7.819,2.307-10.004
							c-0.609-5.418-5.379-12.082-5.379-12.082s-9.187,1.453-21.135-5.553C42.157,66.107,37.982,57.985,37.982,57.985L37.982,57.985
							z"/>
					</defs>
					<clipPath id="SVGID_5_">
						<use xlink:href="#SVGID_4_"  overflow="visible"/>
					</clipPath>
					
						<linearGradient id="SVGID_6_" gradientUnits="userSpaceOnUse" x1="-192.6636" y1="803.6455" x2="-192.6636" y2="771.5303" gradientTransform="matrix(1 0 0 1 246.6895 -715.6445)">
						<stop  offset="0" style="stop-color:#181500"/>
						<stop  offset="1" style="stop-color:#5F5D5C"/>
					</linearGradient>
					<path clip-path="url(#SVGID_5_)" fill="url(#SVGID_6_)" d="M27.03,57.395c0,0,3.219,11.623,23.24,22.729
						c20.022,11.104,30.751,7.218,30.751,7.218l-4.236-9.705L55.351,71.74L37.573,55.885L27.03,57.395L27.03,57.395z"/>
				</g>
			</g>
		</g>
		
			<linearGradient id="SVGID_7_" gradientUnits="userSpaceOnUse" x1="-162.4429" y1="748.7402" x2="-162.4429" y2="718.7178" gradientTransform="matrix(1 0 0 1 246.6895 -715.6445)">
			<stop  offset="0" style="stop-color:#181500"/>
			<stop  offset="1" style="stop-color:#5F5D5C"/>
		</linearGradient>
		<path fill="url(#SVGID_7_)" stroke="#000000" stroke-width="2" stroke-miterlimit="3.8637" d="M57.935,3.485
			c1.064-1.922,13.708,3.055,28.239,11.119c14.533,8.061,25.451,16.151,24.385,18.078c-1.066,1.924-13.709-3.054-28.242-11.113
			C67.788,13.501,56.87,5.407,57.935,3.485L57.935,3.485z"/>
	</g>
	
		<linearGradient id="SVGID_8_" gradientUnits="userSpaceOnUse" x1="-169.1196" y1="826.4355" x2="-169.1196" y2="768.5273" gradientTransform="matrix(1 0 0 1 246.6895 -715.6445)">
		<stop  offset="0" style="stop-color:#57C7F1"/>
		<stop  offset="1" style="stop-color:#99DBF6"/>
	</linearGradient>
	<polygon fill="url(#SVGID_8_)" stroke="#0091DE" points="101.683,65.685 90.239,55.724 79.032,74.582 75.629,52.882 61.226,57.802 
		71.983,76.917 51.569,68.994 48.604,83.874 70.554,84.313 53.56,97.907 65.004,107.869 76.192,89.194 77.853,99.993 
		79.513,110.791 93.916,105.874 83.155,86.759 103.571,94.681 106.534,79.804 95.562,79.581 84.669,79.462 	"/>
	<path opacity="0.66" fill="#666666" d="M84.731,12.384C70.815,4.791,58.966,0.201,57.937,2.059
		c-1.016,1.833,8.871,9.28,22.392,16.964C81.308,16.567,82.813,14.321,84.731,12.384z"/>
</g>
</svg>
