<?xml version="1.0" encoding="utf-8"?>
<!-- Generator: Adobe Illustrator 13.0.0, SVG Export Plug-In . SVG Version: 6.00 Build 14948)  -->
<!DOCTYPE svg PUBLIC "-//W3C//DTD SVG 1.1//EN" "http://www.w3.org/Graphics/SVG/1.1/DTD/svg11.dtd">
<svg version="1.1" id="Layer_1" xmlns="http://www.w3.org/2000/svg" xmlns:xlink="http://www.w3.org/1999/xlink" x="0px" y="0px"
	 width="128px" height="128px" viewBox="0 0 128 128" enable-background="new 0 0 128 128" xml:space="preserve">
<g>
	<linearGradient id="SVGID_1_" gradientUnits="userSpaceOnUse" x1="64" y1="17.041" x2="64" y2="118.2446">
		<stop  offset="0" style="stop-color:#5F5D5C"/>
		<stop  offset="0.1849" style="stop-color:#5B5957"/>
		<stop  offset="0.4091" style="stop-color:#504D48"/>
		<stop  offset="0.6537" style="stop-color:#3D3A30"/>
		<stop  offset="0.9111" style="stop-color:#22200E"/>
		<stop  offset="1" style="stop-color:#181500"/>
	</linearGradient>
	<path fill="url(#SVGID_1_)" d="M109.502,17.041H18.5c-9.342,0-16.913,7.572-16.913,16.91v67.379
		c0,9.342,7.571,16.914,16.913,16.914h91.002c9.34,0,16.912-7.572,16.912-16.914V33.951
		C126.414,24.613,118.842,17.041,109.502,17.041z"/>
	<path d="M38.497,82.521c-12.658,0-24.773-1.07-35.96-3.022v22.106c0,9.189,7.447,16.639,16.637,16.639h89.522
		c9.188,0,16.637-7.449,16.637-16.639V60.095C107.314,73.556,75.166,82.521,38.497,82.521z"/>
	<linearGradient id="SVGID_2_" gradientUnits="userSpaceOnUse" x1="64.2251" y1="40.502" x2="64.2251" y2="19.4365">
		<stop  offset="0" style="stop-color:#808285"/>
		<stop  offset="1" style="stop-color:#BCBEC0"/>
	</linearGradient>
	<path fill="url(#SVGID_2_)" d="M107.971,19.437H20.48c-8.981,0-16.261,7.28-16.261,16.258v4.808
		c0-8.979,7.279-16.259,16.261-16.259h87.491c8.979,0,16.26,7.28,16.26,16.259v-4.808C124.23,26.717,116.949,19.437,107.971,19.437z
		"/>
	<g>
		<g>
			
				<linearGradient id="SVGID_3_" gradientUnits="userSpaceOnUse" x1="-387.4741" y1="867.4043" x2="-387.4741" y2="912.3965" gradientTransform="matrix(1 0 0 1 412.6201 -813.9912)">
				<stop  offset="0" style="stop-color:#99DBF6"/>
				<stop  offset="1" style="stop-color:#00B2DE"/>
			</linearGradient>
			<path fill="url(#SVGID_3_)" stroke="#0091DE" d="M40.992,84.795c-0.746,4.268-2.538,7.604-5.375,10.004
				c-2.839,2.404-6.308,3.605-10.409,3.605c-4.598,0-8.473-1.574-11.62-4.725c-1.948-1.988-3.211-4.435-3.791-7.334
				c-0.332-1.904-0.497-5.382-0.497-10.438c0-5.305,0.165-8.783,0.497-10.439c0.498-2.859,1.761-5.304,3.791-7.333
				c3.147-3.148,7.022-4.723,11.62-4.723c4.104,0,7.551,1.17,10.348,3.512c2.797,2.34,4.607,5.705,5.438,10.099h-6.836
				c-1.201-5.055-4.186-7.583-8.948-7.583c-2.692,0-4.868,0.892-6.524,2.674c-1.285,1.409-2.113,3.604-2.485,6.588
				c-0.123,0.993-0.187,3.396-0.187,7.209c0,3.687,0.063,6.088,0.187,7.207c0.331,2.942,1.159,5.14,2.485,6.588
				c1.656,1.78,3.832,2.672,6.524,2.672c4.765,0,7.769-2.526,9.011-7.582L40.992,84.795L40.992,84.795z"/>
			<g>
				
					<linearGradient id="SVGID_4_" gradientUnits="userSpaceOnUse" x1="-387.4741" y1="856.4648" x2="-387.4741" y2="864.7559" gradientTransform="matrix(1 0 0 1 412.6201 -813.9912)">
					<stop  offset="0" style="stop-color:#99DBF6"/>
					<stop  offset="1" style="stop-color:#00B2DE"/>
				</linearGradient>
				<path fill="url(#SVGID_4_)" stroke="#0091DE" d="M34.755,42.478l-7.842,8.287h-3.511l-7.866-8.287l4.592-0.004l5.052,5.797
					l5.008-5.797L34.755,42.478z"/>
			</g>
		</g>
		<g>
			
				<linearGradient id="SVGID_5_" gradientUnits="userSpaceOnUse" x1="-309.7036" y1="867.4053" x2="-309.7036" y2="912.3965" gradientTransform="matrix(1 0 0 1 412.6201 -813.9912)">
				<stop  offset="0" style="stop-color:#99DBF6"/>
				<stop  offset="1" style="stop-color:#00B2DE"/>
			</linearGradient>
			<path fill="url(#SVGID_5_)" stroke="#0091DE" d="M118.701,85.418c0,4.018-1.473,7.186-4.412,9.506
				c-2.941,2.32-6.773,3.48-11.496,3.48c-6.586,0-11.809-1.947-15.66-5.844l4.475-4.412c2.816,2.818,6.588,4.229,11.312,4.229
				c2.896,0,5.145-0.592,6.742-1.771c1.594-1.182,2.393-2.848,2.393-5.002c0-1.946-0.58-3.479-1.74-4.598
				c-0.994-0.871-2.607-1.492-4.848-1.867l-5.219-0.744c-3.605-0.498-6.4-1.678-8.391-3.541c-2.154-2.03-3.23-4.848-3.23-8.451
				c0-3.854,1.326-6.979,3.979-9.384c2.648-2.402,6.254-3.604,10.812-3.604c5.469,0,10.047,1.679,13.732,5.032l-4.287,4.226
				c-2.402-2.276-5.613-3.418-9.633-3.418c-2.525,0-4.504,0.644-5.936,1.929c-1.428,1.284-2.145,2.94-2.145,4.97
				c0,1.699,0.561,3.089,1.68,4.164c1.074,0.953,2.732,1.615,4.971,1.988l5.033,0.746c3.645,0.498,6.398,1.594,8.266,3.293
				C117.5,78.498,118.701,81.523,118.701,85.418z"/>
			<g>
				
					<linearGradient id="SVGID_6_" gradientUnits="userSpaceOnUse" x1="-309.7046" y1="856.4648" x2="-309.7046" y2="864.7559" gradientTransform="matrix(1 0 0 1 412.6201 -813.9912)">
					<stop  offset="0" style="stop-color:#99DBF6"/>
					<stop  offset="1" style="stop-color:#00B2DE"/>
				</linearGradient>
				<path fill="url(#SVGID_6_)" stroke="#0091DE" d="M112.525,42.478l-7.842,8.287h-3.512l-7.865-8.287l4.592-0.004l5.053,5.797
					l5.008-5.797L112.525,42.478z"/>
			</g>
		</g>
		<g>
			
				<linearGradient id="SVGID_7_" gradientUnits="userSpaceOnUse" x1="-348.5576" y1="867.7773" x2="-348.5576" y2="912.0254" gradientTransform="matrix(1 0 0 1 412.6201 -813.9912)">
				<stop  offset="0" style="stop-color:#99DBF6"/>
				<stop  offset="1" style="stop-color:#00B2DE"/>
			</linearGradient>
			<path fill="url(#SVGID_7_)" stroke="#0091DE" d="M82.984,98.031l-7.146,0.002l-2.994-8.889H55.348l-3.061,8.887h-7.146
				L61.36,53.786h5.406L82.984,98.031z M70.902,83.49l-6.675-19.651L57.354,83.49H70.902z"/>
			<g>
				<g>
					
						<linearGradient id="SVGID_8_" gradientUnits="userSpaceOnUse" x1="-348.5566" y1="850.8721" x2="-348.5566" y2="863.6855" gradientTransform="matrix(1 0 0 1 412.6201 -813.9912)">
						<stop  offset="0" style="stop-color:#99DBF6"/>
						<stop  offset="1" style="stop-color:#00B2DE"/>
					</linearGradient>
					<path fill="url(#SVGID_8_)" stroke="#0091DE" d="M64.063,36.881c-3.539,0-6.406,2.867-6.406,6.407
						c0,3.538,2.867,6.406,6.406,6.406c3.539,0,6.408-2.868,6.408-6.406C70.471,39.747,67.602,36.881,64.063,36.881z M64.063,47.144
						c-2.129,0-3.855-1.728-3.855-3.855c0-2.13,1.727-3.855,3.855-3.855c2.128,0,3.855,1.727,3.855,3.855
						C67.918,45.416,66.191,47.144,64.063,47.144z"/>
				</g>
				<g>
					<linearGradient id="SVGID_9_" gradientUnits="userSpaceOnUse" x1="64.0635" y1="36.8809" x2="64.0635" y2="49.6943">
						<stop  offset="0" style="stop-color:#99DBF6"/>
						<stop  offset="1" style="stop-color:#00B2DE"/>
					</linearGradient>
					<path fill="url(#SVGID_9_)" stroke="#0091DE" d="M64.063,36.881c-3.539,0-6.406,2.867-6.406,6.407
						c0,3.538,2.867,6.406,6.406,6.406c3.539,0,6.408-2.868,6.408-6.406C70.471,39.747,67.602,36.881,64.063,36.881z M64.063,47.144
						c-2.129,0-3.855-1.728-3.855-3.855c0-2.13,1.727-3.855,3.855-3.855c2.128,0,3.855,1.727,3.855,3.855
						C67.918,45.416,66.191,47.144,64.063,47.144z"/>
				</g>
			</g>
		</g>
	</g>
</g>
</svg>
