<?xml version="1.0" encoding="utf-8"?>
<!-- Generator: Adobe Illustrator 13.0.0, SVG Export Plug-In . SVG Version: 6.00 Build 14948)  -->
<!DOCTYPE svg PUBLIC "-//W3C//DTD SVG 1.1//EN" "http://www.w3.org/Graphics/SVG/1.1/DTD/svg11.dtd">
<svg version="1.1" id="Layer_1" xmlns="http://www.w3.org/2000/svg" xmlns:xlink="http://www.w3.org/1999/xlink" x="0px" y="0px"
	 width="128px" height="128px" viewBox="0 0 128 128" enable-background="new 0 0 128 128" xml:space="preserve">
<g>
	<g>
		<g>
			
				<linearGradient id="SVGID_1_" gradientUnits="userSpaceOnUse" x1="-145.6626" y1="-694.6396" x2="-145.6626" y2="-811.3409" gradientTransform="matrix(1 0 0 -1 209.6631 -688.7129)">
				<stop  offset="0" style="stop-color:#D5D7D8"/>
				<stop  offset="1" style="stop-color:#5C5F61"/>
			</linearGradient>
			<path fill="url(#SVGID_1_)" d="M121.393,21.104l-11.987,17.023c-1.554,2.206-4.091,3.521-6.793,3.521
				c-1.716,0-3.364-0.529-4.767-1.516l-10.643-7.491c-3.736-2.628-4.633-7.819-2.002-11.562L97.192,4.06
				c-0.902-0.086-1.803-0.125-2.703-0.125c-9.659,0-18.737,4.708-24.29,12.592c-5.935,8.423-7.076,19.134-3.055,28.668l0.557,1.308
				l-2.308,2.481L7.772,99.659c-13.054,10.98,9.806,33.838,20.942,20.942l50.532-57.278l2.487-2.873l1.205,0.508
				c3.668,1.553,7.549,2.334,11.541,2.334l0,0c9.646,0,18.721-4.709,24.272-12.584C124.874,42.024,125.819,30.661,121.393,21.104z"
				/>
		</g>
		<path opacity="0.5" fill="#FFFFFF" d="M94.207,8.19l1.553-2.226C77.871,4.546,60.21,28.806,70.387,44.506l1.303-1.638
			C64.385,28.213,77.859,8.854,94.207,8.19z"/>
	</g>
	<path opacity="0.5" fill="#FFFFFF" d="M9.348,105.01c-0.33,0.284-0.898,0.163-1.278-0.27l0,0c-0.381-0.435-0.423-1.019-0.095-1.306
		l61.729-53.775c0.327-0.286,0.899-0.162,1.277,0.272l0,0c0.38,0.435,0.422,1.017,0.096,1.302L9.348,105.01z"/>
</g>
</svg>
