<?xml version="1.0" encoding="utf-8"?>
<!-- Generator: Adobe Illustrator 13.0.0, SVG Export Plug-In . SVG Version: 6.00 Build 14948)  -->
<!DOCTYPE svg PUBLIC "-//W3C//DTD SVG 1.1//EN" "http://www.w3.org/Graphics/SVG/1.1/DTD/svg11.dtd">
<svg version="1.1" id="Layer_1" xmlns="http://www.w3.org/2000/svg" xmlns:xlink="http://www.w3.org/1999/xlink" x="0px" y="0px"
	 width="128px" height="128px" viewBox="0 0 128 128" enable-background="new 0 0 128 128" xml:space="preserve">
<g>
	<g>
		<g>
			<g>
				
					<linearGradient id="SVGID_1_" gradientUnits="userSpaceOnUse" x1="-145.6636" y1="-694.6392" x2="-145.6636" y2="-811.3409" gradientTransform="matrix(1 0 0 -1 209.6631 -688.7129)">
					<stop  offset="0" style="stop-color:#D5D7D8"/>
					<stop  offset="1" style="stop-color:#5C5F61"/>
				</linearGradient>
				<path fill="url(#SVGID_1_)" d="M121.392,21.104l-11.987,17.023c-1.554,2.206-4.091,3.521-6.793,3.521
					c-1.716,0-3.364-0.529-4.767-1.516l-10.643-7.491c-3.736-2.628-4.633-7.819-2.002-11.562L97.191,4.059
					c-0.902-0.086-1.803-0.125-2.703-0.125c-9.659,0-18.737,4.708-24.29,12.592c-5.935,8.423-7.076,19.134-3.055,28.668l0.557,1.308
					l-2.308,2.481L7.771,99.659c-13.054,10.98,9.806,33.838,20.942,20.942l50.532-57.279l2.487-2.873l1.205,0.508
					c3.668,1.553,7.549,2.334,11.541,2.334l0,0c9.646,0,18.721-4.709,24.272-12.584C124.873,42.024,125.818,30.661,121.392,21.104z"
					/>
			</g>
			<path opacity="0.5" fill="#FFFFFF" d="M94.206,8.19l1.553-2.226C77.87,4.545,60.209,28.805,70.386,44.505l1.303-1.638
				C64.384,28.212,77.858,8.854,94.206,8.19z"/>
		</g>
		<path opacity="0.5" fill="#FFFFFF" d="M9.347,105.01c-0.33,0.284-0.898,0.163-1.278-0.27l0,0
			c-0.381-0.435-0.423-1.019-0.095-1.306l61.729-53.776c0.327-0.286,0.899-0.162,1.277,0.272l0,0
			c0.38,0.435,0.422,1.017,0.096,1.302L9.347,105.01z"/>
	</g>
	<g>
		
			<linearGradient id="SVGID_2_" gradientUnits="userSpaceOnUse" x1="-353.7759" y1="900.7461" x2="-353.7759" y2="928.8438" gradientTransform="matrix(1 0 0 1 412.6201 -813.9912)">
			<stop  offset="0" style="stop-color:#FFD207"/>
			<stop  offset="1" style="stop-color:#FAA61A"/>
		</linearGradient>
		<path fill="url(#SVGID_2_)" d="M37.434,86.754l42.818,0.002c4.432,0,8.027,3.598,8.027,8.034l0.002,12.031
			c0,4.435-3.595,8.03-8.027,8.03l-42.818-0.002c-4.432,0-8.025-3.596-8.025-8.033l-0.002-12.028
			C29.406,90.35,33.001,86.754,37.434,86.754L37.434,86.754z"/>
		<g>
			
				<linearGradient id="SVGID_3_" gradientUnits="userSpaceOnUse" x1="-366.2539" y1="917.9932" x2="-375.3885" y2="911.597" gradientTransform="matrix(1 0 0 1 412.6201 -813.9912)">
				<stop  offset="0" style="stop-color:#5F5D5C"/>
				<stop  offset="1" style="stop-color:#181500"/>
			</linearGradient>
			<path fill="url(#SVGID_3_)" d="M46.311,103.512c0,0.996-0.807,1.805-1.805,1.805h-5.414c-0.996,0-1.805-0.809-1.805-1.805v-5.416
				c0-0.996,0.809-1.804,1.805-1.804h5.414c0.998,0,1.805,0.808,1.805,1.804V103.512z"/>
			
				<linearGradient id="SVGID_4_" gradientUnits="userSpaceOnUse" x1="-345.4985" y1="910.2832" x2="-345.4985" y2="919.3086" gradientTransform="matrix(1 0 0 1 412.6201 -813.9912)">
				<stop  offset="0" style="stop-color:#5F5D5C"/>
				<stop  offset="1" style="stop-color:#181500"/>
			</linearGradient>
			<path fill="url(#SVGID_4_)" d="M71.633,103.512c0,0.996-0.807,1.805-1.805,1.805h-5.412c-0.998,0-1.805-0.809-1.805-1.805v-5.416
				c0-0.996,0.807-1.804,1.805-1.804h5.412c0.998,0,1.805,0.808,1.805,1.804V103.512z"/>
		</g>
	</g>
</g>
</svg>
