<?xml version="1.0" encoding="utf-8"?>
<!-- Generator: Adobe Illustrator 13.0.0, SVG Export Plug-In . SVG Version: 6.00 Build 14948)  -->
<!DOCTYPE svg PUBLIC "-//W3C//DTD SVG 1.1//EN" "http://www.w3.org/Graphics/SVG/1.1/DTD/svg11.dtd">
<svg version="1.1" id="Layer_1" xmlns="http://www.w3.org/2000/svg" xmlns:xlink="http://www.w3.org/1999/xlink" x="0px" y="0px"
	 width="128px" height="128.195px" viewBox="0 0 128 128.195" enable-background="new 0 0 128 128.195" xml:space="preserve">
<g>
	<g>
		<g>
			
				<linearGradient id="SVGID_1_" gradientUnits="userSpaceOnUse" x1="-182.728" y1="-609.2673" x2="-182.728" y2="-725.005" gradientTransform="matrix(1 0 0 -1 246.7271 -588.3813)">
				<stop  offset="0" style="stop-color:#5F5D5C"/>
				<stop  offset="1" style="stop-color:#181500"/>
			</linearGradient>
			<path fill="url(#SVGID_1_)" d="M109.502,22.432H18.5c-9.342,0-16.914,7.572-16.914,16.91v67.378
				c0,9.342,7.572,16.912,16.914,16.912h12.823c-0.216-0.656-0.333-1.355-0.333-2.09c0-3.719,3.018-6.736,6.74-6.736h5.992
				c3.721,0,6.739,3.02,6.739,6.736c0,0.732-0.12,1.434-0.334,2.09H77.87c-0.214-0.656-0.332-1.355-0.332-2.09
				c0-3.719,3.019-6.736,6.739-6.736h5.992c3.724,0,6.738,3.02,6.738,6.736c0,0.732-0.117,1.434-0.335,2.09H109.5
				c9.34,0,16.912-7.57,16.912-16.912V39.344C126.414,30.006,118.842,22.432,109.502,22.432z"/>
		</g>
		<g>
			<radialGradient id="SVGID_2_" cx="36.9209" cy="81.6082" r="28.0024" gradientUnits="userSpaceOnUse">
				<stop  offset="0" style="stop-color:#FAFAFA"/>
				<stop  offset="0.4142" style="stop-color:#E3E3E3"/>
				<stop  offset="1" style="stop-color:#C7C7C7"/>
			</radialGradient>
			<path fill="url(#SVGID_2_)" d="M8.929,81.607c0-15.469,12.533-28.011,27.992-28.011c15.458,0,27.992,12.542,27.992,28.011
				c0,15.471-12.534,28.014-27.992,28.014C21.462,109.621,8.929,97.078,8.929,81.607L8.929,81.607z"/>
			<linearGradient id="SVGID_3_" gradientUnits="userSpaceOnUse" x1="26.312" y1="67.365" x2="26.312" y2="81.9626">
				<stop  offset="0" style="stop-color:#EC008C"/>
				<stop  offset="1" style="stop-color:#C40075"/>
			</linearGradient>
			<path fill="url(#SVGID_3_)" d="M19.018,74.664c0-4.029,3.268-7.299,7.295-7.299c4.028,0,7.294,3.27,7.294,7.299
				c0,4.033-3.266,7.299-7.294,7.299C22.285,81.963,19.018,78.697,19.018,74.664L19.018,74.664z"/>
			<path fill="#F2F2F2" d="M15.728,67.103c4.676-6.417,13.27-11.334,21.303-11.334s16.408,4.917,21.082,11.334h0.89
				c-4.954-7.554-12.994-12.496-22.08-12.496c-9.089,0-17.129,4.941-22.082,12.496H15.728z"/>
			<linearGradient id="SVGID_4_" gradientUnits="userSpaceOnUse" x1="14.8398" y1="98.0066" x2="59.002" y2="98.0066">
				<stop  offset="0" style="stop-color:#EC008C"/>
				<stop  offset="1" style="stop-color:#C40075"/>
			</linearGradient>
			<path fill="url(#SVGID_4_)" d="M58.114,91.76c-4.676,6.418-13.27,11.334-21.304,11.334S20.403,98.177,15.729,91.76H14.84
				c4.953,7.553,12.993,12.494,22.079,12.494c9.089,0,17.13-4.941,22.083-12.494H58.114z"/>
		</g>
		<g>
			<g>
				
					<linearGradient id="SVGID_5_" gradientUnits="userSpaceOnUse" x1="-144.7026" y1="-696.6086" x2="-171.6563" y2="-677.7355" gradientTransform="matrix(1 0 0 -1 246.7271 -588.5747)">
					<stop  offset="0.0824" style="stop-color:#C2C2C2"/>
					<stop  offset="0.2635" style="stop-color:#D2D2D2"/>
					<stop  offset="0.5594" style="stop-color:#E6E6E6"/>
					<stop  offset="0.7582" style="stop-color:#EDEDED"/>
				</linearGradient>
				<polygon fill="url(#SVGID_5_)" points="70.058,96.322 107.039,96.322 107.039,100.875 70.058,100.875 				"/>
			</g>
			<g>
				
					<linearGradient id="SVGID_6_" gradientUnits="userSpaceOnUse" x1="-133.4102" y1="-689.9553" x2="-169.4329" y2="-664.732" gradientTransform="matrix(1 0 0 -1 246.7271 -588.5747)">
					<stop  offset="0.0824" style="stop-color:#C2C2C2"/>
					<stop  offset="0.2635" style="stop-color:#D2D2D2"/>
					<stop  offset="0.5594" style="stop-color:#E6E6E6"/>
					<stop  offset="0.7582" style="stop-color:#EDEDED"/>
				</linearGradient>
				<polygon fill="url(#SVGID_6_)" points="70.058,86.494 120.555,86.494 120.555,91.047 70.058,91.047 				"/>
				
					<linearGradient id="SVGID_7_" gradientUnits="userSpaceOnUse" x1="-144.7012" y1="-676.9534" x2="-171.6572" y2="-658.0786" gradientTransform="matrix(1 0 0 -1 246.7271 -588.5747)">
					<stop  offset="0.0824" style="stop-color:#C2C2C2"/>
					<stop  offset="0.2635" style="stop-color:#D2D2D2"/>
					<stop  offset="0.5594" style="stop-color:#E6E6E6"/>
					<stop  offset="0.7582" style="stop-color:#EDEDED"/>
				</linearGradient>
				<polygon fill="url(#SVGID_7_)" points="70.058,76.664 107.039,76.664 107.039,81.22 70.058,81.22 				"/>
			</g>
		</g>
		
			<linearGradient id="SVGID_8_" gradientUnits="userSpaceOnUse" x1="-182.5942" y1="-612.741" x2="-182.5942" y2="-634.3171" gradientTransform="matrix(1 0 0 -1 246.7271 -588.5747)">
			<stop  offset="0" style="stop-color:#EC008C"/>
			<stop  offset="1" style="stop-color:#C4008C"/>
		</linearGradient>
		<path fill="url(#SVGID_8_)" d="M108.249,24.166H20.021c-9.058,0-16.399,7.344-16.399,16.395v5.182h121.023V40.56
			C124.645,31.509,117.305,24.166,108.249,24.166z"/>
		<path opacity="0.8" fill="#EC8690" d="M21.255,27.841h86.031c7.447,0,13.686,5.099,15.463,11.987
			c-0.789-8.021-7.555-14.292-15.787-14.292H21.578c-8.235,0-15.002,6.271-15.791,14.294C7.564,32.942,13.806,27.841,21.255,27.841z
			"/>
	</g>
	
		<linearGradient id="SVGID_9_" gradientUnits="userSpaceOnUse" x1="-311.9028" y1="816.9939" x2="-311.9028" y2="856.1208" gradientTransform="matrix(1 0 0 1 412.6201 -813.9912)">
		<stop  offset="0" style="stop-color:#57C7F1"/>
		<stop  offset="1" style="stop-color:#99DBF6"/>
	</linearGradient>
	<polygon fill="url(#SVGID_9_)" stroke="#0091DE" points="117.01,11.651 109.281,4.92 101.707,17.664 99.406,3.002 89.674,6.323 
		96.943,19.239 83.148,13.887 81.146,23.94 95.977,24.239 84.496,33.424 92.227,40.155 99.787,27.537 100.91,34.834 102.031,42.129 
		111.764,38.807 104.494,25.891 118.289,31.244 120.289,21.19 112.875,21.041 105.516,20.959 	"/>
</g>
</svg>
