<?xml version="1.0" encoding="utf-8"?>
<!-- Generator: Adobe Illustrator 13.0.0, SVG Export Plug-In . SVG Version: 6.00 Build 14948)  -->
<!DOCTYPE svg PUBLIC "-//W3C//DTD SVG 1.1//EN" "http://www.w3.org/Graphics/SVG/1.1/DTD/svg11.dtd">
<svg version="1.1" id="Layer_1" xmlns="http://www.w3.org/2000/svg" xmlns:xlink="http://www.w3.org/1999/xlink" x="0px" y="0px"
	 width="128px" height="128px" viewBox="0 0 128 128" enable-background="new 0 0 128 128" xml:space="preserve">
<g>
	<g>
		
			<radialGradient id="SVGID_1_" cx="63.9023" cy="64.002" r="53.1358" gradientTransform="matrix(1 0 0 1 0 -9.765625e-04)" gradientUnits="userSpaceOnUse">
			<stop  offset="0" style="stop-color:#FAFAFA"/>
			<stop  offset="0.3109" style="stop-color:#F4F4F4"/>
			<stop  offset="0.7262" style="stop-color:#E3E3E3"/>
			<stop  offset="1" style="stop-color:#D4D4D4"/>
		</radialGradient>
		<path fill="url(#SVGID_1_)" stroke="#B3B3B3" stroke-width="2" d="M108.586,22.207v83.586c0,10.285-8.344,18.625-18.637,18.625
			H37.856c-10.295,0-18.637-8.34-18.637-18.625V22.207c0-10.285,8.342-18.623,18.637-18.623h52.093
			C100.242,3.584,108.586,11.922,108.586,22.207L108.586,22.207z"/>
		<path fill="#B3B3B3" d="M90.145,122.092H38.05c-10.295,0-18.637-8.34-18.637-18.625v2.326c0,10.285,8.342,18.625,18.637,18.625
			h52.094c10.293,0,18.637-8.34,18.637-18.625v-2.326C108.781,113.752,100.438,122.092,90.145,122.092z"/>
		<path fill="#FFFFFF" d="M30.385,11.57c2.079-1.734,4.432-2.905,7.665-2.905h52.094c3.234,0,5.586,1.171,7.666,2.905h2.629
			c-2.621-2.646-5.805-4.238-10.295-4.238H38.05c-4.489,0-7.673,1.593-10.294,4.238H30.385z"/>
	</g>
	<g>
		
			<linearGradient id="SVGID_2_" gradientUnits="userSpaceOnUse" x1="6829.0693" y1="5093.875" x2="6829.0693" y2="5046.5537" gradientTransform="matrix(-1 0 0 -1 6913.5684 5163.2812)">
			<stop  offset="0" style="stop-color:#80E21B"/>
			<stop  offset="1" style="stop-color:#80B400"/>
		</linearGradient>
		<path fill="url(#SVGID_2_)" stroke="#70993E" stroke-miterlimit="3.8637" d="M101.66,102.036c1.131-1.189,1.725-2.559,1.725-4.226
			c0-1.604-0.596-3.034-1.725-4.224c-1.189-1.129-2.617-1.725-4.221-1.725c-1.668-0.003-3.096,0.595-4.227,1.725l-2.734,2.797
			l-0.002-21.028c-0.061-1.664-0.596-3.092-1.785-4.224c-1.131-1.19-2.559-1.725-4.166-1.725c-1.664,0-3.09,0.534-4.219,1.725
			c-1.189,1.13-1.787,2.558-1.787,4.222l0.002,21.028l-2.736-2.797c-1.189-1.13-2.557-1.727-4.225-1.727
			c-1.605,0-3.031,0.597-4.219,1.726c-1.131,1.189-1.727,2.616-1.727,4.224c0,1.666,0.596,3.035,1.727,4.226l12.967,12.911
			c1.133,1.189,2.557,1.784,4.223,1.784c1.605,0,3.031-0.593,4.164-1.782L101.66,102.036z"/>
		<g>
			<path fill="#70993E" d="M80.307,71.919c1.129-1.191,2.555-1.728,4.219-1.728c1.607,0,3.035,0.536,4.166,1.728
				c1.152,1.096,1.689,2.472,1.773,4.072h0.012v-0.636c-0.061-1.664-0.596-3.092-1.785-4.224c-1.131-1.19-2.559-1.725-4.166-1.725
				c-1.664,0-3.09,0.534-4.219,1.725c-1.189,1.13-1.787,2.558-1.787,4.222v0.785C78.52,74.475,79.117,73.048,80.307,71.919z"/>
		</g>
		<g>
			<path opacity="0.8" fill="#FFFFFF" d="M100.473,100.883l-12.068,12.017c-1.055,1.106-2.381,1.657-3.875,1.657
				c-1.549,0-2.877-0.554-3.932-1.66l-12.068-12.019c-0.93-0.976-1.316-0.45,0,1.057l12.068,12.019
				c1.055,1.107,2.383,1.66,3.932,1.66c1.494,0,2.82-0.552,3.875-1.658l12.068-12.017C101.965,100.458,101.4,99.905,100.473,100.883
				z"/>
		</g>
	</g>
</g>
</svg>
