<?xml version="1.0" encoding="utf-8"?>
<!-- Generator: Adobe Illustrator 13.0.0, SVG Export Plug-In . SVG Version: 6.00 Build 14948)  -->
<!DOCTYPE svg PUBLIC "-//W3C//DTD SVG 1.1//EN" "http://www.w3.org/Graphics/SVG/1.1/DTD/svg11.dtd">
<svg version="1.1" id="Layer_1" xmlns="http://www.w3.org/2000/svg" xmlns:xlink="http://www.w3.org/1999/xlink" x="0px" y="0px"
	 width="128px" height="128px" viewBox="0 0 128 128" enable-background="new 0 0 128 128" xml:space="preserve">
<g>
	<g>
		<g>
			<g>
				
					<linearGradient id="SVGID_1_" gradientUnits="userSpaceOnUse" x1="-225.1113" y1="60.5317" x2="-225.1113" y2="131.8306" gradientTransform="matrix(1 0 0 -1 289.2754 151.834)">
					<stop  offset="0" style="stop-color:#ECEEF0"/>
					<stop  offset="0.2485" style="stop-color:#E8E8E9"/>
					<stop  offset="0.5636" style="stop-color:#EEEFF2"/>
					<stop  offset="0.9212" style="stop-color:#D4D5D6"/>
				</linearGradient>
				<path fill="url(#SVGID_1_)" d="M96.865,26.288c-0.559-3.56-3.631-6.284-7.346-6.284H62.231c-3.646,0-6.675,2.625-7.312,6.089
					H33.671c-7.506,0-13.59,6.088-13.59,13.6v38.009c0,7.511,6.084,13.601,13.59,13.601h60.986c7.506,0,13.59-6.09,13.59-13.601
					V39.693C108.247,32.935,103.318,27.345,96.865,26.288z"/>
			</g>
			<g>
				<path fill="none" stroke="#B3B3B3" d="M96.865,26.288c-0.559-3.56-3.631-6.284-7.346-6.284H62.231
					c-3.646,0-6.675,2.625-7.312,6.089H33.671c-7.506,0-13.59,6.088-13.59,13.6v38.009c0,7.511,6.084,13.601,13.59,13.601h60.986
					c7.506,0,13.59-6.09,13.59-13.601V39.693C108.247,32.935,103.318,27.345,96.865,26.288z"/>
			</g>
		</g>
		<path opacity="0.75" fill="#F2F2F2" enable-background="new    " d="M57.589,23.464c0.844-1.266,2.088-2.07,3.475-2.07h29.73
			c1.386,0,2.627,0.805,3.474,2.07h0.588c-0.924-1.615-2.398-2.67-4.062-2.67h-29.73c-1.664,0-3.139,1.055-4.062,2.67H57.589z"/>
	</g>
	<g>
		<g>
			<g>
				
					<linearGradient id="SVGID_2_" gradientUnits="userSpaceOnUse" x1="-217.3315" y1="96.1689" x2="-230.0175" y2="105.0518" gradientTransform="matrix(1 0 0 -1 289.2754 151.834)">
					<stop  offset="0" style="stop-color:#181500"/>
					<stop  offset="1" style="stop-color:#5F5D5C"/>
				</linearGradient>
				<path fill="url(#SVGID_2_)" d="M66.075,41.4h-3c-0.592,7.959-1.709,14.543-5.398,14.428h13.796
					C67.777,55.943,66.661,49.359,66.075,41.4z"/>
				
					<linearGradient id="SVGID_3_" gradientUnits="userSpaceOnUse" x1="-225.1411" y1="96.3193" x2="-225.1411" y2="92.0513" gradientTransform="matrix(1 0 0 -1 289.2754 151.834)">
					<stop  offset="0" style="stop-color:#181500"/>
					<stop  offset="1" style="stop-color:#5F5D5C"/>
				</linearGradient>
				<path fill="url(#SVGID_3_)" d="M80.859,58.296c0,1.178-0.955,1.477-2.133,1.477H49.544c-1.18,0-2.135-0.297-2.135-1.477v0.09
					c0-1.178,0.955-2.133,2.135-2.133l9.281-0.656h11.442l8.459,0.656c1.178,0,2.133,0.955,2.133,2.133V58.296z"/>
			</g>
			<g opacity="0.79">
				<path fill="#808080" d="M78.136,56.388l-8.112-0.631H59.046l-8.902,0.631c-1.115,0-1.482,0.527-2.031,1.57
					c0.002,0.146,1.062-0.758,2.031-0.758l8.902-0.631h10.978l8.112,0.631c0.97,0,2.017,0.82,2.021,0.676
					C79.605,56.804,79.251,56.388,78.136,56.388z"/>
				
					<linearGradient id="SVGID_4_" gradientUnits="userSpaceOnUse" x1="-241.1763" y1="93.4902" x2="-241.1763" y2="93.4023" gradientTransform="matrix(1 0 0 -1 289.2754 151.834)">
					<stop  offset="0" style="stop-color:#FFFFFF"/>
					<stop  offset="1" style="stop-color:#000000"/>
				</linearGradient>
				<path fill="url(#SVGID_4_)" d="M48.097,58.433c0-0.016,0.004-0.029,0.004-0.043c0-0.016-0.004-0.027-0.004-0.043V58.433z"/>
				
					<linearGradient id="SVGID_5_" gradientUnits="userSpaceOnUse" x1="-209.0967" y1="93.4902" x2="-209.0967" y2="93.4023" gradientTransform="matrix(1 0 0 -1 289.2754 151.834)">
					<stop  offset="0" style="stop-color:#FFFFFF"/>
					<stop  offset="1" style="stop-color:#000000"/>
				</linearGradient>
				<path fill="url(#SVGID_5_)" d="M80.177,58.39c0.003,0.014,0.005,0.027,0.005,0.043v-0.086
					C80.182,58.363,80.18,58.374,80.177,58.39z"/>
			</g>
			
				<linearGradient id="SVGID_6_" gradientUnits="userSpaceOnUse" x1="-195.209" y1="106.5898" x2="-254.0988" y2="147.8249" gradientTransform="matrix(1 0 0 -1 289.2754 151.834)">
				<stop  offset="0" style="stop-color:#181500"/>
				<stop  offset="1" style="stop-color:#5F5D5C"/>
			</linearGradient>
			<path fill="url(#SVGID_6_)" d="M95.952,37.579c0,4.52-3.662,8.182-8.183,8.182H40.497c-4.518,0-8.18-3.664-8.18-8.182v-26.59
				c0-4.518,3.662-8.182,8.18-8.182H87.77c4.521,0,8.183,3.664,8.183,8.182V37.579z"/>
			<path fill="#B3B3B3" d="M35.433,6.749c1.375-1.484,4.07-2.846,6.436-2.846l44.74,0.061c2.365,0,4.703,1.301,6.076,2.785h0.512
				c-1.354-1.967-3.85-3.289-6.713-3.289H41.497c-2.863,0-5.359,1.322-6.711,3.289H35.433z"/>
			<path d="M92.548,41.919c-1.375,1.484-4.069,2.846-6.434,2.846l-44.742-0.061c-2.365,0-4.701-1.301-6.076-2.785h-0.51
				c1.352,1.967,3.848,3.289,6.711,3.289h44.985c2.863,0,5.359-1.322,6.713-3.289H92.548z"/>
			
				<linearGradient id="SVGID_7_" gradientUnits="userSpaceOnUse" x1="-199.8066" y1="109.7539" x2="-250.6386" y2="145.3468" gradientTransform="matrix(1 0 0 -1 289.2754 151.834)">
				<stop  offset="0" style="stop-color:#00B2DE"/>
				<stop  offset="1" style="stop-color:#99DBF6"/>
			</linearGradient>
			<path fill="url(#SVGID_7_)" d="M92.473,35.661c0,3.863-3.271,6.998-7.308,6.998H42.94c-4.035,0-7.307-3.135-7.307-6.998v-22.75
				c0-3.867,3.271-7.002,7.307-7.002h42.225c4.037,0,7.308,3.135,7.308,7.002V35.661z"/>
			<path opacity="0.48" fill="#94D9F8" enable-background="new    " d="M85.165,5.909H42.94c-4.035,0-7.307,3.135-7.307,7.002
				v16.902c5.756,1.568,12.211,2.447,19.033,2.447c16.139,0,30.227-4.92,37.805-12.238v-7.111
				C92.473,9.044,89.202,5.909,85.165,5.909z"/>
		</g>
		
			<line fill="none" stroke="#181512" stroke-width="3" stroke-miterlimit="3.8637" stroke-dasharray="3" x1="12.312" y1="27.363" x2="27.846" y2="27.363"/>
		
			<line fill="none" stroke="#181512" stroke-width="3" stroke-miterlimit="3.8637" stroke-dasharray="3" x1="100.152" y1="27.363" x2="115.688" y2="27.363"/>
	</g>
	
		<linearGradient id="SVGID_8_" gradientUnits="userSpaceOnUse" x1="-225.2764" y1="114.377" x2="-225.2764" y2="32.834" gradientTransform="matrix(1 0 0 -1 289.2754 151.834)">
		<stop  offset="0" style="stop-color:#9A9A9A"/>
		<stop  offset="1" style="stop-color:#DEDEDE"/>
	</linearGradient>
	<path fill="url(#SVGID_8_)" d="M26.567,37.458h79.812c15.377,0,20.582,8.637,18.867,18.882l-9.738,47.437
		C113.105,114.726,107.799,119,97.379,119H30.7c-10.422,0-15.564-2.728-18.869-18.882l-9-43.777
		C0.769,45.886,6.808,37.458,21.7,37.458H26.567z"/>
	<path fill="#999999" d="M98.062,115.999H30.019c-8.578,0-13.65-1.816-17.062-11.168c3.338,11.982,8.434,14.168,17.744,14.168h66.68
		c9.906,0,15.184-3.875,17.746-13.66C112.218,112.915,106.979,115.999,98.062,115.999z"/>
	<path fill="#FFFFFF" d="M24.048,43.267h4.596h75.338c12.354,0,17.754,5.908,18.086,13.633c0.104-8.211-5.197-14.646-18.086-14.646
		H28.644h-4.596c-12.664,0-18.525,6.466-18.141,14.96l0.002-0.008C6.028,49.223,11.899,43.267,24.048,43.267z"/>
	
		<linearGradient id="SVGID_9_" gradientUnits="userSpaceOnUse" x1="-225.2759" y1="85.582" x2="-225.2759" y2="108.5518" gradientTransform="matrix(1 0 0 -1 289.2754 151.834)">
		<stop  offset="0" style="stop-color:#999999"/>
		<stop  offset="1" style="stop-color:#CCCCCC"/>
	</linearGradient>
	<path fill="url(#SVGID_9_)" d="M7.3,66.157c2.408-4.781,7.938-7.926,16.771-7.926h4.594h75.338c9.127,0,14.455,3.225,16.754,8.021
		l1.058-5.146c1.619-9.672-3.295-17.824-17.812-17.824H28.665h-4.594c-14.059,0-19.758,7.955-17.811,17.824L7.3,66.157z"/>
</g>
</svg>
