<?xml version="1.0" encoding="utf-8"?>
<!-- Generator: Adobe Illustrator 13.0.0, SVG Export Plug-In . SVG Version: 6.00 Build 14948)  -->
<!DOCTYPE svg PUBLIC "-//W3C//DTD SVG 1.1//EN" "http://www.w3.org/Graphics/SVG/1.1/DTD/svg11.dtd">
<svg version="1.1" id="Layer_1" xmlns="http://www.w3.org/2000/svg" xmlns:xlink="http://www.w3.org/1999/xlink" x="0px" y="0px"
	 width="128px" height="128px" viewBox="0 0 128 128" enable-background="new 0 0 128 128" xml:space="preserve">
<g>
	<g>
		
			<radialGradient id="SVGID_1_" cx="63.9023" cy="64.002" r="53.1358" gradientTransform="matrix(1 0 0 1 0 -9.765625e-04)" gradientUnits="userSpaceOnUse">
			<stop  offset="0" style="stop-color:#FAFAFA"/>
			<stop  offset="0.3109" style="stop-color:#F4F4F4"/>
			<stop  offset="0.7262" style="stop-color:#E3E3E3"/>
			<stop  offset="1" style="stop-color:#D4D4D4"/>
		</radialGradient>
		<path fill="url(#SVGID_1_)" stroke="#B3B3B3" stroke-width="2" d="M108.586,22.207v83.586c0,10.285-8.344,18.625-18.637,18.625
			H37.856c-10.295,0-18.637-8.34-18.637-18.625V22.207c0-10.285,8.342-18.623,18.637-18.623h52.093
			C100.242,3.584,108.586,11.922,108.586,22.207L108.586,22.207z"/>
		<path fill="#B3B3B3" d="M90.145,122.092H38.05c-10.295,0-18.637-8.34-18.637-18.625v2.326c0,10.285,8.342,18.625,18.637,18.625
			h52.094c10.293,0,18.637-8.34,18.637-18.625v-2.326C108.781,113.752,100.438,122.092,90.145,122.092z"/>
		<path fill="#FFFFFF" d="M30.385,11.57c2.079-1.734,4.432-2.905,7.665-2.905h52.094c3.234,0,5.586,1.171,7.666,2.905h2.629
			c-2.621-2.646-5.805-4.238-10.295-4.238H38.05c-4.489,0-7.673,1.593-10.294,4.238H30.385z"/>
	</g>
	<g>
		<g>
			<g>
				
					<linearGradient id="SVGID_2_" gradientUnits="userSpaceOnUse" x1="-7010.1719" y1="1596.2441" x2="-7010.1719" y2="1634.1621" gradientTransform="matrix(-1 0 0 1 -6926.2588 -1531.6846)">
					<stop  offset="0" style="stop-color:#80E21B"/>
					<stop  offset="1" style="stop-color:#80B400"/>
				</linearGradient>
				<path fill="url(#SVGID_2_)" d="M80.742,71.059c-0.002-1.708-0.002-3.011-0.002-3.281c0-0.871-0.324-1.645-0.936-2.285
					c-0.643-0.612-1.414-0.934-2.285-0.933c-0.9,0-1.639,0.323-2.281,0.933l-6.979,7.021c-0.639,0.612-0.963,1.386-0.961,2.254
					c0,0.901,0.322,1.675,0.967,2.284l6.984,7.012c0.645,0.611,1.385,0.934,2.285,0.933c0.869,0,1.643-0.322,2.283-0.934
					c0.611-0.645,0.934-1.417,0.934-2.286c-0.002-0.275-0.004-1.605-0.004-3.343c16.58,1.912,16.004,17.671,15.232,23.393
					c-0.072,0.546,0.604,0.895,0.922,0.448c2.285-3.229,3.625-7.165,3.625-11.42C100.529,79.924,91.672,71.063,80.742,71.059z"/>
			</g>
		</g>
		<g>
			<g>
				<g>
					
						<linearGradient id="SVGID_3_" gradientUnits="userSpaceOnUse" x1="-461.7368" y1="-643.0942" x2="-461.7368" y2="-681.0122" gradientTransform="matrix(1 0 0 -1 535.9648 -562.8086)">
						<stop  offset="0" style="stop-color:#80E21B"/>
						<stop  offset="1" style="stop-color:#80B400"/>
					</linearGradient>
					<path fill="url(#SVGID_3_)" d="M89.877,105.713L82.891,98.7c-0.643-0.611-1.383-0.934-2.283-0.933
						c-0.869,0-1.643,0.323-2.283,0.935c-0.611,0.643-0.934,1.417-0.934,2.285c0,0.274,0.002,1.604,0.004,3.343
						c-16.58-1.912-16.002-17.67-15.234-23.393c0.073-0.545-0.603-0.896-0.92-0.447c-2.283,3.227-3.629,7.163-3.629,11.416
						c0,10.932,8.859,19.792,19.789,19.795c0,1.709,0,3.015,0.002,3.285c0,0.867,0.322,1.642,0.936,2.284
						c0.641,0.608,1.414,0.934,2.283,0.933c0.9-0.002,1.641-0.324,2.283-0.934l6.979-7.021c0.639-0.61,0.961-1.384,0.961-2.254
						C90.844,107.095,90.521,106.322,89.877,105.713z"/>
				</g>
			</g>
		</g>
		<g>
			<path opacity="0.5" fill="#FFFFFF" d="M80.652,72.149l0.02,0.957c9.99-0.298,18.332,7.558,18.631,17.547
				c0.107,3.571-0.836,6.923-2.535,9.782c0.008-0.012,0.02-0.018,0.029-0.031c1.998-3.014,3.115-6.648,2.998-10.539
				C99.494,79.875,90.643,71.853,80.652,72.149z"/>
		</g>
		<g>
			<path opacity="0.5" fill="#FFFFFF" d="M77.477,110.583l-0.02-0.957c-9.99,0.298-18.331-7.558-18.63-17.547
				c-0.107-3.571,0.836-6.923,2.536-9.782c-0.009,0.012-0.021,0.018-0.03,0.031c-1.998,3.014-3.114,6.648-2.997,10.539
				C58.635,102.857,67.486,110.88,77.477,110.583z"/>
		</g>
	</g>
</g>
</svg>
