<?xml version="1.0" encoding="utf-8"?>
<!-- Generator: Adobe Illustrator 13.0.0, SVG Export Plug-In . SVG Version: 6.00 Build 14948)  -->
<!DOCTYPE svg PUBLIC "-//W3C//DTD SVG 1.1//EN" "http://www.w3.org/Graphics/SVG/1.1/DTD/svg11.dtd">
<svg version="1.1" id="Layer_1" xmlns="http://www.w3.org/2000/svg" xmlns:xlink="http://www.w3.org/1999/xlink" x="0px" y="0px"
	 width="128px" height="128px" viewBox="0 0 128 128" enable-background="new 0 0 128 128" xml:space="preserve">
<g>
	<g>
		<g>
			<g>
				
					<linearGradient id="SVGID_1_" gradientUnits="userSpaceOnUse" x1="-803.6626" y1="-604.5757" x2="-803.6626" y2="-533.2773" gradientTransform="matrix(1 0 0 -1 867.8262 -513.2754)">
					<stop  offset="0" style="stop-color:#ECEEF0"/>
					<stop  offset="0.2485" style="stop-color:#E8E8E9"/>
					<stop  offset="0.5636" style="stop-color:#EEEFF2"/>
					<stop  offset="0.9212" style="stop-color:#D4D5D6"/>
				</linearGradient>
				<path fill="url(#SVGID_1_)" d="M96.865,26.286c-0.559-3.56-3.631-6.284-7.346-6.284H62.231c-3.646,0-6.675,2.625-7.312,6.089
					H33.671c-7.506,0-13.59,6.088-13.59,13.6V77.7c0,7.511,6.084,13.601,13.59,13.601h60.986c7.506,0,13.59-6.09,13.59-13.601
					V39.691C108.247,32.932,103.318,27.343,96.865,26.286z"/>
			</g>
			<g>
				<path fill="none" stroke="#B3B3B3" d="M96.865,26.286c-0.559-3.56-3.631-6.284-7.346-6.284H62.231
					c-3.646,0-6.675,2.625-7.312,6.089H33.671c-7.506,0-13.59,6.088-13.59,13.6V77.7c0,7.511,6.084,13.601,13.59,13.601h60.986
					c7.506,0,13.59-6.09,13.59-13.601V39.691C108.247,32.932,103.318,27.343,96.865,26.286z"/>
			</g>
		</g>
		<path opacity="0.75" fill="#F2F2F2" enable-background="new    " d="M57.589,23.463c0.844-1.266,2.088-2.07,3.475-2.07h29.73
			c1.386,0,2.627,0.805,3.474,2.07h0.588c-0.924-1.615-2.396-2.67-4.062-2.67h-29.73c-1.664,0-3.139,1.055-4.062,2.67H57.589z"/>
	</g>
	<g>
		
			<radialGradient id="SVGID_2_" cx="-803.9009" cy="-561.5093" r="39.954" gradientTransform="matrix(1 0 0 -1 867.8262 -513.2754)" gradientUnits="userSpaceOnUse">
			<stop  offset="0" style="stop-color:#FAFAFA"/>
			<stop  offset="0.3109" style="stop-color:#F4F4F4"/>
			<stop  offset="0.7262" style="stop-color:#E3E3E3"/>
			<stop  offset="1" style="stop-color:#D4D4D4"/>
		</radialGradient>
		<path fill="url(#SVGID_2_)" stroke="#B3B3B3" d="M97.523,16.807v62.853c0,7.732-6.274,14.004-14.017,14.004H44.341
			c-7.741,0-14.014-6.27-14.014-14.004V16.807c0-7.732,6.272-14.002,14.014-14.002H83.51C91.249,2.805,97.523,9.075,97.523,16.807
			L97.523,16.807z"/>
		<path fill="#B3B3B3" d="M83.657,91.911H44.486c-7.741,0-14.013-6.27-14.013-14.004v1.75c0,7.731,6.271,14.004,14.013,14.004
			h39.171c7.739,0,14.014-6.27,14.014-14.004v-1.75C97.671,85.644,91.396,91.911,83.657,91.911z"/>
		<path fill="#FFFFFF" d="M38.723,8.809c1.563-1.303,3.333-2.186,5.764-2.186h39.171c2.432,0,4.199,0.883,5.764,2.186h1.977
			c-1.971-1.99-4.361-3.186-7.737-3.186H44.486c-3.375,0-5.77,1.195-7.74,3.186H38.723z"/>
	</g>
	
		<linearGradient id="SVGID_3_" gradientUnits="userSpaceOnUse" x1="-803.8271" y1="-550.7324" x2="-803.8271" y2="-632.2759" gradientTransform="matrix(1 0 0 -1 867.8262 -513.2754)">
		<stop  offset="0" style="stop-color:#9A9A9A"/>
		<stop  offset="1" style="stop-color:#DEDEDE"/>
	</linearGradient>
	<path fill="url(#SVGID_3_)" d="M26.567,37.457h79.812c15.377,0,20.582,8.637,18.867,18.882l-9.738,47.438
		C113.105,114.726,107.799,119,97.379,119H30.7c-10.422,0-15.564-2.728-18.869-18.884l-9-43.775
		C0.769,45.883,6.808,37.457,21.7,37.457H26.567z"/>
	<path fill="#999999" d="M98.062,115.997H30.019c-8.578,0-13.65-1.815-17.062-11.168c3.338,11.982,8.434,14.168,17.744,14.168h66.68
		c9.906,0,15.184-3.875,17.746-13.659C112.218,112.913,106.979,115.997,98.062,115.997z"/>
	<path fill="#FFFFFF" d="M24.048,43.264h4.596h75.338c12.354,0,17.754,5.908,18.086,13.633c0.104-8.211-5.197-14.646-18.086-14.646
		H28.644h-4.596c-12.664,0-18.525,6.466-18.141,14.96c0-0.002,0.002-0.004,0.002-0.008C6.028,49.22,11.899,43.264,24.048,43.264z"/>
	
		<linearGradient id="SVGID_4_" gradientUnits="userSpaceOnUse" x1="-803.8267" y1="-579.5249" x2="-803.8267" y2="-556.5552" gradientTransform="matrix(1 0 0 -1 867.8262 -513.2754)">
		<stop  offset="0" style="stop-color:#999999"/>
		<stop  offset="1" style="stop-color:#CCCCCC"/>
	</linearGradient>
	<path fill="url(#SVGID_4_)" d="M7.3,66.155c2.408-4.78,7.938-7.926,16.771-7.926h4.594h75.338c9.127,0,14.455,3.226,16.754,8.021
		l1.058-5.146c1.619-9.672-3.295-17.824-17.812-17.824H28.665h-4.594c-14.059,0-19.758,7.955-17.811,17.824L7.3,66.155z"/>
</g>
</svg>
