<?xml version="1.0" encoding="utf-8"?>
<!-- Generator: Adobe Illustrator 13.0.0, SVG Export Plug-In . SVG Version: 6.00 Build 14948)  -->
<!DOCTYPE svg PUBLIC "-//W3C//DTD SVG 1.1//EN" "http://www.w3.org/Graphics/SVG/1.1/DTD/svg11.dtd">
<svg version="1.1" id="Layer_1" xmlns="http://www.w3.org/2000/svg" xmlns:xlink="http://www.w3.org/1999/xlink" x="0px" y="0px"
	 width="128px" height="128px" viewBox="0 0 128 128" enable-background="new 0 0 128 128" xml:space="preserve">
<g>
	<linearGradient id="SVGID_1_" gradientUnits="userSpaceOnUse" x1="71.1113" y1="79.6689" x2="-5.6994" y2="25.8855">
		<stop  offset="0" style="stop-color:#181500"/>
		<stop  offset="1" style="stop-color:#5F5D5C"/>
	</linearGradient>
	<polygon fill="url(#SVGID_1_)" points="1.829,15.136 1.829,28.97 29.786,28.97 29.786,116.691 45.189,116.691 45.189,103.909 
		33.104,107.11 40.867,76.811 45.189,72.566 45.189,28.97 73.146,28.97 73.146,15.136 	"/>
	<g>
		
			<linearGradient id="SVGID_2_" gradientUnits="userSpaceOnUse" x1="-9047.9658" y1="3738.1924" x2="-9047.9658" y2="3680.1738" gradientTransform="matrix(0.3308 -0.346 -0.3461 -0.3305 4354.2202 -1842.9312)">
			<stop  offset="0" style="stop-color:#FFD207"/>
			<stop  offset="1" style="stop-color:#FAA61A"/>
		</linearGradient>
		<path fill="url(#SVGID_2_)" d="M89.839,26.994L41.548,77.5c0.459,0.446,1.856,1.963,2.254,4.147
			c2.353-0.19,4.978,0.612,5.613,1.207c2.26,2.165,1.544,5.828,1.544,5.828s4.164-0.484,6.186,1.65
			c0.534,0.562,1.301,2.597,1.626,4.802c1.707-0.04,3.441,2.02,3.824,2.507l48.308-50.528c0.848-0.884,0.818-2.287-0.067-3.132
			c0,0-1.986-4.331-8.209-10.274c-6.223-5.938-9.655-6.783-9.655-6.783C92.087,26.077,90.685,26.108,89.839,26.994z"/>
		
			<linearGradient id="SVGID_3_" gradientUnits="userSpaceOnUse" x1="-8948.9336" y1="3709.8711" x2="-8948.5244" y2="3732.3418" gradientTransform="matrix(0.3308 -0.346 -0.3461 -0.3305 4354.2202 -1842.9312)">
			<stop  offset="0" style="stop-color:#F66B87"/>
			<stop  offset="1" style="stop-color:#FCD0D9"/>
		</linearGradient>
		<path fill="url(#SVGID_3_)" d="M102.946,13.281L92.502,24.205c0.228,0.225,6.521,4.049,11.693,8.984
			c5.136,4.904,9.161,10.915,9.354,11.156L124.013,33.4c2.706-2.828-1.515-8.033-7.737-13.973
			C110.054,13.486,105.11,11.02,102.946,13.281z"/>
		
			<linearGradient id="SVGID_4_" gradientUnits="userSpaceOnUse" x1="-9135.5605" y1="3730.8857" x2="-9130.5195" y2="3709.0396" gradientTransform="matrix(0.3308 -0.346 -0.3461 -0.3305 4354.2202 -1842.9312)">
			<stop  offset="0" style="stop-color:#FAEDB0"/>
			<stop  offset="1" style="stop-color:#FFC76E"/>
		</linearGradient>
		<path fill="url(#SVGID_4_)" d="M62.677,97.744c0,0-0.033-0.038-0.082-0.103l-0.17,0.172L62.677,97.744z"/>
		
			<linearGradient id="SVGID_5_" gradientUnits="userSpaceOnUse" x1="-9121.9121" y1="3732.6426" x2="-9117.0664" y2="3711.6426" gradientTransform="matrix(0.3308 -0.346 -0.3461 -0.3305 4354.2202 -1842.9312)">
			<stop  offset="0" style="stop-color:#FAEDB0"/>
			<stop  offset="1" style="stop-color:#FFC76E"/>
		</linearGradient>
		<path fill="url(#SVGID_5_)" d="M41.403,77.355l-0.095,0.396l0.238-0.252C41.46,77.406,41.403,77.355,41.403,77.355z"/>
		<path fill="#F6921E" d="M58.771,95.135c-0.325-2.205-1.091-4.244-1.626-4.802c-2.021-2.135-6.183-1.653-6.183-1.653
			s0.716-3.66-1.547-5.826c-0.634-0.596-3.257-1.398-5.611-1.206c-0.396-2.183-1.797-3.703-2.254-4.148l-0.238,0.25l-0.996,4.05
			c0.028,0.036,0.052,0.075,0.083,0.104l17.86,17.064c0.02,0.017,0.04,0.022,0.059,0.038l4.108-1.197l0.173-0.172
			C62.214,97.154,60.481,95.092,58.771,95.135z"/>
		
			<linearGradient id="SVGID_6_" gradientUnits="userSpaceOnUse" x1="-9140.4043" y1="3727.6309" x2="-9137.7812" y2="3709.2747" gradientTransform="matrix(0.3308 -0.346 -0.3461 -0.3305 4354.2202 -1842.9312)">
			<stop  offset="0" style="stop-color:#FAEDB0"/>
			<stop  offset="1" style="stop-color:#FFC76E"/>
		</linearGradient>
		<path fill="url(#SVGID_6_)" d="M50.959,88.683c0,0,0.716-3.663-1.544-5.828c-0.636-0.595-3.261-1.397-5.613-1.207
			c-0.397-2.182-1.795-3.701-2.254-4.147l-0.238,0.252l-0.997,4.049l-2.431,9.861l-0.702,2.842l4.266,4.088l4.265,4.073l2.811-0.813
			l9.793-2.849l4.112-1.2l0.173-0.171c-0.385-0.487-2.117-2.549-3.83-2.507c-0.326-2.204-1.092-4.24-1.627-4.799
			C55.123,88.198,50.959,88.683,50.959,88.683z"/>
		
			<linearGradient id="SVGID_7_" gradientUnits="userSpaceOnUse" x1="-9164.8213" y1="3712.0244" x2="-9168.0889" y2="3723.0505" gradientTransform="matrix(0.3308 -0.346 -0.3461 -0.3305 4354.2202 -1842.9312)">
			<stop  offset="0" style="stop-color:#231F20"/>
			<stop  offset="1" style="stop-color:#FFFFFF"/>
		</linearGradient>
		<polygon fill="url(#SVGID_7_)" points="37.19,94.527 34.392,105.99 45.717,102.677 45.712,102.67 41.445,98.595 		"/>
		
			<linearGradient id="SVGID_8_" gradientUnits="userSpaceOnUse" x1="-8609.5176" y1="-2883.6245" x2="-8625.8857" y2="-2869.7539" gradientTransform="matrix(0.4786 -0.011 -0.0108 -0.4784 4194.1494 -1433.9998)">
			<stop  offset="0" style="stop-color:#808080"/>
			<stop  offset="1" style="stop-color:#F2F2F2"/>
		</linearGradient>
		<path fill="url(#SVGID_8_)" d="M92.591,24.021l-5.797,6.152c0.234,0.223,5.868,3.604,11.047,8.542
			c5.131,4.901,9.806,11.368,10.012,11.587l5.804-6.158c0.388-0.411-3.542-5.916-9.763-11.861
			C97.676,26.343,92.978,23.611,92.591,24.021z"/>
		<g opacity="0.6">
			<path fill="#FFF8A2" d="M104.746,14.653L44.698,77.547c0.293,0.561,0.551,1.213,0.684,1.948c0.98-0.077,1.998,0.029,2.896,0.217
				l60.199-63.052C105.628,14.198,104.671,14.604,104.746,14.653z"/>
		</g>
		
			<linearGradient id="SVGID_9_" gradientUnits="userSpaceOnUse" x1="-2261.6587" y1="-276.5513" x2="-2261.6587" y2="-276.5513" gradientTransform="matrix(0.9576 -0.2881 0.2881 0.9576 2288.9893 -309.3038)">
			<stop  offset="0" style="stop-color:#DEDEDE"/>
			<stop  offset="1" style="stop-color:#FEFEFE"/>
		</linearGradient>
		<path fill="url(#SVGID_9_)" stroke="#181512" stroke-width="1.0006" stroke-miterlimit="3.8637" d="M43.55,77.455"/>
		<g opacity="0.6">
			<path fill="#FFF8A2" d="M44.686,83.666l-0.009-0.006c-0.753-0.109-1.552-0.163-2.326-0.099c-0.139-0.755-0.399-1.425-0.696-2.002
				l-0.118-0.084l-6.06,22.489L44.686,83.666z"/>
		</g>
	</g>
</g>
</svg>
