<?xml version="1.0" encoding="utf-8"?>
<!-- Generator: Adobe Illustrator 13.0.0, SVG Export Plug-In . SVG Version: 6.00 Build 14948)  -->
<!DOCTYPE svg PUBLIC "-//W3C//DTD SVG 1.1//EN" "http://www.w3.org/Graphics/SVG/1.1/DTD/svg11.dtd">
<svg version="1.1" id="Layer_1" xmlns="http://www.w3.org/2000/svg" xmlns:xlink="http://www.w3.org/1999/xlink" x="0px" y="0px"
	 width="128px" height="128px" viewBox="0 0 128 128" enable-background="new 0 0 128 128" xml:space="preserve">
<g>
	<g>
		
			<radialGradient id="SVGID_1_" cx="63.3481" cy="64.6338" r="53.1356" gradientTransform="matrix(1 0 0 1 0 -9.765625e-04)" gradientUnits="userSpaceOnUse">
			<stop  offset="0" style="stop-color:#FAFAFA"/>
			<stop  offset="0.3109" style="stop-color:#F4F4F4"/>
			<stop  offset="0.7262" style="stop-color:#E3E3E3"/>
			<stop  offset="1" style="stop-color:#D4D4D4"/>
		</radialGradient>
		<path fill="url(#SVGID_1_)" stroke="#B3B3B3" stroke-width="2" d="M108.031,22.839v83.586c0,10.285-8.344,18.625-18.637,18.625
			H37.302c-10.295,0-18.637-8.34-18.637-18.625V22.839c0-10.285,8.342-18.623,18.637-18.623h52.093
			C99.688,4.216,108.031,12.554,108.031,22.839L108.031,22.839z"/>
		<path fill="#B3B3B3" d="M89.59,122.724H37.496c-10.295,0-18.637-8.34-18.637-18.625v2.326c0,10.285,8.342,18.625,18.637,18.625
			H89.59c10.293,0,18.637-8.34,18.637-18.625v-2.326C108.227,114.384,99.883,122.724,89.59,122.724z"/>
		<path fill="#FFFFFF" d="M29.831,12.202c2.079-1.734,4.432-2.905,7.665-2.905H89.59c3.234,0,5.586,1.171,7.666,2.905h2.629
			C97.264,9.557,94.08,7.964,89.59,7.964H37.496c-4.489,0-7.673,1.593-10.294,4.238H29.831z"/>
	</g>
	<g>
		<g>
			<g>
				<g>
					
						<linearGradient id="SVGID_2_" gradientUnits="userSpaceOnUse" x1="-322.9268" y1="-503.5776" x2="-373.6387" y2="-503.5776" gradientTransform="matrix(1 0 0 -1 412.6577 -439.8887)">
						<stop  offset="0" style="stop-color:#C51015"/>
						<stop  offset="1" style="stop-color:#E20A16"/>
					</linearGradient>
					<path id="SVGID_18_" fill="url(#SVGID_2_)" d="M55.297,89.06L39.02,72.784l34.039-34.037c0.033-0.082,0.08-0.154,0.139-0.211
						c1.041-1.041,5.535,1.77,10.041,6.275c4.506,4.502,7.316,8.998,6.277,10.039L55.297,89.06L55.297,89.06z"/>
				</g>
				<g>
					<g>
						<g>
							<defs>
								<path id="SVGID_3_" d="M55.297,89.06L39.02,72.784l34.039-34.037c0.033-0.082,0.08-0.154,0.139-0.211
									c1.041-1.041,5.535,1.77,10.041,6.275c4.506,4.502,7.316,8.998,6.277,10.039L55.297,89.06L55.297,89.06z"/>
							</defs>
							<clipPath id="SVGID_4_">
								<use xlink:href="#SVGID_3_"  overflow="visible"/>
							</clipPath>
							<path clip-path="url(#SVGID_4_)" fill="#231F20" d="M91.848,52.866l-4.555,4.553c0.141-0.139-2.473-4.977-7.072-9.576
								c-4.338-4.336-8.902-6.9-9.525-7.062l4.518-4.514c0.127-0.197,5.193,2.309,9.795,6.908
								C89.605,47.774,91.986,52.726,91.848,52.866L91.848,52.866z"/>
						</g>
					</g>
				</g>
			</g>
			<path fill="#C51015" d="M55.162,89.327c-1.039,1.039-5.535-1.771-10.039-6.273c-4.504-4.506-7.314-9.002-6.275-10.043
				s5.535,1.771,10.041,6.277C53.395,83.792,56.203,88.286,55.162,89.327L55.162,89.327z"/>
			<g>
				<g>
					<path id="SVGID_6_" fill="#EADEB1" d="M50.615,92.979L35.1,77.462l4.234-4.232c0.117-0.184,4.852,2.156,9.145,6.449
						c4.295,4.297,6.52,8.918,6.389,9.049L50.615,92.979L50.615,92.979z"/>
				</g>
				<g>
					<g>
						<g>
							<defs>
								<path id="SVGID_5_" d="M50.615,92.979L35.1,77.462l4.234-4.232c0.117-0.184,4.852,2.156,9.145,6.449
									c4.295,4.297,6.52,8.918,6.389,9.049L50.615,92.979L50.615,92.979z"/>
							</defs>
							<clipPath id="SVGID_7_">
								<use xlink:href="#SVGID_5_"  overflow="visible"/>
							</clipPath>
							<path clip-path="url(#SVGID_7_)" fill="none" stroke="#EDCA93" stroke-miterlimit="3.8637" d="M51.963,91.737
								c0,0-1.291-3.59-6.57-8.869c-5.275-5.277-8.973-6.672-8.973-6.672 M53.533,90.169c0,0-1.291-3.59-6.57-8.869
								c-5.277-5.277-8.973-6.672-8.973-6.672"/>
						</g>
					</g>
				</g>
			</g>
			<path fill="#EDCA93" d="M50.609,92.993c-0.131,0.129-4.021-0.312-9.633-5.922c-5.506-5.508-6.051-9.502-5.922-9.631
				c0.131-0.129,4.662,2.299,8.955,6.596C48.307,88.331,50.738,92.864,50.609,92.993L50.609,92.993z"/>
		</g>
		<g opacity="0.6">
			<path fill="#FFFFFF" d="M73.529,39.472L41.221,72.124c0.508,0.332,1.381,0.809,1.857,1.205l32.393-32.734
				C73.996,39.241,73.492,39.444,73.529,39.472z"/>
		</g>
	</g>
</g>
</svg>
