<?xml version="1.0" encoding="utf-8"?>
<!-- Generator: Adobe Illustrator 13.0.0, SVG Export Plug-In . SVG Version: 6.00 Build 14948)  -->
<!DOCTYPE svg PUBLIC "-//W3C//DTD SVG 1.1//EN" "http://www.w3.org/Graphics/SVG/1.1/DTD/svg11.dtd">
<svg version="1.1" id="Layer_1" xmlns="http://www.w3.org/2000/svg" xmlns:xlink="http://www.w3.org/1999/xlink" x="0px" y="0px"
	 width="128px" height="128px" viewBox="0 0 128 128" enable-background="new 0 0 128 128" xml:space="preserve">
<g>
	<linearGradient id="SVGID_1_" gradientUnits="userSpaceOnUse" x1="63.9995" y1="21.835" x2="63.9995" y2="106.1675">
		<stop  offset="0" style="stop-color:#99DBF6"/>
		<stop  offset="1" style="stop-color:#00B2DE"/>
	</linearGradient>
	<path fill="url(#SVGID_1_)" d="M119.865,58.073L86.271,24.478c-1.381-1.38-3.123-2.171-4.922-2.388
		c-0.756-0.164-1.537-0.255-2.34-0.255H16.677c-6.076,0-11,4.924-11,11v62.332c0,6.076,4.924,11,11,11H79.01
		c0.807,0,1.59-0.093,2.348-0.257c1.797-0.218,3.535-1.008,4.914-2.387l33.594-33.595C123.141,66.655,123.141,61.347,119.865,58.073
		z"/>
	<g>
		
			<linearGradient id="SVGID_2_" gradientUnits="userSpaceOnUse" x1="-387.6284" y1="879.9922" x2="-334.5068" y2="879.9922" gradientTransform="matrix(1 0 0 1 412.6201 -813.9912)">
			<stop  offset="0" style="stop-color:#5F5D5C"/>
			<stop  offset="1" style="stop-color:#181500"/>
		</linearGradient>
		<path fill="url(#SVGID_2_)" d="M78.113,72.683c0,4.971-4.027,9-9,9H33.992c-4.972,0-9-4.029-9-9V59.319c0-4.971,4.028-9,9-9
			h35.122c4.971,0,9,4.029,9,9V72.683L78.113,72.683z"/>
		<g>
			<g>
				<g>
					<path fill="#FFFFFF" d="M36.262,75.474h-0.159V56.528h0.159c0.722,0,1.306-0.481,1.306-1.08c0-0.596-0.584-1.08-1.306-1.08
						h-2.86c-0.721,0-1.306,0.484-1.306,1.08c0,0.599,0.585,1.08,1.306,1.08h0.242v18.945h-0.242c-0.721,0-1.306,0.482-1.306,1.079
						c0,0.599,0.585,1.08,1.306,1.08h2.86c0.722,0,1.306-0.481,1.306-1.08C37.568,75.957,36.984,75.474,36.262,75.474z"/>
				</g>
			</g>
		</g>
	</g>
	<path opacity="0.3" fill="#FFFFFF" d="M85.1,26.521c-1.314-1.313-2.977-2.067-4.689-2.274c-0.717-0.156-1.463-0.242-2.229-0.242
		H18.824c-5.786,0-10.476,4.689-10.476,10.476v25.988c13.233,6.829,31.114,12.344,51.484,12.344
		c23.933,0,44.519-3.965,57.818-12.993c-0.389-0.952,0.213-0.532-0.561-1.305L85.1,26.521z"/>
</g>
</svg>
