<?xml version="1.0" encoding="utf-8"?>
<!-- Generator: Adobe Illustrator 13.0.0, SVG Export Plug-In . SVG Version: 6.00 Build 14948)  -->
<!DOCTYPE svg PUBLIC "-//W3C//DTD SVG 1.1//EN" "http://www.w3.org/Graphics/SVG/1.1/DTD/svg11.dtd">
<svg version="1.1" id="Layer_1" xmlns="http://www.w3.org/2000/svg" xmlns:xlink="http://www.w3.org/1999/xlink" x="0px" y="0px"
	 width="128px" height="128px" viewBox="0 0 128 128" enable-background="new 0 0 128 128" xml:space="preserve">
<g>
	<g>
		
			<radialGradient id="SVGID_1_" cx="-183.9263" cy="-157.4453" r="30.0581" gradientTransform="matrix(1.2329 0 0 -1.1831 280.304 -92.0046)" gradientUnits="userSpaceOnUse">
			<stop  offset="0" style="stop-color:#FAFAFA"/>
			<stop  offset="0.3629" style="stop-color:#E5E5E5"/>
			<stop  offset="1" style="stop-color:#C4C4C4"/>
		</radialGradient>
		<path fill="url(#SVGID_1_)" stroke="#808080" d="M62.159,69.075l30.139,42.767c4.659,7.387,2.644,13.43-4.485,13.43H18.965
			c-7.124,0-8.834-5.648-3.795-12.553l29.354-44.521C49.562,61.294,57.499,61.689,62.159,69.075L62.159,69.075z"/>
		
			<radialGradient id="SVGID_2_" cx="-183.9287" cy="-103.6104" r="23.3157" gradientTransform="matrix(1.2329 0 0 -1.1831 280.304 -92.0046)" gradientUnits="userSpaceOnUse">
			<stop  offset="0" style="stop-color:#FAFAFA"/>
			<stop  offset="0.4142" style="stop-color:#E3E3E3"/>
			<stop  offset="1" style="stop-color:#C7C7C7"/>
		</radialGradient>
		<path fill="url(#SVGID_2_)" stroke="#808080" d="M24.804,30.578c0-15.243,12.867-27.597,28.736-27.597
			s28.733,12.354,28.733,27.597c0,15.24-12.864,27.595-28.733,27.595S24.804,45.818,24.804,30.578L24.804,30.578z"/>
		
			<linearGradient id="SVGID_3_" gradientUnits="userSpaceOnUse" x1="-246.625" y1="135.2871" x2="-246.625" y2="120.9072" gradientTransform="matrix(1 0 0 -1 289.2754 151.834)">
			<stop  offset="0" style="stop-color:#EC008C"/>
			<stop  offset="1" style="stop-color:#C40075"/>
		</linearGradient>
		<path fill="url(#SVGID_3_)" d="M35.162,23.737c0-3.971,3.355-7.19,7.488-7.19c4.136,0,7.488,3.22,7.488,7.19
			c0,3.974-3.353,7.19-7.488,7.19C38.517,30.928,35.162,27.711,35.162,23.737L35.162,23.737z"/>
		<path fill="#EC8690" d="M42.409,23.568c2.062,1.654,4.851,0.745,6.588-0.119c-0.258-3.327-3.146-5.95-6.676-5.95
			c-3.546,0-6.444,2.645-6.678,5.99C37.25,22.733,40.191,21.787,42.409,23.568z"/>
		<path fill="#F2F2F2" d="M31.785,16.287c4.8-6.322,13.622-11.166,21.869-11.166c8.245,0,16.841,4.844,21.64,11.166h0.914
			C71.122,8.846,62.87,3.978,53.541,3.978c-9.327,0-17.582,4.868-22.668,12.31L31.785,16.287L31.785,16.287z"/>
		
			<linearGradient id="SVGID_4_" gradientUnits="userSpaceOnUse" x1="-258.4033" y1="105.1016" x2="-213.0684" y2="105.1016" gradientTransform="matrix(1 0 0 -1 289.2754 151.834)">
			<stop  offset="0" style="stop-color:#EC008C"/>
			<stop  offset="1" style="stop-color:#C40075"/>
		</linearGradient>
		<path fill="url(#SVGID_4_)" d="M75.295,40.579c-4.8,6.321-13.62,11.163-21.868,11.163c-8.247,0-16.843-4.842-21.642-11.163h-0.913
			c5.086,7.44,13.341,12.307,22.667,12.307c9.33,0,17.583-4.866,22.668-12.307H75.295z"/>
		<path opacity="0.5" fill="#FFFFFF" enable-background="new    " d="M29.733,120.707c0-20.967,16.75-38.172,38.109-39.982
			L61.4,71.583c-4.355-6.899-11.771-7.271-16.479-0.815l-27.424,41.598c-4.709,6.449-3.114,11.729,3.545,11.729h8.85
			C29.794,122.975,29.733,121.85,29.733,120.707z"/>
	</g>
	<g>
		
			<linearGradient id="SVGID_5_" gradientUnits="userSpaceOnUse" x1="-211.8486" y1="1720.7422" x2="-167.8361" y2="1695.663" gradientTransform="matrix(0.9078 -0.0051 0.0051 0.9079 232.7948 -1492.4202)">
			<stop  offset="0" style="stop-color:#F1F1F1"/>
			<stop  offset="0.2485" style="stop-color:#DDDDDE"/>
			<stop  offset="0.5636" style="stop-color:#E3E4E7"/>
			<stop  offset="0.9212" style="stop-color:#B5B6B7"/>
		</linearGradient>
		<path fill="url(#SVGID_5_)" stroke="#999999" stroke-miterlimit="3.8637" d="M53.008,75.779
			c-9.03-8.934-9.113-23.493-0.188-32.526c8.925-9.03,23.479-9.112,32.509-0.181c9.028,8.936,9.114,23.497,0.188,32.526
			C76.593,84.629,62.04,84.713,53.008,75.779L53.008,75.779z"/>
		
			<linearGradient id="SVGID_6_" gradientUnits="userSpaceOnUse" x1="-166.4385" y1="1708.3496" x2="-213.2659" y2="1708.0864" gradientTransform="matrix(0.9078 -0.0051 0.0051 0.9079 232.7948 -1492.4202)">
			<stop  offset="0" style="stop-color:#F1F1F1"/>
			<stop  offset="0.2485" style="stop-color:#DDDDDE"/>
			<stop  offset="0.5636" style="stop-color:#E3E4E7"/>
			<stop  offset="0.9212" style="stop-color:#B5B6B7"/>
		</linearGradient>
		<path fill="url(#SVGID_6_)" d="M54.226,74.547c-8.349-8.26-8.427-21.723-0.173-30.074c8.252-8.35,21.708-8.425,30.058-0.167
			c8.348,8.261,8.428,21.723,0.173,30.074C76.032,82.729,62.577,82.807,54.226,74.547L54.226,74.547z"/>
		
			<linearGradient id="SVGID_7_" gradientUnits="userSpaceOnUse" x1="-189.9663" y1="1730.0781" x2="-189.7205" y2="1686.3279" gradientTransform="matrix(0.9078 -0.0051 0.0051 0.9079 232.7948 -1492.4202)">
			<stop  offset="0" style="stop-color:#5081B2"/>
			<stop  offset="0.1178" style="stop-color:#477DAF"/>
			<stop  offset="0.3137" style="stop-color:#2D74A8"/>
			<stop  offset="0.5621" style="stop-color:#04659C"/>
			<stop  offset="0.5843" style="stop-color:#00639B"/>
			<stop  offset="1" style="stop-color:#004E8C"/>
		</linearGradient>
		<path fill="url(#SVGID_7_)" d="M55.213,73.548c-7.799-7.714-7.871-20.287-0.162-28.087c7.707-7.8,20.275-7.87,28.074-0.157
			c7.797,7.716,7.871,20.29,0.162,28.088C75.579,81.189,63.012,81.264,55.213,73.548L55.213,73.548z"/>
		
			<linearGradient id="SVGID_8_" gradientUnits="userSpaceOnUse" x1="-164.7061" y1="1749.3818" x2="-151.0356" y2="1733.2765" gradientTransform="matrix(0.9078 -0.0051 0.0051 0.9079 232.7948 -1492.4202)">
			<stop  offset="0" style="stop-color:#F1F1F1"/>
			<stop  offset="0.2485" style="stop-color:#DDDDDE"/>
			<stop  offset="0.5636" style="stop-color:#E3E4E7"/>
			<stop  offset="0.9212" style="stop-color:#B5B6B7"/>
		</linearGradient>
		<path fill="url(#SVGID_8_)" stroke="#999999" stroke-miterlimit="3.8637" d="M89.766,69.604l23.312,20.731
			c3.68,3.644,3.157,10.144,0.382,12.948l-0.314,0.318c-2.774,2.805-9.265,3.402-12.943-0.236L79.303,80.078
			c2.408-1.518,4.141-2.43,5.979-4.291C87.125,73.928,88.477,72.091,89.766,69.604L89.766,69.604z"/>
		<path opacity="0.3" fill="#FFFFFF" enable-background="new    " d="M69.43,57.946c6.065,5.069,14.271,2.285,19.375-0.364
			c-0.752-10.191-9.248-18.231-19.631-18.231c-10.421,0-18.949,8.102-19.636,18.356C54.264,55.389,62.905,52.484,69.43,57.946z"/>
		<path fill="#B3B3B3" d="M115.05,93.336c0.493,3.326-0.452,6.788-2.347,8.702l-0.352,0.354c-2.353,2.377-7.101,3.323-11.041,1.852
			c3.762,2.629,9.353,1.916,11.875-0.637l0.315-0.317C115.618,101.15,116.417,96.867,115.05,93.336z"/>
	</g>
</g>
</svg>
