<?xml version="1.0" encoding="utf-8"?>
<!-- Generator: Adobe Illustrator 13.0.0, SVG Export Plug-In . SVG Version: 6.00 Build 14948)  -->
<!DOCTYPE svg PUBLIC "-//W3C//DTD SVG 1.1//EN" "http://www.w3.org/Graphics/SVG/1.1/DTD/svg11.dtd">
<svg version="1.1" id="Layer_1" xmlns="http://www.w3.org/2000/svg" xmlns:xlink="http://www.w3.org/1999/xlink" x="0px" y="0px"
	 width="128px" height="128px" viewBox="0 0 128 128" enable-background="new 0 0 128 128" xml:space="preserve">
<g>
	<radialGradient id="SVGID_1_" cx="64.4805" cy="63.7065" r="62.0549" gradientUnits="userSpaceOnUse">
		<stop  offset="0" style="stop-color:#FAFAFA"/>
		<stop  offset="0.3109" style="stop-color:#F4F4F4"/>
		<stop  offset="0.7262" style="stop-color:#E3E3E3"/>
		<stop  offset="1" style="stop-color:#D4D4D4"/>
	</radialGradient>
	<path fill="url(#SVGID_1_)" stroke="#B3B3B3" stroke-width="2" d="M19.361,1.63l90.232,0.006c9.342,0,16.915,7.578,16.915,16.927
		l0.005,90.294c0,9.349-7.574,16.927-16.915,16.927l-90.233-0.004c-9.341,0-16.915-7.58-16.915-16.928L2.447,18.557
		C2.446,9.209,10.021,1.63,19.361,1.63L19.361,1.63z"/>
	<path fill="#B3B3B3" d="M109.625,120.606l-90.371-0.005c-8.541,0-15.588-6.334-16.753-14.562v2.415
		c0,9.349,7.574,16.927,16.915,16.927l90.234,0.005c9.34,0,16.915-7.578,16.915-16.926v-4.803
		C126.561,113.018,118.978,120.606,109.625,120.606z"/>
	<path fill="#FFFFFF" d="M22.403,10.492l84.329,0.004c7.971,0,14.545,5.911,15.631,13.588V21.83c0-8.724-7.066-15.795-15.783-15.795
		L22.383,6.03c-8.718,0-15.784,7.073-15.784,15.796v4.48C6.601,17.573,13.677,10.492,22.403,10.492z"/>
	<g>
		
			<linearGradient id="SVGID_2_" gradientUnits="userSpaceOnUse" x1="-31.481" y1="900.0557" x2="-31.481" y2="874.3174" gradientTransform="matrix(1 0 0 1 123.3823 -838.9521)">
			<stop  offset="0" style="stop-color:#C51015"/>
			<stop  offset="1" style="stop-color:#E20A16"/>
		</linearGradient>
		<path fill="url(#SVGID_2_)" d="M80.329,53.879c-3.114-6.387-0.458-14.093,5.934-17.204c6.391-3.122,14.096-0.47,17.212,5.917
			c3.111,6.386,0.458,14.09-5.938,17.205C91.15,62.913,83.445,60.265,80.329,53.879L80.329,53.879z"/>
		
			<linearGradient id="SVGID_3_" gradientUnits="userSpaceOnUse" x1="-86.2036" y1="906.0244" x2="-86.2036" y2="931.7646" gradientTransform="matrix(1 0 0 1 123.3823 -838.9521)">
			<stop  offset="0" style="stop-color:#FFD207"/>
			<stop  offset="1" style="stop-color:#FAA61A"/>
		</linearGradient>
		<path fill="url(#SVGID_3_)" d="M25.607,85.583c-3.115-6.386-0.458-14.089,5.933-17.203c6.391-3.118,14.097-0.469,17.211,5.918
			c3.113,6.389,0.459,14.09-5.932,17.209C36.429,94.623,28.724,91.973,25.607,85.583L25.607,85.583z"/>
		
			<linearGradient id="SVGID_4_" gradientUnits="userSpaceOnUse" x1="-58.7808" y1="857.8799" x2="-58.7808" y2="883.626" gradientTransform="matrix(1 0 0 1 123.3823 -838.9521)">
			<stop  offset="0" style="stop-color:#80E21B"/>
			<stop  offset="1" style="stop-color:#80B400"/>
		</linearGradient>
		<path fill="url(#SVGID_4_)" d="M51.736,31.801c0-7.108,5.761-12.872,12.863-12.872c7.104,0,12.867,5.764,12.867,12.872
			S71.704,44.675,64.6,44.675C57.497,44.675,51.736,38.909,51.736,31.801L51.736,31.801z"/>
		
			<linearGradient id="SVGID_5_" gradientUnits="userSpaceOnUse" x1="-58.7573" y1="921.6875" x2="-58.7573" y2="947.4355" gradientTransform="matrix(1 0 0 1 123.3823 -838.9521)">
			<stop  offset="0" style="stop-color:#99DBF6"/>
			<stop  offset="1" style="stop-color:#00B2DE"/>
		</linearGradient>
		<path fill="url(#SVGID_5_)" d="M51.76,95.612c0-7.113,5.762-12.877,12.868-12.877c7.103,0,12.863,5.764,12.863,12.877
			c0,7.109-5.761,12.872-12.863,12.872C57.521,108.484,51.76,102.722,51.76,95.612L51.76,95.612z"/>
		
			<linearGradient id="SVGID_6_" gradientUnits="userSpaceOnUse" x1="-31.5063" y1="905.9785" x2="-31.5063" y2="931.7188" gradientTransform="matrix(1 0 0 1 123.3823 -838.9521)">
			<stop  offset="0" style="stop-color:#FF9D00"/>
			<stop  offset="1" style="stop-color:#FF1F00"/>
		</linearGradient>
		<path fill="url(#SVGID_6_)" d="M80.958,73.075c3.766-6.028,11.705-7.857,17.737-4.089c6.026,3.767,7.863,11.711,4.101,17.736
			c-3.767,6.022-11.707,7.854-17.735,4.082C79.03,87.038,77.193,79.1,80.958,73.075L80.958,73.075z"/>
		
			<linearGradient id="SVGID_7_" gradientUnits="userSpaceOnUse" x1="-86.3237" y1="874.4453" x2="-86.3237" y2="900.1836" gradientTransform="matrix(1 0 0 1 123.3823 -838.9521)">
			<stop  offset="0" style="stop-color:#EC008C"/>
			<stop  offset="1" style="stop-color:#C40075"/>
		</linearGradient>
		<path fill="url(#SVGID_7_)" d="M26.14,41.539c3.768-6.023,11.707-7.853,17.736-4.086c6.029,3.768,7.865,11.706,4.102,17.732
			c-3.768,6.026-11.708,7.854-17.734,4.088C24.212,55.504,22.375,47.564,26.14,41.539L26.14,41.539z"/>
		<g>
			<path fill="#FFFFFF" d="M37.052,37.495c5.127,0,9.507,2.777,11.29,6.698c-1.465-4.356-5.965-7.533-11.292-7.533
				c-5.329,0-9.828,3.181-11.291,7.54C27.539,40.276,31.919,37.495,37.052,37.495z"/>
		</g>
		<g>
			<path fill="#FFFFFF" d="M92.205,37.495c5.127,0,9.508,2.777,11.29,6.698c-1.465-4.356-5.964-7.533-11.291-7.533
				c-5.329,0-9.829,3.181-11.291,7.54C82.694,40.276,87.073,37.495,92.205,37.495z"/>
		</g>
		<g>
			<path fill="#FFFFFF" d="M64.514,21.085c5.128,0,9.508,2.779,11.291,6.699c-1.465-4.355-5.964-7.532-11.292-7.532
				c-5.329,0-9.829,3.179-11.29,7.54C55.003,23.868,59.383,21.085,64.514,21.085z"/>
		</g>
		<g>
			<path fill="#FFFFFF" d="M37.052,69.062c5.127,0,9.507,2.776,11.29,6.696c-1.465-4.356-5.965-7.533-11.292-7.533
				c-5.329,0-9.828,3.18-11.291,7.542C27.539,71.842,31.919,69.062,37.052,69.062z"/>
		</g>
		<g>
			<path fill="#FFFFFF" d="M92.205,69.062c5.127,0,9.508,2.776,11.29,6.696c-1.465-4.356-5.964-7.533-11.291-7.533
				c-5.329,0-9.829,3.18-11.291,7.542C82.694,71.842,87.073,69.062,92.205,69.062z"/>
		</g>
		<g>
			<path fill="#FFFFFF" d="M64.514,84.753c5.128,0,9.508,2.776,11.291,6.697c-1.465-4.357-5.964-7.533-11.292-7.533
				c-5.329,0-9.829,3.179-11.29,7.54C55.003,87.534,59.383,84.753,64.514,84.753z"/>
		</g>
		<path fill="#00A6C4" d="M64.628,107.904c-7.008,0-12.697-5.607-12.854-12.583c-0.002,0.1-0.015,0.194-0.015,0.291
			c0,7.109,5.762,12.872,12.868,12.872c7.103,0,12.863-5.763,12.863-12.872c0-0.097-0.012-0.191-0.015-0.291
			C77.321,102.297,71.632,107.904,64.628,107.904z"/>
		<path fill="#70993E" d="M64.628,44.094c-7.008,0-12.697-5.606-12.854-12.581c-0.002,0.098-0.015,0.192-0.015,0.291
			c0,7.109,5.762,12.871,12.868,12.871c7.103,0,12.863-5.762,12.863-12.871c0-0.099-0.012-0.193-0.015-0.291
			C77.321,38.487,71.632,44.094,64.628,44.094z"/>
		<path fill="#DB0F00" d="M91.879,92.187c-7.007,0-12.698-5.607-12.854-12.581c-0.002,0.098-0.015,0.191-0.015,0.29
			c0,7.107,5.762,12.871,12.868,12.871c7.102,0,12.863-5.764,12.863-12.871c0-0.099-0.013-0.192-0.015-0.29
			C104.571,86.579,98.884,92.187,91.879,92.187z"/>
		<path fill="#FA8F1A" d="M37.182,92.233c-7.007,0-12.698-5.609-12.854-12.583c-0.002,0.099-0.015,0.192-0.015,0.29
			c0,7.11,5.762,12.871,12.868,12.871c7.103,0,12.863-5.761,12.863-12.871c0-0.098-0.012-0.191-0.015-0.29
			C49.875,86.624,44.187,92.233,37.182,92.233z"/>
		<path fill="#AD2228" d="M91.879,60.525c-7.007,0-12.698-5.608-12.854-12.583c-0.002,0.098-0.015,0.192-0.015,0.291
			c0,7.109,5.762,12.871,12.868,12.871c7.102,0,12.863-5.762,12.863-12.871c0-0.099-0.013-0.193-0.015-0.291
			C104.571,54.917,98.884,60.525,91.879,60.525z"/>
		<path fill="#AE146A" d="M37.182,60.653c-7.007,0-12.698-5.609-12.854-12.583c-0.002,0.1-0.015,0.193-0.015,0.291
			c0,7.11,5.762,12.871,12.868,12.871c7.103,0,12.863-5.761,12.863-12.871c0-0.098-0.012-0.191-0.015-0.291
			C49.875,55.044,44.187,60.653,37.182,60.653z"/>
	</g>
</g>
</svg>
