<?xml version="1.0" encoding="utf-8"?>
<!-- Generator: Adobe Illustrator 13.0.0, SVG Export Plug-In . SVG Version: 6.00 Build 14948)  -->
<!DOCTYPE svg PUBLIC "-//W3C//DTD SVG 1.1//EN" "http://www.w3.org/Graphics/SVG/1.1/DTD/svg11.dtd">
<svg version="1.1" id="Layer_1" xmlns="http://www.w3.org/2000/svg" xmlns:xlink="http://www.w3.org/1999/xlink" x="0px" y="0px"
	 width="128px" height="128px" viewBox="0 0 128 128" enable-background="new 0 0 128 128" xml:space="preserve">
<g>
	<linearGradient id="SVGID_1_" gradientUnits="userSpaceOnUse" x1="31.1582" y1="37.7896" x2="107.4277" y2="37.7896">
		<stop  offset="0" style="stop-color:#181500"/>
		<stop  offset="1" style="stop-color:#5F5D5C"/>
	</linearGradient>
	<path fill="url(#SVGID_1_)" d="M37.07,22.201c0,0,13.022,5.426,23.4,7.967c17.848,4.369,46.957,7.199,46.957,7.199
		s-24.275,8.191-36.016,11.229c-6.242,1.613-19.087,3.695-26.582,4.516c-4,0.438-13.672,0.205-13.672,0.205L37.07,22.201z"/>
	<linearGradient id="SVGID_2_" gradientUnits="userSpaceOnUse" x1="86.0811" y1="50.5356" x2="23.7703" y2="6.9052">
		<stop  offset="0" style="stop-color:#181500"/>
		<stop  offset="1" style="stop-color:#5F5D5C"/>
	</linearGradient>
	<path fill="url(#SVGID_2_)" d="M24.055,6.5c0,0,20.586,9.596,37.749,11.172c32.628,2.998,47.578-0.412,47.578-0.412
		S84.773,32.006,75.6,36.904S42.845,51.928,36.572,53.602c-6.273,1.674-12.518,3.095-12.518,3.095V6.5z"/>
	<g>
		<linearGradient id="SVGID_3_" gradientUnits="userSpaceOnUse" x1="22.4062" y1="1.6797" x2="22.4062" y2="124.5122">
			<stop  offset="0" style="stop-color:#5F5D5C"/>
			<stop  offset="1" style="stop-color:#181500"/>
		</linearGradient>
		<path fill="url(#SVGID_3_)" d="M25.248,121.67c0,1.57-1.272,2.842-2.842,2.842l0,0c-1.568,0-2.842-1.271-2.842-2.842V4.52
			c0-1.568,1.273-2.84,2.842-2.84l0,0c1.569,0,2.842,1.271,2.842,2.84V121.67z"/>
	</g>
	<path opacity="0.3" fill="#FFFFFF" d="M59.713,19.347C44.042,17.907,25.245,9.146,25.245,9.146v23.316
		c9.646,1.619,21.722,1.868,34.692,0.473c13.125-1.412,23.236-3.969,32.042-7.324c6.168-3.639,11.177-6.64,11.177-6.64
		S89.506,22.085,59.713,19.347z"/>
</g>
</svg>
