<?xml version="1.0" encoding="utf-8"?>
<!-- Generator: Adobe Illustrator 13.0.0, SVG Export Plug-In . SVG Version: 6.00 Build 14948)  -->
<!DOCTYPE svg PUBLIC "-//W3C//DTD SVG 1.1//EN" "http://www.w3.org/Graphics/SVG/1.1/DTD/svg11.dtd">
<svg version="1.1" id="Layer_1" xmlns="http://www.w3.org/2000/svg" xmlns:xlink="http://www.w3.org/1999/xlink" x="0px" y="0px"
	 width="128px" height="128px" viewBox="0 0 128 128" enable-background="new 0 0 128 128" xml:space="preserve">
<g>
	<g>
		<linearGradient id="SVGID_1_" gradientUnits="userSpaceOnUse" x1="68.8291" y1="22.2012" x2="68.8291" y2="53.3779">
			<stop  offset="0" style="stop-color:#80C11B"/>
			<stop  offset="1" style="stop-color:#80E21B"/>
		</linearGradient>
		<path fill="url(#SVGID_1_)" d="M36.607,22.201c0,0,13.021,5.426,23.399,7.967c17.847,4.369,46.957,7.199,46.957,7.199
			s-24.275,8.191-36.016,11.229c-6.241,1.613-19.087,3.695-26.582,4.516c-4.001,0.438-13.672,0.205-13.672,0.205L36.607,22.201z"/>
		<linearGradient id="SVGID_2_" gradientUnits="userSpaceOnUse" x1="23.5908" y1="31.5981" x2="108.918" y2="31.5981">
			<stop  offset="0" style="stop-color:#80C11B"/>
			<stop  offset="1" style="stop-color:#80E21B"/>
		</linearGradient>
		<path fill="url(#SVGID_2_)" d="M23.591,6.5c0,0,20.586,9.596,37.749,11.172c32.628,2.998,47.578-0.412,47.578-0.412
			S84.309,32.006,75.136,36.904c-9.174,4.898-32.754,15.023-39.028,16.697c-6.273,1.674-12.517,3.095-12.517,3.095V6.5z"/>
		<g>
			<linearGradient id="SVGID_3_" gradientUnits="userSpaceOnUse" x1="21.9424" y1="1.6797" x2="21.9424" y2="124.5122">
				<stop  offset="0" style="stop-color:#5F5D5C"/>
				<stop  offset="1" style="stop-color:#181500"/>
			</linearGradient>
			<path fill="url(#SVGID_3_)" d="M24.783,121.67c0,1.57-1.271,2.842-2.841,2.842l0,0c-1.569,0-2.841-1.271-2.841-2.842V4.52
				c0-1.568,1.271-2.84,2.841-2.84l0,0c1.569,0,2.841,1.271,2.841,2.84V121.67z"/>
		</g>
	</g>
	<path opacity="0.3" fill="#FFFFFF" d="M59.912,19.347C44.241,17.907,25.444,9.146,25.444,9.146v23.316
		c9.646,1.619,21.96,3.313,34.692,0.473c13.978-3.118,23.236-3.969,32.042-7.324c6.168-3.639,11.177-6.64,11.177-6.64
		S89.705,22.085,59.912,19.347z"/>
</g>
</svg>
