<?xml version="1.0" encoding="utf-8"?>
<!-- Generator: Adobe Illustrator 13.0.0, SVG Export Plug-In . SVG Version: 6.00 Build 14948)  -->
<!DOCTYPE svg PUBLIC "-//W3C//DTD SVG 1.1//EN" "http://www.w3.org/Graphics/SVG/1.1/DTD/svg11.dtd">
<svg version="1.1" id="Layer_1" xmlns="http://www.w3.org/2000/svg" xmlns:xlink="http://www.w3.org/1999/xlink" x="0px" y="0px"
	 width="128px" height="128px" viewBox="0 0 128 128" enable-background="new 0 0 128 128" xml:space="preserve">
<g>
	<g>
		<path fill="#D0D0D0" d="M24.387,8.823l79.883,0.005c8.27,0,14.975,6.709,14.975,14.985l0.005,79.937
			c0,8.276-6.705,14.985-14.975,14.985l-79.884-0.004c-8.269,0-14.975-6.71-14.975-14.985L9.413,23.809
			C9.412,15.533,16.117,8.823,24.387,8.823L24.387,8.823z"/>
		<path fill="#B3B3B3" d="M39.739,81.476c-10.641,0-20.846-1.224-30.326-3.453l0.001,25.724c0,8.275,6.705,14.985,14.975,14.985
			l79.884,0.004c8.269,0,14.975-6.709,14.975-14.985l-0.004-53.576C103.986,68.812,74.108,81.476,39.739,81.476z"/>
		<path fill="#999999" d="M104.297,114.152l-80.005-0.005c-7.562,0-13.799-5.607-14.83-12.891v2.138
			c0,8.276,6.705,14.985,14.975,14.985l79.883,0.005c8.27,0,14.975-6.71,14.975-14.985v-4.251
			C119.291,107.434,112.577,114.152,104.297,114.152z"/>
		<path fill="#FFFFFF" d="M27.081,16.669l74.656,0.004c7.055,0,12.875,5.232,13.838,12.028v-1.995
			c0-7.723-6.257-13.983-13.974-13.983l-74.54-0.004c-7.717,0-13.974,6.262-13.974,13.984v3.966
			C13.09,22.938,19.355,16.669,27.081,16.669z"/>
	</g>
	<g>
		<g>
			<polygon points="43.115,79.337 104.016,79.337 104.016,84.968 43.115,84.968 43.115,79.337 			"/>
			<polygon points="43.115,42.591 104.016,42.591 104.016,48.22 43.115,48.22 43.115,42.591 			"/>
			<polygon points="31.035,42.923 31.035,84.392 27.869,84.392 27.869,42.923 31.035,42.923 			"/>
			<polygon points="43.115,60.964 104.016,60.964 104.016,66.593 43.115,66.593 43.115,60.964 			"/>
			<path d="M34.391,45.423c0-1.564-1.268-2.832-2.832-2.832h-4.033c-1.564,0-2.833,1.268-2.833,2.832l0,0
				c0,1.564,1.269,2.834,2.833,2.834h4.033C33.123,48.257,34.391,46.987,34.391,45.423L34.391,45.423z"/>
			<path d="M34.391,63.798c0-1.564-1.268-2.834-2.832-2.834h-4.033c-1.564,0-2.833,1.27-2.833,2.834l0,0
				c0,1.564,1.269,2.832,2.833,2.832h4.033C33.123,66.63,34.391,65.362,34.391,63.798L34.391,63.798z"/>
			<path d="M34.391,82.136c0-1.564-1.268-2.834-2.832-2.834h-4.033c-1.564,0-2.833,1.27-2.833,2.834l0,0
				c0,1.564,1.269,2.832,2.833,2.832h4.033C33.123,84.968,34.391,83.7,34.391,82.136L34.391,82.136z"/>
		</g>
	</g>
</g>
</svg>
