<?xml version="1.0" encoding="utf-8"?>
<!-- Generator: Adobe Illustrator 13.0.0, SVG Export Plug-In . SVG Version: 6.00 Build 14948)  -->
<!DOCTYPE svg PUBLIC "-//W3C//DTD SVG 1.1//EN" "http://www.w3.org/Graphics/SVG/1.1/DTD/svg11.dtd">
<svg version="1.1" id="Layer_1" xmlns="http://www.w3.org/2000/svg" xmlns:xlink="http://www.w3.org/1999/xlink" x="0px" y="0px"
	 width="128px" height="128px" viewBox="0 0 128 128" enable-background="new 0 0 128 128" xml:space="preserve">
<g>
	<g>
		<path fill="#D0D0D0" d="M23.561,8.345l79.883,0.005c8.27,0,14.975,6.709,14.975,14.985l0.005,79.937
			c0,8.276-6.705,14.985-14.975,14.985l-79.884-0.004c-8.269,0-14.975-6.71-14.975-14.985L8.587,23.33
			C8.586,15.055,15.291,8.345,23.561,8.345L23.561,8.345z"/>
		<path fill="#B3B3B3" d="M38.913,80.997c-10.641,0-20.846-1.224-30.326-3.453l0.001,25.724c0,8.275,6.705,14.985,14.975,14.985
			l79.884,0.004c8.269,0,14.975-6.709,14.975-14.985l-0.004-53.576C103.16,68.333,73.282,80.997,38.913,80.997z"/>
		<path fill="#999999" d="M103.471,113.674l-80.005-0.005c-7.562,0-13.799-5.607-14.83-12.891v2.138
			c0,8.276,6.705,14.985,14.975,14.985l79.883,0.005c8.27,0,14.975-6.71,14.975-14.985V98.67
			C118.465,106.955,111.751,113.674,103.471,113.674z"/>
		<path fill="#FFFFFF" d="M26.255,16.19l74.656,0.004c7.055,0,12.875,5.232,13.838,12.028v-1.995
			c0-7.723-6.257-13.983-13.974-13.983l-74.54-0.004c-7.717,0-13.974,6.262-13.974,13.984v3.966
			C12.264,22.459,18.529,16.19,26.255,16.19z"/>
	</g>
	<g>
		<g>
			<path d="M83.536,75.354c0,5.094-1.863,9.113-5.592,12.053c-3.73,2.941-8.587,4.412-14.574,4.412
				c-8.35,0-14.967-2.468-19.852-7.406l5.672-5.594c3.57,3.572,8.35,5.357,14.338,5.357c3.675,0,6.523-0.748,8.546-2.246
				c2.022-1.495,3.034-3.609,3.034-6.34c0-2.469-0.736-4.412-2.206-5.83c-1.261-1.104-3.31-1.891-6.146-2.363l-6.616-0.945
				c-4.569-0.631-8.114-2.127-10.635-4.49c-2.731-2.572-4.097-6.143-4.097-10.713c0-4.885,1.68-8.85,5.041-11.895
				s7.93-4.57,13.707-4.57c6.933,0,12.734,2.127,17.41,6.381l-5.436,5.357c-3.046-2.889-7.117-4.334-12.211-4.334
				c-3.203,0-5.711,0.816-7.523,2.443c-1.811,1.629-2.717,3.729-2.717,6.301c0,2.154,0.709,3.914,2.127,5.279
				c1.365,1.207,3.466,2.049,6.303,2.52l6.38,0.947c4.621,0.629,8.114,2.021,10.478,4.174
				C82.013,66.584,83.536,70.416,83.536,75.354z"/>
		</g>
		<path d="M97.237,63.299c0,1.246-1.011,2.258-2.257,2.258H32.074c-1.246,0-2.256-1.012-2.256-2.258l0,0
			c0-1.246,1.01-2.256,2.256-2.256H94.98C96.227,61.043,97.237,62.053,97.237,63.299L97.237,63.299z"/>
	</g>
</g>
</svg>
