<?xml version="1.0" encoding="utf-8"?>
<!-- Generator: Adobe Illustrator 13.0.0, SVG Export Plug-In . SVG Version: 6.00 Build 14948)  -->
<!DOCTYPE svg PUBLIC "-//W3C//DTD SVG 1.1//EN" "http://www.w3.org/Graphics/SVG/1.1/DTD/svg11.dtd">
<svg version="1.1" id="Layer_1" xmlns="http://www.w3.org/2000/svg" xmlns:xlink="http://www.w3.org/1999/xlink" x="0px" y="0px"
	 width="128px" height="128px" viewBox="0 0 128 128" enable-background="new 0 0 128 128" xml:space="preserve">
<g>
	<g>
		<path fill="#D0D0D0" d="M24.3,8.157l79.883,0.004c8.27,0,14.975,6.709,14.975,14.986l0.005,79.936
			c0,8.277-6.705,14.986-14.975,14.986l-79.884-0.004c-8.269,0-14.975-6.711-14.975-14.986L9.326,23.142
			C9.325,14.866,16.03,8.157,24.3,8.157L24.3,8.157z"/>
		<path fill="#B3B3B3" d="M39.652,80.81c-10.641,0-20.846-1.225-30.326-3.453l0.001,25.723c0,8.275,6.705,14.986,14.975,14.986
			l79.884,0.004c8.269,0,14.975-6.709,14.975-14.986l-0.004-53.576C103.899,68.146,74.021,80.81,39.652,80.81z"/>
		<path fill="#999999" d="M104.21,113.485l-80.005-0.004c-7.562,0-13.799-5.607-14.83-12.891v2.137
			c0,8.277,6.705,14.986,14.975,14.986l79.883,0.004c8.27,0,14.975-6.709,14.975-14.984v-4.252
			C119.204,106.767,112.49,113.485,104.21,113.485z"/>
		<path fill="#FFFFFF" d="M26.994,16.003l74.656,0.004c7.055,0,12.875,5.232,13.838,12.027V26.04
			c0-7.723-6.257-13.984-13.974-13.984l-74.54-0.004c-7.717,0-13.974,6.262-13.974,13.984v3.967
			C13.003,22.271,19.269,16.003,26.994,16.003z"/>
	</g>
	<g>
		<g>
			<polygon points="43.029,96.671 103.928,96.671 103.928,102.302 43.029,102.302 43.029,96.671 			"/>
			<polygon points="43.029,23.923 103.928,23.923 103.928,29.552 43.029,29.552 43.029,23.923 			"/>
			<polygon points="30.948,27.698 30.948,99.226 27.782,99.226 27.782,27.698 30.948,27.698 			"/>
			<polygon points="43.029,60.296 103.928,60.296 103.928,65.925 43.029,65.925 43.029,60.296 			"/>
			<path d="M34.305,26.757c0-1.564-1.269-2.834-2.834-2.834h-4.032c-1.565,0-2.833,1.27-2.833,2.834l0,0
				c0,1.564,1.268,2.832,2.833,2.832h4.032C33.036,29.589,34.305,28.321,34.305,26.757L34.305,26.757z"/>
			<path d="M34.305,63.13c0-1.564-1.269-2.834-2.834-2.834h-4.032c-1.565,0-2.833,1.27-2.833,2.834l0,0
				c0,1.564,1.268,2.832,2.833,2.832h4.032C33.036,65.962,34.305,64.694,34.305,63.13L34.305,63.13z"/>
			<path d="M34.305,99.468c0-1.564-1.269-2.832-2.834-2.832h-4.032c-1.565,0-2.833,1.268-2.833,2.832l0,0
				c0,1.564,1.268,2.834,2.833,2.834h4.032C33.036,102.302,34.305,101.032,34.305,99.468L34.305,99.468z"/>
		</g>
	</g>
</g>
</svg>
