<?xml version="1.0" encoding="utf-8"?>
<!-- Generator: Adobe Illustrator 13.0.0, SVG Export Plug-In . SVG Version: 6.00 Build 14948)  -->
<!DOCTYPE svg PUBLIC "-//W3C//DTD SVG 1.1//EN" "http://www.w3.org/Graphics/SVG/1.1/DTD/svg11.dtd">
<svg version="1.1" id="Layer_1" xmlns="http://www.w3.org/2000/svg" xmlns:xlink="http://www.w3.org/1999/xlink" x="0px" y="0px"
	 width="128px" height="128px" viewBox="0 0 128 128" enable-background="new 0 0 128 128" xml:space="preserve">
<g>
	<g>
		<path fill="#D0D0D0" d="M23.65,8.151l79.883,0.006c8.27,0,14.975,6.709,14.975,14.984l0.005,79.938
			c0,8.275-6.705,14.984-14.975,14.984l-79.884-0.004c-8.269,0-14.975-6.709-14.975-14.984L8.677,23.138
			C8.676,14.862,15.381,8.151,23.65,8.151L23.65,8.151z"/>
		<path fill="#B3B3B3" d="M39.003,80.804c-10.641,0-20.846-1.223-30.326-3.453l0.001,25.725c0,8.275,6.705,14.984,14.975,14.984
			l79.884,0.004c8.269,0,14.975-6.709,14.975-14.984l-0.004-53.576C103.25,68.14,73.372,80.804,39.003,80.804z"/>
		<path fill="#999999" d="M103.561,113.481l-80.005-0.006c-7.562,0-13.799-5.607-14.83-12.891v2.139
			c0,8.275,6.705,14.984,14.975,14.984l79.883,0.006c8.27,0,14.975-6.711,14.975-14.986v-4.25
			C118.555,106.763,111.841,113.481,103.561,113.481z"/>
		<path fill="#FFFFFF" d="M26.345,15.997l74.656,0.004c7.055,0,12.875,5.232,13.838,12.029v-1.996
			c0-7.723-6.257-13.982-13.974-13.982l-74.54-0.004c-7.717,0-13.974,6.262-13.974,13.984v3.965
			C12.354,22.267,18.619,15.997,26.345,15.997z"/>
	</g>
	<g>
		<polygon points="25.395,29.925 101.84,29.925 101.84,35.554 25.395,35.554 25.395,29.925 		"/>
		<polygon points="25.395,54.218 101.84,54.218 101.84,59.849 25.395,59.849 25.395,54.218 		"/>
		<polygon points="25.395,42.071 81.379,42.071 81.379,47.702 25.395,47.702 25.395,42.071 		"/>
		<g>
			<polygon points="44.089,78.513 89.969,78.513 89.969,84.144 44.089,84.144 44.089,78.513 			"/>
			<polygon points="44.089,90.659 77.688,90.659 77.688,96.29 44.089,96.29 44.089,90.659 			"/>
			<polygon points="44.089,66.366 77.688,66.366 77.688,71.995 44.089,71.995 44.089,66.366 			"/>
		</g>
		<path d="M39.546,82.458l-11.94,10.123c-0.815,0.693-2.211,0.201-2.211-0.777c0-2.977,0-18.016,0-20.988
			c0-0.969,1.402-1.414,2.211-0.73l11.94,10.125C40.278,80.833,40.278,81.837,39.546,82.458z"/>
	</g>
</g>
</svg>
