<?xml version="1.0" encoding="utf-8"?>
<!-- Generator: Adobe Illustrator 13.0.0, SVG Export Plug-In . SVG Version: 6.00 Build 14948)  -->
<!DOCTYPE svg PUBLIC "-//W3C//DTD SVG 1.1//EN" "http://www.w3.org/Graphics/SVG/1.1/DTD/svg11.dtd">
<svg version="1.1" id="Layer_1" xmlns="http://www.w3.org/2000/svg" xmlns:xlink="http://www.w3.org/1999/xlink" x="0px" y="0px"
	 width="128px" height="128px" viewBox="0 0 128 128" enable-background="new 0 0 128 128" xml:space="preserve">
<g>
	<g>
		<path fill="#D0D0D0" d="M23.904,8.152l79.883,0.005c8.27,0,14.975,6.709,14.975,14.985l0.005,79.937
			c0,8.276-6.705,14.985-14.975,14.985l-79.884-0.004c-8.269,0-14.975-6.71-14.975-14.985L8.931,23.138
			C8.93,14.862,15.635,8.152,23.904,8.152L23.904,8.152z"/>
		<path fill="#B3B3B3" d="M39.257,80.805c-10.641,0-20.846-1.224-30.326-3.453l0.001,25.724c0,8.275,6.705,14.985,14.975,14.985
			l79.884,0.004c8.269,0,14.975-6.709,14.975-14.985l-0.004-53.576C103.504,68.141,73.626,80.805,39.257,80.805z"/>
		<path fill="#999999" d="M103.814,113.481l-80.005-0.005c-7.562,0-13.799-5.607-14.83-12.891v2.138
			c0,8.276,6.705,14.985,14.975,14.985l79.883,0.005c8.27,0,14.975-6.71,14.975-14.985v-4.251
			C118.809,106.763,112.095,113.481,103.814,113.481z"/>
		<path fill="#FFFFFF" d="M26.599,15.998l74.656,0.004c7.055,0,12.875,5.232,13.838,12.028v-1.995
			c0-7.723-6.257-13.983-13.974-13.983l-74.54-0.004c-7.717,0-13.974,6.262-13.974,13.984v3.966
			C12.607,22.267,18.873,15.998,26.599,15.998z"/>
	</g>
	<g>
		<polygon points="25.644,29.926 102.089,29.926 102.089,35.555 25.644,35.555 25.644,29.926 		"/>
		<polygon points="25.644,54.219 102.089,54.219 102.089,59.85 25.644,59.85 25.644,54.219 		"/>
		<polygon points="25.644,42.072 81.628,42.072 81.628,47.703 25.644,47.703 25.644,42.072 		"/>
		<g>
			<polygon points="38.171,78.514 84.051,78.514 84.051,84.145 38.171,84.145 38.171,78.514 			"/>
			<polygon points="38.171,90.66 71.771,90.66 71.771,96.291 38.171,96.291 38.171,90.66 			"/>
			<polygon points="38.171,66.367 71.771,66.367 71.771,71.996 38.171,71.996 38.171,66.367 			"/>
		</g>
		<path d="M87.947,80.203l11.94-10.123c0.815-0.693,2.211-0.201,2.211,0.777c0,2.977,0,18.016,0,20.988
			c0,0.969-1.402,1.414-2.211,0.73l-11.94-10.125C87.215,81.828,87.215,80.824,87.947,80.203z"/>
	</g>
</g>
</svg>
