<?xml version="1.0" encoding="utf-8"?>
<!-- Generator: Adobe Illustrator 13.0.0, SVG Export Plug-In . SVG Version: 6.00 Build 14948)  -->
<!DOCTYPE svg PUBLIC "-//W3C//DTD SVG 1.1//EN" "http://www.w3.org/Graphics/SVG/1.1/DTD/svg11.dtd">
<svg version="1.1" id="Layer_1" xmlns="http://www.w3.org/2000/svg" xmlns:xlink="http://www.w3.org/1999/xlink" x="0px" y="0px"
	 width="128px" height="128px" viewBox="0 0 128 128" enable-background="new 0 0 128 128" xml:space="preserve">
<g>
	<g>
		<path fill="#D0D0D0" d="M24.41,8.365l79.883,0.005c8.27,0,14.975,6.709,14.975,14.985l0.006,79.937
			c0,8.276-6.705,14.985-14.975,14.985l-79.885-0.004c-8.268,0-14.975-6.71-14.975-14.985L9.438,23.351
			C9.436,15.075,16.141,8.365,24.41,8.365L24.41,8.365z"/>
		<path fill="#B3B3B3" d="M39.764,81.018c-10.641,0-20.846-1.224-30.326-3.453v25.724c0,8.275,6.705,14.985,14.975,14.985
			l79.885,0.004c8.268,0,14.975-6.709,14.975-14.985l-0.004-53.576C104.01,68.354,74.133,81.018,39.764,81.018z"/>
		<path fill="#999999" d="M104.32,113.694l-80.004-0.005c-7.562,0-13.799-5.607-14.83-12.891v2.138
			c0,8.276,6.705,14.985,14.975,14.985l79.883,0.005c8.27,0,14.975-6.71,14.975-14.985V98.69
			C119.314,106.976,112.602,113.694,104.32,113.694z"/>
		<path fill="#FFFFFF" d="M27.105,16.211l74.656,0.004c7.055,0,12.875,5.232,13.838,12.028v-1.995
			c0-7.723-6.258-13.983-13.975-13.983l-74.539-0.004c-7.717,0-13.975,6.262-13.975,13.984v3.966
			C13.113,22.479,19.379,16.211,27.105,16.211z"/>
	</g>
	<g>
		<polygon points="42.988,87.65 103.887,87.65 103.887,93.281 42.988,93.281 42.988,87.65 		"/>
		<polygon points="42.988,33.926 103.887,33.926 103.887,39.555 42.988,39.555 42.988,33.926 		"/>
		<polygon points="42.988,60.789 103.887,60.789 103.887,66.418 42.988,66.418 42.988,60.789 		"/>
		<path d="M31.646,44.969h-2.209V31.953l-3.01,2.643l-0.002-2.447l3.018-2.592l2.203-0.006V44.969z"/>
		<path d="M34.266,70.943h-8.943v-1.971l5.916-7.211c0.547-0.664,0.818-1.35,0.818-2.057s-0.197-1.273-0.594-1.699
			c-0.398-0.426-0.951-0.641-1.658-0.641c-0.648,0-1.176,0.182-1.58,0.543c-0.463,0.418-0.693,1.031-0.693,1.84h-2.209
			c0-1.299,0.42-2.35,1.256-3.15c0.838-0.801,1.914-1.203,3.227-1.203c1.314,0,2.387,0.395,3.217,1.182s1.244,1.84,1.244,3.154
			c0,0.65-0.111,1.211-0.332,1.68c-0.223,0.469-0.594,1.023-1.109,1.658l-4.812,5.904h6.254V70.943z"/>
		<path d="M34.311,92.609c0,1.416-0.463,2.533-1.387,3.357c-0.447,0.375-0.941,0.656-1.484,0.844
			c-0.541,0.188-1.158,0.281-1.85,0.281c-1.314,0-2.398-0.346-3.25-1.039c-0.98-0.793-1.473-1.891-1.473-3.291h2.209
			c0,0.742,0.268,1.34,0.803,1.791c0.447,0.381,1.018,0.568,1.711,0.568c0.734,0,1.338-0.227,1.807-0.686
			c0.469-0.455,0.705-1.084,0.705-1.881c0-1.695-0.859-2.543-2.578-2.543h-0.367v-1.928h0.367c1.561,0,2.34-0.783,2.34-2.35
			c0-0.74-0.221-1.324-0.662-1.752c-0.439-0.428-0.977-0.641-1.611-0.641c-0.666,0-1.195,0.197-1.592,0.59
			c-0.398,0.395-0.639,0.939-0.727,1.641h-2.209c0-1.242,0.441-2.254,1.322-3.033c0.879-0.779,1.947-1.168,3.205-1.168
			c1.299,0,2.371,0.4,3.215,1.201c0.844,0.803,1.268,1.838,1.268,3.107c0,1.545-0.643,2.643-1.928,3.293
			C33.588,89.607,34.311,90.82,34.311,92.609z"/>
	</g>
</g>
</svg>
