<?xml version="1.0" encoding="utf-8"?>
<!-- Generator: Adobe Illustrator 13.0.0, SVG Export Plug-In . SVG Version: 6.00 Build 14948)  -->
<!DOCTYPE svg PUBLIC "-//W3C//DTD SVG 1.1//EN" "http://www.w3.org/Graphics/SVG/1.1/DTD/svg11.dtd">
<svg version="1.1" id="Layer_1" xmlns="http://www.w3.org/2000/svg" xmlns:xlink="http://www.w3.org/1999/xlink" x="0px" y="0px"
	 width="128px" height="128px" viewBox="0 0 128 128" enable-background="new 0 0 128 128" xml:space="preserve">
<g>
	<path fill="#D0D0D0" d="M23.479,8.182l79.883,0.005c8.27,0,14.975,6.709,14.975,14.985l0.004,79.937
		c0,8.276-6.705,14.985-14.975,14.985l-79.883-0.004c-8.27,0-14.975-6.71-14.975-14.985L8.504,23.167
		C8.504,14.892,15.209,8.182,23.479,8.182L23.479,8.182z"/>
	<path fill="#B3B3B3" d="M38.83,80.834c-10.641,0-20.846-1.224-30.326-3.453l0.002,25.724c0,8.275,6.705,14.985,14.975,14.985
		l79.883,0.004c8.27,0,14.975-6.709,14.975-14.985l-0.004-53.576C103.078,68.17,73.199,80.834,38.83,80.834z"/>
	<path fill="#999999" d="M103.389,113.51l-80.006-0.004c-7.561,0-13.799-5.607-14.83-12.891v2.138
		c0,8.275,6.705,14.985,14.975,14.985l79.883,0.004c8.27,0,14.975-6.709,14.975-14.985v-4.25
		C118.383,106.792,111.668,113.51,103.389,113.51z"/>
	<path fill="#FFFFFF" d="M26.172,16.027l74.656,0.004c7.055,0,12.875,5.232,13.838,12.028v-1.995
		c0-7.723-6.256-13.983-13.973-13.983l-74.541-0.004c-7.717,0-13.973,6.262-13.973,13.984v3.966
		C12.182,22.296,18.447,16.027,26.172,16.027z"/>
	<g>
		<path d="M74.615,27.269v-1.683h21.826v1.683h-2.326c-2.436,0-4.307,1.022-5.615,3.063c-0.637,0.945-0.957,3.142-0.957,6.585
			v25.171c0,6.227-0.617,11.055-1.85,14.487c-1.234,3.432-3.656,6.377-7.266,8.832c-3.605,2.456-8.518,3.685-14.73,3.685
			c-6.762,0-11.893-1.173-15.395-3.525c-3.502-2.351-5.982-5.509-7.445-9.473c-0.975-2.72-1.461-7.815-1.461-15.29V36.543
			c0-3.807-0.525-6.303-1.576-7.491s-2.744-1.783-5.09-1.783h-2.328v-1.683h26.791v1.683H54.82c-2.557,0-4.383,0.808-5.477,2.421
			c-0.764,1.099-1.145,3.382-1.145,6.854v27.054c0,2.413,0.223,5.171,0.664,8.284c0.443,3.113,1.242,5.543,2.402,7.279
			c1.158,1.74,2.83,3.175,5.008,4.303c2.182,1.131,4.857,1.693,8.029,1.693c4.057,0,7.686-0.885,10.887-2.653
			c3.201-1.771,5.391-4.037,6.562-6.798c1.176-2.763,1.762-7.439,1.762-14.031V36.543c0-3.869-0.426-6.29-1.277-7.264
			c-1.188-1.341-2.951-2.011-5.295-2.011H74.615L74.615,27.269z"/>
		<polygon points="29.598,97.39 97.246,97.39 97.246,100.689 29.598,100.689 29.598,97.39 		"/>
	</g>
</g>
</svg>
