<?xml version="1.0" encoding="utf-8"?>
<!-- Generator: Adobe Illustrator 13.0.0, SVG Export Plug-In . SVG Version: 6.00 Build 14948)  -->
<!DOCTYPE svg PUBLIC "-//W3C//DTD SVG 1.1//EN" "http://www.w3.org/Graphics/SVG/1.1/DTD/svg11.dtd">
<svg version="1.1" id="Layer_1" xmlns="http://www.w3.org/2000/svg" xmlns:xlink="http://www.w3.org/1999/xlink" x="0px" y="0px"
	 width="128px" height="128px" viewBox="0 0 128 128" enable-background="new 0 0 128 128" xml:space="preserve">
<g>
	<g>
		<path fill="#D0D0D0" d="M24.117,8.077L104,8.082c8.27,0,14.975,6.709,14.975,14.985l0.006,79.937
			c0,8.276-6.705,14.985-14.975,14.985l-79.885-0.004c-8.268,0-14.975-6.71-14.975-14.985L9.145,23.062
			C9.143,14.787,15.848,8.077,24.117,8.077L24.117,8.077z"/>
		<path fill="#B3B3B3" d="M39.471,80.729c-10.641,0-20.846-1.224-30.326-3.453V103c0,8.275,6.705,14.985,14.975,14.985l79.885,0.004
			c8.268,0,14.975-6.709,14.975-14.985l-0.004-53.576C103.717,68.065,73.84,80.729,39.471,80.729z"/>
		<path fill="#999999" d="M104.027,113.406l-80.004-0.005c-7.562,0-13.799-5.607-14.83-12.891v2.138
			c0,8.276,6.705,14.985,14.975,14.985l79.883,0.005c8.27,0,14.975-6.71,14.975-14.985v-4.251
			C119.021,106.688,112.309,113.406,104.027,113.406z"/>
		<path fill="#FFFFFF" d="M26.812,15.923l74.656,0.004c7.055,0,12.875,5.232,13.838,12.028V25.96
			c0-7.723-6.258-13.983-13.975-13.983l-74.539-0.004c-7.717,0-13.975,6.262-13.975,13.984v3.966
			C12.82,22.191,19.086,15.923,26.812,15.923z"/>
	</g>
	<g>
		<polygon points="25.861,29.851 102.307,29.851 102.307,35.479 25.861,35.479 25.861,29.851 		"/>
		<polygon points="25.861,54.144 102.307,54.144 102.307,59.775 25.861,59.775 25.861,54.144 		"/>
		<polygon points="25.861,78.438 102.307,78.438 102.307,84.069 25.861,84.069 25.861,78.438 		"/>
		<polygon points="25.861,90.585 81.846,90.585 81.846,96.216 25.861,96.216 25.861,90.585 		"/>
		<polygon points="25.861,41.997 81.846,41.997 81.846,47.628 25.861,47.628 25.861,41.997 		"/>
		<polygon points="25.861,66.292 81.846,66.292 81.846,71.921 25.861,71.921 25.861,66.292 		"/>
	</g>
</g>
</svg>
