<?xml version="1.0" encoding="utf-8"?>
<!-- Generator: Adobe Illustrator 13.0.0, SVG Export Plug-In . SVG Version: 6.00 Build 14948)  -->
<!DOCTYPE svg PUBLIC "-//W3C//DTD SVG 1.1//EN" "http://www.w3.org/Graphics/SVG/1.1/DTD/svg11.dtd">
<svg version="1.1" id="Layer_1" xmlns="http://www.w3.org/2000/svg" xmlns:xlink="http://www.w3.org/1999/xlink" x="0px" y="0px"
	 width="128px" height="128px" viewBox="0 0 128 128" enable-background="new 0 0 128 128" xml:space="preserve">
<g>
	<g>
		<path fill="#D0D0D0" d="M23.729,8.523l79.883,0.005c8.27,0,14.975,6.709,14.975,14.985l0.005,79.937
			c0,8.276-6.705,14.985-14.975,14.985l-79.884-0.004c-8.269,0-14.975-6.71-14.975-14.985L8.756,23.509
			C8.755,15.233,15.46,8.523,23.729,8.523L23.729,8.523z"/>
		<path fill="#B3B3B3" d="M39.082,81.176c-10.641,0-20.846-1.224-30.326-3.453l0.001,25.724c0,8.275,6.705,14.985,14.975,14.985
			l79.884,0.004c8.269,0,14.975-6.709,14.975-14.985l-0.004-53.576C103.329,68.512,73.451,81.176,39.082,81.176z"/>
		<path fill="#999999" d="M103.64,113.853l-80.005-0.005c-7.562,0-13.799-5.607-14.83-12.891v2.138
			c0,8.276,6.705,14.985,14.975,14.985l79.883,0.005c8.27,0,14.975-6.71,14.975-14.985v-4.251
			C118.634,107.134,111.92,113.853,103.64,113.853z"/>
		<path fill="#FFFFFF" d="M26.424,16.369l74.656,0.004c7.055,0,12.875,5.232,13.838,12.028v-1.995
			c0-7.723-6.257-13.983-13.974-13.983l-74.54-0.004c-7.717,0-13.974,6.262-13.974,13.984v3.966
			C12.433,22.638,18.698,16.369,26.424,16.369z"/>
	</g>
	<g>
		<g>
			<g>
				<path d="M65.271,80.108h-6.902l-2.889-8.58H38.587l-2.955,8.58l-6.9-0.002l15.66-42.718h5.219L65.271,80.108z M53.606,66.067
					l-6.445-18.975l-6.637,18.975H53.606z"/>
			</g>
			<path d="M82.155,55.774L69.003,40.261c-0.899-1.059-0.26-2.872,1.011-2.872c3.866,0,23.407,0,27.269,0
				c1.26,0,1.838,1.821,0.949,2.872L85.076,55.774C84.269,56.726,82.962,56.726,82.155,55.774z"/>
			<g>
				<path d="M90.259,83.419c0,1.902-0.697,3.404-2.09,4.502c-1.395,1.1-3.209,1.648-5.445,1.648c-3.121,0-5.593-0.922-7.418-2.766
					l2.119-2.09c1.334,1.334,3.12,2,5.357,2c1.373,0,2.438-0.279,3.193-0.838c0.755-0.559,1.133-1.35,1.133-2.369
					c0-0.922-0.275-1.648-0.824-2.178c-0.471-0.412-1.236-0.707-2.295-0.885l-2.473-0.352c-1.707-0.236-3.031-0.795-3.974-1.678
					c-1.021-0.963-1.53-2.297-1.53-4.004c0-1.824,0.627-3.307,1.883-4.445c1.256-1.137,2.963-1.707,5.122-1.707
					c2.59,0,4.758,0.795,6.505,2.385l-2.031,2.002c-1.139-1.08-2.659-1.619-4.562-1.619c-1.197,0-2.133,0.305-2.811,0.912
					c-0.677,0.609-1.016,1.395-1.016,2.355c0,0.805,0.266,1.461,0.795,1.971c0.51,0.453,1.295,0.766,2.354,0.943l2.384,0.354
					c1.727,0.234,3.032,0.754,3.915,1.559C89.688,80.142,90.259,81.573,90.259,83.419z"/>
			</g>
		</g>
	</g>
</g>
</svg>
