<?xml version="1.0" encoding="utf-8"?>
<!-- Generator: Adobe Illustrator 13.0.0, SVG Export Plug-In . SVG Version: 6.00 Build 14948)  -->
<!DOCTYPE svg PUBLIC "-//W3C//DTD SVG 1.1//EN" "http://www.w3.org/Graphics/SVG/1.1/DTD/svg11.dtd">
<svg version="1.1" id="Layer_1" xmlns="http://www.w3.org/2000/svg" xmlns:xlink="http://www.w3.org/1999/xlink" x="0px" y="0px"
	 width="128px" height="128px" viewBox="0 0 128 128" enable-background="new 0 0 128 128" xml:space="preserve">
<g>
	<linearGradient id="SVGID_1_" gradientUnits="userSpaceOnUse" x1="63.9995" y1="13.3984" x2="63.9995" y2="114.6021">
		<stop  offset="0" style="stop-color:#5F5D5C"/>
		<stop  offset="0.1849" style="stop-color:#5B5957"/>
		<stop  offset="0.4091" style="stop-color:#504D48"/>
		<stop  offset="0.6537" style="stop-color:#3D3A30"/>
		<stop  offset="0.9111" style="stop-color:#22200E"/>
		<stop  offset="1" style="stop-color:#181500"/>
	</linearGradient>
	<path fill="url(#SVGID_1_)" d="M109.503,13.398H18.499c-9.342,0-16.912,7.572-16.912,16.91v67.379
		c0,9.342,7.57,16.914,16.912,16.914h91.004c9.338,0,16.91-7.572,16.91-16.914V30.309C126.413,20.971,118.841,13.398,109.503,13.398
		z"/>
	<path d="M38.497,78.879c-12.658,0-24.773-1.07-35.961-3.022v22.106c0,9.189,7.447,16.639,16.637,16.639h89.523
		c9.186,0,16.635-7.449,16.635-16.639V56.452C107.315,69.913,75.167,78.879,38.497,78.879z"/>
	<linearGradient id="SVGID_2_" gradientUnits="userSpaceOnUse" x1="64.2251" y1="36.8594" x2="64.2251" y2="15.7939">
		<stop  offset="0" style="stop-color:#808285"/>
		<stop  offset="1" style="stop-color:#BCBEC0"/>
	</linearGradient>
	<path fill="url(#SVGID_2_)" d="M107.972,15.794H20.479c-8.98,0-16.26,7.28-16.26,16.258v4.808c0-8.979,7.279-16.259,16.26-16.259
		h87.492c8.979,0,16.258,7.28,16.258,16.259v-4.808C124.229,23.074,116.95,15.794,107.972,15.794z"/>
	<g>
		<linearGradient id="SVGID_3_" gradientUnits="userSpaceOnUse" x1="32.416" y1="69.6729" x2="21.2543" y2="61.8573">
			<stop  offset="0" style="stop-color:#FF9D00"/>
			<stop  offset="1" style="stop-color:#FF1F00"/>
		</linearGradient>
		<path fill="url(#SVGID_3_)" d="M24.911,70.286h1.504c1.001,0,1.506-0.57,1.514-1.713v-1.711l-1.479-0.014h-0.752
			c-0.502,0-0.752-0.285-0.752-0.855v-0.855v-0.855c0-0.57,0.25-0.852,0.752-0.844h0.752h0.751l0.752-0.012l-0.012-0.857
			c0-0.57-0.251-0.855-0.751-0.855h-0.753l-0.763,0.014h-0.752h-0.752c-0.502,0-0.752-0.285-0.752-0.855v-0.855v-0.871
			c0-0.57,0.25-0.855,0.752-0.855l0.752,0.014h1.515h1.516h1.491c1.002-0.01,1.504,0.557,1.504,1.699l0.012,1.711l-0.023,4.279
			l-0.012,4.293c0,2.283-1.006,3.424-3.02,3.424h-2.994c-1.01,0-1.516-0.57-1.516-1.713C23.396,70.856,23.901,70.286,24.911,70.286z
			"/>
		<linearGradient id="SVGID_4_" gradientUnits="userSpaceOnUse" x1="35.3174" y1="72.9492" x2="32.5831" y2="71.0347">
			<stop  offset="0" style="stop-color:#FF9D00"/>
			<stop  offset="1" style="stop-color:#FF1F00"/>
		</linearGradient>
		<path fill="url(#SVGID_4_)" d="M35.458,71.983c0,1.15-0.504,1.727-1.515,1.727c-1.003,0-1.499-0.576-1.491-1.727
			c0-1.141,0.5-1.711,1.503-1.711C34.949,70.272,35.45,70.843,35.458,71.983z"/>
		<linearGradient id="SVGID_5_" gradientUnits="userSpaceOnUse" x1="42.6396" y1="68.9375" x2="34.2729" y2="63.0791">
			<stop  offset="0" style="stop-color:#FF9D00"/>
			<stop  offset="1" style="stop-color:#FF1F00"/>
		</linearGradient>
		<path fill="url(#SVGID_5_)" d="M39.956,60.017l0.012,11.98c0,1.143-0.504,1.713-1.514,1.713c-1.004,0-1.5-0.57-1.492-1.713
			l-0.012-11.98c0-1.143,0.5-1.713,1.504-1.713C39.456,58.304,39.956,58.874,39.956,60.017z"/>
		<linearGradient id="SVGID_6_" gradientUnits="userSpaceOnUse" x1="52.9839" y1="70.3887" x2="40.4638" y2="61.622">
			<stop  offset="0" style="stop-color:#FF9D00"/>
			<stop  offset="1" style="stop-color:#FF1F00"/>
		</linearGradient>
		<path fill="url(#SVGID_6_)" d="M48.989,73.71h-4.521c-2.006,0-3.004-1.137-2.996-3.41l-0.012-8.586
			c0-2.273,1.002-3.414,3.008-3.424l4.51,0.014c2.004-0.01,3.007,1.133,3.007,3.424V70.3C51.984,72.583,50.985,73.718,48.989,73.71z
			 M48.978,68.573l0.012-5.146c0-1.143-0.502-1.713-1.504-1.713h-1.503c-1.011,0-1.515,0.57-1.515,1.713v5.146
			c0.007,1.143,0.508,1.713,1.502,1.713h1.516C48.487,70.286,48.985,69.716,48.978,68.573z"/>
		<linearGradient id="SVGID_7_" gradientUnits="userSpaceOnUse" x1="65.0117" y1="70.3887" x2="52.4917" y2="61.622">
			<stop  offset="0" style="stop-color:#FF9D00"/>
			<stop  offset="1" style="stop-color:#FF1F00"/>
		</linearGradient>
		<path fill="url(#SVGID_7_)" d="M61.017,73.71h-4.521c-2.006,0-3.004-1.137-2.996-3.41l-0.012-8.586
			c0-2.273,1.002-3.414,3.008-3.424l4.51,0.014c2.004-0.01,3.007,1.133,3.007,3.424V70.3C64.012,72.583,63.013,73.718,61.017,73.71z
			 M61.005,68.573l0.012-5.146c0-1.143-0.502-1.713-1.504-1.713H58.01c-1.011,0-1.515,0.57-1.515,1.713v5.146
			c0.008,1.143,0.508,1.713,1.503,1.713h1.515C60.515,70.286,61.013,69.716,61.005,68.573z"/>
		<linearGradient id="SVGID_8_" gradientUnits="userSpaceOnUse" x1="68.3926" y1="72.9492" x2="65.6591" y2="71.0352">
			<stop  offset="0" style="stop-color:#FF9D00"/>
			<stop  offset="1" style="stop-color:#FF1F00"/>
		</linearGradient>
		<path fill="url(#SVGID_8_)" d="M68.533,71.983c0,1.15-0.505,1.727-1.515,1.727c-1.002,0-1.5-0.576-1.492-1.727
			c0-1.141,0.502-1.711,1.504-1.711C68.024,70.272,68.526,70.843,68.533,71.983z"/>
		<linearGradient id="SVGID_9_" gradientUnits="userSpaceOnUse" x1="81.5508" y1="70.3896" x2="69.0307" y2="61.623">
			<stop  offset="0" style="stop-color:#FF9D00"/>
			<stop  offset="1" style="stop-color:#FF1F00"/>
		</linearGradient>
		<path fill="url(#SVGID_9_)" d="M77.555,73.71h-4.522c-2.004,0-3.002-1.137-2.994-3.41l-0.012-8.586
			c0-2.273,1.002-3.414,3.006-3.424l4.511,0.014c2.005-0.01,3.007,1.133,3.007,3.424V70.3C80.55,72.583,79.552,73.718,77.555,73.71z
			 M77.543,68.573l0.012-5.146c0-1.143-0.501-1.713-1.503-1.713h-1.504c-1.01,0-1.516,0.57-1.516,1.713v5.146
			c0.008,1.143,0.51,1.713,1.504,1.713h1.516C77.054,70.286,77.55,69.716,77.543,68.573z"/>
		<linearGradient id="SVGID_10_" gradientUnits="userSpaceOnUse" x1="93.5781" y1="70.3887" x2="81.0589" y2="61.6226">
			<stop  offset="0" style="stop-color:#FF9D00"/>
			<stop  offset="1" style="stop-color:#FF1F00"/>
		</linearGradient>
		<path fill="url(#SVGID_10_)" d="M89.582,73.71H85.06c-2.004,0-3.002-1.137-2.994-3.41l-0.012-8.586
			c0-2.273,1.002-3.414,3.006-3.424l4.512,0.014c2.004-0.01,3.006,1.133,3.006,3.424V70.3C92.577,72.583,91.579,73.718,89.582,73.71
			z M89.571,68.573l0.011-5.146c0-1.143-0.501-1.713-1.503-1.713h-1.504c-1.01,0-1.516,0.57-1.516,1.713v5.146
			c0.008,1.143,0.51,1.713,1.504,1.713h1.516C89.081,70.286,89.577,69.716,89.571,68.573z"/>
		<linearGradient id="SVGID_11_" gradientUnits="userSpaceOnUse" x1="105.6055" y1="70.3887" x2="93.0854" y2="61.622">
			<stop  offset="0" style="stop-color:#FF9D00"/>
			<stop  offset="1" style="stop-color:#FF1F00"/>
		</linearGradient>
		<path fill="url(#SVGID_11_)" d="M101.609,73.71h-4.522c-2.004,0-3.002-1.137-2.994-3.41l-0.012-8.586
			c0-2.273,1.002-3.414,3.006-3.424l4.511,0.014c2.005-0.01,3.007,1.133,3.007,3.424V70.3
			C104.604,72.583,103.606,73.718,101.609,73.71z M101.598,68.573l0.012-5.146c0-1.143-0.501-1.713-1.503-1.713h-1.504
			c-1.01,0-1.516,0.57-1.516,1.713v5.146c0.008,1.143,0.51,1.713,1.504,1.713h1.516C101.108,70.286,101.604,69.716,101.598,68.573z"
			/>
	</g>
	<g>
		<g>
			<linearGradient id="SVGID_12_" gradientUnits="userSpaceOnUse" x1="17.0176" y1="31.6836" x2="23.4824" y2="31.6836">
				<stop  offset="0" style="stop-color:#FF1F00"/>
				<stop  offset="1" style="stop-color:#FF9D00"/>
			</linearGradient>
			<circle fill="url(#SVGID_12_)" cx="20.25" cy="31.684" r="3.232"/>
			<linearGradient id="SVGID_13_" gradientUnits="userSpaceOnUse" x1="26.7129" y1="31.6836" x2="33.1777" y2="31.6836">
				<stop  offset="0" style="stop-color:#FF1F00"/>
				<stop  offset="1" style="stop-color:#FF9D00"/>
			</linearGradient>
			<circle fill="url(#SVGID_13_)" cx="29.945" cy="31.684" r="3.232"/>
			<linearGradient id="SVGID_14_" gradientUnits="userSpaceOnUse" x1="36.4092" y1="31.6836" x2="42.874" y2="31.6836">
				<stop  offset="0" style="stop-color:#FF1F00"/>
				<stop  offset="1" style="stop-color:#FF9D00"/>
			</linearGradient>
			<circle fill="url(#SVGID_14_)" cx="39.642" cy="31.684" r="3.232"/>
			<linearGradient id="SVGID_15_" gradientUnits="userSpaceOnUse" x1="46.1045" y1="31.6836" x2="52.5693" y2="31.6836">
				<stop  offset="0" style="stop-color:#FF1F00"/>
				<stop  offset="1" style="stop-color:#FF9D00"/>
			</linearGradient>
			<circle fill="url(#SVGID_15_)" cx="49.337" cy="31.684" r="3.232"/>
			<linearGradient id="SVGID_16_" gradientUnits="userSpaceOnUse" x1="55.8008" y1="31.6836" x2="62.2656" y2="31.6836">
				<stop  offset="0" style="stop-color:#FF1F00"/>
				<stop  offset="1" style="stop-color:#FF9D00"/>
			</linearGradient>
			<circle fill="url(#SVGID_16_)" cx="59.033" cy="31.684" r="3.232"/>
			<linearGradient id="SVGID_17_" gradientUnits="userSpaceOnUse" x1="65.4961" y1="31.6836" x2="71.9609" y2="31.6836">
				<stop  offset="0" style="stop-color:#FF1F00"/>
				<stop  offset="1" style="stop-color:#FF9D00"/>
			</linearGradient>
			<circle fill="url(#SVGID_17_)" cx="68.729" cy="31.684" r="3.232"/>
			<linearGradient id="SVGID_18_" gradientUnits="userSpaceOnUse" x1="75.1924" y1="31.6836" x2="81.6572" y2="31.6836">
				<stop  offset="0" style="stop-color:#FF1F00"/>
				<stop  offset="1" style="stop-color:#FF9D00"/>
			</linearGradient>
			<circle fill="url(#SVGID_18_)" cx="78.425" cy="31.684" r="3.232"/>
			<linearGradient id="SVGID_19_" gradientUnits="userSpaceOnUse" x1="84.8877" y1="31.6836" x2="91.3525" y2="31.6836">
				<stop  offset="0" style="stop-color:#FF1F00"/>
				<stop  offset="1" style="stop-color:#FF9D00"/>
			</linearGradient>
			<circle fill="url(#SVGID_19_)" cx="88.12" cy="31.684" r="3.232"/>
			<linearGradient id="SVGID_20_" gradientUnits="userSpaceOnUse" x1="94.584" y1="31.6836" x2="101.0488" y2="31.6836">
				<stop  offset="0" style="stop-color:#FF1F00"/>
				<stop  offset="1" style="stop-color:#FF9D00"/>
			</linearGradient>
			<circle fill="url(#SVGID_20_)" cx="97.816" cy="31.684" r="3.232"/>
			<linearGradient id="SVGID_21_" gradientUnits="userSpaceOnUse" x1="104.2793" y1="31.6836" x2="110.7441" y2="31.6836">
				<stop  offset="0" style="stop-color:#FF1F00"/>
				<stop  offset="1" style="stop-color:#FF9D00"/>
			</linearGradient>
			<circle fill="url(#SVGID_21_)" cx="107.512" cy="31.684" r="3.232"/>
		</g>
		<g>
			<linearGradient id="SVGID_22_" gradientUnits="userSpaceOnUse" x1="17.0176" y1="100.3164" x2="23.4824" y2="100.3164">
				<stop  offset="0" style="stop-color:#FF1F00"/>
				<stop  offset="1" style="stop-color:#FF9D00"/>
			</linearGradient>
			<circle fill="url(#SVGID_22_)" cx="20.25" cy="100.316" r="3.232"/>
			<linearGradient id="SVGID_23_" gradientUnits="userSpaceOnUse" x1="26.7129" y1="100.3164" x2="33.1777" y2="100.3164">
				<stop  offset="0" style="stop-color:#FF1F00"/>
				<stop  offset="1" style="stop-color:#FF9D00"/>
			</linearGradient>
			<circle fill="url(#SVGID_23_)" cx="29.945" cy="100.316" r="3.232"/>
			<linearGradient id="SVGID_24_" gradientUnits="userSpaceOnUse" x1="36.4092" y1="100.3164" x2="42.874" y2="100.3164">
				<stop  offset="0" style="stop-color:#FF1F00"/>
				<stop  offset="1" style="stop-color:#FF9D00"/>
			</linearGradient>
			<circle fill="url(#SVGID_24_)" cx="39.642" cy="100.316" r="3.232"/>
			<linearGradient id="SVGID_25_" gradientUnits="userSpaceOnUse" x1="46.1045" y1="100.3164" x2="52.5693" y2="100.3164">
				<stop  offset="0" style="stop-color:#FF1F00"/>
				<stop  offset="1" style="stop-color:#FF9D00"/>
			</linearGradient>
			<circle fill="url(#SVGID_25_)" cx="49.337" cy="100.316" r="3.232"/>
			<linearGradient id="SVGID_26_" gradientUnits="userSpaceOnUse" x1="55.8008" y1="100.3164" x2="62.2656" y2="100.3164">
				<stop  offset="0" style="stop-color:#FF1F00"/>
				<stop  offset="1" style="stop-color:#FF9D00"/>
			</linearGradient>
			<circle fill="url(#SVGID_26_)" cx="59.033" cy="100.316" r="3.232"/>
			<linearGradient id="SVGID_27_" gradientUnits="userSpaceOnUse" x1="65.4961" y1="100.3164" x2="71.9609" y2="100.3164">
				<stop  offset="0" style="stop-color:#FF1F00"/>
				<stop  offset="1" style="stop-color:#FF9D00"/>
			</linearGradient>
			<circle fill="url(#SVGID_27_)" cx="68.729" cy="100.316" r="3.232"/>
			<linearGradient id="SVGID_28_" gradientUnits="userSpaceOnUse" x1="75.1924" y1="100.3164" x2="81.6572" y2="100.3164">
				<stop  offset="0" style="stop-color:#FF1F00"/>
				<stop  offset="1" style="stop-color:#FF9D00"/>
			</linearGradient>
			<circle fill="url(#SVGID_28_)" cx="78.425" cy="100.316" r="3.232"/>
			<linearGradient id="SVGID_29_" gradientUnits="userSpaceOnUse" x1="84.8877" y1="100.3164" x2="91.3525" y2="100.3164">
				<stop  offset="0" style="stop-color:#FF1F00"/>
				<stop  offset="1" style="stop-color:#FF9D00"/>
			</linearGradient>
			<circle fill="url(#SVGID_29_)" cx="88.12" cy="100.316" r="3.232"/>
			<linearGradient id="SVGID_30_" gradientUnits="userSpaceOnUse" x1="94.584" y1="100.3164" x2="101.0488" y2="100.3164">
				<stop  offset="0" style="stop-color:#FF1F00"/>
				<stop  offset="1" style="stop-color:#FF9D00"/>
			</linearGradient>
			<circle fill="url(#SVGID_30_)" cx="97.816" cy="100.316" r="3.232"/>
			<linearGradient id="SVGID_31_" gradientUnits="userSpaceOnUse" x1="104.2793" y1="100.3164" x2="110.7441" y2="100.3164">
				<stop  offset="0" style="stop-color:#FF1F00"/>
				<stop  offset="1" style="stop-color:#FF9D00"/>
			</linearGradient>
			<circle fill="url(#SVGID_31_)" cx="107.512" cy="100.316" r="3.232"/>
		</g>
		<g>
			<linearGradient id="SVGID_32_" gradientUnits="userSpaceOnUse" x1="112.8555" y1="37.7676" x2="119.3203" y2="37.7676">
				<stop  offset="0" style="stop-color:#FF1F00"/>
				<stop  offset="1" style="stop-color:#FF9D00"/>
			</linearGradient>
			<circle fill="url(#SVGID_32_)" cx="116.088" cy="37.768" r="3.232"/>
			<linearGradient id="SVGID_33_" gradientUnits="userSpaceOnUse" x1="114.8555" y1="47.7031" x2="121.3203" y2="47.7031">
				<stop  offset="0" style="stop-color:#FF1F00"/>
				<stop  offset="1" style="stop-color:#FF9D00"/>
			</linearGradient>
			<circle fill="url(#SVGID_33_)" cx="118.088" cy="47.703" r="3.232"/>
			<linearGradient id="SVGID_34_" gradientUnits="userSpaceOnUse" x1="114.8555" y1="56.6387" x2="121.3203" y2="56.6387">
				<stop  offset="0" style="stop-color:#FF1F00"/>
				<stop  offset="1" style="stop-color:#FF9D00"/>
			</linearGradient>
			<circle fill="url(#SVGID_34_)" cx="118.088" cy="56.639" r="3.232"/>
			<linearGradient id="SVGID_35_" gradientUnits="userSpaceOnUse" x1="114.8555" y1="65.5742" x2="121.3203" y2="65.5742">
				<stop  offset="0" style="stop-color:#FF1F00"/>
				<stop  offset="1" style="stop-color:#FF9D00"/>
			</linearGradient>
			<circle fill="url(#SVGID_35_)" cx="118.088" cy="65.574" r="3.232"/>
			<linearGradient id="SVGID_36_" gradientUnits="userSpaceOnUse" x1="114.8555" y1="74.5098" x2="121.3203" y2="74.5098">
				<stop  offset="0" style="stop-color:#FF1F00"/>
				<stop  offset="1" style="stop-color:#FF9D00"/>
			</linearGradient>
			<circle fill="url(#SVGID_36_)" cx="118.088" cy="74.51" r="3.232"/>
			<linearGradient id="SVGID_37_" gradientUnits="userSpaceOnUse" x1="114.8555" y1="83.4453" x2="121.3203" y2="83.4453">
				<stop  offset="0" style="stop-color:#FF1F00"/>
				<stop  offset="1" style="stop-color:#FF9D00"/>
			</linearGradient>
			<circle fill="url(#SVGID_37_)" cx="118.088" cy="83.445" r="3.232"/>
			<linearGradient id="SVGID_38_" gradientUnits="userSpaceOnUse" x1="112.8555" y1="93.3809" x2="119.3203" y2="93.3809">
				<stop  offset="0" style="stop-color:#FF1F00"/>
				<stop  offset="1" style="stop-color:#FF9D00"/>
			</linearGradient>
			<circle fill="url(#SVGID_38_)" cx="116.088" cy="93.381" r="3.232"/>
		</g>
		<g>
			<linearGradient id="SVGID_39_" gradientUnits="userSpaceOnUse" x1="8.6797" y1="37.7676" x2="15.1436" y2="37.7676">
				<stop  offset="0" style="stop-color:#FF1F00"/>
				<stop  offset="1" style="stop-color:#FF9D00"/>
			</linearGradient>
			<circle fill="url(#SVGID_39_)" cx="11.912" cy="37.768" r="3.232"/>
			<linearGradient id="SVGID_40_" gradientUnits="userSpaceOnUse" x1="6.6797" y1="47.7031" x2="13.1436" y2="47.7031">
				<stop  offset="0" style="stop-color:#FF1F00"/>
				<stop  offset="1" style="stop-color:#FF9D00"/>
			</linearGradient>
			<circle fill="url(#SVGID_40_)" cx="9.912" cy="47.703" r="3.232"/>
			<linearGradient id="SVGID_41_" gradientUnits="userSpaceOnUse" x1="6.6797" y1="56.6387" x2="13.1436" y2="56.6387">
				<stop  offset="0" style="stop-color:#FF1F00"/>
				<stop  offset="1" style="stop-color:#FF9D00"/>
			</linearGradient>
			<circle fill="url(#SVGID_41_)" cx="9.912" cy="56.639" r="3.232"/>
			<linearGradient id="SVGID_42_" gradientUnits="userSpaceOnUse" x1="6.6797" y1="65.5742" x2="13.1436" y2="65.5742">
				<stop  offset="0" style="stop-color:#FF1F00"/>
				<stop  offset="1" style="stop-color:#FF9D00"/>
			</linearGradient>
			<circle fill="url(#SVGID_42_)" cx="9.912" cy="65.574" r="3.232"/>
			<linearGradient id="SVGID_43_" gradientUnits="userSpaceOnUse" x1="6.6797" y1="74.5098" x2="13.1436" y2="74.5098">
				<stop  offset="0" style="stop-color:#FF1F00"/>
				<stop  offset="1" style="stop-color:#FF9D00"/>
			</linearGradient>
			<circle fill="url(#SVGID_43_)" cx="9.912" cy="74.51" r="3.232"/>
			<linearGradient id="SVGID_44_" gradientUnits="userSpaceOnUse" x1="6.6797" y1="83.4453" x2="13.1436" y2="83.4453">
				<stop  offset="0" style="stop-color:#FF1F00"/>
				<stop  offset="1" style="stop-color:#FF9D00"/>
			</linearGradient>
			<circle fill="url(#SVGID_44_)" cx="9.912" cy="83.445" r="3.232"/>
			<linearGradient id="SVGID_45_" gradientUnits="userSpaceOnUse" x1="8.6797" y1="93.3809" x2="15.1436" y2="93.3809">
				<stop  offset="0" style="stop-color:#FF1F00"/>
				<stop  offset="1" style="stop-color:#FF9D00"/>
			</linearGradient>
			<circle fill="url(#SVGID_45_)" cx="11.912" cy="93.381" r="3.232"/>
		</g>
	</g>
</g>
</svg>
