<?xml version="1.0" encoding="utf-8"?>
<!-- Generator: Adobe Illustrator 13.0.0, SVG Export Plug-In . SVG Version: 6.00 Build 14948)  -->
<!DOCTYPE svg PUBLIC "-//W3C//DTD SVG 1.1//EN" "http://www.w3.org/Graphics/SVG/1.1/DTD/svg11.dtd">
<svg version="1.1" id="Layer_1" xmlns="http://www.w3.org/2000/svg" xmlns:xlink="http://www.w3.org/1999/xlink" x="0px" y="0px"
	 width="128px" height="128px" viewBox="0 0 128 128" enable-background="new 0 0 128 128" xml:space="preserve">
<g>
	<path fill="#BFBFBF" d="M81.404,69.014c-0.021,1.479-0.436,2.971-1.293,4.305l-28.75,44.811c-0.845,1.318-2.011,2.311-3.328,2.948
		l0.141,0.839c1.538-0.693,2.902-1.818,3.881-3.342l28.752-44.809c0.974-1.519,1.426-3.222,1.422-4.904L81.404,69.014z"/>
	<g>
		<path fill="#F2F2F2" d="M8.276,68.361c1.476-0.918,3.22-1.452,5.085-1.452h62.68c1.846,0,3.572,0.522,5.039,1.422l0.74-0.671
			c-1.666-1.084-3.646-1.723-5.779-1.723h-62.68c-2.125,0-4.099,0.633-5.76,1.709L8.276,68.361z"/>
		
			<radialGradient id="SVGID_1_" cx="-244.6367" cy="56.6494" r="36.33" gradientTransform="matrix(1 0 0 -1 289.2754 151.834)" gradientUnits="userSpaceOnUse">
			<stop  offset="0" style="stop-color:#FAFAFA"/>
			<stop  offset="0.3629" style="stop-color:#E5E5E5"/>
			<stop  offset="1" style="stop-color:#C4C4C4"/>
		</radialGradient>
		<path fill="url(#SVGID_1_)" stroke="#808080" d="M36.19,120.922L6.643,77.234c-4.569-7.545-2.588-13.721,4.397-13.721h67.497
			c6.984,0,8.658,5.771,3.718,12.823L53.48,121.818C48.541,128.872,40.761,128.467,36.19,120.922L36.19,120.922z"/>
		
			<radialGradient id="SVGID_2_" cx="-243.8491" cy="121.7168" r="28.1804" gradientTransform="matrix(1 0 0 -1 289.2754 151.834)" gradientUnits="userSpaceOnUse">
			<stop  offset="0" style="stop-color:#FAFAFA"/>
			<stop  offset="0.4142" style="stop-color:#E3E3E3"/>
			<stop  offset="1" style="stop-color:#C7C7C7"/>
		</radialGradient>
		<path fill="url(#SVGID_2_)" stroke="#808080" d="M17.255,30.117c0-15.569,12.613-28.19,28.173-28.19
			c15.559,0,28.169,12.621,28.169,28.19c0,15.57-12.611,28.19-28.169,28.19C29.868,58.308,17.255,45.688,17.255,30.117
			L17.255,30.117z"/>
		
			<linearGradient id="SVGID_3_" gradientUnits="userSpaceOnUse" x1="-231.1235" y1="136.0508" x2="-231.1235" y2="121.3604" gradientTransform="matrix(1 0 0 -1 289.2754 151.834)">
			<stop  offset="0" style="stop-color:#80C11B"/>
			<stop  offset="1" style="stop-color:#80E21B"/>
		</linearGradient>
		<path fill="url(#SVGID_3_)" d="M50.811,23.13c0-4.059,3.285-7.346,7.342-7.346c4.052,0,7.34,3.287,7.34,7.346
			c0,4.058-3.288,7.344-7.34,7.344C54.096,30.474,50.811,27.188,50.811,23.13L50.811,23.13z"/>
		<path opacity="0.5" fill="#FFFFFF" enable-background="new    " d="M58.141,22.956c2.021,1.688,4.758,0.762,6.46-0.12
			c-0.252-3.4-3.084-6.079-6.546-6.079c-3.474,0-6.317,2.7-6.546,6.119C53.084,22.104,55.967,21.136,58.141,22.956z"/>
		<path fill="#F2F2F2" d="M24.971,15.519C29.676,9.061,38.324,4.11,46.409,4.11s16.515,4.95,21.218,11.408h0.895
			C63.535,7.917,55.444,2.942,46.3,2.942c-9.146,0-17.238,4.975-22.225,12.576L24.971,15.519L24.971,15.519z"/>
		
			<linearGradient id="SVGID_4_" gradientUnits="userSpaceOnUse" x1="-243.6973" y1="98.9277" x2="-243.6973" y2="111.5" gradientTransform="matrix(1 0 0 -1 289.2754 151.834)">
			<stop  offset="0" style="stop-color:#00B2DE"/>
			<stop  offset="1" style="stop-color:#99DBF6"/>
		</linearGradient>
		<path fill="url(#SVGID_4_)" d="M66.909,40.333c-4.707,6.459-13.355,11.405-21.443,11.405c-8.085,0-16.512-4.946-21.217-11.405
			h-0.894c4.985,7.603,13.077,12.573,22.222,12.573c9.146,0,17.237-4.971,22.224-12.573H66.909z"/>
		<path opacity="0.5" fill="#FFFFFF" enable-background="new    " d="M13.865,85.307c8.379-6.613,18.95-10.572,30.456-10.572
			c11.333,0,21.76,3.842,30.076,10.279l5.065-7.998c4.614-6.591,3.052-11.979-3.476-11.979H12.931c-6.53,0-8.377,5.769-4.108,12.815
			L13.865,85.307z"/>
	</g>
	<g>
		
			<linearGradient id="SVGID_5_" gradientUnits="userSpaceOnUse" x1="-174.2974" y1="-146.7168" x2="-168.1924" y2="-191.5844" gradientTransform="matrix(0.8963 0.4435 0.4435 -0.8963 307.7168 16.032)">
			<stop  offset="0" style="stop-color:#5F5D5C"/>
			<stop  offset="1" style="stop-color:#181500"/>
		</linearGradient>
		<path fill="url(#SVGID_5_)" d="M123.664,109.945c2.873-8.816,0.084-18.1-6.354-23.932l-0.062-0.053
			c-3.902-3.383-9.234-7.163-16.413-10.714c-4.177-2.067-8.983-4.063-14.505-5.856c-15.484-5.061-27.646-5.598-35.365-4.68
			c-7.343,1.064-13.84,5.573-17.227,12.398c-0.474,0.959-0.893,1.984-1.239,3.065c-3.539,10.859,1.539,22.478,11.523,27.416
			c0.97,0.479,1.98,0.896,3.023,1.236c8.539,2.786,17.512,0.264,23.367-5.744c2.583-0.117,4.562,0.271,6.21,1.088
			c1.051,0.522,2.017,1.231,2.968,2.245c1.131,7.131,5.62,13.495,12.354,16.831c0.971,0.481,1.978,0.894,3.018,1.237
			c10.909,3.555,22.521-1.53,27.467-11.514C122.9,112,123.32,110.984,123.664,109.945z"/>
		<g>
			
				<linearGradient id="SVGID_6_" gradientUnits="userSpaceOnUse" x1="-174.0938" y1="-146.8691" x2="-170.7104" y2="-172.4171" gradientTransform="matrix(0.8963 0.4435 0.4435 -0.8963 307.7168 16.032)">
				<stop  offset="0" style="stop-color:#6D6F71"/>
				<stop  offset="1" style="stop-color:#939598"/>
			</linearGradient>
			<path fill="url(#SVGID_6_)" d="M34.601,77.531c3.169-6.399,9.345-10.84,16.522-11.881l0,0c5.688-0.674,17.795-0.949,34.904,4.649
				l0,0c5.107,1.655,9.945,3.608,14.381,5.802l0,0c6.188,3.064,11.646,6.615,16.227,10.601l0,0
				c6.396,5.78,8.779,14.776,6.114,22.944l0,0c-0.166,0.504,3.537-12.59-7.381-21.521l0,0c-4.427-3.841-9.743-7.312-15.81-10.313
				l0,0c-4.341-2.148-9.093-4.062-14.127-5.693l0,0c-16.838-5.506-28.645-5.208-34.061-4.566l0,0
				C38.539,68.854,34.366,78.007,34.601,77.531L34.601,77.531z"/>
		</g>
		
			<linearGradient id="SVGID_7_" gradientUnits="userSpaceOnUse" x1="-169.9775" y1="-177.7236" x2="-174.3173" y2="-149.8072" gradientTransform="matrix(0.8963 0.4435 0.4435 -0.8963 307.7168 16.032)">
			<stop  offset="0" style="stop-color:#5F5D5C"/>
			<stop  offset="1" style="stop-color:#181500"/>
		</linearGradient>
		<path fill="url(#SVGID_7_)" d="M45.719,104.163c-8.354-4.136-12.474-13.937-9.578-22.802c0.277-0.887,0.623-1.733,1.028-2.555
			c2.755-5.551,8.118-9.412,14.347-10.313c5.357-0.634,16.986-0.899,33.625,4.534c4.992,1.623,9.698,3.521,13.998,5.65
			c5.976,2.957,11.228,6.379,15.604,10.176c5.526,5,7.598,12.813,5.28,19.906c-0.293,0.869-0.639,1.729-1.027,2.514
			c-4.137,8.355-13.959,12.479-22.85,9.58c-0.83-0.278-1.684-0.631-2.502-1.035c-5.478-2.709-9.314-7.943-10.273-14l-0.186-1.157
			l-0.805-0.86c-1.225-1.307-2.549-2.3-4.049-3.055c-2.309-1.143-4.952-1.626-8.091-1.48l-1.513,0.062l-1.057,1.09
			c-5.074,5.199-12.521,7.034-19.446,4.771C47.376,104.913,46.534,104.564,45.719,104.163L45.719,104.163z"/>
		
			<linearGradient id="SVGID_8_" gradientUnits="userSpaceOnUse" x1="-96.585" y1="156.2754" x2="-68.7192" y2="156.2754" gradientTransform="matrix(0.9499 0.3126 0.3126 -0.9499 133.0093 276.8819)">
			<stop  offset="0" style="stop-color:#808285"/>
			<stop  offset="1" style="stop-color:#BCBEC0"/>
		</linearGradient>
		<path fill="url(#SVGID_8_)" d="M97.172,115.083c-6.882-3.405-9.715-11.78-6.308-18.664c3.405-6.883,11.782-9.711,18.665-6.308
			c6.882,3.406,9.714,11.783,6.31,18.664C112.434,115.661,104.057,118.49,97.172,115.083L97.172,115.083z"/>
		
			<radialGradient id="SVGID_9_" cx="-144.7739" cy="-168.2178" r="12.0183" gradientTransform="matrix(0.8963 0.4435 0.4435 -0.8963 307.7168 16.032)" gradientUnits="userSpaceOnUse">
			<stop  offset="0" style="stop-color:#FAFAFA"/>
			<stop  offset="0.3629" style="stop-color:#E5E5E5"/>
			<stop  offset="1" style="stop-color:#C4C4C4"/>
		</radialGradient>
		<path fill="url(#SVGID_9_)" d="M114.123,107.93c-2.947,5.948-10.154,8.383-16.104,5.439c-5.951-2.944-8.388-10.152-5.44-16.104
			c2.942-5.949,10.151-8.383,16.099-5.44C114.631,94.771,117.066,101.977,114.123,107.93z"/>
		
			<linearGradient id="SVGID_10_" gradientUnits="userSpaceOnUse" x1="-146.0371" y1="-159.3555" x2="-143.5996" y2="-176.5187" gradientTransform="matrix(0.8963 0.4435 0.4435 -0.8963 307.7168 16.032)">
			<stop  offset="0" style="stop-color:#80E21B"/>
			<stop  offset="1" style="stop-color:#80B400"/>
		</linearGradient>
		<path fill="url(#SVGID_10_)" d="M111.854,105.379c0.488-1.488-0.322-3.088-1.813-3.572l-3.117-1.019l1.021-3.127
			c0.484-1.488-0.322-3.086-1.814-3.573c-1.486-0.484-3.089,0.327-3.574,1.812l-1.021,3.125l-3.119-1.02
			c-1.487-0.49-3.088,0.326-3.576,1.812c-0.438,1.354,0.193,2.801,1.433,3.418c0.123,0.061,0.248,0.111,0.381,0.158l3.123,1.018
			l-1.023,3.123c-0.439,1.354,0.189,2.803,1.439,3.42c0.117,0.057,0.246,0.111,0.379,0.152c1.488,0.486,3.088-0.326,3.574-1.813
			l1.019-3.12l3.121,1.018C109.77,107.68,111.369,106.865,111.854,105.379z"/>
		
			<linearGradient id="SVGID_11_" gradientUnits="userSpaceOnUse" x1="-148.8574" y1="156.2051" x2="-120.9893" y2="156.2051" gradientTransform="matrix(0.9499 0.3126 0.3126 -0.9499 133.0093 276.8819)">
			<stop  offset="0" style="stop-color:#808285"/>
			<stop  offset="1" style="stop-color:#BCBEC0"/>
		</linearGradient>
		<path fill="url(#SVGID_11_)" d="M47.495,98.811c-6.88-3.404-9.713-11.783-6.305-18.668c3.402-6.879,11.781-9.711,18.663-6.306
			c6.885,3.406,9.717,11.785,6.312,18.666C62.759,99.387,54.382,102.217,47.495,98.811L47.495,98.811z"/>
		
			<radialGradient id="SVGID_12_" cx="-196.5146" cy="-175.6611" r="12.0193" gradientTransform="matrix(0.8963 0.4435 0.4435 -0.8963 307.7168 16.032)" gradientUnits="userSpaceOnUse">
			<stop  offset="0" style="stop-color:#FAFAFA"/>
			<stop  offset="0.3629" style="stop-color:#E5E5E5"/>
			<stop  offset="1" style="stop-color:#C4C4C4"/>
		</radialGradient>
		<path fill="url(#SVGID_12_)" d="M64.449,91.652c-2.944,5.951-10.154,8.386-16.104,5.441C42.4,94.15,39.958,86.941,42.902,80.99
			c2.944-5.947,10.156-8.381,16.103-5.439C64.955,78.497,67.395,85.706,64.449,91.652z"/>
		<g>
			
				<linearGradient id="SVGID_13_" gradientUnits="userSpaceOnUse" x1="-205.208" y1="-173.2959" x2="-199.0474" y2="-173.2959" gradientTransform="matrix(0.8963 0.4435 0.4435 -0.8963 307.7168 16.032)">
				<stop  offset="0" style="stop-color:#00B2DE"/>
				<stop  offset="1" style="stop-color:#99DBF6"/>
			</linearGradient>
			<path fill="url(#SVGID_13_)" d="M48.736,84.643c1.619,0.528,3.357-0.354,3.885-1.975c0.53-1.619-0.353-3.354-1.971-3.884
				c-1.621-0.529-3.356,0.353-3.886,1.974C46.235,82.372,47.116,84.113,48.736,84.643z"/>
			
				<linearGradient id="SVGID_14_" gradientUnits="userSpaceOnUse" x1="-142.3623" y1="151.4707" x2="-136.2041" y2="151.4707" gradientTransform="matrix(0.9499 0.3126 0.3126 -0.9499 133.0093 276.8819)">
				<stop  offset="0" style="stop-color:#F39600"/>
				<stop  offset="1" style="stop-color:#FFBF00"/>
			</linearGradient>
			<path fill="url(#SVGID_14_)" d="M49.013,86.527c-1.618-0.53-3.359,0.354-3.883,1.972c-0.529,1.619,0.352,3.356,1.971,3.892
				c1.619,0.524,3.356-0.359,3.882-1.978C51.513,88.798,50.633,87.055,49.013,86.527z"/>
			
				<linearGradient id="SVGID_15_" gradientUnits="userSpaceOnUse" x1="-196.0288" y1="-170.7422" x2="-189.8657" y2="-170.7422" gradientTransform="matrix(0.8963 0.4435 0.4435 -0.8963 307.7168 16.032)">
				<stop  offset="0" style="stop-color:#FF1F00"/>
				<stop  offset="1" style="stop-color:#FF9D00"/>
			</linearGradient>
			<path fill="url(#SVGID_15_)" d="M58.095,86.423c1.619,0.527,3.354-0.353,3.888-1.968c0.524-1.62-0.356-3.359-1.977-3.891
				c-1.614-0.526-3.354,0.356-3.881,1.976C55.593,84.156,56.477,85.896,58.095,86.423z"/>
			
				<linearGradient id="SVGID_16_" gradientUnits="userSpaceOnUse" x1="-194.0625" y1="-178.4092" x2="-187.9023" y2="-178.4092" gradientTransform="matrix(0.8963 0.4435 0.4435 -0.8963 307.7168 16.032)">
				<stop  offset="0" style="stop-color:#80E21B"/>
				<stop  offset="1" style="stop-color:#80B400"/>
			</linearGradient>
			<path fill="url(#SVGID_16_)" d="M60.342,92.197c0.529-1.619-0.353-3.356-1.971-3.889c-1.618-0.527-3.355,0.356-3.886,1.979
				c-0.531,1.613,0.354,3.352,1.974,3.882C58.075,94.697,59.811,93.812,60.342,92.197z"/>
		</g>
	</g>
</g>
</svg>
