<?xml version="1.0" encoding="utf-8"?>
<!-- Generator: Adobe Illustrator 13.0.0, SVG Export Plug-In . SVG Version: 6.00 Build 14948)  -->
<!DOCTYPE svg PUBLIC "-//W3C//DTD SVG 1.1//EN" "http://www.w3.org/Graphics/SVG/1.1/DTD/svg11.dtd">
<svg version="1.1" id="Layer_1" xmlns="http://www.w3.org/2000/svg" xmlns:xlink="http://www.w3.org/1999/xlink" x="0px" y="0px"
	 width="128px" height="128px" viewBox="0 0 128 128" enable-background="new 0 0 128 128" xml:space="preserve">
<g>
	<g>
		<radialGradient id="SVGID_1_" cx="63.9746" cy="64.001" r="62.0552" gradientUnits="userSpaceOnUse">
			<stop  offset="0" style="stop-color:#FAFAFA"/>
			<stop  offset="0.3109" style="stop-color:#F4F4F4"/>
			<stop  offset="0.7262" style="stop-color:#E3E3E3"/>
			<stop  offset="1" style="stop-color:#D4D4D4"/>
		</radialGradient>
		<path fill="url(#SVGID_1_)" stroke="#B3B3B3" stroke-width="2" d="M18.855,1.924l90.232,0.006c9.342,0,16.914,7.578,16.914,16.927
			l0.006,90.293c0,9.35-7.574,16.928-16.916,16.928l-90.232-0.004c-9.342,0-16.916-7.58-16.916-16.928L1.941,18.851
			C1.939,9.503,9.514,1.924,18.855,1.924L18.855,1.924z"/>
		<path fill="#B3B3B3" d="M109.119,120.9l-90.371-0.004c-8.541,0-15.588-6.334-16.754-14.562v2.416
			c0,9.348,7.574,16.926,16.916,16.926l90.234,0.006c9.34,0,16.914-7.578,16.914-16.926v-4.803
			C126.055,113.312,118.471,120.9,109.119,120.9z"/>
		<path fill="#FFFFFF" d="M21.896,10.787l84.33,0.004c7.971,0,14.545,5.911,15.631,13.588v-2.254
			c0-8.724-7.066-15.795-15.783-15.795L21.877,6.325c-8.719,0-15.785,7.073-15.785,15.796v4.48
			C6.094,17.868,13.17,10.787,21.896,10.787z"/>
	</g>
	<g>
		
			<linearGradient id="SVGID_2_" gradientUnits="userSpaceOnUse" x1="-290.1143" y1="900.1621" x2="-331.2246" y2="871.3763" gradientTransform="matrix(1 0 0 1 412.6201 -813.9912)">
			<stop  offset="0" style="stop-color:#C51015"/>
			<stop  offset="1" style="stop-color:#E20A16"/>
		</linearGradient>
		<path fill="url(#SVGID_2_)" d="M94.664,40.737c0-4.023,3.262-7.287,7.287-7.287l0,0c4.025,0,7.289,3.264,7.289,7.287v62.082
			c0,4.025-3.264,7.287-7.289,7.287l0,0c-4.025,0-7.287-3.262-7.287-7.287V40.737z"/>
		
			<linearGradient id="SVGID_3_" gradientUnits="userSpaceOnUse" x1="-349.9868" y1="919.9414" x2="-391.2348" y2="891.0593" gradientTransform="matrix(1 0 0 1 412.6201 -813.9912)">
			<stop  offset="0" style="stop-color:#80C11B"/>
			<stop  offset="1" style="stop-color:#80E21B"/>
		</linearGradient>
		<path fill="url(#SVGID_3_)" d="M18.76,84.459c0-6.381,5.174-11.551,11.551-11.551h23.396c6.379,0,11.551,5.17,11.551,11.551
			v14.098c0,6.381-5.172,11.551-11.551,11.551H30.311c-6.377,0-11.551-5.17-11.551-11.551V84.459z"/>
		
			<linearGradient id="SVGID_4_" gradientUnits="userSpaceOnUse" x1="-317.9785" y1="908.3652" x2="-347.3401" y2="887.8062" gradientTransform="matrix(1 0 0 1 412.6201 -813.9912)">
			<stop  offset="0" style="stop-color:#FF1F00"/>
			<stop  offset="1" style="stop-color:#FF9D00"/>
		</linearGradient>
		<path fill="url(#SVGID_4_)" d="M72.924,65.117c0-3.886,3.15-7.038,7.035-7.038l0,0c3.889,0,7.039,3.151,7.039,7.038v37.953
			c0,3.887-3.15,7.035-7.039,7.035l0,0c-3.885,0-7.035-3.148-7.035-7.035V65.117z"/>
	</g>
</g>
</svg>
