<?xml version="1.0" encoding="utf-8"?>
<!-- Generator: Adobe Illustrator 13.0.0, SVG Export Plug-In . SVG Version: 6.00 Build 14948)  -->
<!DOCTYPE svg PUBLIC "-//W3C//DTD SVG 1.1//EN" "http://www.w3.org/Graphics/SVG/1.1/DTD/svg11.dtd">
<svg version="1.1" id="Layer_1" xmlns="http://www.w3.org/2000/svg" xmlns:xlink="http://www.w3.org/1999/xlink" x="0px" y="0px"
	 width="128px" height="128px" viewBox="0 0 128 128" enable-background="new 0 0 128 128" xml:space="preserve">
<g>
	
		<linearGradient id="SVGID_1_" gradientUnits="userSpaceOnUse" x1="-286.5669" y1="925.084" x2="-424.294" y2="828.6464" gradientTransform="matrix(1 0 0 1 412.6201 -813.9912)">
		<stop  offset="0" style="stop-color:#181500"/>
		<stop  offset="1" style="stop-color:#5F5D5C"/>
	</linearGradient>
	<path fill="url(#SVGID_1_)" d="M109.503,17.041H18.501c-9.342,0-16.914,7.571-16.914,16.91v67.379
		c0,9.342,7.572,16.914,16.914,16.914h91.002c9.339,0,16.91-7.572,16.91-16.914V33.952
		C126.413,24.614,118.842,17.041,109.503,17.041z"/>
	<g>
		<g>
			<g>
				<defs>
					<path id="SVGID_2_" d="M100.37,27.198H27.632c-7.467,0-13.519,6.053-13.519,13.516V94.57c0,7.467,6.052,13.518,13.519,13.518
						h72.738c7.465,0,13.517-6.051,13.517-13.518V40.713C113.887,33.25,107.835,27.198,100.37,27.198z"/>
				</defs>
				<clipPath id="SVGID_3_">
					<use xlink:href="#SVGID_2_"  overflow="visible"/>
				</clipPath>
				<g clip-path="url(#SVGID_3_)">
					
						<linearGradient id="SVGID_4_" gradientUnits="userSpaceOnUse" x1="-299.0225" y1="916.3633" x2="-409.1066" y2="839.2815" gradientTransform="matrix(1 0 0 1 412.6201 -813.9912)">
						<stop  offset="0" style="stop-color:#00B2DE"/>
						<stop  offset="1" style="stop-color:#99DBF6"/>
					</linearGradient>
					<path fill="url(#SVGID_4_)" stroke="#000000" d="M100.37,27.198H27.632c-7.467,0-13.519,6.053-13.519,13.516V94.57
						c0,7.467,6.052,13.518,13.519,13.518h72.738c7.465,0,13.517-6.051,13.517-13.518V40.713
						C113.887,33.25,107.835,27.198,100.37,27.198z"/>
					<circle fill="#F0C818" cx="77.381" cy="78.182" r="8.855"/>
					<path fill="#45731B" d="M53.699,101.768c0,0,20.515-31.852,62.574-34.639v42.639H53.699l-0.008-7.383L53.699,101.768z"/>
					
						<linearGradient id="SVGID_5_" gradientUnits="userSpaceOnUse" x1="-401.125" y1="904.4473" x2="-321.6475" y2="904.4473" gradientTransform="matrix(1 0 0 1 412.6201 -813.9912)">
						<stop  offset="0" style="stop-color:#80C342"/>
						<stop  offset="1" style="stop-color:#A6CE39"/>
					</linearGradient>
					<path fill="url(#SVGID_5_)" d="M11.495,85.184c0,0,16.138-18.514,45.188-13.024c29.051,5.483,34.289,37.608,34.289,37.608
						H11.495V85.184z"/>
					<g>
						<path fill="#FFFFFF" d="M47.921,44.315c0,0,0.257-1.178-0.856-1.629c-1.115-0.447-2.029,0.729-2.029,0.729
							s1.312-2.682-1.422-3.336c-2.736-0.656-3.447,2.24-3.447,2.24s0.109-3.992-2.791-3.338c-2.145,0.486-3.898,1.932-4.004,3.4
							c-0.24-0.252-0.584-0.426-1.048-0.408c-1.021,0.035-1.349,0.729-1.349,0.729s-0.293-2.406-1.533-0.983
							c-1.24,1.422,0.291,2.151,0.291,2.151s-1.494,1.86,0.768,2.881s3.246-0.399,3.246-0.399c1.203,1.239,2.48,1.496,4.268,1.131
							c1.788-0.364,2.59-1.387,2.59-1.387c2.078,2.043,4.597-0.363,4.597-0.363c0.839,1.021,2.479-0.221,2.479-0.221
							c0.838,0.948,2.215,0.776,2.236-0.466C49.936,43.804,47.921,44.315,47.921,44.315z"/>
						<path fill="#E6E6E6" d="M49.732,45.647c0,0-1.43,0.188-1.834-0.809c0,0-1.771,1.307-2.207-0.062
							c-0.03,0.125-0.03,0.125-0.03,0.125s-4.228,1.646-5.004-0.344c0,0-4.041,3.731-6.218,0.375c0,0-3.231,2.828-5.16,0.435
							c-0.008-0.011-0.016-0.019-0.022-0.029c0.054,0.494,0.362,1.019,1.242,1.414c2.262,1.021,3.246-0.399,3.246-0.399
							c1.203,1.239,2.479,1.496,4.269,1.131c1.787-0.364,2.59-1.387,2.59-1.387c2.078,2.043,4.596-0.363,4.596-0.363
							c0.839,1.021,2.48-0.221,2.48-0.221c0.668,0.758,1.678,0.801,2.07,0.155L49.732,45.647z"/>
					</g>
					<g>
						<path fill="#FFFFFF" d="M73.957,58.418c0,0,0.136-0.621-0.452-0.858c-0.587-0.236-1.069,0.385-1.069,0.385
							s0.692-1.411-0.748-1.76c-1.442-0.347-1.817,1.183-1.817,1.183s0.06-2.104-1.472-1.759c-1.131,0.256-2.056,1.017-2.109,1.791
							c-0.126-0.133-0.309-0.226-0.553-0.215c-0.538,0.019-0.711,0.385-0.711,0.385s-0.153-1.271-0.81-0.521
							c-0.653,0.748,0.154,1.134,0.154,1.134s-0.789,0.981,0.403,1.521c1.19,0.539,1.711-0.211,1.711-0.211
							c0.635,0.653,1.308,0.788,2.25,0.596c0.94-0.19,1.365-0.729,1.365-0.729c1.096,1.074,2.422-0.191,2.422-0.191
							c0.44,0.537,1.308-0.117,1.308-0.117c0.442,0.5,1.168,0.41,1.18-0.244C75.02,58.147,73.957,58.418,73.957,58.418z"/>
						<path fill="#E6E6E6" d="M74.913,59.12c0,0-0.754,0.1-0.968-0.428c0,0-0.935,0.689-1.163-0.031
							c-0.017,0.064-0.017,0.064-0.017,0.064s-2.229,0.867-2.64-0.182c0,0-2.129,1.967-3.274,0.197c0,0-1.705,1.488-2.722,0.229
							c-0.004-0.004-0.008-0.01-0.012-0.014c0.026,0.26,0.188,0.535,0.653,0.744c1.19,0.539,1.711-0.211,1.711-0.211
							c0.635,0.652,1.308,0.787,2.248,0.596c0.942-0.191,1.365-0.729,1.365-0.729c1.096,1.074,2.424-0.192,2.424-0.192
							c0.44,0.537,1.308-0.117,1.308-0.117c0.354,0.399,0.885,0.423,1.092,0.084L74.913,59.12z"/>
					</g>
				</g>
			</g>
		</g>
	</g>
	<path fill="none" stroke="#000000" d="M100.354,27.214H27.646c-7.463,0-13.514,6.051-13.514,13.512v53.833
		c0,7.463,6.051,13.512,13.514,13.512h72.707c7.463,0,13.514-6.049,13.514-13.512V40.726
		C113.866,33.265,107.816,27.214,100.354,27.214z"/>
	<path opacity="0.5" fill="#FFFFFF" d="M108.731,19.718H19.268c-8.551,0-15.481,6.642-15.481,14.832v35.816
		c12.19,3.319,25.871,5.183,40.324,5.183c34.195,0,64.045-10.427,80.104-25.929V34.55C124.214,26.359,117.284,19.718,108.731,19.718
		z"/>
</g>
</svg>
