<?xml version="1.0" encoding="utf-8"?>
<!-- Generator: Adobe Illustrator 13.0.0, SVG Export Plug-In . SVG Version: 6.00 Build 14948)  -->
<!DOCTYPE svg PUBLIC "-//W3C//DTD SVG 1.1//EN" "http://www.w3.org/Graphics/SVG/1.1/DTD/svg11.dtd">
<svg version="1.1" id="Layer_1" xmlns="http://www.w3.org/2000/svg" xmlns:xlink="http://www.w3.org/1999/xlink" x="0px" y="0px"
	 width="128px" height="128px" viewBox="0 0 128 128" enable-background="new 0 0 128 128" xml:space="preserve">
<g>
	<g>
		
			<linearGradient id="SVGID_1_" gradientUnits="userSpaceOnUse" x1="36.4272" y1="3.8838" x2="36.4272" y2="89.6343" gradientTransform="matrix(1 0 0 1 0 -9.765625e-04)">
			<stop  offset="0" style="stop-color:#80E21B"/>
			<stop  offset="1" style="stop-color:#80B400"/>
		</linearGradient>
		<path fill="url(#SVGID_1_)" d="M68.137,17.099v59.317c0,7.299-5.922,13.217-13.226,13.217H17.943
			c-7.306,0-13.226-5.918-13.226-13.217V17.099c0-7.299,5.92-13.216,13.226-13.216h36.968C62.215,3.883,68.137,9.8,68.137,17.099
			L68.137,17.099z"/>
		<path opacity="0.5" fill="#FFFFFF" d="M53.606,6.884H19.194c-6.801,0-12.312,5.508-12.312,12.303v3.412
			c0-6.795,5.511-12.303,12.312-12.303h34.412c6.799,0,12.312,5.508,12.312,12.303v-3.412C65.918,12.392,60.405,6.884,53.606,6.884z
			"/>
		<path fill="#70993E" d="M55.05,87.982H18.081c-7.306,0-13.226-5.919-13.226-13.218v1.651c0,7.299,5.92,13.217,13.226,13.217H55.05
			c7.304,0,13.226-5.918,13.226-13.217v-1.651C68.275,82.063,62.354,87.982,55.05,87.982z"/>
		<g>
			
				<radialGradient id="SVGID_2_" cx="-376.1235" cy="857.1562" r="9.4218" gradientTransform="matrix(1 0 0 1 412.6201 -813.9912)" gradientUnits="userSpaceOnUse">
				<stop  offset="0" style="stop-color:#FAFAFA"/>
				<stop  offset="0.3109" style="stop-color:#F4F4F4"/>
				<stop  offset="0.7262" style="stop-color:#E3E3E3"/>
				<stop  offset="1" style="stop-color:#D4D4D4"/>
			</radialGradient>
			<path fill="url(#SVGID_2_)" d="M49.053,43.162c0,2.467-1.996,4.462-4.458,4.462H28.4c-2.462,0-4.46-1.995-4.46-4.462l0,0
				c0-2.46,1.998-4.457,4.46-4.457h16.194C47.059,38.705,49.053,40.702,49.053,43.162L49.053,43.162z"/>
			
				<radialGradient id="SVGID_3_" cx="969.3613" cy="1493.4541" r="4.1563" gradientTransform="matrix(2.267 0 0 2.2669 -2161.0483 -3356.7397)" gradientUnits="userSpaceOnUse">
				<stop  offset="0" style="stop-color:#FAFAFA"/>
				<stop  offset="0.3109" style="stop-color:#F4F4F4"/>
				<stop  offset="0.7262" style="stop-color:#E3E3E3"/>
				<stop  offset="1" style="stop-color:#D4D4D4"/>
			</radialGradient>
			<path fill="url(#SVGID_3_)" d="M49.053,28.769c0,2.463-1.996,4.461-4.46,4.461H28.397c-2.459,0-4.457-1.998-4.457-4.461l0,0
				c0-2.461,1.998-4.457,4.457-4.457h16.195C47.059,24.312,49.053,26.308,49.053,28.769L49.053,28.769z"/>
			
				<radialGradient id="SVGID_4_" cx="969.3613" cy="1506.1523" r="4.1563" gradientTransform="matrix(2.267 0 0 2.2669 -2161.0483 -3356.7397)" gradientUnits="userSpaceOnUse">
				<stop  offset="0" style="stop-color:#FAFAFA"/>
				<stop  offset="0.3109" style="stop-color:#F4F4F4"/>
				<stop  offset="0.7262" style="stop-color:#E3E3E3"/>
				<stop  offset="1" style="stop-color:#D4D4D4"/>
			</radialGradient>
			<path fill="url(#SVGID_4_)" d="M49.053,57.558c0,2.463-1.996,4.457-4.458,4.457H28.4c-2.462,0-4.46-1.994-4.46-4.457l0,0
				c0-2.463,1.998-4.459,4.46-4.459h16.194C47.059,53.099,49.053,55.095,49.053,57.558L49.053,57.558z"/>
			
				<radialGradient id="SVGID_5_" cx="969.3613" cy="1512.502" r="4.1563" gradientTransform="matrix(2.267 0 0 2.2669 -2161.0483 -3356.7397)" gradientUnits="userSpaceOnUse">
				<stop  offset="0" style="stop-color:#FAFAFA"/>
				<stop  offset="0.3109" style="stop-color:#F4F4F4"/>
				<stop  offset="0.7262" style="stop-color:#E3E3E3"/>
				<stop  offset="1" style="stop-color:#D4D4D4"/>
			</radialGradient>
			<path fill="url(#SVGID_5_)" d="M49.053,71.951c0,2.463-1.996,4.459-4.458,4.459H28.4c-2.462,0-4.46-1.996-4.46-4.459l0,0
				c0-2.463,1.998-4.461,4.46-4.461h16.194C47.059,67.49,49.053,69.488,49.053,71.951L49.053,71.951z"/>
		</g>
	</g>
	<g>
		
			<linearGradient id="SVGID_6_" gradientUnits="userSpaceOnUse" x1="-12.3145" y1="439.3145" x2="-6.2096" y2="484.1816" gradientTransform="matrix(0.8963 0.4435 -0.4435 0.8963 288.3843 -321.2917)">
			<stop  offset="0" style="stop-color:#5F5D5C"/>
			<stop  offset="1" style="stop-color:#181500"/>
		</linearGradient>
		<path fill="url(#SVGID_6_)" d="M119.749,106.718c2.873-8.816,0.084-18.1-6.354-23.932l-0.062-0.053
			c-3.902-3.383-9.234-7.162-16.412-10.713c-4.178-2.068-8.984-4.064-14.506-5.857c-15.484-5.061-27.645-5.598-35.365-4.68
			c-7.342,1.064-13.84,5.574-17.227,12.398c-0.473,0.959-0.893,1.984-1.238,3.066c-3.539,10.859,1.539,22.479,11.523,27.416
			c0.969,0.48,1.98,0.895,3.023,1.236c8.539,2.787,17.512,0.264,23.367-5.744c2.582-0.117,4.562,0.271,6.209,1.088
			c1.051,0.523,2.016,1.232,2.969,2.246c1.129,7.131,5.619,13.494,12.354,16.83c0.969,0.482,1.977,0.893,3.016,1.238
			c10.91,3.555,22.523-1.531,27.467-11.514C118.985,108.772,119.405,107.757,119.749,106.718z"/>
		<g>
			
				<linearGradient id="SVGID_7_" gradientUnits="userSpaceOnUse" x1="-12.1104" y1="439.4697" x2="-8.7271" y2="465.0172" gradientTransform="matrix(0.8963 0.4435 -0.4435 0.8963 288.3843 -321.2917)">
				<stop  offset="0" style="stop-color:#6D6F71"/>
				<stop  offset="1" style="stop-color:#939598"/>
			</linearGradient>
			<path fill="url(#SVGID_7_)" d="M30.687,74.304c3.168-6.4,9.344-10.84,16.521-11.881l0,0c5.689-0.674,17.795-0.949,34.904,4.65
				l0,0c5.109,1.654,9.947,3.607,14.381,5.801l0,0c6.188,3.064,11.646,6.615,16.227,10.6l0,0c6.396,5.781,8.779,14.777,6.115,22.945
				l0,0c-0.166,0.504,3.537-12.59-7.381-21.52l0,0c-4.428-3.842-9.744-7.312-15.809-10.314l0,0
				c-4.342-2.148-9.094-4.062-14.127-5.693l0,0c-16.838-5.506-28.645-5.209-34.061-4.568l0,0
				C34.624,65.626,30.452,74.778,30.687,74.304L30.687,74.304z"/>
		</g>
		
			<linearGradient id="SVGID_8_" gradientUnits="userSpaceOnUse" x1="-7.9951" y1="470.3242" x2="-12.3349" y2="442.4079" gradientTransform="matrix(0.8963 0.4435 -0.4435 0.8963 288.3843 -321.2917)">
			<stop  offset="0" style="stop-color:#5F5D5C"/>
			<stop  offset="1" style="stop-color:#181500"/>
		</linearGradient>
		<path fill="url(#SVGID_8_)" d="M41.804,100.935C33.45,96.8,29.331,86.999,32.226,78.134c0.277-0.887,0.623-1.734,1.029-2.555
			c2.754-5.551,8.117-9.412,14.346-10.314c5.357-0.633,16.986-0.898,33.625,4.535c4.992,1.623,9.699,3.521,13.998,5.65
			c5.975,2.957,11.227,6.379,15.605,10.176c5.525,5,7.598,12.814,5.279,19.906c-0.293,0.869-0.637,1.729-1.027,2.514
			c-4.137,8.355-13.959,12.479-22.85,9.58c-0.83-0.279-1.682-0.631-2.502-1.035c-5.477-2.709-9.314-7.943-10.273-14l-0.184-1.158
			l-0.805-0.859c-1.225-1.307-2.549-2.301-4.049-3.055c-2.309-1.143-4.953-1.627-8.092-1.482l-1.512,0.064l-1.057,1.09
			c-5.074,5.199-12.52,7.033-19.445,4.771C43.462,101.685,42.62,101.337,41.804,100.935L41.804,100.935z"/>
		
			<linearGradient id="SVGID_9_" gradientUnits="userSpaceOnUse" x1="96.1514" y1="86.1025" x2="124.0186" y2="86.1025" gradientTransform="matrix(0.9499 0.3126 -0.3126 0.9499 21.7827 -16.8312)">
			<stop  offset="0" style="stop-color:#808285"/>
			<stop  offset="1" style="stop-color:#BCBEC0"/>
		</linearGradient>
		<path fill="url(#SVGID_9_)" d="M93.257,111.854c-6.881-3.404-9.715-11.781-6.307-18.664c3.404-6.883,11.781-9.711,18.666-6.307
			c6.881,3.406,9.713,11.783,6.309,18.664C108.519,112.433,100.142,115.263,93.257,111.854L93.257,111.854z"/>
		
			<radialGradient id="SVGID_10_" cx="17.2095" cy="460.8174" r="12.0186" gradientTransform="matrix(0.8963 0.4435 -0.4435 0.8963 288.3843 -321.2917)" gradientUnits="userSpaceOnUse">
			<stop  offset="0" style="stop-color:#FAFAFA"/>
			<stop  offset="0.3629" style="stop-color:#E5E5E5"/>
			<stop  offset="1" style="stop-color:#C4C4C4"/>
		</radialGradient>
		<path fill="url(#SVGID_10_)" d="M110.208,104.7c-2.947,5.949-10.154,8.385-16.104,5.441c-5.949-2.945-8.387-10.152-5.439-16.104
			c2.943-5.949,10.152-8.383,16.098-5.441C110.716,91.542,113.151,98.747,110.208,104.7z"/>
		
			<linearGradient id="SVGID_11_" gradientUnits="userSpaceOnUse" x1="15.9448" y1="451.9541" x2="18.3823" y2="469.1169" gradientTransform="matrix(0.8963 0.4435 -0.4435 0.8963 288.3843 -321.2917)">
			<stop  offset="0" style="stop-color:#80E21B"/>
			<stop  offset="1" style="stop-color:#80B400"/>
		</linearGradient>
		<path fill="url(#SVGID_11_)" d="M107.938,102.151c0.488-1.488-0.322-3.088-1.814-3.574l-3.117-1.018l1.021-3.127
			c0.484-1.488-0.322-3.086-1.814-3.572c-1.488-0.486-3.09,0.326-3.574,1.812l-1.021,3.125l-3.119-1.02
			c-1.486-0.49-3.088,0.326-3.576,1.814c-0.439,1.354,0.193,2.799,1.434,3.416c0.121,0.061,0.248,0.111,0.381,0.158l3.123,1.018
			l-1.025,3.123c-0.439,1.355,0.191,2.803,1.439,3.42c0.119,0.057,0.248,0.111,0.379,0.152c1.488,0.486,3.088-0.326,3.576-1.812
			l1.018-3.121l3.121,1.018C105.854,104.45,107.454,103.638,107.938,102.151z"/>
		
			<linearGradient id="SVGID_12_" gradientUnits="userSpaceOnUse" x1="43.8804" y1="86.1719" x2="71.748" y2="86.1719" gradientTransform="matrix(0.9499 0.3126 -0.3126 0.9499 21.7827 -16.8312)">
			<stop  offset="0" style="stop-color:#808285"/>
			<stop  offset="1" style="stop-color:#BCBEC0"/>
		</linearGradient>
		<path fill="url(#SVGID_12_)" d="M43.581,95.581c-6.881-3.404-9.713-11.783-6.305-18.666c3.402-6.881,11.781-9.713,18.662-6.307
			c6.885,3.406,9.719,11.785,6.312,18.666C58.845,96.157,50.468,98.989,43.581,95.581L43.581,95.581z"/>
		
			<radialGradient id="SVGID_13_" cx="-34.5308" cy="468.2607" r="12.019" gradientTransform="matrix(0.8963 0.4435 -0.4435 0.8963 288.3843 -321.2917)" gradientUnits="userSpaceOnUse">
			<stop  offset="0" style="stop-color:#FAFAFA"/>
			<stop  offset="0.3629" style="stop-color:#E5E5E5"/>
			<stop  offset="1" style="stop-color:#C4C4C4"/>
		</radialGradient>
		<path fill="url(#SVGID_13_)" d="M60.534,88.425c-2.943,5.951-10.154,8.385-16.104,5.441c-5.945-2.943-8.387-10.152-5.443-16.104
			c2.945-5.947,10.156-8.381,16.104-5.439C61.04,75.269,63.479,82.478,60.534,88.425z"/>
		<g>
			
				<linearGradient id="SVGID_14_" gradientUnits="userSpaceOnUse" x1="-43.2246" y1="465.8945" x2="-37.0635" y2="465.8945" gradientTransform="matrix(0.8963 0.4435 -0.4435 0.8963 288.3843 -321.2917)">
				<stop  offset="0" style="stop-color:#00B2DE"/>
				<stop  offset="1" style="stop-color:#99DBF6"/>
			</linearGradient>
			<path fill="url(#SVGID_14_)" d="M44.821,81.413c1.619,0.529,3.357-0.354,3.885-1.973c0.531-1.619-0.352-3.355-1.971-3.885
				c-1.621-0.529-3.355,0.352-3.885,1.975C42.321,79.144,43.202,80.886,44.821,81.413z"/>
			
				<linearGradient id="SVGID_15_" gradientUnits="userSpaceOnUse" x1="50.375" y1="90.9062" x2="56.5312" y2="90.9062" gradientTransform="matrix(0.9499 0.3126 -0.3126 0.9499 21.7827 -16.8312)">
				<stop  offset="0" style="stop-color:#F39600"/>
				<stop  offset="1" style="stop-color:#FFBF00"/>
			</linearGradient>
			<path fill="url(#SVGID_15_)" d="M45.099,83.3c-1.619-0.531-3.359,0.354-3.883,1.971c-0.529,1.619,0.352,3.357,1.971,3.891
				c1.619,0.525,3.355-0.357,3.881-1.977C47.599,85.569,46.718,83.827,45.099,83.3z"/>
			
				<linearGradient id="SVGID_16_" gradientUnits="userSpaceOnUse" x1="-34.0459" y1="463.3418" x2="-27.8828" y2="463.3418" gradientTransform="matrix(0.8963 0.4435 -0.4435 0.8963 288.3843 -321.2917)">
				<stop  offset="0" style="stop-color:#FF1F00"/>
				<stop  offset="1" style="stop-color:#FF9D00"/>
			</linearGradient>
			<path fill="url(#SVGID_16_)" d="M54.181,83.194c1.619,0.527,3.354-0.352,3.887-1.967c0.525-1.621-0.355-3.361-1.977-3.891
				c-1.613-0.527-3.354,0.357-3.881,1.975C51.679,80.929,52.562,82.667,54.181,83.194z"/>
			
				<linearGradient id="SVGID_17_" gradientUnits="userSpaceOnUse" x1="-32.0776" y1="471.0078" x2="-25.9194" y2="471.0078" gradientTransform="matrix(0.8963 0.4435 -0.4435 0.8963 288.3843 -321.2917)">
				<stop  offset="0" style="stop-color:#80E21B"/>
				<stop  offset="1" style="stop-color:#80B400"/>
			</linearGradient>
			<path fill="url(#SVGID_17_)" d="M56.427,88.97c0.529-1.619-0.352-3.357-1.971-3.889c-1.617-0.527-3.355,0.357-3.885,1.979
				c-0.531,1.613,0.354,3.352,1.973,3.881C54.161,91.47,55.896,90.585,56.427,88.97z"/>
		</g>
	</g>
</g>
</svg>
