<?xml version="1.0" encoding="utf-8"?>
<!-- Generator: Adobe Illustrator 13.0.0, SVG Export Plug-In . SVG Version: 6.00 Build 14948)  -->
<!DOCTYPE svg PUBLIC "-//W3C//DTD SVG 1.1//EN" "http://www.w3.org/Graphics/SVG/1.1/DTD/svg11.dtd">
<svg version="1.1" id="Layer_1" xmlns="http://www.w3.org/2000/svg" xmlns:xlink="http://www.w3.org/1999/xlink" x="0px" y="0px"
	 width="128px" height="128px" viewBox="0 0 128 128" enable-background="new 0 0 128 128" xml:space="preserve">
<g>
	<g>
		<g>
			<linearGradient id="SVGID_1_" gradientUnits="userSpaceOnUse" x1="41.7739" y1="17.2603" x2="41.7739" y2="89.7808">
				<stop  offset="0" style="stop-color:#D5D7D8"/>
				<stop  offset="1" style="stop-color:#5C5F61"/>
			</linearGradient>
			<path fill="url(#SVGID_1_)" d="M78.831,72.333c0,9.636-7.812,17.447-17.447,17.447H22.166c-9.636,0-17.448-7.812-17.448-17.447
				V34.708c0-9.636,7.812-17.448,17.448-17.448h39.218c9.636,0,17.447,7.812,17.447,17.448V72.333z"/>
			<path opacity="0.5" fill="#FFFFFF" d="M61.858,21.685H21.832c-7.911,0-14.321,6.407-14.321,14.31v3.969
				c0-7.904,6.41-14.311,14.321-14.311h40.027c7.908,0,14.32,6.407,14.32,14.311v-3.969C76.179,28.091,69.767,21.685,61.858,21.685z
				"/>
			<linearGradient id="SVGID_2_" gradientUnits="userSpaceOnUse" x1="16.4087" y1="42.4893" x2="66.8633" y2="42.4893">
				<stop  offset="0" style="stop-color:#FF9D00"/>
				<stop  offset="1" style="stop-color:#FF1F00"/>
			</linearGradient>
			<path fill="url(#SVGID_2_)" d="M66.863,42.489c0,2.598-2.105,4.704-4.704,4.704H21.112c-2.598,0-4.704-2.106-4.704-4.704l0,0
				c0-2.598,2.106-4.704,4.704-4.704H62.16C64.758,37.785,66.863,39.891,66.863,42.489L66.863,42.489z"/>
			<linearGradient id="SVGID_3_" gradientUnits="userSpaceOnUse" x1="16.4087" y1="62.4424" x2="66.8633" y2="62.4424">
				<stop  offset="0" style="stop-color:#FFD207"/>
				<stop  offset="1" style="stop-color:#FAA61A"/>
			</linearGradient>
			<path fill="url(#SVGID_3_)" d="M66.863,62.442c0,2.598-2.105,4.704-4.704,4.704H21.112c-2.598,0-4.704-2.106-4.704-4.704l0,0
				c0-2.598,2.106-4.704,4.704-4.704H62.16C64.758,57.738,66.863,59.844,66.863,62.442L66.863,62.442z"/>
		</g>
		<path fill="#595959" d="M61.384,87.578H22.166c-9.636,0-17.448-7.812-17.448-17.448v2.203c0,9.636,7.812,17.447,17.448,17.447
			h39.218c9.636,0,17.447-7.812,17.447-17.447V70.13C78.831,79.766,71.02,87.578,61.384,87.578z"/>
	</g>
	<g>
		
			<linearGradient id="SVGID_4_" gradientUnits="userSpaceOnUse" x1="-12.0459" y1="439.1816" x2="-5.941" y2="484.0488" gradientTransform="matrix(0.8963 0.4435 -0.4435 0.8963 288.3843 -321.2917)">
			<stop  offset="0" style="stop-color:#5F5D5C"/>
			<stop  offset="1" style="stop-color:#181500"/>
		</linearGradient>
		<path fill="url(#SVGID_4_)" d="M120.048,106.718c2.873-8.816,0.084-18.1-6.354-23.932l-0.062-0.053
			c-3.902-3.383-9.234-7.162-16.412-10.713c-4.178-2.068-8.984-4.064-14.506-5.857c-15.484-5.061-27.645-5.598-35.365-4.68
			c-7.342,1.064-13.84,5.574-17.227,12.398c-0.473,0.959-0.893,1.984-1.238,3.066c-3.539,10.859,1.539,22.479,11.523,27.416
			c0.969,0.48,1.98,0.895,3.023,1.236c8.539,2.787,17.512,0.264,23.367-5.744c2.582-0.117,4.562,0.271,6.209,1.088
			c1.051,0.523,2.016,1.232,2.969,2.246c1.129,7.131,5.619,13.494,12.354,16.83c0.969,0.482,1.977,0.893,3.016,1.238
			c10.91,3.555,22.523-1.531,27.467-11.514C119.284,108.772,119.704,107.757,120.048,106.718z"/>
		<g>
			
				<linearGradient id="SVGID_5_" gradientUnits="userSpaceOnUse" x1="-11.8428" y1="439.3379" x2="-8.4596" y2="464.8843" gradientTransform="matrix(0.8963 0.4435 -0.4435 0.8963 288.3843 -321.2917)">
				<stop  offset="0" style="stop-color:#6D6F71"/>
				<stop  offset="1" style="stop-color:#939598"/>
			</linearGradient>
			<path fill="url(#SVGID_5_)" d="M30.985,74.304c3.168-6.4,9.344-10.84,16.521-11.881l0,0c5.689-0.674,17.795-0.949,34.904,4.65
				l0,0c5.109,1.654,9.947,3.607,14.381,5.801l0,0c6.188,3.064,11.646,6.615,16.227,10.6l0,0c6.396,5.781,8.779,14.777,6.115,22.945
				l0,0c-0.166,0.504,3.537-12.59-7.381-21.52l0,0c-4.428-3.842-9.744-7.312-15.809-10.314l0,0
				c-4.342-2.148-9.094-4.062-14.127-5.693l0,0c-16.838-5.506-28.645-5.209-34.061-4.568l0,0
				C34.923,65.626,30.751,74.778,30.985,74.304L30.985,74.304z"/>
		</g>
		
			<linearGradient id="SVGID_6_" gradientUnits="userSpaceOnUse" x1="-7.7271" y1="470.1924" x2="-12.0668" y2="442.2761" gradientTransform="matrix(0.8963 0.4435 -0.4435 0.8963 288.3843 -321.2917)">
			<stop  offset="0" style="stop-color:#5F5D5C"/>
			<stop  offset="1" style="stop-color:#181500"/>
		</linearGradient>
		<path fill="url(#SVGID_6_)" d="M42.103,100.935C33.749,96.8,29.63,86.999,32.524,78.134c0.277-0.887,0.623-1.734,1.029-2.555
			c2.754-5.551,8.117-9.412,14.346-10.314c5.357-0.633,16.986-0.898,33.625,4.535c4.992,1.623,9.699,3.521,13.998,5.65
			c5.975,2.957,11.227,6.379,15.605,10.176c5.525,5,7.598,12.814,5.279,19.906c-0.293,0.869-0.637,1.729-1.027,2.514
			c-4.137,8.355-13.959,12.479-22.85,9.58c-0.83-0.279-1.682-0.631-2.502-1.035c-5.477-2.709-9.314-7.943-10.273-14l-0.184-1.158
			l-0.805-0.859c-1.225-1.307-2.549-2.301-4.049-3.055c-2.309-1.143-4.953-1.627-8.092-1.482l-1.512,0.064l-1.057,1.09
			c-5.074,5.199-12.52,7.033-19.445,4.771C43.761,101.685,42.919,101.337,42.103,100.935L42.103,100.935z"/>
		
			<linearGradient id="SVGID_7_" gradientUnits="userSpaceOnUse" x1="96.4355" y1="86.0088" x2="124.3018" y2="86.0088" gradientTransform="matrix(0.9499 0.3126 -0.3126 0.9499 21.7827 -16.8312)">
			<stop  offset="0" style="stop-color:#808285"/>
			<stop  offset="1" style="stop-color:#BCBEC0"/>
		</linearGradient>
		<path fill="url(#SVGID_7_)" d="M93.556,111.854c-6.881-3.404-9.715-11.781-6.307-18.664c3.404-6.883,11.781-9.711,18.666-6.307
			c6.881,3.406,9.713,11.783,6.309,18.664C108.817,112.433,100.44,115.263,93.556,111.854L93.556,111.854z"/>
		
			<radialGradient id="SVGID_8_" cx="17.4771" cy="460.6855" r="12.0181" gradientTransform="matrix(0.8963 0.4435 -0.4435 0.8963 288.3843 -321.2917)" gradientUnits="userSpaceOnUse">
			<stop  offset="0" style="stop-color:#FAFAFA"/>
			<stop  offset="0.3629" style="stop-color:#E5E5E5"/>
			<stop  offset="1" style="stop-color:#C4C4C4"/>
		</radialGradient>
		<path fill="url(#SVGID_8_)" d="M110.507,104.7c-2.947,5.949-10.154,8.385-16.104,5.441c-5.949-2.945-8.387-10.152-5.439-16.104
			c2.943-5.949,10.152-8.383,16.098-5.441C111.015,91.542,113.45,98.747,110.507,104.7z"/>
		
			<linearGradient id="SVGID_9_" gradientUnits="userSpaceOnUse" x1="16.2129" y1="451.8223" x2="18.6503" y2="468.9851" gradientTransform="matrix(0.8963 0.4435 -0.4435 0.8963 288.3843 -321.2917)">
			<stop  offset="0" style="stop-color:#80E21B"/>
			<stop  offset="1" style="stop-color:#80B400"/>
		</linearGradient>
		<path fill="url(#SVGID_9_)" d="M108.237,102.151c0.488-1.488-0.322-3.088-1.814-3.574l-3.117-1.018l1.021-3.127
			c0.484-1.488-0.322-3.086-1.814-3.572c-1.488-0.486-3.09,0.326-3.574,1.812l-1.021,3.125l-3.119-1.02
			c-1.486-0.49-3.088,0.326-3.576,1.814c-0.439,1.354,0.193,2.799,1.434,3.416c0.121,0.061,0.248,0.111,0.381,0.158l3.123,1.018
			l-1.025,3.123c-0.439,1.355,0.191,2.803,1.439,3.42c0.119,0.057,0.248,0.111,0.379,0.152c1.488,0.486,3.088-0.326,3.576-1.812
			l1.018-3.121l3.121,1.018C106.153,104.45,107.753,103.638,108.237,102.151z"/>
		
			<linearGradient id="SVGID_10_" gradientUnits="userSpaceOnUse" x1="44.1636" y1="86.0781" x2="72.0312" y2="86.0781" gradientTransform="matrix(0.9499 0.3126 -0.3126 0.9499 21.7827 -16.8312)">
			<stop  offset="0" style="stop-color:#808285"/>
			<stop  offset="1" style="stop-color:#BCBEC0"/>
		</linearGradient>
		<path fill="url(#SVGID_10_)" d="M43.88,95.581c-6.881-3.404-9.713-11.783-6.305-18.666c3.402-6.881,11.781-9.713,18.662-6.307
			c6.885,3.406,9.719,11.785,6.312,18.666C59.144,96.157,50.767,98.989,43.88,95.581L43.88,95.581z"/>
		
			<radialGradient id="SVGID_11_" cx="-34.2627" cy="468.1289" r="12.0188" gradientTransform="matrix(0.8963 0.4435 -0.4435 0.8963 288.3843 -321.2917)" gradientUnits="userSpaceOnUse">
			<stop  offset="0" style="stop-color:#FAFAFA"/>
			<stop  offset="0.3629" style="stop-color:#E5E5E5"/>
			<stop  offset="1" style="stop-color:#C4C4C4"/>
		</radialGradient>
		<path fill="url(#SVGID_11_)" d="M60.833,88.425c-2.943,5.951-10.154,8.385-16.104,5.441c-5.945-2.943-8.387-10.152-5.443-16.104
			c2.945-5.947,10.156-8.381,16.104-5.439C61.339,75.269,63.778,82.478,60.833,88.425z"/>
		<g>
			
				<linearGradient id="SVGID_12_" gradientUnits="userSpaceOnUse" x1="-42.9565" y1="465.7617" x2="-36.7959" y2="465.7617" gradientTransform="matrix(0.8963 0.4435 -0.4435 0.8963 288.3843 -321.2917)">
				<stop  offset="0" style="stop-color:#00B2DE"/>
				<stop  offset="1" style="stop-color:#99DBF6"/>
			</linearGradient>
			<path fill="url(#SVGID_12_)" d="M45.12,81.413c1.619,0.529,3.357-0.354,3.885-1.973c0.531-1.619-0.352-3.355-1.971-3.885
				c-1.621-0.529-3.355,0.352-3.885,1.975C42.62,79.144,43.501,80.886,45.12,81.413z"/>
			
				<linearGradient id="SVGID_13_" gradientUnits="userSpaceOnUse" x1="50.6582" y1="90.8125" x2="56.8154" y2="90.8125" gradientTransform="matrix(0.9499 0.3126 -0.3126 0.9499 21.7827 -16.8312)">
				<stop  offset="0" style="stop-color:#F39600"/>
				<stop  offset="1" style="stop-color:#FFBF00"/>
			</linearGradient>
			<path fill="url(#SVGID_13_)" d="M45.397,83.3c-1.619-0.531-3.359,0.354-3.883,1.971c-0.529,1.619,0.352,3.357,1.971,3.891
				c1.619,0.525,3.355-0.357,3.881-1.977C47.897,85.569,47.017,83.827,45.397,83.3z"/>
			
				<linearGradient id="SVGID_14_" gradientUnits="userSpaceOnUse" x1="-33.7773" y1="463.209" x2="-27.6152" y2="463.209" gradientTransform="matrix(0.8963 0.4435 -0.4435 0.8963 288.3843 -321.2917)">
				<stop  offset="0" style="stop-color:#FF1F00"/>
				<stop  offset="1" style="stop-color:#FF9D00"/>
			</linearGradient>
			<path fill="url(#SVGID_14_)" d="M54.479,83.194c1.619,0.527,3.354-0.352,3.887-1.967c0.525-1.621-0.355-3.361-1.977-3.891
				c-1.613-0.527-3.354,0.357-3.881,1.975C51.978,80.929,52.86,82.667,54.479,83.194z"/>
			
				<linearGradient id="SVGID_15_" gradientUnits="userSpaceOnUse" x1="-31.8101" y1="470.876" x2="-25.6509" y2="470.876" gradientTransform="matrix(0.8963 0.4435 -0.4435 0.8963 288.3843 -321.2917)">
				<stop  offset="0" style="stop-color:#80E21B"/>
				<stop  offset="1" style="stop-color:#80B400"/>
			</linearGradient>
			<path fill="url(#SVGID_15_)" d="M56.726,88.97c0.529-1.619-0.352-3.357-1.971-3.889c-1.617-0.527-3.355,0.357-3.885,1.979
				c-0.531,1.613,0.354,3.352,1.973,3.881C54.46,91.47,56.194,90.585,56.726,88.97z"/>
		</g>
	</g>
</g>
</svg>
