<?xml version="1.0" encoding="utf-8"?>
<!-- Generator: Adobe Illustrator 13.0.0, SVG Export Plug-In . SVG Version: 6.00 Build 14948)  -->
<!DOCTYPE svg PUBLIC "-//W3C//DTD SVG 1.1//EN" "http://www.w3.org/Graphics/SVG/1.1/DTD/svg11.dtd">
<svg version="1.1" id="Layer_1" xmlns="http://www.w3.org/2000/svg" xmlns:xlink="http://www.w3.org/1999/xlink" x="0px" y="0px"
	 width="128px" height="128px" viewBox="0 0 128 128" enable-background="new 0 0 128 128" xml:space="preserve">
<g>
	<g>
		
			<radialGradient id="SVGID_1_" cx="63.3481" cy="64.001" r="53.1356" gradientTransform="matrix(1 0 0 1 0 -9.765625e-04)" gradientUnits="userSpaceOnUse">
			<stop  offset="0" style="stop-color:#FAFAFA"/>
			<stop  offset="0.3109" style="stop-color:#F4F4F4"/>
			<stop  offset="0.7262" style="stop-color:#E3E3E3"/>
			<stop  offset="1" style="stop-color:#D4D4D4"/>
		</radialGradient>
		<path fill="url(#SVGID_1_)" stroke="#B3B3B3" stroke-width="2" d="M108.031,22.206v83.586c0,10.285-8.344,18.625-18.637,18.625
			H37.302c-10.295,0-18.637-8.34-18.637-18.625V22.206c0-10.285,8.342-18.623,18.637-18.623h52.093
			C99.688,3.583,108.031,11.921,108.031,22.206L108.031,22.206z"/>
		<path fill="#B3B3B3" d="M89.59,122.091H37.496c-10.295,0-18.637-8.34-18.637-18.625v2.326c0,10.285,8.342,18.625,18.637,18.625
			H89.59c10.293,0,18.637-8.34,18.637-18.625v-2.326C108.227,113.751,99.883,122.091,89.59,122.091z"/>
		<path fill="#FFFFFF" d="M29.831,11.569c2.079-1.734,4.432-2.905,7.665-2.905H89.59c3.234,0,5.586,1.171,7.666,2.905h2.629
			C97.264,8.924,94.08,7.331,89.59,7.331H37.496c-4.489,0-7.673,1.593-10.294,4.238H29.831z"/>
	</g>
	<g>
		<g>
			<g>
				
					<linearGradient id="SVGID_2_" gradientUnits="userSpaceOnUse" x1="-199.8999" y1="-608.6948" x2="-199.8999" y2="-632.5435" gradientTransform="matrix(1 0 0 -1 246.7271 -588.7695)">
					<stop  offset="0" style="stop-color:#99DBF6"/>
					<stop  offset="1" style="stop-color:#00B2DE"/>
				</linearGradient>
				<path fill="url(#SVGID_2_)" d="M46.792,19.926c-1.311,0.021-2.357,1.098-2.338,2.408v3.776l-2.668-2.666
					c-0.449-0.462-1.071-0.715-1.713-0.714c-0.643,0.001-1.26,0.25-1.705,0.714c-0.911,0.939-0.889,2.444,0.049,3.36l2.678,2.675
					h-3.775c-0.86-0.013-1.66,0.438-2.093,1.179c-0.435,0.74-0.435,1.658,0,2.396c0.433,0.743,1.232,1.193,2.093,1.182h3.775
					l-2.668,2.666c-0.615,0.598-0.862,1.478-0.645,2.308c0.219,0.829,0.866,1.478,1.695,1.696c0.83,0.217,1.712-0.031,2.309-0.645
					l2.668-2.666v3.764c-0.013,0.858,0.438,1.66,1.178,2.091c0.74,0.432,1.657,0.432,2.397,0c0.741-0.432,1.19-1.232,1.181-2.091
					v-3.764l2.666,2.666c0.597,0.613,1.48,0.861,2.308,0.645c0.83-0.219,1.478-0.867,1.694-1.696
					c0.219-0.83-0.027-1.719-0.644-2.318l-2.654-2.655h3.764c0.644,0.007,1.261-0.25,1.715-0.702
					c0.453-0.457,0.704-1.073,0.694-1.717c-0.023-1.309-1.1-2.353-2.409-2.338h-3.775l2.675-2.675
					c0.462-0.449,0.715-1.062,0.713-1.705c0-0.645-0.261-1.258-0.723-1.705c-0.941-0.91-2.445-0.887-3.357,0.05l-2.668,2.666v-3.777
					c0.009-0.644-0.248-1.261-0.703-1.714C48.051,20.165,47.434,19.914,46.792,19.926L46.792,19.926z"/>
				<g>
					<path fill="#00A4DE" d="M46.868,43.252c-0.643,0.012-1.257-0.238-1.712-0.692c-0.456-0.453-0.713-1.072-0.704-1.714v0.521
						c-0.009,0.644,0.248,1.261,0.704,1.713c0.455,0.456,1.069,0.706,1.712,0.693c1.311-0.021,2.356-1.098,2.339-2.406v-0.522
						C49.225,42.154,48.179,43.23,46.868,43.252z"/>
					<path fill="#00A4DE" d="M44.452,37.068l-2.666,2.666c-0.914,0.937-2.418,0.959-3.358,0.049
						c-0.401-0.387-0.648-0.898-0.709-1.446c-0.009,0.087-0.016,0.175-0.016,0.265c0.001,0.645,0.261,1.257,0.725,1.703
						c0.94,0.91,2.444,0.889,3.358-0.049l2.666-2.666V37.068z"/>
					<path fill="#00A4DE" d="M55.292,39.734c-0.447,0.463-1.062,0.712-1.704,0.713c-0.644,0.001-1.266-0.251-1.714-0.713
						l-2.667-2.665v0.521l2.667,2.665c0.448,0.463,1.07,0.715,1.714,0.713c0.642,0,1.257-0.25,1.704-0.713
						c0.512-0.526,0.719-1.23,0.645-1.908C55.88,38.852,55.673,39.342,55.292,39.734z"/>
				</g>
				<path opacity="0.5" fill="#FFFFFF" d="M46.789,20.89c0.55-0.007,1.076,0.206,1.468,0.595c0.188,0.188,0.337,0.41,0.438,0.653
					c-0.023-0.465-0.219-0.905-0.55-1.234c-0.36-0.357-0.846-0.556-1.354-0.548c-0.992,0.016-1.789,0.799-1.842,1.775
					C45.256,21.414,45.96,20.904,46.789,20.89z"/>
				<path opacity="0.5" fill="#FFFFFF" d="M38.983,24.176c0.383-0.395,0.906-0.616,1.458-0.617c0.267,0,0.529,0.052,0.772,0.15
					c-0.346-0.311-0.796-0.482-1.262-0.482c-0.509,0.001-0.992,0.205-1.345,0.57c-0.688,0.711-0.698,1.829-0.047,2.557
					C38.269,25.63,38.407,24.772,38.983,24.176z"/>
				<path opacity="0.5" fill="#FFFFFF" d="M35.729,31.896c-0.008-0.551,0.205-1.076,0.594-1.468
					c0.188-0.188,0.412-0.338,0.652-0.439c-0.464,0.024-0.903,0.22-1.233,0.55c-0.357,0.36-0.555,0.847-0.547,1.354
					c0.015,0.991,0.798,1.788,1.774,1.841C36.252,33.43,35.743,32.726,35.729,31.896z"/>
				<path opacity="0.5" fill="#FFFFFF" d="M57.989,31.826c0.01,0.551-0.206,1.077-0.594,1.469c-0.188,0.189-0.411,0.338-0.652,0.439
					c0.464-0.023,0.903-0.221,1.232-0.55c0.357-0.361,0.557-0.848,0.548-1.354c-0.016-0.991-0.799-1.789-1.774-1.841
					C57.467,30.294,57.976,30.998,57.989,31.826z"/>
				<path opacity="0.5" fill="#FFFFFF" d="M54.683,24.176c-0.383-0.395-0.906-0.616-1.457-0.617c-0.267,0-0.529,0.052-0.772,0.15
					c0.345-0.311,0.796-0.482,1.261-0.482c0.509,0.001,0.991,0.205,1.346,0.57c0.688,0.711,0.699,1.829,0.047,2.557
					C55.397,25.63,55.261,24.772,54.683,24.176z"/>
			</g>
			<g>
				
					<linearGradient id="SVGID_3_" gradientUnits="userSpaceOnUse" x1="-166.6616" y1="-608.6948" x2="-166.6616" y2="-632.5435" gradientTransform="matrix(1 0 0 -1 246.7271 -588.7695)">
					<stop  offset="0" style="stop-color:#99DBF6"/>
					<stop  offset="1" style="stop-color:#00B2DE"/>
				</linearGradient>
				<path fill="url(#SVGID_3_)" d="M80.03,19.926c-1.311,0.021-2.356,1.098-2.338,2.408v3.776l-2.668-2.666
					c-0.449-0.462-1.071-0.715-1.713-0.714c-0.643,0.001-1.26,0.25-1.705,0.714c-0.911,0.939-0.889,2.444,0.049,3.36l2.678,2.675
					h-3.775c-0.86-0.013-1.66,0.438-2.093,1.179c-0.434,0.74-0.434,1.658,0,2.396c0.433,0.743,1.232,1.193,2.093,1.182h3.775
					l-2.668,2.666c-0.615,0.598-0.862,1.478-0.645,2.308c0.219,0.829,0.867,1.478,1.695,1.696c0.83,0.217,1.713-0.031,2.309-0.645
					l2.668-2.666v3.764c-0.013,0.858,0.438,1.66,1.178,2.091c0.741,0.432,1.657,0.432,2.398,0c0.74-0.432,1.19-1.232,1.18-2.091
					v-3.764l2.666,2.666c0.598,0.613,1.48,0.861,2.309,0.645c0.83-0.219,1.477-0.867,1.693-1.696
					c0.219-0.83-0.027-1.719-0.644-2.318l-2.654-2.655h3.764c0.645,0.007,1.261-0.25,1.716-0.702
					c0.452-0.457,0.704-1.073,0.693-1.717c-0.023-1.309-1.1-2.353-2.409-2.338h-3.775l2.675-2.675
					c0.462-0.449,0.715-1.062,0.713-1.705c0-0.645-0.261-1.258-0.723-1.705c-0.941-0.91-2.444-0.887-3.357,0.05l-2.668,2.666v-3.777
					c0.01-0.644-0.247-1.261-0.703-1.714C81.289,20.165,80.672,19.914,80.03,19.926L80.03,19.926z"/>
				<g>
					<path fill="#00A4DE" d="M80.106,43.252c-0.642,0.012-1.257-0.238-1.712-0.692c-0.456-0.453-0.713-1.072-0.704-1.714v0.521
						c-0.009,0.644,0.248,1.261,0.704,1.713c0.455,0.456,1.07,0.706,1.712,0.693c1.311-0.021,2.356-1.098,2.339-2.406v-0.522
						C82.463,42.154,81.417,43.23,80.106,43.252z"/>
					<path fill="#00A4DE" d="M77.69,37.068l-2.666,2.666c-0.914,0.937-2.418,0.959-3.358,0.049
						c-0.401-0.387-0.648-0.898-0.709-1.446c-0.009,0.087-0.015,0.175-0.015,0.265c0,0.645,0.26,1.257,0.724,1.703
						c0.94,0.91,2.444,0.889,3.358-0.049l2.666-2.666V37.068z"/>
					<path fill="#00A4DE" d="M88.53,39.734c-0.447,0.463-1.062,0.712-1.704,0.713c-0.644,0.001-1.266-0.251-1.714-0.713
						l-2.667-2.665v0.521l2.667,2.665c0.448,0.463,1.07,0.715,1.714,0.713c0.642,0,1.257-0.25,1.704-0.713
						c0.512-0.526,0.719-1.23,0.645-1.908C89.118,38.852,88.911,39.342,88.53,39.734z"/>
				</g>
				<path opacity="0.5" fill="#FFFFFF" d="M80.028,20.89c0.549-0.007,1.076,0.206,1.467,0.595c0.188,0.188,0.337,0.41,0.439,0.653
					c-0.024-0.465-0.22-0.905-0.55-1.234c-0.36-0.357-0.846-0.556-1.354-0.548c-0.991,0.016-1.788,0.799-1.842,1.775
					C78.494,21.414,79.198,20.904,80.028,20.89z"/>
				<path opacity="0.5" fill="#FFFFFF" d="M72.222,24.176c0.383-0.395,0.907-0.616,1.459-0.617c0.266,0,0.528,0.052,0.771,0.15
					c-0.346-0.311-0.796-0.482-1.262-0.482c-0.509,0.001-0.992,0.205-1.345,0.57c-0.688,0.711-0.698,1.829-0.047,2.557
					C71.507,25.63,71.646,24.772,72.222,24.176z"/>
				<path opacity="0.5" fill="#FFFFFF" d="M68.968,31.896c-0.008-0.551,0.206-1.076,0.595-1.468
					c0.188-0.188,0.411-0.338,0.652-0.439c-0.465,0.024-0.904,0.22-1.234,0.55c-0.357,0.36-0.555,0.847-0.546,1.354
					c0.014,0.991,0.797,1.788,1.773,1.841C69.49,33.43,68.981,32.726,68.968,31.896z"/>
				<path opacity="0.5" fill="#FFFFFF" d="M91.228,31.826c0.01,0.551-0.205,1.077-0.594,1.469c-0.188,0.189-0.41,0.338-0.652,0.439
					c0.464-0.023,0.903-0.221,1.232-0.55c0.357-0.361,0.557-0.848,0.548-1.354c-0.016-0.991-0.799-1.789-1.774-1.841
					C90.705,30.294,91.214,30.998,91.228,31.826z"/>
				<path opacity="0.5" fill="#FFFFFF" d="M87.921,24.176c-0.382-0.395-0.906-0.616-1.457-0.617c-0.267,0-0.529,0.052-0.772,0.15
					c0.345-0.311,0.796-0.482,1.262-0.482c0.508,0.001,0.991,0.205,1.345,0.57c0.689,0.711,0.699,1.829,0.047,2.557
					C88.636,25.63,88.499,24.772,87.921,24.176z"/>
			</g>
		</g>
		<g>
			<g>
				
					<linearGradient id="SVGID_4_" gradientUnits="userSpaceOnUse" x1="-199.8999" y1="-642.8442" x2="-199.8999" y2="-666.6934" gradientTransform="matrix(1 0 0 -1 246.7271 -588.7695)">
					<stop  offset="0" style="stop-color:#99DBF6"/>
					<stop  offset="1" style="stop-color:#00B2DE"/>
				</linearGradient>
				<path fill="url(#SVGID_4_)" d="M46.792,54.075c-1.311,0.022-2.357,1.1-2.338,2.408v3.777l-2.668-2.666
					c-0.449-0.463-1.071-0.714-1.713-0.714c-0.643,0.002-1.26,0.249-1.705,0.714c-0.911,0.939-0.889,2.444,0.049,3.36l2.678,2.674
					h-3.775c-0.86-0.013-1.66,0.438-2.093,1.18c-0.435,0.74-0.435,1.658,0,2.396c0.433,0.743,1.232,1.192,2.093,1.182h3.775
					l-2.668,2.666c-0.615,0.598-0.862,1.477-0.645,2.309c0.219,0.828,0.866,1.477,1.695,1.695c0.83,0.216,1.712-0.031,2.309-0.645
					l2.668-2.666v3.763c-0.013,0.858,0.438,1.66,1.178,2.091c0.74,0.432,1.657,0.432,2.397,0c0.741-0.431,1.19-1.232,1.181-2.091
					v-3.763l2.666,2.666c0.597,0.613,1.48,0.86,2.308,0.645c0.83-0.219,1.478-0.867,1.694-1.695
					c0.219-0.832-0.027-1.721-0.644-2.319l-2.654-2.655h3.764c0.644,0.006,1.261-0.249,1.715-0.702
					c0.453-0.457,0.704-1.074,0.694-1.716c-0.023-1.31-1.1-2.354-2.409-2.34h-3.775l2.675-2.674
					c0.462-0.449,0.715-1.062,0.713-1.706c0-0.645-0.261-1.257-0.723-1.704c-0.941-0.91-2.445-0.887-3.357,0.05l-2.668,2.666v-3.777
					c0.009-0.644-0.248-1.261-0.703-1.714C48.051,54.314,47.434,54.064,46.792,54.075L46.792,54.075z"/>
				<g>
					<path fill="#00A4DE" d="M46.868,77.402c-0.643,0.012-1.257-0.239-1.712-0.692c-0.456-0.453-0.713-1.072-0.704-1.714v0.521
						c-0.009,0.645,0.248,1.261,0.704,1.712c0.455,0.457,1.069,0.707,1.712,0.694c1.311-0.021,2.356-1.098,2.339-2.406v-0.523
						C49.225,76.305,48.179,77.381,46.868,77.402z"/>
					<path fill="#00A4DE" d="M44.452,71.219l-2.666,2.666c-0.914,0.937-2.418,0.96-3.358,0.05c-0.401-0.389-0.648-0.899-0.709-1.448
						c-0.009,0.087-0.016,0.177-0.016,0.266c0.001,0.645,0.261,1.257,0.725,1.704c0.94,0.91,2.444,0.887,3.358-0.05l2.666-2.666
						V71.219z"/>
					<path fill="#00A4DE" d="M55.292,73.885c-0.447,0.463-1.062,0.712-1.704,0.712c-0.644,0.003-1.266-0.251-1.714-0.712
						l-2.667-2.666v0.521l2.667,2.666c0.448,0.463,1.07,0.715,1.714,0.712c0.642,0,1.257-0.249,1.704-0.712
						c0.512-0.525,0.719-1.23,0.645-1.908C55.88,73.002,55.673,73.492,55.292,73.885z"/>
				</g>
				<path opacity="0.5" fill="#FFFFFF" d="M46.789,55.039c0.55-0.006,1.076,0.206,1.468,0.595c0.188,0.188,0.337,0.411,0.438,0.654
					c-0.023-0.466-0.219-0.905-0.55-1.234c-0.36-0.357-0.846-0.557-1.354-0.548c-0.992,0.017-1.789,0.8-1.842,1.773
					C45.256,55.562,45.96,55.054,46.789,55.039z"/>
				<path opacity="0.5" fill="#FFFFFF" d="M38.983,58.326c0.383-0.395,0.906-0.617,1.458-0.617c0.267,0,0.529,0.053,0.772,0.15
					c-0.346-0.311-0.796-0.482-1.262-0.482c-0.509,0-0.992,0.205-1.345,0.569c-0.688,0.713-0.698,1.83-0.047,2.558
					C38.269,59.781,38.407,58.923,38.983,58.326z"/>
				<path opacity="0.5" fill="#FFFFFF" d="M35.729,66.047c-0.008-0.551,0.205-1.076,0.594-1.469
					c0.188-0.189,0.412-0.336,0.652-0.438c-0.464,0.023-0.903,0.221-1.233,0.549c-0.357,0.361-0.555,0.848-0.547,1.354
					c0.015,0.991,0.798,1.789,1.774,1.841C36.252,67.58,35.743,66.876,35.729,66.047z"/>
				<path opacity="0.5" fill="#FFFFFF" d="M57.989,65.977c0.01,0.551-0.206,1.076-0.594,1.469c-0.188,0.189-0.411,0.337-0.652,0.438
					c0.464-0.022,0.903-0.22,1.232-0.548c0.357-0.362,0.557-0.848,0.548-1.355c-0.016-0.99-0.799-1.789-1.774-1.841
					C57.467,64.443,57.976,65.147,57.989,65.977z"/>
				<path opacity="0.5" fill="#FFFFFF" d="M54.683,58.326c-0.383-0.395-0.906-0.617-1.457-0.617c-0.267,0-0.529,0.053-0.772,0.15
					c0.345-0.311,0.796-0.482,1.261-0.482c0.509,0,0.991,0.205,1.346,0.569c0.688,0.713,0.699,1.83,0.047,2.558
					C55.397,59.781,55.261,58.923,54.683,58.326z"/>
			</g>
			<g>
				
					<linearGradient id="SVGID_5_" gradientUnits="userSpaceOnUse" x1="-166.6616" y1="-642.8442" x2="-166.6616" y2="-666.6934" gradientTransform="matrix(1 0 0 -1 246.7271 -588.7695)">
					<stop  offset="0" style="stop-color:#99DBF6"/>
					<stop  offset="1" style="stop-color:#00B2DE"/>
				</linearGradient>
				<path fill="url(#SVGID_5_)" d="M80.03,54.075c-1.311,0.022-2.356,1.1-2.338,2.408v3.777l-2.668-2.666
					c-0.449-0.463-1.071-0.714-1.713-0.714c-0.643,0.002-1.26,0.249-1.705,0.714c-0.911,0.939-0.889,2.444,0.049,3.36l2.678,2.674
					h-3.775c-0.86-0.013-1.66,0.438-2.093,1.18c-0.434,0.74-0.434,1.658,0,2.396c0.433,0.743,1.232,1.192,2.093,1.182h3.775
					l-2.668,2.666c-0.615,0.598-0.862,1.477-0.645,2.309c0.219,0.828,0.867,1.477,1.695,1.695c0.83,0.216,1.713-0.031,2.309-0.645
					l2.668-2.666v3.763c-0.013,0.858,0.438,1.66,1.178,2.091c0.741,0.432,1.657,0.432,2.398,0c0.74-0.431,1.19-1.232,1.18-2.091
					v-3.763l2.666,2.666c0.598,0.613,1.48,0.86,2.309,0.645c0.83-0.219,1.477-0.867,1.693-1.695
					c0.219-0.832-0.027-1.721-0.644-2.319l-2.654-2.655h3.764c0.645,0.006,1.261-0.249,1.716-0.702
					c0.452-0.457,0.704-1.074,0.693-1.716c-0.023-1.31-1.1-2.354-2.409-2.34h-3.775l2.675-2.674
					c0.462-0.449,0.715-1.062,0.713-1.706c0-0.645-0.261-1.257-0.723-1.704c-0.941-0.91-2.444-0.887-3.357,0.05l-2.668,2.666v-3.777
					c0.01-0.644-0.247-1.261-0.703-1.714C81.289,54.314,80.672,54.064,80.03,54.075L80.03,54.075z"/>
				<g>
					<path fill="#00A4DE" d="M80.106,77.402c-0.642,0.012-1.257-0.239-1.712-0.692c-0.456-0.453-0.713-1.072-0.704-1.714v0.521
						c-0.009,0.645,0.248,1.261,0.704,1.712c0.455,0.457,1.07,0.707,1.712,0.694c1.311-0.021,2.356-1.098,2.339-2.406v-0.523
						C82.463,76.305,81.417,77.381,80.106,77.402z"/>
					<path fill="#00A4DE" d="M77.69,71.219l-2.666,2.666c-0.914,0.937-2.418,0.96-3.358,0.05c-0.401-0.389-0.648-0.899-0.709-1.448
						c-0.009,0.087-0.015,0.177-0.015,0.266c0,0.645,0.26,1.257,0.724,1.704c0.94,0.91,2.444,0.887,3.358-0.05l2.666-2.666V71.219z"
						/>
					<path fill="#00A4DE" d="M88.53,73.885c-0.447,0.463-1.062,0.712-1.704,0.712c-0.644,0.003-1.266-0.251-1.714-0.712
						l-2.667-2.666v0.521l2.667,2.666c0.448,0.463,1.07,0.715,1.714,0.712c0.642,0,1.257-0.249,1.704-0.712
						c0.512-0.525,0.719-1.23,0.645-1.908C89.118,73.002,88.911,73.492,88.53,73.885z"/>
				</g>
				<path opacity="0.5" fill="#FFFFFF" d="M80.028,55.039c0.549-0.006,1.076,0.206,1.467,0.595c0.188,0.188,0.337,0.411,0.439,0.654
					c-0.024-0.466-0.22-0.905-0.55-1.234c-0.36-0.357-0.846-0.557-1.354-0.548c-0.991,0.017-1.788,0.8-1.842,1.773
					C78.494,55.562,79.198,55.054,80.028,55.039z"/>
				<path opacity="0.5" fill="#FFFFFF" d="M72.222,58.326c0.383-0.395,0.907-0.617,1.459-0.617c0.266,0,0.528,0.053,0.771,0.15
					c-0.346-0.311-0.796-0.482-1.262-0.482c-0.509,0-0.992,0.205-1.345,0.569c-0.688,0.713-0.698,1.83-0.047,2.558
					C71.507,59.781,71.646,58.923,72.222,58.326z"/>
				<path opacity="0.5" fill="#FFFFFF" d="M68.968,66.047c-0.008-0.551,0.206-1.076,0.595-1.469
					c0.188-0.189,0.411-0.336,0.652-0.438c-0.465,0.023-0.904,0.221-1.234,0.549c-0.357,0.361-0.555,0.848-0.546,1.354
					c0.014,0.991,0.797,1.789,1.773,1.841C69.49,67.58,68.981,66.876,68.968,66.047z"/>
				<path opacity="0.5" fill="#FFFFFF" d="M91.228,65.977c0.01,0.551-0.205,1.076-0.594,1.469c-0.188,0.189-0.41,0.337-0.652,0.438
					c0.464-0.022,0.903-0.22,1.232-0.548c0.357-0.362,0.557-0.848,0.548-1.355c-0.016-0.99-0.799-1.789-1.774-1.841
					C90.705,64.443,91.214,65.147,91.228,65.977z"/>
				<path opacity="0.5" fill="#FFFFFF" d="M87.921,58.326c-0.382-0.395-0.906-0.617-1.457-0.617c-0.267,0-0.529,0.053-0.772,0.15
					c0.345-0.311,0.796-0.482,1.262-0.482c0.508,0,0.991,0.205,1.345,0.569c0.689,0.713,0.699,1.83,0.047,2.558
					C88.636,59.781,88.499,58.923,87.921,58.326z"/>
			</g>
		</g>
		<g>
			<g>
				
					<linearGradient id="SVGID_6_" gradientUnits="userSpaceOnUse" x1="-199.8999" y1="-676.9951" x2="-199.8999" y2="-700.8442" gradientTransform="matrix(1 0 0 -1 246.7271 -588.7695)">
					<stop  offset="0" style="stop-color:#99DBF6"/>
					<stop  offset="1" style="stop-color:#00B2DE"/>
				</linearGradient>
				<path fill="url(#SVGID_6_)" d="M46.792,88.226c-1.311,0.022-2.357,1.099-2.338,2.408v3.776l-2.668-2.665
					c-0.449-0.463-1.071-0.715-1.713-0.714c-0.643,0.001-1.26,0.249-1.705,0.714c-0.911,0.938-0.889,2.444,0.049,3.359l2.678,2.675
					h-3.775c-0.86-0.013-1.66,0.438-2.093,1.18c-0.435,0.739-0.435,1.657,0,2.396c0.433,0.742,1.232,1.192,2.093,1.181h3.775
					l-2.668,2.666c-0.615,0.599-0.862,1.479-0.645,2.309c0.219,0.829,0.866,1.477,1.695,1.695c0.83,0.217,1.712-0.03,2.309-0.645
					l2.668-2.665v3.764c-0.013,0.857,0.438,1.66,1.178,2.09c0.74,0.433,1.657,0.433,2.397,0c0.741-0.431,1.19-1.232,1.181-2.09
					v-3.764l2.666,2.665c0.597,0.614,1.48,0.861,2.308,0.645c0.83-0.219,1.478-0.866,1.694-1.695c0.219-0.83-0.027-1.72-0.644-2.319
					l-2.654-2.655h3.764c0.644,0.008,1.261-0.249,1.715-0.702c0.453-0.457,0.704-1.073,0.694-1.716
					c-0.023-1.31-1.1-2.354-2.409-2.339h-3.775l2.675-2.675c0.462-0.449,0.715-1.062,0.713-1.705c0-0.644-0.261-1.258-0.723-1.705
					c-0.941-0.909-2.445-0.887-3.357,0.051l-2.668,2.665v-3.777c0.009-0.643-0.248-1.261-0.703-1.714
					C48.051,88.465,47.434,88.215,46.792,88.226L46.792,88.226z"/>
				<g>
					<path fill="#00A4DE" d="M46.868,111.552c-0.643,0.013-1.257-0.238-1.712-0.692c-0.456-0.452-0.713-1.071-0.704-1.714v0.521
						c-0.009,0.645,0.248,1.262,0.704,1.713c0.455,0.456,1.069,0.707,1.712,0.694c1.311-0.021,2.356-1.098,2.339-2.407v-0.522
						C49.225,110.455,48.179,111.531,46.868,111.552z"/>
					<path fill="#00A4DE" d="M44.452,105.368l-2.666,2.666c-0.914,0.937-2.418,0.96-3.358,0.05
						c-0.401-0.388-0.648-0.898-0.709-1.447c-0.009,0.087-0.016,0.176-0.016,0.265c0.001,0.645,0.261,1.258,0.725,1.704
						c0.94,0.91,2.444,0.889,3.358-0.05l2.666-2.666V105.368z"/>
					<path fill="#00A4DE" d="M55.292,108.034c-0.447,0.463-1.062,0.713-1.704,0.714c-0.644,0.001-1.266-0.252-1.714-0.714
						l-2.667-2.665v0.521l2.667,2.666c0.448,0.462,1.07,0.714,1.714,0.713c0.642,0,1.257-0.251,1.704-0.713
						c0.512-0.526,0.719-1.231,0.645-1.908C55.88,107.152,55.673,107.643,55.292,108.034z"/>
				</g>
				<path opacity="0.5" fill="#FFFFFF" d="M46.789,89.19c0.55-0.008,1.076,0.205,1.468,0.594c0.188,0.189,0.337,0.41,0.438,0.653
					c-0.023-0.464-0.219-0.904-0.55-1.234c-0.36-0.356-0.846-0.556-1.354-0.547c-0.992,0.016-1.789,0.799-1.842,1.774
					C45.256,89.714,45.96,89.205,46.789,89.19z"/>
				<path opacity="0.5" fill="#FFFFFF" d="M38.983,92.476c0.383-0.395,0.906-0.615,1.458-0.616c0.267,0,0.529,0.052,0.772,0.15
					c-0.346-0.311-0.796-0.483-1.262-0.483c-0.509,0.001-0.992,0.206-1.345,0.57c-0.688,0.712-0.698,1.829-0.047,2.557
					C38.269,93.931,38.407,93.072,38.983,92.476z"/>
				<path opacity="0.5" fill="#FFFFFF" d="M35.729,100.197c-0.008-0.551,0.205-1.077,0.594-1.469
					c0.188-0.188,0.412-0.337,0.652-0.439c-0.464,0.024-0.903,0.221-1.233,0.55c-0.357,0.36-0.555,0.847-0.547,1.354
					c0.015,0.991,0.798,1.788,1.774,1.841C36.252,101.73,35.743,101.025,35.729,100.197z"/>
				<path opacity="0.5" fill="#FFFFFF" d="M57.989,100.126c0.01,0.551-0.206,1.077-0.594,1.469
					c-0.188,0.189-0.411,0.338-0.652,0.439c0.464-0.023,0.903-0.221,1.232-0.549c0.357-0.362,0.557-0.848,0.548-1.355
					c-0.016-0.99-0.799-1.788-1.774-1.841C57.467,98.594,57.976,99.298,57.989,100.126z"/>
				<path opacity="0.5" fill="#FFFFFF" d="M54.683,92.476c-0.383-0.395-0.906-0.615-1.457-0.616c-0.267,0-0.529,0.052-0.772,0.15
					c0.345-0.311,0.796-0.483,1.261-0.483c0.509,0.001,0.991,0.206,1.346,0.57c0.688,0.712,0.699,1.829,0.047,2.557
					C55.397,93.931,55.261,93.072,54.683,92.476z"/>
			</g>
			<g>
				
					<linearGradient id="SVGID_7_" gradientUnits="userSpaceOnUse" x1="-166.6616" y1="-676.9951" x2="-166.6616" y2="-700.8442" gradientTransform="matrix(1 0 0 -1 246.7271 -588.7695)">
					<stop  offset="0" style="stop-color:#99DBF6"/>
					<stop  offset="1" style="stop-color:#00B2DE"/>
				</linearGradient>
				<path fill="url(#SVGID_7_)" d="M80.03,88.226c-1.311,0.022-2.356,1.099-2.338,2.408v3.776l-2.668-2.665
					c-0.449-0.463-1.071-0.715-1.713-0.714c-0.643,0.001-1.26,0.249-1.705,0.714c-0.911,0.938-0.889,2.444,0.049,3.359l2.678,2.675
					h-3.775c-0.86-0.013-1.66,0.438-2.093,1.18c-0.434,0.739-0.434,1.657,0,2.396c0.433,0.742,1.232,1.192,2.093,1.181h3.775
					l-2.668,2.666c-0.615,0.599-0.862,1.479-0.645,2.309c0.219,0.829,0.867,1.477,1.695,1.695c0.83,0.217,1.713-0.03,2.309-0.645
					l2.668-2.665v3.764c-0.013,0.857,0.438,1.66,1.178,2.09c0.741,0.433,1.657,0.433,2.398,0c0.74-0.431,1.19-1.232,1.18-2.09
					v-3.764l2.666,2.665c0.598,0.614,1.48,0.861,2.309,0.645c0.83-0.219,1.477-0.866,1.693-1.695c0.219-0.83-0.027-1.72-0.644-2.319
					l-2.654-2.655h3.764c0.645,0.008,1.261-0.249,1.716-0.702c0.452-0.457,0.704-1.073,0.693-1.716
					c-0.023-1.31-1.1-2.354-2.409-2.339h-3.775l2.675-2.675c0.462-0.449,0.715-1.062,0.713-1.705c0-0.644-0.261-1.258-0.723-1.705
					c-0.941-0.909-2.444-0.887-3.357,0.051l-2.668,2.665v-3.777c0.01-0.643-0.247-1.261-0.703-1.714
					C81.289,88.465,80.672,88.215,80.03,88.226L80.03,88.226z"/>
				<g>
					<path fill="#00A4DE" d="M80.106,111.552c-0.642,0.013-1.257-0.238-1.712-0.692c-0.456-0.452-0.713-1.071-0.704-1.714v0.521
						c-0.009,0.645,0.248,1.262,0.704,1.713c0.455,0.456,1.07,0.707,1.712,0.694c1.311-0.021,2.356-1.098,2.339-2.407v-0.522
						C82.463,110.455,81.417,111.531,80.106,111.552z"/>
					<path fill="#00A4DE" d="M77.69,105.368l-2.666,2.666c-0.914,0.937-2.418,0.96-3.358,0.05c-0.401-0.388-0.648-0.898-0.709-1.447
						c-0.009,0.087-0.015,0.176-0.015,0.265c0,0.645,0.26,1.258,0.724,1.704c0.94,0.91,2.444,0.889,3.358-0.05l2.666-2.666V105.368z
						"/>
					<path fill="#00A4DE" d="M88.53,108.034c-0.447,0.463-1.062,0.713-1.704,0.714c-0.644,0.001-1.266-0.252-1.714-0.714
						l-2.667-2.665v0.521l2.667,2.666c0.448,0.462,1.07,0.714,1.714,0.713c0.642,0,1.257-0.251,1.704-0.713
						c0.512-0.526,0.719-1.231,0.645-1.908C89.118,107.152,88.911,107.643,88.53,108.034z"/>
				</g>
				<path opacity="0.5" fill="#FFFFFF" d="M80.028,89.19c0.549-0.008,1.076,0.205,1.467,0.594c0.188,0.189,0.337,0.41,0.439,0.653
					c-0.024-0.464-0.22-0.904-0.55-1.234c-0.36-0.356-0.846-0.556-1.354-0.547c-0.991,0.016-1.788,0.799-1.842,1.774
					C78.494,89.714,79.198,89.205,80.028,89.19z"/>
				<path opacity="0.5" fill="#FFFFFF" d="M72.222,92.476c0.383-0.395,0.907-0.615,1.459-0.616c0.266,0,0.528,0.052,0.771,0.15
					c-0.346-0.311-0.796-0.483-1.262-0.483c-0.509,0.001-0.992,0.206-1.345,0.57c-0.688,0.712-0.698,1.829-0.047,2.557
					C71.507,93.931,71.646,93.072,72.222,92.476z"/>
				<path opacity="0.5" fill="#FFFFFF" d="M68.968,100.197c-0.008-0.551,0.206-1.077,0.595-1.469
					c0.188-0.188,0.411-0.337,0.652-0.439c-0.465,0.024-0.904,0.221-1.234,0.55c-0.357,0.36-0.555,0.847-0.546,1.354
					c0.014,0.991,0.797,1.788,1.773,1.841C69.49,101.73,68.981,101.025,68.968,100.197z"/>
				<path opacity="0.5" fill="#FFFFFF" d="M91.228,100.126c0.01,0.551-0.205,1.077-0.594,1.469c-0.188,0.189-0.41,0.338-0.652,0.439
					c0.464-0.023,0.903-0.221,1.232-0.549c0.357-0.362,0.557-0.848,0.548-1.355c-0.016-0.99-0.799-1.788-1.774-1.841
					C90.705,98.594,91.214,99.298,91.228,100.126z"/>
				<path opacity="0.5" fill="#FFFFFF" d="M87.921,92.476c-0.382-0.395-0.906-0.615-1.457-0.616c-0.267,0-0.529,0.052-0.772,0.15
					c0.345-0.311,0.796-0.483,1.262-0.483c0.508,0.001,0.991,0.206,1.345,0.57c0.689,0.712,0.699,1.829,0.047,2.557
					C88.636,93.931,88.499,93.072,87.921,92.476z"/>
			</g>
		</g>
	</g>
</g>
</svg>
