<?xml version="1.0" encoding="utf-8"?>
<!-- Generator: Adobe Illustrator 13.0.0, SVG Export Plug-In . SVG Version: 6.00 Build 14948)  -->
<!DOCTYPE svg PUBLIC "-//W3C//DTD SVG 1.1//EN" "http://www.w3.org/Graphics/SVG/1.1/DTD/svg11.dtd">
<svg version="1.1" id="Layer_1" xmlns="http://www.w3.org/2000/svg" xmlns:xlink="http://www.w3.org/1999/xlink" x="0px" y="0px"
	 width="128px" height="128px" viewBox="0 0 128 128" enable-background="new 0 0 128 128" xml:space="preserve">
<g>
	<g>
		<path fill="#F2F2F2" stroke="#B3B3B3" stroke-width="2" d="M109.502,13.263H18.5c-9.342,0-16.914,7.572-16.914,16.91v67.379
			c0,9.342,7.572,16.914,16.914,16.914h91.002c9.34,0,16.912-7.572,16.912-16.914V30.173
			C126.414,20.835,118.842,13.263,109.502,13.263z"/>
		<linearGradient id="SVGID_1_" gradientUnits="userSpaceOnUse" x1="63.9351" y1="115.3535" x2="63.9351" y2="48.8527">
			<stop  offset="0.0934" style="stop-color:#D1D1D1"/>
			<stop  offset="0.431" style="stop-color:#D9D9D9"/>
			<stop  offset="0.9519" style="stop-color:#EFEFEF"/>
			<stop  offset="0.9725" style="stop-color:#F0F0F0"/>
		</linearGradient>
		<path fill="url(#SVGID_1_)" d="M38.496,78.743c-12.658,0-24.773-1.07-35.959-3.022v22.106c0,9.189,7.447,16.639,16.637,16.639
			h89.521c9.188,0,16.637-7.449,16.637-16.639V56.316C107.314,69.777,75.166,78.743,38.496,78.743z"/>
		<path fill="#B3B3B3" d="M108.934,111.449l-89.744,0.001c-9.211,0-16.678-7.469-16.678-16.681v3.288
			c0,9.213,7.467,16.68,16.678,16.68h89.744c9.209,0,16.676-7.467,16.676-16.68V94.77
			C125.609,103.981,118.143,111.449,108.934,111.449z"/>
		<linearGradient id="SVGID_2_" gradientUnits="userSpaceOnUse" x1="64.1587" y1="13.6191" x2="64.1587" y2="45.5157">
			<stop  offset="0" style="stop-color:#FF9D00"/>
			<stop  offset="1" style="stop-color:#FF1F00"/>
		</linearGradient>
		<path fill="url(#SVGID_2_)" d="M125.838,41.936V30.757c0-9.229-7.482-16.712-16.713-16.712h-89.93
			c-9.232,0-16.715,7.483-16.715,16.713v11.178H125.838z"/>
		<path opacity="0.5" fill="#FFFFFF" d="M109.102,14.045h-89.91c-9.23,0-16.711,7.481-16.711,16.707v4.94
			c0-9.227,7.48-16.708,16.711-16.708h89.91c9.227,0,16.709,7.481,16.709,16.708v-4.94
			C125.811,21.526,118.328,14.045,109.102,14.045z"/>
		<g>
			<g>
				<path fill="#C6C5C5" stroke="#FFFFFF" d="M86.006,57.084c0,0.896-0.729,1.621-1.625,1.621h-9.213
					c-0.896,0-1.623-0.727-1.623-1.621v-9.216c0-0.896,0.727-1.622,1.623-1.622h9.213c0.896,0,1.625,0.727,1.625,1.622V57.084z"/>
				<path fill="#969696" stroke="#FFFFFF" d="M101.781,57.084c0,0.896-0.727,1.621-1.623,1.621h-9.215
					c-0.896,0-1.623-0.725-1.623-1.621v-9.216c0-0.896,0.727-1.622,1.623-1.622h9.215c0.896,0,1.623,0.727,1.623,1.622V57.084
					L101.781,57.084z"/>
				<path fill="#969696" stroke="#FFFFFF" d="M117.557,57.084c0,0.896-0.727,1.621-1.623,1.621h-9.215
					c-0.896,0-1.623-0.725-1.623-1.621v-9.216c0-0.896,0.729-1.622,1.623-1.622h9.215c0.896,0,1.623,0.727,1.623,1.622V57.084
					L117.557,57.084z"/>
			</g>
			<g>
				<path fill="#C6C5C5" stroke="#FFFFFF" d="M38.68,72.589c0,0.895-0.729,1.621-1.623,1.621H27.84
					c-0.895,0-1.621-0.729-1.621-1.621v-9.215c0-0.899,0.727-1.624,1.621-1.624h9.217c0.895,0,1.623,0.725,1.623,1.624V72.589z"/>
				<path fill="#C6C5C5" stroke="#FFFFFF" d="M54.453,72.589c0,0.895-0.727,1.621-1.623,1.621h-9.215
					c-0.895,0-1.621-0.729-1.621-1.621v-9.215c0-0.899,0.727-1.624,1.621-1.624h9.215c0.896,0,1.623,0.725,1.623,1.624V72.589z"/>
				<path fill="#C6C5C5" stroke="#FFFFFF" d="M70.23,72.589c0,0.896-0.729,1.621-1.623,1.621h-9.217
					c-0.896,0-1.621-0.729-1.621-1.621v-9.215c0-0.899,0.727-1.624,1.621-1.624h9.217c0.895,0,1.623,0.725,1.623,1.624V72.589z"/>
				<path fill="#C6C5C5" stroke="#FFFFFF" d="M86.006,72.589c0,0.896-0.729,1.621-1.625,1.621h-9.213
					c-0.896,0-1.623-0.727-1.623-1.621v-9.215c0-0.899,0.727-1.624,1.623-1.624h9.213c0.896,0,1.625,0.725,1.625,1.624V72.589z"/>
				<path fill="#C6C5C5" stroke="#FFFFFF" d="M22.902,72.589c0,0.895-0.727,1.621-1.621,1.621h-9.215
					c-0.896,0-1.623-0.729-1.623-1.621v-9.217c0-0.897,0.727-1.622,1.623-1.622h9.215c0.895,0,1.621,0.725,1.621,1.624V72.589z"/>
				<linearGradient id="SVGID_3_" gradientUnits="userSpaceOnUse" x1="95.5508" y1="61.75" x2="95.5508" y2="74.2104">
					<stop  offset="0" style="stop-color:#FF9D00"/>
					<stop  offset="1" style="stop-color:#FF1F00"/>
				</linearGradient>
				<path fill="url(#SVGID_3_)" stroke="#FFFFFF" d="M101.781,72.589c0,0.896-0.727,1.621-1.623,1.621h-9.215
					c-0.896,0-1.623-0.727-1.623-1.621v-9.215c0-0.899,0.727-1.624,1.623-1.624h9.215c0.896,0,1.623,0.725,1.623,1.624V72.589
					L101.781,72.589z"/>
				<path fill="#969696" stroke="#FFFFFF" d="M117.557,72.589c0,0.896-0.727,1.621-1.623,1.621h-9.215
					c-0.896,0-1.623-0.727-1.623-1.621v-9.215c0-0.899,0.729-1.624,1.623-1.624h9.215c0.896,0,1.623,0.725,1.623,1.624V72.589
					L117.557,72.589z"/>
			</g>
			<g>
				<path fill="#C6C5C5" stroke="#FFFFFF" d="M38.68,88.091c0,0.896-0.729,1.623-1.623,1.623H27.84
					c-0.895,0-1.621-0.729-1.621-1.623v-9.215c0-0.896,0.727-1.623,1.621-1.623h9.217c0.895,0,1.623,0.728,1.623,1.623V88.091z"/>
				<path fill="#C6C5C5" stroke="#FFFFFF" d="M54.453,88.091c0,0.896-0.727,1.623-1.623,1.623h-9.215
					c-0.895,0-1.621-0.729-1.621-1.623v-9.215c0-0.896,0.727-1.623,1.621-1.623h9.215c0.896,0,1.623,0.728,1.623,1.623V88.091z"/>
				<path fill="#C6C5C5" stroke="#FFFFFF" d="M70.23,88.091c0,0.896-0.729,1.623-1.623,1.623h-9.217
					c-0.896,0-1.621-0.729-1.621-1.623v-9.215c0-0.896,0.727-1.623,1.621-1.623h9.217c0.895,0,1.623,0.728,1.623,1.623V88.091z"/>
				<path fill="#C6C5C5" stroke="#FFFFFF" d="M86.006,88.091c0,0.896-0.729,1.623-1.625,1.623h-9.213
					c-0.896,0-1.623-0.729-1.623-1.623v-9.215c0-0.896,0.727-1.623,1.623-1.623l9.213,0.002c0.896,0,1.625,0.726,1.625,1.621V88.091
					z"/>
				<path fill="#C6C5C5" stroke="#FFFFFF" d="M22.902,88.091c0,0.896-0.727,1.623-1.621,1.623h-9.215
					c-0.896,0-1.623-0.729-1.623-1.623v-9.215c0-0.896,0.727-1.623,1.623-1.623h9.215c0.895,0,1.621,0.728,1.621,1.623V88.091z"/>
				<path fill="#969696" stroke="#FFFFFF" d="M101.781,88.091c0,0.896-0.727,1.623-1.623,1.623h-9.215
					c-0.896,0-1.623-0.729-1.623-1.623v-9.215c0-0.896,0.727-1.621,1.623-1.621h9.215c0.896,0,1.623,0.726,1.623,1.621V88.091
					L101.781,88.091z"/>
				<path fill="#969696" stroke="#FFFFFF" d="M117.557,88.091c0,0.896-0.727,1.623-1.623,1.623h-9.215
					c-0.896,0-1.623-0.729-1.623-1.623v-9.215c0-0.896,0.729-1.621,1.623-1.621h9.215c0.896,0,1.623,0.726,1.623,1.621V88.091
					L117.557,88.091z"/>
			</g>
			<g>
				<path fill="#C6C5C5" stroke="#FFFFFF" d="M38.68,103.595c0,0.896-0.729,1.623-1.623,1.623H27.84
					c-0.895,0-1.621-0.728-1.621-1.623V94.38c0-0.896,0.727-1.623,1.621-1.623h9.217c0.895,0,1.623,0.728,1.623,1.623V103.595z"/>
				<path fill="#C6C5C5" stroke="#FFFFFF" d="M54.453,103.595c0,0.896-0.727,1.623-1.623,1.623h-9.215
					c-0.895,0-1.621-0.728-1.621-1.623V94.38c0-0.896,0.727-1.623,1.621-1.623h9.215c0.896,0,1.623,0.728,1.623,1.623V103.595z"/>
				<path fill="#C6C5C5" stroke="#FFFFFF" d="M70.23,103.595c0,0.896-0.729,1.623-1.623,1.623h-9.217
					c-0.896,0-1.621-0.728-1.621-1.623V94.38c0-0.896,0.727-1.623,1.621-1.623l9.217,0.002c0.895,0,1.623,0.726,1.623,1.621V103.595
					z"/>
				<path fill="#C6C5C5" stroke="#FFFFFF" d="M86.006,103.595c0,0.896-0.729,1.623-1.625,1.623h-9.213
					c-0.896,0-1.623-0.728-1.623-1.623V94.38c0-0.896,0.727-1.621,1.623-1.621h9.213c0.896,0,1.625,0.726,1.625,1.621V103.595z"/>
				<path fill="#C6C5C5" stroke="#FFFFFF" d="M22.902,103.595c0,0.896-0.727,1.623-1.621,1.623h-9.215
					c-0.896-0.002-1.623-0.728-1.623-1.623V94.38c0-0.896,0.727-1.623,1.623-1.623h9.215c0.895,0,1.621,0.728,1.621,1.623V103.595z"
					/>
				<path fill="#969696" stroke="#FFFFFF" d="M101.781,103.595c0,0.896-0.727,1.623-1.623,1.623h-9.215
					c-0.896,0-1.623-0.728-1.623-1.623V94.38c0-0.896,0.727-1.621,1.623-1.621h9.215c0.896,0,1.623,0.726,1.623,1.621V103.595
					L101.781,103.595z"/>
				<path fill="#969696" stroke="#FFFFFF" d="M117.557,103.595c0,0.896-0.727,1.623-1.623,1.623h-9.215
					c-0.896,0-1.623-0.728-1.623-1.623V94.38c0-0.896,0.729-1.621,1.623-1.621h9.215c0.896,0,1.623,0.726,1.623,1.621V103.595
					L117.557,103.595z"/>
			</g>
		</g>
		
			<linearGradient id="SVGID_4_" gradientUnits="userSpaceOnUse" x1="-1148.1797" y1="3967.7012" x2="-1110.3481" y2="3967.7012" gradientTransform="matrix(-4.371139e-08 -1 1 -4.371139e-08 -3911.0176 -1061.4478)">
			<stop  offset="0" style="stop-color:#181500"/>
			<stop  offset="1" style="stop-color:#5F5D5C"/>
		</linearGradient>
		<path fill="url(#SVGID_4_)" d="M78.599,72.019c1.189-1.133,1.785-2.562,1.785-4.17c0-1.669-0.596-3.097-1.787-4.229l-12.936-12.99
			c-1.19-1.133-2.563-1.729-4.23-1.729c-1.609,0-3.04,0.596-4.23,1.729c-1.132,1.19-1.729,2.621-1.729,4.229
			c0.001,1.668,0.599,3.037,1.73,4.229l2.801,2.738H38.94c-1.669,0-3.1,0.598-4.229,1.789c-1.193,1.133-1.729,2.561-1.729,4.228
			c0,1.609,0.535,3.037,1.729,4.173c1.133,1.188,2.562,1.729,4.23,1.786h21.062l-2.801,2.742c-1.133,1.131-1.729,2.562-1.729,4.23
			c0,1.607,0.6,3.039,1.729,4.229c1.191,1.133,2.623,1.729,4.23,1.729c1.669,0,3.04-0.597,4.23-1.728L78.599,72.019z"/>
	</g>
	<path opacity="0.5" fill="#FFFFFF" d="M78.585,67.736c-0.314,0.314-0.952,0.188-1.424-0.284L61.772,52.063
		c-0.473-0.472-0.601-1.11-0.286-1.424l0,0c0.314-0.314,0.952-0.187,1.424,0.286l15.39,15.389
		C78.771,66.785,78.899,67.422,78.585,67.736L78.585,67.736z"/>
</g>
</svg>
