<?xml version="1.0" encoding="utf-8"?>
<!-- Generator: Adobe Illustrator 13.0.0, SVG Export Plug-In . SVG Version: 6.00 Build 14948)  -->
<!DOCTYPE svg PUBLIC "-//W3C//DTD SVG 1.1//EN" "http://www.w3.org/Graphics/SVG/1.1/DTD/svg11.dtd">
<svg version="1.1" id="Layer_1" xmlns="http://www.w3.org/2000/svg" xmlns:xlink="http://www.w3.org/1999/xlink" x="0px" y="0px"
	 width="128px" height="128px" viewBox="0 0 128 128" enable-background="new 0 0 128 128" xml:space="preserve">
<g>
	<g>
		
			<radialGradient id="SVGID_1_" cx="71.9375" cy="61.2314" r="52.0734" gradientTransform="matrix(1 0 0 1 0 -9.765625e-04)" gradientUnits="userSpaceOnUse">
			<stop  offset="0" style="stop-color:#FAFAFA"/>
			<stop  offset="0.3109" style="stop-color:#F4F4F4"/>
			<stop  offset="0.7262" style="stop-color:#E3E3E3"/>
			<stop  offset="1" style="stop-color:#D4D4D4"/>
		</radialGradient>
		<path fill="url(#SVGID_1_)" stroke="#B3B3B3" stroke-width="2" d="M115.728,20.273v81.915c0,10.08-8.178,18.252-18.265,18.252
			H46.412c-10.089,0-18.264-8.172-18.264-18.252V20.273c0-10.079,8.175-18.251,18.264-18.251h51.051
			C107.55,2.022,115.728,10.194,115.728,20.273L115.728,20.273z"/>
		<path fill="#B3B3B3" d="M97.654,118.16H46.603c-10.089,0-18.264-8.174-18.264-18.252v2.279c0,10.08,8.175,18.252,18.264,18.252
			h51.052c10.087,0,18.265-8.172,18.265-18.252v-2.279C115.919,109.986,107.741,118.16,97.654,118.16z"/>
		<path fill="#FFFFFF" d="M39.091,9.849c2.037-1.7,4.342-2.848,7.512-2.848h51.052c3.17,0,5.475,1.147,7.513,2.848h2.576
			c-2.568-2.593-5.688-4.153-10.089-4.153H46.603c-4.4,0-7.519,1.561-10.088,4.153H39.091z"/>
	</g>
	<g>
		
			<radialGradient id="SVGID_2_" cx="48.9014" cy="76.4502" r="43.7833" gradientTransform="matrix(1 0 0 1 0 -9.765625e-04)" gradientUnits="userSpaceOnUse">
			<stop  offset="0" style="stop-color:#FAFAFA"/>
			<stop  offset="0.3109" style="stop-color:#F4F4F4"/>
			<stop  offset="0.7262" style="stop-color:#E3E3E3"/>
			<stop  offset="1" style="stop-color:#D4D4D4"/>
		</radialGradient>
		<path fill="url(#SVGID_2_)" stroke="#B3B3B3" stroke-width="1.8" d="M85.72,42.011v68.874c0,8.475-6.876,15.348-15.356,15.348
			H27.44c-8.483,0-15.357-6.873-15.357-15.348V42.011c0-8.475,6.874-15.346,15.357-15.346h42.923
			C78.844,26.666,85.72,33.537,85.72,42.011L85.72,42.011z"/>
		<path fill="#B3B3B3" d="M70.523,124.314H27.599c-8.482,0-15.356-6.871-15.356-15.348v1.918c0,8.475,6.874,15.348,15.356,15.348
			h42.925c8.481,0,15.356-6.873,15.356-15.348v-1.918C85.88,117.443,79.005,124.314,70.523,124.314z"/>
		<path fill="#FFFFFF" d="M21.284,33.247c1.712-1.429,3.65-2.394,6.314-2.394h42.925c2.665,0,4.604,0.965,6.316,2.394h2.167
			c-2.16-2.18-4.783-3.492-8.483-3.492H27.599c-3.699,0-6.321,1.312-8.481,3.492H21.284z"/>
	</g>
	<g>
		<g>
			
				<linearGradient id="SVGID_3_" gradientUnits="userSpaceOnUse" x1="3547.8115" y1="4428.9336" x2="3547.8115" y2="4388.6533" gradientTransform="matrix(-1 0 0 -1 3613.6562 4482.1367)">
				<stop  offset="0" style="stop-color:#80E21B"/>
				<stop  offset="1" style="stop-color:#80B400"/>
			</linearGradient>
			<path fill="url(#SVGID_3_)" stroke="#70993E" d="M89.181,77.814c1.267-1.205,1.9-2.729,1.9-4.441
				c0-1.777-0.634-3.297-1.901-4.502L75.406,55.039c-1.268-1.203-2.728-1.837-4.506-1.837c-1.713,0-3.239,0.634-4.506,1.837
				c-1.203,1.268-1.841,2.789-1.841,4.504c0,1.78,0.638,3.236,1.845,4.504l2.98,2.918l-22.425-0.002
				c-1.776,0-3.299,0.637-4.503,1.902c-1.271,1.211-1.84,2.729-1.84,4.504c0,1.715,0.569,3.236,1.84,4.443
				c1.207,1.27,2.73,1.842,4.505,1.898l22.425,0.006l-2.981,2.92c-1.204,1.205-1.842,2.73-1.842,4.504
				c0,1.713,0.64,3.234,1.842,4.502c1.269,1.205,2.794,1.84,4.503,1.84c1.78,0,3.239-0.631,4.51-1.84L89.181,77.814z"/>
			<g opacity="0.6">
				<path fill="#FFFFFF" d="M87.983,70.287L75.196,57.443c-1.182-1.123-2.535-1.709-4.186-1.709c-1.592,0-3.007,0.591-4.186,1.709
					c-0.861,0.907-1.403,1.954-1.611,3.112c-0.006-0.111-0.014-0.217-0.014-0.328c0-1.59,0.59-3.003,1.706-4.182
					c1.181-1.119,2.596-1.709,4.186-1.709c1.652,0,3.006,0.586,4.187,1.709l12.789,12.843c1.178,1.119,1.764,2.535,1.764,4.121
					c0,0.381-0.035,0.746-0.096,1.1C89.664,72.645,89.088,71.334,87.983,70.287z"/>
				<path fill="#FFFFFF" d="M71.49,68.92H47.333c-1.649,0.059-3.066,0.592-4.183,1.77c-0.899,0.852-1.419,1.873-1.617,3.018
					c-0.004-0.098-0.012-0.191-0.012-0.289c0-1.592,0.529-3.008,1.712-4.125c1.115-1.18,2.534-1.713,4.182-1.77h22.647L71.49,68.92z
					"/>
			</g>
		</g>
	</g>
</g>
</svg>
