<?xml version="1.0" encoding="utf-8"?>
<!-- Generator: Adobe Illustrator 13.0.0, SVG Export Plug-In . SVG Version: 6.00 Build 14948)  -->
<!DOCTYPE svg PUBLIC "-//W3C//DTD SVG 1.1//EN" "http://www.w3.org/Graphics/SVG/1.1/DTD/svg11.dtd">
<svg version="1.1" id="Layer_1" xmlns="http://www.w3.org/2000/svg" xmlns:xlink="http://www.w3.org/1999/xlink" x="0px" y="0px"
	 width="128px" height="128px" viewBox="0 0 128 128" enable-background="new 0 0 128 128" xml:space="preserve">
<g>
	<g>
		
			<radialGradient id="SVGID_1_" cx="-240.542" cy="76" r="46.6636" gradientTransform="matrix(1 0 0 -1 289.2754 151.834)" gradientUnits="userSpaceOnUse">
			<stop  offset="0" style="stop-color:#FAFAFA"/>
			<stop  offset="0.3109" style="stop-color:#F4F4F4"/>
			<stop  offset="0.7262" style="stop-color:#E3E3E3"/>
			<stop  offset="1" style="stop-color:#D4D4D4"/>
		</radialGradient>
		<path fill="url(#SVGID_1_)" stroke="#B3B3B3" stroke-width="1.6" d="M14.805,29.154l67.852,0.005
			c7.024,0,12.72,5.698,12.72,12.728l0.004,67.898c0,7.029-5.695,12.729-12.72,12.729l-67.853-0.002
			c-7.024,0-12.72-5.701-12.72-12.73L2.086,41.883C2.085,34.854,7.781,29.154,14.805,29.154L14.805,29.154z"/>
		<path fill="#B3B3B3" d="M82.68,118.621l-67.956-0.004c-6.422,0-11.722-4.764-12.598-10.95v1.815
			c0,7.031,5.696,12.729,12.72,12.729l67.854,0.004c7.022,0,12.72-5.698,12.72-12.729v-3.61
			C95.415,112.914,89.713,118.621,82.68,118.621z"/>
		<path fill="#FFFFFF" d="M17.092,35.818l63.413,0.003c5.994,0,10.938,4.445,11.754,10.218v-1.694
			c0-6.561-5.313-11.878-11.868-11.878l-63.312-0.004c-6.556,0-11.869,5.319-11.869,11.878v3.369
			C5.209,41.144,10.53,35.818,17.092,35.818z"/>
	</g>
	<g>
		
			<linearGradient id="SVGID_2_" gradientUnits="userSpaceOnUse" x1="-9720.3105" y1="-2418.8066" x2="-9720.3105" y2="-2360.7861" gradientTransform="matrix(0.3308 -0.346 0.3461 0.3305 4120.1689 -2519.4761)">
			<stop  offset="0" style="stop-color:#FFD207"/>
			<stop  offset="1" style="stop-color:#FAA61A"/>
		</linearGradient>
		<path fill="url(#SVGID_2_)" d="M90.016,19.138L41.724,69.645c0.459,0.445,1.856,1.963,2.254,4.146
			c2.353-0.189,4.978,0.611,5.613,1.207c2.26,2.165,1.544,5.828,1.544,5.828s4.164-0.484,6.186,1.65
			c0.534,0.562,1.301,2.596,1.626,4.801c1.707-0.039,3.441,2.021,3.825,2.508l48.308-50.528c0.848-0.884,0.817-2.287-0.067-3.132
			c0,0-1.986-4.331-8.209-10.274c-6.223-5.938-9.654-6.783-9.654-6.783C92.264,18.221,90.859,18.252,90.016,19.138z"/>
		
			<linearGradient id="SVGID_3_" gradientUnits="userSpaceOnUse" x1="-9621.2783" y1="-2390.4888" x2="-9620.8691" y2="-2412.9602" gradientTransform="matrix(0.3308 -0.346 0.3461 0.3305 4120.1689 -2519.4761)">
			<stop  offset="0" style="stop-color:#F66B87"/>
			<stop  offset="1" style="stop-color:#FCD0D9"/>
		</linearGradient>
		<path fill="url(#SVGID_3_)" d="M103.122,5.425L92.678,16.349c0.229,0.225,6.521,4.049,11.693,8.984
			c5.136,4.904,9.161,10.915,9.354,11.156l10.465-10.945c2.705-2.828-1.516-8.033-7.737-13.973
			C110.229,5.63,105.286,3.163,103.122,5.425z"/>
		
			<linearGradient id="SVGID_4_" gradientUnits="userSpaceOnUse" x1="-9807.9658" y1="-2411.7622" x2="-9802.8984" y2="-2389.8035" gradientTransform="matrix(0.3308 -0.346 0.3461 0.3305 4120.1689 -2519.4761)">
			<stop  offset="0" style="stop-color:#FAEDB0"/>
			<stop  offset="1" style="stop-color:#FFC76E"/>
		</linearGradient>
		<path fill="url(#SVGID_4_)" d="M62.854,89.889c0,0-0.033-0.039-0.082-0.104l-0.17,0.172L62.854,89.889z"/>
		
			<linearGradient id="SVGID_5_" gradientUnits="userSpaceOnUse" x1="-9794.2568" y1="-2413.2549" x2="-9789.4111" y2="-2392.2549" gradientTransform="matrix(0.3308 -0.346 0.3461 0.3305 4120.1689 -2519.4761)">
			<stop  offset="0" style="stop-color:#FAEDB0"/>
			<stop  offset="1" style="stop-color:#FFC76E"/>
		</linearGradient>
		<path fill="url(#SVGID_5_)" d="M41.579,69.499l-0.095,0.396l0.238-0.252C41.636,69.55,41.579,69.499,41.579,69.499z"/>
		<path fill="#F6921E" d="M58.946,87.277c-0.325-2.205-1.091-4.243-1.626-4.801c-2.021-2.136-6.183-1.654-6.183-1.654
			s0.716-3.659-1.547-5.825c-0.634-0.597-3.257-1.397-5.611-1.206c-0.396-2.184-1.797-3.703-2.254-4.148l-0.238,0.25l-0.996,4.051
			c0.028,0.035,0.052,0.074,0.083,0.104l17.86,17.064c0.02,0.017,0.04,0.021,0.059,0.037l4.108-1.196l0.172-0.173
			C62.39,89.298,60.657,87.234,58.946,87.277z"/>
		
			<linearGradient id="SVGID_6_" gradientUnits="userSpaceOnUse" x1="-9812.748" y1="-2408.2451" x2="-9810.125" y2="-2389.8894" gradientTransform="matrix(0.3308 -0.346 0.3461 0.3305 4120.1689 -2519.4761)">
			<stop  offset="0" style="stop-color:#FAEDB0"/>
			<stop  offset="1" style="stop-color:#FFC76E"/>
		</linearGradient>
		<path fill="url(#SVGID_6_)" d="M51.135,80.826c0,0,0.716-3.663-1.544-5.828c-0.636-0.596-3.261-1.396-5.613-1.207
			c-0.397-2.182-1.795-3.701-2.254-4.146l-0.238,0.252l-0.997,4.049l-2.431,9.861l-0.702,2.842l4.266,4.088l4.265,4.072l2.811-0.812
			l9.793-2.85l4.112-1.199l0.172-0.172c-0.384-0.486-2.116-2.549-3.83-2.506c-0.326-2.205-1.092-4.24-1.627-4.799
			C55.299,80.342,51.135,80.826,51.135,80.826z"/>
		
			<linearGradient id="SVGID_7_" gradientUnits="userSpaceOnUse" x1="-9837.168" y1="-2392.6392" x2="-9840.4346" y2="-2403.6653" gradientTransform="matrix(0.3308 -0.346 0.3461 0.3305 4120.1689 -2519.4761)">
			<stop  offset="0" style="stop-color:#231F20"/>
			<stop  offset="1" style="stop-color:#FFFFFF"/>
		</linearGradient>
		<polygon fill="url(#SVGID_7_)" points="37.366,86.671 34.567,98.135 45.893,94.82 45.888,94.812 41.621,90.738 		"/>
		
			<linearGradient id="SVGID_8_" gradientUnits="userSpaceOnUse" x1="-8650.1113" y1="4058.0156" x2="-8666.4785" y2="4044.1455" gradientTransform="matrix(0.4786 -0.011 0.0108 0.4784 4201.0693 -2004.1335)">
			<stop  offset="0" style="stop-color:#808080"/>
			<stop  offset="1" style="stop-color:#F2F2F2"/>
		</linearGradient>
		<path fill="url(#SVGID_8_)" d="M92.768,16.165l-5.797,6.152c0.233,0.223,5.867,3.604,11.047,8.542
			c5.131,4.901,9.806,11.368,10.012,11.587l5.804-6.158c0.388-0.411-3.542-5.916-9.763-11.861
			C97.852,18.486,93.152,15.755,92.768,16.165z"/>
		<g opacity="0.6">
			<path fill="#FFF8A2" d="M104.922,6.797L44.874,69.689c0.293,0.562,0.551,1.213,0.684,1.949c0.98-0.078,1.998,0.028,2.896,0.217
				l60.198-63.052C105.805,6.342,104.848,6.747,104.922,6.797z"/>
		</g>
		
			<linearGradient id="SVGID_9_" gradientUnits="userSpaceOnUse" x1="-2654.582" y1="380.1719" x2="-2654.582" y2="380.1719" gradientTransform="matrix(0.9576 -0.2881 -0.2881 -0.9576 2695.2817 -331.133)">
			<stop  offset="0" style="stop-color:#DEDEDE"/>
			<stop  offset="1" style="stop-color:#FEFEFE"/>
		</linearGradient>
		<path fill="url(#SVGID_9_)" stroke="#181512" stroke-width="1.0006" stroke-miterlimit="3.8637" d="M43.726,69.6"/>
		<g opacity="0.6">
			<path fill="#FFF8A2" d="M44.861,75.811l-0.009-0.006c-0.753-0.109-1.552-0.164-2.326-0.1c-0.139-0.755-0.399-1.426-0.696-2.002
				l-0.118-0.084l-6.06,22.488L44.861,75.811z"/>
		</g>
	</g>
</g>
</svg>
