<?xml version="1.0" encoding="utf-8"?>
<!-- Generator: Adobe Illustrator 13.0.0, SVG Export Plug-In . SVG Version: 6.00 Build 14948)  -->
<!DOCTYPE svg PUBLIC "-//W3C//DTD SVG 1.1//EN" "http://www.w3.org/Graphics/SVG/1.1/DTD/svg11.dtd">
<svg version="1.1" id="Layer_1" xmlns="http://www.w3.org/2000/svg" xmlns:xlink="http://www.w3.org/1999/xlink" x="0px" y="0px"
	 width="128px" height="128px" viewBox="0 0 128 128" enable-background="new 0 0 128 128" xml:space="preserve">
<g>
	<g>
		<radialGradient id="SVGID_1_" cx="64.2305" cy="63.4985" r="62.0549" gradientUnits="userSpaceOnUse">
			<stop  offset="0" style="stop-color:#FAFAFA"/>
			<stop  offset="0.3109" style="stop-color:#F4F4F4"/>
			<stop  offset="0.7262" style="stop-color:#E3E3E3"/>
			<stop  offset="1" style="stop-color:#D4D4D4"/>
		</radialGradient>
		<path fill="url(#SVGID_1_)" stroke="#B3B3B3" stroke-width="2" d="M19.111,1.422l90.232,0.006c9.342,0,16.915,7.578,16.915,16.927
			l0.005,90.294c0,9.349-7.574,16.927-16.915,16.927l-90.233-0.004c-9.341,0-16.915-7.58-16.915-16.928L2.197,18.349
			C2.196,9.001,9.771,1.422,19.111,1.422L19.111,1.422z"/>
		<path fill="#B3B3B3" d="M109.375,120.398l-90.371-0.005c-8.541,0-15.588-6.334-16.753-14.562v2.415
			c0,9.349,7.574,16.927,16.915,16.927l90.234,0.005c9.34,0,16.915-7.578,16.915-16.926v-4.803
			C126.311,112.81,118.728,120.398,109.375,120.398z"/>
		<path fill="#FFFFFF" d="M22.153,10.284l84.329,0.004c7.971,0,14.545,5.911,15.631,13.588v-2.254
			c0-8.724-7.066-15.795-15.783-15.795L22.133,5.822c-8.718,0-15.784,7.073-15.784,15.796v4.48
			C6.351,17.365,13.427,10.284,22.153,10.284z"/>
	</g>
	<g>
		<linearGradient id="SVGID_2_" gradientUnits="userSpaceOnUse" x1="64.2559" y1="16.2754" x2="64.2559" y2="107.374">
			<stop  offset="0" style="stop-color:#32AECE"/>
			<stop  offset="1" style="stop-color:#094E86"/>
		</linearGradient>
		<path fill="url(#SVGID_2_)" d="M115.742,90.857c0,9.123-7.395,16.517-16.514,16.517H29.287c-9.123,0-16.518-7.394-16.518-16.517
			V32.793c0-9.123,7.395-16.518,16.518-16.518h69.941c9.119,0,16.514,7.395,16.514,16.518V90.857z"/>
		<g>
			<linearGradient id="SVGID_3_" gradientUnits="userSpaceOnUse" x1="59.0107" y1="93.4648" x2="47.2834" y2="85.2533">
				<stop  offset="0" style="stop-color:#DEDEDE"/>
				<stop  offset="1" style="stop-color:#FEFEFE"/>
			</linearGradient>
			<polygon opacity="0.8" fill="url(#SVGID_3_)" points="49.225,82.482 49.201,96.357 63.598,86.916 49.225,82.482 			"/>
			<linearGradient id="SVGID_4_" gradientUnits="userSpaceOnUse" x1="89.2549" y1="77.1924" x2="49.1108" y2="49.0832">
				<stop  offset="0" style="stop-color:#DEDEDE"/>
				<stop  offset="1" style="stop-color:#FEFEFE"/>
			</linearGradient>
			<polygon fill="url(#SVGID_4_)" points="107.441,51.22 48.797,81.26 30.924,75.057 107.441,51.22 			"/>
			<linearGradient id="SVGID_5_" gradientUnits="userSpaceOnUse" x1="95.5508" y1="78.2754" x2="66.6853" y2="58.0635">
				<stop  offset="0" style="stop-color:#DEDEDE"/>
				<stop  offset="1" style="stop-color:#FEFEFE"/>
			</linearGradient>
			<polygon fill="url(#SVGID_5_)" points="107.971,51.74 50.131,81.705 85.188,93.076 107.971,51.74 			"/>
		</g>
		<g>
			<path fill="#FFFFFF" d="M61.783,44.355c0,0,0.52-2.389-1.738-3.297c-2.256-0.914-4.107,1.467-4.107,1.467s2.66-5.425-2.881-6.758
				c-5.541-1.326-6.982,4.543-6.982,4.543s0.221-8.088-5.654-6.759c-4.34,0.983-7.896,3.91-8.109,6.886
				c-0.486-0.51-1.234-0.515-2.121-0.826c-3.297-1.156-10.857,5.029-3.693,9.678c4.217,2.738,6.574-0.811,6.574-0.811
				c2.439,2.508,5.025,3.029,8.645,2.287c3.619-0.74,5.246-2.809,5.246-2.809c4.209,4.142,9.307-0.736,9.307-0.736
				c1.701,2.068,5.025-0.445,5.025-0.445c1.699,1.922,4.486,1.573,4.529-0.941C65.865,43.316,61.783,44.355,61.783,44.355z"/>
			<path fill="#E6E6E6" d="M65.453,47.051c0,0-2.893,0.381-3.713-1.637c0,0-3.588,2.646-4.471-0.127
				c-0.061,0.255-0.061,0.255-0.061,0.255s-8.566,3.333-10.139-0.694c0,0-8.184,7.555-12.59,0.756c0,0-6.748,5.668-10.648,0.82
				c-0.014-0.02,0,0.154,0.148,0c0.107,1.001,1.1,2.426,2.881,3.23c4.58,2.068,6.209-1.176,6.209-1.176
				c2.439,2.508,5.025,3.029,8.645,2.287c3.619-0.74,5.246-2.809,5.246-2.809c4.209,4.142,9.307-0.736,9.307-0.736
				c1.701,2.068,5.025-0.445,5.025-0.445c1.355,1.533,3.402,1.621,4.195,0.318L65.453,47.051z"/>
		</g>
	</g>
	<g>
		
			<linearGradient id="SVGID_6_" gradientUnits="userSpaceOnUse" x1="-22.4194" y1="-103.4331" x2="-55.539" y2="-80.2425" gradientTransform="matrix(1 0 0 -1 123.3447 2.9531)">
			<stop  offset="0" style="stop-color:#80C11B"/>
			<stop  offset="1" style="stop-color:#80E21B"/>
		</linearGradient>
		<path fill="url(#SVGID_6_)" stroke="#70993E" stroke-miterlimit="3.8637" d="M90.374,78.536v10.241h10.236
			c4.036,0,7.307,2.695,7.307,6.014c0,3.322-3.271,6.012-7.307,6.012H90.374v10.241c0,4.038-2.688,7.312-6.007,7.312
			s-6.01-3.273-6.01-7.312v-10.241H68.121c-4.033,0-7.307-2.692-7.307-6.012c0-3.32,3.273-6.014,7.307-6.014h10.236V78.536
			c0-4.038,2.689-7.312,6.008-7.312S90.374,74.498,90.374,78.536L90.374,78.536z"/>
		<g opacity="0.5">
			<path fill="#FFFFFF" d="M84.47,73.629c2.64,0,4.78,2.604,4.78,5.814v-0.904c0-3.213-2.141-5.814-4.78-5.814
				s-4.777,2.604-4.777,5.814v0.904C79.692,76.232,81.83,73.629,84.47,73.629z"/>
		</g>
	</g>
</g>
</svg>
