<?xml version="1.0" encoding="utf-8"?>
<!-- Generator: Adobe Illustrator 13.0.0, SVG Export Plug-In . SVG Version: 6.00 Build 14948)  -->
<!DOCTYPE svg PUBLIC "-//W3C//DTD SVG 1.1//EN" "http://www.w3.org/Graphics/SVG/1.1/DTD/svg11.dtd">
<svg version="1.1" id="Layer_1" xmlns="http://www.w3.org/2000/svg" xmlns:xlink="http://www.w3.org/1999/xlink" x="0px" y="0px"
	 width="128px" height="128px" viewBox="0 0 128 128" enable-background="new 0 0 128 128" xml:space="preserve">
<g>
	<g>
		<g>
			
				<linearGradient id="SVGID_1_" gradientUnits="userSpaceOnUse" x1="-6401.5674" y1="-573.4731" x2="-6401.5674" y2="-694.1606" gradientTransform="matrix(-1 0 0 -1 -6337.6045 -568.8613)">
				<stop  offset="0" style="stop-color:#99DBF6"/>
				<stop  offset="1" style="stop-color:#00B2DE"/>
			</linearGradient>
			<path fill="url(#SVGID_1_)" d="M53.865,25.301c-0.004-5.438-0.006-9.588-0.008-10.453c0-2.768-1.027-5.229-2.975-7.271
				c-2.049-1.948-4.506-2.97-7.271-2.966c-2.867,0-5.222,1.025-7.27,2.969L14.139,29.924c-2.039,1.951-3.064,4.41-3.062,7.178
				c0.002,2.865,1.025,5.324,3.074,7.268l22.235,22.315c2.05,1.947,4.406,2.974,7.272,2.97c2.768,0,5.226-1.024,7.268-2.974
				c1.944-2.049,2.969-4.509,2.969-7.271c-0.002-0.877-0.006-5.112-0.01-10.644c52.771,6.087,50.934,56.241,48.484,74.456
				c-0.231,1.736,1.92,2.854,2.933,1.425c7.269-10.271,11.547-22.802,11.547-36.339C116.85,53.514,88.652,25.309,53.865,25.301z"/>
		</g>
	</g>
	<g>
		<path opacity="0.5" fill="#FFFFFF" d="M53.758,28.587l0.062,3.047c31.8-0.948,58.35,24.058,59.305,55.854
			c0.341,11.368-2.662,22.036-8.073,31.138c0.027-0.037,0.065-0.055,0.097-0.1c6.359-9.593,9.913-21.163,9.539-33.547
			C113.734,53.18,85.559,27.643,53.758,28.587z"/>
	</g>
	<path opacity="0.5" fill="#FFFFFF" d="M17.49,35.708c-0.528,0.541-1.441,0.504-2.037-0.079l0,0
		c-0.598-0.583-0.654-1.495-0.127-2.036L40.174,8.18c0.528-0.539,1.44-0.505,2.038,0.079l0,0c0.597,0.584,0.653,1.497,0.126,2.035
		L17.49,35.708z"/>
	<g>
		<g>
			
				<linearGradient id="SVGID_2_" gradientUnits="userSpaceOnUse" x1="-12011.7246" y1="-8745.9658" x2="-12011.7246" y2="-8691.8291" gradientTransform="matrix(1 0 0 1 12105.1123 8746.7715)">
				<stop  offset="0" style="stop-color:#5F5D5C"/>
				<stop  offset="1" style="stop-color:#181500"/>
			</linearGradient>
			<path fill="url(#SVGID_2_)" d="M97.917,45.661c0.002,2.439,0.003,4.301,0.004,4.689c0,1.241,0.461,2.346,1.334,3.262
				c0.92,0.873,2.021,1.332,3.262,1.33c1.287,0,2.343-0.46,3.262-1.332l9.959-10.022c0.915-0.875,1.375-1.979,1.374-3.22
				c-0.001-1.285-0.46-2.389-1.379-3.26l-9.974-10.01c-0.92-0.874-1.977-1.334-3.263-1.332c-1.241,0-2.345,0.459-3.261,1.334
				c-0.871,0.918-1.331,2.021-1.331,3.262c0.001,0.393,0.003,2.293,0.005,4.773C74.237,32.405,75.062,9.908,76.16,1.737
				c0.104-0.779-0.861-1.28-1.315-0.639c-3.261,4.606-5.18,10.228-5.18,16.3C69.665,33.007,82.313,45.658,97.917,45.661z"/>
		</g>
	</g>
	<path opacity="0.5" fill="#FFFFFF" d="M115.321,38.707c0.242,0.237,0.226,0.646-0.035,0.913l0,0
		c-0.262,0.269-0.671,0.294-0.914,0.058l-11.399-11.146c-0.241-0.237-0.227-0.646,0.036-0.915l0,0
		c0.262-0.268,0.671-0.293,0.912-0.056L115.321,38.707z"/>
</g>
</svg>
