<?xml version="1.0" encoding="utf-8"?>
<!-- Generator: Adobe Illustrator 13.0.0, SVG Export Plug-In . SVG Version: 6.00 Build 14948)  -->
<!DOCTYPE svg PUBLIC "-//W3C//DTD SVG 1.1//EN" "http://www.w3.org/Graphics/SVG/1.1/DTD/svg11.dtd">
<svg version="1.1" id="Layer_1" xmlns="http://www.w3.org/2000/svg" xmlns:xlink="http://www.w3.org/1999/xlink" x="0px" y="0px"
	 width="128px" height="128px" viewBox="0 0 128 128" enable-background="new 0 0 128 128" xml:space="preserve">
<g>
	<g>
		<g>
			
				<linearGradient id="SVGID_1_" gradientUnits="userSpaceOnUse" x1="-348.8228" y1="815.9023" x2="-348.8228" y2="942.1328" gradientTransform="matrix(1 0 0 1 412.6201 -813.9902)">
				<stop  offset="0" style="stop-color:#80E21B"/>
				<stop  offset="1" style="stop-color:#80B400"/>
			</linearGradient>
			<path fill="url(#SVGID_1_)" d="M109.034,3.932C102.2-0.129,93.354,2.127,89.3,8.968L46.112,81.764l-6.916-16.469
				c-3.084-7.344-11.519-10.788-18.856-7.699c-7.328,3.068-10.781,11.519-7.705,18.858l17.981,42.854
				c2.113,5.018,6.863,8.42,12.293,8.801c5.421,0.371,10.596-2.346,13.371-7.023l57.787-97.403
				C118.126,16.842,115.87,7.992,109.034,3.932L109.034,3.932z"/>
		</g>
		<g opacity="0.5">
			<path fill="#FFFFFF" d="M21.873,61.422c6.796-2.96,14.981,0.794,18.276,8.382l-0.928-2.137
				c-3.299-7.594-11.48-11.342-18.276-8.383c-6.796,2.963-9.626,11.516-6.33,19.104l0.928,2.136
				C12.248,72.937,15.079,64.384,21.873,61.422z"/>
		</g>
		<path opacity="0.5" fill="#FFFFFF" d="M47.605,85.727l-0.795-2.253l43.197-72.936c0,0,1.781-2.656,2.622-3.545
			c1.612-1.708,3.08-2.126,3.08-2.126L47.605,85.727z"/>
	</g>
	<g>
		<g>
			
				<linearGradient id="SVGID_2_" gradientUnits="userSpaceOnUse" x1="-12010.8887" y1="-8746.9658" x2="-12010.8887" y2="-8692.8291" gradientTransform="matrix(1 0 0 1 12105.1123 8746.7715)">
				<stop  offset="0" style="stop-color:#5F5D5C"/>
				<stop  offset="1" style="stop-color:#181500"/>
			</linearGradient>
			<path fill="url(#SVGID_2_)" d="M98.753,44.661c0.002,2.439,0.003,4.301,0.004,4.689c0,1.241,0.461,2.346,1.334,3.262
				c0.92,0.873,2.021,1.332,3.262,1.33c1.287,0,2.343-0.46,3.262-1.332l9.959-10.022c0.915-0.875,1.375-1.979,1.374-3.22
				c-0.001-1.285-0.46-2.389-1.379-3.26l-9.974-10.01c-0.92-0.874-1.977-1.334-3.263-1.332c-1.241,0-2.345,0.459-3.261,1.334
				c-0.871,0.918-1.331,2.021-1.331,3.262c0.001,0.393,0.003,2.293,0.005,4.773C75.073,31.405,75.897,8.908,76.996,0.737
				c0.104-0.779-0.861-1.28-1.315-0.639c-3.261,4.606-5.18,10.228-5.18,16.3C70.501,32.007,83.149,44.658,98.753,44.661z"/>
		</g>
	</g>
	<path opacity="0.5" fill="#FFFFFF" d="M116.157,37.707c0.242,0.237,0.226,0.646-0.035,0.913l0,0
		c-0.262,0.269-0.671,0.294-0.914,0.058l-11.399-11.146c-0.241-0.237-0.227-0.646,0.036-0.915l0,0
		c0.262-0.268,0.671-0.293,0.912-0.056L116.157,37.707z"/>
</g>
</svg>
