<?xml version="1.0" encoding="utf-8"?>
<!-- Generator: Adobe Illustrator 13.0.0, SVG Export Plug-In . SVG Version: 6.00 Build 14948)  -->
<!DOCTYPE svg PUBLIC "-//W3C//DTD SVG 1.1//EN" "http://www.w3.org/Graphics/SVG/1.1/DTD/svg11.dtd">
<svg version="1.1" id="Layer_1" xmlns="http://www.w3.org/2000/svg" xmlns:xlink="http://www.w3.org/1999/xlink" x="0px" y="0px"
	 width="128px" height="128px" viewBox="0 0 128 128" enable-background="new 0 0 128 128" xml:space="preserve">
<g>
	<g>
		<radialGradient id="SVGID_1_" cx="53.8716" cy="51.5298" r="48.9951" gradientUnits="userSpaceOnUse">
			<stop  offset="0" style="stop-color:#FAFAFA"/>
			<stop  offset="0.3109" style="stop-color:#F4F4F4"/>
			<stop  offset="0.7262" style="stop-color:#E3E3E3"/>
			<stop  offset="1" style="stop-color:#D4D4D4"/>
		</radialGradient>
		<path fill="url(#SVGID_1_)" stroke="#B3B3B3" stroke-width="1.6" d="M18.248,2.518L89.49,2.522
			c7.377,0,13.355,5.983,13.355,13.364l0.004,71.291c0,7.382-5.98,13.364-13.355,13.364l-71.243-0.003
			c-7.376,0-13.355-5.984-13.355-13.365L4.894,15.882C4.893,8.502,10.873,2.518,18.248,2.518L18.248,2.518z"/>
		<path fill="#B3B3B3" d="M89.515,96.455l-71.352-0.004c-6.743,0-12.308-5.001-13.228-11.497v1.907
			c0,7.382,5.98,13.364,13.355,13.364l71.244,0.004c7.375,0,13.355-5.984,13.355-13.364v-3.792
			C102.887,90.463,96.899,96.455,89.515,96.455z"/>
		<path fill="#FFFFFF" d="M20.649,9.515l66.582,0.003c6.294,0,11.483,4.668,12.341,10.729v-1.778
			c0-6.889-5.578-12.473-12.461-12.473L20.634,5.991c-6.883,0-12.462,5.586-12.462,12.472v3.538
			C8.173,15.106,13.76,9.515,20.649,9.515z"/>
	</g>
	<g>
		
			<linearGradient id="SVGID_2_" gradientUnits="userSpaceOnUse" x1="-7.6079" y1="-110.2397" x2="-40.7275" y2="-87.0492" gradientTransform="matrix(1 0 0 -1 123.3447 2.9531)">
			<stop  offset="0" style="stop-color:#80C11B"/>
			<stop  offset="1" style="stop-color:#80E21B"/>
		</linearGradient>
		<path fill="url(#SVGID_2_)" stroke="#70993E" stroke-miterlimit="3.8637" d="M105.186,85.342v10.241h10.236
			c4.036,0,7.307,2.695,7.307,6.014c0,3.322-3.271,6.012-7.307,6.012h-10.236v10.241c0,4.038-2.688,7.312-6.007,7.312
			s-6.01-3.273-6.01-7.312v-10.241H82.933c-4.033,0-7.307-2.692-7.307-6.012c0-3.32,3.273-6.014,7.307-6.014h10.236V85.342
			c0-4.038,2.689-7.312,6.008-7.312S105.186,81.304,105.186,85.342L105.186,85.342z"/>
		<g opacity="0.5">
			<path fill="#FFFFFF" d="M99.281,80.435c2.64,0,4.78,2.604,4.78,5.814v-0.904c0-3.213-2.141-5.814-4.78-5.814
				s-4.777,2.604-4.777,5.814v0.904C94.504,83.038,96.642,80.435,99.281,80.435z"/>
		</g>
	</g>
	<g>
		
			<linearGradient id="SVGID_3_" gradientUnits="userSpaceOnUse" x1="-377.9121" y1="839.084" x2="-377.9121" y2="891.5156" gradientTransform="matrix(1 0 0 1 412.6201 -813.9912)">
			<stop  offset="0" style="stop-color:#EC008C"/>
			<stop  offset="1" style="stop-color:#C40075"/>
		</linearGradient>
		<path fill="url(#SVGID_3_)" d="M53.229,62.683c0,4.729-1.463,8.38-4.383,10.966c-2.921,2.582-6.736,3.875-11.451,3.875H16.188
			V25.093h20.398c4.908,0,8.773,1.285,11.599,3.856c2.822,2.567,4.233,6.058,4.233,10.462c0,2.596-0.736,4.969-2.209,7.123
			c-1.325,1.811-2.947,3.131-4.86,3.964C50.602,52.567,53.229,56.627,53.229,62.683z M44.466,39.712
			c0-2.395-0.788-4.229-2.356-5.496c-1.475-1.318-3.535-1.979-6.188-1.979H24.14v14.95h11.784c2.648,0,4.736-0.647,6.258-1.942
			C43.703,43.95,44.466,42.104,44.466,39.712z M45.273,62.319c0-2.369-0.746-4.291-2.244-5.771s-3.621-2.221-6.371-2.221H24.14
			v16.054h12.519c2.604,0,4.714-0.738,6.334-2.22C44.513,66.635,45.273,64.686,45.273,62.319z"/>
		
			<linearGradient id="SVGID_4_" gradientUnits="userSpaceOnUse" x1="-336.1597" y1="853.7373" x2="-336.1597" y2="891.959" gradientTransform="matrix(1 0 0 1 412.6201 -813.9912)">
			<stop  offset="0" style="stop-color:#EC008C"/>
			<stop  offset="1" style="stop-color:#C40075"/>
		</linearGradient>
		<path fill="url(#SVGID_4_)" d="M91.594,77.523H84.23v-3.387c-2.555,2.553-5.867,3.83-9.942,3.83
			c-4.417,0-7.757-1.129-10.015-3.391c-1.965-2.061-2.947-4.738-2.947-8.027c0-3.191,1.125-5.78,3.373-7.768
			c2.248-1.988,5.447-2.981,9.599-2.981h9.933v-2.652c0-4.661-2.75-6.992-8.246-6.992c-3.567,0-6.318,1.203-8.25,3.607l-4.934-4.641
			c1.669-1.962,3.521-3.35,5.561-4.16c2.037-0.811,4.651-1.216,7.842-1.216c10.262,0,15.393,4.271,15.393,12.815v24.962H91.594z
			 M84.23,64.049v-3.02h-8.849c-4.513,0-6.763,1.792-6.763,5.377c0,3.533,2.305,5.301,6.912,5.301c3.221,0,5.574-0.711,7.063-2.137
			C83.684,68.492,84.23,66.652,84.23,64.049z"/>
	</g>
</g>
</svg>
