<?xml version="1.0" encoding="utf-8"?>
<!-- Generator: Adobe Illustrator 13.0.0, SVG Export Plug-In . SVG Version: 6.00 Build 14948)  -->
<!DOCTYPE svg PUBLIC "-//W3C//DTD SVG 1.1//EN" "http://www.w3.org/Graphics/SVG/1.1/DTD/svg11.dtd">
<svg version="1.1" id="Layer_1" xmlns="http://www.w3.org/2000/svg" xmlns:xlink="http://www.w3.org/1999/xlink" x="0px" y="0px"
	 width="128px" height="128px" viewBox="0 0 128 128" enable-background="new 0 0 128 128" xml:space="preserve">
<g>
	<linearGradient id="SVGID_1_" gradientUnits="userSpaceOnUse" x1="63.9995" y1="113.6826" x2="63.9995" y2="48.7077">
		<stop  offset="0" style="stop-color:#00B2DE"/>
		<stop  offset="1" style="stop-color:#99DBF6"/>
	</linearGradient>
	<path fill="url(#SVGID_1_)" d="M107.252,34.988H20.75c-8.881,0-16.08,7.199-16.08,16.076v45.357c0,8.881,7.199,16.078,16.08,16.078
		h86.501c8.879,0,16.076-7.197,16.076-16.078V51.064C123.328,42.188,116.131,34.988,107.252,34.988z"/>
	<line fill="none" stroke="#FFFFFF" stroke-width="2" stroke-miterlimit="3.8637" x1="9.403" y1="107.809" x2="41.09" y2="77.91"/>
	
		<line fill="none" stroke="#FFFFFF" stroke-width="2" stroke-miterlimit="3.8637" x1="88.424" y1="77.766" x2="118.598" y2="107.816"/>
	<path fill="#FFFFFF" d="M11.563,42.322c2.4-2.766,5.934-4.525,9.875-4.525h84.494c3.941,0,7.475,1.76,9.875,4.525h1.67
		c-2.625-3.531-6.816-5.834-11.545-5.834H21.438c-4.729,0-8.92,2.303-11.545,5.834H11.563z"/>
	<path fill="#059CC2" d="M107.252,109.833H20.75c-8.881,0-16.08-7.197-16.08-16.078v2.667c0,8.881,7.199,16.078,16.08,16.078h86.501
		c8.879,0,16.076-7.197,16.076-16.078v-2.667C123.328,102.636,116.131,109.833,107.252,109.833z"/>
	<linearGradient id="SVGID_2_" gradientUnits="userSpaceOnUse" x1="93.3271" y1="70.6934" x2="40.1903" y2="33.4865">
		<stop  offset="0" style="stop-color:#FF1F00"/>
		<stop  offset="1" style="stop-color:#FF9D00"/>
	</linearGradient>
	<path fill="url(#SVGID_2_)" d="M42.477,79.195c0,0,11.473,13.582,21.794,13.582c10.321,0,22.37-13.582,22.37-13.582l2.689-2.792
		c-1.6-7.577-5.467-15.496-6.215-18.42c-0.975-3.797-2.982-11.979-3.256-14.164c-0.275-2.186-0.521-11.893-0.521-11.893
		S78.5,46.374,77.977,49.275c-0.523,2.897-1.758,8.444-2.406,10.702c-0.104,0.361-0.314,1.033-0.598,1.929
		c-2.729-8.925-6.594-17.161-7.486-20.638c-1.447-5.649-4.434-17.813-4.842-21.062c-0.407-3.248-0.772-17.684-0.772-17.684
		s-1.248,21.483-2.027,25.794c-0.779,4.31-2.613,12.559-3.578,15.915c-0.449,1.565-2.251,6.975-3.986,13.321
		c-0.94-2.389-1.729-4.33-2.023-5.485c-0.973-3.8-2.982-11.982-3.258-14.166c-0.274-2.185-0.521-11.894-0.521-11.894
		s-0.839,14.447-1.362,17.348c-0.522,2.898-1.756,8.445-2.405,10.701c-0.569,1.979-4.349,13.091-5.011,20.359L42.477,79.195z"/>
	<g>
		<linearGradient id="SVGID_3_" gradientUnits="userSpaceOnUse" x1="58.9321" y1="76.9141" x2="67.4102" y2="76.9141">
			<stop  offset="0" style="stop-color:#FBB318"/>
			<stop  offset="1" style="stop-color:#FFE600"/>
		</linearGradient>
		<path fill="url(#SVGID_3_)" d="M64.271,92.777c1.034,0,2.084-0.142,3.139-0.387c-0.672-2.778-1.959-8.174-2.639-11.495
			c-0.949-4.619-2.318-19.846-2.318-19.846s-1.143,16.33-1.978,20.453c-0.69,3.402-1.276,7.272-1.544,10.21
			C60.704,92.373,62.504,92.777,64.271,92.777z"/>
		<linearGradient id="SVGID_4_" gradientUnits="userSpaceOnUse" x1="78.1172" y1="79.1621" x2="81.2617" y2="79.1621">
			<stop  offset="0" style="stop-color:#FBB318"/>
			<stop  offset="1" style="stop-color:#FFE600"/>
		</linearGradient>
		<path fill="url(#SVGID_4_)" d="M81.262,84.388c-0.633-3.472-1.486-12.975-1.486-12.975s-0.771,10.984-1.33,13.758
			c-0.115,0.564-0.225,1.149-0.328,1.739C79.244,86.07,80.301,85.214,81.262,84.388z"/>
		<linearGradient id="SVGID_5_" gradientUnits="userSpaceOnUse" x1="44.4556" y1="75.6328" x2="49.3999" y2="75.6328">
			<stop  offset="0" style="stop-color:#FBB318"/>
			<stop  offset="1" style="stop-color:#FFE600"/>
		</linearGradient>
		<path fill="url(#SVGID_5_)" d="M49.4,85.9c-0.474-1.967-1.228-5.154-1.645-7.187c-0.638-3.107-1.558-13.348-1.558-13.348
			s-0.77,10.982-1.33,13.756c-0.146,0.719-0.285,1.469-0.412,2.22C45.67,82.591,47.379,84.241,49.4,85.9z"/>
	</g>
	<path fill="none" stroke="#FFFFFF" stroke-width="2" stroke-miterlimit="3.8637" d="M6.606,43.416l36.027,36.037
		c0,0,11.473,13.584,21.795,13.584c10.32,0,22.369-13.582,22.369-13.582L121.439,43.5"/>
</g>
</svg>
