<?xml version="1.0" encoding="utf-8"?>
<!-- Generator: Adobe Illustrator 13.0.0, SVG Export Plug-In . SVG Version: 6.00 Build 14948)  -->
<!DOCTYPE svg PUBLIC "-//W3C//DTD SVG 1.1//EN" "http://www.w3.org/Graphics/SVG/1.1/DTD/svg11.dtd">
<svg version="1.1" id="Layer_1" xmlns="http://www.w3.org/2000/svg" xmlns:xlink="http://www.w3.org/1999/xlink" x="0px" y="0px"
	 width="32.936px" height="21.688px" viewBox="0 0 32.936 21.688" enable-background="new 0 0 32.936 21.688" xml:space="preserve">
<g>
	<linearGradient id="SVGID_1_" gradientUnits="userSpaceOnUse" x1="16.468" y1="21.7512" x2="16.468" y2="4.0081">
		<stop  offset="0" style="stop-color:#00B2DE"/>
		<stop  offset="1" style="stop-color:#99DBF6"/>
	</linearGradient>
	<path fill="url(#SVGID_1_)" d="M28.278,0.261H4.657c-2.425,0-4.391,1.966-4.391,4.392v12.385c0,2.424,1.966,4.391,4.391,4.391
		h23.621c2.424,0,4.391-1.967,4.391-4.391V4.653C32.669,2.227,30.702,0.261,28.278,0.261z"/>
	<path fill="none" stroke="#FFFFFF" stroke-width="2" stroke-miterlimit="3.8637" d="M0.795,2.563l9.838,9.84
		c0,0,3.133,3.711,5.952,3.711c2.818,0,6.107-3.709,6.107-3.709l9.459-9.818"/>
	<line fill="none" stroke="#FFFFFF" stroke-width="2" stroke-miterlimit="3.8637" x1="1.56" y1="20.147" x2="10.212" y2="11.983"/>
	
		<line fill="none" stroke="#FFFFFF" stroke-width="2" stroke-miterlimit="3.8637" x1="23.137" y1="11.944" x2="31.378" y2="20.149"/>
	<path fill="#FFFFFF" d="M2.149,2.264c0.656-0.754,1.62-1.235,2.696-1.235h23.074c1.076,0,2.039,0.481,2.695,1.235h0.457
		C30.352,1.3,29.21,0.671,27.919,0.671H4.845c-1.291,0-2.436,0.629-3.151,1.593H2.149z"/>
	<path fill="#059CC2" d="M28.278,20.699H4.657c-2.425,0-4.391-1.965-4.391-4.391v0.729c0,2.424,1.966,4.391,4.391,4.391h23.621
		c2.424,0,4.391-1.967,4.391-4.391v-0.729C32.669,18.735,30.702,20.699,28.278,20.699z"/>
	<g>
		
			<linearGradient id="SVGID_2_" gradientUnits="userSpaceOnUse" x1="3502.1248" y1="4374.1768" x2="3502.1248" y2="4355.7803" gradientTransform="matrix(-1 0 0 -1 3518.5916 4375.8247)">
			<stop  offset="0" style="stop-color:#E20A16"/>
			<stop  offset="1" style="stop-color:#B51015"/>
		</linearGradient>
		<path fill="url(#SVGID_2_)" d="M27.124,12.887c0.578-0.549,0.867-1.246,0.867-2.027c0-0.811-0.289-1.506-0.869-2.055l-6.289-6.318
			c-0.578-0.549-1.246-0.84-2.057-0.84c-0.783,0-1.48,0.291-2.058,0.84c-0.551,0.578-0.84,1.273-0.84,2.057
			c0,0.812,0.289,1.479,0.842,2.057l1.361,1.334L7.839,7.932c-0.811,0-1.506,0.291-2.055,0.869c-0.58,0.553-0.84,1.246-0.84,2.057
			c0,0.783,0.26,1.479,0.84,2.029c0.551,0.578,1.246,0.842,2.057,0.869h10.242l-1.363,1.332c-0.551,0.553-0.84,1.248-0.84,2.059
			c0,0.781,0.291,1.477,0.84,2.057c0.58,0.549,1.277,0.84,2.056,0.84c0.812,0,1.48-0.289,2.061-0.84L27.124,12.887z"/>
		<g opacity="0.6">
			<path fill="#FFFFFF" d="M26.577,9.449l-5.84-5.865c-0.539-0.514-1.158-0.779-1.91-0.779c-0.727,0-1.373,0.27-1.912,0.779
				C16.523,4,16.273,4.477,16.179,5.006c-0.002-0.051-0.006-0.1-0.006-0.15c0-0.725,0.27-1.371,0.779-1.91
				c0.539-0.512,1.185-0.779,1.912-0.779c0.754,0,1.371,0.268,1.91,0.779l5.84,5.865c0.539,0.512,0.807,1.158,0.807,1.883
				c0,0.174-0.016,0.34-0.045,0.502C27.344,10.526,27.081,9.928,26.577,9.449z"/>
			<path fill="#FFFFFF" d="M19.046,8.826H8.013c-0.752,0.025-1.398,0.27-1.908,0.807c-0.412,0.391-0.65,0.855-0.74,1.379
				c-0.002-0.045-0.006-0.088-0.006-0.131c0-0.729,0.242-1.375,0.781-1.885c0.512-0.539,1.158-0.783,1.91-0.809h10.343L19.046,8.826
				z"/>
		</g>
	</g>
</g>
</svg>
