<?xml version="1.0" encoding="utf-8"?>
<!-- Generator: Adobe Illustrator 13.0.0, SVG Export Plug-In . SVG Version: 6.00 Build 14948)  -->
<!DOCTYPE svg PUBLIC "-//W3C//DTD SVG 1.1//EN" "http://www.w3.org/Graphics/SVG/1.1/DTD/svg11.dtd">
<svg version="1.1" id="Layer_1" xmlns="http://www.w3.org/2000/svg" xmlns:xlink="http://www.w3.org/1999/xlink" x="0px" y="0px"
	 width="128px" height="128px" viewBox="0 0 128 128" enable-background="new 0 0 128 128" xml:space="preserve">
<g>
	<linearGradient id="SVGID_1_" gradientUnits="userSpaceOnUse" x1="64.0005" y1="113.6826" x2="64.0005" y2="48.7077">
		<stop  offset="0" style="stop-color:#00B2DE"/>
		<stop  offset="1" style="stop-color:#99DBF6"/>
	</linearGradient>
	<path fill="url(#SVGID_1_)" d="M107.253,34.988H20.749c-8.879,0-16.078,7.199-16.078,16.076v45.357
		c0,8.881,7.199,16.078,16.078,16.078h86.504c8.877,0,16.076-7.197,16.076-16.078V51.064
		C123.329,42.188,116.13,34.988,107.253,34.988z"/>
	<path fill="none" stroke="#FFFFFF" stroke-width="2" stroke-miterlimit="3.8637" d="M6.604,43.416l36.029,36.037
		c0,0,11.473,13.584,21.793,13.584c10.322,0,22.369-13.582,22.369-13.582L121.438,43.5"/>
	<line fill="none" stroke="#FFFFFF" stroke-width="2" stroke-miterlimit="3.8637" x1="9.401" y1="107.809" x2="41.091" y2="77.91"/>
	
		<line fill="none" stroke="#FFFFFF" stroke-width="2" stroke-miterlimit="3.8637" x1="88.425" y1="77.766" x2="118.599" y2="107.816"/>
	<path fill="#FFFFFF" d="M11.562,42.322c2.402-2.766,5.934-4.525,9.875-4.525h84.496c3.941,0,7.473,1.76,9.875,4.525h1.67
		c-2.625-3.531-6.816-5.834-11.545-5.834H21.437c-4.729,0-8.92,2.303-11.545,5.834H11.562z"/>
	<path fill="#059CC2" d="M107.253,109.833H20.749c-8.879,0-16.078-7.197-16.078-16.078v2.667c0,8.881,7.199,16.078,16.078,16.078
		h86.504c8.877,0,16.076-7.197,16.076-16.078v-2.667C123.329,102.636,116.13,109.833,107.253,109.833z"/>
	<polygon fill="#FFFFFF" stroke="#059CC2" points="84.226,60.117 80.835,50.244 67.667,57.625 73.104,43.523 62.827,41.498 
		62.661,56.592 53.222,44.847 46.337,52.693 59.265,60.51 44.462,62.762 47.853,72.635 60.946,65.357 58.22,72.363 55.493,79.369 
		65.769,81.395 65.935,66.301 75.376,78.047 82.261,70.199 75.798,66.291 69.347,62.473 	"/>
</g>
</svg>
