<?xml version="1.0" encoding="utf-8"?>
<!-- Generator: Adobe Illustrator 13.0.0, SVG Export Plug-In . SVG Version: 6.00 Build 14948)  -->
<!DOCTYPE svg PUBLIC "-//W3C//DTD SVG 1.1//EN" "http://www.w3.org/Graphics/SVG/1.1/DTD/svg11.dtd">
<svg version="1.1" id="Layer_1" xmlns="http://www.w3.org/2000/svg" xmlns:xlink="http://www.w3.org/1999/xlink" x="0px" y="0px"
	 width="32.936px" height="21.688px" viewBox="0 0 32.936 21.688" enable-background="new 0 0 32.936 21.688" xml:space="preserve">
<g>
	<g>
		<linearGradient id="SVGID_1_" gradientUnits="userSpaceOnUse" x1="16.468" y1="21.7512" x2="16.468" y2="4.0081">
			<stop  offset="0" style="stop-color:#00B2DE"/>
			<stop  offset="1" style="stop-color:#99DBF6"/>
		</linearGradient>
		<path fill="url(#SVGID_1_)" d="M28.278,0.261H4.657c-2.425,0-4.391,1.966-4.391,4.392v12.385c0,2.424,1.966,4.391,4.391,4.391
			h23.621c2.424,0,4.391-1.967,4.391-4.391V4.653C32.669,2.227,30.702,0.261,28.278,0.261z"/>
		<path fill="none" stroke="#FFFFFF" stroke-width="2" stroke-miterlimit="3.8637" d="M0.795,2.563l9.838,9.84
			c0,0,3.133,3.711,5.952,3.711c2.818,0,6.107-3.709,6.107-3.709l9.459-9.818"/>
		
			<line fill="none" stroke="#FFFFFF" stroke-width="2" stroke-miterlimit="3.8637" x1="1.559" y1="20.147" x2="10.212" y2="11.983"/>
		
			<line fill="none" stroke="#FFFFFF" stroke-width="2" stroke-miterlimit="3.8637" x1="23.137" y1="11.944" x2="31.377" y2="20.149"/>
		<path fill="#FFFFFF" d="M2.148,2.264c0.656-0.754,1.62-1.235,2.696-1.235h23.073c1.077,0,2.04,0.481,2.696,1.235h0.457
			C30.352,1.3,29.21,0.671,27.918,0.671H4.844c-1.291,0-2.436,0.629-3.151,1.593H2.148z"/>
		<path fill="#059CC2" d="M28.278,20.699H4.657c-2.425,0-4.391-1.965-4.391-4.391v0.729c0,2.424,1.966,4.391,4.391,4.391h23.621
			c2.424,0,4.391-1.967,4.391-4.391v-0.729C32.669,18.735,30.702,20.699,28.278,20.699z"/>
		<g>
			
				<linearGradient id="SVGID_2_" gradientUnits="userSpaceOnUse" x1="3502.1248" y1="4374.1768" x2="3502.1248" y2="4355.7803" gradientTransform="matrix(-1 0 0 -1 3518.5916 4375.8247)">
				<stop  offset="0" style="stop-color:#E20A16"/>
				<stop  offset="1" style="stop-color:#B51015"/>
			</linearGradient>
			<path fill="url(#SVGID_2_)" d="M27.124,12.887c0.578-0.549,0.867-1.246,0.867-2.027c0-0.811-0.289-1.506-0.869-2.055
				l-6.289-6.318c-0.578-0.549-1.246-0.84-2.057-0.84c-0.783,0-1.48,0.291-2.059,0.84c-0.551,0.578-0.84,1.273-0.84,2.057
				c0,0.812,0.289,1.479,0.842,2.057l1.361,1.334L7.839,7.932c-0.811,0-1.506,0.291-2.055,0.869c-0.58,0.553-0.84,1.246-0.84,2.057
				c0,0.783,0.26,1.479,0.84,2.029c0.551,0.578,1.246,0.842,2.057,0.869h10.242l-1.363,1.332c-0.551,0.553-0.84,1.248-0.84,2.059
				c0,0.781,0.291,1.477,0.84,2.057c0.58,0.549,1.277,0.84,2.057,0.84c0.812,0,1.48-0.289,2.061-0.84L27.124,12.887z"/>
			<g opacity="0.6">
				<path fill="#FFFFFF" d="M26.577,9.449l-5.84-5.865c-0.539-0.514-1.158-0.779-1.91-0.779c-0.727,0-1.373,0.27-1.912,0.779
					C16.522,4,16.272,4.477,16.178,5.006c-0.002-0.051-0.006-0.1-0.006-0.15c0-0.725,0.27-1.371,0.779-1.91
					c0.539-0.512,1.186-0.779,1.912-0.779c0.754,0,1.371,0.268,1.91,0.779l5.84,5.865c0.539,0.512,0.807,1.158,0.807,1.883
					c0,0.174-0.016,0.34-0.045,0.502C27.344,10.526,27.081,9.928,26.577,9.449z"/>
				<path fill="#FFFFFF" d="M19.046,8.826H8.012C7.26,8.852,6.614,9.096,6.104,9.633c-0.412,0.391-0.65,0.855-0.74,1.379
					c-0.002-0.045-0.006-0.088-0.006-0.131c0-0.729,0.242-1.375,0.781-1.885c0.512-0.539,1.158-0.783,1.91-0.809h10.344
					L19.046,8.826z"/>
			</g>
		</g>
	</g>
	<g>
		<g>
			<g>
				
					<linearGradient id="SVGID_3_" gradientUnits="userSpaceOnUse" x1="-6450.4805" y1="-676.5891" x2="-6450.4805" y2="-695.9407" gradientTransform="matrix(-1 0 0 -1 -6432.6699 -675.1733)">
					<stop  offset="0" style="stop-color:#80E21B"/>
					<stop  offset="1" style="stop-color:#80B400"/>
				</linearGradient>
				<path fill="url(#SVGID_3_)" stroke="#70993E" stroke-width="0.5" d="M16.19,4.733c0-0.872-0.001-1.537-0.001-1.676
					c0-0.443-0.165-0.839-0.478-1.166c-0.328-0.312-0.723-0.477-1.166-0.476c-0.46,0-0.837,0.164-1.166,0.477L9.82,5.475
					c-0.327,0.312-0.491,0.707-0.491,1.15c0,0.46,0.165,0.854,0.492,1.166l3.566,3.578c0.328,0.312,0.706,0.477,1.166,0.477
					c0.443,0,0.838-0.165,1.166-0.479c0.311-0.328,0.476-0.723,0.476-1.165c-0.001-0.141-0.001-0.82-0.002-1.707
					c8.462,0.976,8.167,9.019,7.774,11.939c-0.037,0.278,0.309,0.457,0.471,0.228c1.165-1.646,1.852-3.656,1.852-5.826
					C26.29,9.257,21.768,4.735,16.19,4.733z"/>
			</g>
		</g>
		<g>
			<path opacity="0.5" fill="#FFFFFF" d="M16.173,5.26l0.01,0.488c5.1-0.151,9.356,3.857,9.51,8.956
				c0.055,1.823-0.427,3.534-1.294,4.993c0.004-0.006,0.01-0.009,0.015-0.016c1.02-1.538,1.59-3.394,1.53-5.379
				C25.79,9.203,21.272,5.108,16.173,5.26z"/>
		</g>
		<path opacity="0.5" fill="#FFFFFF" d="M10.357,6.402c-0.085,0.087-0.231,0.081-0.326-0.013l0,0
			C9.934,6.296,9.926,6.15,10.01,6.063l3.984-4.075C14.08,1.901,14.225,1.906,14.321,2l0,0c0.096,0.094,0.105,0.24,0.021,0.326
			L10.357,6.402z"/>
	</g>
</g>
</svg>
