<?xml version="1.0" encoding="utf-8"?>
<!-- Generator: Adobe Illustrator 13.0.0, SVG Export Plug-In . SVG Version: 6.00 Build 14948)  -->
<!DOCTYPE svg PUBLIC "-//W3C//DTD SVG 1.1//EN" "http://www.w3.org/Graphics/SVG/1.1/DTD/svg11.dtd">
<svg version="1.1" id="Layer_1" xmlns="http://www.w3.org/2000/svg" xmlns:xlink="http://www.w3.org/1999/xlink" x="0px" y="0px"
	 width="128px" height="128px" viewBox="0 0 128 128" enable-background="new 0 0 128 128" xml:space="preserve">
<g>
	<g>
		<g>
			
				<linearGradient id="SVGID_1_" gradientUnits="userSpaceOnUse" x1="-209.0137" y1="97.5391" x2="-209.0137" y2="132.3301" gradientTransform="matrix(1 0 0 -1 289.2754 151.834)">
				<stop  offset="0" style="stop-color:#ECEEF0"/>
				<stop  offset="0.2485" style="stop-color:#E8E8E9"/>
				<stop  offset="0.5636" style="stop-color:#EEEFF2"/>
				<stop  offset="0.9212" style="stop-color:#D4D5D6"/>
			</linearGradient>
			<path fill="url(#SVGID_1_)" stroke="#B3B3B3" stroke-width="2" d="M109.539,43.961c0,5.707-4.627,10.334-10.334,10.334H61.316
				c-5.707,0-10.332-4.627-10.332-10.334V29.838c0-5.707,4.625-10.334,10.332-10.334h37.889c5.707,0,10.334,4.627,10.334,10.334
				V43.961z"/>
			<path opacity="0.75" fill="#F2F2F2" enable-background="new    " d="M56.402,22.965c1.098-1.266,2.715-2.07,4.52-2.07H99.6
				c1.805,0,3.422,0.805,4.521,2.07h0.766c-1.2-1.615-3.118-2.67-5.284-2.67h-38.68c-2.164,0-4.084,1.055-5.283,2.67H56.402z"/>
			
				<linearGradient id="SVGID_2_" gradientUnits="userSpaceOnUse" x1="-225.2759" y1="123.875" x2="-225.2759" y2="33.334" gradientTransform="matrix(1 0 0 -1 289.2754 151.834)">
				<stop  offset="0" style="stop-color:#9A9A9A"/>
				<stop  offset="1" style="stop-color:#DEDEDE"/>
			</linearGradient>
			<path fill="url(#SVGID_2_)" d="M21.66,27.959h84.68c10.42,0,18.867,8.453,18.867,18.881v52.779
				c0,10.427-8.447,18.881-18.867,18.881H21.66c-10.421,0-18.868-8.454-18.868-18.881V46.84
				C2.792,36.412,11.239,27.959,21.66,27.959L21.66,27.959z"/>
			
				<linearGradient id="SVGID_3_" gradientUnits="userSpaceOnUse" x1="-225.2759" y1="85.1055" x2="-225.2759" y2="118.4355" gradientTransform="matrix(1 0 0 -1 289.2754 151.834)">
				<stop  offset="0" style="stop-color:#999999"/>
				<stop  offset="1" style="stop-color:#CCCCCC"/>
			</linearGradient>
			<path fill="url(#SVGID_3_)" d="M104.533,33.398H23.465c-9.974,0-18.062,7.9-18.062,17.646v15.685
				c0-9.747,8.088-17.646,18.062-17.646h81.068c9.975,0,18.062,7.898,18.062,17.646V51.045
				C122.596,41.299,114.508,33.398,104.533,33.398z"/>
			<path fill="#FFFFFF" d="M104.52,32.416H23.48c-9.972,0-18.056,8.09-18.056,18.07v1.076c0-9.979,8.084-18.068,18.056-18.068h81.04
				c9.971,0,18.055,8.09,18.055,18.068v-1.076C122.574,40.506,114.49,32.416,104.52,32.416z"/>
			<path fill="#999999" d="M106.338,115.766h-84.68c-10.421,0-18.866-8.453-18.866-18.881v2.732c0,10.43,8.445,18.883,18.866,18.883
				h84.68c10.42,0,18.869-8.453,18.869-18.883v-2.732C125.207,107.312,116.758,115.766,106.338,115.766z"/>
		</g>
		<g>
			
				<linearGradient id="SVGID_4_" gradientUnits="userSpaceOnUse" x1="-225.2749" y1="41.0552" x2="-225.2749" y2="86.8106" gradientTransform="matrix(1 0 0 -1 289.2754 151.834)">
				<stop  offset="0" style="stop-color:#00B2DE"/>
				<stop  offset="1" style="stop-color:#99DBF6"/>
			</linearGradient>
			<path fill="url(#SVGID_4_)" d="M94.459,55.363H33.545c-6.256,0-11.324,5.07-11.324,11.321v31.94
				c0,6.254,5.068,11.321,11.324,11.321h60.914c6.252,0,11.32-5.067,11.32-11.321v-31.94
				C105.779,60.434,100.711,55.363,94.459,55.363z"/>
			<path fill="none" stroke="#FFFFFF" stroke-width="2" stroke-miterlimit="3.8637" d="M23.584,61.299l25.369,25.377
				c0,0,8.08,9.566,15.348,9.566s15.752-9.564,15.752-9.564l24.396-25.32"/>
			
				<line fill="none" stroke="#FFFFFF" stroke-width="2" stroke-miterlimit="3.8637" x1="25.553" y1="106.645" x2="47.867" y2="85.59"/>
			
				<line fill="none" stroke="#FFFFFF" stroke-width="2" stroke-miterlimit="3.8637" x1="81.199" y1="85.486" x2="102.447" y2="106.648"/>
			<path fill="#FFFFFF" d="M27.074,60.528c1.689-1.948,4.178-3.187,6.953-3.187h59.502c2.772,0,5.264,1.238,6.953,3.187h1.176
				c-1.848-2.486-4.801-4.108-8.129-4.108H34.027c-3.328,0-6.281,1.622-8.129,4.108H27.074z"/>
			<path fill="#059CC2" d="M94.459,108.068H33.545c-6.256,0-11.324-5.067-11.324-11.321v1.878c0,6.254,5.068,11.322,11.324,11.322
				h60.914c6.252,0,11.32-5.068,11.32-11.322v-1.878C105.779,103.001,100.711,108.068,94.459,108.068z"/>
		</g>
	</g>
	<g>
		
			<linearGradient id="SVGID_5_" gradientUnits="userSpaceOnUse" x1="2701.1504" y1="-2141.1274" x2="2701.1504" y2="-2093.8062" gradientTransform="matrix(-1 0 0 1 2803.6465 2183.7041)">
			<stop  offset="0" style="stop-color:#80E21B"/>
			<stop  offset="1" style="stop-color:#80B400"/>
		</linearGradient>
		<path fill="url(#SVGID_5_)" stroke="#70993E" stroke-miterlimit="3.8637" d="M119.657,75.206c1.132-1.188,1.725-2.56,1.725-4.226
			c0-1.604-0.596-3.035-1.725-4.225c-1.189-1.129-2.617-1.725-4.222-1.725c-1.666-0.004-3.095,0.595-4.226,1.725l-2.735,2.797
			l-0.002-21.028c-0.06-1.664-0.595-3.092-1.783-4.224c-1.131-1.19-2.56-1.725-4.166-1.725c-1.666,0-3.09,0.534-4.221,1.725
			c-1.188,1.13-1.787,2.558-1.787,4.222l0.002,21.028l-2.734-2.797c-1.189-1.13-2.557-1.727-4.225-1.727
			c-1.606,0-3.033,0.597-4.221,1.726c-1.131,1.188-1.727,2.616-1.727,4.224c0,1.666,0.596,3.035,1.727,4.227l12.967,12.91
			c1.133,1.189,2.559,1.785,4.223,1.785c1.606,0,3.031-0.594,4.166-1.782L119.657,75.206z"/>
		<g>
			<path fill="#70993E" d="M98.305,45.089c1.129-1.191,2.555-1.728,4.219-1.728c1.607,0,3.035,0.536,4.166,1.728
				c1.152,1.096,1.688,2.472,1.772,4.072h0.013v-0.636c-0.061-1.664-0.596-3.092-1.785-4.224c-1.131-1.19-2.559-1.725-4.166-1.725
				c-1.664,0-3.09,0.534-4.219,1.725c-1.189,1.13-1.787,2.558-1.787,4.222v0.785C96.518,47.645,97.114,46.218,98.305,45.089z"/>
		</g>
		<g>
			<path opacity="0.8" fill="#FFFFFF" enable-background="new    " d="M118.471,74.053L106.402,86.07
				c-1.055,1.105-2.381,1.656-3.875,1.656c-1.549,0-2.877-0.554-3.932-1.66l-12.07-12.019c-0.93-0.976-1.315-0.45,0,1.058
				l12.07,12.019c1.053,1.106,2.381,1.66,3.932,1.66c1.492,0,2.82-0.552,3.875-1.658l12.066-12.017
				C119.962,73.628,119.398,73.075,118.471,74.053z"/>
		</g>
	</g>
</g>
</svg>
