<?xml version="1.0" encoding="utf-8"?>
<!-- Generator: Adobe Illustrator 13.0.0, SVG Export Plug-In . SVG Version: 6.00 Build 14948)  -->
<!DOCTYPE svg PUBLIC "-//W3C//DTD SVG 1.1//EN" "http://www.w3.org/Graphics/SVG/1.1/DTD/svg11.dtd">
<svg version="1.1" id="Layer_1" xmlns="http://www.w3.org/2000/svg" xmlns:xlink="http://www.w3.org/1999/xlink" x="0px" y="0px"
	 width="128px" height="128px" viewBox="0 0 128 128" enable-background="new 0 0 128 128" xml:space="preserve">
<g>
	
		<linearGradient id="SVGID_1_" gradientUnits="userSpaceOnUse" x1="-182.8813" y1="-357.5845" x2="-182.8813" y2="-404.0688" gradientTransform="matrix(1 0 0 -1 246.7271 -289.8564)">
		<stop  offset="0" style="stop-color:#D5D7D8"/>
		<stop  offset="1" style="stop-color:#5C5F61"/>
	</linearGradient>
	<path fill="url(#SVGID_1_)" stroke="#4D4D4D" stroke-width="1.0006" stroke-miterlimit="3.8637" d="M63.846,67.728
		c1.834,0,3.32,1.592,3.32,3.553l-0.002,36.298l30.712,0.002c1.962,0,3.554,1.485,3.553,3.318c0,1.829-1.589,3.313-3.553,3.313
		h-33.74h-0.579h-33.74c-1.963,0-3.554-1.483-3.554-3.315c0-1.83,1.591-3.317,3.554-3.317l30.709,0.002v-36.3
		C60.525,69.319,62.013,67.728,63.846,67.728L63.846,67.728z"/>
	
		<linearGradient id="SVGID_2_" gradientUnits="userSpaceOnUse" x1="-182.8813" y1="-394.1704" x2="-182.8813" y2="-407.3423" gradientTransform="matrix(1 0 0 -1 246.7271 -289.8564)">
		<stop  offset="0" style="stop-color:#D5D7D8"/>
		<stop  offset="1" style="stop-color:#5C5F61"/>
	</linearGradient>
	<path fill="url(#SVGID_2_)" stroke="#4D4D4D" stroke-width="1.0006" stroke-miterlimit="3.8637" d="M58.375,104.313h10.94
		c1.496,0,2.709,1.209,2.709,2.705v7.76c0,1.495-1.213,2.707-2.709,2.707h-10.94c-1.494,0-2.708-1.212-2.708-2.707v-7.76
		C55.667,105.522,56.881,104.313,58.375,104.313L58.375,104.313z"/>
	
		<linearGradient id="SVGID_3_" gradientUnits="userSpaceOnUse" x1="-182.8823" y1="-297.9199" x2="-182.8823" y2="-384.02" gradientTransform="matrix(1 0 0 -1 246.7271 -289.8564)">
		<stop  offset="0" style="stop-color:#5F5D5C"/>
		<stop  offset="1" style="stop-color:#181500"/>
	</linearGradient>
	<path fill="url(#SVGID_3_)" d="M23.515,8.063h80.659c9.923,0,17.971,8.038,17.971,17.955v50.193
		c0,9.914-8.046,17.951-17.971,17.951H23.515c-9.925,0-17.969-8.04-17.969-17.951V26.019C5.546,16.102,13.589,8.063,23.515,8.063
		L23.515,8.063z"/>
	<g>
		<path opacity="0.4" fill="#808080" d="M102.429,13.313H25.26c-9.496,0-17.191,7.69-17.191,17.179v8.215
			c0-9.487,7.695-17.179,17.191-17.179h77.169c9.494,0,17.193,7.691,17.193,17.179v-8.215
			C119.622,21.004,111.923,13.313,102.429,13.313z"/>
		<path fill="#FFFFFF" d="M102.382,12.487H25.251c-9.491,0-17.183,7.688-17.183,17.17v1.103c0-9.483,7.691-17.169,17.183-17.169
			h77.131c9.488,0,17.185,7.686,17.185,17.169v-1.103C119.566,20.175,111.87,12.487,102.382,12.487z"/>
	</g>
	<path d="M23.517,94.163h80.659c9.926,0,17.969-8.038,17.969-17.955v-5.441c0,9.917-8.043,17.955-17.969,17.955H23.517
		c-9.923,0-17.971-8.038-17.971-17.955v5.441C5.546,86.125,13.594,94.163,23.517,94.163z"/>
	<g>
		<g>
			
				<linearGradient id="SVGID_4_" gradientUnits="userSpaceOnUse" x1="-345.7759" y1="841.7881" x2="-345.7759" y2="893.3701" gradientTransform="matrix(1 0 0 1 412.6201 -813.9902)">
				<stop  offset="0" style="stop-color:#80E21B"/>
				<stop  offset="1" style="stop-color:#80B400"/>
			</linearGradient>
			<path fill="url(#SVGID_4_)" d="M85.33,28.623c-2.793-1.659-6.408-0.737-8.064,2.058L59.617,60.429l-2.826-6.73
				c-1.26-3.001-4.707-4.408-7.705-3.146c-2.994,1.254-4.406,4.707-3.148,7.707l7.348,17.512c0.863,2.05,2.805,3.44,5.023,3.596
				c2.215,0.152,4.33-0.958,5.463-2.869l23.615-39.803C89.045,33.898,88.123,30.282,85.33,28.623L85.33,28.623z"/>
		</g>
		<g opacity="0.5">
			<path fill="#FFFFFF" d="M49.713,52.116c2.777-1.21,6.121,0.324,7.467,3.425l-0.379-0.873c-1.348-3.104-4.691-4.635-7.467-3.426
				c-2.777,1.211-3.934,4.706-2.588,7.807l0.379,0.873C45.779,56.821,46.936,53.326,49.713,52.116z"/>
		</g>
		<path opacity="0.5" fill="#FFFFFF" d="M60.227,62.048l-0.324-0.921l17.652-29.804c0,0,0.729-1.086,1.072-1.449
			c0.658-0.697,1.258-0.869,1.258-0.869L60.227,62.048z"/>
	</g>
</g>
</svg>
