<?xml version="1.0" encoding="utf-8"?>
<!-- Generator: Adobe Illustrator 13.0.0, SVG Export Plug-In . SVG Version: 6.00 Build 14948)  -->
<!DOCTYPE svg PUBLIC "-//W3C//DTD SVG 1.1//EN" "http://www.w3.org/Graphics/SVG/1.1/DTD/svg11.dtd">
<svg version="1.1" id="Layer_1" xmlns="http://www.w3.org/2000/svg" xmlns:xlink="http://www.w3.org/1999/xlink" x="0px" y="0px"
	 width="128px" height="128px" viewBox="0 0 128 128" enable-background="new 0 0 128 128" xml:space="preserve">
<g>
	
		<radialGradient id="SVGID_1_" cx="-5175.7349" cy="-1046.501" r="53.1366" gradientTransform="matrix(0 1 -1 0 -982.8965 5245.6016)" gradientUnits="userSpaceOnUse">
		<stop  offset="0" style="stop-color:#FAFAFA"/>
		<stop  offset="0.3109" style="stop-color:#F4F4F4"/>
		<stop  offset="0.7262" style="stop-color:#E3E3E3"/>
		<stop  offset="1" style="stop-color:#D4D4D4"/>
	</radialGradient>
	<path fill="url(#SVGID_1_)" stroke="#B3B3B3" stroke-width="2" d="M105.399,114.551H21.812c-10.285,0-18.625-8.344-18.625-18.637
		V43.819c0-10.295,8.34-18.637,18.625-18.637h83.588c10.285,0,18.623,8.342,18.623,18.637v52.095
		C124.022,106.207,115.685,114.551,105.399,114.551L105.399,114.551z"/>
	<path fill="#B3B3B3" d="M104.761,110.597H22.324c-10.143,0-18.367-8.229-18.367-18.379v3.698c0,10.151,8.225,18.38,18.367,18.38
		h82.437c10.144,0,18.365-8.229,18.365-18.38v-3.698C123.126,102.368,114.904,110.597,104.761,110.597z"/>
	<path opacity="0.5" fill="#FFFFFF" d="M24.563,32.751h78.083c5.723,0,10.792,2.77,13.962,7.037h2.071
		c-2.64-6.253-8.824-10.64-16.033-10.64H24.563c-7.209,0-13.395,4.387-16.034,10.64h2.071
		C13.771,35.521,18.841,32.751,24.563,32.751z"/>
	<g>
		<linearGradient id="SVGID_2_" gradientUnits="userSpaceOnUse" x1="88.291" y1="64.3545" x2="88.291" y2="106.2158">
			<stop  offset="0" style="stop-color:#99DBF6"/>
			<stop  offset="1" style="stop-color:#00B2DE"/>
		</linearGradient>
		<path fill="url(#SVGID_2_)" d="M111.949,98.626c0,4.192-3.397,7.59-7.589,7.59H72.223c-4.192,0-7.591-3.397-7.591-7.59V71.944
			c0-4.191,3.398-7.59,7.591-7.59h32.138c4.191,0,7.589,3.398,7.589,7.59V98.626z"/>
		<g>
			<linearGradient id="SVGID_3_" gradientUnits="userSpaceOnUse" x1="85.8809" y1="99.8242" x2="80.4916" y2="96.0506">
				<stop  offset="0" style="stop-color:#DEDEDE"/>
				<stop  offset="1" style="stop-color:#FEFEFE"/>
			</linearGradient>
			<polygon opacity="0.8" fill="url(#SVGID_3_)" points="81.383,94.777 81.372,101.153 87.988,96.815 81.383,94.777 			"/>
			<linearGradient id="SVGID_4_" gradientUnits="userSpaceOnUse" x1="99.7773" y1="92.3457" x2="81.3304" y2="79.429">
				<stop  offset="0" style="stop-color:#DEDEDE"/>
				<stop  offset="1" style="stop-color:#FEFEFE"/>
			</linearGradient>
			<polygon fill="url(#SVGID_4_)" points="108.135,80.412 81.188,94.215 72.975,91.365 108.135,80.412 			"/>
			<linearGradient id="SVGID_5_" gradientUnits="userSpaceOnUse" x1="102.6689" y1="92.8438" x2="89.4057" y2="83.5567">
				<stop  offset="0" style="stop-color:#DEDEDE"/>
				<stop  offset="1" style="stop-color:#FEFEFE"/>
			</linearGradient>
			<polygon fill="url(#SVGID_5_)" points="108.378,80.651 81.8,94.421 97.908,99.646 108.378,80.651 			"/>
		</g>
		<g>
			<path fill="#FFFFFF" d="M87.154,77.258c0,0,0.239-1.098-0.799-1.515c-1.037-0.42-1.887,0.674-1.887,0.674
				s1.222-2.493-1.324-3.104c-2.546-0.61-3.209,2.086-3.209,2.086s0.102-3.717-2.598-3.105c-1.994,0.452-3.629,1.797-3.727,3.164
				c-0.224-0.233-0.566-0.236-0.975-0.379c-1.516-0.532-4.988,2.311-1.697,4.446c1.938,1.259,3.021-0.372,3.021-0.372
				c1.121,1.152,2.309,1.392,3.972,1.051c1.663-0.34,2.411-1.29,2.411-1.29c1.934,1.903,4.275-0.339,4.275-0.339
				c0.782,0.95,2.311-0.205,2.311-0.205c0.78,0.883,2.061,0.724,2.081-0.433C89.029,76.78,87.154,77.258,87.154,77.258z"/>
			<path fill="#E6E6E6" d="M88.841,78.496c0,0-1.329,0.175-1.706-0.752c0,0-1.648,1.216-2.055-0.059
				c-0.027,0.117-0.027,0.117-0.027,0.117s-3.938,1.532-4.659-0.318c0,0-3.761,3.472-5.785,0.348c0,0-3.101,2.604-4.894,0.376
				c-0.005-0.009,0,0.071,0.069,0c0.048,0.46,0.505,1.115,1.323,1.484c2.104,0.95,2.854-0.54,2.854-0.54
				c1.121,1.152,2.309,1.392,3.972,1.051c1.663-0.34,2.411-1.29,2.411-1.29c1.934,1.903,4.275-0.339,4.275-0.339
				c0.782,0.95,2.311-0.205,2.311-0.205c0.622,0.705,1.562,0.746,1.927,0.146L88.841,78.496z"/>
		</g>
	</g>
	<g>
		<polygon points="13.726,67.468 55.62,67.468 55.62,70.554 13.726,70.554 		"/>
		<polygon points="13.726,80.782 55.62,80.782 55.62,83.868 13.726,83.868 		"/>
		<polygon points="13.726,94.097 55.62,94.097 55.62,97.183 13.726,97.183 		"/>
		<polygon points="13.726,100.753 44.407,100.753 44.407,103.839 13.726,103.839 		"/>
		<polygon points="13.726,74.126 44.407,74.126 44.407,77.212 13.726,77.212 		"/>
		<polygon points="13.726,87.44 44.407,87.44 44.407,90.524 13.726,90.524 		"/>
	</g>
	
		<linearGradient id="SVGID_6_" gradientUnits="userSpaceOnUse" x1="-349.5444" y1="853.4707" x2="-349.5444" y2="871.2656" gradientTransform="matrix(1 0 0 1 412.6201 -813.9912)">
		<stop  offset="0" style="stop-color:#99DBF6"/>
		<stop  offset="1" style="stop-color:#00B2DE"/>
	</linearGradient>
	<path fill="url(#SVGID_6_)" d="M112.427,48.376c0,4.915-3.984,8.898-8.897,8.898H22.623c-4.914,0-8.897-3.983-8.897-8.898l0,0
		c0-4.914,3.983-8.896,8.897-8.896h80.905C108.442,39.478,112.427,43.462,112.427,48.376L112.427,48.376z"/>
	<g>
		<g>
			
				<linearGradient id="SVGID_7_" gradientUnits="userSpaceOnUse" x1="-307.3726" y1="825.9111" x2="-307.3726" y2="867.4141" gradientTransform="matrix(1 0 0 1 412.6201 -813.9902)">
				<stop  offset="0" style="stop-color:#80E21B"/>
				<stop  offset="1" style="stop-color:#80B400"/>
			</linearGradient>
			<path fill="url(#SVGID_7_)" stroke="#70993E" d="M120.121,12.585c-2.247-1.335-5.155-0.593-6.488,1.656l-14.2,23.935
				l-2.273-5.415c-1.014-2.414-3.787-3.547-6.2-2.531c-2.409,1.01-3.545,3.787-2.532,6.201l5.911,14.09
				c0.695,1.649,2.257,2.768,4.042,2.893c1.782,0.123,3.483-0.771,4.396-2.309l18.999-32.024
				C123.11,16.831,122.369,13.921,120.121,12.585L120.121,12.585z"/>
		</g>
		<g opacity="0.5">
			<path fill="#FFFFFF" d="M91.463,31.488c2.234-0.974,4.927,0.261,6.01,2.755l-0.305-0.701c-1.085-2.497-3.774-3.73-6.01-2.757
				c-2.234,0.974-3.165,3.786-2.081,6.281l0.306,0.702C88.299,35.273,89.229,32.462,91.463,31.488z"/>
		</g>
		<path opacity="0.5" fill="#FFFFFF" d="M99.924,39.479l-0.262-0.74l14.204-23.981c0,0,0.585-0.872,0.861-1.165
			c0.53-0.562,1.013-0.699,1.013-0.699L99.924,39.479z"/>
	</g>
</g>
</svg>
