<?xml version="1.0" encoding="utf-8"?>
<!-- Generator: Adobe Illustrator 13.0.0, SVG Export Plug-In . SVG Version: 6.00 Build 14948)  -->
<!DOCTYPE svg PUBLIC "-//W3C//DTD SVG 1.1//EN" "http://www.w3.org/Graphics/SVG/1.1/DTD/svg11.dtd">
<svg version="1.1" id="Layer_1" xmlns="http://www.w3.org/2000/svg" xmlns:xlink="http://www.w3.org/1999/xlink" x="0px" y="0px"
	 width="128px" height="128px" viewBox="0 0 128 128" enable-background="new 0 0 128 128" xml:space="preserve">
<g>
	<line fill="none" stroke="#000000" stroke-width="2" stroke-dasharray="3" x1="109.057" y1="63.37" x2="15.662" y2="63.37"/>
	<g>
		
			<linearGradient id="SVGID_1_" gradientUnits="userSpaceOnUse" x1="7050.8584" y1="-265.4502" x2="7070.0127" y2="-251.9879" gradientTransform="matrix(-1.4966 2.5116 2.1294 1.2688 11180.9883 -17373.6719)">
			<stop  offset="0" style="stop-color:#FFD207"/>
			<stop  offset="1" style="stop-color:#FAA61A"/>
		</linearGradient>
		<path fill="url(#SVGID_1_)" d="M11.26,46.046V15.263c0-6.472,5.621-11.881,11.848-9.209c19.289,8.276,70.916,28.686,87.086,36.166
			c6.135,2.838,7.219,10.373,2.316,13.045c0,0-2.273,1.368-4.633,1.368c-0.26,0-84.77,0-84.77,0
			C17.34,56.633,11.26,57.285,11.26,46.046z"/>
		
			<linearGradient id="SVGID_2_" gradientUnits="userSpaceOnUse" x1="-821.0083" y1="7588.4551" x2="-769.7246" y2="7588.4551" gradientTransform="matrix(-4.371139e-08 1 -1 -4.371139e-08 7651.8789 891.1104)">
			<stop  offset="0" style="stop-color:#FF9D00"/>
			<stop  offset="1" style="stop-color:#FF1F00"/>
		</linearGradient>
		<path fill="url(#SVGID_2_)" d="M11.26,80.694v30.784c0,6.471,5.621,11.88,11.848,9.209c19.289-8.276,70.916-28.686,87.086-36.167
			c6.135-2.838,7.219-10.372,2.316-13.044c0,0-2.273-1.368-4.633-1.368c-0.26,0-84.77,0-84.77,0
			C17.34,70.108,11.26,69.456,11.26,80.694z"/>
	</g>
	<g>
		<g>
			<g>
				
					<linearGradient id="SVGID_3_" gradientUnits="userSpaceOnUse" x1="-14846.7324" y1="-5429.5869" x2="-14798.7822" y2="-5382.3477" gradientTransform="matrix(0.7018 0.7124 -0.7124 0.7018 6593.6367 14416.1367)">
					<stop  offset="0" style="stop-color:#5F5D5C"/>
					<stop  offset="1" style="stop-color:#181500"/>
				</linearGradient>
				<path fill="url(#SVGID_3_)" d="M35.91,83.765c-1.981,1.955-3.495,3.448-3.81,3.761c-1.009,0.993-1.539,2.253-1.584,3.696
					c0.025,1.447,0.536,2.711,1.531,3.718c1.03,1.048,2.251,1.537,3.697,1.586l16.129,0.068c1.443,0.044,2.709-0.467,3.718-1.461
					c1.045-1.03,1.575-2.288,1.548-3.733l0.148-16.132c-0.026-1.447-0.498-2.675-1.529-3.718c-0.996-1.011-2.252-1.539-3.697-1.584
					c-1.445,0.027-2.713,0.538-3.72,1.53c-0.318,0.315-1.863,1.84-3.879,3.829C27.72,53.888,46.675,36.533,54.198,30.88
					c0.718-0.537,0.353-1.725-0.533-1.582c-6.359,1.042-12.467,3.984-17.406,8.849C23.566,50.651,23.411,71.073,35.91,83.765z"/>
			</g>
		</g>
		<path opacity="0.5" fill="#FFFFFF" d="M55.422,92.433c-0.008,0.388-0.36,0.696-0.788,0.688l0,0
			c-0.427-0.008-0.767-0.326-0.762-0.713l0.321-18.196c0.007-0.386,0.358-0.696,0.788-0.687l0,0c0.426,0.008,0.77,0.326,0.762,0.713
			L55.422,92.433z"/>
	</g>
	<path opacity="0.5" fill="#FFFFFF" d="M21.741,10.347c-0.872-0.365-1.41-1.067-1.2-1.568l0,0c0.21-0.502,1.087-0.613,1.96-0.25
		l82.123,34.24c0.874,0.363,1.412,1.064,1.201,1.566l0,0c-0.209,0.502-1.084,0.614-1.957,0.25L21.741,10.347z"/>
</g>
</svg>
