<?xml version="1.0" encoding="utf-8"?>
<!-- Generator: Adobe Illustrator 13.0.0, SVG Export Plug-In . SVG Version: 6.00 Build 14948)  -->
<!DOCTYPE svg PUBLIC "-//W3C//DTD SVG 1.1//EN" "http://www.w3.org/Graphics/SVG/1.1/DTD/svg11.dtd">
<svg version="1.1" id="Layer_1" xmlns="http://www.w3.org/2000/svg" xmlns:xlink="http://www.w3.org/1999/xlink" x="0px" y="0px"
	 width="128px" height="128px" viewBox="0 0 128 128" enable-background="new 0 0 128 128" xml:space="preserve">
<g>
	<g>
		<linearGradient id="SVGID_1_" gradientUnits="userSpaceOnUse" x1="63.9995" y1="2.0581" x2="63.9995" y2="125.9419">
			<stop  offset="0" style="stop-color:#5F5D5C"/>
			<stop  offset="1" style="stop-color:#181500"/>
		</linearGradient>
		<path fill="url(#SVGID_1_)" d="M117.206,55.613c-1.109-3.924-5.188-6.207-9.111-5.102c-3.924,1.107-6.215,5.184-5.104,9.111
			l-0.004-0.002c3.581,12.732,0.904,26.914-8.416,37.628c-14.715,16.854-40.257,18.629-57.163,3.979
			C20.556,86.513,18.777,60.97,33.429,44.064c5.973-6.867,13.744-11.211,22.002-12.989c0.001,3.66,0.003,6.464,0.004,7.042
			c-0.003,1.82,0.673,3.441,1.955,4.783c1.346,1.285,2.961,1.957,4.784,1.955c1.887,0,3.435-0.674,4.784-1.951l14.614-14.695
			c1.343-1.287,2.019-2.902,2.017-4.723c0-1.891-0.673-3.504-2.021-4.783L66.941,4.013c-1.347-1.281-2.897-1.957-4.782-1.955
			c-1.824,0-3.441,0.672-4.784,1.953c-1.281,1.352-1.954,2.963-1.954,4.785c0,0.59,0.002,3.484,0.003,7.245
			c-12.415,1.946-24.247,8.114-33.14,18.329c-20.036,23.045-17.606,57.951,5.433,78c23.039,20.033,57.949,17.607,77.996-5.428
			C118.408,92.345,122.095,72.927,117.206,55.613z"/>
		
			<linearGradient id="SVGID_2_" gradientUnits="userSpaceOnUse" x1="920.335" y1="2450.0752" x2="918.1679" y2="2429.5232" gradientTransform="matrix(0.6563 -0.7545 0.7545 0.6563 -2380.123 -837.1184)">
			<stop  offset="0" style="stop-color:#EC008C"/>
			<stop  offset="1" style="stop-color:#C40075"/>
		</linearGradient>
		<circle fill="url(#SVGID_2_)" cx="64.011" cy="70.548" r="10.333"/>
	</g>
	<path opacity="0.5" fill="#FFFFFF" d="M80.071,21.081c0.352,0.344,0.328,0.937-0.051,1.323l0,0
		c-0.379,0.39-0.973,0.426-1.324,0.083L62.173,6.333c-0.35-0.344-0.328-0.938,0.053-1.326l0,0c0.379-0.388,0.973-0.425,1.322-0.081
		L80.071,21.081z"/>
</g>
</svg>
