<?xml version="1.0" encoding="utf-8"?>
<!-- Generator: Adobe Illustrator 13.0.0, SVG Export Plug-In . SVG Version: 6.00 Build 14948)  -->
<!DOCTYPE svg PUBLIC "-//W3C//DTD SVG 1.1//EN" "http://www.w3.org/Graphics/SVG/1.1/DTD/svg11.dtd">
<svg version="1.1" id="Layer_1" xmlns="http://www.w3.org/2000/svg" xmlns:xlink="http://www.w3.org/1999/xlink" x="0px" y="0px"
	 width="128px" height="128px" viewBox="0 0 128 128" enable-background="new 0 0 128 128" xml:space="preserve">
<g>
	<g>
		<g>
			<path fill="none" d="M50.915,38.182c5.96-3.168,22.511,5.984,31.554,23.002c9.041,17.011,7.148,35.447,1.186,38.62
				c-5.961,3.17-19.686-6.953-28.728-23.968C45.888,58.819,44.954,41.354,50.915,38.182L50.915,38.182z"/>
			<linearGradient id="SVGID_1_" gradientUnits="userSpaceOnUse" x1="46.5898" y1="36.3862" x2="46.5898" y2="108.4453">
				<stop  offset="0" style="stop-color:#ECEEF0"/>
				<stop  offset="0.2485" style="stop-color:#E8E8E9"/>
				<stop  offset="0.8" style="stop-color:#DADBDE"/>
				<stop  offset="0.9481" style="stop-color:#C0C1C2"/>
			</linearGradient>
			<path fill="url(#SVGID_1_)" stroke="#000000" stroke-miterlimit="3.8637" d="M82.988,60.37c-0.91-1.743-1.893-3.406-2.928-4.99
				c-4.125-6.291-9.473-12.031-16.083-15.709c-3.822-2.129-8.413-4.176-12.846-2.879c-1.467,0.428-2.889,1.246-4.046,2.33
				c-2.573,2.423-3.981,6.016-5.706,9.186c-1.51,2.772-3.041,5.544-4.57,8.304L26.432,75.42l-15.66,8.11
				c-0.426,0.227-0.83,0.462-1.217,0.726c0,0-0.055,0.027-0.049,0.034c-5.498,3.69-7.488,10.931-4.398,16.84
				c0.041,0.07,0.08,0.132,0.117,0.202c0.037,0.064,0.061,0.135,0.098,0.205c3.094,5.914,10.169,8.408,16.334,5.994
				c0,0.006,0.053-0.019,0.053-0.019c0.436-0.175,0.863-0.367,1.287-0.591l15.59-8.246l21.357,2.197
				c3.143,0.324,6.289,0.643,9.431,0.982c3.58,0.393,7.332,1.28,10.789,0.545c1.547-0.33,2.99-0.995,4.221-1.994
				c3.59-2.906,4.533-7.844,4.963-12.195c0.754-7.532-0.912-15.208-3.723-22.186c-0.709-1.751-1.512-3.509-2.426-5.251
				c-0.033-0.068-0.072-0.135-0.105-0.203C83.057,60.504,83.025,60.44,82.988,60.37L82.988,60.37z"/>
			<path fill="#FFFFFF" d="M44.39,44.538L27.18,76.186l-15.661,8.113c-0.426,0.227-0.83,0.463-1.216,0.723
				c0,0-0.053,0.027-0.049,0.034c-4.031,2.704-6.166,7.32-5.808,11.918l0.94-1.725c0.074-4.175,2.153-7.146,4.906-8.867
				c-0.002-0.006,1.971-1.17,1.971-1.17c0.389-0.264,0.793-0.496,1.215-0.726l14.381-7.489l15.844-28.583L44.39,44.538z"/>
			<path fill="#B3B3B3" d="M74.373,101.752l-35.808-3.949l-15.603,8.222c-0.426,0.218-0.852,0.417-1.29,0.585
				c0,0-0.052,0.027-0.055,0.018c-4.521,1.766-9.529,0.883-13.098-2.036l1.951,0.212c3.471,2.324,7.098,2.314,10.08,1.037
				c0.006,0.01,2.086-0.949,2.086-0.949c0.438-0.168,0.864-0.364,1.29-0.582L38.29,96.78l32.511,3.323L74.373,101.752z"/>
			<linearGradient id="SVGID_2_" gradientUnits="userSpaceOnUse" x1="62.2915" y1="50.4658" x2="62.2915" y2="93.5854">
				<stop  offset="0" style="stop-color:#5F5D5C"/>
				<stop  offset="1" style="stop-color:#181500"/>
			</linearGradient>
			<path fill="url(#SVGID_2_)" d="M71.506,66.789C65.518,55.331,56.37,48.295,51.065,51.071c-1.112,0.588-2.602,2.076-2.779,3.782
				c-0.631,6.083,2.068,13.115,6.405,20.741c4.358,7.667,8.909,13.41,13.872,17.621c1.074,0.913,3.072-0.079,4.189-0.661
				C78.051,89.779,77.496,78.244,71.506,66.789L71.506,66.789z"/>
			<path fill="#FFFFFF" d="M68.424,68.402c2.711,5.18,3.018,10.371,0.688,11.59c-2.332,1.223-6.417-1.99-9.125-7.173
				c-2.708-5.183-3.018-10.371-0.687-11.592C61.631,60.008,65.721,63.221,68.424,68.402L68.424,68.402z"/>
			<linearGradient id="SVGID_3_" gradientUnits="userSpaceOnUse" x1="37.9644" y1="76.8408" x2="37.9644" y2="50.6543">
				<stop  offset="0" style="stop-color:#181500"/>
				<stop  offset="1" style="stop-color:#FFFFFF"/>
			</linearGradient>
			<path opacity="0.49" fill="url(#SVGID_3_)" d="M43.961,50.654c0,0,0.579,3.259,1.16,5.118c0.586,1.865,0.932,3.727,0.932,3.727
				L29.875,76.841L43.961,50.654z"/>
			<path fill="none" stroke="#000000" stroke-miterlimit="3.8637" d="M50.915,38.182c5.96-3.168,22.511,5.984,31.554,23.002
				c9.041,17.011,7.148,35.447,1.186,38.62c-5.961,3.17-19.686-6.953-28.728-23.968C45.888,58.819,44.954,41.354,50.915,38.182
				L50.915,38.182z"/>
			<linearGradient id="SVGID_4_" gradientUnits="userSpaceOnUse" x1="59.7002" y1="51.7646" x2="59.7002" y2="66.375">
				<stop  offset="0" style="stop-color:#FFFFFF"/>
				<stop  offset="1" style="stop-color:#000000"/>
			</linearGradient>
			<path fill="url(#SVGID_4_)" d="M51.395,53.993c4.824-2.527,12.764,2.896,18.767,12.382c-5.412-10.269-13.625-16.56-18.393-14.064
				c-1.005,0.526-2.353,1.874-2.512,3.418c-0.009,0.095-0.013,0.193-0.019,0.291C49.827,55.098,50.688,54.366,51.395,53.993z"/>
		</g>
		<g>
			
				<linearGradient id="SVGID_5_" gradientUnits="userSpaceOnUse" x1="-575.1084" y1="466.1455" x2="-586.5242" y2="443.4965" gradientTransform="matrix(0.893 -0.4501 -0.4501 -0.893 812.9097 203.1463)">
				<stop  offset="0" style="stop-color:#5F5D5C"/>
				<stop  offset="1" style="stop-color:#181500"/>
			</linearGradient>
			<path fill="url(#SVGID_5_)" d="M85.758,46.029c-1.611-0.817-3.502,0.147-4.064,1.865c-0.588,1.767,0.465,3.577,2.059,4.546
				c4.912,2.979,7.697,8.562,7.111,14.285c-0.193,1.812,0.711,3.639,2.445,4.208c1.699,0.558,3.602-0.34,3.904-2.104
				C98.803,59.563,94.139,50.286,85.758,46.029z"/>
			
				<linearGradient id="SVGID_6_" gradientUnits="userSpaceOnUse" x1="-560.8838" y1="474.6279" x2="-580.9897" y2="434.7376" gradientTransform="matrix(0.893 -0.4501 -0.4501 -0.893 812.9097 203.1463)">
				<stop  offset="0" style="stop-color:#5F5D5C"/>
				<stop  offset="1" style="stop-color:#181500"/>
			</linearGradient>
			<path fill="url(#SVGID_6_)" d="M89.689,32.022c-1.791-0.784-3.812,0.248-4.418,2.107c-0.611,1.838,0.314,3.819,2.072,4.631
				c12.506,5.773,19.434,19.465,16.684,32.951c-0.391,1.932,0.598,3.924,2.467,4.539c1.861,0.612,3.893-0.404,4.328-2.318
				C114.727,56.74,105.834,39.106,89.689,32.022z"/>
			
				<linearGradient id="SVGID_7_" gradientUnits="userSpaceOnUse" x1="-547.647" y1="482.1816" x2="-575.5143" y2="426.8926" gradientTransform="matrix(0.893 -0.4501 -0.4501 -0.893 812.9097 203.1463)">
				<stop  offset="0" style="stop-color:#5F5D5C"/>
				<stop  offset="1" style="stop-color:#181500"/>
			</linearGradient>
			<path fill="url(#SVGID_7_)" d="M93.461,19.295c-1.826-0.744-3.854,0.291-4.469,2.16c-0.625,1.893,0.436,3.893,2.264,4.664
				c19.465,8.252,30.166,29.441,25.25,49.99c-0.465,1.963,0.473,4.049,2.389,4.68c1.865,0.615,3.906-0.401,4.393-2.315
				C129.486,54.112,116.736,28.809,93.461,19.295z"/>
		</g>
	</g>
	<g>
		<g>
			
				<linearGradient id="SVGID_8_" gradientUnits="userSpaceOnUse" x1="-386.5952" y1="-495.6055" x2="-386.5952" y2="-532.5249" gradientTransform="matrix(1 0 0 -1 412.6577 -439.8887)">
				<stop  offset="0" style="stop-color:#E20A16"/>
				<stop  offset="1" style="stop-color:#B51015"/>
			</linearGradient>
			<path fill="url(#SVGID_8_)" d="M18.716,58.196l7.345,7.35l7.348-7.351c2.896-2.897,7.175-3.314,9.555-0.932
				c2.382,2.383,1.964,6.664-0.932,9.561l-7.348,7.353l7.348,7.35c2.896,2.898,3.311,7.18,0.931,9.562
				c-2.382,2.384-6.659,1.966-9.554-0.932l-7.348-7.352l-7.347,7.352c-2.896,2.897-7.173,3.314-9.554,0.934
				c-2.381-2.384-1.965-6.665,0.933-9.562l7.346-7.352l-7.346-7.352c-2.897-2.898-3.313-7.178-0.933-9.561
				C11.542,54.88,15.819,55.297,18.716,58.196L18.716,58.196z"/>
		</g>
		<g opacity="0.5">
			<path fill="#FFFFFF" d="M10.34,58.329c2.155-2.1,5.839-1.813,8.225,0.636l-0.672-0.689c-2.388-2.453-6.068-2.736-8.225-0.637
				c-2.154,2.099-1.964,5.785,0.422,8.236l0.672,0.689C8.375,64.114,8.186,60.426,10.34,58.329z"/>
		</g>
		<path opacity="0.5" fill="#FFFFFF" d="M27.077,66.476l-0.437-0.437l7.938-8.065c0,0,0.712-0.645,1.022-0.842
			c0.594-0.38,1.052-0.396,1.052-0.396L27.077,66.476z"/>
	</g>
</g>
</svg>
