<?xml version="1.0" encoding="utf-8"?>
<!-- Generator: Adobe Illustrator 13.0.0, SVG Export Plug-In . SVG Version: 6.00 Build 14948)  -->
<!DOCTYPE svg PUBLIC "-//W3C//DTD SVG 1.1//EN" "http://www.w3.org/Graphics/SVG/1.1/DTD/svg11.dtd">
<svg version="1.1" id="Layer_1" xmlns="http://www.w3.org/2000/svg" xmlns:xlink="http://www.w3.org/1999/xlink" x="0px" y="0px"
	 width="128px" height="128px" viewBox="0 0 128 128" enable-background="new 0 0 128 128" xml:space="preserve">
<g>
	<g>
		<path fill="none" d="M50.915,38.182c5.96-3.168,22.511,5.984,31.554,23.002c9.041,17.011,7.148,35.448,1.186,38.621
			c-5.961,3.17-19.686-6.953-28.728-23.968C45.888,58.819,44.954,41.354,50.915,38.182L50.915,38.182z"/>
		
			<linearGradient id="SVGID_1_" gradientUnits="userSpaceOnUse" x1="-242.686" y1="115.4482" x2="-242.686" y2="43.3867" gradientTransform="matrix(1 0 0 -1 289.2754 151.834)">
			<stop  offset="0" style="stop-color:#ECEEF0"/>
			<stop  offset="0.2485" style="stop-color:#E8E8E9"/>
			<stop  offset="0.8" style="stop-color:#DADBDE"/>
			<stop  offset="0.9481" style="stop-color:#C0C1C2"/>
		</linearGradient>
		<path fill="url(#SVGID_1_)" stroke="#000000" stroke-miterlimit="3.8637" d="M82.988,60.37c-0.91-1.743-1.893-3.406-2.928-4.99
			c-4.125-6.291-9.474-12.031-16.083-15.709c-3.822-2.129-8.413-4.176-12.846-2.879c-1.467,0.428-2.889,1.246-4.046,2.33
			c-2.573,2.423-3.981,6.016-5.706,9.186c-1.51,2.772-3.041,5.544-4.57,8.304l-10.377,18.81l-15.66,8.109
			c-0.426,0.228-0.83,0.463-1.217,0.727c0,0-0.055,0.027-0.049,0.034c-5.498,3.69-7.488,10.931-4.398,16.84
			c0.041,0.07,0.08,0.132,0.117,0.202c0.037,0.064,0.061,0.135,0.098,0.205c3.094,5.914,10.169,8.408,16.334,5.994
			c0,0.006,0.053-0.02,0.053-0.02c0.436-0.175,0.863-0.367,1.287-0.591l15.59-8.245l21.357,2.196
			c3.143,0.323,6.289,0.644,9.431,0.981c3.58,0.394,7.332,1.281,10.789,0.545c1.547-0.33,2.99-0.994,4.221-1.994
			c3.59-2.905,4.533-7.844,4.963-12.194c0.754-7.532-0.912-15.208-3.723-22.187c-0.709-1.751-1.512-3.509-2.426-5.251
			c-0.033-0.068-0.072-0.135-0.105-0.203C83.057,60.504,83.025,60.44,82.988,60.37L82.988,60.37z"/>
		<path fill="#FFFFFF" d="M44.39,44.538L27.18,76.188L11.519,84.3c-0.426,0.228-0.83,0.464-1.216,0.724c0,0-0.053,0.026-0.049,0.033
			c-4.031,2.705-6.166,7.32-5.808,11.918l0.94-1.725c0.074-4.175,2.153-7.146,4.906-8.867c-0.002-0.006,1.971-1.17,1.971-1.17
			c0.389-0.264,0.793-0.496,1.215-0.727l14.381-7.488l15.844-28.583L44.39,44.538z"/>
		<path fill="#B3B3B3" d="M74.373,101.753l-35.808-3.948l-15.603,8.221c-0.426,0.219-0.852,0.418-1.29,0.586
			c0,0-0.052,0.027-0.055,0.018c-4.521,1.766-9.529,0.883-13.098-2.035l1.951,0.211c3.471,2.324,7.098,2.314,10.08,1.037
			c0.006,0.01,2.086-0.949,2.086-0.949c0.438-0.168,0.864-0.363,1.29-0.582l14.362-7.527l32.511,3.322L74.373,101.753z"/>
		
			<linearGradient id="SVGID_2_" gradientUnits="userSpaceOnUse" x1="-226.9829" y1="101.3691" x2="-226.9829" y2="58.248" gradientTransform="matrix(1 0 0 -1 289.2754 151.834)">
			<stop  offset="0" style="stop-color:#5F5D5C"/>
			<stop  offset="1" style="stop-color:#181500"/>
		</linearGradient>
		<path fill="url(#SVGID_2_)" d="M71.506,66.79C65.518,55.331,56.37,48.295,51.065,51.071c-1.112,0.588-2.602,2.076-2.779,3.782
			c-0.631,6.083,2.068,13.116,6.405,20.743c4.358,7.666,8.909,13.409,13.872,17.62c1.074,0.913,3.072-0.079,4.189-0.661
			C78.051,89.779,77.496,78.245,71.506,66.79L71.506,66.79z"/>
		<path fill="#FFFFFF" d="M68.424,68.402c2.711,5.181,3.018,10.371,0.688,11.591c-2.332,1.223-6.417-1.99-9.125-7.173
			c-2.708-5.184-3.018-10.373-0.687-11.593C61.631,60.008,65.721,63.221,68.424,68.402L68.424,68.402z"/>
		<path opacity="0.49" fill="#FFFFFF" enable-background="new    " d="M43.961,50.654c0,0,0.579,3.259,1.16,5.118
			c0.586,1.865,0.932,3.727,0.932,3.727L29.875,76.842L43.961,50.654z"/>
		<path fill="none" stroke="#000000" stroke-miterlimit="3.8637" d="M50.915,38.182c5.96-3.168,22.511,5.984,31.554,23.002
			c9.041,17.011,7.148,35.448,1.186,38.621c-5.961,3.17-19.686-6.953-28.728-23.968C45.888,58.819,44.954,41.354,50.915,38.182
			L50.915,38.182z"/>
		
			<linearGradient id="SVGID_3_" gradientUnits="userSpaceOnUse" x1="-229.5757" y1="100.0703" x2="-229.5757" y2="85.458" gradientTransform="matrix(1 0 0 -1 289.2754 151.834)">
			<stop  offset="0" style="stop-color:#FFFFFF"/>
			<stop  offset="1" style="stop-color:#000000"/>
		</linearGradient>
		<path fill="url(#SVGID_3_)" d="M51.395,53.993c4.824-2.527,12.764,2.896,18.767,12.383c-5.412-10.27-13.625-16.561-18.393-14.065
			c-1.005,0.526-2.353,1.874-2.512,3.418c-0.009,0.095-0.013,0.193-0.019,0.291C49.827,55.098,50.688,54.366,51.395,53.993z"/>
	</g>
	<g>
		
			<linearGradient id="SVGID_4_" gradientUnits="userSpaceOnUse" x1="-1039.9888" y1="424.2236" x2="-1051.405" y2="446.8735" gradientTransform="matrix(0.893 -0.4501 0.4501 0.893 827.2913 -801.1968)">
			<stop  offset="0" style="stop-color:#5F5D5C"/>
			<stop  offset="1" style="stop-color:#181500"/>
		</linearGradient>
		<path fill="url(#SVGID_4_)" d="M85.758,46.029c-1.611-0.817-3.502,0.147-4.064,1.865c-0.588,1.767,0.466,3.577,2.06,4.546
			c4.912,2.979,7.697,8.562,7.111,14.287c-0.193,1.812,0.711,3.639,2.444,4.207c1.699,0.559,3.603-0.34,3.904-2.104
			C98.803,59.563,94.139,50.286,85.758,46.029z"/>
		
			<linearGradient id="SVGID_5_" gradientUnits="userSpaceOnUse" x1="-1025.7646" y1="415.7422" x2="-1045.8706" y2="455.6325" gradientTransform="matrix(0.893 -0.4501 0.4501 0.893 827.2913 -801.1968)">
			<stop  offset="0" style="stop-color:#5F5D5C"/>
			<stop  offset="1" style="stop-color:#181500"/>
		</linearGradient>
		<path fill="url(#SVGID_5_)" d="M89.689,32.022c-1.791-0.784-3.812,0.248-4.418,2.107c-0.611,1.838,0.313,3.819,2.071,4.631
			c12.507,5.773,19.435,19.465,16.685,32.952c-0.392,1.933,0.598,3.925,2.467,4.539c1.861,0.612,3.893-0.403,4.328-2.317
			C114.727,56.74,105.834,39.106,89.689,32.022z"/>
		
			<linearGradient id="SVGID_6_" gradientUnits="userSpaceOnUse" x1="-1012.5269" y1="408.1875" x2="-1040.3944" y2="463.477" gradientTransform="matrix(0.893 -0.4501 0.4501 0.893 827.2913 -801.1968)">
			<stop  offset="0" style="stop-color:#5F5D5C"/>
			<stop  offset="1" style="stop-color:#181500"/>
		</linearGradient>
		<path fill="url(#SVGID_6_)" d="M93.461,19.295c-1.826-0.744-3.854,0.291-4.469,2.16c-0.625,1.893,0.436,3.893,2.264,4.664
			c19.465,8.252,30.166,29.441,25.25,49.99c-0.465,1.963,0.473,4.05,2.389,4.681c1.865,0.614,3.906-0.401,4.394-2.315
			C129.486,54.112,116.736,28.809,93.461,19.295z"/>
	</g>
</g>
</svg>
