<?xml version="1.0" encoding="utf-8"?>
<!-- Generator: Adobe Illustrator 13.0.0, SVG Export Plug-In . SVG Version: 6.00 Build 14948)  -->
<!DOCTYPE svg PUBLIC "-//W3C//DTD SVG 1.1//EN" "http://www.w3.org/Graphics/SVG/1.1/DTD/svg11.dtd">
<svg version="1.1" id="Layer_1" xmlns="http://www.w3.org/2000/svg" xmlns:xlink="http://www.w3.org/1999/xlink" x="0px" y="0px"
	 width="128px" height="128px" viewBox="0 0 128 128" enable-background="new 0 0 128 128" xml:space="preserve">
<g>
	<g>
		
			<radialGradient id="SVGID_1_" cx="63.9028" cy="64.001" r="53.1356" gradientTransform="matrix(1 0 0 1 0 -9.765625e-04)" gradientUnits="userSpaceOnUse">
			<stop  offset="0" style="stop-color:#FAFAFA"/>
			<stop  offset="0.3109" style="stop-color:#F4F4F4"/>
			<stop  offset="0.7262" style="stop-color:#E3E3E3"/>
			<stop  offset="1" style="stop-color:#D4D4D4"/>
		</radialGradient>
		<path fill="url(#SVGID_1_)" stroke="#B3B3B3" stroke-width="2" d="M108.586,22.206v83.586c0,10.285-8.344,18.625-18.637,18.625
			H37.856c-10.295,0-18.637-8.34-18.637-18.625V22.206c0-10.285,8.342-18.623,18.637-18.623h52.093
			C100.242,3.583,108.586,11.921,108.586,22.206L108.586,22.206z"/>
		<path fill="#B3B3B3" d="M90.145,122.091H38.051c-10.295,0-18.637-8.34-18.637-18.625v2.326c0,10.285,8.342,18.625,18.637,18.625
			h52.094c10.293,0,18.637-8.34,18.637-18.625v-2.326C108.781,113.751,100.438,122.091,90.145,122.091z"/>
		<path fill="#FFFFFF" d="M30.386,11.569c2.079-1.734,4.431-2.905,7.665-2.905h52.094c3.234,0,5.586,1.171,7.666,2.905h2.629
			c-2.621-2.646-5.805-4.238-10.295-4.238H38.051c-4.49,0-7.672,1.593-10.294,4.238H30.386z"/>
	</g>
	<linearGradient id="SVGID_2_" gradientUnits="userSpaceOnUse" x1="63.9614" y1="4.376" x2="63.9614" y2="26.8018">
		<stop  offset="0" style="stop-color:#80E21B"/>
		<stop  offset="1" style="stop-color:#80B400"/>
	</linearGradient>
	<path fill="url(#SVGID_2_)" d="M107.838,26.802v-4.14c0-10.099-8.193-18.286-18.302-18.286h-51.15
		c-10.108,0-18.3,8.188-18.3,18.286v4.14H107.838z"/>
	<path opacity="0.5" fill="#FFFFFF" d="M89.536,4.316h-51.15c-10.108,0-18.3,8.188-18.3,18.286v3.538
		c0-10.099,8.191-18.286,18.3-18.286h51.15c10.108,0,18.302,8.188,18.302,18.286v-3.538C107.838,12.504,99.645,4.316,89.536,4.316z"
		/>
	<g>
		<g>
			
				<linearGradient id="SVGID_3_" gradientUnits="userSpaceOnUse" x1="-1163.8896" y1="2860.8965" x2="-1212.6592" y2="2860.8894" gradientTransform="matrix(-1.000000e-04 -0.6994 0.6996 0 -1921.6675 -766.7272)">
				<stop  offset="0" style="stop-color:#FF9D00"/>
				<stop  offset="1" style="stop-color:#FF1F00"/>
			</linearGradient>
			<path fill="url(#SVGID_3_)" d="M60.174,60.562c-1.074,1.021-1.609,2.311-1.609,3.758c0,1.508,0.537,2.791,1.61,3.814
				l11.66,11.713c1.074,1.02,2.31,1.559,3.815,1.559c1.45,0,2.742-0.539,3.815-1.559c1.02-1.072,1.557-2.363,1.557-3.812
				c0-1.504-0.537-2.74-1.56-3.814l-2.523-2.471l18.988,0.002c1.504,0,2.793-0.537,3.811-1.611c1.079-1.023,1.561-2.312,1.561-3.814
				c0-1.451-0.481-2.74-1.561-3.762c-1.018-1.074-2.31-1.559-3.812-1.611H76.937l2.526-2.473c1.02-1.021,1.56-2.311,1.557-3.814
				c0-1.447-0.538-2.738-1.557-3.812c-1.075-1.02-2.365-1.557-3.815-1.557c-1.505,0-2.74,0.533-3.815,1.557L60.174,60.562z"/>
			<g opacity="0.6">
				<path fill="#FFFFFF" d="M61.39,61.876l10.828-10.875c0.999-0.949,2.147-1.445,3.544-1.445c1.348,0,2.546,0.498,3.545,1.445
					c0.728,0.768,1.188,1.656,1.363,2.635c0.005-0.092,0.012-0.184,0.012-0.277c0-1.344-0.5-2.543-1.445-3.541
					c-0.999-0.947-2.197-1.447-3.544-1.447c-1.397,0-2.545,0.498-3.544,1.447L61.32,60.692c-0.998,0.949-1.494,2.146-1.494,3.492
					c0,0.32,0.029,0.629,0.082,0.928C59.967,63.872,60.455,62.765,61.39,61.876z"/>
				<path fill="#FFFFFF" d="M75.249,60.669h20.455c1.396,0.049,2.597,0.498,3.541,1.496c0.763,0.721,1.202,1.588,1.37,2.555
					c0.003-0.082,0.01-0.162,0.01-0.244c0-1.348-0.447-2.547-1.449-3.494c-0.945-0.998-2.146-1.447-3.541-1.496H76.458
					L75.249,60.669z"/>
			</g>
		</g>
		<g>
			
				<linearGradient id="SVGID_4_" gradientUnits="userSpaceOnUse" x1="3565.5869" y1="4415.9678" x2="3565.5869" y2="4381.8604" gradientTransform="matrix(-1 0 0 -1 3613.6562 4482.1367)">
				<stop  offset="0" style="stop-color:#99DBF6"/>
				<stop  offset="1" style="stop-color:#00B2DE"/>
			</linearGradient>
			<path fill="url(#SVGID_4_)" d="M67.828,87.011c1.072-1.021,1.608-2.311,1.608-3.762c0-1.504-0.536-2.791-1.609-3.811
				L56.164,67.726c-1.073-1.02-2.31-1.557-3.814-1.557c-1.451,0-2.743,0.537-3.815,1.557c-1.02,1.072-1.56,2.361-1.56,3.812
				c0,1.508,0.54,2.74,1.562,3.814l2.523,2.471l-18.988-0.002c-1.504,0-2.793,0.539-3.812,1.611
				c-1.075,1.025-1.558,2.311-1.558,3.814c0,1.451,0.482,2.738,1.558,3.762c1.021,1.074,2.312,1.559,3.814,1.607l18.988,0.004
				l-2.524,2.473c-1.021,1.021-1.56,2.312-1.56,3.814c0,1.449,0.541,2.738,1.56,3.812c1.074,1.02,2.366,1.557,3.813,1.557
				c1.507,0,2.742-0.533,3.818-1.557L67.828,87.011z"/>
			<g opacity="0.6">
				<path fill="#FFFFFF" d="M66.814,80.636L55.986,69.761c-1-0.951-2.146-1.447-3.544-1.447c-1.348,0-2.546,0.5-3.544,1.447
					c-0.729,0.768-1.188,1.654-1.364,2.635c-0.005-0.094-0.012-0.184-0.012-0.277c0-1.346,0.499-2.543,1.444-3.541
					c1-0.947,2.198-1.447,3.545-1.447c1.398,0,2.545,0.496,3.544,1.447l10.829,10.875c0.998,0.947,1.494,2.146,1.494,3.49
					c0,0.322-0.029,0.631-0.082,0.93C68.237,82.632,67.749,81.522,66.814,80.636z"/>
				<path fill="#FFFFFF" d="M52.849,79.479H32.394c-1.396,0.049-2.597,0.5-3.541,1.498c-0.763,0.721-1.202,1.586-1.37,2.555
					c-0.003-0.082-0.01-0.162-0.01-0.244c0-1.35,0.448-2.547,1.449-3.494c0.945-0.998,2.146-1.449,3.541-1.498H51.64L52.849,79.479z
					"/>
			</g>
		</g>
	</g>
</g>
</svg>
