<?xml version="1.0" encoding="utf-8"?>
<!-- Generator: Adobe Illustrator 13.0.0, SVG Export Plug-In . SVG Version: 6.00 Build 14948)  -->
<!DOCTYPE svg PUBLIC "-//W3C//DTD SVG 1.1//EN" "http://www.w3.org/Graphics/SVG/1.1/DTD/svg11.dtd">
<svg version="1.1" id="Layer_1" xmlns="http://www.w3.org/2000/svg" xmlns:xlink="http://www.w3.org/1999/xlink" x="0px" y="0px"
	 width="128px" height="128px" viewBox="0 0 128 128" enable-background="new 0 0 128 128" xml:space="preserve">
<g>
	<g>
		
			<linearGradient id="SVGID_1_" gradientUnits="userSpaceOnUse" x1="-183.021" y1="-291.5527" x2="-183.021" y2="-415.5688" gradientTransform="matrix(1 0 0 -1 246.7271 -289.8564)">
			<stop  offset="0" style="stop-color:#5F5D5C"/>
			<stop  offset="1" style="stop-color:#181500"/>
		</linearGradient>
		<path fill="url(#SVGID_1_)" d="M125.67,20.794v85.82c0,10.547-8.545,19.098-19.084,19.098H20.827
			c-10.539,0-19.084-8.551-19.084-19.098v-85.82c0-10.548,8.545-19.098,19.084-19.098h85.759
			C117.125,1.696,125.67,10.246,125.67,20.794L125.67,20.794z"/>
		<g>
			
				<linearGradient id="SVGID_2_" gradientUnits="userSpaceOnUse" x1="1254.418" y1="-3200.6465" x2="1254.418" y2="-3169.6973" gradientTransform="matrix(-1 0 0 -1 1318.1191 -3160.2061)">
				<stop  offset="0" style="stop-color:#6D6F71"/>
				<stop  offset="1" style="stop-color:#939598"/>
			</linearGradient>
			<path fill="url(#SVGID_2_)" d="M24.783,23.105l77.838,0.001c9.564,0,17.32,7.761,17.32,17.334V26.826
				c0-9.573-7.756-17.335-17.32-17.335H24.783c-9.566,0-17.322,7.761-17.322,17.334V40.44C7.461,30.867,15.217,23.105,24.783,23.105
				z"/>
			<path fill="#FFFFFF" d="M102.629,9.001H24.783c-9.566,0-17.322,7.762-17.322,17.336v1.873c0-9.574,7.756-17.336,17.322-17.336
				h77.846c9.566,0,17.322,7.762,17.322,17.336v-1.873C119.951,16.763,112.195,9.001,102.629,9.001z"/>
		</g>
	</g>
	<g>
		
			<linearGradient id="SVGID_3_" gradientUnits="userSpaceOnUse" x1="-183.4595" y1="-627.6123" x2="-183.4595" y2="-687.5596" gradientTransform="matrix(1 0 0 -1 246.7271 -588.7695)">
			<stop  offset="0" style="stop-color:#99DBF6"/>
			<stop  offset="1" style="stop-color:#00B2DE"/>
		</linearGradient>
		<path fill="url(#SVGID_3_)" d="M63.179,38.844c-3.293,0.054-5.922,2.761-5.879,6.053v9.491l-6.703-6.7
			c-1.129-1.163-2.693-1.797-4.309-1.793c-1.613,0.002-3.162,0.628-4.285,1.793c-2.289,2.359-2.232,6.143,0.125,8.445l6.727,6.723
			h-9.49c-2.158-0.029-4.172,1.104-5.258,2.966c-1.088,1.86-1.088,4.167,0,6.025c1.086,1.866,3.098,2.997,5.258,2.968h9.49
			l-6.703,6.701c-1.545,1.506-2.168,3.716-1.619,5.803c0.549,2.083,2.176,3.713,4.262,4.26c2.086,0.546,4.301-0.074,5.803-1.619
			l6.703-6.7v9.463c-0.029,2.157,1.102,4.171,2.963,5.255s4.164,1.084,6.027,0c1.863-1.086,2.994-3.098,2.967-5.255v-9.463
			l6.699,6.7c1.502,1.545,3.723,2.165,5.803,1.619c2.088-0.547,3.713-2.177,4.26-4.26c0.549-2.087-0.072-4.324-1.619-5.83
			l-6.674-6.674h9.463c1.619,0.02,3.17-0.626,4.311-1.766c1.141-1.147,1.771-2.698,1.744-4.312
			c-0.059-3.293-2.762-5.917-6.055-5.881h-9.49l6.725-6.723c1.158-1.13,1.797-2.67,1.793-4.285c-0.002-1.619-0.656-3.161-1.82-4.284
			c-2.363-2.288-6.143-2.231-8.441,0.125l-6.701,6.701v-9.495c0.021-1.617-0.625-3.17-1.77-4.308
			C66.341,39.443,64.79,38.813,63.179,38.844L63.179,38.844z"/>
		<g>
			<path fill="#00A4DE" d="M63.37,97.477c-1.611,0.032-3.162-0.6-4.305-1.741c-1.145-1.138-1.791-2.692-1.77-4.31v1.313
				c-0.021,1.616,0.625,3.171,1.77,4.308c1.143,1.143,2.693,1.774,4.305,1.742c3.293-0.053,5.922-2.76,5.879-6.052v-1.312
				C69.292,94.717,66.663,97.424,63.37,97.477z"/>
			<path fill="#00A4DE" d="M57.296,81.932l-6.701,6.701c-2.299,2.357-6.078,2.412-8.441,0.125c-1.008-0.972-1.631-2.258-1.781-3.637
				c-0.023,0.22-0.039,0.441-0.039,0.665c0.002,1.62,0.656,3.161,1.82,4.284c2.363,2.287,6.143,2.232,8.441-0.125l6.701-6.701
				V81.932z"/>
			<path fill="#00A4DE" d="M84.546,88.635c-1.123,1.164-2.672,1.791-4.285,1.793c-1.615,0.002-3.18-0.631-4.309-1.793l-6.703-6.7
				v1.312l6.703,6.701c1.129,1.162,2.693,1.795,4.309,1.793c1.613-0.002,3.162-0.629,4.285-1.793
				c1.283-1.323,1.803-3.093,1.619-4.799C86.022,86.418,85.501,87.649,84.546,88.635z"/>
		</g>
		<path opacity="0.5" fill="#FFFFFF" d="M63.171,41.269c1.383-0.022,2.707,0.515,3.69,1.492c0.474,0.474,0.847,1.032,1.104,1.64
			c-0.061-1.166-0.556-2.271-1.384-3.1c-0.906-0.9-2.127-1.397-3.403-1.377c-2.491,0.042-4.495,2.009-4.629,4.462
			C59.317,42.582,61.087,41.303,63.171,41.269z"/>
		<path opacity="0.5" fill="#FFFFFF" d="M43.551,49.528c0.962-0.994,2.278-1.55,3.665-1.555c0.67,0,1.329,0.132,1.94,0.379
			c-0.867-0.782-1.999-1.214-3.17-1.214c-1.277,0.004-2.492,0.516-3.381,1.434c-1.731,1.791-1.758,4.599-0.117,6.428
			C41.755,53.182,42.102,51.025,43.551,49.528z"/>
		<path opacity="0.5" fill="#FFFFFF" d="M35.372,68.934c-0.023-1.383,0.515-2.707,1.492-3.69c0.474-0.475,1.033-0.848,1.64-1.104
			c-1.166,0.06-2.271,0.555-3.1,1.383c-0.9,0.906-1.397,2.127-1.377,3.404c0.042,2.491,2.009,4.495,4.462,4.628
			C36.685,72.786,35.405,71.017,35.372,68.934z"/>
		<path opacity="0.5" fill="#FFFFFF" d="M91.324,68.758c0.023,1.383-0.516,2.707-1.492,3.69c-0.475,0.475-1.033,0.848-1.641,1.104
			c1.166-0.06,2.271-0.555,3.1-1.383c0.9-0.906,1.398-2.127,1.377-3.404c-0.041-2.491-2.008-4.495-4.461-4.628
			C90.012,64.905,91.291,66.675,91.324,68.758z"/>
		<path opacity="0.5" fill="#FFFFFF" d="M83.015,49.528c-0.962-0.994-2.278-1.55-3.665-1.555c-0.67,0-1.329,0.132-1.94,0.379
			c0.867-0.782,1.999-1.214,3.17-1.214c1.277,0.004,2.492,0.516,3.381,1.434c1.731,1.791,1.758,4.599,0.117,6.428
			C84.811,53.182,84.464,51.025,83.015,49.528z"/>
	</g>
</g>
</svg>
