<?xml version="1.0" encoding="utf-8"?>
<!-- Generator: Adobe Illustrator 13.0.0, SVG Export Plug-In . SVG Version: 6.00 Build 14948)  -->
<!DOCTYPE svg PUBLIC "-//W3C//DTD SVG 1.1//EN" "http://www.w3.org/Graphics/SVG/1.1/DTD/svg11.dtd">
<svg version="1.1" id="Layer_1" xmlns="http://www.w3.org/2000/svg" xmlns:xlink="http://www.w3.org/1999/xlink" x="0px" y="0px"
	 width="128px" height="128px" viewBox="0 0 128 128" enable-background="new 0 0 128 128" xml:space="preserve">
<g>
	
		<linearGradient id="SVGID_1_" gradientUnits="userSpaceOnUse" x1="-183.021" y1="-291.5527" x2="-183.021" y2="-415.5688" gradientTransform="matrix(1 0 0 -1 246.7271 -289.8564)">
		<stop  offset="0" style="stop-color:#5F5D5C"/>
		<stop  offset="1" style="stop-color:#181500"/>
	</linearGradient>
	<path fill="url(#SVGID_1_)" d="M125.67,20.794v85.82c0,10.547-8.545,19.098-19.084,19.098H20.827
		c-10.539,0-19.084-8.551-19.084-19.098v-85.82c0-10.548,8.545-19.098,19.084-19.098h85.759
		C117.125,1.696,125.67,10.246,125.67,20.794L125.67,20.794z"/>
	<g>
		
			<linearGradient id="SVGID_2_" gradientUnits="userSpaceOnUse" x1="1254.418" y1="-3200.6465" x2="1254.418" y2="-3169.6973" gradientTransform="matrix(-1 0 0 -1 1318.1191 -3160.2061)">
			<stop  offset="0" style="stop-color:#6D6F71"/>
			<stop  offset="1" style="stop-color:#939598"/>
		</linearGradient>
		<path fill="url(#SVGID_2_)" d="M24.783,23.105l77.838,0.001c9.564,0,17.32,7.761,17.32,17.334V26.826
			c0-9.573-7.756-17.335-17.32-17.335H24.783c-9.566,0-17.322,7.761-17.322,17.334V40.44C7.461,30.867,15.217,23.105,24.783,23.105z
			"/>
		<path fill="#FFFFFF" d="M102.629,9.001H24.783c-9.566,0-17.322,7.762-17.322,17.336v1.873c0-9.574,7.756-17.336,17.322-17.336
			h77.846c9.566,0,17.322,7.762,17.322,17.336v-1.873C119.951,16.763,112.195,9.001,102.629,9.001z"/>
	</g>
	<g>
		<g>
			
				<linearGradient id="SVGID_3_" gradientUnits="userSpaceOnUse" x1="-2774.7056" y1="-1420.9585" x2="-2727.5461" y2="-1373.7992" gradientTransform="matrix(0.7071 0.7071 -0.7071 0.7071 1019.5685 3001.9465)">
				<stop  offset="0" style="stop-color:#99DBF6"/>
				<stop  offset="1" style="stop-color:#00B2DE"/>
			</linearGradient>
			<path fill="url(#SVGID_3_)" d="M85.914,44.961c-13.022-13.023-34.138-13.023-47.16-0.001s-13.024,34.137-0.001,47.159
				c13.021,13.022,34.137,13.024,47.159,0.002C98.937,79.101,98.937,57.984,85.914,44.961z M76.99,53.885
				c2.446,2.446,4.142,5.356,5.108,8.444l-39.531-0.003c0.968-3.088,2.662-5.996,5.107-8.441
				C55.772,45.789,68.896,45.789,76.99,53.885z M47.676,83.196c-2.446-2.446-4.141-5.356-5.108-8.444l39.529,0.004
				c-0.968,3.087-2.662,5.997-5.106,8.443C68.896,91.291,55.771,91.291,47.676,83.196z"/>
		</g>
	</g>
	<path opacity="0.5" fill="#FFFFFF" d="M39.946,49.321c12.364-12.363,32.412-12.363,44.775,0.001c2.66,2.659,4.733,5.68,6.245,8.898
		h1.028c-1.535-4.128-3.955-8.001-7.273-11.318c-12.363-12.364-32.411-12.364-44.775-0.001c-3.318,3.318-5.739,7.191-7.274,11.319
		h1.027C35.213,55.002,37.286,51.981,39.946,49.321z"/>
</g>
</svg>
