<?xml version="1.0" encoding="utf-8"?>
<!-- Generator: Adobe Illustrator 13.0.0, SVG Export Plug-In . SVG Version: 6.00 Build 14948)  -->
<!DOCTYPE svg PUBLIC "-//W3C//DTD SVG 1.1//EN" "http://www.w3.org/Graphics/SVG/1.1/DTD/svg11.dtd">
<svg version="1.1" id="Layer_1" xmlns="http://www.w3.org/2000/svg" xmlns:xlink="http://www.w3.org/1999/xlink" x="0px" y="0px"
	 width="128px" height="128px" viewBox="0 0 128 128" enable-background="new 0 0 128 128" xml:space="preserve">
<g>
	
		<linearGradient id="SVGID_1_" gradientUnits="userSpaceOnUse" x1="-183.1685" y1="-291.8398" x2="-183.1685" y2="-415.856" gradientTransform="matrix(1 0 0 -1 246.7271 -289.8564)">
		<stop  offset="0" style="stop-color:#5F5D5C"/>
		<stop  offset="1" style="stop-color:#181500"/>
	</linearGradient>
	<path fill="url(#SVGID_1_)" d="M125.522,21.081v85.82c0,10.547-8.545,19.098-19.084,19.098H20.68
		c-10.539,0-19.084-8.551-19.084-19.098v-85.82c0-10.548,8.545-19.098,19.084-19.098h85.759
		C116.978,1.983,125.522,10.533,125.522,21.081L125.522,21.081z"/>
	<g>
		
			<linearGradient id="SVGID_2_" gradientUnits="userSpaceOnUse" x1="1254.5645" y1="-3200.9336" x2="1254.5645" y2="-3169.9844" gradientTransform="matrix(-1 0 0 -1 1318.1191 -3160.2061)">
			<stop  offset="0" style="stop-color:#6D6F71"/>
			<stop  offset="1" style="stop-color:#939598"/>
		</linearGradient>
		<path fill="url(#SVGID_2_)" d="M24.636,23.393l77.838,0.001c9.564,0,17.32,7.761,17.32,17.334V27.113
			c0-9.573-7.756-17.335-17.32-17.335H24.636c-9.566,0-17.322,7.761-17.322,17.334v13.615C7.313,31.154,15.069,23.393,24.636,23.393
			z"/>
		<path fill="#FFFFFF" d="M102.481,9.288H24.636c-9.566,0-17.322,7.762-17.322,17.336v1.873c0-9.574,7.756-17.336,17.322-17.336
			h77.846c9.566,0,17.322,7.762,17.322,17.336v-1.873C119.804,17.05,112.048,9.288,102.481,9.288z"/>
	</g>
	
		<linearGradient id="SVGID_3_" gradientUnits="userSpaceOnUse" x1="-323.4922" y1="909.459" x2="-387.4749" y2="864.6579" gradientTransform="matrix(1 0 0 1 412.6201 -813.9912)">
		<stop  offset="0" style="stop-color:#80C11B"/>
		<stop  offset="1" style="stop-color:#80E21B"/>
	</linearGradient>
	<path fill="url(#SVGID_3_)" d="M35.957,39.632c-2.076-0.029-4.014,1.061-5.061,2.854s-1.047,4.01,0,5.803s2.984,2.885,5.061,2.855
		h3.094c-7.469,8.154-10.781,19.84-7.723,31.252c4.754,17.744,23.174,28.377,40.918,23.623
		c17.746-4.754,28.379-23.172,23.625-40.916c-0.91-3.379-4.369-5.373-7.746-4.463c-3.379,0.91-5.396,4.369-4.486,7.748
		c2.982,11.129-3.525,22.418-14.654,25.4c-11.127,2.979-22.441-3.551-25.424-14.678c-2.391-8.928,1.326-17.953,8.635-22.717v9.186
		c-0.029,2.076,1.062,4.016,2.855,5.062s4.012,1.047,5.805,0s2.883-2.984,2.854-5.062V45.626c0.02-1.555-0.602-3.051-1.703-4.146
		c-0.613-0.613-1.357-1.062-2.158-1.344c-0.736-0.326-1.541-0.516-2.398-0.504H35.957L35.957,39.632z"/>
	<path opacity="0.5" fill="#FFFFFF" d="M60.393,43.002c0,0.662-0.588,1.198-1.312,1.198H34.616c-0.726,0-1.313-0.536-1.313-1.198
		l0,0c0-0.662,0.588-1.198,1.313-1.198H59.08C59.805,41.804,60.393,42.34,60.393,43.002L60.393,43.002z"/>
</g>
</svg>
