<?xml version="1.0" encoding="utf-8"?>
<!-- Generator: Adobe Illustrator 13.0.0, SVG Export Plug-In . SVG Version: 6.00 Build 14948)  -->
<!DOCTYPE svg PUBLIC "-//W3C//DTD SVG 1.1//EN" "http://www.w3.org/Graphics/SVG/1.1/DTD/svg11.dtd">
<svg version="1.1" id="Layer_1" xmlns="http://www.w3.org/2000/svg" xmlns:xlink="http://www.w3.org/1999/xlink" x="0px" y="0px"
	 width="128px" height="128px" viewBox="0 0 128 128" enable-background="new 0 0 128 128" xml:space="preserve">
<g>
	
		<linearGradient id="SVGID_1_" gradientUnits="userSpaceOnUse" x1="-182.7271" y1="-291.8486" x2="-182.7271" y2="-415.8647" gradientTransform="matrix(1 0 0 -1 246.7271 -289.8564)">
		<stop  offset="0" style="stop-color:#5F5D5C"/>
		<stop  offset="1" style="stop-color:#181500"/>
	</linearGradient>
	<path fill="url(#SVGID_1_)" d="M125.964,21.09v85.82c0,10.547-8.545,19.098-19.084,19.098H21.121
		c-10.539,0-19.084-8.551-19.084-19.098V21.09c0-10.548,8.545-19.098,19.084-19.098h85.759
		C117.419,1.992,125.964,10.542,125.964,21.09L125.964,21.09z"/>
	<g>
		
			<linearGradient id="SVGID_2_" gradientUnits="userSpaceOnUse" x1="1254.123" y1="-3200.9424" x2="1254.123" y2="-3169.9932" gradientTransform="matrix(-1 0 0 -1 1318.1191 -3160.2061)">
			<stop  offset="0" style="stop-color:#6D6F71"/>
			<stop  offset="1" style="stop-color:#939598"/>
		</linearGradient>
		<path fill="url(#SVGID_2_)" d="M25.077,23.401l77.838,0.001c9.564,0,17.32,7.761,17.32,17.334V27.122
			c0-9.573-7.756-17.335-17.32-17.335H25.077c-9.566,0-17.322,7.761-17.322,17.334v13.615C7.755,31.163,15.511,23.401,25.077,23.401
			z"/>
		<path fill="#FFFFFF" d="M102.923,9.297H25.077c-9.566,0-17.322,7.762-17.322,17.336v1.873c0-9.574,7.756-17.336,17.322-17.336
			h77.846c9.566,0,17.322,7.762,17.322,17.336v-1.873C120.245,17.059,112.489,9.297,102.923,9.297z"/>
	</g>
	<g>
		<g>
			
				<linearGradient id="SVGID_3_" gradientUnits="userSpaceOnUse" x1="-306.0337" y1="-752.3359" x2="-306.0337" y2="-781.4487" gradientTransform="matrix(1 0 0 -1 370.0342 -712.6914)">
				<stop  offset="0" style="stop-color:#D5D7D8"/>
				<stop  offset="1" style="stop-color:#5C5F61"/>
			</linearGradient>
			<path fill="url(#SVGID_3_)" stroke="#808080" d="M73.061,64.827v-8.26c-0.008-5.006-4.057-9.055-9.057-9.062l0,0
				c-5.008,0.009-9.057,4.056-9.062,9.062l0,0v8.26c0,2.168-1.76,3.93-3.932,3.93l0,0c-2.17,0-3.932-1.761-3.932-3.93l0,0v-8.26
				c0.004-9.348,7.578-16.919,16.926-16.923l0,0c9.346,0.004,16.914,7.575,16.918,16.923l0,0v8.26c0,2.168-1.762,3.93-3.93,3.93l0,0
				C74.822,68.756,73.061,66.996,73.061,64.827L73.061,64.827z"/>
		</g>
		<path opacity="0.45" fill="#CCCCCC" d="M64.004,40.875c-8.746,0.004-15.832,7.087-15.834,15.831v2.011
			c0.002-8.744,7.088-15.827,15.834-15.831c8.742,0.004,15.824,7.087,15.826,15.831v-2.011
			C79.828,47.962,72.746,40.879,64.004,40.875z"/>
		
			<linearGradient id="SVGID_4_" gradientUnits="userSpaceOnUse" x1="-306.0337" y1="-776.0859" x2="-306.0337" y2="-814.5278" gradientTransform="matrix(1 0 0 -1 370.0342 -712.6914)">
			<stop  offset="0" style="stop-color:#EB7680"/>
			<stop  offset="1" style="stop-color:#C1282F"/>
		</linearGradient>
		<path fill="url(#SVGID_4_)" d="M89.373,93.1c0,4.823-4.102,8.736-9.158,8.736h-32.43c-5.059,0-9.158-3.913-9.158-8.736V72.129
			c0-4.825,4.1-8.734,9.158-8.734h32.43c5.057,0,9.158,3.907,9.158,8.734V93.1z"/>
		
			<linearGradient id="SVGID_5_" gradientUnits="userSpaceOnUse" x1="-306.0347" y1="-806.3911" x2="-306.0347" y2="-786.3696" gradientTransform="matrix(1 0 0 -1 370.0342 -712.6914)">
			<stop  offset="0" style="stop-color:#EB7680"/>
			<stop  offset="1" style="stop-color:#C1282F"/>
		</linearGradient>
		<path fill="url(#SVGID_5_)" d="M59.193,88.894v-5.095c-0.869-1.063-1.4-2.429-1.398-3.912l0,0c0-3.432,2.777-6.208,6.207-6.208
			l0,0c3.428,0,6.203,2.776,6.203,6.208l0,0c0,1.482-0.527,2.848-1.398,3.911l0,0v5.096c0,2.656-2.152,4.807-4.805,4.807l0,0
			C61.346,93.7,59.193,91.549,59.193,88.894L59.193,88.894z M59.33,79.886c0,1.201,0.455,2.285,1.201,3.116l0,0l0.197,0.219v5.673
			c0.004,1.808,1.467,3.268,3.271,3.271l0,0c1.807-0.004,3.266-1.464,3.271-3.271l0,0v-5.673l0.195-0.219
			c0.75-0.831,1.201-1.915,1.201-3.116l0,0c-0.004-2.581-2.09-4.667-4.668-4.674l0,0C61.422,75.22,59.334,77.306,59.33,79.886
			L59.33,79.886z"/>
		
			<linearGradient id="SVGID_6_" gradientUnits="userSpaceOnUse" x1="-306.0356" y1="-804.856" x2="-306.0356" y2="-787.9028" gradientTransform="matrix(1 0 0 -1 370.0342 -712.6914)">
			<stop  offset="0.0824" style="stop-color:#C2C2C2"/>
			<stop  offset="0.2635" style="stop-color:#D2D2D2"/>
			<stop  offset="0.5594" style="stop-color:#E6E6E6"/>
			<stop  offset="0.7582" style="stop-color:#EDEDED"/>
		</linearGradient>
		<path fill="url(#SVGID_6_)" d="M59.33,79.886c0,1.201,0.455,2.285,1.201,3.116l0,0l0.197,0.219v5.673
			c0.004,1.808,1.467,3.268,3.271,3.271l0,0c1.807-0.004,3.266-1.464,3.271-3.271l0,0v-5.673l0.195-0.219
			c0.75-0.831,1.201-1.915,1.201-3.116l0,0c-0.004-2.581-2.09-4.667-4.668-4.674l0,0C61.422,75.22,59.334,77.306,59.33,79.886
			L59.33,79.886z"/>
		<path fill="#AC2428" d="M80.215,100.224h-32.43c-5.059,0-9.158-3.912-9.158-8.736V93.1c0,4.823,4.1,8.736,9.158,8.736h32.43
			c5.057,0,9.158-3.913,9.158-8.736v-1.612C89.373,96.312,85.271,100.224,80.215,100.224z"/>
		<path opacity="0.5" fill="#EC8690" d="M79.072,65.544H48.928c-4.701,0-8.512,3.633-8.512,8.118v6.19
			c0-4.485,3.811-8.118,8.512-8.118h30.145c4.697,0,8.512,3.632,8.512,8.118v-6.19C87.584,69.177,83.77,65.544,79.072,65.544z"/>
		<path fill="#FFFFFF" d="M48.928,65.556h30.146c5.418,0.076,8.512,4.712,8.512,9.195v-1.499c0-4.483-3.811-8.121-8.512-8.121
			H48.928c-4.697,0-8.512,3.638-8.512,8.121v1.499C40.416,70.268,43.707,65.632,48.928,65.556z"/>
	</g>
</g>
</svg>
