<?xml version="1.0" encoding="utf-8"?>
<!-- Generator: Adobe Illustrator 13.0.0, SVG Export Plug-In . SVG Version: 6.00 Build 14948)  -->
<!DOCTYPE svg PUBLIC "-//W3C//DTD SVG 1.1//EN" "http://www.w3.org/Graphics/SVG/1.1/DTD/svg11.dtd">
<svg version="1.1" id="Layer_1" xmlns="http://www.w3.org/2000/svg" xmlns:xlink="http://www.w3.org/1999/xlink" x="0px" y="0px"
	 width="128px" height="128px" viewBox="0 0 128 128" enable-background="new 0 0 128 128" xml:space="preserve">
<g>
	<g>
		
			<radialGradient id="SVGID_1_" cx="150.8027" cy="360.96" r="30.0583" gradientTransform="matrix(1.2329 0 0 1.1831 -132.3845 -332.8138)" gradientUnits="userSpaceOnUse">
			<stop  offset="0" style="stop-color:#FAFAFA"/>
			<stop  offset="0.3629" style="stop-color:#E5E5E5"/>
			<stop  offset="1" style="stop-color:#C4C4C4"/>
		</radialGradient>
		<path fill="url(#SVGID_1_)" stroke="#808080" d="M62.157,69.044l30.14,42.767c4.659,7.387,2.643,13.43-4.486,13.43H18.964
			c-7.124,0-8.834-5.649-3.795-12.553l29.354-44.521C49.561,61.263,57.497,61.658,62.157,69.044L62.157,69.044z"/>
		<path opacity="0.5" fill="#FFFFFF" d="M29.731,120.343c0-20.967,16.75-38.172,38.109-39.983l-6.442-9.141
			c-4.355-6.9-11.771-7.271-16.479-0.816L17.495,112c-4.709,6.449-3.114,11.729,3.545,11.729h8.85
			C29.793,122.609,29.731,121.484,29.731,120.343z"/>
		<g>
			
				<linearGradient id="SVGID_2_" gradientUnits="userSpaceOnUse" x1="-201.7925" y1="-619.3857" x2="-201.7925" y2="-630.7979" gradientTransform="matrix(1 0 0 -1 246.7271 -588.7695)">
				<stop  offset="0" style="stop-color:#EC008C"/>
				<stop  offset="1" style="stop-color:#C40075"/>
			</linearGradient>
			<path fill="url(#SVGID_2_)" d="M39.232,36.322c0-3.151,2.555-5.706,5.705-5.706c3.148,0,5.699,2.555,5.699,5.706
				c0,3.152-2.551,5.706-5.699,5.706C41.787,42.028,39.232,39.475,39.232,36.322L39.232,36.322z"/>
			
				<radialGradient id="SVGID_3_" cx="-193.187" cy="-629.0459" r="37.5024" gradientTransform="matrix(1 0 0 -1 246.7271 -588.7695)" gradientUnits="userSpaceOnUse">
				<stop  offset="0" style="stop-color:#FAFAFA"/>
				<stop  offset="0.4142" style="stop-color:#E3E3E3"/>
				<stop  offset="1" style="stop-color:#C7C7C7"/>
			</radialGradient>
			<path fill="url(#SVGID_3_)" stroke="#808080" d="M50.766,2.761l-0.092,0.073c-0.014,0.068-1.963,10.396-1.963,10.396
				c-0.145,0.774-0.727,1.39-1.49,1.578c-2.537,0.633-4.965,1.633-7.201,2.988c-0.674,0.407-1.52,0.383-2.168-0.062
				c0,0-8.682-5.927-8.734-5.963l-0.115,0.012c-0.049,0.048-3.883,3.885-3.932,3.931l-0.014,0.084v0.033
				c0.039,0.046,5.959,8.744,5.959,8.744c0.23,0.339,0.346,0.734,0.346,1.131c0,0.359-0.092,0.717-0.287,1.042
				c-1.35,2.237-2.354,4.658-2.982,7.199c-0.191,0.764-0.803,1.352-1.578,1.496c0,0-10.32,1.951-10.385,1.962l-0.078,0.089
				c0,0.069,0,5.499,0,5.564l0.072,0.09c0.064,0.011,10.393,1.967,10.393,1.967c0.771,0.144,1.385,0.726,1.576,1.491
				c0.629,2.54,1.631,4.963,2.982,7.203c0.195,0.319,0.293,0.681,0.293,1.039c0,0.394-0.119,0.792-0.354,1.136
				c0,0-5.922,8.687-5.959,8.74v0.031l0.014,0.085c0.051,0.046,3.877,3.879,3.928,3.931l0.117,0.013
				c0.055-0.037,8.738-5.964,8.738-5.964c0.646-0.443,1.498-0.466,2.172-0.06c2.236,1.35,4.66,2.354,7.197,2.984
				c0.764,0.188,1.346,0.808,1.49,1.578c0,0,1.951,10.329,1.961,10.397l0.09,0.071c0.068,0,5.494,0,5.559,0l0.09-0.071
				c0.012-0.065,1.965-10.397,1.965-10.397c0.145-0.771,0.725-1.39,1.488-1.578c2.541-0.631,4.965-1.633,7.197-2.984
				c0.674-0.406,1.525-0.387,2.176,0.06c0,0,8.678,5.927,8.732,5.964l0.117-0.013c0.049-0.047,3.881-3.882,3.928-3.929l0.016-0.086
				l-0.004-0.032c-0.039-0.054-5.959-8.745-5.959-8.745c-0.23-0.34-0.346-0.737-0.346-1.131c0-0.358,0.096-0.72,0.287-1.044
				c1.352-2.235,2.354-4.658,2.982-7.198c0.189-0.766,0.809-1.348,1.58-1.491c0,0,10.322-1.957,10.387-1.967l0.072-0.09
				c0-0.062,0-5.495,0-5.562l-0.072-0.09c-0.062-0.013-10.387-1.964-10.387-1.964c-0.771-0.145-1.391-0.731-1.58-1.496
				c-0.629-2.537-1.631-4.96-2.979-7.204c-0.195-0.318-0.291-0.678-0.291-1.037c0-0.396,0.115-0.792,0.352-1.135
				c0,0,5.92-8.684,5.953-8.74l0.006-0.03l-0.016-0.087c-0.043-0.048-3.881-3.887-3.928-3.931l-0.117-0.012
				c-0.049,0.036-8.732,5.963-8.732,5.963c-0.65,0.444-1.498,0.469-2.172,0.062c-2.24-1.354-4.66-2.355-7.201-2.988
				c-0.756-0.188-1.344-0.804-1.486-1.578c0,0-1.951-10.327-1.969-10.396l-0.088-0.073C56.256,2.761,50.83,2.761,50.766,2.761
				L50.766,2.761z M34.928,40.28c0-10.273,8.35-18.631,18.611-18.631c10.27,0,18.617,8.357,18.617,18.631
				c0,10.271-8.348,18.626-18.617,18.626C43.277,58.906,34.928,50.551,34.928,40.28L34.928,40.28z"/>
			<path opacity="0.25" fill="#FFFFFF" d="M45.006,36.05c1.627,1.364,3.832,0.615,5.203-0.097c-0.201-2.737-2.484-4.896-5.271-4.896
				c-2.799,0-5.092,2.176-5.275,4.932C40.932,35.365,43.252,34.585,45.006,36.05z"/>
		</g>
	</g>
	<g>
		
			<linearGradient id="SVGID_4_" gradientUnits="userSpaceOnUse" x1="54.8911" y1="-868.2729" x2="98.9044" y2="-843.1933" gradientTransform="matrix(0.9078 -0.0051 -0.0051 -0.9079 -5.0056 -717.3772)">
			<stop  offset="0" style="stop-color:#F1F1F1"/>
			<stop  offset="0.2485" style="stop-color:#DDDDDE"/>
			<stop  offset="0.5636" style="stop-color:#E3E4E7"/>
			<stop  offset="0.9212" style="stop-color:#B5B6B7"/>
		</linearGradient>
		<path fill="url(#SVGID_4_)" stroke="#999999" stroke-miterlimit="3.8637" d="M53.007,75.505
			c-9.03-8.934-9.113-23.494-0.188-32.527c8.925-9.03,23.479-9.112,32.51-0.181c9.029,8.936,9.115,23.496,0.188,32.526
			C76.592,84.354,62.038,84.438,53.007,75.505L53.007,75.505z"/>
		
			<linearGradient id="SVGID_5_" gradientUnits="userSpaceOnUse" x1="100.3154" y1="-855.873" x2="53.4876" y2="-855.6099" gradientTransform="matrix(0.9078 -0.0051 -0.0051 -0.9079 -5.0056 -717.3772)">
			<stop  offset="0" style="stop-color:#F1F1F1"/>
			<stop  offset="0.2485" style="stop-color:#DDDDDE"/>
			<stop  offset="0.5636" style="stop-color:#E3E4E7"/>
			<stop  offset="0.9212" style="stop-color:#B5B6B7"/>
		</linearGradient>
		<path fill="url(#SVGID_5_)" d="M54.225,74.271c-8.349-8.26-8.427-21.723-0.173-30.074c8.252-8.35,21.709-8.425,30.059-0.167
			c8.348,8.261,8.428,21.724,0.173,30.074C76.031,82.454,62.575,82.531,54.225,74.271L54.225,74.271z"/>
		
			<linearGradient id="SVGID_6_" gradientUnits="userSpaceOnUse" x1="76.7754" y1="-877.6094" x2="77.0212" y2="-833.8586" gradientTransform="matrix(0.9078 -0.0051 -0.0051 -0.9079 -5.0056 -717.3772)">
			<stop  offset="0" style="stop-color:#5081B2"/>
			<stop  offset="0.1178" style="stop-color:#477DAF"/>
			<stop  offset="0.3137" style="stop-color:#2D74A8"/>
			<stop  offset="0.5621" style="stop-color:#04659C"/>
			<stop  offset="0.5843" style="stop-color:#00639B"/>
			<stop  offset="1" style="stop-color:#004E8C"/>
		</linearGradient>
		<path fill="url(#SVGID_6_)" d="M55.212,73.272c-7.799-7.714-7.871-20.287-0.162-28.087c7.707-7.8,20.275-7.87,28.074-0.157
			c7.797,7.716,7.871,20.29,0.162,28.089C75.578,80.915,63.011,80.988,55.212,73.272L55.212,73.272z"/>
		
			<linearGradient id="SVGID_7_" gradientUnits="userSpaceOnUse" x1="102.0352" y1="-896.9102" x2="115.7063" y2="-880.804" gradientTransform="matrix(0.9078 -0.0051 -0.0051 -0.9079 -5.0056 -717.3772)">
			<stop  offset="0" style="stop-color:#F1F1F1"/>
			<stop  offset="0.2485" style="stop-color:#DDDDDE"/>
			<stop  offset="0.5636" style="stop-color:#E3E4E7"/>
			<stop  offset="0.9212" style="stop-color:#B5B6B7"/>
		</linearGradient>
		<path fill="url(#SVGID_7_)" stroke="#999999" stroke-miterlimit="3.8637" d="M89.765,69.329l23.311,20.731
			c3.68,3.643,3.158,10.143,0.382,12.948l-0.315,0.318c-2.774,2.805-9.264,3.403-12.943-0.236L79.302,79.803
			c2.408-1.518,4.14-2.43,5.979-4.291C87.124,73.651,88.476,71.815,89.765,69.329L89.765,69.329z"/>
		<path opacity="0.5" fill="#094763" d="M69.429,57.671c6.065,5.069,14.27,2.285,19.375-0.364
			c-0.752-10.191-9.249-18.231-19.631-18.231c-10.422,0-18.949,8.102-19.637,18.356C54.263,55.113,62.903,52.209,69.429,57.671z"/>
		<path fill="#B3B3B3" d="M115.049,93.061c0.493,3.326-0.452,6.788-2.347,8.702l-0.352,0.354c-2.352,2.378-7.1,3.324-11.04,1.852
			c3.761,2.629,9.352,1.916,11.874-0.636l0.316-0.318C115.617,100.875,116.416,96.592,115.049,93.061z"/>
	</g>
</g>
</svg>
