<?xml version="1.0" encoding="utf-8"?>
<!-- Generator: Adobe Illustrator 13.0.0, SVG Export Plug-In . SVG Version: 6.00 Build 14948)  -->
<!DOCTYPE svg PUBLIC "-//W3C//DTD SVG 1.1//EN" "http://www.w3.org/Graphics/SVG/1.1/DTD/svg11.dtd">
<svg version="1.1" id="Layer_1" xmlns="http://www.w3.org/2000/svg" xmlns:xlink="http://www.w3.org/1999/xlink" x="0px" y="0px"
	 width="128px" height="128px" viewBox="0 0 128 128" enable-background="new 0 0 128 128" xml:space="preserve">
<g>
	<g>
		
			<linearGradient id="SVGID_1_" gradientUnits="userSpaceOnUse" x1="-182.7271" y1="-291.8486" x2="-182.7271" y2="-415.8647" gradientTransform="matrix(1 0 0 -1 246.7271 -289.8564)">
			<stop  offset="0" style="stop-color:#5F5D5C"/>
			<stop  offset="1" style="stop-color:#181500"/>
		</linearGradient>
		<path fill="url(#SVGID_1_)" d="M125.964,21.09v85.82c0,10.547-8.545,19.098-19.084,19.098H21.121
			c-10.539,0-19.084-8.551-19.084-19.098V21.09c0-10.548,8.545-19.098,19.084-19.098h85.759
			C117.419,1.992,125.964,10.542,125.964,21.09L125.964,21.09z"/>
		<g>
			
				<linearGradient id="SVGID_2_" gradientUnits="userSpaceOnUse" x1="1254.123" y1="-3200.9424" x2="1254.123" y2="-3169.9932" gradientTransform="matrix(-1 0 0 -1 1318.1191 -3160.2061)">
				<stop  offset="0" style="stop-color:#6D6F71"/>
				<stop  offset="1" style="stop-color:#939598"/>
			</linearGradient>
			<path fill="url(#SVGID_2_)" d="M25.077,23.401l77.838,0.001c9.564,0,17.32,7.761,17.32,17.334V27.122
				c0-9.573-7.756-17.335-17.32-17.335H25.077c-9.566,0-17.322,7.761-17.322,17.334v13.615
				C7.755,31.163,15.511,23.401,25.077,23.401z"/>
			<path fill="#FFFFFF" d="M102.923,9.297H25.077c-9.566,0-17.322,7.762-17.322,17.336v1.873c0-9.574,7.756-17.336,17.322-17.336
				h77.846c9.566,0,17.322,7.762,17.322,17.336v-1.873C120.245,17.059,112.489,9.297,102.923,9.297z"/>
		</g>
		<linearGradient id="SVGID_3_" gradientUnits="userSpaceOnUse" x1="63.9995" y1="39.3047" x2="63.9995" y2="101.8774">
			<stop  offset="0" style="stop-color:#FF9D00"/>
			<stop  offset="1" style="stop-color:#FF1F00"/>
		</linearGradient>
		<path fill="url(#SVGID_3_)" d="M100.247,77.541c1.971-1.877,2.951-4.238,2.951-6.898c0-2.76-0.984-5.121-2.955-6.994
			L78.853,42.162c-1.971-1.873-4.238-2.857-7-2.857c-2.662,0-5.029,0.984-6.998,2.857c-1.869,1.969-2.859,4.332-2.859,6.994
			c0,2.762,0.99,5.027,2.863,6.998l4.633,4.531l-34.836-0.002c-2.76,0-5.125,0.988-6.994,2.959
			c-1.975,1.873-2.859,4.234-2.859,6.992c0,2.662,0.885,5.027,2.859,6.9c1.873,1.971,4.238,2.859,6.996,2.955l34.836,0.004
			l-4.633,4.533c-1.873,1.873-2.861,4.238-2.859,7c0,2.654,0.99,5.021,2.859,6.994c1.971,1.869,4.34,2.855,6.998,2.855
			c2.762,0,5.027-0.982,7-2.855L100.247,77.541z"/>
	</g>
	<g opacity="0.6">
		<path fill="#FFFFFF" d="M98.159,65.49L78.69,45.938c-1.797-1.709-3.86-2.6-6.373-2.6c-2.422,0-4.576,0.896-6.372,2.6
			c-1.309,1.381-2.136,2.976-2.451,4.738c-0.009-0.168-0.021-0.332-0.021-0.5c0-2.417,0.897-4.572,2.598-6.366
			c1.797-1.704,3.952-2.602,6.372-2.602c2.514,0,4.577,0.893,6.373,2.602l19.469,19.552c1.794,1.707,2.687,3.859,2.687,6.277
			c0,0.578-0.054,1.134-0.147,1.671C100.717,69.079,99.839,67.087,98.159,65.49z"/>
		<path fill="#FFFFFF" d="M73.725,63.918H35.438c-2.512,0.088-4.669,0.896-6.367,2.691c-1.371,1.298-2.162,2.854-2.463,4.594
			c-0.006-0.148-0.02-0.291-0.02-0.439c0-2.424,0.807-4.579,2.607-6.283c1.699-1.794,3.857-2.603,6.367-2.69H71.55L73.725,63.918z"
			/>
	</g>
</g>
</svg>
