<?xml version="1.0" encoding="utf-8"?>
<!-- Generator: Adobe Illustrator 13.0.0, SVG Export Plug-In . SVG Version: 6.00 Build 14948)  -->
<!DOCTYPE svg PUBLIC "-//W3C//DTD SVG 1.1//EN" "http://www.w3.org/Graphics/SVG/1.1/DTD/svg11.dtd">
<svg version="1.1" id="Layer_1" xmlns="http://www.w3.org/2000/svg" xmlns:xlink="http://www.w3.org/1999/xlink" x="0px" y="0px"
	 width="128px" height="128px" viewBox="0 0 128 128" enable-background="new 0 0 128 128" xml:space="preserve">
<g>
	<g>
		
			<linearGradient id="SVGID_1_" gradientUnits="userSpaceOnUse" x1="-183.1685" y1="-291.5527" x2="-183.1685" y2="-415.5688" gradientTransform="matrix(1 0 0 -1 246.7271 -289.8564)">
			<stop  offset="0" style="stop-color:#5F5D5C"/>
			<stop  offset="1" style="stop-color:#181500"/>
		</linearGradient>
		<path fill="url(#SVGID_1_)" d="M125.522,20.794v85.82c0,10.547-8.545,19.098-19.084,19.098H20.68
			c-10.539,0-19.084-8.551-19.084-19.098v-85.82c0-10.548,8.545-19.098,19.084-19.098h85.759
			C116.978,1.696,125.522,10.246,125.522,20.794L125.522,20.794z"/>
		<g>
			
				<linearGradient id="SVGID_2_" gradientUnits="userSpaceOnUse" x1="1254.5645" y1="-3200.6465" x2="1254.5645" y2="-3169.6973" gradientTransform="matrix(-1 0 0 -1 1318.1191 -3160.2061)">
				<stop  offset="0" style="stop-color:#6D6F71"/>
				<stop  offset="1" style="stop-color:#939598"/>
			</linearGradient>
			<path fill="url(#SVGID_2_)" d="M24.636,23.105l77.838,0.001c9.564,0,17.32,7.761,17.32,17.334V26.826
				c0-9.573-7.756-17.335-17.32-17.335H24.636c-9.566,0-17.322,7.761-17.322,17.334V40.44C7.313,30.867,15.069,23.105,24.636,23.105
				z"/>
			<path fill="#FFFFFF" d="M102.481,9.001H24.636c-9.566,0-17.322,7.762-17.322,17.336v1.873c0-9.574,7.756-17.336,17.322-17.336
				h77.846c9.566,0,17.322,7.762,17.322,17.336v-1.873C119.804,16.763,112.048,9.001,102.481,9.001z"/>
		</g>
	</g>
	<g>
		
			<linearGradient id="SVGID_3_" gradientUnits="userSpaceOnUse" x1="-349.062" y1="860.0879" x2="-349.062" y2="918.9609" gradientTransform="matrix(1 0 0 1 412.6201 -813.9912)">
			<stop  offset="0" style="stop-color:#E20A16"/>
			<stop  offset="1" style="stop-color:#B51015"/>
		</linearGradient>
		<path fill="url(#SVGID_3_)" d="M44.307,46.099c-1.646,0.039-3.211,0.719-4.363,1.895c-12.988,12.986-12.988,34.251,0,47.237
			c12.984,12.984,34.246,12.984,47.232,0c12.986-12.986,12.986-34.251,0-47.237c-2.477-2.471-6.473-2.452-8.943,0.023
			c-2.469,2.478-2.477,6.476,0,8.944c8.145,8.144,8.145,21.182,0,29.325c-8.143,8.146-21.203,8.146-29.346,0
			c-8.145-8.146-8.145-21.182,0-29.325c1.865-1.817,2.426-4.603,1.414-7.002C49.287,47.558,46.91,46.03,44.307,46.099L44.307,46.099
			z M63.463,46.649c-3.168,0.053-5.697,2.658-5.658,5.826V77.03c-0.029,2.075,1.061,4.014,2.854,5.062
			c1.793,1.045,4.01,1.045,5.803,0c1.791-1.048,2.883-2.984,2.854-5.062V52.476c0.021-1.556-0.604-3.051-1.701-4.147
			C66.508,47.229,65.02,46.624,63.463,46.649L63.463,46.649z"/>
		<path opacity="0.5" fill="#FFFFFF" d="M79.98,50.197c1.882-1.886,4.756-2.163,6.927-0.824c-0.199-0.212-0.395-0.427-0.603-0.634
			c-2.031-2.026-5.309-2.012-7.335,0.019c-1.856,1.863-2.011,4.771-0.46,6.804C78.04,53.705,78.527,51.655,79.98,50.197z"/>
		<path opacity="0.5" fill="#FFFFFF" d="M63.542,48.981c1.383-0.022,2.707,0.515,3.69,1.492c0.474,0.474,0.847,1.032,1.104,1.64
			c-0.061-1.166-0.556-2.271-1.384-3.1c-0.906-0.9-2.127-1.397-3.403-1.377c-2.491,0.042-4.495,2.009-4.629,4.462
			C59.688,50.295,61.458,49.016,63.542,48.981z"/>
		<path opacity="0.5" fill="#FFFFFF" d="M43.31,48.492c2.314-0.062,4.428,1.296,5.327,3.432c0.494,1.168,0.553,2.437,0.246,3.613
			c1.127-1.467,1.401-3.448,0.669-5.186c-0.831-1.97-2.78-3.223-4.916-3.166c-1.351,0.031-2.634,0.589-3.579,1.554
			c-0.195,0.195-0.379,0.397-0.567,0.598C41.332,48.815,42.302,48.516,43.31,48.492z"/>
	</g>
</g>
</svg>
