<?xml version="1.0" encoding="utf-8"?>
<!-- Generator: Adobe Illustrator 13.0.0, SVG Export Plug-In . SVG Version: 6.00 Build 14948)  -->
<!DOCTYPE svg PUBLIC "-//W3C//DTD SVG 1.1//EN" "http://www.w3.org/Graphics/SVG/1.1/DTD/svg11.dtd">
<svg version="1.1" id="Layer_1" xmlns="http://www.w3.org/2000/svg" xmlns:xlink="http://www.w3.org/1999/xlink" x="0px" y="0px"
	 width="128px" height="128px" viewBox="0 0 128 128" enable-background="new 0 0 128 128" xml:space="preserve">
<g>
	
		<radialGradient id="SVGID_1_" cx="159.2891" cy="360.7695" r="30.0582" gradientTransform="matrix(1.2329 0 0 1.1831 -132.3845 -332.8138)" gradientUnits="userSpaceOnUse">
		<stop  offset="0" style="stop-color:#FAFAFA"/>
		<stop  offset="0.3629" style="stop-color:#E5E5E5"/>
		<stop  offset="1" style="stop-color:#C4C4C4"/>
	</radialGradient>
	<path fill="url(#SVGID_1_)" stroke="#808080" d="M72.619,68.818l30.14,42.768c4.659,7.387,2.643,13.43-4.486,13.43H29.426
		c-7.124,0-8.834-5.65-3.795-12.553l29.354-44.521C60.022,61.038,67.959,61.433,72.619,68.818L72.619,68.818z"/>
	<path opacity="0.5" fill="#FFFFFF" d="M40.193,120.117c0-20.967,16.75-38.172,38.109-39.982l-6.442-9.141
		c-4.355-6.901-11.771-7.271-16.479-0.816l-27.424,41.598c-4.709,6.449-3.114,11.729,3.545,11.729h8.85
		C40.255,122.385,40.193,121.26,40.193,120.117z"/>
	<g>
		
			<linearGradient id="SVGID_2_" gradientUnits="userSpaceOnUse" x1="-191.3306" y1="-619.1606" x2="-191.3306" y2="-630.5728" gradientTransform="matrix(1 0 0 -1 246.7271 -588.7695)">
			<stop  offset="0" style="stop-color:#EC008C"/>
			<stop  offset="1" style="stop-color:#C40075"/>
		</linearGradient>
		<path fill="url(#SVGID_2_)" d="M49.694,36.097c0-3.151,2.555-5.706,5.705-5.706c3.148,0,5.699,2.555,5.699,5.706
			c0,3.152-2.551,5.706-5.699,5.706C52.249,41.803,49.694,39.25,49.694,36.097L49.694,36.097z"/>
		
			<radialGradient id="SVGID_3_" cx="-182.7251" cy="-628.8203" r="37.5022" gradientTransform="matrix(1 0 0 -1 246.7271 -588.7695)" gradientUnits="userSpaceOnUse">
			<stop  offset="0" style="stop-color:#FAFAFA"/>
			<stop  offset="0.4142" style="stop-color:#E3E3E3"/>
			<stop  offset="1" style="stop-color:#C7C7C7"/>
		</radialGradient>
		<path fill="url(#SVGID_3_)" stroke="#808080" d="M61.228,2.536l-0.092,0.073c-0.014,0.068-1.963,10.396-1.963,10.396
			c-0.145,0.774-0.727,1.39-1.49,1.578c-2.537,0.633-4.965,1.633-7.201,2.988c-0.674,0.407-1.52,0.383-2.168-0.062
			c0,0-8.682-5.927-8.734-5.963l-0.115,0.012c-0.049,0.048-3.883,3.885-3.932,3.931l-0.014,0.084v0.033
			c0.039,0.046,5.959,8.744,5.959,8.744c0.23,0.339,0.346,0.734,0.346,1.131c0,0.359-0.092,0.717-0.287,1.042
			c-1.35,2.237-2.354,4.658-2.982,7.199c-0.191,0.764-0.803,1.352-1.578,1.496c0,0-10.32,1.951-10.385,1.962l-0.078,0.089
			c0,0.069,0,5.499,0,5.564l0.072,0.09c0.064,0.011,10.393,1.967,10.393,1.967c0.771,0.144,1.385,0.726,1.576,1.491
			c0.629,2.54,1.631,4.963,2.982,7.203c0.195,0.319,0.293,0.681,0.293,1.039c0,0.394-0.119,0.792-0.354,1.136
			c0,0-5.922,8.687-5.959,8.74v0.032l0.014,0.084c0.051,0.047,3.877,3.879,3.928,3.932l0.117,0.012
			c0.055-0.037,8.738-5.963,8.738-5.963c0.646-0.443,1.498-0.466,2.172-0.06c2.236,1.35,4.66,2.353,7.197,2.984
			c0.764,0.189,1.346,0.809,1.49,1.578c0,0,1.951,10.33,1.961,10.398l0.09,0.07c0.068,0,5.494,0,5.559,0l0.09-0.07
			c0.012-0.066,1.965-10.398,1.965-10.398c0.145-0.77,0.725-1.389,1.488-1.578c2.541-0.631,4.965-1.632,7.197-2.984
			c0.674-0.406,1.525-0.387,2.176,0.06c0,0,8.678,5.926,8.732,5.963l0.117-0.012c0.049-0.047,3.881-3.883,3.928-3.93l0.016-0.086
			L92.487,64.5c-0.039-0.054-5.959-8.745-5.959-8.745c-0.23-0.34-0.346-0.737-0.346-1.131c0-0.358,0.096-0.72,0.287-1.044
			c1.352-2.235,2.354-4.658,2.982-7.198c0.189-0.766,0.809-1.348,1.58-1.491c0,0,10.322-1.957,10.387-1.967l0.072-0.09
			c0-0.062,0-5.495,0-5.562l-0.072-0.09c-0.062-0.013-10.387-1.964-10.387-1.964c-0.771-0.145-1.391-0.731-1.58-1.496
			c-0.629-2.537-1.631-4.96-2.979-7.204c-0.195-0.318-0.291-0.678-0.291-1.037c0-0.396,0.115-0.792,0.352-1.135
			c0,0,5.92-8.684,5.953-8.74l0.006-0.03l-0.016-0.087c-0.043-0.048-3.881-3.887-3.928-3.931l-0.117-0.012
			c-0.049,0.036-8.732,5.963-8.732,5.963c-0.65,0.444-1.498,0.469-2.172,0.062c-2.24-1.354-4.66-2.355-7.201-2.988
			c-0.756-0.188-1.344-0.804-1.486-1.578c0,0-1.951-10.327-1.969-10.396l-0.088-0.073C66.718,2.536,61.292,2.536,61.228,2.536
			L61.228,2.536z M45.39,40.055c0-10.273,8.35-18.631,18.611-18.631c10.27,0,18.617,8.357,18.617,18.631
			c0,10.271-8.348,18.626-18.617,18.626C53.739,58.681,45.39,50.326,45.39,40.055L45.39,40.055z"/>
		<path opacity="0.25" fill="#FFFFFF" d="M55.468,35.825c1.627,1.364,3.832,0.615,5.203-0.097c-0.201-2.737-2.484-4.896-5.271-4.896
			c-2.799,0-5.092,2.176-5.275,4.932C51.394,35.14,53.714,34.36,55.468,35.825z"/>
	</g>
</g>
</svg>
