<?xml version="1.0" encoding="utf-8"?>
<!-- Generator: Adobe Illustrator 13.0.0, SVG Export Plug-In . SVG Version: 6.00 Build 14948)  -->
<!DOCTYPE svg PUBLIC "-//W3C//DTD SVG 1.1//EN" "http://www.w3.org/Graphics/SVG/1.1/DTD/svg11.dtd">
<svg version="1.1" id="Layer_1" xmlns="http://www.w3.org/2000/svg" xmlns:xlink="http://www.w3.org/1999/xlink" x="0px" y="0px"
	 width="128px" height="128px" viewBox="0 0 128 128" enable-background="new 0 0 128 128" xml:space="preserve">
<g>
	<g>
		<g>
			<g>
				
					<radialGradient id="SVGID_1_" cx="-348.6211" cy="877.7422" r="54.5254" gradientTransform="matrix(1 0 0 1 412.6201 -813.9912)" gradientUnits="userSpaceOnUse">
					<stop  offset="0" style="stop-color:#FAFAFA"/>
					<stop  offset="0.3109" style="stop-color:#F4F4F4"/>
					<stop  offset="0.7262" style="stop-color:#E3E3E3"/>
					<stop  offset="1" style="stop-color:#D4D4D4"/>
				</radialGradient>
				<path fill="url(#SVGID_1_)" stroke="#B3B3B3" stroke-width="2" d="M101.479,9.226H77.966c-9.414,0-17.045,7.633-17.045,17.043
					v34.4H26.517c-9.412,0-17.043,7.634-17.043,17.045v23.519c0,9.41,7.631,17.043,17.043,17.043h74.963
					c0.588,0,1.17-0.029,1.742-0.088c8.596-0.873,15.303-8.131,15.303-16.955V26.269C118.524,16.857,110.894,9.226,101.479,9.226z"
					/>
			</g>
		</g>
		<path fill="#FFFFFF" d="M79.649,13.989h21.003c4.508,0,8.611,1.769,11.694,4.658h1.684c-3.179-3.948-7.991-6.466-13.378-6.466
			H79.649c-5.388,0-10.199,2.518-13.379,6.466h1.684C71.038,15.757,75.141,13.989,79.649,13.989z"/>
		<path fill="#B3B3B3" d="M99.742,115.807H28.061c-9.829,0-17.797-7.967-17.797-17.797v2.967c0,9.829,7.968,17.797,17.797,17.797
			h71.682c9.83,0,17.797-7.968,17.797-17.797V98.01C117.539,107.84,109.572,115.807,99.742,115.807z"/>
	</g>
	<g>
		<g>
			
				<linearGradient id="SVGID_2_" gradientUnits="userSpaceOnUse" x1="-352.9419" y1="-474.1719" x2="-352.9419" y2="-524.2046" gradientTransform="matrix(1 0 0 -1 412.6577 -439.8887)">
				<stop  offset="0" style="stop-color:#E20A16"/>
				<stop  offset="1" style="stop-color:#B51015"/>
			</linearGradient>
			<path fill="url(#SVGID_2_)" d="M49.76,37.643l9.955,9.963l9.956-9.963c3.925-3.928,9.722-4.493,12.949-1.264
				c3.227,3.229,2.661,9.03-1.264,12.957L71.4,59.299l9.955,9.962c3.925,3.928,4.488,9.729,1.263,12.957
				c-3.228,3.231-9.024,2.664-12.948-1.263l-9.955-9.963l-9.955,9.963c-3.925,3.928-9.723,4.493-12.948,1.264
				c-3.228-3.229-2.662-9.029,1.263-12.957l9.955-9.963l-9.955-9.961c-3.924-3.928-4.489-9.729-1.262-12.958
				C40.039,33.151,45.836,33.716,49.76,37.643L49.76,37.643z"/>
		</g>
		<g opacity="0.5">
			<path fill="#FFFFFF" d="M38.411,37.823c2.921-2.845,7.911-2.457,11.145,0.862l-0.91-0.935c-3.236-3.323-8.225-3.707-11.146-0.863
				c-2.92,2.844-2.662,7.84,0.572,11.16l0.91,0.936C35.749,45.663,35.491,40.667,38.411,37.823z"/>
		</g>
		<path opacity="0.5" fill="#FFFFFF" d="M61.09,48.864l-0.592-0.592l10.756-10.929c0,0,0.966-0.873,1.387-1.142
			c0.805-0.516,1.426-0.536,1.426-0.536L61.09,48.864z"/>
	</g>
</g>
</svg>
