<?xml version="1.0" encoding="utf-8"?>
<!-- Generator: Adobe Illustrator 13.0.0, SVG Export Plug-In . SVG Version: 6.00 Build 14948)  -->
<!DOCTYPE svg PUBLIC "-//W3C//DTD SVG 1.1//EN" "http://www.w3.org/Graphics/SVG/1.1/DTD/svg11.dtd">
<svg version="1.1" id="Layer_1" xmlns="http://www.w3.org/2000/svg" xmlns:xlink="http://www.w3.org/1999/xlink" x="0px" y="0px"
	 width="128px" height="128px" viewBox="0 0 128 128" enable-background="new 0 0 128 128" xml:space="preserve">
<g>
	<g>
		<g>
			<g>
				
					<radialGradient id="SVGID_1_" cx="3647.5225" cy="877.7422" r="54.5254" gradientTransform="matrix(-1 0 0 1 3711.5234 -813.9912)" gradientUnits="userSpaceOnUse">
					<stop  offset="0" style="stop-color:#FAFAFA"/>
					<stop  offset="0.3109" style="stop-color:#F4F4F4"/>
					<stop  offset="0.7262" style="stop-color:#E3E3E3"/>
					<stop  offset="1" style="stop-color:#D4D4D4"/>
				</radialGradient>
				<path fill="url(#SVGID_1_)" stroke="#B3B3B3" stroke-width="2" d="M9.476,26.269v74.964c0,8.824,6.707,16.082,15.303,16.955
					c0.572,0.059,1.154,0.088,1.742,0.088h74.963c9.412,0,17.043-7.633,17.043-17.043V77.715c0-9.411-7.631-17.045-17.043-17.045
					H67.079v-34.4c0-9.41-7.631-17.043-17.045-17.043H26.521C17.106,9.226,9.476,16.857,9.476,26.269z"/>
			</g>
		</g>
		<path fill="#FFFFFF" d="M48.351,13.989H27.348c-4.508,0-8.611,1.769-11.694,4.658H13.97c3.179-3.948,7.991-6.466,13.378-6.466
			h21.003c5.388,0,10.199,2.518,13.379,6.466h-1.684C56.962,15.757,52.859,13.989,48.351,13.989z"/>
		<path fill="#B3B3B3" d="M28.258,115.807h71.682c9.829,0,17.797-7.967,17.797-17.797v2.967c0,9.829-7.968,17.797-17.797,17.797
			H28.258c-9.83,0-17.797-7.968-17.797-17.797V98.01C10.461,107.84,18.428,115.807,28.258,115.807z"/>
	</g>
	<g>
		<g>
			
				<linearGradient id="SVGID_2_" gradientUnits="userSpaceOnUse" x1="-345.936" y1="-474.1719" x2="-345.936" y2="-524.2046" gradientTransform="matrix(1 0 0 -1 412.6577 -439.8887)">
				<stop  offset="0" style="stop-color:#E20A16"/>
				<stop  offset="1" style="stop-color:#B51015"/>
			</linearGradient>
			<path fill="url(#SVGID_2_)" d="M56.766,37.643l9.955,9.963l9.956-9.963c3.925-3.928,9.722-4.493,12.949-1.264
				c3.227,3.229,2.661,9.03-1.264,12.957l-9.956,9.963l9.955,9.962c3.925,3.928,4.488,9.729,1.263,12.957
				c-3.228,3.231-9.024,2.664-12.948-1.263l-9.955-9.963l-9.955,9.963c-3.925,3.928-9.723,4.493-12.948,1.264
				c-3.228-3.229-2.662-9.029,1.263-12.957l9.955-9.963l-9.955-9.961c-3.924-3.928-4.489-9.729-1.262-12.958
				C47.045,33.151,52.842,33.716,56.766,37.643L56.766,37.643z"/>
		</g>
		<g opacity="0.5">
			<path fill="#FFFFFF" d="M45.417,37.823c2.921-2.845,7.911-2.457,11.145,0.862l-0.91-0.935c-3.236-3.323-8.225-3.707-11.146-0.863
				c-2.92,2.844-2.662,7.84,0.572,11.16l0.91,0.936C42.755,45.663,42.497,40.667,45.417,37.823z"/>
		</g>
		<path opacity="0.5" fill="#FFFFFF" d="M68.096,48.864l-0.592-0.592L78.26,37.343c0,0,0.966-0.873,1.387-1.142
			c0.805-0.516,1.426-0.536,1.426-0.536L68.096,48.864z"/>
	</g>
</g>
</svg>
