<?xml version="1.0" encoding="utf-8"?>
<!-- Generator: Adobe Illustrator 13.0.0, SVG Export Plug-In . SVG Version: 6.00 Build 14948)  -->
<!DOCTYPE svg PUBLIC "-//W3C//DTD SVG 1.1//EN" "http://www.w3.org/Graphics/SVG/1.1/DTD/svg11.dtd">
<svg version="1.1" id="Layer_1" xmlns="http://www.w3.org/2000/svg" xmlns:xlink="http://www.w3.org/1999/xlink" x="0px" y="0px"
	 width="128px" height="128px" viewBox="0 0 128 128" enable-background="new 0 0 128 128" xml:space="preserve">
<g>
	<path fill="#FAA61A" d="M112.541,105.069c0,0,8.202-26.015-41.829-40.37C20.68,50.342,7.76,75.021,7.76,75.021l7.592-28.699
		c0,0,13.719-19.385,63.576-5.078c38.749,11.117,41.874,35.039,41.874,35.039L112.541,105.069L112.541,105.069z"/>
	<g>
		<g>
			<g>
				
					<linearGradient id="SVGID_1_" gradientUnits="userSpaceOnUse" x1="2009.4492" y1="382.79" x2="2009.4492" y2="284.8408" gradientTransform="matrix(0.9436 -0.331 -0.331 -0.9436 -1717.6509 1042.49)">
					<stop  offset="0" style="stop-color:#D5D7D8"/>
					<stop  offset="1" style="stop-color:#5C5F61"/>
				</linearGradient>
				<path fill="url(#SVGID_1_)" d="M101.467,12.174l-4.766,16.812c-0.618,2.178-2.26,3.924-4.4,4.676
					c-1.359,0.477-2.811,0.516-4.198,0.123l-10.509-2.975c-3.69-1.045-5.842-4.907-4.799-8.602l4.769-16.812
					c-0.737,0.183-1.463,0.402-2.174,0.652c-7.652,2.684-13.532,8.934-15.741,16.719c-2.357,8.32-0.285,17.123,5.547,23.555
					l0.804,0.883L64.86,49.81l-31.556,56.145c-7.287,12.324,17.169,24.075,22.406,10.769l24.107-59.403l1.169-2.969l1.096,0.068
					c3.337,0.209,6.63-0.25,9.789-1.359l0,0c7.642-2.679,13.519-8.93,15.728-16.709C110.035,27.775,107.628,18.512,101.467,12.174z"
					/>
			</g>
			<path opacity="0.5" fill="#FFFFFF" d="M76.35,9.499l0.608-2.193C62.396,11.151,55.15,35.27,67.57,44.877l0.577-1.659
				C58.293,33.643,63.587,14.566,76.35,9.499z"/>
		</g>
		<path opacity="0.5" fill="#FFFFFF" d="M36.039,109.757c-0.182,0.316-0.666,0.376-1.088,0.14l0,0
			c-0.423-0.239-0.617-0.688-0.437-1.006l33.95-59.742c0.178-0.317,0.666-0.379,1.085-0.139l0,0c0.422,0.24,0.618,0.688,0.438,1.003
			L36.039,109.757z"/>
	</g>
	
		<linearGradient id="SVGID_2_" gradientUnits="userSpaceOnUse" x1="-348.9722" y1="862.8672" x2="-348.9722" y2="931.5322" gradientTransform="matrix(1 0 0 1 412.6201 -813.9912)">
		<stop  offset="0" style="stop-color:#FFD207"/>
		<stop  offset="1" style="stop-color:#FAA61A"/>
	</linearGradient>
	<path fill="url(#SVGID_2_)" d="M16.62,81.692c-0.779,2.721-0.175,5.28,1.351,5.719c1.528,0.438,3.397-1.412,4.176-4.133
		c0.779-2.722,0.174-5.281-1.352-5.72S17.398,78.971,16.62,81.692L16.62,81.692z M30.411,92.147c-0.78,2.721-0.175,5.28,1.351,5.719
		s3.396-1.412,4.176-4.133c0.779-2.722,0.174-5.281-1.353-5.72S31.189,89.426,30.411,92.147L30.411,92.147z M14.631,48.876
		c-0.793,3.422-4.329,26.668,41.941,39.945c50.031,14.354,63.529-10.141,63.529-10.141l-8.172,28.52c0,0-13.717,19.383-63.574,5.076
		C9.607,101.159,7.195,77.396,7.195,77.396L14.631,48.876L14.631,48.876z"/>
	
		<linearGradient id="SVGID_3_" gradientUnits="userSpaceOnUse" x1="-324.1025" y1="933.0566" x2="-356.3526" y2="910.4749" gradientTransform="matrix(1 0 0 1 412.6201 -813.9912)">
		<stop  offset="0" style="stop-color:#FFD207"/>
		<stop  offset="1" style="stop-color:#FAA61A"/>
	</linearGradient>
	<path fill="url(#SVGID_3_)" d="M61.002,89.721l24.43,6.884c0,0,10.438,5.986,6.789,16.102c-3.646,10.115-12.572,9.301-12.572,9.301
		l-25.866-6.924L61.002,89.721L61.002,89.721z"/>
	<path fill="#FFFFFF" d="M67.174,105.413c0.893-3.118,3.268-5.174,5.303-4.59c2.035,0.586,2.961,3.586,2.067,6.705
		c-0.896,3.116-3.269,5.172-5.304,4.588C67.206,111.532,66.279,108.532,67.174,105.413L67.174,105.413z"/>
	
		<linearGradient id="SVGID_4_" gradientUnits="userSpaceOnUse" x1="-360.9692" y1="895.9756" x2="-360.9692" y2="930.9326" gradientTransform="matrix(1 0 0 1 412.6201 -813.9912)">
		<stop  offset="0" style="stop-color:#FFD207"/>
		<stop  offset="1" style="stop-color:#FAA61A"/>
	</linearGradient>
	<path fill="url(#SVGID_4_)" d="M56.553,82.352L56.553,82.352c5.518,1.584,8.57,7.815,6.823,13.923l-3.472,12.11
		c-1.75,6.104-7.639,9.771-13.157,8.188l0,0c-5.517-1.584-8.57-7.814-6.82-13.92l3.472-12.113
		C45.146,84.436,51.036,80.771,56.553,82.352L56.553,82.352z"/>
</g>
</svg>
