<?xml version="1.0" encoding="utf-8"?>
<!-- Generator: Adobe Illustrator 13.0.0, SVG Export Plug-In . SVG Version: 6.00 Build 14948)  -->
<!DOCTYPE svg PUBLIC "-//W3C//DTD SVG 1.1//EN" "http://www.w3.org/Graphics/SVG/1.1/DTD/svg11.dtd">
<svg version="1.1" id="Layer_1" xmlns="http://www.w3.org/2000/svg" xmlns:xlink="http://www.w3.org/1999/xlink" x="0px" y="0px"
	 width="128px" height="128px" viewBox="0 0 128 128" enable-background="new 0 0 128 128" xml:space="preserve">
<g>
	<linearGradient id="SVGID_1_" gradientUnits="userSpaceOnUse" x1="63.9741" y1="1.9233" x2="63.9741" y2="126.0767">
		<stop  offset="0" style="stop-color:#5F5D5C"/>
		<stop  offset="1" style="stop-color:#181500"/>
	</linearGradient>
	<path fill="url(#SVGID_1_)" d="M18.855,1.923l90.233,0.006c9.342,0,16.914,7.578,16.914,16.927l0.006,90.294
		c0,9.348-7.574,16.926-16.916,16.926l-90.233-0.004c-9.341,0-16.915-7.58-16.915-16.928L1.941,18.85
		C1.94,9.502,9.514,1.923,18.855,1.923L18.855,1.923z"/>
	<path d="M109.119,120.9l-90.372-0.006c-8.541,0-15.588-6.334-16.753-14.561v2.414c0,9.35,7.574,16.928,16.915,16.928l90.235,0.004
		c9.34,0,16.914-7.578,16.914-16.926v-4.803C126.055,113.311,118.471,120.9,109.119,120.9z"/>
	<path opacity="0.5" fill="#FFFFFF" d="M21.897,10.786l84.33,0.004c7.971,0,14.545,5.911,15.631,13.588v-2.254
		c0-8.724-7.066-15.795-15.783-15.795L21.876,6.324c-8.718,0-15.784,7.073-15.784,15.796v4.48
		C6.094,17.867,13.17,10.786,21.897,10.786z"/>
	<g>
		<radialGradient id="SVGID_2_" cx="79.3213" cy="48.6035" r="46.6636" gradientUnits="userSpaceOnUse">
			<stop  offset="0" style="stop-color:#FAFAFA"/>
			<stop  offset="0.3109" style="stop-color:#F4F4F4"/>
			<stop  offset="0.7262" style="stop-color:#E3E3E3"/>
			<stop  offset="1" style="stop-color:#D4D4D4"/>
		</radialGradient>
		<path fill="url(#SVGID_2_)" d="M45.393,1.923l67.851,0.005c7.025,0,12.721,5.698,12.721,12.728l0.004,67.899
			c0,7.029-5.695,12.729-12.721,12.729l-67.852-0.004c-7.024,0-12.72-5.699-12.72-12.729l-0.002-67.899
			C32.673,7.623,38.37,1.923,45.393,1.923L45.393,1.923z"/>
		<path fill="#B3B3B3" d="M113.268,92.174L45.312,92.17c-6.422,0-11.722-4.762-12.598-10.949v1.816
			c0,7.029,5.696,12.729,12.72,12.729l67.853,0.004c7.023,0,12.721-5.699,12.721-12.729V79.43
			C126.004,86.467,120.301,92.174,113.268,92.174z"/>
		<path opacity="0.8" fill="#FFFFFF" d="M47.68,8.587l63.414,0.003c5.994,0,10.938,4.445,11.754,10.218v-1.694
			c0-6.561-5.314-11.878-11.869-11.878L47.666,5.232c-6.556,0-11.869,5.319-11.869,11.878v3.369
			C35.797,13.913,41.119,8.587,47.68,8.587z"/>
	</g>
	<g>
		
			<linearGradient id="SVGID_3_" gradientUnits="userSpaceOnUse" x1="-2202.0093" y1="925.7383" x2="-2161.0854" y2="966.6621" gradientTransform="matrix(-0.7071 0.7071 0.7071 0.7071 -2162.6045 952.0063)">
			<stop  offset="0" style="stop-color:#FF9D00"/>
			<stop  offset="1" style="stop-color:#FF1F00"/>
		</linearGradient>
		<path fill="url(#SVGID_3_)" d="M58.113,107.42c2.575-0.062,4.745-0.922,6.594-2.77c1.773-1.775,2.697-4.02,2.764-6.588
			c-0.066-2.566-0.984-4.809-2.762-6.586c-1.841-1.842-4.085-2.764-6.59-2.766l-6.126,0.062l23.281-23.287
			c1.783-1.903,2.77-4.082,2.705-6.649c0.064-2.573-0.924-4.744-2.703-6.525c-1.844-1.844-4.012-2.827-6.586-2.764
			c-2.566-0.066-4.808,0.852-6.653,2.697L38.754,75.533l0.066-6.123c-0.063-2.572-0.915-4.748-2.762-6.594
			c-1.779-1.78-4.021-2.698-6.588-2.765c-2.566,0.064-4.81,0.989-6.589,2.77c-1.845,1.845-2.704,4.021-2.769,6.587l0.062,28.664
			c-0.066,2.568,0.855,4.805,2.699,6.648c1.778,1.779,4.018,2.703,6.584,2.641L58.113,107.42z"/>
		<g opacity="0.6">
			<path fill="#FFFFFF" d="M22.885,98.301l-0.057-26.615c0.059-2.391,0.858-4.406,2.572-6.119c1.652-1.652,3.732-2.511,6.119-2.573
				c1.835,0.049,3.486,0.572,4.902,1.559c-0.106-0.121-0.211-0.241-0.326-0.357c-1.647-1.647-3.73-2.504-6.112-2.568
				c-2.389,0.062-4.47,0.921-6.121,2.571c-1.715,1.715-2.513,3.731-2.571,6.122l0.055,26.613c-0.06,2.387,0.802,4.465,2.451,6.113
				c0.394,0.395,0.809,0.736,1.24,1.039C23.588,102.492,22.828,100.533,22.885,98.301z"/>
			<path fill="#FFFFFF" d="M38.594,79.758l25.083-25.084c1.772-1.652,3.795-2.571,6.178-2.506c1.82-0.051,3.42,0.471,4.812,1.453
				c-0.098-0.104-0.186-0.213-0.285-0.312c-1.656-1.654-3.674-2.574-6.064-2.508c-2.383-0.064-4.407,0.855-6.178,2.508
				L38.625,76.822L38.594,79.758z"/>
		</g>
	</g>
</g>
</svg>
