<?xml version="1.0" encoding="utf-8"?>
<!-- Generator: Adobe Illustrator 13.0.0, SVG Export Plug-In . SVG Version: 6.00 Build 14948)  -->
<!DOCTYPE svg PUBLIC "-//W3C//DTD SVG 1.1//EN" "http://www.w3.org/Graphics/SVG/1.1/DTD/svg11.dtd">
<svg version="1.1" id="Layer_1" xmlns="http://www.w3.org/2000/svg" xmlns:xlink="http://www.w3.org/1999/xlink" x="0px" y="0px"
	 width="128px" height="128px" viewBox="0 0 128 128" enable-background="new 0 0 128 128" xml:space="preserve">
<g>
	<g>
		<g>
			<path fill="#F2F2F2" d="M5.989,59.228c1.278-0.795,2.783-1.258,4.396-1.258H64.58c1.596,0,3.087,0.452,4.355,1.229l0.643-0.58
				c-1.442-0.938-3.154-1.488-4.998-1.488H10.387c-1.838,0-3.544,0.547-4.98,1.478L5.989,59.228z"/>
			
				<radialGradient id="SVGID_1_" cx="-251.8467" cy="69.416" r="31.4116" gradientTransform="matrix(1 0 0 -1 289.2754 151.834)" gradientUnits="userSpaceOnUse">
				<stop  offset="0" style="stop-color:#FAFAFA"/>
				<stop  offset="0.3629" style="stop-color:#E5E5E5"/>
				<stop  offset="1" style="stop-color:#C4C4C4"/>
			</radialGradient>
			<path fill="url(#SVGID_1_)" stroke="#808080" d="M30.125,104.67L4.578,66.896c-3.951-6.522-2.24-11.861,3.801-11.861h58.357
				c6.041,0,7.488,4.989,3.217,11.086l-24.88,39.324C40.803,111.544,34.075,111.193,30.125,104.67L30.125,104.67z"/>
			
				<radialGradient id="SVGID_2_" cx="-251.1665" cy="125.6748" r="24.3655" gradientTransform="matrix(1 0 0 -1 289.2754 151.834)" gradientUnits="userSpaceOnUse">
				<stop  offset="0" style="stop-color:#FAFAFA"/>
				<stop  offset="0.4142" style="stop-color:#E3E3E3"/>
				<stop  offset="1" style="stop-color:#C7C7C7"/>
			</radialGradient>
			<path fill="url(#SVGID_2_)" stroke="#808080" d="M13.752,26.16c0-13.463,10.905-24.375,24.358-24.375
				c13.451,0,24.356,10.912,24.356,24.375c0,13.461-10.905,24.373-24.356,24.373C24.657,50.533,13.752,39.621,13.752,26.16
				L13.752,26.16z"/>
			
				<linearGradient id="SVGID_3_" gradientUnits="userSpaceOnUse" x1="-263.6172" y1="138.0684" x2="-263.6172" y2="125.3652" gradientTransform="matrix(1 0 0 -1 289.2754 151.834)">
				<stop  offset="0" style="stop-color:#80C11B"/>
				<stop  offset="1" style="stop-color:#80E21B"/>
			</linearGradient>
			<path fill="url(#SVGID_3_)" d="M19.311,20.117c0-3.507,2.841-6.351,6.348-6.351c3.504,0,6.346,2.844,6.346,6.351
				c0,3.51-2.842,6.352-6.346,6.352C22.151,26.469,19.311,23.627,19.311,20.117L19.311,20.117z"/>
			<path opacity="0.5" fill="#FFFFFF" d="M25.649,19.969c1.748,1.46,4.112,0.658,5.585-0.105c-0.218-2.938-2.667-5.256-5.659-5.256
				c-3.005,0-5.463,2.336-5.66,5.291C21.276,19.23,23.769,18.395,25.649,19.969z"/>
			<path fill="#F2F2F2" d="M20.424,13.537c4.067-5.584,11.546-9.862,18.537-9.862c6.99,0,14.277,4.278,18.344,9.862h0.773
				C53.768,6.965,46.771,2.664,38.865,2.664c-7.908,0-14.905,4.301-19.215,10.873H20.424z"/>
			
				<linearGradient id="SVGID_4_" gradientUnits="userSpaceOnUse" x1="-251.0347" y1="105.9707" x2="-251.0347" y2="116.8398" gradientTransform="matrix(1 0 0 -1 289.2754 151.834)">
				<stop  offset="0" style="stop-color:#00B2DE"/>
				<stop  offset="1" style="stop-color:#99DBF6"/>
			</linearGradient>
			<path fill="url(#SVGID_4_)" d="M56.683,34.993c-4.068,5.584-11.547,9.86-18.538,9.86c-6.99,0-14.276-4.276-18.345-9.86h-0.773
				c4.312,6.572,11.307,10.87,19.214,10.87c7.908,0,14.904-4.298,19.214-10.87H56.683z"/>
			<path opacity="0.5" fill="#FFFFFF" enable-background="new    " d="M10.821,73.878c7.245-5.72,16.386-9.144,26.332-9.144
				c9.8,0,18.815,3.322,26.007,8.89l4.379-6.917c3.99-5.697,2.636-10.356-3.006-10.356h-54.52c-5.645,0-7.242,4.986-3.551,11.081
				L10.821,73.878z"/>
		</g>
		<g>
			
				<radialGradient id="SVGID_5_" cx="-198.7056" cy="69.418" r="31.4114" gradientTransform="matrix(1 0 0 -1 289.2754 151.834)" gradientUnits="userSpaceOnUse">
				<stop  offset="0" style="stop-color:#FAFAFA"/>
				<stop  offset="0.3629" style="stop-color:#E5E5E5"/>
				<stop  offset="1" style="stop-color:#C4C4C4"/>
			</radialGradient>
			<path fill="url(#SVGID_5_)" stroke="#808080" d="M97.874,60.163l25.547,37.774c3.95,6.523,2.24,11.861-3.802,11.861H61.262
				c-6.039,0-7.488-4.988-3.217-11.088l24.88-39.323C87.195,53.29,93.923,53.64,97.874,60.163L97.874,60.163z"/>
			
				<radialGradient id="SVGID_6_" cx="-198.7075" cy="125.6748" r="24.3655" gradientTransform="matrix(1 0 0 -1 289.2754 151.834)" gradientUnits="userSpaceOnUse">
				<stop  offset="0" style="stop-color:#FAFAFA"/>
				<stop  offset="0.4142" style="stop-color:#E3E3E3"/>
				<stop  offset="1" style="stop-color:#C7C7C7"/>
			</radialGradient>
			<path fill="url(#SVGID_6_)" stroke="#808080" d="M66.211,26.16c0-13.463,10.906-24.375,24.357-24.375
				s24.356,10.912,24.356,24.375c0,13.461-10.905,24.373-24.356,24.373S66.211,39.621,66.211,26.16L66.211,26.16z"/>
			
				<linearGradient id="SVGID_7_" gradientUnits="userSpaceOnUse" x1="-207.938" y1="138.0684" x2="-207.938" y2="125.3652" gradientTransform="matrix(1 0 0 -1 289.2754 151.834)">
				<stop  offset="0" style="stop-color:#EC008C"/>
				<stop  offset="1" style="stop-color:#C40075"/>
			</linearGradient>
			<path fill="url(#SVGID_7_)" d="M74.99,20.117c0-3.507,2.843-6.351,6.348-6.351s6.348,2.844,6.348,6.351
				c0,3.51-2.843,6.352-6.348,6.352S74.99,23.627,74.99,20.117L74.99,20.117z"/>
			<path fill="#EC8690" d="M81.132,19.969c1.749,1.46,4.112,0.658,5.585-0.105c-0.218-2.938-2.667-5.256-5.658-5.256
				c-3.006,0-5.463,2.336-5.66,5.291C76.76,19.23,79.252,18.395,81.132,19.969z"/>
			<path fill="#F2F2F2" d="M72.127,13.537c4.068-5.584,11.547-9.862,18.537-9.862s14.277,4.278,18.345,9.862h0.773
				c-4.31-6.572-11.306-10.873-19.214-10.873c-7.907,0-14.903,4.301-19.215,10.873H72.127z"/>
			
				<linearGradient id="SVGID_8_" gradientUnits="userSpaceOnUse" x1="-217.9199" y1="111.4062" x2="-179.4922" y2="111.4062" gradientTransform="matrix(1 0 0 -1 289.2754 151.834)">
				<stop  offset="0" style="stop-color:#EC008C"/>
				<stop  offset="1" style="stop-color:#C40075"/>
			</linearGradient>
			<path fill="url(#SVGID_8_)" d="M109.01,34.993c-4.068,5.584-11.546,9.86-18.537,9.86c-6.99,0-14.277-4.276-18.345-9.86h-0.772
				c4.311,6.572,11.307,10.87,19.213,10.87c7.908,0,14.904-4.298,19.215-10.87H109.01z"/>
			<path opacity="0.5" fill="#FFFFFF" enable-background="new    " d="M70.389,105.768c0-18.52,14.197-33.715,32.303-35.314
				l-5.461-8.074c-3.69-6.095-9.978-6.422-13.969-0.722L60.016,98.398c-3.991,5.695-2.639,10.358,3.006,10.358h7.501
				C70.439,107.77,70.389,106.775,70.389,105.768z"/>
		</g>
	</g>
	<g>
		
			<radialGradient id="SVGID_9_" cx="-225.2764" cy="53.0029" r="31.4116" gradientTransform="matrix(1 0 0 -1 289.2754 151.834)" gradientUnits="userSpaceOnUse">
			<stop  offset="0" style="stop-color:#FAFAFA"/>
			<stop  offset="0.3629" style="stop-color:#E5E5E5"/>
			<stop  offset="1" style="stop-color:#C4C4C4"/>
		</radialGradient>
		<path fill="url(#SVGID_9_)" stroke="#808080" d="M71.305,76.578l25.547,37.773c3.949,6.524,2.239,11.862-3.803,11.862H34.691
			c-6.039,0-7.488-4.989-3.217-11.088l24.88-39.323C60.626,69.705,67.354,70.055,71.305,76.578L71.305,76.578z"/>
		
			<radialGradient id="SVGID_10_" cx="-225.2773" cy="109.2598" r="24.3657" gradientTransform="matrix(1 0 0 -1 289.2754 151.834)" gradientUnits="userSpaceOnUse">
			<stop  offset="0" style="stop-color:#FAFAFA"/>
			<stop  offset="0.4142" style="stop-color:#E3E3E3"/>
			<stop  offset="1" style="stop-color:#C7C7C7"/>
		</radialGradient>
		<path fill="url(#SVGID_10_)" stroke="#808080" d="M39.641,42.575c0-13.463,10.906-24.375,24.357-24.375
			s24.357,10.912,24.357,24.375c0,13.461-10.906,24.372-24.357,24.372S39.641,56.036,39.641,42.575L39.641,42.575z"/>
		
			<linearGradient id="SVGID_11_" gradientUnits="userSpaceOnUse" x1="-234.5073" y1="121.6533" x2="-234.5073" y2="108.9502" gradientTransform="matrix(1 0 0 -1 289.2754 151.834)">
			<stop  offset="0" style="stop-color:#FFD207"/>
			<stop  offset="1" style="stop-color:#FAA61A"/>
		</linearGradient>
		<path fill="url(#SVGID_11_)" d="M48.42,36.532c0-3.507,2.843-6.351,6.348-6.351s6.347,2.844,6.347,6.351
			c0,3.51-2.842,6.353-6.347,6.353S48.42,40.042,48.42,36.532L48.42,36.532z"/>
		<path opacity="0.5" fill="#FFFFFF" d="M54.562,36.384c1.749,1.46,4.112,0.658,5.585-0.105c-0.218-2.938-2.667-5.256-5.658-5.256
			c-3.006,0-5.463,2.336-5.661,5.291C50.189,35.646,52.682,34.81,54.562,36.384z"/>
		<path fill="#F2F2F2" d="M45.557,29.952c4.068-5.584,11.547-9.862,18.537-9.862c6.99,0,14.277,4.278,18.346,9.862h0.772
			C78.9,23.38,71.904,19.079,63.999,19.079c-7.908,0-14.904,4.301-19.215,10.873H45.557z"/>
		
			<linearGradient id="SVGID_12_" gradientUnits="userSpaceOnUse" x1="-244.4912" y1="94.9912" x2="-206.0635" y2="94.9912" gradientTransform="matrix(1 0 0 -1 289.2754 151.834)">
			<stop  offset="0" style="stop-color:#FFD207"/>
			<stop  offset="1" style="stop-color:#FAA61A"/>
		</linearGradient>
		<path fill="url(#SVGID_12_)" d="M82.439,51.408c-4.068,5.584-11.547,9.86-18.538,9.86s-14.277-4.276-18.345-9.86h-0.773
			c4.311,6.572,11.307,10.87,19.213,10.87c7.907,0,14.905-4.298,19.215-10.87H82.439z"/>
		<path opacity="0.5" fill="#FFFFFF" enable-background="new    " d="M43.818,122.184c0-18.521,14.197-33.717,32.303-35.315
			l-5.461-8.074c-3.691-6.095-9.978-6.422-13.969-0.722l-23.246,36.742c-3.991,5.695-2.639,10.358,3.006,10.358h7.501
			C43.869,124.186,43.818,123.191,43.818,122.184z"/>
	</g>
	
		<linearGradient id="SVGID_13_" gradientUnits="userSpaceOnUse" x1="-638.9956" y1="-732.2622" x2="-638.9956" y2="-782.7935" gradientTransform="matrix(1 0 0 -1 701.8955 -662.1562)">
		<stop  offset="0" style="stop-color:#99DBF6"/>
		<stop  offset="1" style="stop-color:#00B2DE"/>
	</linearGradient>
	<polygon fill="url(#SVGID_13_)" stroke="#00B2DE" points="83.939,81.275 73.957,72.585 64.176,89.04 61.207,70.105 48.641,74.396 
		58.026,91.077 40.213,84.165 37.627,97.146 56.777,97.531 41.951,109.393 51.936,118.085 61.698,101.79 63.147,111.212 
		64.596,120.637 77.164,116.346 67.775,99.663 85.588,106.577 88.172,93.598 78.6,93.4 69.096,93.3 	"/>
</g>
</svg>
