<?xml version="1.0" encoding="utf-8"?>
<!-- Generator: Adobe Illustrator 13.0.0, SVG Export Plug-In . SVG Version: 6.00 Build 14948)  -->
<!DOCTYPE svg PUBLIC "-//W3C//DTD SVG 1.1//EN" "http://www.w3.org/Graphics/SVG/1.1/DTD/svg11.dtd">
<svg version="1.1" id="Layer_1" xmlns="http://www.w3.org/2000/svg" xmlns:xlink="http://www.w3.org/1999/xlink" x="0px" y="0px"
	 width="128px" height="128px" viewBox="0 0 128 128" enable-background="new 0 0 128 128" xml:space="preserve">
<g>
	<g>
		<g>
			<g>
				<g>
					<linearGradient id="SVGID_1_" gradientUnits="userSpaceOnUse" x1="53.3394" y1="63.4639" x2="53.3394" y2="108.2349">
						<stop  offset="0" style="stop-color:#D5D7D8"/>
						<stop  offset="1" style="stop-color:#5C5F61"/>
					</linearGradient>
					<path fill="url(#SVGID_1_)" d="M91.352,73.745c-8.043-6.184-22.058-10.281-38.012-10.281c-15.955,0-29.97,4.098-38.013,10.281
						H8.141v12.614h0.026c0.55,12.127,20.557,21.875,45.173,21.875c24.695,0,44.756-9.812,45.179-21.995h0.02V73.745H91.352z"/>
				</g>
				<g>
					<path fill="none" stroke="#4D4D4D" stroke-width="2" d="M91.352,73.745c-8.043-6.184-22.058-10.281-38.012-10.281
						c-15.955,0-29.97,4.098-38.013,10.281H8.141v12.614h0.026c0.55,12.127,20.557,21.875,45.173,21.875
						c24.695,0,44.756-9.812,45.179-21.995h0.02V73.745H91.352z"/>
				</g>
			</g>
			<g>
				<g>
					<linearGradient id="SVGID_2_" gradientUnits="userSpaceOnUse" x1="53.3394" y1="51.9102" x2="53.3394" y2="96.6812">
						<stop  offset="0" style="stop-color:#D5D7D8"/>
						<stop  offset="1" style="stop-color:#5C5F61"/>
					</linearGradient>
					<path fill="url(#SVGID_2_)" d="M91.349,62.189C83.304,56.007,69.292,51.91,53.34,51.91c-15.953,0-29.966,4.097-38.01,10.279
						H8.141v12.616h0.026C8.716,86.933,28.723,96.681,53.34,96.681c24.696,0,44.757-9.812,45.179-21.995h0.02V62.189H91.349z"/>
				</g>
				<g>
					<path fill="none" stroke="#4D4D4D" stroke-width="2" d="M91.349,62.189C83.304,56.007,69.292,51.91,53.34,51.91
						c-15.953,0-29.966,4.097-38.01,10.279H8.141v12.616h0.026C8.716,86.933,28.723,96.681,53.34,96.681
						c24.696,0,44.757-9.812,45.179-21.995h0.02V62.189H91.349z"/>
				</g>
			</g>
			<g>
				<g>
					<linearGradient id="SVGID_3_" gradientUnits="userSpaceOnUse" x1="53.3394" y1="40.3574" x2="53.3394" y2="85.1265">
						<stop  offset="0" style="stop-color:#D5D7D8"/>
						<stop  offset="1" style="stop-color:#5C5F61"/>
					</linearGradient>
					<path fill="url(#SVGID_3_)" d="M91.351,50.638c-8.044-6.183-22.058-10.28-38.011-10.28c-15.955,0-29.968,4.098-38.012,10.28
						H8.141v12.613h0.026C8.715,75.377,28.723,85.126,53.34,85.126c24.694,0,44.755-9.812,45.178-21.992h0.021V50.638H91.351z"/>
				</g>
				<g>
					<path fill="none" stroke="#4D4D4D" stroke-width="2" d="M91.351,50.638c-8.044-6.183-22.058-10.28-38.011-10.28
						c-15.955,0-29.968,4.098-38.012,10.28H8.141v12.613h0.026C8.715,75.377,28.723,85.126,53.34,85.126
						c24.694,0,44.755-9.812,45.178-21.992h0.021V50.638H91.351z"/>
				</g>
			</g>
			<linearGradient id="SVGID_4_" gradientUnits="userSpaceOnUse" x1="53.3394" y1="27.5293" x2="53.3394" y2="72.3003">
				<stop  offset="0" style="stop-color:#D5D7D8"/>
				<stop  offset="1" style="stop-color:#5C5F61"/>
			</linearGradient>
			<ellipse fill="url(#SVGID_4_)" stroke="#4D4D4D" stroke-width="2" cx="53.339" cy="49.914" rx="45.199" ry="22.386"/>
			<linearGradient id="SVGID_5_" gradientUnits="userSpaceOnUse" x1="53.3325" y1="29.0156" x2="53.3325" y2="49.498">
				<stop  offset="0" style="stop-color:#999999"/>
				<stop  offset="1" style="stop-color:#CCCCCC"/>
			</linearGradient>
			<path fill="url(#SVGID_5_)" d="M56.01,46.277c12.58,5.032,28.665,3.296,40.709,0.672c-3.6-10.188-21.539-17.934-43.14-17.934
				c-22.898,0-41.688,8.707-43.632,19.798C21.368,44.9,40.763,40.18,56.01,46.277z"/>
		</g>
	</g>
	<g>
		<g>
			<g>
				
					<radialGradient id="SVGID_6_" cx="98.9814" cy="47.8818" r="24.7261" gradientTransform="matrix(1 0 0 1 0 -9.765625e-04)" gradientUnits="userSpaceOnUse">
					<stop  offset="0" style="stop-color:#FAFAFA"/>
					<stop  offset="0.3109" style="stop-color:#F4F4F4"/>
					<stop  offset="0.7262" style="stop-color:#E3E3E3"/>
					<stop  offset="1" style="stop-color:#D4D4D4"/>
				</radialGradient>
				<path fill="url(#SVGID_6_)" stroke="#B3B3B3" d="M119.774,28.433v38.896c0,4.786-3.883,8.667-8.673,8.667H86.86
					c-4.79,0-8.672-3.881-8.672-8.667V28.433c0-4.786,3.882-8.666,8.672-8.666h24.241C115.892,19.767,119.774,23.646,119.774,28.433
					L119.774,28.433z"/>
				<path fill="#B3B3B3" d="M111.192,74.912H86.951c-4.79,0-8.672-3.881-8.672-8.666v1.082c0,4.786,3.882,8.667,8.672,8.667h24.241
					c4.79,0,8.673-3.881,8.673-8.667v-1.082C119.865,71.031,115.982,74.912,111.192,74.912z"/>
				<path fill="#FFFFFF" d="M83.385,23.482c0.968-0.807,2.062-1.352,3.566-1.352h24.241c1.506,0,2.6,0.545,3.567,1.352h1.224
					c-1.22-1.23-2.701-1.972-4.791-1.972H86.951c-2.089,0-3.569,0.741-4.79,1.972H83.385z"/>
			</g>
			<linearGradient id="SVGID_7_" gradientUnits="userSpaceOnUse" x1="99.0088" y1="20.1357" x2="99.0088" y2="30.5713">
				<stop  offset="0" style="stop-color:#80E21B"/>
				<stop  offset="1" style="stop-color:#80B400"/>
			</linearGradient>
			<path fill="url(#SVGID_7_)" d="M119.426,30.571v-1.927c0-4.699-3.812-8.509-8.517-8.509H87.107c-4.704,0-8.516,3.81-8.516,8.509
				v1.927H119.426z"/>
			<path opacity="0.5" fill="#FFFFFF" d="M110.909,20.107H87.107c-4.704,0-8.516,3.811-8.516,8.51v1.646
				c0-4.699,3.812-8.51,8.516-8.51h23.802c4.704,0,8.517,3.811,8.517,8.51v-1.646C119.426,23.918,115.613,20.107,110.909,20.107z"/>
			<g>
				<linearGradient id="SVGID_8_" gradientUnits="userSpaceOnUse" x1="109.1367" y1="69.8975" x2="88.8275" y2="55.6768">
					<stop  offset="0" style="stop-color:#181500"/>
					<stop  offset="1" style="stop-color:#5F5D5C"/>
				</linearGradient>
				<polygon fill="url(#SVGID_8_)" points="84.591,61.728 113.373,61.728 113.373,63.847 84.591,63.847 84.591,61.728 				"/>
				<linearGradient id="SVGID_9_" gradientUnits="userSpaceOnUse" x1="102.7002" y1="61.9839" x2="87.5603" y2="51.3828">
					<stop  offset="0" style="stop-color:#181500"/>
					<stop  offset="1" style="stop-color:#5F5D5C"/>
				</linearGradient>
				<polygon fill="url(#SVGID_9_)" points="84.591,55.624 105.669,55.624 105.669,57.743 84.591,57.743 84.591,55.624 				"/>
				<linearGradient id="SVGID_10_" gradientUnits="userSpaceOnUse" x1="109.1357" y1="57.6914" x2="88.8265" y2="43.4707">
					<stop  offset="0" style="stop-color:#181500"/>
					<stop  offset="1" style="stop-color:#5F5D5C"/>
				</linearGradient>
				<polygon fill="url(#SVGID_10_)" points="84.591,49.521 113.373,49.521 113.373,51.641 84.591,51.641 84.591,49.521 				"/>
				<linearGradient id="SVGID_11_" gradientUnits="userSpaceOnUse" x1="102.6992" y1="49.7783" x2="87.5593" y2="39.1772">
					<stop  offset="0" style="stop-color:#181500"/>
					<stop  offset="1" style="stop-color:#5F5D5C"/>
				</linearGradient>
				<polygon fill="url(#SVGID_11_)" points="84.591,43.418 105.669,43.418 105.669,45.538 84.591,45.538 84.591,43.418 				"/>
				<g>
					<linearGradient id="SVGID_12_" gradientUnits="userSpaceOnUse" x1="109.1367" y1="45.4849" x2="88.8267" y2="31.2636">
						<stop  offset="0" style="stop-color:#181500"/>
						<stop  offset="1" style="stop-color:#5F5D5C"/>
					</linearGradient>
					<polygon fill="url(#SVGID_12_)" points="84.591,37.314 113.373,37.314 113.373,39.436 84.591,39.436 84.591,37.314 					"/>
				</g>
			</g>
		</g>
		<g>
			<g>
				
					<radialGradient id="SVGID_13_" cx="94.2666" cy="53.9844" r="24.7261" gradientTransform="matrix(1 0 0 1 0 -9.765625e-04)" gradientUnits="userSpaceOnUse">
					<stop  offset="0" style="stop-color:#FAFAFA"/>
					<stop  offset="0.3109" style="stop-color:#F4F4F4"/>
					<stop  offset="0.7262" style="stop-color:#E3E3E3"/>
					<stop  offset="1" style="stop-color:#D4D4D4"/>
				</radialGradient>
				<path fill="url(#SVGID_13_)" stroke="#B3B3B3" d="M115.06,34.535v38.896c0,4.786-3.883,8.667-8.673,8.667H82.146
					c-4.79,0-8.672-3.881-8.672-8.667V34.535c0-4.786,3.882-8.666,8.672-8.666h24.241C111.177,25.869,115.06,29.749,115.06,34.535
					L115.06,34.535z"/>
				<path fill="#B3B3B3" d="M106.478,81.015H82.236c-4.79,0-8.672-3.881-8.672-8.666v1.082c0,4.786,3.882,8.667,8.672,8.667h24.241
					c4.79,0,8.673-3.881,8.673-8.667v-1.082C115.15,77.134,111.268,81.015,106.478,81.015z"/>
				<path fill="#FFFFFF" d="M78.67,29.585c0.968-0.807,2.062-1.352,3.566-1.352h24.241c1.506,0,2.6,0.545,3.567,1.352h1.224
					c-1.22-1.23-2.701-1.972-4.791-1.972H82.236c-2.089,0-3.569,0.741-4.79,1.972H78.67z"/>
			</g>
			<linearGradient id="SVGID_14_" gradientUnits="userSpaceOnUse" x1="94.2939" y1="26.2383" x2="94.2939" y2="36.6738">
				<stop  offset="0" style="stop-color:#99DBF6"/>
				<stop  offset="1" style="stop-color:#00B2DE"/>
			</linearGradient>
			<path fill="url(#SVGID_14_)" d="M114.711,36.674v-1.927c0-4.699-3.812-8.509-8.517-8.509H82.393c-4.704,0-8.516,3.81-8.516,8.509
				v1.927H114.711z"/>
			<path opacity="0.5" fill="#FFFFFF" d="M106.194,26.21H82.393c-4.704,0-8.516,3.811-8.516,8.51v1.646
				c0-4.699,3.812-8.51,8.516-8.51h23.802c4.704,0,8.517,3.811,8.517,8.51V34.72C114.711,30.021,110.898,26.21,106.194,26.21z"/>
			<g>
				<linearGradient id="SVGID_15_" gradientUnits="userSpaceOnUse" x1="104.4209" y1="76" x2="84.1117" y2="61.7793">
					<stop  offset="0" style="stop-color:#181500"/>
					<stop  offset="1" style="stop-color:#5F5D5C"/>
				</linearGradient>
				<polygon fill="url(#SVGID_15_)" points="79.876,67.83 108.658,67.83 108.658,69.949 79.876,69.949 79.876,67.83 				"/>
				<linearGradient id="SVGID_16_" gradientUnits="userSpaceOnUse" x1="97.9834" y1="68.085" x2="82.8451" y2="57.485">
					<stop  offset="0" style="stop-color:#181500"/>
					<stop  offset="1" style="stop-color:#5F5D5C"/>
				</linearGradient>
				<polygon fill="url(#SVGID_16_)" points="79.876,61.727 100.954,61.727 100.954,63.846 79.876,63.846 79.876,61.727 				"/>
				<linearGradient id="SVGID_17_" gradientUnits="userSpaceOnUse" x1="104.4209" y1="63.7935" x2="84.1125" y2="49.5734">
					<stop  offset="0" style="stop-color:#181500"/>
					<stop  offset="1" style="stop-color:#5F5D5C"/>
				</linearGradient>
				<polygon fill="url(#SVGID_17_)" points="79.876,55.624 108.658,55.624 108.658,57.743 79.876,57.743 79.876,55.624 				"/>
				<linearGradient id="SVGID_18_" gradientUnits="userSpaceOnUse" x1="97.9844" y1="55.8804" x2="82.8445" y2="45.2793">
					<stop  offset="0" style="stop-color:#181500"/>
					<stop  offset="1" style="stop-color:#5F5D5C"/>
				</linearGradient>
				<polygon fill="url(#SVGID_18_)" points="79.876,49.521 100.954,49.521 100.954,51.641 79.876,51.641 79.876,49.521 				"/>
				<g>
					<linearGradient id="SVGID_19_" gradientUnits="userSpaceOnUse" x1="104.4219" y1="51.5874" x2="84.1127" y2="37.3667">
						<stop  offset="0" style="stop-color:#181500"/>
						<stop  offset="1" style="stop-color:#5F5D5C"/>
					</linearGradient>
					<polygon fill="url(#SVGID_19_)" points="79.876,43.417 108.658,43.417 108.658,45.538 79.876,45.538 79.876,43.417 					"/>
				</g>
			</g>
		</g>
	</g>
</g>
</svg>
