<?xml version="1.0" encoding="utf-8"?>
<!-- Generator: Adobe Illustrator 13.0.0, SVG Export Plug-In . SVG Version: 6.00 Build 14948)  -->
<!DOCTYPE svg PUBLIC "-//W3C//DTD SVG 1.1//EN" "http://www.w3.org/Graphics/SVG/1.1/DTD/svg11.dtd">
<svg version="1.1" id="Layer_1" xmlns="http://www.w3.org/2000/svg" xmlns:xlink="http://www.w3.org/1999/xlink" x="0px" y="0px"
	 width="128px" height="128px" viewBox="0 0 128 128" enable-background="new 0 0 128 128" xml:space="preserve">
<g>
	<g>
		<g>
			<g>
				<g>
					<linearGradient id="SVGID_1_" gradientUnits="userSpaceOnUse" x1="53.854" y1="64.3975" x2="53.854" y2="109.1675">
						<stop  offset="0" style="stop-color:#D5D7D8"/>
						<stop  offset="1" style="stop-color:#5C5F61"/>
					</linearGradient>
					<path fill="url(#SVGID_1_)" d="M91.867,74.679c-8.044-6.184-22.058-10.281-38.013-10.281c-15.955,0-29.969,4.098-38.013,10.281
						H8.655v12.613h0.026c0.549,12.127,20.558,21.875,45.173,21.875c24.696,0,44.756-9.812,45.179-21.994h0.02V74.679H91.867z"/>
				</g>
				<g>
					<path fill="none" stroke="#4D4D4D" stroke-width="2" d="M91.867,74.679c-8.044-6.184-22.058-10.281-38.013-10.281
						c-15.955,0-29.969,4.098-38.013,10.281H8.655v12.613h0.026c0.549,12.127,20.558,21.875,45.173,21.875
						c24.696,0,44.756-9.812,45.179-21.994h0.02V74.679H91.867z"/>
				</g>
			</g>
			<g>
				<g>
					<linearGradient id="SVGID_2_" gradientUnits="userSpaceOnUse" x1="53.854" y1="52.8438" x2="53.854" y2="97.6147">
						<stop  offset="0" style="stop-color:#D5D7D8"/>
						<stop  offset="1" style="stop-color:#5C5F61"/>
					</linearGradient>
					<path fill="url(#SVGID_2_)" d="M91.862,63.122c-8.045-6.182-22.057-10.278-38.008-10.278c-15.952,0-29.964,4.097-38.008,10.278
						H8.655v12.617h0.026C9.23,87.866,29.239,97.614,53.854,97.614c24.698,0,44.758-9.812,45.179-21.996h0.02V63.122H91.862z"/>
				</g>
				<g>
					<path fill="none" stroke="#4D4D4D" stroke-width="2" d="M91.862,63.122c-8.045-6.182-22.057-10.278-38.008-10.278
						c-15.952,0-29.964,4.097-38.008,10.278H8.655v12.617h0.026C9.23,87.866,29.239,97.614,53.854,97.614
						c24.698,0,44.758-9.812,45.179-21.996h0.02V63.122H91.862z"/>
				</g>
			</g>
			<g>
				<g>
					<linearGradient id="SVGID_3_" gradientUnits="userSpaceOnUse" x1="53.854" y1="41.291" x2="53.854" y2="86.0601">
						<stop  offset="0" style="stop-color:#D5D7D8"/>
						<stop  offset="1" style="stop-color:#5C5F61"/>
					</linearGradient>
					<path fill="url(#SVGID_3_)" d="M91.864,51.57c-8.044-6.182-22.057-10.279-38.01-10.279S23.888,45.388,15.844,51.57H8.655
						v12.614h0.026C9.23,76.312,29.239,86.06,53.854,86.06c24.695,0,44.754-9.811,45.178-21.992h0.021V51.57H91.864z"/>
				</g>
				<g>
					<path fill="none" stroke="#4D4D4D" stroke-width="2" d="M91.864,51.57c-8.044-6.182-22.057-10.279-38.01-10.279
						S23.888,45.388,15.844,51.57H8.655v12.614h0.026C9.23,76.312,29.239,86.06,53.854,86.06c24.695,0,44.754-9.811,45.178-21.992
						h0.021V51.57H91.864z"/>
				</g>
			</g>
			<linearGradient id="SVGID_4_" gradientUnits="userSpaceOnUse" x1="53.854" y1="28.4629" x2="53.854" y2="73.2339">
				<stop  offset="0" style="stop-color:#D5D7D8"/>
				<stop  offset="1" style="stop-color:#5C5F61"/>
			</linearGradient>
			<ellipse fill="url(#SVGID_4_)" stroke="#4D4D4D" stroke-width="2" cx="53.854" cy="50.848" rx="45.199" ry="22.386"/>
			<linearGradient id="SVGID_5_" gradientUnits="userSpaceOnUse" x1="53.8481" y1="29.9492" x2="53.8481" y2="50.4307">
				<stop  offset="0" style="stop-color:#999999"/>
				<stop  offset="1" style="stop-color:#CCCCCC"/>
			</linearGradient>
			<path fill="url(#SVGID_5_)" d="M56.524,47.211c12.58,5.031,28.665,3.295,40.71,0.672c-3.6-10.189-21.54-17.934-43.14-17.934
				c-22.899,0-41.688,8.707-43.632,19.797C21.884,45.834,41.277,41.113,56.524,47.211z"/>
		</g>
	</g>
	<g>
		
			<linearGradient id="SVGID_6_" gradientUnits="userSpaceOnUse" x1="-24.6455" y1="-51.8359" x2="-24.6455" y2="-37.8184" gradientTransform="matrix(1 0 0 -1 123.3447 2.9531)">
			<stop  offset="0" style="stop-color:#C51015"/>
			<stop  offset="1" style="stop-color:#E20A16"/>
		</linearGradient>
		<path fill="url(#SVGID_6_)" stroke="#FFFFFF" stroke-miterlimit="3.8637" d="M123.291,48.549c0,3.447-2.793,6.24-6.24,6.24H80.348
			c-3.447,0-6.241-2.793-6.241-6.24v-1.537c0-3.445,2.794-6.24,6.241-6.24h36.701c3.447,0,6.242,2.795,6.242,6.24V48.549
			L123.291,48.549z"/>
		<path opacity="0.8" fill="#EC8690" d="M116.19,41.48h-34.97c-3.284,0-5.946,2.662-5.946,5.945v1.111
			c0-3.283,2.662-5.945,5.946-5.945h34.97c3.284,0,5.947,2.662,5.947,5.945v-1.111C122.138,44.143,119.475,41.48,116.19,41.48z"/>
		<path fill="#A51C20" d="M80.581,54.639h36.01c3.382,0,6.124-2.74,6.124-6.123v-1.145c0,3.381-2.742,6.121-6.124,6.121h-36.01
			c-3.382,0-6.124-2.74-6.124-6.121v1.145C74.457,51.898,77.199,54.639,80.581,54.639z"/>
	</g>
</g>
</svg>
