<?xml version="1.0" encoding="utf-8"?>
<!-- Generator: Adobe Illustrator 13.0.0, SVG Export Plug-In . SVG Version: 6.00 Build 14948)  -->
<!DOCTYPE svg PUBLIC "-//W3C//DTD SVG 1.1//EN" "http://www.w3.org/Graphics/SVG/1.1/DTD/svg11.dtd">
<svg version="1.1" id="Layer_1" xmlns="http://www.w3.org/2000/svg" xmlns:xlink="http://www.w3.org/1999/xlink" x="0px" y="0px"
	 width="128px" height="128px" viewBox="0 0 128 128" enable-background="new 0 0 128 128" xml:space="preserve">
<g>
	
		<radialGradient id="SVGID_1_" cx="-5174.1489" cy="-1046.8965" r="53.1363" gradientTransform="matrix(0 1 -1 0 -982.8965 5245.6016)" gradientUnits="userSpaceOnUse">
		<stop  offset="0" style="stop-color:#FAFAFA"/>
		<stop  offset="0.3109" style="stop-color:#F4F4F4"/>
		<stop  offset="0.7262" style="stop-color:#E3E3E3"/>
		<stop  offset="1" style="stop-color:#D4D4D4"/>
	</radialGradient>
	<path fill="url(#SVGID_1_)" stroke="#B3B3B3" stroke-width="2" d="M105.795,116.137H22.208c-10.285,0-18.625-8.344-18.625-18.637
		V45.405c0-10.295,8.34-18.637,18.625-18.637h83.587c10.285,0,18.623,8.342,18.623,18.637V97.5
		C124.418,107.793,116.08,116.137,105.795,116.137L105.795,116.137z"/>
	<path fill="#B3B3B3" d="M105.156,112.183H22.72c-10.143,0-18.367-8.229-18.367-18.379v3.698c0,10.151,8.225,18.38,18.367,18.38
		h82.436c10.145,0,18.365-8.229,18.365-18.38v-3.698C123.521,103.954,115.301,112.183,105.156,112.183z"/>
	<path opacity="0.5" fill="#FFFFFF" d="M24.959,34.337h78.083c5.723,0,10.791,2.77,13.961,7.037h2.072
		c-2.641-6.253-8.824-10.64-16.033-10.64H24.959c-7.209,0-13.395,4.387-16.034,10.64h2.071
		C14.167,37.106,19.237,34.337,24.959,34.337z"/>
	<g>
		<linearGradient id="SVGID_2_" gradientUnits="userSpaceOnUse" x1="88.6865" y1="65.9404" x2="88.6865" y2="107.8018">
			<stop  offset="0" style="stop-color:#99DBF6"/>
			<stop  offset="1" style="stop-color:#00B2DE"/>
		</linearGradient>
		<path fill="url(#SVGID_2_)" d="M112.346,100.212c0,4.192-3.398,7.59-7.59,7.59H72.619c-4.193,0-7.592-3.397-7.592-7.59V73.53
			c0-4.191,3.398-7.59,7.592-7.59h32.137c4.191,0,7.59,3.398,7.59,7.59V100.212z"/>
		<g>
			<linearGradient id="SVGID_3_" gradientUnits="userSpaceOnUse" x1="86.2773" y1="101.4111" x2="80.8873" y2="97.637">
				<stop  offset="0" style="stop-color:#DEDEDE"/>
				<stop  offset="1" style="stop-color:#FEFEFE"/>
			</linearGradient>
			<polygon opacity="0.8" fill="url(#SVGID_3_)" points="81.779,96.363 81.768,102.739 88.385,98.401 81.779,96.363 			"/>
			<linearGradient id="SVGID_4_" gradientUnits="userSpaceOnUse" x1="100.1738" y1="93.9316" x2="81.7269" y2="81.015">
				<stop  offset="0" style="stop-color:#DEDEDE"/>
				<stop  offset="1" style="stop-color:#FEFEFE"/>
			</linearGradient>
			<polygon fill="url(#SVGID_4_)" points="108.531,81.998 81.584,95.801 73.371,92.951 108.531,81.998 			"/>
			<linearGradient id="SVGID_5_" gradientUnits="userSpaceOnUse" x1="103.0654" y1="94.4307" x2="89.8014" y2="85.1431">
				<stop  offset="0" style="stop-color:#DEDEDE"/>
				<stop  offset="1" style="stop-color:#FEFEFE"/>
			</linearGradient>
			<polygon fill="url(#SVGID_5_)" points="108.773,82.237 82.195,96.007 98.305,101.231 108.773,82.237 			"/>
		</g>
		<g>
			<path fill="#FFFFFF" d="M87.551,78.844c0,0,0.238-1.098-0.799-1.515c-1.037-0.42-1.887,0.674-1.887,0.674
				s1.221-2.493-1.324-3.104c-2.547-0.61-3.209,2.086-3.209,2.086s0.102-3.717-2.598-3.105c-1.996,0.452-3.629,1.797-3.727,3.164
				c-0.225-0.233-0.566-0.236-0.975-0.379c-1.516-0.532-4.988,2.311-1.697,4.446c1.936,1.259,3.021-0.372,3.021-0.372
				c1.121,1.152,2.309,1.392,3.971,1.051c1.664-0.34,2.41-1.29,2.41-1.29c1.934,1.903,4.277-0.339,4.277-0.339
				c0.781,0.95,2.311-0.205,2.311-0.205c0.779,0.883,2.061,0.724,2.08-0.433S87.551,78.844,87.551,78.844z"/>
			<path fill="#E6E6E6" d="M89.236,80.082c0,0-1.328,0.175-1.705-0.752c0,0-1.648,1.216-2.055-0.059
				c-0.027,0.117-0.027,0.117-0.027,0.117s-3.938,1.532-4.66-0.318c0,0-3.76,3.472-5.785,0.348c0,0-3.102,2.604-4.893,0.376
				c-0.006-0.009,0,0.071,0.068,0c0.049,0.46,0.506,1.115,1.324,1.484c2.104,0.95,2.854-0.54,2.854-0.54
				c1.121,1.152,2.309,1.392,3.971,1.051c1.664-0.34,2.41-1.29,2.41-1.29c1.934,1.903,4.277-0.339,4.277-0.339
				c0.781,0.95,2.311-0.205,2.311-0.205c0.621,0.705,1.562,0.746,1.926,0.146L89.236,80.082z"/>
		</g>
	</g>
	<g>
		<polygon points="14.122,69.054 56.016,69.054 56.016,72.14 14.122,72.14 		"/>
		<polygon points="14.122,82.368 56.016,82.368 56.016,85.454 14.122,85.454 		"/>
		<polygon points="14.122,95.683 56.016,95.683 56.016,98.769 14.122,98.769 		"/>
		<polygon points="14.122,102.339 44.803,102.339 44.803,105.425 14.122,105.425 		"/>
		<polygon points="14.122,75.712 44.803,75.712 44.803,78.798 14.122,78.798 		"/>
		<polygon points="14.122,89.026 44.803,89.026 44.803,92.11 14.122,92.11 		"/>
	</g>
	
		<linearGradient id="SVGID_6_" gradientUnits="userSpaceOnUse" x1="-349.1484" y1="855.0566" x2="-349.1484" y2="872.8516" gradientTransform="matrix(1 0 0 1 412.6201 -813.9912)">
		<stop  offset="0" style="stop-color:#99DBF6"/>
		<stop  offset="1" style="stop-color:#00B2DE"/>
	</linearGradient>
	<path fill="url(#SVGID_6_)" d="M112.822,49.962c0,4.915-3.984,8.898-8.896,8.898H23.018c-4.913,0-8.896-3.983-8.896-8.898l0,0
		c0-4.914,3.983-8.896,8.896-8.896h80.906C108.838,41.063,112.822,45.048,112.822,49.962L112.822,49.962z"/>
</g>
</svg>
