<?xml version="1.0" encoding="utf-8"?>
<!-- Generator: Adobe Illustrator 13.0.0, SVG Export Plug-In . SVG Version: 6.00 Build 14948)  -->
<!DOCTYPE svg PUBLIC "-//W3C//DTD SVG 1.1//EN" "http://www.w3.org/Graphics/SVG/1.1/DTD/svg11.dtd">
<svg version="1.1" id="Layer_1" xmlns="http://www.w3.org/2000/svg" xmlns:xlink="http://www.w3.org/1999/xlink" x="0px" y="0px"
	 width="128px" height="128px" viewBox="0 0 128 128" enable-background="new 0 0 128 128" xml:space="preserve">
<g>
	<g>
		<path fill="#F2F2F2" stroke="#B3B3B3" stroke-width="2" d="M109.502,21.777H18.5c-9.342,0-16.914,7.572-16.914,16.91v67.379
			c0,9.342,7.572,16.914,16.914,16.914h91.002c9.34,0,16.912-7.572,16.912-16.914V38.687
			C126.414,29.349,118.842,21.777,109.502,21.777z"/>
		<linearGradient id="SVGID_1_" gradientUnits="userSpaceOnUse" x1="63.9346" y1="123.8682" x2="63.9346" y2="57.3656">
			<stop  offset="0.0934" style="stop-color:#D1D1D1"/>
			<stop  offset="0.431" style="stop-color:#D9D9D9"/>
			<stop  offset="0.9519" style="stop-color:#EFEFEF"/>
			<stop  offset="0.9725" style="stop-color:#F0F0F0"/>
		</linearGradient>
		<path fill="url(#SVGID_1_)" d="M38.496,87.258c-12.658,0-24.773-1.07-35.959-3.023v22.107c0,9.189,7.447,16.639,16.637,16.639
			h89.522c9.188,0,16.637-7.449,16.637-16.639V64.83C107.314,78.291,75.166,87.258,38.496,87.258z"/>
		<path fill="#B3B3B3" d="M108.934,119.963l-89.745,0.002c-9.211,0-16.678-7.469-16.678-16.682v3.289
			c0,9.213,7.467,16.68,16.678,16.68h89.745c9.209,0,16.676-7.467,16.676-16.68v-3.289
			C125.609,112.496,118.143,119.963,108.934,119.963z"/>
		<path fill="#FFFFFF" d="M105.5,26.301H21.315c-8.643,0-15.647,7.005-15.647,15.643v4.626c0-8.64,7.005-15.645,15.647-15.645H105.5
			c8.639,0,15.645,7.005,15.645,15.645v-4.626C121.145,33.306,114.139,26.301,105.5,26.301z"/>
	</g>
	<g>
		
			<linearGradient id="SVGID_2_" gradientUnits="userSpaceOnUse" x1="-334.5161" y1="-484.731" x2="-334.5161" y2="-502.2075" gradientTransform="matrix(1 0 0 -1 412.6577 -439.8887)">
			<stop  offset="0" style="stop-color:#EB7680"/>
			<stop  offset="1" style="stop-color:#C1282F"/>
		</linearGradient>
		<path fill="url(#SVGID_2_)" d="M85.23,44.842c0.627,0,1.143,0.482,1.189,1.098c1.605,0.283,2.828,1.688,2.828,3.375v9.578
			c0,1.891-1.533,3.426-3.424,3.426h-0.771H70.459c-1.953,0-3.424-1.473-3.424-3.287v-9.184v-0.533c0-1.893,1.533-3.426,3.424-3.426
			h8.219c0.07-0.59,0.574-1.047,1.186-1.047H85.23L85.23,44.842z"/>
		
			<linearGradient id="SVGID_3_" gradientUnits="userSpaceOnUse" x1="-334.5161" y1="-508.6626" x2="-334.5161" y2="-526.1392" gradientTransform="matrix(1 0 0 -1 412.6577 -439.8887)">
			<stop  offset="0" style="stop-color:#EB7680"/>
			<stop  offset="1" style="stop-color:#C1282F"/>
		</linearGradient>
		<path fill="url(#SVGID_3_)" d="M85.23,68.773c0.627,0,1.143,0.484,1.189,1.1c1.605,0.283,2.828,1.688,2.828,3.375v9.576
			c0,1.895-1.533,3.426-3.424,3.426h-0.771H70.459c-1.953,0-3.424-1.471-3.424-3.283v-9.188v-0.531c0-1.893,1.533-3.426,3.424-3.426
			h8.219c0.07-0.592,0.574-1.049,1.186-1.049H85.23L85.23,68.773z"/>
		
			<linearGradient id="SVGID_4_" gradientUnits="userSpaceOnUse" x1="-334.5161" y1="-532.5962" x2="-334.5161" y2="-550.0747" gradientTransform="matrix(1 0 0 -1 412.6577 -439.8887)">
			<stop  offset="0" style="stop-color:#EB7680"/>
			<stop  offset="1" style="stop-color:#C1282F"/>
		</linearGradient>
		<path fill="url(#SVGID_4_)" d="M85.23,92.707c0.627,0,1.143,0.484,1.189,1.102c1.605,0.279,2.828,1.688,2.828,3.375v9.576
			c0,1.895-1.533,3.426-3.424,3.426h-0.771H70.459c-1.953,0-3.424-1.473-3.424-3.283v-9.189v-0.529c0-1.895,1.533-3.43,3.424-3.43
			h8.219c0.07-0.59,0.574-1.047,1.186-1.047H85.23L85.23,92.707z"/>
		
			<linearGradient id="SVGID_5_" gradientUnits="userSpaceOnUse" x1="-307.3872" y1="-497.3579" x2="-307.3872" y2="-500.1372" gradientTransform="matrix(1 0 0 -1 412.6577 -439.8887)">
			<stop  offset="0" style="stop-color:#EB7680"/>
			<stop  offset="1" style="stop-color:#C1282F"/>
		</linearGradient>
		<path fill="url(#SVGID_5_)" d="M94.088,57.469h22.363c0.732,0,1.328,0.623,1.328,1.391l0,0c0,0.768-0.596,1.389-1.328,1.389
			H94.088c-0.732,0-1.326-0.621-1.326-1.389l0,0C92.762,58.092,93.354,57.469,94.088,57.469L94.088,57.469z"/>
		
			<linearGradient id="SVGID_6_" gradientUnits="userSpaceOnUse" x1="-307.3872" y1="-521.4165" x2="-307.3872" y2="-524.1978" gradientTransform="matrix(1 0 0 -1 412.6577 -439.8887)">
			<stop  offset="0" style="stop-color:#EB7680"/>
			<stop  offset="1" style="stop-color:#C1282F"/>
		</linearGradient>
		<path fill="url(#SVGID_6_)" d="M94.088,81.527h22.363c0.732,0,1.328,0.621,1.328,1.389l0,0c0,0.77-0.596,1.393-1.328,1.393H94.088
			c-0.732,0-1.326-0.623-1.326-1.393l0,0C92.762,82.148,93.354,81.527,94.088,81.527L94.088,81.527z"/>
		
			<linearGradient id="SVGID_7_" gradientUnits="userSpaceOnUse" x1="-307.3872" y1="-545.4731" x2="-307.3872" y2="-548.2563" gradientTransform="matrix(1 0 0 -1 412.6577 -439.8887)">
			<stop  offset="0" style="stop-color:#EB7680"/>
			<stop  offset="1" style="stop-color:#C1282F"/>
		</linearGradient>
		<path fill="url(#SVGID_7_)" d="M94.088,105.584h22.363c0.732,0,1.328,0.623,1.328,1.393l0,0c0,0.77-0.596,1.391-1.328,1.391
			H94.088c-0.732,0-1.326-0.621-1.326-1.391l0,0C92.762,106.207,93.354,105.584,94.088,105.584L94.088,105.584z"/>
		
			<linearGradient id="SVGID_8_" gradientUnits="userSpaceOnUse" x1="-391.3306" y1="-484.731" x2="-391.3306" y2="-502.2075" gradientTransform="matrix(1 0 0 -1 412.6577 -439.8887)">
			<stop  offset="0" style="stop-color:#EB7680"/>
			<stop  offset="1" style="stop-color:#C1282F"/>
		</linearGradient>
		<path fill="url(#SVGID_8_)" d="M28.415,44.842c0.627,0,1.144,0.482,1.19,1.098c1.607,0.283,2.828,1.688,2.828,3.375v9.578
			c0,1.891-1.533,3.426-3.424,3.426h-0.77H13.644c-1.953,0-3.424-1.473-3.424-3.287v-9.184v-0.533c0-1.893,1.532-3.426,3.424-3.426
			h8.215c0.074-0.59,0.578-1.047,1.188-1.047H28.415L28.415,44.842z"/>
		
			<linearGradient id="SVGID_9_" gradientUnits="userSpaceOnUse" x1="-391.3306" y1="-508.6626" x2="-391.3306" y2="-526.1392" gradientTransform="matrix(1 0 0 -1 412.6577 -439.8887)">
			<stop  offset="0" style="stop-color:#EB7680"/>
			<stop  offset="1" style="stop-color:#C1282F"/>
		</linearGradient>
		<path fill="url(#SVGID_9_)" d="M28.415,68.773c0.627,0,1.144,0.484,1.19,1.1c1.607,0.283,2.828,1.688,2.828,3.375v9.576
			c0,1.895-1.533,3.426-3.424,3.426h-0.77H13.644c-1.953,0-3.424-1.471-3.424-3.283v-9.188v-0.531c0-1.893,1.532-3.426,3.424-3.426
			h8.215c0.074-0.592,0.578-1.049,1.188-1.049H28.415L28.415,68.773z"/>
		
			<linearGradient id="SVGID_10_" gradientUnits="userSpaceOnUse" x1="-391.3306" y1="-532.5962" x2="-391.3306" y2="-550.0747" gradientTransform="matrix(1 0 0 -1 412.6577 -439.8887)">
			<stop  offset="0" style="stop-color:#EB7680"/>
			<stop  offset="1" style="stop-color:#C1282F"/>
		</linearGradient>
		<path fill="url(#SVGID_10_)" d="M28.415,92.707c0.627,0,1.144,0.484,1.19,1.102c1.607,0.279,2.828,1.688,2.828,3.375v9.576
			c0,1.895-1.533,3.426-3.424,3.426h-0.77H13.644c-1.953,0-3.424-1.473-3.424-3.283v-9.189v-0.529c0-1.895,1.532-3.43,3.424-3.43
			h8.215c0.074-0.59,0.578-1.047,1.188-1.047H28.415L28.415,92.707z"/>
		
			<linearGradient id="SVGID_11_" gradientUnits="userSpaceOnUse" x1="-364.2046" y1="-497.3579" x2="-364.2046" y2="-500.1372" gradientTransform="matrix(1 0 0 -1 412.6577 -439.8887)">
			<stop  offset="0" style="stop-color:#EB7680"/>
			<stop  offset="1" style="stop-color:#C1282F"/>
		</linearGradient>
		<path fill="url(#SVGID_11_)" d="M37.271,57.469h22.363c0.732,0,1.328,0.623,1.328,1.391l0,0c0,0.768-0.596,1.389-1.328,1.389
			H37.271c-0.733,0-1.328-0.621-1.328-1.389l0,0C35.943,58.092,36.538,57.469,37.271,57.469L37.271,57.469z"/>
		
			<linearGradient id="SVGID_12_" gradientUnits="userSpaceOnUse" x1="-364.2046" y1="-521.4165" x2="-364.2046" y2="-524.1978" gradientTransform="matrix(1 0 0 -1 412.6577 -439.8887)">
			<stop  offset="0" style="stop-color:#EB7680"/>
			<stop  offset="1" style="stop-color:#C1282F"/>
		</linearGradient>
		<path fill="url(#SVGID_12_)" d="M37.271,81.527h22.363c0.732,0,1.328,0.621,1.328,1.389l0,0c0,0.77-0.596,1.393-1.328,1.393
			H37.271c-0.733,0-1.328-0.623-1.328-1.393l0,0C35.943,82.148,36.538,81.527,37.271,81.527L37.271,81.527z"/>
		
			<linearGradient id="SVGID_13_" gradientUnits="userSpaceOnUse" x1="-364.2046" y1="-545.4731" x2="-364.2046" y2="-548.2563" gradientTransform="matrix(1 0 0 -1 412.6577 -439.8887)">
			<stop  offset="0" style="stop-color:#EB7680"/>
			<stop  offset="1" style="stop-color:#C1282F"/>
		</linearGradient>
		<path fill="url(#SVGID_13_)" d="M37.271,105.584h22.363c0.732,0,1.328,0.623,1.328,1.393l0,0c0,0.77-0.596,1.391-1.328,1.391
			H37.271c-0.733,0-1.328-0.621-1.328-1.391l0,0C35.943,106.207,36.538,105.584,37.271,105.584L37.271,105.584z"/>
	</g>
</g>
</svg>
