<?xml version="1.0" encoding="utf-8"?>
<!-- Generator: Adobe Illustrator 13.0.0, SVG Export Plug-In . SVG Version: 6.00 Build 14948)  -->
<!DOCTYPE svg PUBLIC "-//W3C//DTD SVG 1.1//EN" "http://www.w3.org/Graphics/SVG/1.1/DTD/svg11.dtd">
<svg version="1.1" id="Layer_1" xmlns="http://www.w3.org/2000/svg" xmlns:xlink="http://www.w3.org/1999/xlink" x="0px" y="0px"
	 width="128px" height="128px" viewBox="0 0 128 128" enable-background="new 0 0 128 128" xml:space="preserve">
<g>
	<g>
		<path fill="#F2F2F2" stroke="#B3B3B3" stroke-width="2" d="M109.502,15.905H18.5c-9.342,0-16.914,7.572-16.914,16.91v67.379
			c0,9.342,7.572,16.914,16.914,16.914h91.001c9.34,0,16.912-7.572,16.912-16.914V32.815
			C126.414,23.478,118.842,15.905,109.502,15.905z"/>
		<linearGradient id="SVGID_1_" gradientUnits="userSpaceOnUse" x1="63.9351" y1="117.9961" x2="63.9351" y2="51.4952">
			<stop  offset="0.0934" style="stop-color:#D1D1D1"/>
			<stop  offset="0.431" style="stop-color:#D9D9D9"/>
			<stop  offset="0.9519" style="stop-color:#EFEFEF"/>
			<stop  offset="0.9725" style="stop-color:#F0F0F0"/>
		</linearGradient>
		<path fill="url(#SVGID_1_)" d="M38.497,81.386c-12.658,0-24.773-1.07-35.959-3.022v22.106c0,9.189,7.447,16.639,16.637,16.639
			h89.521c9.188,0,16.637-7.449,16.637-16.639V58.959C107.314,72.42,75.166,81.386,38.497,81.386z"/>
		<path fill="#B3B3B3" d="M108.934,114.092l-89.744,0.001c-9.211,0-16.678-7.469-16.678-16.681v3.288
			c0,9.213,7.467,16.68,16.678,16.68h89.744c9.209,0,16.676-7.467,16.676-16.68v-3.288
			C125.609,106.624,118.143,114.092,108.934,114.092z"/>
		<path fill="#FFFFFF" d="M105.5,20.43H21.315c-8.643,0-15.646,7.005-15.646,15.643v4.626c0-8.64,7.004-15.645,15.646-15.645H105.5
			c8.639,0,15.645,7.005,15.645,15.645v-4.626C121.145,27.435,114.139,20.43,105.5,20.43z"/>
	</g>
	<g>
		
			<linearGradient id="SVGID_2_" gradientUnits="userSpaceOnUse" x1="-372.2334" y1="896.4561" x2="-408.8585" y2="870.8109" gradientTransform="matrix(1 0 0 1 412.6201 -813.9912)">
			<stop  offset="0" style="stop-color:#00B2DE"/>
			<stop  offset="1" style="stop-color:#99DBF6"/>
		</linearGradient>
		<path fill="url(#SVGID_2_)" d="M24.974,103.564c0,1.6-1.299,2.897-2.898,2.897l0,0c-1.602,0-2.899-1.299-2.899-2.897V35.722
			c0-1.603,1.298-2.898,2.899-2.898l0,0c1.601,0,2.898,1.297,2.898,2.898V103.564z"/>
		
			<linearGradient id="SVGID_3_" gradientUnits="userSpaceOnUse" x1="-347.6196" y1="846.8145" x2="-347.6196" y2="920.4531" gradientTransform="matrix(1 0 0 1 412.6201 -813.9912)">
			<stop  offset="0" style="stop-color:#00B2DE"/>
			<stop  offset="1" style="stop-color:#99DBF6"/>
		</linearGradient>
		<path fill="url(#SVGID_3_)" d="M67.9,103.564c0,1.6-1.297,2.897-2.898,2.897l0,0c-1.602,0-2.901-1.299-2.901-2.897V35.722
			c0-1.603,1.299-2.898,2.901-2.898l0,0c1.602,0,2.898,1.297,2.898,2.898V103.564z"/>
		
			<linearGradient id="SVGID_4_" gradientUnits="userSpaceOnUse" x1="-286.3794" y1="896.457" x2="-323.0053" y2="870.8114" gradientTransform="matrix(1 0 0 1 412.6201 -813.9912)">
			<stop  offset="0" style="stop-color:#00B2DE"/>
			<stop  offset="1" style="stop-color:#99DBF6"/>
		</linearGradient>
		<path fill="url(#SVGID_4_)" d="M110.826,103.564c0,1.6-1.297,2.897-2.898,2.897l0,0c-1.602,0-2.9-1.299-2.9-2.897V35.722
			c0-1.603,1.301-2.898,2.9-2.898l0,0c1.602,0,2.898,1.297,2.898,2.898V103.564z"/>
		<g>
			<g>
				
					<linearGradient id="SVGID_5_" gradientUnits="userSpaceOnUse" x1="-7311.9619" y1="2404.1094" x2="-7299.0649" y2="2413.1404" gradientTransform="matrix(-1 0 0 -1 -7283.0684 2464.5703)">
					<stop  offset="0" style="stop-color:#181500"/>
					<stop  offset="1" style="stop-color:#5F5D5C"/>
				</linearGradient>
				<path fill="url(#SVGID_5_)" d="M27.958,52.604h-9.065c-0.173,0-0.336,0.021-0.492,0.053c-0.133,0.021-0.256,0.059-0.375,0.109
					c-0.017,0.006-0.032,0.012-0.049,0.021c-0.045,0.021-0.1,0.032-0.141,0.06l-4.887,3.067c-0.477,0.299-0.477,0.784,0,1.083
					l4.887,3.068c0.041,0.025,0.094,0.037,0.139,0.058c0.018,0.007,0.034,0.015,0.051,0.021c0.121,0.051,0.246,0.088,0.381,0.11
					c0.154,0.031,0.314,0.052,0.484,0.052h9.066c0.885,0,1.602-0.449,1.602-1.004v-5.693C29.558,53.056,28.841,52.604,27.958,52.604
					z"/>
			</g>
		</g>
		<g>
			<g>
				
					<linearGradient id="SVGID_6_" gradientUnits="userSpaceOnUse" x1="-7354.8906" y1="2368.7393" x2="-7341.9922" y2="2377.7708" gradientTransform="matrix(-1 0 0 -1 -7283.0684 2464.5703)">
					<stop  offset="0" style="stop-color:#181500"/>
					<stop  offset="1" style="stop-color:#5F5D5C"/>
				</linearGradient>
				<path fill="url(#SVGID_6_)" d="M70.885,87.973h-9.067c-0.178,0-0.344,0.021-0.502,0.057c-0.129,0.021-0.246,0.058-0.358,0.105
					c-0.021,0.008-0.039,0.014-0.058,0.021c-0.045,0.021-0.098,0.031-0.139,0.059l-4.887,3.068c-0.475,0.299-0.475,0.781,0,1.082
					l4.887,3.066c0.04,0.024,0.092,0.037,0.137,0.059c0.02,0.008,0.039,0.018,0.061,0.023c0.118,0.051,0.238,0.086,0.372,0.106
					c0.155,0.03,0.317,0.054,0.487,0.054h9.067c0.887,0,1.602-0.449,1.602-1.005v-5.692C72.484,88.424,71.77,87.973,70.885,87.973z"
					/>
			</g>
		</g>
		<g>
			<g>
				
					<linearGradient id="SVGID_7_" gradientUnits="userSpaceOnUse" x1="-7397.8145" y1="2390.9336" x2="-7384.9175" y2="2399.9641" gradientTransform="matrix(-1 0 0 -1 -7283.0684 2464.5703)">
					<stop  offset="0" style="stop-color:#181500"/>
					<stop  offset="1" style="stop-color:#5F5D5C"/>
				</linearGradient>
				<path fill="url(#SVGID_7_)" d="M113.811,65.78h-9.064c-0.168,0-0.326,0.021-0.479,0.051c-0.145,0.021-0.275,0.061-0.4,0.115
					c-0.008,0.004-0.018,0.007-0.025,0.011c-0.051,0.022-0.105,0.035-0.15,0.063l-4.891,3.067c-0.475,0.299-0.475,0.785,0,1.084
					l4.889,3.068c0.045,0.027,0.102,0.039,0.15,0.062c0.01,0.004,0.018,0.008,0.025,0.012c0.125,0.056,0.258,0.095,0.4,0.115
					c0.15,0.029,0.311,0.051,0.479,0.051h9.064c0.885,0,1.602-0.449,1.602-1.004v-5.692C115.41,66.229,114.695,65.78,113.811,65.78z
					"/>
			</g>
		</g>
	</g>
</g>
</svg>
