<?xml version="1.0" encoding="utf-8"?>
<!-- Generator: Adobe Illustrator 13.0.0, SVG Export Plug-In . SVG Version: 6.00 Build 14948)  -->
<!DOCTYPE svg PUBLIC "-//W3C//DTD SVG 1.1//EN" "http://www.w3.org/Graphics/SVG/1.1/DTD/svg11.dtd">
<svg version="1.1" id="Layer_1" xmlns="http://www.w3.org/2000/svg" xmlns:xlink="http://www.w3.org/1999/xlink" x="0px" y="0px"
	 width="128px" height="128px" viewBox="0 0 128 128" enable-background="new 0 0 128 128" xml:space="preserve">
<g>
	<path fill="#F2F2F2" d="M5.989,67.436c1.278-0.795,2.783-1.258,4.397-1.258H64.58c1.596,0,3.087,0.452,4.356,1.229l0.642-0.58
		c-1.442-0.938-3.154-1.488-4.998-1.488H10.387c-1.838,0-3.544,0.547-4.98,1.478L5.989,67.436z"/>
	<radialGradient id="SVGID_1_" cx="37.4287" cy="90.626" r="31.4116" gradientUnits="userSpaceOnUse">
		<stop  offset="0" style="stop-color:#FAFAFA"/>
		<stop  offset="0.3629" style="stop-color:#E5E5E5"/>
		<stop  offset="1" style="stop-color:#C4C4C4"/>
	</radialGradient>
	<path fill="url(#SVGID_1_)" stroke="#808080" d="M30.125,112.878L4.578,75.105c-3.951-6.523-2.24-11.863,3.801-11.863h58.358
		c6.04,0,7.487,4.99,3.216,11.086l-24.88,39.325C40.803,119.752,34.075,119.402,30.125,112.878L30.125,112.878z"/>
	<radialGradient id="SVGID_2_" cx="38.1094" cy="34.3667" r="24.3657" gradientUnits="userSpaceOnUse">
		<stop  offset="0" style="stop-color:#FAFAFA"/>
		<stop  offset="0.4142" style="stop-color:#E3E3E3"/>
		<stop  offset="1" style="stop-color:#C7C7C7"/>
	</radialGradient>
	<path fill="url(#SVGID_2_)" stroke="#808080" d="M13.752,34.368c0-13.463,10.905-24.375,24.358-24.375
		c13.451,0,24.356,10.912,24.356,24.375c0,13.461-10.905,24.373-24.356,24.373C24.657,58.741,13.752,47.829,13.752,34.368
		L13.752,34.368z"/>
	<linearGradient id="SVGID_3_" gradientUnits="userSpaceOnUse" x1="49.1113" y1="21.9741" x2="49.1113" y2="34.6763">
		<stop  offset="0" style="stop-color:#5F5D5C"/>
		<stop  offset="1" style="stop-color:#181500"/>
	</linearGradient>
	<path fill="url(#SVGID_3_)" d="M42.765,28.325c0-3.507,2.841-6.351,6.348-6.351c3.504,0,6.346,2.844,6.346,6.351
		c0,3.51-2.842,6.352-6.346,6.352C45.605,34.676,42.765,31.834,42.765,28.325L42.765,28.325z"/>
	<path opacity="0.5" fill="#FFFFFF" d="M49.104,28.176c1.748,1.46,4.112,0.658,5.585-0.105c-0.218-2.938-2.667-5.256-5.659-5.256
		c-3.005,0-5.463,2.336-5.66,5.291C44.73,27.438,47.223,26.602,49.104,28.176z"/>
	<path fill="#F2F2F2" d="M20.424,21.745c4.067-5.584,11.546-9.862,18.537-9.862c6.99,0,14.277,4.278,18.344,9.862h0.773
		c-4.311-6.572-11.307-10.873-19.213-10.873c-7.908,0-14.905,4.301-19.215,10.873H20.424z"/>
	<linearGradient id="SVGID_4_" gradientUnits="userSpaceOnUse" x1="38.2402" y1="54.0708" x2="38.2402" y2="43.2007">
		<stop  offset="0" style="stop-color:#5F5D5C"/>
		<stop  offset="1" style="stop-color:#181500"/>
	</linearGradient>
	<path fill="url(#SVGID_4_)" d="M56.683,43.201c-4.068,5.584-11.547,9.86-18.538,9.86c-6.99,0-14.276-4.276-18.345-9.86h-0.773
		c4.312,6.572,11.307,10.87,19.214,10.87c7.908,0,14.904-4.298,19.214-10.87H56.683z"/>
	<g>
		<radialGradient id="SVGID_5_" cx="90.5693" cy="90.624" r="31.4121" gradientUnits="userSpaceOnUse">
			<stop  offset="0" style="stop-color:#FAFAFA"/>
			<stop  offset="0.3629" style="stop-color:#E5E5E5"/>
			<stop  offset="1" style="stop-color:#C4C4C4"/>
		</radialGradient>
		<path fill="url(#SVGID_5_)" stroke="#808080" d="M97.874,68.371l25.547,37.774c3.95,6.524,2.24,11.862-3.802,11.862H61.262
			c-6.039,0-7.488-4.989-3.217-11.088l24.88-39.323C87.196,61.498,93.923,61.847,97.874,68.371L97.874,68.371z"/>
		<radialGradient id="SVGID_6_" cx="90.5684" cy="34.3667" r="24.3657" gradientUnits="userSpaceOnUse">
			<stop  offset="0" style="stop-color:#FAFAFA"/>
			<stop  offset="0.4142" style="stop-color:#E3E3E3"/>
			<stop  offset="1" style="stop-color:#C7C7C7"/>
		</radialGradient>
		<path fill="url(#SVGID_6_)" stroke="#808080" d="M66.211,34.368c0-13.463,10.906-24.375,24.357-24.375
			s24.357,10.912,24.357,24.375c0,13.461-10.906,24.373-24.357,24.373S66.211,47.829,66.211,34.368L66.211,34.368z"/>
		<linearGradient id="SVGID_7_" gradientUnits="userSpaceOnUse" x1="81.3379" y1="21.9741" x2="81.3379" y2="34.6763">
			<stop  offset="0" style="stop-color:#5F5D5C"/>
			<stop  offset="1" style="stop-color:#181500"/>
		</linearGradient>
		<path fill="url(#SVGID_7_)" d="M74.99,28.325c0-3.507,2.843-6.351,6.348-6.351s6.347,2.844,6.347,6.351
			c0,3.51-2.842,6.352-6.347,6.352S74.99,31.834,74.99,28.325L74.99,28.325z"/>
		<path opacity="0.5" fill="#FFFFFF" d="M81.132,28.176c1.749,1.46,4.112,0.658,5.585-0.105c-0.218-2.938-2.667-5.256-5.658-5.256
			c-3.006,0-5.463,2.336-5.661,5.291C76.76,27.438,79.252,26.602,81.132,28.176z"/>
		<path fill="#F2F2F2" d="M72.127,21.745c4.068-5.584,11.547-9.862,18.537-9.862s14.277,4.278,18.345,9.862h0.773
			c-4.311-6.572-11.307-10.873-19.213-10.873c-7.908,0-14.904,4.301-19.215,10.873H72.127z"/>
		<linearGradient id="SVGID_8_" gradientUnits="userSpaceOnUse" x1="71.3545" y1="48.6357" x2="109.7822" y2="48.6357">
			<stop  offset="0" style="stop-color:#5F5D5C"/>
			<stop  offset="1" style="stop-color:#181500"/>
		</linearGradient>
		<path fill="url(#SVGID_8_)" d="M109.01,43.201c-4.068,5.584-11.546,9.86-18.537,9.86s-14.277-4.276-18.345-9.86h-0.773
			c4.311,6.572,11.307,10.87,19.213,10.87c7.908,0,14.905-4.298,19.215-10.87H109.01z"/>
		<path opacity="0.5" fill="#FFFFFF" d="M70.389,113.976c0-18.52,14.197-33.716,32.303-35.315l-5.461-8.074
			c-3.691-6.095-9.978-6.422-13.969-0.722l-23.246,36.742c-3.991,5.696-2.639,10.359,3.006,10.359h7.501
			C70.439,115.978,70.389,114.984,70.389,113.976z"/>
	</g>
	<path fill="#BFBFBF" d="M69.219,69.728c-0.02,1.278-0.377,2.567-1.119,3.722L43.242,112.19c-0.73,1.141-1.738,1.999-2.877,2.55
		l0.121,0.727c1.33-0.601,2.51-1.573,3.355-2.891L68.7,73.835c0.842-1.312,1.233-2.785,1.229-4.239L69.219,69.728z"/>
	<path opacity="0.5" fill="#FFFFFF" d="M10.821,82.086c7.245-5.72,16.386-9.143,26.332-9.143c9.8,0,18.815,3.322,26.007,8.889
		l4.379-6.917c3.99-5.697,2.636-10.356-3.006-10.356h-54.52c-5.645,0-7.242,4.986-3.551,11.08L10.821,82.086z"/>
</g>
</svg>
