<?xml version="1.0" encoding="utf-8"?>
<!-- Generator: Adobe Illustrator 13.0.0, SVG Export Plug-In . SVG Version: 6.00 Build 14948)  -->
<!DOCTYPE svg PUBLIC "-//W3C//DTD SVG 1.1//EN" "http://www.w3.org/Graphics/SVG/1.1/DTD/svg11.dtd">
<svg version="1.1" id="Layer_1" xmlns="http://www.w3.org/2000/svg" xmlns:xlink="http://www.w3.org/1999/xlink" x="0px" y="0px"
	 width="128px" height="128px" viewBox="0 0 128 128" enable-background="new 0 0 128 128" xml:space="preserve">
<g>
	<path fill="#BFBFBF" d="M100.816,70.623c-0.021,1.479-0.436,2.97-1.294,4.305l-28.749,44.81c-0.845,1.318-2.011,2.311-3.328,2.948
		l0.141,0.839c1.538-0.693,2.902-1.818,3.881-3.342l28.752-44.809c0.974-1.518,1.426-3.221,1.422-4.903L100.816,70.623z"/>
	<g>
		<path fill="#F2F2F2" d="M27.688,67.972c1.476-0.918,3.22-1.453,5.085-1.453h62.68c1.846,0,3.572,0.523,5.039,1.422l0.741-0.671
			c-1.667-1.084-3.647-1.722-5.78-1.722h-62.68c-2.125,0-4.099,0.633-5.76,1.708L27.688,67.972z"/>
		<radialGradient id="SVGID_1_" cx="64.0498" cy="94.7939" r="36.33" gradientUnits="userSpaceOnUse">
			<stop  offset="0" style="stop-color:#FAFAFA"/>
			<stop  offset="0.3629" style="stop-color:#E5E5E5"/>
			<stop  offset="1" style="stop-color:#C4C4C4"/>
		</radialGradient>
		<path fill="url(#SVGID_1_)" stroke="#808080" d="M55.602,120.531L26.054,76.845c-4.569-7.546-2.588-13.722,4.397-13.722h67.497
			c6.985,0,8.659,5.771,3.718,12.823l-28.774,45.482C67.952,128.481,60.172,128.076,55.602,120.531L55.602,120.531z"/>
		<radialGradient id="SVGID_2_" cx="64.8369" cy="29.7266" r="28.1807" gradientUnits="userSpaceOnUse">
			<stop  offset="0" style="stop-color:#FAFAFA"/>
			<stop  offset="0.4142" style="stop-color:#E3E3E3"/>
			<stop  offset="1" style="stop-color:#C7C7C7"/>
		</radialGradient>
		<path fill="url(#SVGID_2_)" stroke="#808080" d="M36.666,29.727c0-15.569,12.613-28.19,28.173-28.19
			c15.559,0,28.169,12.621,28.169,28.19c0,15.57-12.61,28.19-28.169,28.19C49.279,57.917,36.666,45.297,36.666,29.727L36.666,29.727
			z"/>
		<path fill="#F2F2F2" d="M44.382,15.128C49.087,8.67,57.735,3.72,65.82,3.72s16.515,4.95,21.218,11.408h0.894
			C82.946,7.526,74.855,2.552,65.711,2.552c-9.146,0-17.238,4.975-22.225,12.576H44.382z"/>
		<linearGradient id="SVGID_3_" gradientUnits="userSpaceOnUse" x1="64.9893" y1="52.5156" x2="64.9893" y2="39.9424">
			<stop  offset="0" style="stop-color:#00B2DE"/>
			<stop  offset="1" style="stop-color:#99DBF6"/>
		</linearGradient>
		<path fill="url(#SVGID_3_)" d="M86.32,39.942c-4.707,6.459-13.355,11.405-21.443,11.405c-8.085,0-16.512-4.946-21.217-11.405
			h-0.894c4.985,7.603,13.077,12.573,22.222,12.573c9.146,0,17.237-4.971,22.224-12.573H86.32z"/>
		<path opacity="0.5" fill="#FFFFFF" d="M33.276,84.916c8.379-6.614,18.95-10.572,30.456-10.572c11.333,0,21.76,3.841,30.076,10.279
			l5.065-7.999c4.614-6.59,3.051-11.979-3.476-11.979H32.342c-6.53,0-8.377,5.768-4.108,12.815L33.276,84.916z"/>
	</g>
	<g>
		<path fill="#010101" d="M85.651,28.479c0,4.383-3.866,7.936-8.642,7.936c-4.777,0-8.647-3.553-8.647-7.936s3.87-7.94,8.647-7.94
			C81.785,20.538,85.651,24.096,85.651,28.479z"/>
		<path fill="#010101" d="M61.332,28.175c0,4.383-3.865,7.938-8.646,7.938c-4.771,0-8.642-3.555-8.642-7.938
			c0-4.384,3.87-7.941,8.642-7.941C57.467,20.233,61.332,23.791,61.332,28.175z"/>
		<rect x="60.99" y="26.647" fill="#010101" width="8.322" height="2.746"/>
		<polygon fill="#010101" points="84.908,29.262 92.113,24.185 90.979,19.97 83.996,25.433 		"/>
		<polygon fill="#010101" points="44.608,29.722 37.296,25.421 38.182,22.374 45.225,25.736 		"/>
	</g>
	<path opacity="0.5" fill="#FFFFFF" d="M52.515,28.243c2.371,1.98,5.58,0.894,7.577-0.141c-0.297-3.988-3.618-7.13-7.678-7.13
		c-4.074,0-7.408,3.167-7.677,7.177C46.584,27.244,49.965,26.108,52.515,28.243z"/>
	<path opacity="0.5" fill="#FFFFFF" d="M77.14,28.677c2.371,1.98,5.58,0.894,7.577-0.141c-0.297-3.988-3.618-7.13-7.678-7.13
		c-4.074,0-7.408,3.167-7.677,7.177C71.209,27.678,74.59,26.542,77.14,28.677z"/>
</g>
</svg>
