<?xml version="1.0" encoding="utf-8"?>
<!-- Generator: Adobe Illustrator 13.0.0, SVG Export Plug-In . SVG Version: 6.00 Build 14948)  -->
<!DOCTYPE svg PUBLIC "-//W3C//DTD SVG 1.1//EN" "http://www.w3.org/Graphics/SVG/1.1/DTD/svg11.dtd">
<svg version="1.1" id="Layer_1" xmlns="http://www.w3.org/2000/svg" xmlns:xlink="http://www.w3.org/1999/xlink" x="0px" y="0px"
	 width="128px" height="128px" viewBox="0 0 128 128" enable-background="new 0 0 128 128" xml:space="preserve">
<g>
	<path fill="#F2F2F2" stroke="#B3B3B3" stroke-width="2" d="M109.502,17.042H18.5c-9.342,0-16.914,7.572-16.914,16.91v67.378
		c0,9.342,7.572,16.914,16.914,16.914h91.002c9.34,0,16.912-7.572,16.912-16.914V33.952
		C126.414,24.614,118.842,17.042,109.502,17.042z"/>
	<linearGradient id="SVGID_1_" gradientUnits="userSpaceOnUse" x1="63.9351" y1="119.1318" x2="63.9351" y2="52.6315">
		<stop  offset="0.0934" style="stop-color:#D1D1D1"/>
		<stop  offset="0.431" style="stop-color:#D9D9D9"/>
		<stop  offset="0.9519" style="stop-color:#EFEFEF"/>
		<stop  offset="0.9725" style="stop-color:#F0F0F0"/>
	</linearGradient>
	<path fill="url(#SVGID_1_)" d="M38.496,82.521c-12.658,0-24.773-1.07-35.959-3.021v22.105c0,9.189,7.447,16.639,16.637,16.639
		h89.521c9.188,0,16.637-7.449,16.637-16.639v-41.51C107.314,73.557,75.166,82.521,38.496,82.521z"/>
	<linearGradient id="SVGID_2_" gradientUnits="userSpaceOnUse" x1="64.1587" y1="17.3979" x2="64.1587" y2="49.2945">
		<stop  offset="0" style="stop-color:#FF9D00"/>
		<stop  offset="1" style="stop-color:#FF1F00"/>
	</linearGradient>
	<path fill="url(#SVGID_2_)" d="M125.838,45.714V34.536c0-9.229-7.482-16.712-16.713-16.712h-89.93
		c-9.232,0-16.715,7.483-16.715,16.713v11.178H125.838z"/>
	<path opacity="0.5" fill="#FFFFFF" d="M109.102,17.824h-89.91c-9.23,0-16.711,7.481-16.711,16.707v4.94
		c0-9.227,7.48-16.708,16.711-16.708h89.91c9.227,0,16.709,7.481,16.709,16.708v-4.94C125.811,25.305,118.328,17.824,109.102,17.824
		z"/>
	<g>
		<g>
			<path fill="#C6C5C5" stroke="#FFFFFF" d="M86.006,60.863c0,0.896-0.729,1.621-1.625,1.621h-9.213
				c-0.896,0-1.623-0.727-1.623-1.621v-9.216c0-0.896,0.727-1.622,1.623-1.622h9.213c0.896,0,1.625,0.727,1.625,1.622V60.863z"/>
			<path fill="#969696" stroke="#FFFFFF" d="M101.781,60.863c0,0.896-0.727,1.621-1.623,1.621h-9.215
				c-0.896,0-1.623-0.725-1.623-1.621v-9.216c0-0.896,0.727-1.622,1.623-1.622h9.215c0.896,0,1.623,0.727,1.623,1.622V60.863
				L101.781,60.863z"/>
			<path fill="#969696" stroke="#FFFFFF" d="M117.557,60.863c0,0.896-0.727,1.621-1.623,1.621h-9.215
				c-0.896,0-1.623-0.725-1.623-1.621v-9.216c0-0.896,0.729-1.622,1.623-1.622h9.215c0.896,0,1.623,0.727,1.623,1.622V60.863
				L117.557,60.863z"/>
		</g>
		<g>
			<linearGradient id="SVGID_3_" gradientUnits="userSpaceOnUse" x1="32.4492" y1="65.5293" x2="32.4492" y2="77.9883">
				<stop  offset="0" style="stop-color:#FF9D00"/>
				<stop  offset="1" style="stop-color:#FF1F00"/>
			</linearGradient>
			<path fill="url(#SVGID_3_)" stroke="#FFFFFF" d="M38.68,76.367c0,0.895-0.729,1.621-1.623,1.621H27.84
				c-0.895,0-1.621-0.729-1.621-1.621v-9.215c0-0.898,0.727-1.623,1.621-1.623h9.217c0.895,0,1.623,0.725,1.623,1.623V76.367z"/>
			<path fill="#C6C5C5" stroke="#FFFFFF" d="M54.453,76.367c0,0.895-0.727,1.621-1.623,1.621h-9.215
				c-0.895,0-1.621-0.729-1.621-1.621v-9.215c0-0.898,0.727-1.623,1.621-1.623h9.215c0.896,0,1.623,0.725,1.623,1.623V76.367z"/>
			<path fill="#C6C5C5" stroke="#FFFFFF" d="M70.23,76.367c0,0.896-0.729,1.621-1.623,1.621h-9.217
				c-0.896,0-1.621-0.729-1.621-1.621v-9.215c0-0.898,0.727-1.623,1.621-1.623h9.217c0.895,0,1.623,0.725,1.623,1.623V76.367z"/>
			<path fill="#C6C5C5" stroke="#FFFFFF" d="M86.006,76.367c0,0.896-0.729,1.621-1.625,1.621h-9.213
				c-0.896,0-1.623-0.727-1.623-1.621v-9.215c0-0.898,0.727-1.623,1.623-1.623h9.213c0.896,0,1.625,0.725,1.625,1.623V76.367z"/>
			<path fill="#C6C5C5" stroke="#FFFFFF" d="M22.902,76.367c0,0.895-0.727,1.621-1.621,1.621h-9.215
				c-0.896,0-1.623-0.729-1.623-1.621V67.15c0-0.896,0.727-1.621,1.623-1.621h9.215c0.895,0,1.621,0.725,1.621,1.623V76.367z"/>
			<path fill="#969696" stroke="#FFFFFF" d="M101.781,76.367c0,0.896-0.727,1.621-1.623,1.621h-9.215
				c-0.896,0-1.623-0.727-1.623-1.621v-9.215c0-0.898,0.727-1.623,1.623-1.623h9.215c0.896,0,1.623,0.725,1.623,1.623V76.367
				L101.781,76.367z"/>
			<path fill="#969696" stroke="#FFFFFF" d="M117.557,76.367c0,0.896-0.727,1.621-1.623,1.621h-9.215
				c-0.896,0-1.623-0.727-1.623-1.621v-9.215c0-0.898,0.729-1.623,1.623-1.623h9.215c0.896,0,1.623,0.725,1.623,1.623V76.367
				L117.557,76.367z"/>
		</g>
		<g>
			<path fill="#C6C5C5" stroke="#FFFFFF" d="M38.68,91.869c0,0.896-0.729,1.623-1.623,1.623H27.84c-0.895,0-1.621-0.729-1.621-1.623
				v-9.215c0-0.895,0.727-1.623,1.621-1.623h9.217c0.895,0,1.623,0.729,1.623,1.623V91.869z"/>
			<linearGradient id="SVGID_4_" gradientUnits="userSpaceOnUse" x1="48.2236" y1="81.0312" x2="48.2236" y2="93.4922">
				<stop  offset="0" style="stop-color:#FF9D00"/>
				<stop  offset="1" style="stop-color:#FF1F00"/>
			</linearGradient>
			<path fill="url(#SVGID_4_)" stroke="#FFFFFF" d="M54.453,91.869c0,0.896-0.727,1.623-1.623,1.623h-9.215
				c-0.895,0-1.621-0.729-1.621-1.623v-9.215c0-0.895,0.727-1.623,1.621-1.623h9.215c0.896,0,1.623,0.729,1.623,1.623V91.869z"/>
			<path fill="#C6C5C5" stroke="#FFFFFF" d="M70.23,91.869c0,0.896-0.729,1.623-1.623,1.623h-9.217
				c-0.896,0-1.621-0.729-1.621-1.623v-9.215c0-0.895,0.727-1.623,1.621-1.623h9.217c0.895,0,1.623,0.729,1.623,1.623V91.869z"/>
			<path fill="#C6C5C5" stroke="#FFFFFF" d="M86.006,91.869c0,0.896-0.729,1.623-1.625,1.623h-9.213
				c-0.896,0-1.623-0.729-1.623-1.623v-9.215c0-0.895,0.727-1.623,1.623-1.623l9.213,0.002c0.896,0,1.625,0.727,1.625,1.621V91.869z
				"/>
			<path fill="#C6C5C5" stroke="#FFFFFF" d="M22.902,91.869c0,0.896-0.727,1.623-1.621,1.623h-9.215
				c-0.896,0-1.623-0.729-1.623-1.623v-9.215c0-0.895,0.727-1.623,1.623-1.623h9.215c0.895,0,1.621,0.729,1.621,1.623V91.869z"/>
			<path fill="#969696" stroke="#FFFFFF" d="M101.781,91.869c0,0.896-0.727,1.623-1.623,1.623h-9.215
				c-0.896,0-1.623-0.729-1.623-1.623v-9.215c0-0.895,0.727-1.621,1.623-1.621h9.215c0.896,0,1.623,0.727,1.623,1.621V91.869
				L101.781,91.869z"/>
			<path fill="#969696" stroke="#FFFFFF" d="M117.557,91.869c0,0.896-0.727,1.623-1.623,1.623h-9.215
				c-0.896,0-1.623-0.729-1.623-1.623v-9.215c0-0.895,0.729-1.621,1.623-1.621h9.215c0.896,0,1.623,0.727,1.623,1.621V91.869
				L117.557,91.869z"/>
		</g>
		<g>
			<path fill="#C6C5C5" stroke="#FFFFFF" d="M38.68,107.373c0,0.896-0.729,1.623-1.623,1.623H27.84
				c-0.895,0-1.621-0.727-1.621-1.623v-9.215c0-0.895,0.727-1.623,1.621-1.623h9.217c0.895,0,1.623,0.729,1.623,1.623V107.373z"/>
			<path fill="#C6C5C5" stroke="#FFFFFF" d="M54.453,107.373c0,0.896-0.727,1.623-1.623,1.623h-9.215
				c-0.895,0-1.621-0.727-1.621-1.623v-9.215c0-0.895,0.727-1.623,1.621-1.623h9.215c0.896,0,1.623,0.729,1.623,1.623V107.373z"/>
			<linearGradient id="SVGID_5_" gradientUnits="userSpaceOnUse" x1="63.9995" y1="96.5352" x2="63.9995" y2="108.9961">
				<stop  offset="0" style="stop-color:#FF9D00"/>
				<stop  offset="1" style="stop-color:#FF1F00"/>
			</linearGradient>
			<path fill="url(#SVGID_5_)" stroke="#FFFFFF" d="M70.23,107.373c0,0.896-0.729,1.623-1.623,1.623h-9.217
				c-0.896,0-1.621-0.727-1.621-1.623v-9.215c0-0.895,0.727-1.623,1.621-1.623l9.217,0.002c0.895,0,1.623,0.727,1.623,1.621V107.373
				z"/>
			<linearGradient id="SVGID_6_" gradientUnits="userSpaceOnUse" x1="79.7754" y1="96.5371" x2="79.7754" y2="108.9961">
				<stop  offset="0" style="stop-color:#FF9D00"/>
				<stop  offset="1" style="stop-color:#FF1F00"/>
			</linearGradient>
			<path fill="url(#SVGID_6_)" stroke="#FFFFFF" d="M86.006,107.373c0,0.896-0.729,1.623-1.625,1.623h-9.213
				c-0.896,0-1.623-0.727-1.623-1.623v-9.215c0-0.895,0.727-1.621,1.623-1.621h9.213c0.896,0,1.625,0.727,1.625,1.621V107.373z"/>
			<path fill="#C6C5C5" stroke="#FFFFFF" d="M22.902,107.373c0,0.896-0.727,1.623-1.621,1.623h-9.215
				c-0.896-0.002-1.623-0.727-1.623-1.623v-9.215c0-0.895,0.727-1.623,1.623-1.623h9.215c0.895,0,1.621,0.729,1.621,1.623V107.373z"
				/>
			<path fill="#969696" stroke="#FFFFFF" d="M101.781,107.373c0,0.896-0.727,1.623-1.623,1.623h-9.215
				c-0.896,0-1.623-0.727-1.623-1.623v-9.215c0-0.895,0.727-1.621,1.623-1.621h9.215c0.896,0,1.623,0.727,1.623,1.621V107.373
				L101.781,107.373z"/>
			<path fill="#969696" stroke="#FFFFFF" d="M117.557,107.373c0,0.896-0.727,1.623-1.623,1.623h-9.215
				c-0.896,0-1.623-0.727-1.623-1.623v-9.215c0-0.895,0.729-1.621,1.623-1.621h9.215c0.896,0,1.623,0.727,1.623,1.621V107.373
				L117.557,107.373z"/>
		</g>
	</g>
</g>
</svg>
