<?xml version="1.0" encoding="utf-8"?>
<!-- Generator: Adobe Illustrator 13.0.0, SVG Export Plug-In . SVG Version: 6.00 Build 14948)  -->
<!DOCTYPE svg PUBLIC "-//W3C//DTD SVG 1.1//EN" "http://www.w3.org/Graphics/SVG/1.1/DTD/svg11.dtd">
<svg version="1.1" id="Layer_1" xmlns="http://www.w3.org/2000/svg" xmlns:xlink="http://www.w3.org/1999/xlink" x="0px" y="0px"
	 width="128px" height="128px" viewBox="0 0 128 128" enable-background="new 0 0 128 128" xml:space="preserve">
<g>
	<g>
		<path fill="#F2F2F2" stroke="#B3B3B3" stroke-width="2" d="M109.502,16.906H18.5c-9.342,0-16.914,7.572-16.914,16.91v67.379
			c0,9.342,7.572,16.914,16.914,16.914h91.002c9.34,0,16.912-7.572,16.912-16.914V33.816
			C126.414,24.478,118.842,16.906,109.502,16.906z"/>
		<linearGradient id="SVGID_1_" gradientUnits="userSpaceOnUse" x1="63.9351" y1="118.9971" x2="63.9351" y2="52.4957">
			<stop  offset="0.0934" style="stop-color:#D1D1D1"/>
			<stop  offset="0.431" style="stop-color:#D9D9D9"/>
			<stop  offset="0.9519" style="stop-color:#EFEFEF"/>
			<stop  offset="0.9725" style="stop-color:#F0F0F0"/>
		</linearGradient>
		<path fill="url(#SVGID_1_)" d="M38.496,82.387c-12.658,0-24.773-1.07-35.959-3.023v22.107c0,9.189,7.447,16.639,16.637,16.639
			h89.521c9.188,0,16.637-7.449,16.637-16.639V59.959C107.314,73.42,75.166,82.387,38.496,82.387z"/>
		<path fill="#B3B3B3" d="M108.934,115.092l-89.744,0.002c-9.211,0-16.678-7.469-16.678-16.682v3.289
			c0,9.213,7.467,16.68,16.678,16.68h89.744c9.209,0,16.676-7.467,16.676-16.68v-3.289
			C125.609,107.625,118.143,115.092,108.934,115.092z"/>
		<path fill="#FFFFFF" d="M105.5,21.43H21.315c-8.643,0-15.647,7.005-15.647,15.643v4.626c0-8.64,7.005-15.645,15.647-15.645H105.5
			c8.64,0,15.646,7.005,15.646,15.645v-4.626C121.146,28.435,114.14,21.43,105.5,21.43z"/>
	</g>
	<g>
		
			<linearGradient id="SVGID_2_" gradientUnits="userSpaceOnUse" x1="-298.2051" y1="913.249" x2="-399.1256" y2="842.5838" gradientTransform="matrix(1 0 0 1 412.6201 -813.9912)">
			<stop  offset="0" style="stop-color:#FF1F00"/>
			<stop  offset="1" style="stop-color:#FF9D00"/>
		</linearGradient>
		<path fill="url(#SVGID_2_)" d="M4.017,42.126c1.354,0,14.276-1.973,17.729-1.973c3.449,0,18.113-0.246,18.113-0.246
			s13.758-2.711,19.225-2.711s13.686,4.185,25.023,4.185c11.336,0,22.543,2.718,25.254,2.718c2.713,0,13.953-3.205,13.953-3.205
			v45.655H4.017V42.126z"/>
		
			<linearGradient id="SVGID_3_" gradientUnits="userSpaceOnUse" x1="-390.4941" y1="939.1094" x2="-306.7456" y2="880.4681" gradientTransform="matrix(1 0 0 1 412.6201 -813.9912)">
			<stop  offset="0" style="stop-color:#000000"/>
			<stop  offset="0.8462" style="stop-color:#EAEAEA"/>
			<stop  offset="0.9121" style="stop-color:#F2F2F2"/>
			<stop  offset="1" style="stop-color:#D1D1D1"/>
		</linearGradient>
		<path fill="url(#SVGID_3_)" stroke="#000000" stroke-width="0.5" d="M124.202,98.334c0,1.062-0.864,1.928-1.93,1.928H5.726
			c-1.064,0-1.929-0.863-1.929-1.928v-5.072c0-1.066,0.863-1.93,1.929-1.93h116.549c1.062,0,1.929,0.861,1.929,1.93L124.202,98.334
			L124.202,98.334z"/>
		<line fill="none" stroke="#000000" x1="27.953" y1="86.547" x2="27.953" y2="34.601"/>
		<line fill="none" stroke="#000000" x1="51.892" y1="86.547" x2="51.892" y2="34.601"/>
		<line fill="none" stroke="#000000" x1="75.827" y1="86.547" x2="75.827" y2="34.601"/>
		<line fill="none" stroke="#000000" x1="99.765" y1="86.547" x2="99.765" y2="34.601"/>
	</g>
</g>
</svg>
