<?xml version="1.0" encoding="utf-8"?>
<!-- Generator: Adobe Illustrator 13.0.0, SVG Export Plug-In . SVG Version: 6.00 Build 14948)  -->
<!DOCTYPE svg PUBLIC "-//W3C//DTD SVG 1.1//EN" "http://www.w3.org/Graphics/SVG/1.1/DTD/svg11.dtd">
<svg version="1.1" id="Layer_1" xmlns="http://www.w3.org/2000/svg" xmlns:xlink="http://www.w3.org/1999/xlink" x="0px" y="0px"
	 width="128px" height="128px" viewBox="0 0 128 128" enable-background="new 0 0 128 128" xml:space="preserve">
<g>
	<g>
		
			<radialGradient id="SVGID_1_" cx="63.9028" cy="64.001" r="53.1356" gradientTransform="matrix(1 0 0 1 0 -9.765625e-04)" gradientUnits="userSpaceOnUse">
			<stop  offset="0" style="stop-color:#FAFAFA"/>
			<stop  offset="0.3109" style="stop-color:#F4F4F4"/>
			<stop  offset="0.7262" style="stop-color:#E3E3E3"/>
			<stop  offset="1" style="stop-color:#D4D4D4"/>
		</radialGradient>
		<path fill="url(#SVGID_1_)" stroke="#B3B3B3" stroke-width="2" d="M108.586,22.206v83.586c0,10.285-8.344,18.625-18.637,18.625
			H37.856c-10.295,0-18.637-8.34-18.637-18.625V22.206c0-10.285,8.342-18.623,18.637-18.623h52.093
			C100.242,3.583,108.586,11.921,108.586,22.206L108.586,22.206z"/>
		<path fill="#B3B3B3" d="M90.145,122.091H38.051c-10.295,0-18.637-8.34-18.637-18.625v2.326c0,10.285,8.342,18.625,18.637,18.625
			h52.094c10.293,0,18.637-8.34,18.637-18.625v-2.326C108.781,113.751,100.438,122.091,90.145,122.091z"/>
		<path fill="#FFFFFF" d="M30.386,11.569c2.079-1.734,4.431-2.905,7.665-2.905h52.094c3.234,0,5.586,1.171,7.666,2.905h2.629
			c-2.621-2.646-5.805-4.238-10.295-4.238H38.051c-4.49,0-7.672,1.593-10.294,4.238H30.386z"/>
	</g>
	<g>
		<polygon fill="#666666" points="32.978,93.755 89.837,93.755 89.837,98.31 32.978,98.31 32.978,93.755 		"/>
		<polygon fill="#666666" points="32.978,106.869 83.483,106.869 83.483,111.424 32.978,111.424 32.978,106.869 		"/>
		<polygon fill="#666666" points="32.978,80.64 78.274,80.64 78.274,85.194 32.978,85.194 32.978,80.64 		"/>
		<polygon fill="#666666" points="32.978,67.524 94.829,67.524 94.829,72.079 32.978,72.079 32.978,67.524 		"/>
		<polygon fill="#666666" points="32.978,54.41 78.274,54.41 78.274,58.965 32.978,58.965 32.978,54.41 		"/>
		<g>
			<polygon fill="#666666" points="32.978,41.294 94.829,41.294 94.829,45.85 32.978,45.85 32.978,41.294 			"/>
		</g>
		<g>
			<polygon fill="#666666" points="32.978,28.18 78.274,28.18 78.274,32.734 32.978,32.734 32.978,28.18 			"/>
		</g>
	</g>
	<g>
		
			<linearGradient id="SVGID_2_" gradientUnits="userSpaceOnUse" x1="2826.2764" y1="6828.2939" x2="2826.2764" y2="6780.9727" gradientTransform="matrix(-1 0 0 -1 2912.6152 6900.8711)">
			<stop  offset="0" style="stop-color:#99DBF6"/>
			<stop  offset="1" style="stop-color:#00B2DE"/>
		</linearGradient>
		<path fill="url(#SVGID_2_)" stroke="#00B1DE" stroke-miterlimit="3.8637" d="M69.179,87.27c-1.133,1.189-1.725,2.559-1.725,4.226
			c0,1.604,0.596,3.034,1.725,4.224c1.189,1.129,2.617,1.725,4.221,1.725c1.666,0.003,3.094-0.595,4.225-1.725l2.736-2.797
			l0.002,21.028c0.059,1.664,0.594,3.092,1.783,4.224c1.131,1.19,2.559,1.725,4.166,1.725c1.666,0,3.09-0.534,4.221-1.725
			c1.189-1.13,1.787-2.558,1.787-4.222l-0.002-21.028l2.734,2.797c1.189,1.13,2.557,1.727,4.225,1.727
			c1.607,0,3.033-0.597,4.221-1.726c1.131-1.189,1.727-2.616,1.727-4.224c0-1.666-0.596-3.035-1.727-4.226L90.53,74.361
			c-1.133-1.189-2.559-1.784-4.223-1.784c-1.607,0-3.031,0.593-4.166,1.782L69.179,87.27z"/>
		<g>
			<path fill="#00A9DE" d="M90.532,117.387c-1.131,1.191-2.555,1.728-4.221,1.728c-1.607,0-3.035-0.536-4.166-1.728
				c-1.152-1.096-1.688-2.472-1.771-4.072h-0.012v0.636c0.059,1.664,0.594,3.092,1.783,4.224c1.131,1.19,2.559,1.725,4.166,1.725
				c1.666,0,3.09-0.534,4.221-1.725c1.189-1.13,1.787-2.558,1.787-4.222v-0.785C92.317,114.831,91.722,116.258,90.532,117.387z"/>
		</g>
		<g>
			<path opacity="0.8" fill="#FFFFFF" d="M70.366,88.423l12.066-12.017c1.055-1.106,2.383-1.657,3.875-1.657
				c1.551,0,2.879,0.554,3.932,1.66l12.07,12.019c0.93,0.976,1.316,0.45,0-1.057l-12.07-12.019c-1.053-1.107-2.381-1.66-3.932-1.66
				c-1.492,0-2.82,0.552-3.875,1.658L70.366,87.367C68.874,88.848,69.437,89.4,70.366,88.423z"/>
		</g>
	</g>
</g>
</svg>
