<?xml version="1.0" encoding="utf-8"?>
<!-- Generator: Adobe Illustrator 13.0.0, SVG Export Plug-In . SVG Version: 6.00 Build 14948)  -->
<!DOCTYPE svg PUBLIC "-//W3C//DTD SVG 1.1//EN" "http://www.w3.org/Graphics/SVG/1.1/DTD/svg11.dtd">
<svg version="1.1" id="Layer_1" xmlns="http://www.w3.org/2000/svg" xmlns:xlink="http://www.w3.org/1999/xlink" x="0px" y="0px"
	 width="128px" height="128px" viewBox="0 0 128 128" enable-background="new 0 0 128 128" xml:space="preserve">
<g>
	<g>
		
			<radialGradient id="SVGID_1_" cx="63.9028" cy="64.0703" r="53.1356" gradientTransform="matrix(1 0 0 1 0 -9.765625e-04)" gradientUnits="userSpaceOnUse">
			<stop  offset="0" style="stop-color:#FAFAFA"/>
			<stop  offset="0.3109" style="stop-color:#F4F4F4"/>
			<stop  offset="0.7262" style="stop-color:#E3E3E3"/>
			<stop  offset="1" style="stop-color:#D4D4D4"/>
		</radialGradient>
		<path fill="url(#SVGID_1_)" stroke="#B3B3B3" stroke-width="2" d="M108.586,22.275v83.586c0,10.285-8.344,18.625-18.637,18.625
			H37.856c-10.295,0-18.637-8.34-18.637-18.625V22.275c0-10.285,8.342-18.623,18.637-18.623h52.093
			C100.242,3.652,108.586,11.99,108.586,22.275L108.586,22.275z"/>
		<path fill="#B3B3B3" d="M90.145,122.16H38.051c-10.295,0-18.637-8.34-18.637-18.625v2.326c0,10.285,8.342,18.625,18.637,18.625
			h52.094c10.293,0,18.637-8.34,18.637-18.625v-2.326C108.781,113.82,100.438,122.16,90.145,122.16z"/>
		<path fill="#FFFFFF" d="M30.386,11.639c2.079-1.734,4.431-2.905,7.665-2.905h52.094c3.234,0,5.586,1.171,7.666,2.905h2.629
			C97.818,8.993,94.635,7.4,90.145,7.4H38.051c-4.49,0-7.672,1.593-10.294,4.238H30.386z"/>
	</g>
	<g>
		<polygon fill="#666666" points="32.978,93.824 89.837,93.824 89.837,98.379 32.978,98.379 32.978,93.824 		"/>
		<polygon fill="#666666" points="32.978,106.938 83.483,106.938 83.483,111.493 32.978,111.493 32.978,106.938 		"/>
		<polygon fill="#666666" points="32.978,80.709 78.274,80.709 78.274,85.264 32.978,85.264 32.978,80.709 		"/>
		<polygon fill="#666666" points="32.978,67.594 94.829,67.594 94.829,72.148 32.978,72.148 32.978,67.594 		"/>
		<polygon fill="#666666" points="32.978,54.479 78.274,54.479 78.274,59.034 32.978,59.034 32.978,54.479 		"/>
		<g>
			<polygon fill="#666666" points="32.978,41.363 94.829,41.363 94.829,45.919 32.978,45.919 32.978,41.363 			"/>
		</g>
		<g>
			<polygon fill="#666666" points="32.978,28.249 78.274,28.249 78.274,32.804 32.978,32.804 32.978,28.249 			"/>
		</g>
	</g>
	<g>
		
			<linearGradient id="SVGID_2_" gradientUnits="userSpaceOnUse" x1="-2909.4487" y1="-846.5371" x2="-2909.4487" y2="-799.2158" gradientTransform="matrix(1 0 0 1 2995.7871 919.1836)">
			<stop  offset="0" style="stop-color:#99DBF6"/>
			<stop  offset="1" style="stop-color:#00B2DE"/>
		</linearGradient>
		<path fill="url(#SVGID_2_)" stroke="#00B1DE" stroke-miterlimit="3.8637" d="M103.499,105.275
			c1.133-1.189,1.725-2.559,1.725-4.226c0-1.604-0.596-3.034-1.725-4.224c-1.189-1.129-2.617-1.725-4.221-1.725
			c-1.666-0.003-3.094,0.595-4.225,1.725l-2.736,2.797l-0.002-21.028c-0.059-1.664-0.594-3.092-1.783-4.224
			c-1.131-1.19-2.559-1.725-4.166-1.725c-1.666,0-3.09,0.534-4.221,1.725c-1.189,1.13-1.787,2.558-1.787,4.222l0.002,21.028
			l-2.734-2.797c-1.189-1.13-2.557-1.727-4.225-1.727c-1.607,0-3.033,0.597-4.221,1.726c-1.131,1.189-1.727,2.616-1.727,4.224
			c0,1.666,0.596,3.035,1.727,4.226l12.967,12.911c1.133,1.189,2.559,1.784,4.223,1.784c1.607,0,3.031-0.593,4.166-1.782
			L103.499,105.275z"/>
		<g opacity="0.8">
			<path fill="#FFFFFF" d="M82.839,76.53c0.931-0.981,2.104-1.423,3.477-1.423c1.324,0,2.5,0.442,3.432,1.423
				c0.949,0.903,1.391,2.037,1.459,3.355h0.01v-0.524c-0.048-1.37-0.488-2.547-1.469-3.479c-0.932-0.98-2.107-1.42-3.432-1.42
				c-1.373,0-2.546,0.439-3.477,1.42c-0.98,0.932-1.473,2.107-1.473,3.479v0.646C81.368,78.636,81.858,77.46,82.839,76.53z"/>
		</g>
	</g>
</g>
</svg>
