<?xml version="1.0" encoding="utf-8"?>
<!-- Generator: Adobe Illustrator 13.0.0, SVG Export Plug-In . SVG Version: 6.00 Build 14948)  -->
<!DOCTYPE svg PUBLIC "-//W3C//DTD SVG 1.1//EN" "http://www.w3.org/Graphics/SVG/1.1/DTD/svg11.dtd">
<svg version="1.1" id="Layer_1" xmlns="http://www.w3.org/2000/svg" xmlns:xlink="http://www.w3.org/1999/xlink" x="0px" y="0px"
	 width="128px" height="128px" viewBox="0 0 128 128" enable-background="new 0 0 128 128" xml:space="preserve">
<g>
	<g>
		<path fill="#99DBF6" d="M31.34,33.706l0.025-0.004l0.072-0.084l-0.031,0.012C31.39,33.655,31.364,33.683,31.34,33.706
			L31.34,33.706z"/>
		<path fill="#99DBF6" d="M31.368,33.602c0.039-0.041,0.053-0.056,0.062-0.071l-0.028,0.002l-0.034,0.045l-0.006-0.008l0.045-0.052
			l-0.031,0.011c0,0-0.097,0.1-0.125,0.139h0.011l0.056-0.055h0.015c-0.009,0.014-0.058,0.07-0.056,0.083
			C31.307,33.663,31.338,33.63,31.368,33.602L31.368,33.602z"/>
		<path fill="#99DBF6" d="M30.611,33.878c0,0-0.028-0.005-0.228,0.18l-0.021,0.008c-0.021,0.012-0.167,0.18-0.167,0.204
			c0,0,0.081-0.054,0.184-0.159c0.052,0,0.134-0.049,0.157-0.063c0.027-0.015,0.058-0.038,0.08-0.062
			c0.039-0.035,0.156-0.17,0.143-0.191h-0.002C30.752,33.794,30.64,33.856,30.611,33.878L30.611,33.878z"/>
		<path fill="#99DBF6" d="M29.888,34.526c0,0,0.039-0.032,0.064-0.062c0.028-0.031,0.032-0.041,0.032-0.041l0,0
			C29.985,34.423,29.888,34.505,29.888,34.526L29.888,34.526z"/>
		<polygon fill="#99DBF6" points="29.95,34.396 29.844,34.505 29.877,34.485 29.961,34.396 		"/>
		<path fill="#99DBF6" d="M29.75,34.537c-0.003-0.028-0.055,0.026-0.081,0.051l-0.092,0.097c-0.008,0.02-0.02,0.036-0.033,0.047
			c-0.141,0.15-0.137,0.156-0.137,0.161c0,0,0.012,0,0.05-0.032l0.058-0.058l0.068-0.058l0.047-0.047h0.014l0.117-0.135h-0.008
			c-0.014,0.017-0.034,0.033-0.045,0.047c0.072-0.09,0.072-0.1,0.072-0.1c-0.016,0-0.02,0.018-0.02,0.018L29.75,34.537z"/>
		<path fill="#99DBF6" d="M29.374,34.893c-0.02,0.011-0.045,0.022-0.062,0.036l-0.097,0.121c0.054-0.035,0.054-0.035,0.084-0.063
			c0.036-0.028,0.108-0.126,0.108-0.126S29.395,34.872,29.374,34.893L29.374,34.893z"/>
		<path fill="#99DBF6" d="M29.208,35.033l0.012-0.011c0,0,0.03-0.031,0.102-0.124c0.026-0.032,0.054-0.062,0.081-0.094h-0.017
			c-0.022,0.013-0.114,0.114-0.169,0.171c-0.11,0.094-0.11,0.094-0.222,0.221c0.013-0.008,0.028-0.018,0.035-0.03
			c0.022-0.024,0.096-0.088,0.194-0.169L29.208,35.033L29.208,35.033z"/>
		<path fill="#99DBF6" d="M28.768,35.382c0,0,0.008,0,0.055-0.061c0.018-0.021,0.032-0.035,0.05-0.055
			c-0.028,0.016-0.104,0.102-0.104,0.102V35.382z"/>
		<path fill="#99DBF6" d="M28.284,35.806c-0.038,0.041-0.072,0.086-0.111,0.125c-0.002,0.006-0.002,0.006-0.002,0.006
			s0.019-0.015,0.052-0.054c0.07-0.079,0.073-0.083,0.076-0.089v-0.003L28.284,35.806L28.284,35.806z"/>
		<path fill="#A4D9E6" d="M19.915,59.758l-0.02,0.015c-0.008,0.021-0.055,0.159-0.058,0.217c0,0.034,0.013,0.057,0.047,0.045
			c0.006,0.041,0.009,0.062,0.009,0.062c0.016-0.004,0.028-0.021,0.039-0.145l0.003-0.002c0-0.022,0.016-0.037,0.022-0.055
			C19.97,59.837,19.937,59.758,19.915,59.758L19.915,59.758z"/>
		<path fill="#A4D9E6" d="M20.324,60.362c-0.008-0.002-0.026-0.012-0.011-0.124c-0.019-0.009-0.028-0.013-0.028-0.013
			c-0.021,0.004-0.048,0.013-0.054,0.106c0,0.043,0,0.069,0,0.069c0.009,0.029,0.02,0.057,0.023,0.09
			c0,0.024-0.006,0.053-0.004,0.08c0,0,0.006,0.021,0.016,0.028c0.013,0.019,0.063,0.04,0.086-0.092
			C20.368,60.384,20.324,60.362,20.324,60.362L20.324,60.362z"/>
		<path fill="#A4D9E6" d="M20.625,60.565l-0.015-0.005c-0.017,0-0.029,0.005-0.029,0.005c-0.024,0-0.032,0-0.048,0
			s-0.039,0.006-0.045,0.04c-0.007,0.03,0.003,0.106,0.011,0.129c0.026,0.049,0.06-0.032,0.064-0.047
			c0.023-0.002,0.05-0.009,0.07-0.015l0.003-0.021C20.648,60.581,20.633,60.567,20.625,60.565L20.625,60.565z"/>
		<path fill="#A4D9E6" d="M20.75,61.126c0,0,0.075,0.005,0.09-0.12c0.012-0.104-0.036-0.133-0.053-0.141
			c-0.011-0.077-0.025-0.097-0.058-0.097c-0.012,0.002-0.041,0.011-0.073,0.05c-0.009,0.019,0,0.032,0,0.032
			c0.003,0.129,0.032,0.141,0.064,0.112C20.707,61.116,20.73,61.141,20.75,61.126L20.75,61.126z"/>
		<path fill="#A4D9E6" d="M21.112,61.85c-0.01-0.034-0.006-0.075-0.012-0.108c-0.006-0.028-0.018-0.062-0.029-0.086
			c-0.019-0.055-0.059-0.148-0.145-0.176c0.014-0.047,0.014-0.075,0-0.1c-0.021,0.019-0.063,0.063-0.045,0.335
			c-0.064,0.054-0.083,0.163-0.09,0.229c-0.006,0.054,0.018,0.133,0.038,0.169l0.009,0.014c0.007,0.059-0.006,0.135-0.004,0.189
			c0.008,0.245,0.068,0.262,0.068,0.262l0.006-0.006c0,0,0.007-0.025,0.01-0.035c0.002-0.037,0.008-0.11,0.058-0.198
			c0.039-0.063,0.122-0.09,0.156-0.157l0.039-0.127c0.017-0.073-0.019-0.152-0.058-0.2L21.112,61.85L21.112,61.85z"/>
		<path fill="#A4D9E6" d="M25.624,90.265l0.176,0.244c-0.004-0.011-0.039-0.066-0.073-0.111c-0.056-0.084-0.093-0.126-0.093-0.126
			L25.624,90.265z"/>
		<path fill="#A4D9E6" d="M25.838,90.524v0.008c0.092,0.133,0.129,0.18,0.142,0.184c0,0,0-0.006-0.075-0.115
			C25.878,90.565,25.854,90.528,25.838,90.524L25.838,90.524z"/>
		<path fill="#99DBF6" d="M32.419,92.669h-0.005l0.008,0.07c0,0,0.011,0.02,0.032,0.043c0.026,0.029,0.116,0.107,0.165,0.121
			c0,0,0.066,0.012,0.03-0.045C32.618,92.808,32.458,92.669,32.419,92.669L32.419,92.669z"/>
		<path fill="none" d="M106.82,61.657c1.721,24.627-16.832,45.984-41.439,47.705c-24.605,1.721-45.945-16.848-47.667-41.471
			c-1.72-24.621,16.831-45.981,41.44-47.699C83.758,18.469,105.096,37.037,106.82,61.657L106.82,61.657z"/>
		
			<linearGradient id="SVGID_1_" gradientUnits="userSpaceOnUse" x1="-150.4561" y1="-675.4053" x2="-223.647" y2="-624.1569" gradientTransform="matrix(1 0 0 -1 246.7271 -588.7695)">
			<stop  offset="0" style="stop-color:#DEDEDE"/>
			<stop  offset="1" style="stop-color:#FEFEFE"/>
		</linearGradient>
		<path fill="url(#SVGID_1_)" stroke="#094763" stroke-miterlimit="3.8637" d="M104.23,57.892
			c1.721,24.626-16.832,45.984-41.44,47.705c-24.604,1.722-45.946-16.846-47.667-41.47c-1.721-24.622,16.829-45.981,41.44-47.7
			C81.168,14.704,102.506,33.272,104.23,57.892L104.23,57.892z"/>
		<g>
			
				<linearGradient id="SVGID_2_" gradientUnits="userSpaceOnUse" x1="-242.7832" y1="-649.9922" x2="-242.7832" y2="-644.0752" gradientTransform="matrix(1 0 0 -1 246.7271 -588.7695)">
				<stop  offset="0" style="stop-color:#32AECE"/>
				<stop  offset="1" style="stop-color:#094E86"/>
			</linearGradient>
			<polygon fill="url(#SVGID_2_)" points="6.604,61.223 0.987,60.929 1.279,55.306 6.902,55.602 			"/>
			
				<linearGradient id="SVGID_3_" gradientUnits="userSpaceOnUse" x1="-239.3252" y1="-633.9834" x2="-239.3252" y2="-626.7686" gradientTransform="matrix(1 0 0 -1 246.7271 -588.7695)">
				<stop  offset="0" style="stop-color:#32AECE"/>
				<stop  offset="1" style="stop-color:#094E86"/>
			</linearGradient>
			<polygon fill="url(#SVGID_3_)" points="9.081,45.214 3.795,43.292 5.717,37.999 11.009,39.927 			"/>
			
				<linearGradient id="SVGID_4_" gradientUnits="userSpaceOnUse" x1="-230.9829" y1="-619.3789" x2="-230.9829" y2="-611.4775" gradientTransform="matrix(1 0 0 -1 246.7271 -588.7695)">
				<stop  offset="0" style="stop-color:#32AECE"/>
				<stop  offset="1" style="stop-color:#094E86"/>
			</linearGradient>
			<polygon fill="url(#SVGID_4_)" points="16.232,30.609 11.795,27.144 15.264,22.708 19.694,26.173 			"/>
			
				<linearGradient id="SVGID_5_" gradientUnits="userSpaceOnUse" x1="-218.5474" y1="-607.873" x2="-218.5474" y2="-600.0283" gradientTransform="matrix(1 0 0 -1 246.7271 -588.7695)">
				<stop  offset="0" style="stop-color:#32AECE"/>
				<stop  offset="1" style="stop-color:#094E86"/>
			</linearGradient>
			<polygon fill="url(#SVGID_5_)" points="27.491,19.104 24.262,14.489 28.873,11.259 32.098,15.874 			"/>
			
				<linearGradient id="SVGID_6_" gradientUnits="userSpaceOnUse" x1="-203.1504" y1="-600.0674" x2="-203.1504" y2="-593.0439" gradientTransform="matrix(1 0 0 -1 246.7271 -588.7695)">
				<stop  offset="0" style="stop-color:#32AECE"/>
				<stop  offset="1" style="stop-color:#094E86"/>
			</linearGradient>
			<polygon fill="url(#SVGID_6_)" points="41.709,11.298 40.064,5.913 45.448,4.274 47.09,9.655 			"/>
			
				<linearGradient id="SVGID_7_" gradientUnits="userSpaceOnUse" x1="-186.3896" y1="-596.9678" x2="-186.3896" y2="-591.335" gradientTransform="matrix(1 0 0 -1 246.7271 -588.7695)">
				<stop  offset="0" style="stop-color:#32AECE"/>
				<stop  offset="1" style="stop-color:#094E86"/>
			</linearGradient>
			<polygon fill="url(#SVGID_7_)" points="57.526,8.198 57.523,2.565 63.153,2.565 63.153,8.198 			"/>
			
				<linearGradient id="SVGID_8_" gradientUnits="userSpaceOnUse" x1="-169.4868" y1="-600.5811" x2="-169.4868" y2="-593.4854" gradientTransform="matrix(1 0 0 -1 246.7271 -588.7695)">
				<stop  offset="0" style="stop-color:#32AECE"/>
				<stop  offset="1" style="stop-color:#094E86"/>
			</linearGradient>
			<polygon fill="url(#SVGID_8_)" points="73.695,10.069 75.434,4.716 80.785,6.454 79.047,11.812 			"/>
			
				<linearGradient id="SVGID_9_" gradientUnits="userSpaceOnUse" x1="-154.2964" y1="-608.8252" x2="-154.2964" y2="-600.9619" gradientTransform="matrix(1 0 0 -1 246.7271 -588.7695)">
				<stop  offset="0" style="stop-color:#32AECE"/>
				<stop  offset="1" style="stop-color:#094E86"/>
			</linearGradient>
			<polygon fill="url(#SVGID_9_)" points="88.5,16.743 91.809,12.192 96.361,15.501 93.051,20.056 			"/>
			
				<linearGradient id="SVGID_10_" gradientUnits="userSpaceOnUse" x1="-142.1753" y1="-620.8896" x2="-142.1753" y2="-613.0264" gradientTransform="matrix(1 0 0 -1 246.7271 -588.7695)">
				<stop  offset="0" style="stop-color:#32AECE"/>
				<stop  offset="1" style="stop-color:#094E86"/>
			</linearGradient>
			<polygon fill="url(#SVGID_10_)" points="100.621,27.567 105.182,24.257 108.482,28.81 103.932,32.12 			"/>
			
				<linearGradient id="SVGID_11_" gradientUnits="userSpaceOnUse" x1="-134.2622" y1="-635.6738" x2="-134.2622" y2="-628.583" gradientTransform="matrix(1 0 0 -1 246.7271 -588.7695)">
				<stop  offset="0" style="stop-color:#32AECE"/>
				<stop  offset="1" style="stop-color:#094E86"/>
			</linearGradient>
			<polygon fill="url(#SVGID_11_)" points="108.918,41.549 114.27,39.813 116.012,45.167 110.658,46.904 			"/>
			
				<linearGradient id="SVGID_12_" gradientUnits="userSpaceOnUse" x1="-131.3491" y1="-651.6768" x2="-131.3491" y2="-645.9521" gradientTransform="matrix(1 0 0 -1 246.7271 -588.7695)">
				<stop  offset="0" style="stop-color:#32AECE"/>
				<stop  offset="1" style="stop-color:#094E86"/>
			</linearGradient>
			<polygon fill="url(#SVGID_12_)" points="112.514,57.28 118.143,57.183 118.242,62.812 112.615,62.907 			"/>
			
				<linearGradient id="SVGID_13_" gradientUnits="userSpaceOnUse" x1="-134.6099" y1="-671.1782" x2="-134.6099" y2="-663.9604" gradientTransform="matrix(1 0 0 -1 246.7271 -588.7695)">
				<stop  offset="0" style="stop-color:#32AECE"/>
				<stop  offset="1" style="stop-color:#094E86"/>
			</linearGradient>
			<polygon fill="url(#SVGID_13_)" points="110.434,75.191 115.723,77.115 113.797,82.409 108.512,80.481 			"/>
			
				<linearGradient id="SVGID_14_" gradientUnits="userSpaceOnUse" x1="-142.9575" y1="-686.4712" x2="-142.9575" y2="-678.5688" gradientTransform="matrix(1 0 0 -1 246.7271 -588.7695)">
				<stop  offset="0" style="stop-color:#32AECE"/>
				<stop  offset="1" style="stop-color:#094E86"/>
			</linearGradient>
			<polygon fill="url(#SVGID_14_)" points="103.285,89.8 107.719,93.268 104.25,97.702 99.82,94.235 			"/>
			
				<linearGradient id="SVGID_15_" gradientUnits="userSpaceOnUse" x1="-155.3901" y1="-697.9146" x2="-155.3901" y2="-690.0747" gradientTransform="matrix(1 0 0 -1 246.7271 -588.7695)">
				<stop  offset="0" style="stop-color:#32AECE"/>
				<stop  offset="1" style="stop-color:#094E86"/>
			</linearGradient>
			<polygon fill="url(#SVGID_15_)" points="92.027,101.306 95.256,105.919 90.648,109.146 87.418,104.538 			"/>
			
				<linearGradient id="SVGID_16_" gradientUnits="userSpaceOnUse" x1="-170.7905" y1="-704.9028" x2="-170.7905" y2="-697.8765" gradientTransform="matrix(1 0 0 -1 246.7271 -588.7695)">
				<stop  offset="0" style="stop-color:#32AECE"/>
				<stop  offset="1" style="stop-color:#094E86"/>
			</linearGradient>
			<polygon fill="url(#SVGID_16_)" points="77.809,109.107 79.449,114.489 74.074,116.134 72.424,110.751 			"/>
			
				<linearGradient id="SVGID_17_" gradientUnits="userSpaceOnUse" x1="-187.5508" y1="-706.6138" x2="-187.5508" y2="-700.9849" gradientTransform="matrix(1 0 0 -1 246.7271 -588.7695)">
				<stop  offset="0" style="stop-color:#32AECE"/>
				<stop  offset="1" style="stop-color:#094E86"/>
			</linearGradient>
			<polygon fill="url(#SVGID_17_)" points="61.992,112.216 61.992,117.845 56.362,117.845 56.362,112.216 			"/>
			
				<linearGradient id="SVGID_18_" gradientUnits="userSpaceOnUse" x1="-204.4526" y1="-704.4614" x2="-204.4526" y2="-697.3696" gradientTransform="matrix(1 0 0 -1 246.7271 -588.7695)">
				<stop  offset="0" style="stop-color:#32AECE"/>
				<stop  offset="1" style="stop-color:#094E86"/>
			</linearGradient>
			<polygon fill="url(#SVGID_18_)" points="45.819,110.339 44.083,115.692 38.731,113.954 40.469,108.601 			"/>
			
				<linearGradient id="SVGID_19_" gradientUnits="userSpaceOnUse" x1="-219.6411" y1="-696.9878" x2="-219.6411" y2="-689.1255" gradientTransform="matrix(1 0 0 -1 246.7271 -588.7695)">
				<stop  offset="0" style="stop-color:#32AECE"/>
				<stop  offset="1" style="stop-color:#094E86"/>
			</linearGradient>
			<polygon fill="url(#SVGID_19_)" points="31.016,103.664 27.709,108.219 23.157,104.909 26.463,100.356 			"/>
			
				<linearGradient id="SVGID_20_" gradientUnits="userSpaceOnUse" x1="-231.7651" y1="-684.9224" x2="-231.7651" y2="-677.0591" gradientTransform="matrix(1 0 0 -1 246.7271 -588.7695)">
				<stop  offset="0" style="stop-color:#32AECE"/>
				<stop  offset="1" style="stop-color:#094E86"/>
			</linearGradient>
			<polygon fill="url(#SVGID_20_)" points="18.889,92.845 14.34,96.153 11.036,91.599 15.583,88.29 			"/>
			
				<linearGradient id="SVGID_21_" gradientUnits="userSpaceOnUse" x1="-239.6753" y1="-669.3667" x2="-239.6753" y2="-662.271" gradientTransform="matrix(1 0 0 -1 246.7271 -588.7695)">
				<stop  offset="0" style="stop-color:#32AECE"/>
				<stop  offset="1" style="stop-color:#094E86"/>
			</linearGradient>
			<polygon fill="url(#SVGID_21_)" points="10.597,78.858 5.246,80.598 3.507,75.242 8.856,73.502 			"/>
		</g>
		<g>
			<g>
				
					<linearGradient id="SVGID_22_" gradientUnits="userSpaceOnUse" x1="-179.3076" y1="-693.0913" x2="-179.3076" y2="-605.5337" gradientTransform="matrix(1 0 0 -1 246.7271 -588.7695)">
					<stop  offset="0" style="stop-color:#32AECE"/>
					<stop  offset="1" style="stop-color:#094E86"/>
				</linearGradient>
				<path id="SVGID_28_" fill="url(#SVGID_22_)" d="M71.969,19.257c-0.373-0.378-0.834-0.288-1.371-0.341
					c-1.357-0.136-2.844-0.715-4.176-0.917c-0.045,0.014-0.111,0.004-0.115,0.057c0.641,0.408,1.34,0.412,2.229,0.518
					C69.703,18.708,70.807,19.433,71.969,19.257z M88.783,35.387c-0.047,0.011-0.07,0.043-0.059,0.112
					c0.277,0.374,0.584,0.818,0.918,1.199c0.299,0.35,0.658,0.98,1.143,0.915C90.467,36.558,89.834,35.513,88.783,35.387z
					 M83.408,34.298c-0.297-0.541-0.453-1.223-0.688-1.832c-0.393,0.082-0.666,0.284-0.967,0.459
					c-0.078,0.551-0.188,1.073-0.457,1.431C81.801,34.839,83.041,35.115,83.408,34.298z M63.164,31.097
					c-0.705-0.09-1.189-0.053-1.775-0.059c-0.114,0.106-0.126,0.331-0.283,0.4c-1.462-0.285-1.855,0.752-2.804,1.145
					c0.08,0.781,0.788,0.927,1.433,1.145c0.188-0.216,0.528-0.27,0.571-0.623c0.023-0.201-0.289-0.359-0.111-0.518
					c0.203,0.39,0.453-0.14,0.741-0.174c0.062,0.467-0.434,0.812-0.402,1.43c-0.452-0.01-0.524,0.352-0.624,0.686
					c0.131,0.266,0.484,0.312,0.797,0.404c-0.263,0.021-0.435,0.135-0.689,0.168c-0.604-0.217-2.064-1.293-2.342-0.4
					c0.013,0.082,0.284-0.053,0.456,0c0.244,0.421,0.466,0.868,0.688,1.315c0.528-0.261,0.922,0.028,1.258,0.114
					c1.05,0.271,1.522-0.406,2.345-0.114c0.059-0.235,0.096-0.528-0.059-0.685c-0.571,0.192-0.647-0.412-0.974-0.459
					c0.235-0.172,0.862,0.234,1.204-0.112c0.146-0.245,0.239-0.627,0.117-0.975c0.219-0.367,0.604-0.573,1.143-0.627
					c0.596-0.575,0.458-1.585,0.75-2.401C64.098,31.052,63.511,30.518,63.164,31.097z M57.617,37.041
					c0.195,0.034,0.175,0.282,0.285,0.4c0.543-0.122,0.687-0.647,1.027-0.968c-0.195-0.108-0.161-0.449-0.402-0.514
					c-0.182,0.312-0.773,0.209-0.97,0.514C57.64,36.684,57.564,36.919,57.617,37.041z M57.617,17.886
					c0.006,0.516,1.452,0.501,1.715,0.056C58.838,17.868,58.126,17.741,57.617,17.886z M65.619,31.841
					c-0.119,0.506-0.557,0.692-0.742,1.143c-0.281-0.099-0.395,0.087-0.625,0.169c0.087,0.182,0.031,0.32-0.062,0.46
					c0.736,0.506,1.707,0.779,2.917,0.799c0.191-0.072,0.219-0.317,0.457-0.34c1.621,0.11,2.234,1.236,3.262,1.944
					c0.295,0.043,0.377-0.122,0.621-0.118c0.105,0.096,0.145,0.242,0.117,0.461c-0.059,0.133-0.383-0.002-0.346,0.227
					c0.117,0.63,1.412,0.08,1.486,0.746c-0.041,0.182-0.217,0.239-0.225,0.459c0.404,1.273,1.385,2.021,2.574,2.578
					c1.033,0.479,1.43,1.258,2.689,1.258c0.564-0.232,1.021-0.582,1.145-1.258c-0.295-1.025-1.229-1.407-1.264-2.691
					c0.18-0.162,0.373-0.314,0.574-0.456c0.031-0.316,0.09-0.601,0.17-0.858c-0.584-1.209,0.443-2.052,0.855-2.806
					c-0.113-0.58-0.506-0.856-0.801-1.203c-0.166-0.192-0.158-0.368-0.344-0.511c-0.09-0.073-0.266-0.071-0.396-0.172
					c-0.584-0.447-0.949-1.229-1.377-1.6c-0.293-0.259-0.803-0.463-1.141-0.746c-0.307-0.258-0.389-0.587-0.75-0.628
					c-0.26-0.067-0.221,0.157-0.461,0.114c-0.396-0.596-0.824-1.15-1.143-1.83c-0.242,0.049-0.268-0.109-0.459-0.113
					c0.053,0.492-1.037,0.281-1.029,0.912c-0.498-0.012-0.857-0.166-1.426-0.112c-0.428,0.715-1.086,1.205-1.998,1.43
					c-0.041,0.228,0.051,0.327,0.055,0.515c-0.143,0.053-0.246,0.133-0.463,0.115c-0.088,0.713-0.986,0.611-1.311,1.084
					c0.051,0.294,0.199,0.488,0.232,0.801C66.148,31.678,66.004,31.878,65.619,31.841z M96.336,40.017
					c-0.363-0.756-0.992-1.338-1.264-2.002c-0.34-0.816-0.246-1.547-0.689-2.174c0.318,0.175,0.484-0.113,0.855-0.058
					c0.184-0.47-0.229-0.901-0.572-1.313c0.033,0.137-0.34,0.08-0.338,0.342c-0.418-0.215-0.723-0.533-0.863-1.03
					c0.225,0.017,0.213-0.206,0.285-0.341c0.441,0.057,0.631,0.563,0.893,0.773c-1.121-1.462-2.33-2.85-3.621-4.16
					c-0.92-0.852-1.791-1.688-2.676-2.506c-2.59-2.236-5.439-4.176-8.492-5.779c-0.525-0.248-1.062-0.49-1.6-0.736
					c-1.268-0.576-2.529-1.156-3.832-1.674c-3.365-1.227-6.91-2.064-10.589-2.459c-6.738-0.483-13.521,0.336-18.346,2.303
					c-3.033,1.239-5.988,2.344-8.465,4.008c0.615-0.317,1.097-0.769,1.829-0.975c-1.088,0.855-2.15,1.738-3.145,2.688
					c0.085,0.033,0.295-0.063,0.286,0.061c-0.449,0.42-1.158,0.891-1.03,1.541c-0.402,0.053-0.492-0.417-0.856-0.455
					c-0.292-0.035-0.858,0.285-1.258,0.508c-0.741,0.423-1.561,0.721-1.832,1.381c1.074,0.283,1.773-0.777,2.918-0.348
					c-0.076,0.381-0.129,0.779-0.117,1.261c0.367,0.122,0.297,0.357,0.344,0.741c0.554-0.227,1.057-0.51,1.773-0.568
					c-0.082,0.826,0.085,1.402,0.571,1.655c0.327-0.726,0.771-1.274,1.208-1.884c0.216-0.314,0.318-0.666,0.511-1.029
					c0.306-0.565,1.163-1.284,0.516-2.002c0.963-0.562,1.406-1.647,2.459-2.121c0-0.147-0.021-0.325,0.059-0.398
					c0.291-0.106,0.618-0.184,0.688-0.514c0.581-0.453,1.339-0.622,1.885-1.145c0.111-0.104,0.167-0.244,0.285-0.342
					c0.289-0.227,0.691-0.342,1.03-0.572c0.32-0.219,0.598-0.553,0.913-0.745c1.012-0.614,2.409-0.817,3.66-1.256
					c1.257-0.445,2.618-0.7,3.888-0.919c-0.049,0.053-0.396,0.09-0.228,0.172c0.511-0.113,0.913-0.016,1.433-0.054
					c0.705-0.06,1.344-0.425,2.059-0.517c0.668-0.088,1.481,0.064,2.232,0c1.058-0.094,2.537-0.336,3.656-0.174
					c0.152,0.024-0.122,0.114,0.113,0.118c1.033,0.013,1.976,0.136,2.861,0.168c0.219,0.008,0.191,0.267,0.402,0.284
					c1.693-0.125,2.822,0.385,4,0.688c1.322,0.348,2.379,0.664,3.494,1.087c0.561,0.219,1.234,0.409,1.656,0.63
					c0.193,0.1,0.312,0.322,0.518,0.402c0.303,0.117,0.676,0.062,0.971,0.171c0.465,0.171,0.871,0.533,1.314,0.745
					c0.566,0.258,1.311,0.323,1.656,0.911c-1.332,0.131-1.568-1.327-3.029-1.259c0.154,0.501,1.229,1.084,0.857,1.773
					c0.844,0.644,1.49,1.48,2.574,1.886c0.295,0.616,0.877,0.696,1.43,1.087c0.295,0.212,0.52,0.564,0.799,0.745
					c0.494,0.314,1.092,0.431,1.488,0.802c0.451,0.412,0.605,1.111,1.029,1.602c0.6,0.688,1.305,0.975,2.117,1.371
					c0.039-0.268-0.076-0.684,0.057-0.859c0.533-0.015,0.883,0.15,1.314,0.23c-0.617-1.232-1.785-1.912-2.855-2.689
					c-1.674-0.387-2.555-1.867-3.719-2.57c1.143,0.243,1.5,1.279,2.637,1.54c0.199,0.092,0.031-0.192,0.166-0.171
					c1.928,1.258,4.125,2.547,4.688,4.975c-0.434-0.33-0.957-0.873-1.66-0.743c0.619,0.548,1.393,0.936,2.006,1.487
					c0,0.152-0.027,0.33,0.051,0.4c0.395,0.352,0.516,0.855,0.799,1.314c0.596,0.932,1.578,1.738,1.777,2.805
					c0.102,0.527-0.016,1.068,0.285,1.598c1.998,0.292,2.561,2.322,2.004,4.177c0.869,1.032,1.449,2.363,2.338,3.376
					c0.139-0.428,0.523-0.429,0.635-0.803c0.07-0.234,0.012-0.666,0-0.857C97.408,41.996,96.881,41.183,96.336,40.017z
					 M94.334,81.36c-0.316-0.135-2.039-0.272-2.293-0.228c-0.68,0.122-1.219,0.829-1.715,0.975c-0.188-0.06-0.178-0.317-0.459-0.286
					c-0.979,0.29-2.102,0.043-2.971,0.566c0.094-1.209-0.555-2.699-1.891-2.623c-0.83,0.037-1.473,0.729-2.396,0.743
					c0-0.251,0.018-0.517-0.059-0.69h-0.799c-0.791-0.641-1.691-1.168-2.924-1.372c-0.516,0.312-1.172,0.421-1.939,0.402
					c-1.432-0.037-3.074-0.12-4.23,0.399c0.102-0.205,0.186-0.559,0-0.744c-1.459,0.738-3.008,1.381-3.775,2.804
					c-0.75,0.045-1.324-0.278-2-0.173c-0.281,0.047-0.512,0.328-0.805,0.347c-0.803,0.049-1.412-0.525-2.17-0.747
					c0.467-1.098,0.195-2.514-0.285-3.43c-1.106-0.301-2.579-0.467-3.771-0.342c0.271-1.258,0.854-2.197,1.373-3.203
					c-0.833-0.375-1.558-0.496-2.462-0.113c-0.746,0.312-1.355,1.123-2.059,1.26c-0.793,0.149-1.791-0.189-2.687-0.346
					c-0.093-0.483,0.059-0.794-0.058-1.26c-0.104-0.406-0.54-0.701-0.572-1.086c-0.028-0.317,0.219-0.63,0.286-0.912
					c0.209-0.918,0.315-1.889,0.344-2.922c0.342-0.289,0.61-0.746,1.026-0.854c1.225-0.312,1.71,0.398,2.518,0.459
					c0.338,0.024,0.828-0.049,1.144-0.174c0.265-0.104,0.432-0.465,0.802-0.57c0.912-0.259,1.805-0.184,2.733-0.227
					c0.679-0.032,0.846,0.106,1.034,0.817c0.246,0.923,0.955,1.394,1.144,2.318c0.062,0.298,0.829-0.374,0.879-0.447
					c0.285-0.435,0.436-1.257,0.289-1.769c-0.107-0.367-0.375-0.648-0.518-1.001c-0.141-0.36-0.09-0.713-0.244-1.064
					c0.533-1.007,1.744-1.222,2.459-1.999c0.227-0.25,0.516-0.664,0.688-0.973c0.238-0.447,0.633-1.258,0.799-1.832
					c0.213-0.725-0.125-1.438,0.229-2.29c0.809-0.329,1.658-0.625,2.342-1.081c-0.135-0.156-0.299-0.273-0.342-0.516
					c0.254-0.381,0.59-0.898,0.861-1.085c0.162-1.108,0.316-2.236,0.51-3.319c0.41-0.139,0.686-0.424,1.205-0.457
					c-0.021-0.209-0.23-0.23-0.174-0.518c-0.432-0.002-1.332,0.013-1.48-0.457c0.77-1.045,2.707-0.576,3.658-1.428
					c0.08-0.298,0.162-0.601,0.344-0.801c0.178,0.137,0.314,0.013,0.398,0.17c-0.125,0.555-0.41,1.246-0.23,1.771
					c0.619-0.428,1.43-0.668,2.002-1.143c0.008,0.062,0.062,0.09,0.113,0.112c0.035-0.221-0.359-0.186-0.627-0.229
					c-0.592-0.666-0.922-1.597-1.316-2.458c-1.15-0.837-2.863-1.004-4.006-1.832c-0.525-0.381-0.689-1.063-1.311-1.201
					c-0.312,0.321-0.357,0.906-0.75,1.143c-0.422,0.006-0.852,0.016-1.201-0.055c-0.338-0.885-0.803-1.641-1.43-2.232
					c-0.945-0.162-2.217-0.219-2.803,0.289c-0.031,1.727-0.031,3.422,0.971,4.116c-0.268,0.567-0.982,0.837-1.029,1.601
					c-0.031,0.593,0.719,1.749-0.166,2.113c-0.595-0.568-1.175-1.146-1.029-2.455c-0.615-0.148-1.164-0.391-1.775-0.632
					c-0.547-0.214-1.171-0.614-1.711-0.685c-0.627-0.08-1.312,0.2-1.89-0.229c-0.285-0.611-0.831-0.924-0.86-1.656
					c-0.047-1.222,1.27-1.773,1.721-2.635c0.747-0.09,1.261-0.715,1.65-0.969c-0.157,0.728,0.234,1.15,0.745,1.371
					c0.309-0.162,0.454-0.505,0.69-0.744c0.266,0.152,0.574,0.26,0.969,0.286v-0.513c-0.803-0.324-1.602-0.645-2.06-1.316
					c0.813-0.346,2.191-0.703,1.433-1.943c0.207,0.012,0.291-0.478,0.565-0.576c0.778,0.642,2.325,0.5,3.034,1.207
					c-0.082,0.471-0.264,0.842-0.342,1.312c-0.502,0.15-0.857,0.442-1.374,0.575c0.035,0.266-0.091,0.364-0.114,0.571
					c0.554-0.061,1.08-0.135,1.601-0.229c0.797,0.557,1.689,1.012,2.74,1.313c0.227-0.157,0.492-0.273,0.807-0.343
					c0.064-0.599,0.686-0.823,0.516-1.484c-0.58-0.281-1.242-0.475-1.486-1.088c0.744-0.041,1.172,0.319,1.828,0.056
					c0.01-0.329-0.104-0.541-0.109-0.855c-0.525-0.337-1.021-0.698-1.891-0.685c-0.65-0.535-1.217-1.146-2.176-1.375
					c-0.111,0.152-0.254,0.276-0.568,0.229c-0.549-0.412-0.818-1.123-1.488-1.372c-0.637-0.237-1.458-0.163-2.34-0.345
					c-0.26,0.208-0.297,0.621-0.46,0.915c-0.114-0.249-0.231-0.497-0.458-0.628c-0.289-0.004-0.473,0.097-0.797,0.058
					c-0.417,0.57-0.699,1.794-0.117,2.399c0.59,0.199,1.127,0.14,1.771,0.228c-0.3,0.364-0.653,0.685-1.087,0.915
					c-0.365-0.166-0.634-0.541-1.086-0.459c-0.67-0.479-1.032-1.253-1.598-1.83c-0.38,0.354-0.38,1.361,0.17,1.543
					c-0.117,0.229,0.099,0.591-0.06,0.856c-0.259-0.196-0.379,0.253-0.568,0.114c0.116-0.432,0.185-1.001-0.113-1.256
					c-0.832,0.026-1.188,0.525-1.663,0.915c-1.188-0.136-1.992-0.583-2.973,0c-0.212-0.188-0.577-0.223-0.567-0.63
					c1.04,0.104,2.505,0.357,3.198-0.402c-0.334,0.058-0.35-0.614-0.626-0.799c0.046-0.545-0.111-0.882-0.113-1.376
					c-0.354-0.159-0.511-0.606-1.027-0.627c-0.181-0.007-0.382,0.161-0.571,0.171c-0.898,0.06-1.283-0.297-1.602-0.799
					c0.056-0.156,0.12-0.306,0.113-0.518c-0.405-0.19-0.601-0.111-1.088-0.056c-0.301-0.21-0.476-0.552-0.86-0.683
					c-0.519,0.539-0.915,1.212-1.37,1.826c0.335,0.518,1.285,0.076,1.832,0.4c0.262-0.253,0.434-0.592,0.805-0.741
					c0.102,0.341-0.321,0.431-0.402,0.856c-0.097,0.481,0.309,1.209-0.114,1.599c-0.809-0.618-2.229-0.627-2.801-1.487
					c-0.102-0.018-0.285,0.164-0.347,0c-0.076-0.178,0.146-0.341,0-0.398c-0.737,0.445-1.26-0.281-2.228-0.113
					c-0.324-0.264-0.687-0.499-1.146-0.629c-0.079-0.718-0.283-1.208-0.799-1.539c-0.855-0.559-1.826-0.494-1.027-1.664
					c-0.306-0.243-0.412-0.609-0.402-1.027c-0.799-0.299-1.738-0.404-2.687-0.284c-0.408,0.692-1.348,1.254-2.286,0.913
					c-0.044,0.206-0.081,0.502-0.117,0.857c0.144,0.125,0.276,0.256,0.402,0.406c-0.28,0.025-0.28,0.328-0.517,0.396
					c-0.238-0.026-0.332-0.202-0.568-0.229c-0.959,0.164-1.088,0.507-1.604,1.315c-0.471,0.737-0.566,1.536-0.803,2.286
					c0.138,0.034,0.415-0.068,0.462,0.061c-0.31,0.453-1.646,0.604-2.177,0.284c0.105,0.521,0.496,0.758,0.857,1.027
					c0.595-0.268,1.374-0.483,1.887-0.108c-0.416,0.331,0.301,0.549-0.117,0.909c0.404-0.062,0.5-0.413,0.573-0.801
					c0.476-0.187,0.749-1.013,1.315-0.741c-0.073,0.335-0.4,0.689-0.396,0.912c0.524,0.254,0.915-0.045,1.37-0.171
					c-0.062,0.185-0.157,0.341-0.172,0.571c0.195-0.027,0.323,0.025,0.458,0.058c0.519,1.233,1.803,1.71,1.773,3.491
					c0.181-0.011,0.346-0.004,0.396,0.113c0.627,1.4,0.059,3.615,0.408,5.089c-0.846,0.584-0.123,1.218,0.053,1.772
					c0.394,1.228-0.248,2.386-0.63,3.319c-0.201,0.499-0.561,0.929-0.741,1.437c-0.166,0.461-0.073,0.902-0.061,1.398
					c0.029,1.134-0.047,2.283,0.162,3.402c0.047,0.231,0.085,0.475,0.114,0.717c0.026,0.174-0.035,0.488-0.026,0.6
					c0.043,0.371,0.461,0.516,0.683,0.762c0.21,0.24,0.358,0.572,0.557,0.835c0.237,0.307,0.621,0.58,0.803,0.968
					c0.268,0.588,0.116,1.188,0.228,1.789c0.061,0.323,0.245,0.317,0.332,0.564c0.076,0.213-0.061,0.376-0.047,0.59
					c0.015,0.241,0.17,0.453,0.281,0.662c0.146,0.284,0.194,0.611,0.353,0.881c0.143,0.242,0.394,0.347,0.536,0.557
					c0.361,0.531,0.484,1.216,0.884,1.77c0.388,0.522,0.765,1.101,1.374,1.086c0.018-0.24,0.289-1.276-0.05-1.428
					c-0.646-0.283-1.207-1.154-1.558-1.731c-0.184-0.304-0.592-0.866-0.672-1.163c-0.174-0.668,0.342-1.509,0.12-2.08
					c0.339,0.059,0.318,0.414,0.386,0.686c0.228,0.916,0.493,1.811,0.741,2.629c1.04,0.457,1.562,1.054,2.182,1.889
					c0.338,0.458,0.752,0.93,0.965,1.369c0.32,0.652,0.222,1.367,0.458,2.064c0.238,0.686,0.948,1.131,1.146,1.773
					c1.828,0.662,3.623,1.367,5.033,2.457c1.252-0.756,2.109,0.191,2.973,0.685c1.718,0.979,4.652,0.649,5.203,2.515
					c0.219,0.055,0.376,0.161,0.461,0.347c0.067,0.235-0.119,0.225-0.114,0.4c0.66,0.259,1.275,0.556,1.599,1.146
					c0.958,0.424,2.427,0.291,3.371-0.059c0.248,0.402,0.879,0.424,1.145,0.799c0.018,0.5,0.102,0.833-0.053,1.207
					c-0.154,0.377-0.898,1.615-1.143,1.885c-0.338,0.382-0.832,0.59-1.027,1.029c-0.295,0.672-0.1,1.301,0.059,1.888
					c-0.875,0.357-0.426,1.428-0.113,2.116c0.449,0.116,0.805,0.339,1.197,0.514c0.365,1.469,1.717,1.945,2.002,3.489
					c1.074,0.443,2.271-0.29,3.201,0.398c0.041,0.22,0.141,0.361,0.174,0.578c-0.336,0.447-0.625,0.931-0.744,1.599
					c-1.324,1.383-1.543,3.863-3.719,4.406c-0.129,0.402-0.328,0.741-0.514,1.082c0.088,0.009,0.213-0.018,0.23,0.06
					c-0.527,0.445-1.945,0.298-2,1.027c0.646,0.243,1.543-0.188,2.342-0.171c0.141-0.082-0.107-0.182,0.113-0.166
					c2.145-0.75,4.162-1.493,6.066-2.58c0.787-0.273,1.453-0.381,2.174-0.686c0.688-0.289,1.064-0.848,1.658-1.201
					c0.393-0.234,0.797-0.359,1.199-0.629c1.443-0.979,3.188-1.738,4.229-3.027c0.199-0.696,0.668-1.072,1.146-1.434
					c1.973-1.51,4.379-3.011,5.717-5.088c0.479-0.736,0.543-1.652,1.027-2.633c0.84-1.667,2.764-2.764,3.316-4.863
					C94.57,81.705,94.482,81.431,94.334,81.36z M66.197,56.713c0.217,0.008,0.256,0.192,0.514,0.173
					c0.078-0.045,0.078-0.184,0.107-0.287h0.23c0.143,0.17,0.043,0.23,0.057,0.512c-0.229,0.131-0.527,0.209-0.861,0.228
					C66.125,57.207,66.102,56.909,66.197,56.713z M64.451,55.873c0.163,0.2,0.243,0.464,0.182,0.85
					c-0.417,0.112-0.876,0.147-1.282-0.017c0.268-0.6-0.546-1.258-1.033-1.482c0.426-0.615,0.677-0.393,1.17-0.062
					C63.874,55.426,64.237,55.602,64.451,55.873z M60.941,58.382c-0.126,0.232-0.227,0.478-0.251,0.729
					c-0.982,0.146-1.076-0.7-0.821-1.436c0.107-0.305,1.469-2.165,1.469-2.165c0.161,0.124,0.333,0.063,0.456,0.12
					c-0.007,0.658-0.123,1.275-0.379,1.885C61.29,57.794,61.096,58.083,60.941,58.382z M61.619,53.682
					c0.228,0.309,0.452,0.62,0.571,1.033c-1.277,0.015-2.179,0.317-3.433,0.228c-0.057-0.176-0.274-0.18-0.286-0.4
					C59.539,54.206,60.264,53.064,61.619,53.682z M97.379,38.259c-0.15-0.244-0.307-0.482-0.482-0.699
					C97.061,37.78,97.219,38.015,97.379,38.259z M103.48,58.485c-0.223-2.032-0.416-3.99-0.686-5.947
					c-0.105-0.734-0.158-1.508-0.273-2.234c-0.172-0.679-0.365-1.353-0.578-2.022c-0.26-0.668-0.562-1.349-0.812-2.03
					c-0.258-0.703-0.479-1.442-0.713-2.146c-0.709-1.678-1.516-3.299-2.412-4.867c-0.213-0.342-0.426-0.666-0.631-0.979
					c0.359,0.598,0.66,1.26,0.896,1.987c-0.355-0.315-0.732-1.21-1.086-1.146c0.334,1.766,0.686,3.508,0.973,5.32
					c-0.09,0.197-0.449,0.123-0.459,0.4c0.352,1.005,0.586,2.12,0.689,3.374c0.479,0.913,1.1,1.963,1.139,3.089
					c0.037,0.766-0.197,1.514-0.223,2.226c-0.039,0.897-0.01,1.875,0.115,2.747c0.199,1.418,1.014,2.748,1.199,4.23
					c0.064,0.553-0.1,1.005,0,1.486c0.113,0.589,0.545,1.205,0.457,1.89c0.229,0.093,0.584,0.065,0.801,0.167
					c0.16,0.34,0.303,0.688,0.344,1.143c0.236,0.086,0.455,0.195,0.691,0.288c0.184-1.39,0.887-2.67,0.91-4.062
					C103.84,60.479,103.586,59.466,103.48,58.485z M96.502,38.015c-0.316-0.256-0.287-0.863-0.748-0.974
					C95.93,37.403,96.148,38.026,96.502,38.015z M91.873,36.987c-0.117-0.879-0.436-2.042-0.92-2.746
					c-0.379-0.133-0.734-0.295-1.311-0.23c-0.818-0.422-1.604-0.879-2.463-1.259c-0.035,0.135-0.189,0.155-0.229,0.288
					c0.346,0.4,0.613,0.876,1.027,1.201c0.105-0.144,0.223-0.273,0.461-0.288c1.389,0.751,2.352,1.92,3.258,3.147
					C91.723,37.03,91.77,36.983,91.873,36.987z M69.279,73.868c0.277-0.237,0.326-0.705,0.803-0.742
					c-0.383-0.158-0.758-0.648-1.256-0.741c-0.389-0.077-0.848,0.077-1.262,0.048c-1.357-0.057-2.793-1.008-4.006-0.508
					c-0.079,0.188-0.151,0.383-0.228,0.568c1.032,0.26,2.068,0.303,3.033,0.687c0.557,0.227,1.178,0.858,1.715,0.862
					C68.52,74.046,68.836,73.517,69.279,73.868z M33.883,34.128c-0.081,0.152-0.303,0.154-0.285,0.4
					C33.724,34.462,33.995,34.245,33.883,34.128z M75.453,73.586c-0.074,0.647,0.34,0.776,0.809,0.743
					c0.047-0.328,0.277-0.482,0.396-0.743C76.266,73.261,75.895,73.427,75.453,73.586z M38.398,46.251
					c0.239-0.031,0.339-0.2,0.517-0.286c-0.1-0.4,0.073-0.44,0.23-0.685c-0.382,0.205-0.166-0.273-0.461-0.291
					c-0.015,0.085-0.122,0.068-0.172,0.115C38.696,45.585,38.305,45.701,38.398,46.251z M40.288,27.092
					c-0.224,0.045-0.465,0.063-0.57,0.226c0.082,0.032,0.14,0.092,0.172,0.173C40.11,27.448,40.196,27.268,40.288,27.092z
					 M76.143,74.843c0.049-0.086,0.141-0.121,0.287-0.115c-0.006-0.064,0.01-0.157-0.057-0.17
					C76.354,74.673,75.916,74.663,76.143,74.843z M67.396,74.843v0.573c0.477,0.329,1.303-0.079,1.43-0.63
					C68.307,74.699,67.824,74.62,67.396,74.843z M70.77,73.868c0.082,0.188,0.211,0.326,0.283,0.519
					c1.283,0.546,2.367,0.098,3.602-0.228c0.045-0.354-0.178-0.43-0.164-0.746c-1.092-0.086-2.049-0.16-3.32-0.229
					C71.104,73.479,70.852,73.593,70.77,73.868z M45.492,21.261c-0.204-0.033-0.297,0.049-0.344,0.17
					C45.302,21.456,45.628,21.161,45.492,21.261z M73.512,22.632c-0.449-0.061-0.752-0.28-1.201-0.342
					c0.012,0.23,0.172,0.318,0.17,0.568c0.268,0.077,0.561,0.128,0.854,0.171c-0.096,0.19-0.293,0.271-0.396,0.462
					c0.396,0.811,1.754,0.906,2.516,0.343c-0.486-0.431-1.074-0.757-1.885-0.864C73.459,22.889,73.648,22.754,73.512,22.632z
					 M57.331,17.827c-0.228-0.162-0.586,0.029-0.805,0.059c-0.185-0.045-0.436,0.068-0.114,0.056
					C56.665,18.009,57.267,18.22,57.331,17.827z M56.184,33.841c0.362,0,0.631-0.096,0.858-0.229v-0.344
					c-0.569,0.051-0.423-0.604-0.969-0.285C55.911,33.37,56.039,33.51,56.184,33.841z M57.272,37.786
					c-0.078-0.33,0.131-0.363,0.173-0.569c-0.1-0.323-0.211-0.627-0.289-0.974c-0.288-0.129-0.449-0.395-0.802-0.46
					c-0.476,0.361-0.861,0.815-1.144,1.376C55.563,37.705,56.286,37.878,57.272,37.786z M53.557,34.468
					c-0.61-0.146-1.333-0.98-1.777-0.284c0.085,0.294,0.246,0.517,0.402,0.743c0.499-0.174,0.875,0.305,1.318,0.4
					c0.336,0.072,0.687-0.165,1.027,0.06c0.029-0.554-0.169-0.771,0-1.203C54.059,33.978,53.839,34.321,53.557,34.468z
					 M46.004,20.858c0.526-0.311,1.284-0.393,1.66-0.857C46.918,20.058,46.274,20.521,46.004,20.858z M50.354,33.724
					c0.181,0.029,0.204,0.219,0.4,0.229c0.329-0.416,1.265-0.222,1.775-0.455c-0.23-1.14-1.264-0.275-2.06-0.113
					C50.53,33.597,50.326,33.546,50.354,33.724z M55.671,35.04c0.58,0.03,0.898,0.322,1.257,0.575
					c-0.014-0.394,0.47-0.474,0.289-0.858c-0.396-0.027-0.651-0.193-0.919-0.342C56.131,34.663,55.761,34.715,55.671,35.04z"/>
			</g>
		</g>
		<g opacity="0.6">
			<path fill="#FFFFFF" d="M60.22,58.839c13.639,11.387,32.055,5.133,43.543-0.821c-1.678-22.911-20.785-40.962-44.126-40.962
				c-23.411,0-42.558,18.225-44.126,41.254C26.161,53.097,45.56,46.565,60.22,58.839z"/>
		</g>
	</g>
	<g>
		<g>
			<path fill="#F2F2F2" stroke="#B3B3B3" d="M116.359,64.006h-54.64c-5.609,0-10.156,4.546-10.156,10.153v40.455
				c0,5.61,4.547,10.156,10.156,10.156h54.64c5.607,0,10.154-4.546,10.154-10.156V74.159
				C126.514,68.552,121.967,64.006,116.359,64.006z"/>
			<linearGradient id="SVGID_23_" gradientUnits="userSpaceOnUse" x1="88.998" y1="125.3037" x2="88.998" y2="85.3749">
				<stop  offset="0.0934" style="stop-color:#D1D1D1"/>
				<stop  offset="0.431" style="stop-color:#D9D9D9"/>
				<stop  offset="0.9519" style="stop-color:#EFEFEF"/>
				<stop  offset="0.9725" style="stop-color:#F0F0F0"/>
			</linearGradient>
			<path fill="url(#SVGID_23_)" d="M73.725,103.323c-7.602,0-14.875-0.645-21.59-1.816v13.273c0,5.518,4.472,9.99,9.989,9.99h53.751
				c5.516,0,9.988-4.473,9.988-9.99V89.856C115.045,97.939,95.742,103.323,73.725,103.323z"/>
			<path fill="#B3B3B3" d="M116.018,122.96H62.132c-5.53,0-10.014-4.484-10.014-10.016v1.975c0,5.531,4.483,10.016,10.014,10.016
				h53.885c5.529,0,10.012-4.484,10.012-10.016v-1.975C126.029,118.476,121.547,122.96,116.018,122.96z"/>
			<path fill="#FFFFFF" d="M113.955,66.723H63.409c-5.188,0-9.395,4.205-9.395,9.392v2.777c0-5.187,4.206-9.393,9.395-9.393h50.546
				c5.189,0,9.395,4.206,9.395,9.393v-2.777C123.35,70.928,119.145,66.723,113.955,66.723z"/>
		</g>
		<g>
			
				<linearGradient id="SVGID_24_" gradientUnits="userSpaceOnUse" x1="-332.4663" y1="-512.353" x2="-332.4663" y2="-554.8003" gradientTransform="matrix(1 0 0 -1 412.6577 -439.8887)">
				<stop  offset="0" style="stop-color:#32AECE"/>
				<stop  offset="1" style="stop-color:#094E86"/>
			</linearGradient>
			<path fill="url(#SVGID_24_)" d="M75.02,98.79h11.283c0.402,0,0.727,0.373,0.727,0.834c0,0.463-0.324,0.838-0.727,0.838H75.02
				v12.521l-0.008,0.256h11.291c0.402,0,0.727,0.373,0.727,0.834c0,0.464-0.324,0.838-0.727,0.838H74.084
				c-0.4,0-0.727-0.374-0.727-0.838c0-0.117,0.021-0.234,0.062-0.337c-0.045-0.229-0.068-0.486-0.068-0.75v-38.63
				c0-1.045,0.375-1.893,0.834-1.893c0.461,0,0.834,0.848,0.834,1.893v9.984h11.285c0.402,0,0.727,0.375,0.727,0.834
				c0,0.463-0.324,0.836-0.727,0.836H75.02V98.79L75.02,98.79z"/>
			
				<linearGradient id="SVGID_25_" gradientUnits="userSpaceOnUse" x1="-314.6011" y1="-519.5532" x2="-314.6011" y2="-530.0483" gradientTransform="matrix(1 0 0 -1 412.6577 -439.8887)">
				<stop  offset="0" style="stop-color:#32AECE"/>
				<stop  offset="1" style="stop-color:#094E86"/>
			</linearGradient>
			<path fill="url(#SVGID_25_)" d="M102.312,79.664c0.377,0,0.686,0.29,0.715,0.661c0.963,0.17,1.697,1.013,1.697,2.025v5.752
				c0,1.134-0.92,2.057-2.055,2.057h-0.463h-8.764c-1.172,0-2.055-0.887-2.055-1.975v-5.514v-0.32c0-1.136,0.92-2.057,2.055-2.057
				h4.936c0.043-0.355,0.344-0.63,0.713-0.63H102.312L102.312,79.664z"/>
			
				<linearGradient id="SVGID_26_" gradientUnits="userSpaceOnUse" x1="-314.6011" y1="-533.9243" x2="-314.6011" y2="-544.4165" gradientTransform="matrix(1 0 0 -1 412.6577 -439.8887)">
				<stop  offset="0" style="stop-color:#32AECE"/>
				<stop  offset="1" style="stop-color:#094E86"/>
			</linearGradient>
			<path fill="url(#SVGID_26_)" d="M102.312,94.035c0.377,0,0.686,0.29,0.715,0.66c0.963,0.169,1.697,1.013,1.697,2.026v5.75
				c0,1.137-0.92,2.056-2.055,2.056h-0.463h-8.764c-1.172,0-2.055-0.882-2.055-1.972V97.04v-0.318c0-1.137,0.92-2.058,2.055-2.058
				h4.936c0.043-0.354,0.344-0.629,0.713-0.629H102.312L102.312,94.035z"/>
			
				<linearGradient id="SVGID_27_" gradientUnits="userSpaceOnUse" x1="-314.6011" y1="-548.2944" x2="-314.6011" y2="-558.7886" gradientTransform="matrix(1 0 0 -1 412.6577 -439.8887)">
				<stop  offset="0" style="stop-color:#32AECE"/>
				<stop  offset="1" style="stop-color:#094E86"/>
			</linearGradient>
			<path fill="url(#SVGID_27_)" d="M102.312,108.405c0.377,0,0.686,0.291,0.715,0.66c0.963,0.168,1.697,1.013,1.697,2.025v5.751
				c0,1.138-0.92,2.058-2.055,2.058h-0.463h-8.764c-1.172,0-2.055-0.884-2.055-1.973v-5.516v-0.32c0-1.133,0.92-2.057,2.055-2.057
				h4.936c0.043-0.354,0.344-0.629,0.713-0.629H102.312L102.312,108.405z"/>
		</g>
	</g>
</g>
</svg>
