<?xml version="1.0" encoding="utf-8"?>
<!-- Generator: Adobe Illustrator 13.0.0, SVG Export Plug-In . SVG Version: 6.00 Build 14948)  -->
<!DOCTYPE svg PUBLIC "-//W3C//DTD SVG 1.1//EN" "http://www.w3.org/Graphics/SVG/1.1/DTD/svg11.dtd">
<svg version="1.1" id="Layer_1" xmlns="http://www.w3.org/2000/svg" xmlns:xlink="http://www.w3.org/1999/xlink" x="0px" y="0px"
	 width="128px" height="128px" viewBox="0 0 128 128" enable-background="new 0 0 128 128" xml:space="preserve">
<g>
	<g>
		<path fill="#F2F2F2" stroke="#B3B3B3" stroke-width="2" d="M109.502,21.47H18.5c-9.342,0-16.914,7.572-16.914,16.91v67.379
			c0,9.342,7.572,16.914,16.914,16.914h91.002c9.34,0,16.912-7.572,16.912-16.914V38.38C126.414,29.042,118.842,21.47,109.502,21.47
			z"/>
		<linearGradient id="SVGID_1_" gradientUnits="userSpaceOnUse" x1="63.9351" y1="123.5605" x2="63.9351" y2="57.0591">
			<stop  offset="0.0934" style="stop-color:#D1D1D1"/>
			<stop  offset="0.431" style="stop-color:#D9D9D9"/>
			<stop  offset="0.9519" style="stop-color:#EFEFEF"/>
			<stop  offset="0.9725" style="stop-color:#F0F0F0"/>
		</linearGradient>
		<path fill="url(#SVGID_1_)" d="M38.496,86.95c-12.658,0-24.773-1.07-35.959-3.022v22.106c0,9.189,7.447,16.639,16.637,16.639
			h89.521c9.188,0,16.637-7.449,16.637-16.639V64.523C107.314,77.984,75.166,86.95,38.496,86.95z"/>
		<path fill="#B3B3B3" d="M108.934,119.656l-89.744,0.001c-9.211,0-16.678-7.469-16.678-16.681v3.288
			c0,9.213,7.467,16.68,16.678,16.68h89.744c9.209,0,16.676-7.467,16.676-16.68v-3.288
			C125.609,112.188,118.143,119.656,108.934,119.656z"/>
		<path fill="#FFFFFF" d="M105.5,25.994H21.315c-8.643,0-15.647,7.005-15.647,15.643v4.626c0-8.64,7.005-15.645,15.647-15.645H105.5
			c8.64,0,15.646,7.005,15.646,15.645v-4.626C121.146,32.999,114.14,25.994,105.5,25.994z"/>
	</g>
	<g>
		<path fill="#FFFFFF" stroke="#999999" stroke-width="1.0006" stroke-miterlimit="3.8637" d="M111.766,92.721
			c0,9.389-7.607,17-17,17H33.234c-9.389,0-17-7.611-17-17V57.693c0-9.389,7.611-17,17-17h61.531c9.393,0,17,7.611,17,17V92.721
			L111.766,92.721z"/>
		<g>
			
				<linearGradient id="SVGID_2_" gradientUnits="userSpaceOnUse" x1="-2759.4502" y1="4508.333" x2="-2773.9907" y2="4522.8735" gradientTransform="matrix(0.7071 -0.7071 0.7071 0.7071 -1143.5808 -5091.7275)">
				<stop  offset="0" style="stop-color:#EB7680"/>
				<stop  offset="1" style="stop-color:#C1282F"/>
			</linearGradient>
			<path fill="url(#SVGID_2_)" d="M103.316,50.615c0.021-0.914-0.309-1.709-0.938-2.34c-0.655-0.656-1.451-0.984-2.364-0.961
				L89.83,47.291c-0.912,0.023-1.686,0.328-2.34,0.982c-0.633,0.633-0.961,1.428-0.984,2.342c0.025,0.912,0.352,1.709,0.984,2.342
				c0.654,0.654,1.428,0.957,2.34,0.982l2.178-0.023l-8.273,8.273c-0.654,0.656-0.98,1.451-0.959,2.365
				c-0.021,0.914,0.326,1.686,0.982,2.34c0.633,0.631,1.404,0.982,2.318,0.959c0.912,0.023,1.686-0.328,2.363-0.959l8.271-8.273
				l-0.021,2.178c0.002,0.891,0.328,1.686,0.982,2.342c0.633,0.633,1.43,0.959,2.342,0.982c0.912-0.023,1.709-0.35,2.342-0.982
				c0.652-0.656,0.959-1.428,0.98-2.34L103.316,50.615z"/>
			
				<linearGradient id="SVGID_3_" gradientUnits="userSpaceOnUse" x1="-10604.2734" y1="-3336.4302" x2="-10618.8145" y2="-3321.8896" gradientTransform="matrix(-0.7071 -0.7071 -0.7071 0.7071 -9822.5264 -5091.7275)">
				<stop  offset="0" style="stop-color:#EB7680"/>
				<stop  offset="1" style="stop-color:#C1282F"/>
			</linearGradient>
			<path fill="url(#SVGID_3_)" d="M24.662,60.801c0.023,0.912,0.328,1.684,0.982,2.34c0.633,0.633,1.429,0.959,2.342,0.982
				c0.912-0.023,1.709-0.35,2.341-0.982c0.655-0.656,0.981-1.451,0.983-2.342l-0.023-2.178l8.273,8.273
				c0.679,0.633,1.45,0.982,2.362,0.959c0.914,0.023,1.687-0.328,2.318-0.959c0.655-0.654,1.007-1.426,0.983-2.34
				c0.022-0.914-0.305-1.709-0.961-2.365l-8.272-8.273l2.178,0.023c0.912-0.023,1.687-0.328,2.341-0.982
				c0.633-0.633,0.959-1.43,0.983-2.342c-0.022-0.914-0.351-1.709-0.983-2.342c-0.654-0.656-1.428-0.959-2.341-0.982l-10.185,0.023
				c-0.914-0.023-1.709,0.305-2.363,0.959c-0.632,0.633-0.96,1.428-0.938,2.342L24.662,60.801z"/>
			
				<linearGradient id="SVGID_4_" gradientUnits="userSpaceOnUse" x1="-8823.0488" y1="-5084.5635" x2="-8808.5068" y2="-5099.1055" gradientTransform="matrix(-0.7071 0.7071 -0.7071 -0.7071 -9799.127 2726.0996)">
				<stop  offset="0" style="stop-color:#EB7680"/>
				<stop  offset="1" style="stop-color:#C1282F"/>
			</linearGradient>
			<path fill="url(#SVGID_4_)" d="M24.684,99.797c-0.021,0.914,0.307,1.709,0.938,2.342c0.655,0.656,1.45,0.982,2.364,0.961
				l10.184,0.023c0.913-0.023,1.686-0.328,2.341-0.984c0.634-0.631,0.96-1.428,0.983-2.34c-0.023-0.914-0.352-1.709-0.983-2.342
				c-0.655-0.656-1.429-0.959-2.341-0.984l-2.178,0.023l8.273-8.271c0.655-0.656,0.982-1.453,0.959-2.365
				c0.023-0.914-0.326-1.686-0.982-2.342c-0.633-0.631-1.404-0.98-2.318-0.959c-0.912-0.021-1.686,0.326-2.363,0.959l-8.272,8.273
				l0.022-2.18c0-0.889-0.326-1.686-0.982-2.342c-0.633-0.631-1.43-0.959-2.342-0.98c-0.912,0.021-1.707,0.352-2.34,0.982
				c-0.655,0.654-0.961,1.428-0.983,2.34L24.684,99.797z"/>
			
				<linearGradient id="SVGID_5_" gradientUnits="userSpaceOnUse" x1="-1011.3867" y1="2727.1816" x2="-996.8448" y2="2712.6396" gradientTransform="matrix(0.7071 0.7071 0.7071 -0.7071 -1120.1804 2726.0996)">
				<stop  offset="0" style="stop-color:#EB7680"/>
				<stop  offset="1" style="stop-color:#C1282F"/>
			</linearGradient>
			<path fill="url(#SVGID_5_)" d="M103.338,89.611c-0.023-0.912-0.328-1.686-0.982-2.34c-0.633-0.633-1.428-0.961-2.342-0.982
				c-0.912,0.021-1.709,0.352-2.34,0.98c-0.656,0.656-0.982,1.453-0.984,2.342l0.023,2.18l-8.273-8.273
				c-0.678-0.633-1.45-0.98-2.361-0.959c-0.914-0.021-1.688,0.328-2.318,0.959c-0.654,0.656-1.006,1.428-0.98,2.342
				c-0.023,0.912,0.303,1.709,0.959,2.365l8.271,8.273l-2.179-0.025c-0.912,0.023-1.687,0.328-2.34,0.982
				c-0.634,0.633-0.959,1.43-0.984,2.342c0.022,0.914,0.353,1.709,0.984,2.342c0.653,0.656,1.428,0.961,2.34,0.984l10.185-0.023
				c0.914,0.021,1.709-0.305,2.364-0.961c0.631-0.633,0.959-1.428,0.938-2.342L103.338,89.611z"/>
		</g>
	</g>
</g>
</svg>
