<?xml version="1.0" encoding="utf-8"?>
<!-- Generator: Adobe Illustrator 13.0.0, SVG Export Plug-In . SVG Version: 6.00 Build 14948)  -->
<!DOCTYPE svg PUBLIC "-//W3C//DTD SVG 1.1//EN" "http://www.w3.org/Graphics/SVG/1.1/DTD/svg11.dtd">
<svg version="1.1" id="Layer_1" xmlns="http://www.w3.org/2000/svg" xmlns:xlink="http://www.w3.org/1999/xlink" x="0px" y="0px"
	 width="128px" height="128px" viewBox="0 0 128 128" enable-background="new 0 0 128 128" xml:space="preserve">
<g>
	<path fill="#F2F2F2" stroke="#B3B3B3" stroke-width="2" d="M109.502,16.905H18.5c-9.342,0-16.914,7.572-16.914,16.91v67.379
		c0,9.342,7.572,16.914,16.914,16.914h91.002c9.34,0,16.912-7.572,16.912-16.914V33.815
		C126.414,24.478,118.842,16.905,109.502,16.905z"/>
	<linearGradient id="SVGID_1_" gradientUnits="userSpaceOnUse" x1="63.9346" y1="118.9961" x2="63.9346" y2="52.4952">
		<stop  offset="0.0934" style="stop-color:#D1D1D1"/>
		<stop  offset="0.431" style="stop-color:#D9D9D9"/>
		<stop  offset="0.9519" style="stop-color:#EFEFEF"/>
		<stop  offset="0.9725" style="stop-color:#F0F0F0"/>
	</linearGradient>
	<path fill="url(#SVGID_1_)" d="M38.496,82.386c-12.658,0-24.773-1.07-35.959-3.022v22.106c0,9.189,7.447,16.639,16.637,16.639
		h89.522c9.188,0,16.637-7.449,16.637-16.639V59.959C107.314,73.42,75.166,82.386,38.496,82.386z"/>
	<path fill="#B3B3B3" d="M108.934,115.092l-89.745,0.001c-9.211,0-16.678-7.469-16.678-16.681v3.288
		c0,9.213,7.467,16.68,16.678,16.68h89.745c9.209,0,16.676-7.467,16.676-16.68v-3.288
		C125.609,107.624,118.143,115.092,108.934,115.092z"/>
	<linearGradient id="SVGID_2_" gradientUnits="userSpaceOnUse" x1="64.1587" y1="17.2617" x2="64.1587" y2="49.1583">
		<stop  offset="0" style="stop-color:#EC008C"/>
		<stop  offset="1" style="stop-color:#C4008C"/>
	</linearGradient>
	<path fill="url(#SVGID_2_)" d="M125.838,45.578V34.399c0-9.229-7.482-16.712-16.713-16.712h-89.93
		C9.962,17.688,2.48,25.171,2.48,34.4v11.178H125.838z"/>
	<path opacity="0.5" fill="#FFFFFF" d="M109.102,17.688H19.191c-9.23,0-16.711,7.481-16.711,16.707v4.94
		c0-9.227,7.48-16.708,16.711-16.708h89.911c9.227,0,16.709,7.481,16.709,16.708v-4.94
		C125.811,25.169,118.328,17.688,109.102,17.688z"/>
	<g>
		<g>
			
				<linearGradient id="SVGID_3_" gradientUnits="userSpaceOnUse" x1="-375.0532" y1="870.2734" x2="-375.0532" y2="884.1895" gradientTransform="matrix(1 0 0 1 412.6201 -813.9912)">
				<stop  offset="0" style="stop-color:#EC008C"/>
				<stop  offset="1" style="stop-color:#C4008C"/>
			</linearGradient>
			<path fill="url(#SVGID_3_)" d="M44.527,68.386c0,1.002-0.813,1.812-1.813,1.812H32.418c-1,0-1.812-0.812-1.812-1.812V58.093
				c0-1.002,0.812-1.811,1.812-1.811h10.295c1,0,1.813,0.809,1.813,1.811V68.386L44.527,68.386z"/>
			
				<linearGradient id="SVGID_4_" gradientUnits="userSpaceOnUse" x1="-357.4321" y1="870.2734" x2="-357.4321" y2="884.1895" gradientTransform="matrix(1 0 0 1 412.6201 -813.9912)">
				<stop  offset="0" style="stop-color:#EC008C"/>
				<stop  offset="1" style="stop-color:#C4008C"/>
			</linearGradient>
			<path fill="url(#SVGID_4_)" d="M62.148,68.386c0,1.002-0.812,1.812-1.813,1.812H50.042c-1.001,0-1.813-0.811-1.813-1.812V58.093
				c0-1.002,0.812-1.811,1.813-1.811h10.292c1.003,0,1.812,0.809,1.812,1.811L62.148,68.386L62.148,68.386z"/>
			
				<linearGradient id="SVGID_5_" gradientUnits="userSpaceOnUse" x1="-339.8091" y1="870.2734" x2="-339.8091" y2="884.1895" gradientTransform="matrix(1 0 0 1 412.6201 -813.9912)">
				<stop  offset="0" style="stop-color:#EC008C"/>
				<stop  offset="1" style="stop-color:#C4008C"/>
			</linearGradient>
			<path fill="url(#SVGID_5_)" d="M79.771,68.386c0,1.002-0.814,1.812-1.814,1.812H67.664c-1,0-1.812-0.811-1.812-1.812V58.093
				c0-1.002,0.812-1.811,1.812-1.811h10.295c1,0,1.812,0.809,1.812,1.811V68.386L79.771,68.386z"/>
			
				<linearGradient id="SVGID_6_" gradientUnits="userSpaceOnUse" x1="-322.188" y1="870.2734" x2="-322.188" y2="884.1895" gradientTransform="matrix(1 0 0 1 412.6201 -813.9912)">
				<stop  offset="0" style="stop-color:#EC008C"/>
				<stop  offset="1" style="stop-color:#C4008C"/>
			</linearGradient>
			<path fill="url(#SVGID_6_)" d="M97.393,68.386c0,1.002-0.812,1.812-1.812,1.812H85.285c-1,0-1.812-0.811-1.812-1.812V58.093
				c0-1.002,0.812-1.811,1.812-1.811H95.58c1,0,1.812,0.809,1.812,1.811V68.386z"/>
		</g>
		<g>
			
				<linearGradient id="SVGID_7_" gradientUnits="userSpaceOnUse" x1="-375.0532" y1="887.5371" x2="-375.0532" y2="901.457" gradientTransform="matrix(1 0 0 1 412.6201 -813.9912)">
				<stop  offset="0" style="stop-color:#EC008C"/>
				<stop  offset="1" style="stop-color:#C4008C"/>
			</linearGradient>
			<path fill="url(#SVGID_7_)" d="M44.527,85.653c0,1-0.813,1.812-1.813,1.812H32.418c-1,0-1.812-0.812-1.812-1.812V75.358
				c0-1.002,0.812-1.812,1.812-1.812h10.295c1,0,1.813,0.812,1.813,1.812V85.653L44.527,85.653z"/>
			
				<linearGradient id="SVGID_8_" gradientUnits="userSpaceOnUse" x1="-357.4321" y1="887.5371" x2="-357.4321" y2="901.457" gradientTransform="matrix(1 0 0 1 412.6201 -813.9912)">
				<stop  offset="0" style="stop-color:#EC008C"/>
				<stop  offset="1" style="stop-color:#C4008C"/>
			</linearGradient>
			<path fill="url(#SVGID_8_)" d="M62.148,85.653c0,1-0.812,1.812-1.813,1.812H50.042c-1.001,0-1.813-0.812-1.813-1.812V75.358
				c0-1.002,0.812-1.812,1.813-1.812l10.292,0.004c1.003,0,1.812,0.809,1.812,1.811L62.148,85.653L62.148,85.653z"/>
			
				<linearGradient id="SVGID_9_" gradientUnits="userSpaceOnUse" x1="-339.8091" y1="887.5391" x2="-339.8091" y2="901.457" gradientTransform="matrix(1 0 0 1 412.6201 -813.9912)">
				<stop  offset="0" style="stop-color:#EC008C"/>
				<stop  offset="1" style="stop-color:#C4008C"/>
			</linearGradient>
			<path fill="url(#SVGID_9_)" d="M79.771,85.653c0,1-0.814,1.812-1.814,1.812H67.664c-1,0-1.812-0.812-1.812-1.812V75.358
				c0-1.002,0.812-1.811,1.812-1.811h10.295c1,0,1.812,0.809,1.812,1.811V85.653L79.771,85.653z"/>
			
				<linearGradient id="SVGID_10_" gradientUnits="userSpaceOnUse" x1="-322.188" y1="887.5391" x2="-322.188" y2="901.457" gradientTransform="matrix(1 0 0 1 412.6201 -813.9912)">
				<stop  offset="0" style="stop-color:#EC008C"/>
				<stop  offset="1" style="stop-color:#C4008C"/>
			</linearGradient>
			<path fill="url(#SVGID_10_)" d="M97.393,85.653c0,1-0.812,1.812-1.812,1.812H85.285c-1,0-1.812-0.812-1.812-1.812V75.358
				c0-1.002,0.812-1.811,1.812-1.811H95.58c1,0,1.812,0.809,1.812,1.811V85.653z"/>
		</g>
		<g>
			
				<linearGradient id="SVGID_11_" gradientUnits="userSpaceOnUse" x1="-375.0532" y1="904.8027" x2="-375.0532" y2="918.7227" gradientTransform="matrix(1 0 0 1 412.6201 -813.9912)">
				<stop  offset="0" style="stop-color:#EC008C"/>
				<stop  offset="1" style="stop-color:#C4008C"/>
			</linearGradient>
			<path fill="url(#SVGID_11_)" d="M44.527,102.919c0,1-0.813,1.812-1.813,1.812H32.418c-1,0-1.812-0.812-1.812-1.812V92.624
				c0-1,0.812-1.812,1.812-1.812l10.295,0.002c1,0,1.813,0.811,1.813,1.811V102.919L44.527,102.919z"/>
			
				<linearGradient id="SVGID_12_" gradientUnits="userSpaceOnUse" x1="-357.4321" y1="904.8047" x2="-357.4321" y2="918.7227" gradientTransform="matrix(1 0 0 1 412.6201 -813.9912)">
				<stop  offset="0" style="stop-color:#EC008C"/>
				<stop  offset="1" style="stop-color:#C4008C"/>
			</linearGradient>
			<path fill="url(#SVGID_12_)" d="M62.148,102.919c0,1-0.812,1.812-1.813,1.812H50.042c-1.001,0-1.813-0.812-1.813-1.812V92.624
				c0-1,0.812-1.811,1.813-1.811h10.292c1.003,0,1.812,0.811,1.812,1.811L62.148,102.919L62.148,102.919z"/>
			
				<linearGradient id="SVGID_13_" gradientUnits="userSpaceOnUse" x1="-339.8091" y1="904.8047" x2="-339.8091" y2="918.7227" gradientTransform="matrix(1 0 0 1 412.6201 -813.9912)">
				<stop  offset="0" style="stop-color:#EC008C"/>
				<stop  offset="1" style="stop-color:#C4008C"/>
			</linearGradient>
			<path fill="url(#SVGID_13_)" d="M79.771,102.919c0,1-0.814,1.812-1.814,1.812H67.664c-1,0-1.812-0.812-1.812-1.812V92.624
				c0-1,0.812-1.811,1.812-1.811h10.295c1,0,1.812,0.811,1.812,1.811V102.919L79.771,102.919z"/>
			
				<linearGradient id="SVGID_14_" gradientUnits="userSpaceOnUse" x1="-322.188" y1="904.8047" x2="-322.188" y2="918.7227" gradientTransform="matrix(1 0 0 1 412.6201 -813.9912)">
				<stop  offset="0" style="stop-color:#EC008C"/>
				<stop  offset="1" style="stop-color:#C4008C"/>
			</linearGradient>
			<path fill="url(#SVGID_14_)" d="M97.393,102.919c0,1-0.812,1.812-1.812,1.812H85.285c-1,0-1.812-0.812-1.812-1.812V92.624
				c0-1,0.812-1.811,1.812-1.811H95.58c1,0,1.812,0.811,1.812,1.811V102.919z"/>
		</g>
	</g>
	<g>
		<path fill="#F2F2F2" d="M55.418,85.987c0.645-0.399,1.4-0.633,2.214-0.633h27.284c0.805,0,1.555,0.229,2.193,0.621l0.324-0.293
			c-0.727-0.472-1.59-0.75-2.518-0.75H57.632c-0.926,0-1.785,0.275-2.508,0.744L55.418,85.987z"/>
		<radialGradient id="SVGID_15_" cx="71.2471" cy="97.6641" r="15.8143" gradientUnits="userSpaceOnUse">
			<stop  offset="0" style="stop-color:#FAFAFA"/>
			<stop  offset="0.3629" style="stop-color:#E5E5E5"/>
			<stop  offset="1" style="stop-color:#C4C4C4"/>
		</radialGradient>
		<path fill="url(#SVGID_15_)" stroke="#808080" d="M67.57,108.867L54.708,89.85c-1.99-3.284-1.129-5.973,1.912-5.973h29.381
			c3.041,0,3.77,2.513,1.619,5.583l-12.525,19.797C72.945,112.328,69.559,112.151,67.57,108.867L67.57,108.867z"/>
		<radialGradient id="SVGID_16_" cx="71.5889" cy="69.3398" r="12.2666" gradientUnits="userSpaceOnUse">
			<stop  offset="0" style="stop-color:#FAFAFA"/>
			<stop  offset="0.4142" style="stop-color:#E3E3E3"/>
			<stop  offset="1" style="stop-color:#C7C7C7"/>
		</radialGradient>
		<path fill="url(#SVGID_16_)" stroke="#808080" d="M59.326,69.341c0-6.779,5.491-12.272,12.264-12.272
			c6.771,0,12.262,5.493,12.262,12.272c0,6.775-5.49,12.27-12.262,12.27C64.816,81.61,59.326,76.116,59.326,69.341L59.326,69.341z"
			/>
		<linearGradient id="SVGID_17_" gradientUnits="userSpaceOnUse" x1="77.1279" y1="63.1006" x2="77.1279" y2="69.4951">
			<stop  offset="0" style="stop-color:#80C11B"/>
			<stop  offset="1" style="stop-color:#80E21B"/>
		</linearGradient>
		<path fill="url(#SVGID_17_)" d="M73.934,66.298c0-1.766,1.43-3.197,3.195-3.197c1.764,0,3.193,1.432,3.193,3.197
			c0,1.768-1.43,3.197-3.193,3.197C75.363,69.495,73.934,68.065,73.934,66.298L73.934,66.298z"/>
		<path fill="#70993E" d="M77.125,66.224c0.879,0.734,2.068,0.33,2.811-0.053c-0.109-1.48-1.344-2.646-2.848-2.646
			c-1.514,0-2.75,1.176-2.85,2.663C74.924,65.852,76.178,65.43,77.125,66.224z"/>
		<path fill="#F2F2F2" d="M62.685,62.985c2.049-2.812,5.813-4.965,9.333-4.965s7.189,2.153,9.236,4.965h0.389
			c-2.17-3.311-5.691-5.475-9.672-5.475c-3.982,0-7.504,2.164-9.674,5.475H62.685z"/>
		<linearGradient id="SVGID_18_" gradientUnits="userSpaceOnUse" x1="71.6543" y1="79.2607" x2="71.6543" y2="73.7881">
			<stop  offset="0" style="stop-color:#00B2DE"/>
			<stop  offset="1" style="stop-color:#99DBF6"/>
		</linearGradient>
		<path fill="url(#SVGID_18_)" d="M80.939,73.788c-2.047,2.811-5.812,4.963-9.334,4.963c-3.518,0-7.186-2.152-9.235-4.963h-0.39
			c2.171,3.309,5.693,5.473,9.673,5.473c3.982,0,7.506-2.164,9.674-5.473H80.939z"/>
		<g>
			<radialGradient id="SVGID_19_" cx="98.002" cy="97.6621" r="15.8147" gradientUnits="userSpaceOnUse">
				<stop  offset="0" style="stop-color:#FAFAFA"/>
				<stop  offset="0.3629" style="stop-color:#E5E5E5"/>
				<stop  offset="1" style="stop-color:#C4C4C4"/>
			</radialGradient>
			<path fill="url(#SVGID_19_)" stroke="#808080" d="M101.678,86.46l12.863,19.018c1.988,3.285,1.127,5.972-1.914,5.972H83.246
				c-3.041,0-3.77-2.513-1.619-5.582l12.525-19.798C96.303,82.999,99.689,83.175,101.678,86.46L101.678,86.46z"/>
			<radialGradient id="SVGID_20_" cx="98" cy="69.3398" r="12.2671" gradientUnits="userSpaceOnUse">
				<stop  offset="0" style="stop-color:#FAFAFA"/>
				<stop  offset="0.4142" style="stop-color:#E3E3E3"/>
				<stop  offset="1" style="stop-color:#C7C7C7"/>
			</radialGradient>
			<path fill="url(#SVGID_20_)" stroke="#808080" d="M85.736,69.341c0-6.779,5.492-12.272,12.264-12.272
				c6.773,0,12.264,5.493,12.264,12.272c0,6.775-5.49,12.27-12.264,12.27C91.229,81.61,85.736,76.116,85.736,69.341L85.736,69.341z"
				/>
			<linearGradient id="SVGID_21_" gradientUnits="userSpaceOnUse" x1="93.3525" y1="63.1006" x2="93.3525" y2="69.4951">
				<stop  offset="0" style="stop-color:#EC008C"/>
				<stop  offset="1" style="stop-color:#C40075"/>
			</linearGradient>
			<path fill="url(#SVGID_21_)" d="M90.156,66.298c0-1.766,1.432-3.197,3.197-3.197c1.764,0,3.195,1.432,3.195,3.197
				c0,1.768-1.432,3.197-3.195,3.197C91.588,69.495,90.156,68.065,90.156,66.298L90.156,66.298z"/>
			<path fill="#EC8690" d="M93.248,66.224c0.881,0.734,2.07,0.33,2.812-0.053c-0.107-1.48-1.342-2.646-2.848-2.646
				c-1.514,0-2.75,1.176-2.85,2.663C91.049,65.852,92.303,65.43,93.248,66.224z"/>
			<path fill="#F2F2F2" d="M88.715,62.985c2.049-2.812,5.814-4.965,9.332-4.965c3.521,0,7.191,2.153,9.236,4.965h0.389
				c-2.168-3.311-5.691-5.475-9.672-5.475s-7.504,2.164-9.674,5.475H88.715z"/>
			<linearGradient id="SVGID_22_" gradientUnits="userSpaceOnUse" x1="88.3262" y1="76.5244" x2="107.6719" y2="76.5244">
				<stop  offset="0" style="stop-color:#EC008C"/>
				<stop  offset="1" style="stop-color:#C40075"/>
			</linearGradient>
			<path fill="url(#SVGID_22_)" d="M107.285,73.788c-2.047,2.811-5.814,4.963-9.334,4.963s-7.188-2.152-9.234-4.963h-0.391
				c2.17,3.309,5.693,5.473,9.674,5.473s7.504-2.164,9.672-5.473H107.285z"/>
			<path opacity="0.5" fill="#FFFFFF" d="M87.84,109.419c0-9.324,7.148-16.975,16.264-17.779l-2.75-4.065
				c-1.857-3.068-5.023-3.233-7.031-0.362l-11.703,18.497c-2.01,2.868-1.328,5.216,1.514,5.216h3.773
				C87.867,110.428,87.84,109.927,87.84,109.419z"/>
		</g>
		<path fill="#BFBFBF" d="M87.252,87.142c-0.01,0.645-0.191,1.294-0.564,1.875l-12.514,19.504c-0.367,0.575-0.875,1.006-1.449,1.284
			l0.062,0.364c0.67-0.301,1.262-0.79,1.689-1.453L86.99,89.21c0.424-0.661,0.621-1.402,0.619-2.133L87.252,87.142z"/>
		<path opacity="0.5" fill="#FFFFFF" d="M57.851,93.364c3.647-2.879,8.25-4.604,13.256-4.604c4.934,0,9.475,1.672,13.094,4.477
			l2.205-3.484c2.01-2.867,1.326-5.213-1.514-5.213H57.444c-2.841,0-3.646,2.511-1.787,5.578L57.851,93.364z"/>
	</g>
</g>
</svg>
