<?xml version="1.0" encoding="utf-8"?>
<!-- Generator: Adobe Illustrator 13.0.0, SVG Export Plug-In . SVG Version: 6.00 Build 14948)  -->
<!DOCTYPE svg PUBLIC "-//W3C//DTD SVG 1.1//EN" "http://www.w3.org/Graphics/SVG/1.1/DTD/svg11.dtd">
<svg version="1.1" id="Layer_1" xmlns="http://www.w3.org/2000/svg" xmlns:xlink="http://www.w3.org/1999/xlink" x="0px" y="0px"
	 width="128px" height="128px" viewBox="0 0 128 128" enable-background="new 0 0 128 128" xml:space="preserve">
<g>
	<path fill="#F2F2F2" stroke="#B3B3B3" stroke-width="2" d="M107.253,34.989H20.75c-8.881,0-16.079,7.197-16.079,16.074v45.357
		c0,8.882,7.198,16.078,16.079,16.078h86.503c8.878,0,16.076-7.196,16.076-16.078V51.063
		C123.329,42.187,116.131,34.989,107.253,34.989z"/>
	<linearGradient id="SVGID_1_" gradientUnits="userSpaceOnUse" x1="64.1235" y1="112.6309" x2="64.1235" y2="49.4034">
		<stop  offset="0.0934" style="stop-color:#D1D1D1"/>
		<stop  offset="0.431" style="stop-color:#D9D9D9"/>
		<stop  offset="0.9519" style="stop-color:#EFEFEF"/>
		<stop  offset="0.9725" style="stop-color:#F0F0F0"/>
	</linearGradient>
	<path fill="url(#SVGID_1_)" d="M39.938,77.823c-12.036,0-23.555-1.019-34.189-2.874v21.018c0,8.738,7.08,15.82,15.818,15.82h85.114
		c8.735,0,15.818-7.082,15.818-15.82V56.5C105.368,69.299,74.802,77.823,39.938,77.823z"/>
	<g>
		<g>
			
				<linearGradient id="SVGID_2_" gradientUnits="userSpaceOnUse" x1="-327.3643" y1="913.9199" x2="-347.1751" y2="900.0483" gradientTransform="matrix(1 0 0 1 412.6201 -813.9912)">
				<stop  offset="0" style="stop-color:#181500"/>
				<stop  offset="1" style="stop-color:#5F5D5C"/>
			</linearGradient>
			<polygon fill="url(#SVGID_2_)" points="61.561,91.607 89.143,91.607 89.143,94.38 61.561,94.38 			"/>
		</g>
		<g>
			
				<linearGradient id="SVGID_3_" gradientUnits="userSpaceOnUse" x1="-318.9399" y1="910.3047" x2="-345.5152" y2="891.6965" gradientTransform="matrix(1 0 0 1 412.6201 -813.9912)">
				<stop  offset="0" style="stop-color:#181500"/>
				<stop  offset="1" style="stop-color:#5F5D5C"/>
			</linearGradient>
			<polygon fill="url(#SVGID_3_)" points="61.561,85.622 99.223,85.622 99.223,88.396 61.561,88.396 			"/>
			
				<linearGradient id="SVGID_4_" gradientUnits="userSpaceOnUse" x1="-327.3628" y1="901.9521" x2="-347.1737" y2="888.0805" gradientTransform="matrix(1 0 0 1 412.6201 -813.9912)">
				<stop  offset="0" style="stop-color:#181500"/>
				<stop  offset="1" style="stop-color:#5F5D5C"/>
			</linearGradient>
			<polygon fill="url(#SVGID_4_)" points="61.561,79.639 89.143,79.639 89.143,82.411 61.561,82.411 			"/>
		</g>
	</g>
	<g>
		<g>
			
				<linearGradient id="SVGID_5_" gradientUnits="userSpaceOnUse" x1="-390.4165" y1="921.9277" x2="-393.2548" y2="919.9404" gradientTransform="matrix(1 0 0 1 412.6201 -813.9912)">
				<stop  offset="0" style="stop-color:#C51015"/>
				<stop  offset="1" style="stop-color:#E20A16"/>
			</linearGradient>
			<polygon fill="url(#SVGID_5_)" points="21.066,109.505 16.876,109.505 20.504,104.38 24.693,104.38 			"/>
			
				<linearGradient id="SVGID_6_" gradientUnits="userSpaceOnUse" x1="-375.4263" y1="921.9277" x2="-378.2645" y2="919.9404" gradientTransform="matrix(1 0 0 1 412.6201 -813.9912)">
				<stop  offset="0" style="stop-color:#00B2DE"/>
				<stop  offset="1" style="stop-color:#99DBF6"/>
			</linearGradient>
			<polygon fill="url(#SVGID_6_)" points="36.057,109.505 31.865,109.505 35.494,104.38 39.684,104.38 			"/>
			
				<linearGradient id="SVGID_7_" gradientUnits="userSpaceOnUse" x1="-360.4365" y1="921.9287" x2="-363.2764" y2="919.9403" gradientTransform="matrix(1 0 0 1 412.6201 -813.9912)">
				<stop  offset="0" style="stop-color:#C51015"/>
				<stop  offset="1" style="stop-color:#E20A16"/>
			</linearGradient>
			<polygon fill="url(#SVGID_7_)" points="51.045,109.505 46.854,109.505 50.484,104.38 54.674,104.38 			"/>
			
				<linearGradient id="SVGID_8_" gradientUnits="userSpaceOnUse" x1="-345.4463" y1="921.9277" x2="-348.2837" y2="919.9409" gradientTransform="matrix(1 0 0 1 412.6201 -813.9912)">
				<stop  offset="0" style="stop-color:#00B2DE"/>
				<stop  offset="1" style="stop-color:#99DBF6"/>
			</linearGradient>
			<polygon fill="url(#SVGID_8_)" points="66.035,109.505 61.846,109.505 65.475,104.38 69.664,104.38 			"/>
			
				<linearGradient id="SVGID_9_" gradientUnits="userSpaceOnUse" x1="-330.457" y1="921.9277" x2="-333.2945" y2="919.941" gradientTransform="matrix(1 0 0 1 412.6201 -813.9912)">
				<stop  offset="0" style="stop-color:#C51015"/>
				<stop  offset="1" style="stop-color:#E20A16"/>
			</linearGradient>
			<polygon fill="url(#SVGID_9_)" points="81.025,109.505 76.835,109.505 80.463,104.38 84.652,104.38 			"/>
			
				<linearGradient id="SVGID_10_" gradientUnits="userSpaceOnUse" x1="-315.4658" y1="921.9277" x2="-318.3049" y2="919.9398" gradientTransform="matrix(1 0 0 1 412.6201 -813.9912)">
				<stop  offset="0" style="stop-color:#00B2DE"/>
				<stop  offset="1" style="stop-color:#99DBF6"/>
			</linearGradient>
			<polygon fill="url(#SVGID_10_)" points="96.016,109.505 91.824,109.505 95.454,104.38 99.645,104.38 			"/>
			
				<linearGradient id="SVGID_11_" gradientUnits="userSpaceOnUse" x1="-300.4761" y1="922.0322" x2="-303.3135" y2="920.0454" gradientTransform="matrix(1 0 0 1 412.6201 -813.9912)">
				<stop  offset="0" style="stop-color:#C51015"/>
				<stop  offset="1" style="stop-color:#E20A16"/>
			</linearGradient>
			<polygon fill="url(#SVGID_11_)" points="111.005,109.611 106.814,109.611 110.443,104.482 114.635,104.482 			"/>
		</g>
		<g>
			
				<linearGradient id="SVGID_12_" gradientUnits="userSpaceOnUse" x1="-300.4746" y1="855.6426" x2="-303.3128" y2="853.6552" gradientTransform="matrix(1 0 0 1 412.6201 -813.9912)">
				<stop  offset="0" style="stop-color:#00B2DE"/>
				<stop  offset="1" style="stop-color:#99DBF6"/>
			</linearGradient>
			<polygon fill="url(#SVGID_12_)" points="110.443,38.095 114.635,38.095 111.007,43.22 106.816,43.22 			"/>
			
				<linearGradient id="SVGID_13_" gradientUnits="userSpaceOnUse" x1="-315.4644" y1="855.6426" x2="-318.3034" y2="853.6547" gradientTransform="matrix(1 0 0 1 412.6201 -813.9912)">
				<stop  offset="0" style="stop-color:#C51015"/>
				<stop  offset="1" style="stop-color:#E20A16"/>
			</linearGradient>
			<polygon fill="url(#SVGID_13_)" points="95.454,38.095 99.646,38.095 96.018,43.22 91.827,43.22 			"/>
			
				<linearGradient id="SVGID_14_" gradientUnits="userSpaceOnUse" x1="-330.4541" y1="855.6426" x2="-333.2923" y2="853.6552" gradientTransform="matrix(1 0 0 1 412.6201 -813.9912)">
				<stop  offset="0" style="stop-color:#00B2DE"/>
				<stop  offset="1" style="stop-color:#99DBF6"/>
			</linearGradient>
			<polygon fill="url(#SVGID_14_)" points="80.466,38.095 84.656,38.095 81.025,43.22 76.837,43.22 			"/>
			
				<linearGradient id="SVGID_15_" gradientUnits="userSpaceOnUse" x1="-345.4443" y1="855.6426" x2="-348.2826" y2="853.6552" gradientTransform="matrix(1 0 0 1 412.6201 -813.9912)">
				<stop  offset="0" style="stop-color:#C51015"/>
				<stop  offset="1" style="stop-color:#E20A16"/>
			</linearGradient>
			<polygon fill="url(#SVGID_15_)" points="65.477,38.095 69.666,38.095 66.037,43.22 61.848,43.22 			"/>
			
				<linearGradient id="SVGID_16_" gradientUnits="userSpaceOnUse" x1="-360.4346" y1="855.6426" x2="-363.2727" y2="853.6552" gradientTransform="matrix(1 0 0 1 412.6201 -813.9912)">
				<stop  offset="0" style="stop-color:#00B2DE"/>
				<stop  offset="1" style="stop-color:#99DBF6"/>
			</linearGradient>
			<polygon fill="url(#SVGID_16_)" points="50.484,38.095 54.676,38.095 51.048,43.22 46.857,43.22 			"/>
			
				<linearGradient id="SVGID_17_" gradientUnits="userSpaceOnUse" x1="-375.4229" y1="855.6445" x2="-378.2627" y2="853.6561" gradientTransform="matrix(1 0 0 1 412.6201 -813.9912)">
				<stop  offset="0" style="stop-color:#C51015"/>
				<stop  offset="1" style="stop-color:#E20A16"/>
			</linearGradient>
			<polygon fill="url(#SVGID_17_)" points="35.496,38.095 39.688,38.095 36.057,43.22 31.867,43.22 			"/>
			
				<linearGradient id="SVGID_18_" gradientUnits="userSpaceOnUse" x1="-390.4165" y1="855.5352" x2="-393.2531" y2="853.5489" gradientTransform="matrix(1 0 0 1 412.6201 -813.9912)">
				<stop  offset="0" style="stop-color:#00B2DE"/>
				<stop  offset="1" style="stop-color:#99DBF6"/>
			</linearGradient>
			<polygon fill="url(#SVGID_18_)" points="20.506,37.987 24.695,37.987 21.066,43.114 16.876,43.114 			"/>
		</g>
		<g>
			
				<linearGradient id="SVGID_19_" gradientUnits="userSpaceOnUse" x1="-291.979" y1="899.0205" x2="-299.1082" y2="894.0286" gradientTransform="matrix(1 0 0 1 412.6201 -813.9912)">
				<stop  offset="0" style="stop-color:#C51015"/>
				<stop  offset="1" style="stop-color:#E20A16"/>
			</linearGradient>
			<polygon fill="url(#SVGID_19_)" points="114.616,82.825 114.616,78.46 119.537,82.24 119.537,86.605 			"/>
			
				<linearGradient id="SVGID_20_" gradientUnits="userSpaceOnUse" x1="-292.0786" y1="914.1387" x2="-299.2046" y2="909.149" gradientTransform="matrix(1 0 0 1 412.6201 -813.9912)">
				<stop  offset="0" style="stop-color:#00B2DE"/>
				<stop  offset="1" style="stop-color:#99DBF6"/>
			</linearGradient>
			<polygon fill="url(#SVGID_20_)" points="114.518,97.943 114.518,93.581 119.438,97.355 119.438,101.723 			"/>
			
				<linearGradient id="SVGID_21_" gradientUnits="userSpaceOnUse" x1="-291.877" y1="868.2627" x2="-299.0085" y2="863.269" gradientTransform="matrix(1 0 0 1 412.6201 -813.9912)">
				<stop  offset="0" style="stop-color:#C51015"/>
				<stop  offset="1" style="stop-color:#E20A16"/>
			</linearGradient>
			<polygon fill="url(#SVGID_21_)" points="114.716,52.063 114.716,47.7 119.639,51.481 119.639,55.849 			"/>
			
				<linearGradient id="SVGID_22_" gradientUnits="userSpaceOnUse" x1="-291.7778" y1="883.3789" x2="-298.9062" y2="878.3876" gradientTransform="matrix(1 0 0 1 412.6201 -813.9912)">
				<stop  offset="0" style="stop-color:#00B2DE"/>
				<stop  offset="1" style="stop-color:#99DBF6"/>
			</linearGradient>
			<polygon fill="url(#SVGID_22_)" points="114.816,67.186 114.816,62.819 119.738,66.598 119.738,70.962 			"/>
		</g>
		<g>
			
				<linearGradient id="SVGID_23_" gradientUnits="userSpaceOnUse" x1="-3371.3491" y1="5032.0967" x2="-3364.2185" y2="5037.0898" gradientTransform="matrix(-1 0 0 -1 -3357.2451 5101.4805)">
				<stop  offset="0" style="stop-color:#00B2DE"/>
				<stop  offset="1" style="stop-color:#99DBF6"/>
			</linearGradient>
			<polygon fill="url(#SVGID_23_)" points="12.998,66.596 12.998,70.962 8.077,67.182 8.077,62.813 			"/>
			
				<linearGradient id="SVGID_24_" gradientUnits="userSpaceOnUse" x1="-3371.4458" y1="5047.2129" x2="-3364.3181" y2="5052.2036" gradientTransform="matrix(-1 0 0 -1 -3357.2451 5101.4805)">
				<stop  offset="0" style="stop-color:#C51015"/>
				<stop  offset="1" style="stop-color:#E20A16"/>
			</linearGradient>
			<polygon fill="url(#SVGID_24_)" points="13.098,51.478 13.098,55.842 8.177,52.063 8.177,47.7 			"/>
			
				<linearGradient id="SVGID_25_" gradientUnits="userSpaceOnUse" x1="-3371.248" y1="5001.3359" x2="-3364.1174" y2="5006.3291" gradientTransform="matrix(-1 0 0 -1 -3357.2451 5101.4805)">
				<stop  offset="0" style="stop-color:#00B2DE"/>
				<stop  offset="1" style="stop-color:#99DBF6"/>
			</linearGradient>
			<polygon fill="url(#SVGID_25_)" points="12.898,97.355 12.898,101.723 7.977,97.938 7.977,93.575 			"/>
			
				<linearGradient id="SVGID_26_" gradientUnits="userSpaceOnUse" x1="-3371.1455" y1="5016.4531" x2="-3364.0178" y2="5021.4438" gradientTransform="matrix(-1 0 0 -1 -3357.2451 5101.4805)">
				<stop  offset="0" style="stop-color:#C51015"/>
				<stop  offset="1" style="stop-color:#E20A16"/>
			</linearGradient>
			<polygon fill="url(#SVGID_26_)" points="12.797,82.234 12.797,86.602 7.875,82.822 7.875,78.46 			"/>
		</g>
	</g>
</g>
</svg>
