<?xml version="1.0" encoding="utf-8"?>
<!-- Generator: Adobe Illustrator 13.0.0, SVG Export Plug-In . SVG Version: 6.00 Build 14948)  -->
<!DOCTYPE svg PUBLIC "-//W3C//DTD SVG 1.1//EN" "http://www.w3.org/Graphics/SVG/1.1/DTD/svg11.dtd">
<svg version="1.1" id="Layer_1" xmlns="http://www.w3.org/2000/svg" xmlns:xlink="http://www.w3.org/1999/xlink" x="0px" y="0px"
	 width="128px" height="128px" viewBox="0 0 128 128" enable-background="new 0 0 128 128" xml:space="preserve">
<g>
	
		<linearGradient id="SVGID_1_" gradientUnits="userSpaceOnUse" x1="-362.2866" y1="933.4541" x2="-398.2327" y2="908.2843" gradientTransform="matrix(1 0 0 1 412.6201 -813.9912)">
		<stop  offset="0" style="stop-color:#D5D7D8"/>
		<stop  offset="1" style="stop-color:#5C5F61"/>
	</linearGradient>
	<path fill="url(#SVGID_1_)" d="M49.801,110.935c-14.146-0.149-26.121-5.916-34.092-15.313c-1.975,0.295-3.939,0.588-5.896,0.881
		c9.207,12.029,23.641,19.873,39.928,20.046c0.984,0.012,1.803-1.804,1.812-2.787C51.564,112.776,50.785,110.945,49.801,110.935z"/>
	
		<linearGradient id="SVGID_2_" gradientUnits="userSpaceOnUse" x1="-352.2832" y1="932.9004" x2="-367.7283" y2="922.0858" gradientTransform="matrix(1 0 0 1 412.6201 -813.9912)">
		<stop  offset="0" style="stop-color:#181500"/>
		<stop  offset="1" style="stop-color:#5F5D5C"/>
	</linearGradient>
	<path fill="url(#SVGID_2_)" d="M62.129,112.988c0,3.672-2.977,6.647-6.648,6.647h-7.199c-3.672,0-6.648-2.978-6.648-6.647l0,0
		c0-3.673,2.979-6.647,6.648-6.647h7.199C59.152,106.341,62.129,109.315,62.129,112.988L62.129,112.988z"/>
	<path opacity="0.5" fill="#FFFFFF" d="M48.712,107.969h6.449c3.121,0,5.676,2.401,5.93,5.456c0.008-0.115,0.025-0.228,0.025-0.344
		c0-3.289-2.665-5.955-5.955-5.955h-6.449c-3.286,0-5.955,2.666-5.955,5.955c0,0.115,0.018,0.227,0.025,0.34
		C43.038,110.368,45.596,107.969,48.712,107.969z"/>
	<g>
		
			<linearGradient id="SVGID_3_" gradientUnits="userSpaceOnUse" x1="-139.8857" y1="-663.2881" x2="-214.2643" y2="-611.2079" gradientTransform="matrix(1 0 0 -1 246.7271 -588.7695)">
			<stop  offset="0" style="stop-color:#181500"/>
			<stop  offset="1" style="stop-color:#5F5D5C"/>
		</linearGradient>
		<path fill="url(#SVGID_3_)" d="M111.679,59.028c-0.978,0-2.794-0.794-2.794-1.771c0-26.019-19.13-44.895-45.145-44.895
			c-26.019,0-45.148,18.873-45.148,44.895c0,0.978-1.816,1.771-2.794,1.771c-0.983,0-2.797-0.794-2.797-1.771
			c0-27.978,22.76-50.739,50.735-50.739c27.974,0,50.739,22.762,50.739,50.739C114.476,58.234,112.659,59.028,111.679,59.028
			L111.679,59.028z"/>
		<linearGradient id="SVGID_4_" gradientUnits="userSpaceOnUse" x1="13.9062" y1="63.418" x2="13.9062" y2="98.5054">
			<stop  offset="0" style="stop-color:#5F5D5C"/>
			<stop  offset="1" style="stop-color:#181500"/>
		</linearGradient>
		<path fill="url(#SVGID_4_)" d="M26.664,98.505H16.576c-8.522,0-15.428-6.908-15.428-15.426V78.85
			c0-8.522,6.905-15.432,15.428-15.432h10.088V98.505z"/>
		
			<linearGradient id="SVGID_5_" gradientUnits="userSpaceOnUse" x1="-1141.2837" y1="-910.4331" x2="-1141.2837" y2="-878.1255" gradientTransform="matrix(-1.0859 0 0 1.0859 -1125.7476 1052.0549)">
			<stop  offset="0" style="stop-color:#5F5D5C"/>
			<stop  offset="1" style="stop-color:#181500"/>
		</linearGradient>
		<path fill="url(#SVGID_5_)" d="M100.816,63.415h10.083c8.521,0.003,15.429,6.912,15.429,15.432v4.229
			c0,8.518-6.908,15.423-15.429,15.423h-10.083V63.415z"/>
		
			<linearGradient id="SVGID_6_" gradientUnits="userSpaceOnUse" x1="-1170.2471" y1="-924.6587" x2="-1170.2471" y2="-884.5996" gradientTransform="matrix(-1 0 0 1 -1065.8848 985.5908)">
			<stop  offset="0" style="stop-color:#99DBF6"/>
			<stop  offset="1" style="stop-color:#00B2DE"/>
		</linearGradient>
		<path fill="url(#SVGID_6_)" d="M98.775,64.482c0-1.955,1.589-3.551,3.55-3.551h4.066c1.968,0,3.557,1.596,3.557,3.551v32.959
			c0,1.957-1.593,3.55-3.557,3.55h-4.066c-1.961,0-3.55-1.596-3.55-3.554V64.482z"/>
		
			<linearGradient id="SVGID_7_" gradientUnits="userSpaceOnUse" x1="-223.6108" y1="-648.1875" x2="-223.6108" y2="-687.5381" gradientTransform="matrix(1 0 0 -1 246.7271 -588.7695)">
			<stop  offset="0" style="stop-color:#99DBF6"/>
			<stop  offset="1" style="stop-color:#00B2DE"/>
		</linearGradient>
		<path fill="url(#SVGID_7_)" d="M28.701,97.438c0,1.958-1.589,3.554-3.55,3.554h-4.069c-1.958,0-3.551-1.599-3.551-3.554V64.482
			c0-1.958,1.593-3.551,3.551-3.551h4.069c1.961,0,3.55,1.596,3.55,3.551V97.438z"/>
		<path fill="#00A6C4" d="M25.151,99.882h-4.069c-1.958,0-3.551-1.599-3.551-3.554v1.109c0,1.955,1.593,3.554,3.551,3.554h4.069
			c1.961,0,3.55-1.596,3.55-3.554v-1.109C28.701,98.286,27.112,99.882,25.151,99.882z"/>
		<path fill="#94D9F8" d="M21.268,77.884c2.775-2.979,6.051-3.918,6.984-4.137v-8.698c0-1.798-1.461-3.265-3.265-3.265h-3.741
			c-1.801,0-3.266,1.465-3.266,3.265v20.189C18.354,82.327,19.267,80.029,21.268,77.884z"/>
		<g>
			<path fill="#00A6C4" d="M102.326,99.882h4.07c1.957,0,3.551-1.599,3.551-3.554v1.109c0,1.955-1.594,3.554-3.551,3.554h-4.07
				c-1.961,0-3.549-1.596-3.549-3.554v-1.109C98.777,98.286,100.365,99.882,102.326,99.882z"/>
			<path fill="#94D9F8" d="M106.211,77.884c-2.775-2.979-6.051-3.918-6.984-4.137v-8.698c0-1.798,1.461-3.265,3.264-3.265h3.742
				c1.801,0,3.266,1.465,3.266,3.265v20.189C109.125,82.327,108.211,80.029,106.211,77.884z"/>
		</g>
		<path opacity="0.7" fill="#FFFFFF" d="M15.08,65.197c0,0-5.311,1.115-8.335,4.524C3.63,73.233,3.3,76.978,3.3,76.978
			s1.042-3.683,4.204-6.845S15.08,65.197,15.08,65.197z"/>
		<path opacity="0.7" fill="#FFFFFF" d="M112.727,65.197c0,0,5.311,1.115,8.335,4.524c3.115,3.512,3.445,7.256,3.445,7.256
			s-1.042-3.683-4.204-6.845S112.727,65.197,112.727,65.197z"/>
	</g>
</g>
</svg>
