<?xml version="1.0" encoding="utf-8"?>
<!-- Generator: Adobe Illustrator 13.0.0, SVG Export Plug-In . SVG Version: 6.00 Build 14948)  -->
<!DOCTYPE svg PUBLIC "-//W3C//DTD SVG 1.1//EN" "http://www.w3.org/Graphics/SVG/1.1/DTD/svg11.dtd">
<svg version="1.1" id="Layer_1" xmlns="http://www.w3.org/2000/svg" xmlns:xlink="http://www.w3.org/1999/xlink" x="0px" y="0px"
	 width="128px" height="128px" viewBox="0 0 128 128" enable-background="new 0 0 128 128" xml:space="preserve">
<g>
	<g>
		<linearGradient id="SVGID_1_" gradientUnits="userSpaceOnUse" x1="85.5166" y1="128.8125" x2="40.8424" y2="97.5313">
			<stop  offset="0" style="stop-color:#181500"/>
			<stop  offset="1" style="stop-color:#5F5D5C"/>
		</linearGradient>
		<path fill="url(#SVGID_1_)" d="M65.685,81.572l22.534,33.322c3.484,5.755,1.976,10.465-3.353,10.465h-51.48
			c-5.331,0-6.607-4.401-2.839-9.78l21.949-34.69C56.263,75.509,62.198,75.818,65.685,81.572L65.685,81.572z"/>
		<linearGradient id="SVGID_2_" gradientUnits="userSpaceOnUse" x1="59.4028" y1="110.583" x2="59.4028" y2="98.1709">
			<stop  offset="0" style="stop-color:#181500"/>
			<stop  offset="1" style="stop-color:#5F5D5C"/>
		</linearGradient>
		<path opacity="0.47" fill="url(#SVGID_2_)" d="M59.334,100.763c-5.433,0-10.652-0.915-15.516-2.592l-4.937,7.798
			c6.195,2.956,13.131,4.614,20.452,4.614c7.376,0,14.36-1.679,20.59-4.676l-5.198-7.689
			C69.898,99.867,64.72,100.763,59.334,100.763z"/>
		<linearGradient id="SVGID_3_" gradientUnits="userSpaceOnUse" x1="59.2388" y1="8.7471" x2="59.2388" y2="103.894">
			<stop  offset="0" style="stop-color:#181500"/>
			<stop  offset="1" style="stop-color:#5F5D5C"/>
		</linearGradient>
		<circle fill="url(#SVGID_3_)" cx="59.239" cy="56.321" r="47.573"/>
		<linearGradient id="SVGID_4_" gradientUnits="userSpaceOnUse" x1="59.2388" y1="12.0205" x2="59.2388" y2="107.1675">
			<stop  offset="0" style="stop-color:#181500"/>
			<stop  offset="1" style="stop-color:#5F5D5C"/>
		</linearGradient>
		<circle fill="url(#SVGID_4_)" cx="59.239" cy="59.595" r="47.573"/>
		
			<linearGradient id="SVGID_5_" gradientUnits="userSpaceOnUse" x1="-521.8032" y1="-784.2764" x2="-472.2749" y2="-749.5963" gradientTransform="matrix(-1 0 0 -1 -437.8008 -710.6162)">
			<stop  offset="0" style="stop-color:#181500"/>
			<stop  offset="1" style="stop-color:#5F5D5C"/>
		</linearGradient>
		<circle fill="url(#SVGID_5_)" cx="59.239" cy="56.319" r="30.229"/>
		
			<linearGradient id="SVGID_6_" gradientUnits="userSpaceOnUse" x1="-497.0386" y1="-739.9941" x2="-497.0386" y2="-793.8784" gradientTransform="matrix(-1 0 0 -1 -437.8008 -710.6162)">
			<stop  offset="0" style="stop-color:#181500"/>
			<stop  offset="1" style="stop-color:#5F5D5C"/>
		</linearGradient>
		<circle fill="url(#SVGID_6_)" cx="59.238" cy="56.319" r="26.942"/>
		
			<linearGradient id="SVGID_7_" gradientUnits="userSpaceOnUse" x1="-515.3735" y1="-779.7734" x2="-478.7053" y2="-754.098" gradientTransform="matrix(-1 0 0 -1 -437.8008 -710.6162)">
			<stop  offset="0" style="stop-color:#00B2DE"/>
			<stop  offset="1" style="stop-color:#99DBF6"/>
		</linearGradient>
		<circle fill="url(#SVGID_7_)" cx="59.239" cy="56.319" r="22.379"/>
		<path opacity="0.5" fill="#94D9F8" d="M59.711,54.563c5.838,4.885,13.731,2.205,18.646-0.346
			c-0.723-9.812-8.902-17.549-18.892-17.549c-10.032,0-18.237,7.801-18.902,17.672C45.114,52.104,53.428,49.308,59.711,54.563z"/>
		
			<linearGradient id="SVGID_8_" gradientUnits="userSpaceOnUse" x1="-600.3018" y1="-245.5259" x2="-600.3018" y2="-234.771" gradientTransform="matrix(-1 0 0 -1 -541.0596 -120.1914)">
			<stop  offset="0" style="stop-color:#FFFFFF"/>
			<stop  offset="1" style="stop-color:#000000"/>
		</linearGradient>
		<path opacity="0.46" fill="url(#SVGID_8_)" d="M83.098,121.391H31.582c-1.312,0-2.378-0.269-3.186-0.754
			c-0.258,2.809,1.483,4.697,4.968,4.697h51.515c5.333,0,6.844-4.713,3.354-10.471l-0.191-0.284
			C89.061,118.546,87.238,121.391,83.098,121.391z"/>
		<linearGradient id="SVGID_9_" gradientUnits="userSpaceOnUse" x1="59.2388" y1="105.1953" x2="59.2388" y2="86.4512">
			<stop  offset="0" style="stop-color:#181500"/>
			<stop  offset="0.4321" style="stop-color:#1A1702"/>
			<stop  offset="0.6017" style="stop-color:#1F1C09"/>
			<stop  offset="0.7253" style="stop-color:#282515"/>
			<stop  offset="0.8265" style="stop-color:#363326"/>
			<stop  offset="0.9133" style="stop-color:#47443D"/>
			<stop  offset="0.9901" style="stop-color:#5C5A58"/>
			<stop  offset="1" style="stop-color:#5F5D5C"/>
		</linearGradient>
		<path opacity="0.33" fill="url(#SVGID_9_)" d="M94.257,86.451c-7.726,9.627-21.498,17.259-34.771,17.259
			s-27.541-7.632-35.267-17.259H22.75c8.188,11.33,21.473,18.744,36.488,18.744c15.015,0,28.299-7.414,36.489-18.744H94.257z"/>
		<path fill="#4D4D4D" d="M24.221,30.034c7.724-9.627,21.927-16.999,35.2-16.999s27.11,7.372,34.834,16.999h1.469
			C87.537,18.702,74.253,11.29,59.238,11.29c-15.016,0-28.3,7.412-36.485,18.744H24.221z"/>
	</g>
	<g>
		
			<linearGradient id="SVGID_10_" gradientUnits="userSpaceOnUse" x1="1441.7256" y1="3669.2031" x2="1441.7256" y2="3617.5684" gradientTransform="matrix(-1 0 0 -1 1533.8691 3670.6035)">
			<stop  offset="0" style="stop-color:#80E21B"/>
			<stop  offset="1" style="stop-color:#80B400"/>
		</linearGradient>
		<path fill="url(#SVGID_10_)" stroke="#FFFFFF" stroke-miterlimit="3.8637" d="M110.87,37.004c1.234-1.298,1.882-2.792,1.882-4.612
			c0-1.75-0.65-3.31-1.882-4.607c-1.299-1.232-2.856-1.883-4.606-1.883c-1.818-0.004-3.377,0.648-4.61,1.883l-2.985,3.052
			L98.666,7.889c-0.065-1.815-0.649-3.374-1.947-4.608c-1.233-1.3-2.792-1.881-4.546-1.881c-1.816,0-3.371,0.581-4.604,1.881
			c-1.298,1.232-1.95,2.79-1.95,4.605l0.002,22.948l-2.984-3.052c-1.298-1.234-2.79-1.885-4.61-1.885
			c-1.753,0-3.309,0.65-4.604,1.883c-1.233,1.297-1.884,2.855-1.884,4.609c0,1.818,0.65,3.312,1.884,4.609l14.149,14.09
			c1.236,1.299,2.791,1.946,4.608,1.946c1.753,0,3.308-0.646,4.545-1.944L110.87,37.004z"/>
		<g>
			<path fill="#70993E" d="M87.891,4.333c1.135-1.195,2.564-1.734,4.237-1.734c1.613,0,3.048,0.539,4.183,1.734
				c1.156,1.1,1.696,2.483,1.78,4.09h0.012V7.784c-0.06-1.671-0.597-3.104-1.792-4.241c-1.135-1.194-2.569-1.73-4.183-1.73
				c-1.673,0-3.103,0.536-4.237,1.73c-1.195,1.135-1.795,2.567-1.795,4.239V8.57C86.097,6.899,86.695,5.468,87.891,4.333z"/>
		</g>
	</g>
</g>
</svg>
