<?xml version="1.0" encoding="utf-8"?>
<!-- Generator: Adobe Illustrator 13.0.0, SVG Export Plug-In . SVG Version: 6.00 Build 14948)  -->
<!DOCTYPE svg PUBLIC "-//W3C//DTD SVG 1.1//EN" "http://www.w3.org/Graphics/SVG/1.1/DTD/svg11.dtd">
<svg version="1.1" id="Layer_1" xmlns="http://www.w3.org/2000/svg" xmlns:xlink="http://www.w3.org/1999/xlink" x="0px" y="0px"
	 width="128px" height="128px" viewBox="0 0 128 128" enable-background="new 0 0 128 128" xml:space="preserve">
<g>
	<g>
		
			<radialGradient id="SVGID_1_" cx="63.9023" cy="64.002" r="53.1358" gradientTransform="matrix(1 0 0 1 0 -9.765625e-04)" gradientUnits="userSpaceOnUse">
			<stop  offset="0" style="stop-color:#FAFAFA"/>
			<stop  offset="0.3109" style="stop-color:#F4F4F4"/>
			<stop  offset="0.7262" style="stop-color:#E3E3E3"/>
			<stop  offset="1" style="stop-color:#D4D4D4"/>
		</radialGradient>
		<path fill="url(#SVGID_1_)" stroke="#B3B3B3" stroke-width="2" d="M108.586,22.207v83.586c0,10.285-8.344,18.625-18.637,18.625
			H37.856c-10.295,0-18.637-8.34-18.637-18.625V22.207c0-10.285,8.342-18.623,18.637-18.623h52.093
			C100.242,3.584,108.586,11.922,108.586,22.207L108.586,22.207z"/>
		<path fill="#B3B3B3" d="M90.145,122.092H38.05c-10.295,0-18.637-8.34-18.637-18.625v2.326c0,10.285,8.342,18.625,18.637,18.625
			h52.094c10.293,0,18.637-8.34,18.637-18.625v-2.326C108.781,113.752,100.438,122.092,90.145,122.092z"/>
		<path fill="#FFFFFF" d="M30.385,11.57c2.079-1.734,4.432-2.905,7.665-2.905h52.094c3.234,0,5.586,1.171,7.666,2.905h2.629
			c-2.621-2.646-5.805-4.238-10.295-4.238H38.05c-4.489,0-7.673,1.593-10.294,4.238H30.385z"/>
	</g>
	<g>
		
			<linearGradient id="SVGID_2_" gradientUnits="userSpaceOnUse" x1="-348.6201" y1="877.126" x2="-348.6201" y2="887.5449" gradientTransform="matrix(1 0 0 1 412.6201 -813.9912)">
			<stop  offset="0" style="stop-color:#EB7680"/>
			<stop  offset="1" style="stop-color:#C1282F"/>
		</linearGradient>
		<path fill="url(#SVGID_2_)" stroke="#AD2228" stroke-width="0.5" stroke-miterlimit="3.8637" d="M68.789,71.59
			c0,1.084-0.879,1.963-1.963,1.963h-5.652c-1.084,0-1.963-0.877-1.963-1.963v-6.492c0-1.082,0.879-1.963,1.963-1.963h5.652
			c1.084,0,1.963,0.88,1.963,1.963V71.59z"/>
		<g>
			
				<linearGradient id="SVGID_3_" gradientUnits="userSpaceOnUse" x1="-6216.7114" y1="3322.0049" x2="-6192.8066" y2="3322.0049" gradientTransform="matrix(4.371139e-08 1 -1 4.371139e-08 3361.291 6273.0435)">
				<stop  offset="0" style="stop-color:#EB7680"/>
				<stop  offset="1" style="stop-color:#C1282F"/>
			</linearGradient>
			<path fill="url(#SVGID_3_)" stroke="#AD2228" stroke-width="0.5" stroke-miterlimit="3.8637" d="M33.61,79.145
				c0.754,0.717,1.619,1.092,2.674,1.092c1.016,0,1.92-0.377,2.674-1.092c0.715-0.752,1.092-1.656,1.092-2.672
				c0-1.055-0.377-1.959-1.092-2.674l-1.771-1.731l13.309-0.001c1.053-0.037,1.957-0.376,2.674-1.129
				c0.754-0.716,1.092-1.619,1.092-2.637c0-1.054-0.338-1.955-1.092-2.67c-0.717-0.754-1.619-1.132-2.672-1.132L37.188,64.5
				l1.771-1.73c0.715-0.754,1.092-1.619,1.092-2.674c0-1.018-0.377-1.92-1.092-2.671c-0.754-0.716-1.656-1.093-2.674-1.093
				c-1.055,0-1.922,0.377-2.674,1.093l-8.172,8.206c-0.752,0.718-1.129,1.619-1.129,2.674c0,1.016,0.375,1.918,1.127,2.635
				L33.61,79.145z"/>
			<g>
				<path opacity="0.8" fill="#FFFFFF" d="M34.338,78.393l-7.604-7.637c-0.701-0.668-1.049-1.508-1.049-2.453
					c0-0.98,0.35-1.82,1.049-2.488l7.607-7.639c0.617-0.588,0.285-0.832-0.668,0l-7.607,7.639c-0.701,0.668-1.051,1.508-1.051,2.488
					c0,0.945,0.35,1.785,1.049,2.453l7.607,7.637C34.608,79.337,34.958,78.98,34.338,78.393z"/>
			</g>
		</g>
		<g>
			
				<linearGradient id="SVGID_4_" gradientUnits="userSpaceOnUse" x1="-6216.7114" y1="-2239.0771" x2="-6192.8066" y2="-2239.0771" gradientTransform="matrix(-4.375628e-08 1 1 4.375628e-08 2327.791 6273.0435)">
				<stop  offset="0" style="stop-color:#EB7680"/>
				<stop  offset="1" style="stop-color:#C1282F"/>
			</linearGradient>
			<path fill="url(#SVGID_4_)" stroke="#AD2228" stroke-width="0.5" stroke-miterlimit="3.8637" d="M102.561,70.939
				c0.752-0.717,1.129-1.619,1.129-2.635c0-1.055-0.377-1.956-1.131-2.674l-8.17-8.206c-0.754-0.716-1.621-1.093-2.676-1.093
				c-1.018,0-1.92,0.377-2.672,1.093c-0.715,0.751-1.094,1.653-1.094,2.671c0,1.055,0.379,1.92,1.094,2.674l1.77,1.73l-13.307-0.001
				c-1.053,0-1.957,0.378-2.674,1.132c-0.752,0.715-1.092,1.616-1.092,2.67c0,1.018,0.34,1.921,1.092,2.637
				c0.717,0.753,1.621,1.092,2.674,1.129l13.309,0.001l-1.771,1.731c-0.713,0.715-1.092,1.619-1.09,2.674
				c0,1.016,0.377,1.92,1.09,2.672c0.754,0.715,1.658,1.092,2.674,1.092c1.055,0,1.922-0.375,2.676-1.092L102.561,70.939z"/>
			<g>
				<path opacity="0.8" fill="#FFFFFF" d="M93.66,78.393l7.605-7.637c0.699-0.668,1.049-1.508,1.049-2.453
					c0-0.98-0.352-1.82-1.051-2.488l-7.607-7.639c-0.615-0.588-0.283-0.832,0.67,0l7.605,7.639c0.701,0.668,1.051,1.508,1.051,2.488
					c0,0.945-0.35,1.785-1.049,2.453l-7.605,7.637C93.391,79.337,93.041,78.98,93.66,78.393z"/>
			</g>
		</g>
	</g>
</g>
</svg>
