<?xml version="1.0" encoding="utf-8"?>
<!-- Generator: Adobe Illustrator 13.0.0, SVG Export Plug-In . SVG Version: 6.00 Build 14948)  -->
<!DOCTYPE svg PUBLIC "-//W3C//DTD SVG 1.1//EN" "http://www.w3.org/Graphics/SVG/1.1/DTD/svg11.dtd">
<svg version="1.1" id="Layer_1" xmlns="http://www.w3.org/2000/svg" xmlns:xlink="http://www.w3.org/1999/xlink" x="0px" y="0px"
	 width="128px" height="128px" viewBox="0 0 128 128" enable-background="new 0 0 128 128" xml:space="preserve">
<g>
	<g>
		<g>
			
				<linearGradient id="SVGID_1_" gradientUnits="userSpaceOnUse" x1="-209.0132" y1="97.0391" x2="-209.0132" y2="131.8301" gradientTransform="matrix(1 0 0 -1 289.2754 151.834)">
				<stop  offset="0" style="stop-color:#ECEEF0"/>
				<stop  offset="0.2485" style="stop-color:#E8E8E9"/>
				<stop  offset="0.5636" style="stop-color:#EEEFF2"/>
				<stop  offset="0.9212" style="stop-color:#D4D5D6"/>
			</linearGradient>
			<path fill="url(#SVGID_1_)" stroke="#B3B3B3" stroke-width="2" d="M109.539,44.46c0,5.707-4.627,10.334-10.334,10.334H61.317
				c-5.707,0-10.332-4.627-10.332-10.334V30.337c0-5.707,4.625-10.333,10.332-10.333h37.888c5.707,0,10.334,4.626,10.334,10.333
				V44.46z"/>
			<path opacity="0.75" fill="#F2F2F2" enable-background="new    " d="M56.403,23.465c1.098-1.266,2.715-2.071,4.52-2.071H99.6
				c1.805,0,3.422,0.806,4.521,2.071h0.766c-1.2-1.616-3.118-2.671-5.284-2.671h-38.68c-2.164,0-4.084,1.055-5.283,2.671H56.403z"/>
			
				<linearGradient id="SVGID_2_" gradientUnits="userSpaceOnUse" x1="-225.2754" y1="123.377" x2="-225.2754" y2="32.834" gradientTransform="matrix(1 0 0 -1 289.2754 151.834)">
				<stop  offset="0" style="stop-color:#9A9A9A"/>
				<stop  offset="1" style="stop-color:#DEDEDE"/>
			</linearGradient>
			<path fill="url(#SVGID_2_)" d="M21.661,28.458h84.679c10.42,0,18.867,8.453,18.867,18.882v52.779
				c0,10.426-8.447,18.881-18.867,18.881H21.661c-10.421,0-18.868-8.455-18.868-18.881V47.34
				C2.792,36.911,11.24,28.458,21.661,28.458L21.661,28.458z"/>
			
				<linearGradient id="SVGID_3_" gradientUnits="userSpaceOnUse" x1="-225.2759" y1="84.6055" x2="-225.2759" y2="117.9355" gradientTransform="matrix(1 0 0 -1 289.2754 151.834)">
				<stop  offset="0" style="stop-color:#999999"/>
				<stop  offset="1" style="stop-color:#CCCCCC"/>
			</linearGradient>
			<path fill="url(#SVGID_3_)" d="M104.533,33.898H23.465c-9.974,0-18.062,7.899-18.062,17.646v15.685
				c0-9.747,8.088-17.645,18.062-17.645h81.068c9.975,0,18.062,7.897,18.062,17.645V51.544
				C122.596,41.798,114.508,33.898,104.533,33.898z"/>
			<path fill="#FFFFFF" d="M104.52,32.916H23.481c-9.972,0-18.056,8.09-18.056,18.069v1.077c0-9.979,8.084-18.069,18.056-18.069
				h81.039c9.972,0,18.056,8.09,18.056,18.069v-1.077C122.574,41.006,114.49,32.916,104.52,32.916z"/>
			<path fill="#999999" d="M106.338,116.266H21.659c-10.421,0-18.866-8.453-18.866-18.881v2.732c0,10.43,8.445,18.883,18.866,18.883
				h84.679c10.42,0,18.869-8.453,18.869-18.883v-2.732C125.207,107.812,116.758,116.266,106.338,116.266z"/>
		</g>
		<g>
			<g>
				<g>
					
						<linearGradient id="SVGID_4_" gradientUnits="userSpaceOnUse" x1="6127.0703" y1="729.5518" x2="6127.0703" y2="787.5166" gradientTransform="matrix(-1 0 0 1 6189.0605 -677.4971)">
						<stop  offset="0" style="stop-color:#80E21B"/>
						<stop  offset="1" style="stop-color:#80B400"/>
					</linearGradient>
					<path fill="url(#SVGID_4_)" stroke="#70993E" stroke-miterlimit="3.8637" d="M83.014,92.021
						c1.383-1.457,2.109-3.133,2.109-5.176c0-1.966-0.729-3.716-2.109-5.175c-1.459-1.383-3.209-2.112-5.172-2.112
						c-2.043-0.002-3.791,0.729-5.176,2.112l-3.35,3.427L69.311,59.34c-0.07-2.04-0.728-3.788-2.185-5.173
						c-1.385-1.459-3.133-2.114-5.102-2.114c-2.039,0-3.785,0.654-5.17,2.114c-1.457,1.382-2.188,3.131-2.188,5.171l0.002,25.758
						l-3.352-3.427c-1.457-1.385-3.133-2.114-5.174-2.114c-1.967,0-3.717,0.729-5.17,2.112c-1.385,1.457-2.115,3.205-2.115,5.174
						c0,2.041,0.73,3.72,2.115,5.177l15.885,15.815c1.385,1.457,3.131,2.187,5.17,2.187c1.969,0,3.715-0.728,5.104-2.185
						L83.014,92.021z"/>
					<g>
						<path fill="#70993E" d="M83.014,90.633l-15.881,15.812c-1.389,1.457-3.135,2.184-5.104,2.184c-2.039,0-3.785-0.729-5.17-2.186
							L40.974,90.627c-1.223-1.285-1.932-2.742-2.082-4.471c-0.021,0.225-0.033,0.453-0.033,0.686c0,2.041,0.73,3.719,2.115,5.176
							l15.885,15.816c1.385,1.457,3.131,2.186,5.17,2.186c1.969,0,3.715-0.727,5.104-2.184l15.881-15.814
							c1.383-1.457,2.109-3.133,2.109-5.176c0-0.23-0.01-0.459-0.031-0.684C84.941,87.889,84.234,89.346,83.014,90.633z"/>
					</g>
				</g>
			</g>
		</g>
	</g>
	<g opacity="0.5">
		<path fill="#FFFFFF" d="M57.694,55.75c1.113-1.172,2.514-1.699,4.152-1.699c1.582,0,2.985,0.527,4.097,1.699
			c1.135,1.079,1.66,2.432,1.742,4.006h0.013V59.13c-0.06-1.636-0.585-3.041-1.755-4.153c-1.111-1.171-2.515-1.696-4.097-1.696
			c-1.639,0-3.039,0.525-4.152,1.696c-1.169,1.11-1.756,2.515-1.756,4.152v0.772C55.94,58.265,56.525,56.86,57.694,55.75z"/>
	</g>
</g>
</svg>
