<?xml version="1.0" encoding="utf-8"?>
<!-- Generator: Adobe Illustrator 13.0.0, SVG Export Plug-In . SVG Version: 6.00 Build 14948)  -->
<!DOCTYPE svg PUBLIC "-//W3C//DTD SVG 1.1//EN" "http://www.w3.org/Graphics/SVG/1.1/DTD/svg11.dtd">
<svg version="1.1" id="Layer_1" xmlns="http://www.w3.org/2000/svg" xmlns:xlink="http://www.w3.org/1999/xlink" x="0px" y="0px"
	 width="128px" height="128px" viewBox="0 0 128 128" enable-background="new 0 0 128 128" xml:space="preserve">
<g>
	<g>
		<g>
			<linearGradient id="SVGID_1_" gradientUnits="userSpaceOnUse" x1="80.2617" y1="54.7949" x2="80.2617" y2="20.0049">
				<stop  offset="0" style="stop-color:#ECEEF0"/>
				<stop  offset="0.2485" style="stop-color:#E8E8E9"/>
				<stop  offset="0.5636" style="stop-color:#EEEFF2"/>
				<stop  offset="0.9212" style="stop-color:#D4D5D6"/>
			</linearGradient>
			<path fill="url(#SVGID_1_)" stroke="#B3B3B3" stroke-width="2" d="M109.539,44.461c0,5.707-4.627,10.334-10.334,10.334H61.316
				c-5.707,0-10.332-4.627-10.332-10.334V30.338c0-5.707,4.625-10.333,10.332-10.333h37.889c5.707,0,10.334,4.626,10.334,10.333
				V44.461z"/>
			<path opacity="0.75" fill="#F2F2F2" d="M56.402,23.466c1.098-1.266,2.715-2.071,4.52-2.071H99.6c1.805,0,3.422,0.806,4.52,2.071
				h0.766c-1.201-1.616-3.119-2.671-5.285-2.671H60.922c-2.164,0-4.084,1.055-5.283,2.671H56.402z"/>
			<linearGradient id="SVGID_2_" gradientUnits="userSpaceOnUse" x1="63.9995" y1="28.459" x2="63.9995" y2="119">
				<stop  offset="0" style="stop-color:#9A9A9A"/>
				<stop  offset="1" style="stop-color:#DEDEDE"/>
			</linearGradient>
			<path fill="url(#SVGID_2_)" d="M21.66,28.459h84.68c10.42,0,18.867,8.453,18.867,18.882v52.778
				c0,10.428-8.447,18.881-18.867,18.881H21.66c-10.421,0-18.868-8.453-18.868-18.881V47.341
				C2.792,36.912,11.239,28.459,21.66,28.459L21.66,28.459z"/>
			<linearGradient id="SVGID_3_" gradientUnits="userSpaceOnUse" x1="63.9995" y1="67.2295" x2="63.9995" y2="33.8999">
				<stop  offset="0" style="stop-color:#999999"/>
				<stop  offset="1" style="stop-color:#CCCCCC"/>
			</linearGradient>
			<path fill="url(#SVGID_3_)" d="M104.533,33.899H23.465c-9.974,0-18.062,7.899-18.062,17.646v15.685
				c0-9.747,8.088-17.645,18.062-17.645h81.068c9.975,0,18.062,7.897,18.062,17.645V51.545
				C122.596,41.799,114.508,33.899,104.533,33.899z"/>
			<path fill="#FFFFFF" d="M104.52,32.917H23.48c-9.972,0-18.056,8.09-18.056,18.069v1.077c0-9.979,8.084-18.069,18.056-18.069
				h81.039c9.971,0,18.055,8.09,18.055,18.069v-1.077C122.574,41.007,114.49,32.917,104.52,32.917z"/>
			<path fill="#999999" d="M106.338,116.268h-84.68c-10.421,0-18.866-8.453-18.866-18.883v2.734
				c0,10.428,8.445,18.881,18.866,18.881h84.68c10.42,0,18.869-8.453,18.869-18.881v-2.734
				C125.207,107.814,116.758,116.268,106.338,116.268z"/>
		</g>
		<g>
			<linearGradient id="SVGID_4_" gradientUnits="userSpaceOnUse" x1="64.0005" y1="111.2803" x2="64.0005" y2="65.5253">
				<stop  offset="0" style="stop-color:#00B2DE"/>
				<stop  offset="1" style="stop-color:#99DBF6"/>
			</linearGradient>
			<path fill="url(#SVGID_4_)" d="M94.459,55.864H33.545c-6.256,0-11.324,5.07-11.324,11.322v31.939
				c0,6.254,5.068,11.322,11.324,11.322h60.914c6.252,0,11.32-5.068,11.32-11.322V67.186
				C105.779,60.934,100.711,55.864,94.459,55.864z"/>
			<path fill="none" stroke="#FFFFFF" stroke-width="2" stroke-miterlimit="3.8637" d="M23.584,61.799l25.369,25.377
				c0,0,8.08,9.566,15.348,9.566s15.752-9.564,15.752-9.564l24.396-25.32"/>
			
				<line fill="none" stroke="#FFFFFF" stroke-width="2" stroke-miterlimit="3.8637" x1="25.553" y1="107.145" x2="47.867" y2="86.09"/>
			
				<line fill="none" stroke="#FFFFFF" stroke-width="2" stroke-miterlimit="3.8637" x1="81.199" y1="85.988" x2="102.447" y2="107.15"/>
			<path fill="#FFFFFF" d="M27.074,61.029c1.689-1.948,4.178-3.187,6.953-3.187h59.502c2.773,0,5.264,1.239,6.953,3.187h1.176
				c-1.848-2.486-4.801-4.108-8.129-4.108H34.027c-3.328,0-6.281,1.622-8.129,4.108H27.074z"/>
			<path fill="#059CC2" d="M94.459,108.57H33.545c-6.256,0-11.324-5.068-11.324-11.322v1.877c0,6.254,5.068,11.322,11.324,11.322
				h60.914c6.252,0,11.32-5.068,11.32-11.322v-1.877C105.779,103.502,100.711,108.57,94.459,108.57z"/>
		</g>
	</g>
	<g>
		
			<linearGradient id="SVGID_5_" gradientUnits="userSpaceOnUse" x1="1213.7285" y1="4381.9688" x2="1213.7285" y2="4334.6484" gradientTransform="matrix(-1 0 0 -1 1316.2246 4425.0469)">
			<stop  offset="0" style="stop-color:#80E21B"/>
			<stop  offset="1" style="stop-color:#80B400"/>
		</linearGradient>
		<path fill="url(#SVGID_5_)" stroke="#70990C" stroke-miterlimit="3.8637" d="M85.337,57.77c-1.132,1.189-1.725,2.559-1.725,4.226
			c0,1.604,0.596,3.034,1.725,4.223c1.189,1.129,2.617,1.725,4.221,1.725c1.667,0.004,3.095-0.594,4.226-1.725l2.735-2.796
			l0.002,21.029c0.06,1.664,0.595,3.092,1.784,4.223c1.131,1.191,2.559,1.725,4.166,1.725c1.665,0,3.09-0.533,4.22-1.725
			c1.189-1.129,1.787-2.557,1.787-4.221l-0.002-21.029l2.735,2.796c1.189,1.131,2.557,1.727,4.225,1.727
			c1.606,0,3.032-0.596,4.22-1.725c1.131-1.189,1.727-2.617,1.727-4.224c0-1.666-0.596-3.035-1.727-4.226l-12.967-12.911
			c-1.133-1.189-2.558-1.784-4.223-1.784c-1.606,0-3.031,0.593-4.165,1.782L85.337,57.77z"/>
		<g>
			<path fill="#70993E" d="M106.69,87.887c-1.13,1.191-2.555,1.729-4.22,1.729c-1.607,0-3.035-0.537-4.166-1.729
				c-1.152-1.096-1.688-2.471-1.772-4.072h-0.012v0.637c0.06,1.664,0.595,3.092,1.784,4.223c1.131,1.191,2.559,1.725,4.166,1.725
				c1.665,0,3.09-0.533,4.22-1.725c1.189-1.129,1.787-2.557,1.787-4.221v-0.785C108.477,85.332,107.88,86.758,106.69,87.887z"/>
		</g>
		<g>
			<path opacity="0.8" fill="#FFFFFF" d="M86.524,58.923l12.067-12.017c1.055-1.106,2.382-1.657,3.875-1.657
				c1.55,0,2.878,0.554,3.932,1.66l12.069,12.019c0.93,0.976,1.316,0.45,0-1.057l-12.069-12.019c-1.054-1.107-2.382-1.66-3.932-1.66
				c-1.493,0-2.82,0.552-3.875,1.658L86.524,57.868C85.032,59.348,85.596,59.901,86.524,58.923z"/>
		</g>
	</g>
</g>
</svg>
