<?xml version="1.0" encoding="utf-8"?>
<!-- Generator: Adobe Illustrator 13.0.0, SVG Export Plug-In . SVG Version: 6.00 Build 14948)  -->
<!DOCTYPE svg PUBLIC "-//W3C//DTD SVG 1.1//EN" "http://www.w3.org/Graphics/SVG/1.1/DTD/svg11.dtd">
<svg version="1.1" id="Layer_1" xmlns="http://www.w3.org/2000/svg" xmlns:xlink="http://www.w3.org/1999/xlink" x="0px" y="0px"
	 width="128px" height="128px" viewBox="0 0 128 128" enable-background="new 0 0 128 128" xml:space="preserve">
<g>
	<g>
		
			<linearGradient id="SVGID_1_" gradientUnits="userSpaceOnUse" x1="2335.1514" y1="-7061.0239" x2="2335.1514" y2="-7101.4951" gradientTransform="matrix(-0.368 0.0913 0.0893 0.3684 1579.5527 2471.824)">
			<stop  offset="0" style="stop-color:#5F5D5C"/>
			<stop  offset="1" style="stop-color:#181500"/>
		</linearGradient>
		<path fill="url(#SVGID_1_)" d="M73.508,88.574l37.012-9.186c-0.079-0.339-0.274-1.448,0.187-2.571
			c-1.138-0.603-2.105-1.74-2.225-2.202c-0.399-1.661,1.011-3.14,1.011-3.14s-2.054-0.996-2.355-2.572
			c-0.08-0.415,0.168-1.58,0.664-2.691c-0.795-0.481-0.984-1.94-1.012-2.277L65.162,74.06c-0.654,0.162-1.051,0.817-0.89,1.463
			c0,0,4.235,1.646,5.342,6.215c1.103,4.562,2.429,5.956,2.429,5.956C72.207,88.341,72.857,88.734,73.508,88.574z"/>
		
			<linearGradient id="SVGID_2_" gradientUnits="userSpaceOnUse" x1="2269.8105" y1="-7065.77" x2="2273.3123" y2="-7080.9434" gradientTransform="matrix(-0.368 0.0913 0.0893 0.3684 1579.5527 2471.824)">
			<stop  offset="0" style="stop-color:#FAEDB0"/>
			<stop  offset="1" style="stop-color:#FFC76E"/>
		</linearGradient>
		<path fill="url(#SVGID_2_)" d="M106.778,63.86c0,0,0.003,0.031,0.011,0.072l0.131-0.029L106.778,63.86z"/>
		
			<linearGradient id="SVGID_3_" gradientUnits="userSpaceOnUse" x1="2279.3438" y1="-7065.0854" x2="2282.8323" y2="-7080.2031" gradientTransform="matrix(-0.368 0.0913 0.0893 0.3684 1579.5527 2471.824)">
			<stop  offset="0" style="stop-color:#FAEDB0"/>
			<stop  offset="1" style="stop-color:#FFC76E"/>
		</linearGradient>
		<path fill="url(#SVGID_3_)" d="M110.542,79.501l0.161-0.161l-0.184,0.046C110.531,79.456,110.542,79.501,110.542,79.501z"/>
		<path fill="#F6921E" d="M107.802,66.208c-0.495,1.111-0.744,2.277-0.664,2.691c0.301,1.58,2.355,2.572,2.355,2.572
			s-1.405,1.479-1.011,3.138c0.119,0.464,1.087,1.603,2.225,2.202c-0.463,1.122-0.266,2.233-0.188,2.572l0.184-0.045l1.65-1.58
			c-0.004-0.024-0.001-0.047-0.009-0.07l-3.179-13.102c0-0.015-0.006-0.029-0.014-0.035l-2.236-0.654l-0.126,0.031
			C106.817,64.269,107.006,65.728,107.802,66.208z"/>
		
			<linearGradient id="SVGID_4_" gradientUnits="userSpaceOnUse" x1="2266.5469" y1="-7068.3018" x2="2268.354" y2="-7080.9487" gradientTransform="matrix(-0.368 0.0913 0.0893 0.3684 1579.5527 2471.824)">
			<stop  offset="0" style="stop-color:#FAEDB0"/>
			<stop  offset="1" style="stop-color:#FFC76E"/>
		</linearGradient>
		<path fill="url(#SVGID_4_)" d="M109.492,71.475c0,0-1.405,1.478-1.011,3.141c0.12,0.461,1.087,1.601,2.226,2.198
			c-0.465,1.123-0.266,2.234-0.188,2.575l0.184-0.046l1.65-1.58l4.015-3.842l1.155-1.111l-0.752-3.13l-0.758-3.126l-1.533-0.449
			l-5.328-1.549l-2.236-0.653l-0.127,0.03c0.029,0.333,0.217,1.798,1.012,2.278c-0.495,1.11-0.744,2.277-0.664,2.69
			C107.438,70.479,109.492,71.475,109.492,71.475z"/>
		
			<linearGradient id="SVGID_5_" gradientUnits="userSpaceOnUse" x1="2249.7217" y1="-7079.0527" x2="2247.4719" y2="-7071.459" gradientTransform="matrix(-0.368 0.0913 0.0893 0.3684 1579.5527 2471.824)">
			<stop  offset="0" style="stop-color:#231F20"/>
			<stop  offset="1" style="stop-color:#FFFFFF"/>
		</linearGradient>
		<polygon fill="url(#SVGID_5_)" points="117.525,72.801 122.184,68.333 116.013,66.547 116.015,66.548 116.771,69.678 		"/>
	</g>
	
		<linearGradient id="SVGID_6_" gradientUnits="userSpaceOnUse" x1="-715.2036" y1="-2770.1855" x2="-677.489" y2="-2814.7671" gradientTransform="matrix(0.6334 0.7737 0.7739 -0.6334 2662.6016 -1192.545)">
		<stop  offset="0" style="stop-color:#5F5D5C"/>
		<stop  offset="1" style="stop-color:#181500"/>
	</linearGradient>
	<path fill="url(#SVGID_6_)" d="M43.865,59.605c-1.547,2.644-0.018,4.884,3.387,4.981l5.817,0.158
		c3.409,0.098,7.075-2.182,8.148-5.064l15.12-40.664c1.074-2.882,0.936-6.454-0.305-7.938c-1.237-1.487-3.518-0.531-5.064,2.108
		L43.865,59.605L43.865,59.605z"/>
	
		<linearGradient id="SVGID_7_" gradientUnits="userSpaceOnUse" x1="-665.748" y1="-2823.7959" x2="-726.6992" y2="-2781.1172" gradientTransform="matrix(0.6334 0.7737 0.7739 -0.6334 2662.6016 -1192.545)">
		<stop  offset="0" style="stop-color:#5F5D5C"/>
		<stop  offset="1" style="stop-color:#181500"/>
	</linearGradient>
	<path fill="url(#SVGID_7_)" d="M63.36,76.94c0.373,3.039-2.868,4.464-6.039,3.197l-6.183-14.984
		c-3.166-1.266-5.623-4.813-5.463-7.885l2.271-43.328c0.159-3.067,1.703-6.288,3.432-7.156c1.727-0.869,3.441,0.909,3.805,3.951
		l6.445,53.355L63.36,76.94z"/>
	
		<linearGradient id="SVGID_8_" gradientUnits="userSpaceOnUse" x1="-1033.0454" y1="-1836.9619" x2="-979.3016" y2="-1900.4908" gradientTransform="matrix(0.7635 0.6457 0.6459 -0.7635 2027.1545 -696.8359)">
		<stop  offset="0" style="stop-color:#E20A16"/>
		<stop  offset="1" style="stop-color:#B51015"/>
	</linearGradient>
	<path fill="url(#SVGID_8_)" d="M8.911,43.866c-5.25,6.205-4.476,15.492,1.731,20.742l63.563,53.759
		c6.207,5.25,15.495,4.477,20.746-1.729l0,0c5.25-6.207,4.474-15.494-1.731-20.742L29.656,42.134
		C23.45,36.884,14.162,37.66,8.911,43.866L8.911,43.866z"/>
	<path opacity="0.3" fill="#FFFFFF" d="M11.794,61.681l9.14,7.73c5.824-3.254,12.531-5.116,19.677-5.116
		c4.821,0,9.444,0.848,13.731,2.397L27.068,43.624c-4.985-4.217-12.447-3.592-16.665,1.393C6.186,50.002,6.808,57.462,11.794,61.681
		z"/>
	<path opacity="0.3" fill="#FFFFFF" d="M53.619,45.049l-1.926-29.927c0.025-2.099-0.425-3.774,0.664-4.431
		c1.088-0.657,1,2.078,1.311,4.14l4.277,35.413C57.945,50.244,53.594,47.15,53.619,45.049z"/>
	<g>
		<g>
			
				<linearGradient id="SVGID_9_" gradientUnits="userSpaceOnUse" x1="-683.5029" y1="-2809.2612" x2="-690.1992" y2="-2809.2612" gradientTransform="matrix(0.6334 0.7737 0.7739 -0.6334 2662.6016 -1192.545)">
				<stop  offset="0" style="stop-color:#C51015"/>
				<stop  offset="1" style="stop-color:#E20A16"/>
			</linearGradient>
			<path id="SVGID_17_" fill="url(#SVGID_9_)" d="M50.072,55.288c0.053-1.848,1.597-3.299,3.445-3.245
				c1.848,0.052,3.301,1.595,3.245,3.443c-0.05,1.851-1.598,3.304-3.443,3.252C51.471,58.687,50.016,57.142,50.072,55.288
				L50.072,55.288z"/>
		</g>
	</g>
</g>
</svg>
