<?xml version="1.0" encoding="utf-8"?>
<!-- Generator: Adobe Illustrator 13.0.0, SVG Export Plug-In . SVG Version: 6.00 Build 14948)  -->
<!DOCTYPE svg PUBLIC "-//W3C//DTD SVG 1.1//EN" "http://www.w3.org/Graphics/SVG/1.1/DTD/svg11.dtd">
<svg version="1.1" id="Layer_1" xmlns="http://www.w3.org/2000/svg" xmlns:xlink="http://www.w3.org/1999/xlink" x="0px" y="0px"
	 width="128px" height="128px" viewBox="0 0 128 128" enable-background="new 0 0 128 128" xml:space="preserve">
<g>
	
		<radialGradient id="SVGID_1_" cx="-233.499" cy="56.8193" r="35.9954" gradientTransform="matrix(1 0 0 -1 289.2754 151.834)" gradientUnits="userSpaceOnUse">
		<stop  offset="0" style="stop-color:#FAFAFA"/>
		<stop  offset="0.3629" style="stop-color:#E5E5E5"/>
		<stop  offset="1" style="stop-color:#C4C4C4"/>
	</radialGradient>
	<path fill="url(#SVGID_1_)" stroke="#808080" d="M64.147,69.514l29.275,43.288c4.525,7.474,2.566,13.593-4.355,13.593H22.192
		c-6.92,0-8.581-5.717-3.686-12.709l28.511-45.059C51.913,61.636,59.62,62.037,64.147,69.514L64.147,69.514z"/>
	
		<radialGradient id="SVGID_2_" cx="-234.2793" cy="121.2861" r="27.5346" gradientTransform="matrix(1 0 0 -1 289.2754 151.834)" gradientUnits="userSpaceOnUse">
		<stop  offset="0" style="stop-color:#FAFAFA"/>
		<stop  offset="0.4142" style="stop-color:#E3E3E3"/>
		<stop  offset="1" style="stop-color:#C7C7C7"/>
	</radialGradient>
	<path fill="url(#SVGID_2_)" stroke="#808080" d="M52.899,32.739l29.229-11.398C78.324,10.44,67.965,2.617,55.777,2.617
		c-15.416,0-27.914,12.503-27.914,27.931c0,15.426,12.498,27.931,27.913,27.931c5.519,0,10.662-1.61,14.995-4.378L52.899,32.739z"/>
	
		<linearGradient id="SVGID_3_" gradientUnits="userSpaceOnUse" x1="-244.0771" y1="135.4883" x2="-244.0771" y2="120.9326" gradientTransform="matrix(1 0 0 -1 289.2754 151.834)">
		<stop  offset="0" style="stop-color:#EC008C"/>
		<stop  offset="1" style="stop-color:#C40075"/>
	</linearGradient>
	<path fill="url(#SVGID_3_)" d="M37.925,23.623c0-4.019,3.256-7.277,7.273-7.277c4.017,0,7.273,3.258,7.273,7.277
		c0,4.021-3.256,7.279-7.273,7.279C41.181,30.902,37.925,27.644,37.925,23.623L37.925,23.623z"/>
	<path fill="#EC8690" d="M44.961,23.453c2.005,1.673,4.713,0.753,6.401-0.12c-0.25-3.369-3.057-6.023-6.484-6.023
		c-3.446,0-6.259,2.677-6.488,6.063C39.951,22.607,42.807,21.649,44.961,23.453z"/>
	<path fill="#F2F2F2" d="M34.644,16.084C39.304,9.685,47.875,4.781,55.885,4.781c8.011,0,16.361,4.904,21.022,11.302h0.886
		C72.854,8.552,64.837,3.625,55.777,3.625c-9.063,0-17.078,4.928-22.018,12.46H34.644z"/>
	<path opacity="0.5" fill="#FFFFFF" enable-background="new    " d="M32.651,121.773c0-21.223,16.27-38.637,37.017-40.469
		l-6.257-9.254c-4.23-6.982-11.433-7.359-16.007-0.826l-26.639,42.104c-4.574,6.525-3.023,11.871,3.444,11.871h8.595
		C32.709,124.066,32.651,122.928,32.651,121.773z"/>
	
		<linearGradient id="SVGID_4_" gradientUnits="userSpaceOnUse" x1="-1867.4258" y1="924.1562" x2="-1867.4258" y2="901.6045" gradientTransform="matrix(0.7629 -5.611634e-05 -1.617656e-05 -0.7628 1500.4268 735.1525)">
		<stop  offset="0" style="stop-color:#80E21B"/>
		<stop  offset="1" style="stop-color:#80B400"/>
	</linearGradient>
	<path fill="url(#SVGID_4_)" d="M67.15,38.914c0-4.752,3.851-8.603,8.602-8.603c4.75,0,8.603,3.848,8.603,8.6
		c0,4.752-3.853,8.603-8.603,8.603C71.003,47.513,67.15,43.664,67.15,38.914L67.15,38.914z"/>
	
		<linearGradient id="SVGID_5_" gradientUnits="userSpaceOnUse" x1="-1841.8877" y1="936.1748" x2="-1841.8877" y2="913.6211" gradientTransform="matrix(0.7629 -5.611634e-05 -1.617656e-05 -0.7628 1500.4268 735.1525)">
		<stop  offset="0" style="stop-color:#80E21B"/>
		<stop  offset="1" style="stop-color:#80B400"/>
	</linearGradient>
	<path fill="url(#SVGID_5_)" d="M86.633,29.746c0-4.752,3.851-8.603,8.602-8.603s8.604,3.849,8.604,8.6
		c0,4.752-3.853,8.603-8.604,8.604C90.484,38.347,86.633,34.496,86.633,29.746L86.633,29.746z"/>
	
		<linearGradient id="SVGID_6_" gradientUnits="userSpaceOnUse" x1="-1830.3384" y1="961.9209" x2="-1830.3384" y2="939.3672" gradientTransform="matrix(0.7629 -5.611634e-05 -1.617656e-05 -0.7628 1500.4268 735.1525)">
		<stop  offset="0" style="stop-color:#80E21B"/>
		<stop  offset="1" style="stop-color:#80B400"/>
	</linearGradient>
	<path fill="url(#SVGID_6_)" d="M95.443,10.105c0-4.751,3.85-8.602,8.602-8.602c4.75,0,8.603,3.849,8.603,8.6
		c0,4.751-3.853,8.603-8.603,8.604C99.295,18.707,95.443,14.856,95.443,10.105L95.443,10.105z"/>
	<path opacity="0.5" fill="#FFFFFF" enable-background="new    " d="M104.201,9.53c2.365,1.975,5.563,0.891,7.554-0.141
		c-0.294-3.977-3.608-7.108-7.655-7.108c-4.062,0-7.387,3.158-7.656,7.156C98.287,8.533,101.659,7.402,104.201,9.53z"/>
	<path opacity="0.5" fill="#FFFFFF" enable-background="new    " d="M95.355,29.167c2.285,2.063,5.525,1.105,7.555,0.149
		c-0.143-3.984-3.334-7.242-7.378-7.396c-4.06-0.154-7.503,2.874-7.922,6.857C89.484,27.944,92.896,26.942,95.355,29.167z"/>
	<path opacity="0.5" fill="#FFFFFF" enable-background="new    " d="M76.029,38.628c2.071,2.279,5.391,1.644,7.502,0.894
		c0.253-3.978-2.602-7.535-6.609-8.089c-4.023-0.556-7.75,2.115-8.562,6.039C70.311,36.83,73.802,36.171,76.029,38.628z"/>
</g>
</svg>
