<?xml version="1.0" encoding="utf-8"?>
<!-- Generator: Adobe Illustrator 13.0.0, SVG Export Plug-In . SVG Version: 6.00 Build 14948)  -->
<!DOCTYPE svg PUBLIC "-//W3C//DTD SVG 1.1//EN" "http://www.w3.org/Graphics/SVG/1.1/DTD/svg11.dtd">
<svg version="1.1" id="Layer_1" xmlns="http://www.w3.org/2000/svg" xmlns:xlink="http://www.w3.org/1999/xlink" x="0px" y="0px"
	 width="128px" height="128px" viewBox="0 0 128 128" enable-background="new 0 0 128 128" xml:space="preserve">
<g>
	<g>
		<g>
			
				<linearGradient id="SVGID_1_" gradientUnits="userSpaceOnUse" x1="-144.8091" y1="-701.7363" x2="-144.8091" y2="-802.8898" gradientTransform="matrix(1 0 0 -1 209.6631 -688.7129)">
				<stop  offset="0" style="stop-color:#D5D7D8"/>
				<stop  offset="1" style="stop-color:#5C5F61"/>
			</linearGradient>
			<path fill="url(#SVGID_1_)" d="M114.601,26.179l-10.392,14.756c-1.349,1.912-3.546,3.053-5.889,3.053
				c-1.485,0-2.915-0.459-4.13-1.314l-9.225-6.493c-3.239-2.278-4.016-6.777-1.735-10.021l10.394-14.755
				c-0.782-0.074-1.562-0.108-2.344-0.108c-8.372,0-16.24,4.082-21.054,10.914c-5.144,7.301-6.134,16.586-2.647,24.849l0.482,1.134
				l-2,2.15L16.116,94.268c-11.313,9.518,8.5,29.33,18.153,18.152l43.8-49.646l2.156-2.491l1.043,0.44
				c3.18,1.345,6.544,2.023,10.004,2.023l0,0c8.362,0,16.227-4.083,21.039-10.907C117.617,44.312,118.437,34.462,114.601,26.179z"/>
		</g>
		<path opacity="0.5" fill="#FFFFFF" d="M91.036,14.986l1.346-1.93c-15.506-1.229-30.813,19.799-21.994,33.406l1.13-1.419
			C65.187,32.341,76.866,15.561,91.036,14.986z"/>
	</g>
	<path opacity="0.5" fill="#FFFFFF" d="M30.663,31.039c-0.317,0.35-1.383-0.101-2.372-1.012l-8.569-7.859
		c-0.99-0.908-1.531-1.927-1.211-2.277l0,0c0.322-0.348,1.383,0.104,2.371,1.009l8.572,7.864
		C30.444,29.671,30.984,30.691,30.663,31.039L30.663,31.039z"/>
	<path opacity="0.5" fill="#FFFFFF" d="M17.481,98.905c-0.285,0.247-0.777,0.143-1.107-0.233l0,0
		c-0.33-0.376-0.366-0.884-0.082-1.132l53.506-46.611c0.283-0.248,0.779-0.14,1.106,0.236l0,0c0.33,0.377,0.366,0.881,0.083,1.129
		L17.481,98.905z"/>
	<g>
		
			<linearGradient id="SVGID_2_" gradientUnits="userSpaceOnUse" x1="-53.3213" y1="3.7754" x2="-53.3213" y2="98.1473" gradientTransform="matrix(-0.7071 0.7071 0.7071 0.7071 -38.4938 42.6496)">
			<stop  offset="0" style="stop-color:#BFBFBF"/>
			<stop  offset="0.2503" style="stop-color:#CFCFCF"/>
			<stop  offset="0.5636" style="stop-color:#DEDEDF"/>
			<stop  offset="0.9212" style="stop-color:#DDDEDF"/>
		</linearGradient>
		<path fill="url(#SVGID_2_)" d="M30.796,28.259c-1.574-1.574-8.225-7.333-11.318-10.203c-0.594-0.551-1.517-0.6-2.09-0.026
			c-0.949,0.951-1.749,1.749-2.549,2.549c-0.798,0.798-1.6,1.597-2.549,2.546c-0.571,0.574-0.521,1.498,0.031,2.091
			c2.871,3.094,8.63,9.747,10.201,11.317c1.801,1.801,4.959,2.048,7.178,3.203c2.219,1.148,3.387,3.307,5.031,4.951
			c1.643,1.643,3.271,3.271,4.912,4.912c1.643,1.643,3.299,3.303,4.996,4.996c1.693,1.696,3.432,3.432,5.234,5.234
			c1.805,1.805,3.678,3.678,5.642,5.641c1.964,1.967,4.024,4.026,6.204,6.206c1.69-1.688,2.537-2.538,4.221-4.219
			c-2.18-2.182-4.242-4.242-6.206-6.205c-1.966-1.967-3.837-3.838-5.64-5.643c-1.803-1.803-3.541-3.541-5.236-5.237
			c-1.697-1.693-3.352-3.351-4.996-4.993c-1.639-1.641-3.27-3.272-4.912-4.914c-1.642-1.639-3.801-2.811-4.953-5.031
			C32.846,33.218,32.597,30.06,30.796,28.259z"/>
		
			<linearGradient id="SVGID_3_" gradientUnits="userSpaceOnUse" x1="-64.0728" y1="120.4688" x2="-42.708" y2="120.4688" gradientTransform="matrix(-0.7071 0.7071 0.7071 0.7071 -38.4938 42.6496)">
			<stop  offset="0" style="stop-color:#EC008C"/>
			<stop  offset="1" style="stop-color:#C4008C"/>
		</linearGradient>
		<path fill="url(#SVGID_3_)" d="M63.665,81.876c-0.115-1.43-1.25-2.564-2.679-2.679c-0.748-0.058-1.491-0.231-2.194-0.512
			c-1.543-0.618-1.481-2.673-0.305-3.851l10.711-10.708c1.176-1.175,3.23-1.242,3.85,0.301c0.283,0.707,0.454,1.449,0.512,2.197
			c0.113,1.43,1.249,2.564,2.678,2.679c1.712,0.135,3.385,0.853,4.699,2.166l26.322,26.322c2.948,2.943,2.945,7.726-0.005,10.675
			l-4.424,4.428c-2.951,2.949-7.729,2.951-10.679-0.002L65.829,86.575C64.517,85.261,63.8,83.59,63.665,81.876z"/>
		<g>
			<path opacity="0.5" fill="#FFFFFF" d="M105.947,103.41c0.579-1.579,0.247-3.419-1.017-4.679L79.71,73.511
				c-1.265-1.263-3.102-1.598-4.678-1.018l-1.164-1.164c2.247-1.141,5.062-0.798,6.941,1.083l25.221,25.221
				c1.878,1.876,2.219,4.691,1.08,6.94L105.947,103.41z"/>
		</g>
		<path opacity="0.5" fill="#FFFFFF" d="M70.936,64.931c0.335,0.335-0.158,1.377-1.109,2.324l-8.208,8.209
			c-0.949,0.949-1.988,1.445-2.325,1.107l0,0c-0.335-0.336,0.161-1.375,1.106-2.322l8.211-8.212
			C69.559,65.089,70.601,64.596,70.936,64.931L70.936,64.931z"/>
	</g>
</g>
</svg>
