<?xml version="1.0" encoding="utf-8"?>
<!-- Generator: Adobe Illustrator 13.0.0, SVG Export Plug-In . SVG Version: 6.00 Build 14948)  -->
<!DOCTYPE svg PUBLIC "-//W3C//DTD SVG 1.1//EN" "http://www.w3.org/Graphics/SVG/1.1/DTD/svg11.dtd">
<svg version="1.1" id="Layer_1" xmlns="http://www.w3.org/2000/svg" xmlns:xlink="http://www.w3.org/1999/xlink" x="0px" y="0px"
	 width="128px" height="128px" viewBox="0 0 128 128" enable-background="new 0 0 128 128" xml:space="preserve">
<g>
	<g>
		
			<linearGradient id="SVGID_1_" gradientUnits="userSpaceOnUse" x1="-495.7603" y1="2982.2168" x2="-571.4642" y2="2906.5129" gradientTransform="matrix(0.7071 0.7071 -0.7071 0.7071 2514.3613 -1640.2878)">
			<stop  offset="0" style="stop-color:#9A9A9A"/>
			<stop  offset="1" style="stop-color:#DEDEDE"/>
		</linearGradient>
		<path fill="url(#SVGID_1_)" d="M64.107,114.148c-4.983,4.984-13.065,4.984-18.049,0L5.292,73.382
			c-4.985-4.983-4.985-13.065,0.001-18.049L46.06,14.565c4.984-4.983,13.065-4.985,18.05,0l40.767,40.766
			c4.984,4.984,4.982,13.068,0,18.05L64.107,114.148z"/>
		<path fill="#999999" d="M77.172,99.146L64.11,110.366c-4.985,4.984-13.065,4.984-18.052,0l-9.697-8.632
			c-2.049-1.578-18.56-17.273-20.506-18.116l30.203,30.53c4.986,4.984,13.066,4.984,18.052,0l38.519-38.52
			C100.673,76.486,79.959,96.956,77.172,99.146z"/>
		<path opacity="0.5" fill="#FFFFFF" d="M46.792,19.121c4.58-4.579,12.008-4.582,16.585-0.001L74.458,30.2l6.438,4.446
			l-17.52-17.518c-4.577-4.581-12.005-4.579-16.585,0.001L29.274,34.646l6.06-4.065L46.792,19.121z"/>
	</g>
	<g>
		<path fill="#99DBF6" d="M68.833,46.414l0.017-0.002l0.049-0.055l-0.021,0.006C68.867,46.378,68.85,46.397,68.833,46.414
			L68.833,46.414z"/>
		<path fill="#99DBF6" d="M68.852,46.342c0.025-0.025,0.034-0.035,0.041-0.045h-0.019l-0.022,0.031l-0.004-0.005l0.029-0.036
			l-0.021,0.008c0,0-0.063,0.065-0.082,0.092h0.008l0.036-0.035h0.01c-0.006,0.008-0.039,0.045-0.036,0.054
			C68.811,46.385,68.832,46.363,68.852,46.342L68.852,46.342z"/>
		<path fill="#99DBF6" d="M68.353,46.526c0,0-0.019-0.003-0.149,0.118l-0.015,0.005c-0.015,0.008-0.11,0.12-0.11,0.135
			c0,0,0.054-0.036,0.122-0.104c0.034,0,0.088-0.033,0.104-0.043c0.018-0.008,0.038-0.023,0.053-0.041
			c0.025-0.022,0.104-0.11,0.094-0.125h-0.002C68.448,46.47,68.372,46.513,68.353,46.526L68.353,46.526z"/>
		<path fill="#99DBF6" d="M67.876,46.953c0,0,0.026-0.021,0.043-0.04c0.02-0.021,0.021-0.026,0.021-0.026l0,0
			C67.939,46.886,67.876,46.94,67.876,46.953L67.876,46.953z"/>
		<polygon fill="#99DBF6" points="67.917,46.867 67.848,46.94 67.869,46.925 67.925,46.867 		"/>
		<path fill="#99DBF6" d="M67.786,46.961c-0.004-0.02-0.036,0.017-0.053,0.032l-0.062,0.065c-0.005,0.012-0.014,0.022-0.022,0.029
			c-0.092,0.1-0.091,0.103-0.091,0.103s0.009,0.005,0.034-0.018l0.037-0.038l0.044-0.039l0.033-0.028h0.008l0.077-0.09h-0.006
			c-0.009,0.011-0.021,0.021-0.029,0.03c0.05-0.059,0.05-0.065,0.05-0.065c-0.011,0-0.015,0.013-0.015,0.013L67.786,46.961z"/>
		<path fill="#99DBF6" d="M67.538,47.196c-0.013,0.007-0.03,0.016-0.041,0.023l-0.064,0.079c0.035-0.023,0.035-0.023,0.056-0.042
			c0.023-0.018,0.07-0.083,0.07-0.083S67.552,47.181,67.538,47.196L67.538,47.196z"/>
		<path fill="#99DBF6" d="M67.428,47.288l0.009-0.008c0,0,0.021-0.018,0.067-0.082c0.017-0.02,0.034-0.04,0.054-0.061h-0.012
			c-0.014,0.008-0.075,0.076-0.111,0.112c-0.073,0.061-0.073,0.061-0.146,0.146c0.009-0.005,0.019-0.011,0.022-0.02
			c0.017-0.017,0.063-0.059,0.129-0.111L67.428,47.288L67.428,47.288z"/>
		<path fill="#99DBF6" d="M67.139,47.518c0,0,0.004,0,0.035-0.04c0.013-0.015,0.022-0.024,0.033-0.037
			c-0.019,0.011-0.068,0.068-0.068,0.068V47.518z"/>
		<path fill="#99DBF6" d="M66.819,47.796c-0.024,0.028-0.047,0.057-0.073,0.083c-0.002,0.005-0.002,0.005-0.002,0.005
			s0.013-0.011,0.035-0.037c0.045-0.053,0.049-0.054,0.05-0.058v-0.001L66.819,47.796L66.819,47.796z"/>
		<path fill="#A4D9E6" d="M61.303,63.583l-0.013,0.01c-0.006,0.014-0.036,0.104-0.038,0.144c0,0.021,0.009,0.037,0.03,0.029
			c0.004,0.027,0.006,0.041,0.006,0.041c0.011-0.003,0.018-0.014,0.026-0.095l0.002-0.002c0-0.015,0.01-0.024,0.014-0.036
			C61.34,63.634,61.319,63.583,61.303,63.583L61.303,63.583z"/>
		<path fill="#A4D9E6" d="M61.573,63.98c0,0-0.018-0.006-0.008-0.082c-0.013-0.006-0.018-0.008-0.018-0.008
			c-0.015,0.002-0.031,0.008-0.035,0.071c0,0.028,0,0.045,0,0.045c0.005,0.02,0.014,0.037,0.015,0.061
			c0,0.015-0.004,0.033-0.001,0.052c0,0,0.003,0.014,0.009,0.019c0.01,0.013,0.041,0.026,0.057-0.061
			C61.601,63.997,61.573,63.98,61.573,63.98L61.573,63.98z"/>
		<path fill="#A4D9E6" d="M61.771,64.115l-0.009-0.005c-0.012,0-0.021,0.005-0.021,0.005c-0.016,0-0.021,0-0.031,0
			s-0.026,0.004-0.029,0.027c-0.004,0.019,0.002,0.069,0.007,0.085c0.017,0.03,0.038-0.022,0.043-0.031
			c0.016-0.002,0.033-0.007,0.046-0.01l0.002-0.015C61.787,64.125,61.777,64.118,61.771,64.115L61.771,64.115z"/>
		<path fill="#A4D9E6" d="M61.854,64.485c0,0,0.05,0.003,0.059-0.079c0.008-0.07-0.023-0.088-0.033-0.095
			c-0.008-0.051-0.018-0.063-0.039-0.063c-0.008,0.002-0.025,0.008-0.048,0.034c-0.006,0.012,0,0.021,0,0.021
			c0.002,0.085,0.022,0.093,0.043,0.073C61.826,64.478,61.84,64.494,61.854,64.485L61.854,64.485z"/>
		<path fill="#A4D9E6" d="M62.092,64.96c-0.006-0.021-0.003-0.049-0.007-0.071c-0.005-0.019-0.013-0.041-0.021-0.056
			c-0.012-0.036-0.038-0.098-0.094-0.116c0.008-0.03,0.008-0.051,0-0.067c-0.015,0.014-0.044,0.043-0.032,0.222
			c-0.041,0.036-0.053,0.107-0.059,0.15c-0.004,0.036,0.012,0.088,0.025,0.111l0.007,0.01c0.004,0.039-0.005,0.09-0.003,0.125
			c0.005,0.162,0.044,0.174,0.044,0.174l0.004-0.004c0,0,0.003-0.018,0.008-0.024c0-0.024,0.006-0.071,0.038-0.13
			c0.025-0.042,0.08-0.061,0.103-0.105l0.026-0.082c0.01-0.048-0.013-0.102-0.039-0.133L62.092,64.96L62.092,64.96z"/>
		<path fill="#A4D9E6" d="M65.066,83.687l0.116,0.161c0,0-0.026-0.044-0.049-0.073c-0.036-0.055-0.062-0.082-0.062-0.082
			L65.066,83.687z"/>
		<path fill="#A4D9E6" d="M65.208,83.858v0.005c0.061,0.087,0.084,0.12,0.094,0.122c0,0,0-0.005-0.05-0.076
			C65.233,83.886,65.218,83.861,65.208,83.858L65.208,83.858z"/>
		<path fill="#99DBF6" d="M69.545,85.271h-0.004l0.006,0.047c0,0,0.007,0.014,0.021,0.03c0.019,0.018,0.077,0.068,0.109,0.078
			c0,0,0.043,0.008,0.021-0.03C69.677,85.363,69.569,85.271,69.545,85.271L69.545,85.271z"/>
		
			<linearGradient id="SVGID_2_" gradientUnits="userSpaceOnUse" x1="-135.0991" y1="-670.0649" x2="-183.336" y2="-636.2894" gradientTransform="matrix(1 0 0 -1 246.7271 -588.7695)">
			<stop  offset="0" style="stop-color:#DEDEDE"/>
			<stop  offset="1" style="stop-color:#FEFEFE"/>
		</linearGradient>
		<path fill="url(#SVGID_2_)" stroke="#094763" stroke-miterlimit="3.8637" d="M116.872,62.353
			c1.135,16.229-11.093,30.306-27.312,31.44C73.347,94.928,59.28,82.689,58.147,66.462c-1.135-16.227,11.091-30.304,27.311-31.436
			C101.673,33.889,115.736,46.125,116.872,62.353L116.872,62.353z"/>
		<g>
			
				<linearGradient id="SVGID_3_" gradientUnits="userSpaceOnUse" x1="-195.9502" y1="-653.3159" x2="-195.9502" y2="-649.4185" gradientTransform="matrix(1 0 0 -1 246.7271 -588.7695)">
				<stop  offset="0" style="stop-color:#32AECE"/>
				<stop  offset="1" style="stop-color:#094E86"/>
			</linearGradient>
			<polygon fill="url(#SVGID_3_)" points="52.53,64.547 48.829,64.353 49.021,60.649 52.726,60.844 			"/>
			
				<linearGradient id="SVGID_4_" gradientUnits="userSpaceOnUse" x1="-193.6709" y1="-642.7671" x2="-193.6709" y2="-638.0122" gradientTransform="matrix(1 0 0 -1 246.7271 -588.7695)">
				<stop  offset="0" style="stop-color:#32AECE"/>
				<stop  offset="1" style="stop-color:#094E86"/>
			</linearGradient>
			<polygon fill="url(#SVGID_4_)" points="54.163,53.998 50.679,52.731 51.946,49.243 55.434,50.513 			"/>
			
				<linearGradient id="SVGID_5_" gradientUnits="userSpaceOnUse" x1="-188.1719" y1="-633.1411" x2="-188.1719" y2="-627.9341" gradientTransform="matrix(1 0 0 -1 246.7271 -588.7695)">
				<stop  offset="0" style="stop-color:#32AECE"/>
				<stop  offset="1" style="stop-color:#094E86"/>
			</linearGradient>
			<polygon fill="url(#SVGID_5_)" points="58.875,44.372 55.953,42.088 58.239,39.165 61.159,41.448 			"/>
			
				<linearGradient id="SVGID_6_" gradientUnits="userSpaceOnUse" x1="-179.9761" y1="-625.5571" x2="-179.9761" y2="-620.3901" gradientTransform="matrix(1 0 0 -1 246.7271 -588.7695)">
				<stop  offset="0" style="stop-color:#32AECE"/>
				<stop  offset="1" style="stop-color:#094E86"/>
			</linearGradient>
			<polygon fill="url(#SVGID_6_)" points="66.297,36.788 64.168,33.747 67.207,31.621 69.334,34.661 			"/>
			
				<linearGradient id="SVGID_8_" gradientUnits="userSpaceOnUse" x1="-169.8291" y1="-620.4146" x2="-169.8291" y2="-615.7856" gradientTransform="matrix(1 0 0 -1 246.7271 -588.7695)">
				<stop  offset="0" style="stop-color:#32AECE"/>
				<stop  offset="1" style="stop-color:#094E86"/>
			</linearGradient>
			<polygon fill="url(#SVGID_8_)" points="75.668,31.645 74.583,28.096 78.131,27.016 79.213,30.562 			"/>
			
				<linearGradient id="SVGID_9_" gradientUnits="userSpaceOnUse" x1="-158.7822" y1="-618.3716" x2="-158.7822" y2="-614.6597" gradientTransform="matrix(1 0 0 -1 246.7271 -588.7695)">
				<stop  offset="0" style="stop-color:#32AECE"/>
				<stop  offset="1" style="stop-color:#094E86"/>
			</linearGradient>
			<polygon fill="url(#SVGID_9_)" points="86.092,29.602 86.09,25.89 89.8,25.89 89.8,29.602 			"/>
			
				<linearGradient id="SVGID_10_" gradientUnits="userSpaceOnUse" x1="-147.6411" y1="-620.7515" x2="-147.6411" y2="-616.0767" gradientTransform="matrix(1 0 0 -1 246.7271 -588.7695)">
				<stop  offset="0" style="stop-color:#32AECE"/>
				<stop  offset="1" style="stop-color:#094E86"/>
			</linearGradient>
			<polygon fill="url(#SVGID_10_)" points="96.749,30.836 97.894,27.307 101.423,28.452 100.275,31.982 			"/>
			
				<linearGradient id="SVGID_11_" gradientUnits="userSpaceOnUse" x1="-137.6313" y1="-626.186" x2="-137.6313" y2="-621.0044" gradientTransform="matrix(1 0 0 -1 246.7271 -588.7695)">
				<stop  offset="0" style="stop-color:#32AECE"/>
				<stop  offset="1" style="stop-color:#094E86"/>
			</linearGradient>
			<polygon fill="url(#SVGID_11_)" points="106.505,35.234 108.686,32.235 111.687,34.416 109.505,37.417 			"/>
			
				<linearGradient id="SVGID_12_" gradientUnits="userSpaceOnUse" x1="-129.6421" y1="-634.1353" x2="-129.6421" y2="-628.9546" gradientTransform="matrix(1 0 0 -1 246.7271 -588.7695)">
				<stop  offset="0" style="stop-color:#32AECE"/>
				<stop  offset="1" style="stop-color:#094E86"/>
			</linearGradient>
			<polygon fill="url(#SVGID_12_)" points="114.494,42.368 117.499,40.185 119.676,43.186 116.676,45.366 			"/>
			
				<linearGradient id="SVGID_13_" gradientUnits="userSpaceOnUse" x1="-124.4287" y1="-643.8794" x2="-124.4287" y2="-639.2075" gradientTransform="matrix(1 0 0 -1 246.7271 -588.7695)">
				<stop  offset="0" style="stop-color:#32AECE"/>
				<stop  offset="1" style="stop-color:#094E86"/>
			</linearGradient>
			<polygon fill="url(#SVGID_13_)" points="119.961,51.582 123.488,50.438 124.636,53.967 121.107,55.11 			"/>
			
				<linearGradient id="SVGID_14_" gradientUnits="userSpaceOnUse" x1="-122.5078" y1="-654.4272" x2="-122.5078" y2="-650.6538" gradientTransform="matrix(1 0 0 -1 246.7271 -588.7695)">
				<stop  offset="0" style="stop-color:#32AECE"/>
				<stop  offset="1" style="stop-color:#094E86"/>
			</linearGradient>
			<polygon fill="url(#SVGID_14_)" points="122.332,61.95 126.042,61.884 126.106,65.595 122.398,65.658 			"/>
			
				<linearGradient id="SVGID_15_" gradientUnits="userSpaceOnUse" x1="-124.6572" y1="-667.2798" x2="-124.6572" y2="-662.5229" gradientTransform="matrix(1 0 0 -1 246.7271 -588.7695)">
				<stop  offset="0" style="stop-color:#32AECE"/>
				<stop  offset="1" style="stop-color:#094E86"/>
			</linearGradient>
			<polygon fill="url(#SVGID_15_)" points="120.961,73.754 124.446,75.021 123.177,78.511 119.693,77.24 			"/>
			
				<linearGradient id="SVGID_16_" gradientUnits="userSpaceOnUse" x1="-130.1582" y1="-677.3579" x2="-130.1582" y2="-672.1499" gradientTransform="matrix(1 0 0 -1 246.7271 -588.7695)">
				<stop  offset="0" style="stop-color:#32AECE"/>
				<stop  offset="1" style="stop-color:#094E86"/>
			</linearGradient>
			<polygon fill="url(#SVGID_16_)" points="116.249,83.381 119.172,85.668 116.886,88.589 113.966,86.304 			"/>
			
				<linearGradient id="SVGID_17_" gradientUnits="userSpaceOnUse" x1="-138.3525" y1="-684.8999" x2="-138.3525" y2="-679.7339" gradientTransform="matrix(1 0 0 -1 246.7271 -588.7695)">
				<stop  offset="0" style="stop-color:#32AECE"/>
				<stop  offset="1" style="stop-color:#094E86"/>
			</linearGradient>
			<polygon fill="url(#SVGID_17_)" points="108.829,90.965 110.957,94.004 107.921,96.131 105.792,93.094 			"/>
			
				<linearGradient id="SVGID_18_" gradientUnits="userSpaceOnUse" x1="-148.5015" y1="-689.5054" x2="-148.5015" y2="-684.8755" gradientTransform="matrix(1 0 0 -1 246.7271 -588.7695)">
				<stop  offset="0" style="stop-color:#32AECE"/>
				<stop  offset="1" style="stop-color:#094E86"/>
			</linearGradient>
			<polygon fill="url(#SVGID_18_)" points="99.458,96.106 100.541,99.653 96.998,100.736 95.91,97.188 			"/>
			
				<linearGradient id="SVGID_19_" gradientUnits="userSpaceOnUse" x1="-159.5479" y1="-690.6323" x2="-159.5479" y2="-686.9233" gradientTransform="matrix(1 0 0 -1 246.7271 -588.7695)">
				<stop  offset="0" style="stop-color:#32AECE"/>
				<stop  offset="1" style="stop-color:#094E86"/>
			</linearGradient>
			<polygon fill="url(#SVGID_19_)" points="89.034,98.154 89.034,101.863 85.324,101.863 85.324,98.154 			"/>
			
				<linearGradient id="SVGID_20_" gradientUnits="userSpaceOnUse" x1="-170.687" y1="-689.2144" x2="-170.687" y2="-684.5415" gradientTransform="matrix(1 0 0 -1 246.7271 -588.7695)">
				<stop  offset="0" style="stop-color:#32AECE"/>
				<stop  offset="1" style="stop-color:#094E86"/>
			</linearGradient>
			<polygon fill="url(#SVGID_20_)" points="78.376,96.917 77.231,100.445 73.704,99.302 74.851,95.772 			"/>
			
				<linearGradient id="SVGID_21_" gradientUnits="userSpaceOnUse" x1="-180.6978" y1="-684.2905" x2="-180.6978" y2="-679.1069" gradientTransform="matrix(1 0 0 -1 246.7271 -588.7695)">
				<stop  offset="0" style="stop-color:#32AECE"/>
				<stop  offset="1" style="stop-color:#094E86"/>
			</linearGradient>
			<polygon fill="url(#SVGID_21_)" points="68.62,92.519 66.439,95.521 63.439,93.339 65.62,90.338 			"/>
			
				<linearGradient id="SVGID_22_" gradientUnits="userSpaceOnUse" x1="-188.6885" y1="-676.3364" x2="-188.6885" y2="-671.1558" gradientTransform="matrix(1 0 0 -1 246.7271 -588.7695)">
				<stop  offset="0" style="stop-color:#32AECE"/>
				<stop  offset="1" style="stop-color:#094E86"/>
			</linearGradient>
			<polygon fill="url(#SVGID_22_)" points="60.626,85.387 57.629,87.567 55.452,84.566 58.448,82.387 			"/>
			
				<linearGradient id="SVGID_23_" gradientUnits="userSpaceOnUse" x1="-193.9014" y1="-666.0854" x2="-193.9014" y2="-661.4106" gradientTransform="matrix(1 0 0 -1 246.7271 -588.7695)">
				<stop  offset="0" style="stop-color:#32AECE"/>
				<stop  offset="1" style="stop-color:#094E86"/>
			</linearGradient>
			<polygon fill="url(#SVGID_23_)" points="55.163,76.17 51.635,77.316 50.49,73.787 54.015,72.642 			"/>
		</g>
		<g>
			<g>
				
					<linearGradient id="SVGID_24_" gradientUnits="userSpaceOnUse" x1="-154.1147" y1="-681.7222" x2="-154.1147" y2="-624.0156" gradientTransform="matrix(1 0 0 -1 246.7271 -588.7695)">
					<stop  offset="0" style="stop-color:#32AECE"/>
					<stop  offset="1" style="stop-color:#094E86"/>
				</linearGradient>
				<path id="SVGID_7_" fill="url(#SVGID_24_)" d="M95.61,36.891c-0.246-0.25-0.55-0.19-0.903-0.226
					c-0.896-0.091-1.874-0.471-2.753-0.604c-0.028,0.008-0.072,0.003-0.074,0.037c0.421,0.27,0.883,0.271,1.468,0.342
					C94.116,36.529,94.842,37.007,95.61,36.891z M106.693,47.52c-0.033,0.009-0.047,0.029-0.04,0.074
					c0.184,0.246,0.385,0.539,0.604,0.791c0.196,0.229,0.434,0.646,0.752,0.603C107.801,48.294,107.384,47.604,106.693,47.52z
					 M103.149,46.803c-0.195-0.357-0.299-0.806-0.454-1.207c-0.258,0.054-0.438,0.188-0.637,0.302
					c-0.051,0.363-0.122,0.708-0.301,0.944C102.09,47.158,102.907,47.342,103.149,46.803z M89.807,44.693
					c-0.465-0.059-0.784-0.034-1.17-0.04c-0.076,0.073-0.082,0.22-0.187,0.266c-0.963-0.188-1.224,0.495-1.848,0.754
					c0.053,0.516,0.52,0.611,0.943,0.754c0.124-0.143,0.348-0.176,0.378-0.411c0.015-0.13-0.191-0.236-0.073-0.34
					c0.133,0.257,0.299-0.092,0.487-0.113c0.042,0.307-0.286,0.533-0.265,0.941c-0.298-0.005-0.347,0.231-0.411,0.452
					c0.087,0.174,0.318,0.205,0.524,0.266c-0.172,0.014-0.285,0.089-0.454,0.112c-0.396-0.146-1.36-0.854-1.543-0.265
					c0.008,0.054,0.187-0.034,0.301,0c0.16,0.275,0.307,0.572,0.453,0.866c0.349-0.172,0.607,0.018,0.829,0.074
					c0.691,0.181,1.003-0.267,1.545-0.074c0.038-0.154,0.062-0.348-0.04-0.45c-0.376,0.125-0.426-0.271-0.641-0.304
					c0.156-0.112,0.568,0.153,0.794-0.073c0.096-0.163,0.158-0.413,0.077-0.643c0.145-0.243,0.397-0.379,0.754-0.412
					c0.392-0.381,0.301-1.046,0.493-1.584C90.423,44.663,90.036,44.313,89.807,44.693z M86.15,48.612
					c0.13,0.021,0.116,0.186,0.188,0.264c0.358-0.082,0.453-0.427,0.678-0.639c-0.128-0.072-0.106-0.295-0.266-0.34
					c-0.119,0.207-0.511,0.14-0.64,0.34C86.167,48.375,86.116,48.53,86.15,48.612z M86.15,35.987c0.004,0.34,0.957,0.33,1.132,0.036
					C86.956,35.974,86.488,35.891,86.15,35.987z M91.425,45.184c-0.078,0.332-0.366,0.456-0.489,0.752
					c-0.185-0.064-0.259,0.059-0.412,0.112c0.059,0.119,0.021,0.212-0.039,0.304c0.483,0.332,1.123,0.513,1.922,0.526
					c0.127-0.048,0.144-0.209,0.303-0.226c1.066,0.073,1.472,0.816,2.148,1.282c0.192,0.029,0.249-0.08,0.409-0.079
					c0.069,0.063,0.097,0.16,0.075,0.306c-0.038,0.087-0.249-0.002-0.226,0.148c0.078,0.416,0.93,0.052,0.978,0.492
					c-0.026,0.119-0.142,0.157-0.146,0.303c0.266,0.839,0.912,1.332,1.697,1.698c0.68,0.316,0.941,0.828,1.772,0.828
					c0.373-0.153,0.672-0.382,0.753-0.828c-0.195-0.677-0.811-0.926-0.833-1.774c0.12-0.105,0.249-0.207,0.379-0.3
					c0.021-0.207,0.06-0.396,0.112-0.566c-0.385-0.797,0.292-1.352,0.564-1.848c-0.074-0.383-0.334-0.565-0.528-0.794
					c-0.108-0.127-0.104-0.242-0.227-0.336c-0.06-0.049-0.175-0.047-0.263-0.114c-0.383-0.293-0.624-0.809-0.905-1.055
					c-0.194-0.169-0.53-0.304-0.752-0.489c-0.202-0.171-0.257-0.388-0.495-0.414c-0.171-0.046-0.146,0.103-0.304,0.075
					c-0.261-0.394-0.543-0.76-0.754-1.207c-0.159,0.033-0.176-0.071-0.301-0.073c0.034,0.322-0.685,0.184-0.679,0.6
					c-0.328-0.007-0.565-0.109-0.939-0.073c-0.283,0.47-0.716,0.792-1.318,0.94c-0.026,0.152,0.033,0.218,0.038,0.34
					c-0.094,0.034-0.164,0.088-0.307,0.077c-0.057,0.47-0.649,0.402-0.862,0.713c0.032,0.194,0.129,0.322,0.151,0.529
					C91.774,45.077,91.678,45.208,91.425,45.184z M111.669,50.572c-0.238-0.499-0.653-0.882-0.832-1.319
					c-0.226-0.538-0.161-1.02-0.454-1.433c0.21,0.115,0.318-0.075,0.563-0.038c0.12-0.31-0.15-0.594-0.377-0.864
					c0.021,0.089-0.226,0.052-0.224,0.225c-0.274-0.143-0.477-0.353-0.568-0.68c0.147,0.012,0.142-0.136,0.188-0.226
					c0.289,0.038,0.415,0.372,0.588,0.511c-0.74-0.964-1.536-1.878-2.387-2.741c-0.606-0.561-1.182-1.112-1.763-1.652
					c-1.708-1.473-3.585-2.75-5.598-3.809c-0.346-0.164-0.7-0.324-1.054-0.485c-0.836-0.38-1.667-0.762-2.526-1.104
					c-2.217-0.808-4.554-1.36-6.979-1.621c-4.44-0.318-8.911,0.223-12.091,1.52c-2,0.816-3.945,1.543-5.578,2.64
					c0.405-0.208,0.724-0.505,1.206-0.64c-0.717,0.562-1.418,1.145-2.073,1.769c0.056,0.023,0.194-0.042,0.189,0.041
					c-0.297,0.276-0.764,0.586-0.679,1.015c-0.266,0.036-0.324-0.274-0.565-0.299c-0.192-0.024-0.566,0.188-0.829,0.335
					c-0.488,0.278-1.028,0.474-1.207,0.91c0.708,0.185,1.169-0.512,1.922-0.23c-0.05,0.253-0.083,0.515-0.076,0.831
					c0.242,0.08,0.196,0.237,0.226,0.488c0.366-0.148,0.697-0.335,1.168-0.375c-0.053,0.546,0.058,0.925,0.379,1.093
					c0.215-0.479,0.508-0.84,0.796-1.243c0.142-0.207,0.209-0.438,0.336-0.679c0.203-0.371,0.767-0.846,0.341-1.318
					c0.633-0.371,0.927-1.085,1.619-1.396c0-0.1-0.013-0.215,0.039-0.265c0.191-0.069,0.406-0.12,0.454-0.339
					c0.383-0.299,0.882-0.409,1.241-0.753c0.074-0.069,0.109-0.161,0.188-0.226c0.19-0.148,0.455-0.225,0.679-0.378
					c0.211-0.144,0.395-0.362,0.602-0.491c0.667-0.404,1.589-0.538,2.412-0.826c0.829-0.294,1.726-0.462,2.563-0.605
					c-0.034,0.034-0.263,0.059-0.15,0.112c0.336-0.074,0.601-0.012,0.943-0.035c0.466-0.039,0.886-0.279,1.357-0.342
					c0.439-0.057,0.977,0.045,1.471,0c0.697-0.06,1.672-0.221,2.411-0.112c0.099,0.015-0.08,0.073,0.073,0.076
					c0.682,0.009,1.303,0.09,1.887,0.111c0.144,0.006,0.125,0.177,0.265,0.188c1.115-0.082,1.859,0.253,2.636,0.452
					c0.87,0.229,1.568,0.438,2.303,0.718c0.369,0.144,0.813,0.269,1.092,0.415c0.128,0.065,0.205,0.212,0.341,0.266
					c0.199,0.076,0.446,0.04,0.639,0.112c0.308,0.112,0.576,0.35,0.867,0.49c0.374,0.172,0.864,0.213,1.093,0.6
					c-0.878,0.087-1.034-0.874-1.998-0.829c0.103,0.33,0.81,0.716,0.566,1.169c0.556,0.424,0.981,0.976,1.696,1.242
					c0.194,0.408,0.576,0.46,0.942,0.718c0.195,0.141,0.342,0.37,0.526,0.491c0.326,0.207,0.72,0.283,0.98,0.528
					c0.298,0.271,0.4,0.731,0.678,1.056c0.395,0.453,0.86,0.642,1.396,0.902c0.024-0.176-0.051-0.449,0.035-0.565
					c0.352-0.01,0.583,0.098,0.867,0.151c-0.407-0.812-1.175-1.26-1.881-1.773c-1.103-0.254-1.686-1.229-2.452-1.693
					c0.755,0.161,0.989,0.845,1.738,1.016c0.132,0.061,0.021-0.127,0.11-0.112c1.27,0.828,2.719,1.679,3.089,3.277
					c-0.286-0.217-0.63-0.575-1.094-0.488c0.407,0.36,0.918,0.616,1.321,0.98c0,0.099-0.019,0.216,0.034,0.264
					c0.26,0.231,0.34,0.562,0.526,0.866c0.393,0.612,1.04,1.144,1.171,1.847c0.067,0.35-0.01,0.705,0.188,1.055
					c1.316,0.192,1.688,1.529,1.32,2.753c0.573,0.679,0.955,1.557,1.542,2.224c0.09-0.28,0.344-0.282,0.418-0.528
					c0.045-0.155,0.006-0.439,0-0.565C112.376,51.876,112.027,51.339,111.669,50.572z M110.351,77.82
					c-0.21-0.09-1.344-0.181-1.511-0.151c-0.449,0.081-0.804,0.546-1.129,0.643c-0.125-0.039-0.119-0.209-0.304-0.189
					c-0.646,0.192-1.385,0.03-1.959,0.375c0.062-0.797-0.364-1.778-1.245-1.729c-0.548,0.023-0.971,0.48-1.58,0.49
					c0-0.166,0.011-0.341-0.039-0.457h-0.526c-0.521-0.42-1.114-0.768-1.926-0.902c-0.34,0.205-0.773,0.278-1.278,0.266
					c-0.945-0.025-2.026-0.079-2.79,0.262c0.068-0.136,0.124-0.368,0-0.489c-0.961,0.486-1.98,0.91-2.487,1.848
					c-0.493,0.029-0.871-0.184-1.318-0.114c-0.185,0.031-0.337,0.215-0.531,0.229c-0.527,0.031-0.929-0.348-1.429-0.493
					c0.309-0.724,0.128-1.656-0.188-2.26c-0.73-0.199-1.702-0.309-2.487-0.228c0.179-0.828,0.563-1.446,0.906-2.11
					c-0.55-0.246-1.026-0.328-1.623-0.074c-0.491,0.207-0.894,0.74-1.356,0.83c-0.523,0.1-1.181-0.125-1.77-0.228
					c-0.062-0.319,0.037-0.523-0.04-0.83c-0.067-0.267-0.355-0.463-0.376-0.716c-0.021-0.208,0.145-0.415,0.188-0.602
					c0.139-0.605,0.209-1.244,0.229-1.924c0.225-0.192,0.4-0.493,0.675-0.562c0.808-0.205,1.127,0.263,1.659,0.301
					c0.224,0.017,0.546-0.03,0.754-0.114c0.175-0.068,0.285-0.307,0.529-0.376c0.602-0.17,1.189-0.121,1.801-0.15
					c0.448-0.02,0.558,0.071,0.682,0.539c0.162,0.608,0.629,0.92,0.754,1.528c0.04,0.196,0.547-0.245,0.58-0.294
					c0.187-0.286,0.287-0.829,0.188-1.165c-0.068-0.243-0.246-0.43-0.339-0.66c-0.093-0.238-0.062-0.47-0.162-0.701
					c0.352-0.664,1.149-0.807,1.62-1.318c0.15-0.164,0.34-0.437,0.453-0.641c0.158-0.295,0.418-0.829,0.527-1.208
					c0.14-0.476-0.082-0.946,0.149-1.509c0.535-0.216,1.093-0.412,1.545-0.711c-0.09-0.104-0.197-0.181-0.226-0.34
					c0.167-0.253,0.388-0.593,0.567-0.716c0.106-0.729,0.209-1.475,0.336-2.188c0.271-0.091,0.45-0.278,0.794-0.302
					c-0.014-0.139-0.152-0.151-0.113-0.34c-0.286-0.003-0.879,0.008-0.977-0.303c0.508-0.687,1.783-0.38,2.411-0.94
					c0.054-0.196,0.106-0.396,0.225-0.526c0.119,0.09,0.209,0.008,0.265,0.11c-0.084,0.365-0.271,0.822-0.152,1.168
					c0.408-0.281,0.942-0.439,1.318-0.754c0.006,0.041,0.044,0.061,0.075,0.075c0.023-0.146-0.234-0.122-0.413-0.149
					c-0.39-0.439-0.606-1.053-0.867-1.622c-0.759-0.551-1.888-0.661-2.641-1.207c-0.347-0.251-0.455-0.701-0.863-0.792
					c-0.205,0.212-0.235,0.599-0.493,0.753c-0.279,0.004-0.562,0.011-0.792-0.035c-0.225-0.584-0.529-1.082-0.941-1.471
					c-0.623-0.107-1.462-0.146-1.85,0.19c-0.021,1.137-0.021,2.256,0.642,2.712c-0.178,0.373-0.648,0.552-0.679,1.055
					c-0.021,0.392,0.473,1.153-0.111,1.396c-0.391-0.376-0.772-0.757-0.678-1.62c-0.406-0.1-0.766-0.258-1.169-0.417
					c-0.36-0.14-0.772-0.403-1.128-0.45c-0.413-0.054-0.865,0.132-1.245-0.152c-0.188-0.402-0.548-0.608-0.566-1.091
					c-0.032-0.804,0.836-1.169,1.134-1.734c0.492-0.062,0.83-0.474,1.086-0.641c-0.103,0.48,0.155,0.759,0.492,0.904
					c0.203-0.107,0.3-0.333,0.455-0.491c0.176,0.101,0.379,0.172,0.639,0.189v-0.338c-0.528-0.214-1.055-0.426-1.357-0.868
					c0.535-0.228,1.444-0.463,0.944-1.281c0.136,0.008,0.192-0.313,0.373-0.38c0.514,0.424,1.531,0.329,1.999,0.796
					c-0.054,0.312-0.174,0.555-0.226,0.865c-0.33,0.099-0.564,0.291-0.905,0.379c0.023,0.175-0.06,0.239-0.074,0.377
					c0.364-0.041,0.711-0.09,1.055-0.152c0.524,0.369,1.112,0.669,1.805,0.866c0.15-0.103,0.325-0.179,0.532-0.225
					c0.043-0.395,0.453-0.543,0.341-0.979c-0.381-0.186-0.819-0.312-0.98-0.717c0.49-0.028,0.772,0.212,1.206,0.036
					c0.005-0.217-0.07-0.355-0.073-0.563c-0.347-0.222-0.673-0.46-1.246-0.452c-0.429-0.353-0.801-0.754-1.434-0.904
					c-0.073,0.101-0.167,0.182-0.376,0.15c-0.361-0.271-0.538-0.741-0.979-0.904c-0.419-0.158-0.961-0.107-1.541-0.228
					c-0.173,0.138-0.196,0.41-0.305,0.603c-0.075-0.163-0.152-0.327-0.302-0.414c-0.189-0.002-0.311,0.063-0.524,0.039
					c-0.274,0.375-0.461,1.183-0.076,1.58c0.388,0.132,0.741,0.094,1.166,0.152c-0.197,0.239-0.43,0.45-0.717,0.602
					c-0.24-0.11-0.418-0.357-0.715-0.302c-0.443-0.316-0.681-0.828-1.054-1.207c-0.25,0.233-0.25,0.897,0.112,1.018
					c-0.078,0.151,0.064,0.389-0.04,0.564c-0.17-0.129-0.249,0.166-0.375,0.074c0.078-0.285,0.122-0.66-0.074-0.828
					c-0.548,0.019-0.782,0.348-1.095,0.604c-0.785-0.09-1.313-0.385-1.959,0c-0.142-0.123-0.381-0.146-0.375-0.414
					c0.687,0.068,1.65,0.235,2.107-0.266c-0.221,0.037-0.23-0.404-0.412-0.527c0.03-0.358-0.073-0.58-0.074-0.906
					c-0.234-0.104-0.338-0.399-0.677-0.412c-0.12-0.006-0.252,0.105-0.378,0.11c-0.591,0.04-0.845-0.194-1.054-0.524
					c0.035-0.104,0.077-0.201,0.073-0.342c-0.266-0.126-0.396-0.073-0.717-0.037c-0.198-0.14-0.312-0.364-0.566-0.45
					c-0.343,0.355-0.604,0.799-0.904,1.205c0.221,0.341,0.849,0.049,1.209,0.263c0.171-0.166,0.284-0.391,0.529-0.488
					c0.066,0.226-0.212,0.284-0.265,0.564c-0.064,0.317,0.203,0.796-0.076,1.054c-0.532-0.407-1.469-0.412-1.847-0.98
					c-0.066-0.011-0.188,0.108-0.228,0c-0.05-0.116,0.095-0.226,0-0.264c-0.485,0.294-0.83-0.185-1.468-0.073
					c-0.214-0.175-0.452-0.328-0.754-0.415c-0.054-0.473-0.188-0.795-0.528-1.014c-0.563-0.369-1.203-0.326-0.676-1.096
					c-0.202-0.161-0.272-0.403-0.266-0.679c-0.528-0.197-1.147-0.266-1.771-0.188c-0.271,0.457-0.889,0.826-1.508,0.602
					c-0.027,0.137-0.054,0.331-0.077,0.566c0.094,0.081,0.183,0.169,0.266,0.268c-0.185,0.016-0.185,0.216-0.341,0.261
					c-0.156-0.018-0.219-0.132-0.374-0.15c-0.633,0.107-0.717,0.335-1.058,0.866c-0.31,0.487-0.373,1.013-0.528,1.509
					c0.091,0.022,0.272-0.046,0.305,0.038c-0.204,0.299-1.086,0.398-1.435,0.188c0.068,0.343,0.327,0.499,0.564,0.676
					c0.391-0.176,0.904-0.317,1.244-0.071c-0.274,0.219,0.197,0.362-0.077,0.601c0.267-0.041,0.328-0.274,0.377-0.529
					c0.313-0.122,0.494-0.667,0.867-0.488c-0.049,0.222-0.264,0.455-0.261,0.602c0.345,0.168,0.603-0.031,0.903-0.113
					c-0.041,0.123-0.105,0.225-0.114,0.376c0.129-0.016,0.214,0.018,0.301,0.039c0.343,0.812,1.188,1.127,1.17,2.301
					c0.118-0.009,0.228-0.001,0.261,0.073c0.413,0.925,0.038,2.383,0.269,3.355c-0.556,0.386-0.08,0.804,0.035,1.169
					c0.26,0.809-0.162,1.572-0.416,2.188c-0.133,0.329-0.368,0.611-0.487,0.946c-0.109,0.304-0.048,0.594-0.039,0.922
					c0.019,0.747-0.032,1.504,0.106,2.242c0.03,0.153,0.056,0.312,0.075,0.471c0.018,0.114-0.023,0.324-0.017,0.396
					c0.028,0.245,0.303,0.34,0.449,0.503c0.138,0.156,0.235,0.375,0.367,0.549c0.155,0.202,0.409,0.381,0.527,0.637
					c0.178,0.388,0.078,0.784,0.15,1.18c0.04,0.213,0.163,0.208,0.22,0.374c0.051,0.138-0.04,0.247-0.031,0.388
					c0.01,0.157,0.111,0.297,0.186,0.436c0.096,0.187,0.128,0.404,0.232,0.58c0.095,0.16,0.259,0.229,0.353,0.367
					c0.239,0.351,0.319,0.802,0.583,1.166c0.255,0.346,0.504,0.726,0.905,0.716c0.011-0.158,0.19-0.841-0.032-0.94
					c-0.425-0.187-0.796-0.762-1.025-1.141c-0.122-0.201-0.391-0.572-0.443-0.769c-0.115-0.439,0.225-0.994,0.078-1.369
					c0.224,0.039,0.21,0.272,0.254,0.451c0.15,0.604,0.326,1.194,0.489,1.732c0.686,0.302,1.029,0.694,1.438,1.244
					c0.224,0.303,0.496,0.613,0.636,0.903c0.21,0.431,0.146,0.9,0.303,1.36c0.156,0.452,0.624,0.744,0.755,1.169
					c1.205,0.436,2.388,0.901,3.316,1.62c0.825-0.499,1.392,0.125,1.96,0.449c1.133,0.646,3.066,0.43,3.429,1.659
					c0.145,0.036,0.249,0.105,0.305,0.228c0.043,0.155-0.08,0.147-0.076,0.266c0.436,0.169,0.842,0.364,1.055,0.752
					c0.631,0.281,1.598,0.194,2.221-0.036c0.163,0.264,0.58,0.278,0.754,0.526c0.012,0.329,0.067,0.55-0.034,0.793
					c-0.102,0.25-0.593,1.065-0.753,1.244c-0.225,0.252-0.548,0.389-0.677,0.678c-0.193,0.443-0.065,0.857,0.038,1.244
					c-0.576,0.236-0.28,0.941-0.074,1.396c0.296,0.074,0.53,0.222,0.789,0.337c0.241,0.967,1.13,1.282,1.319,2.3
					c0.707,0.292,1.498-0.19,2.11,0.263c0.027,0.143,0.092,0.237,0.112,0.38c-0.22,0.295-0.41,0.614-0.491,1.054
					c-0.871,0.911-1.016,2.548-2.448,2.906c-0.086,0.264-0.216,0.487-0.338,0.713c0.057,0.005,0.139-0.013,0.15,0.036
					c-0.349,0.294-1.282,0.198-1.318,0.68c0.428,0.159,1.018-0.125,1.544-0.113c0.09-0.054-0.071-0.119,0.074-0.109
					c1.414-0.493,2.744-0.984,3.998-1.7c0.52-0.181,0.957-0.252,1.433-0.452c0.452-0.191,0.7-0.558,1.094-0.792
					c0.258-0.153,0.525-0.235,0.791-0.415c0.951-0.644,2.101-1.145,2.786-1.995c0.131-0.458,0.44-0.706,0.756-0.943
					c1.299-0.997,2.887-1.984,3.768-3.354c0.315-0.485,0.357-1.088,0.677-1.733c0.554-1.099,1.822-1.821,2.186-3.207
					C110.506,78.048,110.448,77.866,110.351,77.82z M91.807,61.577c0.142,0.003,0.168,0.127,0.338,0.112
					c0.052-0.03,0.052-0.12,0.071-0.189h0.151c0.094,0.113,0.03,0.151,0.037,0.338c-0.149,0.087-0.347,0.138-0.566,0.15
					C91.758,61.901,91.743,61.705,91.807,61.577z M90.655,61.022c0.107,0.133,0.16,0.305,0.12,0.562
					c-0.274,0.073-0.577,0.096-0.845-0.014c0.177-0.395-0.36-0.826-0.681-0.975c0.28-0.406,0.446-0.26,0.771-0.041
					C90.274,60.728,90.515,60.844,90.655,61.022z M88.342,62.675c-0.084,0.153-0.15,0.315-0.165,0.479
					c-0.647,0.097-0.709-0.461-0.541-0.946c0.071-0.2,0.968-1.427,0.968-1.427c0.105,0.082,0.22,0.043,0.3,0.081
					c-0.004,0.433-0.08,0.839-0.249,1.24C88.572,62.29,88.443,62.479,88.342,62.675z M88.789,59.579
					c0.15,0.204,0.298,0.408,0.376,0.68c-0.841,0.01-1.436,0.209-2.263,0.15c-0.036-0.115-0.181-0.117-0.188-0.264
					C87.418,59.922,87.897,59.171,88.789,59.579z M112.356,49.415c-0.1-0.162-0.201-0.319-0.316-0.462
					C112.147,49.097,112.251,49.252,112.356,49.415z M116.377,62.745c-0.146-1.342-0.273-2.631-0.451-3.919
					c-0.069-0.485-0.103-0.995-0.18-1.474c-0.113-0.448-0.241-0.892-0.382-1.333c-0.171-0.441-0.37-0.889-0.535-1.337
					c-0.169-0.465-0.315-0.953-0.47-1.416c-0.467-1.106-1-2.174-1.589-3.207c-0.142-0.226-0.281-0.439-0.416-0.645
					c0.235,0.393,0.435,0.829,0.591,1.309c-0.234-0.209-0.482-0.797-0.716-0.754c0.221,1.162,0.452,2.311,0.641,3.505
					c-0.06,0.13-0.296,0.082-0.302,0.265c0.23,0.662,0.386,1.396,0.453,2.225c0.316,0.602,0.727,1.291,0.753,2.035
					c0.022,0.504-0.132,0.996-0.15,1.467c-0.023,0.591-0.004,1.235,0.078,1.81c0.131,0.934,0.667,1.812,0.79,2.789
					c0.042,0.363-0.066,0.662,0,0.979c0.075,0.387,0.36,0.794,0.303,1.244c0.148,0.062,0.385,0.043,0.526,0.109
					c0.104,0.226,0.199,0.455,0.227,0.755c0.155,0.056,0.3,0.128,0.455,0.189c0.123-0.916,0.586-1.76,0.601-2.678
					C116.615,64.059,116.448,63.389,116.377,62.745z M111.777,49.252c-0.206-0.168-0.188-0.569-0.49-0.641
					C111.401,48.85,111.546,49.261,111.777,49.252z M108.727,48.574c-0.075-0.577-0.285-1.345-0.604-1.808
					c-0.25-0.089-0.484-0.194-0.864-0.152c-0.539-0.279-1.057-0.579-1.623-0.83c-0.023,0.09-0.125,0.104-0.15,0.19
					c0.227,0.263,0.404,0.575,0.676,0.792c0.071-0.095,0.146-0.181,0.305-0.189c0.916,0.494,1.55,1.264,2.146,2.074
					C108.63,48.604,108.66,48.573,108.727,48.574z M93.839,72.882c0.182-0.158,0.215-0.465,0.528-0.488
					c-0.253-0.104-0.499-0.427-0.829-0.49c-0.256-0.05-0.558,0.051-0.829,0.033c-0.896-0.039-1.843-0.665-2.643-0.336
					c-0.052,0.124-0.1,0.253-0.149,0.375c0.68,0.171,1.363,0.198,1.999,0.454c0.366,0.147,0.775,0.562,1.13,0.567
					C93.337,72.999,93.546,72.649,93.839,72.882z M70.51,46.69c-0.054,0.102-0.2,0.103-0.188,0.266
					C70.405,46.911,70.583,46.769,70.51,46.69z M97.907,72.695c-0.049,0.427,0.224,0.512,0.532,0.488
					c0.032-0.213,0.183-0.316,0.262-0.488C98.442,72.48,98.197,72.591,97.907,72.695z M73.485,54.68
					c0.157-0.021,0.223-0.131,0.339-0.188c-0.063-0.265,0.05-0.291,0.153-0.452c-0.252,0.137-0.108-0.179-0.304-0.19
					c-0.011,0.056-0.08,0.043-0.115,0.075C73.682,54.243,73.424,54.318,73.485,54.68z M74.731,42.053
					c-0.148,0.03-0.309,0.043-0.377,0.149c0.054,0.021,0.092,0.06,0.113,0.114C74.613,42.289,74.67,42.17,74.731,42.053z
					 M98.359,73.524c0.034-0.057,0.094-0.081,0.19-0.075c-0.004-0.043,0.007-0.105-0.037-0.114
					C98.499,73.413,98.211,73.406,98.359,73.524z M92.594,73.524v0.377c0.318,0.218,0.862-0.053,0.944-0.416
					C93.196,73.429,92.88,73.377,92.594,73.524z M94.82,72.882c0.054,0.123,0.139,0.215,0.187,0.342
					c0.846,0.36,1.559,0.064,2.373-0.15c0.03-0.233-0.117-0.283-0.108-0.491c-0.72-0.058-1.35-0.106-2.188-0.152
					C95.04,72.624,94.874,72.7,94.82,72.882z M78.16,38.21c-0.134-0.021-0.196,0.032-0.227,0.112
					C78.035,38.339,78.251,38.145,78.16,38.21z M96.627,39.114c-0.296-0.039-0.495-0.185-0.791-0.226
					c0.006,0.152,0.112,0.21,0.111,0.376c0.177,0.051,0.37,0.082,0.562,0.112c-0.063,0.126-0.192,0.179-0.261,0.305
					c0.261,0.533,1.155,0.598,1.656,0.225c-0.319-0.283-0.707-0.496-1.242-0.568C96.593,39.284,96.718,39.196,96.627,39.114z
					 M85.961,35.949c-0.147-0.107-0.385,0.02-0.528,0.038c-0.122-0.03-0.288,0.045-0.075,0.036
					C85.523,36.067,85.921,36.207,85.961,35.949z M85.208,46.501c0.238,0,0.414-0.062,0.564-0.149v-0.228
					c-0.375,0.033-0.28-0.398-0.638-0.188C85.026,46.192,85.111,46.284,85.208,46.501z M85.925,49.1
					c-0.052-0.215,0.085-0.237,0.113-0.374c-0.065-0.212-0.14-0.413-0.191-0.641c-0.19-0.085-0.295-0.261-0.527-0.304
					c-0.313,0.237-0.567,0.538-0.754,0.906C84.798,49.049,85.274,49.162,85.925,49.1z M83.475,46.916
					c-0.401-0.096-0.878-0.647-1.17-0.188c0.055,0.194,0.162,0.341,0.265,0.489c0.33-0.116,0.578,0.201,0.869,0.265
					c0.222,0.049,0.452-0.109,0.677,0.038c0.021-0.365-0.11-0.506,0-0.792C83.806,46.59,83.663,46.82,83.475,46.916z M78.498,37.946
					c0.346-0.205,0.846-0.259,1.095-0.563C79.1,37.418,78.677,37.723,78.498,37.946z M81.364,46.424
					c0.12,0.02,0.136,0.144,0.265,0.15c0.217-0.273,0.832-0.146,1.169-0.3c-0.15-0.751-0.832-0.181-1.356-0.073
					C81.48,46.339,81.346,46.307,81.364,46.424z M84.869,47.292c0.382,0.019,0.592,0.212,0.828,0.378
					c-0.009-0.258,0.31-0.312,0.191-0.566c-0.262-0.018-0.43-0.126-0.606-0.225C85.172,47.042,84.928,47.079,84.869,47.292z"/>
			</g>
		</g>
		<g opacity="0.6">
			<path fill="#FFFFFF" d="M87.867,62.977c8.988,7.502,21.127,3.382,28.698-0.541c-1.107-15.102-13.699-26.996-29.082-26.996
				c-15.43,0-28.048,12.011-29.083,27.188C65.42,59.192,78.206,54.887,87.867,62.977z"/>
		</g>
	</g>
</g>
</svg>
