<?xml version="1.0" encoding="utf-8"?>
<!-- Generator: Adobe Illustrator 13.0.0, SVG Export Plug-In . SVG Version: 6.00 Build 14948)  -->
<!DOCTYPE svg PUBLIC "-//W3C//DTD SVG 1.1//EN" "http://www.w3.org/Graphics/SVG/1.1/DTD/svg11.dtd">
<svg version="1.1" id="Layer_1" xmlns="http://www.w3.org/2000/svg" xmlns:xlink="http://www.w3.org/1999/xlink" x="0px" y="0px"
	 width="128px" height="128px" viewBox="0 0 128 128" enable-background="new 0 0 128 128" xml:space="preserve">
<g>
	<g>
		<path fill="#F2F2F2" d="M32.512,73.667c1.246-0.772,2.717-1.228,4.289-1.228h52.873c1.557,0,3.012,0.442,4.251,1.201l0.624-0.565
			c-1.406-0.915-3.076-1.452-4.875-1.452H36.801c-1.791,0-3.455,0.533-4.856,1.439L32.512,73.667z"/>
		
			<radialGradient id="SVGID_1_" cx="-226.0894" cy="55.542" r="30.6453" gradientTransform="matrix(1 0 0 -1 289.2754 151.834)" gradientUnits="userSpaceOnUse">
			<stop  offset="0" style="stop-color:#FAFAFA"/>
			<stop  offset="0.3629" style="stop-color:#E5E5E5"/>
			<stop  offset="1" style="stop-color:#C4C4C4"/>
		</radialGradient>
		<path fill="url(#SVGID_1_)" stroke="#808080" d="M56.059,118.003L31.136,81.152c-3.854-6.365-2.185-11.575,3.708-11.575h56.936
			c5.892,0,7.306,4.868,3.138,10.815l-24.272,38.365C66.477,124.708,59.914,124.367,56.059,118.003L56.059,118.003z"/>
		
			<radialGradient id="SVGID_2_" cx="-225.4263" cy="110.4277" r="23.7703" gradientTransform="matrix(1 0 0 -1 289.2754 151.834)" gradientUnits="userSpaceOnUse">
			<stop  offset="0" style="stop-color:#FAFAFA"/>
			<stop  offset="0.4142" style="stop-color:#E3E3E3"/>
			<stop  offset="1" style="stop-color:#C7C7C7"/>
		</radialGradient>
		<path fill="url(#SVGID_2_)" stroke="#808080" d="M40.087,41.407c0-13.134,10.639-23.779,23.764-23.779
			c13.124,0,23.76,10.646,23.76,23.779c0,13.133-10.637,23.779-23.76,23.779C50.726,65.188,40.087,54.54,40.087,41.407
			L40.087,41.407z"/>
		
			<linearGradient id="SVGID_3_" gradientUnits="userSpaceOnUse" x1="-214.6929" y1="122.5176" x2="-214.6929" y2="110.127" gradientTransform="matrix(1 0 0 -1 289.2754 151.834)">
			<stop  offset="0" style="stop-color:#80C11B"/>
			<stop  offset="1" style="stop-color:#80E21B"/>
		</linearGradient>
		<path fill="url(#SVGID_3_)" d="M68.391,35.511c0-3.422,2.771-6.194,6.193-6.194c3.419,0,6.191,2.772,6.191,6.194
			c0,3.425-2.772,6.197-6.191,6.197C71.162,41.708,68.391,38.936,68.391,35.511L68.391,35.511z"/>
		<path opacity="0.5" fill="#FFFFFF" enable-background="new    " d="M74.574,35.366c1.705,1.424,4.014,0.644,5.449-0.103
			c-0.213-2.868-2.603-5.127-5.521-5.127c-2.93,0-5.33,2.279-5.523,5.161C70.309,34.647,72.738,33.83,74.574,35.366z"/>
		<path fill="#F2F2F2" d="M46.596,29.092c3.969-5.448,11.263-9.623,18.083-9.623c6.82,0,13.93,4.175,17.896,9.623h0.754
			c-4.205-6.412-11.031-10.608-18.743-10.608c-7.716,0-14.541,4.196-18.747,10.608H46.596z"/>
		
			<linearGradient id="SVGID_4_" gradientUnits="userSpaceOnUse" x1="-225.2974" y1="91.2051" x2="-225.2974" y2="101.8096" gradientTransform="matrix(1 0 0 -1 289.2754 151.834)">
			<stop  offset="0" style="stop-color:#00B2DE"/>
			<stop  offset="1" style="stop-color:#99DBF6"/>
		</linearGradient>
		<path fill="url(#SVGID_4_)" d="M81.971,50.024c-3.97,5.448-11.267,9.62-18.088,9.62c-6.82,0-13.928-4.172-17.896-9.62h-0.754
			c4.204,6.413,11.029,10.605,18.745,10.605c7.713,0,14.54-4.192,18.745-10.605H81.971z"/>
		<path fill="#BFBFBF" d="M94.198,75.902c-0.017,1.248-0.368,2.506-1.091,3.632l-24.25,37.797c-0.715,1.112-1.697,1.948-2.808,2.487
			l0.117,0.709c1.297-0.586,2.449-1.533,3.272-2.819l24.252-37.797c0.822-1.279,1.205-2.718,1.199-4.138L94.198,75.902z"/>
		<path opacity="0.5" fill="#FFFFFF" enable-background="new    " d="M37.227,87.96c7.068-5.579,15.985-8.919,25.689-8.919
			c9.561,0,18.355,3.24,25.373,8.673l4.271-6.749c3.895-5.559,2.572-10.104-2.933-10.104H36.439c-5.509,0-7.066,4.865-3.465,10.811
			L37.227,87.96z"/>
	</g>
	<g>
		
			<linearGradient id="SVGID_5_" gradientUnits="userSpaceOnUse" x1="-225.4297" y1="146.8027" x2="-225.4297" y2="126.3262" gradientTransform="matrix(1 0 0 -1 289.2754 151.834)">
			<stop  offset="0" style="stop-color:#5F5D5C"/>
			<stop  offset="1" style="stop-color:#181500"/>
		</linearGradient>
		<path fill="url(#SVGID_5_)" d="M45.243,25.508l-15.981-2.746c0,0-4.742-1.501-4.742-3.497c0-1.998,3.742-3.245,3.742-3.245
			l28.287-9.427c0,0,4.922-1.562,7.67-1.562c2.747,0,7.988,1.623,7.988,1.623l24.582,8.072c0,0,6.423,2.009,6.383,3.787
			c-0.045,2.099-6.415,3.754-6.415,3.754l-13.31,2.989c0,0-10.736-2.747-18.229-2.747C57.727,22.51,45.243,25.508,45.243,25.508z"/>
		
			<linearGradient id="SVGID_6_" gradientUnits="userSpaceOnUse" x1="-247.7773" y1="128.0742" x2="-203.0898" y2="128.0742" gradientTransform="matrix(1 0 0 -1 289.2754 151.834)">
			<stop  offset="0" style="stop-color:#000000"/>
			<stop  offset="0.489" style="stop-color:#3C3A2F"/>
			<stop  offset="1" style="stop-color:#000000"/>
		</linearGradient>
		<path fill="url(#SVGID_6_)" d="M41.498,32.499c0,0,12.732-6.743,22.721-6.743c9.991,0,21.967,6.444,21.967,6.444l-1.567-11.327
			c0,0-7.414-5.853-20.646-5.853s-20.199,6.094-20.199,6.094L41.498,32.499z"/>
	</g>
	
		<linearGradient id="SVGID_7_" gradientUnits="userSpaceOnUse" x1="-257.8965" y1="124.4766" x2="-253.2612" y2="124.4766" gradientTransform="matrix(1 0 0 -1 289.2754 151.834)">
		<stop  offset="0" style="stop-color:#FFD207"/>
		<stop  offset="1" style="stop-color:#FAA61A"/>
	</linearGradient>
	<path fill="url(#SVGID_7_)" d="M36.014,13.485c0,0-0.379-1.087-1.514-0.757c-0.674,0.197-1.502,5.954-1.639,12.015
		c-0.138,6.062-1.482,17.259-1.482,17.259l3.452,0.048c0,0-0.73-27.226,0.233-28.054C36.029,13.171,36.014,13.485,36.014,13.485z"/>
</g>
</svg>
