<?xml version="1.0" encoding="utf-8"?>
<!-- Generator: Adobe Illustrator 13.0.0, SVG Export Plug-In . SVG Version: 6.00 Build 14948)  -->
<!DOCTYPE svg PUBLIC "-//W3C//DTD SVG 1.1//EN" "http://www.w3.org/Graphics/SVG/1.1/DTD/svg11.dtd">
<svg version="1.1" id="Layer_1" xmlns="http://www.w3.org/2000/svg" xmlns:xlink="http://www.w3.org/1999/xlink" x="0px" y="0px"
	 width="128px" height="128px" viewBox="0 0 128 128" enable-background="new 0 0 128 128" xml:space="preserve">
<g>
	<path fill="#D0D0D0" d="M111.881,105.381c0,9.455-7.67,17.121-17.123,17.121H32.31c-9.455,0-17.122-7.666-17.122-17.121V27.826
		c0-9.457,7.667-17.122,17.122-17.122h62.448c9.453,0,17.123,7.665,17.123,17.122V105.381z"/>
	<path opacity="0.26" fill="#FFFFFF" d="M93.344,14.067H33.722c-9.025,0-16.349,7.32-16.349,16.348v0.623h1.335
		c2.507-5.812,8.282-9.886,15.014-9.886h59.622c6.732,0,12.508,4.073,15.016,9.886h1.334v-0.623
		C109.693,21.387,102.373,14.067,93.344,14.067z"/>
	<linearGradient id="SVGID_1_" gradientUnits="userSpaceOnUse" x1="63.5342" y1="59.4243" x2="63.5342" y2="122.5024">
		<stop  offset="0" style="stop-color:#D5D7D8"/>
		<stop  offset="1" style="stop-color:#5C5F61"/>
	</linearGradient>
	<path fill="url(#SVGID_1_)" d="M47.213,78.035c-11.428,0-22.26-1.331-32.025-3.706v31.052c0,9.455,7.667,17.121,17.122,17.121
		h62.448c9.453,0,17.123-7.666,17.123-17.121V59.424C98.018,70.635,74.234,78.035,47.213,78.035z"/>
	<path fill="#4D4D4D" d="M33.364,121.184h60.341c9.139,0,16.545-7.407,16.545-16.544v-4.479c0,9.138-7.406,16.547-16.545,16.547
		H33.364c-9.138,0-16.544-7.409-16.544-16.547v4.479C16.82,113.776,24.226,121.184,33.364,121.184z"/>
	<g>
		
			<linearGradient id="SVGID_2_" gradientUnits="userSpaceOnUse" x1="2873.2939" y1="34.4575" x2="2873.2939" y2="92.9805" gradientTransform="matrix(-1 0 0 1 2936.8672 0)">
			<stop  offset="0" style="stop-color:#FFD207"/>
			<stop  offset="1" style="stop-color:#FAA61A"/>
		</linearGradient>
		<path fill="url(#SVGID_2_)" d="M31.428,66.604c0,17.753,14.392,32.145,32.147,32.145c17.754,0,32.143-14.392,32.143-32.145
			c0-17.754-14.389-32.146-32.143-32.146C45.82,34.458,31.428,48.849,31.428,66.604z M57.078,66.755
			c0.003-3.607,2.921-6.53,6.533-6.53v-0.002c3.606,0.002,6.528,2.925,6.528,6.532c0,3.607-2.922,6.53-6.528,6.53
			C59.999,73.285,57.081,70.362,57.078,66.755z"/>
		<path fill="#FA8F1A" d="M63.494,97.424c-17.531,0-31.775-14.038-32.129-31.486c-0.006,0.221-0.016,0.441-0.016,0.665
			c0,17.754,14.392,32.146,32.145,32.146c17.754,0,32.145-14.392,32.145-32.146c0-0.224-0.008-0.444-0.018-0.665
			C95.27,83.386,81.027,97.424,63.494,97.424z"/>
		<path fill="#FFFFFF" d="M63.572,37.575c11.084,0,20.854,5.631,26.606,14.188c-5.301-9.203-15.225-15.404-26.606-15.404
			c-11.379,0-21.303,6.197-26.601,15.396C42.723,43.203,52.488,37.575,63.572,37.575z"/>
		<linearGradient id="SVGID_3_" gradientUnits="userSpaceOnUse" x1="52.8354" y1="66.7373" x2="74.4121" y2="66.7373">
			<stop  offset="0" style="stop-color:#5F5D5C"/>
			<stop  offset="1" style="stop-color:#181500"/>
		</linearGradient>
		<path fill="url(#SVGID_3_)" d="M52.835,66.738c0.003,5.959,4.828,10.785,10.792,10.785c5.955,0,10.785-4.826,10.785-10.785
			c0-5.957-4.83-10.783-10.785-10.787v0.004C57.664,55.956,52.838,60.782,52.835,66.738z M57.16,66.738
			c0.002-3.57,2.893-6.46,6.466-6.46v-0.003c3.568,0.003,6.462,2.894,6.464,6.463c-0.002,3.57-2.896,6.463-6.464,6.463
			C60.052,73.201,57.162,70.309,57.16,66.738z"/>
	</g>
</g>
</svg>
