<?xml version="1.0" encoding="utf-8"?>
<!-- Generator: Adobe Illustrator 13.0.0, SVG Export Plug-In . SVG Version: 6.00 Build 14948)  -->
<!DOCTYPE svg PUBLIC "-//W3C//DTD SVG 1.1//EN" "http://www.w3.org/Graphics/SVG/1.1/DTD/svg11.dtd">
<svg version="1.1" id="Layer_1" xmlns="http://www.w3.org/2000/svg" xmlns:xlink="http://www.w3.org/1999/xlink" x="0px" y="0px"
	 width="128px" height="128px" viewBox="0 0 128 128" enable-background="new 0 0 128 128" xml:space="preserve">
<g>
	<linearGradient id="SVGID_1_" gradientUnits="userSpaceOnUse" x1="64.0005" y1="20.9746" x2="64.0005" y2="106.299">
		<stop  offset="0" style="stop-color:#FF9D00"/>
		<stop  offset="1" style="stop-color:#FF1F00"/>
	</linearGradient>
	<path fill="url(#SVGID_1_)" d="M125.842,90.184c0,8.783-7.118,15.901-15.902,15.901H18.059c-8.779,0-15.898-7.12-15.898-15.901
		V38.505c0-8.782,7.119-15.901,15.898-15.901h91.881c8.784,0,15.902,7.121,15.902,15.901V90.184z"/>
	<path fill="#999999" d="M8.215,30.264c2.672-2.886,7.912-5.53,12.508-5.53l86.957,0.116c4.598,0,9.141,2.528,11.812,5.414h0.991
		c-2.629-3.821-7.479-6.395-13.044-6.395H20.002c-5.565,0-10.415,2.573-13.044,6.395H8.215z"/>
	<path fill="#DB0F00" d="M119.226,98.618c-2.672,2.889-7.913,5.531-12.507,5.531l-86.959-0.115c-4.598,0-9.139-2.527-11.811-5.416
		H6.958c2.629,3.822,7.479,6.395,13.044,6.395h87.437c5.565,0,10.415-2.572,13.044-6.395H119.226z"/>
	<linearGradient id="SVGID_2_" gradientUnits="userSpaceOnUse" x1="113.2402" y1="98.9336" x2="14.446" y2="29.7571">
		<stop  offset="0" style="stop-color:#00B2DE"/>
		<stop  offset="1" style="stop-color:#99DBF6"/>
	</linearGradient>
	<path fill="url(#SVGID_2_)" d="M119.078,86.456c0,7.51-6.356,13.603-14.201,13.603H22.81c-7.844,0-14.201-6.093-14.201-13.603
		V42.238c0-7.515,6.357-13.606,14.201-13.606h82.067c7.845,0,14.201,6.092,14.201,13.606V86.456z"/>
	<path fill="#94D9F8" d="M104.877,28.632H22.81c-7.844,0-14.201,6.092-14.201,13.606v32.854c11.184,3.045,23.731,4.755,36.99,4.755
		c31.368,0,58.749-9.564,73.479-23.786V42.238C119.078,34.724,112.722,28.632,104.877,28.632z"/>
	<g>
		<radialGradient id="SVGID_3_" cx="43.1895" cy="68.2168" r="28.002" gradientUnits="userSpaceOnUse">
			<stop  offset="0" style="stop-color:#FAFAFA"/>
			<stop  offset="0.4142" style="stop-color:#E3E3E3"/>
			<stop  offset="1" style="stop-color:#C7C7C7"/>
		</radialGradient>
		<path fill="url(#SVGID_3_)" stroke="#000000" d="M15.197,68.216c0-15.47,12.533-28.012,27.992-28.012
			c15.458,0,27.992,12.542,27.992,28.012c0,15.471-12.534,28.013-27.992,28.013C27.73,96.229,15.197,83.687,15.197,68.216
			L15.197,68.216z"/>
		<linearGradient id="SVGID_4_" gradientUnits="userSpaceOnUse" x1="32.5806" y1="53.9736" x2="32.5806" y2="68.5713">
			<stop  offset="0" style="stop-color:#EC008C"/>
			<stop  offset="1" style="stop-color:#C40075"/>
		</linearGradient>
		<path fill="url(#SVGID_4_)" d="M25.286,61.272c0-4.029,3.268-7.299,7.295-7.299c4.028,0,7.294,3.27,7.294,7.299
			c0,4.033-3.266,7.299-7.294,7.299C28.554,68.571,25.286,65.306,25.286,61.272L25.286,61.272z"/>
		<path fill="#F2F2F2" d="M21.996,53.711c4.676-6.417,13.27-11.334,21.303-11.334s16.408,4.917,21.082,11.334h0.89
			c-4.954-7.554-12.994-12.495-22.08-12.495c-9.089,0-17.13,4.941-22.082,12.495H21.996z"/>
		<linearGradient id="SVGID_5_" gradientUnits="userSpaceOnUse" x1="21.1084" y1="84.6152" x2="65.2705" y2="84.6152">
			<stop  offset="0" style="stop-color:#EC008C"/>
			<stop  offset="1" style="stop-color:#C40075"/>
		</linearGradient>
		<path fill="url(#SVGID_5_)" d="M64.383,78.368c-4.676,6.418-13.27,11.333-21.305,11.333c-8.033,0-16.406-4.915-21.081-11.333
			h-0.889c4.952,7.553,12.993,12.493,22.079,12.493c9.089,0,17.13-4.94,22.083-12.493H64.383z"/>
	</g>
	
		<radialGradient id="SVGID_6_" cx="-140.6904" cy="-613.8081" r="18.5159" gradientTransform="matrix(1 0 0 -1 238.3271 -563.8105)" gradientUnits="userSpaceOnUse">
		<stop  offset="0" style="stop-color:#FFD207"/>
		<stop  offset="1" style="stop-color:#FAA61A"/>
	</radialGradient>
	<path fill="url(#SVGID_6_)" d="M116.146,49.997c0,0.375-1.429,0.678-3.19,0.678h-4.42c-0.152,2.521-1.164,4.813-2.738,6.586
		l2.553,2.554c1.182,1.184,1.936,2.346,1.686,2.596s-1.41-0.504-2.592-1.688l-2.555-2.554c-1.771,1.574-4.061,2.583-6.572,2.736
		v4.422c0,1.765-0.306,3.192-0.68,3.192c-0.375,0-0.68-1.432-0.68-3.192v-4.422c-2.518-0.153-4.805-1.162-6.575-2.738l-2.553,2.552
		c-1.179,1.182-2.341,1.938-2.591,1.688c-0.25-0.254,0.504-1.412,1.686-2.596l2.551-2.552c-1.574-1.771-2.584-4.062-2.736-6.584
		h-4.42c-1.766,0-3.192-0.303-3.192-0.678s1.43-0.678,3.192-0.678h4.42c0.152-2.521,1.157-4.807,2.732-6.58l-2.558-2.555
		c-1.179-1.184-1.934-2.346-1.684-2.596c0.253-0.25,1.411,0.506,2.593,1.688l2.554,2.555c1.771-1.578,4.062-2.588,6.579-2.742
		v-4.422c0-1.764,0.304-3.191,0.68-3.191c0.374,0,0.677,1.43,0.677,3.191v4.422c2.521,0.154,4.81,1.164,6.579,2.74l2.559-2.557
		c1.181-1.184,2.34-1.938,2.59-1.688c0.252,0.252-0.502,1.412-1.682,2.596l-2.559,2.557c1.574,1.773,2.581,4.062,2.734,6.582h4.42
		C114.718,49.319,116.146,49.622,116.146,49.997L116.146,49.997z"/>
</g>
</svg>
