<?xml version="1.0" encoding="utf-8"?>
<!-- Generator: Adobe Illustrator 13.0.0, SVG Export Plug-In . SVG Version: 6.00 Build 14948)  -->
<!DOCTYPE svg PUBLIC "-//W3C//DTD SVG 1.1//EN" "http://www.w3.org/Graphics/SVG/1.1/DTD/svg11.dtd">
<svg version="1.1" id="Layer_1" xmlns="http://www.w3.org/2000/svg" xmlns:xlink="http://www.w3.org/1999/xlink" x="0px" y="0px"
	 width="128px" height="128px" viewBox="0 0 128 128" enable-background="new 0 0 128 128" xml:space="preserve">
<g>
	<g>
		<g>
			<linearGradient id="SVGID_1_" gradientUnits="userSpaceOnUse" x1="79.1816" y1="112.5459" x2="54.5218" y2="95.2789">
				<stop  offset="0" style="stop-color:#181500"/>
				<stop  offset="1" style="stop-color:#5F5D5C"/>
			</linearGradient>
			<path fill="url(#SVGID_1_)" d="M67.771,84.821h-5.832c-1.148,15.47-3.318,28.266-10.49,28.042H78.26
				C71.084,113.087,68.911,100.292,67.771,84.821z"/>
			<linearGradient id="SVGID_2_" gradientUnits="userSpaceOnUse" x1="64" y1="112.2559" x2="64" y2="120.5513">
				<stop  offset="0" style="stop-color:#181500"/>
				<stop  offset="1" style="stop-color:#5F5D5C"/>
			</linearGradient>
			<path fill="url(#SVGID_2_)" d="M96.507,117.66c0,2.288-1.856,2.869-4.146,2.869H35.643c-2.293,0-4.149-0.577-4.149-2.869v0.176
				c0-2.29,1.856-4.146,4.149-4.146l18.038-1.276h22.242l16.438,1.276c2.289,0,4.146,1.856,4.146,4.146V117.66z"/>
		</g>
		<g opacity="0.79">
			<path fill="#808080" d="M91.211,113.951l-15.767-1.224H54.11l-17.302,1.224c-2.17,0-2.882,1.023-3.949,3.054
				c0.006,0.278,2.064-1.474,3.949-1.474l17.302-1.226h21.334l15.767,1.226c1.884,0,3.92,1.594,3.926,1.312
				C94.069,114.762,93.38,113.951,91.211,113.951z"/>
			<linearGradient id="SVGID_3_" gradientUnits="userSpaceOnUse" x1="32.8335" y1="117.7568" x2="32.8335" y2="117.9285">
				<stop  offset="0" style="stop-color:#FFFFFF"/>
				<stop  offset="1" style="stop-color:#000000"/>
			</linearGradient>
			<path fill="url(#SVGID_3_)" d="M32.829,117.928c0-0.031,0.009-0.057,0.009-0.085c0-0.029-0.009-0.053-0.009-0.083V117.928z"/>
			<linearGradient id="SVGID_4_" gradientUnits="userSpaceOnUse" x1="95.1846" y1="117.7568" x2="95.1846" y2="117.9285">
				<stop  offset="0" style="stop-color:#FFFFFF"/>
				<stop  offset="1" style="stop-color:#000000"/>
			</linearGradient>
			<path fill="url(#SVGID_4_)" d="M95.18,117.843c0.002,0.028,0.01,0.054,0.01,0.085v-0.168
				C95.189,117.79,95.182,117.812,95.18,117.843z"/>
		</g>
		<linearGradient id="SVGID_5_" gradientUnits="userSpaceOnUse" x1="122.1797" y1="92.293" x2="7.7211" y2="12.1482">
			<stop  offset="0" style="stop-color:#181500"/>
			<stop  offset="1" style="stop-color:#5F5D5C"/>
		</linearGradient>
		<path fill="url(#SVGID_5_)" d="M125.842,77.396c0,8.783-7.118,15.901-15.902,15.901H18.059c-8.779,0-15.898-7.12-15.898-15.901
			V25.717c0-8.782,7.119-15.901,15.898-15.901h91.881c8.784,0,15.902,7.121,15.902,15.901V77.396z"/>
		<path fill="#999999" d="M8.215,17.476c2.672-2.886,7.912-5.53,12.508-5.53l86.958,0.116c4.597,0,9.14,2.528,11.811,5.414h0.991
			c-2.629-3.821-7.479-6.395-13.044-6.395H20.002c-5.565,0-10.415,2.573-13.044,6.395H8.215z"/>
		<path d="M119.226,85.83c-2.672,2.889-7.912,5.531-12.507,5.531L19.76,91.246c-4.598,0-9.139-2.527-11.811-5.416H6.958
			c2.629,3.822,7.479,6.395,13.044,6.395h87.437c5.565,0,10.415-2.572,13.044-6.395H119.226z"/>
		<linearGradient id="SVGID_6_" gradientUnits="userSpaceOnUse" x1="113.2402" y1="86.1455" x2="14.4452" y2="16.9685">
			<stop  offset="0" style="stop-color:#00B2DE"/>
			<stop  offset="1" style="stop-color:#99DBF6"/>
		</linearGradient>
		<path fill="url(#SVGID_6_)" d="M119.078,73.668c0,7.51-6.356,13.603-14.201,13.603H22.81c-7.844,0-14.201-6.093-14.201-13.603
			V29.45c0-7.515,6.357-13.606,14.201-13.606h82.067c7.845,0,14.201,6.092,14.201,13.606V73.668z"/>
		<path fill="#94D9F8" d="M104.877,15.844H22.81c-7.844,0-14.201,6.092-14.201,13.606v32.854c11.184,3.045,23.731,4.755,36.99,4.755
			c31.368,0,58.749-9.564,73.479-23.786V29.45C119.078,21.936,112.722,15.844,104.877,15.844z"/>
	</g>
	<g>
		
			<linearGradient id="SVGID_7_" gradientUnits="userSpaceOnUse" x1="1720.1689" y1="7425.2061" x2="1694.0415" y2="7451.3335" gradientTransform="matrix(-0.7071 0.7071 -0.7071 -0.7071 6501.8447 4100.9141)">
			<stop  offset="0.0824" style="stop-color:#C2C2C2"/>
			<stop  offset="0.2635" style="stop-color:#D2D2D2"/>
			<stop  offset="0.5594" style="stop-color:#E6E6E6"/>
			<stop  offset="0.7582" style="stop-color:#EDEDED"/>
		</linearGradient>
		<path fill="url(#SVGID_7_)" stroke="#000000" stroke-miterlimit="3.8637" d="M16.673,54.198c0.041,1.642,0.59,3.028,1.769,4.207
			c1.135,1.135,2.566,1.725,4.206,1.767c1.64-0.042,3.07-0.631,4.204-1.765c1.181-1.177,1.768-2.608,1.769-4.207l-0.044-3.912
			l14.871,14.868c1.219,1.135,2.606,1.766,4.248,1.725c1.641,0.042,3.028-0.59,4.165-1.727c1.178-1.177,1.808-2.562,1.765-4.203
			c0.042-1.64-0.545-3.072-1.722-4.248L37.032,41.835l3.912,0.043c1.64-0.042,3.028-0.587,4.208-1.767
			c1.137-1.136,1.723-2.565,1.764-4.203c-0.041-1.641-0.629-3.071-1.766-4.208c-1.178-1.178-2.567-1.725-4.209-1.767l-18.298,0.039
			c-1.643-0.04-3.07,0.547-4.248,1.725c-1.136,1.136-1.724,2.562-1.685,4.205L16.673,54.198z"/>
		<g>
			<path d="M53.068,60.395c0.043,1.642-0.585,3.028-1.763,4.206c-1.137,1.136-2.525,1.767-4.167,1.724
				c-1.59,0.04-2.941-0.554-4.133-1.626l-0.009,0.009l0.45,0.449c1.219,1.135,2.606,1.766,4.248,1.725
				c1.641,0.042,3.028-0.59,4.165-1.727c1.178-1.177,1.808-2.562,1.765-4.203c0.042-1.64-0.545-3.072-1.722-4.248l-0.556-0.556
				C52.523,57.324,53.111,58.756,53.068,60.395z"/>
		</g>
		<g>
			<path opacity="0.8" fill="#FFFFFF" d="M18.328,54.174l0.036-17.03c-0.037-1.527,0.512-2.855,1.567-3.911
				c1.097-1.097,2.427-1.645,3.955-1.606l17.032-0.036c1.347,0.032,1.249-0.612-0.747-0.747l-17.033,0.036
				c-1.527-0.038-2.857,0.51-3.953,1.606c-1.057,1.056-1.604,2.384-1.568,3.912l-0.035,17.03
				C17.573,55.529,18.362,55.521,18.328,54.174z"/>
		</g>
	</g>
</g>
</svg>
