<?xml version="1.0" encoding="utf-8"?>
<!-- Generator: Adobe Illustrator 13.0.0, SVG Export Plug-In . SVG Version: 6.00 Build 14948)  -->
<!DOCTYPE svg PUBLIC "-//W3C//DTD SVG 1.1//EN" "http://www.w3.org/Graphics/SVG/1.1/DTD/svg11.dtd">
<svg version="1.1" id="Layer_1" xmlns="http://www.w3.org/2000/svg" xmlns:xlink="http://www.w3.org/1999/xlink" x="0px" y="0px"
	 width="128px" height="128px" viewBox="0 0 128 128" enable-background="new 0 0 128 128" xml:space="preserve">
<g>
	<g>
		
			<radialGradient id="SVGID_1_" cx="64.4722" cy="64.6445" r="53.1356" gradientTransform="matrix(1 0 0 1 0 -9.765625e-004)" gradientUnits="userSpaceOnUse">
			<stop  offset="0" style="stop-color:#FAFAFA"/>
			<stop  offset="0.3109" style="stop-color:#F4F4F4"/>
			<stop  offset="0.7262" style="stop-color:#E3E3E3"/>
			<stop  offset="1" style="stop-color:#D4D4D4"/>
		</radialGradient>
		<path fill="url(#SVGID_1_)" stroke="#B2B2B2" stroke-width="2" d="M109.155,22.85v83.586c0,10.285-8.344,18.625-18.637,18.625
			H38.426c-10.295,0-18.637-8.34-18.637-18.625V22.85c0-10.285,8.342-18.623,18.637-18.623h52.093
			C100.812,4.227,109.155,12.564,109.155,22.85L109.155,22.85z"/>
		<path fill="#B2B2B2" d="M90.714,122.734H38.62c-10.295,0-18.637-8.34-18.637-18.625v2.326c0,10.285,8.342,18.625,18.637,18.625
			h52.094c10.293,0,18.637-8.34,18.637-18.625v-2.326C109.351,114.395,101.007,122.734,90.714,122.734z"/>
		<path fill="#FFFFFF" d="M30.955,12.213c2.079-1.734,4.432-2.905,7.665-2.905h52.094c3.234,0,5.586,1.171,7.666,2.905h2.629
			c-2.621-2.646-5.805-4.238-10.295-4.238H38.62c-4.489,0-7.673,1.593-10.294,4.238H30.955z"/>
	</g>
	
		<linearGradient id="SVGID_2_" gradientUnits="userSpaceOnUse" x1="-182.2554" y1="-616.3364" x2="-182.2554" y2="-695.5317" gradientTransform="matrix(1 0 0 -1 246.7271 -588.7695)">
		<stop  offset="0" style="stop-color:#C51015"/>
		<stop  offset="1" style="stop-color:#E20A16"/>
	</linearGradient>
	<path fill="url(#SVGID_2_)" d="M59.306,28.297c-2.256,1.377-3.287,4.387-3.287,7.383c0,1.174,0.158,2.344,0.461,3.416
		c1.752,6.268,3.713,11.971,5.893,17.158c-0.344,2.646-0.77,5.262-1.283,7.824c-1.068,5.381-2.736,12.092-5.68,18.536
		c-0.965,0.438-1.932,0.88-1.932,0.88c-6.725,3.01-14.342,6.417-19.381,11.695c-1.395,1.463-2.133,3.273-2.133,5.063
		c0,0.781,0.139,1.559,0.426,2.303c0.945,2.43,3.219,3.998,6.082,4.19c4.492,0.302,8.383-3.437,10.955-5.905l0.607-0.58
		c4.143-3.925,7.248-8.558,9.645-13.354c0.033-0.018,0.279-0.126,0.279-0.126c5.875-2.765,11.91-5.132,16.508-6.882l0.002-0.002
		c0.096-0.035,0.166-0.057,0.262-0.092c1.311,1.53,2.807,3.104,4.793,4.176c3.311,1.781,9.543,1.763,12.936-0.938
		c2.203-1.748,3.014-4.402,2.229-7.283c-0.441-1.606-1.486-2.871-3.027-3.654c-3.566-1.811-9.572-0.684-15.041,1.045
		c-3.947-4.959-7.416-10.868-10.453-17.844c0.252-2.166,0.498-4.336,0.641-6.523l0.479-3.561c0.346-2.17,0.727-4.567,0.727-6.908
		c0-3.143-0.688-6.18-3.088-8.42C63.272,26.486,60.38,27.641,59.306,28.297L59.306,28.297z M61.942,37.557
		c-0.178-0.627-0.246-1.262-0.246-1.844c0-1.052,0.227-1.924,0.457-2.355c0.195,0.107,0.492,0.306,0.9,0.689
		c0.969,0.903,1.283,2.482,1.283,4.303c0,1.687-0.275,3.563-0.553,5.313C63.147,41.691,62.532,39.662,61.942,37.557L61.942,37.557z
		 M66.655,65.196c1.957,3.63,4.063,6.948,6.326,9.967c-3.014,1.158-6.463,2.528-10.09,4.089
		C64.661,74.234,65.831,69.342,66.655,65.196L66.655,65.196z M91.216,77.247c0.248,0.935-0.037,1.158-0.289,1.356
		c-1.416,1.131-5.211,1.193-6.711,0.382c-0.518-0.278-1.002-0.666-1.473-1.093C87.735,76.598,90.679,76.693,91.216,77.247
		L91.216,77.247z M38.858,101.083c-0.607-0.041-1.049-0.261-1.176-0.585c-0.029-0.08-0.043-0.166-0.043-0.26
		c0-0.338,0.199-0.749,0.566-1.133c3.078-3.225,7.619-5.766,12.252-7.983c-1.301,1.769-2.697,3.478-4.322,5.015l-0.637,0.608
		C43.759,98.42,40.847,101.217,38.858,101.083L38.858,101.083z"/>
</g>
</svg>
