<?xml version="1.0" encoding="utf-8"?>
<!-- Generator: Adobe Illustrator 13.0.0, SVG Export Plug-In . SVG Version: 6.00 Build 14948)  -->
<!DOCTYPE svg PUBLIC "-//W3C//DTD SVG 1.1//EN" "http://www.w3.org/Graphics/SVG/1.1/DTD/svg11.dtd">
<svg version="1.1" id="Layer_1" xmlns="http://www.w3.org/2000/svg" xmlns:xlink="http://www.w3.org/1999/xlink" x="0px" y="0px"
	 width="128px" height="128px" viewBox="0 0 128 128" enable-background="new 0 0 128 128" xml:space="preserve">
<g>
	<g>
		
			<radialGradient id="SVGID_1_" cx="64.4722" cy="64.6445" r="53.1356" gradientTransform="matrix(1 0 0 1 0 -9.765625e-004)" gradientUnits="userSpaceOnUse">
			<stop  offset="0" style="stop-color:#FAFAFA"/>
			<stop  offset="0.3109" style="stop-color:#F4F4F4"/>
			<stop  offset="0.7262" style="stop-color:#E3E3E3"/>
			<stop  offset="1" style="stop-color:#D4D4D4"/>
		</radialGradient>
		<path fill="url(#SVGID_1_)" stroke="#B2B2B2" stroke-width="2" d="M109.155,22.85v83.586c0,10.285-8.344,18.625-18.637,18.625
			H38.426c-10.295,0-18.637-8.34-18.637-18.625V22.85c0-10.285,8.342-18.623,18.637-18.623h52.093
			C100.812,4.227,109.155,12.564,109.155,22.85L109.155,22.85z"/>
		<path fill="#B2B2B2" d="M90.714,122.734H38.62c-10.295,0-18.637-8.34-18.637-18.625v2.326c0,10.285,8.342,18.625,18.637,18.625
			h52.094c10.293,0,18.637-8.34,18.637-18.625v-2.326C109.351,114.395,101.007,122.734,90.714,122.734z"/>
		<path fill="#FFFFFF" d="M30.955,12.213c2.079-1.734,4.432-2.905,7.665-2.905h52.094c3.234,0,5.586,1.171,7.666,2.905h2.629
			c-2.621-2.646-5.805-4.238-10.295-4.238H38.62c-4.489,0-7.673,1.593-10.294,4.238H30.955z"/>
	</g>
	<g>
		
			<linearGradient id="SVGID_2_" gradientUnits="userSpaceOnUse" x1="-205.3618" y1="-632.8545" x2="-216.3836" y2="-625.137" gradientTransform="matrix(1 0 0 -1 246.7271 -588.7695)">
			<stop  offset="0" style="stop-color:#181500"/>
			<stop  offset="1" style="stop-color:#5F5D5C"/>
		</linearGradient>
		<path fill="url(#SVGID_2_)" d="M40.48,43.769c0,1.394-0.457,2.518-1.369,3.37c-0.854,0.81-1.938,1.212-3.256,1.212
			c-1.303,0-2.396-0.416-3.278-1.248c-0.884-0.832-1.324-1.941-1.324-3.335v-7.094c0-1.393,0.437-2.504,1.313-3.335
			c0.875-0.83,1.974-1.247,3.289-1.247c1.289,0,2.381,0.42,3.278,1.257c0.897,0.838,1.347,1.946,1.347,3.324V43.769L40.48,43.769z
			 M38.193,43.704v-6.961c0-0.779-0.207-1.407-0.619-1.887c-0.411-0.48-0.985-0.719-1.719-0.719c-0.717,0-1.283,0.232-1.694,0.695
			c-0.41,0.463-0.617,1.103-0.617,1.909v6.96c0,0.776,0.201,1.414,0.606,1.907c0.418,0.465,0.988,0.698,1.705,0.698
			c0.72,0,1.289-0.245,1.707-0.729C37.982,45.092,38.193,44.466,38.193,43.704z"/>
		
			<linearGradient id="SVGID_3_" gradientUnits="userSpaceOnUse" x1="-193.5259" y1="-632.1587" x2="-203.4047" y2="-625.2415" gradientTransform="matrix(1 0 0 -1 246.7271 -588.7695)">
			<stop  offset="0" style="stop-color:#181500"/>
			<stop  offset="1" style="stop-color:#5F5D5C"/>
		</linearGradient>
		<path fill="url(#SVGID_3_)" d="M49.822,48.216h-2.291V34.722L44.41,37.46l-0.001-2.539l3.128-2.687l2.285-0.007V48.216z"/>
		
			<linearGradient id="SVGID_4_" gradientUnits="userSpaceOnUse" x1="-181.4263" y1="-632.8535" x2="-192.4481" y2="-625.1361" gradientTransform="matrix(1 0 0 -1 246.7271 -588.7695)">
			<stop  offset="0" style="stop-color:#181500"/>
			<stop  offset="1" style="stop-color:#5F5D5C"/>
		</linearGradient>
		<path fill="url(#SVGID_4_)" d="M64.415,43.769c0,1.394-0.456,2.518-1.369,3.37c-0.854,0.81-1.938,1.212-3.256,1.212
			c-1.302,0-2.396-0.416-3.278-1.248c-0.884-0.831-1.324-1.941-1.324-3.335v-7.094c0-1.393,0.438-2.504,1.313-3.335
			c0.875-0.83,1.972-1.247,3.289-1.247c1.288,0,2.381,0.42,3.278,1.257c0.896,0.838,1.346,1.946,1.346,3.324L64.415,43.769
			L64.415,43.769z M62.126,43.704v-6.961c0-0.779-0.206-1.407-0.617-1.887c-0.413-0.48-0.985-0.719-1.718-0.719
			c-0.719,0-1.284,0.232-1.695,0.695c-0.412,0.463-0.617,1.103-0.617,1.909v6.96c0,0.776,0.203,1.414,0.606,1.907
			c0.418,0.465,0.987,0.698,1.706,0.698s1.288-0.245,1.707-0.729C61.916,45.092,62.126,44.466,62.126,43.704z"/>
		
			<linearGradient id="SVGID_5_" gradientUnits="userSpaceOnUse" x1="-169.5913" y1="-632.1587" x2="-179.4695" y2="-625.2418" gradientTransform="matrix(1 0 0 -1 246.7271 -588.7695)">
			<stop  offset="0" style="stop-color:#181500"/>
			<stop  offset="1" style="stop-color:#5F5D5C"/>
		</linearGradient>
		<path fill="url(#SVGID_5_)" d="M73.756,48.216h-2.289V34.722l-3.123,2.738v-2.539l3.127-2.687l2.285-0.007V48.216L73.756,48.216z"
			/>
		
			<linearGradient id="SVGID_6_" gradientUnits="userSpaceOnUse" x1="-157.4937" y1="-632.8545" x2="-168.5156" y2="-625.1369" gradientTransform="matrix(1 0 0 -1 246.7271 -588.7695)">
			<stop  offset="0" style="stop-color:#181500"/>
			<stop  offset="1" style="stop-color:#5F5D5C"/>
		</linearGradient>
		<path fill="url(#SVGID_6_)" d="M88.35,43.769c0,1.394-0.457,2.518-1.371,3.37c-0.854,0.81-1.938,1.212-3.256,1.212
			c-1.301,0-2.393-0.416-3.277-1.248c-0.883-0.831-1.325-1.941-1.325-3.335v-7.094c0-1.393,0.438-2.504,1.313-3.335
			c0.875-0.83,1.971-1.247,3.289-1.247c1.287,0,2.381,0.42,3.279,1.257c0.896,0.838,1.346,1.946,1.346,3.324L88.35,43.769
			L88.35,43.769z M86.061,43.704v-6.961c0-0.779-0.203-1.407-0.617-1.887s-0.983-0.719-1.719-0.719
			c-0.719,0-1.283,0.232-1.692,0.695c-0.414,0.463-0.619,1.103-0.619,1.909v6.96c0,0.776,0.203,1.414,0.606,1.907
			c0.418,0.465,0.986,0.698,1.705,0.698c0.721,0,1.289-0.245,1.707-0.729C85.85,45.091,86.061,44.466,86.061,43.704z"/>
		
			<linearGradient id="SVGID_7_" gradientUnits="userSpaceOnUse" x1="-145.6572" y1="-632.1611" x2="-155.5367" y2="-625.2435" gradientTransform="matrix(1 0 0 -1 246.7271 -588.7695)">
			<stop  offset="0" style="stop-color:#181500"/>
			<stop  offset="1" style="stop-color:#5F5D5C"/>
		</linearGradient>
		<path fill="url(#SVGID_7_)" d="M97.691,48.216H95.4V34.722l-3.121,2.738l-0.002-2.539l3.127-2.687l2.283-0.007v15.987
			L97.691,48.216L97.691,48.216z"/>
		
			<linearGradient id="SVGID_8_" gradientUnits="userSpaceOnUse" x1="-205.3618" y1="-659.7964" x2="-216.3836" y2="-652.0789" gradientTransform="matrix(1 0 0 -1 246.7271 -588.7695)">
			<stop  offset="0" style="stop-color:#181500"/>
			<stop  offset="1" style="stop-color:#5F5D5C"/>
		</linearGradient>
		<path fill="url(#SVGID_8_)" d="M40.48,70.712c0,1.394-0.457,2.517-1.369,3.369c-0.854,0.81-1.938,1.212-3.256,1.212
			c-1.303,0-2.396-0.416-3.278-1.248c-0.884-0.831-1.324-1.941-1.324-3.334v-7.094c0-1.393,0.437-2.505,1.313-3.335
			c0.875-0.831,1.974-1.248,3.289-1.248c1.289,0,2.381,0.421,3.278,1.258c0.897,0.838,1.347,1.946,1.347,3.323V70.712L40.48,70.712z
			 M38.193,70.646v-6.96c0-0.778-0.207-1.406-0.619-1.887c-0.411-0.48-0.985-0.719-1.719-0.719c-0.717,0-1.283,0.23-1.694,0.695
			c-0.41,0.462-0.617,1.102-0.617,1.909v6.961c0,0.776,0.201,1.414,0.606,1.905c0.418,0.466,0.988,0.697,1.705,0.697
			c0.72,0,1.289-0.243,1.707-0.729C37.982,72.033,38.193,71.408,38.193,70.646z"/>
		
			<linearGradient id="SVGID_9_" gradientUnits="userSpaceOnUse" x1="-193.5254" y1="-659.1021" x2="-203.404" y2="-652.1849" gradientTransform="matrix(1 0 0 -1 246.7271 -588.7695)">
			<stop  offset="0" style="stop-color:#181500"/>
			<stop  offset="1" style="stop-color:#5F5D5C"/>
		</linearGradient>
		<path fill="url(#SVGID_9_)" d="M49.822,75.158h-2.291V61.663l-3.121,2.739l-0.001-2.539l3.128-2.687l2.285-0.007V75.158z"/>
		
			<linearGradient id="SVGID_10_" gradientUnits="userSpaceOnUse" x1="-181.4272" y1="-659.7979" x2="-192.4492" y2="-652.0802" gradientTransform="matrix(1 0 0 -1 246.7271 -588.7695)">
			<stop  offset="0" style="stop-color:#181500"/>
			<stop  offset="1" style="stop-color:#5F5D5C"/>
		</linearGradient>
		<path fill="url(#SVGID_10_)" d="M64.415,70.712c0,1.394-0.456,2.517-1.369,3.369c-0.854,0.81-1.938,1.212-3.256,1.212
			c-1.302,0-2.396-0.416-3.278-1.248c-0.884-0.83-1.324-1.941-1.324-3.334v-7.094c0-1.393,0.438-2.505,1.313-3.335
			c0.875-0.831,1.972-1.248,3.289-1.248c1.288,0,2.381,0.421,3.278,1.258c0.896,0.838,1.346,1.946,1.346,3.323L64.415,70.712
			L64.415,70.712z M62.126,70.646v-6.96c0-0.778-0.206-1.406-0.617-1.887c-0.413-0.48-0.985-0.719-1.718-0.719
			c-0.719,0-1.284,0.23-1.695,0.695c-0.412,0.462-0.617,1.102-0.617,1.908v6.962c0,0.776,0.203,1.412,0.606,1.904
			c0.418,0.465,0.987,0.697,1.706,0.697s1.288-0.242,1.707-0.729C61.916,72.033,62.126,71.408,62.126,70.646z"/>
		
			<linearGradient id="SVGID_11_" gradientUnits="userSpaceOnUse" x1="-169.5918" y1="-659.1011" x2="-179.4698" y2="-652.1844" gradientTransform="matrix(1 0 0 -1 246.7271 -588.7695)">
			<stop  offset="0" style="stop-color:#181500"/>
			<stop  offset="1" style="stop-color:#5F5D5C"/>
		</linearGradient>
		<path fill="url(#SVGID_11_)" d="M73.756,75.158h-2.289V61.663l-3.123,2.739v-2.539l3.127-2.687l2.285-0.007V75.158L73.756,75.158z
			"/>
		
			<linearGradient id="SVGID_12_" gradientUnits="userSpaceOnUse" x1="-157.4941" y1="-659.7969" x2="-168.5161" y2="-652.0792" gradientTransform="matrix(1 0 0 -1 246.7271 -588.7695)">
			<stop  offset="0" style="stop-color:#181500"/>
			<stop  offset="1" style="stop-color:#5F5D5C"/>
		</linearGradient>
		<path fill="url(#SVGID_12_)" d="M88.35,70.712c0,1.394-0.457,2.517-1.371,3.369c-0.854,0.81-1.938,1.212-3.256,1.212
			c-1.301,0-2.393-0.416-3.277-1.248c-0.885-0.83-1.325-1.941-1.325-3.334v-7.094c0-1.393,0.438-2.505,1.313-3.335
			c0.875-0.831,1.971-1.248,3.289-1.248c1.287,0,2.381,0.421,3.279,1.258c0.896,0.838,1.346,1.946,1.346,3.323L88.35,70.712
			L88.35,70.712z M86.061,70.646v-6.96c0-0.778-0.203-1.406-0.617-1.887c-0.414-0.48-0.983-0.719-1.719-0.719
			c-0.719,0-1.283,0.23-1.692,0.695c-0.414,0.462-0.619,1.102-0.619,1.908v6.962c0,0.776,0.203,1.412,0.606,1.904
			c0.418,0.465,0.986,0.697,1.705,0.697c0.721,0,1.289-0.242,1.707-0.729C85.85,72.031,86.061,71.408,86.061,70.646z"/>
		
			<linearGradient id="SVGID_13_" gradientUnits="userSpaceOnUse" x1="-145.6572" y1="-659.1021" x2="-155.5364" y2="-652.1845" gradientTransform="matrix(1 0 0 -1 246.7271 -588.7695)">
			<stop  offset="0" style="stop-color:#181500"/>
			<stop  offset="1" style="stop-color:#5F5D5C"/>
		</linearGradient>
		<path fill="url(#SVGID_13_)" d="M97.691,75.158H95.4V61.663l-3.121,2.739l-0.002-2.539l3.127-2.687l2.283-0.007v15.986h0.004
			V75.158z"/>
		
			<linearGradient id="SVGID_14_" gradientUnits="userSpaceOnUse" x1="-205.3613" y1="-686.7393" x2="-216.3829" y2="-679.0219" gradientTransform="matrix(1 0 0 -1 246.7271 -588.7695)">
			<stop  offset="0" style="stop-color:#181500"/>
			<stop  offset="1" style="stop-color:#5F5D5C"/>
		</linearGradient>
		<path fill="url(#SVGID_14_)" d="M40.48,97.654c0,1.394-0.457,2.517-1.369,3.369c-0.854,0.809-1.938,1.213-3.256,1.213
			c-1.303,0-2.396-0.416-3.278-1.248c-0.884-0.832-1.324-1.943-1.324-3.334v-7.094c0-1.394,0.437-2.506,1.313-3.336
			c0.875-0.83,1.974-1.248,3.289-1.248c1.289,0,2.381,0.422,3.278,1.258c0.897,0.838,1.347,1.945,1.347,3.324V97.654L40.48,97.654z
			 M38.193,97.589v-6.96c0-0.779-0.207-1.406-0.619-1.887c-0.411-0.479-0.985-0.719-1.719-0.719c-0.717,0-1.283,0.231-1.694,0.695
			c-0.41,0.461-0.617,1.102-0.617,1.909v6.96c0,0.775,0.201,1.413,0.606,1.905c0.418,0.464,0.988,0.696,1.705,0.696
			c0.72,0,1.289-0.24,1.707-0.729C37.982,98.979,38.193,98.354,38.193,97.589z"/>
		
			<linearGradient id="SVGID_15_" gradientUnits="userSpaceOnUse" x1="-193.5254" y1="-686.0449" x2="-203.4042" y2="-679.1276" gradientTransform="matrix(1 0 0 -1 246.7271 -588.7695)">
			<stop  offset="0" style="stop-color:#181500"/>
			<stop  offset="1" style="stop-color:#5F5D5C"/>
		</linearGradient>
		<path fill="url(#SVGID_15_)" d="M49.822,102.102h-2.291V88.605l-3.121,2.74l-0.001-2.539l3.128-2.688l2.285-0.006V102.102z"/>
		
			<linearGradient id="SVGID_16_" gradientUnits="userSpaceOnUse" x1="-181.4268" y1="-686.7393" x2="-192.4482" y2="-679.0218" gradientTransform="matrix(1 0 0 -1 246.7271 -588.7695)">
			<stop  offset="0" style="stop-color:#181500"/>
			<stop  offset="1" style="stop-color:#5F5D5C"/>
		</linearGradient>
		<path fill="url(#SVGID_16_)" d="M64.415,97.654c0,1.394-0.456,2.517-1.369,3.369c-0.854,0.809-1.938,1.213-3.256,1.213
			c-1.302,0-2.396-0.416-3.278-1.248c-0.884-0.83-1.324-1.943-1.324-3.334v-7.094c0-1.394,0.438-2.506,1.313-3.336
			c0.875-0.83,1.972-1.248,3.289-1.248c1.288,0,2.381,0.422,3.278,1.258c0.896,0.838,1.346,1.945,1.346,3.324L64.415,97.654
			L64.415,97.654z M62.126,97.589v-6.96c0-0.779-0.206-1.406-0.617-1.887c-0.413-0.479-0.985-0.719-1.718-0.719
			c-0.719,0-1.284,0.231-1.695,0.695c-0.412,0.461-0.617,1.102-0.617,1.909v6.96c0,0.775,0.203,1.413,0.606,1.905
			c0.418,0.464,0.987,0.696,1.706,0.696s1.288-0.24,1.707-0.729C61.916,98.979,62.126,98.354,62.126,97.589z"/>
		
			<linearGradient id="SVGID_17_" gradientUnits="userSpaceOnUse" x1="-169.5913" y1="-686.0444" x2="-179.4695" y2="-679.1276" gradientTransform="matrix(1 0 0 -1 246.7271 -588.7695)">
			<stop  offset="0" style="stop-color:#181500"/>
			<stop  offset="1" style="stop-color:#5F5D5C"/>
		</linearGradient>
		<path fill="url(#SVGID_17_)" d="M73.756,102.102h-2.289V88.605l-3.123,2.74v-2.539l3.127-2.688l2.285-0.006V102.102
			L73.756,102.102z"/>
		
			<linearGradient id="SVGID_18_" gradientUnits="userSpaceOnUse" x1="-157.4932" y1="-686.7393" x2="-168.515" y2="-679.0215" gradientTransform="matrix(1 0 0 -1 246.7271 -588.7695)">
			<stop  offset="0" style="stop-color:#181500"/>
			<stop  offset="1" style="stop-color:#5F5D5C"/>
		</linearGradient>
		<path fill="url(#SVGID_18_)" d="M88.35,97.654c0,1.394-0.457,2.517-1.371,3.369c-0.854,0.809-1.938,1.213-3.256,1.213
			c-1.301,0-2.393-0.416-3.277-1.248c-0.885-0.83-1.325-1.943-1.325-3.334v-7.094c0-1.394,0.438-2.506,1.313-3.336
			s1.974-1.248,3.291-1.248c1.285,0,2.379,0.422,3.277,1.258c0.898,0.838,1.348,1.945,1.348,3.324V97.654L88.35,97.654z
			 M86.061,97.589v-6.96c0-0.779-0.203-1.406-0.617-1.887s-0.983-0.719-1.719-0.719c-0.719,0-1.283,0.231-1.692,0.695
			c-0.414,0.461-0.619,1.102-0.619,1.909v6.96c0,0.775,0.203,1.413,0.606,1.905c0.418,0.464,0.986,0.696,1.705,0.696
			c0.721,0,1.289-0.24,1.707-0.729C85.85,98.977,86.061,98.354,86.061,97.589z"/>
		
			<linearGradient id="SVGID_19_" gradientUnits="userSpaceOnUse" x1="-145.6572" y1="-686.0454" x2="-155.5366" y2="-679.1277" gradientTransform="matrix(1 0 0 -1 246.7271 -588.7695)">
			<stop  offset="0" style="stop-color:#181500"/>
			<stop  offset="1" style="stop-color:#5F5D5C"/>
		</linearGradient>
		<path fill="url(#SVGID_19_)" d="M97.691,102.102H95.4V88.605l-3.121,2.74l-0.002-2.539l3.127-2.688l2.283-0.006V102.1h0.004
			V102.102z"/>
	</g>
</g>
</svg>
