<?xml version="1.0" encoding="utf-8"?>
<!-- Generator: Adobe Illustrator 13.0.0, SVG Export Plug-In . SVG Version: 6.00 Build 14948)  -->
<!DOCTYPE svg PUBLIC "-//W3C//DTD SVG 1.1//EN" "http://www.w3.org/Graphics/SVG/1.1/DTD/svg11.dtd">
<svg version="1.1" id="Layer_1" xmlns="http://www.w3.org/2000/svg" xmlns:xlink="http://www.w3.org/1999/xlink" x="0px" y="0px"
	 width="128px" height="128px" viewBox="0 0 128 128" enable-background="new 0 0 128 128" xml:space="preserve">
<g>
	<g>
		
			<radialGradient id="SVGID_1_" cx="64.4722" cy="64.6445" r="53.1356" gradientTransform="matrix(1 0 0 1 0 -9.765625e-004)" gradientUnits="userSpaceOnUse">
			<stop  offset="0" style="stop-color:#FAFAFA"/>
			<stop  offset="0.3109" style="stop-color:#F4F4F4"/>
			<stop  offset="0.7262" style="stop-color:#E3E3E3"/>
			<stop  offset="1" style="stop-color:#D4D4D4"/>
		</radialGradient>
		<path fill="url(#SVGID_1_)" stroke="#B2B2B2" stroke-width="2" d="M109.155,22.85v83.586c0,10.285-8.344,18.625-18.637,18.625
			H38.426c-10.295,0-18.637-8.34-18.637-18.625V22.85c0-10.285,8.342-18.623,18.637-18.623h52.093
			C100.812,4.227,109.155,12.564,109.155,22.85L109.155,22.85z"/>
		<path fill="#B2B2B2" d="M90.714,122.734H38.62c-10.295,0-18.637-8.34-18.637-18.625v2.326c0,10.285,8.342,18.625,18.637,18.625
			h52.094c10.293,0,18.637-8.34,18.637-18.625v-2.326C109.351,114.395,101.007,122.734,90.714,122.734z"/>
		<path fill="#FFFFFF" d="M30.955,12.213c2.079-1.734,4.432-2.905,7.665-2.905h52.094c3.234,0,5.586,1.171,7.666,2.905h2.629
			c-2.621-2.646-5.805-4.238-10.295-4.238H38.62c-4.489,0-7.673,1.593-10.294,4.238H30.955z"/>
	</g>
	<g>
		
			<linearGradient id="SVGID_2_" gradientUnits="userSpaceOnUse" x1="-182.2544" y1="-669.2324" x2="-182.2544" y2="-640.0957" gradientTransform="matrix(1 0 0 -1 246.7271 -588.7695)">
			<stop  offset="0" style="stop-color:#5F5D5C"/>
			<stop  offset="1" style="stop-color:#181500"/>
		</linearGradient>
		<path fill="url(#SVGID_2_)" d="M102.536,68.914c0,6.379-5.172,11.549-11.551,11.549H37.96c-6.379,0-11.551-5.17-11.551-11.549
			v-6.038c0-6.379,5.172-11.55,11.551-11.55h53.023c6.379,0,11.551,5.171,11.551,11.55v6.038H102.536z"/>
		<g>
			<g>
				
					<linearGradient id="SVGID_3_" gradientUnits="userSpaceOnUse" x1="-198.1045" y1="-659.7251" x2="-212.6446" y2="-649.5439" gradientTransform="matrix(1 0 0 -1 246.7271 -588.7695)">
					<stop  offset="0" style="stop-color:#DEDEDE"/>
					<stop  offset="1" style="stop-color:#FEFEFE"/>
				</linearGradient>
				<path fill="url(#SVGID_3_)" d="M47.366,58.964L42.7,65.109v0.096l7.42-0.983v3.342l-7.42-0.883v0.096l4.717,5.9l-3.096,1.769
					l-2.949-6.882h-0.102l-3.191,6.932l-2.801-1.771l4.668-5.995v-0.099l-7.271,0.934v-3.342l7.225,0.936V65.06l-4.619-5.996
					l2.996-1.719l3.047,6.828h0.1l2.996-6.876L47.366,58.964z"/>
			</g>
			<g>
				
					<linearGradient id="SVGID_4_" gradientUnits="userSpaceOnUse" x1="-175.0293" y1="-659.7241" x2="-189.5682" y2="-649.5438" gradientTransform="matrix(1 0 0 -1 246.7271 -588.7695)">
					<stop  offset="0" style="stop-color:#DEDEDE"/>
					<stop  offset="1" style="stop-color:#FEFEFE"/>
				</linearGradient>
				<path fill="url(#SVGID_4_)" d="M70.442,58.964l-4.664,6.145v0.096l7.416-0.983v3.342l-7.416-0.883v0.096l4.713,5.9l-3.094,1.769
					l-2.949-6.882h-0.098l-3.193,6.932l-2.801-1.771l4.666-5.995v-0.099l-7.271,0.934v-3.342l7.225,0.936V65.06l-4.619-5.996
					l2.998-1.719l3.045,6.828h0.1l2.998-6.876L70.442,58.964z"/>
			</g>
			<g>
				
					<linearGradient id="SVGID_5_" gradientUnits="userSpaceOnUse" x1="-151.9541" y1="-659.7256" x2="-166.4943" y2="-649.5446" gradientTransform="matrix(1 0 0 -1 246.7271 -588.7695)">
					<stop  offset="0" style="stop-color:#DEDEDE"/>
					<stop  offset="1" style="stop-color:#FEFEFE"/>
				</linearGradient>
				<path fill="url(#SVGID_5_)" d="M93.517,58.964l-4.666,6.145v0.096l7.418-0.983v3.342l-7.418-0.883v0.096l4.717,5.9l-3.098,1.769
					l-2.949-6.882h-0.098l-3.193,6.932l-2.799-1.771l4.666-5.995v-0.099l-7.271,0.934v-3.342l7.223,0.936V65.06l-4.617-5.996
					l2.996-1.719l3.049,6.828h0.098l2.996-6.876L93.517,58.964z"/>
			</g>
		</g>
	</g>
</g>
</svg>
