<?xml version="1.0" encoding="utf-8"?>
<!-- Generator: Adobe Illustrator 13.0.0, SVG Export Plug-In . SVG Version: 6.00 Build 14948)  -->
<!DOCTYPE svg PUBLIC "-//W3C//DTD SVG 1.1//EN" "http://www.w3.org/Graphics/SVG/1.1/DTD/svg11.dtd">
<svg version="1.1" id="Layer_1" xmlns="http://www.w3.org/2000/svg" xmlns:xlink="http://www.w3.org/1999/xlink" x="0px" y="0px"
	 width="128px" height="128px" viewBox="0 0 128 128" enable-background="new 0 0 128 128" xml:space="preserve">
<g>
	
		<linearGradient id="SVGID_1_" gradientUnits="userSpaceOnUse" x1="2508.4287" y1="-4268.0664" x2="2508.4287" y2="-4200.8628" gradientTransform="matrix(-1 0 0 1 2572.2305 4317.6748)">
		<stop  offset="0" style="stop-color:#5F5D5C"/>
		<stop  offset="1" style="stop-color:#181500"/>
	</linearGradient>
	<ellipse fill="url(#SVGID_1_)" cx="63.802" cy="83.21" rx="44.509" ry="33.602"/>
	<ellipse fill="#FFFFFF" cx="64.176" cy="87.948" rx="29.235" ry="22.069"/>
	<g>
		
			<linearGradient id="SVGID_2_" gradientUnits="userSpaceOnUse" x1="1082.998" y1="-162.0825" x2="1058.1338" y2="-144.6723" gradientTransform="matrix(0.805 -0.5932 -0.5932 -0.805 -926.6409 536.1508)">
			<stop  offset="0" style="stop-color:#5F5D5C"/>
			<stop  offset="1" style="stop-color:#181500"/>
		</linearGradient>
		<path fill="url(#SVGID_2_)" d="M39.331,14.845c4.051,5.496,1.433,14.301-5.849,19.666c-7.28,5.364-16.467,5.258-20.518-0.238
			c-4.05-5.496-1.431-14.301,5.85-19.664C26.096,9.243,35.281,9.349,39.331,14.845z"/>
		
			<linearGradient id="SVGID_3_" gradientUnits="userSpaceOnUse" x1="-222.5098" y1="-588.3701" x2="-201.8462" y2="-588.3701" gradientTransform="matrix(1 0 0 -1 238.3271 -563.8105)">
			<stop  offset="0" style="stop-color:#EA7680"/>
			<stop  offset="1" style="stop-color:#F9B5B5"/>
		</linearGradient>
		<path fill="url(#SVGID_3_)" d="M35.176,17.907c2.774,3.764,0.981,9.793-4.005,13.469c-4.983,3.674-11.274,3.6-14.05-0.165
			c-2.771-3.765-0.979-9.793,4.007-13.467C26.111,14.069,32.402,14.144,35.176,17.907z"/>
	</g>
	<g>
		
			<linearGradient id="SVGID_4_" gradientUnits="userSpaceOnUse" x1="-928.9248" y1="-1913.2637" x2="-953.7839" y2="-1895.8571" gradientTransform="matrix(0.7713 0.6352 0.6356 -0.7722 2038.6704 -847.6912)">
			<stop  offset="0" style="stop-color:#5F5D5C"/>
			<stop  offset="1" style="stop-color:#181500"/>
		</linearGradient>
		<path fill="url(#SVGID_4_)" d="M114.693,35.462c-4.34,5.271-13.512,4.891-20.486-0.855c-6.977-5.742-9.111-14.674-4.771-19.944
			c4.338-5.271,13.51-4.892,20.485,0.854C116.896,21.261,119.032,30.19,114.693,35.462z"/>
		
			<linearGradient id="SVGID_5_" gradientUnits="userSpaceOnUse" x1="-146.4492" y1="-588.8716" x2="-126.0767" y2="-588.8716" gradientTransform="matrix(1 0 0 -1 238.3271 -563.8105)">
			<stop  offset="0" style="stop-color:#EA7680"/>
			<stop  offset="1" style="stop-color:#F9B5B5"/>
		</linearGradient>
		<path fill="url(#SVGID_5_)" d="M110.712,32.185c-2.972,3.609-9.253,3.349-14.028-0.588c-4.775-3.933-6.238-10.049-3.269-13.658
			c2.97-3.61,9.252-3.35,14.028,0.586C112.221,22.458,113.684,28.573,110.712,32.185z"/>
	</g>
	
		<linearGradient id="SVGID_6_" gradientUnits="userSpaceOnUse" x1="-219.0342" y1="-610.6499" x2="-130.0166" y2="-610.6499" gradientTransform="matrix(1 0 0 -1 238.3271 -563.8105)">
		<stop  offset="0" style="stop-color:#5F5D5C"/>
		<stop  offset="1" style="stop-color:#181500"/>
	</linearGradient>
	<ellipse fill="url(#SVGID_6_)" cx="63.802" cy="46.839" rx="44.509" ry="33.602"/>
	<g>
		<g>
			<circle fill="#FFFFFF" stroke="#231F20" cx="46.389" cy="36.951" r="6.042"/>
			
				<linearGradient id="SVGID_7_" gradientUnits="userSpaceOnUse" x1="-189.957" y1="-605.4414" x2="-194.0106" y2="-599.9132" gradientTransform="matrix(1 0 0 -1 238.3271 -563.8105)">
				<stop  offset="0" style="stop-color:#181500"/>
				<stop  offset="1" style="stop-color:#5F5D5C"/>
			</linearGradient>
			<ellipse fill="url(#SVGID_7_)" cx="46.344" cy="38.866" rx="2.506" ry="3.832"/>
		</g>
		<g>
			<circle fill="#FFFFFF" stroke="#231F20" cx="81.216" cy="36.951" r="6.043"/>
			
				<linearGradient id="SVGID_8_" gradientUnits="userSpaceOnUse" x1="-155.1294" y1="-605.4414" x2="-159.1829" y2="-599.9131" gradientTransform="matrix(1 0 0 -1 238.3271 -563.8105)">
				<stop  offset="0" style="stop-color:#181500"/>
				<stop  offset="1" style="stop-color:#5F5D5C"/>
			</linearGradient>
			<ellipse fill="url(#SVGID_8_)" cx="81.171" cy="38.866" rx="2.505" ry="3.832"/>
		</g>
	</g>
	<ellipse fill="#FFFFFF" cx="63.802" cy="56.966" rx="25.853" ry="19.518"/>
	
		<linearGradient id="SVGID_9_" gradientUnits="userSpaceOnUse" x1="-185.417" y1="-622.5464" x2="-164.1533" y2="-622.5464" gradientTransform="matrix(1 0 0 -1 238.3271 -563.8105)">
		<stop  offset="0" style="stop-color:#EA7680"/>
		<stop  offset="1" style="stop-color:#F9B5B5"/>
	</linearGradient>
	<ellipse fill="url(#SVGID_9_)" cx="63.542" cy="58.736" rx="10.632" ry="8.026"/>
	
		<linearGradient id="SVGID_10_" gradientUnits="userSpaceOnUse" x1="1493.7305" y1="-237.7075" x2="1476.7041" y2="-225.7854" gradientTransform="matrix(0.6392 -0.7698 -0.7691 -0.6376 -1098.2544 1085.8329)">
		<stop  offset="0" style="stop-color:#5F5D5C"/>
		<stop  offset="1" style="stop-color:#181500"/>
	</linearGradient>
	<path fill="url(#SVGID_10_)" d="M36.501,81.641c3.597,2.982,3.304,9.264-0.655,14.031c-3.959,4.77-10.084,6.215-13.681,3.232
		c-3.597-2.98-3.302-9.264,0.657-14.029C26.779,80.109,32.904,78.66,36.501,81.641z"/>
	<path fill="none" stroke="#FFFFFF" d="M27.837,83.559c0,0,0.22,1.137,0.869,2.346c0.651,1.211,1.7,1.759,1.7,1.759"/>
	<path fill="none" stroke="#FFFFFF" d="M24.548,86.062c0,0,0.218,1.138,0.869,2.349s1.699,1.756,1.699,1.756"/>
	<path fill="none" stroke="#FFFFFF" d="M22.256,90.145c0,0,0.219,1.137,0.869,2.349c0.652,1.211,1.7,1.756,1.7,1.756"/>
	
		<linearGradient id="SVGID_11_" gradientUnits="userSpaceOnUse" x1="-1183.1475" y1="-1961.2949" x2="-1200.173" y2="-1949.3734" gradientTransform="matrix(0.7698 0.6392 0.6376 -0.7691 2263.6494 -651.8638)">
		<stop  offset="0" style="stop-color:#5F5D5C"/>
		<stop  offset="1" style="stop-color:#181500"/>
	</linearGradient>
	<path fill="url(#SVGID_11_)" d="M108.221,97.443c-2.982,3.594-9.263,3.303-14.031-0.656c-4.768-3.959-6.213-10.082-3.23-13.68
		c2.979-3.598,9.264-3.303,14.027,0.656C109.753,87.721,111.2,93.846,108.221,97.443z"/>
	<path fill="none" stroke="#FFFFFF" d="M106.616,90.004c0,0-1.136,0.219-2.347,0.871c-1.209,0.652-1.756,1.699-1.756,1.699"/>
	<path fill="none" stroke="#FFFFFF" d="M104.206,86.127c0,0-1.136,0.217-2.347,0.869c-1.211,0.65-1.758,1.699-1.758,1.699"/>
	<path fill="none" stroke="#FFFFFF" d="M100.576,83.301c0,0-1.137,0.219-2.348,0.869c-1.209,0.652-1.756,1.699-1.756,1.699"/>
	<g>
		
			<linearGradient id="SVGID_12_" gradientUnits="userSpaceOnUse" x1="2748.2031" y1="-1128.9692" x2="2723.342" y2="-1111.5616" gradientTransform="matrix(-0.0036 -1 -0.9995 0.0038 -1073.9594 2841.4565)">
			<stop  offset="0" style="stop-color:#5F5D5C"/>
			<stop  offset="1" style="stop-color:#181500"/>
		</linearGradient>
		<path fill="url(#SVGID_12_)" d="M35.839,85.053c6.824-0.025,12.382,7.283,12.415,16.326c0.032,9.043-5.475,16.396-12.299,16.422
			c-6.821,0.025-12.382-7.283-12.413-16.326C23.512,92.43,29.016,85.078,35.839,85.053z"/>
		
			<linearGradient id="SVGID_13_" gradientUnits="userSpaceOnUse" x1="-210.8916" y1="-665.2373" x2="-193.9678" y2="-665.2373" gradientTransform="matrix(1 0 0 -1 238.3271 -563.8105)">
			<stop  offset="0" style="stop-color:#EA7680"/>
			<stop  offset="1" style="stop-color:#F9B5B5"/>
		</linearGradient>
		<path fill="url(#SVGID_13_)" d="M35.857,90.213c4.672-0.018,8.479,4.986,8.502,11.182c0.021,6.193-3.75,11.229-8.424,11.246
			c-4.672,0.019-8.479-4.986-8.5-11.182C27.414,95.266,31.186,90.232,35.857,90.213z"/>
		<g>
			
				<linearGradient id="SVGID_14_" gradientUnits="userSpaceOnUse" x1="2747.9873" y1="-1185.9678" x2="2723.1252" y2="-1168.559" gradientTransform="matrix(-0.0036 -1 -0.9995 0.0038 -1073.9594 2841.4565)">
				<stop  offset="0" style="stop-color:#5F5D5C"/>
				<stop  offset="1" style="stop-color:#181500"/>
			</linearGradient>
			<path fill="url(#SVGID_14_)" d="M92.811,85.053c6.823-0.025,12.383,7.283,12.414,16.326s-5.474,16.396-12.299,16.422
				c-6.822,0.027-12.383-7.283-12.414-16.326C80.48,92.43,85.984,85.078,92.811,85.053z"/>
			
				<linearGradient id="SVGID_15_" gradientUnits="userSpaceOnUse" x1="-153.9209" y1="-665.2373" x2="-136.9971" y2="-665.2373" gradientTransform="matrix(1 0 0 -1 238.3271 -563.8105)">
				<stop  offset="0" style="stop-color:#EA7680"/>
				<stop  offset="1" style="stop-color:#F9B5B5"/>
			</linearGradient>
			<path fill="url(#SVGID_15_)" d="M92.828,90.213c4.673-0.018,8.479,4.986,8.502,11.182c0.021,6.193-3.749,11.229-8.424,11.246
				c-4.672,0.021-8.479-4.986-8.5-11.182C84.384,95.266,88.154,90.232,92.828,90.213z"/>
		</g>
	</g>
</g>
</svg>
