<?xml version="1.0" encoding="utf-8"?>
<!-- Generator: Adobe Illustrator 13.0.0, SVG Export Plug-In . SVG Version: 6.00 Build 14948)  -->
<!DOCTYPE svg PUBLIC "-//W3C//DTD SVG 1.1//EN" "http://www.w3.org/Graphics/SVG/1.1/DTD/svg11.dtd">
<svg version="1.1" id="Layer_1" xmlns="http://www.w3.org/2000/svg" xmlns:xlink="http://www.w3.org/1999/xlink" x="0px" y="0px"
	 width="128px" height="128px" viewBox="0 0 128 128" enable-background="new 0 0 128 128" xml:space="preserve">
<g>
	<g>
		<path fill="#99DBF6" d="M34.177,35.53l0.026-0.004l0.076-0.088l-0.032,0.012C34.229,35.477,34.202,35.505,34.177,35.53
			L34.177,35.53z"/>
		<path fill="#99DBF6" d="M34.206,35.42c0.041-0.043,0.055-0.059,0.064-0.074l-0.029,0.002l-0.035,0.048L34.2,35.387l0.047-0.055
			l-0.033,0.012c0,0-0.101,0.104-0.131,0.145h0.012l0.059-0.057h0.015c-0.009,0.014-0.061,0.073-0.058,0.086
			C34.143,35.485,34.175,35.45,34.206,35.42L34.206,35.42z"/>
		<path fill="#99DBF6" d="M33.416,35.709c0,0-0.03-0.006-0.237,0.188l-0.022,0.007c-0.023,0.012-0.175,0.188-0.175,0.213
			c0,0,0.085-0.057,0.191-0.165c0.055,0,0.14-0.052,0.164-0.067c0.029-0.015,0.061-0.039,0.084-0.064
			c0.041-0.037,0.163-0.178,0.148-0.199h-0.002C33.563,35.621,33.446,35.687,33.416,35.709L33.416,35.709z"/>
		<path fill="#99DBF6" d="M32.661,36.385c0,0,0.041-0.033,0.067-0.063c0.03-0.034,0.034-0.043,0.034-0.043l0,0
			C32.763,36.278,32.661,36.363,32.661,36.385L32.661,36.385z"/>
		<polygon fill="#99DBF6" points="32.726,36.249 32.615,36.363 32.65,36.342 32.737,36.249 		"/>
		<path fill="#99DBF6" d="M32.517,36.396c-0.003-0.029-0.057,0.028-0.084,0.053l-0.096,0.103c-0.009,0.019-0.021,0.036-0.035,0.048
			c-0.146,0.157-0.143,0.162-0.143,0.169c0,0,0.012,0,0.052-0.034l0.06-0.061l0.071-0.061l0.05-0.049h0.014l0.123-0.14H32.52
			c-0.014,0.018-0.035,0.035-0.047,0.049c0.076-0.095,0.076-0.104,0.076-0.104c-0.017,0-0.021,0.018-0.021,0.018L32.517,36.396z"/>
		<path fill="#99DBF6" d="M32.124,36.769c-0.02,0.011-0.047,0.023-0.064,0.036l-0.102,0.128c0.057-0.038,0.057-0.038,0.088-0.067
			c0.037-0.028,0.113-0.131,0.113-0.131S32.146,36.747,32.124,36.769L32.124,36.769z"/>
		<path fill="#99DBF6" d="M31.952,36.914l0.012-0.012c0,0,0.032-0.03,0.106-0.129c0.027-0.032,0.056-0.064,0.085-0.097h-0.018
			c-0.023,0.013-0.119,0.118-0.177,0.178c-0.115,0.097-0.115,0.097-0.231,0.23c0.014-0.009,0.03-0.019,0.037-0.031
			c0.023-0.025,0.1-0.092,0.203-0.176L31.952,36.914L31.952,36.914z"/>
		<path fill="#99DBF6" d="M31.492,37.277c0,0,0.009,0,0.058-0.062c0.019-0.021,0.033-0.038,0.052-0.058
			c-0.03,0.017-0.109,0.106-0.109,0.106V37.277z"/>
		<path fill="#99DBF6" d="M30.987,37.721c-0.04,0.044-0.076,0.09-0.116,0.131c-0.003,0.007-0.003,0.007-0.003,0.007
			s0.02-0.016,0.055-0.058c0.073-0.082,0.076-0.086,0.079-0.092v-0.003L30.987,37.721L30.987,37.721z"/>
		<path fill="#A4D9E6" d="M22.251,62.722l-0.02,0.015c-0.009,0.021-0.058,0.166-0.061,0.228c0,0.034,0.014,0.059,0.049,0.046
			c0.006,0.044,0.009,0.064,0.009,0.064c0.017-0.003,0.03-0.021,0.041-0.149l0.003-0.003c0-0.023,0.017-0.039,0.023-0.057
			C22.31,62.803,22.274,62.722,22.251,62.722L22.251,62.722z"/>
		<path fill="#A4D9E6" d="M22.679,63.352c-0.009-0.002-0.028-0.011-0.012-0.129c-0.02-0.01-0.029-0.013-0.029-0.013
			c-0.022,0.003-0.05,0.013-0.057,0.11c0,0.046,0,0.073,0,0.073c0.01,0.031,0.021,0.058,0.025,0.094
			c0,0.025-0.007,0.055-0.004,0.083c0,0,0.006,0.022,0.016,0.03c0.014,0.019,0.066,0.04,0.09-0.097
			C22.725,63.376,22.679,63.352,22.679,63.352L22.679,63.352z"/>
		<path fill="#A4D9E6" d="M22.992,63.564l-0.015-0.006c-0.018,0-0.031,0.006-0.031,0.006c-0.025,0-0.033,0-0.05,0
			s-0.041,0.006-0.047,0.042c-0.007,0.031,0.003,0.111,0.012,0.135c0.027,0.05,0.062-0.034,0.067-0.049
			c0.024-0.003,0.052-0.011,0.073-0.017l0.003-0.021C23.017,63.58,23.002,63.567,22.992,63.564L22.992,63.564z"/>
		<path fill="#A4D9E6" d="M23.124,64.148c0,0,0.078,0.006,0.094-0.124c0.012-0.11-0.038-0.14-0.055-0.147
			c-0.012-0.08-0.027-0.102-0.061-0.102c-0.013,0.002-0.043,0.012-0.076,0.054c-0.01,0.019,0,0.033,0,0.033
			c0.003,0.134,0.033,0.146,0.066,0.116C23.078,64.14,23.103,64.165,23.124,64.148L23.124,64.148z"/>
		<path fill="#A4D9E6" d="M23.501,64.904c-0.01-0.034-0.006-0.077-0.012-0.113c-0.007-0.029-0.019-0.064-0.031-0.09
			c-0.02-0.057-0.061-0.153-0.15-0.184c0.014-0.049,0.014-0.078,0-0.104c-0.021,0.021-0.066,0.066-0.047,0.35
			c-0.067,0.058-0.087,0.17-0.094,0.238c-0.006,0.058,0.018,0.14,0.039,0.176l0.01,0.016c0.007,0.062-0.007,0.141-0.004,0.198
			c0.008,0.255,0.071,0.273,0.071,0.273l0.006-0.006c0,0,0.007-0.028,0.01-0.037c0.003-0.04,0.009-0.115,0.061-0.207
			c0.041-0.067,0.128-0.095,0.163-0.164l0.041-0.134c0.017-0.075-0.02-0.158-0.061-0.209L23.501,64.904L23.501,64.904z"/>
		<path fill="#A4D9E6" d="M28.21,94.562l0.184,0.256c-0.004-0.012-0.041-0.07-0.076-0.117c-0.059-0.087-0.098-0.13-0.098-0.13
			L28.21,94.562z"/>
		<path fill="#A4D9E6" d="M28.435,94.835v0.007c0.096,0.139,0.134,0.188,0.147,0.191c0,0,0-0.006-0.078-0.118
			C28.477,94.877,28.451,94.838,28.435,94.835L28.435,94.835z"/>
		<path fill="#99DBF6" d="M35.304,97.072h-0.006l0.009,0.075c0,0,0.011,0.02,0.033,0.045c0.028,0.028,0.122,0.11,0.173,0.124
			c0,0,0.069,0.014,0.031-0.047C35.511,97.217,35.343,97.072,35.304,97.072L35.304,97.072z"/>
		
			<linearGradient id="SVGID_1_" gradientUnits="userSpaceOnUse" x1="-144.7773" y1="-679.5449" x2="-221.1715" y2="-626.0536" gradientTransform="matrix(1 0 0 -1 246.7271 -588.7695)">
			<stop  offset="0" style="stop-color:#DEDEDE"/>
			<stop  offset="1" style="stop-color:#FEFEFE"/>
		</linearGradient>
		<path fill="url(#SVGID_1_)" stroke="#094763" stroke-miterlimit="3.8637" d="M110.257,60.774
			c1.797,25.702-17.568,47.996-43.253,49.793c-25.682,1.796-47.957-17.585-49.753-43.285s17.565-47.994,43.254-49.787
			C86.187,15.695,108.458,35.076,110.257,60.774L110.257,60.774z"/>
		<g>
			
				<linearGradient id="SVGID_2_" gradientUnits="userSpaceOnUse" x1="-241.1455" y1="-653.0205" x2="-241.1455" y2="-646.8447" gradientTransform="matrix(1 0 0 -1 246.7271 -588.7695)">
				<stop  offset="0" style="stop-color:#32AECE"/>
				<stop  offset="1" style="stop-color:#094E86"/>
			</linearGradient>
			<polygon fill="url(#SVGID_2_)" points="8.358,64.251 2.495,63.943 2.8,58.075 8.669,58.384 			"/>
			
				<linearGradient id="SVGID_4_" gradientUnits="userSpaceOnUse" x1="-237.5361" y1="-636.3115" x2="-237.5361" y2="-628.7803" gradientTransform="matrix(1 0 0 -1 246.7271 -588.7695)">
				<stop  offset="0" style="stop-color:#32AECE"/>
				<stop  offset="1" style="stop-color:#094E86"/>
			</linearGradient>
			<polygon fill="url(#SVGID_4_)" points="10.943,47.542 5.427,45.536 7.433,40.011 12.956,42.022 			"/>
			
				<linearGradient id="SVGID_5_" gradientUnits="userSpaceOnUse" x1="-228.8281" y1="-621.0664" x2="-228.8281" y2="-612.8184" gradientTransform="matrix(1 0 0 -1 246.7271 -588.7695)">
				<stop  offset="0" style="stop-color:#32AECE"/>
				<stop  offset="1" style="stop-color:#094E86"/>
			</linearGradient>
			<polygon fill="url(#SVGID_5_)" points="18.407,32.297 13.777,28.68 17.397,24.049 22.021,27.666 			"/>
			
				<linearGradient id="SVGID_6_" gradientUnits="userSpaceOnUse" x1="-215.8486" y1="-609.0566" x2="-215.8486" y2="-600.8701" gradientTransform="matrix(1 0 0 -1 246.7271 -588.7695)">
				<stop  offset="0" style="stop-color:#32AECE"/>
				<stop  offset="1" style="stop-color:#094E86"/>
			</linearGradient>
			<polygon fill="url(#SVGID_6_)" points="30.159,20.287 26.789,15.471 31.602,12.101 34.969,16.917 			"/>
			
				<linearGradient id="SVGID_7_" gradientUnits="userSpaceOnUse" x1="-199.7783" y1="-600.9111" x2="-199.7783" y2="-593.5791" gradientTransform="matrix(1 0 0 -1 246.7271 -588.7695)">
				<stop  offset="0" style="stop-color:#32AECE"/>
				<stop  offset="1" style="stop-color:#094E86"/>
			</linearGradient>
			<polygon fill="url(#SVGID_7_)" points="45,12.142 43.282,6.521 48.902,4.81 50.616,10.426 			"/>
			
				<linearGradient id="SVGID_8_" gradientUnits="userSpaceOnUse" x1="-182.2837" y1="-597.6738" x2="-182.2837" y2="-591.7949" gradientTransform="matrix(1 0 0 -1 246.7271 -588.7695)">
				<stop  offset="0" style="stop-color:#32AECE"/>
				<stop  offset="1" style="stop-color:#094E86"/>
			</linearGradient>
			<polygon fill="url(#SVGID_8_)" points="61.509,8.904 61.506,3.025 67.382,3.025 67.382,8.904 			"/>
			
				<linearGradient id="SVGID_9_" gradientUnits="userSpaceOnUse" x1="-164.6401" y1="-601.4453" x2="-164.6401" y2="-594.0391" gradientTransform="matrix(1 0 0 -1 246.7271 -588.7695)">
				<stop  offset="0" style="stop-color:#32AECE"/>
				<stop  offset="1" style="stop-color:#094E86"/>
			</linearGradient>
			<polygon fill="url(#SVGID_9_)" points="78.387,10.858 80.201,5.27 85.787,7.084 83.973,12.676 			"/>
			
				<linearGradient id="SVGID_10_" gradientUnits="userSpaceOnUse" x1="-148.7856" y1="-610.0508" x2="-148.7856" y2="-601.8447" gradientTransform="matrix(1 0 0 -1 246.7271 -588.7695)">
				<stop  offset="0" style="stop-color:#32AECE"/>
				<stop  offset="1" style="stop-color:#094E86"/>
			</linearGradient>
			<polygon fill="url(#SVGID_10_)" points="93.839,17.824 97.292,13.075 102.044,16.527 98.589,21.281 			"/>
			
				<linearGradient id="SVGID_11_" gradientUnits="userSpaceOnUse" x1="-136.1333" y1="-622.6426" x2="-136.1333" y2="-614.4355" gradientTransform="matrix(1 0 0 -1 246.7271 -588.7695)">
				<stop  offset="0" style="stop-color:#32AECE"/>
				<stop  offset="1" style="stop-color:#094E86"/>
			</linearGradient>
			<polygon fill="url(#SVGID_11_)" points="106.491,29.121 111.25,25.666 114.696,30.419 109.946,33.873 			"/>
			
				<linearGradient id="SVGID_12_" gradientUnits="userSpaceOnUse" x1="-127.8755" y1="-638.0742" x2="-127.8755" y2="-630.6738" gradientTransform="matrix(1 0 0 -1 246.7271 -588.7695)">
				<stop  offset="0" style="stop-color:#32AECE"/>
				<stop  offset="1" style="stop-color:#094E86"/>
			</linearGradient>
			<polygon fill="url(#SVGID_12_)" points="115.149,43.715 120.735,41.904 122.554,47.493 116.967,49.305 			"/>
			
				<linearGradient id="SVGID_13_" gradientUnits="userSpaceOnUse" x1="-124.8345" y1="-654.7769" x2="-124.8345" y2="-648.8027" gradientTransform="matrix(1 0 0 -1 246.7271 -588.7695)">
				<stop  offset="0" style="stop-color:#32AECE"/>
				<stop  offset="1" style="stop-color:#094E86"/>
			</linearGradient>
			<polygon fill="url(#SVGID_13_)" points="118.903,60.135 124.778,60.033 124.882,65.908 119.01,66.008 			"/>
			
				<linearGradient id="SVGID_14_" gradientUnits="userSpaceOnUse" x1="-128.2378" y1="-675.1323" x2="-128.2378" y2="-667.6001" gradientTransform="matrix(1 0 0 -1 246.7271 -588.7695)">
				<stop  offset="0" style="stop-color:#32AECE"/>
				<stop  offset="1" style="stop-color:#094E86"/>
			</linearGradient>
			<polygon fill="url(#SVGID_14_)" points="116.732,78.831 122.252,80.839 120.242,86.363 114.727,84.353 			"/>
			
				<linearGradient id="SVGID_15_" gradientUnits="userSpaceOnUse" x1="-136.9507" y1="-691.0952" x2="-136.9507" y2="-682.8472" gradientTransform="matrix(1 0 0 -1 246.7271 -588.7695)">
				<stop  offset="0" style="stop-color:#32AECE"/>
				<stop  offset="1" style="stop-color:#094E86"/>
			</linearGradient>
			<polygon fill="url(#SVGID_15_)" points="109.271,94.078 113.898,97.698 110.278,102.326 105.654,98.708 			"/>
			
				<linearGradient id="SVGID_16_" gradientUnits="userSpaceOnUse" x1="-149.9272" y1="-703.0396" x2="-149.9272" y2="-694.8569" gradientTransform="matrix(1 0 0 -1 246.7271 -588.7695)">
				<stop  offset="0" style="stop-color:#32AECE"/>
				<stop  offset="1" style="stop-color:#094E86"/>
			</linearGradient>
			<polygon fill="url(#SVGID_16_)" points="97.52,106.088 100.89,110.903 96.08,114.271 92.71,109.461 			"/>
			
				<linearGradient id="SVGID_17_" gradientUnits="userSpaceOnUse" x1="-166.001" y1="-710.3345" x2="-166.001" y2="-702.9995" gradientTransform="matrix(1 0 0 -1 246.7271 -588.7695)">
				<stop  offset="0" style="stop-color:#32AECE"/>
				<stop  offset="1" style="stop-color:#094E86"/>
			</linearGradient>
			<polygon fill="url(#SVGID_17_)" points="82.679,114.23 84.393,119.849 78.782,121.565 77.06,115.945 			"/>
			
				<linearGradient id="SVGID_18_" gradientUnits="userSpaceOnUse" x1="-183.4956" y1="-712.1187" x2="-183.4956" y2="-706.2437" gradientTransform="matrix(1 0 0 -1 246.7271 -588.7695)">
				<stop  offset="0" style="stop-color:#32AECE"/>
				<stop  offset="1" style="stop-color:#094E86"/>
			</linearGradient>
			<polygon fill="url(#SVGID_18_)" points="66.17,117.475 66.17,123.35 60.294,123.35 60.294,117.475 			"/>
			
				<linearGradient id="SVGID_19_" gradientUnits="userSpaceOnUse" x1="-201.1372" y1="-709.8726" x2="-201.1372" y2="-702.4712" gradientTransform="matrix(1 0 0 -1 246.7271 -588.7695)">
				<stop  offset="0" style="stop-color:#32AECE"/>
				<stop  offset="1" style="stop-color:#094E86"/>
			</linearGradient>
			<polygon fill="url(#SVGID_19_)" points="49.289,115.516 47.478,121.104 41.892,119.29 43.706,113.702 			"/>
			
				<linearGradient id="SVGID_20_" gradientUnits="userSpaceOnUse" x1="-216.9907" y1="-702.0728" x2="-216.9907" y2="-693.8647" gradientTransform="matrix(1 0 0 -1 246.7271 -588.7695)">
				<stop  offset="0" style="stop-color:#32AECE"/>
				<stop  offset="1" style="stop-color:#094E86"/>
			</linearGradient>
			<polygon fill="url(#SVGID_20_)" points="33.839,108.549 30.388,113.304 25.635,109.848 29.087,105.096 			"/>
			
				<linearGradient id="SVGID_21_" gradientUnits="userSpaceOnUse" x1="-229.6455" y1="-689.478" x2="-229.6455" y2="-681.271" gradientTransform="matrix(1 0 0 -1 246.7271 -588.7695)">
				<stop  offset="0" style="stop-color:#32AECE"/>
				<stop  offset="1" style="stop-color:#094E86"/>
			</linearGradient>
			<polygon fill="url(#SVGID_21_)" points="21.181,97.256 16.433,100.709 12.983,95.955 17.729,92.502 			"/>
			
				<linearGradient id="SVGID_22_" gradientUnits="userSpaceOnUse" x1="-237.9014" y1="-673.2427" x2="-237.9014" y2="-665.8364" gradientTransform="matrix(1 0 0 -1 246.7271 -588.7695)">
				<stop  offset="0" style="stop-color:#32AECE"/>
				<stop  offset="1" style="stop-color:#094E86"/>
			</linearGradient>
			<polygon fill="url(#SVGID_22_)" points="12.526,82.658 6.94,84.474 5.126,78.883 10.709,77.067 			"/>
		</g>
		<g>
			<g>
				
					<linearGradient id="SVGID_23_" gradientUnits="userSpaceOnUse" x1="-174.8921" y1="-698.0054" x2="-174.8921" y2="-606.6147" gradientTransform="matrix(1 0 0 -1 246.7271 -588.7695)">
					<stop  offset="0" style="stop-color:#32AECE"/>
					<stop  offset="1" style="stop-color:#094E86"/>
				</linearGradient>
				<path id="SVGID_3_" fill="url(#SVGID_23_)" d="M76.584,20.448c-0.39-0.395-0.87-0.302-1.431-0.355
					c-1.418-0.144-2.968-0.747-4.359-0.957c-0.046,0.013-0.115,0.003-0.119,0.058c0.667,0.427,1.398,0.43,2.326,0.541
					C74.219,19.876,75.37,20.632,76.584,20.448z M94.135,37.283c-0.049,0.013-0.073,0.046-0.062,0.117
					c0.29,0.391,0.609,0.854,0.957,1.253c0.312,0.364,0.688,1.022,1.193,0.955C95.892,38.507,95.23,37.414,94.135,37.283z
					 M88.524,36.147c-0.311-0.565-0.473-1.275-0.719-1.912c-0.408,0.086-0.694,0.297-1.008,0.478
					c-0.082,0.577-0.197,1.121-0.479,1.495C86.847,36.711,88.141,37.001,88.524,36.147z M67.394,32.805
					c-0.736-0.094-1.242-0.054-1.854-0.061c-0.119,0.112-0.131,0.346-0.296,0.418c-1.525-0.297-1.937,0.785-2.926,1.195
					c0.083,0.815,0.822,0.968,1.495,1.193c0.195-0.224,0.551-0.28,0.597-0.65c0.024-0.208-0.302-0.374-0.116-0.539
					c0.211,0.407,0.473-0.146,0.773-0.181c0.064,0.485-0.453,0.847-0.42,1.492c-0.472-0.01-0.548,0.366-0.651,0.715
					c0.137,0.276,0.505,0.326,0.831,0.421c-0.273,0.023-0.453,0.141-0.719,0.177c-0.63-0.228-2.155-1.35-2.444-0.418
					c0.013,0.086,0.296-0.055,0.476,0c0.255,0.438,0.486,0.906,0.718,1.373c0.552-0.272,0.962,0.028,1.312,0.119
					c1.096,0.283,1.589-0.425,2.447-0.119c0.062-0.247,0.101-0.551-0.061-0.715c-0.597,0.201-0.676-0.431-1.017-0.479
					c0.246-0.179,0.9,0.244,1.257-0.117c0.152-0.256,0.25-0.653,0.122-1.018c0.229-0.383,0.63-0.597,1.193-0.653
					c0.621-0.601,0.478-1.655,0.782-2.507C68.368,32.759,67.756,32.202,67.394,32.805z M61.604,39.011
					c0.204,0.034,0.183,0.294,0.298,0.418c0.566-0.128,0.716-0.677,1.072-1.011c-0.204-0.113-0.168-0.469-0.42-0.537
					c-0.189,0.327-0.808,0.22-1.012,0.537C61.628,38.638,61.549,38.883,61.604,39.011z M61.604,19.016
					c0.006,0.54,1.516,0.524,1.79,0.06C62.879,18.998,62.136,18.865,61.604,19.016z M69.957,33.582
					c-0.125,0.528-0.581,0.724-0.776,1.194c-0.292-0.104-0.411,0.089-0.651,0.175c0.091,0.189,0.033,0.335-0.064,0.48
					c0.768,0.527,1.781,0.812,3.045,0.834c0.2-0.075,0.228-0.331,0.478-0.355c1.692,0.115,2.332,1.292,3.403,2.03
					c0.308,0.045,0.394-0.128,0.648-0.124c0.11,0.1,0.152,0.253,0.122,0.481c-0.061,0.138-0.398-0.003-0.359,0.236
					c0.122,0.658,1.474,0.083,1.55,0.779c-0.043,0.188-0.226,0.249-0.234,0.478c0.423,1.33,1.446,2.11,2.688,2.691
					c1.077,0.501,1.491,1.312,2.807,1.312c0.59-0.242,1.065-0.607,1.193-1.312c-0.308-1.07-1.282-1.468-1.318-2.809
					c0.188-0.169,0.39-0.328,0.6-0.477c0.033-0.329,0.094-0.627,0.177-0.896c-0.609-1.262,0.463-2.141,0.895-2.927
					c-0.118-0.605-0.529-0.896-0.837-1.257c-0.174-0.201-0.164-0.384-0.359-0.533c-0.094-0.076-0.277-0.074-0.414-0.18
					c-0.608-0.466-0.989-1.28-1.437-1.67c-0.305-0.27-0.837-0.482-1.19-0.776c-0.32-0.27-0.405-0.613-0.782-0.656
					c-0.271-0.071-0.231,0.163-0.481,0.119c-0.414-0.621-0.861-1.202-1.193-1.91c-0.252,0.051-0.279-0.114-0.478-0.117
					c0.055,0.513-1.084,0.292-1.075,0.951c-0.521-0.012-0.895-0.175-1.488-0.117c-0.447,0.745-1.133,1.257-2.086,1.491
					c-0.042,0.239,0.053,0.342,0.059,0.537c-0.149,0.055-0.259,0.14-0.484,0.121c-0.091,0.744-1.029,0.638-1.367,1.132
					c0.053,0.306,0.207,0.509,0.241,0.835C70.508,33.413,70.358,33.621,69.957,33.582z M102.017,42.115
					c-0.378-0.789-1.035-1.396-1.318-2.09c-0.354-0.852-0.256-1.612-0.719-2.268c0.332,0.183,0.506-0.119,0.893-0.061
					c0.191-0.49-0.238-0.94-0.598-1.37c0.034,0.142-0.355,0.083-0.353,0.356c-0.436-0.225-0.755-0.557-0.901-1.075
					c0.234,0.018,0.223-0.215,0.299-0.356c0.459,0.06,0.657,0.588,0.932,0.808c-1.172-1.525-2.433-2.975-3.781-4.342
					c-0.959-0.89-1.869-1.763-2.792-2.615c-2.703-2.334-5.677-4.359-8.864-6.033c-0.549-0.259-1.108-0.512-1.669-0.768
					c-1.324-0.603-2.64-1.207-4-1.748c-3.513-1.28-7.212-2.154-11.054-2.567c-7.032-0.504-14.113,0.353-19.148,2.405
					c-3.166,1.292-6.25,2.444-8.835,4.183c0.643-0.332,1.145-0.802,1.909-1.017c-1.136,0.893-2.244,1.813-3.282,2.804
					c0.089,0.035,0.308-0.066,0.299,0.063c-0.469,0.438-1.209,0.929-1.075,1.608c-0.42,0.056-0.514-0.436-0.895-0.474
					c-0.305-0.038-0.896,0.297-1.312,0.529c-0.773,0.441-1.629,0.752-1.912,1.44c1.121,0.295,1.852-0.811,3.045-0.362
					c-0.079,0.398-0.134,0.814-0.122,1.315c0.384,0.127,0.311,0.374,0.359,0.773c0.578-0.236,1.103-0.53,1.851-0.594
					c-0.085,0.864,0.089,1.465,0.597,1.729c0.341-0.758,0.804-1.33,1.261-1.966c0.226-0.329,0.332-0.696,0.533-1.074
					c0.319-0.591,1.214-1.341,0.538-2.091c1.005-0.586,1.468-1.718,2.566-2.212c0-0.155-0.021-0.341,0.062-0.416
					c0.304-0.111,0.645-0.192,0.718-0.537c0.606-0.474,1.397-0.648,1.967-1.194c0.116-0.108,0.174-0.256,0.298-0.357
					c0.302-0.235,0.722-0.356,1.075-0.598c0.335-0.229,0.624-0.575,0.953-0.777c1.056-0.641,2.515-0.854,3.82-1.31
					c1.312-0.466,2.733-0.731,4.058-0.96c-0.051,0.055-0.414,0.095-0.237,0.18c0.533-0.119,0.953-0.018,1.495-0.057
					c0.736-0.062,1.403-0.442,2.149-0.539c0.696-0.092,1.546,0.067,2.329,0c1.104-0.098,2.648-0.352,3.817-0.181
					c0.158,0.024-0.128,0.118,0.118,0.122c1.078,0.015,2.062,0.143,2.986,0.176c0.229,0.009,0.198,0.278,0.42,0.298
					c1.767-0.132,2.944,0.399,4.174,0.716c1.38,0.363,2.484,0.694,3.647,1.135c0.585,0.229,1.288,0.428,1.729,0.659
					c0.201,0.103,0.325,0.336,0.539,0.42c0.316,0.12,0.706,0.064,1.014,0.178c0.486,0.178,0.91,0.556,1.373,0.776
					c0.59,0.271,1.366,0.338,1.729,0.951c-1.391,0.137-1.638-1.385-3.163-1.314c0.161,0.523,1.282,1.134,0.896,1.852
					c0.88,0.672,1.556,1.545,2.688,1.969c0.308,0.644,0.914,0.728,1.492,1.135c0.308,0.222,0.542,0.588,0.834,0.777
					c0.515,0.328,1.139,0.45,1.553,0.837c0.472,0.432,0.633,1.159,1.074,1.672c0.625,0.718,1.361,1.018,2.211,1.431
					c0.039-0.279-0.08-0.713,0.058-0.896c0.557-0.016,0.922,0.155,1.373,0.239c-0.646-1.287-1.863-1.995-2.98-2.807
					c-1.747-0.404-2.667-1.949-3.882-2.684c1.193,0.255,1.564,1.336,2.752,1.607c0.207,0.097,0.033-0.201,0.174-0.178
					c2.012,1.312,4.305,2.658,4.893,5.191c-0.454-0.344-0.999-0.91-1.732-0.774c0.646,0.571,1.452,0.976,2.092,1.552
					c0,0.158-0.028,0.344,0.055,0.419c0.41,0.367,0.538,0.892,0.834,1.371c0.621,0.972,1.646,1.813,1.854,2.928
					c0.106,0.551-0.016,1.114,0.299,1.668c2.085,0.304,2.673,2.423,2.091,4.359c0.907,1.077,1.513,2.466,2.441,3.522
					c0.144-0.445,0.545-0.447,0.661-0.838c0.073-0.243,0.012-0.694,0-0.895C103.137,44.182,102.586,43.332,102.017,42.115z
					 M99.928,85.271c-0.331-0.142-2.128-0.285-2.393-0.239c-0.71,0.128-1.272,0.866-1.79,1.019c-0.195-0.063-0.186-0.332-0.479-0.3
					c-1.022,0.304-2.194,0.045-3.102,0.593c0.098-1.263-0.578-2.818-1.973-2.739c-0.867,0.039-1.537,0.761-2.502,0.776
					c0-0.263,0.018-0.539-0.062-0.722h-0.834c-0.825-0.668-1.766-1.218-3.051-1.431c-0.538,0.325-1.224,0.439-2.024,0.42
					c-1.494-0.039-3.209-0.125-4.417,0.416c0.106-0.214,0.194-0.583,0-0.775c-1.522,0.769-3.139,1.44-3.939,2.926
					c-0.782,0.047-1.382-0.291-2.088-0.18c-0.293,0.049-0.533,0.341-0.841,0.36c-0.837,0.052-1.473-0.549-2.265-0.779
					c0.487-1.146,0.204-2.625-0.298-3.579c-1.154-0.314-2.691-0.489-3.937-0.358c0.282-1.312,0.892-2.292,1.434-3.344
					c-0.87-0.39-1.626-0.518-2.569-0.117c-0.779,0.326-1.416,1.172-2.149,1.314c-0.828,0.157-1.869-0.197-2.804-0.36
					c-0.098-0.505,0.061-0.828-0.061-1.315c-0.107-0.423-0.563-0.731-0.597-1.132c-0.03-0.332,0.228-0.659,0.298-0.954
					c0.219-0.957,0.329-1.971,0.359-3.048c0.356-0.304,0.637-0.779,1.071-0.891c1.278-0.326,1.784,0.415,2.628,0.478
					c0.353,0.026,0.864-0.05,1.193-0.181c0.276-0.107,0.45-0.485,0.837-0.597c0.952-0.269,1.884-0.191,2.853-0.236
					c0.709-0.032,0.883,0.111,1.08,0.854c0.256,0.963,0.996,1.456,1.193,2.42c0.064,0.312,0.865-0.39,0.917-0.467
					c0.298-0.453,0.456-1.312,0.302-1.845c-0.11-0.384-0.391-0.679-0.539-1.046c-0.146-0.377-0.095-0.744-0.256-1.111
					c0.557-1.051,1.82-1.274,2.566-2.086c0.237-0.261,0.539-0.693,0.719-1.016c0.249-0.466,0.66-1.312,0.834-1.912
					c0.222-0.756-0.131-1.5,0.237-2.39c0.846-0.345,1.731-0.653,2.444-1.129c-0.141-0.163-0.311-0.285-0.356-0.538
					c0.265-0.398,0.615-0.938,0.898-1.133c0.171-1.155,0.332-2.334,0.532-3.465c0.43-0.145,0.716-0.44,1.258-0.477
					c-0.021-0.219-0.24-0.24-0.18-0.54c-0.451-0.002-1.392,0.014-1.547-0.478c0.804-1.089,2.825-0.602,3.818-1.489
					c0.085-0.312,0.17-0.628,0.358-0.836c0.187,0.142,0.329,0.013,0.417,0.177c-0.131,0.578-0.429,1.302-0.24,1.85
					c0.646-0.446,1.492-0.696,2.089-1.193c0.009,0.064,0.066,0.094,0.118,0.117c0.037-0.23-0.374-0.192-0.654-0.237
					c-0.618-0.695-0.962-1.666-1.373-2.566c-1.202-0.874-2.989-1.048-4.183-1.912c-0.548-0.397-0.719-1.11-1.367-1.254
					c-0.325,0.336-0.374,0.946-0.782,1.192c-0.441,0.006-0.889,0.016-1.254-0.056c-0.354-0.925-0.838-1.714-1.492-2.331
					c-0.986-0.17-2.313-0.229-2.926,0.302c-0.033,1.802-0.033,3.571,1.014,4.296c-0.279,0.592-1.025,0.874-1.074,1.67
					c-0.033,0.62,0.749,1.826-0.174,2.208c-0.621-0.594-1.227-1.198-1.074-2.562c-0.643-0.157-1.215-0.408-1.854-0.661
					c-0.57-0.222-1.222-0.64-1.785-0.714c-0.654-0.085-1.369,0.208-1.973-0.239c-0.298-0.639-0.867-0.964-0.897-1.728
					c-0.049-1.275,1.324-1.853,1.796-2.75c0.779-0.095,1.315-0.747,1.723-1.013c-0.164,0.76,0.244,1.201,0.777,1.433
					c0.322-0.171,0.475-0.528,0.721-0.777c0.277,0.159,0.6,0.271,1.011,0.299v-0.535c-0.837-0.338-1.671-0.673-2.149-1.374
					c0.85-0.361,2.287-0.733,1.495-2.029c0.216,0.012,0.305-0.497,0.591-0.602c0.812,0.671,2.426,0.521,3.166,1.261
					c-0.086,0.491-0.274,0.878-0.356,1.371c-0.523,0.155-0.895,0.46-1.434,0.6c0.036,0.276-0.095,0.38-0.119,0.595
					c0.579-0.062,1.127-0.141,1.672-0.238c0.831,0.582,1.763,1.057,2.858,1.371c0.237-0.163,0.515-0.285,0.844-0.357
					c0.066-0.624,0.715-0.859,0.538-1.549c-0.605-0.295-1.297-0.496-1.553-1.136c0.776-0.044,1.224,0.334,1.909,0.059
					c0.009-0.344-0.109-0.564-0.115-0.894c-0.549-0.352-1.066-0.729-1.973-0.715c-0.68-0.559-1.27-1.197-2.271-1.435
					c-0.115,0.159-0.265,0.289-0.594,0.237c-0.572-0.429-0.853-1.172-1.553-1.432c-0.664-0.248-1.521-0.169-2.441-0.358
					c-0.271,0.217-0.311,0.648-0.48,0.954c-0.119-0.26-0.241-0.519-0.479-0.655c-0.301-0.005-0.493,0.101-0.831,0.06
					c-0.436,0.596-0.73,1.873-0.122,2.504c0.615,0.21,1.176,0.147,1.848,0.239c-0.312,0.38-0.682,0.714-1.135,0.955
					c-0.381-0.175-0.661-0.565-1.133-0.479c-0.7-0.5-1.078-1.309-1.668-1.91c-0.396,0.369-0.396,1.421,0.177,1.61
					c-0.122,0.24,0.104,0.616-0.062,0.894c-0.271-0.204-0.396,0.265-0.594,0.119c0.122-0.451,0.192-1.045-0.118-1.311
					c-0.868,0.028-1.239,0.55-1.735,0.955c-1.239-0.142-2.079-0.609-3.103,0c-0.222-0.196-0.603-0.232-0.593-0.657
					c1.086,0.108,2.614,0.373,3.339-0.421c-0.35,0.061-0.365-0.64-0.654-0.834c0.049-0.567-0.116-0.92-0.118-1.435
					c-0.369-0.166-0.533-0.634-1.072-0.654c-0.188-0.008-0.398,0.167-0.597,0.177c-0.938,0.063-1.339-0.308-1.671-0.833
					c0.058-0.163,0.125-0.318,0.118-0.539c-0.423-0.2-0.627-0.117-1.136-0.06c-0.313-0.219-0.496-0.576-0.897-0.713
					c-0.542,0.563-0.956,1.266-1.431,1.907c0.35,0.54,1.342,0.079,1.912,0.417c0.273-0.264,0.453-0.617,0.84-0.773
					c0.106,0.356-0.335,0.449-0.42,0.896c-0.101,0.501,0.322,1.261-0.119,1.667c-0.844-0.645-2.326-0.653-2.923-1.552
					c-0.106-0.018-0.298,0.171-0.362,0c-0.079-0.186,0.152-0.355,0-0.417c-0.77,0.465-1.314-0.293-2.325-0.116
					c-0.338-0.276-0.716-0.521-1.196-0.656c-0.082-0.75-0.296-1.263-0.834-1.608c-0.893-0.582-1.906-0.515-1.072-1.735
					c-0.319-0.254-0.43-0.638-0.42-1.073c-0.834-0.312-1.814-0.422-2.804-0.297c-0.427,0.723-1.407,1.309-2.387,0.953
					c-0.046,0.216-0.085,0.523-0.122,0.895c0.149,0.131,0.289,0.269,0.42,0.424c-0.292,0.027-0.292,0.344-0.539,0.415
					c-0.249-0.028-0.347-0.211-0.593-0.238c-1.002,0.171-1.136,0.529-1.675,1.372c-0.49,0.771-0.591,1.604-0.837,2.387
					c0.144,0.036,0.433-0.072,0.481,0.062c-0.323,0.474-1.718,0.632-2.271,0.298c0.109,0.543,0.518,0.791,0.895,1.071
					c0.621-0.278,1.435-0.503,1.97-0.113c-0.435,0.347,0.313,0.572-0.122,0.95c0.421-0.065,0.521-0.433,0.598-0.837
					c0.496-0.194,0.782-1.057,1.373-0.773c-0.076,0.35-0.418,0.719-0.414,0.951c0.548,0.267,0.955-0.047,1.431-0.178
					c-0.064,0.193-0.165,0.355-0.18,0.596c0.204-0.027,0.338,0.027,0.478,0.062c0.542,1.286,1.882,1.785,1.852,3.644
					c0.188-0.012,0.361-0.003,0.414,0.117c0.654,1.463,0.061,3.773,0.426,5.312c-0.883,0.61-0.128,1.271,0.055,1.851
					c0.411,1.28-0.259,2.489-0.657,3.465c-0.21,0.521-0.585,0.969-0.773,1.499c-0.174,0.481-0.076,0.941-0.063,1.459
					c0.03,1.184-0.049,2.383,0.17,3.552c0.049,0.242,0.088,0.496,0.119,0.747c0.027,0.182-0.037,0.511-0.027,0.627
					c0.045,0.388,0.48,0.537,0.712,0.796c0.22,0.249,0.374,0.597,0.581,0.87c0.247,0.321,0.648,0.605,0.838,1.011
					c0.279,0.612,0.121,1.239,0.237,1.866c0.063,0.338,0.256,0.332,0.347,0.591c0.079,0.222-0.063,0.393-0.049,0.615
					c0.016,0.252,0.177,0.472,0.293,0.69c0.152,0.298,0.203,0.64,0.368,0.92c0.149,0.252,0.411,0.362,0.56,0.581
					c0.378,0.554,0.506,1.27,0.923,1.847c0.405,0.546,0.798,1.148,1.434,1.134c0.019-0.25,0.302-1.333-0.052-1.491
					c-0.673-0.295-1.26-1.205-1.625-1.806c-0.192-0.316-0.618-0.905-0.701-1.215c-0.182-0.697,0.356-1.575,0.125-2.171
					c0.354,0.062,0.332,0.432,0.402,0.716c0.237,0.956,0.515,1.891,0.773,2.743c1.086,0.478,1.631,1.1,2.277,1.971
					c0.353,0.479,0.785,0.971,1.007,1.431c0.335,0.681,0.231,1.427,0.479,2.154c0.249,0.716,0.989,1.181,1.196,1.851
					c1.908,0.691,3.781,1.428,5.254,2.564c1.307-0.788,2.201,0.2,3.103,0.715c1.793,1.022,4.855,0.678,5.431,2.626
					c0.229,0.057,0.393,0.168,0.481,0.36c0.07,0.247-0.125,0.234-0.119,0.419c0.688,0.269,1.331,0.579,1.669,1.194
					c1.001,0.443,2.532,0.306,3.519-0.061c0.259,0.42,0.917,0.442,1.193,0.835c0.019,0.521,0.106,0.869-0.055,1.259
					c-0.161,0.394-0.938,1.687-1.193,1.967c-0.353,0.399-0.867,0.616-1.071,1.074c-0.308,0.702-0.104,1.358,0.061,1.971
					c-0.913,0.374-0.444,1.491-0.118,2.21c0.469,0.121,0.84,0.353,1.251,0.535c0.381,1.532,1.79,2.031,2.088,3.643
					c1.121,0.462,2.372-0.303,3.343,0.416c0.043,0.228,0.146,0.376,0.18,0.603c-0.35,0.467-0.651,0.972-0.776,1.668
					c-1.382,1.443-1.61,4.034-3.881,4.601c-0.135,0.42-0.342,0.772-0.536,1.129c0.091,0.01,0.222-0.018,0.24,0.062
					c-0.551,0.465-2.03,0.311-2.088,1.072c0.676,0.255,1.61-0.195,2.444-0.178c0.146-0.085-0.112-0.188,0.119-0.173
					c2.237-0.783,4.344-1.559,6.332-2.693c0.821-0.285,1.516-0.397,2.268-0.716c0.719-0.303,1.111-0.884,1.732-1.254
					c0.408-0.243,0.831-0.374,1.251-0.656c1.507-1.021,3.327-1.813,4.414-3.16c0.207-0.726,0.697-1.118,1.196-1.496
					c2.059-1.576,4.57-3.143,5.967-5.311c0.5-0.77,0.566-1.724,1.072-2.747c0.877-1.74,2.886-2.885,3.461-5.077
					C100.175,85.63,100.083,85.343,99.928,85.271z M70.56,59.544c0.226,0.007,0.268,0.201,0.536,0.18
					c0.082-0.048,0.082-0.191,0.112-0.3h0.24c0.149,0.178,0.046,0.24,0.059,0.533c-0.238,0.137-0.549,0.219-0.898,0.239
					C70.483,60.06,70.459,59.748,70.56,59.544z M68.736,58.666c0.17,0.209,0.253,0.484,0.191,0.888
					c-0.436,0.116-0.916,0.153-1.339-0.019c0.279-0.625-0.57-1.312-1.078-1.547c0.444-0.643,0.706-0.409,1.221-0.063
					C68.134,58.2,68.514,58.384,68.736,58.666z M65.073,61.285c-0.131,0.242-0.236,0.498-0.262,0.76
					c-1.025,0.152-1.123-0.73-0.857-1.498c0.112-0.318,1.533-2.26,1.533-2.26c0.168,0.13,0.348,0.067,0.476,0.126
					c-0.007,0.687-0.128,1.331-0.396,1.966C65.437,60.672,65.235,60.974,65.073,61.285z M65.78,56.38
					c0.237,0.322,0.472,0.646,0.597,1.077c-1.333,0.016-2.274,0.332-3.583,0.238c-0.059-0.184-0.286-0.187-0.299-0.418
					C63.609,56.927,64.367,55.734,65.78,56.38z M103.106,40.281c-0.158-0.256-0.32-0.504-0.503-0.73
					C102.774,39.781,102.938,40.025,103.106,40.281z M109.475,61.394c-0.231-2.122-0.435-4.165-0.715-6.207
					c-0.11-0.769-0.165-1.575-0.286-2.332c-0.18-0.71-0.381-1.412-0.604-2.112c-0.271-0.696-0.587-1.407-0.849-2.118
					c-0.269-0.735-0.499-1.507-0.743-2.241c-0.74-1.751-1.583-3.442-2.518-5.079c-0.223-0.358-0.444-0.695-0.658-1.022
					c0.375,0.623,0.688,1.314,0.936,2.074c-0.372-0.329-0.765-1.263-1.133-1.195c0.347,1.843,0.715,3.66,1.014,5.554
					c-0.094,0.204-0.469,0.129-0.478,0.417c0.365,1.05,0.611,2.213,0.718,3.522c0.5,0.953,1.148,2.048,1.19,3.224
					c0.037,0.799-0.207,1.58-0.234,2.323c-0.039,0.938-0.009,1.957,0.122,2.867c0.207,1.479,1.057,2.869,1.251,4.415
					c0.067,0.577-0.104,1.05,0,1.552c0.119,0.614,0.569,1.258,0.478,1.972c0.238,0.098,0.609,0.068,0.835,0.174
					c0.167,0.355,0.316,0.719,0.358,1.194c0.247,0.09,0.476,0.202,0.722,0.3c0.192-1.451,0.926-2.786,0.95-4.24
					C109.85,63.476,109.585,62.417,109.475,61.394z M102.19,40.025c-0.329-0.265-0.299-0.9-0.78-1.015
					C101.593,39.39,101.821,40.04,102.19,40.025z M97.358,38.953c-0.121-0.915-0.453-2.131-0.959-2.864
					c-0.396-0.14-0.768-0.309-1.369-0.241c-0.854-0.44-1.672-0.918-2.57-1.313c-0.036,0.14-0.197,0.161-0.237,0.301
					c0.359,0.417,0.64,0.913,1.071,1.254c0.11-0.151,0.232-0.286,0.481-0.301c1.449,0.782,2.454,2.003,3.4,3.285
					C97.203,38.998,97.252,38.949,97.358,38.953z M73.777,77.45c0.289-0.249,0.341-0.736,0.837-0.775
					c-0.398-0.165-0.791-0.677-1.312-0.773c-0.405-0.08-0.883,0.079-1.315,0.051c-1.418-0.061-2.916-1.053-4.183-0.532
					c-0.082,0.198-0.158,0.401-0.237,0.594c1.077,0.271,2.158,0.316,3.166,0.718c0.581,0.235,1.229,0.896,1.79,0.899
					C72.983,77.635,73.314,77.082,73.777,77.45z M36.832,35.969c-0.085,0.16-0.316,0.163-0.299,0.419
					C36.665,36.318,36.947,36.093,36.832,35.969z M80.222,77.154c-0.078,0.677,0.354,0.811,0.844,0.775
					c0.049-0.341,0.289-0.503,0.414-0.775C81.068,76.815,80.682,76.988,80.222,77.154z M41.544,48.623
					c0.25-0.033,0.354-0.208,0.539-0.299c-0.104-0.418,0.076-0.459,0.24-0.715c-0.398,0.216-0.173-0.285-0.48-0.302
					c-0.016,0.088-0.128,0.069-0.18,0.119C41.854,47.929,41.447,48.049,41.544,48.623z M43.517,28.626
					c-0.234,0.046-0.486,0.066-0.596,0.236c0.085,0.033,0.146,0.096,0.18,0.18C43.331,28.998,43.42,28.81,43.517,28.626z
					 M80.94,78.468c0.052-0.09,0.146-0.128,0.299-0.122c-0.006-0.066,0.012-0.164-0.059-0.177
					C81.16,78.29,80.703,78.279,80.94,78.468z M71.811,78.468v0.597c0.499,0.344,1.361-0.082,1.492-0.657
					C72.761,78.316,72.259,78.234,71.811,78.468z M75.333,77.45c0.085,0.194,0.219,0.34,0.295,0.541
					c1.34,0.569,2.47,0.102,3.76-0.239c0.046-0.369-0.186-0.447-0.173-0.776c-1.139-0.091-2.138-0.169-3.465-0.24
					C75.681,77.043,75.418,77.162,75.333,77.45z M48.948,22.539c-0.213-0.034-0.311,0.052-0.359,0.179
					C48.75,22.743,49.091,22.437,48.948,22.539z M78.194,23.971c-0.469-0.064-0.785-0.293-1.254-0.356
					c0.012,0.24,0.18,0.331,0.177,0.594c0.28,0.08,0.585,0.132,0.892,0.177c-0.101,0.199-0.307,0.284-0.414,0.482
					c0.414,0.846,1.83,0.945,2.625,0.357c-0.506-0.448-1.121-0.788-1.967-0.902C78.14,24.238,78.338,24.098,78.194,23.971z
					 M61.305,18.956c-0.237-0.17-0.611,0.03-0.84,0.06c-0.192-0.047-0.454,0.073-0.119,0.06
					C60.61,19.145,61.238,19.365,61.305,18.956z M60.108,35.67c0.378,0,0.658-0.1,0.896-0.238v-0.358
					c-0.594,0.052-0.441-0.631-1.011-0.297C59.822,35.178,59.956,35.325,60.108,35.67z M61.244,39.787
					c-0.082-0.343,0.137-0.378,0.18-0.594c-0.104-0.337-0.22-0.653-0.302-1.016c-0.301-0.134-0.469-0.412-0.837-0.48
					c-0.496,0.378-0.898,0.852-1.193,1.436C59.46,39.703,60.215,39.883,61.244,39.787z M57.366,36.324
					c-0.637-0.151-1.392-1.023-1.854-0.297c0.088,0.308,0.256,0.54,0.42,0.776c0.521-0.183,0.913,0.317,1.376,0.418
					c0.351,0.076,0.716-0.173,1.072,0.062c0.03-0.578-0.177-0.804,0-1.256C57.89,35.812,57.661,36.173,57.366,36.324z
					 M49.483,22.119c0.549-0.324,1.34-0.41,1.732-0.894C50.437,21.283,49.765,21.766,49.483,22.119z M54.022,35.548
					c0.189,0.03,0.214,0.229,0.418,0.237c0.344-0.433,1.32-0.229,1.854-0.474c-0.24-1.19-1.318-0.287-2.149-0.118
					C54.206,35.414,53.993,35.361,54.022,35.548z M59.573,36.923c0.605,0.031,0.938,0.335,1.312,0.599
					c-0.015-0.409,0.49-0.494,0.302-0.896c-0.414-0.027-0.68-0.2-0.959-0.355C60.054,36.527,59.667,36.583,59.573,36.923z"/>
			</g>
		</g>
		<g opacity="0.6">
			<path fill="#FFFFFF" d="M64.321,61.762c14.235,11.885,33.459,5.357,45.449-0.857C108.019,36.99,88.075,18.15,63.713,18.15
				c-24.437,0-44.421,19.022-46.058,43.059C28.771,55.768,49.02,48.951,64.321,61.762z"/>
		</g>
	</g>
	<g>
		<g>
			
				<linearGradient id="SVGID_24_" gradientUnits="userSpaceOnUse" x1="-312.4087" y1="-1252.457" x2="-373.789" y2="-1209.4779" gradientTransform="matrix(0.9821 0.1884 0.1884 -0.9821 651.4059 -1066.3099)">
				<stop  offset="0.0824" style="stop-color:#C2C2C2"/>
				<stop  offset="0.2635" style="stop-color:#D2D2D2"/>
				<stop  offset="0.5594" style="stop-color:#E6E6E6"/>
				<stop  offset="0.7582" style="stop-color:#EDEDED"/>
			</linearGradient>
			<path fill="url(#SVGID_24_)" stroke="#000000" stroke-width="0.5" stroke-miterlimit="3.8637" d="M55.177,52.323l3.922-3.43
				c0,0,10.738,5.94,13.424,9.015c2.854,3.266,2.736,10.47,2.736,10.47l32.552,37.282l-2.794,2.443L72.468,70.818
				c0,0-7.442-0.797-10.193-3.949C59.521,63.717,55.177,52.323,55.177,52.323L55.177,52.323z"/>
			
				<linearGradient id="SVGID_25_" gradientUnits="userSpaceOnUse" x1="-312.6729" y1="-1270.5767" x2="-312.6729" y2="-1241.7241" gradientTransform="matrix(0.9821 0.1884 0.1884 -0.9821 651.4059 -1066.3099)">
				<stop  offset="0" style="stop-color:#BF065D"/>
				<stop  offset="1" style="stop-color:#DC0067"/>
			</linearGradient>
			<path fill="url(#SVGID_25_)" d="M92.719,98.309c0,0,0.761-1.406,3.05-3.409c2.311-2.021,3.908-2.675,3.908-2.675
				s17.709,15.733,19.734,18.057c2.029,2.327,5.303,9.146,1.031,12.882c-4.271,3.732-10.446-0.335-12.58-2.783
				C105.95,118.188,92.719,98.309,92.719,98.309L92.719,98.309z"/>
		</g>
		<path fill="#EC8690" d="M118.376,115.619L98.793,94.788c-0.271,0.497-0.601,0.94-1,1.323l19.392,20.626
			c0.311,0.328,0.827,0.344,1.155,0.037C118.666,116.464,118.684,115.947,118.376,115.619z"/>
	</g>
</g>
</svg>
