<?xml version="1.0" encoding="utf-8"?>
<!-- Generator: Adobe Illustrator 13.0.0, SVG Export Plug-In . SVG Version: 6.00 Build 14948)  -->
<!DOCTYPE svg PUBLIC "-//W3C//DTD SVG 1.1//EN" "http://www.w3.org/Graphics/SVG/1.1/DTD/svg11.dtd">
<svg version="1.1" id="Layer_1" xmlns="http://www.w3.org/2000/svg" xmlns:xlink="http://www.w3.org/1999/xlink" x="0px" y="0px"
	 width="128px" height="128px" viewBox="0 0 128 128" enable-background="new 0 0 128 128" xml:space="preserve">
<g>
	
		<linearGradient id="SVGID_4_" gradientUnits="userSpaceOnUse" x1="-227.9985" y1="59.5825" x2="-227.9985" y2="112.2446" gradientTransform="matrix(1 0 0 -1 289.2754 151.834)">
		<stop  offset="0" style="stop-color:#181500"/>
		<stop  offset="1" style="stop-color:#5F5D5C"/>
	</linearGradient>
	<path fill="url(#SVGID_4_)" d="M106.227,39.59v38.801c0,7.657-6.203,13.861-13.858,13.861H30.182
		c-7.653,0-13.855-6.204-13.855-13.861V39.63L106.227,39.59L106.227,39.59z"/>
	<path opacity="0.41" fill="#666666" enable-background="new    " d="M42.681,78.652c0-16.99,9.639-31.719,23.741-39.045
		L17.763,39.63v37.613c0,7.43,6.021,13.452,13.446,13.452h13.154C43.276,86.863,42.681,82.828,42.681,78.652z"/>
	<path d="M92.441,89.027H30.255c-7.655,0-13.858-6.205-13.858-13.863v3.227c0,7.657,6.203,13.861,13.858,13.861h62.187
		c7.652,0,13.856-6.204,13.856-13.861v-3.227C106.299,82.822,100.096,89.027,92.441,89.027z"/>
	<path d="M106.002,78.346v-7.675c-0.764-1.407-1.562-2.771-2.41-4.065c-3.964-6.043-9.1-11.559-15.451-15.094
		c-3.672-2.046-8.084-4.011-12.343-2.768c-1.407,0.411-2.776,1.201-3.884,2.241c-2.477,2.326-3.828,5.779-5.487,8.824
		c-1.45,2.666-2.918,5.327-4.387,7.98l-9.974,18.069l-12.249,6.348h52.328C99.799,92.206,106.002,85.998,106.002,78.346z"/>
	<g>
		<g>
			
				<linearGradient id="SVGID_6_" gradientUnits="userSpaceOnUse" x1="-229.936" y1="143.7324" x2="-229.936" y2="111.0381" gradientTransform="matrix(1 0 0 -1 289.2754 151.834)">
				<stop  offset="0" style="stop-color:#181500"/>
				<stop  offset="1" style="stop-color:#5F5D5C"/>
			</linearGradient>
			<path id="SVGID_2_" fill="url(#SVGID_6_)" d="M18.887,30.67L96.941,8.278c2.382-0.686,4.865,0.693,5.551,3.076l0.375,1.319
				c0.686,2.381-0.693,4.867-3.074,5.552L21.738,40.621c-2.383,0.684-4.865-0.695-5.55-3.078l-0.377-1.318
				C15.127,33.842,16.504,31.357,18.887,30.67L18.887,30.67z"/>
		</g>
		<g>
			<defs>
				<path id="SVGID_7_" d="M18.887,30.67L96.941,8.278c2.382-0.686,4.865,0.693,5.551,3.076l0.375,1.319
					c0.686,2.381-0.693,4.867-3.074,5.552L21.738,40.621c-2.383,0.684-4.865-0.695-5.55-3.078l-0.377-1.318
					C15.127,33.842,16.504,31.357,18.887,30.67L18.887,30.67z"/>
			</defs>
			<clipPath id="SVGID_8_">
				<use xlink:href="#SVGID_7_"  overflow="visible"/>
			</clipPath>
			<polygon clip-path="url(#SVGID_8_)" fill="#FFFFFF" points="29.256,26.566 20.997,41.979 28.934,39.771 37.526,24.267 			"/>
		</g>
		<g>
			<defs>
				<path id="SVGID_9_" d="M18.887,30.67L96.941,8.278c2.382-0.686,4.865,0.693,5.551,3.076l0.375,1.319
					c0.686,2.381-0.693,4.867-3.074,5.552L21.738,40.621c-2.383,0.684-4.865-0.695-5.55-3.078l-0.377-1.318
					C15.127,33.842,16.504,31.357,18.887,30.67L18.887,30.67z"/>
			</defs>
			<clipPath id="SVGID_10_">
				<use xlink:href="#SVGID_9_"  overflow="visible"/>
			</clipPath>
			<polygon clip-path="url(#SVGID_10_)" fill="#FFFFFF" points="44.815,22.104 36.555,37.517 44.493,35.311 53.084,19.803 			"/>
		</g>
		<g>
			<defs>
				<path id="SVGID_11_" d="M18.887,30.67L96.941,8.278c2.382-0.686,4.865,0.693,5.551,3.076l0.375,1.319
					c0.686,2.381-0.693,4.867-3.074,5.552L21.738,40.621c-2.383,0.684-4.865-0.695-5.55-3.078l-0.377-1.318
					C15.127,33.842,16.504,31.357,18.887,30.67L18.887,30.67z"/>
			</defs>
			<clipPath id="SVGID_12_">
				<use xlink:href="#SVGID_11_"  overflow="visible"/>
			</clipPath>
			<polygon clip-path="url(#SVGID_12_)" fill="#FFFFFF" points="60.374,17.64 52.114,33.051 60.051,30.845 68.641,15.34 			"/>
		</g>
		<g>
			<defs>
				<path id="SVGID_13_" d="M18.887,30.67L96.941,8.278c2.382-0.686,4.865,0.693,5.551,3.076l0.375,1.319
					c0.686,2.381-0.693,4.867-3.074,5.552L21.738,40.621c-2.383,0.684-4.865-0.695-5.55-3.078l-0.377-1.318
					C15.127,33.842,16.504,31.357,18.887,30.67L18.887,30.67z"/>
			</defs>
			<clipPath id="SVGID_14_">
				<use xlink:href="#SVGID_13_"  overflow="visible"/>
			</clipPath>
			<polygon clip-path="url(#SVGID_14_)" fill="#FFFFFF" points="75.932,13.173 67.67,28.588 75.607,26.383 84.199,10.874 			"/>
		</g>
		<g>
			<defs>
				<path id="SVGID_15_" d="M18.887,30.67L96.941,8.278c2.382-0.686,4.865,0.693,5.551,3.076l0.375,1.319
					c0.686,2.381-0.693,4.867-3.074,5.552L21.738,40.621c-2.383,0.684-4.865-0.695-5.55-3.078l-0.377-1.318
					C15.127,33.842,16.504,31.357,18.887,30.67L18.887,30.67z"/>
			</defs>
			<clipPath id="SVGID_16_">
				<use xlink:href="#SVGID_15_"  overflow="visible"/>
			</clipPath>
			<polygon clip-path="url(#SVGID_16_)" fill="#FFFFFF" points="91.486,8.713 83.227,24.124 91.166,21.918 99.756,6.409 			"/>
		</g>
		<g>
			<path id="SVGID_1_" fill="none" stroke="#000000" stroke-width="0.5" stroke-miterlimit="3.8637" d="M18.887,30.67L96.941,8.278
				c2.382-0.686,4.865,0.693,5.551,3.076l0.375,1.319c0.686,2.381-0.693,4.867-3.074,5.552L21.738,40.621
				c-2.383,0.684-4.865-0.695-5.55-3.078l-0.377-1.318C15.127,33.842,16.504,31.357,18.887,30.67L18.887,30.67z"/>
		</g>
	</g>
	<g>
		<g>
			
				<linearGradient id="SVGID_17_" gradientUnits="userSpaceOnUse" x1="-227.8584" y1="115.7344" x2="-227.8584" y2="105.3857" gradientTransform="matrix(1 0 0 -1 289.2754 151.834)">
				<stop  offset="0" style="stop-color:#181500"/>
				<stop  offset="1" style="stop-color:#5F5D5C"/>
			</linearGradient>
			<path id="SVGID_5_" fill="url(#SVGID_17_)" d="M20.81,36.102l81.211-0.002c2.478,0,4.485,2.012,4.485,4.488v1.374
				c0,2.479-2.009,4.487-4.485,4.487H20.81c-2.476,0-4.483-2.009-4.483-4.487v-1.374C16.327,38.111,18.334,36.102,20.81,36.102
				L20.81,36.102z"/>
		</g>
		<g>
			<defs>
				<path id="SVGID_18_" d="M20.81,36.102l81.211-0.002c2.478,0,4.485,2.012,4.485,4.488v1.374c0,2.479-2.009,4.487-4.485,4.487
					H20.81c-2.476,0-4.483-2.009-4.483-4.487v-1.374C16.327,38.111,18.334,36.102,20.81,36.102L20.81,36.102z"/>
			</defs>
			<clipPath id="SVGID_19_">
				<use xlink:href="#SVGID_18_"  overflow="visible"/>
			</clipPath>
			<polygon clip-path="url(#SVGID_19_)" fill="#FFFFFF" points="30.753,35.366 18.569,47.904 26.805,47.973 39.334,35.433 			"/>
		</g>
		<g>
			<defs>
				<path id="SVGID_20_" d="M20.81,36.102l81.211-0.002c2.478,0,4.485,2.012,4.485,4.488v1.374c0,2.479-2.009,4.487-4.485,4.487
					H20.81c-2.476,0-4.483-2.009-4.483-4.487v-1.374C16.327,38.111,18.334,36.102,20.81,36.102L20.81,36.102z"/>
			</defs>
			<clipPath id="SVGID_21_">
				<use xlink:href="#SVGID_20_"  overflow="visible"/>
			</clipPath>
			<polygon clip-path="url(#SVGID_21_)" fill="#FFFFFF" points="46.938,35.366 34.753,47.904 42.992,47.973 55.518,35.433 			"/>
		</g>
		<g>
			<defs>
				<path id="SVGID_22_" d="M20.81,36.102l81.211-0.002c2.478,0,4.485,2.012,4.485,4.488v1.374c0,2.479-2.009,4.487-4.485,4.487
					H20.81c-2.476,0-4.483-2.009-4.483-4.487v-1.374C16.327,38.111,18.334,36.102,20.81,36.102L20.81,36.102z"/>
			</defs>
			<clipPath id="SVGID_23_">
				<use xlink:href="#SVGID_22_"  overflow="visible"/>
			</clipPath>
			<polygon clip-path="url(#SVGID_23_)" fill="#FFFFFF" points="63.125,35.366 50.938,47.904 59.174,47.973 71.706,35.433 			"/>
		</g>
		<g>
			<defs>
				<path id="SVGID_24_" d="M20.81,36.102l81.211-0.002c2.478,0,4.485,2.012,4.485,4.488v1.374c0,2.479-2.009,4.487-4.485,4.487
					H20.81c-2.476,0-4.483-2.009-4.483-4.487v-1.374C16.327,38.111,18.334,36.102,20.81,36.102L20.81,36.102z"/>
			</defs>
			<clipPath id="SVGID_25_">
				<use xlink:href="#SVGID_24_"  overflow="visible"/>
			</clipPath>
			<polygon clip-path="url(#SVGID_25_)" fill="#FFFFFF" points="79.307,35.366 67.122,47.904 75.359,47.973 87.889,35.433 			"/>
		</g>
		<g>
			<defs>
				<path id="SVGID_26_" d="M20.81,36.102l81.211-0.002c2.478,0,4.485,2.012,4.485,4.488v1.374c0,2.479-2.009,4.487-4.485,4.487
					H20.81c-2.476,0-4.483-2.009-4.483-4.487v-1.374C16.327,38.111,18.334,36.102,20.81,36.102L20.81,36.102z"/>
			</defs>
			<clipPath id="SVGID_27_">
				<use xlink:href="#SVGID_26_"  overflow="visible"/>
			</clipPath>
			<polygon clip-path="url(#SVGID_27_)" fill="#FFFFFF" points="95.494,35.366 83.307,47.904 91.544,47.973 104.074,35.433 			"/>
		</g>
		<g>
			<path id="SVGID_3_" fill="none" stroke="#000000" stroke-width="0.5" stroke-miterlimit="3.8637" d="M20.81,36.102l81.211-0.002
				c2.478,0,4.485,2.012,4.485,4.488v1.374c0,2.479-2.009,4.487-4.485,4.487H20.81c-2.476,0-4.483-2.009-4.483-4.487v-1.374
				C16.327,38.111,18.334,36.102,20.81,36.102L20.81,36.102z"/>
		</g>
	</g>
	<g>
		<g>
			<defs>
				<path id="SVGID_28_" d="M17.341,47.595c-2.68-1.875-3.332-5.562-1.46-8.237c1.873-2.676,5.559-3.327,8.24-1.451
					c2.676,1.873,3.329,5.56,1.456,8.236C23.704,48.819,20.016,49.467,17.341,47.595L17.341,47.595z"/>
			</defs>
			<clipPath id="SVGID_29_">
				<use xlink:href="#SVGID_28_"  overflow="visible"/>
			</clipPath>
			
				<rect x="19.792" y="40.248" transform="matrix(-0.5734 0.8193 -0.8193 -0.5734 73.8896 43.3344)" clip-path="url(#SVGID_29_)" fill="#E9E7E5" width="11.74" height="1.313"/>
		</g>
	</g>
	<path fill="none" d="M75.688,53.809c5.727-3.046,21.629,5.746,30.316,22.097c8.688,16.347,6.867,34.059,1.141,37.107
		c-5.729,3.045-18.914-6.682-27.604-23.029C70.855,73.637,69.96,56.856,75.688,53.809L75.688,53.809z"/>
	
		<linearGradient id="SVGID_30_" gradientUnits="userSpaceOnUse" x1="-217.7417" y1="99.7529" x2="-217.7417" y2="30.5215" gradientTransform="matrix(1 0 0 -1 289.2754 151.834)">
		<stop  offset="0" style="stop-color:#ECEEF0"/>
		<stop  offset="0.2485" style="stop-color:#E8E8E9"/>
		<stop  offset="0.8" style="stop-color:#DADBDE"/>
		<stop  offset="0.9481" style="stop-color:#C0C1C2"/>
	</linearGradient>
	<path fill="url(#SVGID_30_)" d="M106.505,75.125c-0.875-1.678-1.819-3.275-2.813-4.794c-3.965-6.044-9.1-11.56-15.453-15.097
		c-3.672-2.044-8.082-4.008-12.342-2.764c-1.408,0.411-2.774,1.199-3.886,2.239c-2.474,2.326-3.827,5.779-5.485,8.824
		c-1.449,2.664-2.919,5.324-4.387,7.979l-9.973,18.071L37.12,97.379c-0.408,0.219-0.796,0.443-1.169,0.695
		c0,0-0.052,0.025-0.047,0.031c-5.28,3.545-7.194,10.504-4.227,16.18c0.038,0.07,0.077,0.127,0.113,0.195
		c0.033,0.062,0.059,0.131,0.095,0.197c2.971,5.682,9.769,8.076,15.692,5.756c0.001,0.01,0.051-0.017,0.051-0.017
		c0.418-0.166,0.829-0.353,1.235-0.565l14.98-7.924l20.519,2.108c3.021,0.313,6.041,0.618,9.06,0.948
		c3.44,0.375,7.048,1.229,10.37,0.522c1.486-0.317,2.87-0.959,4.055-1.917c3.447-2.791,4.354-7.537,4.77-11.718
		c0.722-7.239-0.879-14.61-3.575-21.315c-0.685-1.682-1.457-3.371-2.332-5.048c-0.033-0.063-0.069-0.127-0.104-0.192
		C106.57,75.255,106.54,75.191,106.505,75.125L106.505,75.125z"/>
	<path fill="#FFFFFF" d="M69.419,59.913L52.883,90.32l-15.045,7.793c-0.408,0.221-0.797,0.445-1.172,0.697
		c0,0-0.047,0.024-0.044,0.03c-3.872,2.601-5.923,7.033-5.578,11.451l0.901-1.655c0.073-4.015,2.068-6.865,4.715-8.521
		c-0.003-0.006,1.891-1.125,1.891-1.125c0.375-0.25,0.763-0.477,1.171-0.694l13.814-7.194l15.221-27.465L69.419,59.913z"/>
	<path fill="#B3B3B3" d="M98.229,114.883l-34.403-3.793l-14.992,7.898c-0.41,0.209-0.818,0.398-1.238,0.562
		c0,0-0.05,0.028-0.054,0.021c-4.345,1.695-9.154,0.846-12.582-1.959l1.874,0.203c3.332,2.233,6.816,2.226,9.685,0.998
		c0.005,0.008,2.005-0.912,2.005-0.912c0.419-0.162,0.827-0.352,1.236-0.562l13.799-7.231l31.239,3.195L98.229,114.883z"/>
	
		<linearGradient id="SVGID_31_" gradientUnits="userSpaceOnUse" x1="-202.6562" y1="86.2246" x2="-202.6562" y2="44.7959" gradientTransform="matrix(1 0 0 -1 289.2754 151.834)">
		<stop  offset="0" style="stop-color:#99DBF6"/>
		<stop  offset="1" style="stop-color:#00B2DE"/>
	</linearGradient>
	<path fill="url(#SVGID_31_)" d="M95.473,81.292c-5.752-11.007-14.545-17.768-19.641-15.101c-1.068,0.562-2.5,1.992-2.67,3.635
		c-0.604,5.842,1.986,12.599,6.152,19.926c4.188,7.368,8.561,12.883,13.33,16.932c1.03,0.875,2.951-0.076,4.022-0.639
		C101.761,103.38,101.229,92.3,95.473,81.292L95.473,81.292z"/>
	<path fill="#FFFFFF" d="M92.512,82.842c2.604,4.979,2.9,9.965,0.661,11.139c-2.241,1.17-6.165-1.914-8.769-6.894
		c-2.602-4.979-2.898-9.966-0.657-11.14C85.984,74.777,89.911,77.863,92.512,82.842L92.512,82.842z"/>
	<path opacity="0.49" fill="#FFFFFF" enable-background="new    " d="M69.006,65.788c0,0,0.557,3.133,1.116,4.919
		c0.562,1.791,0.896,3.58,0.896,3.58L55.474,90.949L69.006,65.788z"/>
	<path opacity="0.5" fill="#FFFFFF" enable-background="new    " d="M101.213,11.043c0.327,1.154-0.482,2.395-1.807,2.769
		l-78.939,22.34c-1.324,0.375-2.663-0.256-2.99-1.412l0,0c-0.326-1.154,0.482-2.395,1.806-2.771L98.223,9.63
		C99.548,9.256,100.886,9.887,101.213,11.043L101.213,11.043z"/>
	<path opacity="0.5" fill="#FFFFFF" enable-background="new    " d="M105.156,38.573c0,1.198-1.115,2.173-2.494,2.173l-82.036,0.007
		c-1.378,0-2.493-0.971-2.493-2.173l0,0c0-1.199,1.114-2.172,2.49-2.174l82.039-0.006C104.041,36.4,105.156,37.373,105.156,38.573
		L105.156,38.573z"/>
	
		<linearGradient id="SVGID_32_" gradientUnits="userSpaceOnUse" x1="-273.8662" y1="113.9131" x2="-262.0425" y2="113.9131" gradientTransform="matrix(1 0 0 -1 289.2754 151.834)">
		<stop  offset="0" style="stop-color:#181500"/>
		<stop  offset="1" style="stop-color:#5F5D5C"/>
	</linearGradient>
	<path fill="url(#SVGID_32_)" d="M15.409,37.923c0-3.271,2.646-5.919,5.911-5.919c3.267,0,5.913,2.647,5.913,5.919
		c0,3.266-2.646,5.915-5.913,5.915C18.055,43.838,15.409,41.188,15.409,37.923L15.409,37.923z"/>
	<path fill="#666666" d="M21.422,37.52c1.651,1.382,3.886,0.624,5.275-0.098c-0.204-2.779-2.518-4.965-5.345-4.965
		c-2.839,0-5.16,2.206-5.349,5C17.291,36.824,19.644,36.03,21.422,37.52z"/>
	<path fill="none" stroke="#00A6C4" stroke-miterlimit="3.8637" d="M75.688,53.809c5.727-3.046,21.629,5.746,30.316,22.097
		c8.688,16.347,6.867,34.059,1.141,37.107c-5.729,3.045-18.914-6.682-27.604-23.029C70.855,73.637,69.96,56.856,75.688,53.809
		L75.688,53.809z"/>
	<path fill="#94D9F8" d="M76.146,68.996c4.637-2.428,12.266,2.785,18.035,11.898c-5.201-9.871-13.093-15.912-17.675-13.514
		c-0.966,0.508-2.258,1.803-2.411,3.282c-0.013,0.093-0.014,0.188-0.02,0.28C74.645,70.061,75.469,69.354,76.146,68.996z"/>
</g>
</svg>
