<?xml version="1.0" encoding="utf-8"?>
<!-- Generator: Adobe Illustrator 13.0.0, SVG Export Plug-In . SVG Version: 6.00 Build 14948)  -->
<!DOCTYPE svg PUBLIC "-//W3C//DTD SVG 1.1//EN" "http://www.w3.org/Graphics/SVG/1.1/DTD/svg11.dtd">
<svg version="1.1" id="Layer_1" xmlns="http://www.w3.org/2000/svg" xmlns:xlink="http://www.w3.org/1999/xlink" x="0px" y="0px"
	 width="128px" height="128px" viewBox="0 0 128 128" enable-background="new 0 0 128 128" xml:space="preserve">
<g>
	
		<linearGradient id="SVGID_1_" gradientUnits="userSpaceOnUse" x1="-463.3774" y1="1499.7598" x2="-463.3774" y2="1507.0547" gradientTransform="matrix(1 0 0 1 527.6025 -1380.7549)">
		<stop  offset="0" style="stop-color:#99DBF6"/>
		<stop  offset="1" style="stop-color:#00B2DE"/>
	</linearGradient>
	<path fill="url(#SVGID_1_)" stroke="#000000" d="M84.889,122.652c0,2.015-1.631,3.646-3.648,3.646H47.21
		c-2.015,0-3.647-1.632-3.647-3.646l0,0c0-2.013,1.63-3.648,3.647-3.648h34.033C83.257,119.006,84.889,120.64,84.889,122.652
		L84.889,122.652z"/>
	
		<linearGradient id="SVGID_2_" gradientUnits="userSpaceOnUse" x1="1728.1104" y1="3956.8965" x2="1728.1104" y2="4021.2725" gradientTransform="matrix(-1 0 0 -1 1791.9746 4078.707)">
		<stop  offset="0.0824" style="stop-color:#C2C2C2"/>
		<stop  offset="0.2635" style="stop-color:#D2D2D2"/>
		<stop  offset="0.5594" style="stop-color:#E6E6E6"/>
		<stop  offset="0.7582" style="stop-color:#EDEDED"/>
	</linearGradient>
	<path fill="url(#SVGID_2_)" stroke="#000000" stroke-miterlimit="3.8637" d="M31.816,76.509c0-10.534,8.539-19.074,19.073-19.074
		h25.947c10.533,0,19.074,8.54,19.074,19.074l2.246,26.228c0,10.534-8.54,19.074-19.076,19.074H48.646
		c-10.535,0-19.076-8.54-19.076-19.074L31.816,76.509z"/>
	<path fill="#B3B3B3" d="M79.023,117.726H48.926c-9.658,0-17.611-7.267-18.717-16.629l-0.145,1.681
		c0,10.418,8.446,18.863,18.862,18.863h30.098c10.419,0,18.865-8.445,18.865-18.863l-0.145-1.681
		C96.639,110.459,88.687,117.726,79.023,117.726z"/>
	
		<linearGradient id="SVGID_3_" gradientUnits="userSpaceOnUse" x1="-463.7397" y1="1446.9336" x2="-463.7397" y2="1382.5557" gradientTransform="matrix(1 0 0 1 527.6025 -1380.7549)">
		<stop  offset="0.0824" style="stop-color:#C2C2C2"/>
		<stop  offset="0.2635" style="stop-color:#D2D2D2"/>
		<stop  offset="0.5594" style="stop-color:#E6E6E6"/>
		<stop  offset="0.7582" style="stop-color:#EDEDED"/>
	</linearGradient>
	<path fill="url(#SVGID_3_)" stroke="#000000" stroke-miterlimit="3.8637" d="M95.91,47.103c0,10.534-8.541,19.076-19.076,19.076
		H50.888c-10.534,0-19.073-8.542-19.073-19.076L29.57,20.875C29.57,10.34,38.111,1.8,48.646,1.8H79.08
		c10.535,0,19.075,8.541,19.075,19.075L95.91,47.103z"/>
	<path fill="none" stroke="#000000" stroke-miterlimit="3.8637" d="M76.501,54.049c0,4.104-3.326,5.447-7.429,5.449H58.969
		c-4.104,0-7.427-1.345-7.427-5.449"/>
	
		<linearGradient id="SVGID_4_" gradientUnits="userSpaceOnUse" x1="2271.458" y1="4623.3652" x2="2271.3318" y2="4558.9355" gradientTransform="matrix(-0.664 3.000000e-04 0.0013 -0.664 1566.1033 3139.9231)">
		<stop  offset="0" style="stop-color:#99DBF6"/>
		<stop  offset="1" style="stop-color:#00B2DE"/>
	</linearGradient>
	<path fill="url(#SVGID_4_)" d="M42.618,83.384c0.013-6.995,5.693-12.67,12.688-12.674l17.228-0.007
		c6.995-0.004,12.654,5.662,12.643,12.656l1.459,17.416c-0.017,6.994-5.695,12.667-12.69,12.671l-20.208,0.011
		c-6.996,0.002-12.655-5.664-12.642-12.659L42.618,83.384z"/>
	<path fill="#99DBF6" d="M67.102,80.584c6.986,0,13.393,2.486,18.382,6.619l-0.309-3.672c0.012-6.993-5.647-12.66-12.643-12.656
		l-17.227,0.006c-6.995,0.004-12.677,5.678-12.688,12.674l-1.099,12.572C46.324,86.895,55.974,80.584,67.102,80.584z"/>
	<g>
		
			<linearGradient id="SVGID_5_" gradientUnits="userSpaceOnUse" x1="-325.4307" y1="1596.6221" x2="-338.5867" y2="1587.4102" gradientTransform="matrix(1.1562 0 0 1.1562 432.2606 -1795.0825)">
			<stop  offset="0" style="stop-color:#181500"/>
			<stop  offset="1" style="stop-color:#5F5D5C"/>
		</linearGradient>
		<path fill="url(#SVGID_5_)" d="M57.676,45.604c0,5.13-4.156,9.285-9.285,9.285c-5.128,0-9.283-4.153-9.283-9.282
			c0-5.126,4.155-9.285,9.283-9.285C53.52,36.322,57.676,40.48,57.676,45.604z"/>
		
			<linearGradient id="SVGID_6_" gradientUnits="userSpaceOnUse" x1="-479.2109" y1="1418.3301" x2="-479.2109" y2="1434.3906" gradientTransform="matrix(1 0 0 1 527.6025 -1380.7549)">
			<stop  offset="0" style="stop-color:#181500"/>
			<stop  offset="1" style="stop-color:#5F5D5C"/>
		</linearGradient>
		<path fill="url(#SVGID_6_)" d="M56.42,45.604c0,4.434-3.595,8.031-8.03,8.031c-4.434,0-8.028-3.597-8.028-8.031
			c0-4.433,3.595-8.029,8.028-8.029C52.826,37.576,56.42,41.171,56.42,45.604z"/>
		
			<linearGradient id="SVGID_7_" gradientUnits="userSpaceOnUse" x1="-473.5884" y1="1430.2969" x2="-484.835" y2="1422.4221" gradientTransform="matrix(1 0 0 1 527.6025 -1380.7549)">
			<stop  offset="0" style="stop-color:#DEDEDE"/>
			<stop  offset="1" style="stop-color:#FEFEFE"/>
		</linearGradient>
		<circle fill="url(#SVGID_7_)" cx="48.391" cy="45.604" r="6.864"/>
		
			<linearGradient id="SVGID_8_" gradientUnits="userSpaceOnUse" x1="-1640.208" y1="119.6758" x2="-1651.4546" y2="111.8009" gradientTransform="matrix(0.4846 0 0 0.4846 845.9607 -10.4803)">
			<stop  offset="0" style="stop-color:#00B2DE"/>
			<stop  offset="1" style="stop-color:#99DBF6"/>
		</linearGradient>
		<circle fill="url(#SVGID_8_)" cx="48.391" cy="45.606" r="3.326"/>
		
			<linearGradient id="SVGID_9_" gradientUnits="userSpaceOnUse" x1="-1641.937" y1="118.8535" x2="-1647.0206" y2="115.2938" gradientTransform="matrix(0.4846 0 0 0.4846 845.9607 -10.4803)">
			<stop  offset="0" style="stop-color:#181500"/>
			<stop  offset="1" style="stop-color:#5F5D5C"/>
		</linearGradient>
		<circle fill="url(#SVGID_9_)" cx="49.046" cy="46.254" r="1.504"/>
		
			<linearGradient id="SVGID_10_" gradientUnits="userSpaceOnUse" x1="-298.6719" y1="1596.6211" x2="-311.8279" y2="1587.4092" gradientTransform="matrix(1.1562 0 0 1.1562 432.2606 -1795.0825)">
			<stop  offset="0" style="stop-color:#181500"/>
			<stop  offset="1" style="stop-color:#5F5D5C"/>
		</linearGradient>
		<path fill="url(#SVGID_10_)" d="M88.617,45.604c0,5.13-4.158,9.285-9.285,9.285c-5.129,0-9.283-4.153-9.283-9.282
			c0-5.126,4.154-9.285,9.283-9.285C84.459,36.321,88.617,40.48,88.617,45.604z"/>
		
			<linearGradient id="SVGID_11_" gradientUnits="userSpaceOnUse" x1="-448.269" y1="1418.3301" x2="-448.269" y2="1434.3906" gradientTransform="matrix(1 0 0 1 527.6025 -1380.7549)">
			<stop  offset="0" style="stop-color:#181500"/>
			<stop  offset="1" style="stop-color:#5F5D5C"/>
		</linearGradient>
		<path fill="url(#SVGID_11_)" d="M87.361,45.604c0,4.434-3.594,8.031-8.025,8.031s-8.029-3.597-8.029-8.031
			c0-4.433,3.598-8.029,8.029-8.029S87.361,41.171,87.361,45.604z"/>
		
			<linearGradient id="SVGID_12_" gradientUnits="userSpaceOnUse" x1="-442.6484" y1="1430.2969" x2="-453.8943" y2="1422.4226" gradientTransform="matrix(1 0 0 1 527.6025 -1380.7549)">
			<stop  offset="0" style="stop-color:#DEDEDE"/>
			<stop  offset="1" style="stop-color:#FEFEFE"/>
		</linearGradient>
		<circle fill="url(#SVGID_12_)" cx="79.332" cy="45.604" r="6.864"/>
		
			<linearGradient id="SVGID_13_" gradientUnits="userSpaceOnUse" x1="-1576.3604" y1="119.6758" x2="-1587.6061" y2="111.8015" gradientTransform="matrix(0.4846 0 0 0.4846 845.9607 -10.4803)">
			<stop  offset="0" style="stop-color:#00B2DE"/>
			<stop  offset="1" style="stop-color:#99DBF6"/>
		</linearGradient>
		<circle fill="url(#SVGID_13_)" cx="79.332" cy="45.606" r="3.326"/>
		
			<linearGradient id="SVGID_14_" gradientUnits="userSpaceOnUse" x1="-1578.0889" y1="118.8535" x2="-1583.1727" y2="115.294" gradientTransform="matrix(0.4846 0 0 0.4846 845.9607 -10.4803)">
			<stop  offset="0" style="stop-color:#181500"/>
			<stop  offset="1" style="stop-color:#5F5D5C"/>
		</linearGradient>
		<circle fill="url(#SVGID_14_)" cx="79.987" cy="46.254" r="1.504"/>
	</g>
	<g>
		
			<linearGradient id="SVGID_15_" gradientUnits="userSpaceOnUse" x1="-404.8047" y1="1346.5205" x2="-399.0098" y2="1346.5205" gradientTransform="matrix(0.9974 -0.0737 0.074 0.9974 329.7689 -1330.123)">
			<stop  offset="0" style="stop-color:#99DBF6"/>
			<stop  offset="1" style="stop-color:#00B2DE"/>
		</linearGradient>
		<path fill="url(#SVGID_15_)" stroke="#000000" d="M31.839,47.697c0.119,1.595-1.08,2.987-2.676,3.104l0,0
			c-1.592,0.118-2.984-1.081-3.104-2.678l-0.8-10.79c-0.118-1.594,1.079-2.985,2.675-3.104l0,0c1.595-0.116,2.986,1.081,3.104,2.676
			L31.839,47.697z"/>
		<path fill="#94D9F8" d="M30.819,40.184l-0.24-3.248c-0.099-1.324-1.253-2.317-2.576-2.221c-1.325,0.099-2.319,1.253-2.22,2.575
			l0.502,6.768C27.272,41.82,28.928,40.321,30.819,40.184z"/>
		
			<linearGradient id="SVGID_16_" gradientUnits="userSpaceOnUse" x1="-409.0088" y1="1347.2217" x2="-404.8379" y2="1347.2217" gradientTransform="matrix(0.9974 -0.0737 0.074 0.9974 329.7689 -1330.123)">
			<stop  offset="0" style="stop-color:#99DBF6"/>
			<stop  offset="1" style="stop-color:#00B2DE"/>
		</linearGradient>
		<path fill="url(#SVGID_16_)" stroke="#000000" d="M25.964,47.316c0.087,1.147-0.776,2.148-1.925,2.233l0,0
			c-1.148,0.085-2.15-0.777-2.233-1.925l-0.576-7.768c-0.087-1.148,0.775-2.15,1.924-2.235l0,0c1.149-0.083,2.15,0.779,2.235,1.925
			L25.964,47.316z"/>
		<path fill="#94D9F8" d="M25.08,41.736l-0.159-2.16c-0.065-0.88-0.833-1.54-1.712-1.475c-0.881,0.065-1.54,0.833-1.474,1.711
			l0.333,4.498C22.723,42.82,23.823,41.826,25.08,41.736z"/>
	</g>
	<g>
		
			<linearGradient id="SVGID_17_" gradientUnits="userSpaceOnUse" x1="8205.6445" y1="1982.7646" x2="8211.4404" y2="1982.7646" gradientTransform="matrix(-0.9974 -0.0737 -0.074 0.9974 8433.3799 -1330.123)">
			<stop  offset="0" style="stop-color:#99DBF6"/>
			<stop  offset="1" style="stop-color:#00B2DE"/>
		</linearGradient>
		<path fill="url(#SVGID_17_)" stroke="#000000" d="M96.162,47.697c-0.121,1.595,1.078,2.987,2.676,3.104l0,0
			c1.592,0.118,2.983-1.081,3.104-2.678l0.801-10.79c0.117-1.594-1.08-2.985-2.677-3.104l0,0c-1.595-0.116-2.985,1.081-3.104,2.676
			L96.162,47.697z"/>
		<path fill="#94D9F8" d="M97.183,40.184l0.239-3.248c0.1-1.324,1.254-2.317,2.576-2.221c1.325,0.099,2.319,1.253,2.22,2.575
			l-0.503,6.768C100.729,41.82,99.074,40.321,97.183,40.184z"/>
		
			<linearGradient id="SVGID_18_" gradientUnits="userSpaceOnUse" x1="8201.4453" y1="1983.4658" x2="8205.6172" y2="1983.4658" gradientTransform="matrix(-0.9974 -0.0737 -0.074 0.9974 8433.3799 -1330.123)">
			<stop  offset="0" style="stop-color:#99DBF6"/>
			<stop  offset="1" style="stop-color:#00B2DE"/>
		</linearGradient>
		<path fill="url(#SVGID_18_)" stroke="#000000" d="M102.035,47.316c-0.086,1.147,0.777,2.148,1.927,2.233l0,0
			c1.148,0.085,2.149-0.777,2.233-1.925l0.576-7.768c0.087-1.148-0.775-2.15-1.924-2.235l0,0c-1.148-0.083-2.15,0.779-2.236,1.925
			L102.035,47.316z"/>
		<path fill="#94D9F8" d="M102.92,41.736l0.16-2.16c0.064-0.88,0.832-1.54,1.711-1.475c0.881,0.065,1.541,0.833,1.476,1.711
			l-0.335,4.498C105.276,42.82,104.178,41.826,102.92,41.736z"/>
	</g>
	<path fill="#FFFFFF" d="M49.934,8.967h28.144c8.906,0,16.25,6.606,17.449,15.182l0.191-2.234c0-9.742-7.898-17.64-17.641-17.64
		H49.934c-9.741,0-17.64,7.899-17.64,17.64l0.191,2.234C33.684,15.573,41.028,8.967,49.934,8.967z"/>
</g>
</svg>
