<?xml version="1.0" encoding="utf-8"?>
<!-- Generator: Adobe Illustrator 13.0.0, SVG Export Plug-In . SVG Version: 6.00 Build 14948)  -->
<!DOCTYPE svg PUBLIC "-//W3C//DTD SVG 1.1//EN" "http://www.w3.org/Graphics/SVG/1.1/DTD/svg11.dtd">
<svg version="1.1" id="Layer_1" xmlns="http://www.w3.org/2000/svg" xmlns:xlink="http://www.w3.org/1999/xlink" x="0px" y="0px"
	 width="128px" height="128px" viewBox="0 0 128 128" enable-background="new 0 0 128 128" xml:space="preserve">
<g>
	<g>
		<path fill="#F2F2F2" d="M33.035,75.23c1.244-0.772,2.716-1.227,4.288-1.227h52.872c1.555,0,3.013,0.441,4.25,1.2l0.625-0.565
			c-1.404-0.914-3.076-1.451-4.875-1.451H37.323c-1.792,0-3.456,0.533-4.858,1.439L33.035,75.23z"/>
		
			<radialGradient id="SVGID_1_" cx="-225.5684" cy="53.978" r="30.6455" gradientTransform="matrix(1 0 0 -1 289.2754 151.834)" gradientUnits="userSpaceOnUse">
			<stop  offset="0" style="stop-color:#FAFAFA"/>
			<stop  offset="0.3629" style="stop-color:#E5E5E5"/>
			<stop  offset="1" style="stop-color:#C4C4C4"/>
		</radialGradient>
		<path fill="url(#SVGID_1_)" stroke="#808080" d="M56.58,119.566l-24.924-36.85c-3.853-6.365-2.184-11.576,3.709-11.576h56.936
			c5.891,0,7.305,4.869,3.139,10.816l-24.274,38.365C66.998,126.271,60.436,125.932,56.58,119.566L56.58,119.566z"/>
		
			<radialGradient id="SVGID_2_" cx="-224.9043" cy="108.8613" r="23.7715" gradientTransform="matrix(1 0 0 -1 289.2754 151.834)" gradientUnits="userSpaceOnUse">
			<stop  offset="0" style="stop-color:#FAFAFA"/>
			<stop  offset="0.4142" style="stop-color:#E3E3E3"/>
			<stop  offset="1" style="stop-color:#C7C7C7"/>
		</radialGradient>
		<path fill="url(#SVGID_2_)" stroke="#808080" d="M40.607,42.972c0-13.134,10.641-23.779,23.765-23.779
			s23.763,10.646,23.763,23.779c0,13.133-10.639,23.779-23.763,23.779S40.607,56.104,40.607,42.972L40.607,42.972z"/>
		
			<linearGradient id="SVGID_3_" gradientUnits="userSpaceOnUse" x1="-214.1714" y1="120.9531" x2="-214.1714" y2="108.5625" gradientTransform="matrix(1 0 0 -1 289.2754 151.834)">
			<stop  offset="0" style="stop-color:#80C11B"/>
			<stop  offset="1" style="stop-color:#80E21B"/>
		</linearGradient>
		<path fill="url(#SVGID_3_)" d="M68.912,37.075c0-3.422,2.771-6.194,6.193-6.194c3.42,0,6.191,2.772,6.191,6.194
			c0,3.425-2.771,6.197-6.191,6.197S68.912,40.5,68.912,37.075L68.912,37.075z"/>
		<path opacity="0.5" fill="#FFFFFF" enable-background="new    " d="M75.096,36.931c1.706,1.424,4.014,0.644,5.449-0.103
			c-0.213-2.868-2.604-5.127-5.521-5.127c-2.93,0-5.328,2.279-5.521,5.161C70.83,36.212,73.264,35.395,75.096,36.931z"/>
		<path fill="#F2F2F2" d="M47.116,30.656c3.969-5.448,11.265-9.623,18.085-9.623c6.818,0,13.93,4.175,17.896,9.623h0.756
			c-4.207-6.412-11.033-10.608-18.746-10.608c-7.715,0-14.542,4.196-18.747,10.608H47.116z"/>
		
			<linearGradient id="SVGID_4_" gradientUnits="userSpaceOnUse" x1="-224.7754" y1="89.6396" x2="-224.7754" y2="100.2441" gradientTransform="matrix(1 0 0 -1 289.2754 151.834)">
			<stop  offset="0" style="stop-color:#00B2DE"/>
			<stop  offset="1" style="stop-color:#99DBF6"/>
		</linearGradient>
		<path fill="url(#SVGID_4_)" d="M82.492,51.589c-3.971,5.448-11.268,9.62-18.088,9.62c-6.819,0-13.928-4.172-17.896-9.62h-0.753
			c4.203,6.413,11.028,10.605,18.742,10.605c7.716,0,14.541-4.192,18.748-10.605H82.492z"/>
		<path fill="#BFBFBF" d="M94.721,77.469c-0.019,1.247-0.367,2.504-1.092,3.631l-24.25,37.797c-0.713,1.112-1.695,1.949-2.809,2.487
			l0.119,0.708c1.299-0.585,2.449-1.533,3.274-2.818l24.252-37.797c0.821-1.279,1.203-2.718,1.197-4.139L94.721,77.469z"/>
		<path opacity="0.5" fill="#FFFFFF" enable-background="new    " d="M37.748,89.523c7.068-5.578,15.986-8.918,25.691-8.918
			c9.56,0,18.354,3.24,25.372,8.672l4.271-6.748c3.895-5.559,2.57-10.104-2.934-10.104H36.961c-5.508,0-7.065,4.866-3.465,10.812
			L37.748,89.523z"/>
	</g>
	<g>
		<path fill="#FCB614" d="M94.672,34.333c0,0,3.803,0.391,3.369,1.854c-0.842,2.864-9.773,4.044-9.773,4.044l-1.967-6.402
			L94.672,34.333L94.672,34.333z"/>
		<path fill="#DD8528" d="M87.668,40.311c-0.043-0.316,0.178-0.605,0.492-0.649l0,0c0,0,1.236-0.168,2.828-0.526l0,0
			c1.592-0.355,3.537-0.909,4.881-1.63l0,0c0.902-0.479,1.479-1.038,1.589-1.473l0,0c0.009-0.031,0.011-0.048,0.011-0.055l0,0
			c0.008-0.016-0.041-0.168-0.398-0.367l0,0c-0.334-0.189-0.856-0.36-1.383-0.483l0,0c-1.057-0.253-2.136-0.336-2.136-0.336h-0.001
			c-0.318-0.024-0.553-0.301-0.529-0.62l0,0c0.025-0.316,0.304-0.554,0.617-0.529l0,0c0.039,0.016,2.523,0.171,3.988,0.961l0,0
			c0.477,0.264,0.979,0.683,0.992,1.375l0,0c0,0.128-0.018,0.25-0.055,0.369l0,0c-0.299,0.974-1.148,1.623-2.152,2.171l0,0
			c-1.016,0.546-2.244,0.968-3.438,1.304l0,0c-2.389,0.672-4.644,0.979-4.658,0.981l0,0c-0.025,0.005-0.051,0.007-0.078,0.007l0,0
			C87.957,40.81,87.707,40.6,87.668,40.311L87.668,40.311z"/>
		<path fill="#FCB614" d="M33.494,34.333c0,0-3.802,0.391-3.369,1.854c0.842,2.864,9.773,4.044,9.773,4.044l2.316-6.402
			L33.494,34.333L33.494,34.333z"/>
		<path fill="#DD8528" d="M39.826,40.803c-0.033-0.011-5.087-0.641-8.115-2.263l0,0c-1.005-0.551-1.857-1.213-2.143-2.199l0,0
			c-0.033-0.121-0.051-0.241-0.051-0.359l0,0c0.014-0.702,0.518-1.131,1-1.399l0,0c0.508-0.279,1.111-0.46,1.704-0.599l0,0
			c1.181-0.275,2.329-0.354,2.347-0.355l0,0l0,0c0.318-0.021,0.592,0.216,0.615,0.533l0,0c0.021,0.319-0.218,0.593-0.535,0.615l0,0
			c0,0-0.609,0.043-1.375,0.17l0,0c-0.759,0.123-1.68,0.352-2.195,0.643l0,0c-0.361,0.203-0.42,0.361-0.408,0.393l0,0
			c0,0.012,0.003,0.027,0.01,0.055l0,0c0.107,0.451,0.676,1.014,1.575,1.49l0,0c0.892,0.482,2.058,0.891,3.204,1.209l0,0
			c2.301,0.637,4.51,0.926,4.514,0.926l0,0c0.316,0.04,0.539,0.329,0.496,0.645l0,0c-0.037,0.292-0.285,0.504-0.57,0.504l0,0
			C39.875,40.81,39.849,40.808,39.826,40.803L39.826,40.803z"/>
		
			<linearGradient id="SVGID_5_" gradientUnits="userSpaceOnUse" x1="-225.1924" y1="120.4277" x2="-225.1924" y2="143.7089" gradientTransform="matrix(1 0 0 -1 289.2754 151.834)">
			<stop  offset="0" style="stop-color:#FCB614"/>
			<stop  offset="0.9746" style="stop-color:#FFF100"/>
		</linearGradient>
		<path fill="url(#SVGID_5_)" d="M38.782,34.203c0,0,0.561-4.837,1.769-9.49c1.057-4.062,4.371-16.19,23.532-16.19
			c19.176,0,22.478,12.128,23.534,16.19c1.209,4.653,1.767,9.49,1.767,9.49s-11.147-1.673-25.301-1.86
			C50.867,32.169,38.782,34.203,38.782,34.203L38.782,34.203z"/>
		
			<linearGradient id="SVGID_6_" gradientUnits="userSpaceOnUse" x1="-225.1924" y1="120.4277" x2="-225.1924" y2="143.7089" gradientTransform="matrix(1 0 0 -1 289.2754 151.834)">
			<stop  offset="0" style="stop-color:#FCB614"/>
			<stop  offset="0.9746" style="stop-color:#FFF100"/>
		</linearGradient>
		<path fill="url(#SVGID_6_)" d="M38.782,34.203c0,0,0.561-4.837,1.769-9.49c1.057-4.062,4.371-16.19,23.532-16.19
			c19.176,0,22.478,12.128,23.534,16.19c1.209,4.653,1.767,9.49,1.767,9.49s-11.147-1.673-25.301-1.86
			C50.867,32.169,38.782,34.203,38.782,34.203L38.782,34.203z"/>
		
			<linearGradient id="SVGID_7_" gradientUnits="userSpaceOnUse" x1="-225.1938" y1="120.5801" x2="-225.1938" y2="143.8631" gradientTransform="matrix(1 0 0 -1 289.2754 151.834)">
			<stop  offset="0" style="stop-color:#DD8528"/>
			<stop  offset="0.9746" style="stop-color:#FCB614"/>
		</linearGradient>
		<path fill="url(#SVGID_7_)" d="M88.811,34.27c-0.004-0.009-0.555-4.81-1.752-9.412l0,0c-0.524-2.017-1.586-5.94-4.832-9.368l0,0
			c-3.248-3.416-8.674-6.384-18.144-6.391l0,0c-9.463,0.007-14.89,2.975-18.138,6.393l0,0c-3.25,3.426-4.315,7.35-4.838,9.366l0,0
			c-1.197,4.603-1.752,9.403-1.752,9.412l0,0c-0.037,0.317-0.324,0.544-0.639,0.507l0,0c-0.318-0.036-0.541-0.322-0.507-0.64l0,0
			c0.003-0.014,0.562-4.866,1.783-9.569l0,0c0.532-2.045,1.651-6.217,5.116-9.87l0,0c3.463-3.661,9.273-6.756,18.974-6.749l0,0
			c9.704-0.007,15.518,3.088,18.979,6.749l0,0c3.461,3.653,4.576,7.825,5.11,9.87l0,0c1.222,4.703,1.778,9.556,1.782,9.569l0,0
			c0.038,0.317-0.189,0.604-0.505,0.64l0,0c-0.022,0.002-0.046,0.002-0.068,0.002l0,0C89.094,34.778,88.846,34.563,88.811,34.27
			L88.811,34.27z"/>
		
			<linearGradient id="SVGID_8_" gradientUnits="userSpaceOnUse" x1="-225.1919" y1="119.543" x2="-225.1919" y2="144.4127" gradientTransform="matrix(1 0 0 -1 289.2754 151.834)">
			<stop  offset="0" style="stop-color:#FCB614"/>
			<stop  offset="0.9746" style="stop-color:#FFF100"/>
		</linearGradient>
		<path fill="url(#SVGID_8_)" d="M54.102,9.314c0,0,2.518-5.443,9.545-5.443c7.026,0,10.417,5.443,10.417,5.443v22.657
			c0,0-4.52-0.091-9.792-0.091s-10.17,0.091-10.17,0.091V9.314L54.102,9.314z"/>
		
			<linearGradient id="SVGID_9_" gradientUnits="userSpaceOnUse" x1="-225.2065" y1="124.9805" x2="-225.2065" y2="139.4512" gradientTransform="matrix(1 0 0 -1 289.2754 151.834)">
			<stop  offset="0" style="stop-color:#FFCA05"/>
			<stop  offset="0.9746" style="stop-color:#FFFACD"/>
		</linearGradient>
		<path fill="url(#SVGID_9_)" d="M74.062,10.229V9.314c0,0-3.391-5.443-10.417-5.443c-7.027,0-9.545,5.443-9.545,5.443v0.902
			c-5.477,2.328-9.13,6.517-9.13,11.296c0,7.312,8.549,13.243,19.097,13.243c10.549,0,19.098-5.931,19.098-13.243
			C83.166,16.74,79.523,12.56,74.062,10.229z"/>
		
			<linearGradient id="SVGID_10_" gradientUnits="userSpaceOnUse" x1="-225.1934" y1="120.5791" x2="-225.1934" y2="143.8635" gradientTransform="matrix(1 0 0 -1 289.2754 151.834)">
			<stop  offset="0" style="stop-color:#DD8528"/>
			<stop  offset="0.9746" style="stop-color:#FCB614"/>
		</linearGradient>
		<path fill="url(#SVGID_10_)" d="M73.488,31.972V9.489c-0.09-0.133-0.258-0.359-0.504-0.656l0,0
			c-0.406-0.486-1.025-1.138-1.851-1.789l0,0c-1.657-1.301-4.131-2.596-7.488-2.597l0,0c-5.857-0.002-8.375,3.948-8.921,4.913l0,0
			c-0.019,0.035-0.036,0.065-0.052,0.091l0,0v22.521c0,0.316-0.256,0.576-0.572,0.576l0,0c-0.319,0-0.578-0.26-0.578-0.576l0,0
			V9.314l0.054-0.242c0.022-0.068,2.697-5.769,10.069-5.778l0,0c7.356,0.018,10.87,5.661,10.909,5.715l0,0
			c0.055,0.09,0.086,0.197,0.086,0.306l0,0v22.657c0,0.316-0.259,0.576-0.578,0.576l0,0C73.746,32.548,73.488,32.288,73.488,31.972
			L73.488,31.972z"/>
		
			<linearGradient id="SVGID_11_" gradientUnits="userSpaceOnUse" x1="-265.813" y1="116.5107" x2="-192.816" y2="119.8288" gradientTransform="matrix(1 0 0 -1 289.2754 151.834)">
			<stop  offset="0" style="stop-color:#FCB614"/>
			<stop  offset="0.9746" style="stop-color:#FFF100"/>
		</linearGradient>
		<path fill="url(#SVGID_11_)" d="M34.337,34.203c0,0,6.47,0.931,30.205,0.931c23.733,0,29.286-0.931,29.286-0.931
			S80.852,31.3,64.757,31.3C48.789,31.3,34.337,34.203,34.337,34.203L34.337,34.203z"/>
		<path fill="#DD8528" d="M34.254,34.774c-0.277-0.041-0.484-0.273-0.494-0.554l0,0c-0.006-0.281,0.188-0.525,0.463-0.581l0,0
			c0.023-0.004,14.498-2.916,30.534-2.917l0,0c16.163,0.001,29.171,2.915,29.197,2.919l0,0c0.269,0.06,0.458,0.304,0.45,0.578l0,0
			c-0.008,0.275-0.211,0.508-0.48,0.553l0,0c-0.062,0.009-5.629,0.938-29.38,0.938l0,0C40.791,35.71,34.303,34.778,34.254,34.774
			L34.254,34.774z M40.566,34.091c4.574,0.234,12.115,0.467,23.978,0.466l0,0c13.468,0.001,21.071-0.298,25.116-0.558l0,0
			c-1.229-0.207-2.713-0.443-4.41-0.676l0,0c-5.236-0.726-12.48-1.447-20.493-1.447l0,0c-7.948,0-15.532,0.722-21.126,1.447l0,0
			c-1.809,0.234-3.407,0.469-4.744,0.677l0,0C39.396,34.03,39.953,34.062,40.566,34.091L40.566,34.091z"/>
		
			<linearGradient id="SVGID_12_" gradientUnits="userSpaceOnUse" x1="-225.1929" y1="128.3242" x2="-225.1929" y2="134.843" gradientTransform="matrix(1 0 0 -1 289.2754 151.834)">
			<stop  offset="0" style="stop-color:#DD8528"/>
			<stop  offset="0.9746" style="stop-color:#FCB614"/>
		</linearGradient>
		<path fill="url(#SVGID_12_)" d="M59.016,21.886c0-2.799,2.268-5.068,5.067-5.068l0,0c2.8,0,5.065,2.27,5.065,5.068l0,0
			c0,2.798-2.267,5.067-5.065,5.067l0,0C61.283,26.953,59.016,24.684,59.016,21.886L59.016,21.886z M60.167,21.886
			c0.004,2.16,1.754,3.911,3.916,3.915l0,0c2.161-0.004,3.909-1.753,3.913-3.915l0,0c-0.004-2.162-1.752-3.912-3.913-3.916l0,0
			C61.921,17.974,60.171,19.724,60.167,21.886L60.167,21.886L60.167,21.886z"/>
	</g>
</g>
</svg>
