<?xml version="1.0" encoding="utf-8"?>
<!-- Generator: Adobe Illustrator 13.0.0, SVG Export Plug-In . SVG Version: 6.00 Build 14948)  -->
<!DOCTYPE svg PUBLIC "-//W3C//DTD SVG 1.1//EN" "http://www.w3.org/Graphics/SVG/1.1/DTD/svg11.dtd">
<svg version="1.1" id="Layer_1" xmlns="http://www.w3.org/2000/svg" xmlns:xlink="http://www.w3.org/1999/xlink" x="0px" y="0px"
	 width="128px" height="128px" viewBox="0 0 128 128" enable-background="new 0 0 128 128" xml:space="preserve">
<g>
	<g>
		<linearGradient id="SVGID_1_" gradientUnits="userSpaceOnUse" x1="40.9487" y1="9.4287" x2="40.9487" y2="84.6704">
			<stop  offset="0" style="stop-color:#FF9D00"/>
			<stop  offset="1" style="stop-color:#FF1F00"/>
		</linearGradient>
		<path fill="url(#SVGID_1_)" d="M47.935,53.834C47.935,47.298,53.235,42,59.77,42h19.224V21.263
			c0-6.536-5.301-11.834-11.835-11.834H14.74c-6.538,0-11.836,5.298-11.836,11.834v29.592c0,6.536,5.298,11.835,11.836,11.835h0.845
			v21.98l20.088-21.98h12.262V53.834z"/>
		<path opacity="0.5" fill="#FFFFFF" d="M15.064,11.441H66.83c4.729,0,8.558,5.305,8.558,11.85v2.4c0-6.545-3.828-11.85-8.558-11.85
			H15.064c-4.725,0-8.556,5.305-8.556,11.85v-2.4C6.509,16.746,10.34,11.441,15.064,11.441z"/>
		<g>
			
				<radialGradient id="SVGID_2_" cx="8246.9141" cy="-600.5225" r="4.0928" gradientTransform="matrix(-1 0 0 -1 8300.3848 -563.8086)" gradientUnits="userSpaceOnUse">
				<stop  offset="0" style="stop-color:#FAFAFA"/>
				<stop  offset="0.3629" style="stop-color:#E5E5E5"/>
				<stop  offset="1" style="stop-color:#C4C4C4"/>
			</radialGradient>
			<circle fill="url(#SVGID_2_)" cx="53.47" cy="36.714" r="4.093"/>
			
				<radialGradient id="SVGID_3_" cx="8259.4375" cy="-600.5225" r="4.0933" gradientTransform="matrix(-1 0 0 -1 8300.3848 -563.8086)" gradientUnits="userSpaceOnUse">
				<stop  offset="0" style="stop-color:#FAFAFA"/>
				<stop  offset="0.3629" style="stop-color:#E5E5E5"/>
				<stop  offset="1" style="stop-color:#C4C4C4"/>
			</radialGradient>
			<circle fill="url(#SVGID_3_)" cx="40.948" cy="36.714" r="4.093"/>
			
				<radialGradient id="SVGID_4_" cx="8271.957" cy="-600.5225" r="4.0942" gradientTransform="matrix(-1 0 0 -1 8300.3848 -563.8086)" gradientUnits="userSpaceOnUse">
				<stop  offset="0" style="stop-color:#FAFAFA"/>
				<stop  offset="0.3629" style="stop-color:#E5E5E5"/>
				<stop  offset="1" style="stop-color:#C4C4C4"/>
			</radialGradient>
			<circle fill="url(#SVGID_4_)" cx="28.427" cy="36.714" r="4.093"/>
		</g>
	</g>
	<g>
		<linearGradient id="SVGID_5_" gradientUnits="userSpaceOnUse" x1="87.0518" y1="43.0771" x2="87.0518" y2="118.3188">
			<stop  offset="0" style="stop-color:#FF1F00"/>
			<stop  offset="1" style="stop-color:#FF9D00"/>
		</linearGradient>
		<path fill="url(#SVGID_5_)" d="M113.261,43.077H60.843c-6.534,0-11.835,5.298-11.835,11.834v29.592
			c0,6.536,5.301,11.835,11.835,11.835h31.485l20.088,21.98v-21.98h0.845c6.538,0,11.835-5.299,11.835-11.835V54.911
			C125.096,48.375,119.799,43.077,113.261,43.077z"/>
		<path opacity="0.5" fill="#FFFFFF" d="M112.936,45.09H61.17c-4.729,0-8.557,5.305-8.557,11.85v2.4
			c0-6.545,3.828-11.85,8.557-11.85h51.766c4.726,0,8.557,5.305,8.557,11.85v-2.4C121.492,50.395,117.661,45.09,112.936,45.09z"/>
		<g>
			
				<radialGradient id="SVGID_6_" cx="-163.7969" cy="-634.1709" r="4.0928" gradientTransform="matrix(1 0 0 -1 238.3271 -563.8086)" gradientUnits="userSpaceOnUse">
				<stop  offset="0" style="stop-color:#FAFAFA"/>
				<stop  offset="0.3629" style="stop-color:#E5E5E5"/>
				<stop  offset="1" style="stop-color:#C4C4C4"/>
			</radialGradient>
			<circle fill="url(#SVGID_6_)" cx="74.531" cy="70.362" r="4.093"/>
			
				<radialGradient id="SVGID_7_" cx="-151.2734" cy="-634.1709" r="4.0928" gradientTransform="matrix(1 0 0 -1 238.3271 -563.8086)" gradientUnits="userSpaceOnUse">
				<stop  offset="0" style="stop-color:#FAFAFA"/>
				<stop  offset="0.3629" style="stop-color:#E5E5E5"/>
				<stop  offset="1" style="stop-color:#C4C4C4"/>
			</radialGradient>
			<circle fill="url(#SVGID_7_)" cx="87.053" cy="70.362" r="4.093"/>
			
				<radialGradient id="SVGID_8_" cx="-138.7529" cy="-634.1709" r="4.0933" gradientTransform="matrix(1 0 0 -1 238.3271 -563.8086)" gradientUnits="userSpaceOnUse">
				<stop  offset="0" style="stop-color:#FAFAFA"/>
				<stop  offset="0.3629" style="stop-color:#E5E5E5"/>
				<stop  offset="1" style="stop-color:#C4C4C4"/>
			</radialGradient>
			<circle fill="url(#SVGID_8_)" cx="99.574" cy="70.362" r="4.093"/>
		</g>
	</g>
</g>
</svg>
