<?xml version="1.0" encoding="utf-8"?>
<!-- Generator: Adobe Illustrator 13.0.0, SVG Export Plug-In . SVG Version: 6.00 Build 14948)  -->
<!DOCTYPE svg PUBLIC "-//W3C//DTD SVG 1.1//EN" "http://www.w3.org/Graphics/SVG/1.1/DTD/svg11.dtd">
<svg version="1.1" id="Layer_1" xmlns="http://www.w3.org/2000/svg" xmlns:xlink="http://www.w3.org/1999/xlink" x="0px" y="0px"
	 width="128px" height="128px" viewBox="0 0 128 128" enable-background="new 0 0 128 128" xml:space="preserve">
<g>
	<g>
		
			<linearGradient id="SVGID_1_" gradientUnits="userSpaceOnUse" x1="-160.5991" y1="-593.439" x2="-160.5991" y2="-662.2485" gradientTransform="matrix(1 0 0 -1 238.3271 -563.8105)">
			<stop  offset="0" style="stop-color:#FFD207"/>
			<stop  offset="1" style="stop-color:#FAA61A"/>
		</linearGradient>
		<path fill="url(#SVGID_1_)" stroke="#FA901A" stroke-width="1.0006" stroke-miterlimit="3.8637" d="M75.187,29.628l-0.086,0.066
			c-0.01,0.062-1.801,9.533-1.801,9.533c-0.133,0.711-0.666,1.273-1.365,1.449c-2.326,0.576-4.555,1.496-6.607,2.738
			c-0.617,0.373-1.391,0.354-1.986-0.057c0,0-7.961-5.436-8.01-5.467l-0.105,0.01c-0.045,0.043-3.562,3.564-3.605,3.605
			l-0.012,0.078v0.029c0.033,0.043,5.465,8.016,5.465,8.016c0.209,0.311,0.316,0.674,0.316,1.039c0,0.33-0.084,0.658-0.262,0.957
			c-1.242,2.055-2.158,4.271-2.734,6.602c-0.178,0.699-0.738,1.236-1.451,1.371c0,0-9.465,1.789-9.523,1.801l-0.072,0.084
			c0,0.061,0,5.04,0,5.1l0.068,0.084c0.061,0.01,9.529,1.803,9.529,1.803c0.709,0.133,1.27,0.668,1.447,1.367
			c0.576,2.332,1.492,4.549,2.732,6.607c0.18,0.295,0.268,0.623,0.268,0.951c0,0.365-0.107,0.727-0.32,1.043
			c0,0-5.432,7.967-5.465,8.016v0.029l0.012,0.078c0.049,0.045,3.553,3.555,3.602,3.602l0.105,0.012
			c0.051-0.031,8.014-5.469,8.014-5.469c0.598-0.404,1.375-0.426,1.992-0.055c2.053,1.242,4.275,2.16,6.602,2.738
			c0.699,0.174,1.232,0.742,1.365,1.449c0,0,1.791,9.473,1.803,9.533l0.082,0.064c0.062,0,5.039,0,5.098,0l0.082-0.064
			c0.01-0.061,1.803-9.533,1.803-9.533c0.131-0.707,0.666-1.273,1.365-1.449c2.33-0.578,4.551-1.496,6.598-2.738
			c0.619-0.371,1.4-0.352,1.998,0.055c0,0,7.953,5.438,8.008,5.469l0.107-0.008c0.043-0.047,3.557-3.561,3.602-3.604l0.014-0.078
			l-0.002-0.031c-0.035-0.049-5.465-8.018-5.465-8.018c-0.211-0.312-0.32-0.674-0.32-1.039c0-0.328,0.094-0.656,0.264-0.955
			c1.242-2.055,2.16-4.271,2.738-6.604c0.172-0.697,0.74-1.232,1.449-1.365c0,0,9.465-1.793,9.523-1.807l0.064-0.08
			c0-0.061,0-5.042,0-5.102l-0.064-0.084c-0.061-0.014-9.523-1.801-9.523-1.801c-0.709-0.133-1.275-0.67-1.449-1.371
			c-0.578-2.328-1.496-4.549-2.734-6.605c-0.174-0.295-0.268-0.623-0.268-0.951c0-0.365,0.107-0.729,0.322-1.045
			c0,0,5.426-7.961,5.463-8.012v-0.029l-0.014-0.078c-0.041-0.045-3.559-3.564-3.602-3.605l-0.107-0.01
			c-0.043,0.033-8.008,5.467-8.008,5.467c-0.598,0.408-1.375,0.43-1.992,0.055c-2.055-1.24-4.275-2.16-6.604-2.736
			c-0.695-0.174-1.232-0.738-1.365-1.449c0,0-1.787-9.471-1.803-9.533l-0.08-0.066C80.224,29.628,75.247,29.628,75.187,29.628
			L75.187,29.628z M60.661,64.035c0-9.422,7.658-17.088,17.07-17.088c9.416,0.002,17.072,7.666,17.072,17.088
			c0,9.42-7.656,17.083-17.072,17.083C68.321,81.117,60.661,73.455,60.661,64.035L60.661,64.035z"/>
	</g>
	<linearGradient id="SVGID_2_" gradientUnits="userSpaceOnUse" x1="46.0308" y1="2.4155" x2="46.0308" y2="125.5571">
		<stop  offset="0" style="stop-color:#5F5D5C"/>
		<stop  offset="1" style="stop-color:#181500"/>
	</linearGradient>
	<path fill="url(#SVGID_2_)" d="M39.492,64.033c0-20.729,16.498-37.592,37.077-38.205v-7.074c0-9.025-7.309-16.338-16.326-16.338
		H31.819c-9.018,0-16.326,7.312-16.326,16.338v90.465c0,9.021,7.309,16.338,16.326,16.338h28.424
		c9.018,0,16.326-7.316,16.326-16.338v-6.98C55.99,101.625,39.492,84.762,39.492,64.033z"/>
	<linearGradient id="SVGID_3_" gradientUnits="userSpaceOnUse" x1="46.0317" y1="23.2915" x2="46.0317" y2="5.0728">
		<stop  offset="0" style="stop-color:#6D6F71"/>
		<stop  offset="1" style="stop-color:#939598"/>
	</linearGradient>
	<path fill="url(#SVGID_3_)" d="M58.853,5.073H33.21c-8.133,0-14.729,6.597-14.729,14.739v3.479c0-8.143,6.596-14.739,14.729-14.739
		h25.643c8.136,0,14.729,6.597,14.729,14.739v-3.479C73.581,11.669,66.988,5.073,58.853,5.073z"/>
</g>
</svg>
