<?xml version="1.0" encoding="utf-8"?>
<!-- Generator: Adobe Illustrator 13.0.0, SVG Export Plug-In . SVG Version: 6.00 Build 14948)  -->
<!DOCTYPE svg PUBLIC "-//W3C//DTD SVG 1.1//EN" "http://www.w3.org/Graphics/SVG/1.1/DTD/svg11.dtd">
<svg version="1.1" id="Layer_1" xmlns="http://www.w3.org/2000/svg" xmlns:xlink="http://www.w3.org/1999/xlink" x="0px" y="0px"
	 width="128px" height="128px" viewBox="0 0 128 128" enable-background="new 0 0 128 128" xml:space="preserve">
<g>
	<linearGradient id="SVGID_1_" gradientUnits="userSpaceOnUse" x1="46.3955" y1="2.1543" x2="46.3955" y2="125.2954">
		<stop  offset="0" style="stop-color:#5F5D5C"/>
		<stop  offset="1" style="stop-color:#181500"/>
	</linearGradient>
	<path fill="url(#SVGID_1_)" d="M39.857,63.771c0-20.729,16.498-37.592,37.077-38.205v-7.074c0-9.025-7.309-16.338-16.326-16.338
		H32.184c-9.018,0-16.326,7.312-16.326,16.338v90.465c0,9.022,7.309,16.338,16.326,16.338h28.424
		c9.017,0,16.326-7.315,16.326-16.338v-6.979C56.355,101.364,39.857,84.5,39.857,63.771z"/>
	<linearGradient id="SVGID_2_" gradientUnits="userSpaceOnUse" x1="46.396" y1="23.0303" x2="46.396" y2="4.8115">
		<stop  offset="0" style="stop-color:#6D6F71"/>
		<stop  offset="1" style="stop-color:#939598"/>
	</linearGradient>
	<path fill="url(#SVGID_2_)" d="M59.217,4.812H33.575c-8.133,0-14.729,6.597-14.729,14.739v3.479
		c0-8.143,6.596-14.739,14.729-14.739h25.643c8.136,0,14.728,6.597,14.728,14.739v-3.479C73.945,11.408,67.354,4.812,59.217,4.812z"
		/>
	<g>
		<path fill="#99DBF6" d="M61.191,47.934l0.017-0.003l0.043-0.05l-0.019,0.006C61.222,47.903,61.207,47.918,61.191,47.934
			L61.191,47.934z"/>
		<path fill="#99DBF6" d="M61.208,47.87c0.023-0.024,0.031-0.034,0.036-0.043l-0.017,0.001l-0.02,0.028l-0.004-0.005l0.027-0.031
			l-0.02,0.006c0,0-0.057,0.06-0.075,0.083h0.007l0.034-0.032h0.009c-0.006,0.008-0.035,0.041-0.033,0.05
			C61.172,47.907,61.191,47.887,61.208,47.87L61.208,47.87z"/>
		<path fill="#99DBF6" d="M60.756,48.035c0,0-0.018-0.004-0.136,0.108l-0.014,0.004c-0.014,0.007-0.1,0.107-0.1,0.121
			c0,0,0.048-0.031,0.108-0.095c0.032,0,0.081-0.029,0.095-0.037c0.018-0.01,0.035-0.023,0.048-0.037
			c0.023-0.021,0.094-0.102,0.085-0.115l0,0C60.843,47.984,60.773,48.022,60.756,48.035L60.756,48.035z"/>
		<path fill="#99DBF6" d="M60.324,48.422c0,0,0.023-0.019,0.039-0.036c0.018-0.02,0.02-0.024,0.02-0.024l0,0
			C60.382,48.361,60.324,48.41,60.324,48.422L60.324,48.422z"/>
		<polygon fill="#99DBF6" points="60.361,48.345 60.298,48.41 60.318,48.397 60.367,48.345 		"/>
		<path fill="#99DBF6" d="M60.241,48.429c-0.001-0.017-0.032,0.017-0.048,0.03l-0.055,0.059c-0.005,0.011-0.014,0.021-0.02,0.028
			c-0.085,0.09-0.082,0.093-0.082,0.096c0,0,0.006,0,0.029-0.019l0.033-0.035l0.042-0.035l0.028-0.027h0.007l0.071-0.08h-0.006
			c-0.007,0.011-0.019,0.02-0.025,0.028c0.043-0.054,0.043-0.06,0.043-0.06c-0.01,0-0.012,0.009-0.012,0.009L60.241,48.429z"/>
		<path fill="#99DBF6" d="M60.016,48.642c-0.012,0.007-0.026,0.015-0.037,0.021l-0.058,0.073c0.031-0.022,0.031-0.022,0.049-0.038
			c0.022-0.017,0.066-0.075,0.066-0.075S60.029,48.63,60.016,48.642L60.016,48.642z"/>
		<path fill="#99DBF6" d="M59.917,48.726l0.006-0.007c0,0,0.02-0.018,0.062-0.073c0.017-0.019,0.032-0.038,0.049-0.056h-0.009
			c-0.015,0.008-0.069,0.067-0.102,0.102c-0.067,0.056-0.067,0.056-0.133,0.133c0.008-0.006,0.017-0.012,0.021-0.019
			c0.013-0.015,0.056-0.053,0.115-0.101L59.917,48.726L59.917,48.726z"/>
		<path fill="#99DBF6" d="M59.655,48.934c0,0,0.005,0,0.032-0.035c0.01-0.013,0.02-0.021,0.029-0.033
			c-0.018,0.011-0.062,0.062-0.062,0.062V48.934z"/>
		<path fill="#99DBF6" d="M59.365,49.188c-0.023,0.024-0.044,0.052-0.066,0.075c-0.001,0.003-0.001,0.003-0.001,0.003
			s0.011-0.008,0.03-0.032c0.042-0.047,0.045-0.049,0.045-0.053V49.18L59.365,49.188L59.365,49.188z"/>
		<path fill="#A4D9E6" d="M54.362,63.504l-0.012,0.01c-0.005,0.012-0.032,0.095-0.034,0.13c0,0.02,0.008,0.034,0.028,0.026
			c0.003,0.025,0.005,0.037,0.005,0.037c0.01-0.002,0.018-0.012,0.023-0.086l0.002-0.001c0-0.015,0.01-0.022,0.014-0.033
			C54.396,63.551,54.376,63.504,54.362,63.504L54.362,63.504z"/>
		<path fill="#A4D9E6" d="M54.607,63.865c-0.004-0.001-0.016-0.006-0.007-0.073c-0.012-0.006-0.017-0.007-0.017-0.007
			c-0.014,0.001-0.029,0.007-0.032,0.062c0,0.026,0,0.042,0,0.042c0.005,0.018,0.012,0.033,0.015,0.054
			c0,0.015-0.004,0.031-0.003,0.047c0,0,0.003,0.014,0.009,0.018c0.009,0.011,0.038,0.023,0.052-0.055
			C54.632,63.88,54.607,63.865,54.607,63.865L54.607,63.865z"/>
		<path fill="#A4D9E6" d="M54.787,63.988l-0.009-0.005c-0.009,0-0.018,0.005-0.018,0.005c-0.015,0-0.02,0-0.028,0
			c-0.01,0-0.023,0.002-0.026,0.023c-0.005,0.018,0.001,0.062,0.006,0.077c0.015,0.028,0.035-0.02,0.038-0.028
			c0.015-0.001,0.031-0.006,0.043-0.009l0.002-0.012C54.8,63.996,54.792,63.989,54.787,63.988L54.787,63.988z"/>
		<path fill="#A4D9E6" d="M54.863,64.322c0,0,0.044,0.003,0.053-0.071c0.008-0.062-0.021-0.08-0.031-0.085
			c-0.007-0.046-0.016-0.058-0.033-0.058c-0.009,0.001-0.026,0.006-0.045,0.03c-0.006,0.011,0,0.02,0,0.02
			c0.002,0.076,0.019,0.084,0.037,0.066C54.836,64.316,54.851,64.332,54.863,64.322L54.863,64.322z"/>
		<path fill="#A4D9E6" d="M55.078,64.755c-0.005-0.02-0.003-0.044-0.006-0.065c-0.004-0.016-0.011-0.036-0.018-0.051
			c-0.012-0.033-0.035-0.088-0.087-0.105c0.007-0.028,0.007-0.045,0-0.059c-0.013,0.012-0.038,0.037-0.026,0.2
			c-0.039,0.032-0.051,0.097-0.055,0.137c-0.003,0.032,0.012,0.079,0.022,0.101l0.006,0.009c0.004,0.035-0.003,0.08-0.002,0.112
			c0.005,0.147,0.04,0.156,0.04,0.156l0.004-0.002c0,0,0.004-0.017,0.006-0.021c0.002-0.023,0.005-0.067,0.034-0.12
			c0.023-0.038,0.073-0.054,0.094-0.093l0.022-0.077c0.01-0.043-0.01-0.09-0.033-0.119L55.078,64.755L55.078,64.755z"/>
		<path fill="#A4D9E6" d="M57.775,81.739l0.105,0.146c-0.002-0.006-0.024-0.04-0.045-0.067c-0.032-0.05-0.056-0.074-0.056-0.074
			L57.775,81.739z"/>
		<path fill="#A4D9E6" d="M57.904,81.895v0.005c0.054,0.079,0.076,0.107,0.084,0.11c0,0,0-0.004-0.044-0.068
			C57.927,81.92,57.914,81.897,57.904,81.895L57.904,81.895z"/>
		<path fill="#99DBF6" d="M61.836,83.176h-0.003l0.006,0.045c0,0,0.006,0.01,0.018,0.025c0.017,0.016,0.07,0.063,0.1,0.07
			c0,0,0.04,0.008,0.018-0.027C61.956,83.259,61.86,83.176,61.836,83.176L61.836,83.176z"/>
		<path fill="none" d="M106.311,64.641c1.027,14.72-10.062,27.486-24.771,28.515c-14.707,1.029-27.462-10.069-28.493-24.789
			c-1.027-14.717,10.061-27.484,24.77-28.511C92.525,38.824,105.279,49.923,106.311,64.641L106.311,64.641z"/>
		
			<linearGradient id="SVGID_3_" gradientUnits="userSpaceOnUse" x1="-146.7227" y1="-668.3413" x2="-190.4728" y2="-637.7073" gradientTransform="matrix(1 0 0 -1 246.7271 -588.7695)">
			<stop  offset="0" style="stop-color:#DEDEDE"/>
			<stop  offset="1" style="stop-color:#FEFEFE"/>
		</linearGradient>
		<path fill="url(#SVGID_3_)" stroke="#094763" stroke-miterlimit="3.8637" d="M104.762,62.391
			c1.029,14.719-10.061,27.486-24.771,28.515C65.283,91.934,52.527,80.835,51.5,66.117C50.47,51.398,61.558,38.632,76.27,37.604
			C90.977,36.574,103.73,47.673,104.762,62.391L104.762,62.391z"/>
		<g>
			
				<linearGradient id="SVGID_4_" gradientUnits="userSpaceOnUse" x1="-201.9116" y1="-653.1504" x2="-201.9116" y2="-649.6133" gradientTransform="matrix(1 0 0 -1 246.7271 -588.7695)">
				<stop  offset="0" style="stop-color:#32AECE"/>
				<stop  offset="1" style="stop-color:#094E86"/>
			</linearGradient>
			<polygon fill="url(#SVGID_4_)" points="46.406,64.381 43.048,64.204 43.222,60.844 46.583,61.021 			"/>
			
				<linearGradient id="SVGID_5_" gradientUnits="userSpaceOnUse" x1="-199.8447" y1="-643.5811" x2="-199.8447" y2="-639.2686" gradientTransform="matrix(1 0 0 -1 246.7271 -588.7695)">
				<stop  offset="0" style="stop-color:#32AECE"/>
				<stop  offset="1" style="stop-color:#094E86"/>
			</linearGradient>
			<polygon fill="url(#SVGID_5_)" points="47.886,54.812 44.727,53.664 45.876,50.499 49.039,51.65 			"/>
			
				<linearGradient id="SVGID_6_" gradientUnits="userSpaceOnUse" x1="-194.8574" y1="-634.8516" x2="-194.8574" y2="-630.127" gradientTransform="matrix(1 0 0 -1 246.7271 -588.7695)">
				<stop  offset="0" style="stop-color:#32AECE"/>
				<stop  offset="1" style="stop-color:#094E86"/>
			</linearGradient>
			<polygon fill="url(#SVGID_6_)" points="52.161,46.082 49.509,44.01 51.582,41.357 54.231,43.43 			"/>
			
				<linearGradient id="SVGID_7_" gradientUnits="userSpaceOnUse" x1="-187.4248" y1="-627.9727" x2="-187.4248" y2="-623.2852" gradientTransform="matrix(1 0 0 -1 246.7271 -588.7695)">
				<stop  offset="0" style="stop-color:#32AECE"/>
				<stop  offset="1" style="stop-color:#094E86"/>
			</linearGradient>
			<polygon fill="url(#SVGID_7_)" points="58.89,39.203 56.961,36.445 59.716,34.516 61.644,37.273 			"/>
			
				<linearGradient id="SVGID_8_" gradientUnits="userSpaceOnUse" x1="-178.2212" y1="-623.3086" x2="-178.2212" y2="-619.1094" gradientTransform="matrix(1 0 0 -1 246.7271 -588.7695)">
				<stop  offset="0" style="stop-color:#32AECE"/>
				<stop  offset="1" style="stop-color:#094E86"/>
			</linearGradient>
			<polygon fill="url(#SVGID_8_)" points="67.389,34.539 66.406,31.319 69.625,30.34 70.605,33.556 			"/>
			
				<linearGradient id="SVGID_9_" gradientUnits="userSpaceOnUse" x1="-168.2017" y1="-621.4551" x2="-168.2017" y2="-618.0879" gradientTransform="matrix(1 0 0 -1 246.7271 -588.7695)">
				<stop  offset="0" style="stop-color:#32AECE"/>
				<stop  offset="1" style="stop-color:#094E86"/>
			</linearGradient>
			<polygon fill="url(#SVGID_9_)" points="76.844,32.686 76.844,29.318 80.207,29.318 80.207,32.686 			"/>
			
				<linearGradient id="SVGID_10_" gradientUnits="userSpaceOnUse" x1="-158.0981" y1="-623.6152" x2="-158.0981" y2="-619.373" gradientTransform="matrix(1 0 0 -1 246.7271 -588.7695)">
				<stop  offset="0" style="stop-color:#32AECE"/>
				<stop  offset="1" style="stop-color:#094E86"/>
			</linearGradient>
			<polygon fill="url(#SVGID_10_)" points="86.51,33.804 87.549,30.604 90.748,31.643 89.709,34.846 			"/>
			
				<linearGradient id="SVGID_11_" gradientUnits="userSpaceOnUse" x1="-149.0181" y1="-628.542" x2="-149.0181" y2="-623.8428" gradientTransform="matrix(1 0 0 -1 246.7271 -588.7695)">
				<stop  offset="0" style="stop-color:#32AECE"/>
				<stop  offset="1" style="stop-color:#094E86"/>
			</linearGradient>
			<polygon fill="url(#SVGID_11_)" points="95.359,37.794 97.336,35.073 100.059,37.05 98.08,39.772 			"/>
			
				<linearGradient id="SVGID_12_" gradientUnits="userSpaceOnUse" x1="-141.7739" y1="-635.7539" x2="-141.7739" y2="-631.0527" gradientTransform="matrix(1 0 0 -1 246.7271 -588.7695)">
				<stop  offset="0" style="stop-color:#32AECE"/>
				<stop  offset="1" style="stop-color:#094E86"/>
			</linearGradient>
			<polygon fill="url(#SVGID_12_)" points="102.604,44.263 105.33,42.283 107.303,45.006 104.582,46.984 			"/>
			
				<linearGradient id="SVGID_13_" gradientUnits="userSpaceOnUse" x1="-137.0435" y1="-644.5908" x2="-137.0435" y2="-640.3525" gradientTransform="matrix(1 0 0 -1 246.7271 -588.7695)">
				<stop  offset="0" style="stop-color:#32AECE"/>
				<stop  offset="1" style="stop-color:#094E86"/>
			</linearGradient>
			<polygon fill="url(#SVGID_13_)" points="107.562,52.62 110.762,51.583 111.805,54.783 108.604,55.821 			"/>
			
				<linearGradient id="SVGID_14_" gradientUnits="userSpaceOnUse" x1="-135.3022" y1="-654.1558" x2="-135.3022" y2="-650.7354" gradientTransform="matrix(1 0 0 -1 246.7271 -588.7695)">
				<stop  offset="0" style="stop-color:#32AECE"/>
				<stop  offset="1" style="stop-color:#094E86"/>
			</linearGradient>
			<polygon fill="url(#SVGID_14_)" points="109.713,62.023 113.076,61.966 113.137,65.33 109.773,65.387 			"/>
			
				<linearGradient id="SVGID_15_" gradientUnits="userSpaceOnUse" x1="-137.2515" y1="-665.813" x2="-137.2515" y2="-661.4995" gradientTransform="matrix(1 0 0 -1 246.7271 -588.7695)">
				<stop  offset="0" style="stop-color:#32AECE"/>
				<stop  offset="1" style="stop-color:#094E86"/>
			</linearGradient>
			<polygon fill="url(#SVGID_15_)" points="108.471,72.73 111.631,73.88 110.479,77.044 107.32,75.893 			"/>
			
				<linearGradient id="SVGID_16_" gradientUnits="userSpaceOnUse" x1="-142.2407" y1="-674.9546" x2="-142.2407" y2="-670.231" gradientTransform="matrix(1 0 0 -1 246.7271 -588.7695)">
				<stop  offset="0" style="stop-color:#32AECE"/>
				<stop  offset="1" style="stop-color:#094E86"/>
			</linearGradient>
			<polygon fill="url(#SVGID_16_)" points="104.195,81.462 106.848,83.535 104.773,86.186 102.125,84.113 			"/>
			
				<linearGradient id="SVGID_17_" gradientUnits="userSpaceOnUse" x1="-149.6724" y1="-681.7944" x2="-149.6724" y2="-677.1089" gradientTransform="matrix(1 0 0 -1 246.7271 -588.7695)">
				<stop  offset="0" style="stop-color:#32AECE"/>
				<stop  offset="1" style="stop-color:#094E86"/>
			</linearGradient>
			<polygon fill="url(#SVGID_17_)" points="97.467,88.34 99.396,91.098 96.643,93.025 94.713,90.271 			"/>
			
				<linearGradient id="SVGID_18_" gradientUnits="userSpaceOnUse" x1="-158.8774" y1="-685.9731" x2="-158.8774" y2="-681.772" gradientTransform="matrix(1 0 0 -1 246.7271 -588.7695)">
				<stop  offset="0" style="stop-color:#32AECE"/>
				<stop  offset="1" style="stop-color:#094E86"/>
			</linearGradient>
			<polygon fill="url(#SVGID_18_)" points="88.967,93.003 89.949,96.22 86.736,97.204 85.75,93.984 			"/>
			
				<linearGradient id="SVGID_19_" gradientUnits="userSpaceOnUse" x1="-168.896" y1="-686.9946" x2="-168.896" y2="-683.6304" gradientTransform="matrix(1 0 0 -1 246.7271 -588.7695)">
				<stop  offset="0" style="stop-color:#32AECE"/>
				<stop  offset="1" style="stop-color:#094E86"/>
			</linearGradient>
			<polygon fill="url(#SVGID_19_)" points="79.514,94.861 79.514,98.226 76.148,98.226 76.148,94.861 			"/>
			
				<linearGradient id="SVGID_20_" gradientUnits="userSpaceOnUse" x1="-178.9995" y1="-685.7075" x2="-178.9995" y2="-681.4692" gradientTransform="matrix(1 0 0 -1 246.7271 -588.7695)">
				<stop  offset="0" style="stop-color:#32AECE"/>
				<stop  offset="1" style="stop-color:#094E86"/>
			</linearGradient>
			<polygon fill="url(#SVGID_20_)" points="69.846,93.739 68.809,96.938 65.609,95.9 66.648,92.7 			"/>
			
				<linearGradient id="SVGID_21_" gradientUnits="userSpaceOnUse" x1="-188.0786" y1="-681.2407" x2="-188.0786" y2="-676.5405" gradientTransform="matrix(1 0 0 -1 246.7271 -588.7695)">
				<stop  offset="0" style="stop-color:#32AECE"/>
				<stop  offset="1" style="stop-color:#094E86"/>
			</linearGradient>
			<polygon fill="url(#SVGID_21_)" points="60.998,89.749 59.021,92.472 56.3,90.493 58.277,87.771 			"/>
			
				<linearGradient id="SVGID_22_" gradientUnits="userSpaceOnUse" x1="-195.3257" y1="-674.0278" x2="-195.3257" y2="-669.3286" gradientTransform="matrix(1 0 0 -1 246.7271 -588.7695)">
				<stop  offset="0" style="stop-color:#32AECE"/>
				<stop  offset="1" style="stop-color:#094E86"/>
			</linearGradient>
			<polygon fill="url(#SVGID_22_)" points="53.75,83.281 51.031,85.259 49.054,82.537 51.773,80.56 			"/>
			
				<linearGradient id="SVGID_23_" gradientUnits="userSpaceOnUse" x1="-200.0537" y1="-664.731" x2="-200.0537" y2="-660.4888" gradientTransform="matrix(1 0 0 -1 246.7271 -588.7695)">
				<stop  offset="0" style="stop-color:#32AECE"/>
				<stop  offset="1" style="stop-color:#094E86"/>
			</linearGradient>
			<polygon fill="url(#SVGID_23_)" points="48.792,74.922 45.594,75.962 44.555,72.761 47.752,71.72 			"/>
		</g>
		<g>
			<g>
				
					<linearGradient id="SVGID_24_" gradientUnits="userSpaceOnUse" x1="-162.9409" y1="-628.0815" x2="-162.9409" y2="-627.3135" gradientTransform="matrix(1 0 0 -1 246.7271 -588.7695)">
					<stop  offset="0" style="stop-color:#32AECE"/>
					<stop  offset="1" style="stop-color:#094E86"/>
				</linearGradient>
				<path fill="url(#SVGID_24_)" d="M85.479,39.296c-0.225-0.226-0.5-0.172-0.82-0.204c-0.812-0.081-1.701-0.428-2.496-0.548
					c-0.027,0.007-0.066,0.003-0.068,0.033c0.381,0.245,0.801,0.246,1.332,0.311C84.123,38.969,84.783,39.4,85.479,39.296z"/>
				
					<linearGradient id="SVGID_25_" gradientUnits="userSpaceOnUse" x1="-150.6196" y1="-639.0415" x2="-150.6196" y2="-637.7061" gradientTransform="matrix(1 0 0 -1 246.7271 -588.7695)">
					<stop  offset="0" style="stop-color:#32AECE"/>
					<stop  offset="1" style="stop-color:#094E86"/>
				</linearGradient>
				<path fill="url(#SVGID_25_)" d="M95.527,48.937c-0.025,0.008-0.041,0.026-0.035,0.067c0.166,0.224,0.35,0.489,0.549,0.718
					c0.18,0.208,0.395,0.586,0.684,0.548C96.535,49.638,96.156,49.013,95.527,48.937z"/>
				
					<linearGradient id="SVGID_26_" gradientUnits="userSpaceOnUse" x1="-155.0425" y1="-637.3667" x2="-155.0425" y2="-635.9619" gradientTransform="matrix(1 0 0 -1 246.7271 -588.7695)">
					<stop  offset="0" style="stop-color:#32AECE"/>
					<stop  offset="1" style="stop-color:#094E86"/>
				</linearGradient>
				<path fill="url(#SVGID_26_)" d="M92.316,48.286c-0.178-0.323-0.271-0.73-0.412-1.094c-0.234,0.049-0.398,0.169-0.578,0.272
					c-0.047,0.33-0.113,0.642-0.273,0.856C91.355,48.609,92.096,48.775,92.316,48.286z"/>
				
					<linearGradient id="SVGID_27_" gradientUnits="userSpaceOnUse" x1="-167.7231" y1="-638.1904" x2="-167.7231" y2="-634.9385" gradientTransform="matrix(1 0 0 -1 246.7271 -588.7695)">
					<stop  offset="0" style="stop-color:#32AECE"/>
					<stop  offset="1" style="stop-color:#094E86"/>
				</linearGradient>
				<path fill="url(#SVGID_27_)" d="M80.215,46.371c-0.422-0.052-0.713-0.03-1.062-0.033c-0.068,0.064-0.074,0.197-0.17,0.239
					c-0.873-0.171-1.107,0.449-1.674,0.685c0.047,0.467,0.471,0.554,0.855,0.684c0.111-0.129,0.314-0.162,0.342-0.373
					c0.014-0.119-0.172-0.214-0.066-0.309c0.121,0.233,0.27-0.083,0.443-0.104c0.037,0.277-0.26,0.485-0.24,0.855
					c-0.271-0.006-0.314,0.209-0.375,0.408c0.08,0.158,0.291,0.188,0.477,0.241c-0.156,0.015-0.26,0.081-0.41,0.102
					c-0.361-0.131-1.234-0.772-1.4-0.239c0.006,0.049,0.168-0.031,0.271,0c0.146,0.251,0.279,0.519,0.412,0.785
					c0.314-0.155,0.551,0.017,0.752,0.069c0.625,0.162,0.908-0.243,1.4-0.069c0.035-0.14,0.059-0.314-0.035-0.409
					c-0.34,0.116-0.387-0.246-0.582-0.273c0.143-0.103,0.516,0.14,0.721-0.067c0.088-0.146,0.143-0.374,0.068-0.582
					c0.131-0.22,0.361-0.343,0.684-0.374c0.357-0.345,0.273-0.949,0.449-1.438C80.771,46.346,80.422,46.026,80.215,46.371z"/>
				
					<linearGradient id="SVGID_28_" gradientUnits="userSpaceOnUse" x1="-169.4536" y1="-638.9355" x2="-169.4536" y2="-638.0488" gradientTransform="matrix(1 0 0 -1 246.7271 -588.7695)">
					<stop  offset="0" style="stop-color:#32AECE"/>
					<stop  offset="1" style="stop-color:#094E86"/>
				</linearGradient>
				<path fill="url(#SVGID_28_)" d="M76.898,49.927c0.117,0.02,0.105,0.168,0.17,0.239c0.324-0.073,0.41-0.388,0.615-0.58
					c-0.117-0.064-0.096-0.268-0.24-0.307c-0.109,0.188-0.463,0.126-0.58,0.307C76.912,49.713,76.867,49.853,76.898,49.927z"/>
				
					<linearGradient id="SVGID_29_" gradientUnits="userSpaceOnUse" x1="-169.3159" y1="-627.478" x2="-169.3159" y2="-627.2061" gradientTransform="matrix(1 0 0 -1 246.7271 -588.7695)">
					<stop  offset="0" style="stop-color:#32AECE"/>
					<stop  offset="1" style="stop-color:#094E86"/>
				</linearGradient>
				<path fill="url(#SVGID_29_)" d="M76.898,38.477c0.004,0.309,0.867,0.299,1.025,0.033C77.629,38.466,77.203,38.39,76.898,38.477z
					"/>
				
					<linearGradient id="SVGID_30_" gradientUnits="userSpaceOnUse" x1="-161.4058" y1="-641.4346" x2="-161.4058" y2="-632.6162" gradientTransform="matrix(1 0 0 -1 246.7271 -588.7695)">
					<stop  offset="0" style="stop-color:#32AECE"/>
					<stop  offset="1" style="stop-color:#094E86"/>
				</linearGradient>
				<path fill="url(#SVGID_30_)" d="M81.682,46.817c-0.07,0.303-0.332,0.415-0.445,0.684c-0.166-0.059-0.234,0.052-0.371,0.101
					c0.051,0.108,0.02,0.191-0.037,0.275c0.439,0.302,1.02,0.466,1.744,0.478c0.115-0.044,0.129-0.189,0.273-0.204
					c0.969,0.066,1.334,0.74,1.949,1.162c0.176,0.026,0.225-0.072,0.369-0.07c0.064,0.057,0.088,0.146,0.07,0.276
					c-0.035,0.078-0.227-0.002-0.205,0.135c0.07,0.377,0.844,0.048,0.889,0.446c-0.025,0.108-0.131,0.143-0.137,0.273
					c0.244,0.762,0.83,1.209,1.541,1.542c0.617,0.286,0.854,0.75,1.607,0.75c0.338-0.138,0.609-0.347,0.684-0.75
					c-0.178-0.614-0.734-0.842-0.754-1.608c0.107-0.098,0.221-0.188,0.342-0.273c0.02-0.188,0.055-0.359,0.102-0.514
					c-0.35-0.723,0.264-1.227,0.512-1.676c-0.066-0.347-0.303-0.514-0.479-0.72c-0.1-0.115-0.094-0.22-0.205-0.306
					c-0.055-0.043-0.16-0.042-0.238-0.104c-0.348-0.266-0.566-0.732-0.822-0.956c-0.174-0.154-0.48-0.275-0.682-0.444
					c-0.184-0.154-0.232-0.351-0.447-0.376c-0.156-0.04-0.133,0.094-0.277,0.069c-0.236-0.357-0.492-0.689-0.684-1.095
					c-0.143,0.029-0.158-0.065-0.273-0.066c0.031,0.293-0.619,0.167-0.615,0.545c-0.297-0.007-0.512-0.101-0.854-0.068
					c-0.254,0.427-0.646,0.721-1.193,0.854c-0.023,0.137,0.029,0.195,0.035,0.308c-0.088,0.03-0.15,0.079-0.279,0.069
					c-0.051,0.427-0.588,0.365-0.783,0.648c0.031,0.174,0.119,0.291,0.139,0.479C81.998,46.721,81.912,46.839,81.682,46.817z"/>
				
					<linearGradient id="SVGID_31_" gradientUnits="userSpaceOnUse" x1="-165.8398" y1="-643.6201" x2="-165.8398" y2="-626.5747" gradientTransform="matrix(1 0 0 -1 246.7271 -588.7695)">
					<stop  offset="0" style="stop-color:#32AECE"/>
					<stop  offset="1" style="stop-color:#094E86"/>
				</linearGradient>
				<path fill="url(#SVGID_31_)" d="M100.041,51.704c-0.215-0.452-0.592-0.799-0.754-1.196c-0.201-0.488-0.146-0.924-0.412-1.299
					c0.189,0.104,0.289-0.068,0.512-0.035c0.109-0.281-0.137-0.538-0.342-0.784c0.02,0.081-0.203,0.048-0.203,0.204
					c-0.248-0.129-0.432-0.319-0.516-0.616c0.135,0.011,0.127-0.122,0.172-0.203c0.262,0.034,0.375,0.337,0.533,0.462
					c-0.67-0.873-1.393-1.703-2.166-2.486c-0.549-0.51-1.07-1.01-1.598-1.498c-1.549-1.336-3.252-2.497-5.078-3.455
					c-0.314-0.148-0.635-0.293-0.955-0.439c-0.76-0.345-1.512-0.691-2.291-1.001c-2.012-0.733-4.129-1.233-6.33-1.471
					c-4.027-0.288-8.082,0.202-10.965,1.378c-1.814,0.739-3.58,1.399-5.061,2.395c0.367-0.189,0.654-0.458,1.094-0.582
					c-0.65,0.512-1.286,1.039-1.88,1.606c0.052,0.02,0.177-0.038,0.172,0.036c-0.269,0.251-0.692,0.531-0.616,0.921
					c-0.24,0.031-0.295-0.249-0.513-0.271c-0.173-0.021-0.513,0.17-0.751,0.303c-0.443,0.253-0.933,0.432-1.096,0.825
					c0.643,0.169,1.061-0.464,1.744-0.208c-0.045,0.229-0.076,0.468-0.069,0.755c0.22,0.072,0.177,0.213,0.206,0.442
					c0.33-0.136,0.631-0.304,1.06-0.34c-0.049,0.494,0.05,0.838,0.341,0.99c0.195-0.436,0.461-0.763,0.723-1.126
					c0.129-0.188,0.189-0.398,0.305-0.616c0.184-0.338,0.695-0.767,0.309-1.197c0.574-0.335,0.84-0.982,1.471-1.267
					c0-0.089-0.014-0.194,0.035-0.237c0.172-0.064,0.369-0.111,0.41-0.308c0.346-0.271,0.801-0.372,1.127-0.686
					c0.066-0.061,0.1-0.146,0.168-0.203c0.174-0.136,0.414-0.204,0.619-0.343c0.191-0.131,0.355-0.329,0.543-0.445
					c0.605-0.366,1.441-0.488,2.189-0.75c0.75-0.267,1.564-0.419,2.324-0.55c-0.029,0.032-0.238,0.054-0.137,0.104
					c0.305-0.068,0.545-0.01,0.855-0.033c0.422-0.035,0.805-0.252,1.232-0.309c0.398-0.053,0.885,0.039,1.334,0
					c0.631-0.056,1.516-0.201,2.186-0.103c0.09,0.014-0.074,0.067,0.068,0.069c0.617,0.009,1.18,0.081,1.709,0.102
					c0.131,0.004,0.113,0.158,0.24,0.17c1.012-0.076,1.688,0.229,2.391,0.409c0.789,0.208,1.422,0.397,2.088,0.65
					c0.336,0.131,0.738,0.245,0.99,0.377c0.117,0.059,0.188,0.193,0.311,0.241c0.18,0.069,0.402,0.036,0.58,0.102
					c0.277,0.102,0.521,0.318,0.785,0.444c0.34,0.155,0.783,0.194,0.992,0.545c-0.799,0.078-0.939-0.793-1.812-0.753
					c0.092,0.301,0.734,0.65,0.512,1.061c0.506,0.385,0.891,0.885,1.539,1.128c0.178,0.368,0.523,0.416,0.855,0.649
					c0.176,0.127,0.311,0.337,0.477,0.444c0.295,0.188,0.652,0.259,0.891,0.479c0.27,0.248,0.363,0.664,0.615,0.959
					c0.357,0.41,0.777,0.582,1.266,0.818c0.021-0.159-0.045-0.408,0.033-0.513c0.318-0.009,0.527,0.089,0.787,0.137
					c-0.369-0.737-1.068-1.142-1.707-1.607c-1.002-0.231-1.527-1.116-2.225-1.537c0.684,0.146,0.896,0.766,1.576,0.921
					c0.119,0.056,0.02-0.115,0.1-0.102c1.152,0.752,2.465,1.522,2.803,2.973c-0.26-0.197-0.574-0.521-0.992-0.442
					c0.369,0.326,0.83,0.559,1.197,0.888c0,0.091-0.016,0.197,0.031,0.24c0.236,0.21,0.309,0.511,0.479,0.785
					c0.355,0.557,0.941,1.038,1.062,1.677c0.061,0.315-0.01,0.638,0.17,0.955c1.193,0.174,1.529,1.388,1.197,2.497
					c0.52,0.616,0.865,1.412,1.398,2.017c0.082-0.255,0.311-0.257,0.379-0.479c0.041-0.139,0.006-0.397,0-0.514
					C100.684,52.888,100.369,52.401,100.041,51.704z"/>
				
					<linearGradient id="SVGID_32_" gradientUnits="userSpaceOnUse" x1="-166.543" y1="-678.9116" x2="-166.543" y2="-635.0093" gradientTransform="matrix(1 0 0 -1 246.7271 -588.7695)">
					<stop  offset="0" style="stop-color:#32AECE"/>
					<stop  offset="1" style="stop-color:#094E86"/>
				</linearGradient>
				<path fill="url(#SVGID_32_)" d="M98.846,76.418c-0.189-0.08-1.219-0.163-1.371-0.137c-0.406,0.072-0.727,0.496-1.023,0.583
					c-0.113-0.036-0.107-0.19-0.273-0.171c-0.586,0.174-1.258,0.025-1.777,0.339c0.055-0.723-0.332-1.613-1.129-1.569
					c-0.498,0.023-0.881,0.437-1.434,0.445c0-0.15,0.01-0.309-0.035-0.414h-0.477c-0.473-0.382-1.014-0.696-1.748-0.819
					c-0.309,0.188-0.701,0.253-1.16,0.241c-0.854-0.022-1.838-0.071-2.527,0.238c0.061-0.123,0.109-0.334,0-0.444
					c-0.873,0.439-1.799,0.825-2.258,1.676c-0.447,0.026-0.791-0.166-1.195-0.104c-0.168,0.028-0.305,0.195-0.482,0.207
					c-0.479,0.029-0.842-0.314-1.295-0.446c0.277-0.657,0.117-1.504-0.172-2.049c-0.66-0.181-1.541-0.281-2.254-0.206
					c0.16-0.752,0.51-1.313,0.82-1.915c-0.498-0.224-0.93-0.296-1.473-0.066c-0.445,0.186-0.809,0.671-1.229,0.753
					c-0.475,0.089-1.07-0.113-1.607-0.207c-0.055-0.289,0.035-0.475-0.035-0.754c-0.061-0.241-0.322-0.419-0.34-0.647
					c-0.018-0.189,0.131-0.378,0.17-0.547c0.125-0.548,0.188-1.129,0.205-1.745c0.205-0.174,0.365-0.446,0.615-0.511
					c0.73-0.186,1.021,0.238,1.504,0.273c0.201,0.016,0.496-0.027,0.684-0.103c0.158-0.062,0.258-0.278,0.479-0.343
					c0.547-0.152,1.08-0.108,1.635-0.134c0.406-0.019,0.506,0.062,0.619,0.488c0.146,0.551,0.57,0.833,0.682,1.386
					c0.039,0.179,0.496-0.224,0.527-0.267c0.168-0.26,0.26-0.752,0.172-1.058c-0.064-0.22-0.225-0.389-0.309-0.598
					c-0.084-0.217-0.055-0.427-0.146-0.638c0.318-0.602,1.043-0.729,1.469-1.194c0.137-0.148,0.309-0.396,0.412-0.581
					c0.143-0.267,0.377-0.752,0.479-1.096c0.125-0.433-0.076-0.859,0.135-1.368c0.484-0.198,0.992-0.375,1.4-0.646
					c-0.082-0.094-0.178-0.163-0.205-0.308c0.152-0.229,0.354-0.538,0.516-0.649c0.096-0.661,0.189-1.337,0.305-1.984
					c0.246-0.083,0.408-0.252,0.721-0.272c-0.014-0.125-0.139-0.138-0.104-0.31c-0.258-0.002-0.797,0.008-0.887-0.273
					c0.461-0.623,1.619-0.344,2.188-0.853c0.049-0.179,0.098-0.36,0.205-0.479c0.107,0.082,0.189,0.007,0.238,0.102
					c-0.074,0.331-0.246,0.745-0.137,1.06c0.369-0.256,0.854-0.399,1.195-0.685c0.006,0.038,0.037,0.055,0.068,0.068
					c0.021-0.132-0.215-0.11-0.375-0.136c-0.355-0.398-0.551-0.955-0.785-1.471c-0.689-0.5-1.713-0.6-2.396-1.094
					c-0.312-0.229-0.41-0.636-0.783-0.72c-0.188,0.193-0.213,0.543-0.447,0.684c-0.254,0.003-0.508,0.009-0.719-0.032
					c-0.203-0.529-0.48-0.981-0.854-1.335c-0.566-0.097-1.326-0.131-1.676,0.174c-0.02,1.031-0.02,2.045,0.58,2.459
					c-0.16,0.339-0.588,0.502-0.615,0.956c-0.02,0.355,0.43,1.046-0.1,1.265c-0.355-0.34-0.703-0.686-0.615-1.467
					c-0.367-0.09-0.695-0.233-1.061-0.379c-0.326-0.127-0.701-0.365-1.023-0.409c-0.375-0.048-0.783,0.119-1.129-0.137
					c-0.172-0.365-0.496-0.552-0.516-0.989c-0.027-0.73,0.76-1.061,1.029-1.575c0.447-0.054,0.754-0.428,0.986-0.58
					c-0.094,0.437,0.141,0.688,0.445,0.821c0.186-0.099,0.273-0.302,0.414-0.444c0.158,0.091,0.342,0.154,0.578,0.17v-0.306
					c-0.48-0.194-0.957-0.386-1.23-0.788c0.486-0.206,1.309-0.42,0.855-1.162c0.123,0.007,0.174-0.284,0.338-0.344
					c0.465,0.384,1.389,0.298,1.814,0.722c-0.051,0.281-0.158,0.504-0.205,0.785c-0.299,0.089-0.512,0.264-0.82,0.344
					c0.02,0.158-0.055,0.218-0.068,0.34c0.332-0.035,0.645-0.08,0.957-0.137c0.477,0.334,1.01,0.605,1.637,0.786
					c0.137-0.094,0.295-0.164,0.482-0.205c0.039-0.357,0.41-0.492,0.309-0.887c-0.346-0.169-0.742-0.284-0.889-0.65
					c0.445-0.025,0.701,0.19,1.094,0.034c0.004-0.197-0.062-0.324-0.066-0.512c-0.314-0.201-0.611-0.418-1.129-0.409
					c-0.391-0.32-0.729-0.687-1.301-0.822c-0.066,0.091-0.152,0.165-0.342,0.136c-0.326-0.245-0.488-0.671-0.889-0.819
					c-0.381-0.143-0.871-0.097-1.396-0.206c-0.158,0.124-0.178,0.372-0.277,0.547c-0.066-0.149-0.137-0.297-0.273-0.376
					c-0.172-0.002-0.281,0.059-0.477,0.035c-0.248,0.341-0.418,1.071-0.068,1.433c0.352,0.121,0.674,0.086,1.059,0.139
					c-0.18,0.217-0.391,0.408-0.65,0.547c-0.219-0.101-0.379-0.325-0.648-0.276c-0.402-0.285-0.617-0.748-0.955-1.093
					c-0.229,0.212-0.229,0.813,0.1,0.923c-0.068,0.137,0.061,0.353-0.035,0.512c-0.154-0.117-0.225,0.15-0.338,0.067
					c0.068-0.258,0.109-0.598-0.068-0.75c-0.498,0.017-0.711,0.314-0.994,0.547c-0.711-0.082-1.191-0.35-1.777,0
					c-0.127-0.112-0.346-0.133-0.34-0.376c0.623,0.062,1.498,0.212,1.912-0.241c-0.199,0.034-0.209-0.367-0.375-0.479
					c0.029-0.324-0.064-0.526-0.068-0.821c-0.209-0.095-0.303-0.362-0.613-0.374c-0.107-0.005-0.227,0.096-0.342,0.101
					c-0.535,0.036-0.766-0.176-0.957-0.478c0.033-0.093,0.072-0.182,0.068-0.309c-0.242-0.114-0.359-0.066-0.65-0.033
					c-0.18-0.125-0.283-0.33-0.514-0.408c-0.311,0.322-0.547,0.725-0.818,1.092c0.199,0.309,0.768,0.046,1.094,0.238
					c0.156-0.15,0.26-0.353,0.482-0.443c0.061,0.205-0.191,0.259-0.242,0.514c-0.059,0.287,0.186,0.723-0.066,0.955
					c-0.484-0.369-1.334-0.374-1.674-0.89c-0.062-0.009-0.172,0.099-0.209,0c-0.045-0.105,0.088-0.203,0-0.238
					c-0.441,0.267-0.752-0.167-1.332-0.066c-0.191-0.158-0.41-0.299-0.684-0.376c-0.047-0.43-0.17-0.724-0.479-0.921
					c-0.512-0.333-1.092-0.295-0.613-0.993c-0.184-0.146-0.248-0.366-0.24-0.615c-0.479-0.179-1.041-0.242-1.605-0.171
					c-0.246,0.414-0.807,0.751-1.369,0.547c-0.026,0.123-0.048,0.3-0.069,0.513c0.086,0.074,0.165,0.152,0.24,0.242
					c-0.166,0.016-0.166,0.197-0.309,0.238c-0.143-0.017-0.199-0.122-0.34-0.137c-0.574,0.098-0.649,0.303-0.958,0.785
					c-0.28,0.441-0.339,0.919-0.479,1.366c0.082,0.021,0.248-0.04,0.275,0.036c-0.186,0.271-0.984,0.363-1.301,0.171
					c0.062,0.312,0.296,0.452,0.512,0.614c0.355-0.16,0.822-0.289,1.129-0.065c-0.25,0.198,0.18,0.328-0.07,0.544
					c0.24-0.038,0.299-0.247,0.342-0.479c0.285-0.111,0.448-0.605,0.787-0.443c-0.045,0.2-0.239,0.411-0.238,0.545
					c0.314,0.152,0.547-0.027,0.821-0.102c-0.037,0.109-0.096,0.203-0.103,0.34c0.117-0.016,0.193,0.017,0.273,0.036
					c0.311,0.736,1.078,1.021,1.061,2.087c0.107-0.007,0.207-0.002,0.238,0.066c0.373,0.838,0.033,2.162,0.242,3.043
					c-0.504,0.349-0.072,0.728,0.031,1.059c0.236,0.733-0.148,1.427-0.375,1.985c-0.121,0.297-0.336,0.554-0.443,0.858
					c-0.102,0.275-0.045,0.539-0.037,0.834c0.018,0.679-0.027,1.366,0.098,2.034c0.027,0.14,0.051,0.285,0.068,0.428
					c0.016,0.105-0.021,0.294-0.016,0.36c0.025,0.223,0.275,0.308,0.408,0.456c0.125,0.143,0.213,0.341,0.332,0.498
					c0.143,0.184,0.371,0.346,0.48,0.579c0.16,0.35,0.068,0.709,0.135,1.068c0.037,0.193,0.146,0.19,0.199,0.339
					c0.045,0.126-0.037,0.224-0.027,0.352c0.008,0.145,0.102,0.271,0.166,0.396c0.088,0.17,0.117,0.367,0.213,0.527
					c0.084,0.144,0.234,0.206,0.32,0.333c0.215,0.316,0.289,0.727,0.527,1.057c0.232,0.313,0.457,0.658,0.822,0.649
					c0.01-0.144,0.172-0.763-0.031-0.854c-0.385-0.168-0.721-0.689-0.93-1.034c-0.109-0.18-0.355-0.518-0.402-0.694
					c-0.104-0.399,0.205-0.902,0.072-1.244c0.203,0.035,0.189,0.247,0.23,0.41c0.135,0.548,0.295,1.083,0.443,1.57
					c0.621,0.273,0.932,0.63,1.305,1.129c0.201,0.275,0.449,0.557,0.574,0.819c0.193,0.39,0.133,0.817,0.275,1.233
					c0.143,0.411,0.566,0.676,0.686,1.061c1.092,0.396,2.166,0.817,3.008,1.468c0.748-0.451,1.26,0.115,1.777,0.41
					c1.025,0.585,2.781,0.388,3.109,1.504c0.131,0.031,0.227,0.096,0.275,0.206c0.041,0.142-0.07,0.134-0.066,0.24
					c0.393,0.153,0.762,0.331,0.955,0.683c0.572,0.255,1.449,0.176,2.014-0.033c0.148,0.239,0.525,0.254,0.684,0.478
					c0.012,0.299,0.062,0.498-0.031,0.721c-0.092,0.226-0.537,0.967-0.684,1.127c-0.201,0.229-0.496,0.353-0.613,0.614
					c-0.176,0.402-0.059,0.779,0.035,1.13c-0.523,0.214-0.256,0.853-0.068,1.265c0.27,0.07,0.482,0.202,0.717,0.307
					c0.219,0.877,1.025,1.164,1.195,2.086c0.643,0.265,1.359-0.173,1.916,0.238c0.023,0.13,0.082,0.216,0.102,0.346
					c-0.199,0.268-0.373,0.556-0.445,0.955c-0.791,0.826-0.922,2.311-2.221,2.635c-0.078,0.24-0.197,0.441-0.307,0.646
					c0.051,0.006,0.125-0.011,0.137,0.035c-0.316,0.266-1.164,0.178-1.195,0.613c0.387,0.146,0.922-0.111,1.4-0.102
					c0.084-0.048-0.066-0.107,0.066-0.099c1.281-0.448,2.488-0.893,3.627-1.543c0.471-0.163,0.867-0.227,1.299-0.409
					c0.412-0.174,0.637-0.507,0.992-0.719c0.234-0.139,0.477-0.214,0.715-0.375c0.863-0.585,1.906-1.039,2.529-1.81
					c0.117-0.416,0.398-0.641,0.686-0.857c1.18-0.903,2.617-1.8,3.416-3.041c0.287-0.441,0.326-0.987,0.613-1.574
					c0.504-0.995,1.654-1.651,1.982-2.907C98.986,76.624,98.934,76.459,98.846,76.418z"/>
				
					<linearGradient id="SVGID_33_" gradientUnits="userSpaceOnUse" x1="-164.4395" y1="-650.8291" x2="-164.4395" y2="-650.3857" gradientTransform="matrix(1 0 0 -1 246.7271 -588.7695)">
					<stop  offset="0" style="stop-color:#32AECE"/>
					<stop  offset="1" style="stop-color:#094E86"/>
				</linearGradient>
				<path fill="url(#SVGID_33_)" d="M82.027,61.686c0.129,0.003,0.152,0.114,0.307,0.103c0.047-0.028,0.047-0.109,0.064-0.172h0.139
					c0.084,0.102,0.025,0.138,0.033,0.306c-0.137,0.078-0.314,0.125-0.516,0.138C81.984,61.98,81.971,61.803,82.027,61.686z"/>
				
					<linearGradient id="SVGID_34_" gradientUnits="userSpaceOnUse" x1="-166.3208" y1="-650.5176" x2="-166.3208" y2="-649.332" gradientTransform="matrix(1 0 0 -1 246.7271 -588.7695)">
					<stop  offset="0" style="stop-color:#32AECE"/>
					<stop  offset="1" style="stop-color:#094E86"/>
				</linearGradient>
				<path fill="url(#SVGID_34_)" d="M80.984,61.183c0.096,0.119,0.145,0.277,0.107,0.509c-0.248,0.066-0.523,0.088-0.766-0.011
					c0.16-0.358-0.326-0.752-0.617-0.886c0.254-0.368,0.404-0.235,0.697-0.037C80.639,60.916,80.855,61.021,80.984,61.183z"/>
				
					<linearGradient id="SVGID_35_" gradientUnits="userSpaceOnUse" x1="-167.9438" y1="-651.897" x2="-167.9438" y2="-649.7344" gradientTransform="matrix(1 0 0 -1 246.7271 -588.7695)">
					<stop  offset="0" style="stop-color:#32AECE"/>
					<stop  offset="1" style="stop-color:#094E86"/>
				</linearGradient>
				<path fill="url(#SVGID_35_)" d="M78.885,62.683c-0.074,0.139-0.135,0.285-0.148,0.435c-0.588,0.088-0.645-0.418-0.492-0.857
					c0.064-0.183,0.879-1.295,0.879-1.295c0.096,0.075,0.199,0.039,0.271,0.073c-0.004,0.393-0.072,0.762-0.227,1.125
					C79.094,62.331,78.979,62.504,78.885,62.683z"/>
				
					<linearGradient id="SVGID_36_" gradientUnits="userSpaceOnUse" x1="-168.2056" y1="-649.4053" x2="-168.2056" y2="-648.5352" gradientTransform="matrix(1 0 0 -1 246.7271 -588.7695)">
					<stop  offset="0" style="stop-color:#32AECE"/>
					<stop  offset="1" style="stop-color:#094E86"/>
				</linearGradient>
				<path fill="url(#SVGID_36_)" d="M79.291,59.873c0.135,0.186,0.27,0.37,0.342,0.617c-0.764,0.009-1.303,0.189-2.053,0.136
					c-0.033-0.104-0.164-0.106-0.17-0.238C78.047,60.187,78.48,59.504,79.291,59.873z"/>
				
					<linearGradient id="SVGID_37_" gradientUnits="userSpaceOnUse" x1="-146.2046" y1="-639.4229" x2="-146.2046" y2="-639.0049" gradientTransform="matrix(1 0 0 -1 246.7271 -588.7695)">
					<stop  offset="0" style="stop-color:#32AECE"/>
					<stop  offset="1" style="stop-color:#094E86"/>
				</linearGradient>
				<path fill="url(#SVGID_37_)" d="M100.666,50.653c-0.09-0.146-0.184-0.288-0.287-0.418
					C100.477,50.367,100.57,50.508,100.666,50.653z"/>
				
					<linearGradient id="SVGID_38_" gradientUnits="userSpaceOnUse" x1="-144.1929" y1="-655.6821" x2="-144.1929" y2="-639.4229" gradientTransform="matrix(1 0 0 -1 246.7271 -588.7695)">
					<stop  offset="0" style="stop-color:#32AECE"/>
					<stop  offset="1" style="stop-color:#094E86"/>
				</linearGradient>
				<path fill="url(#SVGID_38_)" d="M104.312,62.744c-0.131-1.216-0.248-2.385-0.408-3.555c-0.064-0.439-0.096-0.901-0.164-1.335
					c-0.104-0.407-0.219-0.809-0.346-1.21c-0.154-0.398-0.338-0.807-0.486-1.213c-0.154-0.421-0.285-0.863-0.426-1.284
					c-0.424-1.003-0.906-1.971-1.441-2.908c-0.127-0.206-0.256-0.397-0.377-0.586c0.215,0.356,0.395,0.753,0.535,1.188
					c-0.213-0.188-0.438-0.723-0.648-0.685c0.199,1.055,0.41,2.097,0.58,3.18c-0.053,0.117-0.268,0.075-0.273,0.24
					c0.211,0.601,0.352,1.267,0.412,2.017c0.285,0.545,0.658,1.173,0.682,1.847c0.021,0.457-0.119,0.904-0.135,1.33
					c-0.021,0.536-0.006,1.12,0.07,1.642c0.119,0.848,0.605,1.644,0.717,2.528c0.037,0.331-0.061,0.602,0,0.89
					c0.068,0.351,0.326,0.72,0.273,1.128c0.137,0.056,0.35,0.04,0.477,0.1c0.098,0.204,0.182,0.412,0.207,0.685
					c0.141,0.052,0.271,0.116,0.412,0.171c0.111-0.83,0.531-1.595,0.545-2.428C104.527,63.937,104.377,63.33,104.312,62.744z"/>
				
					<linearGradient id="SVGID_39_" gradientUnits="userSpaceOnUse" x1="-146.8081" y1="-639.2773" x2="-146.8081" y2="-638.6963" gradientTransform="matrix(1 0 0 -1 246.7271 -588.7695)">
					<stop  offset="0" style="stop-color:#32AECE"/>
					<stop  offset="1" style="stop-color:#094E86"/>
				</linearGradient>
				<path fill="url(#SVGID_39_)" d="M100.143,50.508c-0.189-0.152-0.172-0.516-0.447-0.581
					C99.799,50.143,99.93,50.516,100.143,50.508z"/>
				
					<linearGradient id="SVGID_40_" gradientUnits="userSpaceOnUse" x1="-150.8237" y1="-638.7324" x2="-150.8237" y2="-636.1328" gradientTransform="matrix(1 0 0 -1 246.7271 -588.7695)">
					<stop  offset="0" style="stop-color:#32AECE"/>
					<stop  offset="1" style="stop-color:#094E86"/>
				</linearGradient>
				<path fill="url(#SVGID_40_)" d="M97.373,49.894c-0.068-0.524-0.258-1.22-0.547-1.64c-0.227-0.081-0.439-0.178-0.785-0.14
					c-0.488-0.251-0.957-0.524-1.471-0.751c-0.021,0.079-0.115,0.092-0.137,0.172c0.205,0.239,0.365,0.522,0.613,0.719
					c0.064-0.088,0.133-0.165,0.275-0.173c0.83,0.447,1.406,1.146,1.947,1.882C97.285,49.92,97.312,49.892,97.373,49.894z"/>
				
					<linearGradient id="SVGID_41_" gradientUnits="userSpaceOnUse" x1="-164.395" y1="-660.812" x2="-164.395" y2="-659.4595" gradientTransform="matrix(1 0 0 -1 246.7271 -588.7695)">
					<stop  offset="0" style="stop-color:#32AECE"/>
					<stop  offset="1" style="stop-color:#094E86"/>
				</linearGradient>
				<path fill="url(#SVGID_41_)" d="M83.869,71.939c0.166-0.143,0.197-0.422,0.48-0.444c-0.229-0.095-0.453-0.388-0.752-0.442
					c-0.23-0.046-0.504,0.045-0.752,0.029c-0.812-0.035-1.67-0.604-2.396-0.306c-0.047,0.113-0.09,0.23-0.135,0.341
					c0.617,0.155,1.236,0.181,1.812,0.411c0.332,0.135,0.705,0.512,1.025,0.515C83.416,72.045,83.605,71.729,83.869,71.939z"/>
				
					<linearGradient id="SVGID_42_" gradientUnits="userSpaceOnUse" x1="-184.0933" y1="-637.1934" x2="-184.0933" y2="-636.9541" gradientTransform="matrix(1 0 0 -1 246.7271 -588.7695)">
					<stop  offset="0" style="stop-color:#32AECE"/>
					<stop  offset="1" style="stop-color:#094E86"/>
				</linearGradient>
				<path fill="url(#SVGID_42_)" d="M62.712,48.185c-0.049,0.091-0.182,0.093-0.172,0.239
					C62.617,48.385,62.779,48.255,62.712,48.185z"/>
				
					<linearGradient id="SVGID_43_" gradientUnits="userSpaceOnUse" x1="-158.8091" y1="-660.9868" x2="-158.8091" y2="-660.4282" gradientTransform="matrix(1 0 0 -1 246.7271 -588.7695)">
					<stop  offset="0" style="stop-color:#32AECE"/>
					<stop  offset="1" style="stop-color:#094E86"/>
				</linearGradient>
				<path fill="url(#SVGID_43_)" d="M87.561,71.771c-0.045,0.387,0.201,0.464,0.484,0.444c0.025-0.195,0.164-0.289,0.236-0.444
					C88.045,71.576,87.824,71.676,87.561,71.771z"/>
				
					<linearGradient id="SVGID_44_" gradientUnits="userSpaceOnUse" x1="-181.0967" y1="-644.2012" x2="-181.0967" y2="-643.4473" gradientTransform="matrix(1 0 0 -1 246.7271 -588.7695)">
					<stop  offset="0" style="stop-color:#32AECE"/>
					<stop  offset="1" style="stop-color:#094E86"/>
				</linearGradient>
				<path fill="url(#SVGID_44_)" d="M65.412,55.432c0.143-0.02,0.201-0.119,0.309-0.171c-0.061-0.239,0.043-0.265,0.137-0.41
					c-0.229,0.124-0.1-0.163-0.275-0.173c-0.01,0.05-0.072,0.039-0.104,0.068C65.59,55.034,65.355,55.102,65.412,55.432z"/>
				
					<linearGradient id="SVGID_45_" gradientUnits="userSpaceOnUse" x1="-180.3569" y1="-632.9863" x2="-180.3569" y2="-632.749" gradientTransform="matrix(1 0 0 -1 246.7271 -588.7695)">
					<stop  offset="0" style="stop-color:#32AECE"/>
					<stop  offset="1" style="stop-color:#094E86"/>
				</linearGradient>
				<path fill="url(#SVGID_45_)" d="M66.541,43.979c-0.135,0.026-0.279,0.038-0.342,0.135c0.049,0.02,0.084,0.055,0.104,0.103
					C66.434,44.192,66.484,44.084,66.541,43.979z"/>
				
					<linearGradient id="SVGID_46_" gradientUnits="userSpaceOnUse" x1="-158.689" y1="-661.2905" x2="-158.689" y2="-661.1206" gradientTransform="matrix(1 0 0 -1 246.7271 -588.7695)">
					<stop  offset="0" style="stop-color:#32AECE"/>
					<stop  offset="1" style="stop-color:#094E86"/>
				</linearGradient>
				<path fill="url(#SVGID_46_)" d="M87.973,72.521c0.029-0.051,0.084-0.072,0.17-0.068c-0.002-0.039,0.008-0.095-0.033-0.102
					C88.098,72.42,87.836,72.414,87.973,72.521z"/>
				
					<linearGradient id="SVGID_47_" gradientUnits="userSpaceOnUse" x1="-163.5562" y1="-661.7036" x2="-163.5562" y2="-661.2041" gradientTransform="matrix(1 0 0 -1 246.7271 -588.7695)">
					<stop  offset="0" style="stop-color:#32AECE"/>
					<stop  offset="1" style="stop-color:#094E86"/>
				</linearGradient>
				<path fill="url(#SVGID_47_)" d="M82.744,72.521v0.343c0.287,0.196,0.779-0.048,0.854-0.376
					C83.287,72.436,83,72.389,82.744,72.521z"/>
				
					<linearGradient id="SVGID_48_" gradientUnits="userSpaceOnUse" x1="-160.8032" y1="-661.1719" x2="-160.8032" y2="-660.2993" gradientTransform="matrix(1 0 0 -1 246.7271 -588.7695)">
					<stop  offset="0" style="stop-color:#32AECE"/>
					<stop  offset="1" style="stop-color:#094E86"/>
				</linearGradient>
				<path fill="url(#SVGID_48_)" d="M84.76,71.939c0.049,0.111,0.127,0.194,0.17,0.311c0.768,0.326,1.414,0.058,2.154-0.138
					c0.025-0.211-0.107-0.256-0.1-0.444C86.332,71.616,85.76,71.571,85,71.53C84.961,71.706,84.809,71.775,84.76,71.939z"/>
				
					<linearGradient id="SVGID_49_" gradientUnits="userSpaceOnUse" x1="-177.1694" y1="-629.3662" x2="-177.1694" y2="-629.2515" gradientTransform="matrix(1 0 0 -1 246.7271 -588.7695)">
					<stop  offset="0" style="stop-color:#32AECE"/>
					<stop  offset="1" style="stop-color:#094E86"/>
				</linearGradient>
				<path fill="url(#SVGID_49_)" d="M69.65,40.494c-0.121-0.021-0.178,0.029-0.205,0.102C69.537,40.611,69.732,40.435,69.65,40.494z
					"/>
				
					<linearGradient id="SVGID_50_" gradientUnits="userSpaceOnUse" x1="-160.1069" y1="-631.0142" x2="-160.1069" y2="-629.8779" gradientTransform="matrix(1 0 0 -1 246.7271 -588.7695)">
					<stop  offset="0" style="stop-color:#32AECE"/>
					<stop  offset="1" style="stop-color:#094E86"/>
				</linearGradient>
				<path fill="url(#SVGID_50_)" d="M86.398,41.313c-0.268-0.037-0.447-0.169-0.717-0.205c0.008,0.139,0.104,0.189,0.1,0.341
					c0.162,0.045,0.336,0.076,0.514,0.102c-0.059,0.113-0.178,0.162-0.238,0.275c0.238,0.484,1.047,0.542,1.502,0.205
					c-0.289-0.256-0.641-0.451-1.125-0.517C86.369,41.467,86.48,41.386,86.398,41.313z"/>
				
					<linearGradient id="SVGID_51_" gradientUnits="userSpaceOnUse" x1="-170.3208" y1="-627.3491" x2="-170.3208" y2="-627.1724" gradientTransform="matrix(1 0 0 -1 246.7271 -588.7695)">
					<stop  offset="0" style="stop-color:#32AECE"/>
					<stop  offset="1" style="stop-color:#094E86"/>
				</linearGradient>
				<path fill="url(#SVGID_51_)" d="M76.727,38.441c-0.135-0.098-0.35,0.018-0.48,0.035c-0.111-0.028-0.26,0.041-0.068,0.033
					C76.33,38.549,76.689,38.676,76.727,38.441z"/>
				
					<linearGradient id="SVGID_52_" gradientUnits="userSpaceOnUse" x1="-170.4844" y1="-636.7822" x2="-170.4844" y2="-636.2183" gradientTransform="matrix(1 0 0 -1 246.7271 -588.7695)">
					<stop  offset="0" style="stop-color:#32AECE"/>
					<stop  offset="1" style="stop-color:#094E86"/>
				</linearGradient>
				<path fill="url(#SVGID_52_)" d="M76.043,48.013c0.215,0,0.375-0.058,0.512-0.136v-0.205c-0.34,0.029-0.254-0.361-0.578-0.171
					C75.879,47.731,75.955,47.815,76.043,48.013z"/>
				
					<linearGradient id="SVGID_53_" gradientUnits="userSpaceOnUse" x1="-170.5991" y1="-639.1548" x2="-170.5991" y2="-637.9434" gradientTransform="matrix(1 0 0 -1 246.7271 -588.7695)">
					<stop  offset="0" style="stop-color:#32AECE"/>
					<stop  offset="1" style="stop-color:#094E86"/>
				</linearGradient>
				<path fill="url(#SVGID_53_)" d="M76.691,50.371c-0.047-0.197,0.08-0.217,0.104-0.341c-0.059-0.192-0.125-0.374-0.172-0.581
					c-0.172-0.077-0.27-0.236-0.479-0.275c-0.285,0.216-0.516,0.487-0.684,0.822C75.67,50.322,76.104,50.426,76.691,50.371z"/>
				
					<linearGradient id="SVGID_54_" gradientUnits="userSpaceOnUse" x1="-172.4946" y1="-637.7061" x2="-172.4946" y2="-636.8237" gradientTransform="matrix(1 0 0 -1 246.7271 -588.7695)">
					<stop  offset="0" style="stop-color:#32AECE"/>
					<stop  offset="1" style="stop-color:#094E86"/>
				</linearGradient>
				<path fill="url(#SVGID_54_)" d="M74.473,48.388c-0.365-0.087-0.797-0.587-1.062-0.17c0.051,0.176,0.146,0.31,0.24,0.445
					c0.299-0.105,0.523,0.181,0.787,0.238c0.201,0.044,0.41-0.099,0.615,0.035c0.018-0.331-0.102-0.46,0-0.719
					C74.771,48.095,74.641,48.301,74.473,48.388z"/>
				
					<linearGradient id="SVGID_55_" gradientUnits="userSpaceOnUse" x1="-176.2739" y1="-629.0225" x2="-176.2739" y2="-628.5107" gradientTransform="matrix(1 0 0 -1 246.7271 -588.7695)">
					<stop  offset="0" style="stop-color:#32AECE"/>
					<stop  offset="1" style="stop-color:#094E86"/>
				</linearGradient>
				<path fill="url(#SVGID_55_)" d="M69.957,40.253c0.314-0.186,0.768-0.234,0.992-0.512C70.504,39.773,70.119,40.051,69.957,40.253
					z"/>
				
					<linearGradient id="SVGID_56_" gradientUnits="userSpaceOnUse" x1="-173.52" y1="-636.8486" x2="-173.52" y2="-636.2314" gradientTransform="matrix(1 0 0 -1 246.7271 -588.7695)">
					<stop  offset="0" style="stop-color:#32AECE"/>
					<stop  offset="1" style="stop-color:#094E86"/>
				</linearGradient>
				<path fill="url(#SVGID_56_)" d="M72.557,47.942c0.109,0.018,0.123,0.131,0.24,0.137c0.197-0.247,0.756-0.132,1.062-0.271
					c-0.139-0.682-0.756-0.165-1.232-0.068C72.662,47.867,72.539,47.836,72.557,47.942z"/>
				
					<linearGradient id="SVGID_57_" gradientUnits="userSpaceOnUse" x1="-170.5171" y1="-637.8428" x2="-170.5171" y2="-637.126" gradientTransform="matrix(1 0 0 -1 246.7271 -588.7695)">
					<stop  offset="0" style="stop-color:#32AECE"/>
					<stop  offset="1" style="stop-color:#094E86"/>
				</linearGradient>
				<path fill="url(#SVGID_57_)" d="M75.736,48.73c0.346,0.018,0.535,0.191,0.75,0.343c-0.008-0.233,0.281-0.283,0.174-0.514
					c-0.236-0.015-0.389-0.114-0.551-0.203C76.012,48.504,75.789,48.537,75.736,48.73z"/>
			</g>
		</g>
		<g opacity="0.6">
			<path fill="#FFFFFF" d="M78.455,62.955c8.152,6.806,19.16,3.068,26.027-0.491C103.479,48.77,92.059,37.98,78.107,37.98
				c-13.995,0-25.44,10.893-26.377,24.659C58.095,59.522,69.691,55.618,78.455,62.955z"/>
		</g>
	</g>
</g>
</svg>
