<?xml version="1.0" encoding="utf-8"?>
<!-- Generator: Adobe Illustrator 13.0.0, SVG Export Plug-In . SVG Version: 6.00 Build 14948)  -->
<!DOCTYPE svg PUBLIC "-//W3C//DTD SVG 1.1//EN" "http://www.w3.org/Graphics/SVG/1.1/DTD/svg11.dtd">
<svg version="1.1" id="Layer_1" xmlns="http://www.w3.org/2000/svg" xmlns:xlink="http://www.w3.org/1999/xlink" x="0px" y="0px"
	 width="128px" height="128px" viewBox="0 0 128 128" enable-background="new 0 0 128 128" xml:space="preserve">
<g>
	<g>
		
			<linearGradient id="SVGID_1_" gradientUnits="userSpaceOnUse" x1="-350.9419" y1="712.7041" x2="-225.209" y2="712.7041" gradientTransform="matrix(0 1 -1 0 781.2617 351.8984)">
			<stop  offset="0" style="stop-color:#ECEEF0"/>
			<stop  offset="0.2485" style="stop-color:#E8E8E9"/>
			<stop  offset="0.5636" style="stop-color:#EEEFF2"/>
			<stop  offset="0.9212" style="stop-color:#D4D5D6"/>
		</linearGradient>
		<path fill="url(#SVGID_1_)" stroke="#B3B3B3" d="M120.959,108.941l-0.058-90.233c0-9.805-7.945-17.751-17.749-17.751H33.905
			c-9.803,0-17.75,7.946-17.75,17.751v90.233c0,9.803,7.947,17.748,17.75,17.748h69.305
			C113.016,126.689,120.959,118.744,120.959,108.941z"/>
		<path fill="#FFFFFF" d="M22.291,14.94c2.942-4.604,8.086-7.665,13.954-7.665h64.622c5.87,0,11.013,3.062,13.954,7.665h1.408
			c-2.447-6.09-8.396-10.394-15.362-10.394H36.245c-6.964,0-12.915,4.304-15.363,10.394H22.291z"/>
		<path fill="#B3B3B3" d="M103.002,122.293H34.285c-9.555,0-17.311-7.61-17.586-17.098c-0.008-0.045-0.021-0.089-0.029-0.135
			l0.003,4.367c0,9.73,7.884,17.615,17.612,17.615h68.717c9.727,0,17.613-7.885,17.613-17.615v-4.348
			c-0.007,0.041-0.02,0.08-0.026,0.121C120.311,114.686,112.553,122.293,103.002,122.293z"/>
		<g>
			<linearGradient id="SVGID_2_" gradientUnits="userSpaceOnUse" x1="25.8604" y1="31.5791" x2="17.5624" y2="25.7688">
				<stop  offset="0" style="stop-color:#9A9A9A"/>
				<stop  offset="1" style="stop-color:#DEDEDE"/>
			</linearGradient>
			<path fill="url(#SVGID_2_)" d="M26.775,28.677c0,2.795-2.268,5.061-5.065,5.061c-2.796,0-5.062-2.266-5.062-5.061
				c0-2.801,2.267-5.065,5.062-5.065C24.508,23.611,26.775,25.876,26.775,28.677z"/>
			<linearGradient id="SVGID_3_" gradientUnits="userSpaceOnUse" x1="25.8589" y1="45.6382" x2="17.5618" y2="39.8285">
				<stop  offset="0" style="stop-color:#9A9A9A"/>
				<stop  offset="1" style="stop-color:#DEDEDE"/>
			</linearGradient>
			<path fill="url(#SVGID_3_)" d="M26.775,42.737c0,2.795-2.268,5.06-5.065,5.06c-2.796,0-5.062-2.265-5.062-5.06
				c0-2.802,2.267-5.066,5.062-5.066C24.508,37.671,26.775,39.936,26.775,42.737z"/>
			<linearGradient id="SVGID_4_" gradientUnits="userSpaceOnUse" x1="25.8589" y1="59.6992" x2="17.5626" y2="53.8901">
				<stop  offset="0" style="stop-color:#9A9A9A"/>
				<stop  offset="1" style="stop-color:#DEDEDE"/>
			</linearGradient>
			<path fill="url(#SVGID_4_)" d="M26.775,56.797c0,2.795-2.268,5.061-5.065,5.061c-2.796,0-5.062-2.266-5.062-5.061
				c0-2.801,2.267-5.064,5.062-5.064C24.508,51.732,26.775,53.996,26.775,56.797z"/>
			<linearGradient id="SVGID_5_" gradientUnits="userSpaceOnUse" x1="25.8584" y1="73.7588" x2="17.5613" y2="67.9491">
				<stop  offset="0" style="stop-color:#9A9A9A"/>
				<stop  offset="1" style="stop-color:#DEDEDE"/>
			</linearGradient>
			<path fill="url(#SVGID_5_)" d="M26.775,70.855c0,2.797-2.268,5.061-5.065,5.061c-2.796,0-5.062-2.264-5.062-5.061
				c0-2.799,2.267-5.062,5.062-5.062C24.508,65.793,26.775,68.057,26.775,70.855z"/>
			<linearGradient id="SVGID_6_" gradientUnits="userSpaceOnUse" x1="25.8589" y1="87.8184" x2="17.5626" y2="82.0092">
				<stop  offset="0" style="stop-color:#9A9A9A"/>
				<stop  offset="1" style="stop-color:#DEDEDE"/>
			</linearGradient>
			<path fill="url(#SVGID_6_)" d="M26.775,84.916c0,2.797-2.268,5.06-5.065,5.06c-2.796,0-5.062-2.263-5.062-5.06
				c0-2.8,2.267-5.062,5.062-5.062C24.508,79.854,26.775,82.116,26.775,84.916z"/>
			<linearGradient id="SVGID_7_" gradientUnits="userSpaceOnUse" x1="25.8589" y1="101.8789" x2="17.5618" y2="96.0692">
				<stop  offset="0" style="stop-color:#9A9A9A"/>
				<stop  offset="1" style="stop-color:#DEDEDE"/>
			</linearGradient>
			<path fill="url(#SVGID_7_)" d="M26.775,98.974c0,2.8-2.268,5.063-5.065,5.063c-2.796,0-5.062-2.264-5.062-5.063
				c0-2.796,2.267-5.062,5.062-5.062C24.508,93.912,26.775,96.178,26.775,98.974z"/>
		</g>
		<linearGradient id="SVGID_8_" gradientUnits="userSpaceOnUse" x1="10.6216" y1="34.2085" x2="21.6911" y2="23.139">
			<stop  offset="0" style="stop-color:#E20A16"/>
			<stop  offset="1" style="stop-color:#B51015"/>
		</linearGradient>
		<path fill="url(#SVGID_8_)" d="M25.77,28.673c0,1.94-1.573,3.516-3.514,3.516H10.057c-1.94,0-3.516-1.575-3.516-3.516l0,0
			c0-1.942,1.575-3.512,3.516-3.512h12.199C24.196,25.161,25.77,26.73,25.77,28.673L25.77,28.673z"/>
		<linearGradient id="SVGID_9_" gradientUnits="userSpaceOnUse" x1="10.6211" y1="48.2686" x2="21.6906" y2="37.1991">
			<stop  offset="0" style="stop-color:#E20A16"/>
			<stop  offset="1" style="stop-color:#B51015"/>
		</linearGradient>
		<path fill="url(#SVGID_9_)" d="M25.77,42.732c0,1.94-1.573,3.517-3.514,3.517H10.057c-1.94,0-3.516-1.576-3.516-3.517l0,0
			c0-1.942,1.575-3.511,3.516-3.511h12.199C24.196,39.222,25.77,40.79,25.77,42.732L25.77,42.732z"/>
		<linearGradient id="SVGID_10_" gradientUnits="userSpaceOnUse" x1="10.6211" y1="62.3301" x2="21.691" y2="51.2601">
			<stop  offset="0" style="stop-color:#E20A16"/>
			<stop  offset="1" style="stop-color:#B51015"/>
		</linearGradient>
		<path fill="url(#SVGID_10_)" d="M25.77,56.795c0,1.939-1.573,3.516-3.514,3.516H10.057c-1.94,0-3.516-1.576-3.516-3.516l0,0
			c0-1.944,1.575-3.514,3.516-3.514h12.199C24.196,53.281,25.77,54.851,25.77,56.795L25.77,56.795z"/>
		<linearGradient id="SVGID_11_" gradientUnits="userSpaceOnUse" x1="10.6211" y1="76.3896" x2="21.6906" y2="65.3202">
			<stop  offset="0" style="stop-color:#E20A16"/>
			<stop  offset="1" style="stop-color:#B51015"/>
		</linearGradient>
		<path fill="url(#SVGID_11_)" d="M25.77,70.855c0,1.939-1.573,3.514-3.514,3.514H10.057c-1.94,0-3.516-1.574-3.516-3.514l0,0
			c0-1.943,1.575-3.514,3.516-3.514h12.199C24.196,67.342,25.77,68.912,25.77,70.855L25.77,70.855z"/>
		<linearGradient id="SVGID_12_" gradientUnits="userSpaceOnUse" x1="10.6216" y1="90.4492" x2="21.6912" y2="79.3796">
			<stop  offset="0" style="stop-color:#E20A16"/>
			<stop  offset="1" style="stop-color:#B51015"/>
		</linearGradient>
		<path fill="url(#SVGID_12_)" d="M25.77,84.912c0,1.943-1.573,3.516-3.514,3.516H10.057c-1.94,0-3.516-1.572-3.516-3.516l0,0
			c0-1.939,1.575-3.513,3.516-3.513h12.199C24.196,81.399,25.77,82.973,25.77,84.912L25.77,84.912z"/>
		<linearGradient id="SVGID_13_" gradientUnits="userSpaceOnUse" x1="10.6206" y1="104.5088" x2="21.691" y2="93.4384">
			<stop  offset="0" style="stop-color:#E20A16"/>
			<stop  offset="1" style="stop-color:#B51015"/>
		</linearGradient>
		<path fill="url(#SVGID_13_)" d="M25.77,98.973c0,1.943-1.573,3.516-3.514,3.516H10.057c-1.94,0-3.516-1.572-3.516-3.516l0,0
			c0-1.941,1.575-3.514,3.516-3.514h12.199C24.196,95.459,25.77,97.031,25.77,98.973L25.77,98.973z"/>
	</g>
	<g>
		<g>
			
				<linearGradient id="SVGID_14_" gradientUnits="userSpaceOnUse" x1="-346.8628" y1="864.5664" x2="-346.8628" y2="887.4043" gradientTransform="matrix(1 0 0 1 412.6201 -813.9912)">
				<stop  offset="0" style="stop-color:#E20A16"/>
				<stop  offset="1" style="stop-color:#B51015"/>
			</linearGradient>
			<path fill="url(#SVGID_14_)" d="M66.411,50.575v4.336h4.711v2.506h-4.711v9.754c0,2.242,0.637,3.514,2.467,3.514
				c0.898,0,1.42-0.072,1.906-0.225l0.15,2.467c-0.637,0.264-1.646,0.486-2.916,0.486c-1.533,0-2.766-0.523-3.551-1.42
				c-0.935-0.975-1.271-2.578-1.271-4.709v-9.867h-2.804v-2.506h2.805v-3.324L66.411,50.575z"/>
			
				<linearGradient id="SVGID_15_" gradientUnits="userSpaceOnUse" x1="-333.4087" y1="868.4922" x2="-333.4087" y2="886.9941" gradientTransform="matrix(1 0 0 1 412.6201 -813.9912)">
				<stop  offset="0" style="stop-color:#E20A16"/>
				<stop  offset="1" style="stop-color:#B51015"/>
			</linearGradient>
			<path fill="url(#SVGID_15_)" d="M74.819,60.556c0-2.129-0.037-3.961-0.148-5.645h2.877l0.113,3.551h0.148
				c0.822-2.43,2.805-3.961,5.01-3.961c0.373,0,0.635,0.037,0.934,0.111v3.104c-0.336-0.074-0.672-0.111-1.121-0.111
				c-2.316,0-3.963,1.756-4.41,4.223c-0.074,0.447-0.148,0.973-0.148,1.531v9.645h-3.252L74.819,60.556L74.819,60.556z"/>
		</g>
		<g>
			
				<linearGradient id="SVGID_16_" gradientUnits="userSpaceOnUse" x1="-360.7456" y1="896.9863" x2="-360.7456" y2="915.9004" gradientTransform="matrix(1 0 0 1 412.6201 -813.9912)">
				<stop  offset="0" style="stop-color:#E20A16"/>
				<stop  offset="1" style="stop-color:#B51015"/>
			</linearGradient>
			<path fill="url(#SVGID_16_)" d="M47.034,93.052c0.074,4.447,2.914,6.279,6.203,6.279c2.355,0,3.775-0.412,5.01-0.936l0.559,2.354
				c-1.157,0.523-3.139,1.16-6.016,1.16c-5.57,0-8.896-3.701-8.896-9.158s3.216-9.756,8.484-9.756c5.906,0,7.478,5.195,7.478,8.521
				c0,0.674-0.076,1.195-0.113,1.533L47.034,93.052L47.034,93.052z M56.677,90.698c0.037-2.094-0.858-5.346-4.561-5.346
				c-3.326,0-4.783,3.064-5.045,5.346H56.677z"/>
			
				<linearGradient id="SVGID_17_" gradientUnits="userSpaceOnUse" x1="-341.0688" y1="896.9883" x2="-341.0688" y2="915.4902" gradientTransform="matrix(1 0 0 1 412.6201 -813.9912)">
				<stop  offset="0" style="stop-color:#E20A16"/>
				<stop  offset="1" style="stop-color:#B51015"/>
			</linearGradient>
			<path fill="url(#SVGID_17_)" d="M63.925,88.306c0-1.869-0.037-3.402-0.147-4.896h2.916l0.187,2.99h0.073
				c0.897-1.719,2.992-3.402,5.979-3.402c2.507,0,6.394,1.496,6.394,7.699v10.803h-3.289V91.071c0-2.916-1.084-5.346-4.187-5.346
				c-2.17,0-3.853,1.533-4.411,3.365c-0.148,0.41-0.226,0.971-0.226,1.531v10.877h-3.289V88.306L63.925,88.306z"/>
			
				<linearGradient id="SVGID_18_" gradientUnits="userSpaceOnUse" x1="-320.8149" y1="896.9902" x2="-320.8149" y2="923.3027" gradientTransform="matrix(1 0 0 1 412.6201 -813.9912)">
				<stop  offset="0" style="stop-color:#E20A16"/>
				<stop  offset="1" style="stop-color:#B51015"/>
			</linearGradient>
			<path fill="url(#SVGID_18_)" d="M100.104,98.882c0,4.148-0.824,6.691-2.58,8.262c-1.756,1.645-4.299,2.168-6.578,2.168
				c-2.168,0-4.559-0.523-6.018-1.494l0.82-2.506c1.197,0.748,3.064,1.422,5.311,1.422c3.363,0,5.83-1.758,5.83-6.316v-2.018h-0.074
				c-1.01,1.682-2.953,3.025-5.756,3.025c-4.486,0-7.701-3.812-7.701-8.822c0-6.129,4-9.604,8.148-9.604
				c3.141,0,4.857,1.645,5.645,3.141h0.074l0.148-2.729h2.879c-0.074,1.311-0.148,2.768-0.148,4.971V98.882z M96.853,90.548
				c0-0.561-0.037-1.047-0.188-1.496c-0.598-1.904-2.205-3.477-4.598-3.475c-3.14,0-5.382,2.654-5.382,6.84
				c0,3.551,1.793,6.502,5.345,6.502c2.021,0,3.851-1.27,4.562-3.363c0.187-0.561,0.262-1.193,0.262-1.756V90.548L96.853,90.548z"/>
		</g>
	</g>
</g>
</svg>
