<?xml version="1.0" encoding="utf-8"?>
<!-- Generator: Adobe Illustrator 13.0.0, SVG Export Plug-In . SVG Version: 6.00 Build 14948)  -->
<!DOCTYPE svg PUBLIC "-//W3C//DTD SVG 1.1//EN" "http://www.w3.org/Graphics/SVG/1.1/DTD/svg11.dtd">
<svg version="1.1" id="Layer_1" xmlns="http://www.w3.org/2000/svg" xmlns:xlink="http://www.w3.org/1999/xlink" x="0px" y="0px"
	 width="128px" height="128px" viewBox="0 0 128 128" enable-background="new 0 0 128 128" xml:space="preserve">
<g>
	<g>
		<g>
			<g>
				<radialGradient id="SVGID_1_" cx="64.0107" cy="75.6289" r="56.728" gradientUnits="userSpaceOnUse">
					<stop  offset="0" style="stop-color:#FAFAFA"/>
					<stop  offset="0.3109" style="stop-color:#F4F4F4"/>
					<stop  offset="0.7262" style="stop-color:#E3E3E3"/>
					<stop  offset="1" style="stop-color:#D4D4D4"/>
				</radialGradient>
				<path fill="url(#SVGID_1_)" stroke="#000000" stroke-miterlimit="3.8637" d="M97.336,31.233
					c-0.278-2.314-67.824-11.773-67.812-0.717c-0.015,0.445-0.002,0.889-0.006,1.334C12.675,41.045,1.567,56.78,1.567,74.649
					c0,28.355,27.959,51.348,62.443,51.348c34.487,0,62.443-22.99,62.443-51.348C126.454,56.37,114.829,40.333,97.336,31.233z"/>
			</g>
		</g>
		<g>
			<g>
				<g>
					<g>
						<defs>
							<ellipse id="SVGID_2_" cx="64.044" cy="74.632" rx="61.912" ry="50.91"/>
						</defs>
						<clipPath id="SVGID_3_">
							<use xlink:href="#SVGID_2_"  overflow="visible"/>
						</clipPath>
						<g clip-path="url(#SVGID_3_)">
							<g>
								<linearGradient id="SVGID_4_" gradientUnits="userSpaceOnUse" x1="63.5493" y1="52.9771" x2="63.5493" y2="125.5366">
									<stop  offset="0" style="stop-color:#5F5D5C"/>
									<stop  offset="1" style="stop-color:#181500"/>
								</linearGradient>
								<path fill="url(#SVGID_4_)" d="M34.768,125.536h7.097V84.993c-2.442-0.771-4.814-1.658-7.097-2.666V125.536z M1.122,52.979
									v72.557H8.22V59.5c-1.228-2.096-2.275-4.275-3.149-6.523L1.122,52.979L1.122,52.979z M51.591,125.536h7.097V88.171
									c-2.405-0.17-4.776-0.438-7.097-0.83V125.536z M17.944,125.536h7.1V76.993c-2.541-1.697-4.916-3.555-7.1-5.557V125.536z
									 M85.234,125.536h7.096V82.743c-2.29,0.971-4.652,1.836-7.096,2.566V125.536z M123.016,52.983
									c-1.094,2.82-2.488,5.529-4.138,8.113v64.44h7.099V52.983H123.016z M102.056,125.536h7.098V72.313
									c-2.195,1.92-4.566,3.695-7.098,5.318V125.536z M68.411,125.536h7.097V87.487c-2.325,0.355-4.69,0.605-7.097,0.746V125.536z
									"/>
							</g>
						</g>
					</g>
				</g>
			</g>
		</g>
		<path fill="none" stroke="#000000" stroke-miterlimit="3.8637" d="M6.392,56.038c0,0,13.878,32.196,57.504,32.196
			s57.797-32.202,57.797-32.202"/>
		<g>
			<g>
				<linearGradient id="SVGID_5_" gradientUnits="userSpaceOnUse" x1="61.1826" y1="40.9805" x2="105.0684" y2="40.9805">
					<stop  offset="0" style="stop-color:#5F5D5C"/>
					<stop  offset="1" style="stop-color:#181500"/>
				</linearGradient>
				<path fill="url(#SVGID_5_)" d="M100.094,61.838c-4.394,2.199-8.967,2.537-13.742,2.305c-2.353-0.189-4.685-0.648-6.943-1.355
					c-6.768-2.137-12.818-6.533-16.367-12.795c-1.529-2.623-2.033-5.58-1.807-8.537c1.293-11.938,11.278-22.258,23.461-23.609
					c8.295-0.844,17.266,4.23,18.762,12.9C104.275,33.575,108.051,57.948,100.094,61.838z"/>
				<linearGradient id="SVGID_6_" gradientUnits="userSpaceOnUse" x1="19.3574" y1="34.0757" x2="76.2305" y2="34.0757">
					<stop  offset="0" style="stop-color:#5F5D5C"/>
					<stop  offset="1" style="stop-color:#181500"/>
				</linearGradient>
				<path fill="url(#SVGID_6_)" d="M76.178,37.102c0.111,4.652-1.565,9.172-3.953,13.197c-1.239,1.922-2.73,3.676-4.439,5.229
					c-1.714,1.543-3.636,2.881-5.732,3.971c-9.034,4.684-19.409,6.694-29.287,3.684c-3.093-0.924-5.813-2.559-7.945-4.729
					c-2.131-2.166-3.675-4.871-4.441-7.967c-0.363-2.295-0.651-4.689-0.826-7.139c-0.179-2.449-0.241-4.945-0.16-7.441
					C19.379,21.838,26.579,2.421,43.148,3.595c2.429,0.138,4.814,0.578,7.133,1.271c2.322,0.691,4.565,1.643,6.717,2.809
					c8.579,4.791,15.775,12.324,18.598,21.902C76.135,31.999,76.336,34.522,76.178,37.102z"/>
			</g>
			<g>
				
					<linearGradient id="SVGID_7_" gradientUnits="userSpaceOnUse" x1="-1366.4292" y1="205.5244" x2="-1368.2651" y2="204.239" gradientTransform="matrix(19.8314 3.000000e-04 0 19.8298 27202.6074 -4020.8477)">
					<stop  offset="0" style="stop-color:#DEDEDE"/>
					<stop  offset="1" style="stop-color:#FEFEFE"/>
				</linearGradient>
				<path fill="url(#SVGID_7_)" d="M99.151,60.665c-4.123,2.064-8.413,2.381-12.894,2.16c-2.208-0.176-4.396-0.605-6.516-1.27
					c-6.35-2.004-12.027-6.131-15.357-12.006c-1.435-2.461-1.906-5.234-1.694-8.008c1.214-11.201,10.583-20.885,22.013-22.154
					c7.783-0.789,16.199,3.971,17.602,12.105C103.073,34.147,106.616,57.014,99.151,60.665z"/>
				
					<linearGradient id="SVGID_8_" gradientUnits="userSpaceOnUse" x1="-1255.145" y1="89.8984" x2="-1256.9137" y2="88.6599" gradientTransform="matrix(8.5332 0 0 8.5323 10804.8486 -721.7168)">
					<stop  offset="0" style="stop-color:#181500"/>
					<stop  offset="1" style="stop-color:#5F5D5C"/>
				</linearGradient>
				<path fill="url(#SVGID_8_)" d="M95.815,39.309c0.247,5.539-3.382,10.172-8.837,10.34c-5.467,0.184-10.015-3.795-9.856-8.939
					c0.181-5.188,4.655-9.908,9.744-10.475C91.891,29.713,95.615,33.782,95.815,39.309z"/>
				
					<linearGradient id="SVGID_9_" gradientUnits="userSpaceOnUse" x1="-1354.7075" y1="204.0264" x2="-1356.481" y2="202.7845" gradientTransform="matrix(26.0873 4.000000e-04 0 26.0856 35409.8828 -5268.8984)">
					<stop  offset="0" style="stop-color:#DEDEDE"/>
					<stop  offset="1" style="stop-color:#FEFEFE"/>
				</linearGradient>
				<path fill="url(#SVGID_9_)" d="M75.073,37.202c0.105,4.412-1.485,8.697-3.75,12.518c-1.175,1.822-2.591,3.488-4.212,4.961
					c-1.624,1.463-3.448,2.73-5.436,3.766c-8.57,4.443-18.414,6.35-27.784,3.492c-2.934-0.875-5.515-2.424-7.536-4.482
					c-2.021-2.057-3.485-4.623-4.213-7.559c-0.346-2.176-0.618-4.449-0.784-6.771c-0.169-2.322-0.229-4.691-0.151-7.059
					C21.191,22.719,28.021,4.302,43.74,5.415c2.304,0.132,4.568,0.55,6.768,1.207c2.2,0.656,4.328,1.558,6.37,2.666
					c8.137,4.541,14.964,11.688,17.643,20.775C75.033,32.358,75.225,34.752,75.073,37.202z"/>
				
					<linearGradient id="SVGID_10_" gradientUnits="userSpaceOnUse" x1="-1465.1958" y1="215.3604" x2="-1467.0909" y2="214.0334" gradientTransform="matrix(7.0558 1.000000e-04 0 7.0552 10392.8145 -1477.6125)">
					<stop  offset="0" style="stop-color:#181500"/>
					<stop  offset="1" style="stop-color:#5F5D5C"/>
				</linearGradient>
				<path fill="url(#SVGID_10_)" d="M55.763,37.473c0.203,2.865-1.381,5.248-3.769,6.52c-2.695,1.271-6.188,1.271-8.569-0.953
					c-1.591-1.666-2.623-3.967-2.817-6.305c-0.201-2.334,0.434-4.707,2.213-6.447c2.925-3.004,7.727-1.828,10.338,1.312
					C54.699,33.221,55.692,35.315,55.763,37.473z"/>
				
					<linearGradient id="SVGID_11_" gradientUnits="userSpaceOnUse" x1="-1440.4106" y1="-251.6787" x2="-1442.1793" y2="-252.9172" gradientTransform="matrix(3.3922 1.000000e-04 0 3.3913 4975.1592 893.8416)">
					<stop  offset="0" style="stop-color:#DEDEDE"/>
					<stop  offset="1" style="stop-color:#FEFEFE"/>
				</linearGradient>
				<path fill="url(#SVGID_11_)" d="M89.56,37.797c0.099,2.201-1.345,4.037-3.516,4.111c-2.17,0.07-3.974-1.51-3.919-3.559
					c0.077-2.059,1.854-3.932,3.875-4.158C87.998,33.985,89.479,35.598,89.56,37.797z"/>
				
					<linearGradient id="SVGID_12_" gradientUnits="userSpaceOnUse" x1="-1907.1318" y1="105.3574" x2="-1909.0277" y2="104.0299" gradientTransform="matrix(2.8049 1.000000e-04 0 2.8042 5398.0659 -259.2128)">
					<stop  offset="0" style="stop-color:#DEDEDE"/>
					<stop  offset="1" style="stop-color:#FEFEFE"/>
				</linearGradient>
				<path fill="url(#SVGID_12_)" d="M49.204,34.397c0.079,1.141-0.549,2.086-1.501,2.59c-1.068,0.506-2.459,0.506-3.406-0.379
					c-0.631-0.66-1.039-1.576-1.12-2.506c-0.077-0.926,0.177-1.871,0.882-2.564c1.16-1.191,3.074-0.729,4.11,0.525
					C48.784,32.704,49.175,33.534,49.204,34.397z"/>
			</g>
			<g>
				<g>
					
						<linearGradient id="SVGID_13_" gradientUnits="userSpaceOnUse" x1="-324.2202" y1="-425.9175" x2="-324.2202" y2="-472.6636" gradientTransform="matrix(1 0 0 -1 370.0342 -413.7783)">
						<stop  offset="0" style="stop-color:#E20A16"/>
						<stop  offset="1" style="stop-color:#B51015"/>
					</linearGradient>
					<path fill="url(#SVGID_13_)" d="M60.354,43.432c1.049-2.051,1.653-4.367,1.653-6.83c0-8.289-6.723-15.012-15.015-15.012
						c-3.038,0-5.86,0.908-8.224,2.459l-13.261-11.91c0,0-1.436,1.865-2.528,4.387c-0.704,1.629-1.232,3.977-1.232,3.977
						l11.407,10.262c-0.76,1.795-1.179,3.768-1.179,5.838c0,8.297,6.725,15.018,15.017,15.018c2.635,0,5.108-0.684,7.262-1.875
						l10.162,9.141c0,0,2.345-0.77,3.865-2.627c1.302-1.76,1.599-4.348,1.599-4.348L60.354,43.432z"/>
				</g>
			</g>
		</g>
	</g>
	<g>
		<g>
			
				<linearGradient id="SVGID_14_" gradientUnits="userSpaceOnUse" x1="-367.9858" y1="882.9824" x2="-367.9858" y2="932.2461" gradientTransform="matrix(1 0 0 1 412.6201 -813.9912)">
				<stop  offset="0" style="stop-color:#E20A16"/>
				<stop  offset="1" style="stop-color:#B51015"/>
			</linearGradient>
			<path fill="url(#SVGID_14_)" d="M44.635,68.991c-13.604,0-24.632,11.029-24.632,24.633s11.028,24.631,24.632,24.631
				s24.631-11.027,24.631-24.631S58.238,68.991,44.635,68.991z M44.635,78.312c2.555,0,4.961,0.635,7.078,1.744L31.067,100.7
				c-1.107-2.117-1.742-4.521-1.742-7.076C29.325,85.167,36.18,78.312,44.635,78.312z M44.635,108.933
				c-2.556,0-4.96-0.633-7.078-1.74l20.646-20.646c1.106,2.119,1.74,4.523,1.74,7.078C59.945,102.077,53.09,108.933,44.635,108.933z
				"/>
		</g>
	</g>
	<path opacity="0.5" fill="#FFFFFF" d="M23.722,85.239c4.66-7.082,12.791-12.885,20.799-12.885s15.922,5.803,20.58,12.885h0.886
		c-4.938-8.334-12.519-14.166-21.575-14.166c-9.059,0-16.639,5.832-21.577,14.166H23.722z"/>
</g>
</svg>
