<?xml version="1.0" encoding="utf-8"?>
<!-- Generator: Adobe Illustrator 13.0.0, SVG Export Plug-In . SVG Version: 6.00 Build 14948)  -->
<!DOCTYPE svg PUBLIC "-//W3C//DTD SVG 1.1//EN" "http://www.w3.org/Graphics/SVG/1.1/DTD/svg11.dtd">
<svg version="1.1" id="Layer_1" xmlns="http://www.w3.org/2000/svg" xmlns:xlink="http://www.w3.org/1999/xlink" x="0px" y="0px"
	 width="128px" height="128px" viewBox="0 0 128 128" enable-background="new 0 0 128 128" xml:space="preserve">
<g>
	<g>
		
			<linearGradient id="SVGID_1_" gradientUnits="userSpaceOnUse" x1="-532.8052" y1="-0.4053" x2="-425.0933" y2="-0.4053" gradientTransform="matrix(0 1 1 0 54.6475 550.8433)">
			<stop  offset="0" style="stop-color:#ECEEF0"/>
			<stop  offset="0.2485" style="stop-color:#E8E8E9"/>
			<stop  offset="0.5636" style="stop-color:#EEEFF2"/>
			<stop  offset="0.9212" style="stop-color:#D4D5D6"/>
		</linearGradient>
		<path fill="url(#SVGID_1_)" stroke="#B3B3B3" d="M99.133,110.546l-0.05-77.303c0-8.398-6.808-15.205-15.205-15.205H24.556
			c-8.398,0-15.205,6.807-15.205,15.205v77.303c0,8.396,6.807,15.204,15.205,15.204h59.372
			C92.328,125.75,99.133,118.941,99.133,110.546z"/>
		<path fill="#FFFFFF" d="M14.605,30.017c2.521-3.943,6.928-6.566,11.954-6.566H81.92c5.028,0,9.434,2.623,11.953,6.566h1.206
			c-2.097-5.217-7.192-8.904-13.159-8.904H26.56c-5.966,0-11.063,3.688-13.161,8.904H14.605L14.605,30.017z"/>
		<path fill="#B3B3B3" d="M83.749,121.982H24.88c-8.184,0-14.828-6.52-15.064-14.646c-0.006-0.039-0.018-0.077-0.025-0.116
			l0.004,3.742c0,8.335,6.752,15.09,15.086,15.09H83.75c8.332,0,15.089-6.755,15.089-15.09v-3.725
			c-0.006,0.033-0.017,0.066-0.022,0.103C98.577,115.466,91.932,121.982,83.749,121.982z"/>
		<g>
			
				<linearGradient id="SVGID_2_" gradientUnits="userSpaceOnUse" x1="-271.6123" y1="107.5625" x2="-278.721" y2="112.5401" gradientTransform="matrix(1 0 0 -1 289.2754 151.834)">
				<stop  offset="0" style="stop-color:#9A9A9A"/>
				<stop  offset="1" style="stop-color:#DEDEDE"/>
			</linearGradient>
			<path fill="url(#SVGID_2_)" d="M18.448,41.784c0,2.395-1.943,4.336-4.341,4.336c-2.394,0-4.337-1.941-4.337-4.336
				c0-2.399,1.943-4.34,4.337-4.34C16.505,37.444,18.448,39.385,18.448,41.784z"/>
			
				<linearGradient id="SVGID_3_" gradientUnits="userSpaceOnUse" x1="-271.6123" y1="95.5166" x2="-278.7214" y2="100.4944" gradientTransform="matrix(1 0 0 -1 289.2754 151.834)">
				<stop  offset="0" style="stop-color:#9A9A9A"/>
				<stop  offset="1" style="stop-color:#DEDEDE"/>
			</linearGradient>
			<path fill="url(#SVGID_3_)" d="M18.448,53.829c0,2.395-1.943,4.336-4.341,4.336c-2.394,0-4.337-1.941-4.337-4.336
				c0-2.4,1.943-4.339,4.337-4.339C16.505,49.49,18.448,51.429,18.448,53.829z"/>
			
				<linearGradient id="SVGID_4_" gradientUnits="userSpaceOnUse" x1="-271.6123" y1="83.4717" x2="-278.7214" y2="88.4495" gradientTransform="matrix(1 0 0 -1 289.2754 151.834)">
				<stop  offset="0" style="stop-color:#9A9A9A"/>
				<stop  offset="1" style="stop-color:#DEDEDE"/>
			</linearGradient>
			<path fill="url(#SVGID_4_)" d="M18.448,65.874c0,2.396-1.943,4.336-4.341,4.336c-2.394,0-4.337-1.94-4.337-4.336
				c0-2.4,1.943-4.339,4.337-4.339C16.505,61.535,18.448,63.474,18.448,65.874z"/>
			
				<linearGradient id="SVGID_5_" gradientUnits="userSpaceOnUse" x1="-271.6128" y1="71.4277" x2="-278.7213" y2="76.4052" gradientTransform="matrix(1 0 0 -1 289.2754 151.834)">
				<stop  offset="0" style="stop-color:#9A9A9A"/>
				<stop  offset="1" style="stop-color:#DEDEDE"/>
			</linearGradient>
			<path fill="url(#SVGID_5_)" d="M18.448,77.917c0,2.396-1.943,4.336-4.341,4.336c-2.394,0-4.337-1.938-4.337-4.336
				s1.943-4.336,4.337-4.336C16.505,73.581,18.448,75.52,18.448,77.917z"/>
			
				<linearGradient id="SVGID_6_" gradientUnits="userSpaceOnUse" x1="-271.6113" y1="59.3828" x2="-278.7201" y2="64.3604" gradientTransform="matrix(1 0 0 -1 289.2754 151.834)">
				<stop  offset="0" style="stop-color:#9A9A9A"/>
				<stop  offset="1" style="stop-color:#DEDEDE"/>
			</linearGradient>
			<path fill="url(#SVGID_6_)" d="M18.448,89.963c0,2.396-1.943,4.335-4.341,4.335c-2.394,0-4.337-1.938-4.337-4.335
				s1.943-4.337,4.337-4.337C16.505,85.626,18.448,87.564,18.448,89.963z"/>
			
				<linearGradient id="SVGID_7_" gradientUnits="userSpaceOnUse" x1="-271.6123" y1="47.3379" x2="-278.7212" y2="52.3156" gradientTransform="matrix(1 0 0 -1 289.2754 151.834)">
				<stop  offset="0" style="stop-color:#9A9A9A"/>
				<stop  offset="1" style="stop-color:#DEDEDE"/>
			</linearGradient>
			<path fill="url(#SVGID_7_)" d="M18.448,102.006c0,2.398-1.943,4.338-4.341,4.338c-2.394,0-4.337-1.939-4.337-4.338
				c0-2.396,1.943-4.335,4.337-4.335C16.505,97.671,18.448,99.609,18.448,102.006z"/>
		</g>
		
			<linearGradient id="SVGID_8_" gradientUnits="userSpaceOnUse" x1="-284.667" y1="105.3115" x2="-275.1839" y2="114.7946" gradientTransform="matrix(1 0 0 -1 289.2754 151.834)">
			<stop  offset="0" style="stop-color:#99DBF6"/>
			<stop  offset="1" style="stop-color:#00B2DE"/>
		</linearGradient>
		<path fill="url(#SVGID_8_)" d="M17.586,41.781c0,1.662-1.348,3.012-3.01,3.012H4.125c-1.662,0-3.012-1.35-3.012-3.012l0,0
			c0-1.664,1.35-3.008,3.012-3.008h10.451C16.238,38.773,17.586,40.117,17.586,41.781L17.586,41.781z"/>
		
			<linearGradient id="SVGID_9_" gradientUnits="userSpaceOnUse" x1="-284.667" y1="93.2666" x2="-275.1839" y2="102.7498" gradientTransform="matrix(1 0 0 -1 289.2754 151.834)">
			<stop  offset="0" style="stop-color:#99DBF6"/>
			<stop  offset="1" style="stop-color:#00B2DE"/>
		</linearGradient>
		<path fill="url(#SVGID_9_)" d="M17.586,53.825c0,1.663-1.348,3.013-3.01,3.013H4.125c-1.662,0-3.012-1.35-3.012-3.013l0,0
			c0-1.664,1.35-3.007,3.012-3.007h10.451C16.238,50.818,17.586,52.161,17.586,53.825L17.586,53.825z"/>
		
			<linearGradient id="SVGID_10_" gradientUnits="userSpaceOnUse" x1="-284.6665" y1="81.2207" x2="-275.1834" y2="90.7039" gradientTransform="matrix(1 0 0 -1 289.2754 151.834)">
			<stop  offset="0" style="stop-color:#99DBF6"/>
			<stop  offset="1" style="stop-color:#00B2DE"/>
		</linearGradient>
		<path fill="url(#SVGID_10_)" d="M17.586,65.872c0,1.662-1.348,3.013-3.01,3.013H4.125c-1.662,0-3.012-1.351-3.012-3.013l0,0
			c0-1.664,1.35-3.01,3.012-3.01h10.451C16.238,62.862,17.586,64.208,17.586,65.872L17.586,65.872z"/>
		
			<linearGradient id="SVGID_11_" gradientUnits="userSpaceOnUse" x1="-284.667" y1="69.1768" x2="-275.1839" y2="78.6599" gradientTransform="matrix(1 0 0 -1 289.2754 151.834)">
			<stop  offset="0" style="stop-color:#99DBF6"/>
			<stop  offset="1" style="stop-color:#00B2DE"/>
		</linearGradient>
		<path fill="url(#SVGID_11_)" d="M17.586,77.917c0,1.662-1.348,3.013-3.01,3.013H4.125c-1.662,0-3.012-1.351-3.012-3.013l0,0
			c0-1.664,1.35-3.011,3.012-3.011h10.451C16.238,74.906,17.586,76.253,17.586,77.917L17.586,77.917z"/>
		
			<linearGradient id="SVGID_12_" gradientUnits="userSpaceOnUse" x1="-284.668" y1="57.1309" x2="-275.1842" y2="66.6147" gradientTransform="matrix(1 0 0 -1 289.2754 151.834)">
			<stop  offset="0" style="stop-color:#99DBF6"/>
			<stop  offset="1" style="stop-color:#00B2DE"/>
		</linearGradient>
		<path fill="url(#SVGID_12_)" d="M17.586,89.96c0,1.665-1.348,3.013-3.01,3.013H4.125c-1.662,0-3.012-1.348-3.012-3.013l0,0
			c0-1.662,1.35-3.01,3.012-3.01h10.451C16.238,86.95,17.586,88.298,17.586,89.96L17.586,89.96z"/>
		
			<linearGradient id="SVGID_13_" gradientUnits="userSpaceOnUse" x1="-284.668" y1="45.0864" x2="-275.1849" y2="54.5695" gradientTransform="matrix(1 0 0 -1 289.2754 151.834)">
			<stop  offset="0" style="stop-color:#99DBF6"/>
			<stop  offset="1" style="stop-color:#00B2DE"/>
		</linearGradient>
		<path fill="url(#SVGID_13_)" d="M17.586,102.005c0,1.665-1.348,3.013-3.01,3.013H4.125c-1.662,0-3.012-1.348-3.012-3.013l0,0
			c0-1.661,1.35-3.01,3.012-3.01h10.451C16.238,98.995,17.586,100.344,17.586,102.005L17.586,102.005z"/>
	</g>
	<g>
		
			<linearGradient id="SVGID_14_" gradientUnits="userSpaceOnUse" x1="-9703.6338" y1="-2417.1357" x2="-9703.6338" y2="-2363.7634" gradientTransform="matrix(0.3308 -0.346 0.3461 0.3305 4120.1689 -2519.4761)">
			<stop  offset="0" style="stop-color:#FFD207"/>
			<stop  offset="1" style="stop-color:#FAA61A"/>
		</linearGradient>
		<path fill="url(#SVGID_14_)" d="M94.309,15.939l-44.423,46.46c0.422,0.41,1.707,1.806,2.073,3.815
			c2.164-0.176,4.579,0.562,5.163,1.108c2.08,1.992,1.421,5.361,1.421,5.361s3.831-0.445,5.69,1.52
			c0.492,0.518,1.197,2.389,1.496,4.417c1.57-0.037,3.166,1.856,3.519,2.308l44.438-46.481c0.778-0.813,0.752-2.104-0.062-2.882
			c0,0-1.826-3.983-7.551-9.451c-5.725-5.462-8.883-6.239-8.883-6.239C96.376,15.096,95.087,15.124,94.309,15.939z"/>
		
			<linearGradient id="SVGID_15_" gradientUnits="userSpaceOnUse" x1="-9612.5371" y1="-2391.0835" x2="-9612.1611" y2="-2411.7539" gradientTransform="matrix(0.3308 -0.346 0.3461 0.3305 4120.1689 -2519.4761)">
			<stop  offset="0" style="stop-color:#F66B87"/>
			<stop  offset="1" style="stop-color:#FCD0D9"/>
		</linearGradient>
		<path fill="url(#SVGID_15_)" d="M106.366,3.324l-9.607,10.049c0.209,0.207,5.998,3.725,10.757,8.266
			c4.725,4.511,8.428,10.04,8.604,10.262l9.626-10.068c2.489-2.602-1.394-7.39-7.117-12.854
			C112.904,3.514,108.355,1.244,106.366,3.324z"/>
		
			<linearGradient id="SVGID_16_" gradientUnits="userSpaceOnUse" x1="-9784.1875" y1="-2410.291" x2="-9779.5615" y2="-2390.2466" gradientTransform="matrix(0.3308 -0.346 0.3461 0.3305 4120.1689 -2519.4761)">
			<stop  offset="0" style="stop-color:#FAEDB0"/>
			<stop  offset="1" style="stop-color:#FFC76E"/>
		</linearGradient>
		<path fill="url(#SVGID_16_)" d="M69.322,81.021c0,0-0.03-0.035-0.075-0.094l-0.156,0.157L69.322,81.021z"/>
		
			<linearGradient id="SVGID_17_" gradientUnits="userSpaceOnUse" x1="-9771.6523" y1="-2411.9985" x2="-9767.1758" y2="-2392.5986" gradientTransform="matrix(0.3308 -0.346 0.3461 0.3305 4120.1689 -2519.4761)">
			<stop  offset="0" style="stop-color:#FAEDB0"/>
			<stop  offset="1" style="stop-color:#FFC76E"/>
		</linearGradient>
		<path fill="url(#SVGID_17_)" d="M49.753,62.266l-0.088,0.365l0.22-0.231C49.805,62.312,49.753,62.266,49.753,62.266z"/>
		<path fill="#F6921E" d="M65.729,78.621c-0.299-2.027-1.004-3.904-1.496-4.417c-1.859-1.964-5.688-1.521-5.688-1.521
			s0.658-3.367-1.424-5.359c-0.582-0.549-2.995-1.287-5.161-1.109c-0.364-2.008-1.653-3.406-2.073-3.816l-0.219,0.23l-0.917,3.725
			c0.026,0.033,0.048,0.069,0.076,0.097l16.43,15.698c0.019,0.015,0.037,0.021,0.054,0.035l3.779-1.103l0.16-0.158
			C68.896,80.479,67.303,78.582,65.729,78.621z"/>
		
			<linearGradient id="SVGID_18_" gradientUnits="userSpaceOnUse" x1="-9788.6729" y1="-2407.4209" x2="-9786.2598" y2="-2390.5352" gradientTransform="matrix(0.3308 -0.346 0.3461 0.3305 4120.1689 -2519.4761)">
			<stop  offset="0" style="stop-color:#FAEDB0"/>
			<stop  offset="1" style="stop-color:#FFC76E"/>
		</linearGradient>
		<path fill="url(#SVGID_18_)" d="M58.543,72.686c0,0,0.659-3.369-1.421-5.36c-0.584-0.548-2.999-1.285-5.163-1.109
			c-0.366-2.008-1.651-3.405-2.073-3.815l-0.219,0.231l-0.918,3.726l-2.236,9.07l-0.645,2.614l3.924,3.761l3.922,3.747l2.586-0.747
			l9.009-2.621l3.782-1.104l0.16-0.158c-0.354-0.446-1.948-2.344-3.522-2.306c-0.302-2.027-1.006-3.9-1.498-4.416
			C62.374,72.24,58.543,72.686,58.543,72.686z"/>
		
			<linearGradient id="SVGID_19_" gradientUnits="userSpaceOnUse" x1="-9811.1309" y1="-2393.0635" x2="-9814.1357" y2="-2403.2046" gradientTransform="matrix(0.3308 -0.346 0.3461 0.3305 4120.1689 -2519.4761)">
			<stop  offset="0" style="stop-color:#231F20"/>
			<stop  offset="1" style="stop-color:#FFFFFF"/>
		</linearGradient>
		<polygon fill="url(#SVGID_19_)" points="45.878,78.062 43.303,88.607 53.721,85.559 53.716,85.553 49.792,81.805 		"/>
		
			<linearGradient id="SVGID_20_" gradientUnits="userSpaceOnUse" x1="-8643.4414" y1="4049.2695" x2="-8658.498" y2="4036.51" gradientTransform="matrix(0.4786 -0.011 0.0108 0.4784 4201.0693 -2004.1335)">
			<stop  offset="0" style="stop-color:#808080"/>
			<stop  offset="1" style="stop-color:#F2F2F2"/>
		</linearGradient>
		<path fill="url(#SVGID_20_)" d="M96.84,13.205l-5.333,5.658c0.218,0.205,5.397,3.315,10.162,7.858
			c4.722,4.509,9.021,10.458,9.211,10.659l5.338-5.665c0.357-0.378-3.258-5.442-8.979-10.911
			C101.518,15.34,97.195,12.827,96.84,13.205z"/>
		<g opacity="0.6">
			<path fill="#FFF8A2" d="M108.021,4.587L52.784,62.442c0.27,0.516,0.506,1.116,0.629,1.792c0.901-0.07,1.838,0.027,2.663,0.199
				l55.377-58.001C108.833,4.168,107.952,4.541,108.021,4.587z"/>
		</g>
		
			<linearGradient id="SVGID_21_" gradientUnits="userSpaceOnUse" x1="-2644.8325" y1="384.8027" x2="-2644.8325" y2="384.8027" gradientTransform="matrix(0.9576 -0.2881 -0.2881 -0.9576 2695.2817 -331.133)">
			<stop  offset="0" style="stop-color:#DEDEDE"/>
			<stop  offset="1" style="stop-color:#FEFEFE"/>
		</linearGradient>
		<path fill="url(#SVGID_21_)" stroke="#181512" stroke-width="1.0006" stroke-miterlimit="3.8637" d="M51.728,62.357"/>
		<g opacity="0.6">
			<path fill="#FFF8A2" d="M52.772,68.07l-0.008-0.004c-0.693-0.103-1.428-0.15-2.141-0.092c-0.127-0.693-0.367-1.312-0.641-1.842
				l-0.108-0.076L44.3,86.744L52.772,68.07z"/>
		</g>
	</g>
</g>
</svg>
