<?xml version="1.0" encoding="utf-8"?>
<!-- Generator: Adobe Illustrator 13.0.0, SVG Export Plug-In . SVG Version: 6.00 Build 14948)  -->
<!DOCTYPE svg PUBLIC "-//W3C//DTD SVG 1.1//EN" "http://www.w3.org/Graphics/SVG/1.1/DTD/svg11.dtd">
<svg version="1.1" id="Layer_1" xmlns="http://www.w3.org/2000/svg" xmlns:xlink="http://www.w3.org/1999/xlink" x="0px" y="0px"
	 width="128px" height="128px" viewBox="0 0 128 128" enable-background="new 0 0 128 128" xml:space="preserve">
<g>
	<linearGradient id="SVGID_1_" gradientUnits="userSpaceOnUse" x1="64.0005" y1="6.1211" x2="64.0005" y2="121.8804">
		<stop  offset="0" style="stop-color:#FFD207"/>
		<stop  offset="1" style="stop-color:#FAA61A"/>
	</linearGradient>
	<circle fill="url(#SVGID_1_)" cx="64" cy="64.001" r="57.879"/>
	<radialGradient id="SVGID_2_" cx="64.0015" cy="64.0015" r="49.3901" gradientUnits="userSpaceOnUse">
		<stop  offset="0" style="stop-color:#FAFAFA"/>
		<stop  offset="0.3109" style="stop-color:#F4F4F4"/>
		<stop  offset="0.7262" style="stop-color:#E3E3E3"/>
		<stop  offset="1" style="stop-color:#D4D4D4"/>
	</radialGradient>
	<circle fill="url(#SVGID_2_)" cx="64.001" cy="64.001" r="49.39"/>
	<path opacity="0.5" fill="#FFFFFF" d="M17.016,38.718c10.583-15.41,29.048-28.037,47.235-28.037
		c18.186,0,36.158,12.627,46.736,28.037h2.012C101.786,20.581,84.572,7.896,64.005,7.896c-20.574,0-37.788,12.686-49.004,30.822
		H17.016z"/>
	<g>
		
			<linearGradient id="SVGID_3_" gradientUnits="userSpaceOnUse" x1="117.668" y1="40.9229" x2="132.0322" y2="40.9229" gradientTransform="matrix(0.9999 -0.0166 0.0166 0.9999 -61.8602 26.7754)">
			<stop  offset="0" style="stop-color:#5F5D5C"/>
			<stop  offset="1" style="stop-color:#181500"/>
		</linearGradient>
		<path fill="url(#SVGID_3_)" d="M70.839,65.503c-0.067-3.965-3.336-7.127-7.3-7.062c-3.968,0.066-7.13,3.334-7.063,7.302
			c0.064,3.968,3.337,7.128,7.303,7.061C67.741,72.738,70.903,69.469,70.839,65.503"/>
		
			<linearGradient id="SVGID_4_" gradientUnits="userSpaceOnUse" x1="101.8242" y1="48.498" x2="127.8809" y2="48.498" gradientTransform="matrix(0.9999 -0.0166 0.0166 0.9999 -61.8602 26.7754)">
			<stop  offset="0" style="stop-color:#5F5D5C"/>
			<stop  offset="1" style="stop-color:#181500"/>
		</linearGradient>
		<path fill="url(#SVGID_4_)" d="M66.276,64.853c-0.753-1.102-2.262-1.396-3.366-0.637L41.937,78.499
			c-1.108,0.758-1.395,2.265-0.641,3.373c0.753,1.104,2.265,1.393,3.365,0.639l20.977-14.287
			C66.747,67.468,67.03,65.958,66.276,64.853"/>
		
			<linearGradient id="SVGID_5_" gradientUnits="userSpaceOnUse" x1="124.2451" y1="22.4414" x2="127.2725" y2="22.4414" gradientTransform="matrix(0.9999 -0.0166 0.0166 0.9999 -61.8602 26.7754)">
			<stop  offset="0" style="stop-color:#5F5D5C"/>
			<stop  offset="1" style="stop-color:#181500"/>
		</linearGradient>
		<path fill="url(#SVGID_5_)" d="M64.245,26.823c-0.671,0.002-1.213,0.547-1.208,1.213l0.024,38.186c0,0.666,0.54,1.213,1.214,1.209
			c0.671-0.003,1.21-0.545,1.21-1.214l-0.029-38.181C65.458,27.368,64.919,26.823,64.245,26.823"/>
		
			<linearGradient id="SVGID_6_" gradientUnits="userSpaceOnUse" x1="120.7012" y1="40.9233" x2="129" y2="40.9233" gradientTransform="matrix(0.9999 -0.0166 0.0166 0.9999 -61.8602 26.7754)">
			<stop  offset="0" style="stop-color:#5F5D5C"/>
			<stop  offset="1" style="stop-color:#181500"/>
		</linearGradient>
		<path fill="url(#SVGID_6_)" d="M67.808,65.554c-0.039-2.288-1.926-4.12-4.221-4.083c-2.29,0.04-4.115,1.932-4.078,4.222
			c0.037,2.289,1.922,4.119,4.217,4.082C66.022,69.735,67.845,67.843,67.808,65.554"/>
	</g>
</g>
</svg>
