<?xml version="1.0" encoding="utf-8"?>
<!-- Generator: Adobe Illustrator 13.0.0, SVG Export Plug-In . SVG Version: 6.00 Build 14948)  -->
<!DOCTYPE svg PUBLIC "-//W3C//DTD SVG 1.1//EN" "http://www.w3.org/Graphics/SVG/1.1/DTD/svg11.dtd">
<svg version="1.1" id="Layer_1" xmlns="http://www.w3.org/2000/svg" xmlns:xlink="http://www.w3.org/1999/xlink" x="0px" y="0px"
	 width="128px" height="128px" viewBox="0 0 128 128" enable-background="new 0 0 128 128" xml:space="preserve">
<g>
	<g>
		<g>
			<path fill="#F2F2F2" d="M32.126,67.971c1.476-0.917,3.22-1.453,5.085-1.453h62.68c1.845,0,3.571,0.522,5.038,1.423l0.742-0.672
				c-1.668-1.084-3.648-1.721-5.78-1.721h-62.68c-2.125,0-4.1,0.631-5.76,1.707L32.126,67.971z"/>
			<radialGradient id="SVGID_1_" cx="68.4873" cy="94.793" r="36.3305" gradientUnits="userSpaceOnUse">
				<stop  offset="0" style="stop-color:#FAFAFA"/>
				<stop  offset="0.3629" style="stop-color:#E5E5E5"/>
				<stop  offset="1" style="stop-color:#C4C4C4"/>
			</radialGradient>
			<path fill="url(#SVGID_1_)" stroke="#808080" d="M60.039,120.531L30.492,76.845c-4.57-7.548-2.59-13.722,4.396-13.722h67.497
				c6.986,0,8.66,5.771,3.719,12.822l-28.775,45.484C72.39,128.479,64.61,128.076,60.039,120.531L60.039,120.531z"/>
			<radialGradient id="SVGID_2_" cx="69.2754" cy="29.7261" r="28.1807" gradientUnits="userSpaceOnUse">
				<stop  offset="0" style="stop-color:#FAFAFA"/>
				<stop  offset="0.4142" style="stop-color:#E3E3E3"/>
				<stop  offset="1" style="stop-color:#C7C7C7"/>
			</radialGradient>
			<path fill="url(#SVGID_2_)" stroke="#808080" d="M41.104,29.726c0-15.568,12.614-28.19,28.173-28.19s28.17,12.622,28.17,28.19
				c0,15.571-12.611,28.19-28.17,28.19S41.104,45.297,41.104,29.726L41.104,29.726z"/>
			<linearGradient id="SVGID_3_" gradientUnits="userSpaceOnUse" x1="82" y1="15.394" x2="82" y2="30.0825">
				<stop  offset="0" style="stop-color:#80C11B"/>
				<stop  offset="1" style="stop-color:#80E21B"/>
			</linearGradient>
			<path fill="url(#SVGID_3_)" d="M74.66,22.738c0-4.058,3.284-7.344,7.341-7.344c4.053,0,7.34,3.286,7.34,7.344
				s-3.287,7.345-7.34,7.345C77.944,30.083,74.66,26.795,74.66,22.738L74.66,22.738z"/>
			<path opacity="0.5" fill="#FFFFFF" d="M81.99,22.566c2.021,1.688,4.757,0.762,6.46-0.121c-0.252-3.401-3.085-6.079-6.546-6.079
				c-3.475,0-6.317,2.701-6.547,6.12C76.933,21.712,79.815,20.746,81.99,22.566z"/>
			<path fill="#F2F2F2" d="M48.82,15.127C53.525,8.669,62.174,3.72,70.258,3.72c8.086,0,16.516,4.949,21.218,11.407h0.895
				C87.385,7.527,79.293,2.552,70.148,2.552c-9.146,0-17.238,4.975-22.224,12.575H48.82z"/>
			<linearGradient id="SVGID_4_" gradientUnits="userSpaceOnUse" x1="69.4277" y1="52.5151" x2="69.4277" y2="39.9419">
				<stop  offset="0" style="stop-color:#00B2DE"/>
				<stop  offset="1" style="stop-color:#99DBF6"/>
			</linearGradient>
			<path fill="url(#SVGID_4_)" d="M90.759,39.942c-4.708,6.46-13.355,11.405-21.443,11.405c-8.085,0-16.512-4.945-21.217-11.405
				h-0.894c4.985,7.603,13.076,12.573,22.22,12.573c9.147,0,17.238-4.971,22.226-12.573H90.759z"/>
			<path fill="#BFBFBF" d="M105.255,70.622c-0.022,1.479-0.437,2.97-1.294,4.305l-28.75,44.81c-0.845,1.319-2.011,2.311-3.327,2.948
				l0.139,0.84c1.54-0.694,2.902-1.818,3.883-3.342l28.751-44.811c0.975-1.516,1.426-3.219,1.421-4.901L105.255,70.622z"/>
			<path opacity="0.5" fill="#FFFFFF" d="M37.715,84.916c8.379-6.615,18.95-10.573,30.456-10.573c11.332,0,21.76,3.842,30.076,10.28
				l5.064-8.001c4.615-6.588,3.051-11.979-3.476-11.979H36.78c-6.53,0-8.377,5.77-4.109,12.817L37.715,84.916z"/>
		</g>
	</g>
	<g>
		
			<linearGradient id="SVGID_5_" gradientUnits="userSpaceOnUse" x1="-92.1157" y1="884.8496" x2="-92.1157" y2="919.4102" gradientTransform="matrix(1 0 0 1 123.3823 -838.9521)">
			<stop  offset="0" style="stop-color:#FF9D00"/>
			<stop  offset="1" style="stop-color:#FF1F00"/>
		</linearGradient>
		<path fill="url(#SVGID_5_)" d="M31.163,45.898c-1.188,0.009-2.268,0.692-2.785,1.761c0,0-2.792,5.763-3.807,7.856
			c-2.299,0.352-8.627,1.318-8.627,1.318c-1.06,0.161-1.951,0.853-2.381,1.815c-0.047,0.107-0.089,0.215-0.124,0.328
			c-0.358,1.132-0.044,2.371,0.813,3.194c0,0,4.618,4.435,6.295,6.046c-0.376,2.295-1.411,8.614-1.411,8.614
			c-0.192,1.172,0.297,2.352,1.264,3.044c0.966,0.691,2.241,0.773,3.289,0.212c0,0,5.646-3.021,7.696-4.117
			c2.066,1.066,7.756,4.005,7.756,4.005c1.058,0.545,2.33,0.443,3.285-0.263c0.445-0.326,0.783-0.758,0.999-1.241
			c0.249-0.562,0.333-1.192,0.222-1.819c0,0-1.13-6.305-1.54-8.594c1.653-1.635,6.206-6.138,6.206-6.138
			c0.281-0.278,0.5-0.6,0.656-0.949c0.311-0.7,0.36-1.503,0.109-2.256c-0.375-1.128-1.357-1.944-2.535-2.106
			c0,0-6.344-0.873-8.646-1.191c-1.046-2.078-3.922-7.799-3.922-7.799C33.442,46.557,32.353,45.89,31.163,45.898L31.163,45.898z"/>
		<g opacity="0.3">
			<path opacity="0.63" fill="#FFFFFF" d="M39.287,55.609c-0.54-0.074-1.019-0.14-1.39-0.191c-1.046-2.078-3.922-7.799-3.922-7.799
				c-0.533-1.062-1.623-1.729-2.812-1.721c-1.188,0.009-2.268,0.692-2.785,1.761c0,0-2.792,5.763-3.807,7.856
				c-2.299,0.352-8.627,1.318-8.627,1.318c-1.06,0.161-1.951,0.853-2.381,1.815c-0.047,0.107-0.089,0.215-0.124,0.328
				c-0.358,1.132-0.044,2.371,0.813,3.194c0,0,4.618,4.435,6.295,6.046c-0.085,0.521-0.205,1.249-0.338,2.063
				C30.48,70.118,38.802,63.678,39.287,55.609z"/>
		</g>
	</g>
	<g>
		
			<linearGradient id="SVGID_6_" gradientUnits="userSpaceOnUse" x1="-1188.1147" y1="-1620.0034" x2="-1188.1147" y2="-1572.6821" gradientTransform="matrix(1 0 0 1 1283.9355 1694.668)">
			<stop  offset="0" style="stop-color:#80E21B"/>
			<stop  offset="1" style="stop-color:#80B400"/>
		</linearGradient>
		<path fill="url(#SVGID_6_)" stroke="#70993E" stroke-miterlimit="3.8637" d="M112.981,107.293
			c1.133-1.189,1.725-2.559,1.725-4.226c0-1.604-0.596-3.034-1.725-4.224c-1.189-1.129-2.617-1.725-4.221-1.725
			c-1.666-0.003-3.094,0.595-4.225,1.725l-2.736,2.797l-0.002-21.028c-0.059-1.664-0.594-3.092-1.783-4.224
			c-1.131-1.19-2.559-1.725-4.166-1.725c-1.666,0-3.09,0.534-4.221,1.725c-1.189,1.13-1.787,2.558-1.787,4.222l0.002,21.028
			l-2.734-2.797c-1.189-1.13-2.557-1.727-4.225-1.727c-1.607,0-3.033,0.597-4.221,1.726c-1.131,1.189-1.727,2.616-1.727,4.224
			c0,1.666,0.596,3.035,1.727,4.226l12.967,12.911c1.133,1.189,2.559,1.784,4.223,1.784c1.607,0,3.031-0.593,4.166-1.782
			L112.981,107.293z"/>
		<g opacity="0.5">
			<path fill="#FFFFFF" d="M92.406,78.171c0.921-0.971,2.081-1.407,3.438-1.407c1.311,0,2.473,0.437,3.395,1.407
				c0.939,0.894,1.375,2.015,1.443,3.318h0.01v-0.519c-0.048-1.355-0.484-2.519-1.453-3.44c-0.922-0.97-2.084-1.405-3.395-1.405
				c-1.357,0-2.518,0.436-3.438,1.405c-0.969,0.92-1.456,2.083-1.456,3.439v0.64C90.952,80.254,91.438,79.091,92.406,78.171z"/>
		</g>
	</g>
</g>
</svg>
