<?xml version="1.0" encoding="utf-8"?>
<!-- Generator: Adobe Illustrator 13.0.0, SVG Export Plug-In . SVG Version: 6.00 Build 14948)  -->
<!DOCTYPE svg PUBLIC "-//W3C//DTD SVG 1.1//EN" "http://www.w3.org/Graphics/SVG/1.1/DTD/svg11.dtd">
<svg version="1.1" id="Layer_1" xmlns="http://www.w3.org/2000/svg" xmlns:xlink="http://www.w3.org/1999/xlink" x="0px" y="0px"
	 width="128px" height="128px" viewBox="0 0 128 128" enable-background="new 0 0 128 128" xml:space="preserve">
<g>
	<g>
		<g>
			<g>
				
					<linearGradient id="SVGID_1_" gradientUnits="userSpaceOnUse" x1="-44.6045" y1="8432.2734" x2="59.6088" y2="8432.2754" gradientTransform="matrix(1.641551e-05 1 -1 0 8498.2549 56.5928)">
					<stop  offset="0.1235" style="stop-color:#809436"/>
					<stop  offset="0.9136" style="stop-color:#416B36"/>
				</linearGradient>
				<path fill="url(#SVGID_1_)" d="M109.969,40.06H76.023V27.013c0-9.283-7.531-16.814-16.819-16.814H21.989
					c-9.285,0-16.816,7.531-16.816,16.816l0.002,73.97c0,9.287,7.532,16.816,16.816,16.816h87.978
					c9.285,0,16.818-7.529,16.818-16.818V56.875C126.787,47.589,119.254,40.06,109.969,40.06z"/>
			</g>
			<g>
				<linearGradient id="SVGID_2_" gradientUnits="userSpaceOnUse" x1="65.9805" y1="10.1982" x2="65.9805" y2="117.8013">
					<stop  offset="0.1235" style="stop-color:#809436"/>
					<stop  offset="0.9136" style="stop-color:#416B36"/>
				</linearGradient>
				<path fill="url(#SVGID_2_)" d="M109.969,40.06H76.023V27.013c0-9.283-7.531-16.814-16.819-16.814H21.989
					c-9.285,0-16.816,7.531-16.816,16.816l0.002,73.97c0,9.287,7.532,16.816,16.816,16.816h87.978
					c9.285,0,16.818-7.529,16.818-16.818V56.875C126.787,47.589,119.254,40.06,109.969,40.06z"/>
			</g>
		</g>
		
			<linearGradient id="SVGID_3_" gradientUnits="userSpaceOnUse" x1="-397.8994" y1="870.4443" x2="-416.9968" y2="857.0723" gradientTransform="matrix(1 0 0 1 412.6201 -813.9912)">
			<stop  offset="0" style="stop-color:#DEDEDE"/>
			<stop  offset="1" style="stop-color:#9A9A9A"/>
		</linearGradient>
		<path fill="url(#SVGID_3_)" d="M11.02,59.648c0,2.707-2.195,4.904-4.903,4.904l0,0c-2.706,0-4.902-2.197-4.902-4.904V41.207
			c0-2.707,2.196-4.904,4.902-4.904l0,0c2.708,0,4.903,2.197,4.903,4.904V59.648z"/>
		
			<linearGradient id="SVGID_4_" gradientUnits="userSpaceOnUse" x1="-397.9009" y1="906.4434" x2="-416.9949" y2="893.0735" gradientTransform="matrix(1 0 0 1 412.6201 -813.9912)">
			<stop  offset="0" style="stop-color:#5F5D5C"/>
			<stop  offset="1" style="stop-color:#181500"/>
		</linearGradient>
		<path fill="url(#SVGID_4_)" d="M11.02,95.649c0,2.706-2.195,4.901-4.903,4.901l0,0c-2.706,0-4.902-2.195-4.902-4.901V77.204
			c0-2.707,2.196-4.899,4.902-4.899l0,0c2.708,0,4.903,2.192,4.903,4.899V95.649z"/>
		<path opacity="0.5" fill="#FFFFFF" d="M57.011,13.679H24.337c-8.368,0-15.152,6.784-15.152,15.152v4.207
			c0-8.368,6.784-15.152,15.152-15.152h32.674c8.367,0,15.152,6.784,15.152,15.152v-4.207
			C72.163,20.463,65.378,13.679,57.011,13.679z"/>
		<path fill="#415D36" d="M21.173,117.801h89.443c8.838,0,16-7.164,16-16v-4.332c0,8.836-7.162,16-16,16H21.173
			c-8.836,0-16-7.164-16-16v4.332C5.173,110.637,12.337,117.801,21.173,117.801z"/>
	</g>
	<g>
		<linearGradient id="SVGID_5_" gradientUnits="userSpaceOnUse" x1="100.1699" y1="108.3164" x2="100.1699" y2="70.6045">
			<stop  offset="0" style="stop-color:#000096"/>
			<stop  offset="1" style="stop-color:#3396ED"/>
		</linearGradient>
		<circle fill="url(#SVGID_5_)" cx="100.17" cy="89.46" r="18.856"/>
		<path opacity="0.5" fill="#FFFFFF" d="M84.864,81.223c3.447-5.019,9.463-9.133,15.388-9.133s11.779,4.114,15.226,9.133h0.656
			c-3.654-5.908-9.262-10.041-15.963-10.041s-12.309,4.133-15.964,10.041H84.864z"/>
		<g>
			
				<linearGradient id="SVGID_6_" gradientUnits="userSpaceOnUse" x1="-306.895" y1="911.332" x2="-319.0247" y2="902.8387" gradientTransform="matrix(1 0 0 1 412.6201 -813.9912)">
				<stop  offset="0" style="stop-color:#DEDEDE"/>
				<stop  offset="1" style="stop-color:#FEFEFE"/>
			</linearGradient>
			<path fill="url(#SVGID_6_)" d="M104.521,99.06c-0.5,0.437-1.556,0.79-2.313,0.913c-0.732,0.117-1.623,0.17-2.436,0.182
				c-1.554,0.019-3.779-0.381-4.05-1.617c-0.174-0.793,0.3-2.088,0.545-2.843c0.568-1.767,1.136-3.041,1.627-5.045
				c0.181-0.739,0.597-2.267-0.052-2.728c-0.898-0.637-2.482,0.369-3.478-0.174c0.581-0.383,2.073-0.805,3.034-0.947
				c2.082-0.311,6.334-0.936,6.742,1.47c0.129,0.759-0.23,1.806-0.435,2.608c-0.425,1.676-0.995,2.81-1.575,4.467
				c-0.286,0.822-0.698,2.246-0.511,2.896C101.965,99.416,103.882,98.458,104.521,99.06z"/>
			
				<linearGradient id="SVGID_7_" gradientUnits="userSpaceOnUse" x1="-307.9834" y1="898.6064" x2="-313.5862" y2="894.6832" gradientTransform="matrix(1 0 0 1 412.6201 -813.9912)">
				<stop  offset="0" style="stop-color:#DEDEDE"/>
				<stop  offset="1" style="stop-color:#FEFEFE"/>
			</linearGradient>
			<path fill="url(#SVGID_7_)" d="M105.358,82.653c0,1.768-1.578,3.198-3.524,3.198c-1.944,0-3.521-1.431-3.521-3.198
				c0-1.766,1.576-3.198,3.521-3.198C103.78,79.455,105.358,80.888,105.358,82.653z"/>
		</g>
	</g>
</g>
</svg>
