<?xml version="1.0" encoding="utf-8"?>
<!-- Generator: Adobe Illustrator 13.0.0, SVG Export Plug-In . SVG Version: 6.00 Build 14948)  -->
<!DOCTYPE svg PUBLIC "-//W3C//DTD SVG 1.1//EN" "http://www.w3.org/Graphics/SVG/1.1/DTD/svg11.dtd">
<svg version="1.1" id="Layer_1" xmlns="http://www.w3.org/2000/svg" xmlns:xlink="http://www.w3.org/1999/xlink" x="0px" y="0px"
	 width="128px" height="128px" viewBox="0 0 128 128" enable-background="new 0 0 128 128" xml:space="preserve">
<g>
	<g>
		<linearGradient id="SVGID_1_" gradientUnits="userSpaceOnUse" x1="63.9995" y1="113.6816" x2="63.9995" y2="48.7072">
			<stop  offset="0" style="stop-color:#00B2DE"/>
			<stop  offset="1" style="stop-color:#99DBF6"/>
		</linearGradient>
		<path fill="url(#SVGID_1_)" d="M107.252,34.988H20.75c-8.881,0-16.08,7.199-16.08,16.076v45.357
			c0,8.881,7.199,16.078,16.08,16.078h86.502c8.879,0,16.076-7.197,16.076-16.078V51.064
			C123.328,42.187,116.131,34.988,107.252,34.988z"/>
		<path fill="none" stroke="#FFFFFF" stroke-width="2" stroke-miterlimit="3.8637" d="M6.605,43.416l36.027,36.037
			c0,0,11.473,13.584,21.795,13.584c10.32,0,22.369-13.582,22.369-13.582L121.439,43.5"/>
		
			<line fill="none" stroke="#FFFFFF" stroke-width="2" stroke-miterlimit="3.8637" x1="9.402" y1="107.808" x2="41.09" y2="77.909"/>
		
			<line fill="none" stroke="#FFFFFF" stroke-width="2" stroke-miterlimit="3.8637" x1="88.424" y1="77.765" x2="118.598" y2="107.815"/>
		<path fill="#FFFFFF" d="M11.562,42.322c2.4-2.766,5.934-4.525,9.875-4.525h84.494c3.941,0,7.475,1.76,9.875,4.525h1.67
			c-2.625-3.531-6.816-5.834-11.545-5.834H21.438c-4.729,0-8.92,2.303-11.545,5.834H11.562z"/>
		<path fill="#059CC2" d="M107.252,109.833H20.75c-8.881,0-16.08-7.197-16.08-16.078v2.666c0,8.881,7.199,16.078,16.08,16.078
			h86.502c8.879,0,16.076-7.197,16.076-16.078v-2.666C123.328,102.636,116.131,109.833,107.252,109.833z"/>
	</g>
	<g>
		<path fill="#99DBF6" d="M54.61,55.329l0.009-0.001l0.023-0.028l-0.01,0.004C54.627,55.313,54.619,55.322,54.61,55.329
			L54.61,55.329z"/>
		<path fill="#99DBF6" d="M54.619,55.294c0.014-0.013,0.018-0.018,0.021-0.024l-0.01,0.002l-0.012,0.014l-0.002-0.003l0.016-0.017
			l-0.01,0.004c0,0-0.033,0.033-0.043,0.047h0.004l0.02-0.019h0.004c-0.003,0.004-0.02,0.023-0.018,0.026
			C54.6,55.315,54.609,55.303,54.619,55.294L54.619,55.294z"/>
		<path fill="#99DBF6" d="M54.368,55.385c0,0-0.01-0.001-0.075,0.061l-0.008,0.002c-0.008,0.004-0.055,0.061-0.055,0.068
			c0,0,0.027-0.018,0.061-0.053c0.018,0,0.045-0.017,0.053-0.021s0.019-0.013,0.026-0.021c0.013-0.012,0.052-0.057,0.048-0.062
			h-0.001C54.415,55.359,54.378,55.379,54.368,55.385L54.368,55.385z"/>
		<path fill="#99DBF6" d="M54.128,55.602c0,0,0.013-0.012,0.022-0.021c0.008-0.012,0.01-0.015,0.01-0.015l0,0
			C54.16,55.567,54.128,55.594,54.128,55.602L54.128,55.602z"/>
		<polygon fill="#99DBF6" points="54.148,55.558 54.114,55.594 54.125,55.588 54.152,55.558 		"/>
		<path fill="#99DBF6" d="M54.082,55.606c0-0.011-0.018,0.008-0.027,0.016l-0.03,0.033c-0.003,0.006-0.006,0.012-0.011,0.015
			c-0.047,0.05-0.045,0.052-0.045,0.054c0,0,0.003,0,0.016-0.012l0.02-0.019l0.023-0.019l0.016-0.016h0.004l0.039-0.045h-0.002
			c-0.006,0.006-0.012,0.012-0.016,0.017c0.023-0.031,0.023-0.034,0.023-0.034c-0.005,0-0.006,0.006-0.006,0.006L54.082,55.606z"/>
		<path fill="#99DBF6" d="M53.957,55.723c-0.006,0.003-0.015,0.007-0.021,0.012l-0.032,0.04c0.018-0.012,0.018-0.012,0.027-0.021
			c0.014-0.011,0.037-0.043,0.037-0.043S53.965,55.715,53.957,55.723L53.957,55.723z"/>
		<path fill="#99DBF6" d="M53.902,55.77l0.004-0.004c0,0,0.011-0.011,0.033-0.041c0.01-0.011,0.019-0.021,0.027-0.031h-0.006
			c-0.007,0.004-0.037,0.039-0.056,0.057c-0.036,0.031-0.036,0.031-0.073,0.073c0.004-0.003,0.01-0.005,0.012-0.011
			c0.008-0.008,0.031-0.028,0.064-0.055L53.902,55.77L53.902,55.77z"/>
		<path fill="#99DBF6" d="M53.757,55.886c0,0,0.002,0,0.019-0.021c0.004-0.006,0.01-0.012,0.016-0.02
			c-0.01,0.007-0.034,0.035-0.034,0.035V55.886z"/>
		<path fill="#99DBF6" d="M53.596,56.026c-0.014,0.014-0.023,0.029-0.037,0.042v0.001c0,0,0.006-0.005,0.016-0.018
			c0.024-0.025,0.025-0.027,0.026-0.029l0,0L53.596,56.026L53.596,56.026z"/>
		<path fill="#A4D9E6" d="M50.816,63.981l-0.007,0.004c-0.002,0.007-0.019,0.053-0.019,0.071c0,0.012,0.004,0.019,0.016,0.015
			c0.001,0.015,0.002,0.021,0.002,0.021c0.006-0.002,0.011-0.007,0.014-0.048l0.001-0.001c0-0.007,0.005-0.012,0.007-0.018
			C50.835,64.006,50.824,63.981,50.816,63.981L50.816,63.981z"/>
		<path fill="#A4D9E6" d="M50.952,64.18c-0.003,0-0.009-0.004-0.003-0.041c-0.008-0.002-0.01-0.004-0.01-0.004
			c-0.008,0.002-0.017,0.004-0.018,0.036c0,0.014,0,0.021,0,0.021c0.002,0.011,0.006,0.02,0.008,0.031
			c0,0.007-0.003,0.017-0.002,0.025c0,0,0.003,0.008,0.006,0.01c0.004,0.007,0.021,0.013,0.028-0.03
			C50.967,64.188,50.952,64.18,50.952,64.18L50.952,64.18z"/>
		<path fill="#A4D9E6" d="M51.053,64.249l-0.006-0.002c-0.005,0-0.01,0.002-0.01,0.002c-0.008,0-0.01,0-0.016,0
			c-0.005,0-0.013,0.001-0.015,0.013c-0.003,0.01,0.001,0.036,0.004,0.043c0.009,0.016,0.02-0.01,0.021-0.015
			c0.008-0.002,0.018-0.004,0.023-0.006l0.002-0.008C51.061,64.253,51.055,64.25,51.053,64.249L51.053,64.249z"/>
		<path fill="#A4D9E6" d="M51.094,64.434c0,0,0.025,0.002,0.03-0.04c0.004-0.034-0.013-0.044-0.019-0.046
			c-0.004-0.025-0.008-0.032-0.019-0.032c-0.004,0-0.014,0.003-0.024,0.016c-0.002,0.006,0,0.011,0,0.011
			c0.002,0.043,0.011,0.047,0.021,0.037C51.079,64.431,51.087,64.439,51.094,64.434L51.094,64.434z"/>
		<path fill="#A4D9E6" d="M51.213,64.674c-0.002-0.012,0-0.023-0.003-0.035c-0.001-0.01-0.005-0.021-0.01-0.029
			c-0.006-0.018-0.021-0.049-0.048-0.059c0.005-0.016,0.005-0.023,0-0.033c-0.007,0.008-0.021,0.021-0.016,0.111
			c-0.021,0.02-0.027,0.055-0.029,0.076c-0.002,0.018,0.006,0.045,0.013,0.057l0.003,0.004c0.002,0.02-0.002,0.045-0.001,0.064
			c0.003,0.08,0.022,0.086,0.022,0.086l0.002-0.002c0,0,0.002-0.01,0.003-0.012c0.001-0.014,0.003-0.037,0.02-0.064
			c0.013-0.023,0.04-0.031,0.052-0.053l0.013-0.043c0.006-0.023-0.006-0.051-0.019-0.066L51.213,64.674L51.213,64.674z"/>
		<path fill="#A4D9E6" d="M52.712,74.11l0.059,0.082c-0.001-0.004-0.013-0.023-0.024-0.037c-0.02-0.029-0.03-0.043-0.03-0.043
			L52.712,74.11z"/>
		<path fill="#A4D9E6" d="M52.783,74.196V74.2c0.031,0.043,0.043,0.059,0.047,0.061c0,0,0-0.002-0.025-0.039
			C52.797,74.21,52.789,74.198,52.783,74.196L52.783,74.196z"/>
		<path fill="#99DBF6" d="M54.969,74.909h-0.002l0.004,0.023c0,0,0.002,0.006,0.01,0.014c0.01,0.01,0.039,0.035,0.055,0.039
			c0,0,0.021,0.006,0.01-0.014C55.035,74.954,54.981,74.909,54.969,74.909L54.969,74.909z"/>
		<path fill="none" d="M79.674,64.611c0.572,8.177-5.588,15.269-13.76,15.841c-8.17,0.57-15.256-5.594-15.828-13.771
			c-0.572-8.176,5.588-15.269,13.76-15.838C72.016,50.268,79.103,56.436,79.674,64.611L79.674,64.611z"/>
		
			<linearGradient id="SVGID_2_" gradientUnits="userSpaceOnUse" x1="-170.5557" y1="-661.6748" x2="-194.8595" y2="-644.6572" gradientTransform="matrix(1 0 0 -1 246.7271 -588.7695)">
			<stop  offset="0" style="stop-color:#DEDEDE"/>
			<stop  offset="1" style="stop-color:#FEFEFE"/>
		</linearGradient>
		<path fill="url(#SVGID_2_)" stroke="#000000" stroke-width="0.75" stroke-miterlimit="3.8637" d="M78.814,63.361
			c0.572,8.175-5.59,15.269-13.76,15.839c-8.171,0.574-15.258-5.592-15.829-13.771c-0.571-8.174,5.589-15.267,13.761-15.838
			C71.156,49.018,78.242,55.186,78.814,63.361L78.814,63.361z"/>
		<g>
			
				<linearGradient id="SVGID_3_" gradientUnits="userSpaceOnUse" x1="-201.2139" y1="-653.2368" x2="-201.2139" y2="-651.271" gradientTransform="matrix(1 0 0 -1 246.7271 -588.7695)">
				<stop  offset="0" style="stop-color:#5F5D5C"/>
				<stop  offset="1" style="stop-color:#181500"/>
			</linearGradient>
			<polygon fill="url(#SVGID_3_)" points="46.396,64.467 44.531,64.369 44.628,62.501 46.496,62.6 			"/>
			
				<linearGradient id="SVGID_4_" gradientUnits="userSpaceOnUse" x1="-200.0659" y1="-647.9194" x2="-200.0659" y2="-645.5239" gradientTransform="matrix(1 0 0 -1 246.7271 -588.7695)">
				<stop  offset="0" style="stop-color:#5F5D5C"/>
				<stop  offset="1" style="stop-color:#181500"/>
			</linearGradient>
			<polygon fill="url(#SVGID_4_)" points="47.219,59.15 45.464,58.512 46.102,56.754 47.859,57.395 			"/>
			
				<linearGradient id="SVGID_5_" gradientUnits="userSpaceOnUse" x1="-197.2959" y1="-643.0708" x2="-197.2959" y2="-640.4468" gradientTransform="matrix(1 0 0 -1 246.7271 -588.7695)">
				<stop  offset="0" style="stop-color:#5F5D5C"/>
				<stop  offset="1" style="stop-color:#181500"/>
			</linearGradient>
			<polygon fill="url(#SVGID_5_)" points="49.594,54.301 48.119,53.15 49.272,51.677 50.744,52.827 			"/>
			
				<linearGradient id="SVGID_6_" gradientUnits="userSpaceOnUse" x1="-193.167" y1="-639.2495" x2="-193.167" y2="-636.645" gradientTransform="matrix(1 0 0 -1 246.7271 -588.7695)">
				<stop  offset="0" style="stop-color:#5F5D5C"/>
				<stop  offset="1" style="stop-color:#181500"/>
			</linearGradient>
			<polygon fill="url(#SVGID_6_)" points="53.332,50.48 52.26,48.948 53.791,47.875 54.861,49.408 			"/>
			
				<linearGradient id="SVGID_7_" gradientUnits="userSpaceOnUse" x1="-188.0532" y1="-636.6577" x2="-188.0532" y2="-634.3257" gradientTransform="matrix(1 0 0 -1 246.7271 -588.7695)">
				<stop  offset="0" style="stop-color:#5F5D5C"/>
				<stop  offset="1" style="stop-color:#181500"/>
			</linearGradient>
			<polygon fill="url(#SVGID_7_)" points="58.054,47.888 57.508,46.1 59.295,45.556 59.841,47.342 			"/>
			
				<linearGradient id="SVGID_8_" gradientUnits="userSpaceOnUse" x1="-182.4878" y1="-635.6274" x2="-182.4878" y2="-633.7583" gradientTransform="matrix(1 0 0 -1 246.7271 -588.7695)">
				<stop  offset="0" style="stop-color:#5F5D5C"/>
				<stop  offset="1" style="stop-color:#181500"/>
			</linearGradient>
			<polygon fill="url(#SVGID_8_)" points="63.306,46.858 63.305,44.989 65.174,44.989 65.174,46.858 			"/>
			
				<linearGradient id="SVGID_9_" gradientUnits="userSpaceOnUse" x1="-176.8745" y1="-636.8276" x2="-176.8745" y2="-634.4712" gradientTransform="matrix(1 0 0 -1 246.7271 -588.7695)">
				<stop  offset="0" style="stop-color:#5F5D5C"/>
				<stop  offset="1" style="stop-color:#181500"/>
			</linearGradient>
			<polygon fill="url(#SVGID_9_)" points="68.676,47.481 69.252,45.702 71.029,46.28 70.453,48.058 			"/>
			
				<linearGradient id="SVGID_10_" gradientUnits="userSpaceOnUse" x1="-171.8301" y1="-639.5649" x2="-171.8301" y2="-636.9546" gradientTransform="matrix(1 0 0 -1 246.7271 -588.7695)">
				<stop  offset="0" style="stop-color:#5F5D5C"/>
				<stop  offset="1" style="stop-color:#181500"/>
			</linearGradient>
			<polygon fill="url(#SVGID_10_)" points="73.592,49.696 74.689,48.185 76.202,49.284 75.102,50.795 			"/>
			
				<linearGradient id="SVGID_11_" gradientUnits="userSpaceOnUse" x1="-167.8062" y1="-643.5728" x2="-167.8062" y2="-640.9614" gradientTransform="matrix(1 0 0 -1 246.7271 -588.7695)">
				<stop  offset="0" style="stop-color:#5F5D5C"/>
				<stop  offset="1" style="stop-color:#181500"/>
			</linearGradient>
			<polygon fill="url(#SVGID_11_)" points="77.615,53.291 79.13,52.192 80.227,53.703 78.716,54.803 			"/>
			
				<linearGradient id="SVGID_12_" gradientUnits="userSpaceOnUse" x1="-165.1782" y1="-648.481" x2="-165.1782" y2="-646.1274" gradientTransform="matrix(1 0 0 -1 246.7271 -588.7695)">
				<stop  offset="0" style="stop-color:#5F5D5C"/>
				<stop  offset="1" style="stop-color:#181500"/>
			</linearGradient>
			<polygon fill="url(#SVGID_12_)" points="80.371,57.934 82.148,57.358 82.727,59.135 80.949,59.711 			"/>
			
				<linearGradient id="SVGID_13_" gradientUnits="userSpaceOnUse" x1="-164.2104" y1="-653.7944" x2="-164.2104" y2="-651.895" gradientTransform="matrix(1 0 0 -1 246.7271 -588.7695)">
				<stop  offset="0" style="stop-color:#5F5D5C"/>
				<stop  offset="1" style="stop-color:#181500"/>
			</linearGradient>
			<polygon fill="url(#SVGID_13_)" points="81.566,63.157 83.435,63.125 83.467,64.994 81.6,65.025 			"/>
			
				<linearGradient id="SVGID_14_" gradientUnits="userSpaceOnUse" x1="-165.2935" y1="-660.27" x2="-165.2935" y2="-657.8735" gradientTransform="matrix(1 0 0 -1 246.7271 -588.7695)">
				<stop  offset="0" style="stop-color:#5F5D5C"/>
				<stop  offset="1" style="stop-color:#181500"/>
			</linearGradient>
			<polygon fill="url(#SVGID_14_)" points="80.875,69.104 82.631,69.743 81.99,71.501 80.236,70.86 			"/>
			
				<linearGradient id="SVGID_15_" gradientUnits="userSpaceOnUse" x1="-168.0654" y1="-665.3481" x2="-168.0654" y2="-662.7251" gradientTransform="matrix(1 0 0 -1 246.7271 -588.7695)">
				<stop  offset="0" style="stop-color:#5F5D5C"/>
				<stop  offset="1" style="stop-color:#181500"/>
			</linearGradient>
			<polygon fill="url(#SVGID_15_)" points="78.5,73.956 79.973,75.106 78.82,76.579 77.351,75.429 			"/>
			
				<linearGradient id="SVGID_16_" gradientUnits="userSpaceOnUse" x1="-172.1938" y1="-669.1489" x2="-172.1938" y2="-666.5454" gradientTransform="matrix(1 0 0 -1 246.7271 -588.7695)">
				<stop  offset="0" style="stop-color:#5F5D5C"/>
				<stop  offset="1" style="stop-color:#181500"/>
			</linearGradient>
			<polygon fill="url(#SVGID_16_)" points="74.763,77.776 75.834,79.31 74.305,80.38 73.232,78.851 			"/>
			
				<linearGradient id="SVGID_17_" gradientUnits="userSpaceOnUse" x1="-177.3081" y1="-671.4692" x2="-177.3081" y2="-669.1372" gradientTransform="matrix(1 0 0 -1 246.7271 -588.7695)">
				<stop  offset="0" style="stop-color:#5F5D5C"/>
				<stop  offset="1" style="stop-color:#181500"/>
			</linearGradient>
			<polygon fill="url(#SVGID_17_)" points="70.041,80.368 70.586,82.153 68.801,82.7 68.252,80.913 			"/>
			
				<linearGradient id="SVGID_18_" gradientUnits="userSpaceOnUse" x1="-182.8735" y1="-672.0376" x2="-182.8735" y2="-670.1685" gradientTransform="matrix(1 0 0 -1 246.7271 -588.7695)">
				<stop  offset="0" style="stop-color:#5F5D5C"/>
				<stop  offset="1" style="stop-color:#181500"/>
			</linearGradient>
			<polygon fill="url(#SVGID_18_)" points="64.789,81.399 64.789,83.269 62.919,83.269 62.919,81.399 			"/>
			
				<linearGradient id="SVGID_19_" gradientUnits="userSpaceOnUse" x1="-188.4863" y1="-671.3228" x2="-188.4863" y2="-668.9673" gradientTransform="matrix(1 0 0 -1 246.7271 -588.7695)">
				<stop  offset="0" style="stop-color:#5F5D5C"/>
				<stop  offset="1" style="stop-color:#181500"/>
			</linearGradient>
			<polygon fill="url(#SVGID_19_)" points="59.418,80.776 58.842,82.554 57.064,81.976 57.643,80.198 			"/>
			
				<linearGradient id="SVGID_20_" gradientUnits="userSpaceOnUse" x1="-193.5293" y1="-668.8403" x2="-193.5293" y2="-666.229" gradientTransform="matrix(1 0 0 -1 246.7271 -588.7695)">
				<stop  offset="0" style="stop-color:#5F5D5C"/>
				<stop  offset="1" style="stop-color:#181500"/>
			</linearGradient>
			<polygon fill="url(#SVGID_20_)" points="54.504,78.56 53.404,80.071 51.893,78.974 52.991,77.46 			"/>
			
				<linearGradient id="SVGID_21_" gradientUnits="userSpaceOnUse" x1="-197.5552" y1="-664.8345" x2="-197.5552" y2="-662.2231" gradientTransform="matrix(1 0 0 -1 246.7271 -588.7695)">
				<stop  offset="0" style="stop-color:#5F5D5C"/>
				<stop  offset="1" style="stop-color:#181500"/>
			</linearGradient>
			<polygon fill="url(#SVGID_21_)" points="50.477,74.968 48.966,76.065 47.868,74.554 49.378,73.454 			"/>
			
				<linearGradient id="SVGID_22_" gradientUnits="userSpaceOnUse" x1="-200.1826" y1="-659.6685" x2="-200.1826" y2="-657.313" gradientTransform="matrix(1 0 0 -1 246.7271 -588.7695)">
				<stop  offset="0" style="stop-color:#5F5D5C"/>
				<stop  offset="1" style="stop-color:#181500"/>
			</linearGradient>
			<polygon fill="url(#SVGID_22_)" points="47.723,70.323 45.945,70.899 45.367,69.122 47.145,68.544 			"/>
		</g>
		<g>
			<g>
				
					<linearGradient id="SVGID_23_" gradientUnits="userSpaceOnUse" x1="-180.1357" y1="-667.5479" x2="-180.1357" y2="-638.4727" gradientTransform="matrix(1 0 0 -1 246.7271 -588.7695)">
					<stop  offset="0" style="stop-color:#5F5D5C"/>
					<stop  offset="1" style="stop-color:#181500"/>
				</linearGradient>
				<path id="SVGID_26_" fill="url(#SVGID_23_)" d="M68.102,50.531c-0.123-0.125-0.277-0.096-0.455-0.112
					c-0.451-0.047-0.943-0.238-1.387-0.305c-0.016,0.004-0.037,0.001-0.038,0.019c0.212,0.136,0.444,0.136,0.74,0.172
					C67.35,50.349,67.716,50.588,68.102,50.531z M73.686,55.887c-0.016,0.004-0.023,0.015-0.02,0.037
					c0.092,0.125,0.193,0.271,0.305,0.398c0.1,0.117,0.219,0.325,0.379,0.304C74.244,56.276,74.034,55.928,73.686,55.887z
					 M71.9,55.525c-0.098-0.179-0.15-0.405-0.229-0.608c-0.13,0.027-0.221,0.095-0.32,0.152c-0.027,0.184-0.062,0.357-0.152,0.476
					C71.367,55.706,71.779,55.796,71.9,55.525z M65.178,54.462c-0.234-0.03-0.396-0.017-0.59-0.02
					c-0.037,0.036-0.041,0.11-0.094,0.134c-0.485-0.096-0.615,0.249-0.932,0.38c0.027,0.26,0.263,0.308,0.477,0.38
					c0.062-0.072,0.176-0.091,0.189-0.207c0.008-0.066-0.096-0.119-0.037-0.172c0.068,0.13,0.15-0.047,0.246-0.058
					c0.021,0.155-0.145,0.269-0.133,0.474c-0.15-0.002-0.175,0.117-0.207,0.229c0.043,0.088,0.16,0.104,0.264,0.135
					c-0.087,0.007-0.145,0.045-0.229,0.056c-0.201-0.073-0.686-0.431-0.777-0.133c0.004,0.026,0.094-0.019,0.151,0
					c0.081,0.14,0.154,0.288,0.228,0.437c0.176-0.087,0.307,0.009,0.418,0.037c0.349,0.091,0.506-0.135,0.778-0.037
					c0.021-0.078,0.032-0.176-0.019-0.229c-0.189,0.064-0.216-0.135-0.324-0.152c0.078-0.056,0.287,0.078,0.4-0.037
					c0.049-0.082,0.08-0.208,0.039-0.323c0.072-0.122,0.201-0.189,0.379-0.208c0.198-0.19,0.152-0.525,0.25-0.797
					C65.488,54.448,65.293,54.27,65.178,54.462z M63.336,56.436c0.064,0.012,0.059,0.094,0.094,0.133
					c0.181-0.04,0.229-0.214,0.342-0.32c-0.064-0.036-0.053-0.15-0.133-0.172c-0.062,0.105-0.258,0.069-0.322,0.172
					C63.344,56.318,63.318,56.396,63.336,56.436z M63.336,50.075c0.002,0.172,0.482,0.167,0.569,0.02
					C63.741,50.07,63.506,50.028,63.336,50.075z M65.994,54.709c-0.04,0.168-0.186,0.23-0.248,0.379
					c-0.094-0.032-0.131,0.029-0.207,0.057c0.029,0.06,0.01,0.107-0.021,0.153c0.245,0.168,0.567,0.259,0.969,0.265
					c0.063-0.023,0.072-0.105,0.151-0.112c0.539,0.036,0.743,0.41,1.084,0.646c0.098,0.014,0.125-0.041,0.206-0.04
					c0.036,0.032,0.048,0.081,0.038,0.154c-0.02,0.043-0.127-0.002-0.113,0.074c0.038,0.21,0.469,0.026,0.492,0.248
					c-0.013,0.061-0.071,0.079-0.074,0.152c0.135,0.423,0.46,0.671,0.855,0.856c0.343,0.159,0.475,0.416,0.893,0.416
					c0.188-0.076,0.34-0.191,0.38-0.416c-0.099-0.34-0.407-0.467-0.419-0.895c0.059-0.054,0.123-0.104,0.19-0.15
					c0.011-0.105,0.03-0.199,0.056-0.285c-0.193-0.402,0.148-0.682,0.285-0.932c-0.037-0.192-0.17-0.285-0.267-0.398
					c-0.056-0.065-0.053-0.123-0.114-0.171c-0.029-0.024-0.088-0.024-0.132-0.058c-0.193-0.148-0.315-0.407-0.457-0.53
					c-0.097-0.087-0.267-0.154-0.378-0.248c-0.104-0.086-0.13-0.194-0.25-0.209c-0.086-0.021-0.073,0.053-0.152,0.038
					c-0.133-0.198-0.274-0.383-0.38-0.607c-0.081,0.017-0.09-0.036-0.152-0.037c0.019,0.164-0.345,0.093-0.342,0.302
					c-0.165-0.004-0.284-0.055-0.473-0.037c-0.144,0.237-0.361,0.399-0.665,0.476c-0.012,0.075,0.018,0.108,0.02,0.17
					c-0.048,0.018-0.082,0.045-0.154,0.038c-0.029,0.237-0.327,0.204-0.436,0.36c0.018,0.099,0.066,0.162,0.078,0.266
					C66.169,54.656,66.121,54.722,65.994,54.709z M76.193,57.424c-0.121-0.251-0.329-0.444-0.42-0.665
					c-0.112-0.271-0.081-0.513-0.229-0.722c0.105,0.059,0.16-0.037,0.283-0.019c0.062-0.156-0.076-0.3-0.189-0.437
					c0.01,0.045-0.113,0.027-0.111,0.114c-0.14-0.071-0.24-0.179-0.288-0.342c0.075,0.005,0.071-0.069,0.095-0.114
					c0.146,0.02,0.21,0.188,0.297,0.258c-0.373-0.487-0.773-0.947-1.203-1.382c-0.305-0.283-0.594-0.562-0.888-0.833
					c-0.86-0.742-1.806-1.387-2.819-1.919c-0.176-0.082-0.354-0.163-0.532-0.245c-0.421-0.19-0.84-0.383-1.272-0.556
					c-1.117-0.407-2.293-0.685-3.517-0.815c-2.237-0.161-4.489,0.111-6.091,0.765c-1.008,0.411-1.989,0.778-2.812,1.33
					c0.205-0.104,0.364-0.255,0.608-0.323c-0.362,0.283-0.715,0.577-1.045,0.894c0.028,0.01,0.098-0.022,0.095,0.019
					c-0.149,0.14-0.384,0.296-0.342,0.513c-0.134,0.017-0.164-0.14-0.284-0.151c-0.098-0.012-0.285,0.094-0.418,0.168
					c-0.247,0.141-0.519,0.239-0.607,0.459c0.355,0.094,0.588-0.258,0.967-0.115c-0.024,0.126-0.041,0.258-0.037,0.418
					c0.121,0.041,0.098,0.119,0.113,0.246c0.185-0.074,0.352-0.169,0.59-0.188c-0.028,0.274,0.027,0.465,0.189,0.55
					c0.108-0.241,0.256-0.423,0.4-0.625c0.071-0.105,0.105-0.222,0.17-0.342c0.102-0.188,0.387-0.427,0.171-0.665
					c0.319-0.187,0.467-0.548,0.816-0.704c0-0.05-0.007-0.109,0.02-0.133c0.097-0.035,0.206-0.061,0.229-0.171
					c0.193-0.151,0.444-0.206,0.626-0.38c0.037-0.033,0.055-0.081,0.094-0.113c0.097-0.075,0.23-0.113,0.344-0.19
					c0.105-0.071,0.197-0.183,0.303-0.247c0.336-0.203,0.8-0.271,1.215-0.418c0.418-0.146,0.869-0.231,1.291-0.305
					c-0.016,0.019-0.131,0.029-0.075,0.058c0.169-0.038,0.303-0.005,0.476-0.018c0.234-0.021,0.445-0.141,0.684-0.172
					c0.222-0.029,0.492,0.022,0.742,0c0.35-0.03,0.842-0.111,1.213-0.058c0.051,0.008-0.041,0.037,0.037,0.039
					c0.344,0.004,0.656,0.046,0.951,0.056c0.072,0.003,0.063,0.089,0.133,0.095c0.562-0.042,0.938,0.129,1.329,0.229
					c0.438,0.115,0.79,0.22,1.16,0.361c0.186,0.071,0.409,0.135,0.55,0.208c0.064,0.033,0.104,0.108,0.172,0.134
					c0.101,0.039,0.225,0.021,0.322,0.058c0.154,0.056,0.289,0.177,0.437,0.247c0.188,0.086,0.435,0.107,0.55,0.302
					c-0.442,0.044-0.521-0.44-1.006-0.417c0.051,0.166,0.408,0.359,0.284,0.589c0.28,0.212,0.495,0.49,0.855,0.626
					c0.099,0.203,0.29,0.23,0.476,0.359c0.098,0.072,0.172,0.188,0.265,0.249c0.164,0.104,0.362,0.144,0.494,0.267
					c0.149,0.137,0.201,0.368,0.341,0.531c0.199,0.228,0.434,0.324,0.704,0.455c0.013-0.089-0.025-0.228,0.019-0.285
					c0.177-0.005,0.293,0.051,0.436,0.076c-0.204-0.409-0.592-0.635-0.947-0.893c-0.556-0.129-0.849-0.62-1.234-0.854
					c0.379,0.08,0.497,0.424,0.875,0.512c0.066,0.03,0.01-0.064,0.055-0.059c0.641,0.419,1.371,0.847,1.557,1.652
					c-0.145-0.108-0.316-0.289-0.551-0.246c0.205,0.182,0.462,0.311,0.666,0.493c0,0.052-0.01,0.11,0.017,0.134
					c0.132,0.117,0.171,0.284,0.265,0.437c0.198,0.31,0.525,0.577,0.591,0.931c0.034,0.176-0.005,0.355,0.096,0.531
					c0.663,0.098,0.85,0.771,0.665,1.387c0.289,0.342,0.48,0.785,0.775,1.121c0.046-0.143,0.174-0.143,0.211-0.267
					c0.023-0.078,0.004-0.222,0-0.284C76.549,58.083,76.373,57.812,76.193,57.424z M75.529,71.153
					c-0.105-0.045-0.678-0.09-0.762-0.076c-0.227,0.041-0.404,0.275-0.569,0.324c-0.063-0.02-0.06-0.105-0.152-0.096
					c-0.325,0.098-0.698,0.016-0.987,0.189c0.031-0.402-0.184-0.896-0.627-0.871c-0.275,0.012-0.49,0.242-0.796,0.246
					c0-0.084,0.005-0.172-0.021-0.229H71.35c-0.262-0.213-0.561-0.387-0.971-0.457c-0.171,0.105-0.389,0.141-0.644,0.135
					c-0.476-0.014-1.021-0.039-1.405,0.133c0.035-0.068,0.062-0.188,0-0.246c-0.483,0.244-0.998,0.457-1.253,0.93
					c-0.249,0.014-0.439-0.094-0.664-0.059c-0.094,0.018-0.171,0.109-0.267,0.115c-0.267,0.018-0.469-0.174-0.721-0.246
					c0.154-0.365,0.063-0.836-0.096-1.141c-0.367-0.098-0.856-0.154-1.252-0.113c0.09-0.418,0.283-0.729,0.455-1.062
					c-0.275-0.125-0.517-0.164-0.816-0.037c-0.248,0.104-0.451,0.371-0.685,0.416c-0.263,0.051-0.595-0.062-0.892-0.113
					c-0.031-0.162,0.02-0.264-0.02-0.418c-0.033-0.135-0.18-0.234-0.189-0.361c-0.01-0.105,0.072-0.209,0.095-0.303
					c0.069-0.305,0.104-0.627,0.114-0.969c0.113-0.098,0.202-0.25,0.34-0.285c0.408-0.104,0.569,0.133,0.837,0.152
					c0.112,0.008,0.275-0.016,0.38-0.057c0.088-0.035,0.143-0.156,0.266-0.189c0.303-0.086,0.601-0.062,0.908-0.076
					c0.226-0.01,0.281,0.035,0.344,0.271c0.081,0.307,0.316,0.463,0.379,0.77c0.021,0.1,0.275-0.125,0.293-0.148
					c0.094-0.145,0.145-0.418,0.096-0.586c-0.035-0.123-0.125-0.217-0.172-0.334c-0.047-0.119-0.031-0.236-0.08-0.354
					c0.176-0.335,0.578-0.405,0.814-0.663c0.076-0.084,0.172-0.221,0.23-0.322c0.078-0.148,0.209-0.418,0.265-0.609
					c0.07-0.24-0.042-0.478,0.075-0.761c0.27-0.108,0.551-0.207,0.777-0.358c-0.045-0.053-0.099-0.091-0.113-0.172
					c0.084-0.127,0.195-0.298,0.286-0.361c0.054-0.367,0.104-0.742,0.169-1.101c0.136-0.046,0.229-0.142,0.4-0.152
					c-0.007-0.069-0.076-0.077-0.057-0.172c-0.144-0.001-0.443,0.004-0.492-0.152c0.255-0.346,0.898-0.19,1.214-0.474
					c0.026-0.099,0.055-0.199,0.114-0.266c0.061,0.045,0.105,0.004,0.133,0.056c-0.042,0.185-0.137,0.415-0.076,0.589
					c0.205-0.143,0.475-0.222,0.664-0.379c0.003,0.02,0.021,0.029,0.037,0.037c0.012-0.073-0.119-0.062-0.208-0.076
					c-0.196-0.221-0.306-0.531-0.437-0.816c-0.383-0.278-0.951-0.333-1.33-0.608c-0.175-0.127-0.229-0.354-0.436-0.398
					c-0.104,0.106-0.119,0.301-0.25,0.379c-0.139,0.002-0.281,0.005-0.397-0.018c-0.112-0.294-0.267-0.546-0.476-0.741
					c-0.313-0.054-0.736-0.073-0.93,0.096c-0.012,0.572-0.012,1.136,0.322,1.366c-0.089,0.188-0.326,0.278-0.342,0.532
					c-0.011,0.196,0.238,0.581-0.056,0.701c-0.197-0.188-0.391-0.381-0.341-0.814c-0.205-0.05-0.387-0.131-0.59-0.21
					c-0.182-0.071-0.389-0.205-0.568-0.228c-0.209-0.027-0.436,0.066-0.627-0.076c-0.096-0.203-0.276-0.307-0.287-0.549
					c-0.015-0.406,0.422-0.59,0.572-0.876c0.248-0.03,0.419-0.237,0.549-0.321c-0.053,0.242,0.076,0.381,0.246,0.454
					c0.104-0.054,0.151-0.166,0.229-0.246c0.089,0.05,0.19,0.086,0.322,0.095v-0.17c-0.267-0.107-0.532-0.214-0.685-0.437
					c0.271-0.115,0.729-0.234,0.476-0.646c0.069,0.003,0.098-0.157,0.188-0.191c0.259,0.213,0.771,0.167,1.008,0.401
					c-0.028,0.156-0.088,0.279-0.114,0.437c-0.167,0.049-0.284,0.146-0.456,0.189c0.012,0.089-0.03,0.122-0.038,0.19
					c0.185-0.021,0.358-0.045,0.532-0.075c0.264,0.185,0.561,0.335,0.91,0.436c0.075-0.053,0.164-0.091,0.268-0.114
					c0.021-0.198,0.228-0.272,0.172-0.493c-0.193-0.093-0.414-0.157-0.495-0.36c0.247-0.015,0.39,0.105,0.606,0.019
					c0.004-0.11-0.033-0.179-0.035-0.284c-0.174-0.113-0.34-0.231-0.627-0.229c-0.217-0.176-0.405-0.38-0.723-0.455
					c-0.037,0.05-0.084,0.092-0.189,0.075c-0.182-0.137-0.271-0.372-0.494-0.456c-0.211-0.078-0.484-0.054-0.777-0.113
					c-0.086,0.068-0.098,0.206-0.152,0.303c-0.037-0.082-0.077-0.165-0.152-0.208c-0.096-0.002-0.156,0.032-0.264,0.019
					c-0.139,0.189-0.233,0.596-0.04,0.797c0.196,0.066,0.375,0.047,0.589,0.075c-0.1,0.122-0.218,0.229-0.361,0.306
					c-0.121-0.056-0.211-0.182-0.36-0.153c-0.224-0.159-0.344-0.416-0.53-0.608c-0.127,0.118-0.127,0.453,0.057,0.513
					c-0.039,0.077,0.031,0.196-0.021,0.284c-0.085-0.065-0.125,0.085-0.188,0.039c0.038-0.145,0.061-0.334-0.037-0.418
					c-0.277,0.009-0.395,0.176-0.553,0.304c-0.395-0.045-0.662-0.193-0.988,0c-0.069-0.062-0.191-0.073-0.188-0.209
					c0.346,0.034,0.832,0.119,1.062-0.133c-0.111,0.019-0.117-0.204-0.209-0.266c0.016-0.182-0.037-0.293-0.037-0.457
					c-0.117-0.054-0.17-0.201-0.341-0.209c-0.06-0.002-0.126,0.054-0.19,0.058c-0.297,0.02-0.426-0.098-0.531-0.265
					c0.018-0.053,0.039-0.103,0.038-0.173c-0.136-0.062-0.2-0.037-0.362-0.018c-0.1-0.07-0.158-0.184-0.285-0.227
					c-0.172,0.179-0.305,0.401-0.455,0.605c0.111,0.173,0.427,0.025,0.607,0.133c0.088-0.083,0.145-0.195,0.269-0.246
					c0.033,0.113-0.106,0.144-0.134,0.285c-0.032,0.159,0.104,0.4-0.038,0.531c-0.269-0.207-0.74-0.209-0.931-0.494
					c-0.033-0.007-0.094,0.053-0.114,0c-0.025-0.06,0.048-0.113,0-0.133c-0.245,0.147-0.419-0.093-0.74-0.038
					c-0.107-0.087-0.228-0.165-0.38-0.209c-0.026-0.237-0.096-0.4-0.266-0.511c-0.285-0.186-0.607-0.164-0.342-0.552
					c-0.102-0.082-0.137-0.202-0.133-0.342c-0.266-0.099-0.578-0.135-0.893-0.094c-0.136,0.229-0.447,0.416-0.759,0.302
					c-0.015,0.069-0.026,0.167-0.039,0.285c0.048,0.042,0.093,0.086,0.134,0.136c-0.093,0.009-0.093,0.108-0.172,0.132
					c-0.08-0.01-0.109-0.068-0.188-0.077c-0.319,0.056-0.361,0.169-0.532,0.438c-0.156,0.244-0.189,0.51-0.268,0.758
					c0.047,0.012,0.139-0.021,0.154,0.021c-0.104,0.151-0.547,0.199-0.723,0.095c0.035,0.173,0.164,0.251,0.285,0.34
					c0.197-0.088,0.455-0.159,0.625-0.035c-0.138,0.11,0.101,0.182-0.039,0.302c0.135-0.021,0.166-0.137,0.191-0.267
					c0.158-0.061,0.248-0.335,0.436-0.245c-0.023,0.111-0.131,0.229-0.131,0.302c0.175,0.086,0.305-0.014,0.455-0.057
					c-0.02,0.062-0.053,0.114-0.057,0.19c0.064-0.009,0.107,0.009,0.152,0.019c0.172,0.41,0.598,0.568,0.588,1.16
					c0.061-0.004,0.115-0.001,0.133,0.037c0.207,0.465,0.02,1.2,0.135,1.69c-0.281,0.193-0.041,0.403,0.018,0.588
					c0.131,0.407-0.082,0.793-0.209,1.103c-0.067,0.166-0.188,0.309-0.246,0.478c-0.056,0.152-0.024,0.299-0.021,0.464
					c0.01,0.377-0.015,0.758,0.054,1.129c0.016,0.077,0.028,0.159,0.038,0.238c0.009,0.058-0.013,0.163-0.009,0.2
					c0.015,0.123,0.153,0.17,0.227,0.252c0.07,0.081,0.119,0.19,0.186,0.278c0.078,0.102,0.205,0.191,0.266,0.322
					c0.09,0.193,0.039,0.395,0.076,0.592c0.02,0.109,0.082,0.107,0.109,0.188c0.025,0.07-0.02,0.125-0.015,0.197
					c0.005,0.08,0.056,0.15,0.093,0.219c0.049,0.094,0.065,0.203,0.117,0.293c0.049,0.08,0.131,0.115,0.178,0.186
					c0.12,0.176,0.162,0.402,0.295,0.586c0.127,0.174,0.253,0.367,0.455,0.361c0.006-0.08,0.096-0.424-0.017-0.475
					c-0.214-0.094-0.401-0.383-0.517-0.574c-0.062-0.102-0.197-0.287-0.224-0.387c-0.058-0.221,0.113-0.501,0.04-0.69
					c0.112,0.02,0.105,0.137,0.129,0.227c0.075,0.306,0.163,0.603,0.246,0.874c0.345,0.152,0.519,0.35,0.724,0.627
					c0.112,0.152,0.251,0.309,0.319,0.455c0.107,0.217,0.075,0.455,0.153,0.686c0.079,0.227,0.315,0.375,0.381,0.588
					c0.606,0.221,1.203,0.455,1.672,0.816c0.415-0.252,0.7,0.064,0.986,0.229c0.571,0.324,1.545,0.215,1.728,0.834
					c0.072,0.018,0.125,0.055,0.152,0.115c0.023,0.078-0.039,0.074-0.037,0.133c0.22,0.086,0.424,0.186,0.531,0.381
					c0.318,0.141,0.806,0.096,1.119-0.021c0.082,0.135,0.291,0.143,0.38,0.268c0.007,0.166,0.034,0.275-0.017,0.4
					c-0.052,0.125-0.299,0.535-0.381,0.627c-0.111,0.127-0.275,0.193-0.34,0.34c-0.098,0.225-0.033,0.434,0.02,0.627
					c-0.291,0.119-0.143,0.475-0.038,0.703c0.149,0.039,0.267,0.111,0.397,0.17c0.121,0.488,0.57,0.646,0.664,1.16
					c0.357,0.146,0.755-0.096,1.064,0.131c0.013,0.074,0.047,0.121,0.057,0.193c-0.111,0.148-0.207,0.309-0.248,0.529
					c-0.438,0.461-0.512,1.283-1.234,1.465c-0.043,0.133-0.108,0.244-0.17,0.359c0.028,0.002,0.07-0.008,0.076,0.02
					c-0.174,0.148-0.646,0.098-0.664,0.342c0.215,0.078,0.513-0.062,0.777-0.059c0.047-0.027-0.035-0.061,0.039-0.055
					c0.711-0.248,1.381-0.496,2.014-0.857c0.262-0.09,0.482-0.127,0.722-0.227c0.229-0.098,0.354-0.283,0.552-0.398
					c0.129-0.078,0.264-0.119,0.396-0.211c0.48-0.324,1.059-0.576,1.404-1.004c0.066-0.23,0.223-0.355,0.381-0.477
					c0.655-0.5,1.454-1,1.899-1.689c0.159-0.244,0.179-0.549,0.341-0.873c0.279-0.555,0.918-0.918,1.102-1.615
					C75.606,71.269,75.577,71.177,75.529,71.153z M66.186,62.969c0.072,0.002,0.084,0.063,0.17,0.057
					c0.026-0.015,0.026-0.061,0.037-0.096h0.074c0.049,0.057,0.016,0.077,0.02,0.171c-0.075,0.043-0.176,0.069-0.285,0.075
					C66.162,63.133,66.152,63.034,66.186,62.969z M65.605,62.69c0.054,0.066,0.08,0.154,0.061,0.281
					c-0.139,0.039-0.291,0.05-0.426-0.005c0.089-0.198-0.182-0.417-0.344-0.491c0.143-0.205,0.225-0.131,0.389-0.022
					C65.414,62.542,65.533,62.6,65.605,62.69z M64.439,63.524c-0.041,0.076-0.075,0.157-0.083,0.241
					c-0.325,0.049-0.358-0.233-0.272-0.478c0.035-0.102,0.486-0.719,0.486-0.719c0.055,0.041,0.111,0.022,0.152,0.04
					c-0.002,0.219-0.041,0.424-0.126,0.626C64.556,63.328,64.492,63.423,64.439,63.524z M64.664,61.962
					c0.076,0.103,0.15,0.206,0.19,0.343c-0.425,0.006-0.724,0.105-1.14,0.076c-0.019-0.059-0.092-0.061-0.096-0.134
					C63.975,62.136,64.215,61.757,64.664,61.962z M76.539,56.84c-0.051-0.081-0.102-0.16-0.16-0.232
					C76.434,56.681,76.486,56.759,76.539,56.84z M78.565,63.558c-0.073-0.677-0.138-1.325-0.228-1.976
					c-0.035-0.244-0.053-0.501-0.091-0.742c-0.058-0.225-0.122-0.449-0.192-0.672c-0.086-0.222-0.186-0.447-0.27-0.674
					c-0.086-0.232-0.159-0.479-0.236-0.713c-0.235-0.558-0.504-1.096-0.801-1.616c-0.07-0.114-0.141-0.222-0.209-0.325
					c0.119,0.199,0.219,0.418,0.297,0.66c-0.118-0.104-0.243-0.401-0.36-0.38c0.11,0.587,0.228,1.164,0.321,1.767
					c-0.029,0.066-0.148,0.04-0.15,0.133c0.115,0.334,0.193,0.704,0.229,1.12c0.158,0.304,0.365,0.651,0.379,1.025
					c0.012,0.255-0.066,0.504-0.074,0.739c-0.014,0.299-0.004,0.622,0.038,0.913c0.066,0.47,0.336,0.911,0.397,1.404
					c0.021,0.184-0.033,0.333,0,0.493c0.037,0.197,0.182,0.4,0.152,0.629c0.076,0.029,0.193,0.021,0.266,0.055
					c0.053,0.113,0.101,0.229,0.114,0.38c0.078,0.029,0.151,0.064,0.229,0.096c0.061-0.462,0.294-0.888,0.302-1.349
					C78.686,64.22,78.601,63.883,78.565,63.558z M76.248,56.759c-0.105-0.084-0.095-0.286-0.248-0.323
					C76.059,56.557,76.131,56.763,76.248,56.759z M74.711,56.418c-0.039-0.291-0.145-0.678-0.305-0.911
					c-0.126-0.045-0.244-0.099-0.436-0.077c-0.271-0.14-0.533-0.292-0.817-0.419c-0.013,0.045-0.063,0.053-0.077,0.097
					c0.115,0.133,0.205,0.29,0.342,0.399c0.035-0.049,0.074-0.091,0.153-0.097c0.46,0.25,0.78,0.639,1.081,1.045
					C74.662,56.433,74.678,56.417,74.711,56.418z M67.209,68.665c0.092-0.078,0.109-0.232,0.266-0.246
					c-0.126-0.053-0.252-0.215-0.417-0.246c-0.128-0.025-0.28,0.025-0.419,0.016c-0.45-0.02-0.928-0.334-1.33-0.168
					c-0.026,0.062-0.05,0.127-0.076,0.188c0.344,0.086,0.688,0.102,1.008,0.229c0.186,0.076,0.391,0.285,0.57,0.285
					C66.956,68.726,67.062,68.548,67.209,68.665z M55.455,55.47c-0.027,0.05-0.1,0.05-0.096,0.132
					C55.402,55.581,55.492,55.508,55.455,55.47z M69.259,68.571c-0.024,0.215,0.112,0.258,0.269,0.248
					c0.016-0.109,0.092-0.16,0.132-0.248C69.527,68.464,69.406,68.519,69.259,68.571z M56.954,59.495
					c0.079-0.01,0.112-0.066,0.172-0.095c-0.033-0.133,0.024-0.146,0.075-0.228c-0.127,0.067-0.055-0.092-0.152-0.097
					c-0.004,0.028-0.04,0.023-0.057,0.039C57.053,59.273,56.923,59.311,56.954,59.495z M57.581,53.133
					c-0.073,0.014-0.154,0.021-0.188,0.074c0.026,0.012,0.046,0.03,0.057,0.058C57.523,53.25,57.551,53.191,57.581,53.133z
					 M69.488,68.989c0.016-0.029,0.046-0.041,0.095-0.037c-0.002-0.021,0.003-0.053-0.019-0.059
					C69.558,68.933,69.412,68.931,69.488,68.989z M66.582,68.989v0.189c0.16,0.109,0.434-0.025,0.476-0.209
					C66.885,68.942,66.727,68.915,66.582,68.989z M67.703,68.665c0.028,0.062,0.07,0.109,0.095,0.172
					c0.427,0.182,0.785,0.033,1.196-0.074c0.014-0.119-0.06-0.143-0.055-0.248c-0.363-0.029-0.681-0.053-1.104-0.076
					C67.814,68.536,67.731,68.573,67.703,68.665z M59.311,51.197c-0.068-0.012-0.1,0.016-0.115,0.057
					C59.246,51.26,59.355,51.164,59.311,51.197z M68.614,51.651c-0.149-0.02-0.249-0.093-0.399-0.113
					c0.004,0.076,0.058,0.106,0.057,0.189c0.09,0.025,0.186,0.042,0.283,0.057c-0.031,0.063-0.098,0.09-0.132,0.153
					c0.132,0.269,0.583,0.301,0.835,0.114c-0.16-0.144-0.355-0.251-0.625-0.287C68.598,51.737,68.66,51.692,68.614,51.651z
					 M63.241,50.056c-0.076-0.054-0.195,0.01-0.267,0.019c-0.062-0.014-0.145,0.023-0.039,0.02
					C63.02,50.116,63.221,50.186,63.241,50.056z M62.86,55.374c0.12,0,0.209-0.031,0.284-0.075v-0.115
					c-0.188,0.019-0.14-0.2-0.32-0.095C62.77,55.217,62.812,55.264,62.86,55.374z M63.221,56.684
					c-0.025-0.109,0.044-0.122,0.059-0.189c-0.033-0.106-0.07-0.208-0.097-0.323c-0.096-0.043-0.149-0.132-0.267-0.152
					c-0.157,0.12-0.285,0.271-0.379,0.456C62.654,56.657,62.895,56.714,63.221,56.684z M61.988,55.582
					c-0.203-0.049-0.443-0.325-0.59-0.094c0.027,0.098,0.081,0.172,0.133,0.247c0.166-0.059,0.291,0.1,0.438,0.132
					c0.111,0.024,0.229-0.054,0.342,0.021c0.01-0.184-0.057-0.256,0-0.399C62.154,55.418,62.082,55.533,61.988,55.582z
					 M59.479,51.062c0.175-0.103,0.427-0.129,0.552-0.284C59.783,50.797,59.57,50.951,59.479,51.062z M60.924,55.334
					c0.061,0.01,0.068,0.072,0.133,0.076c0.109-0.138,0.42-0.074,0.59-0.15c-0.076-0.379-0.419-0.093-0.684-0.039
					C60.982,55.293,60.915,55.277,60.924,55.334z M62.689,55.772c0.193,0.011,0.299,0.107,0.418,0.191
					c-0.004-0.131,0.156-0.158,0.096-0.286c-0.132-0.009-0.217-0.063-0.305-0.112C62.843,55.647,62.719,55.664,62.689,55.772z"/>
			</g>
		</g>
		<g opacity="0.6">
			<path fill="#FFFFFF" d="M64.201,63.674c4.528,3.782,10.644,1.705,14.459-0.272c-0.558-7.608-6.902-13.603-14.654-13.603
				c-7.772,0-14.131,6.053-14.651,13.699C52.891,61.768,59.332,59.6,64.201,63.674z"/>
		</g>
	</g>
</g>
</svg>
