<?xml version="1.0" encoding="utf-8"?>
<!-- Generator: Adobe Illustrator 13.0.0, SVG Export Plug-In . SVG Version: 6.00 Build 14948)  -->
<!DOCTYPE svg PUBLIC "-//W3C//DTD SVG 1.1//EN" "http://www.w3.org/Graphics/SVG/1.1/DTD/svg11.dtd">
<svg version="1.1" id="Layer_1" xmlns="http://www.w3.org/2000/svg" xmlns:xlink="http://www.w3.org/1999/xlink" x="0px" y="0px"
	 width="128px" height="128px" viewBox="0 0 128 128" enable-background="new 0 0 128 128" xml:space="preserve">
<g>
	<path fill="#F2F2F2" stroke="#B3B3B3" stroke-width="2" d="M109.502,16.754H18.5c-9.342,0-16.914,7.572-16.914,16.91v67.379
		c0,9.342,7.572,16.914,16.914,16.914h91.002c9.34,0,16.912-7.572,16.912-16.914V33.664
		C126.414,24.326,118.842,16.754,109.502,16.754z"/>
	<linearGradient id="SVGID_1_" gradientUnits="userSpaceOnUse" x1="63.9351" y1="118.8447" x2="63.9351" y2="52.3439">
		<stop  offset="0.0934" style="stop-color:#D1D1D1"/>
		<stop  offset="0.431" style="stop-color:#D9D9D9"/>
		<stop  offset="0.9519" style="stop-color:#EFEFEF"/>
		<stop  offset="0.9725" style="stop-color:#F0F0F0"/>
	</linearGradient>
	<path fill="url(#SVGID_1_)" d="M38.496,82.234c-12.658,0-24.773-1.07-35.959-3.022v22.106c0,9.189,7.447,16.639,16.637,16.639
		h89.521c9.188,0,16.637-7.449,16.637-16.639V59.808C107.314,73.269,75.166,82.234,38.496,82.234z"/>
	<path fill="#B3B3B3" d="M108.934,114.94l-89.744,0.001c-9.211,0-16.678-7.469-16.678-16.681v3.288
		c0,9.213,7.467,16.68,16.678,16.68h89.744c9.209,0,16.676-7.467,16.676-16.68v-3.288
		C125.609,107.473,118.143,114.94,108.934,114.94z"/>
	<linearGradient id="SVGID_2_" gradientUnits="userSpaceOnUse" x1="64.1587" y1="17.1104" x2="64.1587" y2="49.0069">
		<stop  offset="0" style="stop-color:#5F5D5C"/>
		<stop  offset="1" style="stop-color:#181500"/>
	</linearGradient>
	<path fill="url(#SVGID_2_)" d="M125.838,45.427V34.248c0-9.229-7.482-16.712-16.713-16.712h-89.93
		c-9.232,0-16.715,7.483-16.715,16.713v11.178H125.838z"/>
	<path opacity="0.5" fill="#FFFFFF" d="M106.439,20.587H21.611c-8.709,0-15.767,7.059-15.767,15.763v4.661
		c0-8.705,7.058-15.764,15.767-15.764h84.828c8.705,0,15.764,7.059,15.764,15.764V36.35
		C122.203,27.646,115.145,20.587,106.439,20.587z"/>
	<g>
		<g>
			<polygon fill="#181512" points="10.141,70.784 52.036,70.784 52.036,73.87 10.141,73.87 			"/>
			<polygon fill="#181512" points="10.141,84.1 52.036,84.1 52.036,87.184 10.141,87.184 			"/>
			<polygon fill="#181512" points="10.141,97.413 52.036,97.413 52.036,100.499 10.141,100.499 			"/>
			<polygon fill="#181512" points="10.141,104.068 40.822,104.068 40.822,107.155 10.141,107.155 			"/>
			<polygon fill="#181512" points="10.141,77.441 40.822,77.441 40.822,80.527 10.141,80.527 			"/>
			<polygon fill="#181512" points="10.141,90.758 40.822,90.758 40.822,93.842 10.141,93.842 			"/>
		</g>
		
			<linearGradient id="SVGID_3_" gradientUnits="userSpaceOnUse" x1="-311.3521" y1="898.376" x2="-385.8885" y2="846.185" gradientTransform="matrix(1 0 0 1 412.6201 -813.9912)">
			<stop  offset="0" style="stop-color:#FF1F00"/>
			<stop  offset="1" style="stop-color:#FF9D00"/>
		</linearGradient>
		<path fill="url(#SVGID_3_)" d="M117.859,59.113c0,2.762-2.239,5-5,5H15.141c-2.761,0-5-2.238-5-5v-1.647c0-2.763,2.239-5,5-5
			h97.719c2.762,0,5,2.237,5,5V59.113L117.859,59.113z"/>
		
			<linearGradient id="SVGID_4_" gradientUnits="userSpaceOnUse" x1="-303.082" y1="908.0898" x2="-342.2933" y2="880.6338" gradientTransform="matrix(1 0 0 1 412.6201 -813.9912)">
			<stop  offset="0" style="stop-color:#FF1F00"/>
			<stop  offset="1" style="stop-color:#FF9D00"/>
		</linearGradient>
		<path fill="url(#SVGID_4_)" d="M117.859,80.637c0,2.76-2.239,5-5,5H67.005c-2.762,0-5-2.24-5-5v-0.533c0-2.762,2.238-5,5-5h45.854
			c2.761,0,5,2.238,5,5V80.637z"/>
		
			<linearGradient id="SVGID_5_" gradientUnits="userSpaceOnUse" x1="-303.0815" y1="929.6094" x2="-342.2928" y2="902.1533" gradientTransform="matrix(1 0 0 1 412.6201 -813.9912)">
			<stop  offset="0" style="stop-color:#FF1F00"/>
			<stop  offset="1" style="stop-color:#FF9D00"/>
		</linearGradient>
		<path fill="url(#SVGID_5_)" d="M117.859,102.155c0,2.762-2.239,5-5,5H67.005c-2.762,0-5-2.238-5-5v-0.533c0-2.761,2.238-5,5-5
			h45.854c2.761,0,5,2.239,5,5V102.155z"/>
	</g>
	<g>
		
			<linearGradient id="SVGID_6_" gradientUnits="userSpaceOnUse" x1="-9078.0605" y1="3723.3291" x2="-9078.0605" y2="3680.5803" gradientTransform="matrix(0.3308 -0.346 -0.3461 -0.3305 4354.2202 -1842.9312)">
			<stop  offset="0" style="stop-color:#FFD207"/>
			<stop  offset="1" style="stop-color:#FAA61A"/>
		</linearGradient>
		<path fill="url(#SVGID_6_)" d="M79.112,48.952l-35.58,37.212c0.338,0.329,1.367,1.446,1.66,3.056
			c1.732-0.141,3.668,0.451,4.135,0.889c1.666,1.596,1.139,4.295,1.139,4.295s3.068-0.357,4.558,1.216
			c0.394,0.414,0.958,1.913,1.198,3.538c1.258-0.029,2.535,1.487,2.817,1.848l35.593-37.229c0.624-0.651,0.604-1.686-0.05-2.308
			c0,0-1.463-3.191-6.048-7.57c-4.586-4.375-7.114-4.998-7.114-4.998C80.769,48.276,79.735,48.299,79.112,48.952z"/>
		
			<linearGradient id="SVGID_7_" gradientUnits="userSpaceOnUse" x1="-9005.0928" y1="3702.4619" x2="-9004.792" y2="3719.0183" gradientTransform="matrix(0.3308 -0.346 -0.3461 -0.3305 4354.2202 -1842.9312)">
			<stop  offset="0" style="stop-color:#F66B87"/>
			<stop  offset="1" style="stop-color:#FCD0D9"/>
		</linearGradient>
		<path fill="url(#SVGID_7_)" d="M88.771,38.848l-7.695,8.048c0.167,0.166,4.805,2.984,8.615,6.621
			c3.783,3.613,6.75,8.041,6.892,8.219l7.71-8.064c1.994-2.083-1.116-5.918-5.701-10.295C94.007,38.999,90.364,37.181,88.771,38.848
			z"/>
		
			<linearGradient id="SVGID_8_" gradientUnits="userSpaceOnUse" x1="-9142.6045" y1="3717.96" x2="-9138.8887" y2="3701.8567" gradientTransform="matrix(0.3308 -0.346 -0.3461 -0.3305 4354.2202 -1842.9312)">
			<stop  offset="0" style="stop-color:#FAEDB0"/>
			<stop  offset="1" style="stop-color:#FFC76E"/>
		</linearGradient>
		<path fill="url(#SVGID_8_)" d="M59.1,101.08c0,0-0.024-0.028-0.061-0.075l-0.125,0.127L59.1,101.08z"/>
		
			<linearGradient id="SVGID_9_" gradientUnits="userSpaceOnUse" x1="-9132.5342" y1="3719.1914" x2="-9128.9346" y2="3703.5916" gradientTransform="matrix(0.3308 -0.346 -0.3461 -0.3305 4354.2202 -1842.9312)">
			<stop  offset="0" style="stop-color:#FAEDB0"/>
			<stop  offset="1" style="stop-color:#FFC76E"/>
		</linearGradient>
		<path fill="url(#SVGID_9_)" d="M43.425,86.058l-0.07,0.292l0.176-0.186C43.467,86.095,43.425,86.058,43.425,86.058z"/>
		<path fill="#F6921E" d="M56.222,99.157c-0.24-1.625-0.805-3.127-1.198-3.538c-1.489-1.573-4.556-1.218-4.556-1.218
			s0.527-2.697-1.141-4.293c-0.466-0.439-2.398-1.03-4.133-0.889c-0.293-1.607-1.324-2.728-1.661-3.057l-0.175,0.186l-0.734,2.982
			c0.021,0.027,0.037,0.056,0.061,0.077l13.159,12.573c0.015,0.012,0.03,0.017,0.044,0.028l3.026-0.882l0.128-0.127
			C58.759,100.645,57.481,99.126,56.222,99.157z"/>
		
			<linearGradient id="SVGID_10_" gradientUnits="userSpaceOnUse" x1="-9146.1699" y1="3715.5469" x2="-9144.2373" y2="3702.0225" gradientTransform="matrix(0.3308 -0.346 -0.3461 -0.3305 4354.2202 -1842.9312)">
			<stop  offset="0" style="stop-color:#FAEDB0"/>
			<stop  offset="1" style="stop-color:#FFC76E"/>
		</linearGradient>
		<path fill="url(#SVGID_10_)" d="M50.466,94.403c0,0,0.527-2.699-1.139-4.295c-0.467-0.438-2.402-1.029-4.135-0.889
			c-0.293-1.607-1.322-2.727-1.66-3.056l-0.176,0.186l-0.735,2.983l-1.791,7.266l-0.517,2.094l3.143,3.012l3.142,3.002l2.071-0.6
			l7.216-2.1l3.029-0.883l0.128-0.127c-0.283-0.358-1.561-1.877-2.822-1.847c-0.24-1.624-0.805-3.124-1.199-3.536
			C53.534,94.046,50.466,94.403,50.466,94.403z"/>
		
			<linearGradient id="SVGID_11_" gradientUnits="userSpaceOnUse" x1="-9164.1592" y1="3704.0488" x2="-9166.5654" y2="3712.1711" gradientTransform="matrix(0.3308 -0.346 -0.3461 -0.3305 4354.2202 -1842.9312)">
			<stop  offset="0" style="stop-color:#231F20"/>
			<stop  offset="1" style="stop-color:#FFFFFF"/>
		</linearGradient>
		<polygon fill="url(#SVGID_11_)" points="40.321,98.71 38.259,107.155 46.603,104.714 46.599,104.709 43.456,101.707 		"/>
		
			<linearGradient id="SVGID_12_" gradientUnits="userSpaceOnUse" x1="-8641" y1="-2921.5146" x2="-8653.0605" y2="-2911.2942" gradientTransform="matrix(0.4786 -0.011 -0.0108 -0.4784 4194.1494 -1433.9998)">
			<stop  offset="0" style="stop-color:#808080"/>
			<stop  offset="1" style="stop-color:#F2F2F2"/>
		</linearGradient>
		<path fill="url(#SVGID_12_)" d="M81.14,46.762l-4.271,4.532c0.174,0.164,4.324,2.655,8.14,6.294
			c3.781,3.611,7.226,8.376,7.378,8.537l4.275-4.537c0.286-0.303-2.609-4.359-7.193-8.739C84.887,48.472,81.425,46.459,81.14,46.762
			z"/>
		<g opacity="0.6">
			<path fill="#FFF8A2" d="M90.097,39.858l-44.244,46.34c0.217,0.413,0.406,0.895,0.504,1.436c0.723-0.057,1.473,0.021,2.133,0.16
				l44.355-46.457C90.746,39.523,90.04,39.822,90.097,39.858z"/>
		</g>
		
			<linearGradient id="SVGID_13_" gradientUnits="userSpaceOnUse" x1="-2262.7632" y1="-267.8237" x2="-2262.7632" y2="-267.8237" gradientTransform="matrix(0.9576 -0.2881 0.2881 0.9576 2288.9893 -309.3038)">
			<stop  offset="0" style="stop-color:#DEDEDE"/>
			<stop  offset="1" style="stop-color:#FEFEFE"/>
		</linearGradient>
		<path fill="url(#SVGID_13_)" stroke="#181512" stroke-width="1.0006" stroke-miterlimit="3.8637" d="M45.007,86.131"/>
		<g opacity="0.6">
			<path fill="#FFF8A2" d="M45.844,90.707l-0.007-0.004c-0.555-0.081-1.143-0.12-1.714-0.073c-0.103-0.556-0.294-1.05-0.513-1.475
				l-0.088-0.062l-4.465,16.569L45.844,90.707z"/>
		</g>
	</g>
</g>
</svg>
