<?xml version="1.0" encoding="utf-8"?>
<!-- Generator: Adobe Illustrator 13.0.0, SVG Export Plug-In . SVG Version: 6.00 Build 14948)  -->
<!DOCTYPE svg PUBLIC "-//W3C//DTD SVG 1.1//EN" "http://www.w3.org/Graphics/SVG/1.1/DTD/svg11.dtd">
<svg version="1.1" id="Layer_1" xmlns="http://www.w3.org/2000/svg" xmlns:xlink="http://www.w3.org/1999/xlink" x="0px" y="0px"
	 width="128px" height="128px" viewBox="0 0 128 128" enable-background="new 0 0 128 128" xml:space="preserve">
<g>
	<g>
		<g>
			<path fill="#F2F2F2" stroke="#B3B3B3" d="M85.335,16.388H15.841c-7.135,0-12.917,5.781-12.917,12.912v51.455
				c0,7.134,5.782,12.917,12.917,12.917h69.494c7.133,0,12.915-5.783,12.915-12.917V29.3C98.25,22.169,92.468,16.388,85.335,16.388z
				"/>
			<linearGradient id="SVGID_1_" gradientUnits="userSpaceOnUse" x1="50.5366" y1="94.3496" x2="50.5366" y2="43.5647">
				<stop  offset="0.0934" style="stop-color:#D1D1D1"/>
				<stop  offset="0.431" style="stop-color:#D9D9D9"/>
				<stop  offset="0.9519" style="stop-color:#EFEFEF"/>
				<stop  offset="0.9725" style="stop-color:#F0F0F0"/>
			</linearGradient>
			<path fill="url(#SVGID_1_)" d="M31.11,66.392c-9.666,0-18.918-0.817-27.461-2.309v16.883c0,7.018,5.688,12.706,12.705,12.706
				h68.364c7.017,0,12.705-5.688,12.705-12.706V49.265C83.665,59.545,59.114,66.392,31.11,66.392z"/>
			<path fill="#B3B3B3" d="M84.901,91.368H16.366c-7.033,0-12.735-5.703-12.735-12.738v2.512c0,7.035,5.702,12.737,12.735,12.737
				h68.535c7.032,0,12.734-5.702,12.734-12.737V78.63C97.636,85.665,91.934,91.368,84.901,91.368z"/>
			<linearGradient id="SVGID_2_" gradientUnits="userSpaceOnUse" x1="50.7075" y1="16.6592" x2="50.7075" y2="41.0172">
				<stop  offset="0" style="stop-color:#EC008C"/>
				<stop  offset="1" style="stop-color:#C4008C"/>
			</linearGradient>
			<path fill="url(#SVGID_2_)" d="M97.81,38.283v-8.537c0-7.047-5.714-12.762-12.763-12.762H16.371
				c-7.05,0-12.765,5.715-12.765,12.763v8.536H97.81z"/>
			<path opacity="0.5" fill="#FFFFFF" d="M85.118,16.739H16.377c-7.058,0-12.776,5.721-12.776,12.774v3.776
				c0-7.055,5.719-12.775,12.776-12.774h68.741c7.054,0,12.773,5.721,12.773,12.775v-3.776
				C97.892,22.46,92.172,16.739,85.118,16.739z"/>
		</g>
		<g>
			<path fill="#F2F2F2" stroke="#B3B3B3" d="M112.16,47.326H42.666c-7.135,0-12.917,5.782-12.917,12.913v51.455
				c0,7.134,5.782,12.917,12.917,12.917h69.494c7.133,0,12.915-5.783,12.915-12.917V60.239
				C125.075,53.108,119.293,47.326,112.16,47.326z"/>
			<linearGradient id="SVGID_3_" gradientUnits="userSpaceOnUse" x1="77.3613" y1="125.2891" x2="77.3613" y2="74.5036">
				<stop  offset="0.0934" style="stop-color:#D1D1D1"/>
				<stop  offset="0.431" style="stop-color:#D9D9D9"/>
				<stop  offset="0.9519" style="stop-color:#EFEFEF"/>
				<stop  offset="0.9725" style="stop-color:#F0F0F0"/>
			</linearGradient>
			<path fill="url(#SVGID_3_)" d="M57.936,97.331c-9.666,0-18.918-0.817-27.461-2.309v16.883c0,7.018,5.688,12.706,12.705,12.706
				h68.364c7.017,0,12.705-5.688,12.705-12.706V80.204C110.49,90.484,85.939,97.331,57.936,97.331z"/>
			<path fill="#B3B3B3" d="M111.727,122.308H43.191c-7.033,0-12.735-5.703-12.735-12.738v2.512c0,7.035,5.702,12.737,12.735,12.737
				h68.535c7.032,0,12.734-5.702,12.734-12.737v-2.512C124.461,116.604,118.759,122.308,111.727,122.308z"/>
			<linearGradient id="SVGID_4_" gradientUnits="userSpaceOnUse" x1="77.5332" y1="47.5986" x2="77.5332" y2="71.9572">
				<stop  offset="0" style="stop-color:#FFD207"/>
				<stop  offset="1" style="stop-color:#FAA61A"/>
			</linearGradient>
			<path fill="url(#SVGID_4_)" d="M124.635,69.223v-8.537c0-7.047-5.714-12.762-12.763-12.762H43.196
				c-7.05,0-12.765,5.715-12.765,12.763v8.536H124.635z"/>
			<path opacity="0.5" fill="#FFFFFF" d="M112.007,47.679H43.212c-7.062,0-12.785,5.725-12.785,12.783v3.781
				c0-7.061,5.723-12.785,12.785-12.785h68.795c7.059,0,12.783,5.725,12.783,12.785v-3.78
				C124.79,53.403,119.065,47.679,112.007,47.679z"/>
		</g>
	</g>
	<g>
		
			<linearGradient id="SVGID_5_" gradientUnits="userSpaceOnUse" x1="-8032.6938" y1="-19836.6484" x2="-8058.8657" y2="-19862.8203" gradientTransform="matrix(-0.7071 0.7071 0.7071 0.7071 8402.3057 19818.2422)">
			<stop  offset="0" style="stop-color:#181500"/>
			<stop  offset="1" style="stop-color:#5F5D5C"/>
		</linearGradient>
		<path fill="url(#SVGID_5_)" d="M43.121,74.658c-1.641-0.039-3.073,0.551-4.209,1.688c-1.182,1.181-1.77,2.611-1.729,4.253
			l-0.038,18.333c0.04,1.643,0.591,3.035,1.769,4.213c1.139,1.139,2.571,1.729,4.214,1.77c1.642-0.04,3.075-0.631,4.212-1.768
			c1.18-1.18,1.725-2.57,1.768-4.214l-0.044-3.917l14.894,14.895c1.18,1.18,2.615,1.77,4.255,1.726
			c1.646,0.042,3.034-0.589,4.213-1.769c1.138-1.137,1.769-2.525,1.728-4.172c0.039-1.643-0.589-3.035-1.727-4.256L57.532,86.547
			l3.919,0.043c1.602,0.002,3.034-0.589,4.213-1.768c1.137-1.137,1.725-2.574,1.768-4.215c-0.039-1.643-0.631-3.077-1.768-4.213
			c-1.18-1.182-2.572-1.729-4.213-1.77L43.121,74.658z"/>
		<path opacity="0.5" fill="#FFFFFF" enable-background="new    " d="M63.756,77.6c0,0.443-0.541,0.805-1.207,0.805l-21.764,0.002
			c-0.67,0-1.211-0.361-1.209-0.806l0,0c0-0.444,0.539-0.806,1.209-0.806h21.764C63.215,76.795,63.754,77.155,63.756,77.6
			L63.756,77.6z"/>
	</g>
</g>
</svg>
