<?xml version="1.0" encoding="utf-8"?>
<!-- Generator: Adobe Illustrator 13.0.0, SVG Export Plug-In . SVG Version: 6.00 Build 14948)  -->
<!DOCTYPE svg PUBLIC "-//W3C//DTD SVG 1.1//EN" "http://www.w3.org/Graphics/SVG/1.1/DTD/svg11.dtd">
<svg version="1.1" id="Layer_1" xmlns="http://www.w3.org/2000/svg" xmlns:xlink="http://www.w3.org/1999/xlink" x="0px" y="0px"
	 width="128px" height="128px" viewBox="0 0 128 128" enable-background="new 0 0 128 128" xml:space="preserve">
<g>
	<g>
		
			<radialGradient id="SVGID_1_" cx="-241.1982" cy="75.7246" r="46.6636" gradientTransform="matrix(1 0 0 -1 289.2754 151.834)" gradientUnits="userSpaceOnUse">
			<stop  offset="0" style="stop-color:#FAFAFA"/>
			<stop  offset="0.3109" style="stop-color:#F4F4F4"/>
			<stop  offset="0.7262" style="stop-color:#E3E3E3"/>
			<stop  offset="1" style="stop-color:#D4D4D4"/>
		</radialGradient>
		<path fill="url(#SVGID_1_)" stroke="#B3B3B3" stroke-width="1.6" d="M14.148,29.43L82,29.435c7.025,0,12.721,5.698,12.721,12.728
			l0.004,67.897c0,7.03-5.695,12.729-12.721,12.729l-67.853-0.003c-7.024,0-12.72-5.7-12.72-12.729l-0.001-67.9
			C1.429,35.129,7.125,29.43,14.148,29.43L14.148,29.43z"/>
		<path fill="#B3B3B3" d="M82.023,118.896l-67.957-0.004c-6.422,0-11.722-4.764-12.598-10.951v1.816
			c0,7.03,5.696,12.729,12.72,12.729l67.854,0.005c7.023,0,12.721-5.699,12.721-12.729v-3.611
			C94.759,113.189,89.057,118.896,82.023,118.896z"/>
		<path fill="#FFFFFF" d="M16.436,36.094l63.414,0.003c5.993,0,10.938,4.445,11.754,10.218V44.62
			c0-6.561-5.313-11.878-11.869-11.878l-63.312-0.004c-6.556,0-11.869,5.319-11.869,11.878v3.369
			C4.553,41.419,9.874,36.094,16.436,36.094z"/>
	</g>
	<g>
		<g>
			
				<linearGradient id="SVGID_2_" gradientUnits="userSpaceOnUse" x1="-463.0977" y1="-646.3086" x2="-468.6925" y2="-642.3909" gradientTransform="matrix(1 0 0 -1 535.9648 -563.8105)">
				<stop  offset="0" style="stop-color:#181500"/>
				<stop  offset="1" style="stop-color:#5F5D5C"/>
			</linearGradient>
			<polygon fill="url(#SVGID_2_)" points="79.708,60.822 60.18,96.068 59.491,100.152 62.472,97.344 82.089,61.933 			"/>
			
				<linearGradient id="SVGID_3_" gradientUnits="userSpaceOnUse" x1="-465.7129" y1="-599.0811" x2="-410.5996" y2="-599.0811" gradientTransform="matrix(1 0 0 -1 535.9648 -563.8105)">
				<stop  offset="0" style="stop-color:#FAFAFA"/>
				<stop  offset="0.3629" style="stop-color:#E5E5E5"/>
				<stop  offset="1" style="stop-color:#C4C4C4"/>
			</linearGradient>
			<path fill="url(#SVGID_3_)" stroke="#000000" stroke-width="2" stroke-miterlimit="3.8637" d="M85.448,6.071l-3.861,6.973
				c0,0,1.519,2.377,3.229,4.194c2.045,2.169,3.966,3.735,3.966,3.735l-18.53,26.926c0,0,4.193,9.969,10.78,13.62
				c6.587,3.655,16.45,2.884,16.45,2.884l13.563-31.079c0,0,2.522,0.985,5.513,1.521c2.33,0.415,4.94,0.327,4.94,0.327l3.866-6.977
				L85.448,6.071L85.448,6.071z"/>
			<g>
				<g>
					
						<linearGradient id="SVGID_4_" gradientUnits="userSpaceOnUse" x1="-481.501" y1="-627.6035" x2="-433.7773" y2="-627.6035" gradientTransform="matrix(1 0 0 -1 535.9648 -563.8105)">
						<stop  offset="0" style="stop-color:#FAFAFA"/>
						<stop  offset="0.3629" style="stop-color:#E5E5E5"/>
						<stop  offset="1" style="stop-color:#C4C4C4"/>
					</linearGradient>
					<path id="SVGID_34_" fill="url(#SVGID_4_)" stroke="#000000" stroke-width="2" stroke-miterlimit="3.8637" d="M70.225,47.565
						c0,0-6.576,0.034-9.888,1.413c-1.192,0.495-5.873,5.301-5.873,5.301s3.245,9.64,19.565,18.694
						c16.322,9.055,26.396,6.799,26.396,6.799s1.937-5.931,1.75-7.588c-0.463-4.107-4.079-9.162-4.079-9.162
						s-6.968,1.102-16.027-4.211C73.391,53.726,70.225,47.565,70.225,47.565L70.225,47.565z"/>
				</g>
				<g>
					<g>
						<g>
							<defs>
								<path id="SVGID_5_" d="M70.225,47.565c0,0-6.576,0.034-9.888,1.413c-1.192,0.495-5.873,5.301-5.873,5.301
									s3.245,9.64,19.565,18.694c16.322,9.055,26.396,6.799,26.396,6.799s1.937-5.931,1.75-7.588
									c-0.463-4.107-4.079-9.162-4.079-9.162s-6.968,1.102-16.027-4.211C73.391,53.726,70.225,47.565,70.225,47.565L70.225,47.565
									z"/>
							</defs>
							<clipPath id="SVGID_6_">
								<use xlink:href="#SVGID_5_"  overflow="visible"/>
							</clipPath>
							
								<linearGradient id="SVGID_7_" gradientUnits="userSpaceOnUse" x1="-453.5737" y1="-634.1392" x2="-453.5737" y2="-609.7847" gradientTransform="matrix(1 0 0 -1 535.9648 -563.8105)">
								<stop  offset="0" style="stop-color:#181500"/>
								<stop  offset="1" style="stop-color:#5F5D5C"/>
							</linearGradient>
							<path clip-path="url(#SVGID_6_)" fill="url(#SVGID_7_)" d="M61.919,47.118c0,0,2.44,8.814,17.625,17.238
								c15.185,8.421,23.32,5.473,23.32,5.473l-3.212-7.359l-16.256-4.472L69.914,45.974L61.919,47.118L61.919,47.118z"/>
						</g>
					</g>
				</g>
			</g>
			
				<linearGradient id="SVGID_8_" gradientUnits="userSpaceOnUse" x1="-430.6548" y1="-592.5" x2="-430.6548" y2="-569.731" gradientTransform="matrix(1 0 0 -1 535.9648 -563.8105)">
				<stop  offset="0" style="stop-color:#181500"/>
				<stop  offset="1" style="stop-color:#5F5D5C"/>
			</linearGradient>
			<path fill="url(#SVGID_8_)" stroke="#000000" stroke-width="2" stroke-miterlimit="3.8637" d="M85.355,6.233
				c0.808-1.457,10.396,2.316,21.416,8.433c11.021,6.113,19.303,12.249,18.492,13.71c-0.809,1.459-10.396-2.315-21.418-8.428
				C92.829,13.83,84.549,7.691,85.355,6.233L85.355,6.233z"/>
		</g>
		<path opacity="0.66" fill="#666666" enable-background="new    " d="M105.677,13.015c-10.554-5.76-19.54-9.24-20.319-7.831
			c-0.771,1.39,6.728,7.038,16.979,12.865C103.08,16.187,104.223,14.482,105.677,13.015z"/>
	</g>
</g>
</svg>
