<?xml version="1.0" encoding="UTF-8" standalone="no"?>
<!-- Created with Inkscape (http://www.inkscape.org/) -->
<svg
   xmlns:dc="http://purl.org/dc/elements/1.1/"
   xmlns:cc="http://web.resource.org/cc/"
   xmlns:rdf="http://www.w3.org/1999/02/22-rdf-syntax-ns#"
   xmlns:svg="http://www.w3.org/2000/svg"
   xmlns="http://www.w3.org/2000/svg"
   xmlns:xlink="http://www.w3.org/1999/xlink"
   xmlns:sodipodi="http://sodipodi.sourceforge.net/DTD/sodipodi-0.dtd"
   xmlns:inkscape="http://www.inkscape.org/namespaces/inkscape"
   width="64px"
   height="64px"
   id="svg2160"
   sodipodi:version="0.32"
   inkscape:version="0.45.1"
   sodipodi:docbase="/home/it-s/Media/Pictures/Images/Vector/Icons/Kollision"
   sodipodi:docname="collisionv128_v3.svg"
   inkscape:output_extension="org.inkscape.output.svg.inkscape"
   inkscape:export-filename="/home/it-s/Media/Pictures/Images/Vector/Icons/collisionv64.png"
   inkscape:export-xdpi="90"
   inkscape:export-ydpi="90">
  <defs
     id="defs2162">
    <linearGradient
       id="linearGradient3419">
      <stop
         style="stop-color:#eeeeee;stop-opacity:1;"
         offset="0"
         id="stop3421" />
      <stop
         id="stop3427"
         offset="0.6785714"
         style="stop-color:#e5e5e5;stop-opacity:1;" />
      <stop
         style="stop-color:#c7c7c7;stop-opacity:1;"
         offset="1"
         id="stop3423" />
    </linearGradient>
    <linearGradient
       inkscape:collect="always"
       id="linearGradient3402">
      <stop
         style="stop-color:#ffffff;stop-opacity:1"
         offset="0"
         id="stop3404" />
      <stop
         style="stop-color:#eeeeee;stop-opacity:0;"
         offset="1"
         id="stop3406" />
    </linearGradient>
    <linearGradient
       id="linearGradient3283">
      <stop
         id="stop3285"
         offset="0"
         style="stop-color:#ffffff;stop-opacity:1;" />
      <stop
         style="stop-color:#e54747;stop-opacity:1;"
         offset="0.8035714"
         id="stop3287" />
      <stop
         id="stop3289"
         offset="1"
         style="stop-color:#ec003c;stop-opacity:0;" />
    </linearGradient>
    <linearGradient
       id="linearGradient3242">
      <stop
         style="stop-color:#eeeeec;stop-opacity:1"
         offset="0"
         id="stop3244" />
      <stop
         id="stop3250"
         offset="0.5"
         style="stop-color:#d42121;stop-opacity:1;" />
      <stop
         style="stop-color:#570000;stop-opacity:1;"
         offset="1"
         id="stop3246" />
    </linearGradient>
    <linearGradient
       id="linearGradient3226">
      <stop
         style="stop-color:#ffffff;stop-opacity:1;"
         offset="0"
         id="stop3228" />
      <stop
         id="stop3234"
         offset="0.8214286"
         style="stop-color:#2955ff;stop-opacity:1;" />
      <stop
         style="stop-color:#00e6ec;stop-opacity:0;"
         offset="1"
         id="stop3230" />
    </linearGradient>
    <linearGradient
       id="linearGradient3200">
      <stop
         id="stop3202"
         offset="0"
         style="stop-color:#cbcbcb;stop-opacity:1;" />
      <stop
         style="stop-color:#435b67;stop-opacity:1;"
         offset="0.5"
         id="stop3204" />
      <stop
         id="stop3206"
         offset="1"
         style="stop-color:#002e5b;stop-opacity:0;" />
    </linearGradient>
    <linearGradient
       id="linearGradient3186">
      <stop
         style="stop-color:#ffffff;stop-opacity:1;"
         offset="0"
         id="stop3188" />
      <stop
         style="stop-color:#ffdf06;stop-opacity:1;"
         offset="1"
         id="stop3190" />
    </linearGradient>
    <linearGradient
       id="linearGradient3471">
      <stop
         style="stop-color:#ffffff;stop-opacity:1;"
         offset="0"
         id="stop3473" />
      <stop
         id="stop3479"
         offset="0.5"
         style="stop-color:#2a77d3;stop-opacity:1;" />
      <stop
         style="stop-color:#002a5b;stop-opacity:1;"
         offset="1"
         id="stop3475" />
    </linearGradient>
    <linearGradient
       inkscape:collect="always"
       id="linearGradient3364">
      <stop
         style="stop-color:#2e3436;stop-opacity:1"
         offset="0"
         id="stop3366" />
      <stop
         style="stop-color:#2e3436;stop-opacity:0"
         offset="1"
         id="stop3368" />
    </linearGradient>
    <filter
       inkscape:collect="always"
       id="filter3276">
      <feGaussianBlur
         inkscape:collect="always"
         stdDeviation="0.90543467"
         id="feGaussianBlur3278" />
    </filter>
    <linearGradient
       inkscape:collect="always"
       xlink:href="#linearGradient3364"
       id="linearGradient3380"
       gradientUnits="userSpaceOnUse"
       x1="24.000463"
       y1="23.375"
       x2="16.242304"
       y2="14.406847" />
    <linearGradient
       inkscape:collect="always"
       xlink:href="#linearGradient3402"
       id="linearGradient3417"
       gradientUnits="userSpaceOnUse"
       x1="6.8806405"
       y1="-1.7964493"
       x2="15.251305"
       y2="23.205675"
       gradientTransform="matrix(0.9126649,0,0,0.9122384,1.9862604,1.985097)" />
    <radialGradient
       inkscape:collect="always"
       xlink:href="#linearGradient3402"
       id="radialGradient3476"
       cx="2.8824735"
       cy="3.2758915"
       fx="2.0177314"
       fy="2.6033144"
       r="1.3451543"
       gradientUnits="userSpaceOnUse" />
    <linearGradient
       inkscape:collect="always"
       xlink:href="#linearGradient3402"
       id="linearGradient3480"
       x1="1.5927705"
       y1="28.716167"
       x2="3.5927706"
       y2="28.716167"
       gradientUnits="userSpaceOnUse"
       gradientTransform="matrix(1,0,0,1.0704105,0,-0.1528275)" />
    <linearGradient
       inkscape:collect="always"
       xlink:href="#linearGradient3402"
       id="linearGradient3484"
       gradientUnits="userSpaceOnUse"
       gradientTransform="matrix(0,1,-1.0704105,0,61.594128,-0.1709019)"
       x1="1.5927705"
       y1="28.716167"
       x2="3.5927706"
       y2="28.716167" />
    <linearGradient
       inkscape:collect="always"
       xlink:href="#linearGradient3402"
       id="linearGradient3499"
       gradientUnits="userSpaceOnUse"
       gradientTransform="matrix(1,0,0,1.0704105,0,-0.1528275)"
       x1="1.5927705"
       y1="28.716167"
       x2="3.5927706"
       y2="28.716167" />
    <radialGradient
       inkscape:collect="always"
       xlink:href="#linearGradient3402"
       id="radialGradient3501"
       gradientUnits="userSpaceOnUse"
       cx="2.8824735"
       cy="3.2758915"
       fx="2.0177314"
       fy="2.6033144"
       r="1.3451543" />
    <linearGradient
       inkscape:collect="always"
       xlink:href="#linearGradient3402"
       id="linearGradient3503"
       gradientUnits="userSpaceOnUse"
       gradientTransform="matrix(0,1,-1.0704105,0,61.594128,-0.1709019)"
       x1="1.5927705"
       y1="28.716167"
       x2="3.5927706"
       y2="28.716167" />
    <filter
       inkscape:collect="always"
       id="filter4217">
      <feGaussianBlur
         inkscape:collect="always"
         stdDeviation="0.22406408"
         id="feGaussianBlur4219" />
    </filter>
    <radialGradient
       inkscape:collect="always"
       xlink:href="#linearGradient3471"
       id="radialGradient3261"
       gradientUnits="userSpaceOnUse"
       gradientTransform="matrix(2.2203777,0.2833982,-0.1681154,1.0544544,-22.012516,-9.1365687)"
       cx="22.577009"
       cy="35.283001"
       fx="22.577009"
       fy="35.283001"
       r="12.908705" />
    <radialGradient
       inkscape:collect="always"
       xlink:href="#linearGradient3226"
       id="radialGradient3289"
       gradientUnits="userSpaceOnUse"
       gradientTransform="matrix(0.6416247,0.767789,-0.701201,0.5859785,47.728871,-13.797929)"
       cx="43.69899"
       cy="42.88105"
       fx="43.69899"
       fy="42.88105"
       r="15.10806" />
    <radialGradient
       inkscape:collect="always"
       xlink:href="#linearGradient3226"
       id="radialGradient3292"
       gradientUnits="userSpaceOnUse"
       gradientTransform="matrix(0.6416247,0.767789,-0.701201,0.5859785,51.728871,-9.797929)"
       cx="43.69899"
       cy="42.88105"
       fx="43.69899"
       fy="42.88105"
       r="15.10806" />
    <radialGradient
       inkscape:collect="always"
       xlink:href="#linearGradient3283"
       id="radialGradient3298"
       gradientUnits="userSpaceOnUse"
       gradientTransform="matrix(0.7094235,0.7308034,-0.815092,0.7914794,21.508733,-16.576754)"
       cx="22.420382"
       cy="23.915073"
       fx="22.420382"
       fy="23.915073"
       r="12.908705" />
    <radialGradient
       inkscape:collect="always"
       xlink:href="#linearGradient3226"
       id="radialGradient3301"
       gradientUnits="userSpaceOnUse"
       gradientTransform="matrix(0.6416247,0.767789,-0.701201,0.5859785,45.728871,-15.797929)"
       cx="43.69899"
       cy="42.88105"
       fx="43.69899"
       fy="42.88105"
       r="15.10806" />
    <radialGradient
       inkscape:collect="always"
       xlink:href="#linearGradient3283"
       id="radialGradient3304"
       gradientUnits="userSpaceOnUse"
       gradientTransform="matrix(0.6881094,0.7087425,-0.7906031,0.7675867,17.674901,-19.430512)"
       cx="22.420382"
       cy="23.915073"
       fx="22.420382"
       fy="23.915073"
       r="12.908705" />
    <radialGradient
       inkscape:collect="always"
       xlink:href="#linearGradient3402"
       id="radialGradient3316"
       cx="34.377918"
       cy="32.06794"
       fx="34.377918"
       fy="32.06794"
       r="4.4187899"
       gradientTransform="matrix(0.7176564,0,0,7.2424021,9.7063837,-200.18098)"
       gradientUnits="userSpaceOnUse" />
    <radialGradient
       inkscape:collect="always"
       xlink:href="#linearGradient3242"
       id="radialGradient3337"
       gradientUnits="userSpaceOnUse"
       gradientTransform="matrix(1.0922725,1.248063,-1.1271947,0.9864919,19.702913,-36.378834)"
       cx="35.091961"
       cy="24.107239"
       fx="35.091961"
       fy="24.107239"
       r="12.908705" />
    <filter
       inkscape:collect="always"
       id="filter3364">
      <feGaussianBlur
         inkscape:collect="always"
         stdDeviation="0.20899911"
         id="feGaussianBlur3366" />
    </filter>
  </defs>
  <sodipodi:namedview
     id="base"
     pagecolor="#ffffff"
     bordercolor="#666666"
     borderopacity="1.0"
     inkscape:pageopacity="0.0"
     inkscape:pageshadow="2"
     inkscape:zoom="7.359375"
     inkscape:cx="32"
     inkscape:cy="32"
     inkscape:current-layer="layer1"
     showgrid="true"
     inkscape:document-units="px"
     inkscape:grid-bbox="true"
     inkscape:window-width="907"
     inkscape:window-height="689"
     inkscape:window-x="286"
     inkscape:window-y="11"
     showguides="true"
     inkscape:guide-bbox="true" />
  <metadata
     id="metadata2165">
    <rdf:RDF>
      <cc:Work
         rdf:about="">
        <dc:format>image/svg+xml</dc:format>
        <dc:type
           rdf:resource="http://purl.org/dc/dcmitype/StillImage" />
      </cc:Work>
    </rdf:RDF>
  </metadata>
  <g
     id="layer1"
     inkscape:label="Layer 1"
     inkscape:groupmode="layer">
    <path
       style="opacity:0.2;fill:url(#radialGradient3304);fill-opacity:1;stroke:none;stroke-width:2;stroke-linecap:butt;stroke-linejoin:round;stroke-miterlimit:4;stroke-dasharray:none;stroke-dashoffset:0;stroke-opacity:1"
       d="M 23.930293,4.1441817 C 16.693684,-3.0806392 1.6590838,3.4446899 0.64265795,14.320472 C -1.4846225,25.069735 11.283744,32.639526 20.601715,26.181345 C 28.650292,21.281916 30.406819,9.6248222 23.930293,4.1441817 z "
       id="path3616" />
    <path
       style="fill:url(#radialGradient3301);fill-opacity:1;stroke:none;stroke-width:2;stroke-linecap:butt;stroke-linejoin:round;stroke-miterlimit:4;stroke-dasharray:none;stroke-dashoffset:0;stroke-opacity:1"
       d="M 55.456391,53.647896 C 63.404376,45.686943 56.225898,29.147466 44.261511,28.029301 C 32.436309,25.689092 24.108824,39.735499 31.213433,49.986146 C 36.603267,58.84034 49.427169,60.772685 55.456391,53.647896 z "
       id="path3611" />
    <path
       style="opacity:1;fill:url(#radialGradient3298);fill-opacity:1;stroke:none;stroke-width:2;stroke-linecap:butt;stroke-linejoin:round;stroke-miterlimit:4;stroke-dasharray:none;stroke-dashoffset:0;stroke-opacity:1"
       d="M 27.957887,7.7317455 C 20.497122,0.28203838 4.9968285,7.0104808 3.9489189,18.224793 C 1.7557461,29.308647 14.919611,37.114062 24.526206,30.454857 C 32.824087,25.402925 34.635022,13.382981 27.957887,7.7317455 z "
       id="path3578" />
    <path
       style="opacity:0.2;fill:url(#radialGradient3292);fill-opacity:1;stroke:none;stroke-width:2;stroke-linecap:butt;stroke-linejoin:round;stroke-miterlimit:4;stroke-dasharray:none;stroke-dashoffset:0;stroke-opacity:1"
       d="M 61.456391,59.647896 C 69.404376,51.686943 62.225898,35.147466 50.261511,34.029301 C 38.436309,31.689092 30.108824,45.735499 37.213433,55.986146 C 42.603267,64.84034 55.427169,66.772685 61.456391,59.647896 z "
       id="path3557" />
    <path
       id="path3541"
       d="M 57.456391,55.647896 C 65.404376,47.686943 58.225898,31.147466 46.261511,30.029301 C 34.436309,27.689092 26.108824,41.735499 33.213433,51.986146 C 38.603267,60.84034 51.427169,62.772685 57.456391,55.647896 z "
       style="opacity:0.55263157;fill:url(#radialGradient3289);fill-opacity:1;stroke:none;stroke-width:2;stroke-linecap:butt;stroke-linejoin:round;stroke-miterlimit:4;stroke-dasharray:none;stroke-dashoffset:0;stroke-opacity:1" />
    <path
       style="fill:url(#radialGradient3337);fill-opacity:1;stroke:none;stroke-width:2;stroke-linecap:butt;stroke-linejoin:round;stroke-miterlimit:4;stroke-dashoffset:0;stroke-opacity:1"
       d="M 31.177414,31.215472 C 25.571975,36.820911 16.95217,37.29979 11.936778,32.284399 C 6.9213856,27.269007 6.3922374,17.641174 11.997677,12.035735 C 17.603116,6.4302957 27.230947,6.9594448 32.24634,11.974837 C 37.261732,16.990229 36.782853,25.610033 31.177414,31.215472 z "
       id="path3521"
       sodipodi:nodetypes="csssc" />
    <path
       sodipodi:type="arc"
       style="fill:url(#radialGradient3261);fill-opacity:1;stroke:none;stroke-width:2;stroke-linecap:butt;stroke-linejoin:round;stroke-miterlimit:4;stroke-dasharray:none;stroke-dashoffset:0;stroke-opacity:1"
       id="path3523"
       sodipodi:cx="22.420382"
       sodipodi:cy="23.915073"
       sodipodi:rx="12.908705"
       sodipodi:ry="12.908705"
       d="M 35.329086 23.915073 A 12.908705 12.908705 0 1 1  9.5116768,23.915073 A 12.908705 12.908705 0 1 1  35.329086 23.915073 z"
       transform="matrix(-0.6747937,0.6747937,-0.7541813,-0.7541813,76.881092,45.845595)" />
    <path
       style="opacity:0.9;fill:#ffff99;fill-rule:evenodd;stroke:none;stroke-width:1px;stroke-linecap:butt;stroke-linejoin:miter;stroke-opacity:1;filter:url(#filter3276)"
       d="M 44.225186,18.160165 C 43.88544,18.157787 43.532736,18.164467 43.193936,18.191415 C 42.953466,18.221744 42.711549,18.246841 42.475186,18.285165 L 39.412686,21.347665 C 41.85155,20.183937 44.748982,19.52457 47.256436,18.441415 C 46.25191,18.287751 45.244424,18.167299 44.225186,18.160165 z M 34.193936,21.566415 C 28.539158,25.170537 24.075169,30.929979 19.631436,36.066415 L 34.193936,21.566415 z M 37.693936,23.066415 L 16.850186,43.910165 C 16.741352,44.204993 16.625758,44.50703 16.537686,44.785165 C 18.002697,41.934869 23.460809,39.991 23.631436,44.566415 C 25.06146,39.689743 30.862273,37.531772 34.912686,40.628915 C 37.636325,42.503847 36.489372,41.032368 35.600186,38.910165 C 33.867963,33.189647 41.435307,28.63451 46.006436,28.128915 C 43.615129,26.320963 37.32526,26.615888 37.693936,23.066415 z "
       id="path3161" />
    <path
       style="fill:#ffffff;fill-opacity:1;stroke:none;stroke-width:0.5;stroke-linecap:butt;stroke-linejoin:round;stroke-miterlimit:4;stroke-dasharray:none;stroke-dashoffset:0;stroke-opacity:1;filter:url(#filter4217)"
       d="M 62.65625,17.5 C 62.085257,17.67069 61.509403,17.824287 60.9375,18 C 60.179449,18.233431 59.411438,18.507 58.65625,18.75 C 59.398931,18.511321 60.129599,18.292058 60.875,18.0625 C 61.464944,17.881227 62.061001,17.707182 62.65625,17.53125 L 62.65625,17.5 z M 54.40625,20.3125 C 53.83427,20.537717 53.252958,20.75468 52.6875,21 L 52.625,21.0625 C 53.217193,20.802714 53.808036,20.558865 54.40625,20.3125 z M 43.1875,25.46875 C 42.873512,25.638564 42.554882,25.810185 42.25,26 C 41.59069,26.391009 40.955595,26.801611 40.3125,27.21875 C 39.249151,27.932076 38.300224,28.742287 37.46875,29.75 C 37.279321,29.959277 37.07468,30.148618 36.90625,30.375 C 36.760774,30.388708 36.614379,30.393463 36.46875,30.40625 L 32.90625,33.96875 C 33.324229,34.132116 33.754824,34.30276 34.15625,34.5 L 36.8125,31.875 C 36.759736,31.823657 36.708752,31.76979 36.65625,31.71875 C 36.741075,31.731668 36.821658,31.767038 36.90625,31.78125 L 37.1875,31.46875 C 37.157094,31.456061 37.124217,31.450155 37.09375,31.4375 C 37.171969,31.407116 37.258164,31.379847 37.34375,31.34375 L 37.375,31.3125 L 39,29.6875 C 39.117109,29.41752 39.171137,29.124787 39.15625,28.84375 C 39.153466,28.791191 39.206272,28.771014 39.21875,28.71875 C 39.233044,28.66407 39.253748,28.610021 39.28125,28.5625 C 40.015874,27.967345 40.783222,27.409412 41.5625,26.875 C 41.778993,26.727861 42.000656,26.579802 42.21875,26.4375 L 43.1875,25.46875 z M 30.5,29.125 C 29.36843,28.967074 27.353955,32.616072 28.8125,31.9375 C 29.098347,31.804511 29.414262,31.760702 29.71875,31.6875 C 29.892899,31.647138 30.073007,31.627131 30.25,31.59375 L 31.96875,29.90625 C 31.769251,29.85905 31.569609,29.811431 31.375,29.75 C 31.220513,29.673849 31.029242,29.633217 30.9375,29.46875 C 30.825549,29.268053 30.661653,29.147561 30.5,29.125 z M 43.84375,29.84375 L 43.5625,30.125 C 44.697929,30.043097 45.827695,29.984129 46.96875,30.0625 C 48.505142,30.175417 50.045983,30.425367 51.5625,30.6875 C 53.111063,30.969407 54.650732,31.284469 56.1875,31.625 C 57.662688,31.960924 59.105442,32.375136 60.5625,32.78125 C 61.26648,32.964761 61.959103,33.155491 62.65625,33.375 L 62.65625,33.28125 C 61.973866,33.099523 61.301956,32.920712 60.625,32.71875 C 59.167846,32.312581 57.694019,31.898549 56.21875,31.5625 C 54.681913,31.221857 53.142388,30.938254 51.59375,30.65625 C 50.077056,30.394015 48.567817,30.144378 47.03125,30.03125 C 45.969817,29.958199 44.911486,29.858027 43.84375,29.84375 z M 40.84375,32.84375 L 40.78125,32.90625 C 41.652185,33.275296 42.499034,33.70055 43.34375,34.125 C 45.104815,35.026673 46.820835,36.017632 48.5,37.0625 C 50.275207,38.157559 51.890306,39.460849 53.5,40.78125 C 55.120369,42.094565 56.682689,43.494417 58.1875,44.9375 C 59.60503,46.314406 60.989831,47.71568 62.375,49.125 C 62.473282,49.224357 62.558568,49.337333 62.65625,49.4375 L 62.65625,49.3125 C 62.58359,49.238398 62.510521,49.16757 62.4375,49.09375 C 61.052284,47.68438 59.636326,46.283206 58.21875,44.90625 C 56.713815,43.46304 55.182999,42.063434 53.5625,40.75 C 51.952591,39.429399 50.306668,38.095271 48.53125,37 C 46.851939,35.954985 45.167461,34.964328 43.40625,34.0625 C 42.56138,33.637923 41.714607,33.212734 40.84375,32.84375 z M 39.21875,34.46875 L 38.34375,35.34375 C 39.029887,35.850756 39.692397,36.381867 40.34375,36.9375 C 41.336203,37.767751 42.316098,38.603531 43.21875,39.53125 C 44.253106,40.727151 45.254588,41.966003 46.21875,43.21875 C 47.154685,44.437338 48.038058,45.691845 48.9375,46.9375 C 49.760519,48.089806 50.599612,49.232143 51.34375,50.4375 C 52.029275,51.535399 52.694126,52.661892 53.34375,53.78125 C 53.742938,54.461348 54.120104,55.15275 54.5,55.84375 C 54.685231,56.180667 55.219453,55.690698 55,55.375 C 54.558189,54.739423 54.096894,54.105134 53.65625,53.46875 C 52.924897,52.425055 52.187638,51.374026 51.4375,50.34375 C 50.598184,49.207586 49.835384,48.01424 49,46.875 C 48.100512,45.629293 47.185983,44.406138 46.25,43.1875 C 45.285737,41.934641 44.315715,40.696005 43.28125,39.5 C 42.469548,38.481741 41.70172,37.437037 40.90625,36.40625 C 40.368901,35.737371 39.792515,35.105229 39.21875,34.46875 z M 32,34.875 L 30.78125,36.09375 C 30.78365,36.103509 30.778883,36.115243 30.78125,36.125 C 30.896126,36.585048 31.037859,37.024494 31.1875,37.46875 L 32.0625,36.59375 C 32.023046,36.090617 32.002404,35.574498 32,35.0625 C 32.000584,35.000754 31.999508,34.937329 32,34.875 z M 37.59375,36.09375 L 37.21875,36.46875 C 38.28632,37.250412 39.280678,38.099068 40.15625,39.09375 C 40.50867,39.508921 40.850541,39.915475 41.1875,40.34375 C 40.847129,39.917767 40.540489,39.478326 40.1875,39.0625 C 39.318884,38.075757 38.479348,37.065117 37.59375,36.09375 z M 41.1875,40.34375 C 42.198376,41.628575 43.150447,42.979758 44.09375,44.3125 C 45.441551,46.278328 46.747028,48.273647 48.03125,50.28125 C 49.212542,52.122653 50.372053,53.988376 51.53125,55.84375 C 52.2606,57.01467 51.90394,56.430581 52.625,57.59375 C 52.645251,57.626413 52.676499,57.563917 52.65625,57.53125 C 51.935178,56.368065 52.291857,56.95218 51.5625,55.78125 C 50.403288,53.925856 49.243804,52.091425 48.0625,50.25 C 46.778219,48.242307 45.50415,46.215888 44.15625,44.25 C 43.213292,42.917783 42.206597,41.619176 41.1875,40.34375 z M 29.78125,37.09375 L 27.4375,39.40625 C 27.428269,39.427544 27.415407,39.447425 27.40625,39.46875 C 27.221366,39.899304 27.055421,40.337534 26.90625,40.78125 C 26.76412,41.203576 26.659119,41.62755 26.5625,42.0625 L 27.8125,40.8125 C 27.962571,40.43652 28.132131,40.051466 28.3125,39.6875 C 28.620776,39.096309 28.913883,38.526295 29.28125,37.96875 C 29.455579,37.68634 29.620406,37.388602 29.78125,37.09375 z M 30.625,38.03125 C 29.84793,38.433383 28.918685,39.16696 28.84375,39.78125 L 30.625,38.03125 z M 32.90625,40.78125 L 32.59375,41.09375 C 32.691573,41.311082 32.776764,41.531486 32.875,41.75 C 33.489997,42.988763 34.067649,44.232106 34.6875,45.46875 C 35.406815,46.907955 36.244992,48.299663 37.15625,49.625 C 38.20751,51.117218 39.344081,52.521574 40.53125,53.90625 C 41.704234,55.261741 42.932498,56.59675 44.15625,57.90625 C 45.294767,59.125784 46.445602,60.319994 47.625,61.5 C 47.965807,61.838004 48.307397,62.168253 48.65625,62.5 L 48.78125,62.5 C 48.414633,62.148178 48.049253,61.796278 47.6875,61.4375 C 46.508156,60.257544 45.357213,59.06323 44.21875,57.84375 C 42.995065,56.534319 41.766663,55.230428 40.59375,53.875 C 39.406747,52.490496 38.238578,51.085804 37.1875,49.59375 C 36.276485,48.268616 35.469139,46.876452 34.75,45.4375 C 34.113497,44.167507 33.50801,42.873465 33.125,41.5 C 33.048782,41.261269 32.979575,41.021395 32.90625,40.78125 z M 24.875,42 L 23.78125,43.09375 C 23.616505,43.386489 23.442527,43.673854 23.28125,43.96875 C 22.795458,44.84222 22.373716,45.743762 21.96875,46.65625 L 22.53125,46.125 C 22.994552,45.204896 23.461938,44.282315 24,43.40625 C 24.283615,42.933759 24.582905,42.469087 24.875,42 z M 31.3125,42.375 L 30.25,43.4375 C 30.455709,44.025224 30.674986,44.606718 30.90625,45.1875 C 31.358364,46.258178 31.849147,47.292162 32.34375,48.34375 C 33.102553,49.857092 33.861585,51.378936 34.65625,52.875 C 35.455373,54.384701 36.289259,55.859693 37.1875,57.3125 C 38.069537,58.711996 39.024851,60.079393 39.96875,61.4375 C 40.215371,61.792794 40.468139,62.145989 40.71875,62.5 L 40.78125,62.5 C 40.522122,62.134169 40.254878,61.773442 40,61.40625 C 39.056177,60.048234 38.131933,58.680672 37.25,57.28125 C 36.351877,55.828541 35.5178,54.353328 34.71875,52.84375 C 33.920037,51.340012 33.042065,49.836575 32.5,48.21875 C 32.137369,47.009512 31.823563,45.77967 31.625,44.53125 C 31.505589,43.81427 31.3905,43.099012 31.3125,42.375 z M 26.0625,47.625 L 25.8125,47.875 C 25.793164,48.494903 25.793144,49.127304 25.78125,49.75 C 25.774199,51.597159 25.906124,53.441951 26.0625,55.28125 C 26.212521,57.063106 26.513763,58.837431 26.84375,60.59375 C 26.970894,61.232417 27.111999,61.865786 27.25,62.5 C 27.250475,62.502185 27.280774,62.497815 27.28125,62.5 C 27.134448,61.854972 27.004266,61.212065 26.875,60.5625 C 26.545175,58.806345 26.274893,57.031678 26.125,55.25 C 25.968731,53.410876 25.836437,51.565726 25.84375,49.71875 C 25.857444,49.010223 25.954363,48.316529 26.0625,47.625 z M 19.75,54.3125 C 19.745629,54.334486 19.723117,54.353012 19.71875,54.375 C 19.461173,55.725805 19.155792,57.060206 18.875,58.40625 C 18.617529,59.635853 18.366364,60.860892 18.125,62.09375 C 18.098757,62.227489 18.060566,62.363383 18.03125,62.5 L 18.375,62.5 C 18.421679,62.4237 18.489117,62.362455 18.5,62.28125 C 18.52457,62.097926 18.53793,61.902071 18.5625,61.71875 C 18.729644,60.545162 18.903798,59.38889 19.09375,58.21875 C 19.300899,56.922635 19.485956,55.598709 19.75,54.3125 z "
       id="path3481" />
    <path
       sodipodi:type="arc"
       style="opacity:1;fill:url(#radialGradient3316);fill-opacity:1.0;stroke:none;stroke-width:1.5;stroke-linecap:round;stroke-linejoin:round;stroke-miterlimit:4;stroke-dasharray:none;stroke-dashoffset:0;stroke-opacity:1"
       id="path3308"
       sodipodi:cx="34.377918"
       sodipodi:cy="32.06794"
       sodipodi:rx="3.6687899"
       sodipodi:ry="31.252653"
       d="M 38.046708 32.06794 A 3.6687899 31.252653 0 1 1  30.709128,32.06794 A 3.6687899 31.252653 0 1 1  38.046708 32.06794 z"
       transform="matrix(0.7071068,0.7071068,-0.7071068,0.7071068,31.113981,-17.226356)" />
    <path
       style="opacity:1;fill:#ffffff;fill-opacity:1;stroke:none;stroke-width:1.5;stroke-linecap:round;stroke-linejoin:round;stroke-miterlimit:4;stroke-dasharray:none;stroke-dashoffset:0;stroke-opacity:1;filter:url(#filter3364)"
       d="M 37.20767,6.625 C 37.80369,7.6366588 38.334022,8.6777458 38.680278,9.8125 C 39.010668,10.924723 39.241535,12.066594 39.401556,13.21875 C 39.532673,14.369605 39.600184,15.528415 39.551822,16.6875 C 39.489546,17.798068 39.367302,18.919598 39.101023,20 C 38.82035,20.931358 38.500116,21.86007 38.04916,22.71875 C 37.636688,23.481663 37.168495,24.202988 36.666711,24.90625 C 36.170405,25.594534 35.675468,26.286695 35.133996,26.9375 C 33.875708,28.443028 34.233568,27.944233 34.292506,27.90625 C 33.917085,28.256017 33.521616,28.589098 33.120429,28.90625 C 33.05108,28.433184 32.994781,27.97056 32.910057,27.5 C 32.741179,26.574566 32.489126,25.648402 32.218832,24.75 C 31.956852,23.643368 31.412247,22.682351 30.956596,21.65625 C 30.426165,20.438231 29.760854,19.295545 29.093296,18.15625 C 28.359333,16.878751 27.459169,15.732022 26.508717,14.625 C 25.501661,13.483856 24.463846,12.378805 23.413234,11.28125 C 17.312495,7.5603419 18.872185,6.5337958 23.353128,11.3125 C 24.403656,12.409968 25.471693,13.515192 26.478664,14.65625 C 27.428754,15.762876 28.337118,16.936573 29.063243,18.21875 C 29.707388,19.398594 30.255699,20.60499 30.716171,21.875 C 31.103093,23.013208 31.342447,24.196649 31.587714,25.375 C 31.763482,26.358147 31.916596,27.344593 31.978406,28.34375 C 32.006068,28.789167 32.007049,29.24095 32.00846,29.6875 C 31.867756,29.767559 31.708171,29.84552 31.557661,29.90625 C 31.460486,29.917583 31.355606,30.01025 31.257129,29.9375 C 30.305147,29.234241 29.238023,31.103489 28.973083,32.125 C 28.708193,32.14105 28.457374,32.152923 28.191699,32.15625 C 27.444201,32.139647 26.702813,32.037166 25.967759,31.90625 C 25.000508,31.752154 24.02756,31.512697 23.082648,31.25 C 21.959673,30.928498 20.910517,30.435668 19.866952,29.90625 C 18.734227,29.328732 17.643377,28.659226 16.591149,27.9375 C 15.426544,27.110716 14.408147,26.087598 13.43556,25.03125 C 12.223181,23.739102 11.35873,22.190461 10.580502,20.59375 C 10.445988,20.301817 10.324325,20.010682 10.18981,19.71875 C 10.17384,19.68409 10.113732,19.715342 10.129704,19.75 C 10.264251,20.04197 10.415901,20.33303 10.550449,20.625 C 11.329063,22.222238 12.16267,23.769877 13.375453,25.0625 C 14.350113,26.121084 15.398796,27.117548 16.50099,28.03125 C 17.46931,28.842001 18.470326,29.600664 19.56642,30.21875 C 20.555203,30.784983 21.559229,31.324975 22.571743,31.84375 C 23.37215,32.25429 24.196374,32.651136 25.036109,32.96875 C 25.700456,33.185518 26.360281,33.414917 27.049676,33.53125 C 27.589951,33.614791 28.12379,33.72272 28.67255,33.6875 C 29.092286,33.643171 29.487201,33.564018 29.87468,33.375 C 30.128037,33.264977 30.39371,33.148181 30.656064,33.0625 C 30.922738,32.796151 31.351973,32.492392 31.768034,32.1875 C 31.723347,32.404819 31.690317,32.63269 31.617768,32.84375 C 31.480897,33.240662 31.341431,33.633364 31.136916,34 C 31.122065,34.023934 31.091114,34.037948 31.076809,34.0625 C 30.931069,34.226125 30.802255,34.399338 30.656064,34.5625 C 30.27685,34.963333 30.134236,35.128754 30.115106,35.15625 C 30.071943,35.197405 30.299658,34.976468 29.994893,35.28125 C 29.303645,35.965497 28.560738,36.610854 27.83106,37.25 C 27.079844,37.911496 26.33341,38.54071 25.547014,39.15625 C 24.640645,39.865822 23.654658,40.494222 22.661903,41.0625 C 21.610763,41.670638 20.517089,42.14326 19.3861,42.5625 C 18.192589,43.004523 16.94113,43.254523 15.689552,43.4375 C 14.371154,43.617826 13.038986,43.560862 11.722525,43.40625 C 10.318306,43.266982 9.0151116,42.75559 7.7554979,42.125 C 6.3689875,41.403396 5.1322939,40.42995 3.9687901,39.375 C 2.6781633,38.016578 2.001202,37.808025 3.9387369,39.4375 C 5.1026533,40.492868 6.3385073,41.465454 7.7254447,42.1875 C 8.9799007,42.815735 10.269239,43.330646 11.662419,43.5 C 12.952643,43.662729 14.240874,43.740974 15.539286,43.625 C 16.754512,43.505942 17.954325,43.275698 19.115621,42.875 C 20.214022,42.498854 21.301017,42.049352 22.331318,41.5 C 23.249141,41.013163 24.159955,40.520639 25.006056,39.90625 C 25.773391,39.341965 26.514539,38.728006 27.229995,38.09375 C 27.905811,37.499912 28.606747,36.917228 29.273615,36.3125 C 29.766277,35.846562 30.243108,35.362096 30.716171,34.875 C 31.194322,35.102524 34.199731,33.680768 33.390909,32.40625 C 33.353131,32.346721 33.345035,32.256533 33.330802,32.1875 C 33.330507,32.16659 33.330967,32.145911 33.330802,32.125 C 33.382256,32.088908 33.449731,32.03894 33.511121,32.03125 C 35.289531,31.808496 36.634462,28.05218 35.404475,29.40625 C 35.262862,29.562151 35.101706,29.694195 34.953677,29.84375 C 34.398199,30.371694 33.855847,30.938863 33.330802,31.5 C 33.331406,31.458172 33.330376,31.416825 33.330802,31.375 C 33.330941,30.839742 33.290019,30.282183 33.240642,29.75 C 33.223938,29.602286 33.199928,29.459758 33.180536,29.3125 C 33.280637,29.21613 33.382009,29.128791 33.481068,29.03125 C 34.4071,28.125739 35.29251,27.152744 36.125753,26.15625 C 36.677825,25.492998 37.194126,24.835826 37.688521,24.125 C 38.183365,23.427201 38.624762,22.674452 39.010864,21.90625 C 39.399906,21.10139 39.699295,20.267456 39.822301,19.375 C 39.984241,18.333191 40.065314,17.303321 40.062727,16.25 C 40.095963,15.10712 39.979714,13.973126 39.822301,12.84375 C 39.694064,11.680776 39.430191,10.522684 39.101023,9.40625 C 38.74514,8.2717582 38.208256,7.2340332 37.568308,6.25 C 34.136614,2.7816493 34.593099,4.2267418 37.20767,6.625 z M 31.978406,30.40625 C 31.970572,30.572105 31.993337,30.740717 31.978406,30.90625 C 31.972373,30.959581 31.954366,31.009125 31.948353,31.0625 C 31.944836,31.093719 31.951909,31.125027 31.948353,31.15625 C 31.18088,32.258574 30.296153,33.831029 30.505798,32.75 C 30.649596,32.008505 31.349976,31.555385 31.948353,31.0625 C 31.743743,31.213471 31.536514,31.340266 31.317235,31.46875 C 30.90631,31.709749 30.443601,31.860189 29.994893,32 C 30.035181,31.967326 30.075036,31.939158 30.115106,31.90625 C 30.630378,31.493982 31.159791,31.095958 31.677874,30.6875 C 31.784374,30.603524 31.87408,30.492931 31.978406,30.40625 z "
       id="path3351"
       sodipodi:nodetypes="ccccccssscsccccccccccscsscscsscccssccssscsssccssssssssssccccccscssssccsssssscsscsssccccccccsscscssssc" />
  </g>
</svg>
