<?xml version="1.0" encoding="utf-8"?>
<!-- Generator: Adobe Illustrator 13.0.0, SVG Export Plug-In . SVG Version: 6.00 Build 14948)  -->
<!DOCTYPE svg PUBLIC "-//W3C//DTD SVG 1.1//EN" "http://www.w3.org/Graphics/SVG/1.1/DTD/svg11.dtd">
<svg version="1.1" id="Layer_1" xmlns="http://www.w3.org/2000/svg" xmlns:xlink="http://www.w3.org/1999/xlink" x="0px" y="0px"
	 width="128px" height="128px" viewBox="0 0 128 128" enable-background="new 0 0 128 128" xml:space="preserve">
<g>
	<g>
		<g>
			<g>
				<linearGradient id="SVGID_1_" gradientUnits="userSpaceOnUse" x1="79.1807" y1="112.9092" x2="54.5216" y2="95.6427">
					<stop  offset="0" style="stop-color:#181500"/>
					<stop  offset="1" style="stop-color:#5F5D5C"/>
				</linearGradient>
				<path fill="url(#SVGID_1_)" d="M67.771,85.184h-5.832c-1.148,15.471-3.318,28.266-10.49,28.043h26.811
					C71.083,113.449,68.91,100.654,67.771,85.184z"/>
				<linearGradient id="SVGID_2_" gradientUnits="userSpaceOnUse" x1="63.999" y1="112.6182" x2="63.999" y2="120.9146">
					<stop  offset="0" style="stop-color:#181500"/>
					<stop  offset="1" style="stop-color:#5F5D5C"/>
				</linearGradient>
				<path fill="url(#SVGID_2_)" d="M96.506,118.023c0,2.287-1.856,2.869-4.146,2.869H35.642c-2.293,0-4.149-0.578-4.149-2.869v0.176
					c0-2.291,1.856-4.146,4.149-4.146l18.038-1.277h22.242l16.438,1.277c2.289,0,4.146,1.855,4.146,4.146V118.023z"/>
			</g>
			<g opacity="0.79">
				<path fill="#808080" d="M91.21,114.314l-15.767-1.225H54.109l-17.302,1.225c-2.17,0-2.882,1.023-3.949,3.053
					c0.006,0.279,2.064-1.473,3.949-1.473l17.302-1.227h21.334l15.767,1.227c1.884,0,3.92,1.594,3.926,1.312
					C94.068,115.125,93.379,114.314,91.21,114.314z"/>
				<linearGradient id="SVGID_3_" gradientUnits="userSpaceOnUse" x1="32.8325" y1="118.1201" x2="32.8325" y2="118.2918">
					<stop  offset="0" style="stop-color:#FFFFFF"/>
					<stop  offset="1" style="stop-color:#000000"/>
				</linearGradient>
				<path fill="url(#SVGID_3_)" d="M32.828,118.291c0-0.031,0.009-0.057,0.009-0.086s-0.009-0.053-0.009-0.082V118.291z"/>
				<linearGradient id="SVGID_4_" gradientUnits="userSpaceOnUse" x1="95.1836" y1="118.1201" x2="95.1836" y2="118.2918">
					<stop  offset="0" style="stop-color:#FFFFFF"/>
					<stop  offset="1" style="stop-color:#000000"/>
				</linearGradient>
				<path fill="url(#SVGID_4_)" d="M95.179,118.205c0.002,0.029,0.01,0.055,0.01,0.086v-0.168
					C95.188,118.152,95.181,118.176,95.179,118.205z"/>
			</g>
			<linearGradient id="SVGID_5_" gradientUnits="userSpaceOnUse" x1="122.1787" y1="92.6562" x2="7.7201" y2="12.5115">
				<stop  offset="0" style="stop-color:#181500"/>
				<stop  offset="1" style="stop-color:#5F5D5C"/>
			</linearGradient>
			<path fill="url(#SVGID_5_)" d="M125.841,77.758c0,8.783-7.118,15.902-15.902,15.902H18.058c-8.779,0-15.898-7.121-15.898-15.902
				V26.08c0-8.783,7.119-15.902,15.898-15.902h91.881c8.784,0,15.902,7.121,15.902,15.902V77.758z"/>
			<path fill="#999999" d="M8.214,17.838c2.672-2.885,7.912-5.529,12.508-5.529l86.958,0.115c4.597,0,9.14,2.529,11.811,5.414h0.991
				c-2.629-3.82-7.479-6.395-13.044-6.395H20.001c-5.565,0-10.415,2.574-13.044,6.395H8.214z"/>
			<path d="M119.225,86.193c-2.672,2.889-7.912,5.531-12.507,5.531l-86.959-0.115c-4.598,0-9.139-2.527-11.811-5.416H6.957
				c2.629,3.822,7.479,6.395,13.044,6.395h87.437c5.565,0,10.415-2.572,13.044-6.395H119.225z"/>
			<linearGradient id="SVGID_6_" gradientUnits="userSpaceOnUse" x1="113.2393" y1="86.5078" x2="14.445" y2="17.3314">
				<stop  offset="0" style="stop-color:#00B2DE"/>
				<stop  offset="1" style="stop-color:#99DBF6"/>
			</linearGradient>
			<path fill="url(#SVGID_6_)" d="M119.077,74.031c0,7.51-6.356,13.602-14.201,13.602H22.809c-7.844,0-14.201-6.092-14.201-13.602
				V29.812c0-7.514,6.357-13.605,14.201-13.605h82.067c7.845,0,14.201,6.092,14.201,13.605V74.031z"/>
			<path fill="#94D9F8" d="M104.876,16.207H22.809c-7.844,0-14.201,6.092-14.201,13.605v32.855
				c11.184,3.045,23.731,4.754,36.99,4.754c31.368,0,58.749-9.564,73.479-23.785V29.812
				C119.077,22.299,112.721,16.207,104.876,16.207z"/>
		</g>
	</g>
	<g>
		<path fill="#99DBF6" d="M49.68,39.491l0.013-0.002l0.037-0.043l-0.016,0.006C49.706,39.466,49.692,39.479,49.68,39.491
			L49.68,39.491z"/>
		<path fill="#99DBF6" d="M49.694,39.438c0.02-0.02,0.026-0.027,0.031-0.037l-0.015,0.002l-0.017,0.021l-0.004-0.004l0.023-0.025
			l-0.016,0.006c0,0-0.049,0.051-0.064,0.07h0.006l0.029-0.027h0.007c-0.005,0.006-0.029,0.035-0.028,0.041
			C49.663,39.47,49.679,39.452,49.694,39.438L49.694,39.438z"/>
		<path fill="#99DBF6" d="M49.311,39.577c0,0-0.015-0.002-0.115,0.092l-0.011,0.004c-0.012,0.006-0.085,0.092-0.085,0.104
			c0,0,0.042-0.027,0.093-0.08c0.026,0,0.068-0.025,0.08-0.033c0.014-0.008,0.029-0.02,0.041-0.031
			c0.02-0.018,0.078-0.086,0.072-0.096h-0.001C49.382,39.536,49.325,39.567,49.311,39.577L49.311,39.577z"/>
		<path fill="#99DBF6" d="M48.944,39.907c0,0,0.02-0.018,0.033-0.031c0.014-0.018,0.016-0.021,0.016-0.021l0,0
			C48.993,39.854,48.944,39.896,48.944,39.907L48.944,39.907z"/>
		<polygon fill="#99DBF6" points="48.976,39.841 48.923,39.896 48.938,39.886 48.981,39.841 		"/>
		<path fill="#99DBF6" d="M48.874,39.913c-0.001-0.016-0.027,0.012-0.041,0.023l-0.047,0.051c-0.004,0.01-0.009,0.018-0.016,0.023
			c-0.071,0.076-0.07,0.078-0.07,0.082c0,0,0.006,0,0.025-0.018l0.029-0.029l0.035-0.027l0.023-0.025h0.008l0.059-0.068h-0.004
			c-0.007,0.01-0.018,0.018-0.023,0.025c0.037-0.047,0.037-0.051,0.037-0.051c-0.008,0-0.01,0.008-0.01,0.008L48.874,39.913z"/>
		<path fill="#99DBF6" d="M48.684,40.093c-0.01,0.004-0.022,0.01-0.031,0.018l-0.05,0.061c0.027-0.018,0.027-0.018,0.043-0.031
			c0.02-0.016,0.055-0.064,0.055-0.064S48.694,40.081,48.684,40.093L48.684,40.093z"/>
		<path fill="#99DBF6" d="M48.601,40.163l0.006-0.006c0,0,0.016-0.016,0.051-0.062c0.014-0.016,0.027-0.031,0.042-0.047H48.69
			c-0.012,0.006-0.059,0.059-0.086,0.086c-0.055,0.047-0.055,0.047-0.111,0.111c0.006-0.004,0.014-0.008,0.018-0.016
			c0.011-0.012,0.048-0.043,0.098-0.084L48.601,40.163L48.601,40.163z"/>
		<path fill="#99DBF6" d="M48.378,40.341c0,0,0.003,0,0.027-0.031c0.008-0.01,0.016-0.018,0.025-0.029
			c-0.015,0.01-0.053,0.053-0.053,0.053V40.341z"/>
		<path fill="#99DBF6" d="M48.132,40.554c-0.02,0.021-0.036,0.045-0.057,0.064v0.002c0,0,0.009-0.008,0.025-0.027
			c0.036-0.039,0.037-0.041,0.039-0.045l0,0L48.132,40.554L48.132,40.554z"/>
		<path fill="#A4D9E6" d="M43.893,52.687l-0.01,0.006c-0.003,0.012-0.027,0.082-0.028,0.109c0,0.018,0.006,0.029,0.023,0.023
			c0.002,0.021,0.004,0.031,0.004,0.031c0.008-0.002,0.016-0.01,0.021-0.072l0.001-0.002c0-0.01,0.008-0.018,0.012-0.027
			C43.922,52.726,43.905,52.687,43.893,52.687L43.893,52.687z"/>
		<path fill="#A4D9E6" d="M44.101,52.991c-0.004,0-0.014-0.006-0.006-0.062c-0.01-0.004-0.014-0.006-0.014-0.006
			c-0.012,0.002-0.025,0.006-0.027,0.055c0,0.021,0,0.033,0,0.033c0.004,0.016,0.01,0.029,0.012,0.047
			c0,0.012-0.004,0.025-0.002,0.039c0,0,0.004,0.012,0.008,0.016c0.007,0.01,0.033,0.02,0.044-0.047
			C44.123,53.003,44.101,52.991,44.101,52.991L44.101,52.991z"/>
		<path fill="#A4D9E6" d="M44.253,53.095l-0.008-0.002c-0.008,0-0.015,0.002-0.015,0.002c-0.013,0-0.017,0-0.024,0
			s-0.02,0.002-0.022,0.02c-0.004,0.016,0.001,0.055,0.006,0.066c0.013,0.023,0.03-0.016,0.032-0.023
			c0.012-0.002,0.025-0.006,0.035-0.008l0.002-0.012C44.265,53.103,44.257,53.097,44.253,53.095L44.253,53.095z"/>
		<path fill="#A4D9E6" d="M44.316,53.378c0,0,0.038,0.004,0.046-0.061c0.006-0.053-0.019-0.066-0.027-0.07
			c-0.006-0.039-0.012-0.049-0.029-0.049c-0.006,0-0.021,0.004-0.037,0.023c-0.004,0.01,0,0.018,0,0.018
			c0.002,0.064,0.017,0.07,0.033,0.057C44.294,53.374,44.306,53.386,44.316,53.378L44.316,53.378z"/>
		<path fill="#A4D9E6" d="M44.499,53.745c-0.004-0.018-0.002-0.037-0.006-0.055c-0.002-0.014-0.008-0.031-0.015-0.045
			c-0.009-0.027-0.03-0.074-0.073-0.088c0.008-0.023,0.008-0.037,0-0.051c-0.01,0.01-0.032,0.031-0.022,0.17
			c-0.032,0.027-0.042,0.082-0.046,0.115c-0.002,0.027,0.01,0.068,0.02,0.086l0.004,0.006c0.004,0.031-0.002,0.07-0.001,0.098
			c0.004,0.123,0.034,0.133,0.034,0.133l0.004-0.004c0,0,0.003-0.014,0.004-0.018c0.002-0.02,0.004-0.057,0.029-0.1
			c0.02-0.033,0.062-0.047,0.079-0.08l0.02-0.064c0.009-0.037-0.009-0.078-0.029-0.102L44.499,53.745L44.499,53.745z"/>
		<path fill="#A4D9E6" d="M46.784,68.136l0.09,0.125c-0.002-0.006-0.02-0.033-0.037-0.057c-0.029-0.043-0.047-0.064-0.047-0.064
			L46.784,68.136z"/>
		<path fill="#A4D9E6" d="M46.894,68.269v0.004c0.047,0.066,0.064,0.09,0.071,0.094c0,0,0-0.004-0.038-0.059
			C46.913,68.288,46.901,68.271,46.894,68.269L46.894,68.269z"/>
		<path fill="#99DBF6" d="M50.227,69.354h-0.003l0.005,0.035c0,0,0.005,0.01,0.017,0.021c0.014,0.016,0.059,0.055,0.083,0.061
			c0,0,0.033,0.008,0.015-0.021C50.327,69.425,50.246,69.354,50.227,69.354L50.227,69.354z"/>
		<path fill="none" d="M87.908,53.647C88.78,66.12,79.384,76.937,66.921,77.81c-12.461,0.871-23.27-8.533-24.143-21.006
			c-0.871-12.469,8.523-23.287,20.988-24.156C76.228,31.772,87.036,41.179,87.908,53.647L87.908,53.647z"/>
		
			<linearGradient id="SVGID_7_" gradientUnits="userSpaceOnUse" x1="-164.1611" y1="-655.0684" x2="-201.2305" y2="-629.1124" gradientTransform="matrix(1 0 0 -1 246.7271 -588.7695)">
			<stop  offset="0" style="stop-color:#DEDEDE"/>
			<stop  offset="1" style="stop-color:#FEFEFE"/>
		</linearGradient>
		<path fill="url(#SVGID_7_)" stroke="#000000" stroke-miterlimit="3.8637" d="M86.597,51.741
			c0.873,12.471-8.525,23.289-20.987,24.16c-12.462,0.873-23.271-8.531-24.143-21.004c-0.871-12.469,8.524-23.287,20.989-24.158
			C74.917,29.866,85.724,39.272,86.597,51.741L86.597,51.741z"/>
		<g>
			
				<linearGradient id="SVGID_8_" gradientUnits="userSpaceOnUse" x1="-210.9229" y1="-642.1982" x2="-210.9229" y2="-639.2002" gradientTransform="matrix(1 0 0 -1 246.7271 -588.7695)">
				<stop  offset="0" style="stop-color:#5F5D5C"/>
				<stop  offset="1" style="stop-color:#181500"/>
			</linearGradient>
			<polygon fill="url(#SVGID_8_)" points="37.151,53.429 34.307,53.278 34.454,50.431 37.303,50.581 			"/>
			
				<linearGradient id="SVGID_9_" gradientUnits="userSpaceOnUse" x1="-209.1714" y1="-634.0889" x2="-209.1714" y2="-630.4346" gradientTransform="matrix(1 0 0 -1 246.7271 -588.7695)">
				<stop  offset="0" style="stop-color:#5F5D5C"/>
				<stop  offset="1" style="stop-color:#181500"/>
			</linearGradient>
			<polygon fill="url(#SVGID_9_)" points="38.405,45.319 35.729,44.347 36.702,41.665 39.383,42.642 			"/>
			
				<linearGradient id="SVGID_10_" gradientUnits="userSpaceOnUse" x1="-204.9463" y1="-626.6924" x2="-204.9463" y2="-622.6904" gradientTransform="matrix(1 0 0 -1 246.7271 -588.7695)">
				<stop  offset="0" style="stop-color:#5F5D5C"/>
				<stop  offset="1" style="stop-color:#181500"/>
			</linearGradient>
			<polygon fill="url(#SVGID_10_)" points="42.028,37.923 39.78,36.167 41.538,33.921 43.782,35.675 			"/>
			
				<linearGradient id="SVGID_11_" gradientUnits="userSpaceOnUse" x1="-198.6479" y1="-620.8643" x2="-198.6479" y2="-616.8916" gradientTransform="matrix(1 0 0 -1 246.7271 -588.7695)">
				<stop  offset="0" style="stop-color:#5F5D5C"/>
				<stop  offset="1" style="stop-color:#181500"/>
			</linearGradient>
			<polygon fill="url(#SVGID_11_)" points="47.73,32.095 46.096,29.759 48.431,28.122 50.063,30.46 			"/>
			
				<linearGradient id="SVGID_12_" gradientUnits="userSpaceOnUse" x1="-190.8496" y1="-616.9111" x2="-190.8496" y2="-613.3545" gradientTransform="matrix(1 0 0 -1 246.7271 -588.7695)">
				<stop  offset="0" style="stop-color:#5F5D5C"/>
				<stop  offset="1" style="stop-color:#181500"/>
			</linearGradient>
			<polygon fill="url(#SVGID_12_)" points="54.932,28.142 54.099,25.415 56.825,24.585 57.657,27.31 			"/>
			
				<linearGradient id="SVGID_13_" gradientUnits="userSpaceOnUse" x1="-182.3608" y1="-615.3408" x2="-182.3608" y2="-612.4893" gradientTransform="matrix(1 0 0 -1 246.7271 -588.7695)">
				<stop  offset="0" style="stop-color:#5F5D5C"/>
				<stop  offset="1" style="stop-color:#181500"/>
			</linearGradient>
			<polygon fill="url(#SVGID_13_)" points="62.942,26.571 62.94,23.72 65.792,23.72 65.792,26.571 			"/>
			
				<linearGradient id="SVGID_14_" gradientUnits="userSpaceOnUse" x1="-173.7993" y1="-617.1709" x2="-173.7993" y2="-613.5771" gradientTransform="matrix(1 0 0 -1 246.7271 -588.7695)">
				<stop  offset="0" style="stop-color:#5F5D5C"/>
				<stop  offset="1" style="stop-color:#181500"/>
			</linearGradient>
			<polygon fill="url(#SVGID_14_)" points="71.132,27.521 72.013,24.808 74.724,25.688 73.843,28.401 			"/>
			
				<linearGradient id="SVGID_15_" gradientUnits="userSpaceOnUse" x1="-166.106" y1="-621.3467" x2="-166.106" y2="-617.3643" gradientTransform="matrix(1 0 0 -1 246.7271 -588.7695)">
				<stop  offset="0" style="stop-color:#5F5D5C"/>
				<stop  offset="1" style="stop-color:#181500"/>
			</linearGradient>
			<polygon fill="url(#SVGID_15_)" points="78.63,30.899 80.306,28.595 82.612,30.271 80.935,32.577 			"/>
			
				<linearGradient id="SVGID_16_" gradientUnits="userSpaceOnUse" x1="-159.9673" y1="-627.458" x2="-159.9673" y2="-623.4756" gradientTransform="matrix(1 0 0 -1 246.7271 -588.7695)">
				<stop  offset="0" style="stop-color:#5F5D5C"/>
				<stop  offset="1" style="stop-color:#181500"/>
			</linearGradient>
			<polygon fill="url(#SVGID_16_)" points="84.769,36.382 87.078,34.706 88.751,37.011 86.446,38.688 			"/>
			
				<linearGradient id="SVGID_17_" gradientUnits="userSpaceOnUse" x1="-155.9595" y1="-634.9443" x2="-155.9595" y2="-631.3545" gradientTransform="matrix(1 0 0 -1 246.7271 -588.7695)">
				<stop  offset="0" style="stop-color:#5F5D5C"/>
				<stop  offset="1" style="stop-color:#181500"/>
			</linearGradient>
			<polygon fill="url(#SVGID_17_)" points="88.972,43.464 91.682,42.585 92.563,45.296 89.853,46.175 			"/>
			
				<linearGradient id="SVGID_18_" gradientUnits="userSpaceOnUse" x1="-154.4839" y1="-643.0498" x2="-154.4839" y2="-640.1514" gradientTransform="matrix(1 0 0 -1 246.7271 -588.7695)">
				<stop  offset="0" style="stop-color:#5F5D5C"/>
				<stop  offset="1" style="stop-color:#181500"/>
			</linearGradient>
			<polygon fill="url(#SVGID_18_)" points="90.793,51.431 93.644,51.382 93.693,54.231 90.844,54.28 			"/>
			
				<linearGradient id="SVGID_19_" gradientUnits="userSpaceOnUse" x1="-156.1357" y1="-652.9268" x2="-156.1357" y2="-649.2725" gradientTransform="matrix(1 0 0 -1 246.7271 -588.7695)">
				<stop  offset="0" style="stop-color:#5F5D5C"/>
				<stop  offset="1" style="stop-color:#181500"/>
			</linearGradient>
			<polygon fill="url(#SVGID_19_)" points="89.739,60.503 92.417,61.476 91.441,64.157 88.766,63.181 			"/>
			
				<linearGradient id="SVGID_20_" gradientUnits="userSpaceOnUse" x1="-160.3628" y1="-660.6724" x2="-160.3628" y2="-656.6704" gradientTransform="matrix(1 0 0 -1 246.7271 -588.7695)">
				<stop  offset="0" style="stop-color:#5F5D5C"/>
				<stop  offset="1" style="stop-color:#181500"/>
			</linearGradient>
			<polygon fill="url(#SVGID_20_)" points="86.118,67.901 88.364,69.657 86.606,71.903 84.364,70.147 			"/>
			
				<linearGradient id="SVGID_21_" gradientUnits="userSpaceOnUse" x1="-166.6602" y1="-666.4692" x2="-166.6602" y2="-662.4985" gradientTransform="matrix(1 0 0 -1 246.7271 -588.7695)">
				<stop  offset="0" style="stop-color:#5F5D5C"/>
				<stop  offset="1" style="stop-color:#181500"/>
			</linearGradient>
			<polygon fill="url(#SVGID_21_)" points="80.417,73.729 82.052,76.065 79.718,77.7 78.082,75.366 			"/>
			
				<linearGradient id="SVGID_22_" gradientUnits="userSpaceOnUse" x1="-174.4604" y1="-670.0063" x2="-174.4604" y2="-666.4497" gradientTransform="matrix(1 0 0 -1 246.7271 -588.7695)">
				<stop  offset="0" style="stop-color:#5F5D5C"/>
				<stop  offset="1" style="stop-color:#181500"/>
			</linearGradient>
			<polygon fill="url(#SVGID_22_)" points="73.215,77.681 74.046,80.405 71.323,81.237 70.487,78.513 			"/>
			
				<linearGradient id="SVGID_23_" gradientUnits="userSpaceOnUse" x1="-182.9487" y1="-670.8735" x2="-182.9487" y2="-668.0239" gradientTransform="matrix(1 0 0 -1 246.7271 -588.7695)">
				<stop  offset="0" style="stop-color:#5F5D5C"/>
				<stop  offset="1" style="stop-color:#181500"/>
			</linearGradient>
			<polygon fill="url(#SVGID_23_)" points="65.204,79.255 65.204,82.104 62.353,82.104 62.353,79.255 			"/>
			
				<linearGradient id="SVGID_24_" gradientUnits="userSpaceOnUse" x1="-191.5093" y1="-669.7837" x2="-191.5093" y2="-666.1919" gradientTransform="matrix(1 0 0 -1 246.7271 -588.7695)">
				<stop  offset="0" style="stop-color:#5F5D5C"/>
				<stop  offset="1" style="stop-color:#181500"/>
			</linearGradient>
			<polygon fill="url(#SVGID_24_)" points="57.014,78.304 56.134,81.015 53.423,80.134 54.304,77.423 			"/>
			
				<linearGradient id="SVGID_25_" gradientUnits="userSpaceOnUse" x1="-199.2021" y1="-665.9985" x2="-199.2021" y2="-662.0161" gradientTransform="matrix(1 0 0 -1 246.7271 -588.7695)">
				<stop  offset="0" style="stop-color:#5F5D5C"/>
				<stop  offset="1" style="stop-color:#181500"/>
			</linearGradient>
			<polygon fill="url(#SVGID_25_)" points="49.517,74.923 47.841,77.229 45.534,75.554 47.21,73.247 			"/>
			
				<linearGradient id="SVGID_26_" gradientUnits="userSpaceOnUse" x1="-205.3423" y1="-659.8872" x2="-205.3423" y2="-655.9048" gradientTransform="matrix(1 0 0 -1 246.7271 -588.7695)">
				<stop  offset="0" style="stop-color:#5F5D5C"/>
				<stop  offset="1" style="stop-color:#181500"/>
			</linearGradient>
			<polygon fill="url(#SVGID_26_)" points="43.374,69.444 41.07,71.118 39.396,68.812 41.699,67.136 			"/>
			
				<linearGradient id="SVGID_27_" gradientUnits="userSpaceOnUse" x1="-209.3486" y1="-652.0088" x2="-209.3486" y2="-648.417" gradientTransform="matrix(1 0 0 -1 246.7271 -588.7695)">
				<stop  offset="0" style="stop-color:#5F5D5C"/>
				<stop  offset="1" style="stop-color:#181500"/>
			</linearGradient>
			<polygon fill="url(#SVGID_27_)" points="39.175,62.36 36.464,63.239 35.583,60.528 38.293,59.647 			"/>
		</g>
		<g>
			<g>
				
					<linearGradient id="SVGID_28_" gradientUnits="userSpaceOnUse" x1="-178.7739" y1="-664.0259" x2="-178.7739" y2="-619.6797" gradientTransform="matrix(1 0 0 -1 246.7271 -588.7695)">
					<stop  offset="0" style="stop-color:#5F5D5C"/>
					<stop  offset="1" style="stop-color:#181500"/>
				</linearGradient>
				<path id="SVGID_31_" fill="url(#SVGID_28_)" d="M70.257,32.173c-0.188-0.191-0.422-0.146-0.693-0.172
					c-0.688-0.07-1.44-0.363-2.115-0.465c-0.023,0.006-0.057,0.002-0.059,0.029c0.324,0.207,0.679,0.207,1.129,0.262
					C69.109,31.896,69.669,32.261,70.257,32.173z M78.773,40.343c-0.023,0.006-0.036,0.021-0.03,0.057
					c0.142,0.189,0.297,0.414,0.465,0.607c0.152,0.178,0.334,0.496,0.579,0.463C79.626,40.935,79.306,40.405,78.773,40.343z
					 M76.052,39.79c-0.15-0.273-0.23-0.619-0.35-0.928c-0.197,0.041-0.336,0.145-0.488,0.232c-0.041,0.279-0.096,0.545-0.232,0.725
					C75.237,40.065,75.866,40.204,76.052,39.79z M65.798,38.169c-0.357-0.045-0.604-0.025-0.899-0.029
					c-0.058,0.055-0.063,0.168-0.144,0.203c-0.74-0.145-0.939,0.381-1.42,0.58c0.041,0.396,0.399,0.469,0.726,0.58
					c0.095-0.111,0.268-0.139,0.289-0.316c0.013-0.102-0.146-0.182-0.056-0.262c0.103,0.197,0.229-0.072,0.375-0.088
					c0.031,0.236-0.221,0.41-0.204,0.723c-0.229-0.004-0.266,0.178-0.315,0.348c0.066,0.135,0.244,0.158,0.403,0.205
					c-0.133,0.012-0.22,0.068-0.349,0.086c-0.307-0.111-1.046-0.656-1.186-0.203c0.006,0.041,0.143-0.027,0.23,0
					c0.123,0.213,0.235,0.439,0.348,0.666c0.268-0.133,0.467,0.014,0.637,0.057c0.532,0.139,0.771-0.205,1.188-0.057
					c0.03-0.119,0.049-0.268-0.029-0.348c-0.289,0.098-0.328-0.207-0.493-0.232c0.119-0.086,0.437,0.119,0.61-0.057
					c0.074-0.125,0.121-0.318,0.059-0.494c0.111-0.186,0.307-0.289,0.579-0.316c0.302-0.291,0.231-0.803,0.38-1.217
					C66.271,38.147,65.974,37.876,65.798,38.169z M62.988,41.179c0.099,0.02,0.089,0.145,0.144,0.203
					c0.275-0.061,0.349-0.326,0.521-0.488c-0.099-0.055-0.082-0.229-0.203-0.262c-0.094,0.16-0.393,0.105-0.492,0.262
					C63,40.999,62.962,41.118,62.988,41.179z M62.988,31.478c0.003,0.262,0.735,0.254,0.868,0.029
					C63.606,31.47,63.247,31.405,62.988,31.478z M67.042,38.546c-0.061,0.256-0.282,0.352-0.377,0.578
					c-0.143-0.049-0.199,0.045-0.316,0.086c0.045,0.092,0.016,0.164-0.031,0.234c0.373,0.256,0.865,0.395,1.478,0.404
					c0.098-0.037,0.11-0.162,0.231-0.172c0.822,0.055,1.133,0.625,1.652,0.984c0.149,0.021,0.19-0.062,0.314-0.061
					c0.055,0.049,0.073,0.123,0.059,0.234c-0.029,0.066-0.193-0.002-0.174,0.113c0.059,0.32,0.715,0.041,0.752,0.379
					c-0.02,0.092-0.109,0.121-0.113,0.232c0.205,0.645,0.701,1.023,1.305,1.307c0.522,0.242,0.724,0.635,1.361,0.635
					c0.285-0.117,0.518-0.293,0.579-0.635c-0.149-0.52-0.622-0.713-0.64-1.365c0.091-0.082,0.189-0.158,0.291-0.229
					c0.016-0.162,0.046-0.305,0.086-0.436c-0.297-0.613,0.225-1.039,0.434-1.422c-0.057-0.293-0.258-0.434-0.406-0.607
					c-0.084-0.1-0.08-0.188-0.174-0.26c-0.046-0.037-0.135-0.037-0.201-0.088c-0.295-0.227-0.48-0.621-0.697-0.809
					c-0.147-0.133-0.406-0.236-0.577-0.379c-0.156-0.131-0.197-0.297-0.38-0.318c-0.132-0.033-0.112,0.08-0.233,0.059
					c-0.201-0.303-0.418-0.584-0.579-0.928c-0.123,0.025-0.137-0.055-0.232-0.057c0.027,0.25-0.525,0.143-0.521,0.461
					c-0.252-0.006-0.434-0.084-0.721-0.057c-0.219,0.361-0.551,0.609-1.014,0.725c-0.02,0.115,0.025,0.166,0.028,0.26
					c-0.072,0.027-0.125,0.068-0.234,0.059c-0.044,0.361-0.499,0.311-0.664,0.549c0.026,0.15,0.101,0.248,0.118,0.406
					C67.31,38.464,67.237,38.565,67.042,38.546z M82.599,42.687c-0.184-0.383-0.502-0.678-0.641-1.014
					c-0.171-0.412-0.123-0.783-0.348-1.102c0.16,0.09,0.244-0.057,0.433-0.027c0.093-0.238-0.116-0.457-0.29-0.666
					c0.016,0.068-0.172,0.041-0.17,0.174c-0.213-0.109-0.367-0.271-0.439-0.521c0.115,0.008,0.109-0.105,0.146-0.174
					c0.224,0.029,0.319,0.285,0.452,0.393c-0.568-0.742-1.181-1.443-1.835-2.107c-0.465-0.432-0.906-0.855-1.354-1.27
					c-1.312-1.133-2.755-2.115-4.301-2.928c-0.268-0.125-0.539-0.248-0.811-0.373c-0.643-0.291-1.281-0.584-1.94-0.848
					c-1.704-0.621-3.499-1.045-5.364-1.244c-3.412-0.246-6.848,0.17-9.291,1.166c-1.536,0.627-3.033,1.188-4.287,2.029
					c0.312-0.16,0.555-0.389,0.927-0.494c-0.552,0.434-1.089,0.881-1.593,1.363c0.043,0.016,0.148-0.033,0.145,0.029
					c-0.228,0.213-0.586,0.451-0.521,0.781c-0.204,0.025-0.25-0.213-0.434-0.23c-0.148-0.018-0.435,0.143-0.638,0.256
					c-0.376,0.215-0.79,0.365-0.927,0.699c0.543,0.145,0.898-0.393,1.477-0.176c-0.038,0.193-0.064,0.395-0.059,0.639
					c0.186,0.062,0.15,0.182,0.174,0.375c0.281-0.113,0.535-0.258,0.898-0.287c-0.042,0.418,0.043,0.709,0.289,0.838
					c0.166-0.367,0.391-0.645,0.611-0.953c0.109-0.16,0.162-0.338,0.26-0.521c0.154-0.287,0.589-0.65,0.261-1.014
					c0.487-0.285,0.712-0.836,1.245-1.074c0-0.076-0.011-0.166,0.029-0.203c0.148-0.053,0.314-0.092,0.349-0.26
					c0.295-0.23,0.679-0.314,0.954-0.58c0.057-0.051,0.085-0.123,0.145-0.172c0.146-0.115,0.351-0.174,0.522-0.291
					c0.162-0.109,0.303-0.279,0.462-0.377c0.514-0.311,1.221-0.414,1.854-0.637c0.637-0.225,1.326-0.354,1.97-0.465
					c-0.024,0.027-0.2,0.045-0.115,0.088c0.259-0.059,0.462-0.008,0.726-0.027c0.357-0.031,0.68-0.215,1.043-0.262
					c0.338-0.045,0.75,0.033,1.131,0c0.535-0.047,1.285-0.17,1.852-0.088c0.076,0.012-0.062,0.057,0.057,0.059
					c0.523,0.006,1.001,0.07,1.449,0.086c0.111,0.004,0.098,0.135,0.204,0.145c0.857-0.064,1.429,0.195,2.026,0.348
					c0.669,0.176,1.205,0.336,1.77,0.551c0.283,0.109,0.625,0.207,0.839,0.318c0.098,0.051,0.157,0.164,0.261,0.203
					c0.154,0.061,0.344,0.033,0.492,0.088c0.236,0.086,0.441,0.27,0.666,0.377c0.287,0.131,0.663,0.164,0.839,0.461
					c-0.675,0.066-0.794-0.672-1.534-0.637c0.078,0.254,0.622,0.549,0.434,0.898c0.428,0.324,0.756,0.748,1.305,0.955
					c0.149,0.311,0.443,0.352,0.725,0.549c0.149,0.109,0.262,0.287,0.404,0.379c0.25,0.158,0.553,0.219,0.754,0.406
					c0.229,0.209,0.307,0.562,0.521,0.811c0.304,0.348,0.661,0.494,1.073,0.693c0.02-0.135-0.039-0.346,0.027-0.434
					c0.271-0.008,0.447,0.076,0.666,0.115c-0.312-0.623-0.904-0.967-1.446-1.361c-0.847-0.195-1.294-0.945-1.883-1.301
					c0.579,0.121,0.759,0.646,1.335,0.779c0.102,0.047,0.016-0.098,0.084-0.088c0.977,0.639,2.09,1.291,2.375,2.52
					c-0.221-0.166-0.484-0.441-0.841-0.375c0.313,0.277,0.704,0.473,1.015,0.752c0,0.078-0.014,0.168,0.026,0.203
					c0.2,0.18,0.261,0.434,0.404,0.666c0.302,0.473,0.8,0.881,0.9,1.42c0.052,0.268-0.007,0.543,0.146,0.811
					c1.012,0.148,1.296,1.176,1.014,2.115c0.441,0.521,0.734,1.197,1.185,1.709c0.069-0.217,0.265-0.217,0.321-0.406
					c0.035-0.119,0.006-0.338,0-0.434C83.142,43.69,82.874,43.278,82.599,42.687z M81.585,63.626
					c-0.16-0.068-1.032-0.137-1.161-0.115c-0.345,0.062-0.617,0.42-0.868,0.494c-0.096-0.029-0.091-0.16-0.232-0.145
					c-0.496,0.146-1.065,0.021-1.506,0.287c0.048-0.613-0.279-1.367-0.957-1.328c-0.42,0.018-0.746,0.369-1.213,0.375
					c0-0.127,0.008-0.262-0.031-0.35h-0.404c-0.4-0.324-0.856-0.59-1.48-0.695c-0.262,0.16-0.594,0.215-0.982,0.205
					c-0.725-0.02-1.557-0.061-2.143,0.201c0.052-0.104,0.094-0.283,0-0.375c-0.738,0.373-1.523,0.697-1.912,1.418
					c-0.379,0.023-0.67-0.141-1.013-0.088c-0.143,0.025-0.26,0.166-0.407,0.176c-0.406,0.025-0.715-0.266-1.1-0.377
					c0.236-0.557,0.098-1.273-0.145-1.738c-0.561-0.15-1.307-0.234-1.91-0.172c0.137-0.639,0.433-1.113,0.695-1.623
					c-0.422-0.189-0.789-0.25-1.247-0.057c-0.378,0.158-0.687,0.568-1.043,0.637c-0.401,0.076-0.906-0.096-1.36-0.174
					c-0.047-0.246,0.03-0.402-0.029-0.639c-0.052-0.205-0.273-0.355-0.289-0.549c-0.015-0.162,0.11-0.32,0.145-0.463
					c0.105-0.465,0.16-0.957,0.174-1.479c0.174-0.148,0.309-0.379,0.52-0.434c0.621-0.158,0.867,0.203,1.275,0.232
					c0.172,0.012,0.42-0.025,0.579-0.088c0.135-0.053,0.218-0.236,0.406-0.289c0.462-0.131,0.915-0.094,1.384-0.115
					c0.345-0.016,0.43,0.055,0.524,0.414c0.124,0.467,0.483,0.707,0.579,1.174c0.031,0.152,0.42-0.189,0.445-0.227
					c0.145-0.219,0.221-0.637,0.146-0.895c-0.054-0.186-0.189-0.328-0.262-0.508c-0.071-0.182-0.047-0.361-0.123-0.539
					c0.27-0.51,0.883-0.617,1.244-1.012c0.115-0.127,0.262-0.336,0.35-0.492c0.12-0.227,0.32-0.637,0.404-0.928
					c0.107-0.367-0.063-0.729,0.115-1.16c0.41-0.166,0.84-0.316,1.186-0.547c-0.068-0.08-0.15-0.139-0.174-0.262
					c0.129-0.193,0.299-0.455,0.438-0.551c0.082-0.561,0.16-1.133,0.258-1.68c0.207-0.07,0.348-0.215,0.61-0.232
					c-0.011-0.105-0.116-0.117-0.087-0.262c-0.219-0.002-0.676,0.006-0.751-0.232c0.39-0.527,1.37-0.291,1.853-0.723
					c0.041-0.15,0.083-0.303,0.174-0.404c0.092,0.068,0.16,0.006,0.203,0.084c-0.064,0.281-0.209,0.633-0.117,0.898
					c0.312-0.217,0.725-0.338,1.014-0.578c0.004,0.029,0.031,0.045,0.057,0.057c0.019-0.111-0.182-0.094-0.317-0.115
					c-0.3-0.338-0.466-0.811-0.665-1.246c-0.584-0.424-1.451-0.508-2.03-0.928c-0.266-0.193-0.349-0.539-0.663-0.607
					c-0.158,0.162-0.182,0.459-0.381,0.578c-0.213,0.002-0.43,0.008-0.607-0.027c-0.172-0.449-0.406-0.832-0.725-1.131
					c-0.479-0.082-1.123-0.111-1.419,0.146c-0.017,0.873-0.017,1.732,0.491,2.084c-0.135,0.287-0.496,0.424-0.521,0.811
					c-0.016,0.301,0.363,0.887-0.084,1.07c-0.301-0.287-0.596-0.58-0.521-1.242c-0.312-0.076-0.59-0.199-0.899-0.32
					c-0.277-0.109-0.593-0.312-0.867-0.348c-0.317-0.041-0.664,0.102-0.956-0.115c-0.146-0.311-0.421-0.469-0.437-0.838
					c-0.023-0.619,0.643-0.898,0.871-1.336c0.379-0.045,0.64-0.361,0.837-0.49c-0.08,0.369,0.118,0.582,0.377,0.693
					c0.156-0.082,0.23-0.254,0.35-0.375c0.135,0.076,0.291,0.131,0.491,0.145v-0.26c-0.407-0.164-0.812-0.326-1.044-0.666
					c0.413-0.176,1.11-0.357,0.726-0.986c0.105,0.006,0.148-0.24,0.287-0.291c0.395,0.324,1.177,0.254,1.537,0.611
					c-0.043,0.238-0.135,0.426-0.174,0.666c-0.254,0.074-0.434,0.223-0.695,0.289c0.018,0.135-0.047,0.186-0.059,0.291
					c0.281-0.031,0.547-0.068,0.812-0.115c0.403,0.281,0.855,0.512,1.388,0.664c0.115-0.08,0.25-0.139,0.408-0.174
					c0.033-0.303,0.348-0.416,0.262-0.752c-0.294-0.143-0.63-0.24-0.754-0.551c0.377-0.021,0.595,0.162,0.926,0.029
					c0.006-0.168-0.053-0.273-0.055-0.434c-0.266-0.172-0.518-0.354-0.957-0.348c-0.33-0.27-0.617-0.58-1.102-0.695
					c-0.057,0.076-0.129,0.141-0.289,0.115c-0.277-0.209-0.414-0.568-0.753-0.695c-0.323-0.119-0.739-0.082-1.186-0.174
					c-0.132,0.105-0.15,0.314-0.233,0.463c-0.057-0.125-0.117-0.252-0.231-0.318c-0.146-0.002-0.239,0.049-0.403,0.029
					c-0.211,0.289-0.355,0.908-0.061,1.215c0.3,0.102,0.572,0.072,0.897,0.115c-0.151,0.186-0.331,0.348-0.55,0.465
					c-0.186-0.084-0.321-0.275-0.55-0.232c-0.341-0.244-0.524-0.635-0.81-0.928c-0.193,0.18-0.193,0.689,0.086,0.781
					c-0.06,0.117,0.05,0.299-0.031,0.434c-0.13-0.1-0.191,0.129-0.287,0.059c0.059-0.219,0.094-0.508-0.057-0.637
					c-0.422,0.014-0.602,0.268-0.843,0.463c-0.602-0.068-1.009-0.295-1.506,0c-0.106-0.094-0.292-0.111-0.286-0.318
					c0.525,0.053,1.268,0.182,1.619-0.203c-0.17,0.029-0.178-0.311-0.318-0.404c0.023-0.277-0.056-0.447-0.057-0.697
					c-0.18-0.082-0.259-0.307-0.52-0.318c-0.092-0.004-0.193,0.082-0.29,0.088c-0.454,0.029-0.649-0.15-0.811-0.404
					c0.027-0.08,0.06-0.156,0.058-0.264c-0.206-0.096-0.305-0.057-0.552-0.027c-0.152-0.107-0.241-0.279-0.437-0.346
					c-0.262,0.273-0.463,0.613-0.693,0.924c0.17,0.264,0.651,0.039,0.928,0.203c0.133-0.127,0.22-0.299,0.408-0.375
					c0.051,0.172-0.163,0.219-0.203,0.434c-0.05,0.244,0.156,0.611-0.059,0.811c-0.41-0.314-1.129-0.318-1.419-0.754
					c-0.052-0.01-0.144,0.082-0.175,0c-0.039-0.09,0.073-0.172,0-0.201c-0.373,0.225-0.639-0.143-1.129-0.059
					c-0.164-0.133-0.348-0.252-0.58-0.318c-0.04-0.363-0.145-0.611-0.405-0.779c-0.434-0.283-0.925-0.25-0.521-0.842
					c-0.154-0.125-0.208-0.309-0.203-0.521c-0.404-0.15-0.881-0.205-1.361-0.143c-0.207,0.35-0.682,0.635-1.157,0.461
					c-0.022,0.105-0.041,0.254-0.06,0.434c0.072,0.064,0.141,0.131,0.203,0.207c-0.141,0.014-0.141,0.166-0.262,0.201
					c-0.121-0.014-0.167-0.104-0.287-0.117c-0.486,0.084-0.551,0.258-0.812,0.668c-0.238,0.373-0.287,0.777-0.406,1.156
					c0.07,0.018,0.211-0.033,0.234,0.031c-0.157,0.23-0.834,0.305-1.103,0.145c0.054,0.264,0.251,0.383,0.435,0.52
					c0.301-0.135,0.695-0.244,0.955-0.055c-0.211,0.168,0.152,0.277-0.06,0.461c0.205-0.031,0.253-0.209,0.29-0.406
					c0.241-0.094,0.38-0.512,0.666-0.375c-0.037,0.17-0.201,0.35-0.2,0.461c0.267,0.131,0.464-0.021,0.694-0.086
					c-0.031,0.094-0.08,0.174-0.088,0.289c0.1-0.014,0.164,0.014,0.232,0.029c0.263,0.625,0.913,0.867,0.898,1.77
					c0.091-0.006,0.175-0.002,0.201,0.057c0.316,0.709,0.029,1.83,0.207,2.578c-0.43,0.295-0.063,0.615,0.025,0.896
					c0.199,0.621-0.125,1.209-0.318,1.682c-0.103,0.254-0.285,0.471-0.375,0.729c-0.085,0.232-0.037,0.455-0.031,0.707
					c0.015,0.574-0.023,1.156,0.082,1.723c0.023,0.117,0.043,0.242,0.058,0.363c0.014,0.088-0.019,0.248-0.013,0.305
					c0.021,0.188,0.233,0.26,0.346,0.385c0.105,0.123,0.182,0.289,0.281,0.424c0.121,0.154,0.314,0.293,0.407,0.49
					c0.136,0.297,0.058,0.602,0.114,0.904c0.031,0.166,0.125,0.162,0.168,0.287c0.039,0.107-0.029,0.191-0.022,0.299
					c0.007,0.123,0.085,0.23,0.142,0.336c0.074,0.143,0.1,0.309,0.179,0.445c0.073,0.123,0.2,0.176,0.271,0.283
					c0.183,0.268,0.246,0.615,0.448,0.895c0.195,0.266,0.387,0.559,0.695,0.551c0.01-0.121,0.146-0.646-0.025-0.723
					c-0.326-0.145-0.611-0.586-0.789-0.877c-0.093-0.154-0.299-0.439-0.34-0.59c-0.088-0.338,0.173-0.764,0.061-1.053
					c0.172,0.029,0.162,0.209,0.196,0.346c0.115,0.465,0.249,0.918,0.376,1.332c0.525,0.232,0.791,0.533,1.104,0.957
					c0.172,0.232,0.382,0.471,0.488,0.693c0.163,0.33,0.113,0.693,0.232,1.045c0.121,0.348,0.48,0.574,0.581,0.898
					c0.926,0.336,1.835,0.693,2.55,1.244c0.633-0.383,1.068,0.098,1.505,0.348c0.87,0.496,2.356,0.328,2.636,1.273
					c0.109,0.027,0.189,0.082,0.232,0.176c0.035,0.119-0.06,0.113-0.057,0.203c0.334,0.131,0.645,0.281,0.81,0.58
					c0.485,0.215,1.229,0.146,1.706-0.031c0.126,0.205,0.445,0.217,0.58,0.406c0.01,0.254,0.052,0.422-0.026,0.611
					s-0.455,0.816-0.579,0.955c-0.171,0.193-0.421,0.297-0.52,0.52c-0.149,0.342-0.051,0.66,0.029,0.957
					c-0.443,0.182-0.216,0.723-0.058,1.072c0.228,0.059,0.407,0.17,0.606,0.26c0.185,0.744,0.869,0.984,1.014,1.768
					c0.544,0.223,1.15-0.146,1.622,0.201c0.021,0.111,0.071,0.184,0.087,0.293c-0.169,0.227-0.316,0.471-0.377,0.809
					c-0.67,0.701-0.781,1.957-1.883,2.232c-0.065,0.203-0.166,0.375-0.26,0.549c0.043,0.004,0.107-0.01,0.116,0.029
					c-0.267,0.227-0.985,0.15-1.013,0.521c0.328,0.121,0.781-0.096,1.186-0.088c0.071-0.041-0.055-0.092,0.059-0.084
					c1.085-0.379,2.107-0.756,3.072-1.307c0.398-0.139,0.735-0.193,1.101-0.348c0.349-0.146,0.539-0.43,0.841-0.607
					c0.197-0.119,0.402-0.182,0.605-0.32c0.732-0.494,1.615-0.879,2.143-1.531c0.101-0.354,0.338-0.543,0.58-0.727
					c0.999-0.764,2.218-1.525,2.896-2.578c0.242-0.371,0.273-0.836,0.52-1.332c0.426-0.844,1.4-1.4,1.68-2.463
					C81.704,63.802,81.659,63.663,81.585,63.626z M67.335,51.144c0.109,0.004,0.129,0.098,0.26,0.088
					c0.039-0.023,0.039-0.094,0.055-0.146h0.115c0.073,0.086,0.023,0.117,0.029,0.26c-0.115,0.066-0.268,0.105-0.437,0.115
					C67.298,51.394,67.285,51.243,67.335,51.144z M66.45,50.718c0.082,0.102,0.122,0.236,0.092,0.43
					c-0.211,0.059-0.444,0.076-0.649-0.008c0.136-0.303-0.276-0.637-0.523-0.75c0.216-0.312,0.343-0.199,0.593-0.033
					C66.157,50.491,66.341,50.581,66.45,50.718z M64.672,51.989c-0.063,0.117-0.115,0.24-0.127,0.369
					c-0.497,0.074-0.546-0.355-0.416-0.729c0.054-0.154,0.743-1.096,0.743-1.096c0.082,0.062,0.17,0.033,0.232,0.061
					c-0.004,0.334-0.062,0.646-0.193,0.955C64.849,51.69,64.751,51.837,64.672,51.989z M65.015,49.608
					c0.115,0.156,0.229,0.314,0.29,0.523c-0.647,0.008-1.104,0.16-1.739,0.115c-0.027-0.09-0.139-0.092-0.145-0.203
					C63.962,49.874,64.329,49.296,65.015,49.608z M83.127,41.796c-0.077-0.123-0.155-0.244-0.244-0.354
					C82.966,41.554,83.046,41.673,83.127,41.796z M86.217,52.042c-0.112-1.031-0.211-2.021-0.347-3.014
					c-0.054-0.371-0.08-0.764-0.139-1.131c-0.088-0.344-0.186-0.686-0.293-1.025c-0.131-0.338-0.284-0.682-0.412-1.027
					c-0.13-0.355-0.242-0.73-0.359-1.088c-0.359-0.85-0.77-1.67-1.223-2.465c-0.107-0.174-0.215-0.338-0.318-0.496
					c0.182,0.305,0.334,0.639,0.453,1.008c-0.181-0.16-0.371-0.613-0.55-0.58c0.169,0.895,0.347,1.775,0.491,2.695
					c-0.045,0.1-0.227,0.061-0.231,0.201c0.178,0.51,0.297,1.074,0.349,1.709c0.242,0.463,0.558,0.994,0.578,1.564
					c0.018,0.389-0.1,0.768-0.113,1.127c-0.02,0.455-0.005,0.949,0.059,1.393c0.102,0.717,0.513,1.391,0.607,2.143
					c0.031,0.279-0.051,0.508,0,0.752c0.057,0.299,0.275,0.611,0.23,0.957c0.117,0.047,0.296,0.033,0.406,0.086
					c0.081,0.172,0.153,0.348,0.174,0.578c0.119,0.043,0.23,0.098,0.35,0.146c0.094-0.705,0.449-1.354,0.461-2.059
					C86.399,53.052,86.271,52.538,86.217,52.042z M82.683,41.673c-0.16-0.129-0.145-0.438-0.379-0.494
					C82.394,41.364,82.503,41.679,82.683,41.673z M80.339,41.153c-0.06-0.445-0.221-1.035-0.467-1.391
					c-0.191-0.068-0.372-0.15-0.664-0.117c-0.414-0.213-0.812-0.445-1.246-0.639c-0.019,0.068-0.097,0.08-0.117,0.146
					c0.176,0.203,0.312,0.443,0.521,0.609c0.054-0.074,0.112-0.139,0.233-0.146c0.702,0.381,1.19,0.973,1.649,1.594
					C80.263,41.175,80.286,41.151,80.339,41.153z M68.896,59.831c0.141-0.119,0.166-0.355,0.406-0.375
					c-0.193-0.08-0.385-0.328-0.637-0.375c-0.196-0.039-0.428,0.039-0.639,0.023c-0.688-0.029-1.415-0.51-2.029-0.256
					c-0.04,0.094-0.076,0.193-0.115,0.287c0.523,0.131,1.047,0.152,1.537,0.348c0.281,0.115,0.596,0.436,0.869,0.436
					C68.51,59.923,68.671,59.653,68.896,59.831z M50.968,39.706c-0.041,0.076-0.152,0.076-0.145,0.201
					C50.888,39.874,51.024,39.765,50.968,39.706z M72.022,59.688c-0.038,0.328,0.172,0.395,0.41,0.377
					c0.023-0.166,0.14-0.244,0.2-0.377C72.433,59.524,72.246,59.608,72.022,59.688z M53.255,45.845
					c0.121-0.016,0.172-0.102,0.262-0.145c-0.051-0.203,0.037-0.223,0.115-0.348c-0.193,0.104-0.083-0.139-0.232-0.146
					c-0.007,0.043-0.062,0.035-0.087,0.059C53.405,45.507,53.207,45.565,53.255,45.845z M54.211,36.142
					c-0.112,0.021-0.235,0.031-0.288,0.113c0.041,0.018,0.07,0.047,0.087,0.088C54.122,36.321,54.165,36.229,54.211,36.142z
					 M72.371,60.325c0.024-0.043,0.071-0.061,0.146-0.057c-0.003-0.033,0.005-0.08-0.029-0.088
					C72.478,60.239,72.257,60.235,72.371,60.325z M67.94,60.325v0.291c0.242,0.166,0.661-0.041,0.725-0.32
					C68.401,60.253,68.159,60.214,67.94,60.325z M69.649,59.831c0.043,0.096,0.107,0.166,0.145,0.264
					c0.65,0.275,1.197,0.049,1.824-0.115c0.021-0.18-0.091-0.217-0.084-0.379c-0.553-0.043-1.037-0.08-1.682-0.115
					C69.819,59.636,69.692,59.692,69.649,59.831z M56.848,33.188c-0.104-0.018-0.151,0.023-0.175,0.086
					C56.751,33.286,56.917,33.138,56.848,33.188z M71.039,33.882c-0.228-0.031-0.381-0.143-0.608-0.174
					c0.005,0.117,0.087,0.162,0.086,0.289c0.136,0.039,0.283,0.064,0.432,0.086c-0.049,0.098-0.148,0.137-0.201,0.234
					c0.201,0.41,0.889,0.459,1.274,0.174c-0.245-0.219-0.544-0.383-0.954-0.438C71.013,34.013,71.108,33.944,71.039,33.882z
					 M62.844,31.448c-0.116-0.082-0.298,0.016-0.407,0.029c-0.094-0.021-0.221,0.035-0.059,0.029
					C62.507,31.54,62.812,31.647,62.844,31.448z M62.263,39.56c0.184,0,0.319-0.049,0.435-0.115v-0.176
					c-0.288,0.027-0.214-0.305-0.489-0.145C62.124,39.321,62.188,39.392,62.263,39.56z M62.813,41.558
					c-0.039-0.166,0.066-0.186,0.088-0.289c-0.051-0.162-0.106-0.316-0.146-0.492c-0.146-0.066-0.228-0.201-0.406-0.232
					c-0.24,0.184-0.436,0.412-0.578,0.695C61.948,41.517,62.314,41.604,62.813,41.558z M60.933,39.876
					c-0.31-0.074-0.676-0.496-0.9-0.143c0.043,0.148,0.125,0.262,0.203,0.377c0.254-0.09,0.443,0.152,0.668,0.201
					c0.17,0.037,0.348-0.082,0.521,0.031c0.014-0.281-0.086-0.391,0-0.609C61.187,39.628,61.075,39.802,60.933,39.876z
					 M57.106,32.983c0.268-0.156,0.65-0.197,0.842-0.434C57.57,32.579,57.244,32.813,57.106,32.983z M59.31,39.499
					c0.092,0.016,0.104,0.111,0.203,0.117c0.167-0.211,0.641-0.113,0.899-0.23c-0.116-0.578-0.64-0.141-1.044-0.059
					C59.399,39.437,59.296,39.411,59.31,39.499z M62.003,40.167c0.294,0.016,0.455,0.164,0.637,0.291
					c-0.007-0.199,0.238-0.24,0.146-0.436c-0.201-0.014-0.33-0.098-0.466-0.172C62.236,39.976,62.048,40.001,62.003,40.167z"/>
			</g>
		</g>
		<g opacity="0.6">
			<path fill="#FFFFFF" d="M64.308,52.22c6.907,5.768,16.234,2.6,22.053-0.416c-0.85-11.604-10.527-20.746-22.35-20.746
				c-11.855,0-21.554,9.23-22.348,20.895C47.057,49.312,56.882,46.005,64.308,52.22z"/>
		</g>
	</g>
</g>
</svg>
