<?xml version="1.0" encoding="utf-8"?>
<!-- Generator: Adobe Illustrator 13.0.0, SVG Export Plug-In . SVG Version: 6.00 Build 14948)  -->
<!DOCTYPE svg PUBLIC "-//W3C//DTD SVG 1.1//EN" "http://www.w3.org/Graphics/SVG/1.1/DTD/svg11.dtd">
<svg version="1.1" id="Layer_1" xmlns="http://www.w3.org/2000/svg" xmlns:xlink="http://www.w3.org/1999/xlink" x="0px" y="0px"
	 width="128px" height="128px" viewBox="0 0 128 128" enable-background="new 0 0 128 128" xml:space="preserve">
<g>
	<g>
		
			<linearGradient id="SVGID_1_" gradientUnits="userSpaceOnUse" x1="-139.624" y1="-670.4316" x2="-214.0029" y2="-618.3511" gradientTransform="matrix(1 0 0 -1 246.7271 -588.7695)">
			<stop  offset="0" style="stop-color:#181500"/>
			<stop  offset="1" style="stop-color:#5F5D5C"/>
		</linearGradient>
		<path fill="url(#SVGID_1_)" d="M111.94,66.171c-0.978,0-2.794-0.794-2.794-1.771c0-26.019-19.13-44.895-45.145-44.895
			c-26.019,0-45.148,18.873-45.148,44.895c0,0.978-1.816,1.771-2.794,1.771c-0.983,0-2.797-0.794-2.797-1.771
			c0-27.978,22.76-50.739,50.735-50.739c27.974,0,50.739,22.762,50.739,50.739C114.737,65.377,112.921,66.171,111.94,66.171
			L111.94,66.171z"/>
		<linearGradient id="SVGID_2_" gradientUnits="userSpaceOnUse" x1="14.168" y1="70.5605" x2="14.168" y2="105.6475">
			<stop  offset="0" style="stop-color:#5F5D5C"/>
			<stop  offset="1" style="stop-color:#181500"/>
		</linearGradient>
		<path fill="url(#SVGID_2_)" d="M26.926,105.647H16.838c-8.522,0-15.428-6.908-15.428-15.426v-4.229
			c0-8.522,6.905-15.432,15.428-15.432h10.088V105.647z"/>
		
			<linearGradient id="SVGID_3_" gradientUnits="userSpaceOnUse" x1="-1141.5249" y1="-903.8555" x2="-1141.5249" y2="-871.5479" gradientTransform="matrix(-1.0859 0 0 1.0859 -1125.7476 1052.0549)">
			<stop  offset="0" style="stop-color:#5F5D5C"/>
			<stop  offset="1" style="stop-color:#181500"/>
		</linearGradient>
		<path fill="url(#SVGID_3_)" d="M101.078,70.558h10.083c8.521,0.003,15.429,6.912,15.429,15.432v4.229
			c0,8.518-6.908,15.423-15.429,15.423h-10.083V70.558z"/>
		
			<linearGradient id="SVGID_4_" gradientUnits="userSpaceOnUse" x1="-1170.5088" y1="-917.5166" x2="-1170.5088" y2="-877.457" gradientTransform="matrix(-1 0 0 1 -1065.8848 985.5908)">
			<stop  offset="0" style="stop-color:#99DBF6"/>
			<stop  offset="1" style="stop-color:#00B2DE"/>
		</linearGradient>
		<path fill="url(#SVGID_4_)" d="M99.037,71.625c0-1.955,1.589-3.551,3.55-3.551h4.066c1.968,0,3.557,1.596,3.557,3.551v32.959
			c0,1.957-1.593,3.55-3.557,3.55h-4.066c-1.961,0-3.55-1.596-3.55-3.554V71.625z"/>
		
			<linearGradient id="SVGID_5_" gradientUnits="userSpaceOnUse" x1="-223.3491" y1="-655.3306" x2="-223.3491" y2="-694.6808" gradientTransform="matrix(1 0 0 -1 246.7271 -588.7695)">
			<stop  offset="0" style="stop-color:#99DBF6"/>
			<stop  offset="1" style="stop-color:#00B2DE"/>
		</linearGradient>
		<path fill="url(#SVGID_5_)" d="M28.963,104.58c0,1.958-1.589,3.554-3.55,3.554h-4.069c-1.958,0-3.551-1.599-3.551-3.554V71.625
			c0-1.958,1.593-3.551,3.551-3.551h4.069c1.961,0,3.55,1.596,3.55,3.551V104.58z"/>
		<path fill="#00A6C4" d="M25.413,107.024h-4.069c-1.958,0-3.551-1.599-3.551-3.554v1.109c0,1.955,1.593,3.554,3.551,3.554h4.069
			c1.961,0,3.55-1.596,3.55-3.554v-1.109C28.963,105.429,27.374,107.024,25.413,107.024z"/>
		<path fill="#94D9F8" d="M21.529,85.026c2.775-2.979,6.051-3.918,6.984-4.137v-8.698c0-1.798-1.461-3.265-3.265-3.265h-3.741
			c-1.801,0-3.266,1.465-3.266,3.265v20.189C18.615,89.47,19.528,87.172,21.529,85.026z"/>
		<g>
			<path fill="#00A6C4" d="M102.588,107.024h4.07c1.957,0,3.551-1.599,3.551-3.554v1.109c0,1.955-1.594,3.554-3.551,3.554h-4.07
				c-1.961,0-3.549-1.596-3.549-3.554v-1.109C99.039,105.429,100.627,107.024,102.588,107.024z"/>
			<path fill="#94D9F8" d="M106.473,85.026c-2.775-2.979-6.051-3.918-6.984-4.137v-8.698c0-1.798,1.461-3.265,3.264-3.265h3.742
				c1.801,0,3.266,1.465,3.266,3.265v20.189C109.387,89.47,108.473,87.172,106.473,85.026z"/>
		</g>
		<path opacity="0.7" fill="#FFFFFF" d="M15.342,72.34c0,0-5.311,1.115-8.335,4.524c-3.115,3.512-3.445,7.256-3.445,7.256
			s1.042-3.683,4.204-6.845S15.342,72.34,15.342,72.34z"/>
		<path opacity="0.7" fill="#FFFFFF" d="M112.988,72.34c0,0,5.311,1.115,8.335,4.524c3.115,3.512,3.445,7.256,3.445,7.256
			s-1.042-3.683-4.204-6.845S112.988,72.34,112.988,72.34z"/>
	</g>
	<g>
		<path fill="#99DBF6" d="M52.264,77.913l0.01-0.002l0.031-0.035l-0.014,0.006C52.285,77.892,52.273,77.903,52.264,77.913
			L52.264,77.913z"/>
		<path fill="#99DBF6" d="M52.275,77.87c0.016-0.016,0.021-0.022,0.025-0.031l-0.012,0.002l-0.014,0.018l-0.004-0.003l0.02-0.021
			l-0.012,0.004c0,0-0.041,0.043-0.053,0.059h0.004l0.023-0.023h0.006c-0.004,0.006-0.023,0.029-0.023,0.034
			C52.25,77.896,52.262,77.882,52.275,77.87L52.275,77.87z"/>
		<path fill="#99DBF6" d="M51.961,77.983c0,0-0.012-0.002-0.094,0.075l-0.01,0.003c-0.01,0.006-0.07,0.076-0.07,0.086
			c0,0,0.035-0.023,0.076-0.066c0.021,0,0.057-0.021,0.066-0.027c0.012-0.006,0.023-0.016,0.033-0.025
			c0.016-0.014,0.064-0.07,0.059-0.078l0,0C52.02,77.95,51.973,77.976,51.961,77.983L51.961,77.983z"/>
		<path fill="#99DBF6" d="M51.66,78.254c0,0,0.016-0.015,0.027-0.025c0.012-0.015,0.014-0.018,0.014-0.018l0,0
			C51.701,78.211,51.66,78.245,51.66,78.254L51.66,78.254z"/>
		<polygon fill="#99DBF6" points="51.686,78.2 51.643,78.245 51.656,78.236 51.691,78.2 		"/>
		<path fill="#99DBF6" d="M51.604,78.259c-0.002-0.013-0.023,0.01-0.033,0.02l-0.039,0.041c-0.004,0.008-0.008,0.015-0.014,0.02
			c-0.059,0.062-0.057,0.064-0.057,0.067c0,0,0.004,0,0.02-0.015l0.025-0.023l0.029-0.023l0.018-0.02h0.008l0.047-0.057h-0.002
			c-0.006,0.008-0.016,0.014-0.02,0.021c0.029-0.038,0.029-0.042,0.029-0.042c-0.006,0-0.008,0.007-0.008,0.007L51.604,78.259z"/>
		<path fill="#99DBF6" d="M51.447,78.406c-0.008,0.003-0.02,0.008-0.025,0.015l-0.041,0.049c0.021-0.014,0.021-0.014,0.035-0.025
			c0.016-0.013,0.045-0.053,0.045-0.053S51.455,78.396,51.447,78.406L51.447,78.406z"/>
		<path fill="#99DBF6" d="M51.379,78.464l0.004-0.005c0,0,0.014-0.013,0.043-0.052c0.012-0.012,0.021-0.025,0.033-0.038h-0.006
			c-0.01,0.005-0.049,0.048-0.07,0.071c-0.045,0.037-0.045,0.037-0.092,0.09c0.004-0.002,0.012-0.006,0.014-0.012
			c0.01-0.01,0.039-0.035,0.08-0.069L51.379,78.464L51.379,78.464z"/>
		<path fill="#99DBF6" d="M51.197,78.609c0,0,0.002,0,0.021-0.025c0.006-0.009,0.014-0.015,0.021-0.024
			c-0.012,0.008-0.043,0.043-0.043,0.043V78.609z"/>
		<path fill="#99DBF6" d="M50.994,78.784c-0.016,0.018-0.029,0.037-0.045,0.053v0.002c0,0,0.006-0.007,0.02-0.023
			c0.029-0.031,0.031-0.033,0.033-0.036l0,0L50.994,78.784L50.994,78.784z"/>
		<path fill="#A4D9E6" d="M47.52,88.728l-0.008,0.005c-0.002,0.009-0.021,0.067-0.023,0.089c0,0.016,0.006,0.024,0.02,0.02
			c0.002,0.018,0.004,0.025,0.004,0.025c0.006-0.001,0.014-0.008,0.018-0.059v-0.002c0-0.008,0.006-0.014,0.01-0.021
			C47.545,88.759,47.531,88.728,47.52,88.728L47.52,88.728z"/>
		<path fill="#A4D9E6" d="M47.691,88.978c-0.004,0-0.012-0.006-0.006-0.052c-0.008-0.003-0.01-0.005-0.01-0.005
			c-0.01,0.002-0.021,0.005-0.023,0.045c0,0.018,0,0.027,0,0.027c0.004,0.013,0.008,0.023,0.01,0.039
			c0,0.009-0.004,0.02-0.002,0.031c0,0,0.004,0.01,0.006,0.013c0.006,0.009,0.027,0.017,0.037-0.038
			C47.709,88.987,47.691,88.978,47.691,88.978L47.691,88.978z"/>
		<path fill="#A4D9E6" d="M47.816,89.062l-0.008-0.001c-0.006,0-0.012,0.001-0.012,0.001c-0.01,0-0.014,0-0.02,0
			s-0.016,0.002-0.018,0.017c-0.004,0.013,0,0.044,0.004,0.054c0.01,0.02,0.025-0.012,0.027-0.019
			c0.008-0.001,0.02-0.005,0.027-0.007l0.002-0.01C47.826,89.068,47.818,89.063,47.816,89.062L47.816,89.062z"/>
		<path fill="#A4D9E6" d="M47.867,89.294c0,0,0.031,0.004,0.039-0.049c0.004-0.044-0.016-0.055-0.023-0.059
			c-0.004-0.031-0.01-0.039-0.023-0.039c-0.006,0-0.018,0.002-0.031,0.019c-0.002,0.008,0,0.015,0,0.015
			c0.002,0.053,0.014,0.058,0.027,0.047C47.85,89.291,47.859,89.3,47.867,89.294L47.867,89.294z"/>
		<path fill="#A4D9E6" d="M48.018,89.595c-0.004-0.014-0.002-0.03-0.006-0.045c0-0.011-0.006-0.025-0.012-0.037
			c-0.006-0.021-0.023-0.061-0.059-0.071c0.006-0.019,0.006-0.03,0-0.042c-0.01,0.008-0.027,0.025-0.02,0.14
			c-0.025,0.022-0.033,0.067-0.037,0.095c-0.002,0.021,0.008,0.056,0.016,0.07l0.004,0.004c0.002,0.026-0.002,0.059-0.002,0.08
			c0.004,0.102,0.029,0.109,0.029,0.109l0.002-0.003c0,0,0.004-0.011,0.004-0.015c0.002-0.016,0.004-0.047,0.023-0.082
			c0.016-0.027,0.051-0.038,0.064-0.065l0.018-0.053c0.006-0.03-0.008-0.063-0.025-0.083V89.595L48.018,89.595z"/>
		<path fill="#A4D9E6" d="M49.891,101.39l0.074,0.102c-0.002-0.004-0.018-0.027-0.031-0.047c-0.023-0.035-0.039-0.053-0.039-0.053
			L49.891,101.39z"/>
		<path fill="#A4D9E6" d="M49.98,101.497v0.004c0.037,0.055,0.053,0.074,0.059,0.076c0,0,0-0.002-0.031-0.047
			C49.996,101.514,49.986,101.499,49.98,101.497L49.98,101.497z"/>
		<path fill="#99DBF6" d="M52.711,102.388h-0.002l0.004,0.029c0,0,0.004,0.008,0.014,0.018c0.012,0.012,0.049,0.045,0.068,0.049
			c0,0,0.027,0.007,0.012-0.018C52.793,102.445,52.727,102.388,52.711,102.388L52.711,102.388z"/>
		<path fill="none" d="M83.594,89.515c0.715,10.223-6.986,19.087-17.201,19.803c-10.211,0.714-19.07-6.994-19.785-17.216
			c-0.715-10.219,6.984-19.085,17.201-19.798C74.021,71.587,82.879,79.296,83.594,89.515L83.594,89.515z"/>
		
			<linearGradient id="SVGID_6_" gradientUnits="userSpaceOnUse" x1="-167.5117" y1="-688.6523" x2="-197.891" y2="-667.3807" gradientTransform="matrix(1 0 0 -1 246.7271 -588.7695)">
			<stop  offset="0" style="stop-color:#DEDEDE"/>
			<stop  offset="1" style="stop-color:#FEFEFE"/>
		</linearGradient>
		<path fill="url(#SVGID_6_)" stroke="#000000" stroke-miterlimit="3.8637" d="M82.52,87.952
			c0.715,10.221-6.988,19.088-17.201,19.801c-10.213,0.716-19.07-6.992-19.785-17.213c-0.715-10.219,6.986-19.086,17.201-19.8
			C72.947,70.024,81.803,77.733,82.52,87.952L82.52,87.952z"/>
		<g>
			
				<linearGradient id="SVGID_7_" gradientUnits="userSpaceOnUse" x1="-205.8359" y1="-678.104" x2="-205.8359" y2="-675.647" gradientTransform="matrix(1 0 0 -1 246.7271 -588.7695)">
				<stop  offset="0" style="stop-color:#5F5D5C"/>
				<stop  offset="1" style="stop-color:#181500"/>
			</linearGradient>
			<polygon fill="url(#SVGID_7_)" points="41.996,89.335 39.664,89.212 39.785,86.878 42.119,87.002 			"/>
			
				<linearGradient id="SVGID_8_" gradientUnits="userSpaceOnUse" x1="-204.4004" y1="-671.4585" x2="-204.4004" y2="-668.4634" gradientTransform="matrix(1 0 0 -1 246.7271 -588.7695)">
				<stop  offset="0" style="stop-color:#5F5D5C"/>
				<stop  offset="1" style="stop-color:#181500"/>
			</linearGradient>
			<polygon fill="url(#SVGID_8_)" points="43.023,82.689 40.83,81.893 41.627,79.694 43.824,80.495 			"/>
			
				<linearGradient id="SVGID_9_" gradientUnits="userSpaceOnUse" x1="-200.9375" y1="-665.397" x2="-200.9375" y2="-662.1177" gradientTransform="matrix(1 0 0 -1 246.7271 -588.7695)">
				<stop  offset="0" style="stop-color:#5F5D5C"/>
				<stop  offset="1" style="stop-color:#181500"/>
			</linearGradient>
			<polygon fill="url(#SVGID_9_)" points="45.992,76.628 44.15,75.188 45.59,73.349 47.43,74.785 			"/>
			
				<linearGradient id="SVGID_10_" gradientUnits="userSpaceOnUse" x1="-195.7754" y1="-660.6196" x2="-195.7754" y2="-657.3647" gradientTransform="matrix(1 0 0 -1 246.7271 -588.7695)">
				<stop  offset="0" style="stop-color:#5F5D5C"/>
				<stop  offset="1" style="stop-color:#181500"/>
			</linearGradient>
			<polygon fill="url(#SVGID_10_)" points="50.666,71.851 49.326,69.937 51.24,68.596 52.578,70.512 			"/>
			
				<linearGradient id="SVGID_11_" gradientUnits="userSpaceOnUse" x1="-189.3848" y1="-657.3804" x2="-189.3848" y2="-654.4653" gradientTransform="matrix(1 0 0 -1 246.7271 -588.7695)">
				<stop  offset="0" style="stop-color:#5F5D5C"/>
				<stop  offset="1" style="stop-color:#181500"/>
			</linearGradient>
			<polygon fill="url(#SVGID_11_)" points="56.568,68.611 55.885,66.377 58.119,65.696 58.801,67.93 			"/>
			
				<linearGradient id="SVGID_12_" gradientUnits="userSpaceOnUse" x1="-182.4272" y1="-656.0942" x2="-182.4272" y2="-653.7563" gradientTransform="matrix(1 0 0 -1 246.7271 -588.7695)">
				<stop  offset="0" style="stop-color:#5F5D5C"/>
				<stop  offset="1" style="stop-color:#181500"/>
			</linearGradient>
			<polygon fill="url(#SVGID_12_)" points="63.133,67.325 63.131,64.987 65.469,64.987 65.469,67.325 			"/>
			
				<linearGradient id="SVGID_13_" gradientUnits="userSpaceOnUse" x1="-175.4106" y1="-657.5933" x2="-175.4106" y2="-654.6479" gradientTransform="matrix(1 0 0 -1 246.7271 -588.7695)">
				<stop  offset="0" style="stop-color:#5F5D5C"/>
				<stop  offset="1" style="stop-color:#181500"/>
			</linearGradient>
			<polygon fill="url(#SVGID_13_)" points="69.844,68.103 70.566,65.879 72.789,66.601 72.066,68.824 			"/>
			
				<linearGradient id="SVGID_14_" gradientUnits="userSpaceOnUse" x1="-169.105" y1="-661.0161" x2="-169.105" y2="-657.7524" gradientTransform="matrix(1 0 0 -1 246.7271 -588.7695)">
				<stop  offset="0" style="stop-color:#5F5D5C"/>
				<stop  offset="1" style="stop-color:#181500"/>
			</linearGradient>
			<polygon fill="url(#SVGID_14_)" points="75.99,70.872 77.363,68.983 79.254,70.356 77.879,72.247 			"/>
			
				<linearGradient id="SVGID_15_" gradientUnits="userSpaceOnUse" x1="-164.0737" y1="-666.0239" x2="-164.0737" y2="-662.7603" gradientTransform="matrix(1 0 0 -1 246.7271 -588.7695)">
				<stop  offset="0" style="stop-color:#5F5D5C"/>
				<stop  offset="1" style="stop-color:#181500"/>
			</linearGradient>
			<polygon fill="url(#SVGID_15_)" points="81.021,75.364 82.914,73.991 84.285,75.88 82.396,77.255 			"/>
			
				<linearGradient id="SVGID_16_" gradientUnits="userSpaceOnUse" x1="-160.7905" y1="-672.1597" x2="-160.7905" y2="-669.2173" gradientTransform="matrix(1 0 0 -1 246.7271 -588.7695)">
				<stop  offset="0" style="stop-color:#5F5D5C"/>
				<stop  offset="1" style="stop-color:#181500"/>
			</linearGradient>
			<polygon fill="url(#SVGID_16_)" points="84.465,81.169 86.686,80.448 87.408,82.671 85.188,83.391 			"/>
			
				<linearGradient id="SVGID_17_" gradientUnits="userSpaceOnUse" x1="-159.5806" y1="-678.8032" x2="-159.5806" y2="-676.4272" gradientTransform="matrix(1 0 0 -1 246.7271 -588.7695)">
				<stop  offset="0" style="stop-color:#5F5D5C"/>
				<stop  offset="1" style="stop-color:#181500"/>
			</linearGradient>
			<polygon fill="url(#SVGID_17_)" points="85.957,87.698 88.295,87.658 88.336,89.993 86,90.034 			"/>
			
				<linearGradient id="SVGID_18_" gradientUnits="userSpaceOnUse" x1="-160.9341" y1="-686.897" x2="-160.9341" y2="-683.9028" gradientTransform="matrix(1 0 0 -1 246.7271 -588.7695)">
				<stop  offset="0" style="stop-color:#5F5D5C"/>
				<stop  offset="1" style="stop-color:#181500"/>
			</linearGradient>
			<polygon fill="url(#SVGID_18_)" points="85.094,95.134 87.289,95.931 86.49,98.128 84.297,97.328 			"/>
			
				<linearGradient id="SVGID_19_" gradientUnits="userSpaceOnUse" x1="-164.3989" y1="-693.2456" x2="-164.3989" y2="-689.9653" gradientTransform="matrix(1 0 0 -1 246.7271 -588.7695)">
				<stop  offset="0" style="stop-color:#5F5D5C"/>
				<stop  offset="1" style="stop-color:#181500"/>
			</linearGradient>
			<polygon fill="url(#SVGID_19_)" points="82.127,101.196 83.967,102.636 82.527,104.477 80.689,103.038 			"/>
			
				<linearGradient id="SVGID_20_" gradientUnits="userSpaceOnUse" x1="-169.5591" y1="-697.9966" x2="-169.5591" y2="-694.7427" gradientTransform="matrix(1 0 0 -1 246.7271 -588.7695)">
				<stop  offset="0" style="stop-color:#5F5D5C"/>
				<stop  offset="1" style="stop-color:#181500"/>
			</linearGradient>
			<polygon fill="url(#SVGID_20_)" points="77.455,105.974 78.795,107.888 76.881,109.228 75.541,107.315 			"/>
			
				<linearGradient id="SVGID_21_" gradientUnits="userSpaceOnUse" x1="-175.9526" y1="-700.895" x2="-175.9526" y2="-697.981" gradientTransform="matrix(1 0 0 -1 246.7271 -588.7695)">
				<stop  offset="0" style="stop-color:#5F5D5C"/>
				<stop  offset="1" style="stop-color:#181500"/>
			</linearGradient>
			<polygon fill="url(#SVGID_21_)" points="71.551,109.212 72.232,111.444 70.002,112.126 69.316,109.894 			"/>
			
				<linearGradient id="SVGID_22_" gradientUnits="userSpaceOnUse" x1="-182.9087" y1="-701.606" x2="-182.9087" y2="-699.27" gradientTransform="matrix(1 0 0 -1 246.7271 -588.7695)">
				<stop  offset="0" style="stop-color:#5F5D5C"/>
				<stop  offset="1" style="stop-color:#181500"/>
			</linearGradient>
			<polygon fill="url(#SVGID_22_)" points="64.986,110.501 64.986,112.837 62.65,112.837 62.65,110.501 			"/>
			
				<linearGradient id="SVGID_23_" gradientUnits="userSpaceOnUse" x1="-189.9258" y1="-700.7134" x2="-189.9258" y2="-697.769" gradientTransform="matrix(1 0 0 -1 246.7271 -588.7695)">
				<stop  offset="0" style="stop-color:#5F5D5C"/>
				<stop  offset="1" style="stop-color:#181500"/>
			</linearGradient>
			<polygon fill="url(#SVGID_23_)" points="58.273,109.722 57.553,111.944 55.33,111.222 56.053,109 			"/>
			
				<linearGradient id="SVGID_24_" gradientUnits="userSpaceOnUse" x1="-196.2305" y1="-697.6108" x2="-196.2305" y2="-694.3472" gradientTransform="matrix(1 0 0 -1 246.7271 -588.7695)">
				<stop  offset="0" style="stop-color:#5F5D5C"/>
				<stop  offset="1" style="stop-color:#181500"/>
			</linearGradient>
			<polygon fill="url(#SVGID_24_)" points="52.129,106.951 50.756,108.842 48.865,107.468 50.238,105.578 			"/>
			
				<linearGradient id="SVGID_25_" gradientUnits="userSpaceOnUse" x1="-201.2617" y1="-692.6021" x2="-201.2617" y2="-689.3384" gradientTransform="matrix(1 0 0 -1 246.7271 -588.7695)">
				<stop  offset="0" style="stop-color:#5F5D5C"/>
				<stop  offset="1" style="stop-color:#181500"/>
			</linearGradient>
			<polygon fill="url(#SVGID_25_)" points="47.096,102.462 45.207,103.833 43.836,101.942 45.723,100.569 			"/>
			
				<linearGradient id="SVGID_26_" gradientUnits="userSpaceOnUse" x1="-204.5449" y1="-686.145" x2="-204.5449" y2="-683.2017" gradientTransform="matrix(1 0 0 -1 246.7271 -588.7695)">
				<stop  offset="0" style="stop-color:#5F5D5C"/>
				<stop  offset="1" style="stop-color:#181500"/>
			</linearGradient>
			<polygon fill="url(#SVGID_26_)" points="43.654,96.655 41.432,97.376 40.711,95.154 42.932,94.433 			"/>
		</g>
		<g>
			<g>
				
					<linearGradient id="SVGID_27_" gradientUnits="userSpaceOnUse" x1="-179.4878" y1="-695.9937" x2="-179.4878" y2="-659.6499" gradientTransform="matrix(1 0 0 -1 246.7271 -588.7695)">
					<stop  offset="0" style="stop-color:#5F5D5C"/>
					<stop  offset="1" style="stop-color:#181500"/>
				</linearGradient>
				<path id="SVGID_36_" fill="url(#SVGID_27_)" d="M69.127,71.915c-0.154-0.156-0.346-0.119-0.568-0.141
					c-0.564-0.058-1.18-0.298-1.732-0.381c-0.02,0.005-0.047,0.002-0.049,0.023c0.266,0.17,0.557,0.17,0.926,0.215
					C68.188,71.688,68.646,71.987,69.127,71.915z M76.107,78.61c-0.02,0.006-0.029,0.018-0.025,0.047
					c0.117,0.155,0.244,0.34,0.381,0.498c0.125,0.146,0.273,0.406,0.475,0.379C76.807,79.097,76.543,78.662,76.107,78.61z
					 M73.877,78.158c-0.123-0.224-0.189-0.508-0.287-0.761c-0.162,0.033-0.275,0.119-0.4,0.191
					c-0.033,0.229-0.078,0.445-0.189,0.594C73.209,78.384,73.725,78.497,73.877,78.158z M65.473,76.829
					c-0.293-0.037-0.494-0.021-0.736-0.023c-0.047,0.045-0.053,0.137-0.117,0.166c-0.607-0.118-0.771,0.312-1.164,0.476
					c0.033,0.325,0.326,0.384,0.594,0.476c0.078-0.092,0.219-0.113,0.236-0.26c0.012-0.083-0.119-0.148-0.045-0.215
					c0.084,0.162,0.188-0.059,0.307-0.071c0.027,0.194-0.18,0.336-0.166,0.593c-0.188-0.004-0.219,0.145-0.26,0.284
					c0.055,0.11,0.201,0.13,0.332,0.169c-0.109,0.009-0.18,0.055-0.287,0.07c-0.25-0.092-0.855-0.539-0.971-0.167
					c0.004,0.034,0.117-0.022,0.189,0c0.1,0.175,0.191,0.36,0.285,0.546c0.219-0.109,0.381,0.012,0.521,0.047
					c0.436,0.113,0.631-0.168,0.973-0.047c0.025-0.098,0.041-0.219-0.023-0.285c-0.238,0.08-0.27-0.17-0.404-0.19
					c0.098-0.07,0.357,0.098,0.5-0.046c0.061-0.104,0.1-0.262,0.047-0.405c0.092-0.152,0.252-0.237,0.475-0.259
					c0.248-0.239,0.191-0.658,0.312-0.998C65.861,76.812,65.617,76.589,65.473,76.829z M63.17,79.296
					c0.082,0.016,0.074,0.119,0.119,0.166c0.225-0.049,0.285-0.267,0.426-0.399c-0.08-0.045-0.066-0.188-0.166-0.214
					c-0.076,0.131-0.322,0.086-0.402,0.214C63.18,79.149,63.148,79.247,63.17,79.296z M63.17,71.346
					c0.002,0.214,0.604,0.208,0.713,0.024C63.678,71.339,63.383,71.286,63.17,71.346z M66.492,77.138
					c-0.049,0.211-0.23,0.289-0.309,0.475c-0.117-0.04-0.164,0.037-0.26,0.07c0.037,0.075,0.014,0.135-0.025,0.191
					c0.307,0.211,0.709,0.324,1.211,0.332c0.08-0.03,0.09-0.133,0.189-0.141c0.674,0.045,0.93,0.512,1.355,0.807
					c0.121,0.018,0.156-0.051,0.258-0.05c0.045,0.04,0.059,0.101,0.047,0.192c-0.023,0.055-0.158-0.002-0.143,0.093
					c0.049,0.263,0.586,0.033,0.617,0.311c-0.016,0.075-0.09,0.099-0.094,0.19c0.168,0.528,0.574,0.839,1.07,1.07
					c0.428,0.199,0.592,0.521,1.115,0.521c0.234-0.096,0.424-0.239,0.475-0.521c-0.123-0.426-0.51-0.584-0.523-1.119
					c0.074-0.066,0.154-0.129,0.238-0.187c0.012-0.133,0.037-0.25,0.07-0.356c-0.244-0.504,0.184-0.852,0.355-1.166
					c-0.047-0.24-0.213-0.355-0.334-0.498c-0.068-0.081-0.064-0.153-0.143-0.213c-0.037-0.03-0.109-0.03-0.164-0.072
					c-0.242-0.186-0.395-0.508-0.572-0.662c-0.121-0.109-0.332-0.193-0.473-0.311c-0.127-0.107-0.162-0.243-0.311-0.261
					c-0.109-0.027-0.092,0.065-0.191,0.048c-0.166-0.248-0.344-0.479-0.475-0.76c-0.102,0.02-0.113-0.045-0.191-0.047
					c0.023,0.205-0.43,0.117-0.428,0.377c-0.205-0.004-0.355-0.068-0.59-0.046c-0.18,0.296-0.451,0.499-0.83,0.595
					c-0.018,0.094,0.02,0.135,0.021,0.213c-0.059,0.021-0.102,0.055-0.191,0.047c-0.035,0.297-0.408,0.255-0.543,0.45
					c0.021,0.124,0.082,0.203,0.096,0.333C66.713,77.071,66.652,77.154,66.492,77.138z M79.242,80.532
					c-0.15-0.314-0.412-0.556-0.525-0.831c-0.141-0.338-0.1-0.642-0.285-0.903c0.133,0.074,0.201-0.046,0.355-0.021
					c0.076-0.195-0.096-0.375-0.238-0.547c0.014,0.057-0.141,0.034-0.139,0.143c-0.174-0.09-0.301-0.223-0.361-0.427
					c0.096,0.007,0.09-0.087,0.121-0.143c0.182,0.024,0.262,0.233,0.369,0.321c-0.465-0.607-0.967-1.183-1.504-1.727
					c-0.381-0.354-0.742-0.701-1.109-1.041c-1.074-0.928-2.258-1.733-3.525-2.398c-0.219-0.104-0.441-0.204-0.664-0.307
					c-0.527-0.238-1.051-0.479-1.59-0.694c-1.396-0.509-2.867-0.856-4.396-1.02c-2.797-0.202-5.611,0.14-7.615,0.956
					c-1.258,0.514-2.484,0.973-3.514,1.662c0.258-0.131,0.455-0.318,0.76-0.404c-0.451,0.355-0.893,0.722-1.305,1.117
					c0.035,0.013,0.121-0.027,0.119,0.023c-0.188,0.175-0.48,0.37-0.428,0.641c-0.168,0.021-0.205-0.174-0.355-0.189
					c-0.121-0.014-0.357,0.117-0.523,0.211c-0.309,0.176-0.646,0.299-0.76,0.572c0.445,0.119,0.736-0.322,1.211-0.145
					c-0.031,0.159-0.053,0.324-0.049,0.523c0.152,0.052,0.123,0.149,0.143,0.309c0.23-0.094,0.439-0.212,0.736-0.236
					c-0.033,0.343,0.035,0.582,0.238,0.688c0.135-0.301,0.32-0.529,0.5-0.781c0.09-0.132,0.133-0.277,0.213-0.428
					c0.127-0.235,0.482-0.533,0.215-0.83c0.398-0.234,0.582-0.686,1.02-0.881c0-0.062-0.01-0.137,0.023-0.166
					c0.123-0.044,0.258-0.076,0.287-0.213c0.24-0.189,0.555-0.258,0.781-0.477c0.047-0.041,0.07-0.101,0.119-0.141
					c0.119-0.094,0.287-0.143,0.428-0.238c0.133-0.09,0.248-0.229,0.379-0.309c0.42-0.255,1-0.34,1.518-0.521
					c0.523-0.185,1.088-0.291,1.615-0.382c-0.02,0.022-0.164,0.037-0.094,0.072c0.211-0.048,0.377-0.007,0.594-0.022
					c0.293-0.025,0.557-0.176,0.855-0.215c0.275-0.037,0.613,0.027,0.926,0c0.439-0.038,1.053-0.139,1.518-0.072
					c0.062,0.01-0.051,0.047,0.047,0.049c0.43,0.004,0.82,0.058,1.188,0.07c0.092,0.003,0.08,0.11,0.168,0.118
					c0.701-0.053,1.17,0.16,1.66,0.285c0.549,0.144,0.988,0.275,1.449,0.451c0.232,0.09,0.514,0.17,0.688,0.261
					c0.08,0.042,0.129,0.135,0.215,0.167c0.127,0.05,0.281,0.026,0.402,0.071c0.195,0.07,0.363,0.222,0.547,0.31
					c0.234,0.107,0.543,0.134,0.688,0.378c-0.553,0.055-0.65-0.551-1.258-0.521c0.064,0.207,0.51,0.449,0.355,0.736
					c0.352,0.266,0.619,0.612,1.07,0.782c0.121,0.255,0.363,0.288,0.594,0.45c0.121,0.09,0.213,0.234,0.33,0.311
					c0.205,0.129,0.453,0.179,0.619,0.332c0.186,0.172,0.25,0.461,0.426,0.664c0.248,0.285,0.541,0.406,0.879,0.568
					c0.018-0.109-0.031-0.283,0.023-0.355c0.221-0.006,0.365,0.062,0.545,0.096c-0.256-0.512-0.74-0.793-1.186-1.116
					c-0.693-0.16-1.061-0.774-1.543-1.065c0.475,0.099,0.623,0.529,1.096,0.639c0.082,0.037,0.012-0.08,0.068-0.072
					c0.801,0.523,1.713,1.058,1.945,2.064c-0.18-0.137-0.396-0.361-0.688-0.307c0.256,0.227,0.576,0.387,0.83,0.615
					c0,0.064-0.01,0.139,0.021,0.167c0.164,0.147,0.215,0.354,0.332,0.546c0.248,0.387,0.656,0.722,0.738,1.164
					c0.043,0.219-0.006,0.444,0.119,0.664c0.828,0.121,1.062,0.963,0.83,1.733c0.361,0.427,0.602,0.981,0.971,1.4
					c0.057-0.178,0.217-0.178,0.264-0.333c0.029-0.098,0.006-0.277,0-0.355C79.688,81.354,79.469,81.017,79.242,80.532z
					 M78.412,97.692c-0.133-0.056-0.846-0.111-0.953-0.094c-0.281,0.051-0.506,0.344-0.711,0.404
					c-0.078-0.023-0.074-0.131-0.189-0.118c-0.408,0.12-0.873,0.019-1.234,0.235c0.039-0.502-0.229-1.12-0.785-1.088
					c-0.344,0.014-0.611,0.303-0.994,0.307c0-0.104,0.006-0.215-0.025-0.286h-0.332c-0.328-0.266-0.701-0.483-1.213-0.569
					c-0.215,0.131-0.486,0.176-0.805,0.168c-0.594-0.017-1.275-0.051-1.756,0.164c0.043-0.084,0.076-0.232,0-0.307
					c-0.605,0.305-1.248,0.571-1.566,1.162c-0.311,0.02-0.551-0.115-0.83-0.072c-0.117,0.021-0.213,0.136-0.334,0.145
					c-0.334,0.02-0.586-0.219-0.902-0.31c0.195-0.456,0.08-1.044-0.117-1.425c-0.459-0.123-1.072-0.191-1.566-0.141
					c0.113-0.523,0.355-0.912,0.57-1.33c-0.346-0.155-0.646-0.205-1.021-0.047c-0.311,0.13-0.562,0.467-0.855,0.521
					c-0.328,0.062-0.742-0.078-1.115-0.142c-0.037-0.202,0.025-0.33-0.023-0.523c-0.043-0.169-0.225-0.292-0.236-0.45
					c-0.014-0.133,0.09-0.262,0.117-0.379c0.088-0.381,0.131-0.785,0.143-1.212c0.143-0.122,0.254-0.311,0.426-0.355
					c0.51-0.13,0.711,0.167,1.045,0.19c0.143,0.01,0.346-0.021,0.475-0.072c0.111-0.043,0.18-0.193,0.334-0.236
					c0.379-0.107,0.75-0.077,1.135-0.095c0.281-0.013,0.352,0.045,0.43,0.339c0.102,0.383,0.395,0.58,0.475,0.963
					c0.025,0.125,0.344-0.156,0.363-0.186c0.119-0.18,0.182-0.522,0.121-0.733c-0.045-0.152-0.156-0.269-0.215-0.417
					s-0.039-0.295-0.102-0.441c0.223-0.418,0.725-0.506,1.02-0.829c0.096-0.104,0.215-0.274,0.287-0.403
					c0.1-0.186,0.264-0.521,0.332-0.76c0.088-0.301-0.053-0.598,0.094-0.951c0.336-0.137,0.689-0.26,0.973-0.448
					c-0.057-0.065-0.123-0.114-0.143-0.214c0.105-0.159,0.244-0.373,0.357-0.452c0.068-0.46,0.133-0.929,0.211-1.376
					c0.17-0.059,0.285-0.177,0.502-0.191c-0.01-0.086-0.096-0.096-0.072-0.214c-0.18-0.002-0.553,0.005-0.615-0.19
					c0.32-0.433,1.123-0.238,1.518-0.593c0.035-0.123,0.068-0.248,0.143-0.331c0.076,0.057,0.131,0.005,0.168,0.068
					c-0.055,0.23-0.172,0.52-0.098,0.736c0.256-0.178,0.594-0.276,0.832-0.474c0.002,0.024,0.025,0.037,0.045,0.047
					c0.016-0.091-0.148-0.077-0.26-0.095c-0.246-0.277-0.381-0.664-0.545-1.021c-0.479-0.348-1.189-0.416-1.664-0.76
					c-0.217-0.158-0.285-0.441-0.543-0.498c-0.129,0.133-0.148,0.376-0.312,0.474c-0.174,0.002-0.352,0.007-0.498-0.022
					c-0.141-0.368-0.332-0.682-0.594-0.927c-0.391-0.067-0.92-0.091-1.162,0.12c-0.014,0.716-0.014,1.42,0.402,1.708
					c-0.111,0.235-0.406,0.347-0.428,0.664c-0.012,0.247,0.299,0.728-0.068,0.878c-0.246-0.236-0.488-0.477-0.426-1.019
					c-0.256-0.062-0.484-0.163-0.738-0.263c-0.227-0.09-0.486-0.256-0.711-0.285c-0.26-0.033-0.543,0.084-0.783-0.094
					c-0.119-0.255-0.346-0.385-0.357-0.688c-0.02-0.507,0.527-0.736,0.713-1.094c0.311-0.037,0.525-0.297,0.688-0.402
					c-0.066,0.303,0.096,0.477,0.309,0.568c0.127-0.067,0.189-0.208,0.285-0.308c0.111,0.062,0.24,0.107,0.404,0.118V81.53
					c-0.334-0.135-0.666-0.268-0.855-0.545c0.338-0.145,0.908-0.293,0.594-0.809c0.086,0.004,0.121-0.197,0.234-0.238
					c0.324,0.266,0.965,0.207,1.26,0.5c-0.035,0.195-0.109,0.35-0.141,0.547c-0.209,0.061-0.355,0.182-0.57,0.236
					c0.014,0.11-0.039,0.152-0.049,0.238c0.23-0.025,0.449-0.056,0.666-0.094c0.33,0.23,0.701,0.419,1.137,0.544
					c0.094-0.065,0.205-0.114,0.334-0.143c0.027-0.248,0.285-0.341,0.215-0.616c-0.24-0.117-0.516-0.197-0.617-0.451
					c0.309-0.018,0.486,0.133,0.758,0.023c0.006-0.137-0.043-0.224-0.045-0.355c-0.217-0.141-0.424-0.289-0.783-0.285
					c-0.271-0.221-0.506-0.475-0.904-0.569c-0.045,0.062-0.105,0.115-0.236,0.095c-0.227-0.172-0.34-0.466-0.617-0.57
					c-0.264-0.098-0.605-0.066-0.971-0.143c-0.109,0.087-0.123,0.258-0.191,0.38c-0.047-0.103-0.096-0.206-0.189-0.261
					c-0.121-0.002-0.197,0.039-0.332,0.023c-0.172,0.237-0.291,0.744-0.049,0.996c0.246,0.083,0.469,0.059,0.736,0.094
					c-0.125,0.152-0.271,0.285-0.451,0.381c-0.152-0.068-0.264-0.225-0.451-0.189c-0.279-0.201-0.43-0.521-0.662-0.761
					c-0.16,0.147-0.16,0.565,0.07,0.64c-0.049,0.097,0.041,0.246-0.025,0.355c-0.107-0.081-0.158,0.106-0.236,0.049
					c0.049-0.18,0.076-0.416-0.047-0.521c-0.346,0.011-0.492,0.219-0.689,0.379c-0.494-0.057-0.828-0.242-1.234,0
					c-0.088-0.077-0.24-0.092-0.234-0.262c0.43,0.044,1.039,0.149,1.326-0.166c-0.139,0.024-0.145-0.254-0.26-0.331
					c0.018-0.228-0.047-0.366-0.047-0.571c-0.148-0.067-0.213-0.252-0.426-0.262c-0.076-0.002-0.158,0.068-0.238,0.072
					c-0.373,0.024-0.531-0.123-0.664-0.331c0.021-0.065,0.049-0.128,0.047-0.216c-0.168-0.078-0.25-0.047-0.451-0.022
					c-0.125-0.089-0.199-0.229-0.359-0.284c-0.213,0.225-0.379,0.504-0.568,0.758c0.141,0.217,0.535,0.032,0.762,0.166
					c0.107-0.104,0.18-0.244,0.334-0.307c0.041,0.141-0.133,0.18-0.166,0.355c-0.041,0.199,0.127,0.5-0.049,0.664
					c-0.336-0.258-0.924-0.262-1.162-0.618c-0.043-0.008-0.117,0.067-0.145,0c-0.031-0.073,0.061-0.141,0-0.165
					c-0.305,0.185-0.523-0.117-0.924-0.048c-0.135-0.108-0.285-0.206-0.477-0.261c-0.031-0.298-0.117-0.501-0.332-0.639
					c-0.355-0.232-0.758-0.205-0.426-0.689c-0.127-0.104-0.17-0.254-0.166-0.428c-0.332-0.123-0.723-0.168-1.117-0.117
					c-0.168,0.287-0.559,0.521-0.947,0.378c-0.02,0.087-0.033,0.208-0.049,0.355c0.059,0.053,0.115,0.107,0.166,0.169
					c-0.115,0.012-0.115,0.137-0.215,0.166c-0.1-0.012-0.137-0.086-0.234-0.097c-0.398,0.069-0.451,0.212-0.666,0.548
					c-0.195,0.306-0.236,0.637-0.334,0.947c0.059,0.015,0.174-0.027,0.193,0.025c-0.129,0.189-0.684,0.25-0.904,0.119
					c0.045,0.216,0.205,0.313,0.355,0.426c0.248-0.111,0.57-0.201,0.783-0.045c-0.172,0.137,0.125,0.227-0.049,0.377
					c0.168-0.025,0.207-0.171,0.238-0.332c0.197-0.077,0.311-0.42,0.545-0.308c-0.029,0.14-0.164,0.286-0.164,0.378
					c0.219,0.107,0.381-0.018,0.57-0.07c-0.025,0.076-0.066,0.143-0.072,0.236c0.082-0.011,0.135,0.012,0.189,0.024
					c0.217,0.513,0.748,0.71,0.736,1.45c0.074-0.005,0.145-0.002,0.166,0.047c0.26,0.58,0.023,1.499,0.17,2.112
					c-0.354,0.241-0.053,0.505,0.02,0.735c0.164,0.508-0.102,0.99-0.26,1.377c-0.084,0.209-0.234,0.387-0.309,0.598
					c-0.068,0.19-0.029,0.373-0.025,0.58c0.012,0.471-0.02,0.947,0.068,1.411c0.018,0.097,0.035,0.198,0.047,0.298
					c0.012,0.072-0.016,0.203-0.01,0.25c0.018,0.153,0.189,0.213,0.283,0.314c0.086,0.102,0.148,0.237,0.23,0.348
					c0.098,0.127,0.258,0.24,0.332,0.402c0.111,0.243,0.049,0.492,0.094,0.74c0.027,0.137,0.104,0.133,0.139,0.236
					c0.031,0.088-0.023,0.156-0.02,0.244c0.006,0.102,0.07,0.189,0.117,0.275c0.061,0.117,0.082,0.253,0.146,0.365
					c0.061,0.101,0.164,0.145,0.223,0.232c0.148,0.219,0.201,0.504,0.367,0.732c0.16,0.219,0.316,0.458,0.57,0.451
					c0.008-0.099,0.119-0.529-0.021-0.592c-0.268-0.118-0.502-0.48-0.646-0.719c-0.076-0.127-0.246-0.359-0.279-0.483
					c-0.072-0.276,0.143-0.626,0.051-0.862c0.141,0.023,0.133,0.171,0.16,0.283c0.094,0.381,0.205,0.752,0.309,1.092
					c0.43,0.189,0.648,0.437,0.904,0.784c0.141,0.19,0.312,0.386,0.4,0.567c0.133,0.271,0.092,0.568,0.189,0.857
					c0.1,0.285,0.395,0.471,0.477,0.736c0.76,0.275,1.504,0.568,2.09,1.02c0.52-0.314,0.875,0.08,1.232,0.285
					c0.715,0.406,1.932,0.269,2.16,1.043c0.09,0.022,0.156,0.067,0.191,0.145c0.029,0.098-0.049,0.093-0.047,0.166
					c0.273,0.107,0.529,0.23,0.664,0.476c0.398,0.177,1.006,0.12,1.398-0.025c0.104,0.168,0.365,0.177,0.475,0.333
					c0.008,0.208,0.043,0.346-0.021,0.5c-0.064,0.156-0.373,0.67-0.475,0.783c-0.141,0.158-0.344,0.244-0.426,0.426
					c-0.123,0.28-0.041,0.541,0.023,0.785c-0.363,0.148-0.176,0.592-0.047,0.879c0.188,0.047,0.334,0.139,0.498,0.213
					c0.15,0.609,0.711,0.807,0.83,1.447c0.445,0.184,0.943-0.119,1.33,0.166c0.016,0.091,0.059,0.15,0.07,0.24
					c-0.139,0.186-0.26,0.385-0.309,0.662c-0.549,0.574-0.641,1.604-1.543,1.83c-0.053,0.166-0.137,0.307-0.213,0.449
					c0.035,0.004,0.088-0.008,0.096,0.023c-0.219,0.187-0.809,0.124-0.83,0.428c0.27,0.1,0.641-0.078,0.971-0.072
					c0.059-0.033-0.045-0.074,0.049-0.068c0.889-0.311,1.727-0.619,2.518-1.07c0.326-0.114,0.604-0.159,0.902-0.285
					c0.285-0.12,0.441-0.353,0.689-0.498c0.16-0.098,0.33-0.148,0.496-0.263c0.6-0.405,1.324-0.72,1.756-1.255
					c0.082-0.289,0.277-0.445,0.475-0.596c0.818-0.625,1.818-1.25,2.375-2.113c0.197-0.303,0.223-0.685,0.426-1.091
					c0.348-0.691,1.146-1.147,1.375-2.019C78.51,97.837,78.473,97.724,78.412,97.692z M66.732,87.463
					c0.09,0.003,0.105,0.08,0.213,0.071c0.033-0.019,0.033-0.076,0.045-0.119h0.094c0.061,0.07,0.02,0.096,0.025,0.213
					c-0.096,0.055-0.219,0.086-0.357,0.094C66.703,87.668,66.691,87.544,66.732,87.463z M66.008,87.114
					c0.066,0.083,0.1,0.193,0.074,0.352c-0.172,0.049-0.363,0.062-0.531-0.006c0.111-0.248-0.227-0.521-0.43-0.615
					c0.178-0.256,0.281-0.163,0.486-0.027C65.768,86.929,65.918,87.002,66.008,87.114z M64.551,88.155
					c-0.053,0.097-0.096,0.197-0.105,0.303c-0.406,0.062-0.447-0.291-0.34-0.597c0.043-0.126,0.609-0.897,0.609-0.897
					c0.066,0.051,0.139,0.027,0.189,0.049c-0.002,0.273-0.051,0.53-0.158,0.783C64.695,87.911,64.615,88.031,64.551,88.155z
					 M64.832,86.204c0.094,0.129,0.188,0.258,0.236,0.43c-0.529,0.006-0.904,0.131-1.426,0.094
					c-0.021-0.073-0.113-0.074-0.117-0.166C63.969,86.423,64.27,85.948,64.832,86.204z M79.676,79.802
					c-0.064-0.101-0.127-0.199-0.201-0.289C79.543,79.604,79.609,79.701,79.676,79.802z M82.207,88.199
					c-0.092-0.845-0.172-1.657-0.283-2.47c-0.045-0.305-0.066-0.626-0.113-0.927c-0.072-0.282-0.152-0.562-0.24-0.841
					c-0.107-0.277-0.234-0.559-0.338-0.842c-0.107-0.291-0.199-0.599-0.295-0.892c-0.295-0.696-0.631-1.368-1.002-2.021
					c-0.088-0.143-0.176-0.276-0.262-0.406c0.15,0.25,0.273,0.523,0.371,0.826c-0.146-0.131-0.303-0.502-0.449-0.476
					c0.139,0.733,0.283,1.455,0.402,2.209c-0.037,0.081-0.186,0.05-0.189,0.165c0.145,0.418,0.242,0.881,0.285,1.4
					c0.199,0.379,0.457,0.814,0.475,1.282c0.014,0.319-0.082,0.63-0.094,0.924c-0.016,0.373-0.004,0.778,0.049,1.142
					c0.082,0.587,0.42,1.139,0.498,1.756c0.025,0.229-0.043,0.416,0,0.615c0.045,0.246,0.225,0.502,0.188,0.785
					c0.096,0.038,0.242,0.027,0.334,0.07c0.066,0.141,0.125,0.285,0.143,0.474c0.098,0.036,0.188,0.08,0.285,0.12
					c0.078-0.578,0.369-1.109,0.379-1.688C82.357,89.026,82.252,88.606,82.207,88.199z M79.311,79.701
					c-0.131-0.106-0.117-0.358-0.311-0.405C79.074,79.448,79.164,79.706,79.311,79.701z M77.391,79.275
					c-0.049-0.365-0.182-0.849-0.383-1.14c-0.156-0.057-0.305-0.123-0.545-0.096c-0.338-0.175-0.664-0.365-1.021-0.523
					c-0.014,0.056-0.078,0.064-0.096,0.119c0.145,0.167,0.256,0.363,0.428,0.5c0.045-0.061,0.092-0.113,0.191-0.12
					c0.576,0.312,0.977,0.797,1.352,1.306C77.328,79.293,77.348,79.274,77.391,79.275z M68.012,94.583
					c0.115-0.098,0.137-0.291,0.332-0.308c-0.158-0.065-0.314-0.269-0.521-0.308c-0.16-0.031-0.35,0.032-0.523,0.02
					c-0.562-0.023-1.158-0.418-1.662-0.209c-0.033,0.076-0.062,0.158-0.096,0.234c0.43,0.107,0.859,0.125,1.26,0.285
					c0.23,0.094,0.488,0.357,0.713,0.357C67.695,94.658,67.828,94.437,68.012,94.583z M53.318,78.089
					c-0.033,0.062-0.125,0.062-0.117,0.165C53.254,78.228,53.365,78.138,53.318,78.089z M70.574,94.466
					c-0.031,0.27,0.141,0.323,0.336,0.309c0.02-0.136,0.115-0.199,0.164-0.309C70.91,94.331,70.758,94.4,70.574,94.466z
					 M55.193,83.12c0.1-0.013,0.141-0.083,0.215-0.118c-0.041-0.167,0.029-0.183,0.094-0.285c-0.158,0.085-0.068-0.114-0.189-0.12
					c-0.006,0.035-0.051,0.029-0.072,0.049C55.316,82.843,55.154,82.892,55.193,83.12z M55.977,75.168
					c-0.092,0.018-0.193,0.025-0.236,0.093c0.035,0.015,0.059,0.039,0.072,0.072C55.904,75.315,55.939,75.239,55.977,75.168z
					 M70.859,94.987c0.021-0.035,0.059-0.049,0.119-0.046c-0.002-0.027,0.006-0.065-0.023-0.072
					C70.947,94.917,70.766,94.914,70.859,94.987z M67.229,94.987v0.238c0.199,0.137,0.543-0.033,0.594-0.262
					C67.607,94.929,67.408,94.896,67.229,94.987z M68.629,94.583c0.035,0.078,0.088,0.136,0.119,0.216
					c0.533,0.226,0.98,0.04,1.494-0.095c0.018-0.146-0.074-0.178-0.068-0.311c-0.453-0.035-0.85-0.065-1.377-0.094
					C68.77,94.423,68.664,94.47,68.629,94.583z M58.139,72.747c-0.086-0.014-0.125,0.02-0.145,0.07
					C58.059,72.827,58.195,72.706,58.139,72.747z M69.768,73.315c-0.186-0.025-0.311-0.116-0.498-0.143
					c0.004,0.097,0.072,0.133,0.07,0.237c0.111,0.032,0.232,0.054,0.354,0.071c-0.039,0.08-0.121,0.111-0.164,0.191
					c0.164,0.336,0.729,0.376,1.045,0.143c-0.201-0.18-0.447-0.314-0.783-0.359C69.746,73.423,69.826,73.367,69.768,73.315z
					 M63.053,71.321c-0.096-0.066-0.244,0.014-0.334,0.024c-0.078-0.019-0.182,0.028-0.049,0.024
					C62.775,71.396,63.025,71.485,63.053,71.321z M62.576,77.97c0.15,0,0.262-0.041,0.355-0.096V77.73
					c-0.236,0.022-0.176-0.249-0.4-0.118C62.463,77.774,62.516,77.831,62.576,77.97z M63.027,79.606
					c-0.031-0.136,0.055-0.152,0.072-0.236c-0.043-0.133-0.088-0.26-0.121-0.404c-0.119-0.054-0.186-0.164-0.332-0.189
					c-0.197,0.15-0.357,0.338-0.475,0.569C62.318,79.573,62.619,79.646,63.027,79.606z M61.486,78.229
					c-0.254-0.062-0.555-0.407-0.738-0.116c0.035,0.121,0.102,0.214,0.166,0.309c0.209-0.074,0.363,0.125,0.547,0.164
					c0.141,0.031,0.285-0.066,0.428,0.025c0.012-0.23-0.07-0.319,0-0.498C61.693,78.025,61.604,78.167,61.486,78.229z M58.35,72.579
					c0.219-0.127,0.533-0.161,0.689-0.355C58.73,72.248,58.463,72.44,58.35,72.579z M60.156,77.919
					c0.074,0.014,0.084,0.092,0.166,0.097c0.137-0.173,0.525-0.093,0.736-0.188c-0.094-0.475-0.523-0.115-0.855-0.049
					C60.229,77.868,60.145,77.848,60.156,77.919z M62.363,78.467c0.24,0.013,0.373,0.135,0.521,0.239
					c-0.006-0.164,0.195-0.197,0.119-0.357c-0.164-0.012-0.27-0.08-0.381-0.141C62.555,78.31,62.4,78.331,62.363,78.467z"/>
			</g>
		</g>
		<g opacity="0.6">
			<path fill="#FFFFFF" d="M64.252,88.345c5.66,4.727,13.305,2.131,18.072-0.341c-0.695-9.51-8.627-17.003-18.316-17.003
				c-9.715,0-17.664,7.565-18.314,17.125C50.113,85.962,58.166,83.251,64.252,88.345z"/>
		</g>
	</g>
</g>
</svg>
