<?xml version="1.0" encoding="utf-8"?>
<!-- Generator: Adobe Illustrator 13.0.0, SVG Export Plug-In . SVG Version: 6.00 Build 14948)  -->
<!DOCTYPE svg PUBLIC "-//W3C//DTD SVG 1.1//EN" "http://www.w3.org/Graphics/SVG/1.1/DTD/svg11.dtd">
<svg version="1.1" id="Layer_1" xmlns="http://www.w3.org/2000/svg" xmlns:xlink="http://www.w3.org/1999/xlink" x="0px" y="0px"
	 width="128px" height="128px" viewBox="0 0 128 128" enable-background="new 0 0 128 128" xml:space="preserve">
<g>
	
		<linearGradient id="SVGID_1_" gradientUnits="userSpaceOnUse" x1="-1509.2095" y1="1845.8516" x2="-1509.2095" y2="1720.2861" gradientTransform="matrix(1 0 0 -1 1573.2109 1846.5039)">
		<stop  offset="0" style="stop-color:#99DBF6"/>
		<stop  offset="1" style="stop-color:#00B2DE"/>
	</linearGradient>
	<path fill="url(#SVGID_1_)" d="M109.535,87.234c3.007-3.156,4.576-6.789,4.576-11.214c0-4.255-1.58-8.049-4.576-11.205
		c-3.156-2.997-6.944-4.578-11.199-4.578c-4.423-0.01-8.209,1.575-11.21,4.578l-7.261,7.42l-0.005-55.8
		c-0.155-4.416-1.575-8.204-4.731-11.206c-3.002-3.162-6.791-4.576-11.054-4.576c-4.422,0-8.2,1.415-11.2,4.576
		c-3.157,2.996-4.743,6.785-4.743,11.201l0.005,55.8l-7.255-7.422c-3.157-3-6.784-4.581-11.21-4.581
		c-4.265,0-8.049,1.581-11.2,4.576c-3,3.156-4.58,6.944-4.58,11.209c0,4.421,1.579,8.054,4.58,11.21l34.407,34.264
		c3.007,3.154,6.79,4.731,11.206,4.731c4.267,0,8.042-1.573,11.056-4.728L109.535,87.234z"/>
	<g opacity="0.88">
		<path fill="#FFFFFF" d="M54.936,9.956c2.446-2.577,5.526-3.731,9.126-3.731c3.477,0,6.561,1.155,9.006,3.731
			c2.494,2.374,3.648,5.348,3.83,8.805h0.027v-1.374c-0.13-3.596-1.286-6.684-3.857-9.13c-2.446-2.571-5.531-3.727-9.007-3.727
			c-3.601,0-6.68,1.156-9.126,3.727c-2.57,2.44-3.86,5.53-3.86,9.125v1.7C51.081,15.486,52.366,12.396,54.936,9.956z"/>
	</g>
</g>
</svg>
