<?xml version="1.0" encoding="utf-8"?>
<!-- Generator: Adobe Illustrator 13.0.0, SVG Export Plug-In . SVG Version: 6.00 Build 14948)  -->
<!DOCTYPE svg PUBLIC "-//W3C//DTD SVG 1.1//EN" "http://www.w3.org/Graphics/SVG/1.1/DTD/svg11.dtd">
<svg version="1.1" id="Layer_1" xmlns="http://www.w3.org/2000/svg" xmlns:xlink="http://www.w3.org/1999/xlink" x="0px" y="0px"
	 width="128px" height="128px" viewBox="0 0 128 128" enable-background="new 0 0 128 128" xml:space="preserve">
<g>
	<g>
		<g>
			
				<radialGradient id="SVGID_1_" cx="-242.1934" cy="87.834" r="53.1358" gradientTransform="matrix(1 0 0 -1 289.2754 151.834)" gradientUnits="userSpaceOnUse">
				<stop  offset="0" style="stop-color:#FAFAFA"/>
				<stop  offset="0.3109" style="stop-color:#F4F4F4"/>
				<stop  offset="0.7262" style="stop-color:#E3E3E3"/>
				<stop  offset="1" style="stop-color:#D4D4D4"/>
			</radialGradient>
			<path fill="url(#SVGID_1_)" stroke="#B3B3B3" stroke-width="2" d="M91.766,22.206v83.586c0,10.285-8.344,18.625-18.637,18.625
				H21.036c-10.295,0-18.637-8.34-18.637-18.625V22.206c0-10.285,8.342-18.623,18.637-18.623h52.093
				C83.422,3.583,91.766,11.921,91.766,22.206L91.766,22.206z"/>
			<path fill="#B3B3B3" d="M73.324,122.091H21.23c-10.295,0-18.637-8.34-18.637-18.625v2.326c0,10.285,8.342,18.625,18.637,18.625
				h52.094c10.293,0,18.637-8.34,18.637-18.625v-2.326C91.961,113.751,83.617,122.091,73.324,122.091z"/>
			<path fill="#FFFFFF" d="M13.565,11.569c2.079-1.734,4.432-2.905,7.665-2.905h52.094c3.234,0,5.586,1.171,7.666,2.905h2.629
				c-2.621-2.646-5.805-4.238-10.295-4.238H21.23c-4.489,0-7.673,1.593-10.294,4.238H13.565z"/>
		</g>
		<g>
			
				<linearGradient id="SVGID_2_" gradientUnits="userSpaceOnUse" x1="-226.5791" y1="42.2661" x2="-265.236" y2="69.334" gradientTransform="matrix(1 0 0 -1 289.2754 151.834)">
				<stop  offset="0" style="stop-color:#181500"/>
				<stop  offset="1" style="stop-color:#5F5D5C"/>
			</linearGradient>
			<polygon fill="url(#SVGID_2_)" points="16.157,93.755 70.578,93.755 70.578,98.311 16.157,98.311 			"/>
			
				<linearGradient id="SVGID_3_" gradientUnits="userSpaceOnUse" x1="-446.6367" y1="34.3877" x2="-470.4817" y2="51.0841" gradientTransform="matrix(0.9588 -9.744112e-06 0 -1 471.3302 151.8776)">
				<stop  offset="0" style="stop-color:#181500"/>
				<stop  offset="1" style="stop-color:#5F5D5C"/>
			</linearGradient>
			<polygon fill="url(#SVGID_3_)" points="16.157,106.869 47.171,106.869 47.171,111.424 16.157,111.424 			"/>
			
				<linearGradient id="SVGID_4_" gradientUnits="userSpaceOnUse" x1="-234.2026" y1="57.5264" x2="-266.7368" y2="80.3069" gradientTransform="matrix(1 0 0 -1 289.2754 151.834)">
				<stop  offset="0" style="stop-color:#181500"/>
				<stop  offset="1" style="stop-color:#5F5D5C"/>
			</linearGradient>
			<polygon fill="url(#SVGID_4_)" points="16.157,80.641 61.454,80.641 61.454,85.193 16.157,85.193 			"/>
		</g>
		<g>
			
				<linearGradient id="SVGID_5_" gradientUnits="userSpaceOnUse" x1="-471.3389" y1="1455.7432" x2="-514.0364" y2="1425.8461" gradientTransform="matrix(1 0 0 1 536.0024 -1405.7139)">
				<stop  offset="0" style="stop-color:#00B2DE"/>
				<stop  offset="1" style="stop-color:#99DBF6"/>
			</linearGradient>
			<path fill="url(#SVGID_5_)" d="M27.063,61.512c-0.627-6.319-1.379-12.875-2.26-19.667c-0.881-6.792-1.898-13.928-3.055-21.402
				c0.783,0.116,1.576,0.21,2.379,0.28c0.805,0.068,1.615,0.103,2.439,0.103c0.801,0,1.613-0.034,2.436-0.103
				c0.822-0.07,1.654-0.162,2.496-0.28c0.154,4.913,0.463,9.777,0.926,14.591c0.459,4.814,1.07,9.57,1.834,14.268
				c2.309-4.148,4.639-8.625,6.986-13.431c2.35-4.805,4.707-9.949,7.074-15.428c0.471,0.116,0.93,0.21,1.379,0.28
				c0.449,0.068,0.92,0.103,1.408,0.103c0.51,0,1.033-0.034,1.572-0.103c0.539-0.07,1.09-0.162,1.658-0.28
				c0.275,4.971,0.715,9.873,1.32,14.708c0.607,4.834,1.371,9.591,2.291,14.269c2.291-4.56,4.502-9.249,6.635-14.064
				c2.133-4.814,4.207-9.785,6.226-14.913c0.471,0.117,0.93,0.21,1.379,0.279c0.453,0.067,0.92,0.103,1.41,0.103
				c0.45,0,0.913-0.033,1.395-0.103c0.479-0.069,0.953-0.162,1.424-0.279c-2.979,5.912-6.09,12.231-9.338,18.966
				c-3.25,6.732-6.732,14.102-10.453,22.104c-0.43-0.096-0.885-0.17-1.363-0.219c-0.479-0.05-1.023-0.073-1.631-0.073
				c-0.605,0-1.145,0.023-1.613,0.073c-0.471,0.049-0.91,0.123-1.32,0.219c-0.492-4.989-1.049-9.79-1.676-14.399
				c-0.625-4.609-1.32-9.066-2.084-13.372c-2.643,4.579-5.117,9.186-7.428,13.813c-2.309,4.629-4.441,9.28-6.4,13.958
				c-0.43-0.096-0.891-0.17-1.379-0.219c-0.49-0.05-1.047-0.073-1.674-0.073c-0.625,0-1.18,0.023-1.658,0.073
				C27.915,61.342,27.476,61.416,27.063,61.512z"/>
		</g>
	</g>
	<g>
		
			<linearGradient id="SVGID_6_" gradientUnits="userSpaceOnUse" x1="-9739.1484" y1="-2386.5498" x2="-9739.1484" y2="-2333.1814" gradientTransform="matrix(0.3308 -0.346 0.3461 0.3305 4120.1689 -2519.4761)">
			<stop  offset="0" style="stop-color:#FFD207"/>
			<stop  offset="1" style="stop-color:#FAA61A"/>
		</linearGradient>
		<path fill="url(#SVGID_6_)" d="M93.146,38.335l-44.423,46.46c0.422,0.41,1.707,1.807,2.073,3.814
			c2.164-0.176,4.579,0.562,5.163,1.109c2.08,1.992,1.421,5.361,1.421,5.361s3.831-0.445,5.69,1.52
			c0.49,0.516,1.195,2.389,1.496,4.416c1.57-0.037,3.164,1.857,3.518,2.307l44.438-46.479c0.779-0.813,0.754-2.104-0.062-2.882
			c0,0-1.826-3.983-7.551-9.451c-5.726-5.462-8.882-6.239-8.882-6.239C95.214,37.491,93.925,37.52,93.146,38.335z"/>
		
			<linearGradient id="SVGID_7_" gradientUnits="userSpaceOnUse" x1="-9648.0508" y1="-2360.4985" x2="-9647.6748" y2="-2381.1697" gradientTransform="matrix(0.3308 -0.346 0.3461 0.3305 4120.1689 -2519.4761)">
			<stop  offset="0" style="stop-color:#F66B87"/>
			<stop  offset="1" style="stop-color:#FCD0D9"/>
		</linearGradient>
		<path fill="url(#SVGID_7_)" d="M105.204,25.72l-9.606,10.049c0.209,0.207,5.998,3.725,10.756,8.266
			c4.725,4.511,8.428,10.04,8.604,10.262l9.626-10.068c2.489-2.602-1.394-7.39-7.117-12.854
			C111.742,25.909,107.193,23.64,105.204,25.72z"/>
		
			<linearGradient id="SVGID_8_" gradientUnits="userSpaceOnUse" x1="-9819.6377" y1="-2379.4434" x2="-9815.0381" y2="-2359.5115" gradientTransform="matrix(0.3308 -0.346 0.3461 0.3305 4120.1689 -2519.4761)">
			<stop  offset="0" style="stop-color:#FAEDB0"/>
			<stop  offset="1" style="stop-color:#FFC76E"/>
		</linearGradient>
		<path fill="url(#SVGID_8_)" d="M68.16,103.417c0,0-0.03-0.035-0.075-0.095l-0.155,0.158L68.16,103.417z"/>
		
			<linearGradient id="SVGID_9_" gradientUnits="userSpaceOnUse" x1="-9807.1641" y1="-2381.4146" x2="-9802.6875" y2="-2362.0146" gradientTransform="matrix(0.3308 -0.346 0.3461 0.3305 4120.1689 -2519.4761)">
			<stop  offset="0" style="stop-color:#FAEDB0"/>
			<stop  offset="1" style="stop-color:#FFC76E"/>
		</linearGradient>
		<path fill="url(#SVGID_9_)" d="M48.591,84.661l-0.088,0.364l0.22-0.23C48.643,84.708,48.591,84.661,48.591,84.661z"/>
		<path fill="#F6921E" d="M64.566,101.018c-0.299-2.029-1.004-3.904-1.496-4.418c-1.858-1.963-5.688-1.521-5.688-1.521
			s0.658-3.367-1.424-5.358c-0.582-0.55-2.995-1.287-5.161-1.109c-0.364-2.008-1.653-3.406-2.073-3.816l-0.219,0.23l-0.917,3.725
			c0.026,0.033,0.048,0.068,0.076,0.096l16.431,15.698c0.019,0.015,0.036,0.021,0.053,0.035l3.779-1.103l0.16-0.158
			C67.734,102.874,66.141,100.979,64.566,101.018z"/>
		
			<linearGradient id="SVGID_10_" gradientUnits="userSpaceOnUse" x1="-9824.1836" y1="-2376.834" x2="-9821.7705" y2="-2359.9492" gradientTransform="matrix(0.3308 -0.346 0.3461 0.3305 4120.1689 -2519.4761)">
			<stop  offset="0" style="stop-color:#FAEDB0"/>
			<stop  offset="1" style="stop-color:#FFC76E"/>
		</linearGradient>
		<path fill="url(#SVGID_10_)" d="M57.381,95.081c0,0,0.659-3.369-1.421-5.36c-0.584-0.548-2.999-1.285-5.163-1.109
			c-0.366-2.008-1.651-3.405-2.073-3.815l-0.219,0.231l-0.918,3.725l-2.236,9.07l-0.645,2.615l3.924,3.76l3.922,3.748l2.586-0.748
			l9.008-2.621l3.783-1.104l0.159-0.158c-0.354-0.447-1.948-2.344-3.522-2.307c-0.301-2.027-1.006-3.9-1.498-4.414
			C61.212,94.637,57.381,95.081,57.381,95.081z"/>
		
			<linearGradient id="SVGID_11_" gradientUnits="userSpaceOnUse" x1="-9846.6436" y1="-2362.4795" x2="-9849.6484" y2="-2372.6206" gradientTransform="matrix(0.3308 -0.346 0.3461 0.3305 4120.1689 -2519.4761)">
			<stop  offset="0" style="stop-color:#231F20"/>
			<stop  offset="1" style="stop-color:#FFFFFF"/>
		</linearGradient>
		<polygon fill="url(#SVGID_11_)" points="44.716,100.458 42.141,111.003 52.559,107.954 52.554,107.947 48.63,104.2 		"/>
		
			<linearGradient id="SVGID_12_" gradientUnits="userSpaceOnUse" x1="-8646.9238" y1="4096.002" x2="-8661.9805" y2="4083.2429" gradientTransform="matrix(0.4786 -0.011 0.0108 0.4784 4201.0693 -2004.1335)">
			<stop  offset="0" style="stop-color:#808080"/>
			<stop  offset="1" style="stop-color:#F2F2F2"/>
		</linearGradient>
		<path fill="url(#SVGID_12_)" d="M95.678,35.601l-5.332,5.658c0.217,0.205,5.397,3.314,10.161,7.858
			c4.722,4.509,9.021,10.458,9.211,10.659l5.339-5.665c0.356-0.378-3.259-5.442-8.98-10.911
			C100.355,37.735,96.034,35.223,95.678,35.601z"/>
		<g opacity="0.6">
			<path fill="#FFF8A2" d="M106.859,26.982L51.622,84.838c0.27,0.516,0.506,1.116,0.629,1.792c0.901-0.069,1.838,0.026,2.663,0.199
				l55.377-58.001C107.671,26.563,106.79,26.937,106.859,26.982z"/>
		</g>
		
			<linearGradient id="SVGID_13_" gradientUnits="userSpaceOnUse" x1="-2652.3984" y1="363.6914" x2="-2652.3984" y2="363.6914" gradientTransform="matrix(0.9576 -0.2881 -0.2881 -0.9576 2695.2817 -331.133)">
			<stop  offset="0" style="stop-color:#DEDEDE"/>
			<stop  offset="1" style="stop-color:#FEFEFE"/>
		</linearGradient>
		<path fill="url(#SVGID_13_)" stroke="#181512" stroke-width="1.0006" stroke-miterlimit="3.8637" d="M50.565,84.753"/>
		<g opacity="0.6">
			<path fill="#FFF8A2" d="M51.61,90.467l-0.008-0.005c-0.693-0.103-1.428-0.149-2.141-0.092c-0.127-0.692-0.367-1.312-0.641-1.841
				l-0.108-0.077l-5.574,20.688L51.61,90.467z"/>
		</g>
	</g>
</g>
</svg>
