<?xml version="1.0" encoding="utf-8"?>
<!-- Generator: Adobe Illustrator 13.0.0, SVG Export Plug-In . SVG Version: 6.00 Build 14948)  -->
<!DOCTYPE svg PUBLIC "-//W3C//DTD SVG 1.1//EN" "http://www.w3.org/Graphics/SVG/1.1/DTD/svg11.dtd">
<svg version="1.1" id="Layer_1" xmlns="http://www.w3.org/2000/svg" xmlns:xlink="http://www.w3.org/1999/xlink" x="0px" y="0px"
	 width="128px" height="128px" viewBox="0 0 128 128" enable-background="new 0 0 128 128" xml:space="preserve">
<g>
	<radialGradient id="SVGID_1_" cx="63.9551" cy="63.9312" r="62.0549" gradientUnits="userSpaceOnUse">
		<stop  offset="0" style="stop-color:#FAFAFA"/>
		<stop  offset="0.3109" style="stop-color:#F4F4F4"/>
		<stop  offset="0.7262" style="stop-color:#E3E3E3"/>
		<stop  offset="1" style="stop-color:#D4D4D4"/>
	</radialGradient>
	<path fill="url(#SVGID_1_)" stroke="#B3B3B3" stroke-width="2" d="M18.835,1.854l90.233,0.006c9.342,0,16.915,7.578,16.915,16.927
		l0.005,90.294c0,9.349-7.574,16.927-16.915,16.927l-90.234-0.003c-9.341,0-16.915-7.581-16.915-16.929L1.921,18.781
		C1.92,9.434,9.495,1.854,18.835,1.854L18.835,1.854z"/>
	<g>
		
			<linearGradient id="SVGID_2_" gradientUnits="userSpaceOnUse" x1="-353.6763" y1="867.4824" x2="-353.6763" y2="882.1016" gradientTransform="matrix(1 0 0 1 412.6201 -813.9912)">
			<stop  offset="0" style="stop-color:#EC008C"/>
			<stop  offset="1" style="stop-color:#C4008C"/>
		</linearGradient>
		<path fill="url(#SVGID_2_)" d="M69.204,68.109h-2.906v-8.804c0-1.064-0.267-1.867-0.798-2.408
			c-0.532-0.543-1.236-0.813-2.109-0.813c-0.817,0-1.521,0.267-2.108,0.798c-0.59,0.531-0.884,1.293-0.884,2.281v8.946h-2.907
			v-8.804c0-1.064-0.269-1.867-0.806-2.408c-0.537-0.543-1.248-0.813-2.129-0.813c-0.846,0-1.555,0.257-2.131,0.771
			c-0.595,0.588-0.892,1.405-0.892,2.451v8.804h-2.851V53.661h2.851v1.453c0.969-1.082,2.251-1.623,3.849-1.623
			c1.842,0,3.209,0.703,4.104,2.107c1.14-1.404,2.65-2.107,4.531-2.107c1.54,0,2.754,0.437,3.647,1.311
			c1.025,0.969,1.539,2.327,1.539,4.076V68.109L69.204,68.109z"/>
		
			<linearGradient id="SVGID_3_" gradientUnits="userSpaceOnUse" x1="-337.4888" y1="861.7539" x2="-337.4888" y2="882.1016" gradientTransform="matrix(1 0 0 1 412.6201 -813.9912)">
			<stop  offset="0" style="stop-color:#EC008C"/>
			<stop  offset="1" style="stop-color:#C4008C"/>
		</linearGradient>
		<path fill="url(#SVGID_3_)" d="M76.671,50.841h-3.078v-3.078h3.078V50.841z M76.585,68.109h-2.906V53.69h2.906V68.109z"/>
		
			<linearGradient id="SVGID_4_" gradientUnits="userSpaceOnUse" x1="-328.6255" y1="861.8105" x2="-328.6255" y2="882.1016" gradientTransform="matrix(1 0 0 1 412.6201 -813.9912)">
			<stop  offset="0" style="stop-color:#EC008C"/>
			<stop  offset="1" style="stop-color:#C4008C"/>
		</linearGradient>
		<path fill="url(#SVGID_4_)" d="M86.873,68.109h-1.795c-1.293,0-2.3-0.396-3.021-1.197c-0.627-0.684-0.94-1.611-0.94-2.79V47.819
			h2.907V63.95c0,1.12,0.521,1.681,1.566,1.681h1.281L86.873,68.109L86.873,68.109z"/>
		
			<linearGradient id="SVGID_5_" gradientUnits="userSpaceOnUse" x1="-316.2139" y1="861.8125" x2="-316.2139" y2="882.1191" gradientTransform="matrix(1 0 0 1 412.6201 -813.9912)">
			<stop  offset="0" style="stop-color:#EC008C"/>
			<stop  offset="1" style="stop-color:#C4008C"/>
		</linearGradient>
		<path fill="url(#SVGID_5_)" d="M102.748,68.109l-3.616,0.018l-4.016-6.669l-2.119,2.43l-0.025,4.226h-2.906V47.821h2.906v12.51
			l5.614-6.668l3.537,0.002l-5.024,5.66L102.748,68.109z"/>
		
			<linearGradient id="SVGID_6_" gradientUnits="userSpaceOnUse" x1="-302.5181" y1="867.6465" x2="-302.5181" y2="887.8301" gradientTransform="matrix(1 0 0 1 412.6201 -813.9912)">
			<stop  offset="0" style="stop-color:#EC008C"/>
			<stop  offset="1" style="stop-color:#C4008C"/>
		</linearGradient>
		<path fill="url(#SVGID_6_)" d="M116.604,53.661l-6.394,17.327c-0.284,0.778-0.637,1.377-1.055,1.795
			c-0.703,0.703-1.69,1.056-2.964,1.056h-1.17v-2.595h0.74c0.57,0,1.002-0.104,1.297-0.313c0.295-0.211,0.557-0.623,0.783-1.235
			l0.799-2.269l-5.041-13.766l3.095-0.006l3.438,10.125l3.363-10.117L116.604,53.661z"/>
	</g>
	<path fill="#B3B3B3" d="M109.1,120.831l-90.372-0.005c-8.541,0-15.588-6.334-16.753-14.562v2.415
		c0,9.349,7.574,16.927,16.915,16.927l90.235,0.005c9.34,0,16.915-7.578,16.915-16.926v-4.803
		C126.035,113.242,118.452,120.831,109.1,120.831z"/>
	<path fill="#FFFFFF" d="M21.877,10.717l84.33,0.004c7.971,0,14.545,5.911,15.631,13.588v-2.254c0-8.724-7.066-15.795-15.783-15.795
		L21.857,6.255c-8.718,0-15.784,7.073-15.784,15.796v4.48C6.075,17.798,13.151,10.717,21.877,10.717z"/>
	
		<linearGradient id="SVGID_7_" gradientUnits="userSpaceOnUse" x1="-1660.9648" y1="-645.4951" x2="-1677.1199" y2="-656.807" gradientTransform="matrix(0.781 -3.664737e-05 0 0.781 1423.2163 545.9521)">
		<stop  offset="0" style="stop-color:#181500"/>
		<stop  offset="1" style="stop-color:#5F5D5C"/>
	</linearGradient>
	<path fill="url(#SVGID_7_)" d="M124.955,33.317c0-2.045,0.04-2.384,0.04-4.469c-0.69,0.637-6.724,1.022-7.87,0.678
		c-3.275-0.982-2.623,7.209-0.328,9.827c2.295,2.621,1.309,3.931,0.656,6.879c-0.656,2.948,2.291,3.603,3.931,0.327
		c1.121-2.241,2.243-3.255,3.574-3.146C124.958,39.996,124.955,36.633,124.955,33.317z"/>
	
		<linearGradient id="SVGID_8_" gradientUnits="userSpaceOnUse" x1="-388.5312" y1="891.502" x2="-411.8155" y2="875.1982" gradientTransform="matrix(1 0 0 1 412.6201 -813.9912)">
		<stop  offset="0" style="stop-color:#181500"/>
		<stop  offset="1" style="stop-color:#5F5D5C"/>
	</linearGradient>
	<path fill="url(#SVGID_8_)" d="M13.96,85.665c2.95-1.988,0.387-9.162,8.55-9.51c8.163-0.344,4.657-13.914,0.232-10.936
		c-4.424,2.984-1.573-9.248-7.901-14.826c-6.328-5.576-8.008,2.115-7.072,8.512c0.408,2.787-2.099,4.783-4.771,6.152
		c0,6.476-0.015,12.435-0.015,18.418C6.791,84.979,12.177,86.864,13.96,85.665z"/>
	
		<linearGradient id="SVGID_9_" gradientUnits="userSpaceOnUse" x1="-366.1719" y1="848.0752" x2="-387.3155" y2="833.2703" gradientTransform="matrix(1 0 0 1 412.6201 -813.9912)">
		<stop  offset="0" style="stop-color:#181500"/>
		<stop  offset="1" style="stop-color:#5F5D5C"/>
	</linearGradient>
	<path fill="url(#SVGID_9_)" d="M40.958,17.087c-2.606,2.084-14.062-0.518-16.666,3.646c-2.604,4.165-1.562,7.812,4.686,9.895
		c6.25,2.082,2.607,10.937,6.771,10.937c4.165,0,2.603-4.687,7.812-7.812c5.208-3.125,8.853-5.733,7.29-9.377
		C49.289,20.733,43.562,15.003,40.958,17.087z"/>
	
		<linearGradient id="SVGID_10_" gradientUnits="userSpaceOnUse" x1="-1453.1689" y1="-179.4668" x2="-1488.6061" y2="-204.2802" gradientTransform="matrix(0.8122 0.0021 -0.0038 0.8062 1242.8889 259.5846)">
		<stop  offset="0" style="stop-color:#181500"/>
		<stop  offset="1" style="stop-color:#5F5D5C"/>
	</linearGradient>
	<path fill="url(#SVGID_10_)" d="M38.16,112.558c4.01-1.108,15.904,7.42,20.928,3.943c5.021-3.479,5.605-8.14-0.561-13.543
		c-6.165-5.408,2.339-13.718-2.448-15.743c-4.786-2.021-5.278,4.075-12.786,5.103c-7.508,1.029-12.966,2.227-12.948,7.135
		C30.365,104.358,34.151,113.664,38.16,112.558z"/>
	
		<linearGradient id="SVGID_11_" gradientUnits="userSpaceOnUse" x1="-285.8872" y1="922.0615" x2="-299.8856" y2="912.2598" gradientTransform="matrix(1 0 0 1 412.6201 -813.9912)">
		<stop  offset="0" style="stop-color:#181500"/>
		<stop  offset="1" style="stop-color:#5F5D5C"/>
	</linearGradient>
	<path fill="url(#SVGID_11_)" d="M124.979,109.792c0-3.777,0.247-13.641-0.003-24.486c-2.332,0.733-4.801,2.284-4.801,5.583
		c0,6.25-5.729,1.042-7.291,8.333c-1.561,7.291,4.166,10.416,1.043,15.104c-1.629,2.448-1.551,4.442-0.516,5.95
		C120.053,118.211,123.044,114.103,124.979,109.792z"/>
</g>
</svg>
