<?xml version="1.0"?>
<!DOCTYPE svg PUBLIC "-//W3C//DTD SVG 1.0//EN"
	"http://www.w3.org/TR/2001/REC-SVG-20010904/DTD/svg10.dtd">
<!-- Generator: Adobe Illustrator 10.0, SVG Export Plug-In . SVG Version: 3.0.0 Build 76)  -->
<svg xmlns:x="http://ns.adobe.com/Extensibility/1.0/"
	xmlns:i="http://ns.adobe.com/AdobeIllustrator/10.0/" xmlns:graph=""
	xmlns="http://www.w3.org/2000/svg" xmlns:xlink="http://www.w3.org/1999/xlink"
	xmlns:a="http://ns.adobe.com/AdobeSVGViewerExtensions/3.0/" width="120"
	height="119" viewBox="-0.033 0.33 120 119" overflow="visible"
	enable-background="new -0.033 0.33 120 119" xml:space="preserve">
	<g id="Layer_1_2_">
		<path d="M102.394 83.761 L86.647 91.934 L89.07 97.612 L105.79 88.985 z"
			 style="fill-rule:evenodd;clip-rule:evenodd;fill:rgb(255,255,255)"/>
		<g>
			<radialGradient id="XMLID_1_" cx="59.0664" cy="115.019" r="113.163"
				fx="59.0664" fy="115.019" gradientUnits="userSpaceOnUse">
				<stop offset="0" style="stop-color:rgb(255,255,255)"/>
				<stop offset="0.3315" style="stop-color:rgb(0,217,212)"/>
				<stop offset="0.7921" style="stop-color:rgb(0,78,78)"/>
			</radialGradient>
			<path
				d="M59.856 118.905 C27.295 118.905 0.809 92.419 0.809 59.861 C0.809 27.303 27.295 0.814
					59.856 0.814 C92.415 0.814 118.906 27.303 118.906 59.861 C118.906 92.418
					92.415 118.905 59.856 118.905 z"
				 style="fill:url(#XMLID_1_)"/>
			<linearGradient id="XMLID_2_" gradientUnits="userSpaceOnUse" x1="59.856"
				y1="221.169" x2="59.8559" y2="67.9062">
				<stop offset="41.3793%" style="stop-color:rgb(255,255,255)"/>
				<stop offset="100%" style="stop-opacity:0;stop-color:rgb(255,255,255)"/>
			</linearGradient>
			<path a:adobe-blending-mode="screen"
				d="M59.856 2.719 C28.295 2.719 2.717 28.303 2.717 59.861 C2.717 91.422 28.295 117.002
					59.856 117.002 C91.411 117.002 116.993 91.422 116.993 59.861 C116.993 28.304
					91.411 2.719 59.856 2.719 zM59.856 114.276 C29.847 114.276 5.438 89.867
					5.438 59.861 C5.438 29.854 29.848 5.442 59.856 5.442 C89.862 5.442 114.274
					29.854 114.274 59.861 C114.274 89.867 89.862 114.276 59.856 114.276 z"
				 style="fill:url(#XMLID_2_)"/>
			<path
				d="M58.357 114.716 C79.59 115.438 98.635 105.098 109.819 88.969 C93.569 75.931 69.592
					67.243 42.644 66.328 C28.354 65.844 14.753 67.599 2.578 71.126 C9.295 95.475
					31.484 113.804 58.357 114.716 z"
				 style="fill:rgb(255,255,255)"/>
			<radialGradient id="XMLID_3_" cx="106.178" cy="178.479" r="90.5363"
				fx="106.178" fy="178.479"
				gradientTransform="matrix(1.4768 0 0 1 -121.483 0)"
				gradientUnits="userSpaceOnUse">
				<stop offset="0" style="stop-color:rgb(255,255,255)"/>
				<stop offset="1" style="stop-color:rgb(0,0,0)"/>
				<a:midPointStop offset="0" style="stop-color:#FFFFFF"/>
				<a:midPointStop offset="0.5" style="stop-color:#FFFFFF"/>
				<a:midPointStop offset="1" style="stop-color:#000000"/>
			</radialGradient>
			<path
				d="M59.856 118.905 C80.81 118.905 99.237 107.926 109.719 91.427 C93.268 78.95 69.344
					71.078 42.75 71.078 C28.65 71.078 15.302 73.292 3.419 77.231 C10.854 101.338
					33.338 118.905 59.856 118.905 z"
				 style="fill:url(#XMLID_3_)"/>
			<linearGradient id="XMLID_4_" gradientUnits="userSpaceOnUse" x1="57.6558"
				y1="7.1294" x2="57.6558" y2="65.4678">
				<stop offset="0%" style="stop-color:rgb(255,255,255)"/>
				<stop offset="100%" style="stop-opacity:0;stop-color:rgb(255,255,255)"/>
			</linearGradient>
			<path a:adobe-blending-mode="screen"
				d="M59.617 61.709 C81.015 45.452 101.138 39.942 109.96 38.194 C101.466 18.509 82.298
					4.778 60.001 4.778 C29.82 4.778 5.352 29.933 5.352 60.952 C5.352 65.827 5.959
					70.552 7.095 75.063 C15.948 76.741 37.6 78.428 59.617 61.709 z"
				 style="fill:url(#XMLID_4_)"/>
			<linearGradient id="XMLID_5_" gradientUnits="userSpaceOnUse" x1="59.6089"
				y1="148.134" x2="59.6089" y2="74.0741">
				<stop offset="0%" style="stop-color:rgb(255,255,255)"/>
				<stop offset="84.4828%" style="stop-opacity:0;stop-color:rgb(255,255,255)"/>
			</linearGradient>
			<path a:adobe-blending-mode="screen"
				d="M59.604 100.053 C33.44 100.053 11.676 84.435 9.685 60.005 C9.585 61.204 9.518 62.413
					9.518 63.638 C9.518 89.77 32.144 111.071 59.604 111.071 C87.263 111.071
					109.699 89.77 109.699 63.638 C109.699 62.412 109.635 61.203 109.535 60.005
					C107.556 84.435 85.958 100.053 59.604 100.053 z"
				 style="opacity:0.8;fill:url(#XMLID_5_)"/>
			<path
				d="M59.856 2.719 C28.295 2.719 2.717 28.303 2.717 59.861 C2.717 63.398 3.055 66.856
					3.672 70.217 C15.337 67.531 27.982 66.24 41.166 66.689 C67.989 67.599 92.143
					75.451 109.877 87.479 C114.406 79.293 116.992 69.88 116.992 59.861 C116.993
					28.304 91.411 2.719 59.856 2.719 z"
				 style="fill:none"/>
			<radialGradient id="XMLID_6_" cx="59.0571" cy="86.0903" r="114.61" fx="59.0571"
				fy="86.0903" gradientUnits="userSpaceOnUse">
				<stop offset="0" style="stop-color:rgb(255,255,255)"/>
				<stop offset="0.3315" style="stop-color:rgb(0,104,104)"/>
				<stop offset="0.7921" style="stop-color:rgb(0,43,56)"/>
				<a:midPointStop offset="0" style="stop-color:#FFFFFF"/>
				<a:midPointStop offset="0.5" style="stop-color:#FFFFFF"/>
				<a:midPointStop offset="0.3315" style="stop-color:#006868"/>
				<a:midPointStop offset="0.5" style="stop-color:#006868"/>
				<a:midPointStop offset="0.7921" style="stop-color:#002B38"/>
			</radialGradient>
			<path
				d="M2.718 59.861 C2.718 28.304 28.296 2.719 59.857 2.719 C91.412 2.719 116.994 28.303
					116.994 59.861 C116.994 69.881 114.408 79.294 109.879 87.479 C110.63 87.99
					111.384 88.497 112.108 89.019 C116.948 80.383 119.719 70.441 119.719 59.861
					C119.719 26.853 92.863 0 59.856 0 C26.85 0 0 26.853 0 59.861 C0 63.612 0.364
					67.282 1.026 70.842 C1.901 70.622 2.786 70.423 3.672 70.217 C3.056 66.856
					2.718 63.398 2.718 59.861 z"
				 style="fill:url(#XMLID_6_)"/>
			<path
				d="M59.856 119.72 C82.283 119.72 101.855 107.316 112.107 89.019 C111.382 88.497 110.628
					87.99 109.878 87.479 C100.141 105.082 81.392 117.001 59.857 117.001 C31.836
					117.001 8.546 96.83 3.673 70.217 C2.787 70.423 1.902 70.622 1.027 70.842
					C6.201 98.619 30.604 119.72 59.856 119.72 z"/>
			<path
				d="M41.102 71.11 C41.652 71.101 42.196 71.078 42.75 71.078 C52.2 71.078 61.305 72.09
					69.866 73.932 C58.536 61.557 42.239 43.762 41.102 42.52 C41.102 44.281 41.102
					61.239 41.102 71.11 z"
				 style="fill:none"/>
			<path
				d="M91.42 29.815 L70.329 29.815 C70.036 29.815 69.802 30.045 69.802 30.329 L69.802 31.786
					C69.802 32.071 70.036 32.301 70.329 32.301 C75.475 32.301 78.089 33.022
					78.089 36.965 C78.089 36.965 78.089 65.921 78.089 68.443 C76.338 66.478
					43.733 29.992 43.733 29.992 C43.633 29.881 43.49 29.816 43.337 29.816 L27.955
					29.816 C27.663 29.816 27.428 30.046 27.428 30.33 L27.428 31.787 C27.428
					31.933 27.491 32.072 27.603 32.17 C27.712 32.267 27.862 32.315 28.009 32.299
					C31.593 31.929 32.569 32.998 34.344 34.938 C34.344 34.938 35.295 35.945 35.533
					36.196 L35.533 71.298 C35.533 75.394 35.533 78.152 35.533 78.152 C35.533
					82.006 31.313 82.815 27.771 82.815 C27.48 82.815 27.243 83.044 27.243 83.328
					L27.243 84.783 C27.243 85.068 27.481 85.299 27.771 85.299 L48.863 85.299
					C49.155 85.299 49.391 85.069 49.391 84.783 L49.391 83.328 C49.391 83.044
					49.155 82.815 48.863 82.815 C45.322 82.815 41.102 82.005 41.102 78.152 C41.102
					78.152 41.102 75.248 41.102 71.112 L41.102 42.519 C42.239 43.761 58.537
					61.556 69.866 73.931 C74.648 74.957 79.26 76.242 83.658 77.776 L83.658 36.965
					C83.658 33.022 86.272 32.301 91.42 32.301 C91.71 32.301 91.945 32.071
					91.945 31.786 L91.945 30.33 C91.945 30.045 91.71 29.815 91.42 29.815 z"
				 style="fill:rgb(255,255,255)"/>
		</g>
	</g>
</svg>
