<?xml version="1.0" encoding="utf-8"?>
<!-- Generator: Adobe Illustrator 13.0.0, SVG Export Plug-In . SVG Version: 6.00 Build 14948)  -->
<!DOCTYPE svg PUBLIC "-//W3C//DTD SVG 1.1//EN" "http://www.w3.org/Graphics/SVG/1.1/DTD/svg11.dtd">
<svg version="1.1" id="Layer_1" xmlns="http://www.w3.org/2000/svg" xmlns:xlink="http://www.w3.org/1999/xlink" x="0px" y="0px"
	 width="128px" height="128px" viewBox="0 0 128 128" enable-background="new 0 0 128 128" xml:space="preserve">
<g>
	<g>
		
			<linearGradient id="SVGID_1_" gradientUnits="userSpaceOnUse" x1="-351.1216" y1="712.7041" x2="-225.3887" y2="712.7041" gradientTransform="matrix(0 1 -1 0 781.2617 351.8984)">
			<stop  offset="0" style="stop-color:#ECEEF0"/>
			<stop  offset="0.2485" style="stop-color:#E8E8E9"/>
			<stop  offset="0.5636" style="stop-color:#EEEFF2"/>
			<stop  offset="0.9212" style="stop-color:#D4D5D6"/>
		</linearGradient>
		<path fill="url(#SVGID_1_)" stroke="#B3B3B3" d="M120.959,108.762l-0.058-90.233c0-9.805-7.945-17.751-17.749-17.751H33.905
			c-9.803,0-17.75,7.946-17.75,17.751v90.233c0,9.803,7.947,17.748,17.75,17.748h69.305
			C113.016,126.51,120.959,118.564,120.959,108.762z"/>
		<path fill="#FFFFFF" d="M22.291,14.761c2.942-4.604,8.086-7.665,13.954-7.665h64.622c5.87,0,11.013,3.062,13.954,7.665h1.408
			c-2.447-6.09-8.396-10.394-15.362-10.394H36.245c-6.964,0-12.915,4.304-15.363,10.394H22.291z"/>
		<path fill="#B3B3B3" d="M103.002,122.113H34.285c-9.555,0-17.311-7.61-17.586-17.098c-0.008-0.045-0.021-0.089-0.029-0.135
			l0.003,4.367c0,9.73,7.884,17.615,17.612,17.615h68.717c9.727,0,17.613-7.885,17.613-17.615V104.9
			c-0.007,0.041-0.02,0.08-0.026,0.121C120.311,114.506,112.553,122.113,103.002,122.113z"/>
		<g>
			<linearGradient id="SVGID_2_" gradientUnits="userSpaceOnUse" x1="25.8594" y1="31.3994" x2="17.5623" y2="25.5897">
				<stop  offset="0" style="stop-color:#9A9A9A"/>
				<stop  offset="1" style="stop-color:#DEDEDE"/>
			</linearGradient>
			<path fill="url(#SVGID_2_)" d="M26.775,28.497c0,2.795-2.268,5.061-5.065,5.061c-2.796,0-5.062-2.266-5.062-5.061
				c0-2.801,2.267-5.065,5.062-5.065C24.508,23.432,26.775,25.696,26.775,28.497z"/>
			<linearGradient id="SVGID_3_" gradientUnits="userSpaceOnUse" x1="25.8594" y1="45.459" x2="17.5623" y2="39.6493">
				<stop  offset="0" style="stop-color:#9A9A9A"/>
				<stop  offset="1" style="stop-color:#DEDEDE"/>
			</linearGradient>
			<path fill="url(#SVGID_3_)" d="M26.775,42.558c0,2.795-2.268,5.06-5.065,5.06c-2.796,0-5.062-2.265-5.062-5.06
				c0-2.802,2.267-5.066,5.062-5.066C24.508,37.491,26.775,39.756,26.775,42.558z"/>
			<linearGradient id="SVGID_4_" gradientUnits="userSpaceOnUse" x1="25.8594" y1="59.5195" x2="17.5623" y2="53.7098">
				<stop  offset="0" style="stop-color:#9A9A9A"/>
				<stop  offset="1" style="stop-color:#DEDEDE"/>
			</linearGradient>
			<path fill="url(#SVGID_4_)" d="M26.775,56.617c0,2.795-2.268,5.061-5.065,5.061c-2.796,0-5.062-2.266-5.062-5.061
				c0-2.801,2.267-5.064,5.062-5.064C24.508,51.553,26.775,53.816,26.775,56.617z"/>
			<linearGradient id="SVGID_5_" gradientUnits="userSpaceOnUse" x1="25.8589" y1="73.5791" x2="17.5626" y2="67.77">
				<stop  offset="0" style="stop-color:#9A9A9A"/>
				<stop  offset="1" style="stop-color:#DEDEDE"/>
			</linearGradient>
			<path fill="url(#SVGID_5_)" d="M26.775,70.676c0,2.797-2.268,5.061-5.065,5.061c-2.796,0-5.062-2.264-5.062-5.061
				c0-2.799,2.267-5.062,5.062-5.062C24.508,65.613,26.775,67.877,26.775,70.676z"/>
			<linearGradient id="SVGID_6_" gradientUnits="userSpaceOnUse" x1="25.8594" y1="87.6396" x2="17.5623" y2="81.8299">
				<stop  offset="0" style="stop-color:#9A9A9A"/>
				<stop  offset="1" style="stop-color:#DEDEDE"/>
			</linearGradient>
			<path fill="url(#SVGID_6_)" d="M26.775,84.736c0,2.797-2.268,5.06-5.065,5.06c-2.796,0-5.062-2.263-5.062-5.06
				c0-2.8,2.267-5.062,5.062-5.062C24.508,79.674,26.775,81.937,26.775,84.736z"/>
			<linearGradient id="SVGID_7_" gradientUnits="userSpaceOnUse" x1="25.8594" y1="101.7002" x2="17.5615" y2="95.8899">
				<stop  offset="0" style="stop-color:#9A9A9A"/>
				<stop  offset="1" style="stop-color:#DEDEDE"/>
			</linearGradient>
			<path fill="url(#SVGID_7_)" d="M26.775,98.794c0,2.8-2.268,5.063-5.065,5.063c-2.796,0-5.062-2.264-5.062-5.063
				c0-2.796,2.267-5.062,5.062-5.062C24.508,93.732,26.775,95.998,26.775,98.794z"/>
		</g>
		<linearGradient id="SVGID_8_" gradientUnits="userSpaceOnUse" x1="23.127" y1="33.375" x2="9.183" y2="23.6113">
			<stop  offset="0" style="stop-color:#FF1F00"/>
			<stop  offset="1" style="stop-color:#FF9D00"/>
		</linearGradient>
		<path fill="url(#SVGID_8_)" d="M25.77,28.493c0,1.94-1.573,3.516-3.514,3.516H10.057c-1.94,0-3.516-1.575-3.516-3.516l0,0
			c0-1.942,1.575-3.512,3.516-3.512h12.199C24.196,24.981,25.77,26.551,25.77,28.493L25.77,28.493z"/>
		<linearGradient id="SVGID_9_" gradientUnits="userSpaceOnUse" x1="23.1265" y1="47.4346" x2="9.1833" y2="37.6714">
			<stop  offset="0" style="stop-color:#FF1F00"/>
			<stop  offset="1" style="stop-color:#FF9D00"/>
		</linearGradient>
		<path fill="url(#SVGID_9_)" d="M25.77,42.553c0,1.94-1.573,3.517-3.514,3.517H10.057c-1.94,0-3.516-1.576-3.516-3.517l0,0
			c0-1.942,1.575-3.511,3.516-3.511h12.199C24.196,39.042,25.77,40.61,25.77,42.553L25.77,42.553z"/>
		<linearGradient id="SVGID_10_" gradientUnits="userSpaceOnUse" x1="23.1274" y1="61.4966" x2="9.1827" y2="51.7323">
			<stop  offset="0" style="stop-color:#FF1F00"/>
			<stop  offset="1" style="stop-color:#FF9D00"/>
		</linearGradient>
		<path fill="url(#SVGID_10_)" d="M25.77,56.615c0,1.939-1.573,3.516-3.514,3.516H10.057c-1.94,0-3.516-1.576-3.516-3.516l0,0
			c0-1.944,1.575-3.514,3.516-3.514h12.199C24.196,53.102,25.77,54.671,25.77,56.615L25.77,56.615z"/>
		<linearGradient id="SVGID_11_" gradientUnits="userSpaceOnUse" x1="23.1279" y1="75.5566" x2="9.1839" y2="65.793">
			<stop  offset="0" style="stop-color:#FF1F00"/>
			<stop  offset="1" style="stop-color:#FF9D00"/>
		</linearGradient>
		<path fill="url(#SVGID_11_)" d="M25.77,70.676c0,1.939-1.573,3.514-3.514,3.514H10.057c-1.94,0-3.516-1.574-3.516-3.514l0,0
			c0-1.943,1.575-3.514,3.516-3.514h12.199C24.196,67.162,25.77,68.732,25.77,70.676L25.77,70.676z"/>
		<linearGradient id="SVGID_12_" gradientUnits="userSpaceOnUse" x1="23.127" y1="89.6152" x2="9.183" y2="79.8516">
			<stop  offset="0" style="stop-color:#FF1F00"/>
			<stop  offset="1" style="stop-color:#FF9D00"/>
		</linearGradient>
		<path fill="url(#SVGID_12_)" d="M25.77,84.732c0,1.943-1.573,3.516-3.514,3.516H10.057c-1.94,0-3.516-1.572-3.516-3.516l0,0
			c0-1.939,1.575-3.513,3.516-3.513h12.199C24.196,81.22,25.77,82.793,25.77,84.732L25.77,84.732z"/>
		<linearGradient id="SVGID_13_" gradientUnits="userSpaceOnUse" x1="23.127" y1="103.6748" x2="9.1822" y2="93.9106">
			<stop  offset="0" style="stop-color:#FF1F00"/>
			<stop  offset="1" style="stop-color:#FF9D00"/>
		</linearGradient>
		<path fill="url(#SVGID_13_)" d="M25.77,98.793c0,1.943-1.573,3.516-3.514,3.516H10.057c-1.94,0-3.516-1.572-3.516-3.516l0,0
			c0-1.941,1.575-3.514,3.516-3.514h12.199C24.196,95.279,25.77,96.852,25.77,98.793L25.77,98.793z"/>
	</g>
	<g>
		<g>
			<g>
				
					<linearGradient id="SVGID_14_" gradientUnits="userSpaceOnUse" x1="-164.5366" y1="-657.4858" x2="-164.5366" y2="-706.0861" gradientTransform="matrix(1 0 0 -1 246.7271 -588.5762)">
					<stop  offset="0" style="stop-color:#5F5D5C"/>
					<stop  offset="1" style="stop-color:#181500"/>
				</linearGradient>
				<path fill="url(#SVGID_14_)" d="M101.298,69.559H63.085c-3.923,0-7.103,3.18-7.103,7.101v28.294c0,3.923,3.18,7.102,7.103,7.102
					h5.385c-0.091-0.275-0.14-0.569-0.14-0.878c0-1.562,1.267-2.828,2.83-2.828h2.516c1.562,0,2.83,1.269,2.83,2.828
					c0,0.308-0.05,0.603-0.14,0.878h11.649c-0.09-0.275-0.14-0.569-0.14-0.878c0-1.562,1.268-2.828,2.83-2.828h2.517
					c1.562,0,2.829,1.269,2.829,2.828c0,0.308-0.05,0.603-0.141,0.878h5.386c3.922,0,7.102-3.179,7.102-7.102V76.66
					C108.399,72.739,105.22,69.559,101.298,69.559z"/>
			</g>
			<g>
				<radialGradient id="SVGID_15_" cx="70.8203" cy="94.4082" r="11.7583" gradientUnits="userSpaceOnUse">
					<stop  offset="0" style="stop-color:#FAFAFA"/>
					<stop  offset="0.4142" style="stop-color:#E3E3E3"/>
					<stop  offset="1" style="stop-color:#C7C7C7"/>
				</radialGradient>
				<path fill="url(#SVGID_15_)" d="M59.065,94.407c0-6.496,5.263-11.762,11.755-11.762c6.49,0,11.754,5.266,11.754,11.762
					c0,6.497-5.264,11.764-11.754,11.764C64.328,106.171,59.065,100.904,59.065,94.407L59.065,94.407z"/>
				<linearGradient id="SVGID_16_" gradientUnits="userSpaceOnUse" x1="66.3652" y1="88.4268" x2="66.3652" y2="94.5566">
					<stop  offset="0" style="stop-color:#EC008C"/>
					<stop  offset="1" style="stop-color:#C40075"/>
				</linearGradient>
				<path fill="url(#SVGID_16_)" d="M63.303,91.492c0-1.692,1.371-3.065,3.062-3.065s3.062,1.373,3.062,3.065
					c0,1.693-1.371,3.064-3.062,3.064S63.303,93.186,63.303,91.492L63.303,91.492z"/>
				<path fill="#F2F2F2" d="M61.921,88.316c1.963-2.694,5.571-4.759,8.945-4.759c3.373,0,6.89,2.064,8.853,4.759h0.373
					c-2.08-3.172-5.456-5.247-9.271-5.247c-3.816,0-7.192,2.075-9.272,5.247H61.921z"/>
				<linearGradient id="SVGID_17_" gradientUnits="userSpaceOnUse" x1="61.5479" y1="101.2939" x2="80.0918" y2="101.2939">
					<stop  offset="0" style="stop-color:#EC008C"/>
					<stop  offset="1" style="stop-color:#C40075"/>
				</linearGradient>
				<path fill="url(#SVGID_17_)" d="M79.72,98.671c-1.964,2.695-5.572,4.759-8.946,4.759c-3.373,0-6.89-2.063-8.853-4.759h-0.373
					c2.08,3.172,5.456,5.246,9.271,5.246c3.816,0,7.193-2.074,9.272-5.246H79.72z"/>
			</g>
			<g>
				<g>
					
						<linearGradient id="SVGID_18_" gradientUnits="userSpaceOnUse" x1="-148.5693" y1="-694.2749" x2="-159.8879" y2="-686.3495" gradientTransform="matrix(1 0 0 -1 246.7271 -588.7695)">
						<stop  offset="0.0824" style="stop-color:#C2C2C2"/>
						<stop  offset="0.2635" style="stop-color:#D2D2D2"/>
						<stop  offset="0.5594" style="stop-color:#E6E6E6"/>
						<stop  offset="0.7582" style="stop-color:#EDEDED"/>
					</linearGradient>
					<polygon fill="url(#SVGID_18_)" points="84.734,100.586 100.264,100.586 100.264,102.498 84.734,102.498 					"/>
				</g>
				<g>
					
						<linearGradient id="SVGID_19_" gradientUnits="userSpaceOnUse" x1="-143.8271" y1="-691.4795" x2="-158.9543" y2="-680.8874" gradientTransform="matrix(1 0 0 -1 246.7271 -588.7695)">
						<stop  offset="0.0824" style="stop-color:#C2C2C2"/>
						<stop  offset="0.2635" style="stop-color:#D2D2D2"/>
						<stop  offset="0.5594" style="stop-color:#E6E6E6"/>
						<stop  offset="0.7582" style="stop-color:#EDEDED"/>
					</linearGradient>
					<polygon fill="url(#SVGID_19_)" points="84.734,96.459 105.939,96.459 105.939,98.371 84.734,98.371 					"/>
					
						<linearGradient id="SVGID_20_" gradientUnits="userSpaceOnUse" x1="-148.5698" y1="-686.02" x2="-159.8884" y2="-678.0947" gradientTransform="matrix(1 0 0 -1 246.7271 -588.7695)">
						<stop  offset="0.0824" style="stop-color:#C2C2C2"/>
						<stop  offset="0.2635" style="stop-color:#D2D2D2"/>
						<stop  offset="0.5594" style="stop-color:#E6E6E6"/>
						<stop  offset="0.7582" style="stop-color:#EDEDED"/>
					</linearGradient>
					<polygon fill="url(#SVGID_20_)" points="84.734,92.332 100.264,92.332 100.264,94.245 84.734,94.245 					"/>
				</g>
			</g>
			
				<linearGradient id="SVGID_21_" gradientUnits="userSpaceOnUse" x1="-164.4805" y1="-659.0571" x2="-164.4805" y2="-668.1177" gradientTransform="matrix(1 0 0 -1 246.7271 -588.7695)">
				<stop  offset="0" style="stop-color:#EC008C"/>
				<stop  offset="1" style="stop-color:#C4008C"/>
			</linearGradient>
			<path fill="url(#SVGID_21_)" d="M100.771,70.287H63.724c-3.804,0-6.887,3.084-6.887,6.884v2.177h50.819v-2.177
				C107.656,73.37,104.574,70.287,100.771,70.287z"/>
			<path opacity="0.8" fill="#EC8690" d="M64.242,71.83h36.125c3.128,0,5.747,2.142,6.494,5.034
				c-0.332-3.369-3.173-6.002-6.63-6.002H64.377c-3.458,0-6.299,2.633-6.631,6.002C58.492,73.972,61.113,71.83,64.242,71.83z"/>
		</g>
	</g>
</g>
</svg>
