<?xml version="1.0" encoding="utf-8"?>
<!-- Generator: Adobe Illustrator 13.0.0, SVG Export Plug-In . SVG Version: 6.00 Build 14948)  -->
<!DOCTYPE svg PUBLIC "-//W3C//DTD SVG 1.1//EN" "http://www.w3.org/Graphics/SVG/1.1/DTD/svg11.dtd">
<svg version="1.1" id="Layer_1" xmlns="http://www.w3.org/2000/svg" xmlns:xlink="http://www.w3.org/1999/xlink" x="0px" y="0px"
	 width="128px" height="128px" viewBox="0 0 128 128" enable-background="new 0 0 128 128" xml:space="preserve">
<g>
	<g>
		<g>
			
				<radialGradient id="SVGID_1_" cx="-242.4043" cy="87.834" r="53.1358" gradientTransform="matrix(1 0 0 -1 289.2754 151.834)" gradientUnits="userSpaceOnUse">
				<stop  offset="0" style="stop-color:#FAFAFA"/>
				<stop  offset="0.3109" style="stop-color:#F4F4F4"/>
				<stop  offset="0.7262" style="stop-color:#E3E3E3"/>
				<stop  offset="1" style="stop-color:#D4D4D4"/>
			</radialGradient>
			<path fill="url(#SVGID_1_)" stroke="#B3B3B3" stroke-width="2" d="M91.555,22.206v83.586c0,10.285-8.344,18.625-18.637,18.625
				H20.824c-10.295,0-18.637-8.34-18.637-18.625V22.206c0-10.285,8.342-18.623,18.637-18.623h52.094
				C83.211,3.583,91.555,11.921,91.555,22.206L91.555,22.206z"/>
			<path fill="#B3B3B3" d="M73.113,122.091H21.019c-10.295,0-18.637-8.34-18.637-18.625v2.326c0,10.285,8.342,18.625,18.637,18.625
				h52.095c10.293,0,18.637-8.34,18.637-18.625v-2.326C91.75,113.751,83.406,122.091,73.113,122.091z"/>
			<path fill="#FFFFFF" d="M13.354,11.569c2.079-1.734,4.432-2.906,7.665-2.906h52.095c3.233,0,5.586,1.172,7.665,2.906h2.63
				c-2.621-2.646-5.806-4.238-10.295-4.238H21.019c-4.489,0-7.673,1.592-10.294,4.238H13.354z"/>
		</g>
		<g>
			
				<linearGradient id="SVGID_2_" gradientUnits="userSpaceOnUse" x1="-509.6069" y1="1447.0469" x2="-520.4295" y2="1439.4688" gradientTransform="matrix(1 0 0 1 536.0024 -1405.7139)">
				<stop  offset="0" style="stop-color:#181500"/>
				<stop  offset="1" style="stop-color:#5F5D5C"/>
			</linearGradient>
			<path fill="url(#SVGID_2_)" d="M25.527,41.022c0,1.367-0.449,2.471-1.346,3.309c-0.838,0.793-1.902,1.189-3.197,1.189
				c-1.279,0-2.352-0.41-3.217-1.225c-0.869-0.816-1.301-1.908-1.301-3.273v-6.967c0-1.367,0.43-2.459,1.291-3.275
				c0.857-0.814,1.938-1.223,3.229-1.223c1.264,0,2.338,0.412,3.219,1.234c0.883,0.824,1.324,1.91,1.324,3.264L25.527,41.022
				L25.527,41.022z M23.279,40.956V34.12c0-0.766-0.203-1.381-0.607-1.854c-0.404-0.471-0.967-0.705-1.686-0.705
				c-0.707,0-1.26,0.229-1.666,0.682c-0.404,0.457-0.607,1.08-0.607,1.875v6.836c0,0.766,0.199,1.389,0.596,1.875
				c0.412,0.457,0.971,0.684,1.676,0.684s1.264-0.24,1.676-0.717C23.072,42.321,23.279,41.706,23.279,40.956z"/>
			
				<linearGradient id="SVGID_3_" gradientUnits="userSpaceOnUse" x1="-497.9824" y1="1446.3652" x2="-507.6826" y2="1439.573" gradientTransform="matrix(1 0 0 1 536.0024 -1405.7139)">
				<stop  offset="0" style="stop-color:#181500"/>
				<stop  offset="1" style="stop-color:#5F5D5C"/>
			</linearGradient>
			<path fill="url(#SVGID_3_)" d="M34.701,45.39h-2.25V32.138l-3.064,2.689v-2.494l3.07-2.639l2.244-0.006V45.39L34.701,45.39z"/>
			
				<linearGradient id="SVGID_4_" gradientUnits="userSpaceOnUse" x1="-472.6567" y1="1450.3438" x2="-485.1824" y2="1441.5732" gradientTransform="matrix(1 0 0 1 536.0024 -1405.7139)">
				<stop  offset="0" style="stop-color:#181500"/>
				<stop  offset="1" style="stop-color:#5F5D5C"/>
			</linearGradient>
			<path fill="url(#SVGID_4_)" d="M62.812,45.39h-2.535l-1.064-3.154h-6.209L51.92,45.39h-2.535l5.754-15.701h1.92L62.812,45.39z
				 M58.525,40.229l-2.369-6.975l-2.438,6.975H58.525z"/>
			
				<linearGradient id="SVGID_5_" gradientUnits="userSpaceOnUse" x1="-458.8936" y1="1448.1934" x2="-473.0039" y2="1438.3131" gradientTransform="matrix(1 0 0 1 536.0024 -1405.7139)">
				<stop  offset="0" style="stop-color:#181500"/>
				<stop  offset="1" style="stop-color:#5F5D5C"/>
			</linearGradient>
			<path fill="url(#SVGID_5_)" d="M75.07,45.39H65.037V29.688H75.07v2.139h-7.648v4.586h6.525v2.119h-6.525v4.719h7.648V45.39
				L75.07,45.39z"/>
			
				<linearGradient id="SVGID_6_" gradientUnits="userSpaceOnUse" x1="-507.7285" y1="1474.6914" x2="-521.2077" y2="1465.2532" gradientTransform="matrix(1 0 0 1 536.0024 -1405.7139)">
				<stop  offset="0" style="stop-color:#181500"/>
				<stop  offset="1" style="stop-color:#5F5D5C"/>
			</linearGradient>
			<path fill="url(#SVGID_6_)" d="M28.262,67.404c0,1.414-0.438,2.509-1.312,3.283c-0.875,0.773-2.018,1.158-3.43,1.158h-6.352
				V56.147h6.109c1.469,0,2.627,0.387,3.473,1.156c0.846,0.769,1.268,1.812,1.268,3.133c0,0.775-0.221,1.488-0.66,2.129
				c-0.398,0.549-0.883,0.943-1.457,1.189C27.475,64.374,28.262,65.594,28.262,67.404z M25.639,60.524
				c0-0.715-0.236-1.264-0.707-1.645c-0.441-0.395-1.059-0.592-1.854-0.592h-3.525v4.475h3.525c0.795,0,1.418-0.191,1.875-0.578
				C25.41,61.794,25.639,61.243,25.639,60.524z M25.879,67.296c0-0.709-0.225-1.284-0.672-1.729
				c-0.447-0.439-1.084-0.662-1.906-0.662h-3.748v4.807h3.748c0.777,0,1.41-0.221,1.895-0.664
				C25.652,68.589,25.879,68.005,25.879,67.296z"/>
			
				<linearGradient id="SVGID_7_" gradientUnits="userSpaceOnUse" x1="-493.4912" y1="1474.5645" x2="-506.6536" y2="1465.3479" gradientTransform="matrix(1 0 0 1 536.0024 -1405.7139)">
				<stop  offset="0" style="stop-color:#181500"/>
				<stop  offset="1" style="stop-color:#5F5D5C"/>
			</linearGradient>
			<path fill="url(#SVGID_7_)" d="M42.947,63.89c0,1.689-0.053,2.842-0.154,3.461c-0.191,1.25-0.67,2.254-1.432,3.02
				c-0.486,0.484-1.062,0.855-1.73,1.105c-0.67,0.248-1.445,0.371-2.326,0.371h-5.514V56.147h5.514c1.719,0,3.07,0.496,4.057,1.479
				c0.734,0.736,1.211,1.707,1.432,2.91c0.043,0.311,0.08,0.738,0.109,1.291C42.934,62.378,42.947,63.063,42.947,63.89z
				 M40.566,63.911v-0.463v-0.373v-0.309V62.5c0-0.625-0.037-1.066-0.111-1.332c-0.102-0.781-0.344-1.389-0.727-1.816
				c-0.617-0.707-1.506-1.062-2.668-1.062h-2.889v11.418h2.889c1.131,0,2.02-0.354,2.668-1.056c0.354-0.395,0.596-1.028,0.727-1.907
				C40.529,66.13,40.566,65.186,40.566,63.911z"/>
			
				<linearGradient id="SVGID_8_" gradientUnits="userSpaceOnUse" x1="-469.7188" y1="1473.5059" x2="-480.5421" y2="1465.9272" gradientTransform="matrix(1 0 0 1 536.0024 -1405.7139)">
				<stop  offset="0" style="stop-color:#181500"/>
				<stop  offset="1" style="stop-color:#5F5D5C"/>
			</linearGradient>
			<path fill="url(#SVGID_8_)" d="M65.414,67.48c0,1.369-0.449,2.474-1.344,3.308c-0.838,0.797-1.904,1.19-3.197,1.19
				c-1.279,0-2.352-0.408-3.219-1.225c-0.869-0.812-1.303-1.904-1.303-3.273v-6.966c0-1.367,0.43-2.459,1.291-3.275
				c0.859-0.814,1.938-1.225,3.23-1.225c1.264,0,2.338,0.414,3.219,1.234c0.884,0.824,1.322,1.912,1.322,3.266L65.414,67.48
				L65.414,67.48z M63.166,67.417v-6.836c0-0.768-0.199-1.381-0.605-1.852c-0.404-0.471-0.967-0.707-1.686-0.707
				c-0.707,0-1.262,0.229-1.666,0.684c-0.402,0.455-0.605,1.082-0.605,1.875v6.836c0,0.767,0.197,1.39,0.594,1.875
				c0.414,0.455,0.973,0.683,1.678,0.683s1.266-0.238,1.678-0.718C62.961,68.779,63.166,68.167,63.166,67.417z"/>
			
				<linearGradient id="SVGID_9_" gradientUnits="userSpaceOnUse" x1="-459.8589" y1="1472.4062" x2="-468.9088" y2="1466.0695" gradientTransform="matrix(1 0 0 1 536.0024 -1405.7139)">
				<stop  offset="0" style="stop-color:#181500"/>
				<stop  offset="1" style="stop-color:#5F5D5C"/>
			</linearGradient>
			<path fill="url(#SVGID_9_)" d="M77.277,60.712c0,1-0.392,2.287-1.168,3.86l-3.574,7.273l-2.385,0.008l3.365-6.75
				c-0.398,0.162-0.869,0.242-1.414,0.242c-1.134,0-2.104-0.424-2.904-1.268c-0.803-0.85-1.203-1.938-1.203-3.275
				c0-1.439,0.428-2.598,1.291-3.471c0.861-0.875,1.977-1.312,3.342-1.312c1.367,0,2.482,0.422,3.352,1.268
				C76.844,58.13,77.277,59.272,77.277,60.712z M75.027,60.759c0-0.811-0.226-1.467-0.674-1.975
				c-0.449-0.506-1.025-0.762-1.73-0.762s-1.279,0.248-1.721,0.74c-0.443,0.492-0.662,1.158-0.662,1.996
				c0,0.795,0.213,1.443,0.639,1.951c0.426,0.504,1.008,0.76,1.74,0.76c0.691,0,1.271-0.242,1.744-0.727
				C74.807,62.257,75.027,61.597,75.027,60.759z"/>
			
				<linearGradient id="SVGID_10_" gradientUnits="userSpaceOnUse" x1="-511.2324" y1="1498.0938" x2="-521.3679" y2="1490.9969" gradientTransform="matrix(1 0 0 1 536.0024 -1405.7139)">
				<stop  offset="0" style="stop-color:#181500"/>
				<stop  offset="1" style="stop-color:#5F5D5C"/>
			</linearGradient>
			<path fill="url(#SVGID_10_)" d="M25.863,84.618l-5.246,13.692l-2.432-0.004l5.27-13.691l-4.785-0.002v2.472h-2.16v-4.479h9.348
				L25.863,84.618z"/>
			
				<linearGradient id="SVGID_11_" gradientUnits="userSpaceOnUse" x1="-497.856" y1="1499.9688" x2="-508.6769" y2="1492.3918" gradientTransform="matrix(1 0 0 1 536.0024 -1405.7139)">
				<stop  offset="0" style="stop-color:#181500"/>
				<stop  offset="1" style="stop-color:#5F5D5C"/>
			</linearGradient>
			<path fill="url(#SVGID_11_)" d="M37.281,93.943c0,1.365-0.451,2.47-1.346,3.308c-0.838,0.795-1.904,1.188-3.197,1.188
				c-1.279,0-2.354-0.406-3.219-1.219c-0.869-0.816-1.301-1.91-1.301-3.275v-6.969c0-1.365,0.43-2.459,1.291-3.273
				c0.859-0.816,1.938-1.225,3.23-1.225c1.264,0,2.336,0.414,3.217,1.231c0.881,0.821,1.324,1.912,1.324,3.267v6.967H37.281z
				 M35.031,93.878V87.04c0-0.767-0.201-1.379-0.605-1.853c-0.406-0.469-0.969-0.709-1.688-0.709c-0.705,0-1.26,0.23-1.666,0.688
				c-0.404,0.455-0.605,1.076-0.605,1.869v6.84c0,0.767,0.197,1.388,0.594,1.875c0.414,0.455,0.973,0.681,1.678,0.681
				c0.705,0,1.264-0.238,1.676-0.718C34.824,95.24,35.031,94.626,35.031,93.878z"/>
			
				<linearGradient id="SVGID_12_" gradientUnits="userSpaceOnUse" x1="-476.5464" y1="1498.3994" x2="-486.7834" y2="1491.2314" gradientTransform="matrix(1 0 0 1 536.0024 -1405.7139)">
				<stop  offset="0" style="stop-color:#181500"/>
				<stop  offset="1" style="stop-color:#5F5D5C"/>
			</linearGradient>
			<path fill="url(#SVGID_12_)" d="M61.289,84.749h-7.648v4.782h6.525v2.14h-6.525v6.638h-2.383V82.605h10.031V84.749L61.289,84.749
				z"/>
			
				<linearGradient id="SVGID_13_" gradientUnits="userSpaceOnUse" x1="-460.999" y1="1500.2031" x2="-472.5593" y2="1492.1088" gradientTransform="matrix(1 0 0 1 536.0024 -1405.7139)">
				<stop  offset="0" style="stop-color:#181500"/>
				<stop  offset="1" style="stop-color:#5F5D5C"/>
			</linearGradient>
			<path fill="url(#SVGID_13_)" d="M74.828,93.613c-0.264,1.515-0.898,2.695-1.906,3.55c-1.008,0.853-2.236,1.274-3.693,1.274
				c-1.631,0-3.004-0.555-4.123-1.672c-0.69-0.707-1.139-1.574-1.343-2.604c-0.117-0.677-0.178-1.908-0.178-3.703
				c0-1.881,0.061-3.114,0.178-3.703c0.176-1.017,0.625-1.883,1.343-2.604c1.117-1.115,2.492-1.674,4.123-1.674
				c1.457,0,2.683,0.414,3.672,1.246c0.992,0.83,1.638,2.024,1.931,3.584h-2.427c-0.426-1.795-1.483-2.691-3.176-2.691
				c-0.955,0-1.727,0.316-2.313,0.947c-0.455,0.502-0.75,1.278-0.883,2.336c-0.044,0.354-0.064,1.207-0.064,2.561
				c0,1.311,0.021,2.162,0.064,2.561c0.116,1.043,0.411,1.82,0.883,2.336c0.588,0.635,1.358,0.949,2.313,0.949
				c1.689,0,2.758-0.896,3.199-2.689h2.4V93.613z"/>
		</g>
	</g>
	<g>
		
			<linearGradient id="SVGID_14_" gradientUnits="userSpaceOnUse" x1="-9709.0557" y1="-2381.4219" x2="-9709.0557" y2="-2337.8054" gradientTransform="matrix(0.3308 -0.346 0.3461 0.3305 4120.1689 -2519.4761)">
			<stop  offset="0" style="stop-color:#FFD207"/>
			<stop  offset="1" style="stop-color:#FAA61A"/>
		</linearGradient>
		<path fill="url(#SVGID_14_)" d="M101.1,33.854L64.795,71.822c0.346,0.334,1.395,1.476,1.693,3.117
			c1.768-0.145,3.744,0.461,4.221,0.906c1.699,1.629,1.16,4.383,1.16,4.383s3.131-0.365,4.65,1.24
			c0.401,0.422,0.977,1.951,1.223,3.609c1.283-0.029,2.588,1.518,2.875,1.885l36.314-37.984c0.637-0.664,0.614-1.721-0.052-2.355
			c0,0-1.491-3.256-6.17-7.723c-4.678-4.463-7.26-5.1-7.26-5.1C102.787,33.165,101.734,33.188,101.1,33.854z"/>
		
			<linearGradient id="SVGID_15_" gradientUnits="userSpaceOnUse" x1="-9634.6064" y1="-2360.1323" x2="-9634.2988" y2="-2377.0251" gradientTransform="matrix(0.3308 -0.346 0.3461 0.3305 4120.1689 -2519.4761)">
			<stop  offset="0" style="stop-color:#F66B87"/>
			<stop  offset="1" style="stop-color:#FCD0D9"/>
		</linearGradient>
		<path fill="url(#SVGID_15_)" d="M110.951,23.546l-7.85,8.211c0.17,0.17,4.899,3.045,8.789,6.756
			c3.86,3.686,6.887,8.203,7.03,8.385l7.865-8.227c2.034-2.127-1.138-6.039-5.815-10.504
			C116.295,23.7,112.578,21.845,110.951,23.546z"/>
		
			<linearGradient id="SVGID_16_" gradientUnits="userSpaceOnUse" x1="-9774.6748" y1="-2374.9146" x2="-9770.9844" y2="-2358.9241" gradientTransform="matrix(0.3308 -0.346 0.3461 0.3305 4120.1689 -2519.4761)">
			<stop  offset="0" style="stop-color:#FAEDB0"/>
			<stop  offset="1" style="stop-color:#FFC76E"/>
		</linearGradient>
		<path fill="url(#SVGID_16_)" d="M80.678,87.04c0,0-0.023-0.026-0.061-0.076l-0.127,0.132L80.678,87.04z"/>
		
			<linearGradient id="SVGID_17_" gradientUnits="userSpaceOnUse" x1="-9764.6191" y1="-2377.1284" x2="-9760.9033" y2="-2361.0273" gradientTransform="matrix(0.3308 -0.346 0.3461 0.3305 4120.1689 -2519.4761)">
			<stop  offset="0" style="stop-color:#FAEDB0"/>
			<stop  offset="1" style="stop-color:#FFC76E"/>
		</linearGradient>
		<path fill="url(#SVGID_17_)" d="M64.686,71.714l-0.069,0.3l0.178-0.189C64.729,71.751,64.686,71.714,64.686,71.714z"/>
		<path fill="#F6921E" d="M77.742,85.079c-0.246-1.658-0.82-3.19-1.223-3.608c-1.521-1.605-4.648-1.242-4.648-1.242
			s0.539-2.752-1.162-4.381c-0.477-0.447-2.449-1.052-4.219-0.906c-0.297-1.642-1.35-2.783-1.693-3.119l-0.18,0.189l-0.75,3.043
			c0.023,0.026,0.041,0.057,0.062,0.077L77.357,87.96c0.014,0.015,0.028,0.019,0.045,0.028l3.088-0.899l0.129-0.129
			C80.33,86.598,79.027,85.048,77.742,85.079z"/>
		
			<linearGradient id="SVGID_18_" gradientUnits="userSpaceOnUse" x1="-9778.5439" y1="-2373.4839" x2="-9776.5723" y2="-2359.6851" gradientTransform="matrix(0.3308 -0.346 0.3461 0.3305 4120.1689 -2519.4761)">
			<stop  offset="0" style="stop-color:#FAEDB0"/>
			<stop  offset="1" style="stop-color:#FFC76E"/>
		</linearGradient>
		<path fill="url(#SVGID_18_)" d="M71.869,80.229c0,0,0.539-2.754-1.16-4.383c-0.477-0.445-2.453-1.051-4.221-0.906
			c-0.299-1.641-1.348-2.783-1.693-3.117l-0.18,0.189l-0.748,3.043l-1.828,7.414l-0.527,2.135l3.207,3.072l3.205,3.064l2.113-0.611
			l7.363-2.143l3.09-0.9l0.129-0.131c-0.289-0.365-1.592-1.916-2.879-1.885c-0.244-1.656-0.82-3.186-1.223-3.607
			C75,79.863,71.869,80.229,71.869,80.229z"/>
		
			<linearGradient id="SVGID_19_" gradientUnits="userSpaceOnUse" x1="-9796.8994" y1="-2361.7524" x2="-9799.3555" y2="-2370.0417" gradientTransform="matrix(0.3308 -0.346 0.3461 0.3305 4120.1689 -2519.4761)">
			<stop  offset="0" style="stop-color:#231F20"/>
			<stop  offset="1" style="stop-color:#FFFFFF"/>
		</linearGradient>
		<polygon fill="url(#SVGID_19_)" points="61.52,84.622 59.416,93.238 67.928,90.749 67.924,90.743 64.719,87.682 		"/>
		
			<linearGradient id="SVGID_20_" gradientUnits="userSpaceOnUse" x1="-8635.249" y1="4082.2539" x2="-8647.5537" y2="4071.8269" gradientTransform="matrix(0.4786 -0.011 0.0108 0.4784 4201.0693 -2004.1335)">
			<stop  offset="0" style="stop-color:#808080"/>
			<stop  offset="1" style="stop-color:#F2F2F2"/>
		</linearGradient>
		<path fill="url(#SVGID_20_)" d="M103.166,31.62l-4.357,4.625c0.178,0.166,4.412,2.709,8.306,6.422
			c3.856,3.684,7.37,8.545,7.526,8.711l4.361-4.631c0.293-0.309-2.662-4.447-7.338-8.916
			C106.99,33.366,103.457,31.312,103.166,31.62z"/>
		<g opacity="0.6">
			<path fill="#FFF8A2" d="M112.305,24.577l-45.141,47.28c0.219,0.42,0.412,0.912,0.514,1.463c0.736-0.057,1.502,0.023,2.176,0.164
				l45.256-47.399C112.967,24.235,112.248,24.54,112.305,24.577z"/>
		</g>
		
			<linearGradient id="SVGID_21_" gradientUnits="userSpaceOnUse" x1="-2633.5947" y1="371.5723" x2="-2633.5947" y2="371.5723" gradientTransform="matrix(0.9576 -0.2881 -0.2881 -0.9576 2695.2817 -331.133)">
			<stop  offset="0" style="stop-color:#DEDEDE"/>
			<stop  offset="1" style="stop-color:#FEFEFE"/>
		</linearGradient>
		<path fill="url(#SVGID_21_)" stroke="#181512" stroke-width="1.0006" stroke-miterlimit="3.8637" d="M66.301,71.788"/>
		<g opacity="0.6">
			<path fill="#FFF8A2" d="M67.154,76.458l-0.008-0.004c-0.566-0.084-1.166-0.123-1.748-0.074c-0.104-0.567-0.301-1.071-0.523-1.506
				l-0.09-0.062L60.23,91.719L67.154,76.458z"/>
		</g>
	</g>
</g>
</svg>
