<?xml version="1.0" encoding="utf-8"?>
<!-- Generator: Adobe Illustrator 13.0.0, SVG Export Plug-In . SVG Version: 6.00 Build 14948)  -->
<!DOCTYPE svg PUBLIC "-//W3C//DTD SVG 1.1//EN" "http://www.w3.org/Graphics/SVG/1.1/DTD/svg11.dtd">
<svg version="1.1" id="Layer_1" xmlns="http://www.w3.org/2000/svg" xmlns:xlink="http://www.w3.org/1999/xlink" x="0px" y="0px"
	 width="128px" height="128px" viewBox="0 0 128 128" enable-background="new 0 0 128 128" xml:space="preserve">
<g>
	<g>
		<path fill="#F2F2F2" d="M5.99,67.436c1.278-0.795,2.783-1.258,4.397-1.258H64.58c1.596,0,3.087,0.452,4.356,1.229l0.642-0.58
			c-1.442-0.938-3.154-1.488-4.998-1.488H10.387c-1.838,0-3.544,0.547-4.98,1.478L5.99,67.436z"/>
		<radialGradient id="SVGID_1_" cx="37.4292" cy="90.626" r="31.4114" gradientUnits="userSpaceOnUse">
			<stop  offset="0" style="stop-color:#FAFAFA"/>
			<stop  offset="0.3629" style="stop-color:#E5E5E5"/>
			<stop  offset="1" style="stop-color:#C4C4C4"/>
		</radialGradient>
		<path fill="url(#SVGID_1_)" stroke="#808080" d="M30.125,112.878L4.579,75.105c-3.951-6.523-2.24-11.863,3.801-11.863h58.358
			c6.04,0,7.487,4.99,3.216,11.086l-24.879,39.325C40.803,119.752,34.076,119.402,30.125,112.878L30.125,112.878z"/>
		<radialGradient id="SVGID_2_" cx="38.1099" cy="34.3667" r="24.3657" gradientUnits="userSpaceOnUse">
			<stop  offset="0" style="stop-color:#FAFAFA"/>
			<stop  offset="0.4142" style="stop-color:#E3E3E3"/>
			<stop  offset="1" style="stop-color:#C7C7C7"/>
		</radialGradient>
		<path fill="url(#SVGID_2_)" stroke="#808080" d="M13.752,34.368c0-13.463,10.905-24.375,24.358-24.375
			c13.451,0,24.356,10.912,24.356,24.375c0,13.461-10.905,24.373-24.356,24.373C24.658,58.741,13.752,47.829,13.752,34.368
			L13.752,34.368z"/>
		<linearGradient id="SVGID_3_" gradientUnits="userSpaceOnUse" x1="49.1118" y1="21.9741" x2="49.1118" y2="34.6763">
			<stop  offset="0" style="stop-color:#80C11B"/>
			<stop  offset="1" style="stop-color:#80E21B"/>
		</linearGradient>
		<path fill="url(#SVGID_3_)" d="M42.765,28.325c0-3.507,2.841-6.351,6.348-6.351c3.504,0,6.346,2.844,6.346,6.351
			c0,3.51-2.842,6.352-6.346,6.352C45.606,34.676,42.765,31.834,42.765,28.325L42.765,28.325z"/>
		<path fill="#70993E" d="M49.104,28.176c1.748,1.46,4.112,0.658,5.585-0.105c-0.218-2.938-2.667-5.256-5.659-5.256
			c-3.005,0-5.463,2.336-5.66,5.291C44.731,27.438,47.223,26.602,49.104,28.176z"/>
		<path fill="#F2F2F2" d="M20.424,21.745c4.067-5.584,11.546-9.862,18.537-9.862c6.99,0,14.277,4.278,18.344,9.862h0.773
			c-4.311-6.572-11.307-10.873-19.213-10.873c-7.908,0-14.905,4.301-19.215,10.873H20.424z"/>
		<linearGradient id="SVGID_4_" gradientUnits="userSpaceOnUse" x1="38.2407" y1="54.0708" x2="38.2407" y2="43.2007">
			<stop  offset="0" style="stop-color:#00B2DE"/>
			<stop  offset="1" style="stop-color:#99DBF6"/>
		</linearGradient>
		<path fill="url(#SVGID_4_)" d="M56.683,43.201c-4.068,5.584-11.547,9.86-18.538,9.86c-6.99,0-14.276-4.276-18.345-9.86h-0.773
			c4.312,6.572,11.307,10.87,19.214,10.87c7.908,0,14.904-4.298,19.214-10.87H56.683z"/>
		<g>
			<radialGradient id="SVGID_5_" cx="90.5703" cy="90.624" r="31.4115" gradientUnits="userSpaceOnUse">
				<stop  offset="0" style="stop-color:#FAFAFA"/>
				<stop  offset="0.3629" style="stop-color:#E5E5E5"/>
				<stop  offset="1" style="stop-color:#C4C4C4"/>
			</radialGradient>
			<path fill="url(#SVGID_5_)" stroke="#808080" d="M97.874,68.371l25.547,37.774c3.95,6.524,2.24,11.862-3.802,11.862H61.262
				c-6.039,0-7.488-4.989-3.217-11.088l24.879-39.323C87.196,61.498,93.923,61.847,97.874,68.371L97.874,68.371z"/>
			<radialGradient id="SVGID_6_" cx="90.5684" cy="34.3667" r="24.3657" gradientUnits="userSpaceOnUse">
				<stop  offset="0" style="stop-color:#FAFAFA"/>
				<stop  offset="0.4142" style="stop-color:#E3E3E3"/>
				<stop  offset="1" style="stop-color:#C7C7C7"/>
			</radialGradient>
			<path fill="url(#SVGID_6_)" stroke="#808080" d="M66.211,34.368c0-13.463,10.906-24.375,24.357-24.375
				s24.357,10.912,24.357,24.375c0,13.461-10.906,24.373-24.357,24.373S66.211,47.829,66.211,34.368L66.211,34.368z"/>
			<linearGradient id="SVGID_7_" gradientUnits="userSpaceOnUse" x1="81.3379" y1="21.9741" x2="81.3379" y2="34.6763">
				<stop  offset="0" style="stop-color:#EC008C"/>
				<stop  offset="1" style="stop-color:#C40075"/>
			</linearGradient>
			<path fill="url(#SVGID_7_)" d="M74.99,28.325c0-3.507,2.843-6.351,6.348-6.351s6.347,2.844,6.347,6.351
				c0,3.51-2.842,6.352-6.347,6.352S74.99,31.834,74.99,28.325L74.99,28.325z"/>
			<path fill="#EC8690" d="M81.132,28.176c1.749,1.46,4.112,0.658,5.585-0.105c-0.218-2.938-2.667-5.256-5.658-5.256
				c-3.006,0-5.463,2.336-5.661,5.291C76.76,27.438,79.252,26.602,81.132,28.176z"/>
			<path fill="#F2F2F2" d="M72.127,21.745c4.068-5.584,11.547-9.862,18.537-9.862s14.277,4.278,18.345,9.862h0.773
				c-4.311-6.572-11.307-10.873-19.213-10.873c-7.908,0-14.904,4.301-19.215,10.873H72.127z"/>
			<linearGradient id="SVGID_8_" gradientUnits="userSpaceOnUse" x1="71.3545" y1="48.6357" x2="109.7822" y2="48.6357">
				<stop  offset="0" style="stop-color:#EC008C"/>
				<stop  offset="1" style="stop-color:#C40075"/>
			</linearGradient>
			<path fill="url(#SVGID_8_)" d="M109.01,43.201c-4.068,5.584-11.546,9.86-18.537,9.86s-14.277-4.276-18.345-9.86h-0.773
				c4.311,6.572,11.307,10.87,19.213,10.87c7.908,0,14.905-4.298,19.215-10.87H109.01z"/>
			<path opacity="0.5" fill="#FFFFFF" d="M70.389,113.976c0-18.52,14.197-33.716,32.303-35.315l-5.461-8.074
				c-3.691-6.095-9.978-6.422-13.969-0.722l-23.246,36.742c-3.991,5.696-2.639,10.359,3.006,10.359h7.5
				C70.439,115.978,70.389,114.984,70.389,113.976z"/>
		</g>
		<path fill="#BFBFBF" d="M69.219,69.728c-0.02,1.278-0.377,2.567-1.119,3.722L43.243,112.19c-0.73,1.141-1.738,1.999-2.877,2.55
			l0.121,0.727c1.33-0.601,2.51-1.573,3.355-2.891L68.7,73.835c0.842-1.312,1.233-2.785,1.229-4.239L69.219,69.728z"/>
		<path opacity="0.5" fill="#FFFFFF" d="M10.822,82.086c7.245-5.72,16.386-9.143,26.332-9.143c9.8,0,18.815,3.322,26.007,8.889
			l4.378-6.917c3.99-5.697,2.636-10.356-3.006-10.356H10.014c-5.645,0-7.242,4.986-3.551,11.08L10.822,82.086z"/>
	</g>
	<g>
		<g>
			<g>
				
					<linearGradient id="SVGID_9_" gradientUnits="userSpaceOnUse" x1="-182.7275" y1="-660.9155" x2="-182.7275" y2="-696.5761" gradientTransform="matrix(1 0 0 -1 246.7271 -588.5762)">
					<stop  offset="0" style="stop-color:#5F5D5C"/>
					<stop  offset="1" style="stop-color:#181500"/>
				</linearGradient>
				<path fill="url(#SVGID_9_)" d="M78.019,72.815H49.981c-2.879,0-5.212,2.333-5.212,5.21v20.761c0,2.879,2.333,5.211,5.212,5.211
					h3.95c-0.066-0.202-0.102-0.418-0.102-0.644c0-1.146,0.929-2.076,2.076-2.076h1.846c1.146,0,2.076,0.932,2.076,2.076
					c0,0.225-0.036,0.441-0.102,0.644h8.546c-0.065-0.202-0.102-0.418-0.102-0.644c0-1.146,0.93-2.076,2.076-2.076h1.847
					c1.146,0,2.076,0.932,2.076,2.076c0,0.225-0.037,0.441-0.104,0.644h3.952c2.877,0,5.211-2.332,5.211-5.211v-20.76
					C83.229,75.149,80.896,72.815,78.019,72.815z"/>
			</g>
			<g>
				<radialGradient id="SVGID_10_" cx="55.6558" cy="91.0488" r="8.6279" gradientUnits="userSpaceOnUse">
					<stop  offset="0" style="stop-color:#FAFAFA"/>
					<stop  offset="0.4142" style="stop-color:#E3E3E3"/>
					<stop  offset="1" style="stop-color:#C7C7C7"/>
				</radialGradient>
				<path fill="url(#SVGID_10_)" d="M47.031,91.049c0-4.768,3.862-8.631,8.626-8.631c4.762,0,8.624,3.863,8.624,8.631
					c0,4.767-3.862,8.631-8.624,8.631C50.893,99.68,47.031,95.815,47.031,91.049L47.031,91.049z"/>
				<linearGradient id="SVGID_11_" gradientUnits="userSpaceOnUse" x1="52.3872" y1="86.6602" x2="52.3872" y2="91.1582">
					<stop  offset="0" style="stop-color:#FFD207"/>
					<stop  offset="1" style="stop-color:#FAA61A"/>
				</linearGradient>
				<path fill="url(#SVGID_11_)" d="M50.14,88.909c0-1.241,1.006-2.249,2.247-2.249s2.247,1.008,2.247,2.249
					c0,1.243-1.006,2.249-2.247,2.249S50.14,90.152,50.14,88.909L50.14,88.909z"/>
				<path fill="#F2F2F2" d="M49.126,86.579c1.44-1.978,4.088-3.491,6.563-3.491s5.056,1.514,6.496,3.491h0.273
					c-1.526-2.327-4.003-3.851-6.803-3.851c-2.801,0-5.278,1.523-6.804,3.851H49.126z"/>
				<linearGradient id="SVGID_12_" gradientUnits="userSpaceOnUse" x1="48.853" y1="96.1016" x2="62.4595" y2="96.1016">
					<stop  offset="0" style="stop-color:#FFD207"/>
					<stop  offset="1" style="stop-color:#FAA61A"/>
				</linearGradient>
				<path fill="url(#SVGID_12_)" d="M62.187,94.177c-1.441,1.978-4.09,3.491-6.564,3.491c-2.476,0-5.056-1.514-6.496-3.491h-0.273
					c1.525,2.327,4.003,3.85,6.803,3.85c2.801,0,5.278-1.522,6.804-3.85H62.187z"/>
			</g>
			<g>
				<g>
					
						<linearGradient id="SVGID_13_" gradientUnits="userSpaceOnUse" x1="-171.0127" y1="-687.9604" x2="-179.3178" y2="-682.1451" gradientTransform="matrix(1 0 0 -1 246.7271 -588.7695)">
						<stop  offset="0.0824" style="stop-color:#C2C2C2"/>
						<stop  offset="0.2635" style="stop-color:#D2D2D2"/>
						<stop  offset="0.5594" style="stop-color:#E6E6E6"/>
						<stop  offset="0.7582" style="stop-color:#EDEDED"/>
					</linearGradient>
					<polygon fill="url(#SVGID_13_)" points="65.865,95.582 77.26,95.582 77.26,96.984 65.865,96.984 					"/>
				</g>
				<g>
					
						<linearGradient id="SVGID_14_" gradientUnits="userSpaceOnUse" x1="-167.5332" y1="-685.9102" x2="-178.6334" y2="-678.1378" gradientTransform="matrix(1 0 0 -1 246.7271 -588.7695)">
						<stop  offset="0.0824" style="stop-color:#C2C2C2"/>
						<stop  offset="0.2635" style="stop-color:#D2D2D2"/>
						<stop  offset="0.5594" style="stop-color:#E6E6E6"/>
						<stop  offset="0.7582" style="stop-color:#EDEDED"/>
					</linearGradient>
					<polygon fill="url(#SVGID_14_)" points="65.865,92.554 81.425,92.554 81.425,93.957 65.865,93.957 					"/>
					
						<linearGradient id="SVGID_15_" gradientUnits="userSpaceOnUse" x1="-171.0117" y1="-681.9043" x2="-179.3184" y2="-676.0879" gradientTransform="matrix(1 0 0 -1 246.7271 -588.7695)">
						<stop  offset="0.0824" style="stop-color:#C2C2C2"/>
						<stop  offset="0.2635" style="stop-color:#D2D2D2"/>
						<stop  offset="0.5594" style="stop-color:#E6E6E6"/>
						<stop  offset="0.7582" style="stop-color:#EDEDED"/>
					</linearGradient>
					<polygon fill="url(#SVGID_15_)" points="65.865,89.525 77.26,89.525 77.26,90.93 65.865,90.93 					"/>
				</g>
			</g>
			
				<linearGradient id="SVGID_16_" gradientUnits="userSpaceOnUse" x1="-182.6865" y1="-662.1196" x2="-182.6865" y2="-668.7681" gradientTransform="matrix(1 0 0 -1 246.7271 -588.7695)">
				<stop  offset="0" style="stop-color:#FFD207"/>
				<stop  offset="1" style="stop-color:#FAA61A"/>
			</linearGradient>
			<path fill="url(#SVGID_16_)" d="M77.633,73.35H50.449c-2.791,0-5.053,2.264-5.053,5.052v1.597h37.289v-1.597
				C82.685,75.612,80.423,73.35,77.633,73.35z"/>
			<path opacity="0.8" fill="#EC8690" d="M50.83,74.482h26.506c2.295,0,4.217,1.571,4.765,3.693
				c-0.243-2.472-2.328-4.404-4.864-4.404H50.929c-2.538,0-4.622,1.933-4.866,4.404C46.611,76.054,48.534,74.482,50.83,74.482z"/>
		</g>
	</g>
</g>
</svg>
