<?xml version="1.0" encoding="utf-8"?>
<!-- Generator: Adobe Illustrator 13.0.0, SVG Export Plug-In . SVG Version: 6.00 Build 14948)  -->
<!DOCTYPE svg PUBLIC "-//W3C//DTD SVG 1.1//EN" "http://www.w3.org/Graphics/SVG/1.1/DTD/svg11.dtd">
<svg version="1.1" id="Layer_1" xmlns="http://www.w3.org/2000/svg" xmlns:xlink="http://www.w3.org/1999/xlink" x="0px" y="0px"
	 width="128px" height="128px" viewBox="0 0 128 128" enable-background="new 0 0 128 128" xml:space="preserve">
<g>
	
		<linearGradient id="SVGID_1_" gradientUnits="userSpaceOnUse" x1="-252.6387" y1="319.7051" x2="-249.6255" y2="319.7051" gradientTransform="matrix(6.4039 -3.2678 -3.2678 -6.4039 2671.1284 1240.5121)">
		<stop  offset="0" style="stop-color:#FFD207"/>
		<stop  offset="1" style="stop-color:#FAA61A"/>
	</linearGradient>
	<path fill="url(#SVGID_1_)" d="M13.611,7.41c-5.317,2.713-7.431,9.242-4.72,14.555c0.768,1.504,1.831,2.75,3.091,3.708
		c1.305-2.441,3.139-4.894,5.636-7.309c2.318-2.24,4.676-3.916,7.024-5.114c1.14-0.581,2.272-1.046,3.401-1.416
		C25.243,6.726,18.854,4.734,13.611,7.41"/>
	
		<linearGradient id="SVGID_2_" gradientUnits="userSpaceOnUse" x1="28.2363" y1="78.4678" x2="129.6465" y2="78.4678" gradientTransform="matrix(0.8907 -0.4545 0.4545 0.8907 -29.7291 45.501)">
		<stop  offset="0" style="stop-color:#F39600"/>
		<stop  offset="1" style="stop-color:#FFBF00"/>
	</linearGradient>
	<path fill="url(#SVGID_2_)" d="M116.152,46.606c7.384,8.953-4.497,30.942-26.53,49.119c-22.037,18.175-45.883,25.651-53.269,16.7
		c-7.384-8.954,4.493-30.946,26.529-49.118C84.917,45.127,108.768,37.651,116.152,46.606z"/>
	
		<linearGradient id="SVGID_3_" gradientUnits="userSpaceOnUse" x1="-224.9316" y1="338.4189" x2="-228.9893" y2="338.4189" gradientTransform="matrix(23.8784 -12.1848 -12.1848 -23.8784 9606.4629 5369.2871)">
		<stop  offset="0" style="stop-color:#FFD207"/>
		<stop  offset="1" style="stop-color:#FAA61A"/>
	</linearGradient>
	<path fill="url(#SVGID_3_)" d="M28.173,9.384c-3.163,1.614-6.339,3.868-9.462,6.885c-3.361,3.253-5.834,6.558-7.591,9.845
		c-9.367,17.5,1.513,34.491,6.579,40.09c6.031,6.601,12.082,16.761,12.082,16.761c-6.72,35.212,12.323,41.356,21.435,38.478
		c2.534-0.804,7.36-2.713,13.382-5.784c1.321-0.674,2.706-1.408,4.134-2.199c-2.023-0.365-3.957-1.143-5.677-2.289
		c-6.751,3.443-12.704,5.272-16.978,5.02c-2.601-0.192-4.6-1.061-6.02-2.633c-1.382-1.591-2.005-3.691-1.845-6.273
		c0.577-9.235,11.784-24.959,27.858-39.109c8.602-7.586,17.469-13.718,25.261-17.694c6.784-3.461,12.752-5.294,17.026-5.031
		c2.633,0.173,4.632,1.041,6.019,2.63c1.416,1.573,2.007,3.691,1.85,6.273c-0.58,9.235-11.788,24.96-27.862,39.111
		c-0.792,0.698-1.589,1.384-2.383,2.057c0.508,2.269,0.464,4.581-0.072,6.774c11.388-8.659,22.865-20.291,30.211-35.127
		c16.932-34.24-19.634-35.019-25.225-33.924c-5.626,1.106-16.569-8.276-21.9-15.275C64.797,12.509,49.412,1.986,32.751,7.476
		C31.232,7.975,29.707,8.601,28.173,9.384"/>
	<path opacity="0.5" fill="#FFFFFF" d="M34.068,105.964c-0.085-0.678-0.124-1.386-0.076-2.149
		c0.588-9.44,12.05-25.521,28.489-39.992c8.798-7.758,17.866-14.032,25.833-18.098c6.935-3.539,13.041-5.411,17.411-5.143
		c0.796,0.052,1.519,0.188,2.199,0.365l1.654-1.455c-1.198-0.665-2.608-1.086-4.298-1.196c-4.483-0.274-10.743,1.645-17.856,5.275
		c-8.173,4.169-17.472,10.602-26.491,18.562C44.073,76.969,32.323,93.46,31.718,103.145c-0.101,1.64,0.135,3.071,0.63,4.335
		L34.068,105.964z"/>
	<g opacity="0.5">
		<path fill="#FFFFFF" d="M15.806,31.146c1.827-3.418,4.395-6.854,7.89-10.236c3.248-3.136,6.549-5.481,9.836-7.159
			c1.597-0.814,3.182-1.466,4.762-1.985c6.034-1.988,11.895-1.931,17.174-0.804c-6.082-2.305-13.471-3.314-21.155-0.785
			c-1.468,0.484-2.942,1.089-4.42,1.844c-3.056,1.559-6.126,3.736-9.143,6.652c-3.245,3.141-5.633,6.333-7.332,9.508
			c-6.328,11.822-3.085,23.392,1.109,31.136C11.508,51.434,10.33,41.374,15.806,31.146z"/>
	</g>
	
		<linearGradient id="SVGID_4_" gradientUnits="userSpaceOnUse" x1="-298.4268" y1="258.6602" x2="-293.9932" y2="258.6602" gradientTransform="matrix(2.5852 -1.3192 -1.3192 -2.5852 1168.0366 357.8626)">
		<stop  offset="0" style="stop-color:#5F5D5C"/>
		<stop  offset="1" style="stop-color:#181500"/>
	</linearGradient>
	<path fill="url(#SVGID_4_)" d="M63.853,70.167c-2.467,2.319-5.461,5.278-7.514,7.494l4.167,10.911
		c1.151-1.229,2.524-2.275,4.105-3.082c1.04-0.531,2.111-0.929,3.198-1.198l-0.989-3.636l-1.476-5.444L63.853,70.167z"/>
	
		<linearGradient id="SVGID_5_" gradientUnits="userSpaceOnUse" x1="-251.5874" y1="310.1592" x2="-247.5249" y2="310.1592" gradientTransform="matrix(6.5526 -3.3437 -3.3437 -6.5526 2742.4219 1297.3361)">
		<stop  offset="0" style="stop-color:#5F5D5C"/>
		<stop  offset="1" style="stop-color:#181500"/>
	</linearGradient>
	<path fill="url(#SVGID_5_)" d="M64.61,85.49c-1.581,0.807-2.955,1.854-4.105,3.082c-2.004,2.146-3.317,4.817-3.817,7.659
		c-0.54,3.083-0.127,6.354,1.404,9.355c0.392,0.767,0.846,1.487,1.347,2.158c1.02,1.359,2.247,2.51,3.615,3.425
		c1.72,1.146,3.653,1.924,5.677,2.289c3.111,0.565,6.421,0.156,9.443-1.388c4.038-2.06,6.738-5.702,7.733-9.778
		c0.536-2.193,0.58-4.506,0.072-6.774c-0.269-1.194-0.686-2.373-1.268-3.515c-0.189-0.371-0.396-0.73-0.611-1.082
		c-3.446-5.572-10.087-8.178-16.292-6.63C66.722,84.562,65.65,84.959,64.61,85.49"/>
	<path opacity="0.5" fill="#FFFFFF" d="M59.074,99.957c0.175-2.623,1.098-5.172,2.703-7.313c0.922-1.225,2.063-2.31,3.416-3.195
		c0.89-0.584,1.819-1.051,2.777-1.402c5.467-2.012,11.735-0.309,15.411,4.399c0,0.002,0.001,0.005,0.002,0.005
		c-0.124-0.217-0.227-0.437-0.368-0.65c-0.208-0.316-0.427-0.618-0.657-0.918c-3.678-4.706-9.944-6.408-15.41-4.396
		c-0.96,0.351-1.888,0.817-2.778,1.402c-1.354,0.886-2.495,1.971-3.416,3.197c-1.604,2.14-2.527,4.688-2.701,7.314
		c-0.181,2.843,0.514,5.766,2.198,8.333c0.168,0.257,0.379,0.478,0.565,0.719C59.496,105.095,58.913,102.502,59.074,99.957z"/>
</g>
</svg>
