<?xml version="1.0" encoding="utf-8"?>
<!-- Generator: Adobe Illustrator 13.0.0, SVG Export Plug-In . SVG Version: 6.00 Build 14948)  -->
<!DOCTYPE svg PUBLIC "-//W3C//DTD SVG 1.1//EN" "http://www.w3.org/Graphics/SVG/1.1/DTD/svg11.dtd">
<svg version="1.1" id="Layer_1" xmlns="http://www.w3.org/2000/svg" xmlns:xlink="http://www.w3.org/1999/xlink" x="0px" y="0px"
	 width="128px" height="128px" viewBox="0 0 128 128" enable-background="new 0 0 128 128" xml:space="preserve">
<g>
	<path fill="#F2F2F2" stroke="#B3B3B3" stroke-width="2" d="M109.503,17.184H18.501c-9.342,0-16.914,7.572-16.914,16.91v67.379
		c0,9.342,7.572,16.914,16.914,16.914h91.002c9.34,0,16.912-7.572,16.912-16.914V34.094
		C126.415,24.756,118.843,17.184,109.503,17.184z"/>
	<linearGradient id="SVGID_1_" gradientUnits="userSpaceOnUse" x1="63.936" y1="119.2744" x2="63.936" y2="52.7736">
		<stop  offset="0.0934" style="stop-color:#D1D1D1"/>
		<stop  offset="0.431" style="stop-color:#D9D9D9"/>
		<stop  offset="0.9519" style="stop-color:#EFEFEF"/>
		<stop  offset="0.9725" style="stop-color:#F0F0F0"/>
	</linearGradient>
	<path fill="url(#SVGID_1_)" d="M38.497,82.664c-12.658,0-24.773-1.07-35.959-3.022v22.107c0,9.188,7.447,16.638,16.637,16.638
		h89.521c9.188,0,16.637-7.449,16.637-16.638V60.237C107.315,73.698,75.167,82.664,38.497,82.664z"/>
	<path fill="#B3B3B3" d="M108.935,115.37l-89.744,0.001c-9.211,0-16.678-7.469-16.678-16.681v3.288
		c0,9.213,7.467,16.68,16.678,16.68h89.744c9.209,0,16.676-7.467,16.676-16.68V98.69C125.61,107.902,118.144,115.37,108.935,115.37z
		"/>
	<linearGradient id="SVGID_2_" gradientUnits="userSpaceOnUse" x1="64.1597" y1="17.54" x2="64.1597" y2="49.4366">
		<stop  offset="0" style="stop-color:#EC008C"/>
		<stop  offset="1" style="stop-color:#C4008C"/>
	</linearGradient>
	<path fill="url(#SVGID_2_)" d="M125.839,45.856V34.678c0-9.229-7.482-16.712-16.713-16.712h-89.93
		c-9.232,0-16.715,7.483-16.715,16.713v11.178H125.839z"/>
	<path opacity="0.5" fill="#FFFFFF" d="M109.103,17.966h-89.91c-9.23,0-16.711,7.481-16.711,16.707v4.94
		c0-9.227,7.48-16.708,16.711-16.708h89.91c9.227,0,16.709,7.481,16.709,16.708v-4.94C125.812,25.447,118.329,17.966,109.103,17.966
		z"/>
	<g>
		<polygon fill="#969696" points="10.607,52.616 117.454,52.616 117.454,57.087 10.607,57.087 		"/>
		<polygon fill="#969696" points="10.607,71.867 117.454,71.867 117.454,76.34 10.607,76.34 		"/>
		<polygon fill="#969696" points="10.607,62.241 88.855,62.241 88.855,66.715 10.607,66.715 		"/>
		<polygon fill="#969696" points="10.607,91.117 117.454,91.117 117.454,95.592 10.607,95.592 		"/>
		<polygon fill="#969696" points="10.607,81.492 88.855,81.492 88.855,85.965 10.607,85.965 		"/>
		<polygon fill="#969696" points="10.607,100.742 88.855,100.742 88.855,105.217 10.607,105.217 		"/>
	</g>
	<g>
		<g>
			<g>
				
					<linearGradient id="SVGID_3_" gradientUnits="userSpaceOnUse" x1="-158.7314" y1="-649.3438" x2="-158.7314" y2="-704.3853" gradientTransform="matrix(1 0 0 -1 246.7271 -588.5762)">
					<stop  offset="0" style="stop-color:#5F5D5C"/>
					<stop  offset="1" style="stop-color:#181500"/>
				</linearGradient>
				<path fill="url(#SVGID_3_)" d="M109.636,61.503H66.356c-4.441,0-8.042,3.602-8.042,8.042v32.044
					c0,4.441,3.601,8.042,8.042,8.042h6.1c-0.102-0.312-0.158-0.645-0.158-0.994c0-1.769,1.436-3.203,3.205-3.203h2.85
					c1.77,0,3.205,1.437,3.205,3.203c0,0.349-0.057,0.683-0.158,0.994h13.193c-0.102-0.312-0.158-0.645-0.158-0.994
					c0-1.769,1.437-3.203,3.205-3.203h2.85c1.77,0,3.205,1.437,3.205,3.203c0,0.349-0.057,0.683-0.16,0.994h6.1
					c4.441,0,8.043-3.601,8.043-8.042V69.546C117.677,65.105,114.075,61.503,109.636,61.503z"/>
			</g>
			<g>
				<radialGradient id="SVGID_4_" cx="75.1182" cy="89.6465" r="13.3169" gradientUnits="userSpaceOnUse">
					<stop  offset="0" style="stop-color:#FAFAFA"/>
					<stop  offset="0.4142" style="stop-color:#E3E3E3"/>
					<stop  offset="1" style="stop-color:#C7C7C7"/>
				</radialGradient>
				<path fill="url(#SVGID_4_)" d="M61.806,89.645c0-7.356,5.961-13.32,13.312-13.32s13.312,5.964,13.312,13.32
					c0,7.358-5.961,13.323-13.312,13.323S61.806,97.003,61.806,89.645L61.806,89.645z"/>
				<linearGradient id="SVGID_5_" gradientUnits="userSpaceOnUse" x1="70.0732" y1="82.8721" x2="70.0732" y2="89.8135">
					<stop  offset="0" style="stop-color:#EC008C"/>
					<stop  offset="1" style="stop-color:#C40075"/>
				</linearGradient>
				<path fill="url(#SVGID_5_)" d="M66.604,86.343c0-1.916,1.553-3.471,3.469-3.471s3.469,1.555,3.469,3.471
					c0,1.918-1.553,3.471-3.469,3.471S66.604,88.261,66.604,86.343L66.604,86.343z"/>
				<path fill="#F2F2F2" d="M65.039,82.747c2.224-3.052,6.311-5.39,10.132-5.39c3.82,0,7.803,2.338,10.025,5.39h0.422
					c-2.355-3.592-6.178-5.943-10.5-5.943s-8.145,2.352-10.5,5.943H65.039z"/>
				<linearGradient id="SVGID_6_" gradientUnits="userSpaceOnUse" x1="64.6182" y1="97.4443" x2="85.6182" y2="97.4443">
					<stop  offset="0" style="stop-color:#EC008C"/>
					<stop  offset="1" style="stop-color:#C40075"/>
				</linearGradient>
				<path fill="url(#SVGID_6_)" d="M85.196,94.474c-2.223,3.053-6.31,5.389-10.131,5.389c-3.82,0-7.803-2.336-10.026-5.389h-0.421
					c2.355,3.592,6.178,5.941,10.498,5.941c4.324,0,8.148-2.35,10.502-5.941H85.196z"/>
			</g>
			<g>
				<g>
					
						<linearGradient id="SVGID_7_" gradientUnits="userSpaceOnUse" x1="-140.6484" y1="-690.9819" x2="-153.4677" y2="-682.0058" gradientTransform="matrix(1 0 0 -1 246.7271 -588.7695)">
						<stop  offset="0.0824" style="stop-color:#C2C2C2"/>
						<stop  offset="0.2635" style="stop-color:#D2D2D2"/>
						<stop  offset="0.5594" style="stop-color:#E6E6E6"/>
						<stop  offset="0.7582" style="stop-color:#EDEDED"/>
					</linearGradient>
					<polygon fill="url(#SVGID_7_)" points="90.876,96.642 108.464,96.642 108.464,98.808 90.876,98.808 					"/>
				</g>
				<g>
					
						<linearGradient id="SVGID_8_" gradientUnits="userSpaceOnUse" x1="-135.2783" y1="-687.8174" x2="-152.4101" y2="-675.8216" gradientTransform="matrix(1 0 0 -1 246.7271 -588.7695)">
						<stop  offset="0.0824" style="stop-color:#C2C2C2"/>
						<stop  offset="0.2635" style="stop-color:#D2D2D2"/>
						<stop  offset="0.5594" style="stop-color:#E6E6E6"/>
						<stop  offset="0.7582" style="stop-color:#EDEDED"/>
					</linearGradient>
					<polygon fill="url(#SVGID_8_)" points="90.876,91.968 114.892,91.968 114.892,94.134 90.876,94.134 					"/>
					
						<linearGradient id="SVGID_9_" gradientUnits="userSpaceOnUse" x1="-140.6484" y1="-681.6343" x2="-153.4677" y2="-672.6581" gradientTransform="matrix(1 0 0 -1 246.7271 -588.7695)">
						<stop  offset="0.0824" style="stop-color:#C2C2C2"/>
						<stop  offset="0.2635" style="stop-color:#D2D2D2"/>
						<stop  offset="0.5594" style="stop-color:#E6E6E6"/>
						<stop  offset="0.7582" style="stop-color:#EDEDED"/>
					</linearGradient>
					<polygon fill="url(#SVGID_9_)" points="90.876,87.294 108.464,87.294 108.464,89.461 90.876,89.461 					"/>
				</g>
			</g>
			
				<linearGradient id="SVGID_10_" gradientUnits="userSpaceOnUse" x1="-158.668" y1="-651.0977" x2="-158.668" y2="-661.3589" gradientTransform="matrix(1 0 0 -1 246.7271 -588.7695)">
				<stop  offset="0" style="stop-color:#EC008C"/>
				<stop  offset="1" style="stop-color:#C4008C"/>
			</linearGradient>
			<path fill="url(#SVGID_10_)" d="M109.039,62.328H67.081c-4.307,0-7.8,3.493-7.8,7.796v2.465h57.556v-2.465
				C116.837,65.819,113.346,62.328,109.039,62.328z"/>
			<path opacity="0.8" fill="#EC8690" d="M67.669,64.075h40.912c3.543,0,6.509,2.426,7.355,5.701
				c-0.377-3.814-3.594-6.797-7.51-6.797H67.821c-3.916,0-7.133,2.982-7.51,6.797C61.157,66.501,64.126,64.075,67.669,64.075z"/>
		</g>
	</g>
</g>
</svg>
