<?xml version="1.0" encoding="utf-8"?>
<!-- Generator: Adobe Illustrator 13.0.0, SVG Export Plug-In . SVG Version: 6.00 Build 14948)  -->
<!DOCTYPE svg PUBLIC "-//W3C//DTD SVG 1.1//EN" "http://www.w3.org/Graphics/SVG/1.1/DTD/svg11.dtd">
<svg version="1.1" id="Layer_1" xmlns="http://www.w3.org/2000/svg" xmlns:xlink="http://www.w3.org/1999/xlink" x="0px" y="0px"
	 width="128px" height="128px" viewBox="0 0 128 128" enable-background="new 0 0 128 128" xml:space="preserve">
<g>
	<path fill="none" d="M70.066,15.981c8.36-4.444,31.578,8.394,44.262,32.265c12.684,23.863,10.027,49.723,1.662,54.173
		c-8.359,4.446-27.613-9.753-40.297-33.62C63.017,44.928,61.705,20.43,70.066,15.981L70.066,15.981z"/>
	
		<linearGradient id="SVGID_1_" gradientUnits="userSpaceOnUse" x1="-225.2749" y1="138.373" x2="-225.2749" y2="37.2939" gradientTransform="matrix(1 0 0 -1 289.2754 151.834)">
		<stop  offset="0" style="stop-color:#ECEEF0"/>
		<stop  offset="0.2485" style="stop-color:#E8E8E9"/>
		<stop  offset="0.8" style="stop-color:#DADBDE"/>
		<stop  offset="0.9481" style="stop-color:#C0C1C2"/>
	</linearGradient>
	<path fill="url(#SVGID_1_)" stroke="#000000" stroke-miterlimit="3.8637" d="M115.059,47.103c-1.276-2.445-2.654-4.778-4.106-7
		c-5.787-8.824-13.289-16.876-22.562-22.035c-5.361-2.986-11.802-5.857-18.02-4.038c-2.059,0.6-4.053,1.748-5.676,3.269
		c-3.609,3.398-5.584,8.438-8.004,12.885c-2.117,3.889-4.266,7.776-6.41,11.647L35.725,68.216L13.758,79.592
		c-0.597,0.318-1.164,0.648-1.706,1.018c0,0-0.077,0.039-0.069,0.05c-7.712,5.175-10.504,15.331-6.17,23.62
		c0.058,0.099,0.112,0.185,0.164,0.283c0.052,0.09,0.085,0.188,0.138,0.287c4.34,8.297,14.264,11.795,22.912,8.408
		c0,0.008,0.073-0.025,0.073-0.025c0.61-0.246,1.211-0.516,1.806-0.83l21.867-11.565l29.959,3.082
		c4.408,0.455,8.819,0.901,13.229,1.378c5.023,0.551,10.286,1.797,15.135,0.766c2.17-0.463,4.195-1.396,5.922-2.797
		c5.035-4.078,6.357-11.004,6.961-17.107c1.057-10.564-1.28-21.332-5.223-31.12c-0.995-2.458-2.12-4.924-3.402-7.367
		c-0.047-0.096-0.102-0.189-0.147-0.285C115.152,47.292,115.109,47.202,115.059,47.103L115.059,47.103z"/>
	<path fill="#FFFFFF" d="M60.915,24.895L36.774,69.289L14.807,80.67c-0.598,0.318-1.164,0.648-1.705,1.014
		c0,0-0.074,0.039-0.069,0.049C7.378,85.523,4.383,92,4.887,98.449l1.318-2.42c0.104-5.855,3.021-10.022,6.883-12.438
		c-0.004-0.008,2.764-1.641,2.764-1.641c0.545-0.37,1.112-0.696,1.704-1.018l20.173-10.506l22.224-40.095L60.915,24.895z"/>
	<path fill="#B3B3B3" d="M102.973,105.15l-50.229-5.539l-21.887,11.533c-0.597,0.306-1.193,0.584-1.809,0.82
		c0,0-0.072,0.038-0.077,0.023c-6.343,2.478-13.366,1.238-18.372-2.855l2.736,0.299c4.869,3.26,9.957,3.246,14.141,1.453
		c0.008,0.014,2.926-1.33,2.926-1.33c0.615-0.236,1.212-0.512,1.809-0.816l20.146-10.561l45.605,4.661L102.973,105.15z"/>
	
		<linearGradient id="SVGID_2_" gradientUnits="userSpaceOnUse" x1="-203.25" y1="118.623" x2="-203.25" y2="58.1377" gradientTransform="matrix(1 0 0 -1 289.2754 151.834)">
		<stop  offset="0" style="stop-color:#5F5D5C"/>
		<stop  offset="1" style="stop-color:#181500"/>
	</linearGradient>
	<path fill="url(#SVGID_2_)" d="M98.951,56.109c-8.4-16.074-21.232-25.942-28.674-22.049c-1.561,0.824-3.648,2.912-3.898,5.305
		c-0.885,8.533,2.902,18.397,8.984,29.094c6.113,10.755,12.498,18.811,19.459,24.719c1.508,1.28,4.311-0.111,5.877-0.929
		C108.132,88.357,107.354,72.178,98.951,56.109L98.951,56.109z"/>
	<path fill="#FFFFFF" d="M94.628,58.372c3.804,7.267,4.233,14.548,0.964,16.257c-3.271,1.715-9.002-2.791-12.799-10.062
		c-3.799-7.27-4.232-14.546-0.963-16.26C85.1,46.596,90.835,51.103,94.628,58.372L94.628,58.372z"/>
	<path opacity="0.49" fill="#FFFFFF" enable-background="new    " d="M60.313,33.475c0,0,0.812,4.57,1.628,7.179
		c0.822,2.616,1.307,5.228,1.307,5.228L40.555,70.209L60.313,33.475z"/>
	<path fill="none" stroke="#000000" stroke-miterlimit="3.8637" d="M70.066,15.981c8.36-4.444,31.578,8.394,44.262,32.265
		c12.684,23.863,10.027,49.723,1.662,54.173c-8.359,4.446-27.613-9.753-40.297-33.62C63.017,44.928,61.705,20.43,70.066,15.981
		L70.066,15.981z"/>
	
		<linearGradient id="SVGID_3_" gradientUnits="userSpaceOnUse" x1="-206.8853" y1="116.8008" x2="-206.8853" y2="96.3066" gradientTransform="matrix(1 0 0 -1 289.2754 151.834)">
		<stop  offset="0" style="stop-color:#FFFFFF"/>
		<stop  offset="1" style="stop-color:#000000"/>
	</linearGradient>
	<path fill="url(#SVGID_3_)" d="M70.74,38.158c6.768-3.545,17.904,4.063,26.324,17.37c-7.592-14.405-19.109-23.229-25.799-19.729
		c-1.41,0.738-3.301,2.629-3.523,4.794c-0.012,0.134-0.018,0.271-0.025,0.408C68.541,39.708,69.749,38.681,70.74,38.158z"/>
</g>
</svg>
