<?xml version="1.0" encoding="utf-8"?>
<!-- Generator: Adobe Illustrator 13.0.0, SVG Export Plug-In . SVG Version: 6.00 Build 14948)  -->
<!DOCTYPE svg PUBLIC "-//W3C//DTD SVG 1.1//EN" "http://www.w3.org/Graphics/SVG/1.1/DTD/svg11.dtd">
<svg version="1.1" id="Layer_1" xmlns="http://www.w3.org/2000/svg" xmlns:xlink="http://www.w3.org/1999/xlink" x="0px" y="0px"
	 width="128px" height="128px" viewBox="0 0 128 128" enable-background="new 0 0 128 128" xml:space="preserve">
<g>
	<path fill="#F2F2F2" stroke="#B3B3B3" stroke-width="2" d="M109.502,17.235H18.5c-9.342,0-16.914,7.572-16.914,16.91v67.378
		c0,9.342,7.572,16.914,16.914,16.914h91.001c9.34,0,16.912-7.572,16.912-16.914V34.145
		C126.414,24.807,118.842,17.235,109.502,17.235z"/>
	<linearGradient id="SVGID_1_" gradientUnits="userSpaceOnUse" x1="63.9351" y1="119.3252" x2="63.9351" y2="52.8249">
		<stop  offset="0.0934" style="stop-color:#D1D1D1"/>
		<stop  offset="0.431" style="stop-color:#D9D9D9"/>
		<stop  offset="0.9519" style="stop-color:#EFEFEF"/>
		<stop  offset="0.9725" style="stop-color:#F0F0F0"/>
	</linearGradient>
	<path fill="url(#SVGID_1_)" d="M38.497,82.715c-12.658,0-24.773-1.07-35.959-3.021v22.105c0,9.189,7.447,16.639,16.637,16.639
		h89.521c9.188,0,16.637-7.449,16.637-16.639v-41.51C107.314,73.75,75.166,82.715,38.497,82.715z"/>
	<path fill="#B3B3B3" d="M108.934,115.422H19.19c-9.211,0-16.678-7.467-16.678-16.68v3.287c0,9.213,7.467,16.68,16.678,16.68h89.744
		c9.209,0,16.676-7.467,16.676-16.68v-3.287C125.609,107.955,118.143,115.422,108.934,115.422z"/>
	<linearGradient id="SVGID_2_" gradientUnits="userSpaceOnUse" x1="64.1592" y1="17.5913" x2="64.1592" y2="49.4879">
		<stop  offset="0" style="stop-color:#5F5D5C"/>
		<stop  offset="1" style="stop-color:#181500"/>
	</linearGradient>
	<path fill="url(#SVGID_2_)" d="M125.838,45.908V34.729c0-9.229-7.482-16.712-16.713-16.712H19.196
		c-9.232,0-16.715,7.483-16.715,16.713v11.178H125.838z"/>
	<path opacity="0.5" fill="#FFFFFF" d="M106.439,21.068H21.612c-8.709,0-15.767,7.059-15.767,15.763v4.661
		c0-8.705,7.058-15.764,15.767-15.764h84.828c8.705,0,15.764,7.059,15.764,15.764v-4.661
		C122.203,28.126,115.145,21.068,106.439,21.068z"/>
	<g>
		<g>
			<g>
				
					<radialGradient id="SVGID_3_" cx="-348.6201" cy="894.7402" r="27.4629" gradientTransform="matrix(1 0 0 1 412.6201 -813.9912)" gradientUnits="userSpaceOnUse">
					<stop  offset="0" style="stop-color:#FAFAFA"/>
					<stop  offset="0.3109" style="stop-color:#F4F4F4"/>
					<stop  offset="0.7262" style="stop-color:#E3E3E3"/>
					<stop  offset="1" style="stop-color:#D4D4D4"/>
				</radialGradient>
				<path fill="url(#SVGID_3_)" stroke="#B3B3B3" stroke-width="2" d="M82.879,53.286H71.035c-4.742,0-8.585,3.844-8.585,8.584
					v17.326H45.121c-4.739,0-8.583,3.846-8.583,8.586v11.846c0,4.738,3.844,8.584,8.583,8.584h37.758
					c0.297,0,0.59-0.016,0.877-0.045c4.33-0.439,7.707-4.094,7.707-8.539V61.87C91.463,57.128,87.621,53.286,82.879,53.286z"/>
			</g>
			<g>
				<radialGradient id="SVGID_4_" cx="64" cy="80.748" r="27.4629" gradientUnits="userSpaceOnUse">
					<stop  offset="0" style="stop-color:#FAFAFA"/>
					<stop  offset="0.3109" style="stop-color:#F4F4F4"/>
					<stop  offset="0.7262" style="stop-color:#E3E3E3"/>
					<stop  offset="1" style="stop-color:#D4D4D4"/>
				</radialGradient>
				<path fill="url(#SVGID_4_)" stroke="#B3B3B3" stroke-width="2" d="M82.879,53.286H71.035c-4.742,0-8.585,3.844-8.585,8.584
					v17.326H45.121c-4.739,0-8.583,3.846-8.583,8.586v11.846c0,4.738,3.844,8.584,8.583,8.584h37.758
					c0.297,0,0.59-0.016,0.877-0.045c4.33-0.439,7.707-4.094,7.707-8.539V61.87C91.463,57.128,87.621,53.286,82.879,53.286z"/>
			</g>
		</g>
		<g>
			<g>
				<g>
					
						<linearGradient id="SVGID_5_" gradientUnits="userSpaceOnUse" x1="-347.8398" y1="882.7676" x2="-347.8398" y2="917.2461" gradientTransform="matrix(1 0 0 1 412.6201 -813.9912)">
						<stop  offset="0" style="stop-color:#99DBF6"/>
						<stop  offset="1" style="stop-color:#00B2DE"/>
					</linearGradient>
					<path fill="url(#SVGID_5_)" d="M77.93,71.57c0-1.543-1.252-2.795-2.797-2.795s-2.797,1.252-2.797,2.795v19.973l-11.125,0.004
						l1.315-1.291c0.534-0.535,0.814-1.207,0.814-1.992c0-0.752-0.283-1.43-0.814-1.986c-0.561-0.531-1.231-0.811-1.988-0.811
						c-0.785,0-1.428,0.279-1.987,0.811l-6.08,6.109c-0.56,0.531-0.84,1.205-0.84,1.961c0,0.787,0.281,1.457,0.841,1.988
						l6.079,6.105c0.561,0.531,1.202,0.812,1.989,0.812c0.756,0,1.429-0.281,1.987-0.814c0.533-0.561,0.813-1.232,0.813-1.99
						c0-0.783-0.283-1.428-0.813-1.986l-1.315-1.289l13.915-0.002c0.785,0,1.457-0.279,1.988-0.84
						c0.561-0.535,0.812-1.207,0.812-1.992c0-0.061-0.006-0.119-0.008-0.178c0.002-0.051,0.008-0.1,0.008-0.152V71.57H77.93z"/>
				</g>
			</g>
			<g>
				<g>
					<linearGradient id="SVGID_6_" gradientUnits="userSpaceOnUse" x1="64.7812" y1="68.7754" x2="64.7812" y2="103.2539">
						<stop  offset="0" style="stop-color:#FF9D00"/>
						<stop  offset="1" style="stop-color:#FF1F00"/>
					</linearGradient>
					<path fill="url(#SVGID_6_)" d="M77.93,71.57c0-1.543-1.252-2.795-2.797-2.795s-2.797,1.252-2.797,2.795v19.973l-11.125,0.004
						l1.315-1.291c0.534-0.535,0.814-1.207,0.814-1.992c0-0.752-0.283-1.43-0.814-1.986c-0.561-0.531-1.231-0.811-1.988-0.811
						c-0.785,0-1.428,0.279-1.987,0.811l-6.08,6.109c-0.56,0.531-0.84,1.205-0.84,1.961c0,0.787,0.281,1.457,0.841,1.988
						l6.079,6.105c0.561,0.531,1.202,0.812,1.989,0.812c0.756,0,1.429-0.281,1.987-0.814c0.533-0.561,0.813-1.232,0.813-1.99
						c0-0.783-0.283-1.428-0.813-1.986l-1.315-1.289l13.915-0.002c0.785,0,1.457-0.279,1.988-0.84
						c0.561-0.535,0.812-1.207,0.812-1.992c0-0.061-0.006-0.119-0.008-0.178c0.002-0.051,0.008-0.1,0.008-0.152V71.57H77.93z"/>
				</g>
			</g>
		</g>
		<path fill="#FFFFFF" d="M71.883,55.684h10.578c2.271,0,4.338,0.891,5.891,2.346h0.848c-1.6-1.988-4.023-3.256-6.738-3.256H71.883
			c-2.713,0-5.137,1.268-6.738,3.256h0.848C67.545,56.575,69.613,55.684,71.883,55.684z"/>
		<path fill="#B3B3B3" d="M82.004,106.967H45.898c-4.949,0-8.963-4.012-8.963-8.965v1.494c0,4.951,4.014,8.965,8.963,8.965h36.106
			c4.951,0,8.965-4.014,8.965-8.965v-1.494C90.969,102.955,86.955,106.967,82.004,106.967z"/>
		<path opacity="0.5" fill="#FFFFFF" d="M52.902,94.072c-0.149,0.154-0.369,0.182-0.49,0.062l0,0
			c-0.121-0.117-0.098-0.338,0.052-0.492l7.057-7.217c0.149-0.154,0.369-0.182,0.491-0.062l0,0c0.121,0.117,0.098,0.338-0.052,0.492
			L52.902,94.072z"/>
		<g opacity="0.5">
			<path fill="#FFFFFF" d="M75.105,70.156c1.367-0.006,2.479,0.979,2.482,2.504l-0.002-0.43c-0.004-1.525-1.115-2.758-2.482-2.754
				c-1.365,0.006-2.469,1.246-2.465,2.773l0.002,0.428C72.635,71.152,73.74,70.16,75.105,70.156z"/>
		</g>
	</g>
</g>
</svg>
