<?xml version="1.0" encoding="utf-8"?>
<!-- Generator: Adobe Illustrator 13.0.0, SVG Export Plug-In . SVG Version: 6.00 Build 14948)  -->
<!DOCTYPE svg PUBLIC "-//W3C//DTD SVG 1.1//EN" "http://www.w3.org/Graphics/SVG/1.1/DTD/svg11.dtd">
<svg version="1.1" id="Layer_1" xmlns="http://www.w3.org/2000/svg" xmlns:xlink="http://www.w3.org/1999/xlink" x="0px" y="0px"
	 width="128px" height="128px" viewBox="0 0 128 128" enable-background="new 0 0 128 128" xml:space="preserve">
<g>
	<g>
		
			<linearGradient id="SVGID_1_" gradientUnits="userSpaceOnUse" x1="-356.0923" y1="860.9863" x2="-389.6927" y2="837.459" gradientTransform="matrix(1 0 0 1 412.6201 -813.9912)">
			<stop  offset="0" style="stop-color:#5F5D5C"/>
			<stop  offset="1" style="stop-color:#181500"/>
		</linearGradient>
		<path fill="url(#SVGID_1_)" d="M45.481,60.957c0,3.18-2.574,5.75-5.753,5.75l0,0c-3.177,0-5.754-2.571-5.754-5.75V9.504
			c0-3.175,2.577-5.751,5.754-5.751l0,0c3.179,0,5.753,2.576,5.753,5.751V60.957z"/>
		
			<linearGradient id="SVGID_2_" gradientUnits="userSpaceOnUse" x1="-307.5444" y1="860.9854" x2="-341.1449" y2="837.4581" gradientTransform="matrix(1 0 0 1 412.6201 -813.9912)">
			<stop  offset="0" style="stop-color:#5F5D5C"/>
			<stop  offset="1" style="stop-color:#181500"/>
		</linearGradient>
		<path fill="url(#SVGID_2_)" d="M94.029,60.957c0,3.18-2.576,5.75-5.754,5.75l0,0c-3.176,0-5.754-2.571-5.754-5.75V9.504
			c0-3.175,2.578-5.751,5.754-5.751l0,0c3.178,0,5.754,2.576,5.754,5.751V60.957z"/>
	</g>
	
		<linearGradient id="SVGID_3_" gradientUnits="userSpaceOnUse" x1="-348.6201" y1="852.2676" x2="-348.6201" y2="938.2402" gradientTransform="matrix(1 0 0 1 412.6201 -813.9912)">
		<stop  offset="0" style="stop-color:#FFD207"/>
		<stop  offset="1" style="stop-color:#FAA61A"/>
	</linearGradient>
	<path fill="url(#SVGID_3_)" d="M119.17,93.916c0,16.754-13.576,30.332-30.33,30.332H39.164c-16.749,0-30.333-13.578-30.333-30.332
		V68.609c0-16.753,13.584-30.333,30.333-30.333H88.84c16.75,0,30.33,13.579,30.33,30.333V93.916L119.17,93.916z"/>
	<path opacity="0.5" fill="#FFFFFF" d="M87.268,42.353H40.735c-15.688,0-28.413,12.721-28.413,28.415v11.859
		c0-15.693,12.725-28.413,28.413-28.413h46.533c15.693,0,28.414,12.719,28.414,28.413V70.768
		C115.682,55.074,102.961,42.353,87.268,42.353z"/>
	<g>
		
			<linearGradient id="SVGID_4_" gradientUnits="userSpaceOnUse" x1="-364.5352" y1="902.9004" x2="-380.6605" y2="891.6091" gradientTransform="matrix(1 0 0 1 412.6201 -813.9912)">
			<stop  offset="0" style="stop-color:#5F5D5C"/>
			<stop  offset="1" style="stop-color:#181500"/>
		</linearGradient>
		<circle fill="url(#SVGID_4_)" cx="40.022" cy="83.264" r="9.842"/>
		
			<linearGradient id="SVGID_5_" gradientUnits="userSpaceOnUse" x1="-316.5737" y1="902.9004" x2="-332.7024" y2="891.607" gradientTransform="matrix(1 0 0 1 412.6201 -813.9912)">
			<stop  offset="0" style="stop-color:#5F5D5C"/>
			<stop  offset="1" style="stop-color:#181500"/>
		</linearGradient>
		<circle fill="url(#SVGID_5_)" cx="87.982" cy="83.262" r="9.844"/>
	</g>
</g>
</svg>
