<?xml version="1.0" encoding="utf-8"?>
<!-- Generator: Adobe Illustrator 13.0.0, SVG Export Plug-In . SVG Version: 6.00 Build 14948)  -->
<!DOCTYPE svg PUBLIC "-//W3C//DTD SVG 1.1//EN" "http://www.w3.org/Graphics/SVG/1.1/DTD/svg11.dtd">
<svg version="1.1" id="Layer_1" xmlns="http://www.w3.org/2000/svg" xmlns:xlink="http://www.w3.org/1999/xlink" x="0px" y="0px"
	 width="128px" height="128px" viewBox="0 0 128 128" enable-background="new 0 0 128 128" xml:space="preserve">
<g>
	<g>
		<linearGradient id="SVGID_1_" gradientUnits="userSpaceOnUse" x1="49.1255" y1="3.2104" x2="49.1255" y2="94.9751">
			<stop  offset="0" style="stop-color:#FFD207"/>
			<stop  offset="1" style="stop-color:#FAA61A"/>
		</linearGradient>
		<path fill="url(#SVGID_1_)" d="M95.008,49.093c0,25.336-20.542,45.881-45.881,45.881c-25.341,0-45.883-20.545-45.883-45.881
			c0-25.341,20.542-45.883,45.883-45.883C74.466,3.21,95.008,23.752,95.008,49.093z"/>
		<radialGradient id="SVGID_2_" cx="49.127" cy="49.0938" r="39.1523" gradientUnits="userSpaceOnUse">
			<stop  offset="0" style="stop-color:#FAFAFA"/>
			<stop  offset="0.3109" style="stop-color:#F4F4F4"/>
			<stop  offset="0.7262" style="stop-color:#E3E3E3"/>
			<stop  offset="1" style="stop-color:#D4D4D4"/>
		</radialGradient>
		<circle fill="url(#SVGID_2_)" cx="49.127" cy="49.093" r="39.152"/>
		<path opacity="0.5" fill="#FFFFFF" d="M11.881,29.05C20.27,16.834,34.907,6.825,49.324,6.825c14.416,0,28.664,10.01,37.049,22.226
			h1.596C79.08,14.673,65.434,4.617,49.13,4.617c-16.31,0-29.956,10.057-38.847,24.434H11.881z"/>
		<g>
			
				<linearGradient id="SVGID_3_" gradientUnits="userSpaceOnUse" x1="104.6094" y1="25.4355" x2="115.9961" y2="25.4355" gradientTransform="matrix(0.9999 -0.0166 0.0166 0.9999 -61.8602 26.7754)">
				<stop  offset="0" style="stop-color:#5F5D5C"/>
				<stop  offset="1" style="stop-color:#181500"/>
			</linearGradient>
			<path fill="url(#SVGID_3_)" d="M54.547,50.283c-0.053-3.143-2.645-5.649-5.787-5.598c-3.145,0.053-5.651,2.643-5.599,5.788
				c0.052,3.146,2.646,5.65,5.789,5.597C52.092,56.019,54.598,53.427,54.547,50.283"/>
			
				<linearGradient id="SVGID_4_" gradientUnits="userSpaceOnUse" x1="92.0498" y1="31.4404" x2="112.7041" y2="31.4404" gradientTransform="matrix(0.9999 -0.0166 0.0166 0.9999 -61.8602 26.7754)">
				<stop  offset="0" style="stop-color:#5F5D5C"/>
				<stop  offset="1" style="stop-color:#181500"/>
			</linearGradient>
			<path fill="url(#SVGID_4_)" d="M50.93,49.768c-0.596-0.874-1.793-1.106-2.668-0.505L31.636,60.585
				c-0.878,0.601-1.105,1.795-0.508,2.674c0.597,0.875,1.796,1.104,2.667,0.506L50.424,52.44
				C51.303,51.841,51.527,50.644,50.93,49.768"/>
			
				<linearGradient id="SVGID_5_" gradientUnits="userSpaceOnUse" x1="109.8223" y1="10.7856" x2="112.2227" y2="10.7856" gradientTransform="matrix(0.9999 -0.0166 0.0166 0.9999 -61.8602 26.7754)">
				<stop  offset="0" style="stop-color:#5F5D5C"/>
				<stop  offset="1" style="stop-color:#181500"/>
			</linearGradient>
			<path fill="url(#SVGID_5_)" d="M49.32,19.622c-0.532,0.001-0.961,0.434-0.958,0.961l0.02,30.271c0,0.528,0.429,0.961,0.962,0.959
				c0.532-0.003,0.959-0.433,0.959-0.963L50.28,20.583C50.281,20.053,49.854,19.622,49.32,19.622"/>
			
				<linearGradient id="SVGID_6_" gradientUnits="userSpaceOnUse" x1="107.0137" y1="25.4365" x2="113.5928" y2="25.4365" gradientTransform="matrix(0.9999 -0.0166 0.0166 0.9999 -61.8602 26.7754)">
				<stop  offset="0" style="stop-color:#5F5D5C"/>
				<stop  offset="1" style="stop-color:#181500"/>
			</linearGradient>
			<path fill="url(#SVGID_6_)" d="M52.145,50.324c-0.031-1.814-1.527-3.267-3.346-3.236c-1.816,0.031-3.263,1.531-3.233,3.346
				c0.03,1.814,1.523,3.266,3.343,3.236C50.729,53.638,52.174,52.138,52.145,50.324"/>
		</g>
	</g>
	<g>
		<g>
			<path fill="#F2F2F2" stroke="#B3B3B3" stroke-width="2" d="M113.778,58.304H54.043c-6.133,0-11.104,4.971-11.104,11.1v44.229
				c0,6.133,4.971,11.104,11.104,11.104h59.735c6.131,0,11.102-4.971,11.102-11.104V69.404
				C124.88,63.275,119.909,58.304,113.778,58.304z"/>
			<linearGradient id="SVGID_7_" gradientUnits="userSpaceOnUse" x1="83.8672" y1="125.3184" x2="83.8672" y2="81.6661">
				<stop  offset="0.0934" style="stop-color:#D1D1D1"/>
				<stop  offset="0.431" style="stop-color:#D9D9D9"/>
				<stop  offset="0.9519" style="stop-color:#EFEFEF"/>
				<stop  offset="0.9725" style="stop-color:#F0F0F0"/>
			</linearGradient>
			<path fill="url(#SVGID_7_)" d="M67.168,101.287c-8.309,0-16.262-0.703-23.604-1.984v14.512c0,6.031,4.889,10.922,10.92,10.922
				h58.764c6.031,0,10.922-4.891,10.922-10.922V86.566C112.342,95.402,91.239,101.287,67.168,101.287z"/>
			<path fill="#B3B3B3" d="M113.405,122.756h-58.91c-6.046,0-10.948-4.902-10.948-10.949v2.158c0,6.049,4.902,10.949,10.948,10.949
				h58.91c6.045,0,10.946-4.9,10.946-10.949v-2.158C124.352,117.854,119.45,122.756,113.405,122.756z"/>
			<linearGradient id="SVGID_8_" gradientUnits="userSpaceOnUse" x1="84.0146" y1="58.5386" x2="84.0146" y2="79.478">
				<stop  offset="0" style="stop-color:#99DBF6"/>
				<stop  offset="1" style="stop-color:#00B2DE"/>
			</linearGradient>
			<path fill="url(#SVGID_8_)" d="M124.502,77.127v-7.34c0-6.057-4.912-10.969-10.971-10.969H54.499
				c-6.061,0-10.972,4.912-10.972,10.971v7.338H124.502z"/>
			<path opacity="0.5" fill="#FFFFFF" d="M113.516,58.818h-59.02c-6.059,0-10.969,4.911-10.969,10.967v3.242
				c0-6.057,4.91-10.967,10.969-10.967h59.02c6.057,0,10.968,4.911,10.968,10.967v-3.242
				C124.483,63.729,119.572,58.818,113.516,58.818z"/>
			<g>
				<g>
					<path fill="#C6C5C5" stroke="#FFFFFF" d="M98.355,87.07c0,0.588-0.479,1.064-1.067,1.064H91.24
						c-0.588,0-1.064-0.479-1.064-1.064V81.02c0-0.588,0.477-1.064,1.064-1.064h6.048c0.589,0,1.067,0.477,1.067,1.064V87.07z"/>
					<path fill="#969696" stroke="#FFFFFF" d="M108.71,87.07c0,0.588-0.477,1.064-1.065,1.064h-6.049
						c-0.588,0-1.064-0.477-1.064-1.064V81.02c0-0.588,0.477-1.064,1.064-1.064h6.049c0.589,0,1.065,0.477,1.065,1.064V87.07
						L108.71,87.07z"/>
					<path fill="#969696" stroke="#FFFFFF" d="M119.065,87.07c0,0.588-0.478,1.064-1.065,1.064h-6.049
						c-0.588,0-1.065-0.477-1.065-1.064V81.02c0-0.588,0.479-1.064,1.065-1.064H118c0.588,0,1.065,0.477,1.065,1.064V87.07
						L119.065,87.07z"/>
				</g>
				<g>
					<path fill="#C6C5C5" stroke="#FFFFFF" d="M67.289,97.248c0,0.586-0.479,1.064-1.065,1.064h-6.05
						c-0.588,0-1.064-0.479-1.064-1.064v-6.049c0-0.592,0.477-1.066,1.064-1.066h6.05c0.587,0,1.065,0.475,1.065,1.066V97.248z"/>
					<path fill="#C6C5C5" stroke="#FFFFFF" d="M77.643,97.248c0,0.586-0.477,1.064-1.064,1.064h-6.049
						c-0.588,0-1.064-0.479-1.064-1.064v-6.049c0-0.592,0.477-1.066,1.064-1.066h6.049c0.588,0,1.064,0.475,1.064,1.066V97.248z"/>
					<path fill="#C6C5C5" stroke="#FFFFFF" d="M88,97.248c0,0.588-0.479,1.064-1.066,1.064h-6.049c-0.59,0-1.064-0.479-1.064-1.064
						v-6.049c0-0.592,0.477-1.066,1.064-1.066h6.049c0.588,0,1.066,0.475,1.066,1.066V97.248z"/>
					<path fill="#C6C5C5" stroke="#FFFFFF" d="M98.355,97.248c0,0.588-0.479,1.064-1.067,1.064H91.24
						c-0.588,0-1.064-0.479-1.064-1.064v-6.049c0-0.592,0.477-1.066,1.064-1.066h6.048c0.589,0,1.067,0.475,1.067,1.066V97.248z"/>
					<path fill="#C6C5C5" stroke="#FFFFFF" d="M56.933,97.248c0,0.586-0.478,1.064-1.064,1.064h-6.049
						c-0.589,0-1.065-0.479-1.065-1.064v-6.051c0-0.59,0.477-1.064,1.065-1.064h6.049c0.587,0,1.064,0.475,1.064,1.066V97.248z"/>
					<path fill="#969696" stroke="#FFFFFF" d="M108.71,97.248c0,0.588-0.477,1.064-1.065,1.064h-6.049
						c-0.588,0-1.064-0.479-1.064-1.064v-6.049c0-0.592,0.477-1.066,1.064-1.066h6.049c0.589,0,1.065,0.475,1.065,1.066V97.248
						L108.71,97.248z"/>
					<path fill="#969696" stroke="#FFFFFF" d="M119.065,97.248c0,0.588-0.478,1.064-1.065,1.064h-6.049
						c-0.588,0-1.065-0.479-1.065-1.064v-6.049c0-0.592,0.479-1.066,1.065-1.066H118c0.588,0,1.065,0.475,1.065,1.066V97.248
						L119.065,97.248z"/>
				</g>
				<g>
					<path fill="#C6C5C5" stroke="#FFFFFF" d="M67.289,107.424c0,0.588-0.479,1.064-1.065,1.064h-6.05
						c-0.588,0-1.064-0.479-1.064-1.064v-6.049c0-0.588,0.477-1.066,1.064-1.066h6.05c0.587,0,1.065,0.479,1.065,1.066V107.424z"/>
					<path fill="#C6C5C5" stroke="#FFFFFF" d="M77.643,107.424c0,0.588-0.477,1.064-1.064,1.064h-6.049
						c-0.588,0-1.064-0.479-1.064-1.064v-6.049c0-0.588,0.477-1.066,1.064-1.066h6.049c0.588,0,1.064,0.479,1.064,1.066V107.424z"/>
					<path fill="#C6C5C5" stroke="#FFFFFF" d="M88,107.424c0,0.588-0.479,1.064-1.066,1.064h-6.049c-0.59,0-1.064-0.479-1.064-1.064
						v-6.049c0-0.588,0.477-1.066,1.064-1.066h6.049c0.588,0,1.066,0.479,1.066,1.066V107.424z"/>
					<path fill="#C6C5C5" stroke="#FFFFFF" d="M98.355,107.424c0,0.588-0.479,1.064-1.067,1.064H91.24
						c-0.588,0-1.064-0.479-1.064-1.064v-6.049c0-0.588,0.477-1.066,1.064-1.066l6.048,0.002c0.589,0,1.067,0.477,1.067,1.064
						V107.424z"/>
					<path fill="#C6C5C5" stroke="#FFFFFF" d="M56.933,107.424c0,0.588-0.478,1.064-1.064,1.064h-6.049
						c-0.589,0-1.065-0.479-1.065-1.064v-6.049c0-0.588,0.477-1.066,1.065-1.066h6.049c0.587,0,1.064,0.479,1.064,1.066V107.424z"/>
					<path fill="#969696" stroke="#FFFFFF" d="M108.71,107.424c0,0.588-0.477,1.064-1.065,1.064h-6.049
						c-0.588,0-1.064-0.479-1.064-1.064v-6.049c0-0.588,0.477-1.064,1.064-1.064h6.049c0.589,0,1.065,0.477,1.065,1.064V107.424
						L108.71,107.424z"/>
					<path fill="#969696" stroke="#FFFFFF" d="M119.065,107.424c0,0.588-0.478,1.064-1.065,1.064h-6.049
						c-0.588,0-1.065-0.479-1.065-1.064v-6.049c0-0.588,0.479-1.064,1.065-1.064H118c0.588,0,1.065,0.477,1.065,1.064V107.424
						L119.065,107.424z"/>
				</g>
				<g>
					<path fill="#C6C5C5" stroke="#FFFFFF" d="M67.289,117.6c0,0.59-0.479,1.066-1.065,1.066h-6.05
						c-0.588,0-1.064-0.479-1.064-1.066v-6.049c0-0.588,0.477-1.064,1.064-1.064h6.05c0.587,0,1.065,0.477,1.065,1.064V117.6z"/>
					<path fill="#C6C5C5" stroke="#FFFFFF" d="M77.643,117.6c0,0.59-0.477,1.066-1.064,1.066h-6.049
						c-0.588,0-1.064-0.479-1.064-1.066v-6.049c0-0.588,0.477-1.064,1.064-1.064h6.049c0.588,0,1.064,0.477,1.064,1.064V117.6z"/>
					<path fill="#C6C5C5" stroke="#FFFFFF" d="M88,117.6c0,0.59-0.479,1.066-1.066,1.066h-6.049c-0.59,0-1.064-0.479-1.064-1.066
						v-6.049c0-0.588,0.477-1.064,1.064-1.064l6.049,0.002c0.588,0,1.066,0.475,1.066,1.062V117.6z"/>
					<path fill="#C6C5C5" stroke="#FFFFFF" d="M98.355,117.6c0,0.59-0.479,1.066-1.067,1.066H91.24
						c-0.588,0-1.064-0.479-1.064-1.066v-6.049c0-0.588,0.477-1.062,1.064-1.062h6.048c0.589,0,1.067,0.475,1.067,1.062V117.6z"/>
					<path fill="#C6C5C5" stroke="#FFFFFF" d="M56.933,117.6c0,0.59-0.478,1.066-1.064,1.066h-6.049
						c-0.589-0.002-1.065-0.479-1.065-1.066v-6.049c0-0.588,0.477-1.064,1.065-1.064h6.049c0.587,0,1.064,0.477,1.064,1.064V117.6z"
						/>
					<path fill="#969696" stroke="#FFFFFF" d="M108.71,117.6c0,0.59-0.477,1.066-1.065,1.066h-6.049
						c-0.588,0-1.064-0.479-1.064-1.066v-6.049c0-0.588,0.477-1.062,1.064-1.062h6.049c0.589,0,1.065,0.475,1.065,1.062V117.6
						L108.71,117.6z"/>
					<path fill="#969696" stroke="#FFFFFF" d="M119.065,117.6c0,0.59-0.478,1.066-1.065,1.066h-6.049
						c-0.588,0-1.065-0.479-1.065-1.066v-6.049c0-0.588,0.479-1.062,1.065-1.062H118c0.588,0,1.065,0.475,1.065,1.062V117.6
						L119.065,117.6z"/>
				</g>
			</g>
		</g>
		<g>
			<g>
				
					<linearGradient id="SVGID_9_" gradientUnits="userSpaceOnUse" x1="-320.0312" y1="6991.8184" x2="-325.4765" y2="6988.0054" gradientTransform="matrix(0 1 -1 0 7048.2441 385.126)">
					<stop  offset="0" style="stop-color:#9A9A9A"/>
					<stop  offset="1" style="stop-color:#DEDEDE"/>
				</linearGradient>
				<path fill="url(#SVGID_9_)" d="M58.328,65.695c-1.835,0-3.32-1.49-3.32-3.325c0-1.836,1.485-3.323,3.32-3.323
					c1.839,0,3.326,1.487,3.326,3.323S60.167,65.695,58.328,65.695z"/>
				
					<linearGradient id="SVGID_10_" gradientUnits="userSpaceOnUse" x1="-321.8242" y1="6993.1172" x2="-330.9765" y2="6986.7085" gradientTransform="matrix(0 1 -1 0 7048.2441 385.126)">
					<stop  offset="0" style="stop-color:#181500"/>
					<stop  offset="1" style="stop-color:#5F5D5C"/>
				</linearGradient>
				<path fill="url(#SVGID_10_)" d="M58.332,65.035c-1.275,0-2.309-1.033-2.309-2.307v-8.007c0-1.273,1.033-2.308,2.309-2.308l0,0
					c1.273,0,2.306,1.033,2.306,2.308v8.007C60.638,64.002,59.607,65.035,58.332,65.035L58.332,65.035z"/>
			</g>
			<g>
				
					<linearGradient id="SVGID_11_" gradientUnits="userSpaceOnUse" x1="-320.0317" y1="6940.6641" x2="-325.477" y2="6936.8511" gradientTransform="matrix(0 1 -1 0 7048.2441 385.126)">
					<stop  offset="0" style="stop-color:#9A9A9A"/>
					<stop  offset="1" style="stop-color:#DEDEDE"/>
				</linearGradient>
				<path fill="url(#SVGID_11_)" d="M109.484,65.695c-1.834,0-3.321-1.49-3.321-3.325c0-1.836,1.487-3.323,3.321-3.323
					c1.84,0,3.325,1.487,3.325,3.323S111.324,65.695,109.484,65.695z"/>
				
					<linearGradient id="SVGID_12_" gradientUnits="userSpaceOnUse" x1="-321.8247" y1="6941.9629" x2="-330.9786" y2="6935.5532" gradientTransform="matrix(0 1 -1 0 7048.2441 385.126)">
					<stop  offset="0" style="stop-color:#181500"/>
					<stop  offset="1" style="stop-color:#5F5D5C"/>
				</linearGradient>
				<path fill="url(#SVGID_12_)" d="M109.488,65.035c-1.275,0-2.308-1.033-2.308-2.307v-8.007c0-1.273,1.031-2.308,2.308-2.308l0,0
					c1.274,0,2.306,1.033,2.306,2.308v8.007C111.793,64.002,110.763,65.035,109.488,65.035L109.488,65.035z"/>
			</g>
		</g>
	</g>
</g>
</svg>
