<?xml version="1.0" encoding="utf-8"?>
<!-- Generator: Adobe Illustrator 13.0.0, SVG Export Plug-In . SVG Version: 6.00 Build 14948)  -->
<!DOCTYPE svg PUBLIC "-//W3C//DTD SVG 1.1//EN" "http://www.w3.org/Graphics/SVG/1.1/DTD/svg11.dtd">
<svg version="1.1" id="Layer_1" xmlns="http://www.w3.org/2000/svg" xmlns:xlink="http://www.w3.org/1999/xlink" x="0px" y="0px"
	 width="128px" height="128px" viewBox="0 0 128 128" enable-background="new 0 0 128 128" xml:space="preserve">
<g>
	<path fill="#F2F2F2" stroke="#B3B3B3" stroke-width="2" d="M109.502,16.985H18.5c-9.342,0-16.914,7.572-16.914,16.91v67.378
		c0,9.342,7.572,16.914,16.914,16.914h91.002c9.34,0,16.912-7.572,16.912-16.914V33.895
		C126.414,24.557,118.842,16.985,109.502,16.985z"/>
	<linearGradient id="SVGID_1_" gradientUnits="userSpaceOnUse" x1="63.9346" y1="119.0752" x2="63.9346" y2="52.5749">
		<stop  offset="0.0934" style="stop-color:#D1D1D1"/>
		<stop  offset="0.431" style="stop-color:#D9D9D9"/>
		<stop  offset="0.9519" style="stop-color:#EFEFEF"/>
		<stop  offset="0.9725" style="stop-color:#F0F0F0"/>
	</linearGradient>
	<path fill="url(#SVGID_1_)" d="M38.496,82.465c-12.658,0-24.773-1.07-35.959-3.021v22.105c0,9.189,7.447,16.639,16.637,16.639
		h89.522c9.188,0,16.637-7.449,16.637-16.639v-41.51C107.314,73.5,75.166,82.465,38.496,82.465z"/>
	<path fill="#B3B3B3" d="M108.934,115.172H19.189c-9.211,0-16.678-7.467-16.678-16.68v3.287c0,9.213,7.467,16.68,16.678,16.68
		h89.745c9.209,0,16.676-7.467,16.676-16.68v-3.287C125.609,107.705,118.143,115.172,108.934,115.172z"/>
	<linearGradient id="SVGID_2_" gradientUnits="userSpaceOnUse" x1="64.1587" y1="17.3413" x2="64.1587" y2="49.2379">
		<stop  offset="0" style="stop-color:#5F5D5C"/>
		<stop  offset="1" style="stop-color:#181500"/>
	</linearGradient>
	<path fill="url(#SVGID_2_)" d="M125.838,45.658V34.479c0-9.229-7.482-16.712-16.713-16.712h-89.93
		C9.962,17.767,2.48,25.25,2.48,34.48v11.178H125.838z"/>
	<path opacity="0.5" fill="#FFFFFF" d="M106.439,20.818H21.611c-8.709,0-15.767,7.059-15.767,15.763v4.661
		c0-8.705,7.058-15.764,15.767-15.764h84.829c8.705,0,15.764,7.059,15.764,15.764v-4.661
		C122.203,27.876,115.145,20.818,106.439,20.818z"/>
	<g>
		<g>
			<g>
				
					<linearGradient id="SVGID_3_" gradientUnits="userSpaceOnUse" x1="-626.7744" y1="-1850.0415" x2="-655.8364" y2="-1829.6921" gradientTransform="matrix(1.1041 0.2977 0.2977 -1.1041 1318.0834 -1764.5303)">
					<stop  offset="0" style="stop-color:#FBB318"/>
					<stop  offset="1" style="stop-color:#FFE600"/>
				</linearGradient>
				<path fill="url(#SVGID_3_)" d="M78.945,51.894c-0.004-0.867-0.707-1.57-1.576-1.568l-15.483,0.023
					c-0.24,0-0.464,0.057-0.666,0.153c-0.389,0.151-0.714,0.463-0.857,0.891L49.208,84.584c-0.072,0.152-0.117,0.314-0.138,0.488
					c-0.007,0.045-0.011,0.088-0.013,0.129c-0.001,0.018-0.004,0.035-0.004,0.053c0,0.014,0.003,0.02,0.003,0.033
					c-0.003,0.457,0.206,0.889,0.566,1.168c0.274,0.227,0.62,0.369,1.005,0.369l7.578-0.014l-6.059,20.463
					c-0.179,0.578-0.004,1.162,0.395,1.543c0.002,0.002,0.004,0.002,0.005,0.004c0.046,0.045,0.094,0.086,0.145,0.123
					c0.026,0.02,0.048,0.043,0.075,0.061c0.52,0.35,1.19,0.305,1.674-0.055c0.252-0.168,0.455-0.404,0.584-0.697l19.563-28.447
					c0.266-0.281,0.434-0.658,0.43-1.076c-0.002-0.869-0.705-1.57-1.576-1.57l-8.281,0.014l13.205-24.063
					C78.717,52.818,78.945,52.384,78.945,51.894z"/>
			</g>
		</g>
		<path opacity="0.6" fill="#FFFFFF" d="M52.54,81.201l9.237-27.486c0.123-0.367,0.402-0.634,0.735-0.765
			c0.173-0.082,0.365-0.131,0.571-0.131l12.12-0.021l0.508-0.979L62.43,51.84c-0.206,0-0.398,0.049-0.571,0.131
			c-0.333,0.131-0.612,0.397-0.735,0.765l-9.568,28.471L52.54,81.201z"/>
	</g>
</g>
</svg>
