<?xml version="1.0" encoding="utf-8"?>
<!-- Generator: Adobe Illustrator 13.0.0, SVG Export Plug-In . SVG Version: 6.00 Build 14948)  -->
<!DOCTYPE svg PUBLIC "-//W3C//DTD SVG 1.1//EN" "http://www.w3.org/Graphics/SVG/1.1/DTD/svg11.dtd">
<svg version="1.1" id="Layer_1" xmlns="http://www.w3.org/2000/svg" xmlns:xlink="http://www.w3.org/1999/xlink" x="0px" y="0px"
	 width="128px" height="128px" viewBox="0 0 128 128" enable-background="new 0 0 128 128" xml:space="preserve">
<g>
	<g>
		<g>
			<path fill="#D0D0D0" d="M70.536,20.087l45.657,0.004c4.728,0,8.56,3.834,8.56,8.564l0.004,45.689c0,4.73-3.832,8.564-8.56,8.564
				l-45.659-0.002c-4.728,0-8.56-3.834-8.56-8.564l-0.001-45.689C61.976,23.923,65.809,20.087,70.536,20.087L70.536,20.087z"/>
			<path fill="#B3B3B3" d="M79.312,61.613c-6.082,0-11.916-0.699-17.334-1.973v14.704c0,4.729,3.834,8.562,8.559,8.562l45.661,0.003
				c4.726,0,8.558-3.834,8.558-8.563l-0.002-30.624C116.032,54.375,98.956,61.613,79.312,61.613z"/>
			<path fill="#999999" d="M116.21,80.29l-45.728-0.004c-4.323,0-7.889-3.203-8.478-7.367v1.222c0,4.73,3.833,8.565,8.56,8.565
				l45.658,0.003c4.728,0,8.56-3.835,8.56-8.564v-2.431C124.779,76.45,120.943,80.29,116.21,80.29z"/>
			<path fill="#FFFFFF" d="M72.076,24.573l42.671,0.002c4.032,0,7.358,2.991,7.909,6.874V30.31c0-4.414-3.577-7.994-7.985-7.994
				l-42.604-0.002c-4.41,0-7.989,3.579-7.989,7.994v2.266C64.079,28.155,67.66,24.573,72.076,24.573z"/>
		</g>
		<g>
			<polygon points="71.532,32.534 115.227,32.534 115.227,35.75 71.532,35.75 			"/>
			<polygon points="71.532,46.418 115.227,46.418 115.227,49.636 71.532,49.636 			"/>
			<polygon points="71.532,60.304 115.227,60.304 115.227,63.523 71.532,63.523 			"/>
			<polygon points="71.532,67.245 103.532,67.245 103.532,70.465 71.532,70.465 			"/>
			<polygon points="71.532,39.474 103.532,39.474 103.532,42.693 71.532,42.693 			"/>
			<polygon points="71.532,53.361 103.532,53.361 103.532,56.58 71.532,56.58 			"/>
		</g>
	</g>
	<g>
		<path fill="none" d="M50.48,37.646c5.96-3.168,22.512,5.984,31.554,23.002c9.042,17.011,7.149,35.448,1.187,38.62
			c-5.961,3.17-19.687-6.953-28.729-23.968C45.454,58.283,44.519,40.818,50.48,37.646L50.48,37.646z"/>
		
			<linearGradient id="SVGID_1_" gradientUnits="userSpaceOnUse" x1="-243.1187" y1="115.9854" x2="-243.1187" y2="43.9248" gradientTransform="matrix(1 0 0 -1 289.2754 151.834)">
			<stop  offset="0" style="stop-color:#ECEEF0"/>
			<stop  offset="0.2485" style="stop-color:#E8E8E9"/>
			<stop  offset="0.8" style="stop-color:#DADBDE"/>
			<stop  offset="0.9481" style="stop-color:#C0C1C2"/>
		</linearGradient>
		<path fill="url(#SVGID_1_)" stroke="#000000" stroke-miterlimit="3.8637" d="M82.555,59.833c-0.91-1.743-1.893-3.406-2.928-4.99
			c-4.126-6.291-9.475-12.031-16.084-15.709c-3.822-2.129-8.413-4.176-12.846-2.879c-1.467,0.428-2.889,1.246-4.047,2.33
			c-2.572,2.423-3.98,6.016-5.705,9.186c-1.51,2.772-3.041,5.544-4.57,8.304l-10.377,18.81l-15.66,8.109
			c-0.426,0.227-0.83,0.462-1.217,0.727c0,0-0.055,0.026-0.049,0.033c-5.498,3.689-7.488,10.932-4.398,16.84
			c0.041,0.07,0.08,0.133,0.117,0.202c0.037,0.063,0.061,0.136,0.098,0.205c3.094,5.914,10.169,8.408,16.334,5.994
			c0,0.006,0.053-0.019,0.053-0.019c0.436-0.176,0.863-0.367,1.287-0.592l15.59-8.246l21.357,2.197
			c3.143,0.324,6.289,0.643,9.432,0.982c3.58,0.393,7.332,1.279,10.789,0.545c1.547-0.33,2.99-0.995,4.222-1.994
			c3.59-2.906,4.532-7.844,4.963-12.195c0.753-7.531-0.913-15.208-3.724-22.186c-0.709-1.751-1.512-3.509-2.426-5.251
			c-0.033-0.068-0.072-0.135-0.105-0.203C82.621,59.968,82.592,59.904,82.555,59.833L82.555,59.833z"/>
		<path fill="#FFFFFF" d="M43.956,44.001l-17.21,31.647l-15.661,8.113c-0.426,0.227-0.831,0.463-1.216,0.723
			c0,0-0.053,0.027-0.049,0.035c-4.031,2.703-6.166,7.319-5.808,11.918l0.94-1.726c0.074-4.175,2.153-7.146,4.906-8.866l1.971-1.171
			c0.389-0.264,0.793-0.495,1.215-0.726l14.381-7.489l15.844-28.583L43.956,44.001z"/>
		<path fill="#B3B3B3" d="M73.939,101.216l-35.81-3.948l-15.603,8.221c-0.427,0.219-0.852,0.418-1.29,0.586
			c0,0-0.053,0.027-0.055,0.018c-4.521,1.766-9.529,0.883-13.098-2.035l1.951,0.211c3.471,2.324,7.098,2.314,10.08,1.037
			c0.006,0.01,2.086-0.949,2.086-0.949c0.438-0.168,0.863-0.363,1.29-0.582l14.362-7.527l32.512,3.322L73.939,101.216z"/>
		
			<linearGradient id="SVGID_2_" gradientUnits="userSpaceOnUse" x1="-227.4175" y1="101.9043" x2="-227.4175" y2="58.7847" gradientTransform="matrix(1 0 0 -1 289.2754 151.834)">
			<stop  offset="0" style="stop-color:#5F5D5C"/>
			<stop  offset="1" style="stop-color:#181500"/>
		</linearGradient>
		<path fill="url(#SVGID_2_)" d="M71.072,66.253C65.084,54.794,55.935,47.759,50.63,50.535c-1.113,0.588-2.602,2.076-2.779,3.782
			c-0.631,6.083,2.068,13.115,6.405,20.742c4.358,7.666,8.909,13.41,13.873,17.621c1.074,0.912,3.072-0.08,4.189-0.662
			C77.617,89.243,77.062,77.708,71.072,66.253L71.072,66.253z"/>
		<path fill="#FFFFFF" d="M67.99,67.865c2.711,5.181,3.018,10.371,0.687,11.591c-2.331,1.224-6.417-1.99-9.125-7.173
			c-2.708-5.184-3.018-10.371-0.687-11.592C61.197,59.472,65.286,62.685,67.99,67.865L67.99,67.865z"/>
		<path opacity="0.49" fill="#FFFFFF" enable-background="new    " d="M43.527,50.118c0,0,0.579,3.259,1.16,5.118
			c0.586,1.865,0.932,3.727,0.932,3.727L29.441,76.305L43.527,50.118z"/>
		<path fill="none" stroke="#000000" stroke-miterlimit="3.8637" d="M50.48,37.646c5.96-3.168,22.512,5.984,31.554,23.002
			c9.042,17.011,7.149,35.448,1.187,38.62c-5.961,3.17-19.687-6.953-28.729-23.968C45.454,58.283,44.519,40.818,50.48,37.646
			L50.48,37.646z"/>
		
			<linearGradient id="SVGID_3_" gradientUnits="userSpaceOnUse" x1="-230.0107" y1="100.6064" x2="-230.0107" y2="85.9951" gradientTransform="matrix(1 0 0 -1 289.2754 151.834)">
			<stop  offset="0" style="stop-color:#FFFFFF"/>
			<stop  offset="1" style="stop-color:#000000"/>
		</linearGradient>
		<path fill="url(#SVGID_3_)" d="M50.96,53.457c4.824-2.527,12.764,2.896,18.767,12.382c-5.413-10.269-13.625-16.56-18.393-14.064
			c-1.005,0.526-2.353,1.874-2.512,3.418c-0.009,0.095-0.013,0.193-0.019,0.291C49.392,54.562,50.253,53.83,50.96,53.457z"/>
	</g>
</g>
</svg>
