<?xml version="1.0" encoding="utf-8"?>
<!-- Generator: Adobe Illustrator 13.0.0, SVG Export Plug-In . SVG Version: 6.00 Build 14948)  -->
<!DOCTYPE svg PUBLIC "-//W3C//DTD SVG 1.1//EN" "http://www.w3.org/Graphics/SVG/1.1/DTD/svg11.dtd">
<svg version="1.1" id="Layer_1" xmlns="http://www.w3.org/2000/svg" xmlns:xlink="http://www.w3.org/1999/xlink" x="0px" y="0px"
	 width="128px" height="128px" viewBox="0 0 128 128" enable-background="new 0 0 128 128" xml:space="preserve">
<g>
	<radialGradient id="SVGID_1_" cx="63.9746" cy="64" r="62.0547" gradientUnits="userSpaceOnUse">
		<stop  offset="0" style="stop-color:#FAFAFA"/>
		<stop  offset="0.3109" style="stop-color:#F4F4F4"/>
		<stop  offset="0.7262" style="stop-color:#E3E3E3"/>
		<stop  offset="1" style="stop-color:#D4D4D4"/>
	</radialGradient>
	<path fill="url(#SVGID_1_)" stroke="#B3B3B3" stroke-width="2" d="M18.855,1.923l90.233,0.006c9.342,0,16.914,7.578,16.914,16.927
		l0.006,90.294c0,9.348-7.574,16.926-16.916,16.926l-90.233-0.004c-9.341,0-16.915-7.58-16.915-16.928L1.941,18.85
		C1.94,9.502,9.514,1.923,18.855,1.923L18.855,1.923z"/>
	<path fill="#B3B3B3" d="M109.119,120.9l-90.372-0.006c-8.541,0-15.588-6.334-16.753-14.561v2.414
		c0,9.35,7.574,16.928,16.915,16.928l90.235,0.004c9.34,0,16.914-7.578,16.914-16.926v-4.803
		C126.055,113.311,118.471,120.9,109.119,120.9z"/>
	<path fill="#FFFFFF" d="M21.897,10.786l84.33,0.004c7.971,0,14.545,5.911,15.631,13.588v-2.254c0-8.724-7.066-15.795-15.783-15.795
		L21.876,6.324c-8.718,0-15.784,7.073-15.784,15.796v4.48C6.094,17.867,13.17,10.786,21.897,10.786z"/>
	<g>
		
			<linearGradient id="SVGID_2_" gradientUnits="userSpaceOnUse" x1="-31.9868" y1="900.3486" x2="-31.9868" y2="874.6113" gradientTransform="matrix(1 0 0 1 123.3823 -838.9521)">
			<stop  offset="0" style="stop-color:#C51015"/>
			<stop  offset="1" style="stop-color:#E20A16"/>
		</linearGradient>
		<path fill="url(#SVGID_2_)" d="M79.822,54.172c-3.113-6.387-0.457-14.093,5.934-17.204c6.391-3.122,14.096-0.47,17.213,5.917
			c3.111,6.386,0.457,14.09-5.939,17.205C90.645,63.207,82.939,60.558,79.822,54.172L79.822,54.172z"/>
		
			<linearGradient id="SVGID_3_" gradientUnits="userSpaceOnUse" x1="-86.71" y1="906.3174" x2="-86.71" y2="932.0576" gradientTransform="matrix(1 0 0 1 123.3823 -838.9521)">
			<stop  offset="0" style="stop-color:#FFD207"/>
			<stop  offset="1" style="stop-color:#FAA61A"/>
		</linearGradient>
		<path fill="url(#SVGID_3_)" d="M25.101,85.877c-3.115-6.387-0.458-14.09,5.933-17.203c6.391-3.119,14.097-0.469,17.211,5.918
			c3.113,6.389,0.459,14.09-5.932,17.209C35.922,94.916,28.217,92.266,25.101,85.877L25.101,85.877z"/>
		
			<linearGradient id="SVGID_4_" gradientUnits="userSpaceOnUse" x1="-59.2871" y1="858.1738" x2="-59.2871" y2="883.9199" gradientTransform="matrix(1 0 0 1 123.3823 -838.9521)">
			<stop  offset="0" style="stop-color:#80E21B"/>
			<stop  offset="1" style="stop-color:#80B400"/>
		</linearGradient>
		<path fill="url(#SVGID_4_)" d="M51.23,32.094c0-7.108,5.761-12.872,12.863-12.872c7.104,0,12.868,5.764,12.868,12.872
			s-5.764,12.874-12.868,12.874C56.991,44.968,51.23,39.203,51.23,32.094L51.23,32.094z"/>
		
			<linearGradient id="SVGID_5_" gradientUnits="userSpaceOnUse" x1="-59.2637" y1="921.9805" x2="-59.2637" y2="947.7285" gradientTransform="matrix(1 0 0 1 123.3823 -838.9521)">
			<stop  offset="0" style="stop-color:#99DBF6"/>
			<stop  offset="1" style="stop-color:#00B2DE"/>
		</linearGradient>
		<path fill="url(#SVGID_5_)" d="M51.253,95.906c0-7.113,5.762-12.877,12.868-12.877c7.103,0,12.863,5.764,12.863,12.877
			c0,7.109-5.76,12.871-12.863,12.871C57.015,108.777,51.253,103.016,51.253,95.906L51.253,95.906z"/>
		
			<linearGradient id="SVGID_6_" gradientUnits="userSpaceOnUse" x1="-32.0127" y1="906.2715" x2="-32.0127" y2="932.0117" gradientTransform="matrix(1 0 0 1 123.3823 -838.9521)">
			<stop  offset="0" style="stop-color:#FF9D00"/>
			<stop  offset="1" style="stop-color:#FF1F00"/>
		</linearGradient>
		<path fill="url(#SVGID_6_)" d="M80.451,73.369c3.766-6.029,11.705-7.857,17.738-4.09c6.025,3.768,7.863,11.711,4.1,17.736
			c-3.766,6.023-11.707,7.855-17.734,4.082C78.523,87.332,76.688,79.393,80.451,73.369L80.451,73.369z"/>
		
			<linearGradient id="SVGID_7_" gradientUnits="userSpaceOnUse" x1="-86.8306" y1="874.7393" x2="-86.8306" y2="900.4775" gradientTransform="matrix(1 0 0 1 123.3823 -838.9521)">
			<stop  offset="0" style="stop-color:#EC008C"/>
			<stop  offset="1" style="stop-color:#C40075"/>
		</linearGradient>
		<path fill="url(#SVGID_7_)" d="M25.633,41.833c3.768-6.023,11.707-7.853,17.736-4.086c6.029,3.768,7.865,11.706,4.102,17.732
			c-3.768,6.026-11.708,7.854-17.734,4.088C23.706,55.797,21.869,47.858,25.633,41.833L25.633,41.833z"/>
		<g>
			<path fill="#FFFFFF" d="M36.545,37.789c5.127,0,9.507,2.777,11.29,6.698c-1.465-4.356-5.965-7.533-11.292-7.533
				c-5.329,0-9.828,3.181-11.291,7.54C27.033,40.57,31.413,37.789,36.545,37.789z"/>
		</g>
		<g>
			<path fill="#FFFFFF" d="M91.699,37.789c5.127,0,9.508,2.777,11.289,6.698c-1.465-4.356-5.963-7.533-11.291-7.533
				s-9.828,3.181-11.291,7.54C82.188,40.57,86.566,37.789,91.699,37.789z"/>
		</g>
		<g>
			<path fill="#FFFFFF" d="M64.007,21.378c5.127,0,9.508,2.779,11.292,6.699c-1.465-4.355-5.965-7.532-11.292-7.532
				c-5.329,0-9.829,3.179-11.29,7.54C54.497,24.162,58.876,21.378,64.007,21.378z"/>
		</g>
		<g>
			<path fill="#FFFFFF" d="M36.545,69.355c5.127,0,9.507,2.777,11.29,6.697c-1.465-4.357-5.965-7.533-11.292-7.533
				c-5.329,0-9.828,3.18-11.291,7.541C27.033,72.135,31.413,69.355,36.545,69.355z"/>
		</g>
		<g>
			<path fill="#FFFFFF" d="M91.699,69.355c5.127,0,9.508,2.777,11.289,6.697c-1.465-4.357-5.963-7.533-11.291-7.533
				s-9.828,3.18-11.291,7.541C82.188,72.135,86.566,69.355,91.699,69.355z"/>
		</g>
		<g>
			<path fill="#FFFFFF" d="M64.007,85.047c5.127,0,9.508,2.775,11.292,6.697c-1.465-4.357-5.965-7.533-11.292-7.533
				c-5.329,0-9.829,3.178-11.29,7.539C54.497,87.828,58.876,85.047,64.007,85.047z"/>
		</g>
		<path fill="#00A6C4" d="M64.122,108.197c-7.008,0-12.697-5.607-12.854-12.582c-0.002,0.1-0.015,0.193-0.015,0.291
			c0,7.109,5.762,12.871,12.868,12.871c7.103,0,12.863-5.762,12.863-12.871c0-0.098-0.012-0.191-0.014-0.291
			C76.814,102.59,71.125,108.197,64.122,108.197z"/>
		<path fill="#70993E" d="M64.122,44.387c-7.008,0-12.697-5.606-12.854-12.581c-0.002,0.098-0.015,0.192-0.015,0.291
			c0,7.109,5.762,12.871,12.868,12.871c7.103,0,12.863-5.762,12.863-12.871c0-0.099-0.012-0.193-0.014-0.291
			C76.814,38.781,71.125,44.387,64.122,44.387z"/>
		<path fill="#DB0F00" d="M91.373,92.48c-7.008,0-12.699-5.607-12.854-12.582c-0.002,0.098-0.016,0.191-0.016,0.291
			c0,7.107,5.762,12.871,12.869,12.871c7.102,0,12.863-5.764,12.863-12.871c0-0.1-0.014-0.193-0.016-0.291
			C104.064,86.873,98.377,92.48,91.373,92.48z"/>
		<path fill="#FA8F1A" d="M36.675,92.527c-7.007,0-12.698-5.609-12.854-12.584c-0.002,0.1-0.015,0.193-0.015,0.291
			c0,7.109,5.762,12.871,12.868,12.871c7.103,0,12.863-5.762,12.863-12.871c0-0.098-0.012-0.191-0.015-0.291
			C49.369,86.918,43.68,92.527,36.675,92.527z"/>
		<path fill="#AD2228" d="M91.373,60.819c-7.008,0-12.699-5.608-12.854-12.583c-0.002,0.098-0.016,0.192-0.016,0.291
			c0,7.109,5.762,12.871,12.869,12.871c7.102,0,12.863-5.762,12.863-12.871c0-0.099-0.014-0.193-0.016-0.291
			C104.064,55.21,98.377,60.819,91.373,60.819z"/>
		<path fill="#AE146A" d="M36.675,60.947c-7.007,0-12.698-5.609-12.854-12.583c-0.002,0.1-0.015,0.193-0.015,0.291
			c0,7.11,5.762,12.871,12.868,12.871c7.103,0,12.863-5.761,12.863-12.871c0-0.098-0.012-0.191-0.015-0.291
			C49.369,55.337,43.68,60.947,36.675,60.947z"/>
	</g>
</g>
</svg>
