<?xml version="1.0" encoding="utf-8"?>
<!-- Generator: Adobe Illustrator 13.0.0, SVG Export Plug-In . SVG Version: 6.00 Build 14948)  -->
<!DOCTYPE svg PUBLIC "-//W3C//DTD SVG 1.1//EN" "http://www.w3.org/Graphics/SVG/1.1/DTD/svg11.dtd">
<svg version="1.1" id="Layer_1" xmlns="http://www.w3.org/2000/svg" xmlns:xlink="http://www.w3.org/1999/xlink" x="0px" y="0px"
	 width="128px" height="128px" viewBox="0 0 128 128" enable-background="new 0 0 128 128" xml:space="preserve">
<g>
	<g>
		<g>
			
				<linearGradient id="SVGID_1_" gradientUnits="userSpaceOnUse" x1="-348.7437" y1="818.4688" x2="-348.7437" y2="937.5156" gradientTransform="matrix(1 0 0 1 412.6201 -813.9912)">
				<stop  offset="0" style="stop-color:#EB7680"/>
				<stop  offset="1" style="stop-color:#C1282F"/>
			</linearGradient>
			<path fill="url(#SVGID_1_)" d="M120.927,70.062c1.581-1.041,2.196-4.994,2.438-9.098v-10.55c0-9.604-7.787-17.393-17.393-17.393
				h-5.593c-5.312-0.043-12.586-0.354-14.063-2.586c-1.713-2.597,16.459-25.959-8.2-25.959c-24.666,0-7.324,23.362-8.207,25.959
				c-0.759,2.231-8.55,2.541-14.021,2.586h-5.634c-9.606,0-17.394,7.789-17.394,17.393v8.986c-0.174,4.617-0.732,9.487-2.516,10.663
				c-2.595,1.717-25.96-16.454-25.96,8.207c0,24.664,23.365,7.319,25.962,8.203c1.781,0.605,2.34,5.69,2.516,10.5v9.157
				c0,9.604,7.785,17.392,17.393,17.392h55.717c9.605,0,17.395-7.787,17.395-17.392V95.346c-0.241-4.269-0.856-8.334-2.438-8.871
				c-2.599-0.881-25.964,16.461-25.964-8.203C94.964,53.61,118.329,71.781,120.927,70.062z"/>
		</g>
	</g>
	<path opacity="0.5" fill="#FFFFFF" d="M78.028,7.998c8.509,0,11.287,3.124,11.594,7.085c0.358-4.72-1.911-8.763-11.594-8.763
		c-9.856,0-12.181,4.187-11.821,9.014C66.51,11.256,69.338,7.998,78.028,7.998z"/>
	<path fill="#B5252B" d="M106.223,120.523H50.506c-9.607,0-17.393-7.787-17.393-17.392v3c0,9.604,7.785,17.392,17.393,17.392h55.717
		c9.605,0,17.395-7.787,17.395-17.392v-3C123.617,112.736,115.828,120.523,106.223,120.523z"/>
	<path opacity="0.5" fill="#FFFFFF" d="M105.303,35.751H50.836c-8.262,0-14.961,6.699-14.961,14.961v3.039
		c0-8.262,6.699-14.961,14.961-14.961h54.467c8.263,0,14.961,6.699,14.961,14.961v-3.039
		C120.264,42.45,113.565,35.751,105.303,35.751z"/>
</g>
</svg>
