<?xml version="1.0" encoding="utf-8"?>
<!-- Generator: Adobe Illustrator 13.0.0, SVG Export Plug-In . SVG Version: 6.00 Build 14948)  -->
<!DOCTYPE svg PUBLIC "-//W3C//DTD SVG 1.1//EN" "http://www.w3.org/Graphics/SVG/1.1/DTD/svg11.dtd">
<svg version="1.1" id="Layer_1" xmlns="http://www.w3.org/2000/svg" xmlns:xlink="http://www.w3.org/1999/xlink" x="0px" y="0px"
	 width="128px" height="128px" viewBox="0 0 128 128" enable-background="new 0 0 128 128" xml:space="preserve">
<g>
	<g>
		<g>
			<linearGradient id="SVGID_1_" gradientUnits="userSpaceOnUse" x1="64.0005" y1="8.4785" x2="64.0005" y2="120.5776">
				<stop  offset="0" style="stop-color:#EC008C"/>
				<stop  offset="1" style="stop-color:#C4008C"/>
			</linearGradient>
			<path fill="url(#SVGID_1_)" d="M112.477,103.41c0,9.477-7.688,17.167-17.167,17.167H32.692c-9.479,0-17.168-7.69-17.168-17.167
				V25.646c0-9.482,7.689-17.168,17.168-17.168H95.31c9.479,0,17.167,7.686,17.167,17.168V103.41z"/>
			<path opacity="0.5" fill="#FFFFFF" d="M93.89,11.851H34.108c-9.049,0-16.391,7.337-16.391,16.391v0.626h1.339
				c2.513-5.828,8.304-9.912,15.052-9.912H93.89c6.752,0,12.543,4.084,15.055,9.912h1.34v-0.626
				C110.284,19.188,102.946,11.851,93.89,11.851z"/>
			<path opacity="0.25" fill="#AE146A" d="M47.638,75.99c-11.459,0-22.32-1.334-32.113-3.716v31.136
				c0,9.477,7.689,17.167,17.168,17.167H95.31c9.479,0,17.167-7.69,17.167-17.167V57.33C98.575,68.571,74.729,75.99,47.638,75.99z"
				/>
			<path fill="#AE146A" d="M32.696,120.577H95.31c9.482,0,17.167-7.69,17.167-17.167v-4.65c0,9.482-7.685,17.172-17.167,17.172
				H32.696c-9.482,0-17.168-7.689-17.168-17.172v4.65C15.528,112.887,23.214,120.577,32.696,120.577z"/>
		</g>
		<g>
			<linearGradient id="SVGID_2_" gradientUnits="userSpaceOnUse" x1="49.2417" y1="107.7676" x2="49.2417" y2="67.4297">
				<stop  offset="0.0824" style="stop-color:#C2C2C2"/>
				<stop  offset="0.2635" style="stop-color:#D2D2D2"/>
				<stop  offset="0.5594" style="stop-color:#E6E6E6"/>
				<stop  offset="0.7582" style="stop-color:#EDEDED"/>
			</linearGradient>
			<path fill="url(#SVGID_2_)" d="M63.487,96.35c0,3.635-1.121,6.445-3.368,8.438c-2.247,1.985-5.185,2.979-8.812,2.979H34.996
				V67.43h15.69c3.777,0,6.752,0.99,8.926,2.967c2.168,1.977,3.257,4.661,3.257,8.045c0,1.998-0.569,3.822-1.702,5.484
				c-1.02,1.392-2.268,2.41-3.736,3.045C61.47,88.566,63.487,91.692,63.487,96.35z M56.751,78.675c0-1.841-0.609-3.249-1.816-4.228
				c-1.13-1.015-2.718-1.521-4.76-1.521H41.11V84.42h9.064c2.042,0,3.646-0.49,4.816-1.484
				C56.162,81.937,56.751,80.517,56.751,78.675z M57.373,96.067c0-1.821-0.577-3.302-1.727-4.44
				c-1.153-1.137-2.788-1.706-4.903-1.706H41.11v12.351h9.633c2.001,0,3.627-0.568,4.875-1.707
				C56.788,99.387,57.373,97.893,57.373,96.067z"/>
			<linearGradient id="SVGID_3_" gradientUnits="userSpaceOnUse" x1="81.3643" y1="108.1074" x2="81.3643" y2="78.7031">
				<stop  offset="0.0824" style="stop-color:#C2C2C2"/>
				<stop  offset="0.2635" style="stop-color:#D2D2D2"/>
				<stop  offset="0.5594" style="stop-color:#E6E6E6"/>
				<stop  offset="0.7582" style="stop-color:#EDEDED"/>
			</linearGradient>
			<path fill="url(#SVGID_3_)" d="M93.005,107.768h-5.663v-2.607c-1.965,1.965-4.515,2.947-7.649,2.947
				c-3.4,0-5.966-0.867-7.705-2.607c-1.511-1.588-2.264-3.641-2.264-6.175c0-2.455,0.863-4.448,2.595-5.976
				c1.731-1.529,4.19-2.299,7.384-2.299h7.64v-2.039c0-3.584-2.116-5.381-6.343-5.381c-2.746,0-4.863,0.924-6.344,2.774
				l-3.797-3.568c1.28-1.507,2.708-2.574,4.275-3.2c1.566-0.617,3.578-0.934,6.033-0.934c7.893,0,11.838,3.287,11.838,9.855V107.768
				z M87.342,97.397v-2.32h-6.806c-3.467,0-5.205,1.379-5.205,4.134c0,2.721,1.775,4.084,5.319,4.084
				c2.477,0,4.289-0.553,5.435-1.646C86.925,100.818,87.342,99.402,87.342,97.397z"/>
		</g>
	</g>
	<g>
		
			<linearGradient id="SVGID_4_" gradientUnits="userSpaceOnUse" x1="-1219.9351" y1="-1691.9326" x2="-1219.9351" y2="-1644.6113" gradientTransform="matrix(1 0 0 1 1283.9355 1694.668)">
			<stop  offset="0" style="stop-color:#80E21B"/>
			<stop  offset="1" style="stop-color:#80B400"/>
		</linearGradient>
		<path fill="url(#SVGID_4_)" stroke="#70993E" stroke-miterlimit="3.8637" d="M81.161,35.364c1.133-1.189,1.725-2.559,1.725-4.226
			c0-1.604-0.596-3.034-1.725-4.224c-1.189-1.129-2.617-1.725-4.221-1.725c-1.666-0.003-3.094,0.595-4.225,1.725l-2.736,2.797
			L69.978,8.684c-0.059-1.664-0.594-3.092-1.783-4.224c-1.131-1.19-2.559-1.725-4.166-1.725c-1.666,0-3.09,0.534-4.221,1.725
			c-1.189,1.13-1.787,2.558-1.787,4.222l0.002,21.028l-2.734-2.797c-1.189-1.13-2.557-1.727-4.225-1.727
			c-1.607,0-3.033,0.597-4.221,1.726c-1.131,1.189-1.727,2.616-1.727,4.224c0,1.666,0.596,3.035,1.727,4.226L59.81,48.272
			c1.133,1.189,2.559,1.784,4.223,1.784c1.607,0,3.031-0.593,4.166-1.782L81.161,35.364z"/>
		<g opacity="0.5">
			<path fill="#FFFFFF" d="M60.585,6.242c0.922-0.971,2.082-1.407,3.439-1.407c1.311,0,2.473,0.437,3.395,1.407
				c0.939,0.894,1.375,2.015,1.443,3.318h0.01V9.042c-0.049-1.355-0.484-2.519-1.453-3.44c-0.922-0.97-2.084-1.405-3.395-1.405
				c-1.357,0-2.518,0.436-3.439,1.405c-0.969,0.92-1.455,2.083-1.455,3.439v0.64C59.132,8.325,59.616,7.162,60.585,6.242z"/>
		</g>
	</g>
</g>
</svg>
