<?xml version="1.0" encoding="utf-8"?>
<!-- Generator: Adobe Illustrator 13.0.0, SVG Export Plug-In . SVG Version: 6.00 Build 14948)  -->
<!DOCTYPE svg PUBLIC "-//W3C//DTD SVG 1.1//EN" "http://www.w3.org/Graphics/SVG/1.1/DTD/svg11.dtd">
<svg version="1.1" id="Layer_1" xmlns="http://www.w3.org/2000/svg" xmlns:xlink="http://www.w3.org/1999/xlink" x="0px" y="0px"
	 width="128px" height="128px" viewBox="0 0 128 128" enable-background="new 0 0 128 128" xml:space="preserve">
<g>
	<g>
		<g>
			
				<linearGradient id="SVGID_1_" gradientUnits="userSpaceOnUse" x1="-307.0815" y1="-718.8247" x2="-307.0815" y2="-773.0005" gradientTransform="matrix(1 0 0 -1 370.0342 -712.6914)">
				<stop  offset="0" style="stop-color:#D5D7D8"/>
				<stop  offset="1" style="stop-color:#5C5F61"/>
			</linearGradient>
			<path fill="url(#SVGID_1_)" stroke="#808080" d="M79.813,52.996v-15.37c-0.014-9.316-7.549-16.85-16.854-16.863l0,0
				c-9.319,0.016-16.853,7.547-16.864,16.863l0,0v15.37c0,4.035-3.273,7.313-7.315,7.313l0,0c-4.04,0-7.317-3.276-7.317-7.313l0,0
				v-15.37C31.468,20.231,45.563,6.141,62.96,6.133l0,0c17.393,0.008,31.477,14.098,31.482,31.492l0,0v15.37
				c0,4.035-3.277,7.313-7.313,7.313l0,0C83.091,60.307,79.813,57.032,79.813,52.996L79.813,52.996z"/>
		</g>
		<path opacity="0.45" fill="#CCCCCC" d="M62.96,8.422C46.685,8.43,33.497,21.611,33.493,37.883v3.742
			c0.004-16.272,13.191-29.454,29.467-29.461c16.27,0.007,29.445,13.188,29.451,29.461v-3.742
			C92.405,21.611,79.229,8.43,62.96,8.422z"/>
		
			<linearGradient id="SVGID_2_" gradientUnits="userSpaceOnUse" x1="-307.0815" y1="-763.022" x2="-307.0815" y2="-834.5591" gradientTransform="matrix(1 0 0 -1 370.0342 -712.6914)">
			<stop  offset="0" style="stop-color:#EB7680"/>
			<stop  offset="1" style="stop-color:#C1282F"/>
		</linearGradient>
		<path fill="url(#SVGID_2_)" d="M110.169,105.609c0,8.977-7.634,16.258-17.041,16.258H32.776c-9.413,0-17.041-7.281-17.041-16.258
			V66.584c0-8.98,7.628-16.253,17.041-16.253h60.352c9.407,0,17.041,7.271,17.041,16.253V105.609z"/>
		
			<linearGradient id="SVGID_3_" gradientUnits="userSpaceOnUse" x1="-307.0825" y1="-819.4175" x2="-307.0825" y2="-782.1597" gradientTransform="matrix(1 0 0 -1 370.0342 -712.6914)">
			<stop  offset="0" style="stop-color:#EB7680"/>
			<stop  offset="1" style="stop-color:#C1282F"/>
		</linearGradient>
		<path fill="url(#SVGID_3_)" d="M54.009,97.783v-9.482c-1.619-1.979-2.608-4.52-2.604-7.281l0,0c0-6.385,5.168-11.551,11.55-11.551
			l0,0c6.38,0,11.546,5.166,11.546,11.551l0,0c0,2.76-0.983,5.301-2.603,7.279l0,0v9.484c0,4.941-4.006,8.943-8.943,8.943l0,0
			C58.013,106.727,54.009,102.723,54.009,97.783L54.009,97.783z M54.263,81.018c0,2.236,0.848,4.254,2.235,5.801l0,0l0.366,0.406
			v10.559c0.006,3.361,2.729,6.08,6.089,6.088l0,0c3.36-0.008,6.077-2.727,6.087-6.088l0,0V87.225l0.362-0.406
			c1.396-1.547,2.235-3.564,2.235-5.801l0,0c-0.006-4.803-3.889-8.684-8.687-8.695l0,0C58.153,72.336,54.269,76.217,54.263,81.018
			L54.263,81.018z"/>
		
			<linearGradient id="SVGID_4_" gradientUnits="userSpaceOnUse" x1="-307.0845" y1="-816.562" x2="-307.0845" y2="-785.0132" gradientTransform="matrix(1 0 0 -1 370.0342 -712.6914)">
			<stop  offset="0.0824" style="stop-color:#C2C2C2"/>
			<stop  offset="0.2635" style="stop-color:#D2D2D2"/>
			<stop  offset="0.5594" style="stop-color:#E6E6E6"/>
			<stop  offset="0.7582" style="stop-color:#EDEDED"/>
		</linearGradient>
		<path fill="url(#SVGID_4_)" d="M54.263,81.018c0,2.236,0.848,4.254,2.235,5.801l0,0l0.366,0.406v10.559
			c0.006,3.361,2.729,6.08,6.089,6.088l0,0c3.36-0.008,6.077-2.727,6.087-6.088l0,0V87.225l0.362-0.406
			c1.396-1.547,2.235-3.564,2.235-5.801l0,0c-0.006-4.803-3.889-8.684-8.687-8.695l0,0C58.153,72.336,54.271,76.217,54.263,81.018
			L54.263,81.018z"/>
		<path fill="#AC2428" d="M93.128,118.867H32.776c-9.413,0-17.041-7.281-17.041-16.258v3c0,8.977,7.628,16.258,17.041,16.258h60.352
			c9.407,0,17.041-7.281,17.041-16.258v-3C110.169,111.586,102.535,118.867,93.128,118.867z"/>
		<path opacity="0.5" fill="#EC8690" d="M90.999,54.331H34.905c-8.75,0-15.84,6.761-15.84,15.107v11.52
			c0-8.346,7.09-15.107,15.84-15.107h56.094c8.744,0,15.84,6.76,15.84,15.107v-11.52C106.839,61.089,99.743,54.331,90.999,54.331z"
			/>
		<path fill="#FFFFFF" d="M34.905,54.351h56.1c10.082,0.143,15.84,8.769,15.84,17.112v-2.789c0-8.343-7.092-15.112-15.84-15.112
			h-56.1c-8.744,0-15.84,6.769-15.84,15.112v2.789C19.065,63.12,25.189,54.494,34.905,54.351z"/>
	</g>
	<g>
		<g>
			
				<linearGradient id="SVGID_5_" gradientUnits="userSpaceOnUse" x1="2797.6211" y1="-3408.3936" x2="2747.0483" y2="-3356.6272" gradientTransform="matrix(0.49 -0.4786 0.4787 0.4805 347.8672 2998.0625)">
				<stop  offset="0" style="stop-color:#5F5D5C"/>
				<stop  offset="1" style="stop-color:#181500"/>
			</linearGradient>
			<path fill="url(#SVGID_5_)" d="M108.452,25.122c-5.168-5.189-13.645-5.207-18.934-0.041c-4.184,4.088-5.105,10.189-2.758,15.131
				L63.269,63.158c-1.738,1.698-1.771,4.461-0.072,6.167c1.701,1.707,4.49,1.713,6.229,0.014L71.821,67l2.262,2.27
				c1.193,1.199,3.709,0.668,5.609-1.191c1.904-1.855,2.479-4.338,1.279-5.542l-2.26-2.268l14.205-13.878
				c4.957,2.395,11.131,1.562,15.314-2.523C113.521,38.702,113.62,30.307,108.452,25.122z M104.841,33.985
				c-1.523,1.486-3.965,1.482-5.453-0.01c-1.488-1.496-1.459-3.914,0.064-5.4c1.521-1.488,3.965-1.482,5.449,0.012
				C106.392,30.081,106.364,32.499,104.841,33.985z"/>
		</g>
		<g>
			<linearGradient id="SVGID_6_" gradientUnits="userSpaceOnUse" x1="87.1035" y1="21.2178" x2="87.1035" y2="70.6089">
				<stop  offset="0" style="stop-color:#5F5D5C"/>
				<stop  offset="1" style="stop-color:#181500"/>
			</linearGradient>
			<path fill="url(#SVGID_6_)" d="M108.452,25.122c-5.168-5.189-13.645-5.207-18.934-0.041c-4.184,4.088-5.105,10.189-2.758,15.131
				L63.269,63.158c-1.738,1.698-1.771,4.461-0.072,6.167c1.701,1.707,4.49,1.713,6.229,0.014L71.821,67l2.262,2.27
				c1.193,1.199,3.709,0.668,5.609-1.191c1.904-1.855,2.479-4.338,1.279-5.542l-2.26-2.268l14.205-13.878
				c4.957,2.395,11.131,1.562,15.314-2.523C113.521,38.702,113.62,30.307,108.452,25.122z M104.841,33.985
				c-1.523,1.486-3.965,1.482-5.453-0.01c-1.488-1.496-1.459-3.914,0.064-5.4c1.521-1.488,3.965-1.482,5.449,0.012
				C106.392,30.081,106.364,32.499,104.841,33.985z"/>
		</g>
	</g>
	<path opacity="0.5" fill="#FFFFFF" d="M64.209,65.543c-0.279,0.279-0.619,0.393-0.758,0.252l0,0
		c-0.141-0.141-0.027-0.479,0.252-0.758L86.5,42.241c0.278-0.28,0.618-0.394,0.757-0.252l0,0c0.141,0.138,0.028,0.478-0.251,0.757
		L64.209,65.543z"/>
	<g opacity="0.5">
		<path fill="#FFFFFF" d="M90.734,27.156c4.684-4.574,12.189-4.559,16.766,0.037c2.05,2.057,3.156,4.685,3.34,7.369
			c0.193-3.189-0.908-6.432-3.34-8.873c-4.576-4.595-12.082-4.61-16.766-0.036c-2.578,2.519-3.753,5.901-3.531,9.201
			C87.377,32.052,88.547,29.294,90.734,27.156z"/>
	</g>
</g>
</svg>
