<?xml version="1.0" encoding="utf-8"?>
<!-- Generator: Adobe Illustrator 13.0.0, SVG Export Plug-In . SVG Version: 6.00 Build 14948)  -->
<!DOCTYPE svg PUBLIC "-//W3C//DTD SVG 1.1//EN" "http://www.w3.org/Graphics/SVG/1.1/DTD/svg11.dtd">
<svg version="1.1" id="Layer_1" xmlns="http://www.w3.org/2000/svg" xmlns:xlink="http://www.w3.org/1999/xlink" x="0px" y="0px"
	 width="128px" height="128px" viewBox="0 0 128 128" enable-background="new 0 0 128 128" xml:space="preserve">
<g>
	<radialGradient id="SVGID_1_" cx="63.9746" cy="64" r="62.0547" gradientUnits="userSpaceOnUse">
		<stop  offset="0" style="stop-color:#FAFAFA"/>
		<stop  offset="0.3109" style="stop-color:#F4F4F4"/>
		<stop  offset="0.7262" style="stop-color:#E3E3E3"/>
		<stop  offset="1" style="stop-color:#D4D4D4"/>
	</radialGradient>
	<path fill="url(#SVGID_1_)" stroke="#B3B3B3" stroke-width="2" d="M18.855,1.923l90.233,0.006c9.342,0,16.914,7.578,16.914,16.927
		l0.006,90.294c0,9.348-7.574,16.926-16.916,16.926l-90.233-0.002c-9.341,0-16.915-7.582-16.915-16.93L1.941,18.85
		C1.94,9.502,9.514,1.923,18.855,1.923L18.855,1.923z"/>
	<path fill="#B3B3B3" d="M109.119,120.9l-90.372-0.006c-8.541,0-15.588-6.334-16.753-14.561v2.414
		c0,9.35,7.574,16.928,16.915,16.928l90.235,0.004c9.34,0,16.914-7.578,16.914-16.926v-4.803
		C126.055,113.311,118.471,120.9,109.119,120.9z"/>
	<path fill="#FFFFFF" d="M21.897,10.786l84.33,0.004c7.971,0,14.545,5.911,15.631,13.588v-2.254c0-8.724-7.066-15.795-15.783-15.795
		L21.876,6.324c-8.718,0-15.784,7.073-15.784,15.796v4.48C6.094,17.867,13.17,10.786,21.897,10.786z"/>
	<g>
		<g>
			
				<linearGradient id="SVGID_2_" gradientUnits="userSpaceOnUse" x1="-1404.7544" y1="5895.2588" x2="-1319.7832" y2="5895.2588" gradientTransform="matrix(0 1.1214 -1.1214 5.409155e-06 6671.917 1595.0625)">
				<stop  offset="0" style="stop-color:#99DBF6"/>
				<stop  offset="1" style="stop-color:#00B2DE"/>
			</linearGradient>
			<path fill="url(#SVGID_2_)" stroke="#00B2DE" d="M87.119,91.016L64.07,72.26v0.002L58.5,67.73l5.523-4.497l0,0l23.096-18.789
				c1.061-0.865,1.223-2.429,0.359-3.492c-0.041-0.049-0.09-0.088-0.133-0.133c-0.082-0.089-0.162-0.18-0.258-0.26L62.804,20.578
				L62.8,20.593c-0.416-0.314-0.926-0.507-1.486-0.507c-1.373,0-2.482,1.112-2.482,2.482v38.489l-4.268,3.469l-16.113-13.11
				l-0.003,0.006l-0.481-0.395c-1.064-0.865-2.631-0.705-3.496,0.357c-0.864,1.062-0.703,2.629,0.36,3.494l2.719,2.214l0.004-0.004
				L50.63,67.729L37.554,78.367l-0.003-0.004l-2.721,2.215c-1.062,0.865-1.224,2.432-0.36,3.49c0.867,1.066,2.432,1.227,3.496,0.359
				l0.484-0.391v0.004l16.115-13.109l4.266,3.471v38.488c0,1.369,1.111,2.482,2.484,2.482c0.559,0,1.07-0.193,1.484-0.506
				l0.006,0.014l24.282-19.984c0.096-0.078,0.178-0.168,0.258-0.256c0.045-0.047,0.094-0.084,0.135-0.135
				C88.342,93.443,88.18,91.879,87.119,91.016z M63.798,27.838l17.829,14.67L63.798,57.015V27.838z M63.798,107.621v-29.18
				l17.829,14.508L63.798,107.621z"/>
		</g>
		<g>
			<linearGradient id="SVGID_3_" gradientUnits="userSpaceOnUse" x1="60.9741" y1="20.0864" x2="60.9741" y2="115.3735">
				<stop  offset="0" style="stop-color:#99DBF6"/>
				<stop  offset="1" style="stop-color:#00B2DE"/>
			</linearGradient>
			<path fill="url(#SVGID_3_)" stroke="#00B2DE" d="M87.119,91.016L64.07,72.26v0.002L58.5,67.73l5.523-4.497l0,0l23.096-18.789
				c1.061-0.865,1.223-2.429,0.359-3.492c-0.041-0.049-0.09-0.088-0.133-0.133c-0.082-0.089-0.162-0.18-0.258-0.26L62.804,20.578
				L62.8,20.593c-0.416-0.314-0.926-0.507-1.486-0.507c-1.373,0-2.482,1.112-2.482,2.482v38.489l-4.268,3.469l-16.113-13.11
				l-0.003,0.006l-0.481-0.395c-1.064-0.865-2.631-0.705-3.496,0.357c-0.864,1.062-0.703,2.629,0.36,3.494l2.719,2.214l0.004-0.004
				L50.63,67.729L37.554,78.367l-0.003-0.004l-2.721,2.215c-1.062,0.865-1.224,2.432-0.36,3.49c0.867,1.066,2.432,1.227,3.496,0.359
				l0.484-0.391v0.004l16.115-13.109l4.266,3.471v38.488c0,1.369,1.111,2.482,2.484,2.482c0.559,0,1.07-0.193,1.484-0.506
				l0.006,0.014l24.282-19.984c0.096-0.078,0.178-0.168,0.258-0.256c0.045-0.047,0.094-0.084,0.135-0.135
				C88.342,93.443,88.18,91.879,87.119,91.016z M63.798,27.838l17.829,14.67L63.798,57.015V27.838z M63.798,107.621v-29.18
				l17.829,14.508L63.798,107.621z"/>
		</g>
	</g>
</g>
</svg>
