<?xml version="1.0" encoding="utf-8"?>
<!-- Generator: Adobe Illustrator 13.0.0, SVG Export Plug-In . SVG Version: 6.00 Build 14948)  -->
<!DOCTYPE svg PUBLIC "-//W3C//DTD SVG 1.1//EN" "http://www.w3.org/Graphics/SVG/1.1/DTD/svg11.dtd">
<svg version="1.1" id="Layer_1" xmlns="http://www.w3.org/2000/svg" xmlns:xlink="http://www.w3.org/1999/xlink" x="0px" y="0px"
	 width="128px" height="128px" viewBox="0 0 128 128" enable-background="new 0 0 128 128" xml:space="preserve">
<g>
	<radialGradient id="SVGID_1_" cx="63.9746" cy="64" r="62.0547" gradientUnits="userSpaceOnUse">
		<stop  offset="0" style="stop-color:#FAFAFA"/>
		<stop  offset="0.3109" style="stop-color:#F4F4F4"/>
		<stop  offset="0.7262" style="stop-color:#E3E3E3"/>
		<stop  offset="1" style="stop-color:#D4D4D4"/>
	</radialGradient>
	<path fill="url(#SVGID_1_)" stroke="#B3B3B3" stroke-width="2" d="M18.855,1.923l90.231,0.006c9.344,0,16.916,7.578,16.916,16.927
		l0.006,90.294c0,9.348-7.576,16.926-16.916,16.926l-90.233-0.002c-9.341,0-16.915-7.582-16.915-16.93L1.941,18.85
		C1.94,9.502,9.514,1.923,18.855,1.923L18.855,1.923z"/>
	<path fill="#B3B3B3" d="M109.117,120.9l-90.37-0.006c-8.541,0-15.588-6.334-16.753-14.561v2.414c0,9.35,7.574,16.928,16.915,16.928
		l90.235,0.004c9.34,0,16.914-7.578,16.914-16.926v-4.803C126.053,113.311,118.471,120.9,109.117,120.9z"/>
	<path fill="#FFFFFF" d="M21.897,10.786l84.33,0.004c7.971,0,14.543,5.911,15.631,13.588v-2.254c0-8.724-7.066-15.795-15.783-15.795
		L21.876,6.324c-8.718,0-15.784,7.073-15.784,15.796v4.48C6.094,17.867,13.17,10.786,21.897,10.786z"/>
	<g>
		
			<linearGradient id="SVGID_2_" gradientUnits="userSpaceOnUse" x1="-367.8164" y1="892.0811" x2="-399.6394" y2="869.7985" gradientTransform="matrix(1 0 0 1 412.6201 -813.9912)">
			<stop  offset="0" style="stop-color:#80C11B"/>
			<stop  offset="1" style="stop-color:#80E21B"/>
		</linearGradient>
		<path fill="url(#SVGID_2_)" stroke="#80C11B" d="M44.564,75.221c-0.721,4.318-2.541,7.68-5.461,10.08
			c-2.76,2.279-6.179,3.42-10.259,3.42c-4.559,0-8.398-1.561-11.52-4.682c-1.881-1.879-3.119-4.34-3.721-7.379
			c-0.16-0.879-0.279-2.07-0.359-3.57s-0.119-3.529-0.119-6.09c0-4.838,0.158-8.059,0.479-9.66c0.561-3.038,1.801-5.5,3.721-7.381
			c3.121-3.119,6.961-4.681,11.52-4.681c4.08,0,7.531,1.142,10.351,3.42c2.818,2.281,4.609,5.642,5.369,10.08h-8.461
			c-0.958-4.039-3.357-6.059-7.197-6.059c-2.521,0-4.461,0.939-5.82,2.818c-1.08,1.521-1.621,5.34-1.621,11.459
			c0,1.561,0,2.84,0,3.84s0.039,1.801,0.121,2.4c0.24,2.6,0.898,4.539,1.979,5.82c1.359,1.479,3.141,2.219,5.342,2.219
			c3.799,0,6.197-2.021,7.197-6.061h8.461V75.221z"/>
		
			<linearGradient id="SVGID_3_" gradientUnits="userSpaceOnUse" x1="-332.4521" y1="892.6475" x2="-364.5375" y2="870.1811" gradientTransform="matrix(1 0 0 1 412.6201 -813.9912)">
			<stop  offset="0" style="stop-color:#80C11B"/>
			<stop  offset="1" style="stop-color:#80E21B"/>
		</linearGradient>
		<path fill="url(#SVGID_3_)" stroke="#80C11B" d="M79.365,75.76c0,4-1.49,7.16-4.471,9.48c-2.979,2.32-6.77,3.48-11.369,3.48
			c-6.641,0-11.842-1.883-15.602-5.643l5.4-5.398c2.4,2.398,5.84,3.6,10.32,3.6c5.039,0,7.561-1.76,7.561-5.279
			c0-1.52-0.42-2.699-1.26-3.541c-0.803-0.719-2.08-1.238-3.842-1.559l-5.158-0.721c-7.562-1.039-11.342-5.021-11.342-11.94
			c0-3.84,1.33-6.961,3.99-9.36c2.66-2.397,6.289-3.601,10.891-3.601c5.76,0,10.359,1.66,13.801,4.98l-5.281,5.221
			c-2.078-1.961-5-2.94-8.758-2.94c-2.121,0-3.75,0.513-4.891,1.53c-1.141,1.021-1.711,2.31-1.711,3.869
			c0,1.201,0.449,2.23,1.352,3.09c0.898,0.861,2.189,1.41,3.869,1.65l5.041,0.721c3.6,0.479,6.318,1.581,8.158,3.299
			C78.264,68.779,79.365,71.801,79.365,75.76z"/>
		
			<linearGradient id="SVGID_4_" gradientUnits="userSpaceOnUse" x1="-296.9937" y1="892.6484" x2="-329.0789" y2="870.182" gradientTransform="matrix(1 0 0 1 412.6201 -813.9912)">
			<stop  offset="0" style="stop-color:#80C11B"/>
			<stop  offset="1" style="stop-color:#80E21B"/>
		</linearGradient>
		<path fill="url(#SVGID_4_)" stroke="#80C11B" d="M114.824,75.76c0,4-1.49,7.16-4.471,9.48c-2.979,2.32-6.77,3.48-11.369,3.48
			c-6.641,0-11.842-1.883-15.602-5.643l5.4-5.398c2.398,2.398,5.84,3.6,10.318,3.6c5.041,0,7.562-1.76,7.562-5.279
			c0-1.52-0.42-2.699-1.26-3.541c-0.803-0.719-2.08-1.238-3.842-1.559l-5.158-0.721c-7.562-1.039-11.342-5.02-11.342-11.938
			c0-3.84,1.33-6.961,3.99-9.361c2.66-2.398,6.289-3.6,10.891-3.6c5.76,0,10.359,1.66,13.801,4.98l-5.279,5.221
			c-2.08-1.961-5-2.941-8.762-2.941c-2.119,0-3.75,0.512-4.891,1.531s-1.709,2.309-1.709,3.869c0,1.201,0.449,2.229,1.35,3.09
			c0.9,0.861,2.189,1.41,3.871,1.65l5.039,0.721c3.602,0.479,6.318,1.581,8.16,3.299C113.723,68.779,114.824,71.801,114.824,75.76z"
			/>
	</g>
</g>
</svg>
