<?xml version="1.0" encoding="utf-8"?>
<!-- Generator: Adobe Illustrator 13.0.0, SVG Export Plug-In . SVG Version: 6.00 Build 14948)  -->
<!DOCTYPE svg PUBLIC "-//W3C//DTD SVG 1.1//EN" "http://www.w3.org/Graphics/SVG/1.1/DTD/svg11.dtd">
<svg version="1.1" id="Layer_1" xmlns="http://www.w3.org/2000/svg" xmlns:xlink="http://www.w3.org/1999/xlink" x="0px" y="0px"
	 width="128px" height="128px" viewBox="0 0 128 128" enable-background="new 0 0 128 128" xml:space="preserve">
<g>
	<g>
		<g>
			<path fill="#F2F2F2" d="M32.821,67.893c1.446-0.9,3.155-1.426,4.983-1.426h61.427c1.808,0,3.5,0.514,4.937,1.395l0.729-0.658
				c-1.635-1.062-3.576-1.686-5.665-1.686H37.805c-2.082,0-4.018,0.617-5.645,1.672L32.821,67.893z"/>
			<radialGradient id="SVGID_1_" cx="68.4561" cy="94.1777" r="35.6035" gradientUnits="userSpaceOnUse">
				<stop  offset="0" style="stop-color:#FAFAFA"/>
				<stop  offset="0.3629" style="stop-color:#E5E5E5"/>
				<stop  offset="1" style="stop-color:#C4C4C4"/>
			</radialGradient>
			<path fill="url(#SVGID_1_)" stroke="#808080" d="M60.177,119.4L31.221,76.588c-4.479-7.396-2.538-13.448,4.309-13.448h66.146
				c6.847,0,8.488,5.657,3.644,12.565l-28.198,44.576C72.279,127.189,64.656,126.795,60.177,119.4L60.177,119.4z"/>
			<radialGradient id="SVGID_2_" cx="69.2285" cy="30.4111" r="27.6172" gradientUnits="userSpaceOnUse">
				<stop  offset="0" style="stop-color:#FAFAFA"/>
				<stop  offset="0.4142" style="stop-color:#E3E3E3"/>
				<stop  offset="1" style="stop-color:#C7C7C7"/>
			</radialGradient>
			<path fill="url(#SVGID_2_)" stroke="#808080" d="M41.62,30.411c0-15.257,12.361-27.626,27.609-27.626
				c15.247,0,27.606,12.37,27.606,27.626c0,15.26-12.359,27.627-27.606,27.627C53.981,58.038,41.62,45.671,41.62,30.411
				L41.62,30.411z"/>
			<linearGradient id="SVGID_3_" gradientUnits="userSpaceOnUse" x1="81.6982" y1="16.3657" x2="81.6982" y2="30.7607">
				<stop  offset="0" style="stop-color:#80C11B"/>
				<stop  offset="1" style="stop-color:#80E21B"/>
			</linearGradient>
			<path fill="url(#SVGID_3_)" d="M74.505,23.563c0-3.977,3.219-7.197,7.194-7.197c3.972,0,7.192,3.221,7.192,7.197
				c0,3.976-3.221,7.198-7.192,7.198C77.724,30.761,74.505,27.539,74.505,23.563L74.505,23.563z"/>
			<path opacity="0.5" fill="#FFFFFF" d="M81.688,23.395c1.981,1.655,4.662,0.746,6.331-0.119c-0.247-3.333-3.023-5.958-6.415-5.958
				c-3.405,0-6.19,2.647-6.416,5.998C76.732,22.558,79.558,21.61,81.688,23.395z"/>
			<path fill="#F2F2F2" d="M49.182,16.104C53.793,9.776,62.269,4.926,70.19,4.926c7.925,0,16.186,4.85,20.794,11.179h0.876
				C86.976,8.656,79.045,3.781,70.084,3.781c-8.964,0-16.894,4.875-21.779,12.324H49.182z"/>
			<linearGradient id="SVGID_4_" gradientUnits="userSpaceOnUse" x1="69.377" y1="52.7446" x2="69.377" y2="40.4229">
				<stop  offset="0" style="stop-color:#00B2DE"/>
				<stop  offset="1" style="stop-color:#99DBF6"/>
			</linearGradient>
			<path fill="url(#SVGID_4_)" d="M90.282,40.423C85.668,46.753,77.193,51.6,69.268,51.6c-7.924,0-16.183-4.847-20.793-11.177H47.6
				c4.884,7.451,12.814,12.322,21.774,12.322c8.965,0,16.894-4.871,21.781-12.322H90.282z"/>
			<path fill="#BFBFBF" d="M104.489,70.49c-0.023,1.449-0.429,2.91-1.27,4.219l-28.175,43.914c-0.828,1.293-1.971,2.264-3.261,2.889
				l0.136,0.822c1.51-0.68,2.845-1.781,3.805-3.275l28.177-43.914c0.955-1.484,1.397-3.154,1.393-4.803L104.489,70.49z"/>
			<path opacity="0.5" fill="#FFFFFF" d="M38.299,84.498c8.211-6.482,18.571-10.361,29.848-10.361
				c11.104,0,21.324,3.766,29.474,10.074l4.963-7.84c4.523-6.457,2.99-11.74-3.405-11.74H37.383c-6.399,0-8.209,5.654-4.026,12.561
				L38.299,84.498z"/>
		</g>
	</g>
	<g>
		
			<linearGradient id="SVGID_5_" gradientUnits="userSpaceOnUse" x1="-92.147" y1="884.8496" x2="-92.147" y2="919.4102" gradientTransform="matrix(1 0 0 1 123.3823 -838.9521)">
			<stop  offset="0" style="stop-color:#FF9D00"/>
			<stop  offset="1" style="stop-color:#FF1F00"/>
		</linearGradient>
		<path fill="url(#SVGID_5_)" d="M31.132,45.898c-1.188,0.009-2.268,0.693-2.785,1.761c0,0-2.792,5.763-3.807,7.856
			c-2.3,0.352-8.627,1.318-8.627,1.318c-1.06,0.161-1.951,0.853-2.381,1.815c-0.047,0.108-0.089,0.215-0.124,0.328
			c-0.358,1.132-0.044,2.371,0.813,3.194c0,0,4.618,4.436,6.295,6.047c-0.376,2.295-1.411,8.613-1.411,8.613
			c-0.192,1.172,0.297,2.352,1.264,3.045c0.966,0.691,2.241,0.773,3.289,0.211c0,0,5.646-3.021,7.696-4.117
			c2.066,1.066,7.756,4.006,7.756,4.006c1.058,0.545,2.329,0.443,3.285-0.264c0.445-0.326,0.783-0.758,0.999-1.24
			c0.249-0.562,0.333-1.193,0.222-1.82c0,0-1.13-6.305-1.54-8.594c1.653-1.633,6.206-6.138,6.206-6.138
			c0.281-0.278,0.5-0.6,0.656-0.949c0.311-0.7,0.36-1.503,0.109-2.255c-0.375-1.129-1.357-1.945-2.535-2.107
			c0,0-6.344-0.873-8.646-1.191c-1.046-2.078-3.922-7.799-3.922-7.799C33.411,46.557,32.32,45.89,31.132,45.898L31.132,45.898z"/>
		<g opacity="0.3">
			<path opacity="0.63" fill="#FFFFFF" d="M39.256,55.609c-0.54-0.074-1.02-0.14-1.39-0.191c-1.046-2.078-3.922-7.799-3.922-7.799
				c-0.533-1.062-1.624-1.729-2.812-1.721c-1.188,0.009-2.268,0.693-2.785,1.761c0,0-2.792,5.763-3.807,7.856
				c-2.3,0.352-8.627,1.318-8.627,1.318c-1.06,0.161-1.951,0.853-2.381,1.815c-0.047,0.108-0.089,0.215-0.124,0.328
				c-0.358,1.132-0.044,2.371,0.813,3.194c0,0,4.618,4.436,6.295,6.047c-0.085,0.52-0.205,1.248-0.338,2.062
				C30.449,70.119,38.771,63.678,39.256,55.609z"/>
		</g>
	</g>
	<g>
		<g>
			<linearGradient id="SVGID_6_" gradientUnits="userSpaceOnUse" x1="97.7686" y1="92.4238" x2="97.7686" y2="79.1934">
				<stop  offset="0" style="stop-color:#ECEEF0"/>
				<stop  offset="0.2485" style="stop-color:#E8E8E9"/>
				<stop  offset="0.5636" style="stop-color:#EEEFF2"/>
				<stop  offset="0.9212" style="stop-color:#D4D5D6"/>
			</linearGradient>
			<path fill="url(#SVGID_6_)" stroke="#B3B3B3" d="M108.903,88.494c0,2.17-1.76,3.93-3.93,3.93h-14.41c-2.17,0-3.93-1.76-3.93-3.93
				v-5.371c0-2.17,1.76-3.93,3.93-3.93h14.41c2.17,0,3.93,1.76,3.93,3.93V88.494z"/>
			<path opacity="0.75" fill="#F2F2F2" d="M88.694,80.51c0.418-0.482,1.032-0.787,1.719-0.787h14.711
				c0.686,0,1.301,0.305,1.719,0.787h0.291c-0.457-0.615-1.188-1.016-2.01-1.016H90.413c-0.822,0-1.553,0.4-2.01,1.016H88.694z"/>
			<linearGradient id="SVGID_7_" gradientUnits="userSpaceOnUse" x1="91.584" y1="82.4082" x2="91.584" y2="116.8438">
				<stop  offset="0" style="stop-color:#FF1F00"/>
				<stop  offset="1" style="stop-color:#FF9D00"/>
			</linearGradient>
			<path fill="url(#SVGID_7_)" d="M75.481,82.408h32.205c3.963,0,7.176,3.215,7.176,7.182v20.072c0,3.965-3.213,7.182-7.176,7.182
				H75.481c-3.963,0-7.176-3.217-7.176-7.182V89.59C68.306,85.623,71.519,82.408,75.481,82.408L75.481,82.408z"/>
			<linearGradient id="SVGID_8_" gradientUnits="userSpaceOnUse" x1="91.583" y1="97.1523" x2="91.583" y2="84.4785">
				<stop  offset="0" style="stop-color:#FF7500"/>
				<stop  offset="1" style="stop-color:#FF9D00"/>
			</linearGradient>
			<path fill="url(#SVGID_8_)" d="M106.999,84.479h-30.83c-3.795,0-6.871,3.004-6.871,6.711v5.963c0-3.705,3.076-6.709,6.871-6.709
				h30.83c3.793,0,6.869,3.004,6.869,6.709v-5.963C113.868,87.482,110.792,84.479,106.999,84.479z"/>
			<path fill="#FFFFFF" d="M106.994,84.105H76.173c-3.792,0-6.867,3.076-6.867,6.871v0.408c0-3.795,3.075-6.871,6.867-6.871h30.821
				c3.792,0,6.866,3.076,6.866,6.871v-0.408C113.86,87.182,110.786,84.105,106.994,84.105z"/>
		</g>
		<path fill="#FA611A" d="M107.683,115.721H75.454c-3.965,0-7.18-3.217-7.18-7.186v1.039c0,3.971,3.215,7.188,7.18,7.188h32.229
			c3.964,0,7.18-3.217,7.18-7.188v-1.039C114.862,112.504,111.646,115.721,107.683,115.721z"/>
	</g>
</g>
</svg>
