<?xml version="1.0" encoding="utf-8"?>
<!-- Generator: Adobe Illustrator 13.0.0, SVG Export Plug-In . SVG Version: 6.00 Build 14948)  -->
<!DOCTYPE svg PUBLIC "-//W3C//DTD SVG 1.1//EN" "http://www.w3.org/Graphics/SVG/1.1/DTD/svg11.dtd">
<svg version="1.1" id="Layer_1" xmlns="http://www.w3.org/2000/svg" xmlns:xlink="http://www.w3.org/1999/xlink" x="0px" y="0px"
	 width="128px" height="128px" viewBox="0 0 128 128" enable-background="new 0 0 128 128" xml:space="preserve">
<g>
	<g>
		<linearGradient id="SVGID_1_" gradientUnits="userSpaceOnUse" x1="62.1851" y1="9.5283" x2="62.1851" y2="121.6274">
			<stop  offset="0" style="stop-color:#80E21B"/>
			<stop  offset="1" style="stop-color:#80B400"/>
		</linearGradient>
		<path fill="url(#SVGID_1_)" d="M110.661,104.46c0,9.477-7.688,17.167-17.166,17.167H30.877c-9.479,0-17.168-7.69-17.168-17.167
			V26.696c0-9.482,7.689-17.168,17.168-17.168h62.618c9.479,0,17.166,7.686,17.166,17.168V104.46z"/>
		<path opacity="0.5" fill="#FFFFFF" d="M92.075,12.9H32.293c-9.049,0-16.391,7.337-16.391,16.391v0.626h1.34
			c2.512-5.828,8.303-9.912,15.051-9.912h59.782c6.752,0,12.543,4.084,15.055,9.912h1.34v-0.626
			C108.47,20.237,101.132,12.9,92.075,12.9z"/>
		<path opacity="0.25" fill="#70993E" d="M45.823,77.04c-11.459,0-22.32-1.334-32.113-3.716v31.136
			c0,9.477,7.689,17.167,17.168,17.167h62.618c9.479,0,17.166-7.69,17.166-17.167V58.38C96.761,69.621,72.913,77.04,45.823,77.04z"
			/>
		<path fill="#70993E" d="M30.881,121.627h62.614c9.482,0,17.166-7.69,17.166-17.167v-4.65c0,9.482-7.684,17.172-17.166,17.172
			H30.881c-9.482,0-17.168-7.689-17.168-17.172v4.65C13.713,113.937,21.399,121.627,30.881,121.627z"/>
	</g>
	<g>
		
			<linearGradient id="SVGID_2_" gradientUnits="userSpaceOnUse" x1="-1221.7495" y1="-1691.8828" x2="-1221.7495" y2="-1644.5615" gradientTransform="matrix(1 0 0 1 1283.9355 1694.668)">
			<stop  offset="0" style="stop-color:#FF9D00"/>
			<stop  offset="1" style="stop-color:#FF1F00"/>
		</linearGradient>
		<path fill="url(#SVGID_2_)" stroke="#ED1F00" stroke-miterlimit="3.8637" d="M79.347,35.414c1.133-1.189,1.725-2.559,1.725-4.226
			c0-1.604-0.596-3.033-1.725-4.224c-1.189-1.129-2.617-1.725-4.221-1.725c-1.666-0.003-3.094,0.595-4.225,1.725l-2.736,2.797
			L68.163,8.733c-0.059-1.664-0.594-3.092-1.783-4.224c-1.131-1.19-2.559-1.725-4.167-1.725c-1.666,0-3.09,0.534-4.221,1.725
			c-1.189,1.13-1.787,2.558-1.787,4.222l0.002,21.028l-2.734-2.797c-1.189-1.13-2.557-1.727-4.225-1.727
			c-1.607,0-3.033,0.597-4.221,1.726c-1.131,1.189-1.727,2.616-1.727,4.224c0,1.666,0.596,3.035,1.727,4.226l12.967,12.912
			c1.133,1.188,2.559,1.783,4.223,1.783c1.607,0,3.032-0.593,4.167-1.782L79.347,35.414z"/>
		<g opacity="0.5">
			<path fill="#FFFFFF" d="M58.77,6.292c0.922-0.971,2.082-1.407,3.439-1.407c1.311,0,2.473,0.437,3.395,1.407
				c0.939,0.894,1.375,2.015,1.443,3.318h0.01V9.092c-0.049-1.355-0.484-2.519-1.453-3.44c-0.922-0.97-2.084-1.405-3.395-1.405
				c-1.357,0-2.518,0.436-3.439,1.405c-0.969,0.92-1.455,2.083-1.455,3.439v0.64C57.317,8.375,57.801,7.212,58.77,6.292z"/>
		</g>
	</g>
</g>
</svg>
