<?xml version="1.0" encoding="utf-8"?>
<!-- Generator: Adobe Illustrator 13.0.0, SVG Export Plug-In . SVG Version: 6.00 Build 14948)  -->
<!DOCTYPE svg PUBLIC "-//W3C//DTD SVG 1.1//EN" "http://www.w3.org/Graphics/SVG/1.1/DTD/svg11.dtd">
<svg version="1.1" id="Layer_1" xmlns="http://www.w3.org/2000/svg" xmlns:xlink="http://www.w3.org/1999/xlink" x="0px" y="0px"
	 width="128px" height="128px" viewBox="0 0 128 128" enable-background="new 0 0 128 128" xml:space="preserve">
<g>
	<g>
		<radialGradient id="SVGID_1_" cx="71.4746" cy="105.2842" r="33.2477" gradientUnits="userSpaceOnUse">
			<stop  offset="0" style="stop-color:#5F5D5C"/>
			<stop  offset="1" style="stop-color:#181500"/>
		</radialGradient>
		<path fill="url(#SVGID_1_)" d="M113.09,105.287c0,12.084-18.629,21.883-41.615,21.883c-22.978,0-41.615-9.799-41.615-21.883
			c0-12.092,18.638-21.889,41.615-21.889C94.461,83.398,113.09,93.195,113.09,105.287L113.09,105.287z"/>
		
			<linearGradient id="SVGID_2_" gradientUnits="userSpaceOnUse" x1="243.292" y1="1190.9062" x2="243.276" y2="1190.8951" gradientTransform="matrix(1.1188 -6.196741e-06 0 1.1188 -223.433 -1318.3496)">
			<stop  offset="0" style="stop-color:#DEDEDE"/>
			<stop  offset="1" style="stop-color:#FEFEFE"/>
		</linearGradient>
		<path fill="url(#SVGID_2_)" stroke="#231F20" d="M48.734,14.021c0.008,0.002,0.015,0.006,0.021,0.008
			C48.749,14.026,48.742,14.022,48.734,14.021L48.734,14.021z"/>
	</g>
	<path opacity="0.5" fill="#FFFFFF" d="M71.475,121.928c-20.205,0-36.718-8.334-37.781-18.821c-0.035,0.351-0.057,0.703-0.057,1.059
		c0,10.987,16.946,19.896,37.838,19.896c20.9,0,37.838-8.909,37.838-19.896c0-0.355-0.021-0.709-0.057-1.061
		C108.195,113.593,91.689,121.928,71.475,121.928z"/>
	<g>
		<g>
			
				<radialGradient id="SVGID_3_" cx="251.6094" cy="1225.2158" r="41.8936" gradientTransform="matrix(1.1188 -6.196741e-06 0 1.1188 -223.433 -1318.3496)" gradientUnits="userSpaceOnUse">
				<stop  offset="0" style="stop-color:#5F5D5C"/>
				<stop  offset="1" style="stop-color:#181500"/>
			</radialGradient>
			<path fill="url(#SVGID_3_)" d="M58.213,10.153c-0.281,0-0.557,0-0.83,0.002c-0.394-0.93-0.941-1.913-1.723-2.852
				c-2.866-3.445-7.691-5.193-7.691-5.193s2.037,2.367,2.762,5.654c0.191,0.873,0.181,1.809,0.066,2.715
				c-0.506,0.051-1.044,0.115-1.602,0.184c-0.391-0.905-0.93-1.857-1.688-2.77c-2.865-3.443-7.691-5.191-7.691-5.191
				s2.037,2.365,2.761,5.654c0.235,1.072,0.169,2.238-0.025,3.328c-1,0.174-2.063,0.365-3.229,0.582
				c-10.23,3.728-11.751,12.234-13.996,17.803c-3.373,8.39-2.841,9.175-9.042,14.713c-2.314,4.632-1.581,8.699,1.259,8.68
				c4.562,0.182,3.342,5.658,9.979,1.822c5.355-4.743,11.146-8.78,16.381-9.485c3.435-0.464,5.599-1.358,7.783-6.202
				c3.856-2.154,6.746,13.614,2.064,18.164c-9.495,13.697-11.389,19.183-11.389,32.767c0,0.162,0.031,0.332,0.041,0.481
				c-0.122,0.384-0.161,0.746-0.161,1.14c0,2.66,2.719,5.074,7.209,6.938c0.474,0.191,0.957,0.422,1.461,0.604
				c4.712,1.845,10.903,2.853,17.317,3.002h0.443c0.916,0.029,1.861,0.039,2.801,0.039c16.148,0,29.238-4.742,29.238-10.582
				c0-0.183-0.021-0.344-0.041-0.524c0.252-0.694,0.402-1.397,0.443-2.153C102.518,65.131,90.586,14.433,58.213,10.153z"/>
		</g>
	</g>
	<path opacity="0.5" fill="#FFFFFF" d="M96.089,78.377h1.592C95.136,53.831,83.542,20.386,59.399,13.87v1.339
		C82.241,22.582,93.417,54.438,96.089,78.377z"/>
</g>
</svg>
