<?xml version="1.0"?>
<!DOCTYPE svg PUBLIC "-//W3C//DTD SVG 1.0//EN"
	"http://www.w3.org/TR/2001/REC-SVG-20010904/DTD/svg10.dtd">
<svg xmlns:x="http://ns.adobe.com/Extensibility/1.0/"
	xmlns:i="http://ns.adobe.com/AdobeIllustrator/10.0/" xmlns:graph=""
	xmlns="http://www.w3.org/2000/svg" xmlns:xlink="http://www.w3.org/1999/xlink"
	xmlns:a="http://ns.adobe.com/AdobeSVGViewerExtensions/3.0/" width="123"
	height="123" viewBox="0.08 0 123 123" overflow="visible"
	enable-background="new 0.08 0 123 123" xml:space="preserve">
	<g id="Layer_1_2_">
		<g>
			<g>
				<radialGradient id="XMLID_1_" cx="97.8599" cy="121.477" r="104.732"
					fx="97.8599" fy="121.477" gradientUnits="userSpaceOnUse">
					<stop offset="0" style="stop-color:rgb(61,111,199)"/>
					<stop offset="1" style="stop-color:rgb(13,50,126)"/>
				</radialGradient>
				<path
					d="M61.654 0 C27.656 0 0 27.658 0 61.656 C0 95.653 27.656 123.313 61.654 123.313 C95.654
						123.313 123.312 95.653 123.312 61.656 C123.312 27.658 95.654 0 61.654
						0 zM61.654 120.513 C29.147 120.513 2.8 94.166 2.8 61.656 C2.8 29.152 29.147
						2.801 61.654 2.801 C94.156 2.801 120.507 29.152 120.507 61.656 C120.506
						94.166 94.156 120.513 61.654 120.513 z"
					 style="fill:url(#XMLID_1_)"/>
				<radialGradient id="XMLID_2_" cx="51.7749" cy="109.923" r="102.884"
					fx="51.7749" fy="109.923" gradientUnits="userSpaceOnUse">
					<stop offset="0" style="stop-color:rgb(255,255,255)"/>
					<stop offset="0.1195" style="stop-color:rgb(230,249,255)"/>
					<stop offset="0.2646" style="stop-color:rgb(206,242,255)"/>
					<stop offset="0.3539" style="stop-color:rgb(197,240,255)"/>
					<stop offset="1" style="stop-color:rgb(29,116,217)"/>
				</radialGradient>
				<path
					d="M61.654 2.289 C28.865 2.289 2.289 28.869 2.289 61.656 C2.289 94.448 28.865 121.024
						61.654 121.024 C94.438 121.024 121.018 94.448 121.018 61.656 C121.018 28.869
						94.438 2.289 61.654 2.289 zM61.654 118.194 C30.476 118.194 5.116 92.834
						5.116 61.656 C5.116 30.481 30.476 5.117 61.654 5.117 C92.831 5.117 118.194
						30.481 118.194 61.656 C118.194 92.834 92.831 118.194 61.654 118.194 z"
					 style="fill-rule:evenodd;clip-rule:evenodd;fill:url(#XMLID_2_)"/>
				<radialGradient id="XMLID_3_" cx="60.6372" cy="123.78" r="118.409" fx="60.6372"
					fy="123.78" gradientUnits="userSpaceOnUse">
					<stop offset="0" style="stop-color:rgb(255,255,255)"/>
					<stop offset="0.0626" style="stop-color:rgb(230,249,255)"/>
					<stop offset="0.1386" style="stop-color:rgb(206,242,255)"/>
					<stop offset="0.1854" style="stop-color:rgb(197,240,255)"/>
					<stop offset="1" style="stop-color:rgb(29,116,217)"/>
				</radialGradient>
				<path
					d="M61.654 118.194 C30.476 118.194 5.116 92.834 5.116 61.656 C5.116 30.481 30.476 5.117
						61.654 5.117 C92.831 5.117 118.194 30.481 118.194 61.656 C118.194 92.834
						92.831 118.194 61.654 118.194 z"
					 style="fill-rule:evenodd;clip-rule:evenodd;fill:url(#XMLID_3_)"/>
				<linearGradient id="XMLID_4_" gradientUnits="userSpaceOnUse" x1="58.834"
					y1="6.8711" x2="58.834" y2="67.4841">
					<stop offset="12.069%" style="stop-color:rgb(255,255,255)"/>
					<stop offset="100%" style="stop-opacity:0;stop-color:rgb(255,255,255)"/>
				</linearGradient>
				<path a:adobe-blending-mode="screen"
					d="M60.89 63.577 C83.344 46.686 104.457 40.964 113.709 39.146 C104.799 18.694 84.688
						4.427 61.294 4.427 C29.629 4.427 3.959 30.562 3.959 62.789 C3.959 67.853
						4.594 72.766 5.785 77.451 C15.074 79.196 37.791 80.947 60.89 63.577 z"
					 style="fill:url(#XMLID_4_)"/>
				<linearGradient id="XMLID_5_" gradientUnits="userSpaceOnUse" x1="61.3975"
					y1="131.631" x2="61.3975" y2="76.2625">
					<stop offset="0%" style="stop-color:rgb(255,255,255)"/>
					<stop offset="100%" style="stop-opacity:0.005;stop-color:rgb(255,255,255)"/>
				</linearGradient>
				<path a:adobe-blending-mode="screen"
					d="M61.395 102.349 C34.207 102.349 11.598 86.121 9.527 60.739 C9.423 61.988 9.355 63.243
						9.355 64.514 C9.355 91.664 32.862 113.794 61.396 113.794 C90.128 113.794
						113.441 91.664 113.441 64.514 C113.441 63.243 113.373 61.988 113.269 60.739
						C111.213 86.121 88.774 102.349 61.395 102.349 z"
					 style="opacity:0.8;fill:url(#XMLID_5_)"/>
			</g>
			<radialGradient id="XMLID_6_" cx="92.1206" cy="114.014" r="89.3894"
				fx="92.1206" fy="114.014" gradientUnits="userSpaceOnUse">
				<stop offset="0" style="stop-color:rgb(61,111,199)"/>
				<stop offset="1" style="stop-color:rgb(13,50,126)"/>
				<a:midPointStop offset="0" style="stop-color:#3D6FC7"/>
				<a:midPointStop offset="0.5" style="stop-color:#3D6FC7"/>
				<a:midPointStop offset="1" style="stop-color:#0D327E"/>
			</radialGradient>
			<path
				d="M113.845 63.469 C113.845 92.241 90.282 115.567 61.217 115.567 C32.151 115.567 8.589
					92.242 8.589 63.469 C8.589 34.696 32.151 11.371 61.217 11.371 C90.283 11.371
					113.845 34.696 113.845 63.469 z"
				 style="fill:url(#XMLID_6_)"/>
			<path
				d="M113.486 61.687 C113.486 90.499 90.13 113.859 61.316 113.859 C32.5 113.859 9.14 90.499
					9.14 61.687 C9.14 32.87 32.5 9.51 61.316 9.51 C90.129 9.51 113.486 32.87
					113.486 61.687 z"
				 style="fill:rgb(255,255,255)"/>
			<linearGradient id="XMLID_7_" gradientUnits="userSpaceOnUse" x1="61.3125"
				y1="78.6309" x2="61.3125" y2="27.2331">
				<stop offset="0" style="stop-color:rgb(255,255,255)"/>
				<stop offset="0.1814" style="stop-color:rgb(250,252,255)"/>
				<stop offset="0.4072" style="stop-color:rgb(234,245,255)"/>
				<stop offset="0.6566" style="stop-color:rgb(209,233,255)"/>
				<stop offset="0.9212" style="stop-color:rgb(174,216,255)"/>
				<stop offset="1" style="stop-color:rgb(162,210,255)"/>
			</linearGradient>
			<path
				d="M61.308 113.508 C32.732 113.508 9.489 90.261 9.489 61.683 C9.489 33.111 32.733 9.862
					61.308 9.862 C89.883 9.862 113.135 33.111 113.135 61.683 C113.135 90.261
					89.883 113.508 61.308 113.508 z"
				 style="fill-rule:evenodd;clip-rule:evenodd;fill:url(#XMLID_7_)"/>
			<linearGradient id="XMLID_8_" gradientUnits="userSpaceOnUse" x1="59.0498"
				y1="14.1064" x2="59.0498" y2="67.531">
				<stop offset="11.4943%" style="stop-color:rgb(255,255,255)"/>
				<stop offset="100%" style="stop-opacity:0;stop-color:rgb(255,255,255)"/>
			</linearGradient>
			<path a:adobe-blending-mode="screen"
				d="M60.859 64.086 C80.565 49.199 99.095 44.154 107.216 42.555 C99.395 24.533 81.749
					11.953 61.21 11.953 C33.416 11.953 10.884 34.991 10.884 63.394 C10.884 67.861
					11.441 72.186 12.489 76.319 C20.643 77.854 40.583 79.397 60.859 64.086 z"
				 style="fill:url(#XMLID_8_)"/>
			<g style="opacity:0.52">
				<g>
					<radialGradient id="XMLID_9_" cx="45.4546" cy="86.8457" r="36.9867"
						fx="45.4546" fy="86.8457"
						gradientTransform="matrix(1 0 0 1 13.4141 11.7676)"
						gradientUnits="userSpaceOnUse">
						<stop offset="0" style="stop-color:rgb(139,187,255)"/>
						<stop offset="1" style="stop-color:rgb(13,86,172)"/>
						<a:midPointStop offset="0" style="stop-color:#8BBBFF"/>
						<a:midPointStop offset="0.5" style="stop-color:#8BBBFF"/>
						<a:midPointStop offset="1" style="stop-color:#0D56AC"/>
					</radialGradient>
					<path
						d="M26.694 92.016 C26.23 92.436 26.192 93.148 26.611 93.614 C27.029 94.079 27.744 94.117
							28.208 93.699 C28.672 93.28 28.71 92.566 28.292 92.101 C27.872 91.635
							27.158 91.598 26.694 92.016 zM26.609 31.322 C26.192 31.785 26.229 32.501
							26.693 32.92 C27.157 33.338 27.873 33.3 28.29 32.836 C28.708 32.371 28.672
							31.656 28.207 31.238 C27.744 30.82 27.027 30.857 26.609 31.322 zM56.571
							106.51 C55.95 106.445 55.393 106.896 55.329 107.517 C55.263 108.139 55.713
							108.695 56.334 108.76 C56.957 108.825 57.512 108.375 57.579 107.753
							C57.646 107.132 57.192 106.576 56.571 106.51 zM30.055 27.877 C29.591 28.294
							29.554 29.009 29.971 29.474 C30.389 29.938 31.106 29.975 31.57 29.557
							C32.034 29.139 32.072 28.424 31.654 27.959 C31.235 27.497 30.52 27.458 30.055
							27.877 zM23.794 88.247 C23.288 88.615 23.176 89.319 23.544 89.827 C23.912
							90.333 24.618 90.445 25.124 90.078 C25.63 89.71 25.742 89.004 25.374
							88.498 C25.006 87.992 24.299 87.88 23.794 88.247 zM17.888 72.124 C17.916
							71.98 17.916 71.828 17.884 71.676 C17.82 71.37 17.637 71.119 17.394 70.962
							C17.151 70.804 16.848 70.739 16.542 70.804 C15.93 70.934 15.542 71.533
							15.671 72.146 C15.739 72.468 15.942 72.722 16.204 72.877 C16.44 73.017
							16.723 73.079 17.012 73.019 C17.471 72.921 17.805 72.558 17.888 72.124 zM26.371
							81.787 L18.252 86.474 L18.898 87.594 L27.018 82.906 zM33.592 98.545
							C33.224 99.052 33.335 99.757 33.842 100.125 C34.348 100.492 35.054 100.381
							35.422 99.875 C35.788 99.369 35.677 98.663 35.172 98.295 C34.666 97.927
							33.957 98.039 33.592 98.545 zM43.188 102.924 C42.618 102.669 41.949 102.926
							41.695 103.496 C41.44 104.068 41.697 104.737 42.267 104.989 C42.839
							105.244 43.506 104.989 43.761 104.418 C44.016 103.847 43.758 103.178 43.188
							102.924 zM47.515 104.584 C46.921 104.392 46.283 104.717 46.091 105.311
							C45.897 105.906 46.223 106.544 46.816 106.737 C47.413 106.929 48.049 106.606
							48.243 106.011 C48.437 105.416 48.11 104.778 47.515 104.584 zM46.817
							18.199 C46.223 18.391 45.898 19.03 46.089 19.624 C46.283 20.218 46.922
							20.544 47.515 20.351 C48.11 20.158 48.434 19.519 48.243 18.925 C48.05 18.332
							47.411 18.006 46.817 18.199 zM51.993 105.784 C51.382 105.654 50.782 106.045
							50.653 106.655 C50.522 107.267 50.912 107.867 51.522 107.997 C52.135
							108.127 52.734 107.738 52.865 107.126 C52.996 106.516 52.604 105.915 51.993
							105.784 zM33.842 24.811 C33.336 25.177 33.224 25.885 33.591 26.391
							C33.959 26.896 34.666 27.008 35.172 26.641 C35.677 26.273 35.789 25.566 35.422
							25.06 C35.055 24.556 34.346 24.443 33.842 24.811 zM52.192 17.022 C51.986
							16.934 51.76 16.887 51.524 16.938 C51.482 16.947 51.451 16.974 51.411
							16.987 C51.226 17.048 51.073 17.152 50.947 17.287 C50.703 17.548 50.571
							17.906 50.651 18.281 C50.781 18.892 51.383 19.282 51.993 19.153 C52.146
							19.12 52.285 19.058 52.405 18.974 C52.768 18.722 52.963 18.269 52.865 17.81
							C52.786 17.435 52.52 17.162 52.192 17.022 zM42.268 19.946 C41.698 20.199
							41.441 20.868 41.695 21.439 C41.95 22.01 42.618 22.267 43.189 22.013
							C43.76 21.759 44.017 21.09 43.763 20.519 C43.508 19.948 42.839 19.691 42.268
							19.946 zM40.923 96.813 L36.235 104.93 L37.355 105.577 L42.043 97.458
							zM17.159 67.097 C17.111 66.63 16.784 66.261 16.363 66.133 C16.279 66.108
							16.185 66.112 16.094 66.108 C16.034 66.104 15.979 66.085 15.917 66.09 L15.915
							66.09 C15.294 66.155 14.844 66.711 14.909 67.333 C14.973 67.955 15.53
							68.405 16.152 68.341 C16.773 68.275 17.224 67.718 17.159 67.097 zM29.971
							95.461 C29.554 95.927 29.589 96.639 30.055 97.059 C30.52 97.478 31.233
							97.441 31.652 96.976 C32.069 96.511 32.032 95.796 31.569 95.378 C31.104 94.959
							30.389 94.996 29.971 95.461 zM102.23 81.974 C102.802 82.228 103.468
							81.971 103.722 81.401 C103.978 80.829 103.72 80.162 103.15 79.907 C102.581
							79.653 101.912 79.909 101.656 80.481 C101.402 81.051 101.66 81.719 102.23
							81.974 zM87.134 19.357 L86.015 18.711 L81.327 26.83 L82.448 27.476 zM19.252
							79.906 C18.68 80.161 18.424 80.828 18.678 81.4 C18.933 81.97 19.6
							82.227 20.171 81.973 C20.743 81.718 20.999 81.05 20.745 80.48 C20.491 79.908
							19.822 79.652 19.252 79.906 zM105.12 37.814 L104.473 36.694 L96.356 41.381
							L97 42.502 zM98.609 36.689 C99.113 36.321 99.226 35.613 98.857 35.108
							C98.491 34.603 97.783 34.491 97.277 34.857 C96.773 35.225 96.66 35.933
							97.027 36.438 C97.394 36.943 98.103 37.056 98.609 36.689 zM105.244 57.839
							C105.248 57.88 105.27 57.911 105.278 57.949 C105.395 58.509 105.905 58.907
							106.486 58.846 C106.487 58.846 106.487 58.846 106.488 58.846 C106.954
							58.797 107.322 58.473 107.451 58.051 C107.486 57.936 107.489 57.812 107.486
							57.686 C107.485 57.658 107.497 57.632 107.494 57.603 L107.494 57.603
							L107.494 57.603 C107.477 57.448 107.431 57.303 107.359 57.175 C107.263 57.003
							107.117 56.876 106.952 56.775 C106.746 56.648 106.508 56.57 106.249
							56.597 C105.627 56.661 105.177 57.218 105.244 57.839 zM104.513 52.812 C104.485
							52.957 104.486 53.109 104.518 53.262 C104.548 53.406 104.61 53.534
							104.686 53.649 C104.936 54.024 105.392 54.232 105.859 54.132 L105.86 54.132
							L105.861 54.132 C106.166 54.067 106.416 53.884 106.573 53.642 C106.73
							53.4 106.796 53.096 106.73 52.79 C106.601 52.18 105.999 51.789 105.389 51.918
							C104.93 52.016 104.596 52.379 104.513 52.812 zM104.044 47.357 C103.449
							47.551 103.123 48.189 103.316 48.783 C103.511 49.377 104.148 49.702 104.743
							49.51 C105.337 49.317 105.661 48.678 105.468 48.084 C105.277 47.491
							104.637 47.165 104.044 47.357 zM103.15 45.03 C103.72 44.775 103.978 44.106
							103.722 43.535 C103.47 42.965 102.8 42.708 102.23 42.962 C101.66 43.217
							101.402 43.885 101.656 44.456 C101.912 45.026 102.581 45.284 103.15 45.03
							zM16.542 54.133 C17.154 54.263 17.754 53.872 17.885 53.261 C18.016 52.65
							17.624 52.049 17.014 51.919 C16.402 51.79 15.802 52.18 15.672 52.791 C15.541
							53.401 15.931 54.002 16.542 54.133 zM15.915 58.846 C16.536 58.911
							17.093 58.46 17.159 57.839 C17.225 57.218 16.773 56.661 16.153 56.595 C15.53
							56.53 14.974 56.981 14.909 57.602 C14.843 58.224 15.294 58.781 15.915
							58.846 zM17.657 49.51 C18.252 49.703 18.89 49.377 19.083 48.783 C19.277
							48.189 18.951 47.551 18.358 47.357 C17.763 47.164 17.125 47.49 16.932 48.084
							C16.739 48.678 17.064 49.316 17.657 49.51 zM42.042 26.83 L37.355 18.711
							L36.234 19.357 L40.922 27.475 zM21.281 61.498 L11.906 61.498 L11.906 62.791
							L21.281 62.791 zM25.374 36.438 C25.742 35.933 25.63 35.225 25.124 34.857
							C24.62 34.491 23.911 34.603 23.544 35.108 C23.176 35.612 23.288 36.32
							23.794 36.688 C24.3 37.056 25.007 36.944 25.374 36.438 zM27.018 41.382
							L18.898 36.695 L18.252 37.815 L26.37 42.502 zM18.678 43.535 C18.424 44.106
							18.68 44.775 19.25 45.03 C19.822 45.284 20.49 45.027 20.744 44.456 C21
							43.885 20.742 43.217 20.172 42.962 C19.601 42.708 18.932 42.965 18.678 43.535
							zM19.083 76.152 C18.89 75.557 18.251 75.232 17.658 75.426 C17.063 75.618
							16.739 76.255 16.932 76.851 C17.125 77.446 17.763 77.771 18.357 77.578
							C18.951 77.385 19.277 76.746 19.083 76.152 zM87.231 98.295 C86.726 98.662
							86.612 99.37 86.981 99.875 C87.349 100.381 88.053 100.492 88.561 100.124
							C89.067 99.759 89.178 99.05 88.811 98.545 C88.444 98.04 87.735 97.926
							87.231 98.295 zM90.749 27.96 C90.332 28.425 90.368 29.141 90.834 29.559
							C91.298 29.976 92.014 29.939 92.433 29.475 C92.85 29.01 92.812 28.294 92.346
							27.878 C91.883 27.458 91.167 27.497 90.749 27.96 zM81.328 97.459 L86.016
							105.578 L87.135 104.931 L82.449 96.813 zM71.421 106.098 C71.163 105.847
							70.804 105.71 70.427 105.785 C70.419 105.786 70.413 105.784 70.406 105.785
							C69.949 105.884 69.615 106.246 69.532 106.679 C69.505 106.823 69.505
							106.975 69.537 107.127 C69.666 107.739 70.266 108.128 70.878 107.998 C71.49
							107.868 71.88 107.269 71.749 106.656 C71.702 106.429 71.575 106.249
							71.421 106.098 zM86.979 25.061 C86.614 25.566 86.724 26.275 87.231 26.642
							C87.737 27.009 88.446 26.896 88.813 26.392 C89.178 25.886 89.067 25.178
							88.559 24.812 C88.055 24.443 87.347 24.556 86.979 25.061 zM74.886 104.584
							C74.291 104.778 73.965 105.416 74.158 106.011 C74.351 106.606 74.99 106.929
							75.585 106.737 C76.18 106.545 76.503 105.906 76.311 105.311 C76.118 104.717
							75.479 104.392 74.886 104.584 zM74.884 20.351 C75.479 20.544 76.117
							20.219 76.311 19.624 C76.503 19.03 76.178 18.391 75.585 18.199 C74.99 18.006
							74.35 18.331 74.158 18.925 C73.965 19.52 74.292 20.158 74.884 20.351
							zM79.212 22.012 C79.782 22.266 80.45 22.01 80.706 21.438 C80.96 20.868
							80.702 20.198 80.132 19.945 C79.563 19.691 78.892 19.947 78.638 20.517 C78.384
							21.089 78.642 21.758 79.212 22.012 zM79.214 102.924 C78.642 103.178
							78.384 103.847 78.64 104.418 C78.894 104.989 79.563 105.244 80.134 104.989
							C80.704 104.737 80.96 104.068 80.706 103.496 C80.453 102.926 79.784 102.669
							79.214 102.924 zM90.833 95.378 C90.369 95.795 90.329 96.513 90.75 96.976
							C91.168 97.441 91.881 97.478 92.347 97.058 C92.811 96.642 92.849 95.925
							92.43 95.461 C92.012 94.997 91.295 94.958 90.833 95.378 zM106.486 66.091
							C105.865 66.025 105.307 66.476 105.244 67.098 C105.18 67.718 105.628
							68.275 106.251 68.34 C106.872 68.405 107.426 67.956 107.494 67.334 C107.558
							66.711 107.107 66.155 106.486 66.091 zM105.859 70.804 C105.249 70.674
							104.649 71.064 104.518 71.676 C104.389 72.286 104.777 72.887 105.389 73.018
							C106 73.148 106.599 72.758 106.73 72.147 C106.861 71.533 106.47 70.934
							105.859 70.804 zM104.744 75.427 C104.149 75.233 103.513 75.558 103.317
							76.153 C103.126 76.747 103.45 77.385 104.045 77.579 C104.64 77.773 105.275
							77.447 105.469 76.852 C105.662 76.256 105.337 75.619 104.744 75.427 zM94.11
							92.101 C93.694 92.565 93.73 93.282 94.196 93.699 C94.66 94.117 95.374
							94.079 95.793 93.613 C96.211 93.151 96.174 92.434 95.707 92.016 C95.243
							91.599 94.527 91.634 94.11 92.101 zM102.091 61.498 L102.091 62.791 L111.465
							62.791 L111.465 61.498 zM94.194 31.238 C93.73 31.656 93.692 32.372 94.11
							32.837 C94.529 33.301 95.245 33.338 95.709 32.92 C96.174 32.502 96.211
							31.786 95.791 31.322 C95.375 30.857 94.658 30.82 94.194 31.238 zM96.355
							82.906 L104.472 87.594 L105.118 86.474 L97 81.786 zM97.027 88.498 C96.662
							89.003 96.771 89.712 97.279 90.077 C97.785 90.445 98.489 90.333 98.859
							89.826 C99.226 89.322 99.114 88.613 98.607 88.247 C98.101 87.88 97.394 87.991
							97.027 88.498 zM56.31 59.862 C56.327 59.858 56.342 59.851 56.357 59.847
							L56.35 59.84 C56.337 59.848 56.323 59.854 56.31 59.862 zM61.04 111.924
							L62.334 111.924 L62.334 102.55 L61.04 102.55 zM57.793 58.098 C57.81 58.101
							57.826 58.101 57.842 58.103 L57.838 58.093 C57.823 58.097 57.808 58.095
							57.793 58.098 zM56.893 16.277 C56.721 16.202 56.536 16.155 56.336 16.176
							L56.336 16.176 L56.335 16.176 C56.024 16.209 55.757 16.364 55.575 16.59
							C55.392 16.815 55.295 17.109 55.328 17.42 C55.394 18.042 55.951 18.492
							56.572 18.427 C56.756 18.407 56.916 18.336 57.061 18.242 C57.397 18.024 57.606
							17.644 57.577 17.221 C57.576 17.208 57.582 17.197 57.58 17.183 L57.58
							17.183 C57.535 16.762 57.256 16.434 56.893 16.277 zM61.04 21.739 L62.334
							21.739 L62.334 12.365 L61.04 12.365 zM56.609 59.365 C56.626 59.362 56.641
							59.358 56.658 59.355 L56.65 59.347 C56.638 59.354 56.623 59.358 56.609
							59.365 zM63.58 57.5 C63.595 57.495 63.611 57.49 63.625 57.484 C63.609 57.486
							63.596 57.489 63.582 57.489 zM56.959 58.902 C56.975 58.901 56.991 58.898
							57.008 58.897 L57.001 58.889 C56.988 58.895 56.973 58.896 56.959 58.902
							zM57.355 58.479 C57.371 58.48 57.387 58.479 57.404 58.479 L57.398 58.47
							C57.385 58.474 57.369 58.474 57.355 58.479 zM70.407 19.151 C71.019 19.281
							71.62 18.891 71.75 18.279 C71.879 17.668 71.489 17.067 70.879 16.938
							C70.268 16.808 69.665 17.198 69.536 17.808 C69.407 18.42 69.797 19.021 70.407
							19.151 zM66.043 59.847 C66.06 59.851 66.075 59.858 66.09 59.862 C66.077
							59.854 66.064 59.848 66.052 59.84 zM65.744 59.355 C65.76 59.358 65.776
							59.362 65.792 59.365 C65.778 59.359 65.764 59.354 65.752 59.346 zM66.068
							16.177 C65.445 16.112 64.886 16.562 64.822 17.183 C64.758 17.805 65.209
							18.361 65.83 18.427 C66.451 18.493 67.008 18.042 67.074 17.42 C67.138 16.798
							66.687 16.241 66.068 16.177 zM65.394 58.897 C65.409 58.898 65.425 58.901
							65.443 58.902 C65.427 58.897 65.413 58.894 65.4 58.888 zM64.56 58.104
							C64.576 58.102 64.592 58.101 64.607 58.099 C64.592 58.098 64.578 58.098
							64.564 58.095 zM64.998 58.479 C65.014 58.479 65.03 58.479 65.047 58.479
							C65.03 58.476 65.018 58.474 65.004 58.47 zM64.085 57.776 C64.101 57.772
							64.118 57.77 64.132 57.766 C64.116 57.766 64.102 57.767 64.089 57.766 zM65.83
							106.51 C65.209 106.575 64.758 107.132 64.824 107.753 C64.888 108.375
							65.445 108.825 66.066 108.76 C66.687 108.695 67.138 108.139 67.074 107.517
							C67.041 107.194 66.87 106.922 66.63 106.741 C66.408 106.571 66.128 106.479
							65.83 106.51 z"
						 style="fill:url(#XMLID_9_)"/>
				</g>
			</g>
			<radialGradient id="XMLID_10_" cx="92.2339" cy="112.773" r="89.4422"
				fx="92.2339" fy="112.773" gradientUnits="userSpaceOnUse">
				<stop offset="0" style="stop-color:rgb(139,187,255)"/>
				<stop offset="1" style="stop-color:rgb(13,86,172)"/>
				<a:midPointStop offset="0" style="stop-color:#8BBBFF"/>
				<a:midPointStop offset="0.5" style="stop-color:#8BBBFF"/>
				<a:midPointStop offset="1" style="stop-color:#0D56AC"/>
			</radialGradient>
			<path
				d="M8.655 61.687 C8.655 90.722 32.279 114.343 61.316 114.343 C90.349 114.343 113.97
					90.722 113.97 61.687 C113.97 32.65 90.349 9.025 61.316 9.025 C32.279 9.025
					8.655 32.649 8.655 61.687 zM9.625 61.687 C9.625 33.184 32.813 9.995 61.316
					9.995 C89.815 9.995 113.002 33.184 113.002 61.687 C113.002 90.188 89.815 113.374
					61.316 113.374 C32.813 113.373 9.625 90.188 9.625 61.687 z"
				 style="fill:url(#XMLID_10_)"/>
			<g>
				<g>
				</g>
			</g>
			<g>
				<text transform="matrix(1 0 0 1 54.896 31.1138)">
<tspan x="1.95563e-310px" y="0px" style="font-family:'ArialMT';font-size:11.6367">12</tspan>
									</text>
				<text transform="matrix(1 0 0 1 77.2007 36.2852)">
<tspan x="1.95563e-310px" y="0px" style="font-family:'ArialMT';font-size:11.6367">1</tspan>
									</text>
				<text transform="matrix(1 0 0 1 89.4849 48.8916)">
<tspan x="3.91126e-310px" y="0px" style="font-family:'ArialMT';font-size:11.6367">2</tspan>
									</text>
				<text transform="matrix(1 0 0 1 93.686 66.1045)">
<tspan x="3.91126e-310px" y="0px" style="font-family:'ArialMT';font-size:11.6367">3</tspan>
									</text>
				<text transform="matrix(1 0 0 1 89.1616 84.7715)">
<tspan x="3.91126e-310px" y="0px" style="font-family:'ArialMT';font-size:11.6367">4</tspan>
									</text>
				<text transform="matrix(1 0 0 1 76.8784 96.4082)">
<tspan x="3.91126e-310px" y="0px" style="font-family:'ArialMT';font-size:11.6367">5</tspan>
									</text>
				<text transform="matrix(1 0 0 1 58.1318 100.772)">
<tspan x="3.91126e-310px" y="0px" style="font-family:'ArialMT';font-size:11.6367">6</tspan>
									</text>
				<text transform="matrix(1 0 0 1 40.2715 95.4385)">
<tspan x="3.91126e-310px" y="0px" style="font-family:'ArialMT';font-size:11.6367">7</tspan>
									</text>
				<text transform="matrix(1 0 0 1 27.665 82.5898)">
<tspan x="3.91126e-310px" y="0px" style="font-family:'ArialMT';font-size:11.6367">8</tspan>
									</text>
				<text transform="matrix(1 0 0 1 23.5439 66.1045)">
<tspan x="3.91126e-310px" y="0px" style="font-family:'ArialMT';font-size:11.6367">9</tspan>
									</text>
				<text transform="matrix(1 0 0 1 26.2104 47.1943)">
<tspan x="3.91126e-310px" y="0px" style="font-family:'ArialMT';font-size:11.6367">10</tspan>
									</text>
				<text transform="matrix(1 0 0 1 39.0596 35.8003)">
<tspan x="3.91126e-310px" y="0px" style="font-family:'ArialMT';font-size:11.6367">11</tspan>
									</text>
			</g>
			<g>
				<g>
					<path d="M91.424 25.954 L93.264 27.503 L59.501 67.596 L57.662 66.047 z"
						 style="fill:rgb(26,12,128)"/>
					<path d="M91.254 26.44 L92.131 27.178 L58.99 66.535 L58.113 65.797 z"
						 style="fill:rgb(96,101,172)"/>
				</g>
				<g>
					<path d="M68.509 58.528 L69.185 61.764 L37.811 68.317 L37.135 65.081 z"
						 style="fill:rgb(26,12,128)"/>
					<path d="M68.272 58.835 L68.594 60.379 L37.798 66.81 L37.475 65.269 z"
						 style="fill:rgb(96,101,172)"/>
				</g>
				<g>
					<path
						d="M84.72 103.999 L61.437 57.054 C62.184 56.42 62.346 55.131 61.767 53.962 L57.231 44.814
							C56.653 43.651 55.535 43 54.582 43.2 C55.352 43.328 56.126 43.912 56.573
							44.813 L61.111 53.961 C61.691 55.13 61.527 56.419 60.781 57.053 L84.063
							103.998 C84.364 104.602 84.174 105.308 83.64 105.572 C83.608 105.588
							83.574 105.593 83.541 105.605 C83.791 105.688 84.055 105.691 84.295 105.572
							C84.83 105.309 85.019 104.604 84.72 103.999 z"
						 style="fill:rgb(255,172,102)"/>
					<path
						d="M84.063 103.999 L60.781 57.054 C61.526 56.42 61.69 55.131 61.111 53.962 L56.573 44.814
							C56.126 43.913 55.352 43.329 54.582 43.201 C54.45 43.229 54.321 43.272
							54.198 43.333 L53.844 43.509 L52.961 43.947 C51.944 44.452 51.65 45.934
							52.306 47.258 L56.844 56.406 C57.285 57.297 58.043 57.883 58.802 58.02
							C58.818 58.017 58.833 58.018 58.848 58.015 L58.851 58.025 C59.072 58.059
							59.292 58.061 59.503 58.015 L82.786 104.96 C82.921 105.231 83.137 105.425
							83.378 105.544 C83.431 105.57 83.487 105.589 83.542 105.607 C83.574 105.595
							83.608 105.589 83.641 105.574 C84.174 105.309 84.364 104.604 84.063
							103.999 z"
						 style="fill:rgb(255,129,102)"/>
				</g>
				<g>
					<linearGradient id="XMLID_11_" gradientUnits="userSpaceOnUse" x1="62.3208"
						y1="70.0195" x2="62.3208" y2="61.9073">
						<stop offset="0" style="stop-color:rgb(255,255,255)"/>
						<stop offset="0.8483" style="stop-color:rgb(0,126,255)"/>
						<stop offset="1" style="stop-color:rgb(0,134,255)"/>
						<a:midPointStop offset="0" style="stop-color:#FFFFFF"/>
						<a:midPointStop offset="0.5" style="stop-color:#FFFFFF"/>
						<a:midPointStop offset="0.8483" style="stop-color:#007EFF"/>
						<a:midPointStop offset="0.5" style="stop-color:#007EFF"/>
						<a:midPointStop offset="1" style="stop-color:#0086FF"/>
					</linearGradient>
					<path
						d="M66.668 61.604 C66.668 64.004 64.722 65.951 62.32 65.951 C59.921 65.951 57.973 64.005
							57.973 61.604 C57.973 59.203 59.92 57.257 62.32 57.257 C64.722 57.258
							66.668 59.204 66.668 61.604 z"
						 style="fill:url(#XMLID_11_)"/>
					<linearGradient id="XMLID_12_" gradientUnits="userSpaceOnUse" x1="64.6548"
						y1="63.626" x2="55.9075" y2="56.0469">
						<stop offset="0" style="stop-color:rgb(0,0,114)"/>
						<stop offset="1" style="stop-color:rgb(57,149,229)"/>
						<a:midPointStop offset="0" style="stop-color:#000072"/>
						<a:midPointStop offset="0.5" style="stop-color:#000072"/>
						<a:midPointStop offset="1" style="stop-color:#3995E5"/>
					</linearGradient>
					<path
						d="M57.768 61.604 C57.768 64.115 59.811 66.157 62.321 66.157 C64.833 66.157 66.875 64.115
							66.875 61.604 C66.875 59.093 64.833 57.05 62.321 57.05 C59.812 57.051
							57.768 59.094 57.768 61.604 zM58.183 61.604 C58.183 59.321 60.039 57.463
							62.321 57.463 C64.603 57.463 66.462 59.32 66.462 61.604 C66.462 63.886
							64.604 65.743 62.321 65.743 C60.038 65.743 58.183 63.887 58.183 61.604 z"
						 style="fill:url(#XMLID_12_)"/>
					<linearGradient id="XMLID_13_" gradientUnits="userSpaceOnUse" x1="62.2026"
						y1="57.6748" x2="62.2026" y2="62.3091">
						<stop offset="0" style="stop-color:rgb(255,255,255)"/>
						<stop offset="0.1147" style="stop-color:rgb(233,244,255)"/>
						<stop offset="0.3539" style="stop-color:rgb(176,217,255)"/>
						<stop offset="0.6936" style="stop-color:rgb(87,173,255)"/>
						<stop offset="1" style="stop-color:rgb(0,131,255)"/>
						<a:midPointStop offset="0" style="stop-color:#FFFFFF"/>
						<a:midPointStop offset="0.5424" style="stop-color:#FFFFFF"/>
						<a:midPointStop offset="1" style="stop-color:#0083FF"/>
					</linearGradient>
					<path
						d="M62.339 61.771 C63.853 60.654 65.277 60.275 65.901 60.154 C65.298 58.801 63.945 57.856
							62.368 57.856 C60.234 57.856 58.505 59.585 58.505 61.719 C58.505 62.055
							58.547 62.38 58.628 62.69 C59.253 62.806 60.783 62.921 62.339 61.771 z"
						 style="fill:url(#XMLID_13_)"/>
				</g>
			</g>
		</g>
		<path
			d="M33.337 102.059 C37.45 102.64 42.142 99.19 44.385 94.184 C44.132 90.315 42.004 87.371
				38.604 86.894 C34.81 86.363 30.554 89.056 27.936 93.25 C27.475 97.821 29.585
				101.532 33.337 102.059 z"
			 style="fill:none"/>
	</g>
</svg>
