<?xml version="1.0" encoding="utf-8"?>
<!-- Generator: Adobe Illustrator 13.0.0, SVG Export Plug-In . SVG Version: 6.00 Build 14948)  -->
<!DOCTYPE svg PUBLIC "-//W3C//DTD SVG 1.1//EN" "http://www.w3.org/Graphics/SVG/1.1/DTD/svg11.dtd">
<svg version="1.1" id="Layer_1" xmlns="http://www.w3.org/2000/svg" xmlns:xlink="http://www.w3.org/1999/xlink" x="0px" y="0px"
	 width="128px" height="128px" viewBox="0 0 128 128" enable-background="new 0 0 128 128" xml:space="preserve">
<g>
	<g>
		<g>
			
				<linearGradient id="SVGID_1_" gradientUnits="userSpaceOnUse" x1="2110.9883" y1="25.6812" x2="2050.4155" y2="119.9291" gradientTransform="matrix(0.8413 -0.5407 0.5407 0.8411 -1725.8621 1127.8052)">
				<stop  offset="0" style="stop-color:#5F5D5C"/>
				<stop  offset="1" style="stop-color:#181500"/>
			</linearGradient>
			<path fill="url(#SVGID_1_)" d="M115.939,114.645c-0.131-0.338-0.313-0.646-0.528-0.93L81.311,60.669l33.979-46.662
				c1.219-1.675,0.851-4.02-0.823-5.236c-0.672-0.49-1.449-0.711-2.222-0.709l-8.687-0.072l0.002,0.014
				c-1.146,0.01-2.274,0.533-3.002,1.532L70.036,51.454L43.258,9.798c-0.762-1.188-2.082-1.781-3.396-1.697
				c-0.01,0-0.021-0.002-0.031-0.002L15.985,8.183c-0.016,0-0.029,0.004-0.045,0.004c-0.741-0.028-1.498,0.156-2.17,0.588
				c-1.744,1.121-2.248,3.439-1.129,5.183l34.051,52.965l-34.239,47.021c-1.222,1.674-0.851,4.02,0.821,5.238
				c0.736,0.532,1.6,0.746,2.44,0.69l-0.004,0.021l7.546-0.029c1.436,0.351,3.001-0.166,3.926-1.434l30.631-42.064l26.958,41.938
				c0.811,1.262,2.25,1.862,3.646,1.68c0.046,0.002,0.09,0.014,0.138,0.014l23.842-0.082c0.008,0,0.015-0.002,0.021-0.002
				c0.729,0.021,1.477-0.166,2.137-0.592C116.134,118.303,116.682,116.307,115.939,114.645z"/>
		</g>
	</g>
	<g>
		<g>
			
				<linearGradient id="SVGID_2_" gradientUnits="userSpaceOnUse" x1="2079.3926" y1="43.2124" x2="2050.8601" y2="87.6075" gradientTransform="matrix(0.8413 -0.5407 0.5407 0.8411 -1725.8621 1127.8052)">
				<stop  offset="0" style="stop-color:#FFD207"/>
				<stop  offset="1" style="stop-color:#FAA61A"/>
			</linearGradient>
			<path fill="url(#SVGID_2_)" d="M71.366,90.059c-0.062-0.154-0.146-0.297-0.242-0.428L55.055,64.637l16.005-21.978
				c0.572-0.789,0.398-1.895-0.389-2.469c-0.402-0.295-0.893-0.389-1.349-0.309l-3.449-0.029c-0.647-0.123-1.34,0.121-1.754,0.69
				L49.742,60.291L37.126,40.667c-0.358-0.557-0.978-0.837-1.595-0.799c-0.008,0-0.014-0.002-0.021-0.002l-11.233,0.039
				c-0.008,0-0.016,0.002-0.023,0.002c-0.35-0.014-0.705,0.074-1.02,0.277c-0.821,0.526-1.06,1.621-0.531,2.44l16.041,24.954
				L22.612,89.73c-0.573,0.787-0.398,1.893,0.39,2.467c0.419,0.305,0.925,0.393,1.396,0.295l3.299,0.023
				c0.679,0.17,1.421-0.072,1.857-0.675l14.43-19.813l12.701,19.756c0.383,0.596,1.063,0.879,1.723,0.791
				c0.02,0,0.039,0.006,0.06,0.006l11.232-0.037c0.005,0,0.01-0.002,0.015-0.002c0.344,0.01,0.691-0.08,1.001-0.279
				C71.458,91.783,71.717,90.842,71.366,90.059z"/>
		</g>
	</g>
	<path opacity="0.5" fill="#FFFFFF" d="M17.015,12.269c0.643-0.412,1.367-0.59,2.076-0.562c0.016,0,0.028-0.004,0.044-0.004
		l22.813-0.08c0.01,0,0.021,0.002,0.029,0.002c0.007,0,0.015,0,0.021,0l-0.024-0.039c-0.649-1.013-1.774-1.52-2.896-1.447
		c-0.008,0-0.018-0.002-0.026-0.002l-20.327,0.072c-0.014,0-0.025,0.003-0.039,0.003c-0.632-0.024-1.277,0.134-1.85,0.501
		c-1.227,0.789-1.716,2.268-1.318,3.596C15.747,13.497,16.249,12.761,17.015,12.269z"/>
	<path opacity="0.5" fill="#FFFFFF" d="M25.007,42.817c0.309-0.197,0.657-0.283,0.998-0.271c0.007,0,0.014-0.001,0.021-0.001
		l10.961-0.039c0.005,0,0.009,0.001,0.014,0.001c0.105-0.007,0.212,0,0.315,0.011l-0.434-0.674c-0.309-0.482-0.846-0.725-1.38-0.689
		c-0.004,0-0.009-0.001-0.013-0.001l-9.69,0.034c-0.006,0-0.012,0.002-0.019,0.002c-0.301-0.012-0.608,0.063-0.881,0.238
		c-0.692,0.445-0.899,1.352-0.486,2.053C24.547,43.222,24.743,42.987,25.007,42.817z"/>
</g>
</svg>
