<?xml version="1.0"?>
<!DOCTYPE svg PUBLIC "-//W3C//DTD SVG 1.0//EN"
	"http://www.w3.org/TR/2001/REC-SVG-20010904/DTD/svg10.dtd">
<svg xmlns:x="http://ns.adobe.com/Extensibility/1.0/"
	xmlns:i="http://ns.adobe.com/AdobeIllustrator/10.0/" xmlns:graph=""
	xmlns="http://www.w3.org/2000/svg" xmlns:xlink="http://www.w3.org/1999/xlink"
	xmlns:a="http://ns.adobe.com/AdobeSVGViewerExtensions/3.0/" width="116"
	height="122" viewBox="-0.122 0.464 116 122" overflow="visible"
	enable-background="new -0.122 0.464 116 122" xml:space="preserve">
	<g id="Layer_1_2_">
		<path
			d="M33.135 99.523 C37.248 100.104 41.94 96.654 44.183 91.648 C43.93 87.779 41.802 84.835
				38.402 84.358 C34.608 83.827 30.352 86.52 27.734 90.714 C27.273 95.286
				29.384 98.997 33.135 99.523 z"
			 style="fill:none"/>
		<linearGradient id="XMLID_1_" gradientUnits="userSpaceOnUse" x1="39.2935"
			y1="25.1079" x2="34.8222" y2="121.414">
			<stop offset="0.0056" style="stop-color:rgb(255,174,33)"/>
			<stop offset="0.9888" style="stop-color:rgb(255,255,189)"/>
			<a:midPointStop offset="0.0056" style="stop-color:#FFAE21"/>
			<a:midPointStop offset="0.5" style="stop-color:#FFAE21"/>
			<a:midPointStop offset="0.9888" style="stop-color:#FFFFBD"/>
		</linearGradient>
		<path
			d="M38.403 84.358 C41.803 84.836 43.931 87.779 44.184 91.648 C44.409 91.146 44.618 90.634
				44.79 90.103 C46.68 84.274 44.533 79 40.005 78.365 C35.477 77.731 30.241
				81.967 28.351 87.791 C28.027 88.79 27.83 89.77 27.734 90.715 C30.353 86.52
				34.608 83.827 38.403 84.358 z"
			 style="fill:url(#XMLID_1_)"/>
		<linearGradient id="XMLID_2_" gradientUnits="userSpaceOnUse" x1="59.6118"
			y1="26.0454" x2="55.1408" y2="122.347">
			<stop offset="0.0056" style="stop-color:rgb(255,174,33)"/>
			<stop offset="0.9888" style="stop-color:rgb(255,255,189)"/>
			<a:midPointStop offset="0.0056" style="stop-color:#FFAE21"/>
			<a:midPointStop offset="0.5" style="stop-color:#FFAE21"/>
			<a:midPointStop offset="0.9888" style="stop-color:#FFFFBD"/>
		</linearGradient>
		<path
			d="M103.088 9.324 C101.909 8.352 100.678 7.472 99.41 6.655 C99.899 7.019 100.388 7.383
				100.861 7.773 C128.131 30.26 102.86 78.268 96.81 83.648 C90.761 89.035 88.41
				90.371 81.811 91.385 C75.209 92.398 66.064 84.735 58.9 91.07 C51.733 97.403
				52.471 103.75 49.103 108.665 C46.959 111.791 42.755 113.042 38.886 113.802
				C30.615 113.148 23.005 110.264 16.865 104.954 C-2.867 87.899 -0.096 52.16
				23.036 25.399 C24.181 24.075 25.361 22.811 26.558 21.582 C24.427 23.61 22.353
				25.76 20.366 28.06 C-4.221 56.505 -7.167 94.492 13.807 112.619 C20.333 118.263
				28.422 121.328 37.213 122.023 C41.326 121.215 45.794 119.885 48.073 116.563
				C51.653 111.338 50.869 104.592 58.486 97.861 C66.101 91.128 75.822 99.273
				82.839 98.197 C89.854 97.119 92.353 95.698 98.782 89.972 C105.212 84.254
				132.073 33.226 103.088 9.324 z"
			 style="fill:url(#XMLID_2_)"/>
		<linearGradient id="XMLID_3_" gradientUnits="userSpaceOnUse" x1="5.9111"
			y1="70.5562" x2="109.016" y2="40.9913">
			<stop offset="0.0056" style="stop-color:rgb(255,174,33)"/>
			<stop offset="0.9888" style="stop-color:rgb(255,255,189)"/>
			<a:midPointStop offset="0.0056" style="stop-color:#FFAE21"/>
			<a:midPointStop offset="0.5" style="stop-color:#FFAE21"/>
			<a:midPointStop offset="0.9888" style="stop-color:#FFFFBD"/>
		</linearGradient>
		<path
			d="M16.865 104.953 C23.005 110.263 30.615 113.146 38.886 113.801 C42.756 113.041 46.959
				111.79 49.103 108.664 C52.471 103.749 51.733 97.402 58.9 91.069 C66.064
				84.734 75.21 92.397 81.811 91.384 C88.41 90.369 90.761 89.033 96.81 83.647 C102.86
				78.267 128.13 30.259 100.861 7.772 C100.387 7.382 99.899 7.018 99.41
				6.654 C79.539 -6.165 49.347 -0.104 26.558 21.582 C25.36 22.811 24.18 24.075
				23.036 25.399 C-0.096 52.16 -2.867 87.899 16.865 104.953 zM26.015 94.376 C26.44
				93.066 27.032 91.84 27.734 90.714 C27.829 89.769 28.026 88.789 28.351 87.79
				C30.241 81.966 35.477 77.73 40.005 78.364 C44.533 79 46.68 84.274 44.79
				90.103 C44.618 90.634 44.409 91.146 44.184 91.648 C44.289 93.254 44.079 95.017
				43.489 96.835 C41.477 103.027 35.911 107.527 31.101 106.848 C26.289 106.172
				24.003 100.572 26.015 94.376 z"
			 style="fill:url(#XMLID_3_)"/>
		<linearGradient id="XMLID_4_" gradientUnits="userSpaceOnUse" x1="10.6279"
			y1="69.8853" x2="107.473" y2="42.1154">
			<stop offset="0.0056" style="stop-color:rgb(255,174,33)"/>
			<stop offset="0.9888" style="stop-color:rgb(255,255,189)"/>
			<a:midPointStop offset="0.0056" style="stop-color:#FFAE21"/>
			<a:midPointStop offset="0.5" style="stop-color:#FFAE21"/>
			<a:midPointStop offset="0.9888" style="stop-color:#FFFFBD"/>
		</linearGradient>
		<path
			d="M16.865 105.06 C23.005 110.305 30.615 113.154 38.886 113.8 C42.756 113.049 46.959
				111.814 49.103 108.726 C52.471 103.87 51.733 97.6 58.9 91.344 C66.064 85.085
				75.21 92.656 81.811 91.656 C88.41 90.653 90.761 89.334 96.81 84.011 C102.86
				78.697 128.13 31.269 100.861 9.054 C100.387 8.669 99.899 8.309 99.41 7.95
				C79.539 -4.714 49.347 1.273 26.558 22.697 C25.36 23.911 24.18 25.159 23.036
				26.468 C-0.096 52.905 -2.867 88.212 16.865 105.06 zM26.015 94.612 C26.44 93.318
				27.032 92.106 27.734 90.994 C27.829 90.06 28.026 89.093 28.351 88.105 C30.241
				82.351 35.477 78.167 40.005 78.793 C44.532 79.421 46.68 84.631 44.79 90.389
				C44.618 90.914 44.409 91.42 44.184 91.915 C44.289 93.502 44.079 95.244
				43.489 97.039 C41.477 103.156 35.911 107.602 31.101 106.931 C26.289 106.264
				24.003 100.732 26.015 94.612 z"
			 style="fill:url(#XMLID_4_)"/>
		<linearGradient id="XMLID_5_" gradientUnits="userSpaceOnUse" x1="58.0771"
			y1="22.0371" x2="58.0771" y2="114.324">
			<stop offset="0" style="stop-color:rgb(116,68,38)"/>
			<stop offset="1" style="stop-color:rgb(222,151,43)"/>
			<a:midPointStop offset="0" style="stop-color:#744426"/>
			<a:midPointStop offset="0.5" style="stop-color:#744426"/>
			<a:midPointStop offset="1" style="stop-color:#DE972B"/>
		</linearGradient>
		<path
			d="M20.366 28.06 C44.951 -0.392 81.696 -8.313 103.088 9.324 C132.068 33.226 105.212
				84.25 98.782 89.972 C92.352 95.698 89.853 97.116 82.839 98.197 C75.822 99.273
				66.102 91.125 58.485 97.861 C50.87 104.597 51.652 111.339 48.071 116.559 C45.792
				119.885 41.326 121.215 37.214 122.023 C28.422 121.328 20.331 118.262
				13.806 112.619 C-7.169 94.489 -4.221 56.504 20.366 28.06 M22.574 30.185 C46.183
				3.673 80.744 -3.794 100.382 12.539 C126.997 34.685 100.783 82.188 94.648
				87.524 C88.503 92.861 86.138 94.185 79.55 95.209 C72.963 96.231 64.039 88.684
				56.767 94.966 C49.498 101.251 50.086 107.515 46.627 112.38 C44.423 115.474
				40.216 116.721 36.35 117.486 C28.136 116.861 20.631 114.032 14.644 108.811
				C-4.599 92.015 -1.038 56.695 22.574 30.185"
			 style="fill-rule:evenodd;clip-rule:evenodd;fill:url(#XMLID_5_)"/>
		<linearGradient id="XMLID_6_" gradientUnits="userSpaceOnUse" x1="34.9927"
			y1="22.04" x2="34.9927" y2="114.32">
			<stop offset="0" style="stop-color:rgb(116,68,38)"/>
			<stop offset="1" style="stop-color:rgb(222,151,43)"/>
			<a:midPointStop offset="0" style="stop-color:#744426"/>
			<a:midPointStop offset="0.5" style="stop-color:#744426"/>
			<a:midPointStop offset="1" style="stop-color:#DE972B"/>
		</linearGradient>
		<path
			d="M38.996 82.518 C44.607 84.192 47.392 91.575 45.19 98.955 C42.985 106.333 36.609 110.985
				30.995 109.309 C25.379 107.633 22.595 100.247 24.795 92.865 C26.999 85.49
				33.375 80.84 38.996 82.518 M39.696 85.211 C43.805 86.562 44.968 92.479
				42.28 98.381 C39.592 104.286 34.048 107.998 29.936 106.647 C25.824 105.297 24.662
				99.381 27.346 93.477 C30.038 87.573 35.582 83.86 39.696 85.211"
			 style="fill-rule:evenodd;clip-rule:evenodd;fill:url(#XMLID_6_)"/>
		<path
			d="M11.149 55.021 L12.23 56.165 L13.442 57.217 L14.679 58.236 L15.814 59.272 L16.731
				60.307 L17.332 61.359 L17.591 62.571 L17.558 64.078 L17.328 65.793 L17.037
				67.592 L16.838 69.374 L16.919 71.097 L17.572 72.684 L19.1 73.76 L20.981 73.806
				L22.406 72.76 L23.376 71.265 L24.14 69.583 L24.83 67.872 L25.511 66.355 L26.191
				65.299 L26.754 64.867 L27.125 64.859 L27.626 65.186 L28.285 65.986 L28.959
				67.054 L29.638 68.158 L30.45 69.168 L31.877 69.729 L33.113 68.562 L33.551
				66.998 L33.41 65.403 L32.969 63.816 L32.385 62.253 L31.802 60.736 L31.344
				59.368 L31.135 58.258 L31.213 57.546 L31.288 57.439 L31.762 57.588 L32.562
				57.977 L33.54 58.442 L34.701 58.765 L36.034 58.534 L36.993 57.465 L37.6 56.073
				L38.122 54.515 L38.56 52.766 L38.86 50.901 L38.978 49.002 L38.85 47.129
				L38.401 45.372 L37.512 43.793 L36.151 42.711 L34.546 42.325 L32.928 42.413 L31.349
				42.741 L29.841 43.138 L28.46 43.453 L27.312 43.565 L26.496 43.411 L25.906
				42.981 L25.365 42.14 L24.891 40.984 L24.455 39.695 L23.989 38.444 L23.291
				37.284 L21.963 36.625 L20.426 37.271 L19.361 38.609 L18.835 40.233 L18.626
				41.99 L18.57 43.8 L18.556 45.578 L18.472 47.198 L18.237 48.524 L17.835 49.406
				L17.313 49.856 L16.557 50.046 L15.509 50.046 L14.3 49.908 L13.041 49.786
				L11.737 49.867 L10.511 50.588 L10.039 52.112 L10.339 53.694 L11.149 55.021
				M74.4 15.526 L74.144 17.175 L74.595 18.696 L75.444 19.96 L76.46 21.049 L77.462
				22.044 L78.307 22.98 L78.847 23.821 L79.026 24.563 L78.866 25.243 L78.349
				25.972 L77.492 26.78 L76.461 27.646 L75.425 28.624 L74.571 29.833 L74.244 31.371
				L74.771 33.024 L75.914 34.586 L77.418 36.04 L79.2 37.416 L81.168 38.659
				L83.223 39.736 L85.284 40.581 L87.256 41.153 L89.12 41.368 L90.757 41.016
				L91.689 39.83 L91.835 38.443 L91.673 37.116 L91.444 35.836 L91.321 34.697 L91.408
				33.868 L91.726 33.333 L92.392 32.902 L93.445 32.579 L94.767 32.364 L96.238
				32.195 L97.742 31.983 L99.211 31.619 L100.564 30.939 L101.588 29.759 L101.96
				28.296 L101.628 26.966 L100.9 25.893 L100.017 24.981 L99.102 24.153 L98.275
				23.365 L97.671 22.616 L97.343 21.915 L97.256 21.178 L97.355 20.308 L97.601
				19.322 L97.9 18.232 L98.16 17.068 L98.257 15.809 L98.024 14.483 L97.354
				13.232 L96.379 12.118 L95.252 11.086 L93.973 10.142 L92.555 9.293 L91.026 8.601
				L89.42 8.1 L87.751 7.827 L86.061 7.831 L84.344 8.124 L82.6 8.648 L80.877
				9.385 L79.215 10.305 L77.682 11.387 L76.328 12.617 L75.214 13.985 L74.4 15.526
				M49.299 17.589 L48.04 18.285 L46.499 18.906 L44.783 19.511 L42.999 20.132
				L41.253 20.84 L39.633 21.702 L38.24 22.829 L37.233 24.329 L36.912 26.027
				L37.356 27.544 L38.257 28.778 L39.34 29.81 L40.459 30.758 L41.456 31.665 L42.191
				32.54 L42.573 33.385 L42.639 34.342 L42.424 35.5 L42.007 36.805 L41.504
				38.18 L41.059 39.597 L40.823 41.055 L41.043 42.542 L41.991 43.851 L43.425 44.572
				L44.896 44.56 L46.249 44.1 L47.521 43.425 L48.764 42.7 L49.973 42.041
				L51.136 41.578 L52.227 41.387 L53.42 41.532 L54.837 41.996 L56.403 42.663 L58.043
				43.38 L59.719 44.002 L61.424 44.35 L63.148 44.184 L64.705 43.194 L65.562
				41.578 L65.426 39.883 L64.738 38.35 L63.809 36.892 L62.847 35.48 L62.052
				34.121 L61.588 32.891 L61.559 31.793 L61.976 30.703 L62.822 29.555 L63.982 28.379
				L65.308 27.193 L66.637 25.971 L67.823 24.67 L68.685 23.187 L68.929 21.443
				L68.279 19.856 L66.861 19.26 L65.42 19.367 L64.016 19.711 L62.657 20.087
				L61.451 20.319 L60.6 20.298 L60.142 20.05 L59.865 19.515 L59.79 18.545 L59.94
				17.228 L60.201 15.749 L60.423 14.224 L60.416 12.703 L59.837 11.249 L58.4
				10.376 L56.738 10.347 L55.35 10.969 L54.211 11.955 L53.211 13.136 L52.271 14.395
				L51.322 15.63 L50.344 16.724 L49.299 17.589"
			 style="opacity:0.2;fill-rule:evenodd;clip-rule:evenodd"/>
		<g>
			<path
				d="M10.339 51.565 C10.447 48.356 15.988 52.161 17.919 49.437 C19.854 46.716 17.643 39.556
					20.314 37.509 C22.986 35.463 22.454 42.602 25.335 43.77 C28.219 44.942
					33.565 40.861 35.975 43.865 C38.38 46.865 36.764 53.579 35.376 56.304 C33.984
					59.023 30.415 53.918 29.48 56.579 C28.543 59.229 32.968 64.781 31.466
					67.412 C29.96 70.039 28.537 62.186 25.657 63.257 C22.776 64.319 22.322 73.432
					18.69 72.144 C15.059 70.86 19 63.966 17.548 60.39 C16.094 56.802 10.231
					54.772 10.339 51.565 z"
				 style="fill-rule:evenodd;clip-rule:evenodd;fill:rgb(255,0,0)"/>
			<linearGradient id="XMLID_7_" gradientUnits="userSpaceOnUse" x1="23.812"
				y1="63.0708" x2="23.812" y2="33.8354">
				<stop offset="0.3" style="stop-color:rgb(255,0,0)"/>
				<stop offset="0.7" style="stop-color:rgb(255,255,255)"/>
				<a:midPointStop offset="0.3" style="stop-color:#FF0000"/>
				<a:midPointStop offset="0.5" style="stop-color:#FF0000"/>
				<a:midPointStop offset="0.7" style="stop-color:#FFFFFF"/>
			</linearGradient>
			<path
				d="M12.745 52.038 C12.834 49.385 17.418 52.527 19.015 50.273 C20.615 48.025 18.787 42.101
					20.996 40.41 C23.206 38.72 22.767 44.624 25.149 45.59 C27.534 46.559
					31.957 43.182 33.95 45.668 C35.941 48.15 34.605 53.705 33.455 55.958 C32.305
					58.203 29.351 53.977 28.578 56.182 C27.803 58.378 31.464 62.976 30.224 65.143
					C28.976 67.318 27.8 60.822 25.417 61.709 C23.033 62.587 22.658 70.122
					19.654 69.059 C16.65 67.997 19.911 62.296 18.709 59.33 C17.505 56.372 12.655
					54.689 12.745 52.038 z"
				 style="fill-rule:evenodd;clip-rule:evenodd;fill:url(#XMLID_7_)"/>
			<path
				d="M49.131 17.833 C45.796 20.067 38.981 20.568 37.454 24.123 C35.927 27.686 42.049 29.302
					42.836 32.534 C43.623 35.762 39.387 40.323 41.925 42.448 C44.463 44.573
					47.824 39.851 51.458 39.751 C55.093 39.655 60.508 44.685 63.189 41.872 C65.866
					39.063 59.05 34.912 59.79 31.009 C60.527 27.111 67.51 24.45 67.142 20.97
					C66.774 17.494 60.723 22.358 58.641 20.191 C56.559 18.024 60.65 11.602
					57.363 10.786 C54.072 9.975 52.466 15.601 49.131 17.833 z"
				 style="fill-rule:evenodd;clip-rule:evenodd;fill:rgb(0,151,0)"/>
			<linearGradient id="XMLID_8_" gradientUnits="userSpaceOnUse" x1="50.0781"
				y1="43.0371" x2="54.5152" y2="4.6629">
				<stop offset="0.2416" style="stop-color:rgb(0,159,0)"/>
				<stop offset="0.78" style="stop-color:rgb(255,255,255)"/>
				<a:midPointStop offset="0.2416" style="stop-color:#009F00"/>
				<a:midPointStop offset="0.5" style="stop-color:#009F00"/>
				<a:midPointStop offset="0.78" style="stop-color:#FFFFFF"/>
			</linearGradient>
			<path
				d="M49.711 19.42 C46.929 21.285 41.246 21.7 39.975 24.666 C38.703 27.637 43.808 28.983
					44.462 31.676 C45.119 34.369 41.587 38.173 43.702 39.946 C45.819 41.72 48.622
					37.779 51.653 37.701 C54.683 37.618 59.199 41.815 61.432 39.466 C63.665
					37.125 57.983 33.666 58.598 30.409 C59.214 27.157 65.036 24.94 64.73 22.04
					C64.419 19.139 59.375 23.196 57.641 21.389 C55.906 19.583 59.315 14.226
					56.574 13.546 C53.832 12.867 52.494 17.561 49.711 19.42 z"
				 style="fill-rule:evenodd;clip-rule:evenodd;fill:url(#XMLID_8_)"/>
			<path
				d="M74.637 15.245 C73.27 18.779 79.269 20.788 79.325 23.953 C79.384 27.119 72.913 28.391
					74.943 31.949 C76.973 35.512 84.419 39.721 88.325 39.735 C92.227 39.752
					88.03 34.096 90.221 32 C92.415 29.907 98.492 31.416 99.909 28.673 C101.329
					25.93 96.325 24.277 95.603 21.596 C94.882 18.911 97.77 15.841 95.756 13.211
					C93.747 10.584 89.434 7.858 85.399 8.243 C81.365 8.632 76 11.715 74.637
					15.245 z"
				 style="fill-rule:evenodd;clip-rule:evenodd;fill:rgb(61,96,255)"/>
			<linearGradient id="XMLID_9_" gradientUnits="userSpaceOnUse" x1="87.2188"
				y1="30.395" x2="87.2188" y2="3.5658">
				<stop offset="0.25" style="stop-color:rgb(63,114,255)"/>
				<stop offset="0.75" style="stop-color:rgb(255,255,255)"/>
				<a:midPointStop offset="0.25" style="stop-color:#3F72FF"/>
				<a:midPointStop offset="0.5" style="stop-color:#3F72FF"/>
				<a:midPointStop offset="0.75" style="stop-color:#FFFFFF"/>
			</linearGradient>
			<path
				d="M76.058 16.268 C74.852 19.388 80.148 21.161 80.201 23.961 C80.256 26.754 74.537 27.877
					76.331 31.022 C78.126 34.166 84.697 37.883 88.147 37.895 C91.594 37.907
					87.887 32.915 89.826 31.067 C91.762 29.215 97.132 30.549 98.381 28.126 C99.633
					25.707 95.212 24.248 94.579 21.878 C93.94 19.508 96.489 16.799 94.714
					14.475 C92.937 12.15 89.13 9.747 85.564 10.088 C81.999 10.431 77.264 13.148
					76.058 16.268 z"
				 style="fill-rule:evenodd;clip-rule:evenodd;fill:url(#XMLID_9_)"/>
		</g>
	</g>
</svg>
