<?xml version="1.0" encoding="utf-8"?>
<!-- Generator: Adobe Illustrator 13.0.0, SVG Export Plug-In . SVG Version: 6.00 Build 14948)  -->
<!DOCTYPE svg PUBLIC "-//W3C//DTD SVG 1.1//EN" "http://www.w3.org/Graphics/SVG/1.1/DTD/svg11.dtd">
<svg version="1.1" id="Layer_1" xmlns="http://www.w3.org/2000/svg" xmlns:xlink="http://www.w3.org/1999/xlink" x="0px" y="0px"
	 width="128.074px" height="128px" viewBox="0 0 128.074 128" enable-background="new 0 0 128.074 128" xml:space="preserve">
<g>
	<g>
		<linearGradient id="SVGID_1_" gradientUnits="userSpaceOnUse" x1="63.7671" y1="59.7188" x2="63.7671" y2="118.0005">
			<stop  offset="0" style="stop-color:#5F5D5C"/>
			<stop  offset="1" style="stop-color:#181500"/>
		</linearGradient>
		<path fill="url(#SVGID_1_)" d="M32.147,59.719h61.485c4.676,0,8.795,2.285,11.212,5.756l18.313,22.248
			c2.531,3.193,4.146,7.26,4.146,11.688c0,10.266-8.672,18.59-19.367,18.59h-88.34C8.9,118,0.23,109.676,0.23,99.41
			c0-4.553,1.704-8.723,4.534-11.955l15.301-20.539C22.27,62.65,26.852,59.719,32.147,59.719L32.147,59.719z"/>
		<linearGradient id="SVGID_2_" gradientUnits="userSpaceOnUse" x1="63.7671" y1="102.957" x2="63.7671" y2="85.6875">
			<stop  offset="0" style="stop-color:#6D6F71"/>
			<stop  offset="1" style="stop-color:#939598"/>
		</linearGradient>
		<path fill="url(#SVGID_2_)" d="M21.562,88.551h84.41c9.657,0,17.575,6.33,18.419,14.406c0.052-0.474,0.085-0.951,0.085-1.437
			c0-8.745-8.284-15.833-18.504-15.833h-84.41c-10.22,0-18.506,7.088-18.506,15.833c0,0.485,0.033,0.963,0.085,1.437
			C3.986,94.881,11.906,88.551,21.562,88.551z"/>
		<linearGradient id="SVGID_3_" gradientUnits="userSpaceOnUse" x1="110.8115" y1="119.6006" x2="22.7503" y2="57.9394">
			<stop  offset="0" style="stop-color:#5F5D5C"/>
			<stop  offset="1" style="stop-color:#181500"/>
		</linearGradient>
		<path fill="url(#SVGID_3_)" d="M32.182,55.998h61.298c4.662,0,8.769,2.279,11.179,5.74l18.258,22.18
			c2.525,3.184,4.133,7.238,4.133,11.652l-0.021,0.873c-1.699-7.678-9.582-13.484-19.05-13.484H19.532
			c-9.624,0-17.61,6-19.128,13.867C0.375,96.41,0.36,95.992,0.36,95.57c0-4.539,1.699-8.695,4.521-11.918l15.254-20.479
			C22.333,58.922,26.901,55.998,32.182,55.998L32.182,55.998z"/>
		<path fill="#4D4D4D" d="M68.723,67.688c16.825,0,32.318,2.563,44.699,6.864l-8.764-10.647c-2.41-3.461-6.517-5.74-11.179-5.74
			H32.182c-5.28,0-9.849,2.924-12.046,7.176L7.109,82.828C20.197,73.719,42.894,67.688,68.723,67.688z"/>
		<linearGradient id="SVGID_4_" gradientUnits="userSpaceOnUse" x1="63.7661" y1="93.6084" x2="63.7661" y2="109.8379">
			<stop  offset="0" style="stop-color:#DEDEDE"/>
			<stop  offset="1" style="stop-color:#9A9A9A"/>
		</linearGradient>
		<path fill="url(#SVGID_4_)" d="M117.094,101.723c0,4.482-3.633,8.115-8.115,8.115H18.555c-4.482,0-8.115-3.633-8.115-8.115l0,0
			c0-4.481,3.633-8.114,8.115-8.114h90.424C113.461,93.608,117.094,97.241,117.094,101.723L117.094,101.723z"/>
		<linearGradient id="SVGID_5_" gradientUnits="userSpaceOnUse" x1="23.5366" y1="99.79" x2="23.5366" y2="105.2939">
			<stop  offset="0" style="stop-color:#5F5D5C"/>
			<stop  offset="1" style="stop-color:#181500"/>
		</linearGradient>
		<path fill="url(#SVGID_5_)" d="M17.177,99.79h12.722c1.247,0,2.258,1.012,2.258,2.26v0.982c0,1.248-1.011,2.262-2.258,2.262
			H17.177c-1.247,0-2.26-1.014-2.26-2.262v-0.982C14.917,100.802,15.93,99.79,17.177,99.79L17.177,99.79z"/>
	</g>
	<g>
		
			<linearGradient id="SVGID_6_" gradientUnits="userSpaceOnUse" x1="2873.1338" y1="44.8496" x2="2873.1338" y2="103.6967" gradientTransform="matrix(-1 0 0 1 2936.9414 0)">
			<stop  offset="0" style="stop-color:#FFD207"/>
			<stop  offset="1" style="stop-color:#FAA61A"/>
		</linearGradient>
		<path fill="url(#SVGID_6_)" d="M31.484,77.174c0,17.852,14.471,32.322,32.324,32.322c17.852,0,32.322-14.471,32.322-32.322
			c0-17.853-14.471-32.324-32.322-32.324C45.955,44.85,31.484,59.321,31.484,77.174z M57.275,77.326
			c0.002-3.628,2.938-6.566,6.568-6.566v-0.002c3.625,0.002,6.564,2.94,6.566,6.568c-0.002,3.627-2.941,6.566-6.566,6.566
			C60.213,83.893,57.277,80.953,57.275,77.326z"/>
		<path fill="#FA8F1A" d="M63.727,108.164c-17.629,0-31.951-14.115-32.307-31.66c-0.006,0.223-0.016,0.444-0.016,0.669
			c0,17.853,14.471,32.323,32.322,32.323c17.854,0,32.324-14.471,32.324-32.323c0-0.225-0.01-0.446-0.018-0.669
			C95.678,94.049,81.357,108.164,63.727,108.164z"/>
		<path fill="#FFFFFF" d="M63.805,47.984c11.146,0,20.969,5.662,26.752,14.267c-5.328-9.254-15.309-15.489-26.752-15.489
			c-11.441,0-21.42,6.231-26.746,15.48C42.842,53.643,52.66,47.984,63.805,47.984z"/>
		<linearGradient id="SVGID_7_" gradientUnits="userSpaceOnUse" x1="53.0098" y1="77.3086" x2="74.7051" y2="77.3086">
			<stop  offset="0" style="stop-color:#5F5D5C"/>
			<stop  offset="1" style="stop-color:#181500"/>
		</linearGradient>
		<path fill="url(#SVGID_7_)" d="M53.01,77.31c0.002,5.991,4.855,10.845,10.852,10.845c5.986,0,10.844-4.854,10.844-10.845
			c0-5.99-4.857-10.843-10.844-10.847v0.004C57.865,66.467,53.012,71.319,53.01,77.31z M57.357,77.31
			c0.002-3.591,2.908-6.497,6.502-6.497V70.81c3.588,0.003,6.498,2.909,6.5,6.5c-0.002,3.59-2.912,6.498-6.5,6.498
			C60.266,83.808,57.359,80.899,57.357,77.31z"/>
	</g>
</g>
</svg>
