<?xml version="1.0" encoding="utf-8"?>
<!-- Generator: Adobe Illustrator 13.0.0, SVG Export Plug-In . SVG Version: 6.00 Build 14948)  -->
<!DOCTYPE svg PUBLIC "-//W3C//DTD SVG 1.1//EN" "http://www.w3.org/Graphics/SVG/1.1/DTD/svg11.dtd">
<svg version="1.1" id="Layer_1" xmlns="http://www.w3.org/2000/svg" xmlns:xlink="http://www.w3.org/1999/xlink" x="0px" y="0px"
	 width="128px" height="128px" viewBox="0 0 128 128" enable-background="new 0 0 128 128" xml:space="preserve">
<g>
	<g>
		<linearGradient id="SVGID_1_" gradientUnits="userSpaceOnUse" x1="61.6196" y1="22.3877" x2="61.6196" y2="87.3634">
			<stop  offset="0" style="stop-color:#FF9D00"/>
			<stop  offset="1" style="stop-color:#FF1F00"/>
		</linearGradient>
		<path fill="url(#SVGID_1_)" d="M104.873,23.57H18.369c-8.879,0-16.078,7.199-16.078,16.076v45.357
			c0,8.881,7.199,16.078,16.078,16.078h86.504c8.877,0,16.076-7.197,16.076-16.078V39.646C120.949,30.77,113.75,23.57,104.873,23.57
			z"/>
		<path fill="none" stroke="#FFFFFF" stroke-width="2" stroke-miterlimit="3.8637" d="M4.225,31.998l36.029,36.037
			c0,0,11.473,13.584,21.793,13.584c10.322,0,22.369-13.582,22.369-13.582l34.643-35.955"/>
		
			<line fill="none" stroke="#FFFFFF" stroke-width="2" stroke-miterlimit="3.8637" x1="7.021" y1="96.391" x2="38.711" y2="66.492"/>
		
			<line fill="none" stroke="#FFFFFF" stroke-width="2" stroke-miterlimit="3.8637" x1="86.045" y1="66.348" x2="116.219" y2="96.398"/>
		<path fill="#FFFFFF" d="M103.553,26.379c3.941,0,7.473,1.76,9.875,4.525h1.67c-2.625-3.531-6.816-5.834-11.545-5.834H19.057
			c-4.729,0-8.92,2.303-11.545,5.834h1.67c2.402-2.766,5.934-4.525,9.875-4.525"/>
		<path fill="#ED1F00" d="M104.873,98.415H18.369c-8.879,0-16.078-7.197-16.078-16.078v2.667c0,8.881,7.199,16.078,16.078,16.078
			h86.504c8.877,0,16.076-7.197,16.076-16.078v-2.667C120.949,91.218,113.75,98.415,104.873,98.415z"/>
	</g>
	<g>
		<linearGradient id="SVGID_2_" gradientUnits="userSpaceOnUse" x1="66.3799" y1="115.1826" x2="66.3799" y2="50.2077">
			<stop  offset="0" style="stop-color:#00B2DE"/>
			<stop  offset="1" style="stop-color:#99DBF6"/>
		</linearGradient>
		<path fill="url(#SVGID_2_)" d="M109.633,36.488H23.129c-8.879,0-16.078,7.199-16.078,16.076v45.357
			c0,8.881,7.199,16.078,16.078,16.078h86.504c8.877,0,16.076-7.197,16.076-16.078V52.564
			C125.709,43.688,118.51,36.488,109.633,36.488z"/>
		<path fill="none" stroke="#FFFFFF" stroke-width="2" stroke-miterlimit="3.8637" d="M8.984,44.916l36.029,36.037
			c0,0,11.473,13.584,21.793,13.584c10.322,0,22.369-13.582,22.369-13.582L123.818,45"/>
		
			<line fill="none" stroke="#FFFFFF" stroke-width="2" stroke-miterlimit="3.8637" x1="11.781" y1="109.309" x2="43.471" y2="79.41"/>
		
			<line fill="none" stroke="#FFFFFF" stroke-width="2" stroke-miterlimit="3.8637" x1="90.805" y1="79.266" x2="120.979" y2="109.316"/>
		<path fill="#FFFFFF" d="M108.312,39.297c3.941,0,7.473,1.76,9.875,4.525h1.67c-2.625-3.531-6.816-5.834-11.545-5.834H23.816
			c-4.729,0-8.92,2.303-11.545,5.834h1.67c2.402-2.766,5.934-4.525,9.875-4.525"/>
		
			<radialGradient id="SVGID_3_" cx="-4388.2471" cy="-354.8066" r="30.6523" gradientTransform="matrix(-0.6994 -1.000000e-04 0 0.6996 -3002.7612 314.3681)" gradientUnits="userSpaceOnUse">
			<stop  offset="0" style="stop-color:#FAFAFA"/>
			<stop  offset="0.3109" style="stop-color:#F4F4F4"/>
			<stop  offset="0.7262" style="stop-color:#E3E3E3"/>
			<stop  offset="1" style="stop-color:#D4D4D4"/>
		</radialGradient>
		<path fill="url(#SVGID_3_)" stroke="#059CC2" d="M49.189,57.601c-1.133,1.192-1.727,2.562-1.727,4.232
			c0,1.607,0.596,3.039,1.727,4.23c1.191,1.131,2.623,1.729,4.229,1.729c1.67,0.001,3.1-0.597,4.232-1.729l2.74-2.801l0.002,21.062
			c0.059,1.668,0.596,3.098,1.787,4.23c1.133,1.193,2.562,1.729,4.172,1.729c1.668,0,3.096-0.535,4.229-1.729
			c1.191-1.131,1.789-2.561,1.789-4.229l-0.002-21.062l2.74,2.801c1.191,1.133,2.561,1.73,4.23,1.73
			c1.609,0,3.039-0.598,4.229-1.729c1.133-1.19,1.729-2.621,1.729-4.23c0-1.67-0.596-3.041-1.729-4.232l-12.99-12.934
			c-1.133-1.191-2.561-1.787-4.229-1.787c-1.609,0-3.037,0.594-4.172,1.785L49.189,57.601z"/>
		<path fill="#059CC2" d="M109.633,111.333H23.129c-8.879,0-16.078-7.197-16.078-16.078v2.667c0,8.881,7.199,16.078,16.078,16.078
			h86.504c8.877,0,16.076-7.197,16.076-16.078v-2.667C125.709,104.136,118.51,111.333,109.633,111.333z"/>
		<path fill="#CCCCCC" d="M72.029,63.606l-0.475-0.479l-0.002,20.694c-0.051,1.458-0.521,2.708-1.562,3.698
			c-0.633,0.668-1.373,1.098-2.191,1.321c0,0-0.438,0.228-0.438,0.51c0,0.43,0.438,0.219,0.438,0.219
			c0.936-0.233,1.781-0.704,2.5-1.461c1.131-1.074,1.639-2.43,1.695-4.011l0.002-18.713l0.033-0.953V63.606z"/>
		<path fill="#FFFFFF" d="M69.036,44.514c-0.826-0.496-1.757-0.762-2.801-0.734c-1.559-0.039-2.876,0.559-4.033,1.638L49.6,58.016
			v0.623l12.718-12.715c1.068-0.994,2.468-1.649,3.904-1.614c0.92-0.024,1.737,0.287,2.474,0.707c0,0,0.296,0.161,0.496-0.038
			C69.495,44.674,69.036,44.514,69.036,44.514z"/>
	</g>
</g>
</svg>
