<?xml version="1.0" encoding="utf-8"?>
<!-- Generator: Adobe Illustrator 13.0.0, SVG Export Plug-In . SVG Version: 6.00 Build 14948)  -->
<!DOCTYPE svg PUBLIC "-//W3C//DTD SVG 1.1//EN" "http://www.w3.org/Graphics/SVG/1.1/DTD/svg11.dtd">
<svg version="1.1" id="Layer_1" xmlns="http://www.w3.org/2000/svg" xmlns:xlink="http://www.w3.org/1999/xlink" x="0px" y="0px"
	 width="128px" height="128px" viewBox="0 0 128 128" enable-background="new 0 0 128 128" xml:space="preserve">
<g>
	<g>
		<linearGradient id="SVGID_1_" gradientUnits="userSpaceOnUse" x1="64.0005" y1="114.1807" x2="64.0005" y2="49.2058">
			<stop  offset="0" style="stop-color:#00B2DE"/>
			<stop  offset="1" style="stop-color:#99DBF6"/>
		</linearGradient>
		<path fill="url(#SVGID_1_)" d="M107.253,35.486H20.75c-8.88,0-16.079,7.199-16.079,16.076V96.92
			c0,8.881,7.199,16.078,16.079,16.078h86.503c8.878,0,16.076-7.197,16.076-16.078V51.562
			C123.329,42.686,116.131,35.486,107.253,35.486z"/>
		<path fill="#FFFFFF" d="M11.562,42.82c2.401-2.766,5.934-4.525,9.875-4.525h84.495c3.941,0,7.474,1.76,9.875,4.525h1.67
			c-2.625-3.531-6.816-5.834-11.545-5.834H21.438c-4.729,0-8.92,2.303-11.545,5.834H11.562z"/>
		<radialGradient id="SVGID_2_" cx="63.7554" cy="55.7949" r="44.8323" gradientUnits="userSpaceOnUse">
			<stop  offset="0" style="stop-color:#FAFAFA"/>
			<stop  offset="0.3109" style="stop-color:#F4F4F4"/>
			<stop  offset="0.7262" style="stop-color:#E3E3E3"/>
			<stop  offset="1" style="stop-color:#D4D4D4"/>
		</radialGradient>
		<path fill="url(#SVGID_2_)" stroke="#999999" stroke-width="2" d="M64.428,93.535c10.321,0,22.369-13.582,22.369-13.582
			l25.715-26.689V35.586c0-11.225-9.104-20.322-20.335-20.322H35.334c-11.231,0-20.335,9.098-20.335,20.322V52.31l27.635,27.642
			C42.634,79.951,54.106,93.535,64.428,93.535z"/>
		<path fill="#B3B3B3" d="M64.436,89.878c-10.219,0-21.577-13.449-21.577-13.449l-27.36-27.367v4.149l27.36,27.367
			c0,0,11.358,13.449,21.577,13.449S86.583,80.58,86.583,80.58l25.459-26.424v-4.15L86.583,76.431
			C86.583,76.431,74.654,89.878,64.436,89.878z"/>
		<path fill="none" stroke="#FFFFFF" stroke-width="2" stroke-miterlimit="3.8637" d="M6.605,43.914l36.028,36.037
			c0,0,11.473,13.584,21.794,13.584s22.369-13.582,22.369-13.582l34.643-35.955"/>
		
			<line fill="none" stroke="#FFFFFF" stroke-width="2" stroke-miterlimit="3.8637" x1="9.402" y1="108.307" x2="41.091" y2="78.408"/>
		
			<line fill="none" stroke="#FFFFFF" stroke-width="2" stroke-miterlimit="3.8637" x1="88.425" y1="78.264" x2="118.599" y2="108.314"/>
		<path fill="#059CC2" d="M107.253,110.331H20.75c-8.88,0-16.079-7.197-16.079-16.078v2.667c0,8.881,7.199,16.078,16.079,16.078
			h86.503c8.878,0,16.076-7.197,16.076-16.078v-2.667C123.329,103.134,116.131,110.331,107.253,110.331z"/>
		<path fill="#FFFFFF" d="M20.809,30.128c3.377-5.406,9.367-9.963,16.217-9.963h53.461c6.849,0,12.839,4.557,16.217,9.963h1.367
			c-2.922-6.817-9.692-11.595-17.584-11.595H37.025c-7.893,0-14.663,4.777-17.585,11.595H20.809z"/>
	</g>
	
		<linearGradient id="SVGID_3_" gradientUnits="userSpaceOnUse" x1="-1146.1143" y1="2841.2627" x2="-1200.2061" y2="2841.2549" gradientTransform="matrix(-1.000000e-04 -0.6994 0.6996 0 -1921.6681 -766.7261)">
		<stop  offset="0" style="stop-color:#99DBF6"/>
		<stop  offset="1" style="stop-color:#00B2DE"/>
	</linearGradient>
	<path fill="url(#SVGID_3_)" stroke="#00A6C4" stroke-width="0.25" d="M44.278,49.577c-1.191,1.135-1.785,2.562-1.785,4.172
		c0,1.668,0.596,3.096,1.787,4.229l12.934,12.99c1.191,1.132,2.562,1.729,4.232,1.729c1.609,0,3.041-0.597,4.23-1.729
		c1.131-1.189,1.729-2.619,1.729-4.229c0-1.67-0.598-3.039-1.73-4.23l-2.801-2.74l21.062,0.002c1.668,0,3.098-0.598,4.229-1.789
		c1.193-1.133,1.729-2.561,1.729-4.229c0-1.609-0.535-3.039-1.729-4.172c-1.133-1.191-2.562-1.729-4.23-1.787l-21.062-0.002
		l2.801-2.74c1.133-1.133,1.73-2.562,1.73-4.232c0-1.605-0.6-3.037-1.73-4.229c-1.191-1.131-2.623-1.727-4.23-1.727
		c-1.67,0-3.039,0.594-4.232,1.727L44.278,49.577z"/>
</g>
</svg>
