<?xml version="1.0" encoding="utf-8"?>
<!-- Generator: Adobe Illustrator 13.0.0, SVG Export Plug-In . SVG Version: 6.00 Build 14948)  -->
<!DOCTYPE svg PUBLIC "-//W3C//DTD SVG 1.1//EN" "http://www.w3.org/Graphics/SVG/1.1/DTD/svg11.dtd">
<svg version="1.1" id="Layer_1" xmlns="http://www.w3.org/2000/svg" xmlns:xlink="http://www.w3.org/1999/xlink" x="0px" y="0px"
	 width="128px" height="128px" viewBox="0 0 128 128" enable-background="new 0 0 128 128" xml:space="preserve">
<g>
	<g>
		
			<linearGradient id="SVGID_1_" gradientUnits="userSpaceOnUse" x1="-290.0337" y1="-718.0566" x2="-290.0337" y2="-772.2324" gradientTransform="matrix(1 0 0 -1 370.0342 -712.6895)">
			<stop  offset="0" style="stop-color:#D5D7D8"/>
			<stop  offset="1" style="stop-color:#5C5F61"/>
		</linearGradient>
		<path fill="url(#SVGID_1_)" stroke="#808080" d="M96.861,52.229v-15.37c-0.014-9.316-7.549-16.85-16.854-16.863l0,0
			c-9.319,0.016-16.853,7.547-16.864,16.863l0,0v15.37c0,4.035-3.273,7.313-7.315,7.313l0,0c-4.04,0-7.317-3.276-7.317-7.313l0,0
			v-15.37C48.516,19.465,62.611,5.375,80.008,5.367l0,0C97.4,5.375,111.484,19.465,111.49,36.859l0,0v15.37
			c0,4.035-3.277,7.313-7.313,7.313l0,0C100.139,59.541,96.861,56.266,96.861,52.229L96.861,52.229z"/>
	</g>
	<path opacity="0.45" fill="#CCCCCC" d="M80.008,7.656C63.732,7.664,50.545,20.845,50.541,37.117v3.742
		c0.004-16.272,13.191-29.454,29.467-29.461c16.27,0.007,29.445,13.188,29.451,29.461v-3.742
		C109.453,20.845,96.277,7.664,80.008,7.656z"/>
	
		<linearGradient id="SVGID_2_" gradientUnits="userSpaceOnUse" x1="-290.0337" y1="-762.2539" x2="-290.0337" y2="-833.7905" gradientTransform="matrix(1 0 0 -1 370.0342 -712.6895)">
		<stop  offset="0" style="stop-color:#EB7680"/>
		<stop  offset="1" style="stop-color:#C1282F"/>
	</linearGradient>
	<path fill="url(#SVGID_2_)" d="M127.217,104.843c0,8.977-7.634,16.258-17.041,16.258H49.824c-9.413,0-17.041-7.281-17.041-16.258
		V65.817c0-8.979,7.628-16.253,17.041-16.253h60.352c9.407,0,17.041,7.271,17.041,16.253V104.843z"/>
	
		<linearGradient id="SVGID_3_" gradientUnits="userSpaceOnUse" x1="-290.0342" y1="-818.6499" x2="-290.0342" y2="-781.3921" gradientTransform="matrix(1 0 0 -1 370.0342 -712.6895)">
		<stop  offset="0" style="stop-color:#EB7680"/>
		<stop  offset="1" style="stop-color:#C1282F"/>
	</linearGradient>
	<path fill="url(#SVGID_3_)" d="M71.057,97.017v-9.481c-1.619-1.979-2.608-4.521-2.604-7.281l0,0c0-6.385,5.168-11.551,11.55-11.551
		l0,0c6.38,0,11.546,5.166,11.546,11.551l0,0c0,2.76-0.983,5.301-2.603,7.279l0,0v9.483c0,4.941-4.006,8.944-8.943,8.944l0,0
		C75.061,105.961,71.057,101.957,71.057,97.017L71.057,97.017z M71.311,80.252c0,2.236,0.848,4.254,2.235,5.8l0,0l0.366,0.407
		v10.558c0.006,3.362,2.729,6.08,6.089,6.088l0,0c3.36-0.008,6.077-2.726,6.087-6.088l0,0V86.459l0.362-0.407
		c1.396-1.546,2.235-3.563,2.235-5.8l0,0c-0.006-4.803-3.889-8.685-8.687-8.696l0,0C75.201,71.569,71.316,75.451,71.311,80.252
		L71.311,80.252z"/>
	
		<linearGradient id="SVGID_4_" gradientUnits="userSpaceOnUse" x1="-290.0361" y1="-815.7935" x2="-290.0361" y2="-784.2446" gradientTransform="matrix(1 0 0 -1 370.0342 -712.6895)">
		<stop  offset="0.0824" style="stop-color:#C2C2C2"/>
		<stop  offset="0.2635" style="stop-color:#D2D2D2"/>
		<stop  offset="0.5594" style="stop-color:#E6E6E6"/>
		<stop  offset="0.7582" style="stop-color:#EDEDED"/>
	</linearGradient>
	<path fill="url(#SVGID_4_)" d="M71.311,80.252c0,2.236,0.848,4.254,2.235,5.8l0,0l0.366,0.407v10.558
		c0.006,3.362,2.729,6.08,6.089,6.088l0,0c3.36-0.008,6.077-2.726,6.087-6.088l0,0V86.459l0.362-0.407
		c1.396-1.546,2.235-3.563,2.235-5.8l0,0c-0.006-4.803-3.889-8.685-8.687-8.696l0,0C75.201,71.569,71.318,75.451,71.311,80.252
		L71.311,80.252z"/>
	<path fill="#AC2428" d="M110.176,118.101H49.824c-9.413,0-17.041-7.281-17.041-16.258v3c0,8.977,7.628,16.258,17.041,16.258h60.352
		c9.407,0,17.041-7.281,17.041-16.258v-3C127.217,110.819,119.583,118.101,110.176,118.101z"/>
	<path opacity="0.5" fill="#EC8690" d="M108.047,53.564H51.953c-8.75,0-15.84,6.761-15.84,15.106v11.52
		c0-8.346,7.09-15.106,15.84-15.106h56.094c8.744,0,15.84,6.759,15.84,15.106v-11.52C123.887,60.323,116.791,53.564,108.047,53.564z
		"/>
	<path fill="#FFFFFF" d="M51.953,53.585h56.1c10.082,0.143,15.84,8.769,15.84,17.112v-2.789c0-8.344-7.092-15.112-15.84-15.112
		h-56.1c-8.744,0-15.84,6.769-15.84,15.112v2.789C36.113,62.354,42.237,53.728,51.953,53.585z"/>
</g>
</svg>
