<?xml version="1.0" encoding="utf-8"?>
<!-- Generator: Adobe Illustrator 13.0.0, SVG Export Plug-In . SVG Version: 6.00 Build 14948)  -->
<!DOCTYPE svg PUBLIC "-//W3C//DTD SVG 1.1//EN" "http://www.w3.org/Graphics/SVG/1.1/DTD/svg11.dtd">
<svg version="1.1" id="Layer_1" xmlns="http://www.w3.org/2000/svg" xmlns:xlink="http://www.w3.org/1999/xlink" x="0px" y="0px"
	 width="128px" height="128px" viewBox="0 0 128 128" enable-background="new 0 0 128 128" xml:space="preserve">
<g>
	<g>
		<path fill="#F2F2F2" d="M5.19,66.321c1.296-0.807,2.822-1.275,4.458-1.275h54.94c1.617,0,3.128,0.459,4.417,1.246l0.649-0.588
			c-1.462-0.95-3.197-1.508-5.066-1.508H9.648c-1.862,0-3.593,0.554-5.048,1.497L5.19,66.321z"/>
		<radialGradient id="SVGID_1_" cx="37.0635" cy="89.8301" r="31.844" gradientUnits="userSpaceOnUse">
			<stop  offset="0" style="stop-color:#FAFAFA"/>
			<stop  offset="0.3629" style="stop-color:#E5E5E5"/>
			<stop  offset="1" style="stop-color:#C4C4C4"/>
		</radialGradient>
		<path fill="url(#SVGID_1_)" stroke="#808080" d="M29.659,112.388L3.761,74.097c-4.006-6.613-2.272-12.026,3.853-12.026h59.162
			c6.123,0,7.59,5.057,3.26,11.238l-25.222,39.867C40.484,119.357,33.664,119.003,29.659,112.388L29.659,112.388z"/>
		<radialGradient id="SVGID_2_" cx="37.7539" cy="32.7979" r="24.7007" gradientUnits="userSpaceOnUse">
			<stop  offset="0" style="stop-color:#FAFAFA"/>
			<stop  offset="0.4142" style="stop-color:#E3E3E3"/>
			<stop  offset="1" style="stop-color:#C7C7C7"/>
		</radialGradient>
		<path fill="url(#SVGID_2_)" stroke="#808080" d="M13.062,32.799c0-13.648,11.054-24.711,24.693-24.711
			c13.636,0,24.691,11.062,24.691,24.711c0,13.646-11.055,24.708-24.691,24.708C24.116,57.507,13.062,46.445,13.062,32.799
			L13.062,32.799z"/>
		<path fill="#F2F2F2" d="M19.826,20.002c4.123-5.661,11.703-9.998,18.791-9.998c7.087,0,14.473,4.337,18.596,9.998h0.785
			C53.628,13.339,46.534,8.979,38.52,8.979c-8.018,0-15.111,4.36-19.479,11.023H19.826z"/>
		<radialGradient id="SVGID_3_" cx="90.9355" cy="89.8291" r="31.844" gradientUnits="userSpaceOnUse">
			<stop  offset="0" style="stop-color:#FAFAFA"/>
			<stop  offset="0.3629" style="stop-color:#E5E5E5"/>
			<stop  offset="1" style="stop-color:#C4C4C4"/>
		</radialGradient>
		<path fill="url(#SVGID_3_)" stroke="#808080" d="M98.34,67.269l25.9,38.295c4.004,6.614,2.271,12.025-3.854,12.025H61.225
			c-6.123,0-7.591-5.057-3.261-11.24l25.222-39.864C87.517,60.302,94.336,60.657,98.34,67.269L98.34,67.269z"/>
		<radialGradient id="SVGID_4_" cx="90.9346" cy="32.7979" r="24.7009" gradientUnits="userSpaceOnUse">
			<stop  offset="0" style="stop-color:#FAFAFA"/>
			<stop  offset="0.4142" style="stop-color:#E3E3E3"/>
			<stop  offset="1" style="stop-color:#C7C7C7"/>
		</radialGradient>
		<path fill="url(#SVGID_4_)" stroke="#808080" d="M66.242,32.799c0-13.648,11.057-24.711,24.693-24.711
			s24.691,11.062,24.691,24.711c0,13.646-11.055,24.708-24.691,24.708S66.242,46.445,66.242,32.799L66.242,32.799z"/>
		<path fill="#F2F2F2" d="M72.239,20.002c4.124-5.661,11.706-9.998,18.792-9.998c7.087,0,14.475,4.337,18.598,9.998h0.785
			c-4.371-6.663-11.463-11.023-19.479-11.023c-8.017,0-15.109,4.36-19.479,11.023H72.239z"/>
		<path opacity="0.5" fill="#FFFFFF" d="M70.478,113.503c0-18.775,14.392-34.182,32.747-35.803l-5.536-8.186
			c-3.743-6.178-10.114-6.51-14.161-0.732L59.961,106.03c-4.046,5.775-2.676,10.502,3.047,10.502h7.604
			C70.529,115.531,70.478,114.524,70.478,113.503z"/>
		<path fill="#BFBFBF" d="M69.291,68.644c-0.02,1.297-0.383,2.604-1.135,3.773l-25.199,39.274c-0.741,1.156-1.763,2.027-2.917,2.585
			l0.123,0.736c1.349-0.609,2.544-1.594,3.402-2.93l25.199-39.275c0.855-1.33,1.252-2.822,1.246-4.297L69.291,68.644z"/>
		<path opacity="0.5" fill="#FFFFFF" d="M10.09,81.173c7.345-5.799,16.611-9.27,26.694-9.27c9.934,0,19.075,3.369,26.364,9.012
			l4.439-7.012c4.045-5.775,2.672-10.499-3.047-10.499H9.271c-5.723,0-7.342,5.055-3.601,11.233L10.09,81.173z"/>
	</g>
	<g>
		<linearGradient id="SVGID_5_" gradientUnits="userSpaceOnUse" x1="63.9995" y1="24.9019" x2="63.9995" y2="100.7769">
			<stop  offset="0" style="stop-color:#E20A16"/>
			<stop  offset="1" style="stop-color:#B51015"/>
		</linearGradient>
		<circle fill="url(#SVGID_5_)" stroke="#B5252B" cx="64" cy="62.84" r="37.938"/>
		<radialGradient id="SVGID_6_" cx="64" cy="62.8403" r="32.3733" gradientUnits="userSpaceOnUse">
			<stop  offset="0" style="stop-color:#FAFAFA"/>
			<stop  offset="0.3109" style="stop-color:#F4F4F4"/>
			<stop  offset="0.7262" style="stop-color:#E3E3E3"/>
			<stop  offset="1" style="stop-color:#D4D4D4"/>
		</radialGradient>
		<circle fill="url(#SVGID_6_)" cx="64" cy="62.84" r="32.373"/>
		<path opacity="0.5" fill="#FFFFFF" d="M33.203,46.268C40.139,36.167,52.242,27.89,64.164,27.89
			c11.92,0,23.699,8.276,30.633,18.377h1.319C88.768,34.38,77.482,26.065,64.002,26.065c-13.485,0-24.768,8.315-32.12,20.203H33.203
			z"/>
		<g>
			
				<linearGradient id="SVGID_7_" gradientUnits="userSpaceOnUse" x1="120.2881" y1="39.2046" x2="129.7041" y2="39.2046" gradientTransform="matrix(0.9999 -0.0166 0.0166 0.9999 -61.8602 26.7759)">
				<stop  offset="0" style="stop-color:#E20A16"/>
				<stop  offset="1" style="stop-color:#B51015"/>
			</linearGradient>
			<path fill="url(#SVGID_7_)" d="M68.482,63.824c-0.045-2.599-2.188-4.671-4.786-4.629c-2.601,0.044-4.673,2.186-4.63,4.787
				c0.043,2.6,2.188,4.67,4.787,4.627C66.451,68.565,68.523,66.423,68.482,63.824"/>
			
				<linearGradient id="SVGID_8_" gradientUnits="userSpaceOnUse" x1="109.9033" y1="44.1709" x2="126.9834" y2="44.1709" gradientTransform="matrix(0.9999 -0.0166 0.0166 0.9999 -61.8602 26.7759)">
				<stop  offset="0" style="stop-color:#E20A16"/>
				<stop  offset="1" style="stop-color:#B51015"/>
			</linearGradient>
			<path fill="url(#SVGID_8_)" d="M65.491,63.398c-0.493-0.723-1.482-0.915-2.207-0.417l-13.748,9.362
				c-0.726,0.496-0.913,1.484-0.419,2.21c0.494,0.724,1.484,0.913,2.205,0.419l13.751-9.365
				C65.801,65.112,65.985,64.123,65.491,63.398"/>
			
				<linearGradient id="SVGID_9_" gradientUnits="userSpaceOnUse" x1="124.5996" y1="27.0918" x2="126.583" y2="27.0918" gradientTransform="matrix(0.9999 -0.0166 0.0166 0.9999 -61.8602 26.7759)">
				<stop  offset="0" style="stop-color:#E20A16"/>
				<stop  offset="1" style="stop-color:#B51015"/>
			</linearGradient>
			<path fill="url(#SVGID_9_)" d="M64.16,38.471c-0.44,0.001-0.794,0.359-0.792,0.795l0.016,25.029c0,0.436,0.353,0.795,0.794,0.792
				c0.44-0.002,0.794-0.356,0.794-0.795l-0.021-25.026C64.955,38.829,64.602,38.471,64.16,38.471"/>
			
				<linearGradient id="SVGID_10_" gradientUnits="userSpaceOnUse" x1="122.2764" y1="39.2056" x2="127.7168" y2="39.2056" gradientTransform="matrix(0.9999 -0.0166 0.0166 0.9999 -61.8602 26.7759)">
				<stop  offset="0" style="stop-color:#E20A16"/>
				<stop  offset="1" style="stop-color:#B51015"/>
			</linearGradient>
			<path fill="url(#SVGID_10_)" d="M66.495,63.857c-0.026-1.5-1.263-2.701-2.767-2.676c-1.5,0.026-2.698,1.266-2.673,2.768
				c0.025,1.5,1.259,2.699,2.764,2.674C65.324,66.599,66.52,65.358,66.495,63.857"/>
		</g>
	</g>
</g>
</svg>
