<?xml version="1.0" encoding="utf-8"?>
<!-- Generator: Adobe Illustrator 13.0.0, SVG Export Plug-In . SVG Version: 6.00 Build 14948)  -->
<!DOCTYPE svg PUBLIC "-//W3C//DTD SVG 1.1//EN" "http://www.w3.org/Graphics/SVG/1.1/DTD/svg11.dtd">
<svg version="1.1" id="Layer_1" xmlns="http://www.w3.org/2000/svg" xmlns:xlink="http://www.w3.org/1999/xlink" x="0px" y="0px"
	 width="128px" height="128px" viewBox="0 0 128 128" enable-background="new 0 0 128 128" xml:space="preserve">
<g>
	<g>
		
			<linearGradient id="SVGID_1_" gradientUnits="userSpaceOnUse" x1="-337.5962" y1="-720.3721" x2="-337.5962" y2="-773.4644" gradientTransform="matrix(1 0 0 -1 370.0342 -712.6895)">
			<stop  offset="0" style="stop-color:#D5D7D8"/>
			<stop  offset="1" style="stop-color:#5C5F61"/>
		</linearGradient>
		<path fill="url(#SVGID_1_)" stroke="#808080" d="M48.961,53.607V38.545c-0.013-9.13-7.397-16.513-16.517-16.526l0,0
			c-9.132,0.016-16.515,7.396-16.528,16.526l0,0v15.062c0,3.955-3.207,7.167-7.168,7.167l0,0c-3.959,0-7.171-3.211-7.171-7.167l0,0
			V38.545C1.582,21.498,15.397,7.69,32.445,7.683l0,0C49.49,7.69,63.292,21.498,63.298,38.545l0,0v15.062
			c0,3.955-3.212,7.167-7.167,7.167l0,0C52.173,60.773,48.961,57.563,48.961,53.607L48.961,53.607z"/>
	</g>
	<path opacity="0.45" fill="#CCCCCC" d="M32.444,9.926C16.496,9.934,3.572,22.851,3.567,38.797v3.667
		C3.572,26.518,16.496,13.6,32.444,13.593C48.39,13.6,61.303,26.518,61.308,42.465v-3.667C61.303,22.851,48.39,9.934,32.444,9.926z"
		/>
	
		<linearGradient id="SVGID_2_" gradientUnits="userSpaceOnUse" x1="-289.0894" y1="-763.6851" x2="-289.0894" y2="-833.7905" gradientTransform="matrix(1 0 0 -1 370.0342 -712.6895)">
		<stop  offset="0" style="stop-color:#EB7680"/>
		<stop  offset="1" style="stop-color:#C1282F"/>
	</linearGradient>
	<path fill="url(#SVGID_2_)" d="M127.217,105.168c0,8.798-7.48,15.933-16.699,15.933H51.373c-9.224,0-16.7-7.135-16.7-15.933V66.923
		c0-8.799,7.476-15.927,16.7-15.927h59.145c9.219,0,16.699,7.126,16.699,15.927V105.168z"/>
	
		<linearGradient id="SVGID_3_" gradientUnits="userSpaceOnUse" x1="-289.0884" y1="-818.9536" x2="-289.0884" y2="-782.4409" gradientTransform="matrix(1 0 0 -1 370.0342 -712.6895)">
		<stop  offset="0" style="stop-color:#EB7680"/>
		<stop  offset="1" style="stop-color:#C1282F"/>
	</linearGradient>
	<path fill="url(#SVGID_3_)" d="M72.18,97.499v-9.291c-1.586-1.941-2.555-4.432-2.551-7.137l0,0c0-6.256,5.064-11.319,11.318-11.319
		l0,0c6.252,0,11.315,5.063,11.315,11.319l0,0c0,2.705-0.965,5.195-2.552,7.135l0,0v9.293c0,4.842-3.926,8.766-8.764,8.766l0,0
		C76.105,106.265,72.18,102.341,72.18,97.499L72.18,97.499z M72.43,81.069c0,2.192,0.83,4.17,2.191,5.684l0,0l0.357,0.4v10.346
		c0.006,3.295,2.675,5.958,5.969,5.965l0,0c3.291-0.007,5.954-2.67,5.963-5.965l0,0V87.153l0.356-0.4
		c1.366-1.514,2.19-3.491,2.19-5.684l0,0c-0.006-4.706-3.812-8.512-8.512-8.522l0,0C76.242,72.56,72.435,76.365,72.43,81.069
		L72.43,81.069z"/>
	
		<linearGradient id="SVGID_4_" gradientUnits="userSpaceOnUse" x1="-289.0908" y1="-816.1528" x2="-289.0908" y2="-785.2358" gradientTransform="matrix(1 0 0 -1 370.0342 -712.6895)">
		<stop  offset="0.0824" style="stop-color:#C2C2C2"/>
		<stop  offset="0.2635" style="stop-color:#D2D2D2"/>
		<stop  offset="0.5594" style="stop-color:#E6E6E6"/>
		<stop  offset="0.7582" style="stop-color:#EDEDED"/>
	</linearGradient>
	<path fill="url(#SVGID_4_)" d="M72.43,81.069c0,2.192,0.83,4.17,2.191,5.684l0,0l0.357,0.4v10.346
		c0.006,3.295,2.675,5.958,5.969,5.965l0,0c3.291-0.007,5.954-2.67,5.963-5.965l0,0V87.153l0.356-0.4
		c1.366-1.514,2.19-3.491,2.19-5.684l0,0c-0.006-4.706-3.812-8.512-8.512-8.522l0,0C76.242,72.56,72.437,76.365,72.43,81.069
		L72.43,81.069z"/>
	<path fill="#AC2428" d="M110.518,118.161H51.373c-9.224,0-16.7-7.137-16.7-15.934v2.94c0,8.798,7.476,15.933,16.7,15.933h59.145
		c9.219,0,16.699-7.135,16.699-15.933v-2.94C127.217,111.024,119.736,118.161,110.518,118.161z"/>
	<path opacity="0.5" fill="#EC8690" d="M108.432,54.916H53.458c-8.574,0-15.522,6.625-15.522,14.804v11.289
		c0-8.179,6.948-14.803,15.522-14.803h54.973c8.569,0,15.521,6.622,15.521,14.803V69.72
		C123.953,61.54,117.001,54.916,108.432,54.916z"/>
	<path fill="#FFFFFF" d="M53.458,54.936h54.978c9.88,0.14,15.522,8.593,15.522,16.77v-2.732c0-8.178-6.949-14.811-15.522-14.811
		H53.458c-8.569,0-15.522,6.633-15.522,14.811v2.732C37.937,63.529,43.938,55.076,53.458,54.936z"/>
</g>
</svg>
