<?xml version="1.0" encoding="UTF-8" standalone="no"?>
<!-- Created with Inkscape (http://www.inkscape.org/) -->

<svg
   xmlns:dc="http://purl.org/dc/elements/1.1/"
   xmlns:cc="http://creativecommons.org/ns#"
   xmlns:rdf="http://www.w3.org/1999/02/22-rdf-syntax-ns#"
   xmlns:svg="http://www.w3.org/2000/svg"
   xmlns="http://www.w3.org/2000/svg"
   xmlns:xlink="http://www.w3.org/1999/xlink"
   xmlns:sodipodi="http://sodipodi.sourceforge.net/DTD/sodipodi-0.dtd"
   xmlns:inkscape="http://www.inkscape.org/namespaces/inkscape"
   width="24"
   height="24"
   id="svg1966"
   sodipodi:version="0.32"
   inkscape:version="0.91 r13725"
   version="1.0"
   sodipodi:docname="update-none.svgz">
  <defs
     id="defs1968">
    <radialGradient
       id="XMLID_15_"
       cx="538.77338"
       cy="651.10352"
       r="126.0234"
       gradientTransform="translate(-484,-674)"
       gradientUnits="userSpaceOnUse">
      <stop
         offset="0"
         style="stop-color:#CCEAAC"
         id="stop137" />
      <stop
         offset="0.5393"
         style="stop-color:#3BA42A"
         id="stop139" />
      <stop
         offset="1"
         style="stop-color:#91E851"
         id="stop141" />
    </radialGradient>
    <linearGradient
       spreadMethod="reflect"
       gradientUnits="userSpaceOnUse"
       y2="18.5"
       x2="13.3511"
       y1="18.5"
       x1="10.073669"
       id="linearGradient3852"
       xlink:href="#linearGradient3846"
       inkscape:collect="always" />
    <linearGradient
       gradientTransform="matrix(0.672581,0,0,1.903227,22.30711,6.096774)"
       gradientUnits="userSpaceOnUse"
       y2="5.7553549"
       x2="73.511299"
       y1="1"
       x1="73.511299"
       id="linearGradient3170"
       xlink:href="#linearGradient3164"
       inkscape:collect="always" />
    <linearGradient
       id="linearGradient2858">
      <stop
         id="stop2860"
         offset="0"
         style="stop-color:#303030;stop-opacity:1;" />
      <stop
         style="stop-color:white;stop-opacity:0.59215689;"
         offset="0.05769231"
         id="stop2863" />
      <stop
         style="stop-color:#4b4b4b;stop-opacity:0.18431373;"
         offset="0.11538462"
         id="stop2868" />
      <stop
         style="stop-color:black;stop-opacity:0;"
         offset="0.69156802"
         id="stop2866" />
      <stop
         id="stop2870"
         offset="0.90384614"
         style="stop-color:black;stop-opacity:0.09747292;" />
      <stop
         style="stop-color:white;stop-opacity:0.54509807;"
         offset="0.95192307"
         id="stop2867" />
      <stop
         id="stop2862"
         offset="1"
         style="stop-color:#5d5d5d;stop-opacity:1;" />
    </linearGradient>
    <linearGradient
       id="linearGradient3041">
      <stop
         style="stop-color:#303030;stop-opacity:1;"
         offset="0"
         id="stop3043" />
      <stop
         id="stop3045"
         offset="0.11538462"
         style="stop-color:#555;stop-opacity:1;" />
      <stop
         style="stop-color:#3b3b3b;stop-opacity:1;"
         offset="0.26590282"
         id="stop3053" />
      <stop
         id="stop3057"
         offset="0.28553563"
         style="stop-color:#646464;stop-opacity:1;" />
      <stop
         id="stop3055"
         offset="0.43724003"
         style="stop-color:#7b7b7b;stop-opacity:1;" />
      <stop
         id="stop3047"
         offset="0.69156802"
         style="stop-color:#888;stop-opacity:1;" />
      <stop
         style="stop-color:#747474;stop-opacity:1;"
         offset="0.90384614"
         id="stop3049" />
      <stop
         style="stop-color:#5d5d5d;stop-opacity:1;"
         offset="1"
         id="stop3051" />
    </linearGradient>
    <linearGradient
       id="linearGradient3164"
       inkscape:collect="always">
      <stop
         id="stop3166"
         offset="0"
         style="stop-color:white;stop-opacity:1;" />
      <stop
         id="stop3168"
         offset="1"
         style="stop-color:white;stop-opacity:0;" />
    </linearGradient>
    <linearGradient
       id="linearGradient2877">
      <stop
         id="stop2879"
         offset="0"
         style="stop-color:#390000;stop-opacity:1;" />
      <stop
         id="stop2881"
         offset="1"
         style="stop-color:#970000;stop-opacity:0;" />
    </linearGradient>
    <linearGradient
       id="linearGradient2895">
      <stop
         id="stop2897"
         offset="0"
         style="stop-color:white;stop-opacity:1;" />
      <stop
         id="stop2899"
         offset="1"
         style="stop-color:white;stop-opacity:0;" />
    </linearGradient>
    <linearGradient
       id="linearGradient3846"
       inkscape:collect="always">
      <stop
         id="stop3848"
         offset="0"
         style="stop-color:#590000;stop-opacity:1;" />
      <stop
         id="stop3850"
         offset="1"
         style="stop-color:#590000;stop-opacity:0;" />
    </linearGradient>
    <linearGradient
       id="linearGradient2863">
      <stop
         id="stop2865"
         offset="0"
         style="stop-color:#bf0000;stop-opacity:1;" />
      <stop
         style="stop-color:#bf0000;stop-opacity:0;"
         offset="0.5"
         id="stop2873" />
      <stop
         id="stop2869"
         offset="1"
         style="stop-color:#bf0000;stop-opacity:0;" />
    </linearGradient>
    <linearGradient
       inkscape:collect="always"
       xlink:href="#linearGradient3802"
       id="linearGradient3902"
       x1="2"
       y1="12"
       x2="22"
       y2="12"
       gradientUnits="userSpaceOnUse"
       gradientTransform="matrix(1.0028487,0,0,1.0028626,-8.5194694,1016.6607)" />
    <linearGradient
       id="linearGradient3802">
      <stop
         id="stop3804"
         offset="0"
         style="stop-color:#ffffff;stop-opacity:1;" />
      <stop
         style="stop-color:#ffffff;stop-opacity:0.78431374;"
         offset="0.5"
         id="stop3818" />
      <stop
         id="stop3820"
         offset="0.75"
         style="stop-color:#ffffff;stop-opacity:0.39215687;" />
      <stop
         id="stop3806"
         offset="1"
         style="stop-color:#ffffff;stop-opacity:1;" />
    </linearGradient>
  </defs>
  <sodipodi:namedview
     id="base"
     pagecolor="#ffffff"
     bordercolor="#666666"
     borderopacity="1.0"
     inkscape:pageopacity="0.0"
     inkscape:pageshadow="2"
     inkscape:zoom="1.9445436"
     inkscape:cx="-36.010452"
     inkscape:cy="-41.789611"
     inkscape:current-layer="layer1"
     showgrid="true"
     inkscape:document-units="px"
     inkscape:grid-bbox="true"
     inkscape:window-width="1920"
     inkscape:window-height="934"
     inkscape:window-x="0"
     inkscape:window-y="34"
     fit-margin-top="0"
     fit-margin-left="0"
     fit-margin-right="0"
     fit-margin-bottom="0"
     inkscape:window-maximized="1" />
  <metadata
     id="metadata1971">
    <rdf:RDF>
      <cc:Work
         rdf:about="">
        <dc:format>image/svg+xml</dc:format>
        <dc:type
           rdf:resource="http://purl.org/dc/dcmitype/StillImage" />
        <dc:title></dc:title>
      </cc:Work>
    </rdf:RDF>
  </metadata>
  <g
     id="layer1"
     inkscape:label="Layer 1"
     inkscape:groupmode="layer"
     transform="translate(160.55302,53.142715)">
    <g
       transform="translate(-152.06774,-1069.8376)"
       id="update-none">
      <path
         id="path3908"
         d="m 3.5147157,1017.6949 c -0.3725333,0 -0.6988613,0.074 -0.9401708,0.094 a 0.95606429,0.95607744 0 0 0 -0.8461536,0.7521 l -0.2820512,1.4729 c -0.1573236,0.039 -0.3181403,0.047 -0.47008537,0.094 l -1.00284877,-1.0969 a 0.95606429,0.95607744 0 0 0 -1.12820486,-0.2507 c -0.5614155,0.2638 -1.0848526,0.5815 -1.5982902,0.9401 a 0.95606429,0.95607744 0 0 0 -0.3760683,1.097 l 0.4700854,1.4101 c -0.1056226,0.1009 -0.2126866,0.2079 -0.3133902,0.3135 l -1.4102562,-0.4701 a 0.95606429,0.95607744 0 0 0 -1.0968658,0.3762 c -0.3586529,0.5134 -0.6763688,1.0368 -0.9401707,1.5982 a 0.95606429,0.95607744 0 0 0 0.2507122,1.1283 l 1.0968658,1.0029 c -0.046824,0.1519 -0.054692,0.3127 -0.094017,0.47 l -1.4729341,0.2821 a 0.95606429,0.95607744 0 0 0 -0.7521366,0.8461 c -0.020051,0.2413 -0.094017,0.5677 -0.094017,0.9402 0,0.3725 0.073966,0.6989 0.094017,0.9402 a 0.95606429,0.95607744 0 0 0 0.7521366,0.8462 l 1.4729341,0.282 c 0.039325,0.1573 0.047193,0.3181 0.094017,0.4701 l -1.0968658,1.0029 a 0.95606429,0.95607744 0 0 0 -0.2507122,1.1283 c 0.2638021,0.5613 0.581518,1.0847 0.9401707,1.5981 a 0.95606429,0.95607744 0 0 0 1.0968658,0.3762 l 1.4102562,-0.4701 c 0.1007035,0.1056 0.2077677,0.2126 0.3133902,0.3135 l -0.4700854,1.4101 a 0.95606429,0.95607744 0 0 0 0.3760683,1.097 c 0.5134367,0.3586 1.0368736,0.6763 1.5982902,0.9401 a 0.95606429,0.95607744 0 0 0 1.12820486,-0.2507 l 1.00284877,-1.0969 c 0.15194507,0.047 0.31276187,0.054 0.47008537,0.094 l 0.2820512,1.4729 a 0.95606429,0.95607744 0 0 0 0.8461536,0.7521 c 0.2413095,0.02 0.5676375,0.094 0.9401708,0.094 0.3725402,0 0.6988752,-0.074 0.9401707,-0.094 a 0.95606429,0.95607744 0 0 0 0.8461536,-0.7521 l 0.2820512,-1.4729 c 0.1573249,-0.039 0.3181398,-0.047 0.4700854,-0.094 l 1.0028487,1.0969 a 0.95606429,0.95607744 0 0 0 1.1282049,0.2507 c 0.5614178,-0.2638 1.0848537,-0.5815 1.5982902,-0.9401 a 0.95606429,0.95607744 0 0 0 0.3760686,-1.097 l -0.4700857,-1.4101 c 0.1056221,-0.1009 0.2126872,-0.2079 0.3133907,-0.3135 l 1.410255,0.4701 a 0.95606429,0.95607744 0 0 0 1.096866,-0.3762 c 0.358652,-0.5134 0.676369,-1.0368 0.940171,-1.5981 a 0.95606429,0.95607744 0 0 0 -0.250712,-1.1283 l -1.096866,-1.0029 c 0.04682,-0.152 0.05469,-0.3128 0.09402,-0.4701 l 1.472934,-0.282 a 0.95606429,0.95607744 0 0 0 0.752136,-0.8462 c 0.02005,-0.2413 0.09402,-0.5677 0.09402,-0.9402 0,-0.3725 -0.07397,-0.6989 -0.09402,-0.9402 a 0.95606429,0.95607744 0 0 0 -0.752136,-0.8461 l -1.472934,-0.2821 c -0.03932,-0.1573 -0.04719,-0.3181 -0.09402,-0.47 l 1.096866,-1.0029 a 0.95606429,0.95607744 0 0 0 0.250712,-1.1283 c -0.263802,-0.5614 -0.581519,-1.0848 -0.940171,-1.5982 a 0.95606429,0.95607744 0 0 0 -1.096866,-0.3762 l -1.410255,0.4701 c -0.1007045,-0.1056 -0.2077686,-0.2126 -0.3133907,-0.3135 l 0.4700857,-1.4101 a 0.95606429,0.95607744 0 0 0 -0.3760686,-1.097 c -0.5134375,-0.3586 -1.0368744,-0.6763 -1.5982902,-0.9401 a 0.95606429,0.95607744 0 0 0 -1.1282049,0.2507 l -1.0028487,1.0969 c -0.1519446,-0.047 -0.3127615,-0.054 -0.4700854,-0.094 L 5.30104,1018.541 a 0.95606429,0.95607744 0 0 0 -0.8461536,-0.7521 c -0.2413095,-0.02 -0.5676375,-0.094 -0.9401707,-0.094 z m 0,0.9716 c 0.2834531,0 0.5686554,0.04 0.8461536,0.062 l 0.4074073,2.037 c 0.5537169,0.087 1.0882514,0.2449 1.5982902,0.4387 l 1.4102561,-1.567 c 0.517841,0.2434 1.0080957,0.5215 1.4729341,0.8463 l -0.6581195,1.9743 c 0.4207562,0.3435 0.8161434,0.7388 1.1595439,1.1596 l 1.9743576,-0.6582 c 0.324705,0.4649 0.602828,0.9551 0.846154,1.4731 l -1.566951,1.4102 c 0.193907,0.51 0.351996,1.0446 0.438746,1.5983 l 2.037037,0.4075 c 0.02306,0.2775 0.06268,0.5627 0.06268,0.8461 0,0.2834 -0.03962,0.5686 -0.06268,0.8462 l -2.037037,0.4074 c -0.08675,0.5537 -0.244839,1.0883 -0.438746,1.5984 l 1.566951,1.4101 c -0.243326,0.518 -0.521449,1.0082 -0.846154,1.4731 l -1.9743576,-0.6582 c -0.3434005,0.4208 -0.7387877,0.8161 -1.1595439,1.1596 l 0.6581195,1.9743 c -0.4648384,0.3248 -0.9550931,0.6029 -1.4729341,0.8463 l -1.4102561,-1.567 c -0.5100388,0.1938 -1.0445733,0.3519 -1.5982902,0.4387 l -0.4074073,2.037 c -0.2774982,0.023 -0.5627005,0.062 -0.8461536,0.062 -0.2834532,0 -0.5686555,-0.039 -0.8461537,-0.062 l -0.4074073,-2.037 c -0.5537169,-0.087 -1.0882519,-0.2449 -1.59829021,-0.4387 l -1.41025608,1.567 c -0.51784061,-0.2434 -1.00809581,-0.5215 -1.47293411,-0.8463 l 0.6581195,-1.9743 c -0.4207566,-0.3435 -0.8161439,-0.7388 -1.1595439,-1.1596 l -1.9743585,0.6582 c -0.3247047,-0.4649 -0.6028271,-0.9551 -0.8461536,-1.4731 l 1.5669512,-1.4101 c -0.1939064,-0.5101 -0.3519964,-1.0447 -0.4387464,-1.5984 l -2.0370366,-0.4074 c -0.023058,-0.2776 -0.062678,-0.5628 -0.062678,-0.8462 0,-0.2834 0.03962,-0.5686 0.062678,-0.8461 l 2.0370366,-0.4075 c 0.08675,-0.5537 0.24484,-1.0883 0.4387464,-1.5983 l -1.5669512,-1.4102 c 0.2433265,-0.518 0.5214489,-1.0082 0.8461536,-1.4731 l 1.9743585,0.6582 c 0.3434,-0.4208 0.7387873,-0.8161 1.1595439,-1.1596 l -0.6581195,-1.9743 c 0.4648383,-0.3248 0.9550935,-0.6029 1.47293411,-0.8463 l 1.41025608,1.567 c 0.51003831,-0.1938 1.04457331,-0.3519 1.59829021,-0.4387 l 0.4074073,-2.037 c 0.2774982,-0.023 0.5627005,-0.062 0.8461537,-0.062 z m 0,4.0115 c -3.32315262,0 -6.0170926,2.6939 -6.0170926,6.0171 0,3.3232 2.69393998,6.0171 6.0170926,6.0171 3.323153,0 6.0170925,-2.6939 6.0170925,-6.0171 0,-3.3232 -2.6939395,-6.0171 -6.0170925,-6.0171 z m 0,0.9714 c 2.8065103,0 5.0455828,2.2391 5.0455828,5.0457 0,2.8066 -2.2390725,5.0457 -5.0455828,5.0457 -2.80651032,0 -5.0455829,-2.2391 -5.0455829,-5.0457 0,-2.8066 2.23907268,-5.0457 5.0455829,-5.0457 z"
         style="fill:#000000;fill-opacity:0.39215686;stroke:none"
         inkscape:connector-curvature="0" />
      <rect
         style="fill:none;stroke:none"
         id="rect2815"
         width="24"
         height="24"
         x="-8.4852819"
         y="1016.6949" />
      <path
         id="path3879"
         d="m 3.5147157,1018.6665 c -0.2834532,0 -0.5686555,0.04 -0.8461537,0.062 l -0.4074073,2.037 c -0.5537169,0.087 -1.0882519,0.2449 -1.59829021,0.4387 l -1.41025608,-1.567 c -0.51784061,0.2434 -1.00809581,0.5215 -1.47293411,0.8463 l 0.6581195,1.9743 c -0.4207566,0.3435 -0.8161439,0.7388 -1.1595439,1.1596 l -1.9743585,-0.6582 c -0.3247047,0.4649 -0.6028271,0.9551 -0.8461536,1.4731 l 1.5669512,1.4102 c -0.1939064,0.51 -0.3519964,1.0446 -0.4387464,1.5983 l -2.0370366,0.4075 c -0.023058,0.2775 -0.062678,0.5627 -0.062678,0.8461 0,0.2834 0.03962,0.5686 0.062678,0.8462 l 2.0370366,0.4074 c 0.08675,0.5537 0.24484,1.0883 0.4387464,1.5984 l -1.5669512,1.4101 c 0.2433265,0.518 0.5214489,1.0082 0.8461536,1.4731 l 1.9743585,-0.6582 c 0.3434,0.4208 0.7387873,0.8161 1.1595439,1.1596 l -0.6581195,1.9743 c 0.4648383,0.3248 0.9550935,0.6029 1.47293411,0.8463 l 1.41025608,-1.567 c 0.51003831,0.1938 1.04457331,0.3519 1.59829021,0.4387 l 0.4074073,2.037 c 0.2774982,0.023 0.5627005,0.062 0.8461537,0.062 0.2834531,0 0.5686554,-0.039 0.8461536,-0.062 l 0.4074073,-2.037 c 0.5537169,-0.087 1.0882514,-0.2449 1.5982902,-0.4387 l 1.4102561,1.567 c 0.517841,-0.2434 1.0080957,-0.5215 1.4729341,-0.8463 l -0.6581195,-1.9743 c 0.4207562,-0.3435 0.8161434,-0.7388 1.1595439,-1.1596 l 1.9743576,0.6582 c 0.324705,-0.4649 0.602828,-0.9551 0.846154,-1.4731 l -1.566951,-1.4101 c 0.193907,-0.5101 0.351996,-1.0447 0.438746,-1.5984 l 2.037037,-0.4074 c 0.02306,-0.2776 0.06268,-0.5628 0.06268,-0.8462 0,-0.2834 -0.03962,-0.5686 -0.06268,-0.8461 l -2.037037,-0.4075 c -0.08675,-0.5537 -0.244839,-1.0883 -0.438746,-1.5983 l 1.566951,-1.4102 c -0.243326,-0.518 -0.521449,-1.0082 -0.846154,-1.4731 l -1.9743576,0.6582 c -0.3434005,-0.4208 -0.7387877,-0.8161 -1.1595439,-1.1596 l 0.6581195,-1.9743 c -0.4648384,-0.3248 -0.9550931,-0.6029 -1.4729341,-0.8463 l -1.4102561,1.567 c -0.5100388,-0.1938 -1.0445733,-0.3519 -1.5982902,-0.4387 l -0.4074073,-2.037 c -0.2774982,-0.023 -0.5627005,-0.062 -0.8461536,-0.062 z m 0,4.0115 c 3.323153,0 6.0170925,2.6939 6.0170925,6.0171 0,3.3232 -2.6939395,6.0171 -6.0170925,6.0171 -3.32315262,0 -6.0170926,-2.6939 -6.0170926,-6.0171 0,-3.3232 2.69393998,-6.0171 6.0170926,-6.0171 z"
         style="opacity:0.72769949;fill:url(#linearGradient3902);fill-opacity:1;stroke:none"
         inkscape:connector-curvature="0" />
    </g>
  </g>
</svg>
