<?xml version="1.0" encoding="UTF-8" standalone="no"?>
<!-- Created with Inkscape (http://www.inkscape.org/) -->

<svg
   xmlns:dc="http://purl.org/dc/elements/1.1/"
   xmlns:cc="http://creativecommons.org/ns#"
   xmlns:rdf="http://www.w3.org/1999/02/22-rdf-syntax-ns#"
   xmlns:svg="http://www.w3.org/2000/svg"
   xmlns="http://www.w3.org/2000/svg"
   xmlns:xlink="http://www.w3.org/1999/xlink"
   xmlns:sodipodi="http://sodipodi.sourceforge.net/DTD/sodipodi-0.dtd"
   xmlns:inkscape="http://www.inkscape.org/namespaces/inkscape"
   width="24"
   height="24"
   id="svg1966"
   sodipodi:version="0.32"
   inkscape:version="0.91 r13725"
   version="1.0"
   sodipodi:docname="update-low.svgz">
  <defs
     id="defs1968">
    <radialGradient
       id="XMLID_15_"
       cx="538.77338"
       cy="651.10352"
       r="126.0234"
       gradientTransform="translate(-484,-674)"
       gradientUnits="userSpaceOnUse">
      <stop
         offset="0"
         style="stop-color:#CCEAAC"
         id="stop137" />
      <stop
         offset="0.5393"
         style="stop-color:#3BA42A"
         id="stop139" />
      <stop
         offset="1"
         style="stop-color:#91E851"
         id="stop141" />
    </radialGradient>
    <linearGradient
       spreadMethod="reflect"
       gradientUnits="userSpaceOnUse"
       y2="18.5"
       x2="13.3511"
       y1="18.5"
       x1="10.073669"
       id="linearGradient3852"
       xlink:href="#linearGradient3846"
       inkscape:collect="always" />
    <linearGradient
       gradientTransform="matrix(0.672581,0,0,1.903227,22.30711,6.096774)"
       gradientUnits="userSpaceOnUse"
       y2="5.7553549"
       x2="73.511299"
       y1="1"
       x1="73.511299"
       id="linearGradient3170"
       xlink:href="#linearGradient3164"
       inkscape:collect="always" />
    <linearGradient
       id="linearGradient2858">
      <stop
         id="stop2860"
         offset="0"
         style="stop-color:#303030;stop-opacity:1;" />
      <stop
         style="stop-color:white;stop-opacity:0.59215689;"
         offset="0.05769231"
         id="stop2863" />
      <stop
         style="stop-color:#4b4b4b;stop-opacity:0.18431373;"
         offset="0.11538462"
         id="stop2868" />
      <stop
         style="stop-color:black;stop-opacity:0;"
         offset="0.69156802"
         id="stop2866" />
      <stop
         id="stop2870"
         offset="0.90384614"
         style="stop-color:black;stop-opacity:0.09747292;" />
      <stop
         style="stop-color:white;stop-opacity:0.54509807;"
         offset="0.95192307"
         id="stop2867" />
      <stop
         id="stop2862"
         offset="1"
         style="stop-color:#5d5d5d;stop-opacity:1;" />
    </linearGradient>
    <linearGradient
       id="linearGradient3041">
      <stop
         style="stop-color:#303030;stop-opacity:1;"
         offset="0"
         id="stop3043" />
      <stop
         id="stop3045"
         offset="0.11538462"
         style="stop-color:#555;stop-opacity:1;" />
      <stop
         style="stop-color:#3b3b3b;stop-opacity:1;"
         offset="0.26590282"
         id="stop3053" />
      <stop
         id="stop3057"
         offset="0.28553563"
         style="stop-color:#646464;stop-opacity:1;" />
      <stop
         id="stop3055"
         offset="0.43724003"
         style="stop-color:#7b7b7b;stop-opacity:1;" />
      <stop
         id="stop3047"
         offset="0.69156802"
         style="stop-color:#888;stop-opacity:1;" />
      <stop
         style="stop-color:#747474;stop-opacity:1;"
         offset="0.90384614"
         id="stop3049" />
      <stop
         style="stop-color:#5d5d5d;stop-opacity:1;"
         offset="1"
         id="stop3051" />
    </linearGradient>
    <linearGradient
       id="linearGradient3164"
       inkscape:collect="always">
      <stop
         id="stop3166"
         offset="0"
         style="stop-color:white;stop-opacity:1;" />
      <stop
         id="stop3168"
         offset="1"
         style="stop-color:white;stop-opacity:0;" />
    </linearGradient>
    <linearGradient
       id="linearGradient2877">
      <stop
         id="stop2879"
         offset="0"
         style="stop-color:#390000;stop-opacity:1;" />
      <stop
         id="stop2881"
         offset="1"
         style="stop-color:#970000;stop-opacity:0;" />
    </linearGradient>
    <linearGradient
       id="linearGradient2895">
      <stop
         id="stop2897"
         offset="0"
         style="stop-color:white;stop-opacity:1;" />
      <stop
         id="stop2899"
         offset="1"
         style="stop-color:white;stop-opacity:0;" />
    </linearGradient>
    <linearGradient
       id="linearGradient3846"
       inkscape:collect="always">
      <stop
         id="stop3848"
         offset="0"
         style="stop-color:#590000;stop-opacity:1;" />
      <stop
         id="stop3850"
         offset="1"
         style="stop-color:#590000;stop-opacity:0;" />
    </linearGradient>
    <linearGradient
       id="linearGradient2863">
      <stop
         id="stop2865"
         offset="0"
         style="stop-color:#bf0000;stop-opacity:1;" />
      <stop
         style="stop-color:#bf0000;stop-opacity:0;"
         offset="0.5"
         id="stop2873" />
      <stop
         id="stop2869"
         offset="1"
         style="stop-color:#bf0000;stop-opacity:0;" />
    </linearGradient>
    <linearGradient
       id="linearGradient3802">
      <stop
         id="stop3804"
         offset="0"
         style="stop-color:#ffffff;stop-opacity:1;" />
      <stop
         style="stop-color:#ffffff;stop-opacity:0.78431374;"
         offset="0.5"
         id="stop3818" />
      <stop
         id="stop3820"
         offset="0.75"
         style="stop-color:#ffffff;stop-opacity:0.39215687;" />
      <stop
         id="stop3806"
         offset="1"
         style="stop-color:#ffffff;stop-opacity:1;" />
    </linearGradient>
    <linearGradient
       inkscape:collect="always"
       xlink:href="#linearGradient3802"
       id="linearGradient4072"
       gradientUnits="userSpaceOnUse"
       gradientTransform="matrix(1.002849,0,0,1.0028489,18.480531,1016.6597)"
       x1="2"
       y1="12"
       x2="22"
       y2="12" />
    <linearGradient
       inkscape:collect="always"
       xlink:href="#linearGradient3164"
       id="linearGradient4081"
       x1="31.059769"
       y1="1023.6609"
       x2="31.059769"
       y2="1036.5634"
       gradientUnits="userSpaceOnUse"
       gradientTransform="matrix(1.002849,0,0,1.0028489,-0.08693722,-2.9002856)" />
  </defs>
  <sodipodi:namedview
     id="base"
     pagecolor="#ffffff"
     bordercolor="#666666"
     borderopacity="1.0"
     inkscape:pageopacity="0.0"
     inkscape:pageshadow="2"
     inkscape:zoom="5.4999999"
     inkscape:cx="-10.396959"
     inkscape:cy="-14.398301"
     inkscape:current-layer="layer1"
     showgrid="true"
     inkscape:document-units="px"
     inkscape:grid-bbox="true"
     inkscape:window-width="1920"
     inkscape:window-height="934"
     inkscape:window-x="0"
     inkscape:window-y="34"
     fit-margin-top="0"
     fit-margin-left="0"
     fit-margin-right="0"
     fit-margin-bottom="0"
     inkscape:window-maximized="1" />
  <metadata
     id="metadata1971">
    <rdf:RDF>
      <cc:Work
         rdf:about="">
        <dc:format>image/svg+xml</dc:format>
        <dc:type
           rdf:resource="http://purl.org/dc/dcmitype/StillImage" />
        <dc:title></dc:title>
      </cc:Work>
    </rdf:RDF>
  </metadata>
  <g
     id="layer1"
     inkscape:label="Layer 1"
     inkscape:groupmode="layer"
     transform="translate(160.55302,53.142715)">
    <g
       id="update-low"
       transform="translate(-179.06774,-1069.8376)">
      <g
         id="g4050">
        <path
           style="fill:#000000;fill-opacity:0.39215686;stroke:none"
           d="m 30.514718,1017.6939 c -0.372533,0 -0.698861,0.074 -0.940171,0.094 -0.402112,0.037 -0.761757,0.3572 -0.846154,0.7521 l -0.282051,1.473 c -0.157323,0.039 -0.31814,0.047 -0.470086,0.094 l -1.002849,-1.0967 c -0.267476,-0.3157 -0.752247,-0.4234 -1.128205,-0.2508 -0.561415,0.2639 -1.084853,0.5816 -1.59829,0.9402 -0.345293,0.2307 -0.507169,0.7028 -0.376069,1.0968 l 0.470086,1.4103 c -0.105622,0.1008 -0.212686,0.2078 -0.31339,0.3134 l -1.410257,-0.4701 c -0.394034,-0.1312 -0.866182,0.031 -1.096866,0.376 -0.358653,0.5135 -0.676368,1.0369 -0.940171,1.5984 -0.172589,0.3759 -0.06486,0.8607 0.250712,1.1282 l 1.096866,1.0029 c -0.04682,0.1519 -0.05469,0.3126 -0.09402,0.47 l -1.472934,0.2821 c -0.394927,0.084 -0.714605,0.4439 -0.752137,0.8461 -0.02005,0.2413 -0.09402,0.5676 -0.09402,0.9402 0,0.3725 0.07397,0.6988 0.09402,0.9401 0.0375,0.4022 0.357181,0.7618 0.752137,0.8462 l 1.472934,0.282 c 0.03932,0.1574 0.04719,0.3181 0.09402,0.4701 l -1.096866,1.0029 c -0.315574,0.2675 -0.423301,0.7523 -0.250712,1.1282 0.263803,0.5614 0.581518,1.0848 0.940171,1.5983 0.230684,0.3452 0.702832,0.5072 1.096866,0.376 l 1.410257,-0.47 c 0.100704,0.1056 0.207768,0.2126 0.31339,0.3134 l -0.470086,1.4102 c -0.131148,0.394 0.03074,0.8662 0.376069,1.0969 0.513436,0.3586 1.036873,0.6763 1.59829,0.9402 0.375958,0.1726 0.860729,0.065 1.128205,-0.2508 l 1.002849,-1.0968 c 0.151946,0.047 0.312763,0.054 0.470086,0.094 l 0.282051,1.4729 c 0.0844,0.3949 0.444042,0.7146 0.846154,0.7521 0.24131,0.02 0.567638,0.094 0.940171,0.094 0.37254,0 0.698875,-0.074 0.940171,-0.094 0.402112,-0.037 0.761757,-0.3572 0.846154,-0.7521 l 0.282051,-1.4729 c 0.157325,-0.039 0.31814,-0.047 0.470086,-0.094 l 1.002849,1.0968 c 0.267476,0.3157 0.752247,0.4234 1.128205,0.2508 0.561418,-0.2639 1.084854,-0.5816 1.59829,-0.9402 0.345334,-0.2307 0.507217,-0.7029 0.376069,-1.0969 l -0.470086,-1.4102 c 0.105622,-0.1008 0.212687,-0.2078 0.31339,-0.3134 l 1.410257,0.47 c 0.394034,0.1312 0.866182,-0.031 1.096866,-0.376 0.358652,-0.5135 0.676368,-1.0369 0.940171,-1.5983 0.172589,-0.3759 0.06486,-0.8607 -0.250712,-1.1282 l -1.096866,-1.0029 c 0.04682,-0.152 0.0547,-0.3127 0.09402,-0.4701 l 1.472934,-0.282 c 0.394956,-0.084 0.714645,-0.444 0.752137,-0.8462 0.02005,-0.2413 0.09402,-0.5676 0.09402,-0.9401 0,-0.3726 -0.07397,-0.6989 -0.09402,-0.9402 -0.03753,-0.4022 -0.35721,-0.7617 -0.752137,-0.8461 l -1.472934,-0.2821 c -0.03932,-0.1574 -0.04719,-0.3181 -0.09402,-0.47 l 1.096866,-1.0029 c 0.315574,-0.2675 0.423301,-0.7523 0.250712,-1.1282 -0.263803,-0.5615 -0.581519,-1.0849 -0.940171,-1.5984 -0.230684,-0.3452 -0.702832,-0.5072 -1.096866,-0.376 l -1.410257,0.4701 c -0.100704,-0.1056 -0.207768,-0.2126 -0.31339,-0.3134 l 0.470086,-1.4103 c 0.1311,-0.394 -0.03078,-0.8661 -0.376069,-1.0968 -0.513437,-0.3586 -1.036874,-0.6763 -1.59829,-0.9402 -0.375958,-0.1726 -0.860729,-0.065 -1.128205,0.2508 l -1.002849,1.0967 c -0.151945,-0.047 -0.312762,-0.054 -0.470086,-0.094 l -0.282051,-1.473 c -0.0844,-0.3949 -0.444042,-0.7146 -0.846154,-0.7521 -0.24131,-0.02 -0.567638,-0.094 -0.940171,-0.094 z m 0,0.9714 c 0.283453,0 0.568655,0.039 0.846154,0.063 l 0.407407,2.0371 c 0.553717,0.087 1.088252,0.245 1.598291,0.4388 l 1.410256,-1.567 c 0.517841,0.2434 1.008096,0.5214 1.472935,0.8461 l -0.65812,1.9744 c 0.420756,0.3435 0.816144,0.7388 1.159544,1.1596 l 1.974359,-0.6582 c 0.324705,0.465 0.602828,0.9551 0.846154,1.4729 l -1.566952,1.4104 c 0.193907,0.5099 0.351996,1.0445 0.438747,1.5981 l 2.037037,0.4076 c 0.02305,0.2775 0.06268,0.5627 0.06268,0.846 0,0.2834 -0.03962,0.5686 -0.06268,0.8462 l -2.037037,0.4075 c -0.08675,0.5536 -0.24484,1.0882 -0.438747,1.5982 l 1.566952,1.4103 c -0.243326,0.5178 -0.521449,1.008 -0.846154,1.473 l -1.974359,-0.6583 c -0.3434,0.4208 -0.738788,0.8162 -1.159544,1.1597 l 0.65812,1.9743 c -0.464839,0.3247 -0.955094,0.6028 -1.472935,0.8462 l -1.410256,-1.567 c -0.510039,0.1938 -1.044574,0.352 -1.598291,0.4388 l -0.407407,2.037 c -0.277499,0.023 -0.562701,0.063 -0.846154,0.063 -0.283453,0 -0.568655,-0.039 -0.846154,-0.063 l -0.407407,-2.037 c -0.553717,-0.087 -1.088252,-0.245 -1.598291,-0.4388 l -1.410256,1.567 c -0.51784,-0.2434 -1.008096,-0.5215 -1.472935,-0.8462 l 0.65812,-1.9743 c -0.420756,-0.3435 -0.816144,-0.7389 -1.159544,-1.1597 l -1.974359,0.6583 c -0.324705,-0.465 -0.602827,-0.9552 -0.846154,-1.473 l 1.566952,-1.4103 c -0.193906,-0.51 -0.351996,-1.0446 -0.438747,-1.5982 l -2.037037,-0.4075 c -0.02305,-0.2776 -0.06268,-0.5628 -0.06268,-0.8462 0,-0.2833 0.03962,-0.5685 0.06268,-0.846 l 2.037037,-0.4076 c 0.08675,-0.5536 0.244841,-1.0882 0.438747,-1.5981 l -1.566952,-1.4104 c 0.243327,-0.5178 0.521449,-1.0079 0.846154,-1.4729 l 1.974359,0.6582 c 0.3434,-0.4208 0.738788,-0.8161 1.159544,-1.1596 l -0.65812,-1.9744 c 0.464839,-0.3247 0.955095,-0.6027 1.472935,-0.8461 l 1.410256,1.567 c 0.510039,-0.1938 1.044574,-0.352 1.598291,-0.4388 l 0.407407,-2.0371 c 0.277499,-0.023 0.562701,-0.063 0.846154,-0.063 z m 0,4.0114 c -3.323153,0 -6.017094,2.694 -6.017094,6.0171 0,0.6681 0.112401,1.3114 0.31339,1.9118 -8e-5,0.01 -8e-5,0.021 0,0.031 -0.523459,0.8426 -0.292616,2.0691 0.501425,2.6638 l 4.011396,3.0085 c 0.684002,0.5047 1.697764,0.5047 2.381766,0 l 4.011396,-3.0085 c 0.784058,-0.6037 1.000156,-1.8283 0.470086,-2.6638 8e-5,-0.01 8e-5,-0.021 0,-0.031 0.202988,-0.6031 0.344729,-1.2402 0.344729,-1.9118 0,-3.3231 -2.69394,-6.0171 -6.017094,-6.0171 z m 0,0.9716 c 2.806511,0 5.045584,2.2391 5.045584,5.0455 0,0.421 -0.06157,0.8325 -0.156695,1.2224 -0.270804,-0.1385 -0.573422,-0.2142 -0.877493,-0.2195 l 0,-2.0057 c -1.05e-4,-1.0502 -0.955547,-1.9742 -2.005699,-1.9743 l -4.011396,0 c -0.06263,0 -0.125402,0 -0.188034,0 -0.985968,0.093 -1.821934,1.0154 -1.817664,2.0057 l 1e-6,1.9743 c -0.304071,0.01 -0.606689,0.081 -0.877493,0.2195 -0.09512,-0.3899 -0.156695,-0.8014 -0.156695,-1.2224 0,-2.8064 2.239073,-5.0455 5.045584,-5.0455 z m -2.193732,3.0712 c 0.03132,0 0.0627,0 0.09402,0 0.03132,0 0.0627,0 0.09402,0 l 4.011396,0 c 0.508651,10e-5 1.002771,0.4942 1.002848,1.0029 l 0,3.0085 1.002849,0 c 0.819401,-0.018 1.256446,1.2705 0.595442,1.755 l -4.011396,3.0086 c -0.337641,0.2618 -0.853243,0.2618 -1.190884,0 l -4.011396,-3.0086 c -0.661004,-0.4845 -0.223959,-1.7727 0.595442,-1.755 l 1.002849,0 0.03134,-3.0399 c -0.0084,-0.4517 0.340259,-0.8841 0.783477,-0.9715 z"
           id="path3928"
           inkscape:connector-curvature="0"
           sodipodi:nodetypes="sccccccccccccccccccsccccccccccccccccccsccccccccccccccccccsccccccccccccccccccssccccccccccccsccccccccccccsccccccccccccsccccccccccccsssccccccccsssscccccccccssccccccccccccccc" />
        <rect
           y="1016.6949"
           x="18.514719"
           height="24"
           width="24"
           id="rect3930"
           style="fill:none;stroke:none" />
        <path
           id="path4070"
           d="m 30.514718,1018.6653 c -0.283453,0 -0.568655,0.038 -0.846154,0.062 l -0.407407,2.0371 c -0.553717,0.087 -1.088252,0.245 -1.598291,0.4388 l -1.410256,-1.567 c -0.51784,0.2434 -1.008096,0.5214 -1.472935,0.8461 l 0.65812,1.9744 c -0.420756,0.3435 -0.816144,0.7389 -1.159544,1.1596 l -1.974359,-0.6582 c -0.324705,0.465 -0.602827,0.9551 -0.846154,1.473 l 1.566952,1.4103 c -0.193906,0.5099 -0.351996,1.0445 -0.438747,1.5982 l -2.037037,0.4075 c -0.02305,0.2775 -0.06268,0.5628 -0.06268,0.8461 0,0.2834 0.03962,0.5685 0.06268,0.8461 l 2.037037,0.4076 c 0.08675,0.5536 0.244841,1.0881 0.438747,1.5981 l -1.566952,1.4104 c 0.243327,0.5178 0.521449,1.0079 0.846154,1.4729 l 1.974359,-0.6582 c 0.3434,0.4208 0.738788,0.8161 1.159544,1.1596 l -0.65812,1.9744 c 0.464839,0.3246 0.955095,0.6027 1.472935,0.8461 l 1.410256,-1.567 c 0.510039,0.1938 1.044574,0.352 1.598291,0.4388 l 0.407407,2.0371 c 0.277499,0.023 0.562701,0.062 0.846154,0.062 0.283453,0 0.568655,-0.039 0.846154,-0.062 l 0.407407,-2.0371 c 0.553717,-0.087 1.088252,-0.245 1.598291,-0.4388 l 1.410256,1.567 c 0.517841,-0.2434 1.008096,-0.5215 1.472935,-0.8461 l -0.65812,-1.9744 c 0.420756,-0.3435 0.816144,-0.7388 1.159544,-1.1596 l 1.974359,0.6582 c 0.324705,-0.465 0.602828,-0.9551 0.846154,-1.4729 l -1.566952,-1.4104 c 0.193907,-0.51 0.351996,-1.0445 0.438747,-1.5981 l 2.037037,-0.4076 c 0.02305,-0.2776 0.06268,-0.5627 0.06268,-0.8461 0,-0.2833 -0.03962,-0.5686 -0.06268,-0.8461 l -2.037037,-0.4075 c -0.08675,-0.5537 -0.24484,-1.0883 -0.438747,-1.5982 l 1.566952,-1.4103 c -0.243326,-0.5179 -0.521449,-1.008 -0.846154,-1.473 l -1.974359,0.6582 c -0.3434,-0.4207 -0.738788,-0.8161 -1.159544,-1.1596 l 0.65812,-1.9744 c -0.464839,-0.3247 -0.955094,-0.6027 -1.472935,-0.8461 l -1.410256,1.567 c -0.510039,-0.1938 -1.044574,-0.352 -1.598291,-0.4388 l -0.407407,-2.0371 c -0.277499,-0.023 -0.562701,-0.062 -0.846154,-0.062 z m 0,4.0114 c 3.323154,0 6.017094,2.6941 6.017094,6.0172 0,0.6715 -0.141741,1.3086 -0.344729,1.9117 8e-5,0.01 8e-5,0.021 0,0.031 0.53007,0.8355 0.313972,2.06 -0.470086,2.6637 l -4.011396,3.0085 c -0.684002,0.5047 -1.697764,0.5047 -2.381766,0 l -4.011396,-3.0085 c -0.794041,-0.5947 -1.024884,-1.8211 -0.501425,-2.6637 -0.0032,-0.01 0.0031,-0.022 0,-0.031 -0.200989,-0.6004 -0.31339,-1.2437 -0.31339,-1.9117 0,-3.3231 2.693941,-6.0172 6.017094,-6.0172 z"
           style="fill:url(#linearGradient4072);fill-opacity:1;stroke:none"
           inkscape:connector-curvature="0" />
        <path
           id="path3932"
           d="m 28.320986,1026.7195 c -0.443217,0.087 -0.791941,0.5198 -0.783476,0.9715 l -0.03134,3.0399 -1.002847,0 c -0.819401,-0.018 -1.256444,1.2705 -0.59544,1.755 l 4.011396,3.0086 c 0.337641,0.2618 0.853243,0.2618 1.190884,0 l 4.011396,-3.0086 c 0.661004,-0.4845 0.223959,-1.7727 -0.595442,-1.755 l -1.00285,0 0,-3.0085 c -7.7e-5,-0.5087 -0.494197,-1.0028 -1.002848,-1.0029 l -4.011396,0 c -0.03132,0 -0.0627,0 -0.09402,0 -0.03132,0 -0.0627,0 -0.09402,0 z"
           style="fill:url(#linearGradient4081);fill-opacity:1;stroke:none"
           inkscape:connector-curvature="0" />
      </g>
    </g>
  </g>
</svg>
