<?xml version="1.0" encoding="utf-8"?>
<!-- Generator: Adobe Illustrator 13.0.0, SVG Export Plug-In . SVG Version: 6.00 Build 14948)  -->
<!DOCTYPE svg PUBLIC "-//W3C//DTD SVG 1.1//EN" "http://www.w3.org/Graphics/SVG/1.1/DTD/svg11.dtd">
<svg version="1.1" id="Layer_1" xmlns="http://www.w3.org/2000/svg" xmlns:xlink="http://www.w3.org/1999/xlink" x="0px" y="0px"
	 width="128px" height="128px" viewBox="0 0 128 128" enable-background="new 0 0 128 128" xml:space="preserve">
<g>
	<g>
		<path fill="#F2F2F2" d="M5.191,67.302c1.295-0.806,2.822-1.276,4.458-1.276h54.94c1.616,0,3.129,0.46,4.418,1.248l0.648-0.59
			c-1.463-0.951-3.197-1.508-5.066-1.508H9.649c-1.863,0-3.593,0.553-5.049,1.496L5.191,67.302z"/>
		
			<linearGradient id="SVGID_1_" gradientUnits="userSpaceOnUse" x1="-287.6724" y1="61.0225" x2="-216.7505" y2="61.0225" gradientTransform="matrix(1 0 0 -1 289.2754 151.834)">
			<stop  offset="0" style="stop-color:#D5D7D8"/>
			<stop  offset="1" style="stop-color:#5C5F61"/>
		</linearGradient>
		<path fill="url(#SVGID_1_)" stroke="#808080" d="M29.659,113.369L3.761,75.076c-4.005-6.612-2.271-12.024,3.853-12.024h59.163
			c6.124,0,7.589,5.058,3.26,11.239l-25.223,39.867C40.485,120.339,33.664,119.984,29.659,113.369L29.659,113.369z"/>
		
			<linearGradient id="SVGID_2_" gradientUnits="userSpaceOnUse" x1="-276.2144" y1="118.0557" x2="-226.8296" y2="118.0557" gradientTransform="matrix(1 0 0 -1 289.2754 151.834)">
			<stop  offset="0" style="stop-color:#D5D7D8"/>
			<stop  offset="1" style="stop-color:#5C5F61"/>
		</linearGradient>
		<path fill="url(#SVGID_2_)" stroke="#808080" d="M13.061,33.779c0-13.648,11.054-24.71,24.693-24.71
			c13.636,0,24.691,11.062,24.691,24.71c0,13.646-11.055,24.709-24.691,24.709C24.116,58.488,13.061,47.425,13.061,33.779
			L13.061,33.779z"/>
		<path fill="#F2F2F2" d="M19.825,20.982c4.123-5.66,11.705-9.998,18.792-9.998c7.085,0,14.475,4.338,18.598,9.998h0.784
			C53.627,14.32,46.536,9.959,38.52,9.959c-8.017,0-15.11,4.36-19.479,11.023H19.825z"/>
		
			<linearGradient id="SVGID_3_" gradientUnits="userSpaceOnUse" x1="-233.7998" y1="61.0244" x2="-162.877" y2="61.0244" gradientTransform="matrix(1 0 0 -1 289.2754 151.834)">
			<stop  offset="0" style="stop-color:#D5D7D8"/>
			<stop  offset="1" style="stop-color:#5C5F61"/>
		</linearGradient>
		<path fill="url(#SVGID_3_)" stroke="#808080" d="M98.342,68.25l25.9,38.295c4.004,6.614,2.269,12.025-3.856,12.025H61.224
			c-6.122,0-7.59-5.057-3.26-11.24l25.221-39.865C87.517,61.282,94.336,61.638,98.342,68.25L98.342,68.25z"/>
		
			<linearGradient id="SVGID_4_" gradientUnits="userSpaceOnUse" x1="-223.0332" y1="118.0557" x2="-173.6484" y2="118.0557" gradientTransform="matrix(1 0 0 -1 289.2754 151.834)">
			<stop  offset="0" style="stop-color:#D5D7D8"/>
			<stop  offset="1" style="stop-color:#5C5F61"/>
		</linearGradient>
		<path fill="url(#SVGID_4_)" stroke="#808080" d="M66.242,33.779c0-13.648,11.055-24.71,24.691-24.71
			c13.639,0,24.693,11.062,24.693,24.71c0,13.646-11.055,24.709-24.693,24.709C77.297,58.488,66.242,47.425,66.242,33.779
			L66.242,33.779z"/>
		<path fill="#F2F2F2" d="M72.239,20.982c4.125-5.66,11.706-9.998,18.792-9.998c7.087,0,14.476,4.338,18.598,9.998h0.785
			C106.043,14.32,98.951,9.959,90.936,9.959c-8.017,0-15.11,4.36-19.48,11.023H72.239z"/>
		<path opacity="0.3" fill="#FFFFFF" enable-background="new    " d="M70.478,114.483c0-18.774,14.393-34.181,32.747-35.802
			l-5.536-8.186c-3.741-6.179-10.114-6.512-14.16-0.732l-23.567,37.25c-4.045,5.773-2.674,10.5,3.047,10.5h7.605
			C70.529,116.513,70.478,115.506,70.478,114.483z"/>
		<path opacity="0.3" fill="#FFFFFF" enable-background="new    " d="M10.09,82.153c7.344-5.798,16.611-9.269,26.695-9.269
			c9.935,0,19.074,3.369,26.364,9.012l4.439-7.014c4.045-5.775,2.672-10.499-3.048-10.499H9.271c-5.722,0-7.341,5.055-3.6,11.235
			L10.09,82.153z"/>
	</g>
</g>
</svg>
