<?xml version="1.0" encoding="utf-8"?>
<!-- Generator: Adobe Illustrator 13.0.0, SVG Export Plug-In . SVG Version: 6.00 Build 14948)  -->
<!DOCTYPE svg PUBLIC "-//W3C//DTD SVG 1.1//EN" "http://www.w3.org/Graphics/SVG/1.1/DTD/svg11.dtd">
<svg version="1.1" id="Layer_1" xmlns="http://www.w3.org/2000/svg" xmlns:xlink="http://www.w3.org/1999/xlink" x="0px" y="0px"
	 width="128px" height="128px" viewBox="0 0 128 128" enable-background="new 0 0 128 128" xml:space="preserve">
<g>
	<g>
		<path fill="#F2F2F2" d="M5.191,67.003c1.296-0.807,2.822-1.275,4.458-1.275h54.939c1.617,0,3.13,0.459,4.417,1.246l0.649-0.588
			c-1.462-0.95-3.197-1.51-5.066-1.51H9.649c-1.863,0-3.593,0.555-5.049,1.498L5.191,67.003z"/>
		<linearGradient id="SVGID_1_" gradientUnits="userSpaceOnUse" x1="1.603" y1="90.5117" x2="72.5244" y2="90.5117">
			<stop  offset="0" style="stop-color:#80E21B"/>
			<stop  offset="1" style="stop-color:#80B400"/>
		</linearGradient>
		<path fill="url(#SVGID_1_)" stroke="#70993E" d="M29.659,113.069L3.76,74.778c-4.004-6.613-2.27-12.026,3.854-12.026h59.162
			c6.125,0,7.59,5.058,3.261,11.239l-25.222,39.866C40.484,120.039,33.664,119.685,29.659,113.069L29.659,113.069z"/>
		<linearGradient id="SVGID_2_" gradientUnits="userSpaceOnUse" x1="13.0605" y1="33.479" x2="62.4468" y2="33.479">
			<stop  offset="0" style="stop-color:#80E21B"/>
			<stop  offset="1" style="stop-color:#80B400"/>
		</linearGradient>
		<path fill="url(#SVGID_2_)" stroke="#70993E" d="M13.061,33.48c0-13.648,11.055-24.71,24.694-24.71
			c13.637,0,24.692,11.062,24.692,24.71c0,13.646-11.056,24.708-24.692,24.708C24.116,58.188,13.061,47.126,13.061,33.48
			L13.061,33.48z"/>
		<path fill="#F2F2F2" d="M19.825,20.684c4.123-5.661,11.705-9.999,18.792-9.999c7.087,0,14.474,4.337,18.597,9.999h0.783
			C53.627,14.021,46.535,9.66,38.519,9.66c-8.016,0-15.109,4.36-19.478,11.023H19.825z"/>
		<linearGradient id="SVGID_3_" gradientUnits="userSpaceOnUse" x1="55.4761" y1="90.5107" x2="126.3965" y2="90.5107">
			<stop  offset="0" style="stop-color:#80E21B"/>
			<stop  offset="1" style="stop-color:#80B400"/>
		</linearGradient>
		<path fill="url(#SVGID_3_)" stroke="#70993E" d="M98.342,67.95l25.898,38.295c4.004,6.614,2.271,12.025-3.854,12.025H61.225
			c-6.122,0-7.59-5.057-3.26-11.24l25.221-39.864C87.516,60.983,94.336,61.338,98.342,67.95L98.342,67.95z"/>
		<linearGradient id="SVGID_4_" gradientUnits="userSpaceOnUse" x1="66.2422" y1="33.479" x2="115.627" y2="33.479">
			<stop  offset="0" style="stop-color:#80E21B"/>
			<stop  offset="1" style="stop-color:#80B400"/>
		</linearGradient>
		<path fill="url(#SVGID_4_)" stroke="#70993E" d="M66.242,33.48c0-13.648,11.057-24.71,24.691-24.71
			c13.639,0,24.693,11.062,24.693,24.71c0,13.646-11.055,24.708-24.693,24.708C77.299,58.188,66.242,47.126,66.242,33.48
			L66.242,33.48z"/>
		<path fill="#F2F2F2" d="M72.239,20.684c4.125-5.661,11.706-9.999,18.792-9.999s14.475,4.337,18.598,9.999h0.785
			C106.043,14.021,98.95,9.66,90.936,9.66c-8.017,0-15.109,4.36-19.479,11.023H72.239z"/>
		<path opacity="0.5" fill="#FFFFFF" d="M70.478,114.185c0-18.775,14.393-34.182,32.747-35.803l-5.536-8.186
			c-3.741-6.179-10.114-6.51-14.16-0.732l-23.567,37.248c-4.045,5.775-2.675,10.502,3.047,10.502h7.604
			C70.529,116.213,70.478,115.206,70.478,114.185z"/>
		<path opacity="0.5" fill="#FFFFFF" d="M10.09,81.854c7.345-5.799,16.612-9.27,26.695-9.27c9.934,0,19.074,3.369,26.364,9.012
			l4.438-7.012c4.047-5.775,2.672-10.499-3.047-10.499H9.271c-5.722,0-7.342,5.055-3.6,11.233L10.09,81.854z"/>
	</g>
</g>
</svg>
