<?xml version="1.0" encoding="utf-8"?>
<!-- Generator: Adobe Illustrator 13.0.0, SVG Export Plug-In . SVG Version: 6.00 Build 14948)  -->
<!DOCTYPE svg PUBLIC "-//W3C//DTD SVG 1.1//EN" "http://www.w3.org/Graphics/SVG/1.1/DTD/svg11.dtd">
<svg version="1.1" id="Layer_1" xmlns="http://www.w3.org/2000/svg" xmlns:xlink="http://www.w3.org/1999/xlink" x="0px" y="0px"
	 width="128.074px" height="128px" viewBox="0 0 128.074 128" enable-background="new 0 0 128.074 128" xml:space="preserve">
<g>
	<linearGradient id="SVGID_1_" gradientUnits="userSpaceOnUse" x1="64.0356" y1="41.0615" x2="64.0356" y2="109.439">
		<stop  offset="0" style="stop-color:#5F5D5C"/>
		<stop  offset="1" style="stop-color:#181500"/>
	</linearGradient>
	<path fill="url(#SVGID_1_)" d="M32.416,41.062h61.485c4.676,0,8.796,2.285,11.212,5.756l18.313,22.248
		c2.533,3.193,4.146,7.26,4.146,11.688c0,10.266-8.465,13.24-19.366,18.588c0,0-22.821,10.098-45.989,10.098
		c-23.169,0-42.352-10.098-42.352-10.098C7.898,93.478,0.499,91.019,0.499,80.753c0-4.553,1.704-8.723,4.534-11.955l15.301-20.539
		C22.538,43.993,27.12,41.062,32.416,41.062L32.416,41.062z"/>
	<path opacity="0.5" fill="#808080" d="M22.051,70.689c0,0,21.691-7.248,43.713-7.248c22.023,0,40.256,7.248,40.256,7.248
		c10.553,3.903,17.357,5.713,18.289,11.836c0.072-0.479,0.119-0.962,0.119-1.453c0-7.369-7.033-9.134-18.408-13.344
		c0,0-18.232-7.248-40.256-7.248c-22.021,0-43.713,7.248-43.713,7.248c-10.361,3.84-18.408,5.975-18.408,13.344
		c0,0.505,0.053,1,0.127,1.489C4.791,76.36,12.416,74.258,22.051,70.689z"/>
	<linearGradient id="SVGID_2_" gradientUnits="userSpaceOnUse" x1="110.6543" y1="81.042" x2="110.6543" y2="86.1367">
		<stop  offset="0" style="stop-color:#80E21B"/>
		<stop  offset="1" style="stop-color:#80B400"/>
	</linearGradient>
	<path fill="url(#SVGID_2_)" d="M106.012,81.042h9.287c0.911,0,1.649,0.937,1.649,2.093v0.909c0,1.156-0.738,2.093-1.649,2.093
		h-9.287c-0.91,0-1.65-0.937-1.65-2.093v-0.909C104.361,81.979,105.102,81.042,106.012,81.042L106.012,81.042z"/>
	<linearGradient id="SVGID_3_" gradientUnits="userSpaceOnUse" x1="64.0356" y1="32.751" x2="64.0356" y2="78.1675">
		<stop  offset="0" style="stop-color:#5F5D5C"/>
		<stop  offset="1" style="stop-color:#181500"/>
	</linearGradient>
	<path fill="url(#SVGID_3_)" d="M37.823,35.687c3.446-0.824,13.081-2.936,24.659-2.936s23.927,2.334,27.728,3.32
		c4.397,1.143,13.421,4.777,15.831,8.238l17.206,20.951c2.525,3.184,4.133,7.238,4.133,11.652l-0.021,0.873
		c-1.698-7.678-8.962-9.664-19.05-13.484c0,0-28.91-7.635-45.645-7.635c-16.735,0-42.802,7.635-42.802,7.635
		c-10.1,4.078-17.61,6-19.127,13.865c-0.03-0.414-0.045-0.832-0.045-1.254c0-4.539,1.699-8.697,4.521-11.918l15.255-20.479
		C26.231,37.651,34.212,36.55,37.823,35.687z"/>
	<path opacity="0.5" fill="#808080" d="M59.408,45.543c15.883-2.811,30.925-3.269,43.413-1.755
		c-3.479-2.619-9.681-5.025-13.04-5.898c-3.603-0.935-15.307-3.147-26.281-3.147s-20.107,2.002-23.373,2.783
		c-3.424,0.817-10.988,1.862-16.452,8.369L11.216,62.62C23.146,55.222,40.094,48.961,59.408,45.543z"/>
	<g>
		
			<linearGradient id="SVGID_4_" gradientUnits="userSpaceOnUse" x1="-525.3237" y1="-811.3594" x2="-478.2001" y2="-778.363" gradientTransform="matrix(-1 0 0 -1 -437.7266 -710.6162)">
			<stop  offset="0" style="stop-color:#181500"/>
			<stop  offset="1" style="stop-color:#5F5D5C"/>
		</linearGradient>
		<path fill="url(#SVGID_4_)" d="M35.274,84.243c0-15.883,12.875-28.76,28.762-28.76c15.883,0,28.761,12.877,28.761,28.76
			c0,15.887-12.876,28.764-28.761,28.764C48.149,113.007,35.274,100.13,35.274,84.243z"/>
		
			<linearGradient id="SVGID_5_" gradientUnits="userSpaceOnUse" x1="-501.7612" y1="-769.2266" x2="-501.7612" y2="-820.4956" gradientTransform="matrix(-1 0 0 -1 -437.7266 -710.6162)">
			<stop  offset="0" style="stop-color:#181500"/>
			<stop  offset="1" style="stop-color:#5F5D5C"/>
		</linearGradient>
		<circle fill="url(#SVGID_5_)" cx="64.034" cy="84.243" r="25.635"/>
		
			<linearGradient id="SVGID_6_" gradientUnits="userSpaceOnUse" x1="-519.2056" y1="-807.0752" x2="-484.3172" y2="-782.6461" gradientTransform="matrix(-1 0 0 -1 -437.7266 -710.6162)">
			<stop  offset="0" style="stop-color:#00B2DE"/>
			<stop  offset="1" style="stop-color:#99DBF6"/>
		</linearGradient>
		<path fill="url(#SVGID_6_)" d="M42.743,84.243c0-11.758,9.531-21.291,21.293-21.291c11.76,0,21.293,9.533,21.293,21.291
			c0,11.762-9.533,21.295-21.293,21.295C52.274,105.538,42.743,96.005,42.743,84.243z"/>
	</g>
	<path opacity="0.5" fill="#94D9F8" d="M63.844,82.506c5.868,4.91,13.803,2.218,18.744-0.347
		c-0.727-9.864-8.949-17.641-18.99-17.641c-10.084,0-18.332,7.841-19.001,17.765C49.171,80.033,57.528,77.223,63.844,82.506z"/>
</g>
</svg>
