<?xml version="1.0" encoding="utf-8"?>
<!-- Generator: Adobe Illustrator 13.0.0, SVG Export Plug-In . SVG Version: 6.00 Build 14948)  -->
<!DOCTYPE svg PUBLIC "-//W3C//DTD SVG 1.1//EN" "http://www.w3.org/Graphics/SVG/1.1/DTD/svg11.dtd">
<svg version="1.1" id="Layer_1" xmlns="http://www.w3.org/2000/svg" xmlns:xlink="http://www.w3.org/1999/xlink" x="0px" y="0px"
	 width="128px" height="128px" viewBox="0 0 128 128" enable-background="new 0 0 128 128" xml:space="preserve">
<g>
	<g>
		<linearGradient id="SVGID_1_" gradientUnits="userSpaceOnUse" x1="80.9121" y1="54.7944" x2="80.9121" y2="20.0044">
			<stop  offset="0" style="stop-color:#ECEEF0"/>
			<stop  offset="0.2485" style="stop-color:#E8E8E9"/>
			<stop  offset="0.5636" style="stop-color:#EEEFF2"/>
			<stop  offset="0.9212" style="stop-color:#D4D5D6"/>
		</linearGradient>
		<path fill="url(#SVGID_1_)" stroke="#B3B3B3" stroke-width="2" d="M110.189,44.46c0,5.707-4.627,10.334-10.334,10.334H61.967
			c-5.707,0-10.332-4.627-10.332-10.334V30.337c0-5.707,4.625-10.333,10.332-10.333h37.889c5.707,0,10.334,4.626,10.334,10.333
			V44.46z"/>
		<path opacity="0.75" fill="#F2F2F2" d="M57.053,23.465c1.098-1.266,2.715-2.071,4.52-2.071h38.678c1.805,0,3.422,0.806,4.52,2.071
			h0.766c-1.201-1.616-3.119-2.671-5.285-2.671H61.572c-2.164,0-4.084,1.055-5.283,2.671H57.053z"/>
		<linearGradient id="SVGID_2_" gradientUnits="userSpaceOnUse" x1="64.6504" y1="28.4585" x2="64.6504" y2="118.999">
			<stop  offset="0" style="stop-color:#9A9A9A"/>
			<stop  offset="1" style="stop-color:#DEDEDE"/>
		</linearGradient>
		<path fill="url(#SVGID_2_)" d="M22.311,28.458h84.68c10.42,0,18.867,8.453,18.867,18.882v52.778
			c0,10.428-8.447,18.881-18.867,18.881h-84.68c-10.421,0-18.868-8.453-18.868-18.881V47.34
			C3.442,36.912,11.89,28.458,22.311,28.458L22.311,28.458z"/>
		<linearGradient id="SVGID_3_" gradientUnits="userSpaceOnUse" x1="64.6494" y1="67.2285" x2="64.6494" y2="33.8994">
			<stop  offset="0" style="stop-color:#999999"/>
			<stop  offset="1" style="stop-color:#CCCCCC"/>
		</linearGradient>
		<path fill="url(#SVGID_3_)" d="M105.184,33.899H24.115c-9.974,0-18.062,7.899-18.062,17.646v15.684
			c0-9.747,8.088-17.644,18.062-17.644h81.068c9.975,0,18.062,7.897,18.062,17.644V51.544
			C123.246,41.798,115.158,33.899,105.184,33.899z"/>
		<path fill="#FFFFFF" d="M105.17,32.917H24.131c-9.972,0-18.056,8.09-18.056,18.069v1.077c0-9.979,8.084-18.069,18.056-18.069
			h81.039c9.971,0,18.055,8.09,18.055,18.069v-1.077C123.225,41.006,115.141,32.917,105.17,32.917z"/>
		<path fill="#999999" d="M106.988,116.267h-84.68c-10.421,0-18.866-8.453-18.866-18.883v2.734c0,10.428,8.445,18.881,18.866,18.881
			h84.68c10.42,0,18.869-8.453,18.869-18.881v-2.734C125.857,107.813,117.408,116.267,106.988,116.267z"/>
	</g>
	<g>
		<g>
			<path fill="none" d="M56.146,65.21c3.801-2.021,14.355,3.815,20.121,14.666c5.766,10.849,4.559,22.605,0.756,24.629
				c-3.801,2.021-12.553-4.434-18.318-15.284C52.941,78.37,52.346,67.233,56.146,65.21L56.146,65.21z"/>
			<linearGradient id="SVGID_4_" gradientUnits="userSpaceOnUse" x1="53.3887" y1="64.0645" x2="53.3887" y2="110.0137">
				<stop  offset="0" style="stop-color:#ECEEF0"/>
				<stop  offset="0.2485" style="stop-color:#E8E8E9"/>
				<stop  offset="0.8" style="stop-color:#DADBDE"/>
				<stop  offset="0.9481" style="stop-color:#C0C1C2"/>
			</linearGradient>
			<path fill="url(#SVGID_4_)" stroke="#000000" stroke-miterlimit="3.8637" d="M76.6,79.358c-0.58-1.113-1.207-2.173-1.867-3.182
				c-2.631-4.012-6.041-7.672-10.256-10.019c-2.438-1.357-5.365-2.661-8.191-1.836c-0.936,0.273-1.842,0.796-2.58,1.486
				c-1.641,1.545-2.539,3.836-3.639,5.856c-0.963,1.77-1.939,3.536-2.914,5.297l-6.617,11.993l-9.986,5.173
				c-0.271,0.145-0.529,0.295-0.775,0.462c0,0-0.035,0.018-0.031,0.022c-3.506,2.353-4.775,6.97-2.805,10.738
				c0.025,0.045,0.051,0.082,0.074,0.129c0.023,0.041,0.039,0.086,0.062,0.13c1.973,3.771,6.484,5.36,10.416,3.822
				c0,0.004,0.033-0.013,0.033-0.013c0.277-0.109,0.551-0.233,0.82-0.375l9.941-5.259l13.619,1.4
				c2.004,0.207,4.01,0.409,6.014,0.628c2.283,0.25,4.676,0.816,6.881,0.348c0.986-0.211,1.906-0.636,2.691-1.273
				c2.289-1.852,2.891-5.001,3.164-7.775c0.48-4.805-0.582-9.697-2.373-14.147c-0.453-1.116-0.965-2.238-1.547-3.35
				c-0.021-0.043-0.047-0.085-0.068-0.128C76.643,79.444,76.623,79.403,76.6,79.358L76.6,79.358z"/>
			<path fill="#FFFFFF" d="M51.986,69.262L41.012,89.444l-9.986,5.174c-0.271,0.144-0.529,0.294-0.775,0.461
				c0,0-0.033,0.018-0.031,0.021c-2.57,1.725-3.932,4.667-3.703,7.598l0.6-1.098c0.047-2.663,1.373-4.557,3.129-5.655
				C30.242,95.94,31.5,95.2,31.5,95.2c0.248-0.168,0.506-0.317,0.775-0.463l9.17-4.775l10.104-18.229L51.986,69.262z"/>
			<path fill="#B3B3B3" d="M71.105,105.747l-22.834-2.519l-9.949,5.243c-0.271,0.139-0.543,0.265-0.822,0.372
				c0,0-0.033,0.018-0.035,0.013c-2.883,1.125-6.076,0.562-8.352-1.301l1.244,0.137c2.213,1.481,4.525,1.476,6.428,0.662
				c0.004,0.004,1.33-0.605,1.33-0.605c0.279-0.109,0.551-0.233,0.822-0.373l9.158-4.799l20.732,2.119L71.105,105.747z"/>
			<linearGradient id="SVGID_5_" gradientUnits="userSpaceOnUse" x1="63.4019" y1="73.043" x2="63.4019" y2="100.5391">
				<stop  offset="0" style="stop-color:#5F5D5C"/>
				<stop  offset="1" style="stop-color:#181500"/>
			</linearGradient>
			<path fill="url(#SVGID_5_)" d="M69.277,83.452c-3.818-7.307-9.652-11.793-13.035-10.023c-0.709,0.374-1.658,1.324-1.771,2.412
				c-0.402,3.879,1.318,8.363,4.084,13.226c2.779,4.89,5.682,8.55,8.846,11.237c0.686,0.581,1.959-0.051,2.672-0.424
				C73.451,98.112,73.098,90.757,69.277,83.452L69.277,83.452z"/>
			<path fill="#FFFFFF" d="M67.312,84.48c1.729,3.304,1.924,6.613,0.438,7.392c-1.486,0.777-4.092-1.27-5.818-4.574
				c-1.727-3.306-1.924-6.613-0.438-7.395C62.98,79.128,65.588,81.177,67.312,84.48L67.312,84.48z"/>
			<path opacity="0.49" fill="#FFFFFF" d="M51.713,73.161c0,0,0.369,2.079,0.74,3.266c0.373,1.188,0.594,2.376,0.594,2.376
				L42.73,89.862L51.713,73.161z"/>
			<path fill="none" stroke="#000000" stroke-miterlimit="3.8637" d="M56.146,65.21c3.801-2.021,14.355,3.815,20.121,14.666
				c5.766,10.849,4.559,22.605,0.756,24.629c-3.801,2.021-12.553-4.434-18.318-15.284C52.941,78.37,52.346,67.233,56.146,65.21
				L56.146,65.21z"/>
			<linearGradient id="SVGID_6_" gradientUnits="userSpaceOnUse" x1="61.749" y1="73.8701" x2="61.749" y2="83.1875">
				<stop  offset="0" style="stop-color:#FFFFFF"/>
				<stop  offset="1" style="stop-color:#000000"/>
			</linearGradient>
			<path fill="url(#SVGID_6_)" d="M56.453,75.291c3.076-1.61,8.139,1.849,11.967,7.896c-3.451-6.55-8.688-10.561-11.729-8.969
				c-0.641,0.337-1.5,1.196-1.602,2.179c-0.006,0.062-0.008,0.125-0.012,0.187C55.453,75.997,56.002,75.528,56.453,75.291z"/>
		</g>
		<g>
			
				<linearGradient id="SVGID_7_" gradientUnits="userSpaceOnUse" x1="-593.8623" y1="448.3965" x2="-601.142" y2="433.9535" gradientTransform="matrix(0.893 -0.4501 -0.4501 -0.893 812.9108 203.1473)">
				<stop  offset="0" style="stop-color:#5F5D5C"/>
				<stop  offset="1" style="stop-color:#181500"/>
			</linearGradient>
			<path fill="url(#SVGID_7_)" d="M78.365,70.214c-1.027-0.522-2.232,0.093-2.592,1.188c-0.375,1.127,0.297,2.281,1.312,2.898
				c3.133,1.901,4.908,5.462,4.535,9.109c-0.123,1.155,0.453,2.319,1.559,2.684c1.084,0.356,2.297-0.216,2.49-1.341
				C86.684,78.845,83.709,72.929,78.365,70.214z"/>
			
				<linearGradient id="SVGID_8_" gradientUnits="userSpaceOnUse" x1="-584.7915" y1="453.8057" x2="-597.6125" y2="428.3687" gradientTransform="matrix(0.893 -0.4501 -0.4501 -0.893 812.9108 203.1473)">
				<stop  offset="0" style="stop-color:#5F5D5C"/>
				<stop  offset="1" style="stop-color:#181500"/>
			</linearGradient>
			<path fill="url(#SVGID_8_)" d="M80.873,61.282c-1.143-0.5-2.432,0.159-2.818,1.343c-0.389,1.173,0.201,2.437,1.322,2.954
				c7.975,3.682,12.393,12.411,10.639,21.012c-0.25,1.231,0.381,2.501,1.572,2.894c1.188,0.392,2.482-0.257,2.76-1.479
				C96.838,77.043,91.168,65.799,80.873,61.282z"/>
			
				<linearGradient id="SVGID_9_" gradientUnits="userSpaceOnUse" x1="-576.3506" y1="458.624" x2="-594.1208" y2="423.3678" gradientTransform="matrix(0.893 -0.4501 -0.4501 -0.893 812.9108 203.1473)">
				<stop  offset="0" style="stop-color:#5F5D5C"/>
				<stop  offset="1" style="stop-color:#181500"/>
			</linearGradient>
			<path fill="url(#SVGID_9_)" d="M83.277,53.166c-1.164-0.474-2.457,0.185-2.85,1.378c-0.398,1.206,0.277,2.481,1.443,2.975
				c12.412,5.262,19.236,18.772,16.102,31.877c-0.297,1.251,0.301,2.581,1.523,2.984c1.189,0.391,2.49-0.258,2.801-1.478
				C106.25,75.367,98.119,59.233,83.277,53.166z"/>
		</g>
	</g>
</g>
</svg>
