<?xml version="1.0" encoding="utf-8"?>
<!-- Generator: Adobe Illustrator 13.0.0, SVG Export Plug-In . SVG Version: 6.00 Build 14948)  -->
<!DOCTYPE svg PUBLIC "-//W3C//DTD SVG 1.1//EN" "http://www.w3.org/Graphics/SVG/1.1/DTD/svg11.dtd">
<svg version="1.1" id="Layer_1" xmlns="http://www.w3.org/2000/svg" xmlns:xlink="http://www.w3.org/1999/xlink" x="0px" y="0px"
	 width="128px" height="128px" viewBox="0 0 128 128" enable-background="new 0 0 128 128" xml:space="preserve">
<g>
	<g>
		<g>
			<linearGradient id="SVGID_1_" gradientUnits="userSpaceOnUse" x1="80.2617" y1="54.7939" x2="80.2617" y2="20.0039">
				<stop  offset="0" style="stop-color:#ECEEF0"/>
				<stop  offset="0.2485" style="stop-color:#E8E8E9"/>
				<stop  offset="0.5636" style="stop-color:#EEEFF2"/>
				<stop  offset="0.9212" style="stop-color:#D4D5D6"/>
			</linearGradient>
			<path fill="url(#SVGID_1_)" stroke="#B3B3B3" stroke-width="2" d="M109.539,44.46c0,5.707-4.627,10.334-10.334,10.334H61.316
				c-5.707,0-10.332-4.627-10.332-10.334V30.337c0-5.707,4.625-10.333,10.332-10.333h37.889c5.707,0,10.334,4.626,10.334,10.333
				V44.46z"/>
			<path opacity="0.75" fill="#F2F2F2" d="M56.402,23.465c1.098-1.266,2.715-2.071,4.52-2.071H99.6c1.805,0,3.422,0.806,4.52,2.071
				h0.766c-1.201-1.616-3.119-2.671-5.285-2.671H60.922c-2.164,0-4.084,1.055-5.283,2.671H56.402z"/>
			<linearGradient id="SVGID_2_" gradientUnits="userSpaceOnUse" x1="63.9995" y1="28.458" x2="63.9995" y2="119">
				<stop  offset="0" style="stop-color:#9A9A9A"/>
				<stop  offset="1" style="stop-color:#DEDEDE"/>
			</linearGradient>
			<path fill="url(#SVGID_2_)" d="M21.66,28.458h84.68c10.42,0,18.867,8.453,18.867,18.882v52.779
				c0,10.426-8.447,18.881-18.867,18.881H21.66c-10.421,0-18.868-8.455-18.868-18.881V47.34
				C2.792,36.911,11.239,28.458,21.66,28.458L21.66,28.458z"/>
			<linearGradient id="SVGID_3_" gradientUnits="userSpaceOnUse" x1="63.9995" y1="67.2285" x2="63.9995" y2="33.8989">
				<stop  offset="0" style="stop-color:#999999"/>
				<stop  offset="1" style="stop-color:#CCCCCC"/>
			</linearGradient>
			<path fill="url(#SVGID_3_)" d="M104.533,33.898H23.465c-9.974,0-18.062,7.899-18.062,17.646v15.685
				c0-9.747,8.088-17.645,18.062-17.645h81.068c9.975,0,18.062,7.897,18.062,17.645V51.544
				C122.596,41.798,114.508,33.898,104.533,33.898z"/>
			<path fill="#FFFFFF" d="M104.52,32.916H23.48c-9.972,0-18.056,8.09-18.056,18.069v1.077c0-9.979,8.084-18.069,18.056-18.069
				h81.039c9.971,0,18.055,8.09,18.055,18.069v-1.077C122.574,41.006,114.49,32.916,104.52,32.916z"/>
			<path fill="#999999" d="M106.338,116.266h-84.68c-10.421,0-18.866-8.453-18.866-18.881v2.732c0,10.43,8.445,18.883,18.866,18.883
				h84.68c10.42,0,18.869-8.453,18.869-18.883v-2.732C125.207,107.812,116.758,116.266,106.338,116.266z"/>
		</g>
		<g>
			<path d="M39.853,62.999h47.677c5.641,0,10.213,4.578,10.213,10.22v11.223c0,5.643-4.572,10.219-10.213,10.219H39.853
				c-5.64,0-10.212-4.576-10.212-10.219V73.219C29.641,67.576,34.213,62.999,39.853,62.999L39.853,62.999z"/>
			<g>
				<path fill="#B3B3B3" d="M77.666,102.93H50.59c-5.353,0-9.687-4.334-9.687-9.682v1.209c0,5.348,4.334,9.682,9.687,9.682h27.076
					c5.351,0,9.689-4.334,9.689-9.682v-1.209C87.355,98.596,83.017,102.93,77.666,102.93z"/>
			</g>
			<linearGradient id="SVGID_4_" gradientUnits="userSpaceOnUse" x1="63.9653" y1="68.2461" x2="63.9653" y2="108.2539">
				<stop  offset="0" style="stop-color:#D5D7D8"/>
				<stop  offset="1" style="stop-color:#5C5F61"/>
			</linearGradient>
			<path fill="url(#SVGID_4_)" d="M33.844,68.246h60.243c7.127,0,12.906,5.783,12.906,12.914v14.18
				c0,7.133-5.779,12.914-12.906,12.914H33.844c-7.129,0-12.906-5.781-12.906-12.914V81.16
				C20.938,74.029,26.715,68.246,33.844,68.246L33.844,68.246z"/>
			<linearGradient id="SVGID_5_" gradientUnits="userSpaceOnUse" x1="63.9653" y1="90.4375" x2="63.9653" y2="106.7969">
				<stop  offset="0" style="stop-color:#5F5D5C"/>
				<stop  offset="1" style="stop-color:#181500"/>
			</linearGradient>
			<path fill="url(#SVGID_5_)" d="M45.781,90.438h36.368c4.305,0,7.792,3.492,7.792,7.799v8.561H37.989v-8.561
				C37.989,93.93,41.479,90.438,45.781,90.438L45.781,90.438z"/>
			<g>
				<linearGradient id="SVGID_6_" gradientUnits="userSpaceOnUse" x1="31.2783" y1="76.8691" x2="31.2783" y2="82.4844">
					<stop  offset="0" style="stop-color:#80E21B"/>
					<stop  offset="1" style="stop-color:#80B400"/>
				</linearGradient>
				<path fill="url(#SVGID_6_)" d="M28.473,79.676c0-1.549,1.255-2.807,2.806-2.807c1.549,0,2.806,1.258,2.806,2.807
					c0,1.553-1.257,2.809-2.806,2.809C29.728,82.484,28.473,81.229,28.473,79.676L28.473,79.676z"/>
			</g>
			<g>
				<linearGradient id="SVGID_7_" gradientUnits="userSpaceOnUse" x1="31.2783" y1="84.6035" x2="31.2783" y2="90.2207">
					<stop  offset="0" style="stop-color:#E20A16"/>
					<stop  offset="1" style="stop-color:#B51015"/>
				</linearGradient>
				<path fill="url(#SVGID_7_)" d="M28.473,87.412c0-1.551,1.255-2.809,2.806-2.809c1.549,0,2.806,1.258,2.806,2.809
					s-1.257,2.809-2.806,2.809C29.728,90.221,28.473,88.963,28.473,87.412L28.473,87.412z"/>
			</g>
			<path fill="#4D4D4D" d="M94.087,106.803H33.844c-7.129,0-12.906-5.779-12.906-12.914v1.797c0,7.133,5.777,12.914,12.906,12.914
				h60.243c7.127,0,12.906-5.781,12.906-12.914v-1.797C106.993,101.023,101.214,106.803,94.087,106.803z"/>
			<g>
				<path opacity="0.5" fill="#B3B3B3" d="M92.49,71.723H35.44c-6.75,0-12.22,5.475-12.22,12.229v8.4
					c0-6.754,5.47-12.23,12.22-12.23h57.05c6.748,0,12.223,5.477,12.223,12.23v-8.4C104.713,77.197,99.238,71.723,92.49,71.723z"/>
				<path fill="#FFFFFF" d="M92.49,70.672H35.44c-6.75,0-12.22,5.475-12.22,12.229v1.168c0-6.754,5.47-12.23,12.22-12.23h57.05
					c6.748,0,12.223,5.477,12.223,12.23V82.9C104.713,76.146,99.238,70.672,92.49,70.672z"/>
			</g>
		</g>
	</g>
	<g>
		<path stroke="#231F20" d="M39.853,62.999h47.677c5.641,0,10.213,4.578,10.213,10.22v11.223c0,5.643-4.572,10.219-10.213,10.219
			H39.853c-5.64,0-10.212-4.576-10.212-10.219V73.219C29.641,67.576,34.213,62.999,39.853,62.999L39.853,62.999z"/>
		<g>
			<path fill="#B3B3B3" d="M77.666,102.93H50.59c-5.353,0-9.687-4.334-9.687-9.682v1.209c0,5.348,4.334,9.682,9.687,9.682h27.076
				c5.351,0,9.689-4.334,9.689-9.682v-1.209C87.355,98.596,83.017,102.93,77.666,102.93z"/>
		</g>
		<linearGradient id="SVGID_8_" gradientUnits="userSpaceOnUse" x1="63.9653" y1="68.2461" x2="63.9653" y2="108.2539">
			<stop  offset="0" style="stop-color:#D5D7D8"/>
			<stop  offset="1" style="stop-color:#5C5F61"/>
		</linearGradient>
		<path fill="url(#SVGID_8_)" stroke="#4D4D4D" d="M33.844,68.246h60.243c7.127,0,12.906,5.783,12.906,12.914v14.18
			c0,7.133-5.779,12.914-12.906,12.914H33.844c-7.129,0-12.906-5.781-12.906-12.914V81.16
			C20.938,74.029,26.715,68.246,33.844,68.246L33.844,68.246z"/>
		<linearGradient id="SVGID_9_" gradientUnits="userSpaceOnUse" x1="63.9653" y1="90.4375" x2="63.9653" y2="106.7969">
			<stop  offset="0" style="stop-color:#5F5D5C"/>
			<stop  offset="1" style="stop-color:#181500"/>
		</linearGradient>
		<path fill="url(#SVGID_9_)" d="M45.781,90.438h36.368c4.305,0,7.792,3.492,7.792,7.799v8.561H37.989v-8.561
			C37.989,93.93,41.479,90.438,45.781,90.438L45.781,90.438z"/>
		<g>
			<linearGradient id="SVGID_10_" gradientUnits="userSpaceOnUse" x1="31.2783" y1="76.8691" x2="31.2783" y2="82.4844">
				<stop  offset="0" style="stop-color:#80E21B"/>
				<stop  offset="1" style="stop-color:#80B400"/>
			</linearGradient>
			<path fill="url(#SVGID_10_)" d="M28.473,79.676c0-1.549,1.255-2.807,2.806-2.807c1.549,0,2.806,1.258,2.806,2.807
				c0,1.553-1.257,2.809-2.806,2.809C29.728,82.484,28.473,81.229,28.473,79.676L28.473,79.676z"/>
		</g>
		<g>
			<linearGradient id="SVGID_11_" gradientUnits="userSpaceOnUse" x1="31.2783" y1="84.6035" x2="31.2783" y2="90.2207">
				<stop  offset="0" style="stop-color:#E20A16"/>
				<stop  offset="1" style="stop-color:#B51015"/>
			</linearGradient>
			<path fill="url(#SVGID_11_)" d="M28.473,87.412c0-1.551,1.255-2.809,2.806-2.809c1.549,0,2.806,1.258,2.806,2.809
				s-1.257,2.809-2.806,2.809C29.728,90.221,28.473,88.963,28.473,87.412L28.473,87.412z"/>
		</g>
		<path fill="#4D4D4D" d="M93.927,106.557H34.402c-7.043,0-12.752-5.71-12.752-12.76v1.775c0,7.048,5.708,12.76,12.752,12.76h59.524
			c7.041,0,12.752-5.712,12.752-12.76v-1.775C106.679,100.847,100.968,106.557,93.927,106.557z"/>
		<g>
			<path opacity="0.5" fill="#B3B3B3" d="M92.49,71.723H35.44c-6.75,0-12.22,5.475-12.22,12.229v8.4c0-6.754,5.47-12.23,12.22-12.23
				h57.05c6.748,0,12.223,5.477,12.223,12.23v-8.4C104.713,77.197,99.238,71.723,92.49,71.723z"/>
			<path fill="#FFFFFF" d="M92.49,70.672H35.44c-6.75,0-12.22,5.475-12.22,12.229v1.168c0-6.754,5.47-12.23,12.22-12.23h57.05
				c6.748,0,12.223,5.477,12.223,12.23V82.9C104.713,76.146,99.238,70.672,92.49,70.672z"/>
		</g>
	</g>
</g>
</svg>
