<?xml version="1.0" encoding="utf-8"?>
<!-- Generator: Adobe Illustrator 13.0.0, SVG Export Plug-In . SVG Version: 6.00 Build 14948)  -->
<!DOCTYPE svg PUBLIC "-//W3C//DTD SVG 1.1//EN" "http://www.w3.org/Graphics/SVG/1.1/DTD/svg11.dtd">
<svg version="1.1" id="Layer_1" xmlns="http://www.w3.org/2000/svg" xmlns:xlink="http://www.w3.org/1999/xlink" x="0px" y="0px"
	 width="128px" height="128px" viewBox="0 0 128 128" enable-background="new 0 0 128 128" xml:space="preserve">
<g>
	<g>
		<g>
			<g>
				<linearGradient id="SVGID_1_" gradientUnits="userSpaceOnUse" x1="80.2617" y1="54.7949" x2="80.2617" y2="20.0049">
					<stop  offset="0" style="stop-color:#ECEEF0"/>
					<stop  offset="0.2485" style="stop-color:#E8E8E9"/>
					<stop  offset="0.5636" style="stop-color:#EEEFF2"/>
					<stop  offset="0.9212" style="stop-color:#D4D5D6"/>
				</linearGradient>
				<path fill="url(#SVGID_1_)" stroke="#B3B3B3" stroke-width="2" d="M109.539,44.461c0,5.707-4.627,10.334-10.334,10.334H61.316
					c-5.707,0-10.332-4.627-10.332-10.334V30.338c0-5.707,4.625-10.333,10.332-10.333h37.889c5.707,0,10.334,4.626,10.334,10.333
					V44.461z"/>
				<path opacity="0.75" fill="#F2F2F2" d="M56.402,23.466c1.098-1.266,2.715-2.071,4.52-2.071H99.6c1.805,0,3.422,0.806,4.52,2.071
					h0.766c-1.201-1.616-3.119-2.671-5.285-2.671H60.922c-2.164,0-4.084,1.055-5.283,2.671H56.402z"/>
				<linearGradient id="SVGID_2_" gradientUnits="userSpaceOnUse" x1="63.9995" y1="28.459" x2="63.9995" y2="119">
					<stop  offset="0" style="stop-color:#9A9A9A"/>
					<stop  offset="1" style="stop-color:#DEDEDE"/>
				</linearGradient>
				<path fill="url(#SVGID_2_)" d="M21.66,28.459h84.68c10.42,0,18.867,8.453,18.867,18.882v52.778
					c0,10.428-8.447,18.881-18.867,18.881H21.66c-10.421,0-18.868-8.453-18.868-18.881V47.341
					C2.792,36.912,11.239,28.459,21.66,28.459L21.66,28.459z"/>
				<linearGradient id="SVGID_3_" gradientUnits="userSpaceOnUse" x1="63.9995" y1="67.2295" x2="63.9995" y2="33.8999">
					<stop  offset="0" style="stop-color:#999999"/>
					<stop  offset="1" style="stop-color:#CCCCCC"/>
				</linearGradient>
				<path fill="url(#SVGID_3_)" d="M104.533,33.899H23.465c-9.974,0-18.062,7.899-18.062,17.646v15.685
					c0-9.747,8.088-17.645,18.062-17.645h81.068c9.975,0,18.062,7.897,18.062,17.645V51.545
					C122.596,41.799,114.508,33.899,104.533,33.899z"/>
				<path fill="#FFFFFF" d="M104.52,32.917H23.48c-9.972,0-18.056,8.09-18.056,18.069v1.077c0-9.979,8.084-18.069,18.056-18.069
					h81.039c9.971,0,18.055,8.09,18.055,18.069v-1.077C122.574,41.007,114.49,32.917,104.52,32.917z"/>
				<path fill="#999999" d="M106.338,116.268h-84.68c-10.421,0-18.866-8.453-18.866-18.883v2.734
					c0,10.428,8.445,18.881,18.866,18.881h84.68c10.42,0,18.869-8.453,18.869-18.881v-2.734
					C125.207,107.814,116.758,116.268,106.338,116.268z"/>
			</g>
			<g>
				<linearGradient id="SVGID_4_" gradientUnits="userSpaceOnUse" x1="64.0005" y1="111.2803" x2="64.0005" y2="65.5253">
					<stop  offset="0" style="stop-color:#00B2DE"/>
					<stop  offset="1" style="stop-color:#99DBF6"/>
				</linearGradient>
				<path fill="url(#SVGID_4_)" d="M94.459,55.864H33.545c-6.256,0-11.324,5.07-11.324,11.322v31.939
					c0,6.254,5.068,11.322,11.324,11.322h60.914c6.252,0,11.32-5.068,11.32-11.322V67.186
					C105.779,60.934,100.711,55.864,94.459,55.864z"/>
				<path fill="none" stroke="#FFFFFF" stroke-width="2" stroke-miterlimit="3.8637" d="M23.584,61.799l25.369,25.377
					c0,0,8.08,9.566,15.348,9.566s15.752-9.564,15.752-9.564l24.396-25.32"/>
				
					<line fill="none" stroke="#FFFFFF" stroke-width="2" stroke-miterlimit="3.8637" x1="25.553" y1="107.145" x2="47.867" y2="86.09"/>
				
					<line fill="none" stroke="#FFFFFF" stroke-width="2" stroke-miterlimit="3.8637" x1="81.199" y1="85.988" x2="102.447" y2="107.15"/>
				<path fill="#FFFFFF" d="M27.074,61.029c1.689-1.948,4.178-3.187,6.953-3.187h59.502c2.773,0,5.264,1.239,6.953,3.187h1.176
					c-1.848-2.486-4.801-4.108-8.129-4.108H34.027c-3.328,0-6.281,1.622-8.129,4.108H27.074z"/>
				<path fill="#059CC2" d="M94.459,108.57H33.545c-6.256,0-11.324-5.068-11.324-11.322v1.877c0,6.254,5.068,11.322,11.324,11.322
					h60.914c6.252,0,11.32-5.068,11.32-11.322v-1.877C105.779,103.502,100.711,108.57,94.459,108.57z"/>
			</g>
		</g>
		<g>
			<g>
				
					<linearGradient id="SVGID_5_" gradientUnits="userSpaceOnUse" x1="-11697.0908" y1="1601.6162" x2="-11697.0908" y2="1662.5215" gradientTransform="matrix(1 0 0 1 11783.0293 -1559.6475)">
					<stop  offset="0" style="stop-color:#80E21B"/>
					<stop  offset="1" style="stop-color:#80B400"/>
				</linearGradient>
				<path fill="url(#SVGID_5_)" d="M111.082,54.742L99.876,43.468c-1.033-0.981-2.222-1.499-3.668-1.499
					c-1.396-0.002-2.638,0.514-3.67,1.498c-0.981,1.029-1.501,2.272-1.501,3.668c-0.001,0.437-0.002,2.531-0.006,5.275
					c-17.553,0.004-31.783,14.238-31.783,31.795c0,6.832,2.158,13.154,5.826,18.34c0.512,0.721,1.598,0.158,1.479-0.719
					c-1.235-9.191-2.161-34.504,24.47-37.575c-0.004,2.792-0.004,4.929-0.006,5.37c0,1.395,0.52,2.637,1.498,3.67
					c1.03,0.982,2.271,1.5,3.668,1.502c1.446,0.002,2.635-0.518,3.67-1.5l11.223-11.261c1.033-0.98,1.552-2.223,1.553-3.668
					C112.629,56.968,112.109,55.727,111.082,54.742z"/>
			</g>
			<g>
				<linearGradient id="SVGID_6_" gradientUnits="userSpaceOnUse" x1="85.9385" y1="41.9692" x2="85.9385" y2="102.8745">
					<stop  offset="0" style="stop-color:#80E21B"/>
					<stop  offset="1" style="stop-color:#80B400"/>
				</linearGradient>
				<path fill="url(#SVGID_6_)" stroke="#70990C" stroke-miterlimit="3.8637" d="M111.082,54.742L99.876,43.468
					c-1.033-0.981-2.222-1.499-3.668-1.499c-1.396-0.002-2.638,0.514-3.67,1.498c-0.981,1.029-1.501,2.272-1.501,3.668
					c-0.001,0.437-0.002,2.531-0.006,5.275c-17.553,0.004-31.783,14.238-31.783,31.795c0,6.832,2.158,13.154,5.826,18.34
					c0.512,0.721,1.598,0.158,1.479-0.719c-1.235-9.191-2.161-34.504,24.47-37.575c-0.004,2.792-0.004,4.929-0.006,5.37
					c0,1.395,0.52,2.637,1.498,3.67c1.03,0.982,2.271,1.5,3.668,1.502c1.446,0.002,2.635-0.518,3.67-1.5l11.223-11.261
					c1.033-0.98,1.552-2.223,1.553-3.668C112.629,56.968,112.109,55.727,111.082,54.742z"/>
			</g>
		</g>
	</g>
	<g>
		<g>
			<path opacity="0.5" fill="#FFFFFF" d="M91.137,54.696l-0.031,1.522c-15.89-0.474-29.156,12.022-29.634,27.911
				c-0.17,5.681,1.331,11.011,4.035,15.56c-0.014-0.018-0.033-0.028-0.048-0.05c-3.178-4.794-4.954-10.575-4.767-16.765
				C61.167,66.985,75.246,54.224,91.137,54.696z"/>
		</g>
		<path opacity="0.5" fill="#FFFFFF" d="M109.26,58.254c0.264,0.271,0.72,0.252,1.019-0.039l0,0
			c0.298-0.292,0.326-0.748,0.062-1.018L97.925,44.498c-0.264-0.269-0.72-0.251-1.019,0.041l0,0
			c-0.298,0.291-0.326,0.747-0.063,1.016L109.26,58.254z"/>
	</g>
</g>
</svg>
