<?xml version="1.0" encoding="utf-8"?>
<!-- Generator: Adobe Illustrator 13.0.0, SVG Export Plug-In . SVG Version: 6.00 Build 14948)  -->
<!DOCTYPE svg PUBLIC "-//W3C//DTD SVG 1.1//EN" "http://www.w3.org/Graphics/SVG/1.1/DTD/svg11.dtd">
<svg version="1.1" id="Layer_1" xmlns="http://www.w3.org/2000/svg" xmlns:xlink="http://www.w3.org/1999/xlink" x="0px" y="0px"
	 width="128px" height="128px" viewBox="0 0 128 128" enable-background="new 0 0 128 128" xml:space="preserve">
<g>
	<g>
		<path fill="#99DBF6" d="M34.354,37.417l0.026-0.004l0.076-0.088l-0.032,0.012C34.407,37.363,34.38,37.392,34.354,37.417
			L34.354,37.417z"/>
		<path fill="#99DBF6" d="M34.384,37.307c0.041-0.043,0.055-0.059,0.064-0.074l-0.029,0.002l-0.035,0.048l-0.006-0.009l0.047-0.055
			l-0.033,0.012c0,0-0.101,0.104-0.131,0.145h0.012l0.059-0.057h0.015c-0.009,0.014-0.061,0.073-0.058,0.086
			C34.32,37.372,34.353,37.337,34.384,37.307L34.384,37.307z"/>
		<path fill="#99DBF6" d="M33.594,37.596c0,0-0.03-0.006-0.237,0.188l-0.022,0.007c-0.023,0.012-0.175,0.188-0.175,0.213
			c0,0,0.085-0.057,0.191-0.165c0.055,0,0.14-0.052,0.164-0.067c0.029-0.015,0.061-0.039,0.084-0.064
			c0.041-0.037,0.163-0.178,0.148-0.199h-0.002C33.745,37.508,33.624,37.573,33.594,37.596L33.594,37.596z"/>
		<path fill="#99DBF6" d="M32.839,38.271c0,0,0.041-0.033,0.067-0.063c0.03-0.034,0.034-0.043,0.034-0.043l0,0
			C32.94,38.165,32.839,38.25,32.839,38.271L32.839,38.271z"/>
		<polygon fill="#99DBF6" points="32.903,38.136 32.793,38.25 32.828,38.229 32.915,38.136 		"/>
		<path fill="#99DBF6" d="M32.694,38.283c-0.003-0.029-0.057,0.028-0.084,0.053l-0.096,0.103c-0.009,0.019-0.021,0.036-0.035,0.048
			c-0.146,0.157-0.143,0.162-0.143,0.169c0,0,0.012,0,0.052-0.034l0.06-0.061L32.52,38.5l0.05-0.049h0.014l0.123-0.14h-0.009
			c-0.014,0.018-0.035,0.035-0.047,0.049c0.076-0.095,0.076-0.104,0.076-0.104c-0.017,0-0.021,0.018-0.021,0.018L32.694,38.283z"/>
		<path fill="#99DBF6" d="M32.302,38.655c-0.02,0.011-0.047,0.023-0.064,0.036l-0.102,0.128c0.057-0.038,0.057-0.038,0.088-0.067
			c0.037-0.028,0.113-0.131,0.113-0.131S32.324,38.634,32.302,38.655L32.302,38.655z"/>
		<path fill="#99DBF6" d="M32.13,38.801l0.012-0.012c0,0,0.032-0.03,0.106-0.129c0.027-0.032,0.056-0.064,0.085-0.097h-0.018
			c-0.023,0.013-0.119,0.118-0.177,0.178c-0.115,0.097-0.115,0.097-0.231,0.23c0.014-0.009,0.03-0.019,0.037-0.031
			c0.023-0.025,0.1-0.092,0.203-0.176L32.13,38.801L32.13,38.801z"/>
		<path fill="#99DBF6" d="M31.67,39.164c0,0,0.009,0,0.058-0.062c0.019-0.021,0.033-0.038,0.052-0.058
			c-0.03,0.017-0.109,0.106-0.109,0.106V39.164z"/>
		<path fill="#99DBF6" d="M31.165,39.607c-0.04,0.044-0.076,0.09-0.116,0.131c-0.003,0.007-0.003,0.007-0.003,0.007
			s0.02-0.016,0.055-0.058c0.073-0.082,0.076-0.086,0.076-0.086l0.003-0.009L31.165,39.607L31.165,39.607z"/>
		<path fill="#A4D9E6" d="M22.429,64.608l-0.02,0.015c-0.009,0.021-0.058,0.166-0.061,0.228c0,0.034,0.014,0.059,0.049,0.046
			c0.006,0.044,0.009,0.064,0.009,0.064c0.017-0.003,0.03-0.021,0.041-0.149l0.003-0.003c0-0.023,0.017-0.039,0.023-0.057
			C22.487,64.689,22.452,64.608,22.429,64.608L22.429,64.608z"/>
		<path fill="#A4D9E6" d="M22.856,65.238c-0.009-0.002-0.028-0.011-0.012-0.129c-0.02-0.01-0.029-0.013-0.029-0.013
			c-0.022,0.003-0.05,0.013-0.057,0.11c0,0.046,0,0.073,0,0.073c0.01,0.031,0.021,0.058,0.025,0.094
			c0,0.025-0.007,0.055-0.004,0.083c0,0,0.006,0.022,0.016,0.03c0.014,0.019,0.066,0.04,0.09-0.097
			C22.902,65.263,22.856,65.238,22.856,65.238L22.856,65.238z"/>
		<path fill="#A4D9E6" d="M23.17,65.451l-0.015-0.006c-0.018,0-0.031,0.006-0.031,0.006c-0.025,0-0.033,0-0.05,0
			s-0.041,0.006-0.047,0.042c-0.007,0.031,0.003,0.111,0.012,0.135c0.027,0.05,0.062-0.034,0.067-0.049
			c0.024-0.003,0.052-0.011,0.073-0.017l0.003-0.021C23.194,65.467,23.18,65.454,23.17,65.451L23.17,65.451z"/>
		<path fill="#A4D9E6" d="M23.302,66.035c0,0,0.078,0.006,0.094-0.124c0.012-0.11-0.038-0.14-0.055-0.147
			c-0.012-0.08-0.027-0.102-0.061-0.102c-0.013,0.002-0.043,0.012-0.076,0.054c-0.01,0.019,0,0.033,0,0.033
			c0.003,0.134,0.033,0.146,0.066,0.116C23.256,66.026,23.28,66.052,23.302,66.035L23.302,66.035z"/>
		<path fill="#A4D9E6" d="M23.679,66.791c-0.01-0.034-0.006-0.077-0.012-0.113c-0.007-0.029-0.019-0.064-0.031-0.09
			c-0.02-0.057-0.061-0.153-0.15-0.184c0.014-0.049,0.014-0.078,0-0.104c-0.021,0.021-0.066,0.066-0.047,0.35
			c-0.067,0.058-0.087,0.17-0.094,0.238c-0.006,0.058,0.018,0.14,0.039,0.176l0.01,0.016c0.007,0.062-0.007,0.141-0.004,0.198
			c0.008,0.255,0.071,0.273,0.071,0.273l0.006-0.006c0,0,0.007-0.028,0.01-0.037c0.003-0.04,0.009-0.115,0.061-0.207
			c0.041-0.067,0.128-0.095,0.163-0.164l0.041-0.134c0.017-0.075-0.02-0.158-0.061-0.209L23.679,66.791L23.679,66.791z"/>
		<path fill="#A4D9E6" d="M28.388,96.449l0.184,0.256c-0.004-0.012-0.041-0.07-0.076-0.117c-0.059-0.087-0.098-0.13-0.098-0.13
			L28.388,96.449z"/>
		<path fill="#A4D9E6" d="M28.612,96.722v0.007c0.096,0.139,0.134,0.188,0.147,0.191c0,0,0-0.006-0.078-0.118
			C28.654,96.764,28.629,96.725,28.612,96.722L28.612,96.722z"/>
		<path fill="#99DBF6" d="M35.481,98.959h-0.006l0.009,0.075c0,0,0.011,0.02,0.033,0.045c0.028,0.028,0.122,0.11,0.173,0.124
			c0,0,0.069,0.014,0.031-0.047C35.688,99.104,35.521,98.959,35.481,98.959L35.481,98.959z"/>
		
			<linearGradient id="SVGID_1_" gradientUnits="userSpaceOnUse" x1="-144.5991" y1="-681.4307" x2="-220.9936" y2="-627.939" gradientTransform="matrix(1 0 0 -1 246.7271 -588.7676)">
			<stop  offset="0" style="stop-color:#DEDEDE"/>
			<stop  offset="1" style="stop-color:#FEFEFE"/>
		</linearGradient>
		<path fill="url(#SVGID_1_)" stroke="#094763" stroke-miterlimit="3.8637" d="M110.435,62.661
			c1.797,25.702-17.568,47.996-43.253,49.793C41.5,114.25,19.225,94.869,17.429,69.169s17.565-47.994,43.254-49.787
			C86.364,17.582,108.636,36.963,110.435,62.661L110.435,62.661z"/>
		<g>
			
				<linearGradient id="SVGID_2_" gradientUnits="userSpaceOnUse" x1="-240.9678" y1="-654.9048" x2="-240.9678" y2="-648.7295" gradientTransform="matrix(1 0 0 -1 246.7271 -588.7676)">
				<stop  offset="0" style="stop-color:#32AECE"/>
				<stop  offset="1" style="stop-color:#094E86"/>
			</linearGradient>
			<polygon fill="url(#SVGID_2_)" points="8.536,66.138 2.673,65.83 2.978,59.962 8.847,60.271 			"/>
			
				<linearGradient id="SVGID_3_" gradientUnits="userSpaceOnUse" x1="-237.3584" y1="-638.1963" x2="-237.3584" y2="-630.665" gradientTransform="matrix(1 0 0 -1 246.7271 -588.7676)">
				<stop  offset="0" style="stop-color:#32AECE"/>
				<stop  offset="1" style="stop-color:#094E86"/>
			</linearGradient>
			<polygon fill="url(#SVGID_3_)" points="11.121,49.429 5.604,47.423 7.61,41.897 13.134,43.909 			"/>
			
				<linearGradient id="SVGID_4_" gradientUnits="userSpaceOnUse" x1="-228.6504" y1="-622.9512" x2="-228.6504" y2="-614.7031" gradientTransform="matrix(1 0 0 -1 246.7271 -588.7676)">
				<stop  offset="0" style="stop-color:#32AECE"/>
				<stop  offset="1" style="stop-color:#094E86"/>
			</linearGradient>
			<polygon fill="url(#SVGID_4_)" points="18.585,34.184 13.955,30.566 17.575,25.936 22.199,29.553 			"/>
			
				<linearGradient id="SVGID_5_" gradientUnits="userSpaceOnUse" x1="-215.6709" y1="-610.9414" x2="-215.6709" y2="-602.7549" gradientTransform="matrix(1 0 0 -1 246.7271 -588.7676)">
				<stop  offset="0" style="stop-color:#32AECE"/>
				<stop  offset="1" style="stop-color:#094E86"/>
			</linearGradient>
			<polygon fill="url(#SVGID_5_)" points="30.337,22.174 26.967,17.357 31.779,13.987 35.146,18.804 			"/>
			
				<linearGradient id="SVGID_6_" gradientUnits="userSpaceOnUse" x1="-199.6006" y1="-602.7959" x2="-199.6006" y2="-595.4639" gradientTransform="matrix(1 0 0 -1 246.7271 -588.7676)">
				<stop  offset="0" style="stop-color:#32AECE"/>
				<stop  offset="1" style="stop-color:#094E86"/>
			</linearGradient>
			<polygon fill="url(#SVGID_6_)" points="45.178,14.028 43.46,8.407 49.08,6.696 50.794,12.312 			"/>
			
				<linearGradient id="SVGID_7_" gradientUnits="userSpaceOnUse" x1="-182.106" y1="-599.5586" x2="-182.106" y2="-593.6797" gradientTransform="matrix(1 0 0 -1 246.7271 -588.7676)">
				<stop  offset="0" style="stop-color:#32AECE"/>
				<stop  offset="1" style="stop-color:#094E86"/>
			</linearGradient>
			<polygon fill="url(#SVGID_7_)" points="61.687,10.791 61.684,4.912 67.56,4.912 67.56,10.791 			"/>
			
				<linearGradient id="SVGID_8_" gradientUnits="userSpaceOnUse" x1="-164.4624" y1="-603.3301" x2="-164.4624" y2="-595.9238" gradientTransform="matrix(1 0 0 -1 246.7271 -588.7676)">
				<stop  offset="0" style="stop-color:#32AECE"/>
				<stop  offset="1" style="stop-color:#094E86"/>
			</linearGradient>
			<polygon fill="url(#SVGID_8_)" points="78.564,12.745 80.379,7.156 85.965,8.971 84.15,14.562 			"/>
			
				<linearGradient id="SVGID_9_" gradientUnits="userSpaceOnUse" x1="-148.6079" y1="-611.9355" x2="-148.6079" y2="-603.7295" gradientTransform="matrix(1 0 0 -1 246.7271 -588.7676)">
				<stop  offset="0" style="stop-color:#32AECE"/>
				<stop  offset="1" style="stop-color:#094E86"/>
			</linearGradient>
			<polygon fill="url(#SVGID_9_)" points="94.017,19.711 97.47,14.962 102.222,18.414 98.767,23.168 			"/>
			
				<linearGradient id="SVGID_10_" gradientUnits="userSpaceOnUse" x1="-135.9556" y1="-624.5273" x2="-135.9556" y2="-616.3203" gradientTransform="matrix(1 0 0 -1 246.7271 -588.7676)">
				<stop  offset="0" style="stop-color:#32AECE"/>
				<stop  offset="1" style="stop-color:#094E86"/>
			</linearGradient>
			<polygon fill="url(#SVGID_10_)" points="106.669,31.008 111.428,27.553 114.874,32.306 110.124,35.76 			"/>
			
				<linearGradient id="SVGID_11_" gradientUnits="userSpaceOnUse" x1="-127.6978" y1="-639.959" x2="-127.6978" y2="-632.5586" gradientTransform="matrix(1 0 0 -1 246.7271 -588.7676)">
				<stop  offset="0" style="stop-color:#32AECE"/>
				<stop  offset="1" style="stop-color:#094E86"/>
			</linearGradient>
			<polygon fill="url(#SVGID_11_)" points="115.327,45.602 120.913,43.791 122.731,49.38 117.145,51.191 			"/>
			
				<linearGradient id="SVGID_12_" gradientUnits="userSpaceOnUse" x1="-124.6567" y1="-656.6616" x2="-124.6567" y2="-650.6875" gradientTransform="matrix(1 0 0 -1 246.7271 -588.7676)">
				<stop  offset="0" style="stop-color:#32AECE"/>
				<stop  offset="1" style="stop-color:#094E86"/>
			</linearGradient>
			<polygon fill="url(#SVGID_12_)" points="119.081,62.021 124.956,61.92 125.06,67.795 119.188,67.895 			"/>
			
				<linearGradient id="SVGID_13_" gradientUnits="userSpaceOnUse" x1="-128.0601" y1="-677.0171" x2="-128.0601" y2="-669.4849" gradientTransform="matrix(1 0 0 -1 246.7271 -588.7676)">
				<stop  offset="0" style="stop-color:#32AECE"/>
				<stop  offset="1" style="stop-color:#094E86"/>
			</linearGradient>
			<polygon fill="url(#SVGID_13_)" points="116.91,80.718 122.43,82.726 120.42,88.25 114.904,86.239 			"/>
			
				<linearGradient id="SVGID_14_" gradientUnits="userSpaceOnUse" x1="-136.7729" y1="-692.98" x2="-136.7729" y2="-684.7319" gradientTransform="matrix(1 0 0 -1 246.7271 -588.7676)">
				<stop  offset="0" style="stop-color:#32AECE"/>
				<stop  offset="1" style="stop-color:#094E86"/>
			</linearGradient>
			<polygon fill="url(#SVGID_14_)" points="109.448,95.965 114.076,99.585 110.456,104.213 105.832,100.595 			"/>
			
				<linearGradient id="SVGID_15_" gradientUnits="userSpaceOnUse" x1="-149.7495" y1="-704.9243" x2="-149.7495" y2="-696.7417" gradientTransform="matrix(1 0 0 -1 246.7271 -588.7676)">
				<stop  offset="0" style="stop-color:#32AECE"/>
				<stop  offset="1" style="stop-color:#094E86"/>
			</linearGradient>
			<polygon fill="url(#SVGID_15_)" points="97.697,107.975 101.067,112.79 96.258,116.157 92.888,111.348 			"/>
			
				<linearGradient id="SVGID_16_" gradientUnits="userSpaceOnUse" x1="-165.8232" y1="-712.2192" x2="-165.8232" y2="-704.8843" gradientTransform="matrix(1 0 0 -1 246.7271 -588.7676)">
				<stop  offset="0" style="stop-color:#32AECE"/>
				<stop  offset="1" style="stop-color:#094E86"/>
			</linearGradient>
			<polygon fill="url(#SVGID_16_)" points="82.856,116.117 84.57,121.735 78.96,123.452 77.237,117.832 			"/>
			
				<linearGradient id="SVGID_17_" gradientUnits="userSpaceOnUse" x1="-183.3179" y1="-714.0034" x2="-183.3179" y2="-708.1284" gradientTransform="matrix(1 0 0 -1 246.7271 -588.7676)">
				<stop  offset="0" style="stop-color:#32AECE"/>
				<stop  offset="1" style="stop-color:#094E86"/>
			</linearGradient>
			<polygon fill="url(#SVGID_17_)" points="66.348,119.361 66.348,125.236 60.472,125.236 60.472,119.361 			"/>
			
				<linearGradient id="SVGID_18_" gradientUnits="userSpaceOnUse" x1="-200.9595" y1="-711.7573" x2="-200.9595" y2="-704.356" gradientTransform="matrix(1 0 0 -1 246.7271 -588.7676)">
				<stop  offset="0" style="stop-color:#32AECE"/>
				<stop  offset="1" style="stop-color:#094E86"/>
			</linearGradient>
			<polygon fill="url(#SVGID_18_)" points="49.467,117.402 47.655,122.99 42.069,121.177 43.884,115.589 			"/>
			
				<linearGradient id="SVGID_19_" gradientUnits="userSpaceOnUse" x1="-216.813" y1="-703.9575" x2="-216.813" y2="-695.7495" gradientTransform="matrix(1 0 0 -1 246.7271 -588.7676)">
				<stop  offset="0" style="stop-color:#32AECE"/>
				<stop  offset="1" style="stop-color:#094E86"/>
			</linearGradient>
			<polygon fill="url(#SVGID_19_)" points="34.017,110.436 30.565,115.19 25.812,111.734 29.265,106.982 			"/>
			
				<linearGradient id="SVGID_20_" gradientUnits="userSpaceOnUse" x1="-229.4678" y1="-691.3628" x2="-229.4678" y2="-683.1558" gradientTransform="matrix(1 0 0 -1 246.7271 -588.7676)">
				<stop  offset="0" style="stop-color:#32AECE"/>
				<stop  offset="1" style="stop-color:#094E86"/>
			</linearGradient>
			<polygon fill="url(#SVGID_20_)" points="21.358,99.143 16.61,102.596 13.161,97.842 17.907,94.389 			"/>
			
				<linearGradient id="SVGID_21_" gradientUnits="userSpaceOnUse" x1="-237.7236" y1="-675.1274" x2="-237.7236" y2="-667.7212" gradientTransform="matrix(1 0 0 -1 246.7271 -588.7676)">
				<stop  offset="0" style="stop-color:#32AECE"/>
				<stop  offset="1" style="stop-color:#094E86"/>
			</linearGradient>
			<polygon fill="url(#SVGID_21_)" points="12.704,84.545 7.118,86.36 5.304,80.77 10.887,78.954 			"/>
		</g>
		<g>
			<g>
				
					<linearGradient id="SVGID_22_" gradientUnits="userSpaceOnUse" x1="-174.7144" y1="-699.8906" x2="-174.7144" y2="-608.4995" gradientTransform="matrix(1 0 0 -1 246.7271 -588.7676)">
					<stop  offset="0" style="stop-color:#32AECE"/>
					<stop  offset="1" style="stop-color:#094E86"/>
				</linearGradient>
				<path id="SVGID_33_" fill="url(#SVGID_22_)" d="M76.762,22.335c-0.39-0.395-0.87-0.302-1.431-0.355
					c-1.418-0.144-2.968-0.747-4.359-0.957c-0.046,0.013-0.115,0.003-0.119,0.058c0.667,0.427,1.398,0.43,2.326,0.541
					C74.396,21.763,75.548,22.519,76.762,22.335z M94.312,39.17c-0.049,0.013-0.073,0.046-0.062,0.117
					c0.29,0.391,0.609,0.854,0.957,1.253c0.312,0.364,0.688,1.022,1.193,0.955C96.069,40.394,95.408,39.301,94.312,39.17z
					 M88.702,38.034c-0.311-0.565-0.473-1.275-0.719-1.912c-0.408,0.086-0.694,0.297-1.008,0.478
					c-0.082,0.577-0.197,1.121-0.479,1.495C87.024,38.598,88.318,38.888,88.702,38.034z M67.571,34.691
					c-0.736-0.094-1.242-0.054-1.854-0.061c-0.119,0.112-0.131,0.346-0.296,0.418c-1.525-0.297-1.937,0.785-2.926,1.195
					c0.083,0.815,0.822,0.968,1.495,1.193c0.195-0.224,0.551-0.28,0.597-0.65c0.024-0.208-0.302-0.374-0.116-0.539
					c0.211,0.407,0.473-0.146,0.773-0.181c0.064,0.485-0.453,0.847-0.42,1.492c-0.472-0.01-0.548,0.366-0.651,0.715
					c0.137,0.276,0.505,0.326,0.831,0.421c-0.273,0.023-0.453,0.141-0.719,0.177c-0.63-0.228-2.155-1.35-2.444-0.418
					c0.013,0.086,0.296-0.055,0.476,0c0.255,0.438,0.486,0.906,0.718,1.373c0.552-0.272,0.962,0.028,1.312,0.119
					c1.096,0.283,1.589-0.425,2.447-0.119c0.062-0.247,0.101-0.551-0.061-0.715c-0.597,0.201-0.676-0.431-1.017-0.479
					c0.246-0.179,0.9,0.244,1.257-0.117c0.152-0.256,0.25-0.653,0.122-1.018c0.229-0.383,0.63-0.597,1.193-0.653
					c0.621-0.601,0.478-1.655,0.782-2.507C68.546,34.646,67.934,34.089,67.571,34.691z M61.781,40.897
					c0.204,0.034,0.183,0.294,0.298,0.418c0.566-0.128,0.716-0.677,1.072-1.011c-0.204-0.113-0.168-0.469-0.42-0.537
					c-0.189,0.327-0.808,0.22-1.012,0.537C61.806,40.524,61.727,40.77,61.781,40.897z M61.781,20.902
					c0.006,0.54,1.516,0.524,1.79,0.06C63.057,20.885,62.313,20.752,61.781,20.902z M70.135,35.469
					c-0.125,0.528-0.581,0.724-0.776,1.194c-0.292-0.104-0.411,0.089-0.651,0.175c0.091,0.189,0.033,0.335-0.064,0.48
					c0.768,0.527,1.781,0.812,3.045,0.834c0.2-0.075,0.228-0.331,0.478-0.355c1.692,0.115,2.332,1.292,3.403,2.03
					c0.308,0.045,0.394-0.128,0.648-0.124c0.11,0.1,0.152,0.253,0.122,0.481c-0.061,0.138-0.398-0.003-0.359,0.236
					c0.122,0.658,1.474,0.083,1.55,0.779c-0.043,0.188-0.226,0.249-0.234,0.478c0.423,1.33,1.446,2.11,2.688,2.691
					c1.077,0.501,1.491,1.312,2.807,1.312c0.59-0.242,1.065-0.607,1.193-1.312c-0.308-1.07-1.282-1.468-1.318-2.809
					c0.188-0.169,0.39-0.328,0.6-0.477c0.033-0.329,0.094-0.627,0.177-0.896c-0.609-1.262,0.463-2.141,0.895-2.927
					c-0.118-0.605-0.529-0.896-0.837-1.257c-0.174-0.201-0.164-0.384-0.359-0.533c-0.094-0.076-0.277-0.074-0.414-0.18
					c-0.608-0.466-0.989-1.28-1.437-1.67c-0.305-0.27-0.837-0.482-1.19-0.776c-0.32-0.27-0.405-0.613-0.782-0.656
					c-0.271-0.071-0.231,0.163-0.481,0.119c-0.414-0.621-0.861-1.202-1.193-1.91c-0.252,0.051-0.279-0.114-0.478-0.117
					c0.055,0.513-1.084,0.292-1.075,0.951c-0.521-0.012-0.895-0.175-1.488-0.117c-0.447,0.745-1.133,1.257-2.086,1.491
					c-0.042,0.239,0.053,0.342,0.059,0.537c-0.149,0.055-0.259,0.14-0.484,0.121c-0.091,0.744-1.029,0.638-1.367,1.132
					c0.053,0.306,0.207,0.509,0.241,0.835C70.686,35.3,70.536,35.508,70.135,35.469z M102.194,44.002
					c-0.378-0.789-1.035-1.396-1.318-2.09c-0.354-0.852-0.256-1.612-0.719-2.268c0.332,0.183,0.506-0.119,0.893-0.061
					c0.191-0.49-0.238-0.94-0.598-1.37c0.034,0.142-0.355,0.083-0.353,0.356c-0.436-0.225-0.755-0.557-0.901-1.075
					c0.234,0.018,0.223-0.215,0.299-0.356c0.459,0.06,0.657,0.588,0.932,0.808c-1.172-1.525-2.433-2.975-3.781-4.342
					c-0.959-0.89-1.869-1.763-2.792-2.615c-2.703-2.334-5.677-4.359-8.864-6.033c-0.549-0.259-1.108-0.512-1.669-0.768
					c-1.324-0.603-2.64-1.207-4-1.748c-3.513-1.28-7.212-2.154-11.054-2.567c-7.032-0.504-14.113,0.353-19.148,2.405
					c-3.166,1.292-6.25,2.444-8.835,4.183c0.643-0.332,1.145-0.802,1.909-1.017c-1.136,0.893-2.244,1.813-3.282,2.804
					c0.089,0.035,0.308-0.066,0.299,0.063c-0.469,0.438-1.209,0.929-1.075,1.608c-0.42,0.056-0.514-0.436-0.895-0.474
					c-0.305-0.038-0.896,0.297-1.312,0.529c-0.773,0.441-1.629,0.752-1.912,1.44c1.121,0.295,1.852-0.811,3.045-0.362
					c-0.079,0.398-0.134,0.814-0.122,1.315c0.384,0.127,0.311,0.374,0.359,0.773c0.578-0.236,1.103-0.53,1.851-0.594
					c-0.085,0.864,0.089,1.465,0.597,1.729c0.341-0.758,0.804-1.33,1.261-1.966c0.226-0.329,0.332-0.696,0.533-1.074
					c0.319-0.591,1.214-1.341,0.538-2.091c1.005-0.586,1.468-1.718,2.566-2.212c0-0.155-0.021-0.341,0.062-0.416
					c0.304-0.111,0.645-0.192,0.718-0.537c0.606-0.474,1.397-0.648,1.967-1.194c0.116-0.108,0.174-0.256,0.298-0.357
					c0.302-0.235,0.722-0.356,1.075-0.598c0.335-0.229,0.624-0.575,0.953-0.777c1.056-0.641,2.515-0.854,3.82-1.31
					c1.312-0.466,2.733-0.731,4.058-0.96c-0.051,0.055-0.414,0.095-0.237,0.18c0.533-0.119,0.953-0.018,1.495-0.057
					c0.736-0.062,1.403-0.442,2.149-0.539c0.696-0.092,1.546,0.067,2.329,0c1.104-0.098,2.648-0.352,3.817-0.181
					c0.158,0.024-0.128,0.118,0.118,0.122c1.078,0.015,2.062,0.143,2.986,0.176c0.229,0.009,0.198,0.278,0.42,0.298
					c1.767-0.132,2.944,0.399,4.174,0.716c1.38,0.363,2.484,0.694,3.647,1.135c0.585,0.229,1.288,0.428,1.729,0.659
					c0.201,0.103,0.325,0.336,0.539,0.42c0.316,0.12,0.706,0.064,1.014,0.178c0.486,0.178,0.91,0.556,1.373,0.776
					c0.59,0.271,1.366,0.338,1.729,0.951c-1.391,0.137-1.638-1.385-3.163-1.314c0.161,0.523,1.282,1.134,0.896,1.852
					c0.88,0.672,1.556,1.545,2.688,1.969c0.308,0.644,0.914,0.728,1.492,1.135c0.308,0.222,0.542,0.588,0.834,0.777
					c0.515,0.328,1.139,0.45,1.553,0.837c0.472,0.432,0.633,1.159,1.074,1.672c0.625,0.718,1.361,1.018,2.211,1.431
					c0.039-0.279-0.08-0.713,0.058-0.896c0.557-0.016,0.922,0.155,1.373,0.239c-0.646-1.287-1.863-1.995-2.98-2.807
					c-1.747-0.404-2.667-1.949-3.882-2.684c1.193,0.255,1.564,1.336,2.752,1.607c0.207,0.097,0.033-0.201,0.174-0.178
					c2.012,1.312,4.305,2.658,4.893,5.191c-0.454-0.344-0.999-0.91-1.732-0.774c0.646,0.571,1.452,0.976,2.092,1.552
					c0,0.158-0.028,0.344,0.055,0.419c0.41,0.367,0.538,0.892,0.834,1.371c0.621,0.972,1.646,1.813,1.854,2.928
					c0.106,0.551-0.016,1.114,0.299,1.668c2.085,0.304,2.673,2.423,2.091,4.359c0.907,1.077,1.513,2.466,2.441,3.522
					c0.144-0.445,0.545-0.447,0.661-0.838c0.073-0.243,0.012-0.694,0-0.895C103.314,46.068,102.764,45.219,102.194,44.002z
					 M100.105,87.157c-0.331-0.142-2.128-0.285-2.393-0.239c-0.71,0.128-1.272,0.866-1.79,1.019c-0.195-0.063-0.186-0.332-0.479-0.3
					c-1.022,0.304-2.194,0.045-3.102,0.593c0.098-1.263-0.578-2.818-1.973-2.739c-0.867,0.039-1.537,0.761-2.502,0.776
					c0-0.263,0.018-0.539-0.062-0.722h-0.834c-0.825-0.668-1.766-1.218-3.051-1.431c-0.538,0.325-1.224,0.439-2.024,0.42
					c-1.494-0.039-3.209-0.125-4.417,0.416c0.106-0.214,0.194-0.583,0-0.775c-1.522,0.769-3.139,1.44-3.939,2.926
					c-0.782,0.047-1.382-0.291-2.088-0.18c-0.293,0.049-0.533,0.341-0.841,0.36c-0.837,0.052-1.473-0.549-2.265-0.779
					c0.487-1.146,0.204-2.625-0.298-3.579c-1.154-0.314-2.691-0.489-3.937-0.358c0.282-1.312,0.892-2.292,1.434-3.344
					c-0.87-0.39-1.626-0.518-2.569-0.117c-0.779,0.326-1.416,1.172-2.149,1.314c-0.828,0.157-1.869-0.197-2.804-0.36
					c-0.098-0.505,0.061-0.828-0.061-1.315c-0.107-0.423-0.563-0.731-0.597-1.132c-0.03-0.332,0.228-0.659,0.298-0.954
					c0.219-0.957,0.329-1.971,0.359-3.048c0.356-0.304,0.637-0.779,1.071-0.891c1.278-0.326,1.784,0.415,2.628,0.478
					c0.353,0.026,0.864-0.05,1.193-0.181c0.276-0.107,0.45-0.485,0.837-0.597c0.952-0.269,1.884-0.191,2.853-0.236
					c0.709-0.032,0.883,0.111,1.08,0.854c0.256,0.963,0.996,1.456,1.193,2.42c0.064,0.312,0.865-0.39,0.917-0.467
					c0.298-0.453,0.456-1.312,0.302-1.845c-0.11-0.384-0.391-0.679-0.539-1.046c-0.146-0.377-0.095-0.744-0.256-1.111
					c0.557-1.051,1.82-1.274,2.566-2.086c0.237-0.261,0.539-0.693,0.719-1.016c0.249-0.466,0.66-1.312,0.834-1.912
					c0.222-0.756-0.131-1.5,0.237-2.39c0.846-0.345,1.731-0.653,2.444-1.129c-0.141-0.163-0.311-0.285-0.356-0.538
					c0.265-0.398,0.615-0.938,0.898-1.133c0.171-1.155,0.332-2.334,0.532-3.465c0.43-0.145,0.716-0.44,1.258-0.477
					c-0.021-0.219-0.24-0.24-0.18-0.54c-0.451-0.002-1.392,0.014-1.547-0.478c0.804-1.089,2.825-0.602,3.818-1.489
					c0.085-0.312,0.17-0.628,0.358-0.836c0.187,0.142,0.329,0.013,0.417,0.177c-0.131,0.578-0.429,1.302-0.24,1.85
					c0.646-0.446,1.492-0.696,2.089-1.193c0.009,0.064,0.066,0.094,0.118,0.117c0.037-0.23-0.374-0.192-0.654-0.237
					c-0.618-0.695-0.962-1.666-1.373-2.566c-1.202-0.874-2.989-1.048-4.183-1.912c-0.548-0.397-0.719-1.11-1.367-1.254
					c-0.325,0.336-0.374,0.946-0.782,1.192c-0.441,0.006-0.889,0.016-1.254-0.056c-0.354-0.925-0.838-1.714-1.492-2.331
					c-0.986-0.17-2.313-0.229-2.926,0.302c-0.033,1.802-0.033,3.571,1.014,4.296c-0.279,0.592-1.025,0.874-1.074,1.67
					c-0.033,0.62,0.749,1.826-0.174,2.208c-0.621-0.594-1.227-1.198-1.074-2.562c-0.643-0.157-1.215-0.408-1.854-0.661
					c-0.57-0.222-1.222-0.64-1.785-0.714c-0.654-0.085-1.369,0.208-1.973-0.239c-0.298-0.639-0.867-0.964-0.897-1.728
					c-0.049-1.275,1.324-1.853,1.796-2.75c0.779-0.095,1.315-0.747,1.723-1.013c-0.164,0.76,0.244,1.201,0.777,1.433
					c0.322-0.171,0.475-0.528,0.721-0.777c0.277,0.159,0.6,0.271,1.011,0.299v-0.535c-0.837-0.338-1.671-0.673-2.149-1.374
					c0.85-0.361,2.287-0.733,1.495-2.029c0.216,0.012,0.305-0.497,0.591-0.602c0.812,0.671,2.426,0.521,3.166,1.261
					c-0.086,0.491-0.274,0.878-0.356,1.371c-0.523,0.155-0.895,0.46-1.434,0.6c0.036,0.276-0.095,0.38-0.119,0.595
					c0.579-0.062,1.127-0.141,1.672-0.238c0.831,0.582,1.763,1.057,2.858,1.371c0.237-0.163,0.515-0.285,0.844-0.357
					c0.066-0.624,0.715-0.859,0.538-1.549c-0.605-0.295-1.297-0.496-1.553-1.136c0.776-0.044,1.224,0.334,1.909,0.059
					c0.009-0.344-0.109-0.564-0.115-0.894c-0.549-0.352-1.066-0.729-1.973-0.715c-0.68-0.559-1.27-1.197-2.271-1.435
					c-0.115,0.159-0.265,0.289-0.594,0.237c-0.572-0.429-0.853-1.172-1.553-1.432c-0.664-0.248-1.521-0.169-2.441-0.358
					c-0.271,0.217-0.311,0.648-0.48,0.954c-0.119-0.26-0.241-0.519-0.479-0.655c-0.301-0.005-0.493,0.101-0.831,0.06
					c-0.436,0.596-0.73,1.873-0.122,2.504c0.615,0.21,1.176,0.147,1.848,0.239c-0.312,0.38-0.682,0.714-1.135,0.955
					c-0.381-0.175-0.661-0.565-1.133-0.479c-0.7-0.5-1.078-1.309-1.668-1.91c-0.396,0.369-0.396,1.421,0.177,1.61
					c-0.122,0.24,0.104,0.616-0.062,0.894c-0.271-0.204-0.396,0.265-0.594,0.119c0.122-0.451,0.192-1.045-0.118-1.311
					c-0.868,0.028-1.239,0.55-1.735,0.955c-1.239-0.142-2.079-0.609-3.103,0c-0.222-0.196-0.603-0.232-0.593-0.657
					c1.086,0.108,2.614,0.373,3.339-0.421c-0.35,0.061-0.365-0.64-0.654-0.834c0.049-0.567-0.116-0.92-0.118-1.435
					c-0.369-0.166-0.533-0.634-1.072-0.654c-0.188-0.008-0.398,0.167-0.597,0.177c-0.938,0.063-1.339-0.308-1.671-0.833
					c0.058-0.163,0.125-0.318,0.118-0.539c-0.423-0.2-0.627-0.117-1.136-0.06c-0.313-0.219-0.496-0.576-0.897-0.713
					c-0.542,0.563-0.956,1.266-1.431,1.907c0.35,0.54,1.342,0.079,1.912,0.417c0.273-0.264,0.453-0.617,0.84-0.773
					c0.106,0.356-0.335,0.449-0.42,0.896c-0.101,0.501,0.322,1.261-0.119,1.667c-0.844-0.645-2.326-0.653-2.923-1.552
					c-0.106-0.018-0.298,0.171-0.362,0c-0.079-0.186,0.152-0.355,0-0.417c-0.77,0.465-1.314-0.293-2.325-0.116
					c-0.338-0.276-0.716-0.521-1.196-0.656c-0.082-0.75-0.296-1.263-0.834-1.608c-0.893-0.582-1.906-0.515-1.072-1.735
					c-0.319-0.254-0.43-0.638-0.42-1.073c-0.834-0.312-1.814-0.422-2.804-0.297c-0.427,0.723-1.407,1.309-2.387,0.953
					c-0.046,0.216-0.085,0.523-0.122,0.895c0.149,0.131,0.289,0.269,0.42,0.424c-0.292,0.027-0.292,0.344-0.539,0.415
					c-0.249-0.028-0.347-0.211-0.593-0.238c-1.002,0.171-1.136,0.529-1.675,1.372c-0.49,0.771-0.591,1.604-0.837,2.387
					c0.144,0.036,0.433-0.072,0.481,0.062c-0.323,0.474-1.718,0.632-2.271,0.298c0.109,0.543,0.518,0.791,0.895,1.071
					c0.621-0.278,1.435-0.503,1.97-0.113c-0.435,0.347,0.313,0.572-0.122,0.95c0.421-0.065,0.521-0.433,0.598-0.837
					c0.496-0.194,0.782-1.057,1.373-0.773c-0.076,0.35-0.418,0.719-0.414,0.951c0.548,0.267,0.955-0.047,1.431-0.178
					c-0.064,0.193-0.165,0.355-0.18,0.596c0.204-0.027,0.338,0.027,0.478,0.062c0.542,1.286,1.882,1.785,1.852,3.644
					c0.188-0.012,0.361-0.003,0.414,0.117c0.654,1.463,0.061,3.773,0.426,5.312c-0.883,0.61-0.128,1.271,0.055,1.851
					c0.411,1.28-0.259,2.489-0.657,3.465c-0.21,0.521-0.585,0.969-0.773,1.499c-0.174,0.481-0.076,0.941-0.063,1.459
					c0.03,1.184-0.049,2.383,0.17,3.552c0.049,0.242,0.088,0.496,0.119,0.747c0.027,0.182-0.037,0.511-0.027,0.627
					c0.045,0.388,0.48,0.537,0.712,0.796c0.22,0.249,0.374,0.597,0.581,0.87c0.247,0.321,0.648,0.605,0.838,1.011
					c0.279,0.612,0.121,1.239,0.237,1.866c0.063,0.338,0.256,0.332,0.347,0.591c0.079,0.222-0.063,0.393-0.049,0.615
					c0.016,0.252,0.177,0.472,0.293,0.69c0.152,0.298,0.203,0.64,0.368,0.92c0.149,0.252,0.411,0.362,0.56,0.581
					c0.378,0.554,0.506,1.27,0.923,1.847c0.405,0.546,0.798,1.148,1.434,1.134c0.019-0.25,0.302-1.333-0.052-1.491
					c-0.673-0.295-1.26-1.205-1.625-1.806c-0.192-0.316-0.618-0.905-0.701-1.215c-0.182-0.697,0.356-1.575,0.125-2.171
					c0.354,0.062,0.332,0.432,0.402,0.716c0.237,0.956,0.515,1.891,0.773,2.743c1.086,0.478,1.631,1.1,2.277,1.971
					c0.353,0.479,0.785,0.971,1.007,1.431c0.335,0.681,0.231,1.427,0.479,2.154c0.249,0.716,0.989,1.181,1.196,1.851
					c1.908,0.691,3.781,1.428,5.254,2.564c1.307-0.788,2.201,0.2,3.103,0.715c1.793,1.022,4.855,0.678,5.431,2.626
					c0.229,0.057,0.393,0.168,0.481,0.36c0.07,0.247-0.125,0.234-0.119,0.419c0.688,0.269,1.331,0.579,1.669,1.194
					c1.001,0.443,2.532,0.306,3.519-0.061c0.259,0.42,0.917,0.442,1.193,0.835c0.019,0.521,0.106,0.869-0.055,1.259
					c-0.161,0.394-0.938,1.687-1.193,1.967c-0.353,0.399-0.867,0.616-1.071,1.074c-0.308,0.702-0.104,1.358,0.061,1.971
					c-0.913,0.374-0.444,1.491-0.118,2.21c0.469,0.121,0.84,0.353,1.251,0.535c0.381,1.532,1.79,2.031,2.088,3.643
					c1.121,0.462,2.372-0.303,3.343,0.416c0.043,0.228,0.146,0.376,0.18,0.603c-0.35,0.467-0.651,0.972-0.776,1.668
					c-1.382,1.443-1.61,4.034-3.881,4.601c-0.135,0.42-0.342,0.772-0.536,1.129c0.091,0.01,0.222-0.018,0.24,0.062
					c-0.551,0.465-2.03,0.311-2.088,1.072c0.676,0.255,1.61-0.195,2.444-0.178c0.146-0.085-0.112-0.188,0.119-0.173
					c2.237-0.783,4.344-1.559,6.332-2.693c0.821-0.285,1.516-0.397,2.268-0.716c0.719-0.303,1.111-0.884,1.732-1.254
					c0.408-0.243,0.831-0.374,1.251-0.656c1.507-1.021,3.327-1.813,4.414-3.16c0.207-0.726,0.697-1.118,1.196-1.496
					c2.059-1.576,4.57-3.143,5.967-5.311c0.5-0.77,0.566-1.724,1.072-2.747c0.877-1.74,2.886-2.885,3.461-5.077
					C100.353,87.517,100.261,87.229,100.105,87.157z M70.737,61.431c0.226,0.007,0.268,0.201,0.536,0.18
					c0.082-0.048,0.082-0.191,0.112-0.3h0.24c0.149,0.178,0.046,0.24,0.059,0.533c-0.238,0.137-0.549,0.219-0.898,0.239
					C70.661,61.946,70.637,61.635,70.737,61.431z M68.914,60.553c0.17,0.209,0.253,0.484,0.191,0.888
					c-0.436,0.116-0.916,0.153-1.339-0.019c0.279-0.625-0.57-1.312-1.078-1.547c0.444-0.643,0.706-0.409,1.221-0.063
					C68.312,60.087,68.691,60.271,68.914,60.553z M65.251,63.172c-0.131,0.242-0.236,0.498-0.262,0.76
					c-1.025,0.152-1.123-0.73-0.857-1.498c0.112-0.318,1.533-2.26,1.533-2.26c0.168,0.13,0.348,0.067,0.476,0.126
					c-0.007,0.687-0.128,1.331-0.396,1.966C65.614,62.559,65.413,62.86,65.251,63.172z M65.958,58.267
					c0.237,0.322,0.472,0.646,0.597,1.077c-1.333,0.016-2.274,0.332-3.583,0.238c-0.059-0.184-0.286-0.187-0.299-0.418
					C63.787,58.813,64.545,57.621,65.958,58.267z M103.284,42.168c-0.158-0.256-0.32-0.504-0.503-0.73
					C102.952,41.668,103.116,41.912,103.284,42.168z M109.652,63.28c-0.231-2.122-0.435-4.165-0.715-6.207
					c-0.11-0.769-0.165-1.575-0.286-2.332c-0.18-0.71-0.381-1.412-0.604-2.112c-0.271-0.696-0.587-1.407-0.849-2.118
					c-0.269-0.735-0.499-1.507-0.743-2.241c-0.74-1.751-1.583-3.442-2.518-5.079c-0.223-0.358-0.444-0.695-0.658-1.022
					c0.375,0.623,0.688,1.314,0.936,2.074c-0.372-0.329-0.765-1.263-1.133-1.195c0.347,1.843,0.715,3.66,1.014,5.554
					c-0.094,0.204-0.469,0.129-0.478,0.417c0.365,1.05,0.611,2.213,0.718,3.522c0.5,0.953,1.148,2.048,1.19,3.224
					c0.037,0.799-0.207,1.58-0.234,2.323c-0.039,0.938-0.009,1.957,0.122,2.867c0.207,1.479,1.057,2.869,1.251,4.415
					c0.067,0.577-0.104,1.05,0,1.552c0.119,0.614,0.569,1.258,0.478,1.972c0.238,0.098,0.609,0.068,0.835,0.174
					c0.167,0.355,0.316,0.719,0.358,1.194c0.247,0.09,0.476,0.202,0.722,0.3c0.192-1.451,0.926-2.786,0.95-4.24
					C110.027,65.362,109.763,64.304,109.652,63.28z M102.368,41.912c-0.329-0.265-0.299-0.9-0.78-1.015
					C101.771,41.276,101.999,41.927,102.368,41.912z M97.536,40.84c-0.121-0.915-0.453-2.131-0.959-2.864
					c-0.396-0.14-0.768-0.309-1.369-0.241c-0.854-0.44-1.672-0.918-2.57-1.313c-0.036,0.14-0.197,0.161-0.237,0.301
					c0.359,0.417,0.64,0.913,1.071,1.254c0.11-0.151,0.232-0.286,0.481-0.301c1.449,0.782,2.454,2.003,3.4,3.285
					C97.381,40.885,97.43,40.836,97.536,40.84z M73.955,79.337c0.289-0.249,0.341-0.736,0.837-0.775
					c-0.398-0.165-0.791-0.677-1.312-0.773c-0.405-0.08-0.883,0.079-1.315,0.051c-1.418-0.061-2.916-1.053-4.183-0.532
					c-0.082,0.198-0.158,0.401-0.237,0.594c1.077,0.271,2.158,0.316,3.166,0.718c0.581,0.235,1.229,0.896,1.79,0.899
					C73.161,79.521,73.492,78.969,73.955,79.337z M37.01,37.855c-0.085,0.16-0.316,0.163-0.299,0.419
					C36.843,38.205,37.125,37.979,37.01,37.855z M80.399,79.041c-0.078,0.677,0.354,0.811,0.844,0.775
					c0.049-0.341,0.289-0.503,0.414-0.775C81.246,78.702,80.859,78.875,80.399,79.041z M41.722,50.51
					c0.25-0.033,0.354-0.208,0.539-0.299c-0.104-0.418,0.076-0.459,0.24-0.715c-0.398,0.216-0.173-0.285-0.48-0.302
					c-0.016,0.088-0.128,0.069-0.18,0.119C42.032,49.815,41.625,49.936,41.722,50.51z M43.694,30.513
					c-0.234,0.046-0.486,0.066-0.596,0.236c0.085,0.033,0.146,0.096,0.18,0.18C43.509,30.885,43.598,30.696,43.694,30.513z
					 M81.118,80.354c0.052-0.09,0.146-0.128,0.299-0.122c-0.006-0.066,0.012-0.164-0.059-0.177
					C81.338,80.177,80.881,80.166,81.118,80.354z M71.988,80.354v0.597c0.499,0.344,1.361-0.082,1.492-0.657
					C72.938,80.203,72.437,80.121,71.988,80.354z M75.511,79.337c0.085,0.194,0.219,0.34,0.295,0.541
					c1.34,0.569,2.47,0.102,3.76-0.239c0.046-0.369-0.186-0.447-0.173-0.776c-1.139-0.091-2.138-0.169-3.465-0.24
					C75.858,78.93,75.596,79.049,75.511,79.337z M49.126,24.426c-0.213-0.034-0.311,0.052-0.359,0.179
					C48.928,24.63,49.269,24.323,49.126,24.426z M78.372,25.857c-0.469-0.064-0.785-0.293-1.254-0.356
					c0.012,0.24,0.18,0.331,0.177,0.594c0.28,0.08,0.585,0.132,0.892,0.177c-0.101,0.199-0.307,0.284-0.414,0.482
					c0.414,0.846,1.83,0.945,2.625,0.357c-0.506-0.448-1.121-0.788-1.967-0.902C78.317,26.125,78.516,25.984,78.372,25.857z
					 M61.482,20.843c-0.237-0.17-0.611,0.03-0.84,0.06c-0.192-0.047-0.454,0.073-0.119,0.06
					C60.788,21.031,61.416,21.252,61.482,20.843z M60.286,37.557c0.378,0,0.658-0.1,0.896-0.238V36.96
					c-0.594,0.052-0.441-0.631-1.011-0.297C60,37.064,60.134,37.212,60.286,37.557z M61.422,41.674
					c-0.082-0.343,0.137-0.378,0.18-0.594c-0.104-0.337-0.22-0.653-0.302-1.016c-0.301-0.134-0.469-0.412-0.837-0.48
					c-0.496,0.378-0.898,0.852-1.193,1.436C59.638,41.59,60.393,41.77,61.422,41.674z M57.544,38.211
					c-0.637-0.151-1.392-1.023-1.854-0.297c0.088,0.308,0.256,0.54,0.42,0.776c0.521-0.183,0.913,0.317,1.376,0.418
					c0.351,0.076,0.716-0.173,1.072,0.062c0.03-0.578-0.177-0.804,0-1.256C58.067,37.699,57.839,38.06,57.544,38.211z
					 M49.661,24.006c0.549-0.324,1.34-0.41,1.732-0.894C50.614,23.17,49.942,23.652,49.661,24.006z M54.2,37.435
					c0.189,0.03,0.214,0.229,0.418,0.237c0.344-0.433,1.32-0.229,1.854-0.474c-0.24-1.19-1.318-0.287-2.149-0.118
					C54.384,37.301,54.171,37.248,54.2,37.435z M59.751,38.81c0.605,0.031,0.938,0.335,1.312,0.599
					c-0.015-0.409,0.49-0.494,0.302-0.896c-0.414-0.027-0.68-0.2-0.959-0.355C60.231,38.414,59.845,38.47,59.751,38.81z"/>
			</g>
		</g>
		<g opacity="0.6">
			<path fill="#FFFFFF" d="M64.499,63.648c14.235,11.885,33.459,5.357,45.449-0.857c-1.752-23.914-21.695-42.754-46.058-42.754
				c-24.437,0-44.421,19.022-46.058,43.059C28.948,57.654,49.197,50.838,64.499,63.648z"/>
		</g>
	</g>
	<g>
		
			<linearGradient id="SVGID_23_" gradientUnits="userSpaceOnUse" x1="6699.5225" y1="2598.4443" x2="6690.1807" y2="2591.9031" gradientTransform="matrix(-0.7071 0.7071 -0.7071 -0.7071 6661.6284 -2815.6877)">
			<stop  offset="0" style="stop-color:#5F5D5C"/>
			<stop  offset="1" style="stop-color:#181500"/>
		</linearGradient>
		<path fill="url(#SVGID_23_)" d="M86.401,79.298c-0.625-0.627-0.625-1.637,0-2.262l0,0c0.625-0.625,1.637-0.626,2.262-0.001
			l10.115,10.114c0.623,0.623,0.625,1.637,0,2.262l0,0c-0.625,0.625-1.639,0.625-2.262,0L86.401,79.298z"/>
		
			<linearGradient id="SVGID_24_" gradientUnits="userSpaceOnUse" x1="6713.0195" y1="2598.4443" x2="6703.6777" y2="2591.9031" gradientTransform="matrix(-0.7071 0.7071 -0.7071 -0.7071 6661.6284 -2815.6877)">
			<stop  offset="0" style="stop-color:#5F5D5C"/>
			<stop  offset="1" style="stop-color:#181500"/>
		</linearGradient>
		<path fill="url(#SVGID_24_)" d="M76.858,88.841c-0.625-0.625-0.625-1.637,0-2.262l0,0c0.625-0.625,1.637-0.625,2.262,0
			l10.115,10.114c0.623,0.624,0.623,1.637,0,2.262l0,0c-0.625,0.623-1.639,0.623-2.262,0L76.858,88.841z"/>
		
			<linearGradient id="SVGID_25_" gradientUnits="userSpaceOnUse" x1="3376.7471" y1="-4177.5283" x2="3341.8564" y2="-4177.5283" gradientTransform="matrix(-4.371139e-08 -1 1 -4.371139e-08 4256.9014 3439.2915)">
			<stop  offset="0" style="stop-color:#E20A16"/>
			<stop  offset="1" style="stop-color:#B51015"/>
		</linearGradient>
		<path fill="url(#SVGID_25_)" d="M62.423,63.481c-1.248,1.25-1.25,3.273,0,4.521l7.881,7.883l-2.18,2.18
			c-3.293,3.293-3.293,8.632,0,11.926l4.975,4.975c3.293,3.293,8.633,3.293,11.926,0.001l9.764-9.766
			c3.293-3.293,3.295-8.633,0-11.926l-4.975-4.974c-3.293-3.295-8.633-3.293-11.924,0l-3.062,3.062l-7.883-7.883
			C65.694,62.231,63.673,62.233,62.423,63.481z"/>
		<path opacity="0.5" fill="#FFFFFF" d="M78.821,69.854l-9.146,9.148c-3.084,3.084-3.086,8.086,0,11.171l2.332,2.331
			c-3.086-3.085-3.084-8.086,0-11.17l9.146-9.148c3.086-3.084,8.086-3.085,11.172,0l-2.332-2.33
			C86.907,66.77,81.907,66.77,78.821,69.854z"/>
		<g>
			
				<linearGradient id="SVGID_26_" gradientUnits="userSpaceOnUse" x1="4605.9453" y1="3365.042" x2="4640.8369" y2="3365.042" gradientTransform="matrix(4.371139e-08 1 -1 4.371139e-08 3472.2158 -4515.6001)">
				<stop  offset="0" style="stop-color:#5F5D5C"/>
				<stop  offset="1" style="stop-color:#181500"/>
			</linearGradient>
			<path fill="url(#SVGID_26_)" d="M124.122,124.3c1.248-1.25,1.25-3.273,0.002-4.521l-7.883-7.883l2.182-2.18
				c3.293-3.294,3.293-8.633,0-11.926l-4.975-4.975c-3.293-3.293-8.633-3.293-11.926,0l-9.766,9.766
				c-3.293,3.291-3.293,8.633,0,11.924l4.975,4.976c3.293,3.294,8.633,3.292,11.926,0l3.062-3.063l7.883,7.883
				C120.853,125.55,122.874,125.547,124.122,124.3z"/>
			<path opacity="0.5" fill="#FFFFFF" d="M102.253,94.772l-8.494,8.496c-2.863,2.863-2.865,7.509,0,10.374l2.164,2.164
				c-2.863-2.865-2.861-7.51,0-10.374l8.496-8.495c2.865-2.864,7.508-2.864,10.373,0l-2.166-2.164
				C109.763,91.909,105.118,91.909,102.253,94.772z"/>
		</g>
	</g>
</g>
</svg>
