<?xml version="1.0" encoding="utf-8"?>
<!-- Generator: Adobe Illustrator 13.0.0, SVG Export Plug-In . SVG Version: 6.00 Build 14948)  -->
<!DOCTYPE svg PUBLIC "-//W3C//DTD SVG 1.1//EN" "http://www.w3.org/Graphics/SVG/1.1/DTD/svg11.dtd">
<svg version="1.1" id="Layer_1" xmlns="http://www.w3.org/2000/svg" xmlns:xlink="http://www.w3.org/1999/xlink" x="0px" y="0px"
	 width="128px" height="128px" viewBox="0 0 128 128" enable-background="new 0 0 128 128" xml:space="preserve">
<g>
	
		<linearGradient id="SVGID_1_" gradientUnits="userSpaceOnUse" x1="-306.0337" y1="-415.7705" x2="-306.0337" y2="-539.7866" gradientTransform="matrix(1 0 0 -1 370.0342 -413.7783)">
		<stop  offset="0" style="stop-color:#5A716D"/>
		<stop  offset="1" style="stop-color:#1E2B29"/>
	</linearGradient>
	<path fill="url(#SVGID_1_)" d="M125.964,21.09v85.82c0,10.547-8.545,19.098-19.084,19.098H21.12
		c-10.539,0-19.084-8.551-19.084-19.098V21.09c0-10.548,8.545-19.098,19.084-19.098h85.76
		C117.419,1.992,125.964,10.542,125.964,21.09L125.964,21.09z"/>
	<path opacity="0.2" fill="#FFFFFF" d="M29.255,108.412c0-37.355,30.283-67.638,67.638-67.638c8.972,0,17.529,1.763,25.363,4.936
		V24.555c0-9.909-8.027-17.941-17.928-17.941H23.761c-9.901,0-17.929,8.032-17.929,17.941v80.624
		c0,9.908,8.027,17.941,17.929,17.941h7.117C29.826,118.383,29.255,113.466,29.255,108.412z"/>
	<g>
		
			<linearGradient id="SVGID_2_" gradientUnits="userSpaceOnUse" x1="-321.1592" y1="-513.8921" x2="-332.9729" y2="-505.6201" gradientTransform="matrix(1 0 0 -1 370.0342 -413.7783)">
			<stop  offset="0.0824" style="stop-color:#C2C2C2"/>
			<stop  offset="0.2635" style="stop-color:#D2D2D2"/>
			<stop  offset="0.5594" style="stop-color:#E6E6E6"/>
			<stop  offset="0.7582" style="stop-color:#EDEDED"/>
		</linearGradient>
		<path fill="url(#SVGID_2_)" d="M56.826,88.759c-10.475,2.769-19.193,7.78-27.715,14.436"/>
		
			<linearGradient id="SVGID_3_" gradientUnits="userSpaceOnUse" x1="-319.896" y1="-515.9219" x2="-326.2797" y2="-511.4521" gradientTransform="matrix(1 0 0 -1 370.0342 -413.7783)">
			<stop  offset="0.0824" style="stop-color:#C2C2C2"/>
			<stop  offset="0.2635" style="stop-color:#D2D2D2"/>
			<stop  offset="0.5594" style="stop-color:#E6E6E6"/>
			<stop  offset="0.7582" style="stop-color:#EDEDED"/>
		</linearGradient>
		<path fill="url(#SVGID_3_)" d="M57.071,92.245c-7.705,0.754-15.478,9.566-20.248,15.33"/>
		
			<linearGradient id="SVGID_4_" gradientUnits="userSpaceOnUse" x1="-319.4429" y1="-519.8271" x2="-322.7201" y2="-517.5324" gradientTransform="matrix(1 0 0 -1 370.0342 -413.7783)">
			<stop  offset="0.0824" style="stop-color:#C2C2C2"/>
			<stop  offset="0.2635" style="stop-color:#D2D2D2"/>
			<stop  offset="0.5594" style="stop-color:#E6E6E6"/>
			<stop  offset="0.7582" style="stop-color:#EDEDED"/>
		</linearGradient>
		<path fill="url(#SVGID_4_)" d="M57.806,95.746c-7.46,2.073-13.594,12.096-17.302,18.594"/>
		
			<linearGradient id="SVGID_5_" gradientUnits="userSpaceOnUse" x1="-272.2695" y1="-518.5771" x2="-297.648" y2="-500.8069" gradientTransform="matrix(1 0 0 -1 370.0342 -413.7783)">
			<stop  offset="0.0824" style="stop-color:#C2C2C2"/>
			<stop  offset="0.2635" style="stop-color:#D2D2D2"/>
			<stop  offset="0.5594" style="stop-color:#E6E6E6"/>
			<stop  offset="0.7582" style="stop-color:#EDEDED"/>
		</linearGradient>
		<path fill="url(#SVGID_5_)" d="M71.176,88.759c10.473,2.769,19.191,7.78,27.712,14.436"/>
		
			<linearGradient id="SVGID_6_" gradientUnits="userSpaceOnUse" x1="-278.04" y1="-520.1899" x2="-298.83" y2="-505.6327" gradientTransform="matrix(1 0 0 -1 370.0342 -413.7783)">
			<stop  offset="0.0824" style="stop-color:#C2C2C2"/>
			<stop  offset="0.2635" style="stop-color:#D2D2D2"/>
			<stop  offset="0.5594" style="stop-color:#E6E6E6"/>
			<stop  offset="0.7582" style="stop-color:#EDEDED"/>
		</linearGradient>
		<path fill="url(#SVGID_6_)" d="M70.931,92.245c7.7,0.754,15.478,9.566,20.248,15.33"/>
		
			<linearGradient id="SVGID_7_" gradientUnits="userSpaceOnUse" x1="-280.8022" y1="-525.6382" x2="-301.1467" y2="-511.3929" gradientTransform="matrix(1 0 0 -1 370.0342 -413.7783)">
			<stop  offset="0.0824" style="stop-color:#C2C2C2"/>
			<stop  offset="0.2635" style="stop-color:#D2D2D2"/>
			<stop  offset="0.5594" style="stop-color:#E6E6E6"/>
			<stop  offset="0.7582" style="stop-color:#EDEDED"/>
		</linearGradient>
		<path fill="url(#SVGID_7_)" d="M70.196,95.746c7.455,2.073,13.596,12.096,17.3,18.594"/>
		
			<linearGradient id="SVGID_8_" gradientUnits="userSpaceOnUse" x1="-265.7241" y1="-510.1504" x2="-349.775" y2="-451.2973" gradientTransform="matrix(1 0 0 -1 370.0342 -413.7783)">
			<stop  offset="0.0824" style="stop-color:#C2C2C2"/>
			<stop  offset="0.2635" style="stop-color:#D2D2D2"/>
			<stop  offset="0.5594" style="stop-color:#E6E6E6"/>
			<stop  offset="0.7582" style="stop-color:#EDEDED"/>
		</linearGradient>
		<path fill="url(#SVGID_8_)" d="M87.567,63.549L74.113,63.17c-1.589-0.041-3.346-0.093-3.896-0.108
			c-0.561-0.016-0.98,0.786-0.938,1.779c0.04,0.99,0.135,3.104,0.203,4.692l1.379,5.537c0.068,1.587,0.129,2.937,0.138,3.001
			c0,0.063,0.618,0.07,1.373,0.019c0.757-0.057,1.248-1.399,1.104-2.981l-1.69-5.895c-0.145-1.582,1.025-3.062,2.596-3.286
			l1.325-0.191c0.096,0.923,0.868,1.644,1.814,1.644c1.013,0,1.837-0.822,1.837-1.837c0-0.11-0.013-0.219-0.031-0.324l8.268-1.181
			C89.167,63.815,89.158,63.593,87.567,63.549z M57.792,63.062c-0.558,0.017-2.315,0.068-3.903,0.108l-13.454,0.379
			c-1.591,0.046-1.606,0.268-0.028,0.491l8.27,1.18c-0.02,0.108-0.033,0.215-0.033,0.324c0,1.016,0.821,1.838,1.832,1.838
			c0.948,0,1.717-0.722,1.814-1.644l1.329,0.19c1.571,0.224,2.739,1.705,2.595,3.287l-1.688,5.895
			c-0.143,1.583,0.352,2.925,1.104,2.98c0.756,0.053,1.374,0.046,1.382-0.018c0-0.064,0.062-1.415,0.126-3.002l1.384-5.537
			c0.071-1.587,0.158-3.702,0.203-4.692C58.766,63.848,58.346,63.045,57.792,63.062z M109.35,40.711
			c-0.431-1.289-1.789-3.606-3.012-5.143c-1.223-1.546-3.214-3.371-4.426-4.059c-1.209-0.693-6.744,0.824-9.547,2.103l-2.044,0.933
			c-2.8,1.279-5.124,2.347-5.171,2.368c-0.049,0.024-0.379,0-0.634-0.101c-0.254-0.112-3.37-0.88-6.371-1.581l-5.372-1.254
			c-2.995-0.7-6.455-1.367-7.68-1.486c-1.231-0.115-6.473,0.762-9.473,1.45l-5.75,1.322c-3,0.687-5.666,1.31-5.918,1.39
			c-0.254,0.074-0.964,0.332-1.006,0.307c-0.049-0.024-2.469-1.136-5.271-2.414l-2.043-0.933c-2.8-1.279-6.253-2.414-7.676-2.518
			c-1.427-0.106-5.067,2.929-6.294,4.475c-1.223,1.537-2.581,3.854-3.014,5.143c-0.438,1.289,1.922,6.371,3.643,8.921l3.527,5.229
			c1.721,2.55,2.666,5.5,2.102,6.552c-0.564,1.056-1.334,2.933-1.717,4.169c-0.377,1.24,0.06,6.675,0.575,9.714l1.098,6.48
			c0.519,3.035,1.486,6.533,2.15,7.773c0.667,1.247,5.946,3.439,8.935,4.18l1.339,0.333c0.221,0.053,0.454,0.136,0.685,0.212
			c-4.414,2.383-8.562,5.241-12.23,8.504c-0.537,0.48,0.135,1.213,0.709,0.834c4.611-3.067,9.054-5.926,13.693-8.411
			c0.9,0.467,1.789,1.025,2.627,1.644c-3.798,3.033-7.065,6.941-9.345,10.465c-0.281,0.431,0.286,1.006,0.688,0.625
			c3.405-3.217,6.453-6.984,10.005-10.004c0.737,0.656,1.388,1.342,1.875,2.018l0.28,0.389c-4.103,3.934-7.33,9.295-9.225,13.844
			c-0.21,0.506,0.514,0.843,0.822,0.429c3.19-4.229,5.771-9.116,9.345-12.97l1.192,1.648c1.799,2.502,4.145,5.239,5.219,6.092
			c1.064,0.853,5.582,1.553,7.358,1.553c1.78,0,4.313-0.3,5.633-0.669c1.315-0.368,5.144-4.478,6.947-6.978l1.196-1.653
			c3.584,3.861,6.172,8.776,9.362,13.01c0.333,0.442,0.981-0.031,0.781-0.503c-1.882-4.527-5.105-9.892-9.197-13.819l0.234-0.321
			c0.5-0.69,1.172-1.393,1.927-2.064c3.529,3.007,6.567,6.753,9.938,9.943c0.444,0.421,1.046-0.1,0.718-0.606
			c-2.266-3.493-5.533-7.384-9.321-10.411c0.839-0.615,1.732-1.174,2.627-1.644c4.661,2.496,9.123,5.361,13.729,8.421
			c0.604,0.4,1.141-0.437,0.627-0.896c-3.632-3.229-7.764-6.079-12.154-8.456c0.204-0.063,0.41-0.141,0.609-0.19l1.394-0.351
			c2.988-0.751,6.399-1.987,7.587-2.744c1.185-0.764,2.973-6.195,3.483-9.229l1.101-6.478c0.512-3.04,0.904-6.584,0.871-7.881
			c-0.033-1.292-1.451-4.949-2.017-6.003c-0.562-1.051,0.386-4.002,2.105-6.552l3.524-5.229
			C107.428,47.082,109.785,42,109.35,40.711z M25.624,46.644c-1.532-2.271-2.847-4.297-2.926-4.502c0,0,0,0,0-0.238
			c0-0.292,0-0.292,0-0.292c0.117-0.271,1.216-1.75,2.438-3.29c1.227-1.539,2.423-2.896,2.662-3.011
			c0.24-0.115,3.196,1.052,5.994,2.329l0.438,0.205c2.799,1.279,5.05,2.392,5,2.47c-0.049,0.081-1.355,2.51-2.811,5.229
			l-2.463,4.601C32.502,52.858,27.156,48.915,25.624,46.644z M68.856,105.868c-0.465,0.351-3.073,0.633-4.856,0.633
			c-1.775,0-3.689-0.146-4.244-0.317c-0.238-0.077-0.789-0.606-1.469-1.359l3.726-3.403c1.094-1.001,1.987-1.82,1.987-1.82
			s0.894,0.819,1.989,1.818l3.789,3.465C69.354,105.385,69.024,105.743,68.856,105.868z M96.844,74.554l-1.098,6.482
			c-0.514,3.035-1.118,5.832-1.352,6.209c-0.223,0.383-2.818,1.297-5.042,1.858c-2.23,0.557-3.974,0.647-3.89,0.204
			c0.084-0.447-1.207-3.571-2.869-5.994c-1.666-2.42-3.027-4.334-3.023-4.25c0.002,0.086,0.381,2.074,0.809,4.229
			c0.424,2.157,0.732,4.454,0.687,5.118c-0.045,0.657-0.8,2.18-1.044,2.524c-0.007,0.01-0.018,0.027-0.026,0.038
			c-2.827-1.143-5.71-2.092-8.599-2.818c-0.793-0.197-1.254,0.965-0.449,1.21c2.813,0.851,5.473,1.869,8.044,3
			c-0.347,0.476-0.739,1.019-1.147,1.583c-2.213-1.189-4.521-2.007-6.869-2.228c-0.687-0.062-0.748,0.917-0.098,1.049
			c2.264,0.439,4.273,1.276,6.118,2.363c-0.501,0.689-1.099,1.522-1.739,2.408c-1.546-1.026-3.177-1.827-4.882-2.285
			c-0.643-0.17-1.007,0.742-0.361,0.985c1.654,0.619,3.112,1.448,4.441,2.416c-0.634,0.879-1.269,1.758-1.829,2.537
			c-0.352,0.482-0.699,0.953-1.044,1.411c-0.065-0.052-0.126-0.102-0.19-0.146l-4.075-2.778c-1.222-0.839-2.222-1.546-2.217-1.581
			c0.002-0.031,0.011-1.33,0.011-2.816v-4.143c0.029-0.055,0.064-0.094,0.094-0.154l6.621-7.524
			c0.654-1.323-0.013-2.408-1.492-2.408h-12.67c-1.481,0-2.152,1.088-1.488,2.408l6.617,7.524c0.032,0.059,0.066,0.103,0.099,0.159
			v4.138c0,1.486,0.003,2.729,0.003,2.76c0.004,0.032-0.986,0.801-2.213,1.638l-4.075,2.778c-0.061,0.042-0.117,0.092-0.174,0.134
			c-0.378-0.48-0.747-0.972-1.091-1.446c-0.549-0.762-1.17-1.621-1.794-2.482c1.335-0.98,2.813-1.813,4.479-2.44
			c0.554-0.208,0.256-1.143-0.315-0.989c-1.734,0.465-3.394,1.278-4.967,2.321c-0.638-0.884-1.24-1.719-1.741-2.414
			c1.85-1.091,3.871-1.927,6.156-2.376c0.672-0.131,0.481-1.099-0.182-1.033c-2.341,0.222-4.639,1.029-6.84,2.212
			c-0.406-0.565-0.799-1.11-1.144-1.585c2.536-1.113,5.159-2.116,7.941-2.957c0.776-0.235,0.597-1.476-0.224-1.271
			c-2.933,0.734-5.851,1.695-8.711,2.85c-0.016-0.02-0.039-0.053-0.053-0.069c-0.234-0.324-0.613-1.097-0.847-1.709
			c-0.232-0.618,0.091-3.745,0.515-5.903c0.425-2.154,0.781-3.99,0.795-4.078c0.012-0.084-1.342,1.678-3.006,4.099
			c-1.668,2.422-3.006,4.763-2.975,5.196c0.027,0.43-1.568,1.123-3.791,0.569c-2.221-0.549-4.334-1.21-4.699-1.467
			c-0.355-0.253-1.177-3.54-1.692-6.575l-1.097-6.482c-0.515-3.037-0.91-6.136-0.873-6.889c0.029-0.755,0.856-2.868,1.266-3.627
			c0.402-0.756,1.927-3.601,3.38-6.315l5.401-10.089c1.451-2.715,3.008-5.313,3.453-5.774c0.445-0.464,1.671-1.034,1.73-1.052
			c0.057-0.01,2.559-0.584,5.558-1.271l5.544-1.271c3-0.695,6.161-1.312,7.023-1.382c0.865-0.069,5.133,0.708,8.132,1.409
			l5.168,1.207c3,0.7,5.497,1.287,5.557,1.301c0.052,0.011,0.561,0.278,1.122,0.589c0.56,0.312,2.609,3.529,4.059,6.245
			l5.405,10.088c1.45,2.713,2.971,5.559,3.378,6.315c0.406,0.76,1.232,2.872,1.266,3.627C97.758,68.418,97.359,71.519,96.844,74.554
			z M105.307,41.903c0,0.238,0,0.238,0,0.238c-0.083,0.205-1.4,2.231-2.933,4.502c-1.528,2.271-6.874,6.215-8.327,3.499l-2.465-4.6
			c-1.454-2.719-2.681-5.003-2.723-5.083c-0.049-0.083,2.115-1.336,4.913-2.615l0.435-0.205c2.803-1.278,5.352-2.33,5.672-2.338
			c0.316-0.007,1.765,1.48,2.986,3.019c1.217,1.541,2.323,3.02,2.441,3.291C105.307,41.611,105.307,41.611,105.307,41.903z
			 M54.553,47.109c0.783,0.248,1.812-0.82,2.31-2.374c0.495-1.558,0.264-3.025-0.517-3.271c-0.777-0.248-1.812,0.816-2.305,2.373
			C53.543,45.395,53.773,46.861,54.553,47.109z M51.406,55.021c0.956,0,1.728-0.662,1.728-1.482c0-0.819-0.771-1.479-1.728-1.479
			c-0.953,0-1.729,0.659-1.729,1.479C49.678,54.359,50.453,55.021,51.406,55.021z M92.862,80.696
			c-1.221-0.609-2.701-0.112-3.309,1.105c-0.61,1.22-0.116,2.7,1.104,3.309c1.216,0.611,2.701,0.117,3.31-1.104
			C94.578,82.785,94.082,81.304,92.862,80.696z M91.134,78.653c0.812,0.127,1.669-1.082,1.923-2.697
			c0.253-1.617-0.195-3.034-1.006-3.157c-0.809-0.126-1.67,1.083-1.922,2.7C89.876,77.112,90.325,78.527,91.134,78.653z
			 M46.653,49.368c1.63,0,2.959-1.659,2.959-3.703c0-2.047-1.328-3.705-2.959-3.705c-1.637,0-2.966,1.658-2.966,3.705
			C43.688,47.709,45.017,49.368,46.653,49.368z M87.795,78.698c-0.854-0.426-1.847-0.176-2.206,0.556
			c-0.368,0.728,0.028,1.667,0.883,2.092c0.852,0.43,1.845,0.182,2.206-0.55C89.047,80.062,88.648,79.124,87.795,78.698z
			 M43.152,55.244c1.361,0,2.465-1.107,2.465-2.47c0-1.363-1.103-2.468-2.465-2.468c-1.364,0-2.469,1.103-2.469,2.468
			C40.684,54.137,41.788,55.244,43.152,55.244z"/>
	</g>
	<g>
		<path fill="#FFFFFF" d="M104.428,6.908H23.571c-9.936,0-17.993,8.061-17.993,18.005v1.6c0-9.945,8.058-18.006,17.993-18.006
			h80.856c9.938,0,17.994,8.061,17.994,18.006v-1.6C122.422,14.969,114.365,6.908,104.428,6.908z"/>
	</g>
	<path fill="#121F1D" d="M21.12,126.008h85.76c10.539,0,19.084-8.55,19.084-19.098v-7.334c0,10.548-8.545,19.098-19.084,19.098
		H21.12c-10.539,0-19.084-8.55-19.084-19.098v7.334C2.036,117.458,10.581,126.008,21.12,126.008z"/>
</g>
</svg>
