<?xml version="1.0" encoding="utf-8"?>
<!-- Generator: Adobe Illustrator 13.0.0, SVG Export Plug-In . SVG Version: 6.00 Build 14948)  -->
<!DOCTYPE svg PUBLIC "-//W3C//DTD SVG 1.1//EN" "http://www.w3.org/Graphics/SVG/1.1/DTD/svg11.dtd">
<svg version="1.1" id="Layer_1" xmlns="http://www.w3.org/2000/svg" xmlns:xlink="http://www.w3.org/1999/xlink" x="0px" y="0px"
	 width="128px" height="128px" viewBox="0 0 128 128" enable-background="new 0 0 128 128" xml:space="preserve">
<g>
	
		<linearGradient id="SVGID_1_" gradientUnits="userSpaceOnUse" x1="-183.2271" y1="-605.4165" x2="-183.2271" y2="-721.1553" gradientTransform="matrix(1 0 0 -1 246.7271 -588.7695)">
		<stop  offset="0" style="stop-color:#5F5D5C"/>
		<stop  offset="1" style="stop-color:#181500"/>
	</linearGradient>
	<path fill="url(#SVGID_1_)" d="M109.002,18.193H18c-9.342,0-16.914,7.572-16.914,16.91v67.376c0,9.343,7.572,16.915,16.914,16.915
		h91.002c9.34,0,16.912-7.572,16.912-16.915V35.103C125.914,25.767,118.342,18.193,109.002,18.193z"/>
	<g>
		<radialGradient id="SVGID_2_" cx="36.7881" cy="77.3691" r="28.002" gradientUnits="userSpaceOnUse">
			<stop  offset="0" style="stop-color:#FAFAFA"/>
			<stop  offset="0.4142" style="stop-color:#E3E3E3"/>
			<stop  offset="1" style="stop-color:#C7C7C7"/>
		</radialGradient>
		<path fill="url(#SVGID_2_)" d="M8.796,77.369c0-15.472,12.532-28.012,27.993-28.012c15.458,0,27.991,12.541,27.991,28.012
			c0,15.471-12.533,28.012-27.991,28.012C21.328,105.381,8.796,92.84,8.796,77.369L8.796,77.369z"/>
		<linearGradient id="SVGID_3_" gradientUnits="userSpaceOnUse" x1="49.4316" y1="63.1265" x2="49.4316" y2="77.7227">
			<stop  offset="0" style="stop-color:#99DBF6"/>
			<stop  offset="1" style="stop-color:#00B2DE"/>
		</linearGradient>
		<path fill="url(#SVGID_3_)" d="M42.138,70.426c0-4.031,3.265-7.299,7.295-7.299c4.026,0,7.293,3.268,7.293,7.299
			c0,4.033-3.267,7.297-7.293,7.297C45.402,77.723,42.138,74.459,42.138,70.426L42.138,70.426z"/>
		<path fill="#F2F2F2" d="M16.463,62.863c4.675-6.417,13.269-11.333,21.304-11.333c8.033,0,16.407,4.917,21.081,11.333h0.889
			c-4.954-7.553-12.994-12.495-22.08-12.495c-9.089,0-17.13,4.942-22.082,12.495H16.463z"/>
		<linearGradient id="SVGID_4_" gradientUnits="userSpaceOnUse" x1="36.9375" y1="100.0137" x2="36.9375" y2="87.5205">
			<stop  offset="0" style="stop-color:#00B2DE"/>
			<stop  offset="1" style="stop-color:#99DBF6"/>
		</linearGradient>
		<path fill="url(#SVGID_4_)" d="M58.133,87.521c-4.676,6.417-13.271,11.333-21.305,11.333c-8.033,0-16.407-4.916-21.083-11.333
			h-0.889c4.955,7.554,12.994,12.493,22.082,12.493s17.128-4.939,22.08-12.493H58.133z"/>
	</g>
	<g>
		<g>
			
				<linearGradient id="SVGID_5_" gradientUnits="userSpaceOnUse" x1="-145.3345" y1="-693.0664" x2="-172.2897" y2="-674.1921" gradientTransform="matrix(1 0 0 -1 246.7271 -588.7695)">
				<stop  offset="0.0824" style="stop-color:#C2C2C2"/>
				<stop  offset="0.2635" style="stop-color:#D2D2D2"/>
				<stop  offset="0.5594" style="stop-color:#E6E6E6"/>
				<stop  offset="0.7582" style="stop-color:#EDEDED"/>
			</linearGradient>
			<polygon fill="url(#SVGID_5_)" points="69.425,92.582 106.406,92.582 106.406,97.137 69.425,97.137 			"/>
		</g>
		<g>
			
				<linearGradient id="SVGID_6_" gradientUnits="userSpaceOnUse" x1="-134.0415" y1="-686.4121" x2="-170.0658" y2="-661.1877" gradientTransform="matrix(1 0 0 -1 246.7271 -588.7695)">
				<stop  offset="0.0824" style="stop-color:#C2C2C2"/>
				<stop  offset="0.2635" style="stop-color:#D2D2D2"/>
				<stop  offset="0.5594" style="stop-color:#E6E6E6"/>
				<stop  offset="0.7582" style="stop-color:#EDEDED"/>
			</linearGradient>
			<polygon fill="url(#SVGID_6_)" points="69.425,82.754 119.922,82.754 119.922,87.309 69.425,87.309 			"/>
			
				<linearGradient id="SVGID_7_" gradientUnits="userSpaceOnUse" x1="-145.335" y1="-673.4082" x2="-172.2894" y2="-654.5345" gradientTransform="matrix(1 0 0 -1 246.7271 -588.7695)">
				<stop  offset="0.0824" style="stop-color:#C2C2C2"/>
				<stop  offset="0.2635" style="stop-color:#D2D2D2"/>
				<stop  offset="0.5594" style="stop-color:#E6E6E6"/>
				<stop  offset="0.7582" style="stop-color:#EDEDED"/>
			</linearGradient>
			<polygon fill="url(#SVGID_7_)" points="69.425,72.926 106.406,72.926 106.406,77.479 69.425,77.479 			"/>
		</g>
	</g>
	
		<linearGradient id="SVGID_8_" gradientUnits="userSpaceOnUse" x1="-183.2271" y1="-609.1968" x2="-183.2271" y2="-630.772" gradientTransform="matrix(1 0 0 -1 246.7271 -588.7695)">
		<stop  offset="0" style="stop-color:#80E21B"/>
		<stop  offset="1" style="stop-color:#80B400"/>
	</linearGradient>
	<path fill="url(#SVGID_8_)" d="M107.616,20.427H19.388c-9.058,0-16.399,7.343-16.399,16.394v5.182h121.023V36.82
		C124.012,27.769,116.672,20.427,107.616,20.427z"/>
	<path opacity="0.5" fill="#FFFFFF" d="M20.622,24.101h86.031c7.447,0,13.686,5.099,15.463,11.987
		c-0.789-8.021-7.555-14.292-15.787-14.292H20.945c-8.235,0-15.002,6.271-15.791,14.294C6.932,29.202,13.173,24.101,20.622,24.101z"
		/>
</g>
</svg>
