<?xml version="1.0" encoding="utf-8"?>
<!-- Generator: Adobe Illustrator 13.0.0, SVG Export Plug-In . SVG Version: 6.00 Build 14948)  -->
<!DOCTYPE svg PUBLIC "-//W3C//DTD SVG 1.1//EN" "http://www.w3.org/Graphics/SVG/1.1/DTD/svg11.dtd">
<svg version="1.1" id="Layer_1" xmlns="http://www.w3.org/2000/svg" xmlns:xlink="http://www.w3.org/1999/xlink" x="0px" y="0px"
	 width="128px" height="128px" viewBox="0 0 128 128" enable-background="new 0 0 128 128" xml:space="preserve">
<g>
	<g>
		
			<linearGradient id="SVGID_1_" gradientUnits="userSpaceOnUse" x1="-350.9419" y1="712.7041" x2="-225.209" y2="712.7041" gradientTransform="matrix(0 1 -1 0 781.2617 351.8984)">
			<stop  offset="0" style="stop-color:#ECEEF0"/>
			<stop  offset="0.2485" style="stop-color:#E8E8E9"/>
			<stop  offset="0.5636" style="stop-color:#EEEFF2"/>
			<stop  offset="0.9212" style="stop-color:#D4D5D6"/>
		</linearGradient>
		<path fill="url(#SVGID_1_)" stroke="#B3B3B3" d="M120.959,108.941l-0.058-90.233c0-9.805-7.945-17.751-17.749-17.751H33.905
			c-9.803,0-17.75,7.946-17.75,17.751v90.233c0,9.803,7.947,17.748,17.75,17.748h69.305
			C113.016,126.689,120.959,118.744,120.959,108.941z"/>
		<path fill="#FFFFFF" d="M22.291,14.94c2.942-4.604,8.086-7.665,13.954-7.665h64.622c5.87,0,11.013,3.062,13.954,7.665h1.408
			c-2.447-6.09-8.396-10.394-15.362-10.394H36.245c-6.964,0-12.915,4.304-15.363,10.394H22.291z"/>
		<path fill="#B3B3B3" d="M103.002,122.293H34.285c-9.555,0-17.311-7.61-17.586-17.098c-0.008-0.045-0.021-0.089-0.029-0.135
			l0.003,4.367c0,9.73,7.884,17.615,17.612,17.615h68.717c9.727,0,17.613-7.885,17.613-17.615v-4.348
			c-0.007,0.041-0.02,0.08-0.026,0.121C120.311,114.686,112.553,122.293,103.002,122.293z"/>
		<g>
			<linearGradient id="SVGID_2_" gradientUnits="userSpaceOnUse" x1="25.8604" y1="31.5791" x2="17.5624" y2="25.7688">
				<stop  offset="0" style="stop-color:#9A9A9A"/>
				<stop  offset="1" style="stop-color:#DEDEDE"/>
			</linearGradient>
			<path fill="url(#SVGID_2_)" d="M26.775,28.677c0,2.795-2.268,5.061-5.065,5.061c-2.796,0-5.062-2.266-5.062-5.061
				c0-2.801,2.267-5.065,5.062-5.065C24.508,23.611,26.775,25.876,26.775,28.677z"/>
			<linearGradient id="SVGID_3_" gradientUnits="userSpaceOnUse" x1="25.8589" y1="45.6382" x2="17.5618" y2="39.8285">
				<stop  offset="0" style="stop-color:#9A9A9A"/>
				<stop  offset="1" style="stop-color:#DEDEDE"/>
			</linearGradient>
			<path fill="url(#SVGID_3_)" d="M26.775,42.737c0,2.795-2.268,5.06-5.065,5.06c-2.796,0-5.062-2.265-5.062-5.06
				c0-2.802,2.267-5.066,5.062-5.066C24.508,37.671,26.775,39.936,26.775,42.737z"/>
			<linearGradient id="SVGID_4_" gradientUnits="userSpaceOnUse" x1="25.8589" y1="59.6992" x2="17.5626" y2="53.8901">
				<stop  offset="0" style="stop-color:#9A9A9A"/>
				<stop  offset="1" style="stop-color:#DEDEDE"/>
			</linearGradient>
			<path fill="url(#SVGID_4_)" d="M26.775,56.797c0,2.795-2.268,5.061-5.065,5.061c-2.796,0-5.062-2.266-5.062-5.061
				c0-2.801,2.267-5.064,5.062-5.064C24.508,51.732,26.775,53.996,26.775,56.797z"/>
			<linearGradient id="SVGID_5_" gradientUnits="userSpaceOnUse" x1="25.8584" y1="73.7588" x2="17.5613" y2="67.9491">
				<stop  offset="0" style="stop-color:#9A9A9A"/>
				<stop  offset="1" style="stop-color:#DEDEDE"/>
			</linearGradient>
			<path fill="url(#SVGID_5_)" d="M26.775,70.855c0,2.797-2.268,5.061-5.065,5.061c-2.796,0-5.062-2.264-5.062-5.061
				c0-2.799,2.267-5.062,5.062-5.062C24.508,65.793,26.775,68.057,26.775,70.855z"/>
			<linearGradient id="SVGID_6_" gradientUnits="userSpaceOnUse" x1="25.8589" y1="87.8184" x2="17.5626" y2="82.0092">
				<stop  offset="0" style="stop-color:#9A9A9A"/>
				<stop  offset="1" style="stop-color:#DEDEDE"/>
			</linearGradient>
			<path fill="url(#SVGID_6_)" d="M26.775,84.916c0,2.797-2.268,5.06-5.065,5.06c-2.796,0-5.062-2.263-5.062-5.06
				c0-2.8,2.267-5.062,5.062-5.062C24.508,79.854,26.775,82.116,26.775,84.916z"/>
			<linearGradient id="SVGID_7_" gradientUnits="userSpaceOnUse" x1="25.8589" y1="101.8789" x2="17.5618" y2="96.0692">
				<stop  offset="0" style="stop-color:#9A9A9A"/>
				<stop  offset="1" style="stop-color:#DEDEDE"/>
			</linearGradient>
			<path fill="url(#SVGID_7_)" d="M26.775,98.974c0,2.8-2.268,5.063-5.065,5.063c-2.796,0-5.062-2.264-5.062-5.063
				c0-2.796,2.267-5.062,5.062-5.062C24.508,93.912,26.775,96.178,26.775,98.974z"/>
		</g>
		<linearGradient id="SVGID_8_" gradientUnits="userSpaceOnUse" x1="10.6216" y1="34.2085" x2="21.6911" y2="23.139">
			<stop  offset="0" style="stop-color:#E20A16"/>
			<stop  offset="1" style="stop-color:#B51015"/>
		</linearGradient>
		<path fill="url(#SVGID_8_)" d="M25.77,28.673c0,1.94-1.573,3.516-3.514,3.516H10.057c-1.94,0-3.516-1.575-3.516-3.516l0,0
			c0-1.942,1.575-3.512,3.516-3.512h12.199C24.196,25.161,25.77,26.73,25.77,28.673L25.77,28.673z"/>
		<linearGradient id="SVGID_9_" gradientUnits="userSpaceOnUse" x1="10.6211" y1="48.2686" x2="21.6906" y2="37.1991">
			<stop  offset="0" style="stop-color:#E20A16"/>
			<stop  offset="1" style="stop-color:#B51015"/>
		</linearGradient>
		<path fill="url(#SVGID_9_)" d="M25.77,42.732c0,1.94-1.573,3.517-3.514,3.517H10.057c-1.94,0-3.516-1.576-3.516-3.517l0,0
			c0-1.942,1.575-3.511,3.516-3.511h12.199C24.196,39.222,25.77,40.79,25.77,42.732L25.77,42.732z"/>
		<linearGradient id="SVGID_10_" gradientUnits="userSpaceOnUse" x1="10.6211" y1="62.3301" x2="21.691" y2="51.2601">
			<stop  offset="0" style="stop-color:#E20A16"/>
			<stop  offset="1" style="stop-color:#B51015"/>
		</linearGradient>
		<path fill="url(#SVGID_10_)" d="M25.77,56.795c0,1.939-1.573,3.516-3.514,3.516H10.057c-1.94,0-3.516-1.576-3.516-3.516l0,0
			c0-1.944,1.575-3.514,3.516-3.514h12.199C24.196,53.281,25.77,54.851,25.77,56.795L25.77,56.795z"/>
		<linearGradient id="SVGID_11_" gradientUnits="userSpaceOnUse" x1="10.6211" y1="76.3896" x2="21.6906" y2="65.3202">
			<stop  offset="0" style="stop-color:#E20A16"/>
			<stop  offset="1" style="stop-color:#B51015"/>
		</linearGradient>
		<path fill="url(#SVGID_11_)" d="M25.77,70.855c0,1.939-1.573,3.514-3.514,3.514H10.057c-1.94,0-3.516-1.574-3.516-3.514l0,0
			c0-1.943,1.575-3.514,3.516-3.514h12.199C24.196,67.342,25.77,68.912,25.77,70.855L25.77,70.855z"/>
		<linearGradient id="SVGID_12_" gradientUnits="userSpaceOnUse" x1="10.6216" y1="90.4492" x2="21.6912" y2="79.3796">
			<stop  offset="0" style="stop-color:#E20A16"/>
			<stop  offset="1" style="stop-color:#B51015"/>
		</linearGradient>
		<path fill="url(#SVGID_12_)" d="M25.77,84.912c0,1.943-1.573,3.516-3.514,3.516H10.057c-1.94,0-3.516-1.572-3.516-3.516l0,0
			c0-1.939,1.575-3.513,3.516-3.513h12.199C24.196,81.399,25.77,82.973,25.77,84.912L25.77,84.912z"/>
		<linearGradient id="SVGID_13_" gradientUnits="userSpaceOnUse" x1="10.6206" y1="104.5088" x2="21.691" y2="93.4384">
			<stop  offset="0" style="stop-color:#E20A16"/>
			<stop  offset="1" style="stop-color:#B51015"/>
		</linearGradient>
		<path fill="url(#SVGID_13_)" d="M25.77,98.973c0,1.943-1.573,3.516-3.514,3.516H10.057c-1.94,0-3.516-1.572-3.516-3.516l0,0
			c0-1.941,1.575-3.514,3.516-3.514h12.199C24.196,95.459,25.77,97.031,25.77,98.973L25.77,98.973z"/>
	</g>
	
		<linearGradient id="SVGID_14_" gradientUnits="userSpaceOnUse" x1="-339.4009" y1="842.5791" x2="-339.4009" y2="918.0049" gradientTransform="matrix(1 0 0 1 412.6201 -813.9912)">
		<stop  offset="0" style="stop-color:#E20A16"/>
		<stop  offset="1" style="stop-color:#B51015"/>
	</linearGradient>
	<path fill="url(#SVGID_14_)" d="M68.298,29.283c-2.149,1.311-3.131,4.178-3.131,7.031c0,1.117,0.153,2.23,0.438,3.252
		c1.672,5.969,3.536,11.4,5.612,16.342c-0.328,2.52-0.731,5.01-1.222,7.452c-1.018,5.125-2.606,11.516-5.409,17.654
		c-0.918,0.418-1.841,0.838-1.841,0.838c-6.401,2.865-13.657,6.111-18.457,11.139c-1.327,1.391-2.03,3.117-2.03,4.822
		c0,0.744,0.133,1.484,0.405,2.191c0.902,2.312,3.066,3.809,5.794,3.991c4.276,0.286,7.983-3.271,10.434-5.625l0.578-0.554
		c3.945-3.735,6.901-8.146,9.185-12.715c0.035-0.016,0.267-0.121,0.267-0.121c5.598-2.631,11.344-4.885,15.723-6.553l0.003-0.002
		c0.09-0.033,0.157-0.053,0.247-0.086c1.248,1.457,2.675,2.955,4.566,3.975c3.151,1.697,9.088,1.679,12.319-0.891
		c2.097-1.666,2.869-4.195,2.123-6.938c-0.422-1.53-1.416-2.732-2.884-3.479c-3.395-1.726-9.116-0.652-14.325,0.993
		c-3.759-4.721-7.063-10.35-9.957-16.994c0.241-2.063,0.476-4.129,0.612-6.214l0.453-3.391c0.33-2.065,0.694-4.351,0.694-6.578
		c0-2.994-0.657-5.888-2.942-8.021C72.074,27.559,69.322,28.658,68.298,29.283L68.298,29.283z M70.81,38.102
		c-0.17-0.598-0.235-1.2-0.235-1.756c0-1.002,0.218-1.832,0.437-2.244c0.188,0.103,0.47,0.291,0.856,0.656
		c0.922,0.86,1.224,2.364,1.224,4.098c0,1.607-0.265,3.396-0.526,5.062C71.955,42.039,71.369,40.107,70.81,38.102L70.81,38.102z
		 M75.298,64.427c1.862,3.457,3.869,6.617,6.024,9.492c-2.869,1.104-6.155,2.407-9.608,3.895
		C73.398,73.034,74.513,68.374,75.298,64.427L75.298,64.427z M98.691,75.903c0.235,0.889-0.035,1.102-0.274,1.293
		c-1.351,1.076-4.964,1.135-6.394,0.363c-0.492-0.267-0.953-0.635-1.402-1.041C95.373,75.286,98.179,75.376,98.691,75.903
		L98.691,75.903z M48.822,98.604c-0.578-0.039-0.998-0.248-1.119-0.557c-0.026-0.076-0.041-0.158-0.041-0.248
		c0-0.32,0.191-0.713,0.539-1.078c2.933-3.07,7.257-5.49,11.67-7.604c-1.239,1.685-2.567,3.312-4.116,4.776l-0.606,0.58
		C53.49,96.067,50.718,98.731,48.822,98.604L48.822,98.604z"/>
</g>
</svg>
