<?xml version="1.0"?>
<!DOCTYPE svg PUBLIC "-//W3C//DTD SVG 1.0//EN"
	"http://www.w3.org/TR/2001/REC-SVG-20010904/DTD/svg10.dtd">
<svg xmlns:x="http://ns.adobe.com/Extensibility/1.0/"
	xmlns:i="http://ns.adobe.com/AdobeIllustrator/10.0/" xmlns:graph=""
	xmlns="http://www.w3.org/2000/svg" xmlns:xlink="http://www.w3.org/1999/xlink"
	xmlns:a="http://ns.adobe.com/AdobeSVGViewerExtensions/3.0/" width="122"
	height="126" viewBox="0.241 -0.166 122 126" overflow="visible"
	enable-background="new 0.241 -0.166 122 126" xml:space="preserve">
	<g id="Layer_1_2_">
		<path d="M103.667 85.266 L87.92 93.439 L90.343 99.117 L107.063 90.49 z"
			 style="fill-rule:evenodd;clip-rule:evenodd;fill:rgb(255,255,255)"/>
		<g>
			<linearGradient id="XMLID_1_" gradientUnits="userSpaceOnUse" x1="83.4604"
				y1="71.6997" x2="-19.887" y2="-17.846">
				<stop offset="0" style="stop-color:rgb(0,50,164)"/>
				<stop offset="1" style="stop-color:rgb(57,149,229)"/>
			</linearGradient>
			<path
				d="M61.34 0 C27.517 0 0 18.639 0 41.552 C0 57.782 13.839 72.394 35.396 79.198 C34.22
					82.136 27.208 99.676 27.208 99.676 C27.123 99.884 27.083 100.104 27.083 100.321
					C27.083 100.819 27.3 101.308 27.699 101.644 C28.268 102.126 29.083 102.191
					29.721 101.802 C29.721 101.802 59.553 83.6 60.376 83.097 C60.808 83.098
					61.341 83.104 61.341 83.104 C95.164 83.104 122.681 64.463 122.681 41.553
					C122.68 18.639 95.164 0 61.34 0 zM61.34 80.501 C60.87 80.501 60.403 80.495
					59.935 80.488 L29.744 98.91 L38.37 77.336 C17.815 71.394 3.434 57.729 3.434
					41.817 C3.434 20.455 29.36 3.137 61.34 3.137 C93.322 3.137 119.244 20.455
					119.244 41.817 C119.245 63.18 93.323 80.501 61.34 80.501 z"
				 style="fill:url(#XMLID_1_)"/>
			<radialGradient id="XMLID_2_" cx="-451.426" cy="87.4927" r="152.422"
				fx="-451.426" fy="87.4927" gradientTransform="matrix(1 0 0 1 509.121 0)"
				gradientUnits="userSpaceOnUse">
				<stop offset="0.0056" style="stop-color:rgb(255,255,255)"/>
				<stop offset="0.4438" style="stop-color:rgb(169,230,255)"/>
				<stop offset="1" style="stop-color:rgb(3,76,254)"/>
				<a:midPointStop offset="0.0056" style="stop-color:#FFFFFF"/>
				<a:midPointStop offset="0.5" style="stop-color:#FFFFFF"/>
				<a:midPointStop offset="0.4438" style="stop-color:#A9E6FF"/>
				<a:midPointStop offset="0.5" style="stop-color:#A9E6FF"/>
				<a:midPointStop offset="1" style="stop-color:#034CFE"/>
			</radialGradient>
			<path
				d="M61.34 2.414 C28.876 2.414 2.557 19.994 2.557 41.681 C2.557 57.834 17.157 71.706
					38.023 77.738 L29.265 99.637 L59.913 80.939 C60.387 80.943 60.865 80.95 61.34
					80.95 C93.805 80.95 120.122 63.367 120.122 41.681 C120.123 19.994 93.805
					2.414 61.34 2.414 z"
				 style="fill:url(#XMLID_2_)"/>
			<radialGradient id="XMLID_3_" cx="-451.238" cy="81.4409" r="144.242"
				fx="-451.238" fy="81.4409" gradientTransform="matrix(1 0 0 1 509.121 0)"
				gradientUnits="userSpaceOnUse">
				<stop offset="0.0056" style="stop-color:rgb(255,255,255)"/>
				<stop offset="0.2584" style="stop-color:rgb(169,230,255)"/>
				<stop offset="1" style="stop-color:rgb(3,76,254)"/>
				<a:midPointStop offset="0.0056" style="stop-color:#FFFFFF"/>
				<a:midPointStop offset="0.5" style="stop-color:#FFFFFF"/>
				<a:midPointStop offset="0.2584" style="stop-color:#A9E6FF"/>
				<a:midPointStop offset="0.5" style="stop-color:#A9E6FF"/>
				<a:midPointStop offset="1" style="stop-color:#034CFE"/>
			</radialGradient>
			<path
				d="M61.34 5.453 C30.602 5.453 5.596 21.706 5.596 41.681 C5.596 55.971 18.655 68.974
					38.867 74.819 C39.691 75.054 40.377 75.632 40.753 76.402 C40.959 76.822 41.063
					77.279 41.063 77.738 C41.063 78.12 40.99 78.501 40.845 78.867 C40.845 78.867
					38.025 85.919 35.477 92.288 C44.146 86.999 58.33 78.345 58.33 78.345
					C58.815 78.049 59.384 77.895 59.95 77.898 L61.34 77.912 C92.076 77.912 117.082
					61.659 117.082 41.683 C117.083 21.706 92.077 5.453 61.34 5.453 z"
				 style="fill:url(#XMLID_3_)"/>
			<linearGradient id="XMLID_4_" gradientUnits="userSpaceOnUse" x1="-26.3623"
				y1="5.4272" x2="-26.3623" y2="56.8749"
				gradientTransform="matrix(1 0 0 1 85.6035 0)">
				<stop offset="5.74713%" style="stop-color:rgb(255,255,255)"/>
				<stop offset="100%" style="stop-opacity:0;stop-color:rgb(255,255,255)"/>
			</linearGradient>
			<path a:adobe-blending-mode="screen"
				d="M63.588 45.193 C83.025 34.324 101.48 29.48 112.57 27.377 C104.451 13.731 84.515 4.077
					61.192 4.077 C30.662 4.077 5.91 20.611 5.91 41.006 C5.91 46.469 7.694
					51.65 10.882 56.317 C22.114 57.292 42.696 56.876 63.588 45.193 z"
				 style="fill:url(#XMLID_4_)"/>
		</g>
		<g>
			<linearGradient id="XMLID_5_" gradientUnits="userSpaceOnUse" x1="88.9399"
				y1="66.8501" x2="88.0739" y2="156.319"
				gradientTransform="matrix(0.9999 -0.0138 0.0138 0.9999 -9.362 7.5474)">
				<stop offset="0" style="stop-color:rgb(255,167,0)"/>
				<stop offset="0.691" style="stop-color:rgb(255,255,0)"/>
				<stop offset="0.792" style="stop-color:rgb(255,252,0)"/>
				<stop offset="0.8546" style="stop-color:rgb(255,244,0)"/>
				<stop offset="0.9067" style="stop-color:rgb(255,229,0)"/>
				<stop offset="0.953" style="stop-color:rgb(255,209,0)"/>
				<stop offset="0.9952" style="stop-color:rgb(255,183,0)"/>
				<stop offset="1" style="stop-color:rgb(255,179,0)"/>
				<a:midPointStop offset="0" style="stop-color:#FFA700"/>
				<a:midPointStop offset="0.5" style="stop-color:#FFA700"/>
				<a:midPointStop offset="0.691" style="stop-color:#FFFF00"/>
				<a:midPointStop offset="0.7952" style="stop-color:#FFFF00"/>
				<a:midPointStop offset="1" style="stop-color:#FFB300"/>
			</linearGradient>
			<path
				d="M102.046 95.699 C98.261 91.956 90.463 87.662 90.431 87.643 C90.666 87.64 97.754 87.41
					101.34 86.852 C106.824 85.998 112.545 82.397 112.545 82.397 L108.135 68.202
					C108.135 68.202 99.153 70.909 93.441 71.372 C91.251 71.549 87.798 68.684
					86.136 66.838 C83.398 63.794 79.407 63.56 76.205 66.253 C74.749 67.477
					70.072 73.108 68.701 79.468 C68.165 81.957 68.009 84.501 68.041 86.787 C68.084
					89.972 68.489 92.633 68.729 93.96 C67.333 95.707 63.245 100.554 58.84 103.292
					C55.722 105.228 45.529 107.665 45.529 107.665 L53.427 123.939 C53.427
					123.939 62.242 122.371 69.438 116.85 C72.412 114.571 77.182 110.511 83.122
					104.117 C84.631 104.769 88.332 106.947 92.006 110.568 C95.93 114.437 101.054
					122.079 101.054 122.079 C101.142 122.05 115.762 112.848 115.762 112.848
					C115.762 112.848 109.103 102.677 102.046 95.699 z"
				 style="fill:url(#XMLID_5_)"/>
			<path
				d="M74.984 64.797 C73.333 66.185 68.338 72.145 66.845 79.066 C66.34 81.408 66.104 84.015
					66.143 86.813 C66.181 89.563 66.474 91.903 66.718 93.422 C65.139 95.325
					61.556 99.367 57.838 101.678 C55.496 103.132 47.84 105.16 45.087 105.82 C44.528
					105.952 44.059 106.333 43.813 106.853 C43.688 107.118 43.627 107.406
					43.631 107.692 C43.634 107.965 43.699 108.24 43.821 108.495 L51.72 124.768
					C52.091 125.534 52.925 125.956 53.761 125.809 C54.138 125.741 63.119 124.094
					70.595 118.356 C73.427 116.187 77.924 112.368 83.525 106.452 C85.143 107.362
					87.88 109.168 90.673 111.92 C94.413 115.609 99.426 123.062 99.477 123.138
					C99.956 123.853 100.857 124.158 101.673 123.873 C101.962 123.774 101.967
					123.773 116.774 114.453 C117.205 114.182 117.509 113.749 117.617 113.252
					C117.648 113.109 117.663 112.964 117.661 112.819 C117.655 112.463 117.55 112.111
					117.351 111.808 C117.075 111.384 110.498 101.387 103.383 94.348 C101.595
					92.58 99.025 90.737 96.71 89.225 C98.474 89.1 100.279 88.938 101.632 88.727
					C107.438 87.824 113.309 84.157 113.556 84.002 C114.126 83.644 114.452
					83.018 114.443 82.37 C114.441 82.19 114.414 82.011 114.358 81.832 L109.951
					67.639 C109.642 66.644 108.587 66.084 107.59 66.383 C107.503 66.41 98.732 69.034
					93.288 69.477 C92.225 69.565 89.435 67.664 87.548 65.567 C84.129 61.767
					78.962 61.451 74.984 64.797 zM59.841 104.904 C64.446 102.044 68.627 97.127
					70.211 95.144 C70.488 94.8 70.634 94.37 70.627 93.933 C70.627 93.829 70.615
					93.724 70.597 93.62 C70.369 92.363 69.982 89.805 69.939 86.762 C69.906
					84.248 70.113 81.93 70.557 79.866 C71.835 73.935 76.284 68.665 77.427 67.704
					C79.862 65.657 82.658 65.809 84.725 68.106 C84.924 68.331 89.697 73.58 93.594
					73.264 C97.927 72.91 103.907 71.364 106.874 70.54 C107.618 72.938 109.656
					79.501 110.28 81.51 C108.384 82.553 104.62 84.418 101.048 84.977 C97.812
					85.481 91.177 85.73 90.399 85.744 C89.542 85.762 88.8 86.353 88.594 87.188
					C88.555 87.348 88.535 87.51 88.537 87.67 C88.547 88.339 88.91 88.972 89.516
					89.306 C89.828 89.479 97.2 93.578 100.712 97.049 C105.904 102.185 110.941
					109.184 113.086 112.286 C108.973 114.874 104.021 117.986 101.588 119.511
					C99.863 117.044 96.316 112.153 93.337 109.216 C89.419 105.353 85.545 103.098
					83.874 102.374 C83.138 102.055 82.277 102.233 81.729 102.824 C75.838 109.165
					71.165 113.133 68.281 115.345 C63.187 119.253 57.143 121.09 54.477 121.758
					C53.528 119.802 49.653 111.82 48.253 108.936 C51.562 108.073 57.407 106.415
					59.841 104.904 z"/>
			<linearGradient id="XMLID_6_" gradientUnits="userSpaceOnUse" x1="88.6011"
				y1="59.8999" x2="88.6011" y2="108.201"
				gradientTransform="matrix(0.9999 -0.0138 0.0138 0.9999 -9.362 7.5474)">
				<stop offset="0.0056" style="stop-color:rgb(255,255,255)"/>
				<stop offset="0.1471" style="stop-color:rgb(255,250,225)"/>
				<stop offset="0.4562" style="stop-color:rgb(255,238,148)"/>
				<stop offset="0.9069" style="stop-color:rgb(255,219,26)"/>
				<stop offset="1" style="stop-color:rgb(255,215,0)"/>
				<a:midPointStop offset="0.0056" style="stop-color:#FFFFFF"/>
				<a:midPointStop offset="0.5311" style="stop-color:#FFFFFF"/>
				<a:midPointStop offset="1" style="stop-color:#FFD700"/>
			</linearGradient>
			<path
				d="M88.461 90.844 C87.162 90.124 86.387 88.776 86.367 87.344 C86.361 87 86.401 86.655
					86.485 86.31 C86.923 84.526 88.509 83.256 90.348 83.214 C91.206 83.193 97.615
					82.951 100.707 82.469 C103.174 82.086 105.78 80.994 107.667 80.064 C106.884
					77.546 106.292 75.641 105.414 72.815 C102.133 73.67 97.41 74.768 93.765
					75.064 C88.992 75.451 84.048 70.244 83.106 69.197 C81.498 67.409 79.887
					68.105 78.819 69.003 C77.879 69.794 73.799 74.735 72.672 79.964 C72.263 81.865
					72.07 84.022 72.104 86.37 C72.145 89.255 72.511 91.683 72.727 92.873 C72.768
					93.096 72.79 93.319 72.792 93.542 C72.806 94.478 72.494 95.398 71.901
					96.139 C70.247 98.208 65.871 103.348 60.98 106.385 C58.877 107.691 54.724
					109.03 51.345 109.983 C53.053 113.503 54.355 116.185 55.637 118.827 C58.524
					117.961 63.053 116.258 66.957 113.263 C69.774 111.104 74.347 107.22 80.135
					100.989 C81.308 99.724 83.15 99.339 84.734 100.024 C86.542 100.806 90.709
					103.224 94.855 107.312 C97.362 109.782 100.224 113.541 102.166 116.226 C104.304
					114.883 107.217 113.052 109.993 111.306 C107.512 107.837 103.389 102.394
					99.18 98.232 C96.541 95.619 91.014 92.256 88.461 90.844 z"
				 style="fill:url(#XMLID_6_)"/>
			<linearGradient id="XMLID_7_" gradientUnits="userSpaceOnUse" x1="98.6538"
				y1="33.2959" x2="98.6538" y2="59.6152"
				gradientTransform="matrix(0.9999 -0.0138 0.0138 0.9999 -9.362 7.5474)">
				<stop offset="0" style="stop-color:rgb(255,167,0)"/>
				<stop offset="0.691" style="stop-color:rgb(255,255,0)"/>
				<stop offset="0.792" style="stop-color:rgb(255,252,0)"/>
				<stop offset="0.8546" style="stop-color:rgb(255,244,0)"/>
				<stop offset="0.9067" style="stop-color:rgb(255,229,0)"/>
				<stop offset="0.953" style="stop-color:rgb(255,209,0)"/>
				<stop offset="0.9952" style="stop-color:rgb(255,183,0)"/>
				<stop offset="1" style="stop-color:rgb(255,179,0)"/>
				<a:midPointStop offset="0" style="stop-color:#FFA700"/>
				<a:midPointStop offset="0.5" style="stop-color:#FFA700"/>
				<a:midPointStop offset="0.691" style="stop-color:#FFFF00"/>
				<a:midPointStop offset="0.7952" style="stop-color:#FFFF00"/>
				<a:midPointStop offset="1" style="stop-color:#FFB300"/>
			</linearGradient>
			<path
				d="M89.63 31.42 C81.381 31.534 74.765 38.336 74.879 46.583 C74.993 54.83 81.795 61.448
					90.043 61.332 C98.291 61.218 104.906 54.416 104.793 46.169 C104.679 37.922
					97.876 31.304 89.63 31.42 z"
				 style="fill:url(#XMLID_7_)"/>
			<path
				d="M72.981 46.607 C73.109 55.902 80.776 63.359 90.07 63.231 C99.364 63.102 106.82 55.437
					106.692 46.142 C106.563 36.849 98.898 29.392 89.604 29.52 C80.309 29.65
					72.851 37.315 72.981 46.607 zM76.776 46.556 C76.678 39.356 82.456 33.416
					89.656 33.318 C96.856 33.217 102.796 38.995 102.895 46.195 C102.995 53.396
					97.217 59.334 90.016 59.435 C82.816 59.533 76.877 53.757 76.776 46.556 z"/>
			<linearGradient id="XMLID_8_" gradientUnits="userSpaceOnUse" x1="98.563"
				y1="28.5513" x2="98.563" y2="42.4711"
				gradientTransform="matrix(0.9999 -0.0138 0.0138 0.9999 -9.362 7.5474)">
				<stop offset="0.0056" style="stop-color:rgb(255,255,255)"/>
				<stop offset="0.1471" style="stop-color:rgb(255,250,225)"/>
				<stop offset="0.4562" style="stop-color:rgb(255,238,148)"/>
				<stop offset="0.9069" style="stop-color:rgb(255,219,26)"/>
				<stop offset="1" style="stop-color:rgb(255,215,0)"/>
				<a:midPointStop offset="0.0056" style="stop-color:#FFFFFF"/>
				<a:midPointStop offset="0.5311" style="stop-color:#FFFFFF"/>
				<a:midPointStop offset="1" style="stop-color:#FFD700"/>
			</linearGradient>
			<path
				d="M90.167 46.994 C94.653 43.584 98.897 42.391 100.759 42.006 C98.903 37.977 94.808
					35.206 90.088 35.271 C83.701 35.358 78.594 40.609 78.683 46.997 C78.697 47.999
					78.838 48.973 79.092 49.897 C80.969 50.218 85.557 50.502 90.167 46.994 z"
				 style="fill:url(#XMLID_8_)"/>
		</g>
	</g>
</svg>
