<?xml version="1.0" encoding="utf-8"?>
<!-- Generator: Adobe Illustrator 13.0.0, SVG Export Plug-In . SVG Version: 6.00 Build 14948)  -->
<!DOCTYPE svg PUBLIC "-//W3C//DTD SVG 1.1//EN" "http://www.w3.org/Graphics/SVG/1.1/DTD/svg11.dtd">
<svg version="1.1" id="Layer_1" xmlns="http://www.w3.org/2000/svg" xmlns:xlink="http://www.w3.org/1999/xlink" x="0px" y="0px"
	 width="128px" height="128px" viewBox="0 0 128 128" enable-background="new 0 0 128 128" xml:space="preserve">
<g>
	<linearGradient id="SVGID_1_" gradientUnits="userSpaceOnUse" x1="64" y1="9.9473" x2="64" y2="121.7466">
		<stop  offset="0" style="stop-color:#D5D7D8"/>
		<stop  offset="1" style="stop-color:#5C5F61"/>
	</linearGradient>
	<path fill="url(#SVGID_1_)" d="M112.346,104.625c0,9.455-7.669,17.121-17.122,17.121H32.776c-9.455,0-17.121-7.666-17.121-17.121
		V27.07c0-9.457,7.666-17.123,17.121-17.123h62.448c9.453,0,17.122,7.666,17.122,17.123V104.625z"/>
	<path opacity="0.26" fill="#CCCCCC" d="M93.81,13.311H34.188c-9.025,0-16.348,7.32-16.348,16.348v0.623h1.334
		c2.506-5.812,8.283-9.885,15.014-9.885H93.81c6.732,0,12.508,4.072,15.016,9.885h1.333v-0.623
		C110.158,20.631,102.84,13.311,93.81,13.311z"/>
	<path opacity="0.25" fill="#666666" d="M47.679,77.279c-11.428,0-22.26-1.33-32.024-3.705v31.051
		c0,9.455,7.666,17.121,17.121,17.121h62.448c9.453,0,17.122-7.666,17.122-17.121V58.668C98.482,69.879,74.7,77.279,47.679,77.279z"
		/>
	<path fill="#666666" d="M32.778,121.746h62.446c9.457,0,17.122-7.666,17.122-17.121V99.99c0,9.457-7.665,17.125-17.122,17.125
		H32.778c-9.457,0-17.121-7.668-17.121-17.125v4.635C15.657,114.08,23.321,121.746,32.778,121.746z"/>
	<path fill="#595959" d="M32.656,121.154h62c9.389,0,17-7.611,17-17v-4.602c0,9.389-7.611,17-17,17h-62c-9.389,0-17-7.611-17-17
		v4.602C15.656,113.543,23.267,121.154,32.656,121.154z"/>
	<g>
		<g>
			
				<linearGradient id="SVGID_2_" gradientUnits="userSpaceOnUse" x1="-374.8398" y1="917.1445" x2="-384.7337" y2="910.2168" gradientTransform="matrix(1 0 0 1 412.6201 -813.9912)">
				<stop  offset="0" style="stop-color:#DEDEDE"/>
				<stop  offset="1" style="stop-color:#FEFEFE"/>
			</linearGradient>
			<path fill="url(#SVGID_2_)" d="M38.574,101.734c0,0.5-0.406,0.906-0.908,0.906h-9.664c-0.502,0-0.907-0.406-0.907-0.906v-4.092
				c0-0.5,0.405-0.905,0.907-0.905h9.664c0.5,0,0.908,0.405,0.908,0.905V101.734z"/>
			
				<linearGradient id="SVGID_3_" gradientUnits="userSpaceOnUse" x1="-360.9009" y1="917.1445" x2="-370.7947" y2="910.2168" gradientTransform="matrix(1 0 0 1 412.6201 -813.9912)">
				<stop  offset="0" style="stop-color:#DEDEDE"/>
				<stop  offset="1" style="stop-color:#FEFEFE"/>
			</linearGradient>
			<path fill="url(#SVGID_3_)" d="M52.513,101.734c0,0.5-0.407,0.906-0.907,0.906H41.94c-0.499,0-0.907-0.406-0.907-0.906v-4.092
				c0-0.5,0.408-0.905,0.907-0.905h9.666c0.5,0,0.907,0.405,0.907,0.905V101.734z"/>
			
				<linearGradient id="SVGID_4_" gradientUnits="userSpaceOnUse" x1="-346.9624" y1="917.1436" x2="-356.8539" y2="910.2176" gradientTransform="matrix(1 0 0 1 412.6201 -813.9912)">
				<stop  offset="0" style="stop-color:#FF1F00"/>
				<stop  offset="1" style="stop-color:#FF9D00"/>
			</linearGradient>
			<path fill="url(#SVGID_4_)" d="M66.45,101.734c0,0.5-0.404,0.906-0.904,0.906H55.88c-0.502,0-0.906-0.406-0.906-0.906v-4.092
				c0-0.5,0.404-0.905,0.906-0.905h9.664c0.5,0,0.906,0.405,0.906,0.905V101.734L66.45,101.734z"/>
			
				<linearGradient id="SVGID_5_" gradientUnits="userSpaceOnUse" x1="-333.0225" y1="917.1436" x2="-342.9147" y2="910.217" gradientTransform="matrix(1 0 0 1 412.6201 -813.9912)">
				<stop  offset="0" style="stop-color:#DEDEDE"/>
				<stop  offset="1" style="stop-color:#FEFEFE"/>
			</linearGradient>
			<path fill="url(#SVGID_5_)" d="M80.391,101.734c0,0.5-0.406,0.906-0.908,0.906h-9.663c-0.501,0-0.906-0.406-0.906-0.906v-4.092
				c0-0.5,0.405-0.905,0.906-0.905h9.663c0.502,0,0.908,0.405,0.908,0.905V101.734z"/>
		</g>
		<g>
			
				<linearGradient id="SVGID_6_" gradientUnits="userSpaceOnUse" x1="-374.8398" y1="926.3281" x2="-384.7337" y2="919.4005" gradientTransform="matrix(1 0 0 1 412.6201 -813.9912)">
				<stop  offset="0" style="stop-color:#DEDEDE"/>
				<stop  offset="1" style="stop-color:#FEFEFE"/>
			</linearGradient>
			<path fill="url(#SVGID_6_)" d="M38.574,110.918c0,0.502-0.406,0.907-0.908,0.907h-9.664c-0.502,0-0.907-0.405-0.907-0.907v-4.09
				c0-0.501,0.405-0.908,0.907-0.908h9.664c0.5,0,0.908,0.407,0.908,0.908V110.918z"/>
			
				<linearGradient id="SVGID_7_" gradientUnits="userSpaceOnUse" x1="-360.8999" y1="926.3291" x2="-370.7938" y2="919.4014" gradientTransform="matrix(1 0 0 1 412.6201 -813.9912)">
				<stop  offset="0" style="stop-color:#FF1F00"/>
				<stop  offset="1" style="stop-color:#FF9D00"/>
			</linearGradient>
			<path fill="url(#SVGID_7_)" d="M52.513,110.918c0,0.502-0.407,0.907-0.907,0.907H41.94c-0.499,0-0.907-0.405-0.907-0.907v-4.09
				c0-0.501,0.408-0.908,0.907-0.908h9.666c0.5,0,0.907,0.407,0.907,0.908V110.918z"/>
			
				<linearGradient id="SVGID_8_" gradientUnits="userSpaceOnUse" x1="-346.9614" y1="926.3281" x2="-356.8537" y2="919.4016" gradientTransform="matrix(1 0 0 1 412.6201 -813.9912)">
				<stop  offset="0" style="stop-color:#DEDEDE"/>
				<stop  offset="1" style="stop-color:#FEFEFE"/>
			</linearGradient>
			<path fill="url(#SVGID_8_)" d="M66.45,110.918c0,0.502-0.404,0.907-0.904,0.907H55.88c-0.502,0-0.906-0.405-0.906-0.907v-4.09
				c0-0.501,0.404-0.908,0.906-0.908h9.664c0.5,0,0.906,0.407,0.906,0.908V110.918L66.45,110.918z"/>
			
				<linearGradient id="SVGID_9_" gradientUnits="userSpaceOnUse" x1="-333.0225" y1="926.3281" x2="-342.9147" y2="919.4016" gradientTransform="matrix(1 0 0 1 412.6201 -813.9912)">
				<stop  offset="0" style="stop-color:#DEDEDE"/>
				<stop  offset="1" style="stop-color:#FEFEFE"/>
			</linearGradient>
			<path fill="url(#SVGID_9_)" d="M80.391,110.918c0,0.502-0.406,0.907-0.908,0.907h-9.663c-0.501,0-0.906-0.405-0.906-0.907v-4.09
				c0-0.501,0.405-0.908,0.906-0.908h9.663c0.502,0,0.908,0.407,0.908,0.908V110.918z"/>
		</g>
	</g>
	<g>
		<g>
			<g>
				
					<linearGradient id="SVGID_10_" gradientUnits="userSpaceOnUse" x1="-315.1748" y1="872.1836" x2="-339.0886" y2="855.439" gradientTransform="matrix(1 0 0 1 412.6201 -813.9912)">
					<stop  offset="0" style="stop-color:#FF1F00"/>
					<stop  offset="1" style="stop-color:#FF9D00"/>
				</linearGradient>
				<path fill="url(#SVGID_10_)" d="M95.808,39.499c-2.641-2.641-6.29-4.275-10.32-4.275c-8.059,0-14.594,6.533-14.594,14.596
					c0,8.061,6.534,14.596,14.594,14.596c8.061,0,14.596-6.535,14.596-14.596H85.489L95.808,39.499z"/>
			</g>
		</g>
		<g>
			<g>
				
					<linearGradient id="SVGID_11_" gradientUnits="userSpaceOnUse" x1="-308.6582" y1="865.291" x2="-332.5698" y2="848.5479" gradientTransform="matrix(1 0 0 1 412.6201 -813.9912)">
					<stop  offset="0" style="stop-color:#ECEEF0"/>
					<stop  offset="0.2485" style="stop-color:#E8E8E9"/>
					<stop  offset="0.5636" style="stop-color:#EEEFF2"/>
					<stop  offset="0.9212" style="stop-color:#D4D5D6"/>
				</linearGradient>
				<path fill="url(#SVGID_11_)" d="M87.885,48.813h14.595c0-4.03-1.634-7.678-4.275-10.318L87.885,48.813z"/>
			</g>
		</g>
	</g>
	<g>
		<polygon points="26.309,75.266 82.431,75.266 82.431,79.399 26.309,79.399 		"/>
		<polygon points="26.309,84.184 67.409,84.184 67.409,88.317 26.309,88.317 		"/>
		<polygon points="26.309,66.348 67.409,66.348 67.409,70.48 26.309,70.48 		"/>
	</g>
	<path opacity="0.5" fill="#FFFFFF" d="M72.627,49.07c1.549-6.4,7.298-11.157,14.17-11.157c2.17,0,4.223,0.485,6.072,1.337
		l0.861-0.418c-2.175-1.287-4.703-2.04-7.414-2.04c-7.396,0-13.494,5.509-14.449,12.646L72.627,49.07z"/>
</g>
</svg>
