<?xml version="1.0" encoding="utf-8"?>
<!-- Generator: Adobe Illustrator 13.0.0, SVG Export Plug-In . SVG Version: 6.00 Build 14948)  -->
<!DOCTYPE svg PUBLIC "-//W3C//DTD SVG 1.1//EN" "http://www.w3.org/Graphics/SVG/1.1/DTD/svg11.dtd">
<svg version="1.1" id="Layer_1" xmlns="http://www.w3.org/2000/svg" xmlns:xlink="http://www.w3.org/1999/xlink" x="0px" y="0px"
	 width="128px" height="128px" viewBox="0 0 128 128" enable-background="new 0 0 128 128" xml:space="preserve">
<g>
	<radialGradient id="SVGID_1_" cx="63.9746" cy="64" r="62.0547" gradientUnits="userSpaceOnUse">
		<stop  offset="0" style="stop-color:#FAFAFA"/>
		<stop  offset="0.3109" style="stop-color:#F4F4F4"/>
		<stop  offset="0.7262" style="stop-color:#E3E3E3"/>
		<stop  offset="1" style="stop-color:#D4D4D4"/>
	</radialGradient>
	<path fill="url(#SVGID_1_)" stroke="#B3B3B3" stroke-width="2" d="M18.855,1.923l90.233,0.006c9.342,0,16.914,7.578,16.914,16.927
		l0.006,90.294c0,9.348-7.574,16.926-16.916,16.926l-90.233-0.002c-9.341,0-16.915-7.582-16.915-16.93L1.941,18.85
		C1.94,9.502,9.514,1.923,18.855,1.923L18.855,1.923z"/>
	<path fill="#B3B3B3" d="M109.119,120.9l-90.372-0.006c-8.541,0-15.588-6.334-16.753-14.561v2.414
		c0,9.35,7.574,16.928,16.915,16.928l90.235,0.004c9.34,0,16.914-7.578,16.914-16.926v-4.803
		C126.055,113.311,118.471,120.9,109.119,120.9z"/>
	<path fill="#FFFFFF" d="M21.897,10.786l84.33,0.004c7.971,0,14.545,5.911,15.631,13.588v-2.254c0-8.724-7.066-15.795-15.783-15.795
		L21.876,6.324c-8.718,0-15.784,7.073-15.784,15.796v4.48C6.094,17.867,13.17,10.786,21.897,10.786z"/>
	<g>
		<g>
			<g>
				
					<linearGradient id="SVGID_2_" gradientUnits="userSpaceOnUse" x1="-348.6196" y1="838.5361" x2="-348.6196" y2="921.4443" gradientTransform="matrix(1 0 0 1 412.6201 -813.9912)">
					<stop  offset="0" style="stop-color:#EC008C"/>
					<stop  offset="1" style="stop-color:#C4008C"/>
				</linearGradient>
				<path fill="url(#SVGID_2_)" d="M108.752,81.457H85.209V50.542h23.543c1.588,0,2.877-1.287,2.877-2.875
					c0-1.59-1.289-2.877-2.877-2.877H85.209V21.248c0-1.588-1.287-2.875-2.875-2.875c-1.59,0-2.877,1.287-2.877,2.875v23.543H48.542
					V21.248c0-1.588-1.287-2.875-2.875-2.875c-1.59,0-2.877,1.287-2.877,2.875v23.543H19.248c-1.588,0-2.875,1.287-2.875,2.877
					c0,1.588,1.287,2.875,2.875,2.875h23.543v30.915H19.248c-1.588,0-2.875,1.287-2.875,2.875c0,1.59,1.287,2.877,2.875,2.877
					h23.543v23.543c0,1.588,1.287,2.875,2.877,2.875c1.588,0,2.875-1.287,2.875-2.875V87.209h30.915v23.543
					c0,1.588,1.287,2.875,2.877,2.875c1.588,0,2.875-1.287,2.875-2.875V87.209h23.543c1.588,0,2.877-1.287,2.877-2.877
					C111.629,82.744,110.34,81.457,108.752,81.457z M48.542,81.457V50.542h30.915v30.915H48.542z"/>
			</g>
		</g>
		<path d="M35.818,107.201l-3.684-0.006l-3.188-5.205l-3.236,5.191l-3.662,0.02l5.221-7.77l-5.01-7.441h3.688l3.021,4.957
			l2.955-4.953l3.684-0.004l-4.979,7.439L35.818,107.201z"/>
		<path d="M69.652,73.574l-3.682-0.006l-3.188-5.205l-3.236,5.191l-3.662,0.02l5.219-7.768l-5.01-7.442h3.689l3.021,4.957
			l2.954-4.953l3.686-0.004l-4.979,7.438L69.652,73.574z"/>
		<path d="M104.873,99.58c0,2.781-0.592,4.775-1.771,5.986c-1.182,1.209-2.711,1.812-4.59,1.812c-1.842,0-3.355-0.607-4.547-1.83
			c-1.189-1.221-1.783-3.211-1.783-5.971c0-2.762,0.59-4.744,1.771-5.955c1.18-1.209,2.697-1.812,4.559-1.812
			c1.863,0,3.385,0.609,4.576,1.83C104.275,94.861,104.873,96.842,104.873,99.58z M101.812,99.58c0-2.08-0.35-3.469-1.051-4.17
			c-0.58-0.58-1.33-0.869-2.25-0.869c-0.9,0-1.641,0.289-2.219,0.869c-0.701,0.701-1.051,2.09-1.051,4.17s0.35,3.471,1.051,4.17
			c0.6,0.602,1.34,0.9,2.219,0.9c0.9,0,1.65-0.299,2.25-0.9C101.463,103.051,101.812,101.66,101.812,99.58z"/>
		<path d="M104.873,30.191c0,2.781-0.592,4.775-1.771,5.986c-1.182,1.209-2.711,1.812-4.59,1.812c-1.842,0-3.355-0.609-4.547-1.83
			c-1.189-1.219-1.783-3.209-1.783-5.969s0.59-4.744,1.771-5.955c1.18-1.211,2.697-1.814,4.559-1.814
			c1.863,0,3.385,0.609,4.576,1.83C104.275,25.472,104.873,27.453,104.873,30.191z M101.812,30.191c0-2.08-0.35-3.469-1.051-4.17
			c-0.58-0.58-1.33-0.869-2.25-0.869c-0.9,0-1.641,0.289-2.219,0.869c-0.701,0.701-1.051,2.09-1.051,4.17s0.35,3.471,1.051,4.17
			c0.6,0.602,1.34,0.9,2.219,0.9c0.9,0,1.65-0.301,2.25-0.9C101.463,33.662,101.812,32.271,101.812,30.191z"/>
	</g>
</g>
</svg>
