<?xml version="1.0" encoding="utf-8"?>
<!-- Generator: Adobe Illustrator 13.0.0, SVG Export Plug-In . SVG Version: 6.00 Build 14948)  -->
<!DOCTYPE svg PUBLIC "-//W3C//DTD SVG 1.1//EN" "http://www.w3.org/Graphics/SVG/1.1/DTD/svg11.dtd">
<svg version="1.1" id="Layer_1" xmlns="http://www.w3.org/2000/svg" xmlns:xlink="http://www.w3.org/1999/xlink" x="0px" y="0px"
	 width="128px" height="128px" viewBox="0 0 128 128" enable-background="new 0 0 128 128" xml:space="preserve">
<g>
	<g>
		<g>
			<path fill="none" d="M50.916,40.968c5.96-3.168,22.512,5.984,31.554,23.002c9.042,17.012,7.149,35.448,1.186,38.62
				c-5.96,3.17-19.686-6.953-28.728-23.967C45.89,61.605,44.955,44.14,50.916,40.968L50.916,40.968z"/>
			<linearGradient id="SVGID_1_" gradientUnits="userSpaceOnUse" x1="46.5913" y1="39.1724" x2="46.5913" y2="111.2324">
				<stop  offset="0" style="stop-color:#ECEEF0"/>
				<stop  offset="0.2485" style="stop-color:#E8E8E9"/>
				<stop  offset="0.8" style="stop-color:#DADBDE"/>
				<stop  offset="0.9481" style="stop-color:#C0C1C2"/>
			</linearGradient>
			<path fill="url(#SVGID_1_)" stroke="#000000" stroke-miterlimit="3.8637" d="M82.99,63.156c-0.91-1.743-1.893-3.406-2.928-4.99
				c-4.126-6.291-9.474-12.031-16.084-15.709c-3.822-2.129-8.413-4.176-12.846-2.879c-1.467,0.428-2.889,1.246-4.047,2.33
				c-2.572,2.423-3.98,6.016-5.705,9.186c-1.51,2.772-3.041,5.544-4.57,8.304l-10.377,18.81l-15.66,8.109
				c-0.426,0.227-0.83,0.463-1.217,0.727c0,0-0.055,0.027-0.049,0.033c-5.498,3.691-7.488,10.932-4.398,16.84
				c0.041,0.07,0.08,0.133,0.117,0.203c0.037,0.064,0.061,0.135,0.098,0.205c3.094,5.914,10.169,8.408,16.334,5.994
				c0,0.006,0.053-0.02,0.053-0.02c0.436-0.174,0.863-0.367,1.287-0.59l15.59-8.246l21.357,2.197
				c3.143,0.324,6.288,0.643,9.431,0.982c3.581,0.393,7.333,1.279,10.79,0.545c1.547-0.33,2.99-0.996,4.221-1.994
				c3.59-2.906,4.533-7.844,4.963-12.195c0.753-7.533-0.913-15.209-3.723-22.186c-0.71-1.752-1.512-3.51-2.426-5.252
				c-0.033-0.068-0.072-0.135-0.106-0.203C83.057,63.291,83.027,63.226,82.99,63.156L82.99,63.156z"/>
			<path fill="#FFFFFF" d="M44.392,47.324l-17.21,31.649l-15.661,8.113c-0.426,0.227-0.831,0.463-1.216,0.723
				c0,0-0.053,0.027-0.049,0.033c-4.031,2.705-6.166,7.32-5.808,11.918l0.94-1.725c0.074-4.174,2.153-7.145,4.906-8.867l1.971-1.17
				c0.389-0.264,0.793-0.496,1.215-0.725l14.381-7.49l15.844-28.583L44.392,47.324z"/>
			<path fill="#B3B3B3" d="M74.375,104.539l-35.809-3.949l-15.603,8.221c-0.427,0.219-0.852,0.418-1.29,0.586
				c0,0-0.053,0.027-0.055,0.018c-4.521,1.766-9.529,0.883-13.098-2.037l1.951,0.213c3.471,2.324,7.098,2.314,10.08,1.037
				c0.006,0.01,2.086-0.949,2.086-0.949c0.438-0.168,0.863-0.365,1.29-0.582l14.362-7.529l32.512,3.324L74.375,104.539z"/>
			<linearGradient id="SVGID_2_" gradientUnits="userSpaceOnUse" x1="62.2935" y1="53.252" x2="62.2935" y2="96.3716">
				<stop  offset="0" style="stop-color:#5F5D5C"/>
				<stop  offset="1" style="stop-color:#181500"/>
			</linearGradient>
			<path fill="url(#SVGID_2_)" d="M71.508,69.576C65.52,58.117,56.371,51.082,51.066,53.857c-1.113,0.588-2.602,2.076-2.779,3.782
				c-0.631,6.083,2.068,13.115,6.405,20.742c4.358,7.666,8.909,13.41,13.872,17.621c1.074,0.912,3.072-0.08,4.189-0.662
				C78.053,92.566,77.498,81.031,71.508,69.576L71.508,69.576z"/>
			<path fill="#FFFFFF" d="M68.426,71.189c2.711,5.18,3.018,10.371,0.687,11.59c-2.331,1.223-6.417-1.99-9.124-7.174
				c-2.708-5.182-3.018-10.371-0.687-11.592C61.633,62.794,65.722,66.008,68.426,71.189L68.426,71.189z"/>
			<path opacity="0.49" fill="#FFFFFF" d="M43.963,53.44c0,0,0.579,3.259,1.16,5.118c0.586,1.865,0.932,3.727,0.932,3.727
				L29.877,79.627L43.963,53.44z"/>
			<path fill="none" stroke="#000000" stroke-miterlimit="3.8637" d="M50.916,40.968c5.96-3.168,22.512,5.984,31.554,23.002
				c9.042,17.012,7.149,35.448,1.186,38.62c-5.96,3.17-19.686-6.953-28.728-23.967C45.89,61.605,44.955,44.14,50.916,40.968
				L50.916,40.968z"/>
			<linearGradient id="SVGID_3_" gradientUnits="userSpaceOnUse" x1="59.7017" y1="54.5508" x2="59.7017" y2="69.1621">
				<stop  offset="0" style="stop-color:#FFFFFF"/>
				<stop  offset="1" style="stop-color:#000000"/>
			</linearGradient>
			<path fill="url(#SVGID_3_)" d="M51.396,56.779c4.824-2.527,12.764,2.896,18.767,12.383c-5.412-10.27-13.624-16.561-18.393-14.065
				c-1.005,0.526-2.353,1.874-2.512,3.418c-0.009,0.095-0.013,0.193-0.019,0.291C49.828,57.884,50.689,57.152,51.396,56.779z"/>
		</g>
		<g>
			
				<linearGradient id="SVGID_4_" gradientUnits="userSpaceOnUse" x1="-576.3613" y1="463.6562" x2="-587.7771" y2="441.0073" gradientTransform="matrix(0.893 -0.4501 -0.4501 -0.893 812.9097 203.1463)">
				<stop  offset="0" style="stop-color:#5F5D5C"/>
				<stop  offset="1" style="stop-color:#181500"/>
			</linearGradient>
			<path fill="url(#SVGID_4_)" d="M85.76,48.815c-1.611-0.817-3.502,0.147-4.064,1.865c-0.588,1.767,0.465,3.577,2.058,4.546
				c4.913,2.979,7.697,8.562,7.112,14.286c-0.193,1.812,0.711,3.639,2.444,4.207c1.7,0.559,3.602-0.34,3.905-2.104
				C98.805,62.349,94.139,53.072,85.76,48.815z"/>
			
				<linearGradient id="SVGID_5_" gradientUnits="userSpaceOnUse" x1="-562.1367" y1="472.1387" x2="-582.2431" y2="432.2474" gradientTransform="matrix(0.893 -0.4501 -0.4501 -0.893 812.9097 203.1463)">
				<stop  offset="0" style="stop-color:#5F5D5C"/>
				<stop  offset="1" style="stop-color:#181500"/>
			</linearGradient>
			<path fill="url(#SVGID_5_)" d="M89.691,34.808c-1.791-0.784-3.812,0.248-4.418,2.107c-0.611,1.838,0.314,3.819,2.072,4.631
				c12.506,5.773,19.434,19.465,16.684,32.952c-0.392,1.932,0.598,3.924,2.466,4.539c1.862,0.611,3.894-0.404,4.328-2.318
				C114.729,59.526,105.836,41.892,89.691,34.808z"/>
			
				<linearGradient id="SVGID_6_" gradientUnits="userSpaceOnUse" x1="-548.8999" y1="479.6934" x2="-576.7681" y2="424.4025" gradientTransform="matrix(0.893 -0.4501 -0.4501 -0.893 812.9097 203.1463)">
				<stop  offset="0" style="stop-color:#5F5D5C"/>
				<stop  offset="1" style="stop-color:#181500"/>
			</linearGradient>
			<path fill="url(#SVGID_6_)" d="M93.463,22.082c-1.826-0.744-3.854,0.291-4.469,2.16c-0.625,1.893,0.435,3.893,2.264,4.664
				c19.465,8.252,30.166,29.441,25.25,49.991c-0.466,1.963,0.472,4.049,2.389,4.68c1.865,0.615,3.906-0.402,4.393-2.316
				C129.488,56.898,116.736,31.595,93.463,22.082z"/>
		</g>
	</g>
	<g>
		
			<linearGradient id="SVGID_7_" gradientUnits="userSpaceOnUse" x1="-375.6392" y1="879.9043" x2="-412.2642" y2="854.2592" gradientTransform="matrix(1 0 0 1 412.6201 -813.9912)">
			<stop  offset="0" style="stop-color:#FF1F00"/>
			<stop  offset="1" style="stop-color:#FF9D00"/>
		</linearGradient>
		<path fill="url(#SVGID_7_)" d="M21.566,87.012c0,1.6-1.299,2.898-2.898,2.898l0,0c-1.602,0-2.898-1.301-2.898-2.898V19.167
			c0-1.602,1.297-2.898,2.898-2.898l0,0c1.602,0,2.898,1.297,2.898,2.898V87.012z"/>
		<g>
			<g>
				
					<linearGradient id="SVGID_8_" gradientUnits="userSpaceOnUse" x1="-7308.5557" y1="2420.6621" x2="-7295.6577" y2="2429.6934" gradientTransform="matrix(-1 0 0 -1 -7283.0684 2464.5703)">
					<stop  offset="0" style="stop-color:#181500"/>
					<stop  offset="1" style="stop-color:#5F5D5C"/>
				</linearGradient>
				<path fill="url(#SVGID_8_)" d="M24.55,36.052h-9.065c-0.172,0-0.336,0.02-0.491,0.053c-0.134,0.021-0.257,0.059-0.375,0.108
					c-0.017,0.007-0.033,0.013-0.05,0.021c-0.045,0.021-0.098,0.033-0.141,0.06l-4.887,3.067c-0.477,0.299-0.477,0.783,0,1.082
					l4.887,3.068c0.041,0.026,0.094,0.037,0.139,0.059c0.018,0.007,0.035,0.015,0.052,0.021c0.12,0.052,0.245,0.089,0.381,0.11
					c0.153,0.031,0.313,0.052,0.483,0.052h9.066c0.885,0,1.602-0.448,1.602-1.004v-5.692C26.15,36.501,25.436,36.052,24.55,36.052z"
					/>
			</g>
		</g>
	</g>
	<g>
		
			<linearGradient id="SVGID_9_" gradientUnits="userSpaceOnUse" x1="-379.2109" y1="830.2598" x2="-379.2109" y2="903.9023" gradientTransform="matrix(1 0 0 1 412.6201 -813.9912)">
			<stop  offset="0" style="stop-color:#FF1F00"/>
			<stop  offset="1" style="stop-color:#FF9D00"/>
		</linearGradient>
		<path fill="url(#SVGID_9_)" d="M36.309,87.012c0,1.6-1.299,2.898-2.898,2.898l0,0c-1.602,0-2.9-1.301-2.9-2.898V19.167
			c0-1.602,1.299-2.898,2.9-2.898l0,0c1.601,0,2.898,1.297,2.898,2.898V87.012z"/>
		<g>
			<g>
				
					<linearGradient id="SVGID_10_" gradientUnits="userSpaceOnUse" x1="-7323.2988" y1="2385.292" x2="-7310.3989" y2="2394.3247" gradientTransform="matrix(-1 0 0 -1 -7283.0684 2464.5703)">
					<stop  offset="0" style="stop-color:#181500"/>
					<stop  offset="1" style="stop-color:#5F5D5C"/>
				</linearGradient>
				<path fill="url(#SVGID_10_)" d="M39.29,71.42h-9.065c-0.168,0-0.328,0.02-0.48,0.051c-0.141,0.021-0.268,0.061-0.391,0.111
					c-0.014,0.006-0.027,0.012-0.041,0.018c-0.047,0.021-0.102,0.033-0.144,0.062l-4.887,3.066c-0.478,0.299-0.478,0.785,0,1.084
					l4.887,3.068c0.042,0.025,0.097,0.037,0.144,0.059c0.014,0.006,0.026,0.014,0.041,0.02c0.123,0.053,0.25,0.092,0.391,0.111
					c0.152,0.029,0.312,0.053,0.48,0.053h9.065c0.885,0,1.603-0.449,1.603-1.004v-5.693C40.893,71.869,40.175,71.42,39.29,71.42z"/>
			</g>
		</g>
	</g>
</g>
</svg>
