<?xml version="1.0" encoding="utf-8"?>
<!-- Generator: Adobe Illustrator 13.0.0, SVG Export Plug-In . SVG Version: 6.00 Build 14948)  -->
<!DOCTYPE svg PUBLIC "-//W3C//DTD SVG 1.1//EN" "http://www.w3.org/Graphics/SVG/1.1/DTD/svg11.dtd">
<svg version="1.1" id="Layer_1" xmlns="http://www.w3.org/2000/svg" xmlns:xlink="http://www.w3.org/1999/xlink" x="0px" y="0px"
	 width="128px" height="128px" viewBox="0 0 128 128" enable-background="new 0 0 128 128" xml:space="preserve">
<g>
	<g>
		
			<radialGradient id="SVGID_1_" cx="50.6543" cy="64.002" r="53.1358" gradientTransform="matrix(1 0 0 1 0 -9.765625e-04)" gradientUnits="userSpaceOnUse">
			<stop  offset="0" style="stop-color:#FAFAFA"/>
			<stop  offset="0.3109" style="stop-color:#F4F4F4"/>
			<stop  offset="0.7262" style="stop-color:#E3E3E3"/>
			<stop  offset="1" style="stop-color:#D4D4D4"/>
		</radialGradient>
		<path fill="url(#SVGID_1_)" stroke="#B3B3B3" stroke-width="2" d="M95.338,22.207v83.586c0,10.285-8.344,18.625-18.637,18.625
			H24.608c-10.295,0-18.637-8.34-18.637-18.625V22.207c0-10.285,8.342-18.623,18.637-18.623h52.093
			C86.994,3.584,95.338,11.922,95.338,22.207L95.338,22.207z"/>
		<path fill="#B3B3B3" d="M76.896,122.092H24.803c-10.295,0-18.637-8.34-18.637-18.625v2.326c0,10.285,8.342,18.625,18.637,18.625
			h52.093c10.293,0,18.637-8.34,18.637-18.625v-2.326C95.533,113.752,87.189,122.092,76.896,122.092z"/>
		<path fill="#FFFFFF" d="M17.137,11.57c2.08-1.734,4.432-2.905,7.666-2.905h52.093c3.234,0,5.586,1.171,7.666,2.905h2.629
			c-2.621-2.646-5.805-4.238-10.295-4.238H24.803c-4.49,0-7.672,1.593-10.295,4.238H17.137z"/>
	</g>
	<g>
		
			<linearGradient id="SVGID_2_" gradientUnits="userSpaceOnUse" x1="-335.2427" y1="892.2949" x2="-396.0671" y2="849.7052" gradientTransform="matrix(1 0 0 1 412.6201 -813.9912)">
			<stop  offset="0" style="stop-color:#181500"/>
			<stop  offset="1" style="stop-color:#5F5D5C"/>
		</linearGradient>
		<path fill="url(#SVGID_2_)" d="M78.988,38.156H56.85v69.465H44.653V38.156H22.514V27.201H78.99v10.955H78.988z"/>
	</g>
	<g>
		
			<linearGradient id="SVGID_3_" gradientUnits="userSpaceOnUse" x1="-9030.1484" y1="3720.4658" x2="-9030.1484" y2="3677.3037" gradientTransform="matrix(0.3308 -0.346 -0.3461 -0.3305 4354.2202 -1842.9312)">
			<stop  offset="0" style="stop-color:#FFD207"/>
			<stop  offset="1" style="stop-color:#FAA61A"/>
		</linearGradient>
		<path fill="url(#SVGID_3_)" d="M96.113,33.141L60.188,70.713c0.342,0.332,1.381,1.46,1.678,3.086
			c1.75-0.143,3.703,0.455,4.175,0.896c1.682,1.611,1.148,4.336,1.148,4.336s3.098-0.359,4.602,1.229
			c0.398,0.418,0.969,1.932,1.211,3.572c1.27-0.029,2.559,1.502,2.844,1.865l35.938-37.59c0.629-0.656,0.609-1.701-0.051-2.33
			c0,0-1.477-3.221-6.107-7.643c-4.629-4.418-7.182-5.046-7.182-5.046C97.785,32.459,96.742,32.482,96.113,33.141z"/>
		
			<linearGradient id="SVGID_4_" gradientUnits="userSpaceOnUse" x1="-8956.4766" y1="3699.3984" x2="-8956.1729" y2="3716.1143" gradientTransform="matrix(0.3308 -0.346 -0.3461 -0.3305 4354.2202 -1842.9312)">
			<stop  offset="0" style="stop-color:#F66B87"/>
			<stop  offset="1" style="stop-color:#FCD0D9"/>
		</linearGradient>
		<path fill="url(#SVGID_4_)" d="M105.865,22.939l-7.771,8.126c0.17,0.168,4.852,3.012,8.699,6.685
			c3.82,3.647,6.816,8.119,6.957,8.299l7.787-8.143c2.012-2.104-1.129-5.976-5.756-10.395
			C111.15,23.092,107.473,21.256,105.865,22.939z"/>
		
			<linearGradient id="SVGID_5_" gradientUnits="userSpaceOnUse" x1="-9095.293" y1="3714.9453" x2="-9091.5508" y2="3698.7295" gradientTransform="matrix(0.3308 -0.346 -0.3461 -0.3305 4354.2202 -1842.9312)">
			<stop  offset="0" style="stop-color:#FAEDB0"/>
			<stop  offset="1" style="stop-color:#FFC76E"/>
		</linearGradient>
		<path fill="url(#SVGID_5_)" d="M75.906,85.773c0,0-0.023-0.029-0.061-0.076l-0.127,0.128L75.906,85.773z"/>
		
			<linearGradient id="SVGID_6_" gradientUnits="userSpaceOnUse" x1="-9085.1602" y1="3716.3447" x2="-9081.5605" y2="3700.7449" gradientTransform="matrix(0.3308 -0.346 -0.3461 -0.3305 4354.2202 -1842.9312)">
			<stop  offset="0" style="stop-color:#FAEDB0"/>
			<stop  offset="1" style="stop-color:#FFC76E"/>
		</linearGradient>
		<path fill="url(#SVGID_6_)" d="M60.083,70.605L60.01,70.9l0.178-0.188C60.124,70.643,60.083,70.605,60.083,70.605z"/>
		<path fill="#F6921E" d="M73.002,83.832c-0.242-1.641-0.812-3.157-1.211-3.572c-1.504-1.588-4.6-1.23-4.6-1.23
			s0.533-2.723-1.15-4.334c-0.471-0.443-2.423-1.041-4.173-0.896c-0.295-1.624-1.338-2.754-1.678-3.086l-0.176,0.186l-0.742,3.013
			c0.021,0.026,0.039,0.056,0.061,0.077l13.287,12.695c0.016,0.012,0.029,0.017,0.043,0.028l3.057-0.892l0.131-0.127
			C75.562,85.334,74.273,83.801,73.002,83.832z"/>
		
			<linearGradient id="SVGID_7_" gradientUnits="userSpaceOnUse" x1="-9098.9131" y1="3712.6064" x2="-9096.9619" y2="3698.9512" gradientTransform="matrix(0.3308 -0.346 -0.3461 -0.3305 4354.2202 -1842.9312)">
			<stop  offset="0" style="stop-color:#FAEDB0"/>
			<stop  offset="1" style="stop-color:#FFC76E"/>
		</linearGradient>
		<path fill="url(#SVGID_7_)" d="M67.189,79.031c0,0,0.533-2.725-1.148-4.336c-0.473-0.441-2.425-1.039-4.175-0.896
			c-0.297-1.624-1.336-2.754-1.678-3.086L60.012,70.9l-0.742,3.013l-1.809,7.335l-0.521,2.114l3.174,3.041l3.172,3.031l2.089-0.604
			l7.287-2.121l3.057-0.893l0.131-0.128c-0.287-0.36-1.576-1.895-2.85-1.864c-0.244-1.639-0.812-3.154-1.211-3.57
			C70.287,78.672,67.189,79.031,67.189,79.031z"/>
		
			<linearGradient id="SVGID_8_" gradientUnits="userSpaceOnUse" x1="-9117.0781" y1="3700.9971" x2="-9119.5078" y2="3709.1978" gradientTransform="matrix(0.3308 -0.346 -0.3461 -0.3305 4354.2202 -1842.9312)">
			<stop  offset="0" style="stop-color:#231F20"/>
			<stop  offset="1" style="stop-color:#FFFFFF"/>
		</linearGradient>
		<polygon fill="url(#SVGID_8_)" points="56.948,83.38 54.866,91.908 63.29,89.442 63.286,89.438 60.114,86.406 		"/>
		
			<linearGradient id="SVGID_9_" gradientUnits="userSpaceOnUse" x1="-8604.5342" y1="-2889.501" x2="-8616.7109" y2="-2879.1824" gradientTransform="matrix(0.4786 -0.011 -0.0108 -0.4784 4194.1494 -1433.9998)">
			<stop  offset="0" style="stop-color:#808080"/>
			<stop  offset="1" style="stop-color:#F2F2F2"/>
		</linearGradient>
		<path fill="url(#SVGID_9_)" d="M98.16,30.93l-4.312,4.576c0.176,0.166,4.365,2.681,8.219,6.355
			c3.816,3.646,7.295,8.456,7.447,8.619l4.318-4.582c0.287-0.305-2.635-4.4-7.264-8.824C101.943,32.656,98.449,30.624,98.16,30.93z"
			/>
		<g opacity="0.6">
			<path fill="#FFF8A2" d="M107.203,23.961L62.534,70.748c0.217,0.417,0.408,0.902,0.508,1.449c0.729-0.057,1.486,0.021,2.154,0.161
				l44.783-46.905C107.859,23.621,107.146,23.924,107.203,23.961z"/>
		</g>
		
			<linearGradient id="SVGID_10_" gradientUnits="userSpaceOnUse" x1="-2242.3472" y1="-277.8169" x2="-2242.3472" y2="-277.8169" gradientTransform="matrix(0.9576 -0.2881 0.2881 0.9576 2288.9893 -309.3038)">
			<stop  offset="0" style="stop-color:#DEDEDE"/>
			<stop  offset="1" style="stop-color:#FEFEFE"/>
		</linearGradient>
		<path fill="url(#SVGID_10_)" stroke="#181512" stroke-width="1.0006" stroke-miterlimit="3.8637" d="M61.678,70.68"/>
		<g opacity="0.6">
			<path fill="#FFF8A2" d="M62.522,75.301l-0.006-0.005c-0.561-0.081-1.152-0.121-1.73-0.073c-0.102-0.562-0.297-1.061-0.518-1.489
				l-0.088-0.062L55.672,90.4L62.522,75.301z"/>
		</g>
	</g>
</g>
</svg>
