<?xml version="1.0"?>
<!DOCTYPE svg PUBLIC "-//W3C//DTD SVG 1.0//EN"
	"http://www.w3.org/TR/2001/REC-SVG-20010904/DTD/svg10.dtd">
<svg xmlns:x="http://ns.adobe.com/Extensibility/1.0/"
	xmlns:i="http://ns.adobe.com/AdobeIllustrator/10.0/" xmlns:graph=""
	xmlns="http://www.w3.org/2000/svg" xmlns:xlink="http://www.w3.org/1999/xlink"
	xmlns:a="http://ns.adobe.com/AdobeSVGViewerExtensions/3.0/" width="114"
	height="123" viewBox="0.467 -0.058 114 123" overflow="visible"
	enable-background="new 0.467 -0.058 114 123" xml:space="preserve">
	<g id="Layer_1_2_">
		<g>
			<path
				d="M14.214 50.103 C16.833 48.768 17.405 44.231 15.747 37.966 C14.976 35.05 13.119 32.745
					10.652 31.643 C8.691 30.765 6.624 30.785 4.833 31.699 C3.211 32.527 2.097
					34.045 1.696 35.973 C1.124 38.717 2.019 41.858 4.088 44.373 C7.211 48.168
					10.856 51.816 14.214 50.103 zM48.252 32.959 C51.909 32.959 55.118 28.084
					56.837 19.918 C57.771 15.485 57.122 11.351 55.101 8.86 C53.795 7.252 51.993
					6.401 49.886 6.401 C47.285 6.401 44.676 7.783 42.73 10.193 C40.411 13.062
					39.484 16.9 40.249 20.459 C41.577 26.64 43.565 32.959 48.252 32.959 zM28.375
					39.942 C31.715 39.203 33.684 34.222 33.641 26.621 C33.623 23.091 32.196
					19.936 29.727 17.965 C27.767 16.4 25.428 15.817 23.138 16.324 C21.068 16.782
					19.37 18.17 18.352 20.228 C16.899 23.17 16.993 26.995 18.604 30.458 C21.034
					35.682 24.093 40.894 28.375 39.942 zM63.357 92.769 C61.068 94.002 60.755
					97.172 60.478 99.97 C60.294 101.828 60.121 103.583 59.434 104.469 C57.675
					106.729 53.098 107.673 49.342 105.418 C45.728 103.25 42.313 97.139 44.958 92.107
					C46.41 89.349 56.042 83.409 64.542 78.168 C71.449 73.907 77.974 69.883
					80.359 67.497 C85.994 61.861 82.285 51.459 81.008 48.395 C80.806 47.857 76.616
					38.006 46.045 42.704 C21.842 46.422 9.048 59.333 9.048 80.042 C9.048
					90.851 23.927 118.798 47.389 122.49 C57.685 124.108 72.161 122.387 82.659 104.991
					L83.113 104.252 C84.819 101.697 87.37 95.002 83.84 91.766 C80.377 88.591
					66.956 90.833 63.357 92.769 zM96.469 2.763 C95.827 2.198 91.988 1.038
					87.452 1.355 C83.287 1.646 77.239 3.255 72.085 9.266 C65.754 16.654 65.375
					31.813 67.493 34.64 C70.147 38.175 73.419 37.781 78.492 36.714 C82.67 35.834
					96.419 23.637 99.157 13.236 C100.305 8.869 99.401 5.345 96.469 2.763 zM83.4
					47.53 L83.354 47.411 C83.362 47.432 83.375 47.465 83.382 47.487 C83.387
					47.499 83.396 47.52 83.4 47.53 z"
				 style="opacity:0.1"/>
			<g>
				<radialGradient id="XMLID_1_" cx="46.7085" cy="32.3569" r="16.4551"
					fx="46.7085" fy="32.3569" gradientUnits="userSpaceOnUse">
					<stop offset="0" style="stop-color:rgb(255,255,255)"/>
					<stop offset="0.0626" style="stop-color:rgb(230,249,255)"/>
					<stop offset="0.1386" style="stop-color:rgb(206,242,255)"/>
					<stop offset="0.1854" style="stop-color:rgb(197,240,255)"/>
					<stop offset="1" style="stop-color:rgb(29,116,217)"/>
					<a:midPointStop offset="0" style="stop-color:#FFFFFF"/>
					<a:midPointStop offset="0.4" style="stop-color:#FFFFFF"/>
					<a:midPointStop offset="0.1854" style="stop-color:#C5F0FF"/>
					<a:midPointStop offset="0.5" style="stop-color:#C5F0FF"/>
					<a:midPointStop offset="1" style="stop-color:#1D74D9"/>
				</radialGradient>
				<path
					d="M54.645 18.458 C53.202 25.316 50.324 31.095 46.559 31.095 C42.517 31.095 40.496 25.719
						39.052 18.996 C37.566 12.081 42.769 5.555 48.192 5.555 C53.615 5.555
						56.103 11.54 54.645 18.458 z"
					 style="fill-rule:evenodd;clip-rule:evenodd;fill:url(#XMLID_1_)"/>
				<radialGradient id="XMLID_2_" cx="46.4976" cy="46.9351" r="42.125" fx="46.4976"
					fy="46.9351" gradientUnits="userSpaceOnUse">
					<stop offset="0" style="stop-color:rgb(139,187,255)"/>
					<stop offset="1" style="stop-color:rgb(13,86,172)"/>
					<a:midPointStop offset="0" style="stop-color:#8BBBFF"/>
					<a:midPointStop offset="0.5" style="stop-color:#8BBBFF"/>
					<a:midPointStop offset="1" style="stop-color:#0D56AC"/>
				</radialGradient>
				<path
					d="M41.035 8.838 C38.717 11.707 37.79 15.545 38.554 19.104 C39.881 25.285 41.871 31.604
						46.558 31.604 C50.213 31.604 53.423 26.729 55.142 18.564 C56.077 14.131
						55.427 9.997 53.406 7.506 C52.101 5.898 50.298 5.047 48.191 5.047 C45.591
						5.047 42.983 6.429 41.035 8.838 zM39.548 18.89 C38.847 15.629 39.699 12.111
						41.826 9.478 C43.578 7.308 45.899 6.064 48.191 6.064 C49.981 6.064 51.511
						6.785 52.616 8.147 C54.447 10.403 55.019 14.218 54.148 18.354 C54.148
						18.354 54.148 18.354 54.148 18.355 C52.559 25.9 49.651 30.588 46.559 30.588
						C43.447 30.588 41.285 26.98 39.548 18.89 z"
					 style="fill:url(#XMLID_2_)"/>
				<radialGradient id="XMLID_3_" cx="23.6758" cy="39.2085" r="16.0591"
					fx="23.6758" fy="39.2085" gradientUnits="userSpaceOnUse">
					<stop offset="0" style="stop-color:rgb(255,255,255)"/>
					<stop offset="0.0626" style="stop-color:rgb(230,249,255)"/>
					<stop offset="0.1386" style="stop-color:rgb(206,242,255)"/>
					<stop offset="0.1854" style="stop-color:rgb(197,240,255)"/>
					<stop offset="1" style="stop-color:rgb(29,116,217)"/>
					<a:midPointStop offset="0" style="stop-color:#FFFFFF"/>
					<a:midPointStop offset="0.4" style="stop-color:#FFFFFF"/>
					<a:midPointStop offset="0.1854" style="stop-color:#C5F0FF"/>
					<a:midPointStop offset="0.5" style="stop-color:#C5F0FF"/>
					<a:midPointStop offset="1" style="stop-color:#1D74D9"/>
				</radialGradient>
				<path
					d="M31.438 25.269 C31.474 31.633 29.994 37.332 26.57 38.091 C22.897 38.908 20.003 34.551
						17.37 28.888 C14.66 23.061 16.623 16.557 21.552 15.464 C26.483 14.373
						31.406 18.844 31.438 25.269 z"
					 style="fill-rule:evenodd;clip-rule:evenodd;fill:url(#XMLID_3_)"/>
				<radialGradient id="XMLID_4_" cx="46.4961" cy="46.936" r="42.1249" fx="46.4961"
					fy="46.936" gradientUnits="userSpaceOnUse">
					<stop offset="0" style="stop-color:rgb(139,187,255)"/>
					<stop offset="1" style="stop-color:rgb(13,86,172)"/>
					<a:midPointStop offset="0" style="stop-color:#8BBBFF"/>
					<a:midPointStop offset="0.5" style="stop-color:#8BBBFF"/>
					<a:midPointStop offset="1" style="stop-color:#0D56AC"/>
				</radialGradient>
				<path
					d="M21.443 14.968 C19.374 15.426 17.674 16.813 16.658 18.872 C15.206 21.814 15.3 25.639
						16.91 29.102 C19.338 34.327 22.4 39.539 26.68 38.586 C30.02 37.847 31.989
						32.866 31.947 25.265 C31.928 21.735 30.503 18.58 28.032 16.609 C26.073
						15.043 23.732 14.461 21.443 14.968 zM17.831 28.674 C16.372 25.535 16.271
						21.952 17.569 19.323 C18.446 17.545 19.901 16.352 21.663 15.961 C23.646 15.521
						25.681 16.032 27.398 17.403 C29.627 19.182 30.913 22.05 30.93 25.271
						C30.969 32.253 29.256 36.974 26.46 37.594 C23.651 38.219 20.99 35.468 17.831
						28.674 z"
					 style="fill:url(#XMLID_4_)"/>
				<radialGradient id="XMLID_5_" cx="7.2666" cy="49.1904" r="14.7925" fx="7.2666"
					fy="49.1904" gradientUnits="userSpaceOnUse">
					<stop offset="0" style="stop-color:rgb(255,255,255)"/>
					<stop offset="0.0626" style="stop-color:rgb(230,249,255)"/>
					<stop offset="0.1386" style="stop-color:rgb(206,242,255)"/>
					<stop offset="0.1854" style="stop-color:rgb(197,240,255)"/>
					<stop offset="1" style="stop-color:rgb(29,116,217)"/>
					<a:midPointStop offset="0" style="stop-color:#FFFFFF"/>
					<a:midPointStop offset="0.4" style="stop-color:#FFFFFF"/>
					<a:midPointStop offset="0.1854" style="stop-color:#C5F0FF"/>
					<a:midPointStop offset="0.5" style="stop-color:#C5F0FF"/>
					<a:midPointStop offset="1" style="stop-color:#1D74D9"/>
				</radialGradient>
				<path
					d="M13.561 36.741 C14.941 41.953 14.937 46.945 12.289 48.295 C9.45 49.744 6.151 46.782
						2.788 42.695 C-0.671 38.49 -0.441 32.74 3.371 30.795 C7.18 28.853 12.169
						31.475 13.561 36.741 z"
					 style="fill-rule:evenodd;clip-rule:evenodd;fill:url(#XMLID_5_)"/>
				<radialGradient id="XMLID_6_" cx="46.499" cy="46.9365" r="42.1299" fx="46.499"
					fy="46.9365" gradientUnits="userSpaceOnUse">
					<stop offset="0" style="stop-color:rgb(139,187,255)"/>
					<stop offset="1" style="stop-color:rgb(13,86,172)"/>
					<a:midPointStop offset="0" style="stop-color:#8BBBFF"/>
					<a:midPointStop offset="0.5" style="stop-color:#8BBBFF"/>
					<a:midPointStop offset="1" style="stop-color:#0D56AC"/>
				</radialGradient>
				<path
					d="M3.139 30.342 C1.517 31.17 0.402 32.688 0 34.617 C-0.571 37.361 0.324 40.502 2.395
						43.017 C5.518 46.812 9.162 50.46 12.52 48.747 C15.139 47.412 15.712 42.875
						14.053 36.61 C13.282 33.694 11.426 31.389 8.96 30.287 C6.997 29.409 4.93
						29.429 3.139 30.342 zM3.179 42.372 C1.33 40.125 0.494 37.234 0.996 34.825
						C1.333 33.204 2.259 31.933 3.6 31.248 C5.113 30.477 6.868 30.465 8.544 31.215
						C10.728 32.192 12.378 34.253 13.07 36.871 C14.574 42.553 14.187 46.756
						12.058 47.843 C9.925 48.93 7.188 47.243 3.179 42.372 z"
					 style="fill:url(#XMLID_6_)"/>
				<radialGradient id="XMLID_7_" cx="80.9844" cy="37.2632" r="33.2853"
					fx="80.9844" fy="37.2632" gradientUnits="userSpaceOnUse">
					<stop offset="0" style="stop-color:rgb(255,255,255)"/>
					<stop offset="0.0626" style="stop-color:rgb(230,249,255)"/>
					<stop offset="0.1386" style="stop-color:rgb(206,242,255)"/>
					<stop offset="0.1854" style="stop-color:rgb(197,240,255)"/>
					<stop offset="1" style="stop-color:rgb(29,116,217)"/>
					<a:midPointStop offset="0" style="stop-color:#FFFFFF"/>
					<a:midPointStop offset="0.4" style="stop-color:#FFFFFF"/>
					<a:midPointStop offset="0.1854" style="stop-color:#C5F0FF"/>
					<a:midPointStop offset="0.5" style="stop-color:#C5F0FF"/>
					<a:midPointStop offset="1" style="stop-color:#1D74D9"/>
				</radialGradient>
				<path
					d="M76.693 34.861 C71.584 35.936 68.627 36.204 66.205 32.98 C64.257 30.38 64.465 15.605
						70.777 8.242 C80.458 -3.049 93.582 1.034 94.437 1.789 C105.73 11.737 81.802
						33.785 76.693 34.861 z"
					 style="fill-rule:evenodd;clip-rule:evenodd;fill:url(#XMLID_7_)"/>
				<radialGradient id="XMLID_8_" cx="46.4966" cy="46.9341" r="42.1275"
					fx="46.4966" fy="46.9341" gradientUnits="userSpaceOnUse">
					<stop offset="0" style="stop-color:rgb(139,187,255)"/>
					<stop offset="1" style="stop-color:rgb(13,86,172)"/>
					<a:midPointStop offset="0" style="stop-color:#8BBBFF"/>
					<a:midPointStop offset="0.5" style="stop-color:#8BBBFF"/>
					<a:midPointStop offset="1" style="stop-color:#0D56AC"/>
				</radialGradient>
				<path
					d="M85.759 0 C81.594 0.291 75.544 1.9 70.392 7.911 C64.059 15.299 63.679 30.458 65.8
						33.285 C68.452 36.82 71.724 36.426 76.797 35.359 C80.975 34.479 94.726 22.282
						97.461 11.881 C98.61 7.514 97.705 3.99 94.775 1.408 C94.134 0.843 90.294
						-0.318 85.759 0 zM66.611 32.675 C64.928 30.429 64.941 15.831 71.163 8.572
						C80.485 -2.301 93.26 1.512 94.105 2.173 C96.722 4.478 97.52 7.658 96.478
						11.622 C93.753 21.978 79.985 33.649 76.587 34.364 C71.476 35.44 68.826
						35.624 66.611 32.675 z"
					 style="fill:url(#XMLID_8_)"/>
				<radialGradient id="XMLID_9_" cx="44.8828" cy="125.005" r="79.0072"
					fx="44.8828" fy="125.005" gradientUnits="userSpaceOnUse">
					<stop offset="0" style="stop-color:rgb(255,255,255)"/>
					<stop offset="0.0626" style="stop-color:rgb(230,249,255)"/>
					<stop offset="0.1386" style="stop-color:rgb(206,242,255)"/>
					<stop offset="0.1854" style="stop-color:rgb(197,240,255)"/>
					<stop offset="1" style="stop-color:rgb(29,116,217)"/>
					<a:midPointStop offset="0" style="stop-color:#FFFFFF"/>
					<a:midPointStop offset="0.4" style="stop-color:#FFFFFF"/>
					<a:midPointStop offset="0.1854" style="stop-color:#C5F0FF"/>
					<a:midPointStop offset="0.5" style="stop-color:#C5F0FF"/>
					<a:midPointStop offset="1" style="stop-color:#1D74D9"/>
				</radialGradient>
				<path
					d="M78.844 47.229 C80.188 50.456 83.685 60.404 78.306 65.783 C72.927 71.16 45.504 85.409
						42.814 90.518 C40.127 95.626 43.353 102.079 47.386 104.499 C51.419 106.919
						56.26 105.843 58.14 103.425 C60.021 101.002 58.408 93.743 61.904 91.862
						C65.4 89.981 78.576 87.83 81.801 90.786 C85.026 93.744 82.608 100.199
						80.993 102.617 C79.381 105.038 69.701 124.395 45.771 120.633 C21.842 116.866
						7.86 88.635 7.86 78.686 C7.86 68.74 10.45 47.071 44.428 41.852 C75.128
						37.135 78.844 47.229 78.844 47.229 z"
					 style="fill-rule:evenodd;clip-rule:evenodd;fill:url(#XMLID_9_)"/>
				<radialGradient id="XMLID_10_" cx="67.9893" cy="120.318" r="64.916"
					fx="67.9893" fy="120.318" gradientUnits="userSpaceOnUse">
					<stop offset="0" style="stop-color:rgb(139,187,255)"/>
					<stop offset="1" style="stop-color:rgb(13,86,172)"/>
					<a:midPointStop offset="0" style="stop-color:#8BBBFF"/>
					<a:midPointStop offset="0.5" style="stop-color:#8BBBFF"/>
					<a:midPointStop offset="1" style="stop-color:#0D56AC"/>
				</radialGradient>
				<path
					d="M44.352 41.349 C20.147 45.068 7.352 57.978 7.352 78.686 C7.352 89.496 22.233 117.442
						45.694 121.135 C55.989 122.755 70.466 121.031 80.962 103.635 L81.417 102.899
						C83.122 100.341 85.674 93.649 82.146 90.413 C78.681 87.238 65.262 89.477
						61.665 91.416 C59.376 92.648 59.061 95.817 58.786 98.614 C58.601 100.472
						58.429 102.228 57.739 103.113 C55.982 105.373 51.406 106.318 47.648 104.062
						C44.035 101.894 40.619 95.783 43.265 90.753 C44.716 87.996 54.35 82.053
						62.847 76.812 C69.755 72.553 76.279 68.528 78.665 66.142 C84.304 60.503
						80.587 50.09 79.312 47.034 C79.316 47.041 79.318 47.047 79.32 47.054 C79.163
						46.625 75.107 36.624 44.352 41.349 zM45.852 120.13 C22.916 116.521 8.369
						89.238 8.369 78.686 C8.369 58.549 20.865 45.985 44.506 42.354 C74.28
						37.779 78.332 47.312 78.37 47.409 C78.37 47.413 78.374 47.421 78.376 47.425
						C79.587 50.335 83.14 60.231 77.947 65.424 C75.645 67.726 69.17 71.719 62.315
						75.949 C53.284 81.518 43.946 87.276 42.366 90.282 C39.666 95.414 42.652
						102.25 47.125 104.934 C51.399 107.501 56.48 106.387 58.542 103.737 C59.41
						102.621 59.597 100.723 59.796 98.716 C60.06 96.046 60.332 93.286 62.146
						92.311 C65.805 90.34 78.564 88.509 81.459 91.162 C84.302 93.771 82.247 99.825
						80.571 102.336 L80.092 103.112 C71.898 116.689 60.379 122.415 45.852
						120.13 z"
					 style="fill:url(#XMLID_10_)"/>
				<linearGradient id="XMLID_11_" gradientUnits="userSpaceOnUse" x1="7.3979"
					y1="32.71" x2="7.3979" y2="40.5213">
					<stop offset="3.44828%" style="stop-color:rgb(255,255,255)"/>
					<stop offset="100%" style="stop-opacity:0;stop-color:rgb(255,255,255)"/>
				</linearGradient>
				<path a:adobe-blending-mode="screen"
					d="M12.729 38.188 C12.66 37.879 12.584 37.57 12.503 37.259 C11.377 33.001 7.345 30.882
						4.263 32.451 C2.041 33.584 1.332 36.318 2.155 39.03 C3.52 39.964 5.161
						40.511 6.926 40.511 C9.166 40.511 11.199 39.625 12.729 38.188 z"
					 style="fill:url(#XMLID_11_)"/>
				<linearGradient id="XMLID_12_" gradientUnits="userSpaceOnUse" x1="24.1265"
					y1="17.689" x2="24.1265" y2="29.1656">
					<stop offset="8.04598%" style="stop-color:rgb(255,255,255)"/>
					<stop offset="100%" style="stop-opacity:0;stop-color:rgb(255,255,255)"/>
				</linearGradient>
				<path a:adobe-blending-mode="screen"
					d="M30.091 26.244 C30.098 25.93 30.101 25.614 30.099 25.295 C30.072 20.063 26.063 16.42
						22.048 17.31 C18.309 18.14 16.671 22.789 18.243 27.257 C19.722 28.44 21.596
						29.152 23.637 29.152 C26.206 29.15 28.507 28.022 30.091 26.244 z"
					 style="fill:url(#XMLID_12_)"/>
				<linearGradient id="XMLID_13_" gradientUnits="userSpaceOnUse" x1="46.8228"
					y1="7.8203" x2="46.8228" y2="20.6078">
					<stop offset="5.74713%" style="stop-color:rgb(255,255,255)"/>
					<stop offset="100%" style="stop-opacity:0;stop-color:rgb(255,255,255)"/>
				</linearGradient>
				<path a:adobe-blending-mode="screen"
					d="M47.998 7.397 C43.501 7.397 39.194 12.643 40.09 18.354 C41.963 19.755 44.259 20.591
						46.751 20.591 C49.308 20.591 51.658 19.711 53.555 18.242 C54.715 12.406
						52.586 7.397 47.998 7.397 z"
					 style="fill:url(#XMLID_13_)"/>
				<linearGradient id="XMLID_14_" gradientUnits="userSpaceOnUse" x1="81.875"
					y1="2.8604" x2="81.875" y2="21.7413">
					<stop offset="6.89655%" style="stop-color:rgb(255,255,255)"/>
					<stop offset="100%" style="stop-opacity:0;stop-color:rgb(255,255,255)"/>
				</linearGradient>
				<path a:adobe-blending-mode="screen"
					d="M94.457 15.043 C96.379 10.683 96.563 6.419 93.133 3.397 C92.36 2.718 80.537 -0.961
						71.817 9.21 C70.009 11.318 68.759 14.102 67.949 16.994 C71.224 19.922 75.525
						21.716 80.251 21.716 C85.958 21.716 91.055 19.12 94.457 15.043 z"
					 style="fill:url(#XMLID_14_)"/>
				<path
					d="M81.659 46.056 C81.667 46.077 81.679 46.11 81.688 46.132 C81.692 46.144 81.703 46.165
						81.707 46.175 z"/>
				<radialGradient id="XMLID_15_" cx="44.8828" cy="125.006" r="79.009"
					fx="44.8828" fy="125.006" gradientUnits="userSpaceOnUse">
					<stop offset="0" style="stop-color:rgb(255,255,255)"/>
					<stop offset="0.1176" style="stop-color:rgb(230,249,255)"/>
					<stop offset="0.2604" style="stop-color:rgb(206,242,255)"/>
					<stop offset="0.3483" style="stop-color:rgb(197,240,255)"/>
					<stop offset="0.427" style="stop-color:rgb(187,233,253)"/>
					<stop offset="1" style="stop-color:rgb(29,116,217)"/>
					<a:midPointStop offset="0" style="stop-color:#FFFFFF"/>
					<a:midPointStop offset="0.4" style="stop-color:#FFFFFF"/>
					<a:midPointStop offset="0.3483" style="stop-color:#C5F0FF"/>
					<a:midPointStop offset="0.5" style="stop-color:#C5F0FF"/>
					<a:midPointStop offset="0.427" style="stop-color:#BBE9FD"/>
					<a:midPointStop offset="0.5" style="stop-color:#BBE9FD"/>
					<a:midPointStop offset="1" style="stop-color:#1D74D9"/>
				</radialGradient>
				<path
					d="M68.333 69.199 C71.908 66.92 74.875 64.9 76.149 63.626 C77.644 62.131 78.15 59.991
						78.15 57.775 C78.15 56.938 78.075 56.091 77.956 55.263 C76.078 60.465 72.755
						65.201 68.333 69.199 z"
					 style="fill:url(#XMLID_15_)"/>
				<linearGradient id="XMLID_16_" gradientUnits="userSpaceOnUse" x1="44.436"
					y1="44.897" x2="44.436" y2="82.1894">
					<stop offset="5.17241%" style="stop-color:rgb(255,255,255)"/>
					<stop offset="100%" style="stop-opacity:0;stop-color:rgb(255,255,255)"/>
				</linearGradient>
				<path a:adobe-blending-mode="screen"
					d="M54.543 77.784 C56.512 76.546 58.654 75.22 60.98 73.784 C63.495 72.233 66.039 70.664
						68.334 69.199 C72.756 65.201 76.079 60.465 77.957 55.263 C77.515 52.17
						76.427 49.354 76.037 48.421 C75.914 48.193 71.536 40.771 44.892 44.864 C22.477
						48.308 11.052 59.576 10.917 78.352 C17.277 80.772 24.437 82.138 32.011
						82.138 C40.162 82.139 47.832 80.563 54.543 77.784 z"
					 style="fill:url(#XMLID_16_)"/>
				<linearGradient id="XMLID_17_" gradientUnits="userSpaceOnUse" x1="71.1025"
					y1="92.9004" x2="71.1025" y2="102.275">
					<stop offset="0%" style="stop-color:rgb(255,255,255)"/>
					<stop offset="100%" style="stop-opacity:0;stop-color:rgb(255,255,255)"/>
				</linearGradient>
				<path a:adobe-blending-mode="screen"
					d="M80.235 96.218 C80.458 94.838 80.366 93.609 79.749 93.041 C77.865 91.538 66.523 92.838
						63.35 94.548 C62.728 94.881 62.456 97.639 62.326 98.965 C62.234 99.891
						62.138 100.827 61.971 101.731 C63.458 102.071 65.047 102.263 66.707 102.263
						C72.824 102.263 78.058 99.762 80.235 96.218 z"
					 style="fill:url(#XMLID_17_)"/>
			</g>
		</g>
		<path
			d="M90.653 75.097 C103.545 75.097 114.002 64.591 114.002 51.706 C114.002 38.902 103.545
				28.397 90.653 28.397 C77.852 28.397 67.306 38.902 67.306 51.706 C67.307
				64.591 77.853 75.097 90.653 75.097 z"
			 style="opacity:0.1"/>
		<g>
			<radialGradient id="XMLID_18_" cx="86.9443" cy="83.0225" r="26.3657"
				fx="86.9443" fy="83.0225" gradientUnits="userSpaceOnUse">
				<stop offset="0" style="stop-color:rgb(184,187,218)"/>
				<stop offset="1" style="stop-color:rgb(13,45,125)"/>
			</radialGradient>
			<path
				d="M89.297 72.725 C102.191 72.725 112.646 62.22 112.646 49.334 C112.646 36.53 102.191
					26.025 89.297 26.025 C76.497 26.025 65.95 36.53 65.95 49.334 C65.95 62.22
					76.497 72.725 89.297 72.725 z"
				 style="fill:url(#XMLID_18_)"/>
			<radialGradient id="XMLID_19_" cx="88.749" cy="76.9766" r="20.4648" fx="88.749"
				fy="76.9766" gradientTransform="matrix(1 0 0 0.9479 0 4.1203)"
				gradientUnits="userSpaceOnUse">
				<stop offset="0" style="stop-color:rgb(184,187,218)"/>
				<stop offset="1" style="stop-color:rgb(13,45,125)"/>
			</radialGradient>
			<path
				d="M89.297 71.737 C101.645 71.737 111.661 61.677 111.661 49.336 C111.661 37.073 101.644
					27.01 89.297 27.01 C77.039 27.01 66.938 37.073 66.938 49.336 C66.938 61.678
					77.039 71.737 89.297 71.737 z"
				 style="fill:url(#XMLID_19_)"/>
			<path
				d="M78.512 49.43 C78.325 49.251 78.45 48.472 78.45 48.472 C78.45 48.472 75.631 46.979
					72.563 46.081 C72.184 45.97 72.375 45.185 72.751 44.887 L72.626 44.048 C72.563
					43.629 73.253 41.596 73.939 41.419 C74.63 41.238 73.877 42.615 73.877
					42.615 L73.189 43.034 C73.189 43.034 74.002 43.99 74.191 43.99 C74.38 43.99
					74.693 43.511 74.693 43.511 L73.816 42.913 L74.63 42.553 L74.681 42.24 L74.818
					42.194 L76.165 40.138 C77.097 39.752 78.242 39.275 78.387 39.205 C78.638
					39.087 80.391 38.07 80.704 37.832 C81.017 37.592 81.707 37.653 81.957 37.653
					C82.207 37.653 82.582 37.534 82.645 36.874 C82.707 36.218 82.959 36.097
					83.146 36.275 C83.334 36.455 82.958 36.754 83.396 36.874 C83.834 36.993
					84.209 37.295 84.524 36.993 C84.752 36.775 84.446 36.526 84.24 36.337 L87.717
					36.337 L88.094 35.26 L87.279 35.141 L84.272 34.84 L84.272 34.482 L84.032
					34.525 C84.36 32.72 86.292 33.02 84.839 31.974 C84.747 31.911 83.477 33.998
					83.151 33.956 C82.565 33.877 81.804 33.872 81.644 34.064 C81.429 34.318 82.124
					33.19 82.722 32.848 C81.769 33.131 78.755 34.17 75.57 37.592 C72.525
					40.864 71.31 45.271 71.31 45.424 C71.31 45.723 71.937 45.845 72 46.201 C72.061
					46.559 70.811 47.756 70.811 48.354 C70.811 48.629 70.515 52.315 71.562
					55.349 C72.783 58.892 75.391 61.852 75.696 62.046 L76.321 61.746 C76.321 61.746
					74.882 59.175 74.819 58.935 C74.756 58.698 76.446 55.229 77.26 55.349
					C78.073 55.468 77.887 55.709 78.387 55.409 C78.89 55.111 79.201 52.659 79.765
					52.42 C80.329 52.181 80.954 51.884 80.893 51.285 C80.831 50.684 78.701 49.61
					78.512 49.43 zM83.021 32.75 C82.927 32.75 82.824 32.786 82.721 32.847
					C82.968 32.772 83.083 32.75 83.021 32.75 zM89.095 33.944 L89.157 33.047 L88.219
					33.108 L88.344 33.944 zM92.101 31.85 L90.412 31.254 L90.725 32.212 zM85.777
					34.063 C85.965 34.063 89.721 31.554 89.344 31.493 C88.969 31.433 88.906
					31.493 87.905 31.373 C86.904 31.254 85.839 32.808 85.588 33.047 C85.338
					33.287 85.424 34.063 85.777 34.063 zM95.986 56.355 C95.986 56.355 95.561 56.47
					96.046 56.643 C96.531 56.816 98.47 53.821 98.47 53.821 L96.834 54.857 zM107.685
					47.193 L107.367 46.575 C106.992 44.446 106.135 41.713 104.292 38.895
					C101.519 34.656 93.805 32.213 93.805 32.213 L93.38 32.73 L93.14 32.327 L92.533
					32.096 L92.533 32.613 L93.079 33.075 L92.714 33.248 L91.32 33.364 L88.169
					35.092 L88.471 36.475 L88.11 36.592 L87.927 36.878 L88.958 38.434 L89.018
					38.954 L88.169 39.127 L88.169 40.163 L87.685 40.277 L87.745 41.084 L83.624
					43.969 L83.745 45.58 C84.049 45.982 86.413 48.404 86.413 48.404 C86.413
					48.404 89.14 48.518 89.745 48.173 C90.352 47.828 89.928 48.518 90.11 48.69
					C90.293 48.866 90.352 50.075 90.533 50.191 C90.716 50.304 90.533 50.997 90.775
					51.226 C91.019 51.456 91.019 54.223 91.019 54.223 C91.019 54.223 92.474
					56.701 92.474 57.336 C92.474 57.97 92.412 57.91 93.564 57.854 C94.715 57.795
					94.956 57.336 95.201 57.162 C95.443 56.99 95.443 56.586 95.687 56.239
					C95.929 55.894 96.352 54.568 96.898 54.108 C97.442 53.648 98.897 53.302 99.018
					52.494 C99.139 51.687 99.685 51.052 99.685 51.052 L102.306 48.259 L102.231
					48.636 L102.171 50.075 L102.957 49.786 L102.897 48.231 L102.615 47.927
					L102.655 47.885 C102.655 47.885 102.472 47.542 102.23 47.542 C101.988 47.542
					100.532 47.885 100.292 47.829 C100.048 47.769 99.018 45.004 98.835 44.89
					C98.654 44.774 97.503 42.873 97.503 42.873 C97.503 42.873 100.169 46.1 100.594
					47.369 C100.841 48.105 101.766 47.42 102.519 46.649 L102.717 47.137 L103.201
					47.022 L103.139 46.445 L103.685 46.445 L103.685 47.31 L103.504 47.769
					L103.441 48.519 L103.925 48.981 L104.169 48.578 L104.955 47.829 L105.864 47.369
					L106.108 47.829 L106.229 48.463 L105.985 49.152 L105.501 49.558 L105.259
					50.594 L105.259 51.113 L104.715 50.766 L104.653 49.671 L103.867 49.732
					L103.504 50.708 L104.048 51.516 L105.32 51.688 L106.35 50.708 L106.471 48.808
					L106.93 48.197 C107.228 48.971 107.441 49.784 107.441 50.538 C107.441 51.364
					107.818 49.963 107.499 47.442 zM92.41 41.318 L89.137 41.2 L90.531 40.05
					L91.26 40.05 L92.411 40.855 L92.411 41.318 zM96.409 40.911 L96.409 41.432
					L95.015 41.432 L95.138 41.776 L94.287 41.89 L94.225 42.18 L93.621 42.065 L92.529
					41.834 L92.71 41.547 L92.893 41.199 L93.498 40.566 L93.74 41.027 L94.649
					40.97 L95.136 40.45 L97.012 40.795 zM96.53 40.163 L95.803 40.277 L95.684
					39.762 L96.591 39.646 L96.712 39.128 L97.379 39.819 zM103.017 52.093 L103.503
					51.457 L103.017 51.285 L102.654 51.747 L102.229 52.38 L102.592 52.554
					zM100.046 58.084 L99.621 58.429 L99.683 59.294 L100.227 59.294 L100.227 58.545
					L100.713 57.91 L100.713 56.587 L100.409 56.527 zM105.137 54.167 L105.016
					53.244 L104.23 53.244 L104.168 53.936 L103.439 53.822 L103.258 53.071 L102.895
					52.842 L102.47 53.362 L102.047 53.246 L101.926 53.651 L102.41 53.766
					L102.41 57.51 L104.125 57.928 C104.088 57.996 104.056 58.053 104.046 58.087
					C103.923 58.491 104.532 58.664 104.953 58.491 C105.112 58.426 105.61 57.918
					105.924 57.165 C106.362 56.118 106.742 54.735 106.82 54.248 L107.015 53.824
					L105.803 54.283 z"
				 style="opacity:0.36;fill-rule:evenodd;clip-rule:evenodd"/>
			<radialGradient id="XMLID_20_" cx="89.1367" cy="49.793" r="22.2183"
				fx="89.1367" fy="49.793" gradientUnits="userSpaceOnUse">
				<stop offset="0" style="stop-color:rgb(255,255,255)"/>
				<stop offset="1" style="stop-color:rgb(119,131,189)"/>
			</radialGradient>
			<path
				d="M81.715 29.057 C81.602 29.057 81.479 29.104 81.354 29.175 C81.651 29.088 81.79 29.057
					81.715 29.057 zM89.064 30.492 L89.138 29.415 L88.004 29.486 L88.154 30.492
					zM76.261 49.074 C76.032 48.861 76.186 47.926 76.186 47.926 C76.186 47.926
					72.777 46.134 69.062 45.058 C68.603 44.923 68.835 43.982 69.29 43.623 L69.139
					42.617 C69.063 42.116 69.897 39.675 70.731 39.461 C71.565 39.246 70.656
					40.896 70.656 40.896 L69.821 41.399 C69.821 41.399 70.805 42.545 71.035
					42.545 C71.263 42.545 71.64 41.97 71.64 41.97 L70.578 41.254 L71.564 40.821
					L71.626 40.444 L71.79 40.393 L73.421 37.922 C74.548 37.459 75.934 36.888
					76.109 36.804 C76.413 36.661 78.536 35.443 78.913 35.156 C79.294 34.866 80.124
					34.939 80.428 34.939 C80.732 34.939 81.187 34.796 81.262 34.005 C81.34
					33.215 81.642 33.072 81.869 33.29 C82.096 33.502 81.641 33.862 82.173 34.005
					C82.703 34.151 83.156 34.509 83.535 34.151 C83.813 33.887 83.442 33.588 83.191
					33.362 L87.399 33.362 L87.855 32.068 L86.871 31.926 L83.231 31.569 L83.231
					31.138 L82.941 31.187 C83.337 29.021 85.675 29.38 83.914 28.126 C83.808
					28.047 82.267 30.554 81.875 30.504 C81.165 30.411 80.245 30.404 80.051 30.633
					C79.793 30.937 80.631 29.585 81.356 29.174 C80.203 29.515 76.557 30.762
					72.702 34.867 C69.016 38.793 67.548 44.082 67.548 44.266 C67.548 44.624
					68.308 44.77 68.384 45.2 C68.458 45.629 66.945 47.063 66.945 47.782 C66.945
					48.113 66.588 52.535 67.852 56.178 C69.331 60.428 72.488 63.978 72.855 64.213
					L73.611 63.854 C73.611 63.854 71.869 60.769 71.793 60.482 C71.718 60.196
					73.765 56.033 74.748 56.179 C75.732 56.319 75.506 56.609 76.111 56.248 C76.721
					55.891 77.096 52.946 77.777 52.662 C78.461 52.373 79.22 52.014 79.143
					51.299 C79.063 50.583 76.489 49.292 76.261 49.074 zM92.702 27.98 L90.75 27.591
					L91.034 28.412 zM85.048 30.634 C85.278 30.634 89.823 27.622 89.366 27.551
					C88.914 27.48 88.801 27.779 87.586 27.636 C86.375 27.491 85.124 29.128
					84.822 29.415 C84.519 29.703 84.621 30.634 85.048 30.634 zM105.909 52.269 L106.497
					51.509 L105.909 51.302 L105.471 51.855 L104.956 52.615 L105.397 52.824
					zM108.477 54.76 L108.33 53.654 L107.378 53.654 L107.304 54.481 L106.423
					54.346 L106.204 53.445 L105.766 53.171 L105.251 53.792 L104.737 53.655 L104.59
					54.135 L105.178 54.277 L105.178 58.77 L107.254 59.27 C107.205 59.354 107.171
					59.422 107.157 59.462 C107.01 59.943 107.743 60.153 108.257 59.943 C108.447
					59.867 109.051 59.258 109.431 58.354 C109.959 57.099 110.421 55.44
					110.513 54.852 L110.749 54.346 L109.283 54.898 zM111.273 46.258 L111.174 45.651
					C110.719 43.093 109.673 39.824 107.451 36.434 C103.581 30.537 95.115 28.108
					95.115 28.108 L94.248 29.035 L93.956 28.552 L93.222 28.273 L93.222 28.897
					L93.881 29.452 L93.442 29.659 L91.754 29.796 L87.942 31.872 L88.307 33.532
					L87.868 33.672 L87.648 34.016 L88.895 35.882 L88.966 36.505 L87.942 36.714
					L87.942 37.959 L87.356 38.095 L87.429 39.064 L82.44 42.523 L82.586 44.457
					C82.954 44.94 85.815 47.847 85.815 47.847 C85.815 47.847 89.115 47.984
					89.847 47.569 C90.58 47.154 90.068 47.984 90.288 48.193 C90.508 48.401 90.58
					49.852 90.8 49.991 C91.021 50.128 90.8 50.957 91.092 51.235 C91.386 51.511
					91.386 54.832 91.386 54.832 C91.386 54.832 93.147 57.805 93.147 58.565 C93.147
					59.326 93.076 59.257 94.467 59.189 C95.862 59.118 96.154 58.565 96.446
					58.358 C96.742 58.15 96.742 57.667 97.034 57.251 C97.328 56.835 97.841 55.246
					98.502 54.694 C99.161 54.138 100.92 53.723 101.066 52.757 C101.213 51.787
					101.875 51.027 101.875 51.027 L105.044 47.673 L104.954 48.125 L104.883
					49.854 L105.834 49.509 L105.763 47.641 L105.419 47.278 L105.469 47.224 C105.469
					47.224 105.248 46.812 104.954 46.812 C104.662 46.812 102.901 47.224 102.609
					47.157 C102.313 47.087 101.066 43.769 100.846 43.632 C100.627 43.493
					99.234 41.211 99.234 41.211 C99.234 41.211 102.461 45.084 102.972 46.605 C103.272
					47.49 104.39 46.666 105.301 45.741 L105.539 46.33 L106.127 46.188 L106.054
					45.5 L106.715 45.5 L106.715 46.536 L106.494 47.089 L106.419 47.988 L107.006
					48.541 L107.3 48.06 L108.253 47.159 L109.354 46.606 L109.647 47.159
					L109.794 47.922 L109.5 48.749 L108.912 49.234 L108.618 50.479 L108.618 51.099
					L107.959 50.685 L107.886 49.372 L106.935 49.443 L106.495 50.616 L107.154
					51.586 L108.693 51.791 L109.941 50.617 L110.087 48.338 L110.643 47.603 C111.004
					48.532 111.26 49.505 111.26 50.41 C111.26 51.403 111.715 49.724 111.329
					46.696 zM93.077 39.338 L89.116 39.2 L90.802 37.818 L91.682 37.818 L93.078
					38.785 L93.078 39.338 zM97.916 38.855 L97.916 39.477 L96.23 39.477 L96.376
					39.894 L95.35 40.033 L95.275 40.379 L94.543 40.24 L93.223 39.963 L93.443
					39.616 L93.664 39.2 L94.396 38.44 L94.69 38.992 L95.79 38.924 L96.378 38.302
					L98.649 38.716 zM98.063 37.957 L97.184 38.093 L97.037 37.471 L98.136 37.333
					L98.282 36.712 L99.09 37.541 zM102.315 59.463 L101.803 59.876 L101.876
					60.913 L102.535 60.913 L102.535 60.016 L103.123 59.255 L103.123 57.665 L102.756
					57.594 zM97.403 57.386 C97.403 57.386 96.891 57.522 97.475 57.733 C98.062
					57.94 100.409 54.346 100.409 54.346 L98.43 55.588 zM93.413 70.642 L92.972
					70.223 L92.093 70.083 L91.947 70.501 L90.772 70.362 L90.701 69.806 L89.821
					69.806 L88.868 70.362 L87.182 70.362 L87.037 69.946 L84.322 69.665 L83.884
					70.083 L82.784 69.807 L82.64 68.83 L82.126 68.759 L81.54 69.807 L79.561
					69.736 C79.915 69.904 82.869 71.667 87.402 72.036 C93.414 72.522 96.27 71.059
					96.27 71.059 L96.05 70.851 z"
				 style="fill:url(#XMLID_20_)"/>
			<path
				d="M70.159 41.283 C70.157 41.179 70.149 41.075 70.149 40.971 C70.149 40.642 70.17 40.317
					70.203 39.996 C69.617 40.801 69.157 42.291 69.215 42.67 L69.365 43.685
					C68.912 44.047 68.68 44.997 69.138 45.132 C69.921 45.361 70.69 45.624 71.416
					45.892 C70.727 44.6 70.298 43.213 70.183 41.768 C70.016 41.586 69.895 41.442
					69.895 41.442 z"
				 style="fill:none"/>
			<path d="M100.485 54.495"/>
			<path a:adobe-blending-mode="screen"
				d="M89.297 66.136 C79.138 66.136 70.687 60.072 69.913 50.585 C69.874 51.052 69.848 51.522
					69.848 51.995 C69.848 62.143 78.636 70.414 89.297 70.414 C100.036 70.414
					108.748 62.143 108.748 51.995 C108.748 51.522 108.725 51.052 108.685 50.585
					C107.917 60.071 99.532 66.136 89.297 66.136 z"
				 style="opacity:0.1;fill:rgb(255,255,255)"/>
			<linearGradient id="XMLID_21_" gradientUnits="userSpaceOnUse" x1="89.5684"
				y1="28.2471" x2="89.5684" y2="52.0881">
				<stop offset="0%" style="stop-color:rgb(255,255,255)"/>
				<stop offset="100%" style="stop-opacity:0;stop-color:rgb(255,255,255)"/>
			</linearGradient>
			<path a:adobe-blending-mode="screen"
				d="M107.295 39.756 C107.295 46.548 99.359 52.056 89.569 52.056 C79.781 52.056 71.842
					46.549 71.842 39.756 C71.842 32.964 79.78 27.457 89.569 27.457 C99.359 27.458
					107.295 32.964 107.295 39.756 z"
				 style="fill:url(#XMLID_21_)"/>
		</g>
	</g>
</svg>
