<?xml version="1.0" encoding="utf-8"?>
<!-- Generator: Adobe Illustrator 13.0.0, SVG Export Plug-In . SVG Version: 6.00 Build 14948)  -->
<!DOCTYPE svg PUBLIC "-//W3C//DTD SVG 1.1//EN" "http://www.w3.org/Graphics/SVG/1.1/DTD/svg11.dtd">
<svg version="1.1" id="Layer_1" xmlns="http://www.w3.org/2000/svg" xmlns:xlink="http://www.w3.org/1999/xlink" x="0px" y="0px"
	 width="128px" height="128px" viewBox="0 0 128 128" enable-background="new 0 0 128 128" xml:space="preserve">
<g>
	<path fill="#F2F2F2" stroke="#B3B3B3" stroke-width="2" d="M109.502,16.819H18.5c-9.342,0-16.914,7.572-16.914,16.91v67.379
		c0,9.342,7.572,16.914,16.914,16.914h91.002c9.34,0,16.912-7.572,16.912-16.914V33.729
		C126.414,24.392,118.842,16.819,109.502,16.819z"/>
	<linearGradient id="SVGID_1_" gradientUnits="userSpaceOnUse" x1="63.9346" y1="118.9102" x2="63.9346" y2="52.4093">
		<stop  offset="0.0934" style="stop-color:#D1D1D1"/>
		<stop  offset="0.431" style="stop-color:#D9D9D9"/>
		<stop  offset="0.9519" style="stop-color:#EFEFEF"/>
		<stop  offset="0.9725" style="stop-color:#F0F0F0"/>
	</linearGradient>
	<path fill="url(#SVGID_1_)" d="M38.496,82.3c-12.658,0-24.773-1.07-35.959-3.022v22.106c0,9.189,7.447,16.639,16.637,16.639h89.522
		c9.188,0,16.637-7.449,16.637-16.639V59.873C107.314,73.334,75.166,82.3,38.496,82.3z"/>
	<path fill="#B3B3B3" d="M108.934,115.006l-89.745,0.001c-9.211,0-16.678-7.469-16.678-16.681v3.288
		c0,9.213,7.467,16.68,16.678,16.68h89.745c9.209,0,16.676-7.467,16.676-16.68v-3.288
		C125.609,107.538,118.143,115.006,108.934,115.006z"/>
	<linearGradient id="SVGID_2_" gradientUnits="userSpaceOnUse" x1="64.1587" y1="17.1758" x2="64.1587" y2="49.0723">
		<stop  offset="0" style="stop-color:#5F5D5C"/>
		<stop  offset="1" style="stop-color:#181500"/>
	</linearGradient>
	<path fill="url(#SVGID_2_)" d="M125.838,45.492V34.313c0-9.229-7.482-16.712-16.713-16.712h-89.93
		c-9.232,0-16.715,7.483-16.715,16.713v11.178H125.838z"/>
	<path opacity="0.5" fill="#FFFFFF" d="M106.439,20.652H21.611c-8.709,0-15.767,7.059-15.767,15.763v4.661
		c0-8.705,7.058-15.764,15.767-15.764h84.829c8.705,0,15.764,7.059,15.764,15.764v-4.661
		C122.203,27.711,115.145,20.652,106.439,20.652z"/>
	<g>
		<path fill="#99DBF6" d="M49.679,67.855l0.013-0.002l0.037-0.043l-0.016,0.006C49.706,67.83,49.692,67.844,49.679,67.855
			L49.679,67.855z"/>
		<path fill="#99DBF6" d="M49.694,67.803c0.02-0.02,0.026-0.027,0.031-0.037l-0.015,0.002l-0.017,0.021l-0.004-0.004l0.023-0.025
			l-0.016,0.006c0,0-0.049,0.051-0.064,0.07h0.006l0.029-0.027h0.007c-0.005,0.006-0.029,0.035-0.028,0.041
			C49.663,67.834,49.678,67.816,49.694,67.803L49.694,67.803z"/>
		<path fill="#99DBF6" d="M49.31,67.941c0,0-0.015-0.002-0.115,0.092l-0.011,0.004c-0.012,0.006-0.085,0.092-0.085,0.104
			c0,0,0.042-0.027,0.093-0.08c0.026,0,0.068-0.025,0.08-0.033c0.014-0.008,0.029-0.02,0.041-0.031
			c0.02-0.018,0.078-0.086,0.072-0.096h-0.001C49.381,67.9,49.325,67.932,49.31,67.941L49.31,67.941z"/>
		<path fill="#99DBF6" d="M48.944,68.271c0,0,0.02-0.018,0.033-0.031c0.014-0.018,0.016-0.021,0.016-0.021l0,0
			C48.993,68.219,48.944,68.26,48.944,68.271L48.944,68.271z"/>
		<polygon fill="#99DBF6" points="48.975,68.205 48.922,68.26 48.938,68.25 48.981,68.205 		"/>
		<path fill="#99DBF6" d="M48.874,68.277c-0.001-0.016-0.027,0.012-0.041,0.023l-0.047,0.051c-0.004,0.01-0.009,0.018-0.016,0.023
			c-0.071,0.076-0.07,0.078-0.07,0.082c0,0,0.006,0,0.025-0.018l0.029-0.029l0.035-0.027l0.023-0.025h0.008l0.059-0.068h-0.004
			c-0.007,0.01-0.018,0.018-0.023,0.025c0.037-0.047,0.037-0.051,0.037-0.051c-0.008,0-0.01,0.008-0.01,0.008L48.874,68.277z"/>
		<path fill="#99DBF6" d="M48.683,68.457c-0.01,0.004-0.022,0.01-0.031,0.018l-0.05,0.061c0.027-0.018,0.027-0.018,0.043-0.031
			c0.02-0.016,0.055-0.064,0.055-0.064S48.694,68.445,48.683,68.457L48.683,68.457z"/>
		<path fill="#99DBF6" d="M48.6,68.527l0.006-0.006c0,0,0.016-0.016,0.051-0.062c0.014-0.016,0.027-0.031,0.042-0.047H48.69
			c-0.012,0.006-0.059,0.059-0.086,0.086c-0.055,0.047-0.055,0.047-0.111,0.111c0.006-0.004,0.014-0.008,0.018-0.016
			c0.011-0.012,0.048-0.043,0.098-0.084L48.6,68.527L48.6,68.527z"/>
		<path fill="#99DBF6" d="M48.377,68.705c0,0,0.003,0,0.027-0.031c0.008-0.01,0.016-0.018,0.025-0.029
			c-0.015,0.01-0.053,0.053-0.053,0.053V68.705z"/>
		<path fill="#99DBF6" d="M48.131,68.918c-0.02,0.021-0.036,0.045-0.057,0.064v0.002c0,0,0.009-0.008,0.025-0.027
			c0.036-0.039,0.037-0.041,0.039-0.045l0,0L48.131,68.918L48.131,68.918z"/>
		<path fill="#A4D9E6" d="M43.892,81.051l-0.01,0.006c-0.003,0.012-0.027,0.082-0.028,0.109c0,0.018,0.006,0.029,0.023,0.023
			c0.002,0.021,0.004,0.031,0.004,0.031c0.008-0.002,0.016-0.01,0.021-0.072l0.001-0.002c0-0.01,0.008-0.018,0.012-0.027
			C43.921,81.09,43.905,81.051,43.892,81.051L43.892,81.051z"/>
		<path fill="#A4D9E6" d="M44.1,81.355c-0.004,0-0.014-0.006-0.006-0.062c-0.01-0.004-0.014-0.006-0.014-0.006
			c-0.012,0.002-0.025,0.006-0.027,0.055c0,0.021,0,0.033,0,0.033c0.004,0.016,0.01,0.029,0.012,0.047
			c0,0.012-0.004,0.025-0.002,0.039c0,0,0.004,0.012,0.008,0.016c0.007,0.01,0.033,0.02,0.044-0.047
			C44.123,81.367,44.1,81.355,44.1,81.355L44.1,81.355z"/>
		<path fill="#A4D9E6" d="M44.252,81.459l-0.008-0.002c-0.008,0-0.015,0.002-0.015,0.002c-0.013,0-0.017,0-0.024,0
			s-0.02,0.002-0.022,0.02c-0.004,0.016,0.001,0.055,0.006,0.066c0.013,0.023,0.03-0.016,0.032-0.023
			c0.012-0.002,0.025-0.006,0.035-0.008l0.002-0.012C44.264,81.467,44.256,81.461,44.252,81.459L44.252,81.459z"/>
		<path fill="#A4D9E6" d="M44.316,81.742c0,0,0.038,0.004,0.046-0.061c0.006-0.053-0.019-0.066-0.027-0.07
			c-0.006-0.039-0.012-0.049-0.029-0.049c-0.006,0-0.021,0.004-0.037,0.023c-0.004,0.01,0,0.018,0,0.018
			c0.002,0.064,0.017,0.07,0.033,0.057C44.293,81.738,44.305,81.75,44.316,81.742L44.316,81.742z"/>
		<path fill="#A4D9E6" d="M44.499,82.109c-0.004-0.018-0.002-0.037-0.006-0.055c-0.002-0.014-0.008-0.031-0.015-0.045
			c-0.009-0.027-0.03-0.074-0.073-0.088c0.008-0.023,0.008-0.037,0-0.051c-0.01,0.01-0.032,0.031-0.022,0.17
			c-0.032,0.027-0.042,0.082-0.046,0.115c-0.002,0.027,0.01,0.068,0.02,0.086l0.004,0.006c0.004,0.031-0.002,0.07-0.001,0.098
			c0.004,0.123,0.034,0.133,0.034,0.133l0.004-0.004c0,0,0.003-0.014,0.004-0.018c0.002-0.02,0.004-0.057,0.029-0.1
			c0.02-0.033,0.062-0.047,0.079-0.08l0.02-0.064c0.009-0.037-0.009-0.078-0.029-0.102L44.499,82.109L44.499,82.109z"/>
		<path fill="#A4D9E6" d="M46.784,96.5l0.09,0.125c-0.002-0.006-0.02-0.033-0.037-0.057c-0.029-0.043-0.047-0.064-0.047-0.064
			L46.784,96.5z"/>
		<path fill="#A4D9E6" d="M46.893,96.633v0.004c0.047,0.066,0.064,0.09,0.071,0.094c0,0,0-0.004-0.038-0.059
			C46.913,96.652,46.901,96.635,46.893,96.633L46.893,96.633z"/>
		<path fill="#99DBF6" d="M50.226,97.719h-0.003l0.005,0.035c0,0,0.005,0.01,0.017,0.021c0.014,0.016,0.059,0.055,0.083,0.061
			c0,0,0.033,0.008,0.015-0.021C50.327,97.789,50.246,97.719,50.226,97.719L50.226,97.719z"/>
		<path fill="none" d="M87.908,82.012c0.871,12.473-8.525,23.289-20.988,24.162c-12.46,0.871-23.269-8.533-24.142-21.006
			c-0.871-12.469,8.523-23.287,20.988-24.156C76.227,60.137,87.035,69.543,87.908,82.012L87.908,82.012z"/>
		
			<linearGradient id="SVGID_3_" gradientUnits="userSpaceOnUse" x1="-164.1621" y1="-683.4321" x2="-201.2306" y2="-657.4767" gradientTransform="matrix(1 0 0 -1 246.7271 -588.7695)">
			<stop  offset="0" style="stop-color:#DEDEDE"/>
			<stop  offset="1" style="stop-color:#FEFEFE"/>
		</linearGradient>
		<path fill="url(#SVGID_3_)" stroke="#094763" stroke-miterlimit="3.8637" d="M86.596,80.105
			c0.873,12.471-8.525,23.289-20.986,24.16c-12.462,0.873-23.271-8.531-24.143-21.004c-0.871-12.469,8.524-23.287,20.989-24.158
			C74.916,58.23,85.723,67.637,86.596,80.105L86.596,80.105z"/>
		<g>
			
				<linearGradient id="SVGID_4_" gradientUnits="userSpaceOnUse" x1="-210.9233" y1="-670.562" x2="-210.9233" y2="-667.564" gradientTransform="matrix(1 0 0 -1 246.7271 -588.7695)">
				<stop  offset="0" style="stop-color:#32AECE"/>
				<stop  offset="1" style="stop-color:#094E86"/>
			</linearGradient>
			<polygon fill="url(#SVGID_4_)" points="37.151,81.793 34.306,81.643 34.454,78.795 37.302,78.945 			"/>
			
				<linearGradient id="SVGID_5_" gradientUnits="userSpaceOnUse" x1="-209.1719" y1="-662.4526" x2="-209.1719" y2="-658.7983" gradientTransform="matrix(1 0 0 -1 246.7271 -588.7695)">
				<stop  offset="0" style="stop-color:#32AECE"/>
				<stop  offset="1" style="stop-color:#094E86"/>
			</linearGradient>
			<polygon fill="url(#SVGID_5_)" points="38.405,73.684 35.729,72.711 36.702,70.029 39.382,71.006 			"/>
			
				<linearGradient id="SVGID_6_" gradientUnits="userSpaceOnUse" x1="-204.9468" y1="-655.0562" x2="-204.9468" y2="-651.0547" gradientTransform="matrix(1 0 0 -1 246.7271 -588.7695)">
				<stop  offset="0" style="stop-color:#32AECE"/>
				<stop  offset="1" style="stop-color:#094E86"/>
			</linearGradient>
			<polygon fill="url(#SVGID_6_)" points="42.028,66.287 39.78,64.531 41.538,62.285 43.782,64.039 			"/>
			
				<linearGradient id="SVGID_7_" gradientUnits="userSpaceOnUse" x1="-198.6484" y1="-649.2285" x2="-198.6484" y2="-645.2559" gradientTransform="matrix(1 0 0 -1 246.7271 -588.7695)">
				<stop  offset="0" style="stop-color:#32AECE"/>
				<stop  offset="1" style="stop-color:#094E86"/>
			</linearGradient>
			<polygon fill="url(#SVGID_7_)" points="47.73,60.459 46.095,58.123 48.43,56.486 50.063,58.824 			"/>
			
				<linearGradient id="SVGID_8_" gradientUnits="userSpaceOnUse" x1="-190.8501" y1="-645.2754" x2="-190.8501" y2="-641.7188" gradientTransform="matrix(1 0 0 -1 246.7271 -588.7695)">
				<stop  offset="0" style="stop-color:#32AECE"/>
				<stop  offset="1" style="stop-color:#094E86"/>
			</linearGradient>
			<polygon fill="url(#SVGID_8_)" points="54.931,56.506 54.098,53.779 56.825,52.949 57.657,55.674 			"/>
			
				<linearGradient id="SVGID_9_" gradientUnits="userSpaceOnUse" x1="-182.3618" y1="-643.7051" x2="-182.3618" y2="-640.8535" gradientTransform="matrix(1 0 0 -1 246.7271 -588.7695)">
				<stop  offset="0" style="stop-color:#32AECE"/>
				<stop  offset="1" style="stop-color:#094E86"/>
			</linearGradient>
			<polygon fill="url(#SVGID_9_)" points="62.942,54.936 62.94,52.084 65.791,52.084 65.791,54.936 			"/>
			
				<linearGradient id="SVGID_10_" gradientUnits="userSpaceOnUse" x1="-173.8003" y1="-645.5352" x2="-173.8003" y2="-641.9414" gradientTransform="matrix(1 0 0 -1 246.7271 -588.7695)">
				<stop  offset="0" style="stop-color:#32AECE"/>
				<stop  offset="1" style="stop-color:#094E86"/>
			</linearGradient>
			<polygon fill="url(#SVGID_10_)" points="71.131,55.885 72.012,53.172 74.723,54.053 73.842,56.766 			"/>
			
				<linearGradient id="SVGID_11_" gradientUnits="userSpaceOnUse" x1="-166.1069" y1="-649.7109" x2="-166.1069" y2="-645.7285" gradientTransform="matrix(1 0 0 -1 246.7271 -588.7695)">
				<stop  offset="0" style="stop-color:#32AECE"/>
				<stop  offset="1" style="stop-color:#094E86"/>
			</linearGradient>
			<polygon fill="url(#SVGID_11_)" points="78.629,59.264 80.305,56.959 82.611,58.635 80.934,60.941 			"/>
			
				<linearGradient id="SVGID_12_" gradientUnits="userSpaceOnUse" x1="-159.9683" y1="-655.8218" x2="-159.9683" y2="-651.8398" gradientTransform="matrix(1 0 0 -1 246.7271 -588.7695)">
				<stop  offset="0" style="stop-color:#32AECE"/>
				<stop  offset="1" style="stop-color:#094E86"/>
			</linearGradient>
			<polygon fill="url(#SVGID_12_)" points="84.768,64.746 87.078,63.07 88.75,65.375 86.445,67.053 			"/>
			
				<linearGradient id="SVGID_13_" gradientUnits="userSpaceOnUse" x1="-155.9604" y1="-663.3081" x2="-155.9604" y2="-659.7183" gradientTransform="matrix(1 0 0 -1 246.7271 -588.7695)">
				<stop  offset="0" style="stop-color:#32AECE"/>
				<stop  offset="1" style="stop-color:#094E86"/>
			</linearGradient>
			<polygon fill="url(#SVGID_13_)" points="88.971,71.828 91.682,70.949 92.562,73.66 89.852,74.539 			"/>
			
				<linearGradient id="SVGID_14_" gradientUnits="userSpaceOnUse" x1="-154.4839" y1="-671.4136" x2="-154.4839" y2="-668.5151" gradientTransform="matrix(1 0 0 -1 246.7271 -588.7695)">
				<stop  offset="0" style="stop-color:#32AECE"/>
				<stop  offset="1" style="stop-color:#094E86"/>
			</linearGradient>
			<polygon fill="url(#SVGID_14_)" points="90.793,79.795 93.643,79.746 93.693,82.596 90.844,82.645 			"/>
			
				<linearGradient id="SVGID_15_" gradientUnits="userSpaceOnUse" x1="-156.1362" y1="-681.2905" x2="-156.1362" y2="-677.6362" gradientTransform="matrix(1 0 0 -1 246.7271 -588.7695)">
				<stop  offset="0" style="stop-color:#32AECE"/>
				<stop  offset="1" style="stop-color:#094E86"/>
			</linearGradient>
			<polygon fill="url(#SVGID_15_)" points="89.738,88.867 92.416,89.84 91.441,92.521 88.766,91.545 			"/>
			
				<linearGradient id="SVGID_16_" gradientUnits="userSpaceOnUse" x1="-160.3638" y1="-689.0366" x2="-160.3638" y2="-685.0347" gradientTransform="matrix(1 0 0 -1 246.7271 -588.7695)">
				<stop  offset="0" style="stop-color:#32AECE"/>
				<stop  offset="1" style="stop-color:#094E86"/>
			</linearGradient>
			<polygon fill="url(#SVGID_16_)" points="86.117,96.266 88.363,98.021 86.605,100.268 84.363,98.512 			"/>
			
				<linearGradient id="SVGID_17_" gradientUnits="userSpaceOnUse" x1="-166.6606" y1="-694.8335" x2="-166.6606" y2="-690.8628" gradientTransform="matrix(1 0 0 -1 246.7271 -588.7695)">
				<stop  offset="0" style="stop-color:#32AECE"/>
				<stop  offset="1" style="stop-color:#094E86"/>
			</linearGradient>
			<polygon fill="url(#SVGID_17_)" points="80.416,102.094 82.051,104.43 79.717,106.064 78.082,103.73 			"/>
			
				<linearGradient id="SVGID_18_" gradientUnits="userSpaceOnUse" x1="-174.4614" y1="-698.3706" x2="-174.4614" y2="-694.814" gradientTransform="matrix(1 0 0 -1 246.7271 -588.7695)">
				<stop  offset="0" style="stop-color:#32AECE"/>
				<stop  offset="1" style="stop-color:#094E86"/>
			</linearGradient>
			<polygon fill="url(#SVGID_18_)" points="73.215,106.045 74.045,108.77 71.322,109.602 70.486,106.877 			"/>
			
				<linearGradient id="SVGID_19_" gradientUnits="userSpaceOnUse" x1="-182.9497" y1="-699.2378" x2="-182.9497" y2="-696.3882" gradientTransform="matrix(1 0 0 -1 246.7271 -588.7695)">
				<stop  offset="0" style="stop-color:#32AECE"/>
				<stop  offset="1" style="stop-color:#094E86"/>
			</linearGradient>
			<polygon fill="url(#SVGID_19_)" points="65.203,107.619 65.203,110.469 62.352,110.469 62.352,107.619 			"/>
			
				<linearGradient id="SVGID_20_" gradientUnits="userSpaceOnUse" x1="-191.5098" y1="-698.1479" x2="-191.5098" y2="-694.5562" gradientTransform="matrix(1 0 0 -1 246.7271 -588.7695)">
				<stop  offset="0" style="stop-color:#32AECE"/>
				<stop  offset="1" style="stop-color:#094E86"/>
			</linearGradient>
			<polygon fill="url(#SVGID_20_)" points="57.013,106.668 56.133,109.379 53.422,108.498 54.303,105.787 			"/>
			
				<linearGradient id="SVGID_21_" gradientUnits="userSpaceOnUse" x1="-199.2026" y1="-694.3628" x2="-199.2026" y2="-690.3804" gradientTransform="matrix(1 0 0 -1 246.7271 -588.7695)">
				<stop  offset="0" style="stop-color:#32AECE"/>
				<stop  offset="1" style="stop-color:#094E86"/>
			</linearGradient>
			<polygon fill="url(#SVGID_21_)" points="49.516,103.287 47.84,105.594 45.534,103.918 47.209,101.611 			"/>
			
				<linearGradient id="SVGID_22_" gradientUnits="userSpaceOnUse" x1="-205.3428" y1="-688.2515" x2="-205.3428" y2="-684.269" gradientTransform="matrix(1 0 0 -1 246.7271 -588.7695)">
				<stop  offset="0" style="stop-color:#32AECE"/>
				<stop  offset="1" style="stop-color:#094E86"/>
			</linearGradient>
			<polygon fill="url(#SVGID_22_)" points="43.374,97.809 41.07,99.482 39.396,97.176 41.699,95.5 			"/>
			
				<linearGradient id="SVGID_23_" gradientUnits="userSpaceOnUse" x1="-209.3491" y1="-680.3726" x2="-209.3491" y2="-676.7808" gradientTransform="matrix(1 0 0 -1 246.7271 -588.7695)">
				<stop  offset="0" style="stop-color:#32AECE"/>
				<stop  offset="1" style="stop-color:#094E86"/>
			</linearGradient>
			<polygon fill="url(#SVGID_23_)" points="39.174,90.725 36.463,91.604 35.583,88.893 38.292,88.012 			"/>
		</g>
		<g>
			<g>
				
					<linearGradient id="SVGID_24_" gradientUnits="userSpaceOnUse" x1="-178.7749" y1="-692.3896" x2="-178.7749" y2="-648.0444" gradientTransform="matrix(1 0 0 -1 246.7271 -588.7695)">
					<stop  offset="0" style="stop-color:#32AECE"/>
					<stop  offset="1" style="stop-color:#094E86"/>
				</linearGradient>
				<path id="SVGID_25_" fill="url(#SVGID_24_)" d="M70.256,60.537c-0.188-0.191-0.422-0.146-0.693-0.172
					c-0.688-0.07-1.439-0.363-2.115-0.465c-0.023,0.006-0.057,0.002-0.059,0.029c0.324,0.207,0.68,0.207,1.129,0.262
					C69.109,60.26,69.668,60.625,70.256,60.537z M78.773,68.707c-0.023,0.006-0.037,0.021-0.031,0.057
					c0.143,0.189,0.297,0.414,0.465,0.607c0.152,0.178,0.334,0.496,0.58,0.463C79.625,69.299,79.305,68.77,78.773,68.707z
					 M76.051,68.154c-0.15-0.273-0.23-0.619-0.35-0.928c-0.197,0.041-0.336,0.145-0.488,0.232c-0.041,0.279-0.096,0.545-0.232,0.725
					C75.236,68.43,75.865,68.568,76.051,68.154z M65.797,66.533c-0.357-0.045-0.604-0.025-0.898-0.029
					c-0.059,0.055-0.064,0.168-0.145,0.203c-0.74-0.145-0.939,0.381-1.419,0.58c0.041,0.396,0.399,0.469,0.726,0.58
					c0.095-0.111,0.268-0.139,0.289-0.316c0.013-0.102-0.146-0.182-0.056-0.262c0.103,0.197,0.228-0.072,0.375-0.088
					c0.031,0.236-0.22,0.41-0.204,0.723c-0.229-0.004-0.266,0.178-0.315,0.348c0.066,0.135,0.244,0.158,0.404,0.205
					c-0.133,0.012-0.22,0.068-0.349,0.086c-0.307-0.111-1.046-0.656-1.186-0.203c0.006,0.041,0.143-0.027,0.23,0
					c0.123,0.213,0.235,0.439,0.348,0.666c0.268-0.133,0.467,0.014,0.637,0.057c0.533,0.139,0.771-0.205,1.187-0.057
					c0.031-0.119,0.049-0.268-0.029-0.348c-0.289,0.098-0.328-0.207-0.492-0.232c0.119-0.086,0.436,0.119,0.609-0.057
					c0.074-0.125,0.121-0.318,0.059-0.494c0.111-0.186,0.307-0.289,0.58-0.316c0.301-0.291,0.23-0.803,0.379-1.217
					C66.271,66.512,65.973,66.24,65.797,66.533z M62.988,69.543c0.099,0.02,0.089,0.145,0.144,0.203
					c0.275-0.061,0.349-0.326,0.521-0.488c-0.099-0.055-0.082-0.229-0.203-0.262c-0.094,0.16-0.393,0.105-0.492,0.262
					C63,69.363,62.961,69.482,62.988,69.543z M62.988,59.842c0.003,0.262,0.735,0.254,0.868,0.029
					C63.606,59.834,63.247,59.77,62.988,59.842z M67.041,66.91c-0.061,0.256-0.281,0.352-0.377,0.578
					c-0.143-0.049-0.199,0.045-0.316,0.086c0.045,0.092,0.016,0.164-0.031,0.234c0.373,0.256,0.865,0.395,1.479,0.404
					c0.098-0.037,0.109-0.162,0.23-0.172c0.822,0.055,1.133,0.625,1.652,0.984c0.15,0.021,0.191-0.062,0.314-0.061
					c0.055,0.049,0.074,0.123,0.059,0.234c-0.029,0.066-0.193-0.002-0.174,0.113c0.059,0.32,0.715,0.041,0.752,0.379
					c-0.02,0.092-0.109,0.121-0.113,0.232c0.205,0.645,0.701,1.023,1.305,1.307c0.523,0.242,0.725,0.635,1.361,0.635
					c0.285-0.117,0.518-0.293,0.58-0.635c-0.15-0.52-0.623-0.713-0.641-1.365c0.092-0.082,0.189-0.158,0.291-0.229
					c0.016-0.162,0.047-0.305,0.086-0.436c-0.297-0.613,0.225-1.039,0.434-1.422c-0.057-0.293-0.258-0.434-0.406-0.607
					c-0.084-0.1-0.08-0.188-0.174-0.26c-0.045-0.037-0.135-0.037-0.201-0.088c-0.295-0.227-0.48-0.621-0.697-0.809
					c-0.146-0.133-0.406-0.236-0.576-0.379c-0.156-0.131-0.197-0.297-0.381-0.318c-0.131-0.033-0.111,0.08-0.232,0.059
					c-0.201-0.303-0.418-0.584-0.58-0.928c-0.123,0.025-0.137-0.055-0.232-0.057c0.027,0.25-0.525,0.143-0.521,0.461
					c-0.252-0.006-0.434-0.084-0.721-0.057c-0.219,0.361-0.551,0.609-1.014,0.725c-0.02,0.115,0.025,0.166,0.029,0.26
					c-0.072,0.027-0.125,0.068-0.234,0.059c-0.045,0.361-0.5,0.311-0.664,0.549c0.025,0.15,0.1,0.248,0.117,0.406
					C67.309,66.828,67.236,66.93,67.041,66.91z M82.598,71.051c-0.184-0.383-0.502-0.678-0.641-1.014
					c-0.17-0.412-0.123-0.783-0.348-1.102c0.16,0.09,0.244-0.057,0.434-0.027c0.092-0.238-0.117-0.457-0.291-0.666
					c0.016,0.068-0.172,0.041-0.17,0.174c-0.213-0.109-0.367-0.271-0.439-0.521c0.115,0.008,0.109-0.105,0.146-0.174
					c0.223,0.029,0.318,0.285,0.451,0.393c-0.568-0.742-1.18-1.443-1.834-2.107c-0.465-0.432-0.906-0.855-1.355-1.27
					c-1.311-1.133-2.754-2.115-4.301-2.928c-0.268-0.125-0.539-0.248-0.811-0.373c-0.643-0.291-1.281-0.584-1.939-0.848
					c-1.705-0.621-3.5-1.045-5.365-1.244c-3.412-0.246-6.847,0.17-9.291,1.166c-1.536,0.627-3.033,1.188-4.287,2.029
					c0.312-0.16,0.555-0.389,0.927-0.494c-0.552,0.434-1.089,0.881-1.593,1.363c0.043,0.016,0.148-0.033,0.145,0.029
					c-0.228,0.213-0.586,0.451-0.521,0.781c-0.204,0.025-0.25-0.213-0.434-0.23c-0.148-0.018-0.435,0.143-0.638,0.256
					c-0.376,0.215-0.79,0.365-0.927,0.699c0.543,0.145,0.898-0.393,1.477-0.176c-0.038,0.193-0.064,0.395-0.059,0.639
					c0.186,0.062,0.15,0.182,0.174,0.375c0.281-0.113,0.535-0.258,0.898-0.287c-0.042,0.418,0.043,0.709,0.289,0.838
					c0.166-0.367,0.391-0.645,0.611-0.953c0.109-0.16,0.162-0.338,0.26-0.521c0.154-0.287,0.589-0.65,0.261-1.014
					c0.487-0.285,0.712-0.836,1.245-1.074c0-0.076-0.011-0.166,0.029-0.203c0.148-0.053,0.314-0.092,0.349-0.26
					c0.295-0.23,0.679-0.314,0.954-0.58c0.057-0.051,0.085-0.123,0.145-0.172c0.146-0.115,0.351-0.174,0.522-0.291
					c0.162-0.109,0.303-0.279,0.462-0.377c0.514-0.311,1.221-0.414,1.854-0.637c0.637-0.225,1.326-0.354,1.97-0.465
					c-0.024,0.027-0.2,0.045-0.115,0.088c0.259-0.059,0.462-0.008,0.726-0.027c0.357-0.031,0.68-0.215,1.043-0.262
					c0.338-0.045,0.75,0.033,1.131,0c0.535-0.047,1.285-0.17,1.851-0.088c0.076,0.012-0.062,0.057,0.057,0.059
					c0.523,0.006,1.002,0.07,1.449,0.086c0.111,0.004,0.098,0.135,0.205,0.145c0.857-0.064,1.428,0.195,2.025,0.348
					c0.67,0.176,1.205,0.336,1.77,0.551c0.283,0.109,0.625,0.207,0.84,0.318c0.098,0.051,0.156,0.164,0.26,0.203
					c0.154,0.061,0.344,0.033,0.492,0.088c0.236,0.086,0.441,0.27,0.666,0.377c0.287,0.131,0.664,0.164,0.84,0.461
					c-0.676,0.066-0.795-0.672-1.535-0.637c0.078,0.254,0.623,0.549,0.434,0.898c0.428,0.324,0.756,0.748,1.305,0.955
					c0.15,0.311,0.443,0.352,0.725,0.549c0.15,0.109,0.262,0.287,0.404,0.379c0.25,0.158,0.553,0.219,0.754,0.406
					c0.229,0.209,0.307,0.562,0.521,0.811c0.303,0.348,0.66,0.494,1.072,0.693c0.02-0.135-0.039-0.346,0.027-0.434
					c0.271-0.008,0.447,0.076,0.666,0.115c-0.312-0.623-0.904-0.967-1.445-1.361c-0.848-0.195-1.295-0.945-1.883-1.301
					c0.578,0.121,0.758,0.646,1.334,0.779c0.102,0.047,0.016-0.098,0.084-0.088c0.977,0.639,2.09,1.291,2.375,2.52
					c-0.221-0.166-0.484-0.441-0.84-0.375c0.312,0.277,0.703,0.473,1.014,0.752c0,0.078-0.014,0.168,0.027,0.203
					c0.199,0.18,0.26,0.434,0.404,0.666c0.301,0.473,0.799,0.881,0.9,1.42c0.051,0.268-0.008,0.543,0.145,0.811
					c1.012,0.148,1.297,1.176,1.014,2.115c0.441,0.521,0.734,1.197,1.186,1.709c0.068-0.217,0.264-0.217,0.32-0.406
					c0.035-0.119,0.006-0.338,0-0.434C83.141,72.055,82.873,71.643,82.598,71.051z M81.584,91.99
					c-0.16-0.068-1.031-0.137-1.16-0.115c-0.346,0.062-0.617,0.42-0.869,0.494c-0.096-0.029-0.09-0.16-0.232-0.145
					c-0.496,0.146-1.064,0.021-1.506,0.287c0.049-0.613-0.279-1.367-0.957-1.328c-0.42,0.018-0.746,0.369-1.213,0.375
					c0-0.127,0.008-0.262-0.031-0.35h-0.404c-0.4-0.324-0.855-0.59-1.48-0.695c-0.262,0.16-0.594,0.215-0.982,0.205
					c-0.725-0.02-1.557-0.061-2.143,0.201c0.053-0.104,0.094-0.283,0-0.375c-0.738,0.373-1.523,0.697-1.912,1.418
					c-0.379,0.023-0.67-0.141-1.012-0.088c-0.143,0.025-0.26,0.166-0.408,0.176c-0.406,0.025-0.715-0.266-1.1-0.377
					c0.236-0.557,0.098-1.273-0.145-1.738c-0.561-0.15-1.307-0.234-1.91-0.172c0.137-0.639,0.433-1.113,0.695-1.623
					c-0.421-0.189-0.789-0.25-1.247-0.057c-0.378,0.158-0.687,0.568-1.043,0.637c-0.401,0.076-0.906-0.096-1.36-0.174
					c-0.047-0.246,0.03-0.402-0.029-0.639c-0.052-0.205-0.273-0.355-0.289-0.549c-0.015-0.162,0.11-0.32,0.145-0.463
					c0.105-0.465,0.16-0.957,0.174-1.479c0.174-0.148,0.309-0.379,0.52-0.434c0.621-0.158,0.867,0.203,1.275,0.232
					c0.172,0.012,0.42-0.025,0.579-0.088c0.135-0.053,0.218-0.236,0.406-0.289c0.462-0.131,0.915-0.094,1.383-0.115
					c0.346-0.016,0.43,0.055,0.525,0.414c0.123,0.467,0.482,0.707,0.578,1.174c0.031,0.152,0.42-0.189,0.445-0.227
					c0.145-0.219,0.221-0.637,0.146-0.895c-0.053-0.186-0.189-0.328-0.262-0.508c-0.07-0.182-0.047-0.361-0.123-0.539
					c0.27-0.51,0.883-0.617,1.244-1.012c0.115-0.127,0.262-0.336,0.35-0.492c0.121-0.227,0.32-0.637,0.404-0.928
					c0.107-0.367-0.062-0.729,0.115-1.16c0.41-0.166,0.84-0.316,1.186-0.547c-0.068-0.08-0.15-0.139-0.174-0.262
					c0.129-0.193,0.299-0.455,0.438-0.551c0.082-0.561,0.16-1.133,0.258-1.68c0.207-0.07,0.348-0.215,0.611-0.232
					c-0.012-0.105-0.117-0.117-0.088-0.262c-0.219-0.002-0.676,0.006-0.75-0.232c0.389-0.527,1.369-0.291,1.852-0.723
					c0.041-0.15,0.084-0.303,0.174-0.404c0.092,0.068,0.16,0.006,0.203,0.084c-0.064,0.281-0.209,0.633-0.117,0.898
					c0.312-0.217,0.725-0.338,1.014-0.578c0.004,0.029,0.031,0.045,0.057,0.057c0.02-0.111-0.182-0.094-0.316-0.115
					c-0.301-0.338-0.467-0.811-0.666-1.246c-0.584-0.424-1.451-0.508-2.029-0.928c-0.266-0.193-0.35-0.539-0.664-0.607
					c-0.158,0.162-0.182,0.459-0.381,0.578c-0.213,0.002-0.43,0.008-0.607-0.027c-0.172-0.449-0.406-0.832-0.725-1.131
					c-0.479-0.082-1.123-0.111-1.418,0.146c-0.018,0.873-0.018,1.732,0.49,2.084c-0.135,0.287-0.496,0.424-0.521,0.811
					c-0.016,0.301,0.363,0.887-0.084,1.07c-0.301-0.287-0.596-0.58-0.52-1.242c-0.312-0.076-0.59-0.199-0.9-0.32
					c-0.277-0.109-0.592-0.312-0.867-0.348c-0.317-0.041-0.664,0.102-0.956-0.115c-0.146-0.311-0.421-0.469-0.437-0.838
					c-0.023-0.619,0.643-0.898,0.871-1.336c0.379-0.045,0.64-0.361,0.837-0.49c-0.081,0.369,0.117,0.582,0.377,0.693
					c0.156-0.082,0.23-0.254,0.35-0.375c0.135,0.076,0.291,0.131,0.49,0.145v-0.26c-0.406-0.164-0.811-0.326-1.043-0.666
					c0.412-0.176,1.109-0.357,0.725-0.986c0.105,0.006,0.148-0.24,0.287-0.291c0.395,0.324,1.178,0.254,1.537,0.611
					c-0.043,0.238-0.135,0.426-0.174,0.666c-0.254,0.074-0.434,0.223-0.695,0.289c0.018,0.135-0.047,0.186-0.059,0.291
					c0.281-0.031,0.547-0.068,0.812-0.115c0.402,0.281,0.855,0.512,1.387,0.664c0.115-0.08,0.25-0.139,0.408-0.174
					c0.033-0.303,0.348-0.416,0.262-0.752c-0.293-0.143-0.629-0.24-0.754-0.551c0.377-0.021,0.596,0.162,0.926,0.029
					c0.006-0.168-0.053-0.273-0.055-0.434c-0.266-0.172-0.518-0.354-0.957-0.348c-0.33-0.27-0.617-0.58-1.102-0.695
					c-0.057,0.076-0.129,0.141-0.289,0.115c-0.277-0.209-0.414-0.568-0.752-0.695c-0.324-0.119-0.74-0.082-1.186-0.174
					c-0.133,0.105-0.15,0.314-0.234,0.463c-0.057-0.125-0.117-0.252-0.23-0.318c-0.147-0.002-0.24,0.049-0.404,0.029
					c-0.211,0.289-0.355,0.908-0.061,1.215c0.3,0.102,0.572,0.072,0.898,0.115c-0.152,0.186-0.332,0.348-0.55,0.465
					c-0.186-0.084-0.321-0.275-0.55-0.232c-0.341-0.244-0.524-0.635-0.81-0.928c-0.193,0.18-0.193,0.689,0.086,0.781
					c-0.06,0.117,0.05,0.299-0.031,0.434c-0.13-0.1-0.191,0.129-0.287,0.059c0.059-0.219,0.094-0.508-0.057-0.637
					c-0.422,0.014-0.602,0.268-0.843,0.463c-0.602-0.068-1.009-0.295-1.506,0c-0.106-0.094-0.292-0.111-0.286-0.318
					c0.525,0.053,1.268,0.182,1.619-0.203c-0.17,0.029-0.178-0.311-0.318-0.404c0.023-0.277-0.056-0.447-0.057-0.697
					c-0.18-0.082-0.259-0.307-0.52-0.318c-0.092-0.004-0.193,0.082-0.29,0.088c-0.454,0.029-0.649-0.15-0.811-0.404
					c0.027-0.08,0.06-0.156,0.058-0.264c-0.206-0.096-0.305-0.057-0.552-0.027c-0.152-0.107-0.241-0.279-0.437-0.346
					c-0.262,0.273-0.463,0.613-0.693,0.924c0.17,0.264,0.651,0.039,0.928,0.203c0.133-0.127,0.22-0.299,0.408-0.375
					c0.051,0.172-0.163,0.219-0.203,0.434c-0.05,0.244,0.156,0.611-0.059,0.811c-0.41-0.314-1.129-0.318-1.419-0.754
					c-0.052-0.01-0.144,0.082-0.175,0c-0.039-0.09,0.073-0.172,0-0.201c-0.373,0.225-0.639-0.143-1.129-0.059
					c-0.164-0.133-0.348-0.252-0.58-0.318c-0.04-0.363-0.145-0.611-0.405-0.779c-0.434-0.283-0.925-0.25-0.521-0.842
					c-0.154-0.125-0.208-0.309-0.203-0.521c-0.404-0.15-0.881-0.205-1.361-0.143c-0.207,0.35-0.682,0.635-1.157,0.461
					c-0.022,0.105-0.041,0.254-0.06,0.434c0.072,0.064,0.141,0.131,0.203,0.207c-0.141,0.014-0.141,0.166-0.262,0.201
					c-0.121-0.014-0.167-0.104-0.287-0.117c-0.486,0.084-0.551,0.258-0.812,0.668c-0.238,0.373-0.287,0.777-0.406,1.156
					c0.07,0.018,0.211-0.033,0.234,0.031c-0.157,0.23-0.834,0.305-1.103,0.145c0.054,0.264,0.251,0.383,0.435,0.52
					c0.301-0.135,0.695-0.244,0.955-0.055c-0.211,0.168,0.152,0.277-0.06,0.461c0.205-0.031,0.253-0.209,0.29-0.406
					c0.241-0.094,0.38-0.512,0.666-0.375c-0.037,0.17-0.201,0.35-0.2,0.461c0.267,0.131,0.464-0.021,0.694-0.086
					c-0.031,0.094-0.08,0.174-0.088,0.289c0.1-0.014,0.164,0.014,0.232,0.029c0.263,0.625,0.913,0.867,0.898,1.77
					c0.091-0.006,0.175-0.002,0.201,0.057c0.316,0.709,0.029,1.83,0.207,2.578c-0.43,0.295-0.063,0.615,0.025,0.896
					c0.199,0.621-0.125,1.209-0.318,1.682c-0.103,0.254-0.285,0.471-0.375,0.729c-0.085,0.232-0.037,0.455-0.031,0.707
					c0.015,0.574-0.023,1.156,0.082,1.723c0.023,0.117,0.043,0.242,0.058,0.363c0.014,0.088-0.019,0.248-0.013,0.305
					c0.021,0.188,0.233,0.26,0.346,0.385c0.105,0.123,0.182,0.289,0.281,0.424c0.121,0.154,0.314,0.293,0.407,0.49
					c0.136,0.297,0.058,0.602,0.114,0.904c0.031,0.166,0.125,0.162,0.168,0.287c0.039,0.107-0.029,0.191-0.022,0.299
					c0.007,0.123,0.085,0.23,0.142,0.336c0.074,0.143,0.1,0.309,0.179,0.445c0.073,0.123,0.2,0.176,0.271,0.283
					c0.183,0.268,0.246,0.615,0.448,0.895c0.195,0.266,0.387,0.559,0.695,0.551c0.01-0.121,0.146-0.646-0.025-0.723
					c-0.326-0.145-0.611-0.586-0.789-0.877c-0.093-0.154-0.299-0.439-0.34-0.59c-0.088-0.338,0.173-0.764,0.061-1.053
					c0.172,0.029,0.162,0.209,0.196,0.346c0.115,0.465,0.249,0.918,0.376,1.332c0.525,0.232,0.791,0.533,1.104,0.957
					c0.172,0.232,0.382,0.471,0.488,0.693c0.163,0.33,0.113,0.693,0.232,1.045c0.121,0.348,0.48,0.574,0.581,0.898
					c0.926,0.336,1.835,0.693,2.55,1.244c0.633-0.383,1.068,0.098,1.505,0.348c0.87,0.496,2.356,0.328,2.635,1.273
					c0.109,0.027,0.189,0.082,0.232,0.176c0.035,0.119-0.059,0.113-0.057,0.203c0.334,0.131,0.645,0.281,0.811,0.58
					c0.484,0.215,1.229,0.146,1.705-0.031c0.127,0.205,0.445,0.217,0.58,0.406c0.01,0.254,0.053,0.422-0.025,0.611
					s-0.455,0.816-0.58,0.955c-0.17,0.193-0.42,0.297-0.52,0.52c-0.148,0.342-0.051,0.66,0.029,0.957
					c-0.443,0.182-0.215,0.723-0.057,1.072c0.227,0.059,0.406,0.17,0.605,0.26c0.186,0.744,0.869,0.984,1.014,1.768
					c0.545,0.223,1.15-0.146,1.623,0.201c0.02,0.111,0.07,0.184,0.086,0.293c-0.168,0.227-0.316,0.471-0.377,0.809
					c-0.67,0.701-0.781,1.957-1.883,2.232c-0.064,0.203-0.166,0.375-0.26,0.549c0.043,0.004,0.107-0.01,0.117,0.029
					c-0.268,0.227-0.986,0.15-1.014,0.521c0.328,0.121,0.781-0.096,1.186-0.088c0.072-0.041-0.055-0.092,0.059-0.084
					c1.086-0.379,2.107-0.756,3.072-1.307c0.398-0.139,0.736-0.193,1.102-0.348c0.348-0.146,0.539-0.43,0.84-0.607
					c0.197-0.119,0.402-0.182,0.605-0.32c0.732-0.494,1.615-0.879,2.143-1.531c0.102-0.354,0.338-0.543,0.58-0.727
					c1-0.764,2.219-1.525,2.896-2.578c0.242-0.371,0.273-0.836,0.52-1.332c0.426-0.844,1.4-1.4,1.68-2.463
					C81.703,92.166,81.658,92.027,81.584,91.99z M67.334,79.508c0.109,0.004,0.129,0.098,0.26,0.088
					c0.039-0.023,0.039-0.094,0.055-0.146h0.115c0.074,0.086,0.023,0.117,0.029,0.26c-0.115,0.066-0.268,0.105-0.436,0.115
					C67.297,79.758,67.285,79.607,67.334,79.508z M66.449,79.082c0.082,0.102,0.123,0.236,0.092,0.43
					c-0.211,0.059-0.443,0.076-0.648-0.008c0.135-0.303-0.277-0.637-0.523-0.75c0.215-0.312,0.342-0.199,0.592-0.033
					C66.156,78.855,66.34,78.945,66.449,79.082z M64.672,80.354c-0.064,0.117-0.115,0.24-0.127,0.369
					c-0.498,0.074-0.546-0.355-0.417-0.729c0.054-0.154,0.743-1.096,0.743-1.096c0.082,0.062,0.17,0.033,0.232,0.061
					c-0.004,0.334-0.062,0.646-0.193,0.955C64.848,80.055,64.75,80.201,64.672,80.354z M65.014,77.973
					c0.115,0.156,0.23,0.314,0.291,0.523c-0.648,0.008-1.105,0.16-1.74,0.115c-0.027-0.09-0.139-0.092-0.145-0.203
					C63.961,78.238,64.329,77.66,65.014,77.973z M83.127,70.16c-0.078-0.123-0.156-0.244-0.244-0.354
					C82.965,69.918,83.045,70.037,83.127,70.16z M86.217,80.406c-0.113-1.031-0.211-2.021-0.348-3.014
					c-0.053-0.371-0.08-0.764-0.139-1.131c-0.088-0.344-0.186-0.686-0.293-1.025c-0.131-0.338-0.283-0.682-0.412-1.027
					c-0.129-0.355-0.242-0.73-0.359-1.088c-0.359-0.85-0.77-1.67-1.223-2.465c-0.107-0.174-0.215-0.338-0.318-0.496
					c0.182,0.305,0.334,0.639,0.453,1.008c-0.18-0.16-0.371-0.613-0.549-0.58c0.168,0.895,0.346,1.775,0.49,2.695
					c-0.045,0.1-0.227,0.061-0.23,0.201c0.178,0.51,0.297,1.074,0.348,1.709c0.242,0.463,0.559,0.994,0.578,1.564
					c0.018,0.389-0.1,0.768-0.113,1.127c-0.02,0.455-0.004,0.949,0.059,1.393c0.102,0.717,0.514,1.391,0.607,2.143
					c0.031,0.279-0.051,0.508,0,0.752c0.057,0.299,0.275,0.611,0.23,0.957c0.117,0.047,0.297,0.033,0.406,0.086
					c0.082,0.172,0.154,0.348,0.174,0.578c0.119,0.043,0.23,0.098,0.35,0.146c0.094-0.705,0.449-1.354,0.461-2.059
					C86.398,81.416,86.27,80.902,86.217,80.406z M82.682,70.037c-0.16-0.129-0.145-0.438-0.379-0.494
					C82.393,69.729,82.502,70.043,82.682,70.037z M80.338,69.518c-0.059-0.445-0.221-1.035-0.467-1.391
					c-0.191-0.068-0.371-0.15-0.664-0.117c-0.414-0.213-0.811-0.445-1.246-0.639c-0.018,0.068-0.096,0.08-0.117,0.146
					c0.176,0.203,0.312,0.443,0.521,0.609c0.055-0.074,0.113-0.139,0.234-0.146c0.701,0.381,1.189,0.973,1.648,1.594
					C80.262,69.539,80.285,69.516,80.338,69.518z M68.895,88.195c0.141-0.119,0.166-0.355,0.406-0.375
					c-0.193-0.08-0.385-0.328-0.637-0.375c-0.195-0.039-0.428,0.039-0.639,0.023c-0.688-0.029-1.414-0.51-2.029-0.256
					c-0.039,0.094-0.076,0.193-0.115,0.287c0.523,0.131,1.047,0.152,1.537,0.348c0.281,0.115,0.596,0.436,0.869,0.436
					C68.51,88.287,68.67,88.018,68.895,88.195z M50.967,68.07c-0.041,0.076-0.152,0.076-0.145,0.201
					C50.887,68.238,51.024,68.129,50.967,68.07z M72.021,88.053c-0.037,0.328,0.172,0.395,0.41,0.377
					c0.023-0.166,0.141-0.244,0.201-0.377C72.432,87.889,72.246,87.973,72.021,88.053z M53.254,74.209
					c0.121-0.016,0.172-0.102,0.262-0.145c-0.051-0.203,0.037-0.223,0.115-0.348c-0.193,0.104-0.083-0.139-0.232-0.146
					c-0.007,0.043-0.062,0.035-0.087,0.059C53.405,73.871,53.207,73.93,53.254,74.209z M54.21,64.506
					c-0.112,0.021-0.235,0.031-0.288,0.113c0.041,0.018,0.07,0.047,0.087,0.088C54.122,64.686,54.165,64.594,54.21,64.506z
					 M72.371,88.689c0.023-0.043,0.07-0.061,0.145-0.057c-0.002-0.033,0.006-0.08-0.029-0.088
					C72.477,88.604,72.256,88.6,72.371,88.689z M67.939,88.689v0.291c0.242,0.166,0.662-0.041,0.725-0.32
					C68.4,88.617,68.158,88.578,67.939,88.689z M69.648,88.195c0.043,0.096,0.107,0.166,0.145,0.264
					c0.65,0.275,1.197,0.049,1.824-0.115c0.021-0.18-0.09-0.217-0.084-0.379c-0.553-0.043-1.037-0.08-1.682-0.115
					C69.818,88,69.691,88.057,69.648,88.195z M56.847,61.553c-0.104-0.018-0.151,0.023-0.175,0.086
					C56.75,61.65,56.917,61.502,56.847,61.553z M71.039,62.246c-0.229-0.031-0.381-0.143-0.609-0.174
					c0.006,0.117,0.088,0.162,0.086,0.289c0.137,0.039,0.283,0.064,0.432,0.086c-0.049,0.098-0.148,0.137-0.201,0.234
					c0.201,0.41,0.889,0.459,1.275,0.174c-0.246-0.219-0.545-0.383-0.955-0.438C71.012,62.377,71.107,62.309,71.039,62.246z
					 M62.843,59.812c-0.116-0.082-0.298,0.016-0.407,0.029c-0.094-0.021-0.221,0.035-0.059,0.029
					C62.506,59.904,62.811,60.012,62.843,59.812z M62.262,67.924c0.184,0,0.319-0.049,0.435-0.115v-0.176
					c-0.288,0.027-0.214-0.305-0.489-0.145C62.124,67.686,62.188,67.756,62.262,67.924z M62.813,69.922
					c-0.039-0.166,0.066-0.186,0.088-0.289c-0.051-0.162-0.106-0.316-0.146-0.492c-0.146-0.066-0.228-0.201-0.406-0.232
					c-0.24,0.184-0.436,0.412-0.578,0.695C61.948,69.881,62.314,69.969,62.813,69.922z M60.932,68.24
					c-0.31-0.074-0.676-0.496-0.9-0.143c0.043,0.148,0.125,0.262,0.203,0.377c0.254-0.09,0.443,0.152,0.668,0.201
					c0.17,0.037,0.348-0.082,0.521,0.031c0.014-0.281-0.086-0.391,0-0.609C61.186,67.992,61.075,68.166,60.932,68.24z
					 M57.106,61.348c0.268-0.156,0.65-0.197,0.842-0.434C57.57,60.943,57.244,61.178,57.106,61.348z M59.309,67.863
					c0.092,0.016,0.104,0.111,0.203,0.117c0.167-0.211,0.641-0.113,0.899-0.23c-0.116-0.578-0.64-0.141-1.044-0.059
					C59.399,67.801,59.295,67.775,59.309,67.863z M62.002,68.531c0.294,0.016,0.455,0.164,0.637,0.291
					c-0.007-0.199,0.238-0.24,0.146-0.436c-0.201-0.014-0.33-0.098-0.466-0.172C62.236,68.34,62.047,68.365,62.002,68.531z"/>
			</g>
		</g>
		<g opacity="0.6">
			<path fill="#FFFFFF" d="M64.307,80.584c6.908,5.768,16.234,2.6,22.052-0.416C85.51,68.564,75.832,59.422,64.01,59.422
				c-11.855,0-21.554,9.23-22.348,20.895C47.056,77.676,56.881,74.369,64.307,80.584z"/>
		</g>
	</g>
</g>
</svg>
