<?xml version="1.0" encoding="utf-8"?>
<!-- Generator: Adobe Illustrator 13.0.0, SVG Export Plug-In . SVG Version: 6.00 Build 14948)  -->
<!DOCTYPE svg PUBLIC "-//W3C//DTD SVG 1.1//EN" "http://www.w3.org/Graphics/SVG/1.1/DTD/svg11.dtd">
<svg version="1.1" id="Layer_1" xmlns="http://www.w3.org/2000/svg" xmlns:xlink="http://www.w3.org/1999/xlink" x="0px" y="0px"
	 width="128px" height="128px" viewBox="0 0 128 128" enable-background="new 0 0 128 128" xml:space="preserve">
<g>
	<radialGradient id="SVGID_1_" cx="63.9746" cy="65.4932" r="62.0552" gradientUnits="userSpaceOnUse">
		<stop  offset="0" style="stop-color:#FAFAFA"/>
		<stop  offset="0.3109" style="stop-color:#F4F4F4"/>
		<stop  offset="0.7262" style="stop-color:#E3E3E3"/>
		<stop  offset="1" style="stop-color:#D4D4D4"/>
	</radialGradient>
	<path fill="url(#SVGID_1_)" stroke="#B3B3B3" stroke-width="2" d="M18.855,3.416l90.233,0.006c9.342,0,16.914,7.578,16.914,16.927
		l0.006,90.294c0,9.35-7.574,16.928-16.916,16.928l-90.233-0.004c-9.341,0-16.915-7.58-16.915-16.928L1.941,20.343
		C1.94,10.995,9.514,3.416,18.855,3.416L18.855,3.416z"/>
	<path fill="#B3B3B3" d="M109.119,122.393l-90.372-0.004c-8.541,0-15.588-6.334-16.753-14.562v2.416
		c0,9.348,7.574,16.926,16.915,16.926l90.235,0.006c9.34,0,16.914-7.578,16.914-16.926v-4.803
		C126.055,114.805,118.471,122.393,109.119,122.393z"/>
	<path fill="#FFFFFF" d="M21.897,12.278l84.33,0.004c7.971,0,14.545,5.911,15.631,13.588v-2.254c0-8.724-7.066-15.795-15.783-15.795
		L21.876,7.816c-8.718,0-15.784,7.073-15.784,15.796v4.48C6.094,19.359,13.17,12.278,21.897,12.278z"/>
	<g>
		
			<linearGradient id="SVGID_2_" gradientUnits="userSpaceOnUse" x1="-228.436" y1="723.7393" x2="-228.436" y2="804.8535" gradientTransform="matrix(1 0 0 1 289.313 -690.0693)">
			<stop  offset="0" style="stop-color:#99DBF6"/>
			<stop  offset="1" style="stop-color:#00B2DE"/>
		</linearGradient>
		<path fill="url(#SVGID_2_)" d="M65.953,96.832c10.617,0,19.854-6.01,24.488-14.809l4.109,3.41l-0.064,0.107l6.361,9.332
			c0.393,0.576,0.561,1.236,0.561,1.887c0,0.869-0.307,1.75-0.963,2.414l-4.486,4.492c-0.666,0.66-1.549,0.963-2.414,0.963
			c-0.646,0-1.309-0.17-1.881-0.562l-9.33-6.365c-2.42,1.393-5.029,2.482-7.787,3.23l-2.098,11.096
			c-0.15,0.809-0.604,1.479-1.182,1.959c-0.586,0.48-1.324,0.797-2.139,0.797h-6.347c-0.816,0-1.559-0.316-2.141-0.797
			s-1.029-1.15-1.184-1.959l-2.1-11.098c-2.756-0.746-5.363-1.836-7.787-3.229l-9.324,6.365c-0.574,0.393-1.238,0.562-1.881,0.562
			c-0.869,0-1.748-0.309-2.42-0.963l-4.482-4.492c-0.66-0.664-0.961-1.545-0.965-2.414c0-0.648,0.172-1.311,0.562-1.883l6.359-9.336
			c-1.395-2.424-2.484-5.033-3.23-7.793l-11.094-2.1c-0.797-0.156-1.467-0.602-1.953-1.186c-0.479-0.582-0.797-1.32-0.797-2.143
			v-6.344c0-0.82,0.318-1.559,0.797-2.141c0.486-0.584,1.152-1.031,1.959-1.186l11.09-2.1c0.746-2.76,1.836-5.373,3.23-7.793
			l-6.359-9.332c-0.393-0.576-0.564-1.238-0.564-1.887c0.004-0.869,0.305-1.748,0.965-2.414l4.484-4.488
			c0.67-0.658,1.549-0.96,2.418-0.966c0.646,0,1.303,0.17,1.881,0.562l9.326,6.363c0.562-0.32,1.133-0.629,1.715-0.918l4.004,3.932
			c-9.971,4.189-16.996,14.062-16.996,25.545C38.295,84.418,50.706,96.832,65.953,96.832L65.953,96.832z"/>
		
			<linearGradient id="SVGID_3_" gradientUnits="userSpaceOnUse" x1="-224.8325" y1="734.8711" x2="-224.8325" y2="785.3418" gradientTransform="matrix(1 0 0 1 289.313 -690.0693)">
			<stop  offset="0" style="stop-color:#99DBF6"/>
			<stop  offset="1" style="stop-color:#00B2DE"/>
		</linearGradient>
		<path fill="url(#SVGID_3_)" d="M65.951,93.957c9.646,0,18.016-5.533,22.113-13.594l1.045,0.842
			c-4.359,8.354-13.102,14.066-23.158,14.066c-14.388,0-26.099-11.715-26.099-26.117c0-11.071,6.918-20.555,16.654-24.352
			l1.033,1.016c-9.537,3.455-16.373,12.611-16.373,23.334C41.167,82.832,52.288,93.957,65.951,93.957L65.951,93.957z"/>
		
			<linearGradient id="SVGID_4_" gradientUnits="userSpaceOnUse" x1="-206.3052" y1="712.2715" x2="-206.3052" y2="773.0762" gradientTransform="matrix(1 0 0 1 289.313 -690.0693)">
			<stop  offset="0" style="stop-color:#99DBF6"/>
			<stop  offset="1" style="stop-color:#00B2DE"/>
		</linearGradient>
		<path fill="url(#SVGID_4_)" d="M87.25,28.626c1.461-1.729,2.75-3.457,4.209-5.086l10.178,9.994
			c-4.832,5.715-9.416,11.633-13.551,17.889c5.66,9.619,12.33,18.624,19.516,27.153c-5.006,1.453-9.977,2.977-14.98,4.43
			c-5.697-6.355-10.27-13.178-14.98-20.69c-1.637-2.615-3.121-5.008-4.752-7.48c-0.109,8.604,0,17.243-0.035,25.848
			c-4.824,0.58-9.613,1.234-14.439,1.814V23.254c4.826-0.328,9.615-0.688,14.439-1.052v9.588c0.035,5.52-0.074,10.993,0.035,16.514
			c3.082-4.537,6.061-8.895,9.504-13.432C84.023,32.692,85.547,30.733,87.25,28.626L87.25,28.626z"/>
	</g>
</g>
</svg>
