<?xml version="1.0" encoding="utf-8"?>
<!-- Generator: Adobe Illustrator 13.0.0, SVG Export Plug-In . SVG Version: 6.00 Build 14948)  -->
<!DOCTYPE svg PUBLIC "-//W3C//DTD SVG 1.1//EN" "http://www.w3.org/Graphics/SVG/1.1/DTD/svg11.dtd">
<svg version="1.1" id="Layer_1" xmlns="http://www.w3.org/2000/svg" xmlns:xlink="http://www.w3.org/1999/xlink" x="0px" y="0px"
	 width="128px" height="128px" viewBox="0 0 128 128" enable-background="new 0 0 128 128" xml:space="preserve">
<g>
	<g>
		<g>
			<linearGradient id="SVGID_1_" gradientUnits="userSpaceOnUse" x1="47.3882" y1="-0.3242" x2="47.3882" y2="102.812">
				<stop  offset="0" style="stop-color:#EC008C"/>
				<stop  offset="1" style="stop-color:#C4008C"/>
			</linearGradient>
			<path fill="url(#SVGID_1_)" d="M91.988,87.017c0,8.72-7.074,15.795-15.793,15.795H18.583c-8.72,0-15.795-7.075-15.795-15.795
				V15.471c0-8.724,7.075-15.795,15.795-15.795h57.612c8.719,0,15.793,7.071,15.793,15.795V87.017z"/>
			<path opacity="0.5" fill="#FFFFFF" d="M74.889,2.778H19.886c-8.324,0-15.079,6.751-15.079,15.08v0.576h1.231
				c2.312-5.362,7.64-9.12,13.848-9.12h55.002c6.211,0,11.539,3.758,13.852,9.12h1.23v-0.576
				C89.971,9.529,83.221,2.778,74.889,2.778z"/>
			<path opacity="0.25" fill="#AE146A" d="M32.334,61.79c-10.543,0-20.535-1.228-29.546-3.419v28.646
				c0,8.72,7.075,15.795,15.795,15.795h57.612c8.719,0,15.793-7.075,15.793-15.795V44.621C79.199,54.964,57.259,61.79,32.334,61.79z
				"/>
			<path fill="#AE146A" d="M18.587,102.812h57.608c8.723,0,15.793-7.075,15.793-15.795v-4.277c0,8.724-7.07,15.799-15.793,15.799
				H18.587c-8.724,0-15.795-7.075-15.795-15.799v4.277C2.792,95.736,9.864,102.812,18.587,102.812z"/>
		</g>
		<g>
			<linearGradient id="SVGID_2_" gradientUnits="userSpaceOnUse" x1="33.8101" y1="91.0264" x2="33.8101" y2="53.9136">
				<stop  offset="0.0824" style="stop-color:#C2C2C2"/>
				<stop  offset="0.2635" style="stop-color:#D2D2D2"/>
				<stop  offset="0.5594" style="stop-color:#E6E6E6"/>
				<stop  offset="0.7582" style="stop-color:#EDEDED"/>
			</linearGradient>
			<path fill="url(#SVGID_2_)" d="M46.917,80.521c0,3.344-1.031,5.93-3.099,7.764c-2.067,1.826-4.771,2.741-8.106,2.741H20.704
				V53.913h14.436c3.476,0,6.213,0.911,8.212,2.729c1.995,1.819,2.997,4.289,2.997,7.402c0,1.838-0.523,3.517-1.566,5.046
				c-0.938,1.28-2.086,2.218-3.438,2.801C45.06,73.36,46.917,76.236,46.917,80.521z M40.719,64.26c0-1.694-0.562-2.989-1.672-3.89
				c-1.039-0.934-2.5-1.4-4.379-1.4h-8.34v10.576h8.34c1.879,0,3.354-0.452,4.432-1.366C40.177,67.261,40.719,65.954,40.719,64.26z
				 M41.292,80.262c0-1.676-0.531-3.038-1.589-4.085c-1.062-1.047-2.564-1.57-4.511-1.57h-8.863V85.97h8.863
				c1.841,0,3.336-0.523,4.484-1.57C40.753,83.315,41.292,81.941,41.292,80.262z"/>
			<linearGradient id="SVGID_3_" gradientUnits="userSpaceOnUse" x1="63.3647" y1="91.3389" x2="63.3647" y2="64.2866">
				<stop  offset="0.0824" style="stop-color:#C2C2C2"/>
				<stop  offset="0.2635" style="stop-color:#D2D2D2"/>
				<stop  offset="0.5594" style="stop-color:#E6E6E6"/>
				<stop  offset="0.7582" style="stop-color:#EDEDED"/>
			</linearGradient>
			<path fill="url(#SVGID_3_)" d="M74.074,91.026h-5.211v-2.398c-1.807,1.808-4.152,2.711-7.037,2.711
				c-3.129,0-5.489-0.798-7.09-2.398c-1.39-1.461-2.082-3.351-2.082-5.682c0-2.259,0.794-4.093,2.387-5.497
				c1.593-1.408,3.855-2.116,6.793-2.116h7.029v-1.875c0-3.298-1.945-4.951-5.835-4.951c-2.526,0-4.474,0.851-5.836,2.553
				l-3.494-3.283c1.179-1.386,2.492-2.368,3.935-2.944c1.441-0.568,3.291-0.858,5.55-0.858c7.263,0,10.892,3.023,10.892,9.066
				V91.026z M68.863,81.485v-2.135h-6.261c-3.189,0-4.789,1.269-4.789,3.803c0,2.504,1.634,3.758,4.895,3.758
				c2.279,0,3.947-0.509,5-1.514C68.48,84.633,68.863,83.33,68.863,81.485z"/>
		</g>
	</g>
	<g>
		
			<linearGradient id="SVGID_4_" gradientUnits="userSpaceOnUse" x1="78.0479" y1="-897.4644" x2="114.3255" y2="-876.7926" gradientTransform="matrix(0.9078 -0.0051 -0.0051 -0.9079 -5.0056 -717.3772)">
			<stop  offset="0" style="stop-color:#F1F1F1"/>
			<stop  offset="0.2485" style="stop-color:#DDDDDE"/>
			<stop  offset="0.5636" style="stop-color:#E3E4E7"/>
			<stop  offset="0.9212" style="stop-color:#B5B6B7"/>
		</linearGradient>
		<path fill="url(#SVGID_4_)" stroke="#999999" stroke-miterlimit="3.8637" d="M73.518,101.035
			c-7.443-7.363-7.512-19.365-0.154-26.81c7.355-7.443,19.352-7.511,26.795-0.148c7.441,7.364,7.514,19.366,0.154,26.809
			C92.955,108.329,80.961,108.398,73.518,101.035L73.518,101.035z"/>
		
			<linearGradient id="SVGID_5_" gradientUnits="userSpaceOnUse" x1="115.4873" y1="-887.2451" x2="76.8898" y2="-887.0283" gradientTransform="matrix(0.9078 -0.0051 -0.0051 -0.9079 -5.0056 -717.3772)">
			<stop  offset="0" style="stop-color:#F1F1F1"/>
			<stop  offset="0.2485" style="stop-color:#DDDDDE"/>
			<stop  offset="0.5636" style="stop-color:#E3E4E7"/>
			<stop  offset="0.9212" style="stop-color:#B5B6B7"/>
		</linearGradient>
		<path fill="url(#SVGID_5_)" d="M74.521,100.02c-6.883-6.808-6.947-17.904-0.143-24.789c6.801-6.882,17.893-6.943,24.775-0.137
			c6.881,6.809,6.945,17.904,0.141,24.787C92.494,106.764,81.404,106.827,74.521,100.02L74.521,100.02z"/>
		
			<linearGradient id="SVGID_6_" gradientUnits="userSpaceOnUse" x1="96.085" y1="-905.1602" x2="96.2876" y2="-869.0977" gradientTransform="matrix(0.9078 -0.0051 -0.0051 -0.9079 -5.0056 -717.3772)">
			<stop  offset="0" style="stop-color:#5081B2"/>
			<stop  offset="0.1178" style="stop-color:#477DAF"/>
			<stop  offset="0.3137" style="stop-color:#2D74A8"/>
			<stop  offset="0.5621" style="stop-color:#04659C"/>
			<stop  offset="0.5843" style="stop-color:#00639B"/>
			<stop  offset="1" style="stop-color:#004E8C"/>
		</linearGradient>
		<path fill="url(#SVGID_6_)" d="M75.334,99.195c-6.428-6.357-6.486-16.721-0.133-23.15c6.352-6.429,16.711-6.486,23.139-0.129
			c6.428,6.359,6.488,16.724,0.135,23.151S81.764,105.556,75.334,99.195L75.334,99.195z"/>
		
			<linearGradient id="SVGID_7_" gradientUnits="userSpaceOnUse" x1="116.9043" y1="-921.0664" x2="128.1727" y2="-907.7909" gradientTransform="matrix(0.9078 -0.0051 -0.0051 -0.9079 -5.0056 -717.3772)">
			<stop  offset="0" style="stop-color:#F1F1F1"/>
			<stop  offset="0.2485" style="stop-color:#DDDDDE"/>
			<stop  offset="0.5636" style="stop-color:#E3E4E7"/>
			<stop  offset="0.9212" style="stop-color:#B5B6B7"/>
		</linearGradient>
		<path fill="url(#SVGID_7_)" stroke="#999999" stroke-miterlimit="3.8637" d="M103.814,95.945l19.213,17.088
			c3.033,3.002,2.604,8.359,0.314,10.672l-0.26,0.263c-2.287,2.312-7.635,2.806-10.668-0.195l-17.225-19.194
			c1.986-1.251,3.412-2.003,4.928-3.537C101.637,99.508,102.75,97.995,103.814,95.945L103.814,95.945z"/>
		<path opacity="0.5" fill="#094763" d="M87.053,86.337c5,4.178,11.762,1.883,15.969-0.301c-0.619-8.4-7.623-15.027-16.18-15.027
			c-8.59,0-15.619,6.678-16.186,15.131C74.553,84.229,81.674,81.834,87.053,86.337z"/>
		<path fill="#B3B3B3" d="M124.654,115.506c0.406,2.74-0.373,5.595-1.936,7.172l-0.289,0.293c-1.938,1.959-5.852,2.74-9.1,1.526
			c3.1,2.167,7.707,1.579,9.787-0.524l0.26-0.264C125.123,121.947,125.781,118.416,124.654,115.506z"/>
	</g>
</g>
</svg>
