<?xml version="1.0" encoding="utf-8"?>
<!-- Generator: Adobe Illustrator 13.0.0, SVG Export Plug-In . SVG Version: 6.00 Build 14948)  -->
<!DOCTYPE svg PUBLIC "-//W3C//DTD SVG 1.1//EN" "http://www.w3.org/Graphics/SVG/1.1/DTD/svg11.dtd">
<svg version="1.1" id="Layer_1" xmlns="http://www.w3.org/2000/svg" xmlns:xlink="http://www.w3.org/1999/xlink" x="0px" y="0px"
	 width="128px" height="128px" viewBox="0 0 128 128" enable-background="new 0 0 128 128" xml:space="preserve">
<g>
	
		<linearGradient id="SVGID_1_" gradientUnits="userSpaceOnUse" x1="-333.8608" y1="727.2246" x2="-226.1484" y2="727.2246" gradientTransform="matrix(0 1 -1 0 781.2617 351.8984)">
		<stop  offset="0" style="stop-color:#ECEEF0"/>
		<stop  offset="0.2485" style="stop-color:#E8E8E9"/>
		<stop  offset="0.5636" style="stop-color:#EEEFF2"/>
		<stop  offset="0.9212" style="stop-color:#D4D5D6"/>
	</linearGradient>
	<path fill="url(#SVGID_1_)" stroke="#B3B3B3" d="M98.928,110.546l-0.05-77.303c0-8.398-6.807-15.205-15.205-15.205H24.351
		c-8.398,0-15.205,6.807-15.205,15.205v77.303c0,8.396,6.807,15.204,15.205,15.204h59.372
		C92.123,125.75,98.928,118.942,98.928,110.546z"/>
	<path fill="#FFFFFF" d="M14.4,30.017c2.521-3.943,6.928-6.566,11.954-6.566h55.361c5.028,0,9.434,2.623,11.953,6.566h1.206
		c-2.096-5.217-7.192-8.904-13.159-8.904H26.354c-5.966,0-11.063,3.688-13.161,8.904H14.4z"/>
	<path fill="#B3B3B3" d="M83.544,121.983H24.675c-8.184,0-14.828-6.52-15.064-14.646c-0.006-0.039-0.018-0.078-0.025-0.116
		l0.004,3.742c0,8.335,6.752,15.09,15.086,15.09h58.869c8.332,0,15.089-6.755,15.089-15.09v-3.725
		c-0.006,0.034-0.017,0.067-0.022,0.103C98.372,115.466,91.726,121.983,83.544,121.983z"/>
	<g>
		<linearGradient id="SVGID_2_" gradientUnits="userSpaceOnUse" x1="17.457" y1="44.27" x2="10.3486" y2="39.2927">
			<stop  offset="0" style="stop-color:#9A9A9A"/>
			<stop  offset="1" style="stop-color:#DEDEDE"/>
		</linearGradient>
		<path fill="url(#SVGID_2_)" d="M18.243,41.784c0,2.395-1.943,4.336-4.341,4.336c-2.394,0-4.337-1.941-4.337-4.336
			c0-2.399,1.943-4.34,4.337-4.34C16.3,37.444,18.243,39.385,18.243,41.784z"/>
		<linearGradient id="SVGID_3_" gradientUnits="userSpaceOnUse" x1="17.458" y1="56.3154" x2="10.3496" y2="51.3381">
			<stop  offset="0" style="stop-color:#9A9A9A"/>
			<stop  offset="1" style="stop-color:#DEDEDE"/>
		</linearGradient>
		<path fill="url(#SVGID_3_)" d="M18.243,53.829c0,2.395-1.943,4.336-4.341,4.336c-2.394,0-4.337-1.941-4.337-4.336
			c0-2.4,1.943-4.339,4.337-4.339C16.3,49.49,18.243,51.429,18.243,53.829z"/>
		<linearGradient id="SVGID_4_" gradientUnits="userSpaceOnUse" x1="17.458" y1="68.3604" x2="10.3488" y2="63.3824">
			<stop  offset="0" style="stop-color:#9A9A9A"/>
			<stop  offset="1" style="stop-color:#DEDEDE"/>
		</linearGradient>
		<path fill="url(#SVGID_4_)" d="M18.243,65.874c0,2.395-1.943,4.336-4.341,4.336c-2.394,0-4.337-1.941-4.337-4.336
			c0-2.4,1.943-4.339,4.337-4.339C16.3,61.535,18.243,63.474,18.243,65.874z"/>
		<linearGradient id="SVGID_5_" gradientUnits="userSpaceOnUse" x1="17.458" y1="80.4053" x2="10.3496" y2="75.4279">
			<stop  offset="0" style="stop-color:#9A9A9A"/>
			<stop  offset="1" style="stop-color:#DEDEDE"/>
		</linearGradient>
		<path fill="url(#SVGID_5_)" d="M18.243,77.917c0,2.396-1.943,4.336-4.341,4.336c-2.394,0-4.337-1.939-4.337-4.336
			c0-2.397,1.943-4.336,4.337-4.336C16.3,73.581,18.243,75.52,18.243,77.917z"/>
		<linearGradient id="SVGID_6_" gradientUnits="userSpaceOnUse" x1="17.457" y1="92.4502" x2="10.3494" y2="87.4734">
			<stop  offset="0" style="stop-color:#9A9A9A"/>
			<stop  offset="1" style="stop-color:#DEDEDE"/>
		</linearGradient>
		<path fill="url(#SVGID_6_)" d="M18.243,89.963c0,2.396-1.943,4.335-4.341,4.335c-2.394,0-4.337-1.939-4.337-4.335
			c0-2.397,1.943-4.337,4.337-4.337C16.3,85.626,18.243,87.565,18.243,89.963z"/>
		<linearGradient id="SVGID_7_" gradientUnits="userSpaceOnUse" x1="17.458" y1="104.4951" x2="10.3496" y2="99.5178">
			<stop  offset="0" style="stop-color:#9A9A9A"/>
			<stop  offset="1" style="stop-color:#DEDEDE"/>
		</linearGradient>
		<path fill="url(#SVGID_7_)" d="M18.243,102.006c0,2.398-1.943,4.337-4.341,4.337c-2.394,0-4.337-1.938-4.337-4.337
			c0-2.396,1.943-4.335,4.337-4.335C16.3,97.671,18.243,99.61,18.243,102.006z"/>
	</g>
	<linearGradient id="SVGID_8_" gradientUnits="userSpaceOnUse" x1="4.4043" y1="46.5244" x2="13.8871" y2="37.0416">
		<stop  offset="0" style="stop-color:#FFD207"/>
		<stop  offset="1" style="stop-color:#FAA61A"/>
	</linearGradient>
	<path fill="url(#SVGID_8_)" d="M17.381,41.781c0,1.662-1.348,3.012-3.01,3.012H3.92c-1.662,0-3.012-1.35-3.012-3.012l0,0
		c0-1.664,1.35-3.008,3.012-3.008h10.451C16.033,38.773,17.381,40.117,17.381,41.781L17.381,41.781z"/>
	<linearGradient id="SVGID_9_" gradientUnits="userSpaceOnUse" x1="4.4038" y1="58.5679" x2="13.8869" y2="49.0848">
		<stop  offset="0" style="stop-color:#FFD207"/>
		<stop  offset="1" style="stop-color:#FAA61A"/>
	</linearGradient>
	<path fill="url(#SVGID_9_)" d="M17.381,53.825c0,1.663-1.348,3.013-3.01,3.013H3.92c-1.662,0-3.012-1.35-3.012-3.013l0,0
		c0-1.664,1.35-3.007,3.012-3.007h10.451C16.033,50.818,17.381,52.161,17.381,53.825L17.381,53.825z"/>
	<linearGradient id="SVGID_10_" gradientUnits="userSpaceOnUse" x1="4.4038" y1="70.6143" x2="13.8871" y2="61.1309">
		<stop  offset="0" style="stop-color:#FFD207"/>
		<stop  offset="1" style="stop-color:#FAA61A"/>
	</linearGradient>
	<path fill="url(#SVGID_10_)" d="M17.381,65.872c0,1.662-1.348,3.012-3.01,3.012H3.92c-1.662,0-3.012-1.35-3.012-3.012l0,0
		c0-1.664,1.35-3.01,3.012-3.01h10.451C16.033,62.862,17.381,64.208,17.381,65.872L17.381,65.872z"/>
	<linearGradient id="SVGID_11_" gradientUnits="userSpaceOnUse" x1="4.4043" y1="82.6592" x2="13.8876" y2="73.1759">
		<stop  offset="0" style="stop-color:#FFD207"/>
		<stop  offset="1" style="stop-color:#FAA61A"/>
	</linearGradient>
	<path fill="url(#SVGID_11_)" d="M17.381,77.917c0,1.662-1.348,3.012-3.01,3.012H3.92c-1.662,0-3.012-1.35-3.012-3.012l0,0
		c0-1.664,1.35-3.01,3.012-3.01h10.451C16.033,74.907,17.381,76.253,17.381,77.917L17.381,77.917z"/>
	<linearGradient id="SVGID_12_" gradientUnits="userSpaceOnUse" x1="4.4038" y1="94.7031" x2="13.8873" y2="85.2197">
		<stop  offset="0" style="stop-color:#FFD207"/>
		<stop  offset="1" style="stop-color:#FAA61A"/>
	</linearGradient>
	<path fill="url(#SVGID_12_)" d="M17.381,89.96c0,1.665-1.348,3.012-3.01,3.012H3.92c-1.662,0-3.012-1.347-3.012-3.012l0,0
		c0-1.662,1.35-3.01,3.012-3.01h10.451C16.033,86.95,17.381,88.298,17.381,89.96L17.381,89.96z"/>
	<linearGradient id="SVGID_13_" gradientUnits="userSpaceOnUse" x1="4.4043" y1="106.748" x2="13.8877" y2="97.2646">
		<stop  offset="0" style="stop-color:#FFD207"/>
		<stop  offset="1" style="stop-color:#FAA61A"/>
	</linearGradient>
	<path fill="url(#SVGID_13_)" d="M17.381,102.005c0,1.665-1.348,3.012-3.01,3.012H3.92c-1.662,0-3.012-1.347-3.012-3.012l0,0
		c0-1.662,1.35-3.01,3.012-3.01h10.451C16.033,98.995,17.381,100.343,17.381,102.005L17.381,102.005z"/>
</g>
<g>
	<linearGradient id="SVGID_14_" gradientUnits="userSpaceOnUse" x1="56.7339" y1="45.9502" x2="56.7339" y2="103.1353">
		<stop  offset="0" style="stop-color:#FFD207"/>
		<stop  offset="1" style="stop-color:#FAA61A"/>
	</linearGradient>
	<path fill="url(#SVGID_14_)" d="M35.952,45.95l41.56,0.003c4.305,0,7.792,3.49,7.792,7.795l0.003,41.59
		c0,4.306-3.488,7.797-7.791,7.797l-41.562-0.002c-4.302,0-7.791-3.491-7.791-7.798l-0.001-41.589
		C28.162,49.441,31.65,45.95,35.952,45.95L35.952,45.95z"/>
	<path fill="#FA8F1A" d="M77.527,100.75l-41.625-0.002c-3.934,0-7.18-2.918-7.716-6.708v1.113c0,4.306,3.488,7.796,7.791,7.796
		l41.562,0.002c4.303,0,7.791-3.49,7.791-7.796v-2.212C85.328,97.255,81.835,100.75,77.527,100.75z"/>
	<path fill="#FFFFFF" d="M37.354,50.033h38.842c3.672,0,6.699,2.723,7.199,6.26v-1.039c0-4.018-3.255-7.275-7.27-7.275
		l-38.781-0.002c-4.015,0-7.27,3.258-7.27,7.275v2.064C30.074,53.294,33.334,50.033,37.354,50.033z"/>
</g>
<polygon fill="#FFFFFF" points="85.292,45.94 60.501,45.952 48.803,57.632 42.542,85.163 69.834,77.768 85.305,60.963 "/>
<g>
	
		<linearGradient id="SVGID_15_" gradientUnits="userSpaceOnUse" x1="-9013.4199" y1="3753.6855" x2="-9013.4199" y2="3700.3152" gradientTransform="matrix(0.3308 -0.346 -0.3461 -0.3305 4354.2202 -1842.9312)">
		<stop  offset="0" style="stop-color:#FFD207"/>
		<stop  offset="1" style="stop-color:#FAA61A"/>
	</linearGradient>
	<path fill="url(#SVGID_15_)" d="M94.104,11.939l-44.423,46.46c0.422,0.41,1.707,1.806,2.073,3.815
		c2.164-0.176,4.579,0.562,5.163,1.109c2.08,1.992,1.421,5.361,1.421,5.361s3.831-0.445,5.69,1.519
		c0.491,0.517,1.196,2.389,1.496,4.417c1.57-0.037,3.165,1.857,3.518,2.307l44.438-46.48c0.779-0.813,0.753-2.104-0.062-2.882
		c0,0-1.826-3.983-7.551-9.451c-5.725-5.462-8.882-6.239-8.882-6.239C96.171,11.096,94.882,11.124,94.104,11.939z"/>
	
		<linearGradient id="SVGID_16_" gradientUnits="userSpaceOnUse" x1="-8922.3213" y1="3727.6348" x2="-8921.9453" y2="3748.3059" gradientTransform="matrix(0.3308 -0.346 -0.3461 -0.3305 4354.2202 -1842.9312)">
		<stop  offset="0" style="stop-color:#F66B87"/>
		<stop  offset="1" style="stop-color:#FCD0D9"/>
	</linearGradient>
	<path fill="url(#SVGID_16_)" d="M106.161-0.676L96.554,9.373c0.209,0.207,5.998,3.725,10.756,8.266
		c4.725,4.511,8.428,10.04,8.604,10.262l9.626-10.068c2.489-2.602-1.394-7.39-7.117-12.854
		C112.699-0.486,108.151-2.756,106.161-0.676z"/>
	
		<linearGradient id="SVGID_17_" gradientUnits="userSpaceOnUse" x1="-9093.9707" y1="3746.8438" x2="-9089.3457" y2="3726.7993" gradientTransform="matrix(0.3308 -0.346 -0.3461 -0.3305 4354.2202 -1842.9312)">
		<stop  offset="0" style="stop-color:#FAEDB0"/>
		<stop  offset="1" style="stop-color:#FFC76E"/>
	</linearGradient>
	<path fill="url(#SVGID_17_)" d="M69.117,77.021c0,0-0.03-0.035-0.075-0.094l-0.156,0.158L69.117,77.021z"/>
	
		<linearGradient id="SVGID_18_" gradientUnits="userSpaceOnUse" x1="-9081.4365" y1="3748.5488" x2="-9076.96" y2="3729.1489" gradientTransform="matrix(0.3308 -0.346 -0.3461 -0.3305 4354.2202 -1842.9312)">
		<stop  offset="0" style="stop-color:#FAEDB0"/>
		<stop  offset="1" style="stop-color:#FFC76E"/>
	</linearGradient>
	<path fill="url(#SVGID_18_)" d="M49.548,58.266l-0.088,0.365l0.22-0.231C49.6,58.312,49.548,58.266,49.548,58.266z"/>
	<path fill="#F6921E" d="M65.524,74.621c-0.3-2.028-1.004-3.904-1.496-4.417c-1.859-1.964-5.688-1.521-5.688-1.521
		s0.658-3.367-1.424-5.359c-0.582-0.549-2.995-1.287-5.161-1.109c-0.364-2.008-1.653-3.406-2.073-3.816l-0.219,0.23l-0.917,3.725
		c0.026,0.033,0.048,0.069,0.076,0.096l16.43,15.698c0.019,0.015,0.037,0.021,0.054,0.035l3.779-1.102l0.16-0.158
		C68.691,76.479,67.098,74.582,65.524,74.621z"/>
	
		<linearGradient id="SVGID_19_" gradientUnits="userSpaceOnUse" x1="-9098.4551" y1="3743.9707" x2="-9096.042" y2="3727.0854" gradientTransform="matrix(0.3308 -0.346 -0.3461 -0.3305 4354.2202 -1842.9312)">
		<stop  offset="0" style="stop-color:#FAEDB0"/>
		<stop  offset="1" style="stop-color:#FFC76E"/>
	</linearGradient>
	<path fill="url(#SVGID_19_)" d="M58.338,68.686c0,0,0.659-3.369-1.421-5.361c-0.584-0.547-2.999-1.285-5.163-1.109
		c-0.366-2.008-1.651-3.405-2.073-3.815l-0.219,0.231l-0.918,3.725l-2.236,9.071l-0.645,2.614l3.924,3.76l3.922,3.748l2.586-0.748
		l9.009-2.621l3.782-1.104l0.16-0.158c-0.354-0.447-1.948-2.344-3.523-2.306c-0.301-2.027-1.005-3.9-1.497-4.415
		C62.169,68.24,58.338,68.686,58.338,68.686z"/>
	
		<linearGradient id="SVGID_20_" gradientUnits="userSpaceOnUse" x1="-9120.916" y1="3729.6152" x2="-9123.9209" y2="3739.7573" gradientTransform="matrix(0.3308 -0.346 -0.3461 -0.3305 4354.2202 -1842.9312)">
		<stop  offset="0" style="stop-color:#231F20"/>
		<stop  offset="1" style="stop-color:#FFFFFF"/>
	</linearGradient>
	<polygon fill="url(#SVGID_20_)" points="45.673,74.062 43.098,84.607 53.516,81.559 53.511,81.553 49.587,77.805 	"/>
	
		<linearGradient id="SVGID_21_" gradientUnits="userSpaceOnUse" x1="-8602.3516" y1="-2850.1021" x2="-8617.4092" y2="-2837.342" gradientTransform="matrix(0.4786 -0.011 -0.0108 -0.4784 4194.1494 -1433.9998)">
		<stop  offset="0" style="stop-color:#808080"/>
		<stop  offset="1" style="stop-color:#F2F2F2"/>
	</linearGradient>
	<path fill="url(#SVGID_21_)" d="M96.635,9.205l-5.333,5.658c0.217,0.205,5.398,3.315,10.162,7.858
		c4.721,4.509,9.021,10.458,9.211,10.659l5.338-5.665c0.357-0.378-3.258-5.442-8.98-10.911C101.312,11.34,96.991,8.827,96.635,9.205
		z"/>
	<g opacity="0.6">
		<path fill="#FFF8A2" d="M107.816,0.587L52.579,58.442c0.27,0.516,0.506,1.116,0.629,1.792c0.901-0.07,1.838,0.027,2.663,0.199
			l55.377-58.001C108.628,0.168,107.747,0.541,107.816,0.587z"/>
	</g>
	
		<linearGradient id="SVGID_22_" gradientUnits="userSpaceOnUse" x1="-2248.522" y1="-292.5425" x2="-2248.522" y2="-292.5425" gradientTransform="matrix(0.9576 -0.2881 0.2881 0.9576 2288.9893 -309.3038)">
		<stop  offset="0" style="stop-color:#DEDEDE"/>
		<stop  offset="1" style="stop-color:#FEFEFE"/>
	</linearGradient>
	<path fill="url(#SVGID_22_)" stroke="#181512" stroke-width="1.0006" stroke-miterlimit="3.8637" d="M51.522,58.357"/>
	<g opacity="0.6">
		<path fill="#FFF8A2" d="M52.567,64.071l-0.008-0.005c-0.693-0.102-1.428-0.15-2.141-0.092c-0.127-0.693-0.367-1.311-0.641-1.841
			l-0.108-0.077l-5.574,20.688L52.567,64.071z"/>
	</g>
</g>
</svg>
