<?xml version="1.0" encoding="utf-8"?>
<!-- Generator: Adobe Illustrator 13.0.0, SVG Export Plug-In . SVG Version: 6.00 Build 14948)  -->
<!DOCTYPE svg PUBLIC "-//W3C//DTD SVG 1.1//EN" "http://www.w3.org/Graphics/SVG/1.1/DTD/svg11.dtd">
<svg version="1.1" id="Layer_1" xmlns="http://www.w3.org/2000/svg" xmlns:xlink="http://www.w3.org/1999/xlink" x="0px" y="0px"
	 width="128px" height="128px" viewBox="0 0 128 128" enable-background="new 0 0 128 128" xml:space="preserve">
<g>
	<g>
		
			<linearGradient id="SVGID_1_" gradientUnits="userSpaceOnUse" x1="-350.9419" y1="712.7041" x2="-225.209" y2="712.7041" gradientTransform="matrix(0 1 -1 0 781.2617 351.8984)">
			<stop  offset="0" style="stop-color:#ECEEF0"/>
			<stop  offset="0.2485" style="stop-color:#E8E8E9"/>
			<stop  offset="0.5636" style="stop-color:#EEEFF2"/>
			<stop  offset="0.9212" style="stop-color:#D4D5D6"/>
		</linearGradient>
		<path fill="url(#SVGID_1_)" stroke="#B3B3B3" d="M120.959,108.941l-0.058-90.233c0-9.805-7.945-17.751-17.749-17.751H33.905
			c-9.803,0-17.75,7.946-17.75,17.751v90.233c0,9.803,7.947,17.748,17.75,17.748h69.305
			C113.016,126.689,120.959,118.744,120.959,108.941z"/>
		<path fill="#FFFFFF" d="M22.291,14.94c2.942-4.604,8.086-7.665,13.954-7.665h64.622c5.87,0,11.013,3.062,13.954,7.665h1.408
			c-2.447-6.09-8.396-10.394-15.362-10.394H36.245c-6.964,0-12.915,4.304-15.363,10.394H22.291z"/>
		<path fill="#B3B3B3" d="M103.002,122.293H34.285c-9.555,0-17.311-7.61-17.586-17.098c-0.008-0.045-0.021-0.089-0.029-0.135
			l0.003,4.367c0,9.73,7.884,17.615,17.612,17.615h68.717c9.727,0,17.613-7.885,17.613-17.615v-4.348
			c-0.007,0.041-0.02,0.08-0.026,0.121C120.311,114.686,112.553,122.293,103.002,122.293z"/>
		<g>
			<linearGradient id="SVGID_2_" gradientUnits="userSpaceOnUse" x1="25.8604" y1="31.5791" x2="17.5624" y2="25.7688">
				<stop  offset="0" style="stop-color:#9A9A9A"/>
				<stop  offset="1" style="stop-color:#DEDEDE"/>
			</linearGradient>
			<path fill="url(#SVGID_2_)" d="M26.775,28.677c0,2.795-2.268,5.061-5.065,5.061c-2.796,0-5.062-2.266-5.062-5.061
				c0-2.801,2.267-5.065,5.062-5.065C24.508,23.611,26.775,25.876,26.775,28.677z"/>
			<linearGradient id="SVGID_3_" gradientUnits="userSpaceOnUse" x1="25.8589" y1="45.6382" x2="17.5618" y2="39.8285">
				<stop  offset="0" style="stop-color:#9A9A9A"/>
				<stop  offset="1" style="stop-color:#DEDEDE"/>
			</linearGradient>
			<path fill="url(#SVGID_3_)" d="M26.775,42.737c0,2.795-2.268,5.06-5.065,5.06c-2.796,0-5.062-2.265-5.062-5.06
				c0-2.802,2.267-5.066,5.062-5.066C24.508,37.671,26.775,39.936,26.775,42.737z"/>
			<linearGradient id="SVGID_4_" gradientUnits="userSpaceOnUse" x1="25.8589" y1="59.6992" x2="17.5626" y2="53.8901">
				<stop  offset="0" style="stop-color:#9A9A9A"/>
				<stop  offset="1" style="stop-color:#DEDEDE"/>
			</linearGradient>
			<path fill="url(#SVGID_4_)" d="M26.775,56.797c0,2.795-2.268,5.061-5.065,5.061c-2.796,0-5.062-2.266-5.062-5.061
				c0-2.801,2.267-5.064,5.062-5.064C24.508,51.732,26.775,53.996,26.775,56.797z"/>
			<linearGradient id="SVGID_5_" gradientUnits="userSpaceOnUse" x1="25.8584" y1="73.7588" x2="17.5613" y2="67.9491">
				<stop  offset="0" style="stop-color:#9A9A9A"/>
				<stop  offset="1" style="stop-color:#DEDEDE"/>
			</linearGradient>
			<path fill="url(#SVGID_5_)" d="M26.775,70.855c0,2.797-2.268,5.061-5.065,5.061c-2.796,0-5.062-2.264-5.062-5.061
				c0-2.799,2.267-5.062,5.062-5.062C24.508,65.793,26.775,68.057,26.775,70.855z"/>
			<linearGradient id="SVGID_6_" gradientUnits="userSpaceOnUse" x1="25.8589" y1="87.8184" x2="17.5626" y2="82.0092">
				<stop  offset="0" style="stop-color:#9A9A9A"/>
				<stop  offset="1" style="stop-color:#DEDEDE"/>
			</linearGradient>
			<path fill="url(#SVGID_6_)" d="M26.775,84.916c0,2.797-2.268,5.06-5.065,5.06c-2.796,0-5.062-2.263-5.062-5.06
				c0-2.8,2.267-5.062,5.062-5.062C24.508,79.854,26.775,82.116,26.775,84.916z"/>
			<linearGradient id="SVGID_7_" gradientUnits="userSpaceOnUse" x1="25.8589" y1="101.8789" x2="17.5618" y2="96.0692">
				<stop  offset="0" style="stop-color:#9A9A9A"/>
				<stop  offset="1" style="stop-color:#DEDEDE"/>
			</linearGradient>
			<path fill="url(#SVGID_7_)" d="M26.775,98.974c0,2.8-2.268,5.063-5.065,5.063c-2.796,0-5.062-2.264-5.062-5.063
				c0-2.796,2.267-5.062,5.062-5.062C24.508,93.912,26.775,96.178,26.775,98.974z"/>
		</g>
		<linearGradient id="SVGID_8_" gradientUnits="userSpaceOnUse" x1="16.1553" y1="32.1885" x2="16.1553" y2="25.1611">
			<stop  offset="0" style="stop-color:#EC008C"/>
			<stop  offset="1" style="stop-color:#C4008C"/>
		</linearGradient>
		<path fill="url(#SVGID_8_)" d="M25.77,28.673c0,1.94-1.573,3.516-3.514,3.516H10.057c-1.94,0-3.516-1.575-3.516-3.516l0,0
			c0-1.942,1.575-3.512,3.516-3.512h12.199C24.196,25.161,25.77,26.73,25.77,28.673L25.77,28.673z"/>
		<linearGradient id="SVGID_9_" gradientUnits="userSpaceOnUse" x1="16.1553" y1="46.249" x2="16.1553" y2="39.2217">
			<stop  offset="0" style="stop-color:#EC008C"/>
			<stop  offset="1" style="stop-color:#C4008C"/>
		</linearGradient>
		<path fill="url(#SVGID_9_)" d="M25.77,42.732c0,1.94-1.573,3.517-3.514,3.517H10.057c-1.94,0-3.516-1.576-3.516-3.517l0,0
			c0-1.942,1.575-3.511,3.516-3.511h12.199C24.196,39.222,25.77,40.79,25.77,42.732L25.77,42.732z"/>
		<linearGradient id="SVGID_10_" gradientUnits="userSpaceOnUse" x1="16.1553" y1="60.3105" x2="16.1553" y2="53.2812">
			<stop  offset="0" style="stop-color:#EC008C"/>
			<stop  offset="1" style="stop-color:#C4008C"/>
		</linearGradient>
		<path fill="url(#SVGID_10_)" d="M25.77,56.795c0,1.939-1.573,3.516-3.514,3.516H10.057c-1.94,0-3.516-1.576-3.516-3.516l0,0
			c0-1.944,1.575-3.514,3.516-3.514h12.199C24.196,53.281,25.77,54.851,25.77,56.795L25.77,56.795z"/>
		<linearGradient id="SVGID_11_" gradientUnits="userSpaceOnUse" x1="16.1553" y1="74.3691" x2="16.1553" y2="67.3418">
			<stop  offset="0" style="stop-color:#EC008C"/>
			<stop  offset="1" style="stop-color:#C4008C"/>
		</linearGradient>
		<path fill="url(#SVGID_11_)" d="M25.77,70.855c0,1.939-1.573,3.514-3.514,3.514H10.057c-1.94,0-3.516-1.574-3.516-3.514l0,0
			c0-1.943,1.575-3.514,3.516-3.514h12.199C24.196,67.342,25.77,68.912,25.77,70.855L25.77,70.855z"/>
		<linearGradient id="SVGID_12_" gradientUnits="userSpaceOnUse" x1="16.1553" y1="88.4277" x2="16.1553" y2="81.3994">
			<stop  offset="0" style="stop-color:#EC008C"/>
			<stop  offset="1" style="stop-color:#C4008C"/>
		</linearGradient>
		<path fill="url(#SVGID_12_)" d="M25.77,84.912c0,1.943-1.573,3.516-3.514,3.516H10.057c-1.94,0-3.516-1.572-3.516-3.516l0,0
			c0-1.939,1.575-3.513,3.516-3.513h12.199C24.196,81.399,25.77,82.973,25.77,84.912L25.77,84.912z"/>
		<linearGradient id="SVGID_13_" gradientUnits="userSpaceOnUse" x1="16.1553" y1="102.4883" x2="16.1553" y2="95.459">
			<stop  offset="0" style="stop-color:#EC008C"/>
			<stop  offset="1" style="stop-color:#C4008C"/>
		</linearGradient>
		<path fill="url(#SVGID_13_)" d="M25.77,98.973c0,1.943-1.573,3.516-3.514,3.516H10.057c-1.94,0-3.516-1.572-3.516-3.516l0,0
			c0-1.941,1.575-3.514,3.516-3.514h12.199C24.196,95.459,25.77,97.031,25.77,98.973L25.77,98.973z"/>
	</g>
	<g>
		<g>
			<g>
				<path fill="none" d="M81.383,101.309c2.419-5.025,7.814-11.91,4.652-17.865c-2.605,1.674-3.908,7.443-4.467,10.42
					c-1.117,5.025-0.373,9.863,0.187,14.891c0.187,2.047,0.744,3.162-0.744,4.65c-1.86,2.047-7.629,1.859-10.049,0.744
					c-5.211-2.047-8.002-13.584-1.116-14.887c3.163-0.744,7.815,0.371,11.165,0.744"/>
				<path fill="#E43B7D" d="M81.383,103.809c2.398-4.732,5.583-9.172,5.639-14.669c0.015-1.308,0.019-2.618-0.006-3.926
					c-0.037-2.156-0.207-5.519-2.392-2.83c-3.058,3.763-3.604,10.694-3.652,15.306c-0.054,5.396,0.642,10.635,1.032,16.008
					c0.003-1.637,0.005-3.271,0.007-4.91c-0.825,3.771-4.996,3.83-8.163,3.58c-3.396-0.269-5.555-2.266-7.021-5.196
					c-0.585-1.17-0.505-4.158-0.908-1.425c0.213-1.438,1.092-2.52,2.219-3.35c3.179-2.345,9.382-0.343,12.875,0.109
					c-0.175-0.021,0.249-4.969,0-5c-6.813-0.881-15.225-2.977-15.278,6.256c-0.029,5.164,0.42,11.094,6.051,13.191
					c3.297,1.229,7.88,0.822,10-2.116c0.857-1.19,0.265-4.373,0.242-5.709c-0.088-5.162-1.146-9.679-0.025-14.831
					c0.447-2.061,1.122-4.027,2.029-5.928c0.479-1.004,1.17-1.729,2.008-2.426c0.259-0.217,0.951,3.713,0.968,3.928
					c-0.002-1.637-0.005-3.272-0.007-4.909c-0.323,5.171-3.342,9.366-5.613,13.847C80.703,100.15,82.047,102.498,81.383,103.809
					L81.383,103.809z"/>
			</g>
		</g>
		<g>
			<g>
				<path fill="none" d="M85.663,98.33c0,1.117,0.559,5.211,1.86,5.396c1.674,0.186,4.467-5.396,5.77-6.326
					c0.186,1.487-0.372,3.164,0,4.651c1.302-1.304,2.604-2.979,4.094-4.094c0.372,8.188,6.141-0.744,10.979-1.304"/>
				<path fill="#E43B7D" d="M85.656,100.74c0.067,1.42,0.264,5.768,2.351,5.399c2.149-0.377,3.767-4.834,5.286-6.239
					c-0.01-0.834-0.018-1.668-0.025-2.5c0,0.512,0,1.022,0,1.537c0.01-0.836,0.019-1.668,0.025-2.5
					c-0.141,1.784-0.156,3.547-0.146,5.34c0.002,0.41-0.012,0.828,0.021,1.236c-0.232,1.87,0.135,2.039,1.104,0.506
					c1.02-1.072,1.988-2.101,3.114-3.062c-0.575,0.49,0.586,2.763,0.979,3.201c0.688,0.771,2.229-0.231,2.836-0.572
					c2.426-1.37,4.347-3.355,7.164-3.934c0.363-0.072-0.289-4.938,0-5c-3.278,0.67-5.485,3.285-8.469,4.588
					c-1.591,0.693-2.127-0.851-2.398-2.073c-0.48-2.164-1.083-0.397-2.229,0.767c-1.146,1.166-1.867,3.482-2.103,0.58
					c0,1.667,0,3.334,0,5c0.146-1.88,0.147-3.729,0.147-5.613c0-0.311-0.254-2.289-0.023-2.5c-1.865,1.726-2.88,4.18-4.762,5.918
					c-2.187,2.021-2.812-3.855-2.861-4.899C85.727,97.096,85.583,99.236,85.656,100.74L85.656,100.74z"/>
			</g>
		</g>
	</g>
</g>
</svg>
