<?xml version="1.0" encoding="utf-8"?>
<!-- Generator: Adobe Illustrator 13.0.0, SVG Export Plug-In . SVG Version: 6.00 Build 14948)  -->
<!DOCTYPE svg PUBLIC "-//W3C//DTD SVG 1.1//EN" "http://www.w3.org/Graphics/SVG/1.1/DTD/svg11.dtd">
<svg version="1.1" id="Layer_1" xmlns="http://www.w3.org/2000/svg" xmlns:xlink="http://www.w3.org/1999/xlink" x="0px" y="0px"
	 width="128px" height="128px" viewBox="0 0 128 128" enable-background="new 0 0 128 128" xml:space="preserve">
<g>
	<g>
		<path fill="#F2F2F2" stroke="#B3B3B3" stroke-width="2" d="M107.253,34.989H20.75c-8.881,0-16.079,7.197-16.079,16.074v45.357
			c0,8.882,7.198,16.078,16.079,16.078h86.503c8.878,0,16.076-7.196,16.076-16.078V51.063
			C123.329,42.187,116.131,34.989,107.253,34.989z"/>
		<linearGradient id="SVGID_1_" gradientUnits="userSpaceOnUse" x1="64.1235" y1="112.6309" x2="64.1235" y2="49.4034">
			<stop  offset="0.0934" style="stop-color:#D1D1D1"/>
			<stop  offset="0.431" style="stop-color:#D9D9D9"/>
			<stop  offset="0.9519" style="stop-color:#EFEFEF"/>
			<stop  offset="0.9725" style="stop-color:#F0F0F0"/>
		</linearGradient>
		<path fill="url(#SVGID_1_)" d="M39.938,77.823c-12.036,0-23.555-1.019-34.189-2.874v21.018c0,8.738,7.08,15.82,15.818,15.82
			h85.114c8.735,0,15.818-7.082,15.818-15.82V56.5C105.368,69.299,74.802,77.823,39.938,77.823z"/>
		<g>
			<g>
				
					<linearGradient id="SVGID_2_" gradientUnits="userSpaceOnUse" x1="-327.3643" y1="913.9199" x2="-347.1751" y2="900.0483" gradientTransform="matrix(1 0 0 1 412.6201 -813.9912)">
					<stop  offset="0" style="stop-color:#181500"/>
					<stop  offset="1" style="stop-color:#5F5D5C"/>
				</linearGradient>
				<polygon fill="url(#SVGID_2_)" points="61.561,91.607 89.143,91.607 89.143,94.38 61.561,94.38 				"/>
			</g>
			<g>
				
					<linearGradient id="SVGID_3_" gradientUnits="userSpaceOnUse" x1="-318.9399" y1="910.3047" x2="-345.5152" y2="891.6965" gradientTransform="matrix(1 0 0 1 412.6201 -813.9912)">
					<stop  offset="0" style="stop-color:#181500"/>
					<stop  offset="1" style="stop-color:#5F5D5C"/>
				</linearGradient>
				<polygon fill="url(#SVGID_3_)" points="61.561,85.622 99.223,85.622 99.223,88.396 61.561,88.396 				"/>
				
					<linearGradient id="SVGID_4_" gradientUnits="userSpaceOnUse" x1="-327.3628" y1="901.9521" x2="-347.1737" y2="888.0805" gradientTransform="matrix(1 0 0 1 412.6201 -813.9912)">
					<stop  offset="0" style="stop-color:#181500"/>
					<stop  offset="1" style="stop-color:#5F5D5C"/>
				</linearGradient>
				<polygon fill="url(#SVGID_4_)" points="61.561,79.639 89.143,79.639 89.143,82.411 61.561,82.411 				"/>
			</g>
		</g>
		<g>
			<g>
				
					<linearGradient id="SVGID_5_" gradientUnits="userSpaceOnUse" x1="-390.4165" y1="921.9277" x2="-393.2548" y2="919.9404" gradientTransform="matrix(1 0 0 1 412.6201 -813.9912)">
					<stop  offset="0" style="stop-color:#C51015"/>
					<stop  offset="1" style="stop-color:#E20A16"/>
				</linearGradient>
				<polygon fill="url(#SVGID_5_)" points="21.066,109.505 16.876,109.505 20.504,104.38 24.693,104.38 				"/>
				
					<linearGradient id="SVGID_6_" gradientUnits="userSpaceOnUse" x1="-375.4263" y1="921.9277" x2="-378.2645" y2="919.9404" gradientTransform="matrix(1 0 0 1 412.6201 -813.9912)">
					<stop  offset="0" style="stop-color:#00B2DE"/>
					<stop  offset="1" style="stop-color:#99DBF6"/>
				</linearGradient>
				<polygon fill="url(#SVGID_6_)" points="36.057,109.505 31.865,109.505 35.494,104.38 39.684,104.38 				"/>
				
					<linearGradient id="SVGID_7_" gradientUnits="userSpaceOnUse" x1="-360.4365" y1="921.9287" x2="-363.2764" y2="919.9403" gradientTransform="matrix(1 0 0 1 412.6201 -813.9912)">
					<stop  offset="0" style="stop-color:#C51015"/>
					<stop  offset="1" style="stop-color:#E20A16"/>
				</linearGradient>
				<polygon fill="url(#SVGID_7_)" points="51.045,109.505 46.854,109.505 50.484,104.38 54.674,104.38 				"/>
				
					<linearGradient id="SVGID_8_" gradientUnits="userSpaceOnUse" x1="-345.4463" y1="921.9277" x2="-348.2837" y2="919.9409" gradientTransform="matrix(1 0 0 1 412.6201 -813.9912)">
					<stop  offset="0" style="stop-color:#00B2DE"/>
					<stop  offset="1" style="stop-color:#99DBF6"/>
				</linearGradient>
				<polygon fill="url(#SVGID_8_)" points="66.035,109.505 61.846,109.505 65.475,104.38 69.664,104.38 				"/>
				
					<linearGradient id="SVGID_9_" gradientUnits="userSpaceOnUse" x1="-330.457" y1="921.9277" x2="-333.2945" y2="919.941" gradientTransform="matrix(1 0 0 1 412.6201 -813.9912)">
					<stop  offset="0" style="stop-color:#C51015"/>
					<stop  offset="1" style="stop-color:#E20A16"/>
				</linearGradient>
				<polygon fill="url(#SVGID_9_)" points="81.025,109.505 76.835,109.505 80.463,104.38 84.652,104.38 				"/>
				
					<linearGradient id="SVGID_10_" gradientUnits="userSpaceOnUse" x1="-315.4658" y1="921.9277" x2="-318.3049" y2="919.9398" gradientTransform="matrix(1 0 0 1 412.6201 -813.9912)">
					<stop  offset="0" style="stop-color:#00B2DE"/>
					<stop  offset="1" style="stop-color:#99DBF6"/>
				</linearGradient>
				<polygon fill="url(#SVGID_10_)" points="96.016,109.505 91.824,109.505 95.454,104.38 99.645,104.38 				"/>
				
					<linearGradient id="SVGID_11_" gradientUnits="userSpaceOnUse" x1="-300.4761" y1="922.0322" x2="-303.3135" y2="920.0454" gradientTransform="matrix(1 0 0 1 412.6201 -813.9912)">
					<stop  offset="0" style="stop-color:#C51015"/>
					<stop  offset="1" style="stop-color:#E20A16"/>
				</linearGradient>
				<polygon fill="url(#SVGID_11_)" points="111.005,109.611 106.814,109.611 110.443,104.482 114.635,104.482 				"/>
			</g>
			<g>
				
					<linearGradient id="SVGID_12_" gradientUnits="userSpaceOnUse" x1="-300.4746" y1="855.6426" x2="-303.3128" y2="853.6552" gradientTransform="matrix(1 0 0 1 412.6201 -813.9912)">
					<stop  offset="0" style="stop-color:#00B2DE"/>
					<stop  offset="1" style="stop-color:#99DBF6"/>
				</linearGradient>
				<polygon fill="url(#SVGID_12_)" points="110.443,38.095 114.635,38.095 111.007,43.22 106.816,43.22 				"/>
				
					<linearGradient id="SVGID_13_" gradientUnits="userSpaceOnUse" x1="-315.4644" y1="855.6426" x2="-318.3034" y2="853.6547" gradientTransform="matrix(1 0 0 1 412.6201 -813.9912)">
					<stop  offset="0" style="stop-color:#C51015"/>
					<stop  offset="1" style="stop-color:#E20A16"/>
				</linearGradient>
				<polygon fill="url(#SVGID_13_)" points="95.454,38.095 99.646,38.095 96.018,43.22 91.827,43.22 				"/>
				
					<linearGradient id="SVGID_14_" gradientUnits="userSpaceOnUse" x1="-330.4541" y1="855.6426" x2="-333.2923" y2="853.6552" gradientTransform="matrix(1 0 0 1 412.6201 -813.9912)">
					<stop  offset="0" style="stop-color:#00B2DE"/>
					<stop  offset="1" style="stop-color:#99DBF6"/>
				</linearGradient>
				<polygon fill="url(#SVGID_14_)" points="80.466,38.095 84.656,38.095 81.025,43.22 76.837,43.22 				"/>
				
					<linearGradient id="SVGID_15_" gradientUnits="userSpaceOnUse" x1="-345.4443" y1="855.6426" x2="-348.2826" y2="853.6552" gradientTransform="matrix(1 0 0 1 412.6201 -813.9912)">
					<stop  offset="0" style="stop-color:#C51015"/>
					<stop  offset="1" style="stop-color:#E20A16"/>
				</linearGradient>
				<polygon fill="url(#SVGID_15_)" points="65.477,38.095 69.666,38.095 66.037,43.22 61.848,43.22 				"/>
				
					<linearGradient id="SVGID_16_" gradientUnits="userSpaceOnUse" x1="-360.4346" y1="855.6426" x2="-363.2727" y2="853.6552" gradientTransform="matrix(1 0 0 1 412.6201 -813.9912)">
					<stop  offset="0" style="stop-color:#00B2DE"/>
					<stop  offset="1" style="stop-color:#99DBF6"/>
				</linearGradient>
				<polygon fill="url(#SVGID_16_)" points="50.484,38.095 54.676,38.095 51.048,43.22 46.857,43.22 				"/>
				
					<linearGradient id="SVGID_17_" gradientUnits="userSpaceOnUse" x1="-375.4229" y1="855.6445" x2="-378.2627" y2="853.6561" gradientTransform="matrix(1 0 0 1 412.6201 -813.9912)">
					<stop  offset="0" style="stop-color:#C51015"/>
					<stop  offset="1" style="stop-color:#E20A16"/>
				</linearGradient>
				<polygon fill="url(#SVGID_17_)" points="35.496,38.095 39.688,38.095 36.057,43.22 31.867,43.22 				"/>
				
					<linearGradient id="SVGID_18_" gradientUnits="userSpaceOnUse" x1="-390.4165" y1="855.5352" x2="-393.2531" y2="853.5489" gradientTransform="matrix(1 0 0 1 412.6201 -813.9912)">
					<stop  offset="0" style="stop-color:#00B2DE"/>
					<stop  offset="1" style="stop-color:#99DBF6"/>
				</linearGradient>
				<polygon fill="url(#SVGID_18_)" points="20.506,37.987 24.695,37.987 21.066,43.114 16.876,43.114 				"/>
			</g>
			<g>
				
					<linearGradient id="SVGID_19_" gradientUnits="userSpaceOnUse" x1="-291.979" y1="899.0205" x2="-299.1082" y2="894.0286" gradientTransform="matrix(1 0 0 1 412.6201 -813.9912)">
					<stop  offset="0" style="stop-color:#C51015"/>
					<stop  offset="1" style="stop-color:#E20A16"/>
				</linearGradient>
				<polygon fill="url(#SVGID_19_)" points="114.616,82.825 114.616,78.46 119.537,82.24 119.537,86.605 				"/>
				
					<linearGradient id="SVGID_20_" gradientUnits="userSpaceOnUse" x1="-292.0786" y1="914.1387" x2="-299.2046" y2="909.149" gradientTransform="matrix(1 0 0 1 412.6201 -813.9912)">
					<stop  offset="0" style="stop-color:#00B2DE"/>
					<stop  offset="1" style="stop-color:#99DBF6"/>
				</linearGradient>
				<polygon fill="url(#SVGID_20_)" points="114.518,97.943 114.518,93.581 119.438,97.355 119.438,101.723 				"/>
				
					<linearGradient id="SVGID_21_" gradientUnits="userSpaceOnUse" x1="-291.877" y1="868.2627" x2="-299.0085" y2="863.269" gradientTransform="matrix(1 0 0 1 412.6201 -813.9912)">
					<stop  offset="0" style="stop-color:#C51015"/>
					<stop  offset="1" style="stop-color:#E20A16"/>
				</linearGradient>
				<polygon fill="url(#SVGID_21_)" points="114.716,52.063 114.716,47.7 119.639,51.481 119.639,55.849 				"/>
				
					<linearGradient id="SVGID_22_" gradientUnits="userSpaceOnUse" x1="-291.7778" y1="883.3789" x2="-298.9062" y2="878.3876" gradientTransform="matrix(1 0 0 1 412.6201 -813.9912)">
					<stop  offset="0" style="stop-color:#00B2DE"/>
					<stop  offset="1" style="stop-color:#99DBF6"/>
				</linearGradient>
				<polygon fill="url(#SVGID_22_)" points="114.816,67.186 114.816,62.819 119.738,66.598 119.738,70.962 				"/>
			</g>
			<g>
				
					<linearGradient id="SVGID_23_" gradientUnits="userSpaceOnUse" x1="-3371.3491" y1="5032.0967" x2="-3364.2185" y2="5037.0898" gradientTransform="matrix(-1 0 0 -1 -3357.2451 5101.4805)">
					<stop  offset="0" style="stop-color:#00B2DE"/>
					<stop  offset="1" style="stop-color:#99DBF6"/>
				</linearGradient>
				<polygon fill="url(#SVGID_23_)" points="12.998,66.596 12.998,70.962 8.077,67.182 8.077,62.813 				"/>
				
					<linearGradient id="SVGID_24_" gradientUnits="userSpaceOnUse" x1="-3371.4458" y1="5047.2129" x2="-3364.3181" y2="5052.2036" gradientTransform="matrix(-1 0 0 -1 -3357.2451 5101.4805)">
					<stop  offset="0" style="stop-color:#C51015"/>
					<stop  offset="1" style="stop-color:#E20A16"/>
				</linearGradient>
				<polygon fill="url(#SVGID_24_)" points="13.098,51.478 13.098,55.842 8.177,52.063 8.177,47.7 				"/>
				
					<linearGradient id="SVGID_25_" gradientUnits="userSpaceOnUse" x1="-3371.248" y1="5001.3359" x2="-3364.1174" y2="5006.3291" gradientTransform="matrix(-1 0 0 -1 -3357.2451 5101.4805)">
					<stop  offset="0" style="stop-color:#00B2DE"/>
					<stop  offset="1" style="stop-color:#99DBF6"/>
				</linearGradient>
				<polygon fill="url(#SVGID_25_)" points="12.898,97.355 12.898,101.723 7.977,97.938 7.977,93.575 				"/>
				
					<linearGradient id="SVGID_26_" gradientUnits="userSpaceOnUse" x1="-3371.1455" y1="5016.4531" x2="-3364.0178" y2="5021.4438" gradientTransform="matrix(-1 0 0 -1 -3357.2451 5101.4805)">
					<stop  offset="0" style="stop-color:#C51015"/>
					<stop  offset="1" style="stop-color:#E20A16"/>
				</linearGradient>
				<polygon fill="url(#SVGID_26_)" points="12.797,82.234 12.797,86.602 7.875,82.822 7.875,78.46 				"/>
			</g>
		</g>
	</g>
	
		<linearGradient id="SVGID_27_" gradientUnits="userSpaceOnUse" x1="-368.6841" y1="848.8555" x2="-368.6841" y2="907.0664" gradientTransform="matrix(1 0 0 1 412.6201 -813.9912)">
		<stop  offset="0" style="stop-color:#FF9D00"/>
		<stop  offset="1" style="stop-color:#FF1F00"/>
	</linearGradient>
	<path fill="url(#SVGID_27_)" d="M22.782,34.864l42.307,0.002c4.379,0,7.931,3.555,7.931,7.938l0.002,42.335
		c0,4.383-3.551,7.936-7.931,7.936l-42.307-0.002c-4.38,0-7.931-3.553-7.931-7.936l-0.002-42.335
		C14.852,38.417,18.402,34.864,22.782,34.864L22.782,34.864z"/>
	<g>
		<g>
			<g>
				
					<linearGradient id="SVGID_28_" gradientUnits="userSpaceOnUse" x1="-192.1831" y1="-622.0571" x2="-192.1831" y2="-680.7385" gradientTransform="matrix(1 0 0 -1 246.7271 -588.5762)">
					<stop  offset="0" style="stop-color:#5F5D5C"/>
					<stop  offset="1" style="stop-color:#181500"/>
				</linearGradient>
				<path fill="url(#SVGID_28_)" d="M77.615,34.265h-46.14c-4.737,0-8.576,3.84-8.576,8.574v34.162c0,4.736,3.839,8.574,8.576,8.574
					h6.501c-0.109-0.332-0.169-0.688-0.169-1.059c0-1.887,1.53-3.416,3.418-3.416h3.038c1.887,0,3.417,1.531,3.417,3.416
					c0,0.37-0.062,0.727-0.17,1.059h14.066c-0.108-0.332-0.169-0.688-0.169-1.059c0-1.887,1.531-3.416,3.417-3.416h3.038
					c1.889,0,3.417,1.531,3.417,3.416c0,0.37-0.06,0.727-0.17,1.059h6.504c4.735,0,8.574-3.838,8.574-8.574V42.839
					C86.189,38.104,82.351,34.265,77.615,34.265z"/>
			</g>
			<g>
				<radialGradient id="SVGID_29_" cx="40.8149" cy="64.2681" r="14.1978" gradientUnits="userSpaceOnUse">
					<stop  offset="0" style="stop-color:#FAFAFA"/>
					<stop  offset="0.4142" style="stop-color:#E3E3E3"/>
					<stop  offset="1" style="stop-color:#C7C7C7"/>
				</radialGradient>
				<path fill="url(#SVGID_29_)" d="M26.622,64.268c0-7.843,6.354-14.202,14.192-14.202s14.193,6.359,14.193,14.202
					c0,7.845-6.355,14.203-14.193,14.203S26.622,72.112,26.622,64.268L26.622,64.268z"/>
				<linearGradient id="SVGID_30_" gradientUnits="userSpaceOnUse" x1="35.436" y1="57.0469" x2="35.436" y2="64.4482">
					<stop  offset="0" style="stop-color:#80E21B"/>
					<stop  offset="1" style="stop-color:#80B400"/>
				</linearGradient>
				<path fill="url(#SVGID_30_)" d="M31.737,60.747c0-2.043,1.657-3.7,3.699-3.7s3.698,1.657,3.698,3.7
					c0,2.045-1.656,3.701-3.698,3.701S31.737,62.792,31.737,60.747L31.737,60.747z"/>
				<path fill="#F2F2F2" d="M30.069,56.913c2.371-3.253,6.729-5.746,10.801-5.746c4.073,0,8.319,2.493,10.689,5.746h0.451
					c-2.512-3.829-6.589-6.335-11.195-6.335c-4.608,0-8.685,2.506-11.196,6.335H30.069z"/>
				<linearGradient id="SVGID_31_" gradientUnits="userSpaceOnUse" x1="29.6191" y1="72.582" x2="52.0107" y2="72.582">
					<stop  offset="0" style="stop-color:#80E21B"/>
					<stop  offset="1" style="stop-color:#80B400"/>
				</linearGradient>
				<path fill="url(#SVGID_31_)" d="M51.561,69.415c-2.371,3.254-6.729,5.746-10.802,5.746s-8.318-2.492-10.688-5.746h-0.451
					c2.512,3.83,6.588,6.335,11.195,6.335s8.685-2.505,11.196-6.335H51.561z"/>
			</g>
			<g>
				<g>
					
						<linearGradient id="SVGID_32_" gradientUnits="userSpaceOnUse" x1="-172.9033" y1="-666.436" x2="-186.5697" y2="-656.8667" gradientTransform="matrix(1 0 0 -1 246.7271 -588.7695)">
						<stop  offset="0.0824" style="stop-color:#C2C2C2"/>
						<stop  offset="0.2635" style="stop-color:#D2D2D2"/>
						<stop  offset="0.5594" style="stop-color:#E6E6E6"/>
						<stop  offset="0.7582" style="stop-color:#EDEDED"/>
					</linearGradient>
					<polygon fill="url(#SVGID_32_)" points="57.616,71.728 76.366,71.728 76.366,74.037 57.616,74.037 					"/>
				</g>
				<g>
					
						<linearGradient id="SVGID_33_" gradientUnits="userSpaceOnUse" x1="-167.1782" y1="-663.0625" x2="-185.442" y2="-650.2741" gradientTransform="matrix(1 0 0 -1 246.7271 -588.7695)">
						<stop  offset="0.0824" style="stop-color:#C2C2C2"/>
						<stop  offset="0.2635" style="stop-color:#D2D2D2"/>
						<stop  offset="0.5594" style="stop-color:#E6E6E6"/>
						<stop  offset="0.7582" style="stop-color:#EDEDED"/>
					</linearGradient>
					<polygon fill="url(#SVGID_33_)" points="57.616,66.745 83.219,66.745 83.219,69.054 57.616,69.054 					"/>
					
						<linearGradient id="SVGID_34_" gradientUnits="userSpaceOnUse" x1="-172.9033" y1="-656.4697" x2="-186.5697" y2="-646.9004" gradientTransform="matrix(1 0 0 -1 246.7271 -588.7695)">
						<stop  offset="0.0824" style="stop-color:#C2C2C2"/>
						<stop  offset="0.2635" style="stop-color:#D2D2D2"/>
						<stop  offset="0.5594" style="stop-color:#E6E6E6"/>
						<stop  offset="0.7582" style="stop-color:#EDEDED"/>
					</linearGradient>
					<polygon fill="url(#SVGID_34_)" points="57.616,61.762 76.366,61.762 76.366,64.071 57.616,64.071 					"/>
				</g>
			</g>
			
				<linearGradient id="SVGID_35_" gradientUnits="userSpaceOnUse" x1="-192.1147" y1="-623.9131" x2="-192.1147" y2="-634.8525" gradientTransform="matrix(1 0 0 -1 246.7271 -588.7695)">
				<stop  offset="0" style="stop-color:#80E21B"/>
				<stop  offset="1" style="stop-color:#80B400"/>
			</linearGradient>
			<path fill="url(#SVGID_35_)" d="M76.979,35.144H32.246c-4.593,0-8.314,3.724-8.314,8.312v2.627h61.361v-2.627
				C85.293,38.867,81.571,35.144,76.979,35.144z"/>
			<path opacity="0.8" fill="#EC8690" d="M32.872,37.007h43.619c3.776,0,6.939,2.586,7.841,6.078
				c-0.4-4.067-3.831-7.246-8.005-7.246H33.036c-4.176,0-7.606,3.179-8.007,7.247C25.931,39.593,29.095,37.007,32.872,37.007z"/>
		</g>
	</g>
	
		<linearGradient id="SVGID_36_" gradientUnits="userSpaceOnUse" x1="-346.6851" y1="838.9238" x2="-346.6851" y2="889.4824" gradientTransform="matrix(1 0 0 1 412.6201 -813.9912)">
		<stop  offset="0" style="stop-color:#FF9D00"/>
		<stop  offset="1" style="stop-color:#FF1F00"/>
	</linearGradient>
	<path fill="url(#SVGID_36_)" stroke="#FA611A" stroke-width="0.5" d="M63.538,75.49c3.804,0,6.897-3.096,6.897-6.895V48.341
		c0-0.693-0.562-1.254-1.256-1.254s-1.255,0.561-1.255,1.254v20.255c0,2.42-1.969,4.387-4.388,4.387s-4.387-1.967-4.387-4.387
		V34.229c0-3.742,3.043-6.787,6.785-6.787s6.785,3.045,6.785,6.787h2.512c0-5.127-4.17-9.297-9.297-9.297s-9.297,4.17-9.297,9.297
		v34.364C56.641,72.396,59.734,75.49,63.538,75.49z"/>
</g>
</svg>
