<?xml version="1.0" encoding="utf-8"?>
<!-- Generator: Adobe Illustrator 13.0.0, SVG Export Plug-In . SVG Version: 6.00 Build 14948)  -->
<!DOCTYPE svg PUBLIC "-//W3C//DTD SVG 1.1//EN" "http://www.w3.org/Graphics/SVG/1.1/DTD/svg11.dtd">
<svg version="1.1" id="Layer_1" xmlns="http://www.w3.org/2000/svg" xmlns:xlink="http://www.w3.org/1999/xlink" x="0px" y="0px"
	 width="128px" height="128px" viewBox="0 0 128 128" enable-background="new 0 0 128 128" xml:space="preserve">
<g>
	<linearGradient id="SVGID_1_" gradientUnits="userSpaceOnUse" x1="63.9995" y1="7.0332" x2="63.9995" y2="120.7749">
		<stop  offset="0" style="stop-color:#FF1F00"/>
		<stop  offset="1" style="stop-color:#FF9D00"/>
	</linearGradient>
	<path fill="url(#SVGID_1_)" d="M103.62,7.033H24.382c-9.88,0-17.893,8.011-17.893,17.89v44.731c0,9.882,8.013,17.894,17.893,17.894
		h47.596l30.366,33.227V87.548h1.276c9.885,0,17.891-8.012,17.891-17.894V24.923C121.511,15.044,113.505,7.033,103.62,7.033z"/>
	<path opacity="0.5" fill="#FFFFFF" d="M103.129,10.077H24.878c-7.151,0-12.936,8.02-12.936,17.912v3.629
		c0-9.894,5.784-17.912,12.936-17.912h78.251c7.142,0,12.933,8.019,12.933,17.912v-3.629
		C116.062,18.097,110.271,10.077,103.129,10.077z"/>
	<g>
		<g>
			<path fill="none" d="M56.58,35.146c3.316-1.764,12.526,3.33,17.56,12.801c5.03,9.465,3.979,19.724,0.66,21.488
				c-3.318,1.767-10.956-3.868-15.987-13.336C53.784,46.628,53.265,36.911,56.58,35.146L56.58,35.146z"/>
			<linearGradient id="SVGID_2_" gradientUnits="userSpaceOnUse" x1="54.1738" y1="34.1465" x2="54.1738" y2="74.2451">
				<stop  offset="0" style="stop-color:#ECEEF0"/>
				<stop  offset="0.2485" style="stop-color:#E8E8E9"/>
				<stop  offset="0.8" style="stop-color:#DADBDE"/>
				<stop  offset="0.9481" style="stop-color:#C0C1C2"/>
			</linearGradient>
			<path fill="url(#SVGID_2_)" stroke="#000000" stroke-width="0.5" stroke-miterlimit="3.8637" d="M74.429,47.493
				c-0.507-0.971-1.054-1.896-1.629-2.777c-2.298-3.5-5.272-6.695-8.951-8.742c-2.126-1.186-4.682-2.323-7.149-1.602
				c-0.814,0.238-1.604,0.693-2.249,1.296c-1.433,1.349-2.217,3.348-3.176,5.112c-0.841,1.542-1.692,3.085-2.543,4.619
				l-5.774,10.469l-8.714,4.512c-0.238,0.127-0.463,0.258-0.679,0.403c0,0-0.029,0.017-0.026,0.021
				c-3.059,2.053-4.168,6.081-2.447,9.369c0.023,0.04,0.044,0.073,0.064,0.113c0.021,0.037,0.035,0.076,0.056,0.113
				c1.721,3.293,5.659,4.68,9.089,3.338c0,0.002,0.029-0.012,0.029-0.012c0.241-0.098,0.48-0.205,0.716-0.328l8.675-4.59
				l11.885,1.224c1.748,0.181,3.499,0.358,5.247,0.546c1.994,0.219,4.08,0.711,6.004,0.305c0.862-0.185,1.666-0.557,2.351-1.111
				c1.996-1.617,2.522-4.363,2.762-6.785c0.419-4.191-0.509-8.463-2.072-12.346c-0.396-0.975-0.841-1.953-1.351-2.923
				c-0.019-0.038-0.04-0.074-0.059-0.112C74.466,47.567,74.449,47.53,74.429,47.493L74.429,47.493z"/>
			<path fill="#FFFFFF" d="M52.948,38.683l-9.575,17.611l-8.716,4.514c-0.236,0.127-0.462,0.257-0.677,0.401
				c0,0-0.029,0.018-0.026,0.021c-2.244,1.504-3.43,4.073-3.231,6.631l0.523-0.96c0.041-2.323,1.198-3.977,2.729-4.935l1.099-0.65
				c0.215-0.147,0.439-0.276,0.676-0.403l8.001-4.168l8.815-15.906L52.948,38.683z"/>
			<path fill="#B3B3B3" d="M69.635,70.519l-19.926-2.195l-8.683,4.576c-0.238,0.12-0.475,0.23-0.719,0.323
				c0,0-0.029,0.016-0.03,0.009c-2.517,0.983-5.302,0.494-7.289-1.131l1.088,0.117c1.932,1.294,3.947,1.289,5.608,0.578
				c0.004,0.005,1.162-0.529,1.162-0.529c0.242-0.094,0.479-0.203,0.716-0.322l7.993-4.19l18.091,1.851L69.635,70.519z"/>
			<linearGradient id="SVGID_3_" gradientUnits="userSpaceOnUse" x1="62.9116" y1="41.981" x2="62.9116" y2="65.9761">
				<stop  offset="0" style="stop-color:#5F5D5C"/>
				<stop  offset="1" style="stop-color:#181500"/>
			</linearGradient>
			<path fill="url(#SVGID_3_)" d="M68.039,51.065c-3.332-6.378-8.424-10.293-11.375-8.747c-0.62,0.325-1.447,1.153-1.546,2.103
				c-0.353,3.388,1.149,7.299,3.563,11.543c2.426,4.268,4.958,7.463,7.72,9.806c0.597,0.508,1.708-0.044,2.33-0.368
				C71.682,63.858,71.372,57.438,68.039,51.065L68.039,51.065z"/>
			<path fill="#FFFFFF" d="M66.324,51.963c1.51,2.881,1.679,5.772,0.382,6.448c-1.297,0.682-3.57-1.108-5.077-3.992
				c-1.507-2.882-1.68-5.77-0.383-6.45C62.544,47.291,64.82,49.079,66.324,51.963L66.324,51.963z"/>
			<path opacity="0.49" fill="#FFFFFF" d="M52.712,42.087c0,0,0.321,1.811,0.646,2.848c0.326,1.038,0.517,2.072,0.517,2.072
				l-9.001,9.651L52.712,42.087z"/>
			<path fill="none" stroke="#000000" stroke-width="0.5" stroke-miterlimit="3.8637" d="M56.58,35.146
				c3.316-1.764,12.526,3.33,17.56,12.801c5.03,9.465,3.979,19.724,0.66,21.488c-3.318,1.767-10.956-3.868-15.987-13.336
				C53.784,46.628,53.265,36.911,56.58,35.146L56.58,35.146z"/>
			<linearGradient id="SVGID_4_" gradientUnits="userSpaceOnUse" x1="61.4692" y1="42.7031" x2="61.4692" y2="50.835">
				<stop  offset="0" style="stop-color:#FFFFFF"/>
				<stop  offset="1" style="stop-color:#000000"/>
			</linearGradient>
			<path fill="url(#SVGID_4_)" d="M56.849,43.943c2.683-1.406,7.102,1.612,10.442,6.892c-3.013-5.715-7.582-9.217-10.234-7.828
				c-0.56,0.293-1.31,1.043-1.398,1.902c-0.004,0.053-0.007,0.108-0.011,0.162C55.974,44.559,56.453,44.151,56.849,43.943z"/>
		</g>
		<g>
			
				<linearGradient id="SVGID_5_" gradientUnits="userSpaceOnUse" x1="-582.4668" y1="477.0049" x2="-588.8199" y2="464.4002" gradientTransform="matrix(0.893 -0.4501 -0.4501 -0.893 812.9097 203.1463)">
				<stop  offset="0" style="stop-color:#5F5D5C"/>
				<stop  offset="1" style="stop-color:#181500"/>
			</linearGradient>
			<path fill="url(#SVGID_5_)" d="M75.97,39.512c-0.896-0.455-1.948,0.083-2.262,1.038c-0.327,0.982,0.259,1.992,1.145,2.529
				c2.732,1.658,4.283,4.764,3.958,7.949c-0.108,1.009,0.396,2.025,1.361,2.344c0.945,0.309,2.003-0.19,2.173-1.174
				C83.228,47.044,80.631,41.882,75.97,39.512z"/>
			
				<linearGradient id="SVGID_6_" gradientUnits="userSpaceOnUse" x1="-574.5518" y1="481.7266" x2="-585.7407" y2="459.5276" gradientTransform="matrix(0.893 -0.4501 -0.4501 -0.893 812.9097 203.1463)">
				<stop  offset="0" style="stop-color:#5F5D5C"/>
				<stop  offset="1" style="stop-color:#181500"/>
			</linearGradient>
			<path fill="url(#SVGID_6_)" d="M78.158,31.716c-0.997-0.435-2.122,0.141-2.459,1.174c-0.341,1.024,0.175,2.125,1.154,2.578
				c6.958,3.213,10.812,10.831,9.283,18.336c-0.219,1.074,0.332,2.184,1.37,2.525c1.037,0.342,2.167-0.225,2.409-1.291
				C92.088,45.473,87.141,35.659,78.158,31.716z"/>
			
				<linearGradient id="SVGID_7_" gradientUnits="userSpaceOnUse" x1="-567.1865" y1="485.9287" x2="-582.6935" y2="455.1627" gradientTransform="matrix(0.893 -0.4501 -0.4501 -0.893 812.9097 203.1463)">
				<stop  offset="0" style="stop-color:#5F5D5C"/>
				<stop  offset="1" style="stop-color:#181500"/>
			</linearGradient>
			<path fill="url(#SVGID_7_)" d="M80.255,24.636c-1.016-0.415-2.143,0.162-2.486,1.202c-0.348,1.054,0.242,2.165,1.26,2.597
				c10.832,4.591,16.787,16.381,14.051,27.816c-0.259,1.092,0.263,2.252,1.33,2.604c1.037,0.343,2.173-0.223,2.445-1.289
				C100.302,44.01,93.208,29.93,80.255,24.636z"/>
		</g>
	</g>
</g>
</svg>
