<?xml version="1.0" encoding="utf-8"?>
<!-- Generator: Adobe Illustrator 13.0.0, SVG Export Plug-In . SVG Version: 6.00 Build 14948)  -->
<!DOCTYPE svg PUBLIC "-//W3C//DTD SVG 1.1//EN" "http://www.w3.org/Graphics/SVG/1.1/DTD/svg11.dtd">
<svg version="1.1" id="Layer_1" xmlns="http://www.w3.org/2000/svg" xmlns:xlink="http://www.w3.org/1999/xlink" x="0px" y="0px"
	 width="128px" height="128px" viewBox="0 0 128 128" enable-background="new 0 0 128 128" xml:space="preserve">
<g>
	<radialGradient id="SVGID_1_" cx="63.9746" cy="64" r="62.0547" gradientUnits="userSpaceOnUse">
		<stop  offset="0" style="stop-color:#FAFAFA"/>
		<stop  offset="0.3109" style="stop-color:#F4F4F4"/>
		<stop  offset="0.7262" style="stop-color:#E3E3E3"/>
		<stop  offset="1" style="stop-color:#D4D4D4"/>
	</radialGradient>
	<path fill="url(#SVGID_1_)" stroke="#B3B3B3" stroke-width="2" d="M18.855,1.923l90.233,0.006c9.342,0,16.914,7.578,16.914,16.927
		l0.006,90.294c0,9.348-7.574,16.926-16.916,16.926l-90.233-0.002c-9.341,0-16.915-7.582-16.915-16.93L1.941,18.85
		C1.94,9.502,9.514,1.923,18.855,1.923L18.855,1.923z"/>
	<path fill="#B3B3B3" d="M109.119,120.9l-90.372-0.006c-8.541,0-15.588-6.334-16.753-14.561v2.414
		c0,9.35,7.574,16.928,16.915,16.928l90.235,0.004c9.34,0,16.914-7.578,16.914-16.926v-4.803
		C126.055,113.311,118.471,120.9,109.119,120.9z"/>
	<path fill="#FFFFFF" d="M21.897,10.786l84.33,0.004c7.971,0,14.545,5.911,15.631,13.588v-2.254c0-8.724-7.066-15.795-15.783-15.795
		L21.876,6.324c-8.718,0-15.784,7.073-15.784,15.796v4.48C6.094,17.867,13.17,10.786,21.897,10.786z"/>
	<g>
		<g>
			<g>
				
					<linearGradient id="SVGID_2_" gradientUnits="userSpaceOnUse" x1="-312.9341" y1="904.9785" x2="-384.3026" y2="855.0057" gradientTransform="matrix(1 0 0 1 412.6201 -813.9912)">
					<stop  offset="0" style="stop-color:#FF1F00"/>
					<stop  offset="1" style="stop-color:#FF9D00"/>
				</linearGradient>
				<path fill="url(#SVGID_2_)" d="M108.752,81.457H85.209V50.543h23.543c1.588,0,2.877-1.287,2.877-2.876s-1.289-2.876-2.877-2.876
					H85.209V21.249c0-1.588-1.287-2.876-2.875-2.876c-1.59,0-2.877,1.288-2.877,2.876v23.543H48.543V21.249
					c0-1.588-1.287-2.876-2.875-2.876c-1.59,0-2.877,1.288-2.877,2.876v23.543H19.249c-1.588,0-2.876,1.287-2.876,2.876
					s1.288,2.876,2.876,2.876h23.543v30.914H19.249c-1.588,0-2.876,1.287-2.876,2.875c0,1.59,1.288,2.877,2.876,2.877h23.543v23.543
					c0,1.588,1.287,2.875,2.877,2.875c1.588,0,2.875-1.287,2.875-2.875V87.209h30.914v23.543c0,1.588,1.287,2.875,2.877,2.875
					c1.588,0,2.875-1.287,2.875-2.875V87.209h23.543c1.588,0,2.877-1.287,2.877-2.877C111.629,82.744,110.34,81.457,108.752,81.457z
					 M48.543,81.457V50.543h30.914v30.914H48.543z"/>
			</g>
		</g>
		<path d="M65.826,74.469h-2.464V59.954l-3.357,2.948v-2.732l3.365-2.889l2.457-0.008V74.469z"/>
		<path d="M68.902,109.359h-9.976v-2.199l6.597-8.041c0.607-0.74,0.916-1.506,0.916-2.295s-0.225-1.422-0.666-1.896
			s-1.061-0.713-1.847-0.713c-0.725,0-1.314,0.203-1.764,0.605c-0.516,0.467-0.773,1.15-0.773,2.053h-2.463
			c0-1.449,0.467-2.621,1.4-3.516s2.133-1.34,3.6-1.34c1.466,0,2.66,0.438,3.587,1.316c0.926,0.877,1.389,2.051,1.389,3.52
			c0,0.725-0.125,1.35-0.373,1.873c-0.248,0.521-0.66,1.141-1.236,1.85l-5.367,6.584h6.976V109.359L68.902,109.359z"/>
		<path d="M103.166,104.359c0,1.578-0.516,2.826-1.545,3.744c-0.5,0.418-1.053,0.73-1.654,0.939
			c-0.605,0.209-1.293,0.312-2.066,0.312c-1.465,0-2.672-0.387-3.623-1.158c-1.094-0.887-1.641-2.109-1.641-3.672H95.1
			c0,0.828,0.297,1.494,0.895,1.998c0.5,0.426,1.137,0.637,1.906,0.637c0.822,0,1.494-0.256,2.02-0.768
			c0.521-0.508,0.785-1.207,0.785-2.098c0-1.891-0.959-2.838-2.875-2.838h-0.41v-2.148h0.41c1.738,0,2.607-0.873,2.607-2.621
			c0-0.822-0.246-1.477-0.734-1.953c-0.492-0.477-1.094-0.715-1.803-0.715c-0.738,0-1.332,0.221-1.773,0.658
			c-0.441,0.439-0.711,1.049-0.811,1.828h-2.463c0-1.385,0.49-2.512,1.475-3.381c0.98-0.869,2.174-1.305,3.572-1.305
			c1.449,0,2.646,0.447,3.588,1.342c0.941,0.893,1.412,2.049,1.412,3.465c0,1.723-0.717,2.947-2.146,3.672
			C102.359,101.01,103.166,102.363,103.166,104.359z"/>
	</g>
</g>
</svg>
