<?xml version="1.0" encoding="utf-8"?>
<!-- Generator: Adobe Illustrator 13.0.0, SVG Export Plug-In . SVG Version: 6.00 Build 14948)  -->
<!DOCTYPE svg PUBLIC "-//W3C//DTD SVG 1.1//EN" "http://www.w3.org/Graphics/SVG/1.1/DTD/svg11.dtd">
<svg version="1.1" id="Layer_1" xmlns="http://www.w3.org/2000/svg" xmlns:xlink="http://www.w3.org/1999/xlink" x="0px" y="0px"
	 width="128px" height="128px" viewBox="0 0 128 128" enable-background="new 0 0 128 128" xml:space="preserve">
<g>
	<linearGradient id="SVGID_1_" gradientUnits="userSpaceOnUse" x1="26.5723" y1="101.334" x2="56.89" y2="105.3319">
		<stop  offset="0" style="stop-color:#FFFFFF"/>
		<stop  offset="1" style="stop-color:#000000"/>
	</linearGradient>
	<path fill="url(#SVGID_1_)" d="M81.272,102.02c0.031-0.597,0.062-1.187,0.062-1.794c0-0.293-0.021-0.533-0.03-0.809
		c1.672-0.945,2.64-2.036,2.64-3.205c0-1.395-1.378-2.113-3.687-2.479c-1.469-3.287-4.363-3.93-8.069-3.93
		c-2.39,0-5.118,0.271-8.017,0.271c-2.895,0-5.621-0.271-8.011-0.271c-3.701,0-6.601,0.643-8.071,3.93
		c-2.312,0.366-3.683,1.085-3.683,2.479c0,1.169,0.966,2.26,2.636,3.205c-0.006,0.275-0.031,0.516-0.031,0.809
		c0,0.607,0.034,1.197,0.064,1.8c-1.686,0.403-2.669,1.102-2.669,2.276c0,1.372,1.326,2.643,3.567,3.683
		c0.207,0.826,0.445,1.631,0.719,2.416c-1.68,0.367-2.666,1.014-2.666,2.138c0,1.737,2.311,3.294,5.968,4.374
		c3.107,4.327,7.418,7.01,12.177,7.01c4.764,0,9.074-2.683,12.186-7.01c3.657-1.08,5.961-2.637,5.961-4.374
		c0-1.124-0.983-1.771-2.664-2.138c0.276-0.785,0.512-1.585,0.719-2.411c2.246-1.045,3.571-2.315,3.571-3.688
		C83.943,103.127,82.959,102.429,81.272,102.02z"/>
	<radialGradient id="SVGID_2_" cx="65.2734" cy="51.5845" r="49.858" fx="86.9095" fy="61.4104" gradientUnits="userSpaceOnUse">
		<stop  offset="0" style="stop-color:#D4D4D4"/>
		<stop  offset="0.5989" style="stop-color:#DFE1E2"/>
		<stop  offset="0.9011" style="stop-color:#FFFFFF"/>
		<stop  offset="1" style="stop-color:#EBEBEB"/>
	</radialGradient>
	<path fill="url(#SVGID_2_)" stroke="#808080" d="M100.792,40.872c0,15.133-20.152,38.307-22.195,48.493
		c-1.136,5.655-9.41,5.857-14.594,5.857c-5.082,0-13.031-0.158-14.324-5.639c-2.122-8.994-22.471-33.472-22.471-48.712
		c0-20.322,16.473-36.794,36.795-36.794C84.319,4.078,100.792,20.55,100.792,40.872z"/>
	<g>
		<path fill="#FFFFFF" d="M51.691,83.879C49.892,74.894,32.122,54.46,32.122,41.12c0-17.916,14.523-32.443,32.442-32.443
			c1.151,0,2.287,0.068,3.408,0.181C51.66,10.566,38.941,24.356,38.941,41.12c0,9.292,3.216,17.551,7.448,25.112
			C50.623,73.794,51.691,83.879,51.691,83.879z"/>
	</g>
	<linearGradient id="SVGID_3_" gradientUnits="userSpaceOnUse" x1="53.9624" y1="96.1895" x2="55.0083" y2="102.6691">
		<stop  offset="0" style="stop-color:#FFFFFF"/>
		<stop  offset="1" style="stop-color:#000000"/>
	</linearGradient>
	<path fill="url(#SVGID_3_)" d="M47.745,95.06c0,0-1.832-0.371-2.018,0.91c-0.185,1.288,0.916,2.019,2.018,2.756
		c1.096,0.73,5.681,2.012,8.064,2.197c2.381,0.186,7.148-0.365,7.148-0.365s-7.332-1.653-11-2.935
		C48.292,96.341,47.745,95.06,47.745,95.06z"/>
	<linearGradient id="SVGID_4_" gradientUnits="userSpaceOnUse" x1="45.4946" y1="105.9727" x2="60.5669" y2="105.9727">
		<stop  offset="0" style="stop-color:#FFFFFF"/>
		<stop  offset="1" style="stop-color:#000000"/>
	</linearGradient>
	<path fill="url(#SVGID_4_)" d="M47.277,103.415c0,0-1.602-0.321-1.765,0.798c-0.16,1.123,0.802,1.766,1.765,2.398
		c0.962,0.647,4.965,1.766,7.044,1.931c2.081,0.156,6.246-0.321,6.246-0.321s-6.402-1.444-9.606-2.563
		C47.754,104.533,47.277,103.415,47.277,103.415z"/>
	<linearGradient id="SVGID_5_" gradientUnits="userSpaceOnUse" x1="46.9609" y1="113.9219" x2="60.8677" y2="113.9219">
		<stop  offset="0" style="stop-color:#FFFFFF"/>
		<stop  offset="1" style="stop-color:#000000"/>
	</linearGradient>
	<path fill="url(#SVGID_5_)" d="M48.605,111.56c0,0-1.481-0.293-1.628,0.743c-0.148,1.033,0.739,1.623,1.628,2.214
		c0.884,0.59,4.581,1.625,6.501,1.777c1.92,0.145,5.762-0.299,5.762-0.299s-5.91-1.332-8.867-2.367
		C49.042,112.595,48.605,111.56,48.605,111.56z"/>
</g>
</svg>
