<?xml version="1.0" encoding="utf-8"?>
<!-- Generator: Adobe Illustrator 13.0.0, SVG Export Plug-In . SVG Version: 6.00 Build 14948)  -->
<!DOCTYPE svg PUBLIC "-//W3C//DTD SVG 1.1//EN" "http://www.w3.org/Graphics/SVG/1.1/DTD/svg11.dtd">
<svg version="1.1" id="Layer_1" xmlns="http://www.w3.org/2000/svg" xmlns:xlink="http://www.w3.org/1999/xlink" x="0px" y="0px"
	 width="128px" height="128px" viewBox="0 0 128 128" enable-background="new 0 0 128 128" xml:space="preserve">
<g>
	<path fill="#F2F2F2" stroke="#B3B3B3" stroke-width="2" d="M109.502,17.301H18.5c-9.342,0-16.914,7.572-16.914,16.91v67.38
		c0,9.342,7.572,16.912,16.914,16.912h91.002c9.34,0,16.912-7.57,16.912-16.912v-67.38
		C126.414,24.874,118.842,17.301,109.502,17.301z"/>
	
		<linearGradient id="SVGID_1_" gradientUnits="userSpaceOnUse" x1="-225.3408" y1="32.4438" x2="-225.3408" y2="98.9447" gradientTransform="matrix(1 0 0 -1 289.2754 151.834)">
		<stop  offset="0.0934" style="stop-color:#D1D1D1"/>
		<stop  offset="0.431" style="stop-color:#D9D9D9"/>
		<stop  offset="0.9519" style="stop-color:#EFEFEF"/>
		<stop  offset="0.9725" style="stop-color:#F0F0F0"/>
	</linearGradient>
	<path fill="url(#SVGID_1_)" d="M38.496,82.781c-12.658,0-24.773-1.07-35.959-3.021v22.105c0,9.189,7.447,16.639,16.637,16.639
		h89.522c9.188,0,16.637-7.447,16.637-16.639V60.354C107.314,73.816,75.166,82.781,38.496,82.781z"/>
	<path fill="#B3B3B3" d="M108.934,115.488H19.189c-9.211,0-16.678-7.469-16.678-16.68v3.287c0,9.213,7.467,16.68,16.678,16.68
		h89.745c9.209,0,16.676-7.467,16.676-16.68v-3.287C125.609,108.02,118.143,115.488,108.934,115.488z"/>
	<path fill="#FFFFFF" enable-background="new    " d="M106.73,21.859H21.128c-8.787,0-15.91,7.123-15.91,15.906v4.704
		c0-8.786,7.122-15.908,15.91-15.908h85.602c8.785,0,15.908,7.122,15.908,15.908v-4.704
		C122.639,28.982,115.516,21.859,106.73,21.859z"/>
	<g>
		<g>
			<g>
				<g>
					<defs>
						<path id="SVGID_2_" d="M72.795,44.686h-47.46c-4.872,0-8.821,3.949-8.821,8.819v35.139c0,4.873,3.949,8.82,8.821,8.82h47.46
							c4.871,0,8.818-3.947,8.818-8.82v-35.14C81.613,48.634,77.666,44.686,72.795,44.686z"/>
					</defs>
					<clipPath id="SVGID_3_">
						<use xlink:href="#SVGID_2_"  overflow="visible"/>
					</clipPath>
					<g clip-path="url(#SVGID_3_)">
						
							<linearGradient id="SVGID_4_" gradientUnits="userSpaceOnUse" x1="-331.1943" y1="907.7266" x2="-403.0223" y2="857.4321" gradientTransform="matrix(1 0 0 1 412.6201 -813.9912)">
							<stop  offset="0" style="stop-color:#00B2DE"/>
							<stop  offset="1" style="stop-color:#99DBF6"/>
						</linearGradient>
						<path fill="url(#SVGID_4_)" d="M72.795,44.686h-47.46c-4.872,0-8.821,3.949-8.821,8.819v35.139c0,4.873,3.949,8.82,8.821,8.82
							h47.46c4.871,0,8.818-3.947,8.818-8.82v-35.14C81.613,48.634,77.666,44.686,72.795,44.686z"/>
						<circle fill="#F0C818" cx="57.794" cy="77.952" r="5.778"/>
						<path fill="#45731B" d="M42.342,93.342c0,0,13.386-20.783,40.83-22.602v27.82h-40.83l-0.005-4.816L42.342,93.342z"/>
						
							<linearGradient id="SVGID_5_" gradientUnits="userSpaceOnUse" x1="-397.8149" y1="899.9521" x2="-345.958" y2="899.9521" gradientTransform="matrix(1 0 0 1 412.6201 -813.9912)">
							<stop  offset="0" style="stop-color:#80C342"/>
							<stop  offset="1" style="stop-color:#A6CE39"/>
						</linearGradient>
						<path fill="url(#SVGID_5_)" d="M14.805,82.521c0,0,10.529-12.08,29.484-8.498C63.245,77.6,66.662,98.561,66.662,98.561H14.805
							V82.521z"/>
						<g>
							<path fill="#FFFFFF" d="M38.573,55.855c0,0,0.167-0.769-0.559-1.062c-0.729-0.292-1.324,0.475-1.324,0.475
								s0.855-1.75-0.928-2.177c-1.786-0.428-2.25,1.462-2.25,1.462s0.071-2.604-1.82-2.178c-1.399,0.317-2.544,1.26-2.613,2.219
								c-0.156-0.164-0.381-0.277-0.684-0.267c-0.666,0.023-0.88,0.476-0.88,0.476s-0.191-1.569-1-0.641
								c-0.81,0.928,0.189,1.403,0.189,1.403s-0.975,1.214,0.501,1.88s2.118-0.261,2.118-0.261c0.785,0.809,1.618,0.976,2.784,0.737
								c1.167-0.237,1.689-0.904,1.689-0.904c1.356,1.333,3-0.237,3-0.237c0.547,0.666,1.617-0.144,1.617-0.144
								c0.547,0.618,1.445,0.506,1.46-0.305C39.887,55.521,38.573,55.855,38.573,55.855z"/>
							<path fill="#E6E6E6" d="M39.754,56.724c0,0-0.933,0.123-1.196-0.527c0,0-1.155,0.852-1.44-0.041
								c-0.02,0.081-0.02,0.081-0.02,0.081s-2.759,1.074-3.266-0.224c0,0-2.637,2.435-4.057,0.244c0,0-2.108,1.846-3.367,0.283
								c-0.005-0.007-0.01-0.012-0.014-0.019c0.034,0.322,0.236,0.665,0.81,0.923c1.476,0.666,2.118-0.261,2.118-0.261
								c0.785,0.809,1.618,0.976,2.785,0.737c1.166-0.237,1.689-0.904,1.689-0.904c1.356,1.333,2.999-0.237,2.999-0.237
								c0.548,0.666,1.618-0.144,1.618-0.144c0.437,0.494,1.096,0.522,1.352,0.102L39.754,56.724z"/>
						</g>
						<g>
							<path fill="#FFFFFF" d="M55.561,65.057c0,0,0.088-0.404-0.295-0.56c-0.384-0.154-0.698,0.251-0.698,0.251
								s0.452-0.921-0.488-1.149c-0.94-0.227-1.186,0.771-1.186,0.771s0.039-1.373-0.96-1.147c-0.738,0.167-1.342,0.663-1.377,1.169
								c-0.082-0.087-0.201-0.147-0.36-0.141c-0.351,0.013-0.464,0.25-0.464,0.25s-0.1-0.829-0.528-0.338
								c-0.427,0.489,0.101,0.739,0.101,0.739s-0.515,0.641,0.264,0.992c0.776,0.352,1.116-0.137,1.116-0.137
								c0.414,0.426,0.853,0.514,1.468,0.389c0.613-0.125,0.891-0.477,0.891-0.477c0.715,0.701,1.58-0.125,1.58-0.125
								c0.288,0.352,0.854-0.076,0.854-0.076c0.289,0.326,0.762,0.268,0.77-0.158C56.254,64.881,55.561,65.057,55.561,65.057z"/>
							<path fill="#E6E6E6" d="M56.184,65.516c0,0-0.491,0.064-0.631-0.279c0,0-0.61,0.449-0.759-0.021
								c-0.011,0.043-0.011,0.043-0.011,0.043s-1.455,0.564-1.723-0.119c0,0-1.389,1.283-2.137,0.129c0,0-1.112,0.971-1.775,0.148
								c-0.003-0.002-0.006-0.006-0.008-0.008c0.018,0.17,0.123,0.35,0.426,0.484c0.777,0.352,1.117-0.137,1.117-0.137
								c0.414,0.426,0.853,0.514,1.467,0.389s0.891-0.475,0.891-0.475c0.715,0.699,1.581-0.127,1.581-0.127
								c0.288,0.352,0.854-0.076,0.854-0.076c0.231,0.262,0.577,0.275,0.712,0.055L56.184,65.516z"/>
						</g>
					</g>
				</g>
			</g>
		</g>
		<path fill="#FFFFFF" d="M112.074,87.986c0,5.297-4.293,9.588-9.588,9.588H61.879c-5.296,0-9.589-4.291-9.589-9.588v-33.71
			c0-5.297,4.293-9.59,9.589-9.59h40.607c5.295,0,9.588,4.293,9.588,9.59V87.986z"/>
		<g>
			<linearGradient id="SVGID_6_" gradientUnits="userSpaceOnUse" x1="83.7041" y1="44.686" x2="83.7041" y2="97.5742">
				<stop  offset="0" style="stop-color:#32AECE"/>
				<stop  offset="1" style="stop-color:#094E86"/>
			</linearGradient>
			<path fill="url(#SVGID_6_)" d="M113.596,87.986c0,5.297-4.293,9.588-9.588,9.588H63.402c-5.296,0-9.589-4.291-9.589-9.588v-33.71
				c0-5.297,4.293-9.59,9.589-9.59h40.606c5.295,0,9.588,4.293,9.588,9.59V87.986z"/>
			<g>
				<linearGradient id="SVGID_7_" gradientUnits="userSpaceOnUse" x1="80.6592" y1="89.5" x2="73.85" y2="84.7321">
					<stop  offset="0" style="stop-color:#DEDEDE"/>
					<stop  offset="1" style="stop-color:#FEFEFE"/>
				</linearGradient>
				<polygon opacity="0.8" fill="url(#SVGID_7_)" points="74.977,83.125 74.963,91.18 83.322,85.697 74.977,83.125 				"/>
				<linearGradient id="SVGID_8_" gradientUnits="userSpaceOnUse" x1="98.2158" y1="80.0527" x2="74.91" y2="63.7338">
					<stop  offset="0" style="stop-color:#DEDEDE"/>
					<stop  offset="1" style="stop-color:#FEFEFE"/>
				</linearGradient>
				<polygon fill="url(#SVGID_8_)" points="108.775,64.975 74.729,82.414 64.352,78.812 108.775,64.975 				"/>
				<linearGradient id="SVGID_9_" gradientUnits="userSpaceOnUse" x1="101.875" y1="80.6816" x2="85.1144" y2="68.9457">
					<stop  offset="0" style="stop-color:#DEDEDE"/>
					<stop  offset="1" style="stop-color:#FEFEFE"/>
				</linearGradient>
				<polygon fill="url(#SVGID_9_)" points="109.084,65.275 75.504,82.672 95.857,89.275 109.084,65.275 				"/>
			</g>
			<g>
				<path fill="#FFFFFF" d="M82.268,60.989c0,0,0.303-1.387-1.008-1.914c-1.311-0.531-2.385,0.851-2.385,0.851
					s1.543-3.148-1.674-3.923c-3.215-0.77-4.053,2.638-4.053,2.638s0.129-4.695-3.283-3.924c-2.52,0.57-4.584,2.271-4.707,3.998
					c-0.283-0.296-0.717-0.299-1.232-0.479c-1.914-0.672-6.304,2.919-2.145,5.618c2.448,1.59,3.818-0.471,3.818-0.471
					c1.416,1.456,2.916,1.758,5.018,1.329c2.102-0.43,3.047-1.631,3.047-1.631c2.443,2.405,5.402-0.428,5.402-0.428
					c0.988,1.201,2.918-0.258,2.918-0.258c0.986,1.115,2.604,0.913,2.629-0.547C84.639,60.385,82.268,60.989,82.268,60.989z"/>
				<path fill="#E6E6E6" d="M84.398,62.554c0,0-1.678,0.22-2.154-0.951c0,0-2.084,1.537-2.596-0.073
					c-0.035,0.147-0.035,0.147-0.035,0.147s-4.975,1.936-5.887-0.403c0,0-4.75,4.386-7.309,0.439c0,0-3.918,3.291-6.183,0.476
					c-0.008-0.012,0,0.09,0.087,0c0.062,0.581,0.639,1.408,1.672,1.876c2.659,1.201,3.606-0.683,3.606-0.683
					c1.416,1.456,2.916,1.758,5.018,1.329c2.102-0.43,3.047-1.631,3.047-1.631c2.443,2.405,5.402-0.428,5.402-0.428
					c0.988,1.201,2.918-0.258,2.918-0.258c0.787,0.89,1.975,0.94,2.436,0.185L84.398,62.554z"/>
			</g>
		</g>
	</g>
</g>
</svg>
