<?xml version="1.0" encoding="utf-8"?>
<!-- Generator: Adobe Illustrator 13.0.0, SVG Export Plug-In . SVG Version: 6.00 Build 14948)  -->
<!DOCTYPE svg PUBLIC "-//W3C//DTD SVG 1.1//EN" "http://www.w3.org/Graphics/SVG/1.1/DTD/svg11.dtd">
<svg version="1.1" id="Layer_1" xmlns="http://www.w3.org/2000/svg" xmlns:xlink="http://www.w3.org/1999/xlink" x="0px" y="0px"
	 width="128px" height="128px" viewBox="0 0 128 128" enable-background="new 0 0 128 128" xml:space="preserve">
<g>
	<path fill="#F2F2F2" stroke="#B3B3B3" stroke-width="2" d="M109.502,16.859H18.5c-9.342,0-16.914,7.572-16.914,16.91v67.38
		c0,9.342,7.572,16.913,16.914,16.913h91.002c9.34,0,16.912-7.571,16.912-16.913V33.77
		C126.414,24.432,118.842,16.859,109.502,16.859z"/>
	
		<linearGradient id="SVGID_1_" gradientUnits="userSpaceOnUse" x1="-225.3408" y1="32.8853" x2="-225.3408" y2="99.3872" gradientTransform="matrix(1 0 0 -1 289.2754 151.834)">
		<stop  offset="0.0934" style="stop-color:#D1D1D1"/>
		<stop  offset="0.431" style="stop-color:#D9D9D9"/>
		<stop  offset="0.9519" style="stop-color:#EFEFEF"/>
		<stop  offset="0.9725" style="stop-color:#F0F0F0"/>
	</linearGradient>
	<path fill="url(#SVGID_1_)" d="M38.496,82.34c-12.658,0-24.773-1.07-35.959-3.022v22.106c0,9.188,7.447,16.639,16.637,16.639
		h89.522c9.188,0,16.637-7.448,16.637-16.639V59.912C107.314,73.374,75.166,82.34,38.496,82.34z"/>
	<path fill="#B3B3B3" d="M108.934,115.046l-89.745,0.001c-9.211,0-16.678-7.47-16.678-16.681v3.287
		c0,9.213,7.467,16.68,16.678,16.68h89.745c9.209,0,16.676-7.467,16.676-16.68v-3.287
		C125.609,107.577,118.143,115.046,108.934,115.046z"/>
	<path fill="#FFFFFF" enable-background="new    " d="M106.73,21.417H21.128c-8.787,0-15.91,7.123-15.91,15.906v4.704
		c0-8.786,7.122-15.908,15.91-15.908h85.602c8.785,0,15.908,7.122,15.908,15.908v-4.704C122.639,28.54,115.516,21.417,106.73,21.417
		z"/>
	<g>
		
			<linearGradient id="SVGID_2_" gradientUnits="userSpaceOnUse" x1="-311.4707" y1="910.627" x2="-385.7719" y2="858.6006" gradientTransform="matrix(1 0 0 1 412.6201 -813.9912)">
			<stop  offset="0" style="stop-color:#FBB318"/>
			<stop  offset="1" style="stop-color:#FFE600"/>
		</linearGradient>
		<rect x="16.329" y="59.634" fill="url(#SVGID_2_)" width="95.341" height="21.979"/>
		
			<linearGradient id="SVGID_3_" gradientUnits="userSpaceOnUse" x1="-313.6875" y1="893.333" x2="-382.1378" y2="845.4035" gradientTransform="matrix(1 0 0 1 412.6201 -813.9912)">
			<stop  offset="0" style="stop-color:#C51015"/>
			<stop  offset="1" style="stop-color:#E20A16"/>
		</linearGradient>
		<path fill="url(#SVGID_3_)" d="M98.752,42.171H29.247c-7.137,0-12.918,6.459-12.918,14.422v4.557h95.341v-4.557
			C111.67,48.63,105.887,42.171,98.752,42.171z"/>
		
			<linearGradient id="SVGID_4_" gradientUnits="userSpaceOnUse" x1="3336.3291" y1="7044.6602" x2="3404.7778" y2="7092.5889" gradientTransform="matrix(-1 0 0 -1 3433.8457 7154.1719)">
			<stop  offset="0" style="stop-color:#C51015"/>
			<stop  offset="1" style="stop-color:#E20A16"/>
		</linearGradient>
		<path fill="url(#SVGID_4_)" d="M29.245,98.751H98.75c7.137,0,12.92-6.459,12.92-14.422v-4.557H16.329v4.557
			C16.329,92.292,22.11,98.751,29.245,98.751z"/>
	</g>
</g>
</svg>
