<?xml version="1.0" encoding="utf-8"?>
<!-- Generator: Adobe Illustrator 13.0.0, SVG Export Plug-In . SVG Version: 6.00 Build 14948)  -->
<!DOCTYPE svg PUBLIC "-//W3C//DTD SVG 1.1//EN" "http://www.w3.org/Graphics/SVG/1.1/DTD/svg11.dtd">
<svg version="1.1" id="Layer_1" xmlns="http://www.w3.org/2000/svg" xmlns:xlink="http://www.w3.org/1999/xlink" x="0px" y="0px"
	 width="128px" height="128px" viewBox="0 0 128 128" enable-background="new 0 0 128 128" xml:space="preserve">
<g>
	<g>
		<g>
			<path fill="#F2F2F2" d="M32.822,67.892c1.446-0.899,3.155-1.425,4.983-1.425h61.426c1.808,0,3.501,0.513,4.937,1.395l0.729-0.658
				c-1.635-1.062-3.576-1.686-5.665-1.686H37.805c-2.083,0-4.018,0.617-5.645,1.672L32.822,67.892z"/>
			<radialGradient id="SVGID_1_" cx="68.4561" cy="94.1777" r="35.6041" gradientUnits="userSpaceOnUse">
				<stop  offset="0" style="stop-color:#FAFAFA"/>
				<stop  offset="0.3629" style="stop-color:#E5E5E5"/>
				<stop  offset="1" style="stop-color:#C4C4C4"/>
			</radialGradient>
			<path fill="url(#SVGID_1_)" stroke="#808080" d="M60.177,119.4L31.221,76.588c-4.479-7.396-2.538-13.448,4.309-13.448h66.146
				c6.848,0,8.488,5.656,3.645,12.565L77.121,120.28C72.279,127.189,64.656,126.795,60.177,119.4L60.177,119.4z"/>
			<radialGradient id="SVGID_2_" cx="69.2285" cy="30.4111" r="27.6172" gradientUnits="userSpaceOnUse">
				<stop  offset="0" style="stop-color:#FAFAFA"/>
				<stop  offset="0.4142" style="stop-color:#E3E3E3"/>
				<stop  offset="1" style="stop-color:#C7C7C7"/>
			</radialGradient>
			<path fill="url(#SVGID_2_)" stroke="#808080" d="M41.62,30.411c0-15.257,12.362-27.626,27.609-27.626
				c15.247,0,27.606,12.37,27.606,27.626c0,15.26-12.359,27.627-27.606,27.627C53.982,58.038,41.62,45.671,41.62,30.411
				L41.62,30.411z"/>
			<linearGradient id="SVGID_3_" gradientUnits="userSpaceOnUse" x1="81.6992" y1="16.3657" x2="81.6992" y2="30.7607">
				<stop  offset="0" style="stop-color:#80C11B"/>
				<stop  offset="1" style="stop-color:#80E21B"/>
			</linearGradient>
			<path fill="url(#SVGID_3_)" d="M74.506,23.563c0-3.977,3.219-7.197,7.193-7.197c3.972,0,7.192,3.221,7.192,7.197
				c0,3.976-3.221,7.198-7.192,7.198C77.725,30.761,74.506,27.539,74.506,23.563L74.506,23.563z"/>
			<path opacity="0.5" fill="#FFFFFF" d="M81.689,23.395c1.98,1.654,4.661,0.746,6.33-0.119c-0.246-3.333-3.023-5.958-6.415-5.958
				c-3.405,0-6.19,2.647-6.415,5.998C76.732,22.558,79.558,21.61,81.689,23.395z"/>
			<path fill="#F2F2F2" d="M49.183,16.104C53.793,9.776,62.269,4.926,70.191,4.926c7.924,0,16.186,4.85,20.793,11.179h0.876
				C86.976,8.656,79.045,3.781,70.084,3.781c-8.963,0-16.894,4.875-21.779,12.324H49.183z"/>
			<linearGradient id="SVGID_4_" gradientUnits="userSpaceOnUse" x1="69.3779" y1="52.7446" x2="69.3779" y2="40.4229">
				<stop  offset="0" style="stop-color:#00B2DE"/>
				<stop  offset="1" style="stop-color:#99DBF6"/>
			</linearGradient>
			<path fill="url(#SVGID_4_)" d="M90.282,40.423C85.668,46.753,77.193,51.6,69.268,51.6c-7.923,0-16.183-4.847-20.792-11.177H47.6
				c4.885,7.451,12.814,12.322,21.775,12.322c8.965,0,16.893-4.871,21.781-12.322H90.282z"/>
			<path fill="#BFBFBF" d="M104.489,70.49c-0.022,1.449-0.429,2.91-1.269,4.219l-28.176,43.913c-0.828,1.292-1.971,2.265-3.26,2.89
				l0.135,0.822c1.51-0.68,2.845-1.781,3.805-3.275l28.177-43.914c0.956-1.484,1.397-3.154,1.393-4.803L104.489,70.49z"/>
			<path opacity="0.5" fill="#FFFFFF" d="M38.299,84.498c8.211-6.482,18.571-10.361,29.848-10.361
				c11.105,0,21.324,3.764,29.475,10.074l4.963-7.842c4.523-6.455,2.99-11.738-3.406-11.738H37.383c-6.4,0-8.209,5.654-4.026,12.561
				L38.299,84.498z"/>
		</g>
	</g>
	<g>
		
			<linearGradient id="SVGID_5_" gradientUnits="userSpaceOnUse" x1="-92.147" y1="884.8486" x2="-92.147" y2="919.4102" gradientTransform="matrix(1 0 0 1 123.3823 -838.9521)">
			<stop  offset="0" style="stop-color:#FF9D00"/>
			<stop  offset="1" style="stop-color:#FF1F00"/>
		</linearGradient>
		<path fill="url(#SVGID_5_)" d="M31.132,45.897c-1.188,0.009-2.268,0.693-2.785,1.761c0,0-2.792,5.763-3.807,7.856
			c-2.3,0.352-8.627,1.318-8.627,1.318c-1.06,0.161-1.951,0.853-2.381,1.815c-0.047,0.108-0.089,0.215-0.124,0.328
			c-0.358,1.132-0.044,2.371,0.813,3.194c0,0,4.618,4.436,6.295,6.047c-0.376,2.295-1.411,8.614-1.411,8.614
			c-0.192,1.172,0.297,2.352,1.264,3.044c0.966,0.691,2.241,0.773,3.289,0.212c0,0,5.646-3.021,7.696-4.117
			c2.066,1.066,7.756,4.005,7.756,4.005c1.058,0.545,2.329,0.443,3.285-0.263c0.445-0.326,0.783-0.758,0.999-1.241
			c0.249-0.562,0.333-1.192,0.222-1.819c0,0-1.13-6.305-1.54-8.594c1.653-1.634,6.206-6.139,6.206-6.139
			c0.281-0.278,0.5-0.6,0.656-0.949c0.311-0.7,0.36-1.503,0.109-2.255c-0.375-1.129-1.357-1.945-2.535-2.107
			c0,0-6.344-0.873-8.646-1.191c-1.046-2.078-3.922-7.799-3.922-7.799C33.411,46.557,32.32,45.89,31.132,45.897L31.132,45.897z"/>
		<g opacity="0.3">
			<path opacity="0.63" fill="#FFFFFF" d="M39.256,55.608c-0.54-0.074-1.02-0.14-1.39-0.191c-1.046-2.078-3.922-7.799-3.922-7.799
				c-0.533-1.062-1.624-1.729-2.812-1.721c-1.188,0.009-2.268,0.693-2.785,1.761c0,0-2.792,5.763-3.807,7.856
				c-2.3,0.352-8.627,1.318-8.627,1.318c-1.06,0.161-1.951,0.853-2.381,1.815c-0.047,0.108-0.089,0.215-0.124,0.328
				c-0.358,1.132-0.044,2.371,0.813,3.194c0,0,4.618,4.436,6.295,6.047c-0.085,0.521-0.205,1.249-0.338,2.063
				C30.449,70.118,38.771,63.678,39.256,55.608z"/>
		</g>
	</g>
	<g>
		<g>
			<g>
				<g>
					<linearGradient id="SVGID_6_" gradientUnits="userSpaceOnUse" x1="93.4268" y1="82.1592" x2="93.4268" y2="116.916">
						<stop  offset="0" style="stop-color:#5F5D5C"/>
						<stop  offset="0.1849" style="stop-color:#5B5957"/>
						<stop  offset="0.4091" style="stop-color:#504D48"/>
						<stop  offset="0.6537" style="stop-color:#3D3A30"/>
						<stop  offset="0.9111" style="stop-color:#22200E"/>
						<stop  offset="1" style="stop-color:#181500"/>
					</linearGradient>
					<path fill="url(#SVGID_6_)" d="M109.054,82.159H77.801c-3.21,0-5.81,2.6-5.81,5.807v23.14c0,3.208,2.6,5.811,5.81,5.811h31.253
						c3.207,0,5.809-2.603,5.809-5.811v-23.14C114.862,84.759,112.261,82.159,109.054,82.159z"/>
					<path d="M84.667,104.075c-4.348,0-8.506-0.367-12.348-1.037v7.591c0,3.157,2.557,5.716,5.713,5.716h30.744
						c3.154,0,5.712-2.559,5.712-5.716V96.374C108.302,100.997,97.263,104.075,84.667,104.075z"/>
				</g>
			</g>
			
				<linearGradient id="SVGID_7_" gradientUnits="userSpaceOnUse" x1="-286.5884" y1="-499.0996" x2="-286.5884" y2="-512.4239" gradientTransform="matrix(1 0 0 -1 370.0342 -413.7783)">
				<stop  offset="0" style="stop-color:#FFD207"/>
				<stop  offset="1" style="stop-color:#FAA61A"/>
			</linearGradient>
			<path fill="url(#SVGID_7_)" d="M91.18,94.827c0,2.107-1.71,3.817-3.817,3.817h-7.834c-2.109,0-3.816-1.711-3.816-3.817v-3.679
				c0-2.107,1.707-3.815,3.816-3.815h7.834c2.107,0,3.817,1.709,3.817,3.815V94.827z"/>
			<g>
				<g>
					
						<linearGradient id="SVGID_8_" gradientUnits="userSpaceOnUse" x1="-265.9297" y1="-515.7061" x2="-265.9297" y2="-521.7612" gradientTransform="matrix(1 0 0 -1 370.0342 -413.7783)">
						<stop  offset="0" style="stop-color:#D5D7D8"/>
						<stop  offset="1" style="stop-color:#5C5F61"/>
					</linearGradient>
					<path fill="url(#SVGID_8_)" stroke="#808080" stroke-miterlimit="3.8637" d="M107.765,103.761h-7.318
						c-1.924,0-3.487,1.877-3.559,4.221h14.434C111.251,105.638,109.689,103.761,107.765,103.761z"/>
				</g>
				<g>
					
						<linearGradient id="SVGID_9_" gradientUnits="userSpaceOnUse" x1="-265.9297" y1="-518.9966" x2="-265.9297" y2="-525.0505" gradientTransform="matrix(1 0 0 -1 370.0342 -413.7783)">
						<stop  offset="0" style="stop-color:#FFD207"/>
						<stop  offset="1" style="stop-color:#FAA61A"/>
					</linearGradient>
					<path fill="url(#SVGID_9_)" stroke="#FAA61A" stroke-miterlimit="3.8637" d="M107.765,107.051h-7.318
						c-1.924,0-3.487,1.874-3.559,4.22h14.434C111.251,108.925,109.689,107.051,107.765,107.051z"/>
				</g>
				<g>
					
						<linearGradient id="SVGID_10_" gradientUnits="userSpaceOnUse" x1="-265.9297" y1="-522.0684" x2="-265.9297" y2="-528.1208" gradientTransform="matrix(1 0 0 -1 370.0342 -413.7783)">
						<stop  offset="0" style="stop-color:#D5D7D8"/>
						<stop  offset="1" style="stop-color:#5C5F61"/>
					</linearGradient>
					<path fill="url(#SVGID_10_)" stroke="#808080" stroke-miterlimit="3.8637" d="M107.765,110.122h-7.318
						c-1.924,0-3.487,1.875-3.559,4.219h14.434C111.251,111.997,109.689,110.122,107.765,110.122z"/>
				</g>
			</g>
		</g>
		<linearGradient id="SVGID_11_" gradientUnits="userSpaceOnUse" x1="93.4258" y1="90.2158" x2="93.4258" y2="82.9795">
			<stop  offset="0" style="stop-color:#6D6F71"/>
			<stop  offset="1" style="stop-color:#939598"/>
		</linearGradient>
		<path fill="url(#SVGID_11_)" d="M108.452,82.979H78.403c-3.086,0-5.586,2.502-5.586,5.584v1.652c0-3.084,2.5-5.584,5.586-5.584
			h30.049c3.081,0,5.582,2.5,5.582,5.584v-1.652C114.034,85.481,111.533,82.979,108.452,82.979z"/>
	</g>
</g>
</svg>
