<?xml version="1.0" encoding="utf-8"?>
<!-- Generator: Adobe Illustrator 13.0.0, SVG Export Plug-In . SVG Version: 6.00 Build 14948)  -->
<!DOCTYPE svg PUBLIC "-//W3C//DTD SVG 1.1//EN" "http://www.w3.org/Graphics/SVG/1.1/DTD/svg11.dtd">
<svg version="1.1" id="Layer_1" xmlns="http://www.w3.org/2000/svg" xmlns:xlink="http://www.w3.org/1999/xlink" x="0px" y="0px"
	 width="128px" height="128px" viewBox="0 0 128 128" enable-background="new 0 0 128 128" xml:space="preserve">
<g>
	<g>
		<path fill="#F2F2F2" stroke="#B3B3B3" d="M85.336,16.388H15.841c-7.135,0-12.917,5.781-12.917,12.912v51.455
			c0,7.134,5.782,12.917,12.917,12.917h69.495c7.133,0,12.914-5.783,12.914-12.917V29.3C98.25,22.169,92.469,16.388,85.336,16.388z"
			/>
		<linearGradient id="SVGID_1_" gradientUnits="userSpaceOnUse" x1="50.5371" y1="94.3496" x2="50.5371" y2="43.5647">
			<stop  offset="0.0934" style="stop-color:#D1D1D1"/>
			<stop  offset="0.431" style="stop-color:#D9D9D9"/>
			<stop  offset="0.9519" style="stop-color:#EFEFEF"/>
			<stop  offset="0.9725" style="stop-color:#F0F0F0"/>
		</linearGradient>
		<path fill="url(#SVGID_1_)" d="M31.111,66.392c-9.666,0-18.918-0.817-27.461-2.309v16.883c0,7.018,5.688,12.706,12.705,12.706
			h68.364c7.018,0,12.705-5.688,12.705-12.706V49.265C83.666,59.545,59.115,66.392,31.111,66.392z"/>
		<path fill="#B3B3B3" d="M84.902,91.368H16.367c-7.033,0-12.735-5.703-12.735-12.738v2.512c0,7.035,5.702,12.737,12.735,12.737
			h68.536c7.031,0,12.734-5.702,12.734-12.737V78.63C97.637,85.665,91.934,91.368,84.902,91.368z"/>
		<linearGradient id="SVGID_2_" gradientUnits="userSpaceOnUse" x1="50.7085" y1="16.6592" x2="50.7085" y2="41.0172">
			<stop  offset="0" style="stop-color:#EC008C"/>
			<stop  offset="1" style="stop-color:#C4008C"/>
		</linearGradient>
		<path fill="url(#SVGID_2_)" d="M97.811,38.283v-8.537c0-7.047-5.715-12.762-12.764-12.762H16.372
			c-7.05,0-12.765,5.715-12.765,12.763v8.536H97.811z"/>
		<path opacity="0.5" fill="#FFFFFF" d="M85.119,16.739H16.377c-7.058,0-12.776,5.721-12.776,12.774v3.776
			c0-7.055,5.719-12.775,12.776-12.774h68.742c7.053,0,12.773,5.721,12.773,12.775v-3.776C97.893,22.46,92.172,16.739,85.119,16.739
			z"/>
	</g>
	<g>
		<path fill="#F2F2F2" stroke="#B3B3B3" d="M112.16,47.326H42.667c-7.135,0-12.917,5.782-12.917,12.913v51.455
			c0,7.134,5.782,12.917,12.917,12.917h69.494c7.133,0,12.916-5.783,12.916-12.917V60.239
			C125.076,53.108,119.293,47.326,112.16,47.326z"/>
		<linearGradient id="SVGID_3_" gradientUnits="userSpaceOnUse" x1="77.3623" y1="125.2891" x2="77.3623" y2="74.5036">
			<stop  offset="0.0934" style="stop-color:#D1D1D1"/>
			<stop  offset="0.431" style="stop-color:#D9D9D9"/>
			<stop  offset="0.9519" style="stop-color:#EFEFEF"/>
			<stop  offset="0.9725" style="stop-color:#F0F0F0"/>
		</linearGradient>
		<path fill="url(#SVGID_3_)" d="M57.936,97.331c-9.666,0-18.918-0.817-27.461-2.309v16.883c0,7.018,5.688,12.706,12.705,12.706
			h68.365c7.016,0,12.705-5.688,12.705-12.706V80.204C110.49,90.484,85.939,97.331,57.936,97.331z"/>
		<path fill="#B3B3B3" d="M111.727,122.308H43.192c-7.033,0-12.735-5.703-12.735-12.738v2.512c0,7.035,5.702,12.737,12.735,12.737
			h68.535c7.033,0,12.734-5.702,12.734-12.737v-2.512C124.461,116.604,118.76,122.308,111.727,122.308z"/>
		<linearGradient id="SVGID_4_" gradientUnits="userSpaceOnUse" x1="77.5332" y1="47.5986" x2="77.5332" y2="71.9572">
			<stop  offset="0" style="stop-color:#FFD207"/>
			<stop  offset="1" style="stop-color:#FAA61A"/>
		</linearGradient>
		<path fill="url(#SVGID_4_)" d="M124.635,69.223v-8.537c0-7.047-5.713-12.762-12.762-12.762H43.197
			c-7.05,0-12.765,5.715-12.765,12.763v8.536H124.635z"/>
		<path opacity="0.5" fill="#FFFFFF" d="M112.008,47.679H43.212c-7.062,0-12.785,5.725-12.785,12.783v3.781
			c0-7.061,5.723-12.785,12.785-12.785h68.795c7.059,0,12.783,5.725,12.783,12.785v-3.78
			C124.791,53.403,119.066,47.679,112.008,47.679z"/>
	</g>
	<g>
		
			<linearGradient id="SVGID_5_" gradientUnits="userSpaceOnUse" x1="-213.397" y1="768.2109" x2="-213.397" y2="807.4062" gradientTransform="matrix(1 0 0 1 289.313 -690.0693)">
			<stop  offset="0" style="stop-color:#99DBF6"/>
			<stop  offset="1" style="stop-color:#00B2DE"/>
		</linearGradient>
		<path fill="url(#SVGID_5_)" d="M78.369,108.661c5.131,0,9.594-2.902,11.834-7.155l1.984,1.648l-0.029,0.052l3.072,4.51
			c0.189,0.277,0.271,0.598,0.271,0.91c0,0.421-0.148,0.846-0.465,1.167l-2.168,2.171c-0.322,0.319-0.748,0.466-1.166,0.466
			c-0.314,0-0.633-0.082-0.91-0.272l-4.508-3.076c-1.17,0.674-2.43,1.2-3.764,1.562l-1.014,5.361
			c-0.072,0.391-0.291,0.715-0.57,0.945c-0.283,0.232-0.641,0.386-1.033,0.386h-3.068c-0.395,0-0.752-0.153-1.033-0.386
			c-0.283-0.23-0.498-0.555-0.572-0.945l-1.016-5.363c-1.332-0.36-2.592-0.887-3.762-1.561l-4.506,3.076
			c-0.277,0.189-0.598,0.271-0.908,0.271c-0.422,0-0.846-0.148-1.17-0.465l-2.166-2.171c-0.319-0.321-0.465-0.746-0.467-1.167
			c0-0.312,0.084-0.633,0.272-0.91l3.074-4.51c-0.674-1.172-1.202-2.434-1.561-3.767l-5.361-1.015
			c-0.385-0.075-0.709-0.291-0.943-0.572c-0.232-0.282-0.386-0.638-0.386-1.035v-3.065c0-0.397,0.153-0.754,0.386-1.036
			c0.234-0.281,0.557-0.496,0.945-0.571l5.359-1.015c0.36-1.333,0.887-2.596,1.561-3.766l-3.073-4.51
			c-0.189-0.279-0.273-0.599-0.273-0.911c0.002-0.421,0.147-0.847,0.467-1.167l2.166-2.169c0.324-0.319,0.749-0.464,1.17-0.466
			c0.312,0,0.629,0.082,0.908,0.27l4.506,3.076c0.273-0.155,0.549-0.304,0.83-0.444l1.934,1.899
			c-4.816,2.025-8.213,6.796-8.213,12.346C65.004,102.663,71.002,108.661,78.369,108.661L78.369,108.661z"/>
		
			<linearGradient id="SVGID_6_" gradientUnits="userSpaceOnUse" x1="-211.6553" y1="773.5898" x2="-211.6553" y2="797.9766" gradientTransform="matrix(1 0 0 1 289.313 -690.0693)">
			<stop  offset="0" style="stop-color:#99DBF6"/>
			<stop  offset="1" style="stop-color:#00B2DE"/>
		</linearGradient>
		<path fill="url(#SVGID_6_)" d="M78.367,107.272c4.662,0,8.707-2.674,10.688-6.568l0.504,0.406
			c-2.105,4.037-6.332,6.797-11.191,6.797c-6.951,0-12.609-5.66-12.609-12.619c0-5.35,3.342-9.934,8.047-11.768l0.498,0.49
			c-4.607,1.669-7.912,6.094-7.912,11.275C66.391,101.896,71.766,107.272,78.367,107.272L78.367,107.272z"/>
		
			<linearGradient id="SVGID_7_" gradientUnits="userSpaceOnUse" x1="-202.7031" y1="762.668" x2="-202.7031" y2="792.0508" gradientTransform="matrix(1 0 0 1 289.313 -690.0693)">
			<stop  offset="0" style="stop-color:#99DBF6"/>
			<stop  offset="1" style="stop-color:#00B2DE"/>
		</linearGradient>
		<path fill="url(#SVGID_7_)" d="M88.66,75.703c0.705-0.835,1.328-1.671,2.035-2.458l4.916,4.83
			c-2.334,2.761-4.549,5.621-6.547,8.645c2.734,4.647,5.959,8.998,9.43,13.12c-2.418,0.702-4.82,1.438-7.238,2.141
			c-2.754-3.071-4.963-6.367-7.238-9.998c-0.791-1.263-1.51-2.419-2.297-3.614c-0.053,4.158,0,8.332-0.018,12.49
			c-2.33,0.28-4.645,0.596-6.977,0.877V73.107c2.332-0.159,4.646-0.333,6.977-0.509v4.634c0.018,2.667-0.035,5.312,0.018,7.979
			c1.488-2.192,2.928-4.298,4.592-6.49C87.102,77.669,87.838,76.722,88.66,75.703L88.66,75.703z"/>
	</g>
</g>
</svg>
