<?xml version="1.0" encoding="utf-8"?>
<!-- Generator: Adobe Illustrator 13.0.0, SVG Export Plug-In . SVG Version: 6.00 Build 14948)  -->
<!DOCTYPE svg PUBLIC "-//W3C//DTD SVG 1.1//EN" "http://www.w3.org/Graphics/SVG/1.1/DTD/svg11.dtd">
<svg version="1.1" id="Layer_1" xmlns="http://www.w3.org/2000/svg" xmlns:xlink="http://www.w3.org/1999/xlink" x="0px" y="0px"
	 width="128px" height="128px" viewBox="0 0 128 128" enable-background="new 0 0 128 128" xml:space="preserve">
<g>
	
		<linearGradient id="SVGID_1_" gradientUnits="userSpaceOnUse" x1="-358.5264" y1="823.6113" x2="-358.5264" y2="857.4004" gradientTransform="matrix(1 0 0 1 412.6201 -813.9912)">
		<stop  offset="0" style="stop-color:#EC008C"/>
		<stop  offset="1" style="stop-color:#C4008C"/>
	</linearGradient>
	<circle fill="url(#SVGID_1_)" cx="54.093" cy="26.515" r="16.894"/>
	<path fill="#FFFFFF" d="M54.178,13.206c8.19,0,14.863,6.425,15.295,14.507c0.014-0.275,0.041-0.548,0.041-0.828
		c0-8.471-6.867-15.336-15.336-15.336c-8.469,0-15.335,6.865-15.335,15.336c0,0.28,0.026,0.553,0.042,0.828
		C39.319,19.63,45.989,13.206,54.178,13.206z"/>
	
		<linearGradient id="SVGID_2_" gradientUnits="userSpaceOnUse" x1="-390.3726" y1="911.0664" x2="-390.3726" y2="935.6602" gradientTransform="matrix(1 0 0 1 412.6201 -813.9912)">
		<stop  offset="0" style="stop-color:#80E21B"/>
		<stop  offset="1" style="stop-color:#80B400"/>
	</linearGradient>
	<circle fill="url(#SVGID_2_)" cx="22.248" cy="109.371" r="12.297"/>
	
		<linearGradient id="SVGID_3_" gradientUnits="userSpaceOnUse" x1="-301.2705" y1="851.0117" x2="-301.2705" y2="867.9863" gradientTransform="matrix(1 0 0 1 412.6201 -813.9912)">
		<stop  offset="0" style="stop-color:#FFD207"/>
		<stop  offset="1" style="stop-color:#FAA61A"/>
	</linearGradient>
	<circle fill="url(#SVGID_3_)" cx="111.35" cy="45.508" r="8.487"/>
	
		<linearGradient id="SVGID_4_" gradientUnits="userSpaceOnUse" x1="-1.3979" y1="1798.6387" x2="-1.398" y2="1832.4268" gradientTransform="matrix(1.3932 -8.041304e-06 0 1.3932 81.2144 -2436.9497)">
		<stop  offset="0" style="stop-color:#99DBF6"/>
		<stop  offset="1" style="stop-color:#00B2DE"/>
	</linearGradient>
	<circle fill="url(#SVGID_4_)" cx="79.268" cy="92.451" r="23.537"/>
	
		<linearGradient id="SVGID_5_" gradientUnits="userSpaceOnUse" x1="-348.6235" y1="815.5771" x2="-348.6235" y2="940.4062" gradientTransform="matrix(1 0 0 1 412.6201 -813.9912)">
		<stop  offset="0" style="stop-color:#5F5D5C"/>
		<stop  offset="1" style="stop-color:#181500"/>
	</linearGradient>
	<path fill="url(#SVGID_5_)" d="M53.547,1.595C43.459,1.871,34.152,8.351,30.752,18.47c-4.351,12.95,2.625,26.992,15.576,31.342
		c1.5,0.504,3.017,0.869,4.526,1.078c0.771,0.062,1.517,0.217,2.279,0.475c3.069,1.029,5.291,3.465,6.206,6.33
		c0.943,2.15,1.122,4.632,0.315,7.028c-0.408,1.217-1.018,2.311-1.803,3.23c-0.06,0.068-0.131,0.123-0.19,0.189
		c-0.072,0.062-0.149,0.125-0.222,0.188c-5.398,4.908-9.119,11.619-10.195,19.188c-0.08,0.43-0.207,0.873-0.348,1.299
		c-1.693,5.123-7.226,7.896-12.349,6.205c-0.881-0.291-1.674-0.707-2.405-1.203h-0.031c-1.297-0.865-2.723-1.576-4.273-2.09
		c-9.322-3.082-19.396,1.979-22.479,11.303c-3.08,9.32,1.98,19.396,11.303,22.479c8.708,2.877,18.074-1.33,21.781-9.498
		c1.908-4.748,7.231-7.264,12.158-5.637c1.772,0.588,3.244,1.613,4.367,2.945c5.885,6.664,14.483,10.859,24.061,10.859
		c17.715,0,32.07-14.391,32.07-32.104c0-6.63-2.029-12.774-5.479-17.888c-1.039-1.813-1.516-3.944-1.203-6.174
		c0.209-1.494,0.736-2.873,1.521-4.053l1.996-2.689c1.432-1.731,3.424-2.953,5.666-3.387l0.029-0.033
		c4.992-1.022,9.039-5.115,9.783-10.447c0.941-6.768-3.771-13.018-10.543-13.961c-6.77-0.943-13.049,3.773-13.992,10.543
		c-0.191,1.388-0.156,2.779,0.096,4.084c0.111,0.852,0.125,1.703,0,2.596c-0.215,1.546-0.787,2.973-1.613,4.18l-1.932,2.627
		c-2.094,2.502-5.367,3.904-8.834,3.42c-0.166-0.023-0.344-0.064-0.508-0.097c-1.896-0.426-3.848-0.685-5.855-0.76
		c-0.127,0-0.252-0.024-0.379-0.031c-0.127-0.004-0.254,0.002-0.381,0c-0.762-0.063-1.523-0.221-2.279-0.476
		c-3.059-1.026-5.254-3.413-6.174-6.268c-0.953-2.154-1.156-4.652-0.35-7.06c0.354-1.06,0.906-2.044,1.553-2.882
		c2.393-2.528,4.266-5.604,5.443-9.118C82.02,21.251,75.044,7.21,62.093,2.861C59.263,1.912,56.373,1.519,53.547,1.595L53.547,1.595
		z M54.465,9.668c1.636,0.037,3.275,0.308,4.908,0.854c8.701,2.922,13.402,12.353,10.478,21.054
		C66.93,40.279,57.5,44.978,48.799,42.056c-8.702-2.923-13.401-12.353-10.479-21.054C40.695,13.933,47.379,9.511,54.465,9.668
		L54.465,9.668z M110.756,38.478c0.477-0.029,0.934-0.004,1.426,0.063c3.93,0.549,6.689,4.174,6.143,8.104
		c-0.549,3.931-4.176,6.658-8.104,6.109c-3.933-0.548-6.691-4.174-6.144-8.105C104.557,41.211,107.42,38.691,110.756,38.478
		L110.756,38.478z M79.033,69.408c12.525,0,22.668,10.145,22.668,22.668c0,12.525-10.143,22.701-22.668,22.701
		c-12.523,0-22.7-10.176-22.7-22.701C56.333,79.553,66.51,69.408,79.033,69.408L79.033,69.408z M21.826,97.68
		c0.369-0.016,0.73,0.012,1.107,0.033c6.037,0.346,10.668,5.518,10.321,11.555c-0.348,6.037-5.521,10.639-11.557,10.289
		c-6.037-0.348-10.669-5.518-10.32-11.555C11.705,102.342,16.281,97.924,21.826,97.68L21.826,97.68z"/>
	<path fill="#FFFFFF" d="M111.442,40.343c3.197,0,5.802,2.508,5.971,5.663c0.005-0.107,0.016-0.214,0.016-0.323
		c0-3.307-2.68-5.986-5.986-5.986c-3.306,0-5.986,2.68-5.986,5.986c0,0.109,0.011,0.216,0.017,0.323
		C105.642,42.851,108.245,40.343,111.442,40.343z"/>
	<path fill="#FFFFFF" d="M79.267,74.046c10.688,0,19.394,8.384,19.958,18.93c0.019-0.36,0.054-0.716,0.054-1.081
		c0-11.053-8.96-20.011-20.012-20.011c-11.05,0-20.01,8.958-20.01,20.011c0,0.365,0.034,0.721,0.056,1.081
		C59.876,82.43,68.582,74.046,79.267,74.046z"/>
	<path fill="#FFFFFF" d="M22.411,99.852c5.17,0,9.381,4.056,9.654,9.157c0.009-0.174,0.026-0.346,0.026-0.522
		c0-5.347-4.334-9.68-9.681-9.68c-5.345,0-9.679,4.333-9.679,9.68c0,0.177,0.017,0.349,0.026,0.522
		C13.032,103.907,17.243,99.852,22.411,99.852z"/>
</g>
</svg>
