<?xml version="1.0" encoding="utf-8"?>
<!-- Generator: Adobe Illustrator 13.0.0, SVG Export Plug-In . SVG Version: 6.00 Build 14948)  -->
<!DOCTYPE svg PUBLIC "-//W3C//DTD SVG 1.1//EN" "http://www.w3.org/Graphics/SVG/1.1/DTD/svg11.dtd">
<svg version="1.1" id="Layer_1" xmlns="http://www.w3.org/2000/svg" xmlns:xlink="http://www.w3.org/1999/xlink" x="0px" y="0px"
	 width="128px" height="128px" viewBox="0 0 128 128" enable-background="new 0 0 128 128" xml:space="preserve">
<g>
	<g>
		<path fill="#F2F2F2" stroke="#B3B3B3" stroke-width="2" d="M109.502,17.2H18.5c-9.342,0-16.914,7.572-16.914,16.91v67.379
			c0,9.342,7.572,16.914,16.914,16.914h91.002c9.34,0,16.912-7.572,16.912-16.914V34.11C126.414,24.772,118.842,17.2,109.502,17.2z"
			/>
		<linearGradient id="SVGID_1_" gradientUnits="userSpaceOnUse" x1="63.9351" y1="119.291" x2="63.9351" y2="52.7902">
			<stop  offset="0.0934" style="stop-color:#D1D1D1"/>
			<stop  offset="0.431" style="stop-color:#D9D9D9"/>
			<stop  offset="0.9519" style="stop-color:#EFEFEF"/>
			<stop  offset="0.9725" style="stop-color:#F0F0F0"/>
		</linearGradient>
		<path fill="url(#SVGID_1_)" d="M38.496,82.681c-12.658,0-24.773-1.07-35.959-3.022v22.107c0,9.188,7.447,16.638,16.637,16.638
			h89.521c9.188,0,16.637-7.449,16.637-16.638V60.254C107.314,73.715,75.166,82.681,38.496,82.681z"/>
		<path fill="#B3B3B3" d="M108.934,115.387l-89.744,0.001c-9.211,0-16.678-7.469-16.678-16.681v3.288
			c0,9.213,7.467,16.68,16.678,16.68h89.744c9.209,0,16.676-7.467,16.676-16.68v-3.288
			C125.609,107.919,118.143,115.387,108.934,115.387z"/>
		<linearGradient id="SVGID_2_" gradientUnits="userSpaceOnUse" x1="64.1587" y1="17.5566" x2="64.1587" y2="49.4532">
			<stop  offset="0" style="stop-color:#99DBF6"/>
			<stop  offset="1" style="stop-color:#00B2DE"/>
		</linearGradient>
		<path fill="url(#SVGID_2_)" d="M125.838,45.873V34.694c0-9.229-7.482-16.712-16.713-16.712h-89.93
			c-9.232,0-16.715,7.483-16.715,16.713v11.178H125.838z"/>
		<path opacity="0.5" fill="#FFFFFF" d="M109.102,17.982h-89.91c-9.23,0-16.711,7.481-16.711,16.707v4.94
			c0-9.227,7.48-16.708,16.711-16.708h89.91c9.227,0,16.709,7.481,16.709,16.708v-4.94
			C125.811,25.464,118.328,17.982,109.102,17.982z"/>
		<g>
			<g>
				<path fill="#C6C5C5" stroke="#FFFFFF" d="M86.006,61.021c0,0.896-0.729,1.621-1.625,1.621h-9.213
					c-0.896,0-1.623-0.727-1.623-1.621v-9.216c0-0.896,0.727-1.622,1.623-1.622h9.213c0.896,0,1.625,0.727,1.625,1.622V61.021z"/>
				<path fill="#969696" stroke="#FFFFFF" d="M101.781,61.021c0,0.896-0.727,1.621-1.623,1.621h-9.215
					c-0.896,0-1.623-0.725-1.623-1.621v-9.216c0-0.896,0.727-1.622,1.623-1.622h9.215c0.896,0,1.623,0.727,1.623,1.622V61.021
					L101.781,61.021z"/>
				<path fill="#969696" stroke="#FFFFFF" d="M117.557,61.021c0,0.896-0.727,1.621-1.623,1.621h-9.215
					c-0.896,0-1.623-0.725-1.623-1.621v-9.216c0-0.896,0.729-1.622,1.623-1.622h9.215c0.896,0,1.623,0.727,1.623,1.622V61.021
					L117.557,61.021z"/>
			</g>
			<g>
				<path fill="#C6C5C5" stroke="#FFFFFF" d="M38.68,76.526c0,0.895-0.729,1.621-1.623,1.621H27.84
					c-0.895,0-1.621-0.729-1.621-1.621v-9.215c0-0.899,0.727-1.624,1.621-1.624h9.217c0.895,0,1.623,0.725,1.623,1.624V76.526z"/>
				<path fill="#C6C5C5" stroke="#FFFFFF" d="M54.453,76.526c0,0.895-0.727,1.621-1.623,1.621h-9.215
					c-0.895,0-1.621-0.729-1.621-1.621v-9.215c0-0.899,0.727-1.624,1.621-1.624h9.215c0.896,0,1.623,0.725,1.623,1.624V76.526z"/>
				<path fill="#C6C5C5" stroke="#FFFFFF" d="M70.23,76.526c0,0.896-0.729,1.621-1.623,1.621h-9.217
					c-0.896,0-1.621-0.729-1.621-1.621v-9.215c0-0.899,0.727-1.624,1.621-1.624h9.217c0.895,0,1.623,0.725,1.623,1.624V76.526z"/>
				<path fill="#C6C5C5" stroke="#FFFFFF" d="M86.006,76.526c0,0.896-0.729,1.621-1.625,1.621h-9.213
					c-0.896,0-1.623-0.727-1.623-1.621v-9.215c0-0.899,0.727-1.624,1.623-1.624h9.213c0.896,0,1.625,0.725,1.625,1.624V76.526z"/>
				<path fill="#C6C5C5" stroke="#FFFFFF" d="M22.902,76.526c0,0.895-0.727,1.621-1.621,1.621h-9.215
					c-0.896,0-1.623-0.729-1.623-1.621V67.31c0-0.897,0.727-1.622,1.623-1.622h9.215c0.895,0,1.621,0.725,1.621,1.624V76.526z"/>
				<path fill="#969696" stroke="#FFFFFF" d="M101.781,76.526c0,0.896-0.727,1.621-1.623,1.621h-9.215
					c-0.896,0-1.623-0.727-1.623-1.621v-9.215c0-0.899,0.727-1.624,1.623-1.624h9.215c0.896,0,1.623,0.725,1.623,1.624V76.526
					L101.781,76.526z"/>
				<path fill="#969696" stroke="#FFFFFF" d="M117.557,76.526c0,0.896-0.727,1.621-1.623,1.621h-9.215
					c-0.896,0-1.623-0.727-1.623-1.621v-9.215c0-0.899,0.729-1.624,1.623-1.624h9.215c0.896,0,1.623,0.725,1.623,1.624V76.526
					L117.557,76.526z"/>
			</g>
			<g>
				<path fill="#C6C5C5" stroke="#FFFFFF" d="M38.68,92.028c0,0.896-0.729,1.623-1.623,1.623H27.84
					c-0.895,0-1.621-0.729-1.621-1.623v-9.215c0-0.896,0.727-1.623,1.621-1.623h9.217c0.895,0,1.623,0.728,1.623,1.623V92.028z"/>
				<path fill="#C6C5C5" stroke="#FFFFFF" d="M54.453,92.028c0,0.896-0.727,1.623-1.623,1.623h-9.215
					c-0.895,0-1.621-0.729-1.621-1.623v-9.215c0-0.896,0.727-1.623,1.621-1.623h9.215c0.896,0,1.623,0.728,1.623,1.623V92.028z"/>
				<path fill="#C6C5C5" stroke="#FFFFFF" d="M70.23,92.028c0,0.896-0.729,1.623-1.623,1.623h-9.217
					c-0.896,0-1.621-0.729-1.621-1.623v-9.215c0-0.896,0.727-1.623,1.621-1.623h9.217c0.895,0,1.623,0.728,1.623,1.623V92.028z"/>
				<path fill="#C6C5C5" stroke="#FFFFFF" d="M86.006,92.028c0,0.896-0.729,1.623-1.625,1.623h-9.213
					c-0.896,0-1.623-0.729-1.623-1.623v-9.215c0-0.896,0.727-1.623,1.623-1.623l9.213,0.002c0.896,0,1.625,0.726,1.625,1.621V92.028
					z"/>
				<path fill="#C6C5C5" stroke="#FFFFFF" d="M22.902,92.028c0,0.896-0.727,1.623-1.621,1.623h-9.215
					c-0.896,0-1.623-0.729-1.623-1.623v-9.215c0-0.896,0.727-1.623,1.623-1.623h9.215c0.895,0,1.621,0.728,1.621,1.623V92.028z"/>
				<path fill="#969696" stroke="#FFFFFF" d="M101.781,92.028c0,0.896-0.727,1.623-1.623,1.623h-9.215
					c-0.896,0-1.623-0.729-1.623-1.623v-9.215c0-0.896,0.727-1.621,1.623-1.621h9.215c0.896,0,1.623,0.726,1.623,1.621V92.028
					L101.781,92.028z"/>
				<path fill="#969696" stroke="#FFFFFF" d="M117.557,92.028c0,0.896-0.727,1.623-1.623,1.623h-9.215
					c-0.896,0-1.623-0.729-1.623-1.623v-9.215c0-0.896,0.729-1.621,1.623-1.621h9.215c0.896,0,1.623,0.726,1.623,1.621V92.028
					L117.557,92.028z"/>
			</g>
			<g>
				<path fill="#C6C5C5" stroke="#FFFFFF" d="M38.68,107.532c0,0.896-0.729,1.623-1.623,1.623H27.84
					c-0.895,0-1.621-0.728-1.621-1.623v-9.215c0-0.896,0.727-1.623,1.621-1.623h9.217c0.895,0,1.623,0.728,1.623,1.623V107.532z"/>
				<path fill="#C6C5C5" stroke="#FFFFFF" d="M54.453,107.532c0,0.896-0.727,1.623-1.623,1.623h-9.215
					c-0.895,0-1.621-0.728-1.621-1.623v-9.215c0-0.896,0.727-1.623,1.621-1.623h9.215c0.896,0,1.623,0.728,1.623,1.623V107.532z"/>
				<path fill="#C6C5C5" stroke="#FFFFFF" d="M70.23,107.532c0,0.896-0.729,1.623-1.623,1.623h-9.217
					c-0.896,0-1.621-0.728-1.621-1.623v-9.215c0-0.896,0.727-1.623,1.621-1.623l9.217,0.002c0.895,0,1.623,0.726,1.623,1.621
					V107.532z"/>
				<path fill="#C6C5C5" stroke="#FFFFFF" d="M86.006,107.532c0,0.896-0.729,1.623-1.625,1.623h-9.213
					c-0.896,0-1.623-0.728-1.623-1.623v-9.215c0-0.896,0.727-1.621,1.623-1.621h9.213c0.896,0,1.625,0.726,1.625,1.621V107.532z"/>
				<path fill="#C6C5C5" stroke="#FFFFFF" d="M22.902,107.532c0,0.896-0.727,1.623-1.621,1.623h-9.215
					c-0.896-0.002-1.623-0.728-1.623-1.623v-9.215c0-0.896,0.727-1.623,1.623-1.623h9.215c0.895,0,1.621,0.728,1.621,1.623V107.532z
					"/>
				<path fill="#969696" stroke="#FFFFFF" d="M101.781,107.532c0,0.896-0.727,1.623-1.623,1.623h-9.215
					c-0.896,0-1.623-0.728-1.623-1.623v-9.215c0-0.896,0.727-1.621,1.623-1.621h9.215c0.896,0,1.623,0.726,1.623,1.621V107.532
					L101.781,107.532z"/>
				<path fill="#969696" stroke="#FFFFFF" d="M117.557,107.532c0,0.896-0.727,1.623-1.623,1.623h-9.215
					c-0.896,0-1.623-0.728-1.623-1.623v-9.215c0-0.896,0.729-1.621,1.623-1.621h9.215c0.896,0,1.623,0.726,1.623,1.621V107.532
					L117.557,107.532z"/>
			</g>
		</g>
	</g>
	<g>
		<g>
			
				<linearGradient id="SVGID_3_" gradientUnits="userSpaceOnUse" x1="-357.582" y1="7026.1152" x2="-365.8783" y2="7020.3062" gradientTransform="matrix(0 1 -1 0 7048.2441 385.126)">
				<stop  offset="0" style="stop-color:#9A9A9A"/>
				<stop  offset="1" style="stop-color:#DEDEDE"/>
			</linearGradient>
			<path fill="url(#SVGID_3_)" d="M25.028,28.459c-2.795,0-5.059-2.269-5.059-5.063c0-2.797,2.264-5.063,5.059-5.063
				c2.802,0,5.066,2.267,5.066,5.063S27.83,28.459,25.028,28.459z"/>
			
				<linearGradient id="SVGID_4_" gradientUnits="userSpaceOnUse" x1="-360.3135" y1="7028.0928" x2="-374.2567" y2="7018.3296" gradientTransform="matrix(0 1 -1 0 7048.2441 385.126)">
				<stop  offset="0" style="stop-color:#181500"/>
				<stop  offset="1" style="stop-color:#5F5D5C"/>
			</linearGradient>
			<path fill="url(#SVGID_4_)" d="M25.035,27.453c-1.943,0-3.517-1.572-3.517-3.515V11.741c0-1.939,1.572-3.516,3.517-3.516l0,0
				c1.94,0,3.512,1.574,3.512,3.516v12.197C28.547,25.881,26.978,27.453,25.035,27.453L25.035,27.453z"/>
		</g>
		<g>
			
				<linearGradient id="SVGID_5_" gradientUnits="userSpaceOnUse" x1="-357.582" y1="6948.1836" x2="-365.8783" y2="6942.3745" gradientTransform="matrix(0 1 -1 0 7048.2441 385.126)">
				<stop  offset="0" style="stop-color:#9A9A9A"/>
				<stop  offset="1" style="stop-color:#DEDEDE"/>
			</linearGradient>
			<path fill="url(#SVGID_5_)" d="M102.961,28.459c-2.795,0-5.06-2.269-5.06-5.063c0-2.797,2.265-5.063,5.06-5.063
				c2.802,0,5.065,2.267,5.065,5.063S105.763,28.459,102.961,28.459z"/>
			
				<linearGradient id="SVGID_6_" gradientUnits="userSpaceOnUse" x1="-360.3149" y1="6950.1602" x2="-374.2589" y2="6940.3965" gradientTransform="matrix(0 1 -1 0 7048.2441 385.126)">
				<stop  offset="0" style="stop-color:#181500"/>
				<stop  offset="1" style="stop-color:#5F5D5C"/>
			</linearGradient>
			<path fill="url(#SVGID_6_)" d="M102.967,27.453c-1.942,0-3.516-1.572-3.516-3.515V11.741c0-1.939,1.571-3.516,3.516-3.516l0,0
				c1.941,0,3.513,1.574,3.513,3.516v12.197C106.478,25.881,104.908,27.453,102.967,27.453L102.967,27.453z"/>
		</g>
	</g>
</g>
</svg>
