<?xml version="1.0" encoding="utf-8"?>
<!-- Generator: Adobe Illustrator 13.0.0, SVG Export Plug-In . SVG Version: 6.00 Build 14948)  -->
<!DOCTYPE svg PUBLIC "-//W3C//DTD SVG 1.1//EN" "http://www.w3.org/Graphics/SVG/1.1/DTD/svg11.dtd">
<svg version="1.1" id="Layer_1" xmlns="http://www.w3.org/2000/svg" xmlns:xlink="http://www.w3.org/1999/xlink" x="0px" y="0px"
	 width="128px" height="128px" viewBox="0 0 128 128" enable-background="new 0 0 128 128" xml:space="preserve">
<g>
	
		<linearGradient id="SVGID_1_" gradientUnits="userSpaceOnUse" x1="-303.5269" y1="913.9355" x2="-389.0642" y2="854.0416" gradientTransform="matrix(1 0 0 1 412.6201 -813.9912)">
		<stop  offset="0" style="stop-color:#181500"/>
		<stop  offset="1" style="stop-color:#5F5D5C"/>
	</linearGradient>
	<path fill="url(#SVGID_1_)" d="M125.604,71.036c-7.891-5.533-14.225-12.625-18.556-20.648c-0.022-0.039-0.05-0.074-0.073-0.115
		c-2.008-7.645-5.557-15.33-11.121-22.836c-22.547-30.406-38.844-29.769-63.222,0c-6.595,8.051-10.53,16.397-12.528,24.726
		C15.809,59.56,9.784,66.111,2.395,71.294c-2.213,1.49-1.611,4.354,1.506,6.535c3.111,2.183,7.113,2.543,8.729,0.633
		c2.197-2.476,4.186-5.157,5.951-8.008c0.975,15.918,8.49,34.133,15.248,45.627c3.652,6.211,56.764,6.271,60.506,0.149
		c7.023-11.479,14.132-30.321,14.725-46.625c1.854,3.074,3.965,5.953,6.312,8.595c1.619,1.911,5.619,1.551,8.731-0.628
		C127.219,75.391,127.818,72.527,125.604,71.036"/>
	
		<linearGradient id="SVGID_2_" gradientUnits="userSpaceOnUse" x1="-1134.9463" y1="586.5674" x2="-1134.5808" y2="586.5674" gradientTransform="matrix(-7.000000e-06 -161.5566 161.5566 -7.000000e-06 -94700.0938 -183258.3125)">
		<stop  offset="0" style="stop-color:#DEDEDE"/>
		<stop  offset="1" style="stop-color:#FEFEFE"/>
	</linearGradient>
	<path fill="url(#SVGID_2_)" d="M90.682,54.033c-18.91-21.792-32.58-21.335-53.029,0c-20.448,21.332-10.488,45.587,0,61.234
		c5.02,7.489,48.248,7.36,53.029,0C100.777,99.729,109.592,75.825,90.682,54.033z"/>
	<g>
		<path fill="#F2F2F2" d="M56.925,85.919c17.849,0,33.662-5.461,43.543-13.869c-1.571-6.021-4.65-12.098-9.787-18.018
			c-18.91-21.791-32.58-21.334-53.029,0c-7.35,7.668-10.762,15.713-11.643,23.6c0.083,0.771,0.182,1.539,0.303,2.303
			C35.024,83.708,45.565,85.919,56.925,85.919z"/>
	</g>
	<path opacity="0.5" fill="#FFFFFF" d="M89.466,24.296h1.363c-18.589-23.562-32.771-23.105-52.771,0h1.491
		C58.284,3.42,72.001,3.029,89.466,24.296z"/>
	
		<linearGradient id="SVGID_3_" gradientUnits="userSpaceOnUse" x1="-1863.4346" y1="2219.7949" x2="-1847.8857" y2="2219.7949" gradientTransform="matrix(0.8849 0.4658 -0.4658 0.8849 2749.3027 -1068.2512)">
		<stop  offset="0" style="stop-color:#DEDEDE"/>
		<stop  offset="1" style="stop-color:#FEFEFE"/>
	</linearGradient>
	<path fill="url(#SVGID_3_)" d="M80.073,35.272c-2.475,4.699-7.559,6.889-11.359,4.887c-3.798-1.999-4.873-7.432-2.4-12.128
		c2.475-4.7,7.559-6.89,11.359-4.89C81.472,25.145,82.548,30.575,80.073,35.272z"/>
	
		<linearGradient id="SVGID_4_" gradientUnits="userSpaceOnUse" x1="1127.249" y1="374.6094" x2="1147.4902" y2="374.6094" gradientTransform="matrix(0.9321 -0.3623 0.3623 0.9321 -1139.3694 91.9203)">
		<stop  offset="0" style="stop-color:#DEDEDE"/>
		<stop  offset="1" style="stop-color:#FEFEFE"/>
	</linearGradient>
	<path fill="url(#SVGID_4_)" stroke="#231F20" stroke-width="0.5" d="M65.881,25.377c2.503,6.444,0.312,13.308-4.899,15.333
		c-5.211,2.024-11.463-1.556-13.968-8s-0.311-13.308,4.897-15.333C57.123,15.354,63.376,18.934,65.881,25.377z"/>
	
		<linearGradient id="SVGID_5_" gradientUnits="userSpaceOnUse" x1="-342.4902" y1="860.6963" x2="-356.2991" y2="851.0273" gradientTransform="matrix(1 0 0 1 412.6201 -813.9912)">
		<stop  offset="0" style="stop-color:#FBB318"/>
		<stop  offset="1" style="stop-color:#FFE600"/>
	</linearGradient>
	<path fill="url(#SVGID_5_)" d="M74.434,40.558c-0.705-0.652-5.131-4.557-10.273-4.475c-5.531,0.087-10.373,4.57-10.373,4.57
		l5.324,5.594l5.144,5.688l5.146-5.688L74.434,40.558z"/>
	<g opacity="0.5">
		<path fill="#FFFFFF" d="M62.056,44.188l-1.817-5.985c-1.593,0.521-2.655,1.099-2.655,1.099l3.282,5.793l2.984,5.591L62.056,44.188
			z"/>
		<polygon fill="#FFFFFF" points="63.955,50.883 63.978,50.925 64.148,50.812 		"/>
	</g>
	
		<linearGradient id="SVGID_6_" gradientUnits="userSpaceOnUse" x1="-357.0415" y1="939.2529" x2="-373.8701" y2="927.4694" gradientTransform="matrix(1 0 0 1 412.6201 -813.9912)">
		<stop  offset="0" style="stop-color:#FBB318"/>
		<stop  offset="1" style="stop-color:#FFE600"/>
	</linearGradient>
	<ellipse fill="url(#SVGID_6_)" cx="47.165" cy="119.37" rx="12.257" ry="3.76"/>
	
		<linearGradient id="SVGID_7_" gradientUnits="userSpaceOnUse" x1="-323.4233" y1="939.2529" x2="-340.252" y2="927.4695" gradientTransform="matrix(1 0 0 1 412.6201 -813.9912)">
		<stop  offset="0" style="stop-color:#FBB318"/>
		<stop  offset="1" style="stop-color:#FFE600"/>
	</linearGradient>
	<ellipse fill="url(#SVGID_7_)" cx="80.783" cy="119.37" rx="12.257" ry="3.76"/>
	
		<linearGradient id="SVGID_8_" gradientUnits="userSpaceOnUse" x1="-355.5928" y1="844.5166" x2="-348.8428" y2="844.5166" gradientTransform="matrix(1 0 0 1 412.6201 -813.9912)">
		<stop  offset="0" style="stop-color:#181500"/>
		<stop  offset="1" style="stop-color:#5F5D5C"/>
	</linearGradient>
	<circle fill="url(#SVGID_8_)" cx="60.401" cy="30.525" r="3.375"/>
	
		<linearGradient id="SVGID_9_" gradientUnits="userSpaceOnUse" x1="-343.2588" y1="845.2227" x2="-338.5527" y2="845.2227" gradientTransform="matrix(1 0 0 1 412.6201 -813.9912)">
		<stop  offset="0" style="stop-color:#181500"/>
		<stop  offset="1" style="stop-color:#5F5D5C"/>
	</linearGradient>
	<circle fill="url(#SVGID_9_)" cx="71.715" cy="31.23" r="2.354"/>
</g>
</svg>
