<?xml version="1.0" encoding="utf-8"?>
<!-- Generator: Adobe Illustrator 13.0.0, SVG Export Plug-In . SVG Version: 6.00 Build 14948)  -->
<!DOCTYPE svg PUBLIC "-//W3C//DTD SVG 1.1//EN" "http://www.w3.org/Graphics/SVG/1.1/DTD/svg11.dtd">
<svg version="1.1" id="Layer_1" xmlns="http://www.w3.org/2000/svg" xmlns:xlink="http://www.w3.org/1999/xlink" x="0px" y="0px"
	 width="128px" height="128px" viewBox="0 0 128 128" enable-background="new 0 0 128 128" xml:space="preserve">
<g>
	<linearGradient id="SVGID_1_" gradientUnits="userSpaceOnUse" x1="64.0005" y1="19.1729" x2="64.0005" y2="103.5298">
		<stop  offset="0.1235" style="stop-color:#809436"/>
		<stop  offset="0.9136" style="stop-color:#416B36"/>
	</linearGradient>
	<path fill="url(#SVGID_1_)" d="M126.49,87.461c0,8.875-7.193,16.068-16.068,16.068H17.578c-8.871,0-16.066-7.195-16.066-16.068
		v-52.22c0-8.874,7.195-16.068,16.066-16.068h92.844c8.875,0,16.068,7.196,16.068,16.068V87.461z"/>
	<path opacity="0.6" fill="#FFFFFF" d="M19.297,24.803l89.396-0.026c8.543-0.003,15.471,6.924,15.473,15.466l0.002,2.162
		c0,0.007,0,0.014,0,0.021l-0.002-4.992c-0.002-8.542-6.93-15.469-15.473-15.466l-89.396,0.026
		c-8.541,0.002-15.467,6.931-15.463,15.475v2.809C3.831,31.733,10.756,24.805,19.297,24.803z"/>
	<path opacity="0.6" fill="#415D36" d="M109.916,100.218l-91.817,0.026c-8.777,0.003-15.892-7.111-15.894-15.885l-0.001-2.221
		c0-0.007-0.001-0.014-0.001-0.022l0.002,5.128c0.002,8.773,7.116,15.888,15.894,15.885l91.817-0.027
		c8.773-0.002,15.887-7.117,15.883-15.894v-2.885C125.803,93.099,118.689,100.216,109.916,100.218z"/>
	<g>
		<path fill="#FFFFFF" d="M23.898,49.519c1.31,0.926,1.963,1.91,1.963,2.951l-1.317,8.215c0,3.192,0.66,6.364,1.979,9.521v0.66
			l-0.661,0.656h-0.327c-2.246,0-3.673-2.957-4.272-8.873v-1.966c0.583-7.442,1.241-11.166,1.979-11.166h0.658V49.519z"/>
		<path fill="#FFFFFF" d="M40.671,50.665h0.357c0.957,0.324,1.434,1.695,1.434,4.113v2.338h2.867c1.768,0,2.963,0.295,3.584,0.889
			v0.187c0,0.594-2.093,1.01-6.279,1.248v0.188c0,2.008,0.302,4.333,0.904,6.979c-0.19,0.842-0.494,1.264-0.904,1.264
			c-0.764,0-1.36-2.629-1.79-7.887l-0.358-0.356c-2.906,0.354-5.291,0.832-7.155,1.436c-0.88,0-1.361-0.539-1.447-1.619
			c0.248-0.717,0.493-1.076,0.731-1.076h0.172c5.257-0.496,7.886-0.975,7.886-1.434c0-1.311-0.24-3.039-0.718-5.189
			C39.955,51.261,40.192,50.903,40.671,50.665z"/>
		<path fill="#FFFFFF" d="M59.548,49.519c1.312,0.926,1.965,1.91,1.965,2.951l-1.318,8.215c0,3.192,0.659,6.364,1.979,9.521v0.66
			l-0.657,0.656h-0.332c-2.244,0-3.668-2.957-4.271-8.873v-1.966c0.583-7.442,1.243-11.166,1.979-11.166h0.655V49.519z"/>
		<path fill="#FFFFFF" d="M84.738,60.298l1.762,0.229h1.105l1.104,1.104c0,0.773-4.348,1.511-13.045,2.208L73.24,64.5
			c-0.926,0-1.443-0.736-1.545-2.21c0.141-0.889,0.361-1.332,0.656-1.332h1.104L84.738,60.298z"/>
		<path fill="#FFFFFF" d="M82.744,54.778h2.424c0.879,0,1.619,0.438,2.223,1.318v0.443c0,0.733-2.582,1.104-7.742,1.104
			l-4.197,1.104c-0.668-0.275-1.035-0.566-1.105-0.873v-0.443c0-1.328,0.734-1.992,2.207-1.992
			C78.434,54.999,80.5,54.778,82.744,54.778z"/>
		<path fill="#FFFFFF" d="M104.695,50.235c1.527,0,2.658,1.479,3.395,4.441v2.236c0,2.159-1.229,4.872-3.686,8.144v0.373h0.289
			c2.637,0.172,3.953,0.793,3.953,1.861v1.104c0,0.929-2.637,1.668-7.912,2.224c0,0.323-0.658,0.696-1.979,1.116
			c-1.072,0-1.729-1.354-1.979-4.069V66.92c4.824-4.251,7.648-8.085,8.473-11.497l-0.271-0.371h-0.572
			c-1.424,0-3.307,0.863-5.646,2.595h-0.287c-0.758-1.356-1.133-2.716-1.133-4.069C99.451,51.347,101.902,50.235,104.695,50.235z"/>
	</g>
	<g>
		<g>
			
				<linearGradient id="SVGID_2_" gradientUnits="userSpaceOnUse" x1="-147.8916" y1="-662.6445" x2="-131.4912" y2="-662.6445" gradientTransform="matrix(1 0 0 -1 238.3271 -563.8105)">
				<stop  offset="0" style="stop-color:#DEDEDE"/>
				<stop  offset="1" style="stop-color:#FEFEFE"/>
			</linearGradient>
			<path fill="url(#SVGID_2_)" d="M106.836,100.649c0,0.509-0.41,0.918-0.916,0.918H91.352c-0.506,0-0.916-0.409-0.916-0.918v-3.633
				c0-0.506,0.41-0.916,0.916-0.916h14.568c0.506,0,0.916,0.41,0.916,0.916V100.649z"/>
			<linearGradient id="SVGID_3_" gradientUnits="userSpaceOnUse" x1="89.2168" y1="95.0859" x2="108.0488" y2="95.0859">
				<stop  offset="0" style="stop-color:#FF9D00"/>
				<stop  offset="1" style="stop-color:#FF1F00"/>
			</linearGradient>
			<path fill="url(#SVGID_3_)" d="M108.049,95.088c0-1.344-1.088-2.432-2.43-2.432H91.65c-1.342,0-2.434,1.088-2.434,2.432l0,0
				c0,1.341,1.092,2.429,2.434,2.429h13.969C106.961,97.517,108.049,96.429,108.049,95.088L108.049,95.088z"/>
		</g>
		
			<linearGradient id="SVGID_4_" gradientUnits="userSpaceOnUse" x1="-174.3262" y1="-664.7495" x2="-174.3262" y2="-672.0103" gradientTransform="matrix(1 0 0 -1 238.3271 -563.8105)">
			<stop  offset="0" style="stop-color:#FF9D00"/>
			<stop  offset="1" style="stop-color:#FF1F00"/>
		</linearGradient>
		<path fill="url(#SVGID_4_)" d="M111.559,104.567c0-2.004-1.158-3.629-2.59-3.629H19.033c-1.432,0-2.59,1.625-2.59,3.629l0,0
			c0,2.007,1.158,3.632,2.59,3.632h89.936C110.4,108.199,111.559,106.574,111.559,104.567L111.559,104.567z"/>
	</g>
</g>
</svg>
