<?xml version="1.0" encoding="utf-8"?>
<!-- Generator: Adobe Illustrator 13.0.0, SVG Export Plug-In . SVG Version: 6.00 Build 14948)  -->
<!DOCTYPE svg PUBLIC "-//W3C//DTD SVG 1.1//EN" "http://www.w3.org/Graphics/SVG/1.1/DTD/svg11.dtd">
<svg version="1.1" id="Layer_1" xmlns="http://www.w3.org/2000/svg" xmlns:xlink="http://www.w3.org/1999/xlink" x="0px" y="0px"
	 width="128px" height="128px" viewBox="0 0 128 128" enable-background="new 0 0 128 128" xml:space="preserve">
<g>
	<g>
		<linearGradient id="SVGID_1_" gradientUnits="userSpaceOnUse" x1="79.1807" y1="112.9092" x2="54.5216" y2="95.6427">
			<stop  offset="0" style="stop-color:#181500"/>
			<stop  offset="1" style="stop-color:#5F5D5C"/>
		</linearGradient>
		<path fill="url(#SVGID_1_)" d="M67.771,85.184h-5.832c-1.148,15.471-3.318,28.266-10.49,28.043h26.811
			C71.083,113.449,68.91,100.654,67.771,85.184z"/>
		<linearGradient id="SVGID_2_" gradientUnits="userSpaceOnUse" x1="63.999" y1="112.6182" x2="63.999" y2="120.9146">
			<stop  offset="0" style="stop-color:#181500"/>
			<stop  offset="1" style="stop-color:#5F5D5C"/>
		</linearGradient>
		<path fill="url(#SVGID_2_)" d="M96.506,118.023c0,2.287-1.856,2.869-4.146,2.869H35.642c-2.293,0-4.149-0.578-4.149-2.869v0.176
			c0-2.291,1.856-4.146,4.149-4.146l18.038-1.277h22.242l16.438,1.277c2.289,0,4.146,1.855,4.146,4.146V118.023z"/>
	</g>
	<linearGradient id="SVGID_3_" gradientUnits="userSpaceOnUse" x1="122.1787" y1="92.6562" x2="7.7201" y2="12.5115">
		<stop  offset="0" style="stop-color:#181500"/>
		<stop  offset="1" style="stop-color:#5F5D5C"/>
	</linearGradient>
	<path fill="url(#SVGID_3_)" d="M125.841,77.758c0,8.783-7.118,15.902-15.902,15.902H18.058c-8.779,0-15.898-7.121-15.898-15.902
		V26.08c0-8.783,7.119-15.902,15.898-15.902h91.881c8.784,0,15.902,7.121,15.902,15.902V77.758z"/>
	<g>
		
			<linearGradient id="SVGID_4_" gradientUnits="userSpaceOnUse" x1="-299.3682" y1="900.4492" x2="-398.1472" y2="831.2834" gradientTransform="matrix(1 0 0 1 412.6201 -813.9912)">
			<stop  offset="0" style="stop-color:#00B2DE"/>
			<stop  offset="1" style="stop-color:#99DBF6"/>
		</linearGradient>
		<path fill="url(#SVGID_4_)" d="M119.088,73.984c0,7.508-6.352,13.596-14.197,13.596H22.837c-7.845,0-14.2-6.09-14.2-13.596V29.771
			c0-7.512,6.355-13.603,14.2-13.603h82.054c7.844,0,14.197,6.093,14.197,13.604V73.984L119.088,73.984z"/>
		<g>
			<g>
				<g>
					<defs>
						<path id="SVGID_5_" d="M119.088,73.984c0,7.508-6.352,13.596-14.197,13.596H22.837c-7.845,0-14.2-6.09-14.2-13.596V29.771
							c0-7.512,6.355-13.603,14.2-13.603h82.054c7.844,0,14.197,6.093,14.197,13.604V73.984L119.088,73.984z"/>
					</defs>
					<clipPath id="SVGID_6_">
						<use xlink:href="#SVGID_5_"  overflow="visible"/>
					</clipPath>
					<g clip-path="url(#SVGID_6_)">
						<circle fill="#F0C818" cx="70.898" cy="60.694" r="7.721"/>
						<path fill="#45731B" d="M52.65,81.253c0,0,20.223-30.104,51.587-30.104c4.78,0,17.25,3.021,17.25,16.873
							c0,20.005-14.29,20.207-14.29,20.207H52.65l-0.004-6.435L52.65,81.253z"/>
						
							<linearGradient id="SVGID_7_" gradientUnits="userSpaceOnUse" x1="-407.9424" y1="885.3984" x2="-327.4785" y2="885.3984" gradientTransform="matrix(1 0 0 1 412.6201 -813.9912)">
							<stop  offset="0" style="stop-color:#80C342"/>
							<stop  offset="1" style="stop-color:#A6CE39"/>
						</linearGradient>
						<path fill="url(#SVGID_7_)" d="M4.678,75.994c0,0,0.799-6.908,11.405-13.697c11.296-7.229,27.721-9.018,39.169-6.854
							c25.324,4.781,29.89,32.785,29.89,32.785H15.862L4.678,75.994z"/>
						<g>
							<path fill="#FFFFFF" d="M34.518,26.436c0,0,0.225-1.027-0.746-1.419s-1.77,0.632-1.77,0.632s1.146-2.336-1.238-2.906
								c-2.385-0.574-3.007,1.954-3.007,1.954s0.095-3.481-2.433-2.909c-1.869,0.424-3.398,1.683-3.492,2.964
								c-0.207-0.221-0.507-0.37-0.912-0.356c-0.889,0.03-1.176,0.636-1.176,0.636s-0.255-2.099-1.335-0.86
								c-1.081,1.242,0.254,1.877,0.254,1.877s-1.304,1.623,0.669,2.511c1.971,0.892,2.828-0.351,2.828-0.351
								c1.051,1.082,2.165,1.307,3.723,0.986c1.557-0.316,2.258-1.205,2.258-1.205c1.811,1.779,4.004-0.318,4.004-0.318
								c0.731,0.89,2.164-0.189,2.164-0.189c0.73,0.826,1.928,0.676,1.949-0.405C36.275,25.988,34.518,26.436,34.518,26.436z"/>
							<path fill="#E6E6E6" d="M36.096,27.597c0,0-1.244,0.163-1.597-0.706c0,0-1.545,1.14-1.925-0.055
								c-0.025,0.109-0.025,0.109-0.025,0.109s-3.686,1.434-4.363-0.301c0,0-3.522,3.254-5.416,0.326c0,0-2.82,2.465-4.5,0.379
								c-0.008-0.009-0.014-0.018-0.02-0.025c0.045,0.43,0.314,0.887,1.08,1.233c1.972,0.892,2.828-0.351,2.828-0.351
								c1.051,1.082,2.166,1.307,3.723,0.986c1.557-0.316,2.258-1.205,2.258-1.205c1.811,1.779,4.006-0.318,4.006-0.318
								c0.729,0.89,2.162-0.189,2.162-0.189c0.584,0.659,1.463,0.697,1.805,0.137L36.096,27.597z"/>
						</g>
						<g>
							<path fill="#FFFFFF" d="M57.213,38.727c0,0,0.119-0.541-0.393-0.748c-0.514-0.207-0.934,0.336-0.934,0.336
								s0.605-1.232-0.654-1.535c-1.258-0.303-1.584,1.031-1.584,1.031s0.051-1.836-1.281-1.533
								c-0.988,0.223-1.793,0.886-1.841,1.562c-0.109-0.116-0.267-0.195-0.481-0.186c-0.469,0.013-0.62,0.333-0.62,0.333
								s-0.134-1.106-0.702-0.453c-0.572,0.654,0.135,0.988,0.135,0.988s-0.689,0.857,0.352,1.326
								c1.038,0.469,1.491-0.185,1.491-0.185c0.552,0.57,1.14,0.688,1.96,0.519c0.824-0.165,1.192-0.633,1.192-0.633
								c0.954,0.936,2.112-0.17,2.112-0.17c0.385,0.469,1.139-0.102,1.139-0.102c0.386,0.436,1.02,0.359,1.029-0.213
								C58.141,38.492,57.213,38.727,57.213,38.727z"/>
							<path fill="#E6E6E6" d="M58.049,39.34c0,0-0.658,0.087-0.844-0.372c0,0-0.816,0.601-1.014-0.028
								c-0.015,0.059-0.015,0.059-0.015,0.059s-1.944,0.756-2.3-0.156c0,0-1.856,1.713-2.858,0.17c0,0-1.483,1.301-2.37,0.199
								c-0.004-0.004-0.008-0.008-0.012-0.012c0.023,0.228,0.166,0.466,0.57,0.648c1.039,0.471,1.491-0.184,1.491-0.184
								c0.552,0.57,1.14,0.688,1.96,0.52c0.824-0.165,1.193-0.635,1.193-0.635c0.955,0.937,2.111-0.168,2.111-0.168
								c0.387,0.467,1.141-0.102,1.141-0.102c0.307,0.348,0.771,0.367,0.951,0.072L58.049,39.34z"/>
						</g>
					</g>
				</g>
			</g>
		</g>
	</g>
	<g opacity="0.79">
		<path fill="#808080" d="M91.21,114.314l-15.767-1.225H54.109l-17.302,1.225c-2.17,0-2.882,1.023-3.949,3.053
			c0.006,0.279,2.064-1.473,3.949-1.473l17.302-1.227h21.334l15.767,1.227c1.884,0,3.92,1.594,3.926,1.312
			C94.068,115.125,93.379,114.314,91.21,114.314z"/>
		<linearGradient id="SVGID_8_" gradientUnits="userSpaceOnUse" x1="32.8325" y1="118.1201" x2="32.8325" y2="118.2918">
			<stop  offset="0" style="stop-color:#FFFFFF"/>
			<stop  offset="1" style="stop-color:#000000"/>
		</linearGradient>
		<path fill="url(#SVGID_8_)" d="M32.828,118.291c0-0.031,0.009-0.057,0.009-0.086s-0.009-0.053-0.009-0.082V118.291z"/>
		<linearGradient id="SVGID_9_" gradientUnits="userSpaceOnUse" x1="95.1836" y1="118.1201" x2="95.1836" y2="118.2918">
			<stop  offset="0" style="stop-color:#FFFFFF"/>
			<stop  offset="1" style="stop-color:#000000"/>
		</linearGradient>
		<path fill="url(#SVGID_9_)" d="M95.179,118.205c0.002,0.029,0.01,0.055,0.01,0.086v-0.168
			C95.188,118.152,95.181,118.176,95.179,118.205z"/>
	</g>
	<path fill="#999999" d="M8.214,17.838c2.672-2.885,7.912-5.529,12.508-5.529l86.958,0.115c4.597,0,9.14,2.529,11.811,5.414h0.991
		c-2.629-3.82-7.479-6.395-13.044-6.395H20.001c-5.565,0-10.415,2.574-13.044,6.395H8.214z"/>
	<path d="M119.225,86.193c-2.672,2.889-7.912,5.531-12.507,5.531l-86.959-0.115c-4.598,0-9.139-2.527-11.811-5.416H6.957
		c2.629,3.822,7.479,6.395,13.044,6.395h87.437c5.565,0,10.415-2.572,13.044-6.395H119.225z"/>
	<path opacity="0.5" fill="#FFFFFF" d="M104.876,16.207H22.809c-7.844,0-14.201,6.092-14.201,13.605v32.855
		c11.184,3.045,23.731,4.754,36.99,4.754c31.368,0,58.749-9.564,73.479-23.785V29.812C119.077,22.299,112.721,16.207,104.876,16.207
		z"/>
</g>
</svg>
