<?xml version="1.0" encoding="utf-8"?>
<!-- Generator: Adobe Illustrator 13.0.0, SVG Export Plug-In . SVG Version: 6.00 Build 14948)  -->
<!DOCTYPE svg PUBLIC "-//W3C//DTD SVG 1.1//EN" "http://www.w3.org/Graphics/SVG/1.1/DTD/svg11.dtd">
<svg version="1.1" id="Layer_1" xmlns="http://www.w3.org/2000/svg" xmlns:xlink="http://www.w3.org/1999/xlink" x="0px" y="0px"
	 width="128px" height="128px" viewBox="0 0 128 128" enable-background="new 0 0 128 128" xml:space="preserve">
<g>
	<linearGradient id="SVGID_1_" gradientUnits="userSpaceOnUse" x1="64.0093" y1="8.1006" x2="64.0093" y2="119.8999">
		<stop  offset="0" style="stop-color:#D5D7D8"/>
		<stop  offset="1" style="stop-color:#5C5F61"/>
	</linearGradient>
	<path fill="url(#SVGID_1_)" d="M112.355,102.778c0,9.455-7.67,17.121-17.122,17.121H32.785c-9.455,0-17.121-7.666-17.121-17.121
		V25.224c0-9.457,7.666-17.123,17.121-17.123h62.448c9.452,0,17.122,7.666,17.122,17.123V102.778z"/>
	<path opacity="0.26" fill="#CCCCCC" d="M93.818,11.464H34.197c-9.025,0-16.348,7.32-16.348,16.348v0.623h1.334
		c2.506-5.812,8.283-9.885,15.014-9.885h59.621c6.733,0,12.51,4.072,15.017,9.885h1.333v-0.623
		C110.168,18.784,102.85,11.464,93.818,11.464z"/>
	<path opacity="0.25" fill="#666666" d="M47.688,75.433c-11.429,0-22.261-1.33-32.024-3.705v31.051
		c0,9.455,7.666,17.121,17.121,17.121h62.448c9.452,0,17.122-7.666,17.122-17.121V56.821C98.492,68.032,74.71,75.433,47.688,75.433z
		"/>
	<path fill="#666666" d="M32.787,119.899h62.446c9.456,0,17.122-7.666,17.122-17.121v-4.635c0,9.457-7.666,17.125-17.122,17.125
		H32.787c-9.457,0-17.121-7.668-17.121-17.125v4.635C15.666,112.233,23.33,119.899,32.787,119.899z"/>
	<path fill="#595959" d="M32.665,119.308h62c9.39,0,17-7.611,17-17v-4.602c0,9.389-7.61,17-17,17h-62c-9.389,0-17-7.611-17-17v4.602
		C15.665,111.696,23.276,119.308,32.665,119.308z"/>
	<g>
		<path fill="#FFFFFF" d="M58.183,81.837c-8.51,2.249-15.592,6.321-22.516,11.728"/>
		<path fill="#FFFFFF" d="M58.382,84.67c-6.26,0.611-12.574,7.771-16.449,12.453"/>
		<path fill="#FFFFFF" d="M58.978,87.514c-6.059,1.684-11.043,9.826-14.055,15.104"/>
		<path fill="#FFFFFF" d="M69.839,81.837c8.508,2.249,15.592,6.321,22.514,11.728"/>
		<path fill="#FFFFFF" d="M69.64,84.67c6.256,0.611,12.574,7.771,16.449,12.453"/>
		<path fill="#FFFFFF" d="M69.044,87.514c6.057,1.684,11.045,9.826,14.055,15.104"/>
		<path fill="#FFFFFF" d="M83.155,61.357l-10.93-0.308c-1.291-0.033-2.717-0.075-3.164-0.088c-0.457-0.014-0.797,0.638-0.762,1.445
			c0.031,0.804,0.109,2.521,0.164,3.812l1.121,4.498c0.055,1.289,0.104,2.386,0.111,2.438c0,0.052,0.502,0.057,1.115,0.015
			c0.615-0.046,1.014-1.137,0.896-2.422l-1.373-4.789c-0.117-1.285,0.832-2.488,2.109-2.669l1.076-0.155
			c0.078,0.75,0.705,1.336,1.473,1.336c0.824,0,1.492-0.669,1.492-1.493c0-0.09-0.01-0.178-0.025-0.264l6.717-0.959
			C84.456,61.574,84.448,61.395,83.155,61.357z M58.968,60.962c-0.453,0.013-1.881,0.055-3.172,0.088l-10.93,0.308
			c-1.293,0.037-1.305,0.217-0.023,0.398l6.719,0.96c-0.016,0.087-0.027,0.174-0.027,0.263c0,0.824,0.668,1.492,1.488,1.492
			c0.771,0,1.395-0.586,1.475-1.335l1.08,0.155c1.275,0.182,2.225,1.384,2.107,2.67l-1.371,4.789
			c-0.117,1.285,0.285,2.376,0.896,2.422c0.613,0.042,1.115,0.036,1.121-0.016c0-0.052,0.051-1.149,0.104-2.438l1.123-4.498
			c0.059-1.289,0.129-3.008,0.166-3.812C59.759,61.6,59.417,60.948,58.968,60.962z M100.851,42.805
			c-0.35-1.047-1.453-2.929-2.445-4.178c-0.994-1.256-2.611-2.738-3.596-3.297c-0.982-0.563-5.479,0.67-7.756,1.708l-1.66,0.758
			c-2.275,1.039-4.164,1.907-4.201,1.924c-0.039,0.02-0.309,0-0.516-0.082c-0.205-0.091-2.736-0.716-5.176-1.284l-4.363-1.019
			c-2.434-0.569-5.244-1.111-6.238-1.207c-1-0.094-5.258,0.619-7.695,1.177l-4.672,1.074c-2.438,0.559-4.604,1.064-4.807,1.129
			c-0.207,0.061-0.783,0.271-0.818,0.25c-0.039-0.021-2.006-0.923-4.281-1.961l-1.66-0.758c-2.273-1.039-5.078-1.961-6.234-2.046
			c-1.16-0.086-4.117,2.38-5.113,3.636c-0.994,1.248-2.098,3.131-2.449,4.178c-0.355,1.047,1.562,5.176,2.959,7.246l2.867,4.249
			c1.396,2.071,2.166,4.468,1.707,5.322c-0.459,0.857-1.084,2.382-1.395,3.387c-0.307,1.008,0.047,5.423,0.467,7.892l0.891,5.264
			c0.422,2.467,1.209,5.309,1.748,6.315c0.541,1.013,4.83,2.793,7.258,3.396l1.088,0.271c0.18,0.043,0.369,0.11,0.557,0.172
			c-3.586,1.936-6.957,4.258-9.936,6.909c-0.438,0.39,0.109,0.985,0.576,0.676c3.746-2.49,7.354-4.812,11.123-6.832
			c0.732,0.379,1.453,0.833,2.135,1.335c-3.086,2.464-5.74,5.64-7.592,8.502c-0.229,0.35,0.232,0.815,0.559,0.507
			c2.768-2.613,5.242-5.674,8.129-8.126c0.598,0.532,1.127,1.09,1.521,1.639l0.229,0.316c-3.332,3.194-5.955,7.55-7.494,11.245
			c-0.17,0.411,0.418,0.686,0.668,0.349c2.592-3.435,4.689-7.406,7.592-10.536l0.969,1.339c1.461,2.033,3.367,4.257,4.24,4.949
			c0.863,0.692,4.533,1.261,5.977,1.261c1.447,0,3.504-0.243,4.576-0.543c1.068-0.299,4.178-3.637,5.645-5.668l0.971-1.344
			c2.912,3.137,5.014,7.13,7.605,10.569c0.271,0.359,0.799-0.025,0.635-0.409c-1.527-3.678-4.146-8.035-7.471-11.227l0.189-0.262
			c0.406-0.56,0.953-1.13,1.566-1.676c2.867,2.442,5.334,5.486,8.072,8.078c0.361,0.342,0.85-0.08,0.584-0.493
			c-1.84-2.839-4.494-5.998-7.572-8.458c0.682-0.5,1.408-0.954,2.135-1.335c3.785,2.028,7.41,4.355,11.152,6.842
			c0.49,0.324,0.928-0.355,0.51-0.729c-2.951-2.624-6.307-4.938-9.873-6.869c0.164-0.052,0.332-0.114,0.494-0.155l1.133-0.284
			c2.428-0.61,5.197-1.614,6.162-2.229c0.963-0.62,2.416-5.033,2.83-7.498l0.895-5.263c0.416-2.469,0.734-5.347,0.707-6.401
			c-0.027-1.049-1.178-4.021-1.639-4.877c-0.455-0.854,0.314-3.251,1.711-5.322l2.863-4.248
			C99.29,47.98,101.204,43.852,100.851,42.805z M32.835,47.624c-1.244-1.845-2.312-3.49-2.377-3.657c0,0,0,0,0-0.193
			c0-0.237,0-0.237,0-0.237c0.096-0.22,0.988-1.422,1.98-2.673c0.996-1.25,1.969-2.352,2.164-2.445
			c0.193-0.094,2.596,0.854,4.869,1.892l0.355,0.167c2.273,1.038,4.102,1.942,4.061,2.006c-0.039,0.065-1.1,2.039-2.283,4.248
			l-2,3.736C38.423,52.673,34.079,49.47,32.835,47.624z M67.956,95.736c-0.379,0.285-2.498,0.514-3.945,0.514
			c-1.443,0-2.998-0.118-3.447-0.258c-0.195-0.062-0.643-0.492-1.193-1.104l3.025-2.766c0.889-0.812,1.615-1.479,1.615-1.479
			s0.725,0.666,1.615,1.478l3.078,2.814C68.36,95.344,68.093,95.635,67.956,95.736z M90.692,70.299L89.8,75.564
			c-0.418,2.466-0.908,4.736-1.098,5.043c-0.182,0.311-2.289,1.055-4.096,1.51c-1.812,0.452-3.229,0.526-3.16,0.166
			c0.068-0.363-0.98-2.901-2.33-4.869c-1.354-1.967-2.461-3.521-2.457-3.453c0.002,0.069,0.309,1.686,0.656,3.436
			c0.346,1.752,0.596,3.619,0.559,4.159c-0.037,0.533-0.65,1.77-0.848,2.05c-0.006,0.008-0.016,0.022-0.021,0.031
			c-2.297-0.928-4.639-1.7-6.986-2.291c-0.645-0.159-1.018,0.786-0.365,0.984c2.287,0.69,4.447,1.519,6.535,2.438
			c-0.281,0.385-0.6,0.827-0.932,1.285c-1.799-0.966-3.674-1.63-5.58-1.81c-0.559-0.05-0.607,0.745-0.08,0.853
			c1.84,0.356,3.473,1.037,4.971,1.92c-0.406,0.56-0.893,1.236-1.414,1.956c-1.256-0.834-2.58-1.484-3.965-1.856
			c-0.521-0.138-0.818,0.604-0.293,0.801c1.344,0.503,2.527,1.176,3.607,1.962c-0.516,0.714-1.031,1.429-1.486,2.062
			c-0.285,0.392-0.568,0.773-0.848,1.146c-0.053-0.042-0.102-0.082-0.154-0.119l-3.311-2.257c-0.992-0.682-1.805-1.256-1.801-1.284
			c0.002-0.025,0.008-1.081,0.008-2.288v-3.365c0.023-0.045,0.053-0.076,0.076-0.126l5.379-6.113
			c0.531-1.074-0.01-1.955-1.211-1.955H58.862c-1.205,0-1.75,0.885-1.209,1.955l5.375,6.113c0.025,0.048,0.055,0.084,0.08,0.13
			v3.361c0,1.207,0.002,2.216,0.002,2.241c0.004,0.026-0.801,0.651-1.797,1.331l-3.311,2.257c-0.049,0.033-0.096,0.074-0.143,0.108
			c-0.307-0.39-0.605-0.789-0.885-1.175c-0.447-0.619-0.951-1.316-1.457-2.017c1.084-0.796,2.285-1.474,3.639-1.983
			c0.449-0.168,0.207-0.928-0.256-0.803c-1.41,0.378-2.758,1.039-4.035,1.886c-0.52-0.718-1.008-1.396-1.416-1.96
			c1.504-0.887,3.146-1.566,5.002-1.932c0.547-0.105,0.391-0.893-0.146-0.839c-1.902,0.18-3.77,0.836-5.557,1.797
			c-0.33-0.46-0.65-0.902-0.93-1.288c2.061-0.904,4.191-1.718,6.451-2.401c0.631-0.191,0.484-1.199-0.182-1.032
			c-2.383,0.597-4.752,1.377-7.076,2.314c-0.014-0.017-0.031-0.043-0.043-0.057c-0.191-0.263-0.498-0.891-0.688-1.388
			c-0.189-0.503,0.074-3.042,0.418-4.796c0.346-1.75,0.635-3.241,0.645-3.313c0.01-0.067-1.09,1.363-2.441,3.33
			c-1.355,1.968-2.441,3.868-2.416,4.222c0.021,0.35-1.273,0.913-3.08,0.463c-1.803-0.446-3.52-0.983-3.816-1.192
			c-0.289-0.205-0.957-2.876-1.375-5.341l-0.891-5.267c-0.418-2.468-0.74-4.984-0.711-5.596c0.025-0.613,0.697-2.33,1.029-2.946
			c0.326-0.615,1.564-2.926,2.746-5.131l4.387-8.196c1.18-2.205,2.443-4.316,2.807-4.69c0.361-0.377,1.357-0.84,1.404-0.855
			c0.047-0.008,2.08-0.475,4.516-1.032l4.504-1.032c2.438-0.564,5.004-1.066,5.705-1.123c0.703-0.057,4.17,0.574,6.605,1.145
			l4.199,0.98c2.438,0.569,4.465,1.046,4.514,1.057c0.043,0.009,0.455,0.227,0.912,0.479c0.455,0.254,2.119,2.867,3.297,5.073
			l4.391,8.196c1.178,2.204,2.414,4.516,2.744,5.13c0.33,0.617,1.002,2.333,1.029,2.946C91.435,65.312,91.11,67.832,90.692,70.299z
			 M97.567,43.773c0,0.193,0,0.193,0,0.193c-0.068,0.167-1.139,1.812-2.383,3.657c-1.242,1.846-5.584,5.049-6.766,2.843
			l-2.002-3.736c-1.182-2.21-2.178-4.065-2.211-4.131c-0.041-0.067,1.717-1.085,3.99-2.124l0.354-0.167
			c2.277-1.037,4.348-1.892,4.607-1.898c0.258-0.006,1.434,1.202,2.426,2.452c0.988,1.252,1.887,2.453,1.984,2.674
			C97.567,43.536,97.567,43.536,97.567,43.773z M56.335,48.002c0.637,0.202,1.473-0.666,1.877-1.928
			c0.402-1.266,0.215-2.457-0.42-2.657c-0.631-0.201-1.471,0.663-1.871,1.928C55.515,46.609,55.702,47.801,56.335,48.002z
			 M53.78,54.43c0.775,0,1.402-0.537,1.402-1.205c0-0.665-0.627-1.201-1.402-1.201s-1.404,0.536-1.404,1.201
			C52.376,53.893,53.005,54.43,53.78,54.43z M87.458,75.287c-0.992-0.494-2.195-0.091-2.689,0.898
			c-0.494,0.991-0.094,2.193,0.898,2.688c0.988,0.498,2.193,0.096,2.688-0.896C88.851,76.984,88.448,75.781,87.458,75.287z
			 M86.054,73.627c0.66,0.104,1.355-0.877,1.561-2.189c0.207-1.315-0.158-2.466-0.816-2.565c-0.656-0.102-1.357,0.88-1.561,2.193
			C85.03,72.376,85.396,73.525,86.054,73.627z M49.919,49.838c1.324,0,2.402-1.348,2.402-3.009c0-1.663-1.078-3.009-2.402-3.009
			c-1.33,0-2.41,1.346-2.41,3.009C47.509,48.49,48.589,49.838,49.919,49.838z M83.341,73.664c-0.693-0.346-1.5-0.144-1.793,0.451
			c-0.299,0.592,0.023,1.355,0.719,1.699c0.691,0.35,1.498,0.148,1.791-0.446C84.358,74.772,84.034,74.01,83.341,73.664z
			 M47.075,54.611c1.105,0,2.002-0.9,2.002-2.007c0-1.107-0.896-2.005-2.002-2.005c-1.109,0-2.006,0.896-2.006,2.005
			C45.069,53.711,45.966,54.611,47.075,54.611z"/>
	</g>
</g>
</svg>
