<?xml version="1.0" encoding="utf-8"?>
<!-- Generator: Adobe Illustrator 13.0.0, SVG Export Plug-In . SVG Version: 6.00 Build 14948)  -->
<!DOCTYPE svg PUBLIC "-//W3C//DTD SVG 1.1//EN" "http://www.w3.org/Graphics/SVG/1.1/DTD/svg11.dtd">
<svg version="1.1" id="Layer_1" xmlns="http://www.w3.org/2000/svg" xmlns:xlink="http://www.w3.org/1999/xlink" x="0px" y="0px"
	 width="128px" height="128px" viewBox="0 0 128 128" enable-background="new 0 0 128 128" xml:space="preserve">
<g>
	<g>
		<g>
			<linearGradient id="SVGID_1_" gradientUnits="userSpaceOnUse" x1="79.1797" y1="111.373" x2="54.5223" y2="94.1077">
				<stop  offset="0" style="stop-color:#D5D7D8"/>
				<stop  offset="1" style="stop-color:#5C5F61"/>
			</linearGradient>
			<path fill="url(#SVGID_1_)" d="M67.771,83.649h-5.832c-1.149,15.469-3.318,28.266-10.49,28.041h26.81
				C71.083,111.915,68.91,99.12,67.771,83.649z"/>
			<linearGradient id="SVGID_2_" gradientUnits="userSpaceOnUse" x1="63.999" y1="111.084" x2="63.999" y2="119.3784">
				<stop  offset="0" style="stop-color:#D5D7D8"/>
				<stop  offset="1" style="stop-color:#5C5F61"/>
			</linearGradient>
			<path fill="url(#SVGID_2_)" d="M96.506,116.487c0,2.289-1.856,2.869-4.146,2.869H35.642c-2.293,0-4.149-0.576-4.149-2.869v0.176
				c0-2.289,1.856-4.146,4.149-4.146l18.038-1.275h22.242l16.438,1.275c2.289,0,4.146,1.857,4.146,4.146V116.487z"/>
		</g>
		<g opacity="0.79">
			<path fill="#808080" d="M91.21,112.778l-15.767-1.223H54.109l-17.302,1.223c-2.17,0-2.882,1.023-3.949,3.055
				c0.006,0.277,2.063-1.475,3.949-1.475l17.302-1.225h21.334l15.767,1.225c1.884,0,3.92,1.594,3.926,1.314
				C94.068,113.591,93.379,112.778,91.21,112.778z"/>
			<linearGradient id="SVGID_3_" gradientUnits="userSpaceOnUse" x1="32.8325" y1="116.584" x2="32.8325" y2="116.7557">
				<stop  offset="0" style="stop-color:#FFFFFF"/>
				<stop  offset="1" style="stop-color:#000000"/>
			</linearGradient>
			<path fill="url(#SVGID_3_)" d="M32.828,116.755c0-0.031,0.009-0.057,0.009-0.084c0-0.029-0.009-0.053-0.009-0.084V116.755z"/>
			<linearGradient id="SVGID_4_" gradientUnits="userSpaceOnUse" x1="95.1836" y1="116.584" x2="95.1836" y2="116.7557">
				<stop  offset="0" style="stop-color:#FFFFFF"/>
				<stop  offset="1" style="stop-color:#000000"/>
			</linearGradient>
			<path fill="url(#SVGID_4_)" d="M95.179,116.671c0.002,0.027,0.01,0.053,0.01,0.084v-0.168
				C95.188,116.618,95.181,116.64,95.179,116.671z"/>
		</g>
		<linearGradient id="SVGID_5_" gradientUnits="userSpaceOnUse" x1="63.9995" y1="7.0142" x2="63.9995" y2="92.338">
			<stop  offset="0" style="stop-color:#D5D7D8"/>
			<stop  offset="1" style="stop-color:#5C5F61"/>
		</linearGradient>
		<path fill="url(#SVGID_5_)" stroke="#666666" stroke-miterlimit="3.8637" d="M125.841,76.224c0,8.783-7.118,15.9-15.902,15.9
			H18.058c-8.779,0-15.898-7.119-15.898-15.9V24.544c0-8.782,7.119-15.901,15.898-15.901h91.881c8.784,0,15.902,7.121,15.902,15.901
			V76.224z"/>
		<path fill="#999999" d="M8.214,16.303c2.672-2.887,7.911-5.529,12.508-5.529l86.958,0.115c4.596,0,9.14,2.527,11.811,5.414h0.991
			c-2.629-3.822-7.479-6.395-13.044-6.395H20.001c-5.565,0-10.415,2.572-13.044,6.395H8.214z"/>
		<path fill="#4D4D4D" d="M119.225,84.657c-2.672,2.889-7.912,5.533-12.507,5.533l-86.96-0.117c-4.597,0-9.138-2.527-11.81-5.416
			H6.957c2.629,3.822,7.479,6.396,13.044,6.396h87.437c5.565,0,10.415-2.574,13.044-6.396H119.225z"/>
		<path d="M119.077,72.495c0,7.51-6.356,13.604-14.201,13.604H22.809c-7.844,0-14.201-6.094-14.201-13.604V28.278
			c0-7.515,6.357-13.605,14.201-13.605h82.067c7.845,0,14.201,6.091,14.201,13.605V72.495z"/>
		<path fill="#333333" d="M104.876,14.672H22.809c-7.844,0-14.201,6.091-14.201,13.605v32.854c11.184,3.045,23.73,4.754,36.99,4.754
			c31.368,0,58.749-9.564,73.479-23.785V28.278C119.077,20.763,112.721,14.672,104.876,14.672z"/>
	</g>
	<g>
		<path fill="#FFFFFF" d="M59.562,60.678c-6.482,1.712-11.877,4.816-17.15,8.932"/>
		<path fill="#FFFFFF" d="M59.714,62.835c-4.769,0.466-9.578,5.919-12.531,9.486"/>
		<path fill="#FFFFFF" d="M60.167,65.002c-4.615,1.282-8.412,7.483-10.705,11.505"/>
		<path fill="#FFFFFF" d="M68.44,60.678c6.48,1.712,11.877,4.816,17.15,8.932"/>
		<path fill="#FFFFFF" d="M68.288,62.835c4.766,0.466,9.578,5.919,12.531,9.486"/>
		<path fill="#FFFFFF" d="M67.835,65.002c4.613,1.282,8.413,7.483,10.705,11.505"/>
		<path fill="#FFFFFF" d="M78.584,45.078l-8.325-0.234c-0.983-0.025-2.069-0.057-2.41-0.066c-0.348-0.012-0.607,0.485-0.58,1.1
			c0.023,0.613,0.083,1.922,0.125,2.904l0.854,3.427c0.041,0.981,0.079,1.817,0.084,1.857c0,0.038,0.383,0.043,0.85,0.011
			c0.469-0.034,0.772-0.865,0.684-1.845l-1.046-3.648c-0.09-0.979,0.634-1.896,1.606-2.032l0.82-0.119
			c0.059,0.572,0.537,1.019,1.122,1.019c0.628,0,1.136-0.511,1.136-1.138c0-0.068-0.008-0.135-0.02-0.201l5.117-0.73
			C79.575,45.244,79.569,45.107,78.584,45.078z M60.159,44.777c-0.344,0.01-1.433,0.041-2.416,0.066l-8.325,0.234
			c-0.985,0.029-0.994,0.166-0.019,0.303l5.119,0.732c-0.012,0.066-0.021,0.133-0.021,0.2c0,0.628,0.509,1.137,1.133,1.137
			c0.588,0,1.062-0.446,1.124-1.018l0.823,0.118c0.971,0.139,1.694,1.055,1.604,2.035l-1.044,3.647
			c-0.09,0.978,0.218,1.81,0.684,1.845c0.467,0.032,0.85,0.027,0.854-0.013c0-0.038,0.039-0.876,0.079-1.857l0.854-3.425
			c0.045-0.982,0.1-2.291,0.127-2.904C60.762,45.262,60.501,44.765,60.159,44.777z M92.063,30.946
			c-0.268-0.798-1.107-2.231-1.863-3.183c-0.757-0.957-1.988-2.086-2.738-2.512c-0.748-0.43-4.174,0.51-5.908,1.301l-1.265,0.578
			c-1.733,0.791-3.172,1.453-3.2,1.465c-0.029,0.015-0.235,0-0.394-0.062c-0.155-0.068-2.084-0.545-3.941-0.978l-3.323-0.776
			c-1.855-0.434-3.996-0.847-4.753-0.92c-0.763-0.07-4.005,0.473-5.861,0.897l-3.56,0.817C53.4,28,51.751,28.384,51.596,28.433
			c-0.157,0.047-0.597,0.207-0.624,0.191c-0.029-0.016-1.527-0.703-3.26-1.494l-1.266-0.576c-1.731-0.793-3.867-1.494-4.748-1.56
			c-0.885-0.065-3.137,1.813-3.896,2.77c-0.757,0.952-1.597,2.386-1.866,3.183c-0.27,0.798,1.19,3.943,2.255,5.52l2.184,3.236
			c1.064,1.578,1.65,3.404,1.3,4.055c-0.349,0.652-0.824,1.814-1.062,2.58c-0.232,0.768,0.037,4.131,0.355,6.011l0.68,4.011
			c0.321,1.879,0.92,4.043,1.332,4.811c0.412,0.771,3.679,2.127,5.527,2.586l0.828,0.206c0.137,0.032,0.283,0.084,0.426,0.132
			c-2.732,1.473-5.3,3.242-7.568,5.261c-0.334,0.297,0.083,0.75,0.438,0.516c2.853-1.896,5.601-3.666,8.473-5.204
			c0.558,0.289,1.106,0.635,1.626,1.018c-2.351,1.876-4.371,4.294-5.783,6.476c-0.174,0.266,0.178,0.621,0.426,0.387
			c2.109-1.992,3.993-4.322,6.192-6.191c0.455,0.406,0.858,0.83,1.159,1.248l0.174,0.242c-2.538,2.432-4.537,5.75-5.709,8.564
			c-0.129,0.314,0.318,0.523,0.51,0.266c1.974-2.615,3.572-5.641,5.783-8.025l0.736,1.02c1.113,1.549,2.565,3.244,3.23,3.771
			c0.658,0.527,3.453,0.959,4.553,0.959c1.102,0,2.67-0.186,3.486-0.414c0.812-0.227,3.182-2.77,4.299-4.316l0.74-1.023
			c2.217,2.389,3.818,5.432,5.793,8.051c0.206,0.273,0.609-0.02,0.484-0.311c-1.164-2.803-3.158-6.121-5.691-8.553l0.145-0.199
			c0.31-0.426,0.726-0.861,1.192-1.275c2.185,1.859,4.063,4.178,6.149,6.152c0.275,0.26,0.647-0.061,0.444-0.375
			c-1.401-2.162-3.423-4.568-5.768-6.444c0.519-0.379,1.072-0.725,1.626-1.016c2.884,1.544,5.645,3.317,8.496,5.212
			c0.373,0.246,0.706-0.271,0.389-0.555c-2.249-2-4.805-3.763-7.521-5.233c0.124-0.04,0.252-0.087,0.376-0.118l0.862-0.217
			c1.85-0.465,3.959-1.229,4.693-1.699c0.735-0.472,1.842-3.832,2.157-5.711l0.681-4.009c0.318-1.88,0.561-4.072,0.539-4.876
			c-0.021-0.799-0.897-3.062-1.248-3.715c-0.348-0.65,0.24-2.477,1.303-4.055l2.182-3.234
			C90.874,34.888,92.333,31.742,92.063,30.946z M40.253,34.617c-0.947-1.405-1.762-2.658-1.811-2.785c0,0,0,0,0-0.148
			c0-0.18,0-0.18,0-0.18c0.074-0.169,0.752-1.084,1.508-2.037c0.76-0.953,1.501-1.791,1.649-1.862
			c0.147-0.071,1.978,0.65,3.709,1.44l0.271,0.127c1.732,0.791,3.125,1.48,3.094,1.529c-0.03,0.049-0.838,1.553-1.739,3.234
			l-1.524,2.847C44.51,38.462,41.201,36.023,40.253,34.617z M67.007,71.265c-0.289,0.219-1.904,0.393-3.006,0.393
			c-1.1,0-2.283-0.09-2.627-0.197c-0.148-0.047-0.488-0.375-0.908-0.84l2.305-2.107c0.678-0.619,1.23-1.125,1.23-1.125
			s0.553,0.506,1.23,1.125l2.344,2.145C67.313,70.966,67.11,71.188,67.007,71.265z M84.325,51.889l-0.68,4.011
			c-0.318,1.879-0.691,3.607-0.836,3.841c-0.139,0.237-1.744,0.804-3.12,1.151c-1.381,0.344-2.459,0.4-2.407,0.125
			s-0.747-2.209-1.775-3.709c-1.029-1.498-1.873-2.682-1.871-2.631c0.002,0.055,0.234,1.285,0.5,2.619
			c0.264,1.334,0.455,2.756,0.426,3.167c-0.029,0.407-0.496,1.349-0.646,1.562c-0.004,0.006-0.012,0.018-0.016,0.023
			c-1.75-0.706-3.534-1.295-5.322-1.745c-0.491-0.12-0.775,0.599-0.277,0.751c1.742,0.525,3.387,1.156,4.977,1.856
			c-0.213,0.292-0.457,0.63-0.709,0.979c-1.37-0.737-2.799-1.242-4.251-1.38c-0.425-0.038-0.462,0.567-0.061,0.65
			c1.401,0.271,2.646,0.79,3.786,1.462c-0.309,0.426-0.68,0.941-1.076,1.489c-0.957-0.636-1.966-1.13-3.021-1.413
			c-0.396-0.105-0.623,0.459-0.223,0.609c1.023,0.383,1.926,0.896,2.748,1.495c-0.393,0.543-0.785,1.088-1.133,1.57
			c-0.217,0.297-0.432,0.59-0.645,0.873c-0.041-0.031-0.078-0.062-0.117-0.092l-2.521-1.719c-0.756-0.52-1.376-0.957-1.373-0.979
			c0.002-0.02,0.006-0.823,0.006-1.741v-2.564c0.018-0.034,0.041-0.06,0.059-0.097l4.097-4.656c0.405-0.818-0.007-1.49-0.923-1.49
			h-7.84c-0.918,0-1.333,0.676-0.921,1.49l4.095,4.656c0.02,0.037,0.041,0.064,0.061,0.1v2.561c0,0.918,0.002,1.687,0.002,1.706
			c0.002,0.02-0.61,0.496-1.369,1.014l-2.521,1.719c-0.037,0.025-0.073,0.057-0.109,0.084c-0.232-0.297-0.461-0.602-0.674-0.896
			c-0.34-0.471-0.725-1.002-1.109-1.535c0.825-0.607,1.741-1.122,2.771-1.511c0.343-0.127,0.158-0.707-0.195-0.611
			c-1.074,0.287-2.1,0.791-3.072,1.435c-0.396-0.546-0.77-1.062-1.08-1.491c1.146-0.675,2.396-1.194,3.811-1.471
			c0.416-0.08,0.298-0.681-0.111-0.639c-1.449,0.137-2.871,0.637-4.232,1.369c-0.252-0.352-0.496-0.688-0.709-0.982
			c1.57-0.689,3.193-1.309,4.914-1.83c0.48-0.145,0.369-0.912-0.138-0.785c-1.815,0.453-3.62,1.049-5.391,1.763
			c-0.011-0.013-0.023-0.033-0.032-0.042c-0.146-0.201-0.38-0.68-0.523-1.058c-0.145-0.384,0.057-2.317,0.317-3.653
			c0.264-1.334,0.483-2.47,0.491-2.523c0.008-0.052-0.83,1.037-1.859,2.536c-1.033,1.499-1.859,2.946-1.84,3.216
			c0.016,0.266-0.971,0.695-2.347,0.352c-1.373-0.339-2.681-0.749-2.907-0.908c-0.221-0.156-0.729-2.19-1.047-4.067l-0.679-4.013
			c-0.319-1.88-0.565-3.797-0.542-4.262c0.02-0.468,0.531-1.775,0.784-2.244c0.248-0.469,1.192-2.229,2.092-3.908l3.342-6.244
			c0.897-1.68,1.86-3.287,2.138-3.572c0.275-0.287,1.034-0.641,1.069-0.652c0.036-0.006,1.585-0.361,3.44-0.786l3.43-0.787
			c1.858-0.429,3.812-0.812,4.347-0.854c0.535-0.043,3.177,0.438,5.032,0.871l3.199,0.748c1.855,0.434,3.4,0.797,3.438,0.805
			c0.031,0.007,0.346,0.172,0.695,0.364c0.346,0.193,1.613,2.184,2.511,3.864l3.345,6.244c0.896,1.678,1.838,3.439,2.09,3.906
			c0.252,0.471,0.764,1.777,0.784,2.245C84.892,48.09,84.644,50.01,84.325,51.889z M89.563,31.683c0,0.148,0,0.148,0,0.148
			c-0.053,0.127-0.869,1.38-1.815,2.785c-0.947,1.406-4.253,3.846-5.155,2.165l-1.523-2.847c-0.9-1.682-1.66-3.096-1.685-3.146
			c-0.03-0.051,1.308-0.826,3.04-1.617l0.27-0.127c1.733-0.79,3.311-1.441,3.509-1.447c0.196-0.004,1.093,0.916,1.849,1.869
			c0.752,0.953,1.437,1.868,1.512,2.037C89.563,31.503,89.563,31.503,89.563,31.683z M58.154,34.905
			c0.485,0.153,1.121-0.509,1.43-1.47c0.307-0.963,0.163-1.871-0.32-2.023c-0.48-0.152-1.12,0.506-1.425,1.469
			C57.528,33.843,57.672,34.751,58.154,34.905z M56.208,39.801c0.591,0,1.068-0.41,1.068-0.919c0-0.506-0.478-0.914-1.068-0.914
			c-0.59,0-1.07,0.408-1.07,0.914C55.138,39.391,55.618,39.801,56.208,39.801z M81.862,55.689c-0.756-0.377-1.674-0.069-2.049,0.685
			c-0.376,0.755-0.072,1.669,0.684,2.046c0.753,0.38,1.672,0.074,2.047-0.682C82.923,56.982,82.616,56.065,81.862,55.689z
			 M80.792,54.423c0.503,0.08,1.033-0.668,1.188-1.667c0.158-1.001-0.12-1.878-0.622-1.954c-0.499-0.078-1.033,0.67-1.188,1.671
			C80.013,53.472,80.29,54.347,80.792,54.423z M53.267,36.304c1.01,0,1.83-1.027,1.83-2.293c0-1.268-0.82-2.293-1.83-2.293
			c-1.014,0-1.836,1.025-1.836,2.293C51.431,35.277,52.253,36.304,53.267,36.304z M78.726,54.453
			c-0.527-0.264-1.143-0.109-1.366,0.343c-0.228,0.452,0.019,1.033,0.548,1.295c0.526,0.267,1.142,0.113,1.365-0.341
			C79.501,55.297,79.253,54.715,78.726,54.453z M51.101,39.939c0.842,0,1.524-0.686,1.524-1.529s-0.683-1.526-1.524-1.526
			c-0.845,0-1.527,0.683-1.527,1.526S50.256,39.939,51.101,39.939z"/>
	</g>
</g>
</svg>
