<?xml version="1.0" encoding="utf-8"?>
<!-- Generator: Adobe Illustrator 13.0.0, SVG Export Plug-In . SVG Version: 6.00 Build 14948)  -->
<!DOCTYPE svg PUBLIC "-//W3C//DTD SVG 1.1//EN" "http://www.w3.org/Graphics/SVG/1.1/DTD/svg11.dtd">
<svg version="1.1" id="Layer_1" xmlns="http://www.w3.org/2000/svg" xmlns:xlink="http://www.w3.org/1999/xlink" x="0px" y="0px"
	 width="128px" height="128px" viewBox="0 0 128 128" enable-background="new 0 0 128 128" xml:space="preserve">
<g>
	<g>
		<path fill="#F2F2F2" d="M5.99,67.436c1.278-0.795,2.783-1.258,4.397-1.258H64.58c1.596,0,3.087,0.451,4.355,1.229l0.643-0.58
			c-1.442-0.938-3.154-1.488-4.998-1.488H10.387c-1.838,0-3.544,0.547-4.98,1.479L5.99,67.436z"/>
		
			<radialGradient id="SVGID_1_" cx="-251.8457" cy="61.209" r="31.4111" gradientTransform="matrix(1 0 0 -1 289.2754 151.834)" gradientUnits="userSpaceOnUse">
			<stop  offset="0" style="stop-color:#FAFAFA"/>
			<stop  offset="0.3629" style="stop-color:#E5E5E5"/>
			<stop  offset="1" style="stop-color:#C4C4C4"/>
		</radialGradient>
		<path fill="url(#SVGID_1_)" stroke="#808080" d="M30.125,112.877L4.579,75.104c-3.951-6.522-2.24-11.861,3.801-11.861h58.358
			c6.039,0,7.486,4.988,3.216,11.086l-24.879,39.324C40.803,119.751,34.076,119.4,30.125,112.877L30.125,112.877z"/>
		
			<radialGradient id="SVGID_2_" cx="-251.1665" cy="117.4678" r="24.3655" gradientTransform="matrix(1 0 0 -1 289.2754 151.834)" gradientUnits="userSpaceOnUse">
			<stop  offset="0" style="stop-color:#FAFAFA"/>
			<stop  offset="0.4142" style="stop-color:#E3E3E3"/>
			<stop  offset="1" style="stop-color:#C7C7C7"/>
		</radialGradient>
		<path fill="url(#SVGID_2_)" stroke="#808080" d="M13.752,34.367c0-13.463,10.905-24.375,24.358-24.375
			c13.451,0,24.356,10.912,24.356,24.375c0,13.461-10.905,24.373-24.356,24.373C24.658,58.74,13.752,47.828,13.752,34.367
			L13.752,34.367z"/>
		
			<linearGradient id="SVGID_3_" gradientUnits="userSpaceOnUse" x1="-240.1631" y1="129.8613" x2="-240.1631" y2="117.1582" gradientTransform="matrix(1 0 0 -1 289.2754 151.834)">
			<stop  offset="0" style="stop-color:#80C11B"/>
			<stop  offset="1" style="stop-color:#80E21B"/>
		</linearGradient>
		<path fill="url(#SVGID_3_)" d="M42.765,28.324c0-3.507,2.841-6.351,6.348-6.351c3.504,0,6.346,2.844,6.346,6.351
			c0,3.51-2.842,6.353-6.346,6.353C45.606,34.676,42.765,31.834,42.765,28.324L42.765,28.324z"/>
		<path opacity="0.5" fill="#FFFFFF" d="M49.104,28.176c1.748,1.46,4.112,0.658,5.585-0.105c-0.218-2.938-2.667-5.256-5.659-5.256
			c-3.005,0-5.463,2.336-5.66,5.291C44.731,27.438,47.223,26.602,49.104,28.176z"/>
		<path fill="#F2F2F2" d="M20.424,21.744c4.067-5.584,11.546-9.862,18.537-9.862c6.99,0,14.277,4.278,18.344,9.862h0.773
			c-4.311-6.572-11.307-10.873-19.213-10.873c-7.908,0-14.905,4.301-19.215,10.873H20.424z"/>
		
			<linearGradient id="SVGID_4_" gradientUnits="userSpaceOnUse" x1="-251.0347" y1="97.7637" x2="-251.0347" y2="108.6328" gradientTransform="matrix(1 0 0 -1 289.2754 151.834)">
			<stop  offset="0" style="stop-color:#00B2DE"/>
			<stop  offset="1" style="stop-color:#99DBF6"/>
		</linearGradient>
		<path fill="url(#SVGID_4_)" d="M56.683,43.2c-4.068,5.584-11.547,9.86-18.538,9.86c-6.99,0-14.276-4.276-18.345-9.86h-0.773
			c4.312,6.572,11.307,10.87,19.214,10.87c7.908,0,14.904-4.298,19.214-10.87H56.683z"/>
		<g>
			
				<radialGradient id="SVGID_5_" cx="-198.7056" cy="61.2109" r="31.4114" gradientTransform="matrix(1 0 0 -1 289.2754 151.834)" gradientUnits="userSpaceOnUse">
				<stop  offset="0" style="stop-color:#FAFAFA"/>
				<stop  offset="0.3629" style="stop-color:#E5E5E5"/>
				<stop  offset="1" style="stop-color:#C4C4C4"/>
			</radialGradient>
			<path fill="url(#SVGID_5_)" stroke="#808080" d="M97.874,68.37l25.547,37.774c3.95,6.523,2.24,11.861-3.802,11.861H61.262
				c-6.039,0-7.488-4.988-3.217-11.088l24.879-39.322C87.195,61.497,93.923,61.847,97.874,68.37L97.874,68.37z"/>
			
				<radialGradient id="SVGID_6_" cx="-198.7075" cy="117.4678" r="24.3655" gradientTransform="matrix(1 0 0 -1 289.2754 151.834)" gradientUnits="userSpaceOnUse">
				<stop  offset="0" style="stop-color:#FAFAFA"/>
				<stop  offset="0.4142" style="stop-color:#E3E3E3"/>
				<stop  offset="1" style="stop-color:#C7C7C7"/>
			</radialGradient>
			<path fill="url(#SVGID_6_)" stroke="#808080" d="M66.211,34.367c0-13.463,10.906-24.375,24.357-24.375
				s24.356,10.912,24.356,24.375c0,13.461-10.905,24.373-24.356,24.373S66.211,47.828,66.211,34.367L66.211,34.367z"/>
			
				<linearGradient id="SVGID_7_" gradientUnits="userSpaceOnUse" x1="-207.938" y1="129.8613" x2="-207.938" y2="117.1582" gradientTransform="matrix(1 0 0 -1 289.2754 151.834)">
				<stop  offset="0" style="stop-color:#EC008C"/>
				<stop  offset="1" style="stop-color:#C40075"/>
			</linearGradient>
			<path fill="url(#SVGID_7_)" d="M74.99,28.324c0-3.507,2.843-6.351,6.348-6.351s6.348,2.844,6.348,6.351
				c0,3.51-2.843,6.353-6.348,6.353S74.99,31.834,74.99,28.324L74.99,28.324z"/>
			<path fill="#EC8690" d="M81.132,28.176c1.749,1.46,4.112,0.658,5.585-0.105c-0.218-2.938-2.667-5.256-5.658-5.256
				c-3.006,0-5.463,2.336-5.66,5.291C76.76,27.438,79.252,26.602,81.132,28.176z"/>
			<path fill="#F2F2F2" d="M72.127,21.744c4.068-5.584,11.547-9.862,18.537-9.862s14.277,4.278,18.345,9.862h0.773
				c-4.312-6.572-11.308-10.873-19.214-10.873c-7.907,0-14.903,4.301-19.215,10.873H72.127z"/>
			
				<linearGradient id="SVGID_8_" gradientUnits="userSpaceOnUse" x1="-217.9199" y1="103.1992" x2="-179.4922" y2="103.1992" gradientTransform="matrix(1 0 0 -1 289.2754 151.834)">
				<stop  offset="0" style="stop-color:#EC008C"/>
				<stop  offset="1" style="stop-color:#C40075"/>
			</linearGradient>
			<path fill="url(#SVGID_8_)" d="M109.01,43.2c-4.068,5.584-11.546,9.86-18.537,9.86c-6.99,0-14.277-4.276-18.345-9.86h-0.772
				c4.311,6.572,11.307,10.87,19.213,10.87c7.908,0,14.904-4.298,19.215-10.87H109.01z"/>
			<path opacity="0.5" fill="#FFFFFF" enable-background="new    " d="M70.389,113.975c0-18.52,14.197-33.715,32.303-35.314
				l-5.461-8.074c-3.69-6.095-9.978-6.422-13.969-0.723l-23.246,36.742c-3.991,5.697-2.639,10.359,3.006,10.359h7.5
				C70.439,115.977,70.389,114.982,70.389,113.975z"/>
		</g>
		<path fill="#BFBFBF" d="M69.219,69.727c-0.02,1.278-0.377,2.567-1.119,3.723l-24.856,38.74c-0.73,1.142-1.738,2-2.877,2.551
			l0.121,0.727c1.33-0.601,2.51-1.572,3.355-2.891L68.7,73.834c0.842-1.312,1.233-2.785,1.229-4.238L69.219,69.727z"/>
		<path opacity="0.5" fill="#FFFFFF" enable-background="new    " d="M10.822,82.085c7.245-5.72,16.386-9.144,26.332-9.144
			c9.8,0,18.815,3.322,26.007,8.89l4.378-6.917c3.99-5.697,2.636-10.355-3.006-10.355H10.014c-5.645,0-7.242,4.985-3.551,11.08
			L10.822,82.085z"/>
	</g>
	<g>
		
			<linearGradient id="SVGID_9_" gradientUnits="userSpaceOnUse" x1="-611.7246" y1="-768.3184" x2="-664.068" y2="-731.6672" gradientTransform="matrix(1 0 0 -1 701.8955 -662.1562)">
			<stop  offset="0" style="stop-color:#181500"/>
			<stop  offset="1" style="stop-color:#5F5D5C"/>
		</linearGradient>
		<path fill="url(#SVGID_9_)" d="M98.902,91.193c0,4.379-3.551,7.928-7.928,7.928H37.024c-4.377,0-7.928-3.549-7.928-7.928V84.48
			c0-4.377,3.551-7.928,7.928-7.928h53.951c4.377,0,7.928,3.551,7.928,7.928V91.193L98.902,91.193z"/>
		<g>
			<g>
				
					<linearGradient id="SVGID_10_" gradientUnits="userSpaceOnUse" x1="-660.7002" y1="-752.9609" x2="-669.2213" y2="-746.9944" gradientTransform="matrix(1 0 0 -1 701.8955 -662.1562)">
					<stop  offset="0" style="stop-color:#DEDEDE"/>
					<stop  offset="1" style="stop-color:#FEFEFE"/>
				</linearGradient>
				<path fill="url(#SVGID_10_)" d="M40.459,83.777l-2.734,3.6v0.059l4.348-0.576v1.957l-4.348-0.52v0.059l2.764,3.457l-1.813,1.033
					l-1.729-4.029H36.89l-1.871,4.062l-1.641-1.037l2.734-3.514V88.27l-4.26,0.545v-1.957l4.231,0.547v-0.057l-2.707-3.512
					l1.756-1.01l1.785,4h0.06l1.754-4.027L40.459,83.777z"/>
			</g>
			<g>
				
					<linearGradient id="SVGID_11_" gradientUnits="userSpaceOnUse" x1="-647.1792" y1="-752.96" x2="-655.7003" y2="-746.9935" gradientTransform="matrix(1 0 0 -1 701.8955 -662.1562)">
					<stop  offset="0" style="stop-color:#DEDEDE"/>
					<stop  offset="1" style="stop-color:#FEFEFE"/>
				</linearGradient>
				<path fill="url(#SVGID_11_)" d="M53.979,83.777l-2.734,3.6v0.059l4.347-0.576v1.957l-4.347-0.52v0.059l2.764,3.457l-1.814,1.033
					l-1.728-4.029H50.41l-1.871,4.062l-1.642-1.037l2.733-3.514V88.27l-4.259,0.545v-1.957l4.23,0.547v-0.057l-2.705-3.512
					l1.754-1.01l1.785,4h0.059l1.756-4.027L53.979,83.777z"/>
			</g>
			<g>
				
					<linearGradient id="SVGID_12_" gradientUnits="userSpaceOnUse" x1="-633.6636" y1="-752.958" x2="-642.1831" y2="-746.9926" gradientTransform="matrix(1 0 0 -1 701.8955 -662.1562)">
					<stop  offset="0" style="stop-color:#DEDEDE"/>
					<stop  offset="1" style="stop-color:#FEFEFE"/>
				</linearGradient>
				<path fill="url(#SVGID_12_)" d="M67.497,83.777l-2.733,3.6v0.059l4.346-0.576v1.957l-4.346-0.52v0.059l2.762,3.457l-1.812,1.033
					l-1.728-4.029h-0.058l-1.87,4.062l-1.642-1.037l2.733-3.514V88.27l-4.26,0.545v-1.957l4.232,0.547v-0.057l-2.707-3.512
					l1.756-1.01l1.785,4h0.059l1.755-4.027L67.497,83.777z"/>
			</g>
			<g>
				
					<linearGradient id="SVGID_13_" gradientUnits="userSpaceOnUse" x1="-620.1406" y1="-752.96" x2="-628.6617" y2="-746.9935" gradientTransform="matrix(1 0 0 -1 701.8955 -662.1562)">
					<stop  offset="0" style="stop-color:#DEDEDE"/>
					<stop  offset="1" style="stop-color:#FEFEFE"/>
				</linearGradient>
				<path fill="url(#SVGID_13_)" d="M81.016,83.777l-2.731,3.6v0.059l4.347-0.576v1.957l-4.347-0.52v0.059l2.765,3.457l-1.812,1.033
					l-1.729-4.029h-0.06l-1.868,4.062l-1.642-1.037l2.732-3.514V88.27l-4.261,0.545v-1.957l4.231,0.547v-0.057l-2.707-3.512
					l1.756-1.01l1.785,4h0.06l1.755-4.027L81.016,83.777z"/>
			</g>
			<g>
				
					<linearGradient id="SVGID_14_" gradientUnits="userSpaceOnUse" x1="-606.625" y1="-752.9609" x2="-615.1454" y2="-746.9951" gradientTransform="matrix(1 0 0 -1 701.8955 -662.1562)">
					<stop  offset="0" style="stop-color:#DEDEDE"/>
					<stop  offset="1" style="stop-color:#FEFEFE"/>
				</linearGradient>
				<path fill="url(#SVGID_14_)" d="M94.535,83.777l-2.734,3.6v0.059l4.348-0.576v1.957l-4.348-0.52v0.059l2.764,3.457l-1.812,1.033
					l-1.729-4.029h-0.058l-1.87,4.062l-1.642-1.037l2.733-3.514V88.27l-4.262,0.545v-1.957l4.232,0.547v-0.057l-2.707-3.512
					l1.756-1.01l1.785,4h0.058l1.757-4.027L94.535,83.777z"/>
			</g>
		</g>
	</g>
	<path opacity="0.5" fill="#FFFFFF" enable-background="new    " d="M89.646,77.958h-51.31c-4.162,0-7.539,3.377-7.539,7.54v1.549
		c0-4.162,3.377-7.54,7.539-7.54h51.31c4.162,0,7.539,3.378,7.539,7.54v-1.549C97.186,81.335,93.809,77.958,89.646,77.958z"/>
</g>
</svg>
