<?xml version="1.0" encoding="utf-8"?>
<!-- Generator: Adobe Illustrator 13.0.0, SVG Export Plug-In . SVG Version: 6.00 Build 14948)  -->
<!DOCTYPE svg PUBLIC "-//W3C//DTD SVG 1.1//EN" "http://www.w3.org/Graphics/SVG/1.1/DTD/svg11.dtd">
<svg version="1.1" id="Layer_1" xmlns="http://www.w3.org/2000/svg" xmlns:xlink="http://www.w3.org/1999/xlink" x="0px" y="0px"
	 width="128px" height="128px" viewBox="0 0 128 128" enable-background="new 0 0 128 128" xml:space="preserve">
<g>
	<g>
		<linearGradient id="SVGID_1_" gradientUnits="userSpaceOnUse" x1="64.0005" y1="8.5303" x2="64.0005" y2="120.6294">
			<stop  offset="0" style="stop-color:#EC008C"/>
			<stop  offset="1" style="stop-color:#C4008C"/>
		</linearGradient>
		<path fill="url(#SVGID_1_)" d="M112.477,103.462c0,9.477-7.688,17.167-17.167,17.167H32.692c-9.479,0-17.168-7.69-17.168-17.167
			V25.698c0-9.482,7.689-17.168,17.168-17.168H95.31c9.479,0,17.167,7.686,17.167,17.168V103.462z"/>
		<path opacity="0.5" fill="#FFFFFF" d="M93.89,11.902H34.108c-9.049,0-16.391,7.337-16.391,16.391v0.626h1.339
			c2.513-5.828,8.304-9.912,15.052-9.912H93.89c6.752,0,12.543,4.084,15.055,9.912h1.34v-0.626
			C110.284,19.239,102.946,11.902,93.89,11.902z"/>
		<path opacity="0.25" fill="#AE146A" d="M47.638,76.042c-11.459,0-22.32-1.334-32.113-3.716v31.136
			c0,9.477,7.689,17.167,17.168,17.167H95.31c9.479,0,17.167-7.69,17.167-17.167v-46.08C98.575,68.623,74.729,76.042,47.638,76.042z
			"/>
		<path fill="#AE146A" d="M32.696,120.629H95.31c9.482,0,17.167-7.69,17.167-17.167v-4.65c0,9.482-7.685,17.172-17.167,17.172
			H32.696c-9.482,0-17.168-7.689-17.168-17.172v4.65C15.528,112.938,23.214,120.629,32.696,120.629z"/>
	</g>
	<g>
		<linearGradient id="SVGID_2_" gradientUnits="userSpaceOnUse" x1="49.2417" y1="107.8193" x2="49.2417" y2="67.4814">
			<stop  offset="0.0824" style="stop-color:#C2C2C2"/>
			<stop  offset="0.2635" style="stop-color:#D2D2D2"/>
			<stop  offset="0.5594" style="stop-color:#E6E6E6"/>
			<stop  offset="0.7582" style="stop-color:#EDEDED"/>
		</linearGradient>
		<path fill="url(#SVGID_2_)" d="M63.487,96.401c0,3.635-1.121,6.445-3.368,8.438c-2.247,1.985-5.185,2.979-8.812,2.979H34.996
			V67.481h15.69c3.777,0,6.752,0.99,8.926,2.967c2.168,1.977,3.257,4.661,3.257,8.045c0,1.998-0.569,3.822-1.702,5.484
			c-1.02,1.392-2.268,2.41-3.736,3.045C61.47,88.618,63.487,91.744,63.487,96.401z M56.751,78.727c0-1.841-0.609-3.249-1.816-4.228
			c-1.13-1.015-2.718-1.521-4.76-1.521H41.11v11.494h9.064c2.042,0,3.646-0.49,4.816-1.484
			C56.162,81.988,56.751,80.568,56.751,78.727z M57.373,96.119c0-1.821-0.577-3.302-1.727-4.44
			c-1.153-1.137-2.788-1.706-4.903-1.706H41.11v12.351h9.633c2.001,0,3.627-0.568,4.875-1.707
			C56.788,99.438,57.373,97.944,57.373,96.119z"/>
		<linearGradient id="SVGID_3_" gradientUnits="userSpaceOnUse" x1="81.3643" y1="108.1592" x2="81.3643" y2="78.7549">
			<stop  offset="0.0824" style="stop-color:#C2C2C2"/>
			<stop  offset="0.2635" style="stop-color:#D2D2D2"/>
			<stop  offset="0.5594" style="stop-color:#E6E6E6"/>
			<stop  offset="0.7582" style="stop-color:#EDEDED"/>
		</linearGradient>
		<path fill="url(#SVGID_3_)" d="M93.005,107.819h-5.663v-2.607c-1.965,1.965-4.515,2.947-7.649,2.947
			c-3.4,0-5.966-0.867-7.705-2.607c-1.511-1.588-2.264-3.641-2.264-6.175c0-2.455,0.863-4.448,2.595-5.976
			c1.731-1.529,4.19-2.299,7.384-2.299h7.64v-2.039c0-3.584-2.116-5.381-6.343-5.381c-2.746,0-4.863,0.924-6.344,2.774l-3.797-3.568
			c1.28-1.507,2.708-2.574,4.275-3.2c1.566-0.617,3.578-0.934,6.033-0.934c7.893,0,11.838,3.287,11.838,9.855V107.819z
			 M87.342,97.449v-2.32h-6.806c-3.467,0-5.205,1.379-5.205,4.134c0,2.721,1.775,4.084,5.319,4.084c2.477,0,4.289-0.553,5.435-1.646
			C86.925,100.87,87.342,99.454,87.342,97.449z"/>
	</g>
</g>
</svg>
