<?xml version="1.0" encoding="utf-8"?>
<!-- Generator: Adobe Illustrator 13.0.0, SVG Export Plug-In . SVG Version: 6.00 Build 14948)  -->
<!DOCTYPE svg PUBLIC "-//W3C//DTD SVG 1.1//EN" "http://www.w3.org/Graphics/SVG/1.1/DTD/svg11.dtd">
<svg version="1.1" id="Layer_1" xmlns="http://www.w3.org/2000/svg" xmlns:xlink="http://www.w3.org/1999/xlink" x="0px" y="0px"
	 width="128px" height="128px" viewBox="0 0 128 128" enable-background="new 0 0 128 128" xml:space="preserve">
<g>
	<linearGradient id="SVGID_1_" gradientUnits="userSpaceOnUse" x1="64.6895" y1="2.1299" x2="64.6895" y2="56.5078">
		<stop  offset="0" style="stop-color:#F8D2AD"/>
		<stop  offset="1" style="stop-color:#E5C581"/>
	</linearGradient>
	<path fill="url(#SVGID_1_)" d="M37.518,29.316c0-15.015,12.166-27.187,27.172-27.187s27.172,12.172,27.172,27.188
		c0,15.018-12.166,27.189-27.172,27.189S37.518,44.333,37.518,29.316L37.518,29.316z"/>
	<linearGradient id="SVGID_2_" gradientUnits="userSpaceOnUse" x1="39.6147" y1="29.3135" x2="89.7734" y2="29.3135">
		<stop  offset="0" style="stop-color:#8A6031"/>
		<stop  offset="1" style="stop-color:#3C160F"/>
	</linearGradient>
	<path fill="url(#SVGID_2_)" d="M87.225,16.445C81.372,7.514,70.789,5.332,68.322,5.332c-0.068,0-3.205,0.148-0.939,2.821
		c0.004,0,0.713,0.206,0.717,0.206c2.164,0,11.225,1.89,16.357,9.725c2.489,3.798,2.23,11.417,2.23,15.062
		c0,3.648-2.068,8.689-5.675,12.294c-2.636,2.637-11.483,5.981-14.357,5.981c-19.145,0-21.172-13.006-22.657-16.247
		c-1.487-3.242-1.509-8.821-1.015-9.931c1.805-4.051,5.676-11.482,8.579-14.388c2.362-2.361,8.975-3.652,11.956-3.653
		c1.804,0,2.706-1.325,2.706-1.927c0-0.739-1.764-1.1-2.706-1.1c-3.604,0.017-11.155,1.39-13.795,4.028
		c-3.311,3.313-7.723,11.786-9.779,16.402c-0.563,1.266-0.54,7.626,1.154,11.319c1.694,3.697,4.006,18.523,25.833,18.523
		c3.275,0,13.363-3.814,16.365-6.817c4.111-4.11,6.468-9.856,6.468-14.016S90.062,20.776,87.225,16.445z"/>
	<linearGradient id="SVGID_3_" gradientUnits="userSpaceOnUse" x1="22.2505" y1="92.2705" x2="105.75" y2="92.2705">
		<stop  offset="0" style="stop-color:#8A6031"/>
		<stop  offset="1" style="stop-color:#3C160F"/>
	</linearGradient>
	<path fill="url(#SVGID_3_)" d="M62.82,58.671c-7.979,0-12.533,12.245-16.135,15.847c-3.601,3.603-21.904,31.869-23.529,37.359
		c-1.796,6.072-0.537,11.057,0.481,12.075c1.439,1.439,13.251,0.697,22.184,0.697s16.71,2.018,26.794,0.864
		c10.085-1.152,25.644-2.018,27.948-2.018s5.187-4.032,5.187-6.625c0-2.594-2.594-8.933-8.645-17.863
		c-6.05-8.932-4.988-11.38-11.183-17.575c-6.194-6.194-9.274-15.846-11.579-18.151C72.04,60.977,65.989,58.671,62.82,58.671z"/>
	<linearGradient id="SVGID_4_" gradientUnits="userSpaceOnUse" x1="64.0972" y1="61.5273" x2="64.0972" y2="122.6187">
		<stop  offset="0" style="stop-color:#F8D2AD"/>
		<stop  offset="1" style="stop-color:#E5C581"/>
	</linearGradient>
	<path fill="url(#SVGID_4_)" d="M72.247,67.248l28.495,42.139c4.406,7.277,2.498,13.231-4.24,13.231H31.404
		c-6.734,0-8.351-5.566-3.589-12.364l27.757-43.872C60.335,59.584,67.84,59.974,72.247,67.248L72.247,67.248z"/>
	<path opacity="0.5" fill="#FFFFFF" d="M96.198,118.229H32.54c-3.401,0-5.452-1.459-6.015-3.777
		c-0.776,3.938,1.364,6.658,6.015,6.658h63.658c4.75,0,7.027-3.032,6.325-7.386C101.986,116.474,99.807,118.229,96.198,118.229z"/>
	<g>
		
			<linearGradient id="SVGID_5_" gradientUnits="userSpaceOnUse" x1="-1255.4966" y1="-12.1309" x2="-1247.7837" y2="-12.1309" gradientTransform="matrix(0.7836 7.940836e-06 0 0.7836 1041.79 79.9521)">
			<stop  offset="0" style="stop-color:#EC008C"/>
			<stop  offset="1" style="stop-color:#C40075"/>
		</linearGradient>
		<path fill="url(#SVGID_5_)" d="M57.99,70.437c0-1.67,1.355-3.023,3.022-3.023c1.669,0,3.021,1.353,3.021,3.023
			c0,1.669-1.353,3.022-3.021,3.022C59.346,73.459,57.99,72.105,57.99,70.437L57.99,70.437z"/>
		<path opacity="0.5" fill="#FFFFFF" d="M61.082,68.475c1.361,0,2.475,1.013,2.653,2.327c0.017-0.119,0.036-0.239,0.036-0.362
			c0-1.489-1.203-2.691-2.689-2.691c-1.485,0-2.69,1.204-2.69,2.691c0,0.123,0.02,0.243,0.036,0.362
			C58.606,69.487,59.722,68.475,61.082,68.475z"/>
	</g>
	<g>
		
			<linearGradient id="SVGID_6_" gradientUnits="userSpaceOnUse" x1="-1266.9902" y1="-73.1055" x2="-1252.4395" y2="-73.1055" gradientTransform="matrix(0.7836 7.940836e-06 0 0.7836 1041.79 79.9521)">
			<stop  offset="0" style="stop-color:#EC008C"/>
			<stop  offset="1" style="stop-color:#C40075"/>
		</linearGradient>
		<path fill="url(#SVGID_6_)" d="M48.99,22.658c0-3.151,2.556-5.704,5.702-5.704c3.147,0,5.7,2.552,5.7,5.704
			c0,3.147-2.553,5.7-5.7,5.7C51.546,28.358,48.99,25.806,48.99,22.658L48.99,22.658z"/>
		<path opacity="0.5" fill="#FFFFFF" d="M54.822,18.956c2.568,0,4.668,1.911,5.006,4.392c0.031-0.226,0.068-0.452,0.068-0.686
			c0-2.808-2.271-5.078-5.074-5.078c-2.802,0-5.076,2.273-5.076,5.078c0,0.233,0.037,0.46,0.068,0.686
			C50.152,20.867,52.256,18.956,54.822,18.956z"/>
	</g>
	<g>
		
			<linearGradient id="SVGID_7_" gradientUnits="userSpaceOnUse" x1="-1242.6274" y1="-2.3887" x2="-1234.9155" y2="-2.3887" gradientTransform="matrix(0.7836 7.940836e-06 0 0.7836 1041.79 79.9521)">
			<stop  offset="0" style="stop-color:#80E21B"/>
			<stop  offset="1" style="stop-color:#80B400"/>
		</linearGradient>
		<path fill="url(#SVGID_7_)" d="M68.074,78.071c0-1.671,1.354-3.023,3.021-3.023c1.67,0,3.021,1.353,3.021,3.023
			c0,1.669-1.352,3.022-3.021,3.022C69.429,81.094,68.074,79.74,68.074,78.071L68.074,78.071z"/>
		<path opacity="0.5" fill="#FFFFFF" d="M71.166,76.109c1.36,0,2.474,1.013,2.652,2.328c0.018-0.12,0.037-0.24,0.037-0.364
			c0-1.488-1.205-2.691-2.689-2.691c-1.486,0-2.691,1.205-2.691,2.691c0,0.124,0.02,0.244,0.036,0.364
			C68.689,77.122,69.805,76.109,71.166,76.109z"/>
	</g>
	<g>
		
			<linearGradient id="SVGID_8_" gradientUnits="userSpaceOnUse" x1="-1256.7378" y1="3.542" x2="-1249.0249" y2="3.542" gradientTransform="matrix(0.7836 7.940836e-06 0 0.7836 1041.79 79.9521)">
			<stop  offset="0" style="stop-color:#99DBF6"/>
			<stop  offset="1" style="stop-color:#00B2DE"/>
		</linearGradient>
		<path fill="url(#SVGID_8_)" d="M57.018,82.718c0-1.67,1.355-3.023,3.023-3.023c1.669,0,3.021,1.353,3.021,3.023
			c0,1.669-1.352,3.022-3.021,3.022C58.373,85.74,57.018,84.387,57.018,82.718L57.018,82.718z"/>
		<path opacity="0.5" fill="#FFFFFF" d="M60.11,80.756c1.36,0,2.474,1.013,2.652,2.328c0.018-0.12,0.036-0.24,0.036-0.363
			c0-1.489-1.203-2.691-2.688-2.691c-1.486,0-2.691,1.204-2.691,2.691c0,0.123,0.02,0.243,0.036,0.363
			C57.634,81.769,58.749,80.756,60.11,80.756z"/>
	</g>
	<g>
		
			<linearGradient id="SVGID_9_" gradientUnits="userSpaceOnUse" x1="-1268.9165" y1="12.1338" x2="-1261.2026" y2="12.1338" gradientTransform="matrix(0.7836 7.940836e-06 0 0.7836 1041.79 79.9521)">
			<stop  offset="0" style="stop-color:#FF9D00"/>
			<stop  offset="1" style="stop-color:#FF1F00"/>
		</linearGradient>
		<path fill="url(#SVGID_9_)" d="M47.475,89.45c0-1.67,1.355-3.022,3.022-3.022c1.669,0,3.021,1.352,3.021,3.022
			c0,1.669-1.353,3.022-3.021,3.022C48.83,92.473,47.475,91.119,47.475,89.45L47.475,89.45z"/>
		<path opacity="0.5" fill="#FFFFFF" d="M50.566,87.488c1.36,0,2.475,1.013,2.653,2.327c0.017-0.119,0.036-0.239,0.036-0.362
			c0-1.489-1.203-2.691-2.689-2.691c-1.485,0-2.69,1.204-2.69,2.691c0,0.123,0.02,0.243,0.036,0.362
			C48.091,88.501,49.206,87.488,50.566,87.488z"/>
	</g>
	<g>
		
			<linearGradient id="SVGID_10_" gradientUnits="userSpaceOnUse" x1="-1275.9956" y1="29.1387" x2="-1268.2827" y2="29.1387" gradientTransform="matrix(0.7836 7.940836e-06 0 0.7836 1041.79 79.9521)">
			<stop  offset="0" style="stop-color:#EC008C"/>
			<stop  offset="1" style="stop-color:#C40075"/>
		</linearGradient>
		<path fill="url(#SVGID_10_)" d="M41.927,102.775c0-1.67,1.354-3.023,3.022-3.023c1.669,0,3.021,1.353,3.021,3.023
			c0,1.669-1.353,3.022-3.021,3.022C43.281,105.798,41.927,104.444,41.927,102.775L41.927,102.775z"/>
		<path opacity="0.5" fill="#FFFFFF" d="M45.019,100.813c1.36,0,2.475,1.013,2.653,2.327c0.017-0.119,0.036-0.24,0.036-0.363
			c0-1.488-1.204-2.69-2.689-2.69s-2.69,1.204-2.69,2.69c0,0.123,0.019,0.244,0.036,0.363
			C42.543,101.826,43.658,100.813,45.019,100.813z"/>
	</g>
	<g>
		
			<linearGradient id="SVGID_11_" gradientUnits="userSpaceOnUse" x1="-1273.5405" y1="41.3657" x2="-1265.8276" y2="41.3657" gradientTransform="matrix(0.7836 7.940836e-06 0 0.7836 1041.79 79.9521)">
			<stop  offset="0" style="stop-color:#80E21B"/>
			<stop  offset="1" style="stop-color:#80B400"/>
		</linearGradient>
		<path fill="url(#SVGID_11_)" d="M43.851,112.357c0-1.67,1.354-3.024,3.022-3.024c1.669,0,3.021,1.354,3.021,3.024
			c0,1.668-1.353,3.022-3.021,3.022C45.205,115.38,43.851,114.025,43.851,112.357L43.851,112.357z"/>
		<path opacity="0.5" fill="#FFFFFF" d="M46.942,110.396c1.36,0,2.474,1.013,2.652,2.327c0.018-0.119,0.037-0.239,0.037-0.363
			c0-1.488-1.204-2.691-2.689-2.691c-1.486,0-2.69,1.205-2.69,2.691c0,0.124,0.019,0.244,0.036,0.363
			C44.467,111.408,45.582,110.396,46.942,110.396z"/>
	</g>
	<g>
		
			<linearGradient id="SVGID_12_" gradientUnits="userSpaceOnUse" x1="-1259.1304" y1="27.3823" x2="-1251.4175" y2="27.3823" gradientTransform="matrix(0.7836 7.940836e-06 0 0.7836 1041.79 79.9521)">
			<stop  offset="0" style="stop-color:#8A6031"/>
			<stop  offset="1" style="stop-color:#3C160F"/>
		</linearGradient>
		<path fill="url(#SVGID_12_)" d="M55.143,101.399c0-1.67,1.354-3.023,3.022-3.023c1.669,0,3.021,1.353,3.021,3.023
			c0,1.669-1.353,3.022-3.021,3.022C56.497,104.422,55.143,103.068,55.143,101.399L55.143,101.399z"/>
		<path opacity="0.5" fill="#FFFFFF" d="M58.234,99.438c1.361,0,2.474,1.013,2.653,2.327c0.017-0.119,0.036-0.24,0.036-0.362
			c0-1.489-1.204-2.692-2.689-2.692s-2.691,1.205-2.691,2.692c0,0.122,0.02,0.243,0.036,0.362
			C55.759,100.45,56.874,99.438,58.234,99.438z"/>
	</g>
	<g>
		
			<linearGradient id="SVGID_13_" gradientUnits="userSpaceOnUse" x1="-1248.3257" y1="13.2764" x2="-1240.6138" y2="13.2764" gradientTransform="matrix(0.7836 7.940836e-06 0 0.7836 1041.79 79.9521)">
			<stop  offset="0" style="stop-color:#E20A16"/>
			<stop  offset="1" style="stop-color:#B51015"/>
		</linearGradient>
		<path fill="url(#SVGID_13_)" d="M63.609,90.347c0-1.67,1.355-3.023,3.022-3.023c1.669,0,3.021,1.353,3.021,3.023
			c0,1.669-1.352,3.022-3.021,3.022C64.965,93.369,63.609,92.016,63.609,90.347L63.609,90.347z"/>
		<path opacity="0.5" fill="#FFFFFF" d="M66.701,88.385c1.361,0,2.475,1.013,2.653,2.327c0.017-0.119,0.036-0.238,0.036-0.362
			c0-1.489-1.204-2.691-2.689-2.691s-2.69,1.204-2.69,2.691c0,0.124,0.02,0.243,0.036,0.362
			C64.226,89.397,65.341,88.385,66.701,88.385z"/>
	</g>
	<g>
		
			<linearGradient id="SVGID_14_" gradientUnits="userSpaceOnUse" x1="-1235.8257" y1="13.2764" x2="-1228.1128" y2="13.2764" gradientTransform="matrix(0.7836 7.940836e-06 0 0.7836 1041.79 79.9521)">
			<stop  offset="0" style="stop-color:#FFD207"/>
			<stop  offset="1" style="stop-color:#FAA61A"/>
		</linearGradient>
		<path fill="url(#SVGID_14_)" d="M73.404,90.347c0-1.67,1.355-3.023,3.023-3.023c1.669,0,3.021,1.353,3.021,3.023
			c0,1.669-1.352,3.022-3.021,3.022C74.76,93.369,73.404,92.016,73.404,90.347L73.404,90.347z"/>
		<path opacity="0.5" fill="#FFFFFF" d="M76.497,88.385c1.36,0,2.474,1.013,2.653,2.327c0.017-0.119,0.035-0.238,0.035-0.362
			c0-1.489-1.203-2.691-2.688-2.691s-2.691,1.204-2.691,2.691c0,0.124,0.02,0.243,0.036,0.362
			C74.021,89.397,75.137,88.385,76.497,88.385z"/>
	</g>
	<g>
		
			<linearGradient id="SVGID_15_" gradientUnits="userSpaceOnUse" x1="-1231.5063" y1="26.5796" x2="-1223.7915" y2="26.5796" gradientTransform="matrix(0.7836 7.940836e-06 0 0.7836 1041.79 79.9521)">
			<stop  offset="0" style="stop-color:#99DBF6"/>
			<stop  offset="1" style="stop-color:#00B2DE"/>
		</linearGradient>
		<path fill="url(#SVGID_15_)" d="M76.789,100.771c0-1.671,1.355-3.023,3.023-3.023c1.669,0,3.021,1.352,3.021,3.023
			c0,1.669-1.353,3.021-3.021,3.021C78.145,103.793,76.789,102.44,76.789,100.771L76.789,100.771z"/>
		<path opacity="0.5" fill="#FFFFFF" d="M79.882,98.809c1.36,0,2.474,1.013,2.653,2.329c0.016-0.121,0.035-0.24,0.035-0.363
			c0-1.49-1.203-2.692-2.688-2.692s-2.691,1.204-2.691,2.692c0,0.123,0.02,0.242,0.036,0.363
			C77.406,99.821,78.521,98.809,79.882,98.809z"/>
	</g>
	<g>
		
			<linearGradient id="SVGID_16_" gradientUnits="userSpaceOnUse" x1="-1215.5122" y1="37.9639" x2="-1207.7983" y2="37.9639" gradientTransform="matrix(0.7836 7.940836e-06 0 0.7836 1041.79 79.9521)">
			<stop  offset="0" style="stop-color:#FFD207"/>
			<stop  offset="1" style="stop-color:#FAA61A"/>
		</linearGradient>
		<path fill="url(#SVGID_16_)" d="M89.322,109.691c0-1.67,1.355-3.022,3.023-3.022c1.669,0,3.021,1.352,3.021,3.022
			c0,1.67-1.352,3.022-3.021,3.022C90.678,112.714,89.322,111.361,89.322,109.691L89.322,109.691z"/>
		<path opacity="0.5" fill="#FFFFFF" d="M92.414,107.729c1.361,0,2.475,1.013,2.654,2.327c0.016-0.119,0.035-0.239,0.035-0.362
			c0-1.489-1.203-2.691-2.689-2.691c-1.484,0-2.69,1.204-2.69,2.691c0,0.123,0.02,0.243,0.036,0.362
			C89.939,108.742,91.055,107.729,92.414,107.729z"/>
	</g>
	<g>
		
			<linearGradient id="SVGID_17_" gradientUnits="userSpaceOnUse" x1="-1230.2251" y1="41.8511" x2="-1222.5132" y2="41.8511" gradientTransform="matrix(0.7836 7.940836e-06 0 0.7836 1041.79 79.9521)">
			<stop  offset="0" style="stop-color:#EC008C"/>
			<stop  offset="1" style="stop-color:#C40075"/>
		</linearGradient>
		<path fill="url(#SVGID_17_)" d="M77.793,112.738c0-1.671,1.354-3.023,3.021-3.023c1.67,0,3.021,1.352,3.021,3.023
			c0,1.669-1.352,3.021-3.021,3.021C79.147,115.76,77.793,114.407,77.793,112.738L77.793,112.738z"/>
		<path opacity="0.5" fill="#FFFFFF" d="M80.885,110.775c1.36,0,2.474,1.013,2.652,2.328c0.018-0.12,0.037-0.24,0.037-0.362
			c0-1.489-1.204-2.692-2.689-2.692c-1.486,0-2.691,1.205-2.691,2.692c0,0.122,0.02,0.242,0.036,0.362
			C78.408,111.788,79.523,110.775,80.885,110.775z"/>
	</g>
	<g>
		
			<linearGradient id="SVGID_18_" gradientUnits="userSpaceOnUse" x1="-1244.7417" y1="34.3135" x2="-1237.0298" y2="34.3135" gradientTransform="matrix(0.7836 7.940836e-06 0 0.7836 1041.79 79.9521)">
			<stop  offset="0" style="stop-color:#FF9D00"/>
			<stop  offset="1" style="stop-color:#FF1F00"/>
		</linearGradient>
		<path fill="url(#SVGID_18_)" d="M66.418,106.832c0-1.671,1.354-3.023,3.022-3.023c1.669,0,3.021,1.353,3.021,3.023
			c0,1.668-1.352,3.021-3.021,3.021C67.772,109.854,66.418,108.5,66.418,106.832L66.418,106.832z"/>
		<path opacity="0.5" fill="#FFFFFF" d="M69.51,104.869c1.361,0,2.474,1.014,2.652,2.328c0.018-0.12,0.037-0.239,0.037-0.363
			c0-1.488-1.204-2.691-2.689-2.691c-1.486,0-2.691,1.204-2.691,2.691c0,0.124,0.02,0.243,0.036,0.363
			C67.034,105.883,68.148,104.869,69.51,104.869z"/>
	</g>
	<g>
		
			<linearGradient id="SVGID_19_" gradientUnits="userSpaceOnUse" x1="-1256.1392" y1="43.9834" x2="-1248.4263" y2="43.9834" gradientTransform="matrix(0.7836 7.940836e-06 0 0.7836 1041.79 79.9521)">
			<stop  offset="0" style="stop-color:#EC008C"/>
			<stop  offset="1" style="stop-color:#C40075"/>
		</linearGradient>
		<path fill="url(#SVGID_19_)" d="M57.486,114.408c0-1.67,1.355-3.023,3.022-3.023c1.669,0,3.021,1.353,3.021,3.023
			c0,1.669-1.353,3.021-3.021,3.021C58.842,117.43,57.486,116.077,57.486,114.408L57.486,114.408z"/>
		<path opacity="0.5" fill="#FFFFFF" d="M60.578,112.446c1.36,0,2.475,1.013,2.653,2.328c0.017-0.12,0.036-0.24,0.036-0.363
			c0-1.489-1.203-2.692-2.689-2.692c-1.485,0-2.69,1.205-2.69,2.692c0,0.123,0.02,0.243,0.036,0.363
			C58.103,113.459,59.218,112.446,60.578,112.446z"/>
	</g>
	<g>
		
			<linearGradient id="SVGID_20_" gradientUnits="userSpaceOnUse" x1="-1290.3345" y1="42.6504" x2="-1282.6216" y2="42.6504" gradientTransform="matrix(0.7836 7.940836e-06 0 0.7836 1041.79 79.9521)">
			<stop  offset="0" style="stop-color:#99DBF6"/>
			<stop  offset="1" style="stop-color:#00B2DE"/>
		</linearGradient>
		<path fill="url(#SVGID_20_)" d="M30.691,113.363c0-1.67,1.355-3.023,3.023-3.023c1.669,0,3.021,1.353,3.021,3.023
			c0,1.669-1.352,3.022-3.021,3.022C32.047,116.386,30.691,115.032,30.691,113.363L30.691,113.363z"/>
		<path opacity="0.5" fill="#FFFFFF" d="M33.784,111.401c1.36,0,2.474,1.013,2.652,2.327c0.018-0.119,0.036-0.239,0.036-0.362
			c0-1.489-1.203-2.691-2.688-2.691c-1.486,0-2.691,1.204-2.691,2.691c0,0.123,0.02,0.243,0.036,0.362
			C31.308,112.414,32.423,111.401,33.784,111.401z"/>
	</g>
	<linearGradient id="SVGID_21_" gradientUnits="userSpaceOnUse" x1="49.8408" y1="41.1729" x2="80.2197" y2="41.1729">
		<stop  offset="0" style="stop-color:#8A6031"/>
		<stop  offset="1" style="stop-color:#3C160F"/>
	</linearGradient>
	<path fill="url(#SVGID_21_)" d="M49.991,37.195c0.595-1.459,5.985,7.06,14.674,6.586c9.216-0.502,14.022-7.138,15.098-7.138
		c1.074,0,0.394,2.531-3.549,4.801c-2.782,1.601-9.399,4.258-12.981,4.258S48.416,41.055,49.991,37.195z"/>
</g>
</svg>
