<?xml version="1.0" encoding="utf-8"?>
<!-- Generator: Adobe Illustrator 13.0.0, SVG Export Plug-In . SVG Version: 6.00 Build 14948)  -->
<!DOCTYPE svg PUBLIC "-//W3C//DTD SVG 1.1//EN" "http://www.w3.org/Graphics/SVG/1.1/DTD/svg11.dtd">
<svg version="1.1" id="Layer_1" xmlns="http://www.w3.org/2000/svg" xmlns:xlink="http://www.w3.org/1999/xlink" x="0px" y="0px"
	 width="128px" height="128px" viewBox="0 0 128 128" enable-background="new 0 0 128 128" xml:space="preserve">
<g>
	<g>
		<path fill="#99DBF6" d="M29.698,47.301l0.022-0.004l0.07-0.082l-0.03,0.012C29.746,47.252,29.721,47.278,29.698,47.301
			L29.698,47.301z"/>
		<path fill="#99DBF6" d="M29.728,47.201c0.033-0.037,0.048-0.053,0.056-0.07l-0.025,0.004l-0.03,0.04l-0.011-0.007l0.044-0.049
			l-0.029,0.012c0,0-0.093,0.096-0.122,0.133h0.011l0.056-0.052h0.015c-0.011,0.011-0.055,0.066-0.055,0.077
			C29.665,47.26,29.694,47.227,29.728,47.201L29.728,47.201z"/>
		<path fill="#99DBF6" d="M28.999,47.463c0,0-0.029-0.004-0.218,0.174l-0.022,0.008c-0.022,0.012-0.159,0.174-0.159,0.196
			c0,0,0.078-0.052,0.174-0.151c0.052,0,0.13-0.049,0.151-0.063c0.026-0.015,0.056-0.036,0.078-0.06
			c0.037-0.033,0.147-0.162,0.137-0.181l0,0C29.14,47.386,29.025,47.445,28.999,47.463L28.999,47.463z"/>
		<path fill="#99DBF6" d="M28.308,48.088c0,0,0.033-0.033,0.059-0.059c0.026-0.033,0.03-0.041,0.03-0.041l0,0
			C28.396,47.988,28.308,48.066,28.308,48.088L28.308,48.088z"/>
		<polygon fill="#99DBF6" points="28.363,47.963 28.263,48.066 28.293,48.048 28.374,47.963 		"/>
		<path fill="#99DBF6" d="M28.171,48.1c0-0.029-0.052,0.021-0.078,0.045l-0.089,0.096c-0.007,0.019-0.015,0.033-0.029,0.045
			c-0.133,0.144-0.133,0.147-0.133,0.147s0.011,0.007,0.048-0.026l0.056-0.055l0.066-0.053l0.044-0.048h0.015l0.111-0.13h-0.008
			c-0.011,0.02-0.033,0.033-0.044,0.049c0.07-0.089,0.07-0.096,0.07-0.096c-0.015,0-0.019,0.014-0.019,0.014L28.171,48.1z"/>
		<path fill="#99DBF6" d="M27.812,48.439c-0.019,0.008-0.044,0.02-0.059,0.033l-0.097,0.115c0.052-0.033,0.052-0.033,0.082-0.059
			c0.036-0.03,0.104-0.123,0.104-0.123S27.834,48.418,27.812,48.439L27.812,48.439z"/>
		<path fill="#99DBF6" d="M27.652,48.572l0.012-0.01c0,0,0.029-0.03,0.096-0.119c0.026-0.029,0.052-0.059,0.082-0.088h-0.019
			c-0.022,0.01-0.111,0.11-0.163,0.162c-0.104,0.089-0.104,0.089-0.211,0.211c0.012-0.008,0.026-0.016,0.033-0.029
			c0.022-0.022,0.093-0.082,0.186-0.16L27.652,48.572L27.652,48.572z"/>
		<path fill="#99DBF6" d="M27.231,48.91c0,0,0.007,0,0.052-0.06c0.015-0.019,0.029-0.034,0.048-0.056c-0.026,0.019-0.1,0.1-0.1,0.1
			V48.91z"/>
		<path fill="#99DBF6" d="M26.765,49.312c-0.033,0.041-0.066,0.086-0.106,0.122v0.004c0,0,0.019-0.015,0.048-0.052
			c0.07-0.074,0.07-0.078,0.07-0.078l0.004-0.007L26.765,49.312L26.765,49.312z"/>
		<path fill="#A4D9E6" d="M18.739,72.289l-0.019,0.012c-0.008,0.021-0.052,0.154-0.056,0.207c0,0.033,0.015,0.055,0.044,0.044
			c0.004,0.04,0.008,0.06,0.008,0.06c0.015-0.004,0.029-0.02,0.041-0.137l0.003-0.004c0-0.019,0.012-0.033,0.019-0.053
			C18.794,72.363,18.761,72.289,18.739,72.289L18.739,72.289z"/>
		<path fill="#A4D9E6" d="M19.131,72.866c0,0-0.025-0.011-0.011-0.118c-0.019-0.008-0.026-0.012-0.026-0.012
			c-0.019,0.004-0.048,0.012-0.052,0.104c0,0.041,0,0.063,0,0.063c0.008,0.029,0.019,0.056,0.022,0.089
			c0,0.021-0.008,0.048-0.004,0.074l0.015,0.029c0.015,0.018,0.063,0.037,0.085-0.089C19.176,72.889,19.131,72.866,19.131,72.866
			L19.131,72.866z"/>
		<path fill="#A4D9E6" d="M19.419,73.062l-0.015-0.004l-0.025,0.004c-0.026,0-0.033,0-0.033,0c-0.03,0-0.052,0.004-0.056,0.037
			c-0.008,0.029,0,0.104,0.011,0.125c0.022,0.045,0.056-0.029,0.06-0.044c0.022-0.004,0.048-0.011,0.066-0.015l0.004-0.022
			C19.441,73.077,19.427,73.066,19.419,73.062L19.419,73.062z"/>
		<path fill="#A4D9E6" d="M19.541,73.599c0,0,0.07,0.007,0.089-0.114c0.008-0.101-0.036-0.127-0.055-0.134
			c-0.012-0.073-0.022-0.093-0.056-0.093c0,0-0.037,0.008-0.07,0.045c-0.008,0.019,0,0.033,0,0.033
			c0.004,0.122,0.033,0.133,0.062,0.107C19.497,73.592,19.52,73.613,19.541,73.599L19.541,73.599z"/>
		<path fill="#A4D9E6" d="M19.886,74.294c-0.008-0.033-0.004-0.07-0.012-0.104c-0.003-0.026-0.011-0.06-0.025-0.085
			c-0.019-0.052-0.06-0.141-0.141-0.166c0.015-0.045,0.015-0.07,0-0.097c-0.019,0.019-0.06,0.06-0.041,0.321
			c-0.062,0.053-0.081,0.156-0.089,0.219c-0.003,0.052,0.019,0.129,0.037,0.162l0.012,0.012c0.003,0.059-0.008,0.133-0.004,0.185
			c0.007,0.233,0.062,0.252,0.062,0.252l0.008-0.008c0,0,0.007-0.026,0.007-0.033c0.008-0.037,0.008-0.106,0.056-0.188
			c0.037-0.062,0.118-0.089,0.151-0.152l0.037-0.121c0.015-0.07-0.019-0.148-0.055-0.193L19.886,74.294L19.886,74.294z"/>
		<path fill="#A4D9E6" d="M24.213,101.546l0.17,0.237c0,0-0.037-0.063-0.07-0.107c-0.055-0.082-0.089-0.122-0.089-0.122
			L24.213,101.546z"/>
		<path fill="#A4D9E6" d="M24.42,101.797v0.008c0.089,0.126,0.122,0.17,0.137,0.178c0,0,0-0.008-0.073-0.111
			C24.457,101.834,24.435,101.801,24.42,101.797L24.42,101.797z"/>
		<path fill="#99DBF6" d="M30.733,103.854h-0.007l0.011,0.067c0,0,0.008,0.019,0.03,0.04c0.025,0.029,0.11,0.104,0.158,0.115
			c0,0,0.063,0.015,0.026-0.041C30.923,103.987,30.771,103.854,30.733,103.854L30.733,103.854z"/>
		
			<linearGradient id="SVGID_1_" gradientUnits="userSpaceOnUse" x1="-154.752" y1="-686.8359" x2="-224.9504" y2="-637.6828" gradientTransform="matrix(1 0 0 -1 246.7271 -588.7695)">
			<stop  offset="0" style="stop-color:#DEDEDE"/>
			<stop  offset="1" style="stop-color:#FEFEFE"/>
		</linearGradient>
		<path fill="url(#SVGID_1_)" stroke="#094763" stroke-miterlimit="3.8637" d="M99.607,70.499
			c1.653,23.616-16.145,44.104-39.742,45.753c-23.602,1.654-44.07-16.156-45.72-39.775c-1.65-23.613,16.141-44.1,39.746-45.75
			C77.489,29.073,97.954,46.887,99.607,70.499L99.607,70.499z"/>
		<g>
			
				<linearGradient id="SVGID_2_" gradientUnits="userSpaceOnUse" x1="-243.3047" y1="-662.4644" x2="-243.3047" y2="-656.7866" gradientTransform="matrix(1 0 0 -1 246.7271 -588.7695)">
				<stop  offset="0" style="stop-color:#32AECE"/>
				<stop  offset="1" style="stop-color:#094E86"/>
			</linearGradient>
			<polygon fill="url(#SVGID_2_)" points="5.971,73.695 0.586,73.41 0.863,68.018 6.26,68.302 			"/>
			
				<linearGradient id="SVGID_3_" gradientUnits="userSpaceOnUse" x1="-239.9893" y1="-647.1074" x2="-239.9893" y2="-640.1875" gradientTransform="matrix(1 0 0 -1 246.7271 -588.7695)">
				<stop  offset="0" style="stop-color:#32AECE"/>
				<stop  offset="1" style="stop-color:#094E86"/>
			</linearGradient>
			<polygon fill="url(#SVGID_3_)" points="8.346,58.338 3.278,56.496 5.12,51.418 10.198,53.267 			"/>
			
				<linearGradient id="SVGID_4_" gradientUnits="userSpaceOnUse" x1="-231.9888" y1="-633.0996" x2="-231.9888" y2="-625.5215" gradientTransform="matrix(1 0 0 -1 246.7271 -588.7695)">
				<stop  offset="0" style="stop-color:#32AECE"/>
				<stop  offset="1" style="stop-color:#094E86"/>
			</linearGradient>
			<polygon fill="url(#SVGID_4_)" points="15.21,44.33 10.949,41.006 14.278,36.752 18.528,40.073 			"/>
			
				<linearGradient id="SVGID_5_" gradientUnits="userSpaceOnUse" x1="-220.0605" y1="-622.0625" x2="-220.0605" y2="-614.54" gradientTransform="matrix(1 0 0 -1 246.7271 -588.7695)">
				<stop  offset="0" style="stop-color:#32AECE"/>
				<stop  offset="1" style="stop-color:#094E86"/>
			</linearGradient>
			<polygon fill="url(#SVGID_5_)" points="26.007,33.293 22.911,28.87 27.331,25.771 30.423,30.197 			"/>
			
				<linearGradient id="SVGID_6_" gradientUnits="userSpaceOnUse" x1="-205.2935" y1="-614.5762" x2="-205.2935" y2="-607.8418" gradientTransform="matrix(1 0 0 -1 246.7271 -588.7695)">
				<stop  offset="0" style="stop-color:#32AECE"/>
				<stop  offset="1" style="stop-color:#094E86"/>
			</linearGradient>
			<polygon fill="url(#SVGID_6_)" points="39.645,25.807 38.064,20.645 43.229,19.072 44.804,24.231 			"/>
			
				<linearGradient id="SVGID_7_" gradientUnits="userSpaceOnUse" x1="-189.2188" y1="-611.6035" x2="-189.2188" y2="-606.2031" gradientTransform="matrix(1 0 0 -1 246.7271 -588.7695)">
				<stop  offset="0" style="stop-color:#32AECE"/>
				<stop  offset="1" style="stop-color:#094E86"/>
			</linearGradient>
			<polygon fill="url(#SVGID_7_)" points="54.812,22.834 54.809,17.434 60.209,17.434 60.209,22.834 			"/>
			
				<linearGradient id="SVGID_8_" gradientUnits="userSpaceOnUse" x1="-173.0049" y1="-615.0684" x2="-173.0049" y2="-608.2637" gradientTransform="matrix(1 0 0 -1 246.7271 -588.7695)">
				<stop  offset="0" style="stop-color:#32AECE"/>
				<stop  offset="1" style="stop-color:#094E86"/>
			</linearGradient>
			<polygon fill="url(#SVGID_8_)" points="70.321,24.631 71.989,19.494 77.123,21.162 75.455,26.299 			"/>
			
				<linearGradient id="SVGID_9_" gradientUnits="userSpaceOnUse" x1="-158.4336" y1="-622.9766" x2="-158.4336" y2="-615.4355" gradientTransform="matrix(1 0 0 -1 246.7271 -588.7695)">
				<stop  offset="0" style="stop-color:#32AECE"/>
				<stop  offset="1" style="stop-color:#094E86"/>
			</linearGradient>
			<polygon fill="url(#SVGID_9_)" points="84.521,31.029 87.694,26.666 92.066,29.839 88.885,34.207 			"/>
			
				<linearGradient id="SVGID_10_" gradientUnits="userSpaceOnUse" x1="-146.8105" y1="-634.5498" x2="-146.8105" y2="-627.0078" gradientTransform="matrix(1 0 0 -1 246.7271 -588.7695)">
				<stop  offset="0" style="stop-color:#32AECE"/>
				<stop  offset="1" style="stop-color:#094E86"/>
			</linearGradient>
			<polygon fill="url(#SVGID_10_)" points="96.146,41.412 100.521,38.238 103.688,42.604 99.326,45.78 			"/>
			
				<linearGradient id="SVGID_11_" gradientUnits="userSpaceOnUse" x1="-139.2207" y1="-648.7266" x2="-139.2207" y2="-641.9287" gradientTransform="matrix(1 0 0 -1 246.7271 -588.7695)">
				<stop  offset="0" style="stop-color:#32AECE"/>
				<stop  offset="1" style="stop-color:#094E86"/>
			</linearGradient>
			<polygon fill="url(#SVGID_11_)" points="104.105,54.824 109.239,53.159 110.907,58.293 105.773,59.957 			"/>
			
				<linearGradient id="SVGID_12_" gradientUnits="userSpaceOnUse" x1="-136.4243" y1="-664.0757" x2="-136.4243" y2="-658.5874" gradientTransform="matrix(1 0 0 -1 246.7271 -588.7695)">
				<stop  offset="0" style="stop-color:#32AECE"/>
				<stop  offset="1" style="stop-color:#094E86"/>
			</linearGradient>
			<polygon fill="url(#SVGID_12_)" points="107.557,69.911 112.953,69.818 113.049,75.215 107.652,75.307 			"/>
			
				<linearGradient id="SVGID_13_" gradientUnits="userSpaceOnUse" x1="-139.5537" y1="-682.7808" x2="-139.5537" y2="-675.8608" gradientTransform="matrix(1 0 0 -1 246.7271 -588.7695)">
				<stop  offset="0" style="stop-color:#32AECE"/>
				<stop  offset="1" style="stop-color:#094E86"/>
			</linearGradient>
			<polygon fill="url(#SVGID_13_)" points="105.559,87.092 110.63,88.934 108.784,94.012 103.717,92.162 			"/>
			
				<linearGradient id="SVGID_14_" gradientUnits="userSpaceOnUse" x1="-147.5596" y1="-697.4507" x2="-147.5596" y2="-689.8706" gradientTransform="matrix(1 0 0 -1 246.7271 -588.7695)">
				<stop  offset="0" style="stop-color:#32AECE"/>
				<stop  offset="1" style="stop-color:#094E86"/>
			</linearGradient>
			<polygon fill="url(#SVGID_14_)" points="98.701,101.102 102.955,104.428 99.626,108.682 95.38,105.355 			"/>
			
				<linearGradient id="SVGID_15_" gradientUnits="userSpaceOnUse" x1="-159.4839" y1="-708.4272" x2="-159.4839" y2="-700.9077" gradientTransform="matrix(1 0 0 -1 246.7271 -588.7695)">
				<stop  offset="0" style="stop-color:#32AECE"/>
				<stop  offset="1" style="stop-color:#094E86"/>
			</linearGradient>
			<polygon fill="url(#SVGID_15_)" points="87.905,112.139 91.001,116.562 86.581,119.658 83.485,115.238 			"/>
			
				<linearGradient id="SVGID_16_" gradientUnits="userSpaceOnUse" x1="-174.2549" y1="-715.1265" x2="-174.2549" y2="-708.3901" gradientTransform="matrix(1 0 0 -1 246.7271 -588.7695)">
				<stop  offset="0" style="stop-color:#32AECE"/>
				<stop  offset="1" style="stop-color:#094E86"/>
			</linearGradient>
			<polygon fill="url(#SVGID_16_)" points="74.268,119.621 75.84,124.781 70.684,126.357 69.104,121.197 			"/>
			
				<linearGradient id="SVGID_17_" gradientUnits="userSpaceOnUse" x1="-190.332" y1="-716.769" x2="-190.332" y2="-711.3726" gradientTransform="matrix(1 0 0 -1 246.7271 -588.7695)">
				<stop  offset="0" style="stop-color:#32AECE"/>
				<stop  offset="1" style="stop-color:#094E86"/>
			</linearGradient>
			<polygon fill="url(#SVGID_17_)" points="59.096,122.604 59.096,128 53.695,128 53.695,122.604 			"/>
			
				<linearGradient id="SVGID_18_" gradientUnits="userSpaceOnUse" x1="-206.5415" y1="-714.7046" x2="-206.5415" y2="-707.9019" gradientTransform="matrix(1 0 0 -1 246.7271 -588.7695)">
				<stop  offset="0" style="stop-color:#32AECE"/>
				<stop  offset="1" style="stop-color:#094E86"/>
			</linearGradient>
			<polygon fill="url(#SVGID_18_)" points="43.587,120.802 41.919,125.936 36.785,124.268 38.453,119.133 			"/>
			
				<linearGradient id="SVGID_19_" gradientUnits="userSpaceOnUse" x1="-221.1108" y1="-707.5366" x2="-221.1108" y2="-699.9946" gradientTransform="matrix(1 0 0 -1 246.7271 -588.7695)">
				<stop  offset="0" style="stop-color:#32AECE"/>
				<stop  offset="1" style="stop-color:#094E86"/>
			</linearGradient>
			<polygon fill="url(#SVGID_19_)" points="29.388,114.398 26.214,118.768 21.846,115.594 25.02,111.226 			"/>
			
				<linearGradient id="SVGID_20_" gradientUnits="userSpaceOnUse" x1="-232.7378" y1="-695.9624" x2="-232.7378" y2="-688.4214" gradientTransform="matrix(1 0 0 -1 246.7271 -588.7695)">
				<stop  offset="0" style="stop-color:#32AECE"/>
				<stop  offset="1" style="stop-color:#094E86"/>
			</linearGradient>
			<polygon fill="url(#SVGID_20_)" points="17.755,104.024 13.395,107.193 10.225,102.826 14.585,99.652 			"/>
			
				<linearGradient id="SVGID_21_" gradientUnits="userSpaceOnUse" x1="-240.3257" y1="-681.0425" x2="-240.3257" y2="-674.2407" gradientTransform="matrix(1 0 0 -1 246.7271 -588.7695)">
				<stop  offset="0" style="stop-color:#32AECE"/>
				<stop  offset="1" style="stop-color:#094E86"/>
			</linearGradient>
			<polygon fill="url(#SVGID_21_)" points="9.803,90.609 4.669,92.273 3.001,87.14 8.135,85.472 			"/>
		</g>
		<g>
			<g>
				
					<linearGradient id="SVGID_22_" gradientUnits="userSpaceOnUse" x1="-182.4253" y1="-703.7998" x2="-182.4253" y2="-619.8203" gradientTransform="matrix(1 0 0 -1 246.7271 -588.7695)">
					<stop  offset="0" style="stop-color:#32AECE"/>
					<stop  offset="1" style="stop-color:#094E86"/>
				</linearGradient>
				<path id="SVGID_35_" fill="url(#SVGID_22_)" d="M68.664,33.441c-0.354-0.362-0.799-0.277-1.312-0.325
					c-1.303-0.134-2.727-0.688-4.006-0.88c-0.045,0.01-0.107,0.003-0.111,0.055c0.614,0.393,1.287,0.393,2.138,0.496
					C66.493,32.916,67.551,33.607,68.664,33.441z M84.794,48.913c-0.044,0.011-0.066,0.041-0.059,0.107
					c0.27,0.358,0.562,0.784,0.88,1.15c0.292,0.337,0.633,0.939,1.099,0.876C86.407,50.034,85.801,49.031,84.794,48.913z
					 M79.639,47.867c-0.285-0.519-0.437-1.174-0.662-1.758c-0.374,0.078-0.637,0.273-0.925,0.44
					c-0.078,0.528-0.182,1.032-0.44,1.372C78.1,48.389,79.287,48.65,79.639,47.867z M60.22,44.797
					c-0.677-0.086-1.139-0.049-1.701-0.056c-0.111,0.104-0.122,0.317-0.273,0.385c-1.402-0.274-1.779,0.722-2.689,1.099
					c0.078,0.75,0.759,0.887,1.376,1.098c0.178-0.211,0.507-0.262,0.548-0.599c0.025-0.192-0.277-0.345-0.107-0.495
					c0.196,0.373,0.433-0.137,0.71-0.167c0.06,0.448-0.418,0.776-0.385,1.368c-0.433-0.007-0.503,0.337-0.599,0.658
					c0.125,0.256,0.462,0.301,0.766,0.389c-0.252,0.022-0.418,0.13-0.662,0.163c-0.581-0.211-1.979-1.243-2.245-0.385
					c0.011,0.077,0.27-0.052,0.437,0c0.232,0.403,0.447,0.832,0.658,1.261c0.507-0.251,0.884,0.026,1.206,0.107
					c1.01,0.264,1.461-0.389,2.248-0.107c0.06-0.225,0.093-0.506-0.055-0.658c-0.548,0.186-0.622-0.392-0.933-0.439
					c0.226-0.163,0.825,0.225,1.154-0.107c0.141-0.236,0.229-0.604,0.11-0.936c0.211-0.352,0.581-0.548,1.099-0.6
					c0.57-0.551,0.437-1.52,0.722-2.305C61.119,44.756,60.553,44.242,60.22,44.797z M54.901,50.496
					c0.185,0.037,0.166,0.273,0.27,0.385c0.521-0.115,0.662-0.617,0.991-0.924c-0.188-0.104-0.158-0.434-0.388-0.496
					c-0.178,0.303-0.744,0.199-0.933,0.496C54.924,50.156,54.85,50.382,54.901,50.496z M54.901,32.125
					c0.004,0.496,1.391,0.48,1.643,0.055C56.07,32.109,55.39,31.988,54.901,32.125z M62.576,45.51
					c-0.114,0.485-0.532,0.666-0.714,1.096c-0.271-0.093-0.377,0.085-0.6,0.162c0.086,0.174,0.03,0.311-0.059,0.444
					c0.706,0.484,1.639,0.747,2.8,0.766c0.185-0.07,0.207-0.308,0.44-0.325c1.553,0.104,2.142,1.184,3.125,1.863
					c0.285,0.041,0.362-0.117,0.596-0.114c0.104,0.093,0.141,0.233,0.11,0.444c-0.055,0.125-0.365-0.004-0.329,0.215
					c0.111,0.605,1.354,0.077,1.425,0.717c-0.034,0.174-0.208,0.229-0.215,0.44c0.389,1.22,1.328,1.938,2.471,2.474
					c0.991,0.459,1.372,1.203,2.578,1.203c0.54-0.223,0.98-0.555,1.099-1.203c-0.281-0.983-1.18-1.35-1.214-2.585
					c0.174-0.155,0.359-0.3,0.552-0.433c0.029-0.307,0.089-0.577,0.162-0.824c-0.562-1.162,0.426-1.969,0.821-2.693
					c-0.107-0.555-0.488-0.82-0.766-1.15c-0.162-0.188-0.151-0.355-0.333-0.492c-0.085-0.07-0.255-0.07-0.381-0.166
					c-0.559-0.43-0.909-1.176-1.32-1.531c-0.277-0.252-0.77-0.447-1.091-0.718c-0.296-0.247-0.374-0.562-0.722-0.603
					c-0.248-0.062-0.211,0.151-0.439,0.111c-0.382-0.574-0.792-1.106-1.099-1.758c-0.233,0.049-0.259-0.104-0.44-0.107
					c0.052,0.475-0.995,0.271-0.987,0.873c-0.478-0.011-0.821-0.158-1.365-0.107c-0.414,0.686-1.043,1.154-1.916,1.373
					c-0.041,0.218,0.045,0.314,0.052,0.492c-0.137,0.051-0.236,0.129-0.443,0.11c-0.082,0.685-0.947,0.589-1.258,1.04
					c0.048,0.284,0.188,0.469,0.226,0.769C63.083,45.355,62.949,45.547,62.576,45.51z M92.036,53.352
					c-0.348-0.725-0.95-1.283-1.213-1.92c-0.321-0.779-0.233-1.482-0.654-2.086c0.299,0.17,0.458-0.107,0.817-0.051
					c0.174-0.452-0.223-0.866-0.552-1.262c0.03,0.129-0.325,0.078-0.321,0.329c-0.403-0.208-0.695-0.515-0.832-0.987
					c0.218,0.014,0.207-0.2,0.277-0.33c0.421,0.057,0.603,0.541,0.854,0.744c-1.077-1.406-2.234-2.733-3.474-3.991
					c-0.88-0.817-1.716-1.62-2.566-2.404c-2.482-2.146-5.216-4.005-8.145-5.544c-0.507-0.236-1.021-0.471-1.535-0.707
					c-1.217-0.551-2.427-1.105-3.673-1.605c-3.229-1.176-6.628-1.979-10.16-2.355c-6.462-0.467-12.968,0.322-17.596,2.208
					c-2.907,1.188-5.744,2.249-8.118,3.843c0.592-0.303,1.054-0.736,1.757-0.936c-1.047,0.821-2.063,1.668-3.019,2.582
					c0.082,0.029,0.281-0.062,0.274,0.055c-0.43,0.404-1.11,0.855-0.988,1.48c-0.385,0.048-0.473-0.404-0.82-0.438
					c-0.281-0.033-0.821,0.271-1.206,0.485c-0.714,0.407-1.494,0.691-1.757,1.323c1.028,0.274,1.701-0.742,2.796-0.332
					c-0.07,0.366-0.122,0.747-0.11,1.209c0.351,0.119,0.284,0.344,0.329,0.711c0.532-0.215,1.013-0.488,1.701-0.544
					c-0.078,0.792,0.081,1.343,0.547,1.587c0.314-0.695,0.74-1.221,1.158-1.805c0.207-0.305,0.311-0.641,0.492-0.988
					c0.292-0.543,1.116-1.231,0.495-1.92c0.921-0.539,1.347-1.582,2.356-2.034c0-0.144-0.019-0.313,0.056-0.384
					c0.28-0.101,0.595-0.174,0.662-0.492c0.558-0.438,1.283-0.596,1.805-1.1c0.107-0.096,0.162-0.232,0.273-0.324
					c0.277-0.219,0.666-0.33,0.991-0.552c0.308-0.207,0.573-0.528,0.873-0.714c0.973-0.588,2.312-0.784,3.514-1.205
					c1.202-0.426,2.508-0.67,3.729-0.881c-0.048,0.052-0.381,0.085-0.219,0.166c0.488-0.111,0.873-0.015,1.373-0.051
					c0.677-0.061,1.287-0.408,1.979-0.496c0.636-0.086,1.42,0.062,2.138,0c1.018-0.089,2.438-0.322,3.507-0.166
					c0.144,0.021-0.119,0.106,0.106,0.11c0.992,0.011,1.897,0.134,2.745,0.163c0.211,0.007,0.188,0.255,0.388,0.273
					c1.624-0.122,2.704,0.369,3.836,0.658c1.269,0.333,2.282,0.637,3.352,1.043c0.536,0.207,1.184,0.393,1.59,0.604
					c0.186,0.096,0.296,0.311,0.492,0.385c0.292,0.114,0.651,0.062,0.932,0.166c0.448,0.162,0.836,0.51,1.262,0.714
					c0.544,0.247,1.258,0.311,1.591,0.872c-1.28,0.127-1.506-1.271-2.907-1.205c0.147,0.48,1.18,1.039,0.82,1.701
					c0.811,0.614,1.432,1.417,2.471,1.809c0.285,0.588,0.84,0.666,1.373,1.039c0.284,0.207,0.495,0.545,0.769,0.719
					c0.474,0.299,1.043,0.414,1.425,0.769c0.433,0.396,0.58,1.065,0.987,1.535c0.573,0.658,1.25,0.936,2.03,1.313
					c0.037-0.256-0.074-0.655,0.056-0.822c0.511-0.014,0.844,0.145,1.262,0.219c-0.596-1.18-1.717-1.83-2.741-2.578
					c-1.602-0.369-2.452-1.79-3.565-2.463c1.099,0.229,1.435,1.225,2.526,1.476c0.192,0.089,0.029-0.185,0.159-0.167
					c1.849,1.21,3.957,2.445,4.497,4.771c-0.418-0.314-0.917-0.836-1.59-0.709c0.592,0.524,1.331,0.895,1.919,1.424
					c0,0.147-0.021,0.317,0.052,0.385c0.378,0.34,0.492,0.82,0.766,1.261c0.57,0.896,1.513,1.668,1.705,2.688
					c0.097,0.508-0.015,1.029,0.274,1.535c1.919,0.281,2.455,2.227,1.919,4.006c0.836,0.988,1.391,2.268,2.245,3.236
					c0.13-0.41,0.5-0.41,0.606-0.77c0.067-0.225,0.012-0.64,0-0.82C93.064,55.253,92.558,54.473,92.036,53.352z M90.117,93.006
					c-0.304-0.129-1.953-0.26-2.197-0.219c-0.655,0.119-1.169,0.795-1.646,0.936c-0.181-0.055-0.17-0.303-0.439-0.273
					c-0.939,0.277-2.016,0.041-2.852,0.544c0.092-1.161-0.529-2.589-1.81-2.515c-0.799,0.033-1.416,0.699-2.3,0.71
					c0-0.241,0.015-0.495-0.06-0.662h-0.766c-0.758-0.614-1.62-1.117-2.804-1.317c-0.495,0.304-1.124,0.407-1.86,0.389
					c-1.372-0.037-2.948-0.114-4.058,0.381c0.1-0.195,0.178-0.536,0-0.71c-1.398,0.706-2.885,1.321-3.617,2.686
					c-0.722,0.044-1.272-0.267-1.92-0.167c-0.27,0.049-0.491,0.314-0.772,0.334c-0.77,0.047-1.354-0.504-2.083-0.715
					c0.448-1.054,0.186-2.411-0.273-3.291c-1.062-0.285-2.475-0.444-3.617-0.326c0.259-1.209,0.821-2.107,1.316-3.074
					c-0.799-0.357-1.49-0.473-2.359-0.106c-0.718,0.3-1.302,1.076-1.976,1.206c-0.762,0.145-1.716-0.182-2.578-0.33
					c-0.089-0.465,0.06-0.762-0.055-1.209c-0.097-0.389-0.515-0.674-0.548-1.039c-0.025-0.307,0.211-0.607,0.273-0.877
					c0.2-0.881,0.304-1.812,0.329-2.8c0.329-0.281,0.585-0.718,0.984-0.821c1.176-0.299,1.643,0.385,2.415,0.44
					c0.325,0.022,0.795-0.048,1.099-0.167c0.255-0.1,0.41-0.447,0.77-0.547c0.873-0.248,1.734-0.178,2.618-0.219
					c0.655-0.029,0.814,0.104,0.995,0.785c0.233,0.883,0.914,1.338,1.095,2.223c0.06,0.288,0.796-0.359,0.844-0.43
					c0.273-0.414,0.418-1.205,0.277-1.693c-0.1-0.352-0.359-0.621-0.496-0.962c-0.133-0.345-0.089-0.685-0.232-1.021
					c0.51-0.966,1.672-1.17,2.355-1.916c0.219-0.24,0.496-0.637,0.662-0.933c0.229-0.429,0.606-1.206,0.766-1.757
					c0.204-0.695-0.118-1.379,0.219-2.197c0.776-0.314,1.59-0.6,2.245-1.035c-0.13-0.152-0.285-0.263-0.329-0.496
					c0.244-0.365,0.565-0.861,0.828-1.043c0.155-1.062,0.307-2.145,0.488-3.181c0.393-0.134,0.658-0.407,1.158-0.44
					c-0.022-0.199-0.223-0.222-0.167-0.496c-0.414-0.003-1.279,0.012-1.42-0.439c0.735-0.998,2.593-0.551,3.506-1.369
					c0.078-0.284,0.159-0.572,0.329-0.766c0.174,0.13,0.304,0.012,0.385,0.16c-0.122,0.532-0.396,1.197-0.222,1.701
					c0.592-0.41,1.376-0.641,1.92-1.096c0.011,0.057,0.059,0.086,0.107,0.107c0.036-0.211-0.345-0.178-0.6-0.218
					c-0.569-0.64-0.884-1.535-1.262-2.36c-1.105-0.803-2.748-0.961-3.843-1.756c-0.503-0.367-0.662-1.021-1.258-1.15
					c-0.299,0.307-0.344,0.869-0.721,1.094c-0.403,0.004-0.813,0.016-1.15-0.051c-0.325-0.852-0.77-1.576-1.368-2.142
					c-0.91-0.155-2.127-0.211-2.689,0.277c-0.033,1.653-0.033,3.28,0.929,3.946c-0.256,0.544-0.939,0.803-0.987,1.535
					c-0.03,0.569,0.688,1.68-0.159,2.027c-0.57-0.545-1.129-1.1-0.984-2.354c-0.592-0.144-1.117-0.377-1.705-0.605
					c-0.525-0.207-1.12-0.592-1.642-0.658c-0.6-0.078-1.258,0.191-1.81-0.219c-0.277-0.588-0.799-0.888-0.828-1.587
					c-0.044-1.173,1.217-1.702,1.649-2.53c0.718-0.085,1.214-0.684,1.587-0.928c-0.151,0.699,0.222,1.102,0.714,1.312
					c0.296-0.155,0.437-0.48,0.662-0.71c0.255,0.144,0.551,0.248,0.929,0.274V55.66c-0.77-0.311-1.535-0.618-1.976-1.262
					c0.78-0.333,2.101-0.677,1.372-1.867c0.204,0.01,0.285-0.455,0.544-0.552c0.747,0.614,2.23,0.481,2.911,1.157
					c-0.081,0.451-0.252,0.807-0.329,1.262c-0.481,0.141-0.821,0.422-1.317,0.547c0.034,0.256-0.088,0.352-0.11,0.552
					c0.532-0.06,1.035-0.13,1.538-0.218c0.763,0.532,1.62,0.969,2.627,1.257c0.218-0.151,0.473-0.263,0.772-0.329
					c0.062-0.573,0.658-0.787,0.496-1.424c-0.556-0.27-1.191-0.455-1.428-1.043c0.714-0.041,1.128,0.307,1.753,0.055
					c0.011-0.317-0.1-0.518-0.104-0.82c-0.503-0.326-0.98-0.67-1.812-0.658c-0.625-0.511-1.169-1.099-2.086-1.316
					c-0.107,0.144-0.244,0.266-0.548,0.218c-0.525-0.396-0.784-1.077-1.424-1.317c-0.614-0.225-1.401-0.154-2.245-0.328
					c-0.251,0.199-0.285,0.595-0.443,0.876c-0.107-0.237-0.223-0.478-0.437-0.603c-0.277-0.004-0.455,0.092-0.766,0.055
					c-0.399,0.548-0.674,1.721-0.115,2.301c0.57,0.192,1.084,0.137,1.702,0.219c-0.289,0.352-0.629,0.658-1.044,0.88
					c-0.351-0.159-0.606-0.521-1.039-0.44c-0.647-0.462-0.991-1.201-1.535-1.756c-0.366,0.34-0.366,1.305,0.163,1.479
					c-0.111,0.223,0.096,0.566-0.06,0.821c-0.244-0.188-0.362,0.244-0.543,0.111c0.114-0.415,0.177-0.962-0.107-1.206
					c-0.799,0.025-1.14,0.507-1.595,0.877c-1.139-0.13-1.912-0.559-2.852,0c-0.203-0.178-0.555-0.211-0.54-0.604
					c0.991,0.1,2.397,0.344,3.062-0.385c-0.321,0.057-0.336-0.588-0.603-0.766c0.044-0.525-0.104-0.847-0.107-1.32
					c-0.34-0.154-0.488-0.58-0.983-0.603c-0.174-0.007-0.366,0.155-0.548,0.167c-0.861,0.055-1.231-0.285-1.535-0.766
					c0.052-0.152,0.111-0.297,0.107-0.5c-0.389-0.182-0.577-0.107-1.043-0.052c-0.288-0.204-0.459-0.528-0.828-0.655
					c-0.496,0.519-0.877,1.162-1.31,1.75c0.318,0.5,1.231,0.074,1.753,0.385c0.252-0.24,0.418-0.566,0.773-0.71
					c0.096,0.325-0.308,0.414-0.385,0.821c-0.093,0.462,0.296,1.157-0.111,1.535c-0.776-0.596-2.138-0.604-2.686-1.428
					c-0.1-0.02-0.273,0.154-0.332,0c-0.074-0.17,0.141-0.326,0-0.381c-0.707,0.425-1.21-0.271-2.139-0.111
					c-0.311-0.252-0.658-0.478-1.098-0.604c-0.074-0.688-0.274-1.157-0.766-1.476c-0.821-0.536-1.754-0.474-0.988-1.594
					c-0.292-0.237-0.392-0.585-0.385-0.987c-0.766-0.285-1.668-0.389-2.578-0.271c-0.392,0.662-1.29,1.202-2.189,0.873
					c-0.044,0.2-0.077,0.481-0.114,0.821c0.137,0.121,0.267,0.248,0.385,0.392c-0.267,0.026-0.267,0.314-0.496,0.382
					c-0.229-0.026-0.314-0.197-0.543-0.223c-0.922,0.159-1.044,0.488-1.539,1.266c-0.451,0.706-0.544,1.472-0.766,2.189
					c0.129,0.033,0.396-0.063,0.44,0.059c-0.296,0.437-1.58,0.577-2.087,0.273c0.101,0.5,0.474,0.726,0.821,0.984
					c0.57-0.256,1.317-0.463,1.809-0.104c-0.399,0.318,0.289,0.525-0.11,0.873c0.388-0.06,0.477-0.396,0.547-0.77
					c0.459-0.178,0.722-0.969,1.262-0.711c-0.07,0.322-0.381,0.662-0.377,0.873c0.503,0.248,0.876-0.04,1.312-0.162
					c-0.06,0.178-0.147,0.329-0.166,0.547c0.188-0.025,0.311,0.026,0.439,0.057c0.5,1.184,1.731,1.642,1.702,3.351
					c0.174-0.011,0.332-0.004,0.381,0.106c0.599,1.344,0.056,3.467,0.392,4.883c-0.813,0.559-0.118,1.165,0.048,1.697
					c0.378,1.177-0.236,2.29-0.603,3.186c-0.192,0.48-0.54,0.891-0.71,1.379c-0.159,0.44-0.07,0.862-0.06,1.34
					c0.03,1.087-0.044,2.189,0.155,3.262c0.045,0.222,0.082,0.459,0.111,0.688c0.025,0.167-0.037,0.471-0.022,0.578
					c0.037,0.354,0.44,0.491,0.651,0.729c0.199,0.232,0.344,0.547,0.532,0.803c0.229,0.291,0.596,0.555,0.773,0.928
					c0.255,0.562,0.107,1.139,0.214,1.713c0.06,0.314,0.237,0.307,0.318,0.543c0.074,0.203-0.056,0.363-0.04,0.566
					c0.011,0.232,0.158,0.436,0.266,0.637c0.141,0.27,0.188,0.584,0.341,0.843c0.137,0.233,0.377,0.333,0.514,0.536
					c0.344,0.507,0.466,1.165,0.851,1.693c0.366,0.504,0.729,1.059,1.313,1.043c0.019-0.229,0.277-1.224-0.048-1.367
					c-0.618-0.274-1.158-1.11-1.495-1.661c-0.174-0.292-0.562-0.833-0.64-1.117c-0.17-0.64,0.326-1.446,0.111-1.993
					c0.325,0.055,0.307,0.396,0.373,0.654c0.219,0.881,0.47,1.738,0.711,2.522c0.994,0.44,1.498,1.01,2.09,1.812
					c0.325,0.44,0.725,0.892,0.924,1.313c0.312,0.625,0.215,1.312,0.444,1.979c0.226,0.658,0.906,1.087,1.099,1.701
					c1.753,0.637,3.473,1.312,4.826,2.355c1.199-0.725,2.023,0.186,2.853,0.658c1.646,0.94,4.46,0.622,4.989,2.412
					c0.207,0.052,0.362,0.156,0.44,0.333c0.066,0.226-0.111,0.214-0.107,0.385c0.632,0.247,1.221,0.532,1.535,1.099
					c0.917,0.406,2.326,0.277,3.229-0.06c0.24,0.389,0.844,0.411,1.103,0.77c0.015,0.481,0.096,0.799-0.052,1.157
					c-0.148,0.359-0.862,1.547-1.099,1.809c-0.322,0.367-0.795,0.562-0.98,0.984c-0.284,0.647-0.1,1.25,0.052,1.812
					c-0.84,0.344-0.406,1.369-0.107,2.031c0.43,0.11,0.77,0.321,1.146,0.491c0.352,1.409,1.646,1.864,1.92,3.347
					c1.032,0.422,2.179-0.277,3.074,0.382c0.036,0.21,0.133,0.348,0.162,0.555c-0.317,0.429-0.599,0.892-0.714,1.531
					c-1.269,1.327-1.479,3.706-3.562,4.228c-0.126,0.385-0.314,0.711-0.496,1.039c0.082,0.008,0.204-0.018,0.223,0.056
					c-0.507,0.429-1.868,0.285-1.92,0.987c0.621,0.229,1.483-0.181,2.245-0.166c0.137-0.078-0.104-0.174,0.111-0.159
					c2.056-0.718,3.99-1.431,5.817-2.474c0.755-0.264,1.395-0.367,2.086-0.659c0.659-0.277,1.021-0.813,1.591-1.15
					c0.374-0.226,0.762-0.344,1.146-0.606c1.387-0.936,3.059-1.664,4.058-2.9c0.192-0.669,0.64-1.027,1.099-1.375
					c1.894-1.446,4.202-2.889,5.485-4.883c0.458-0.703,0.518-1.583,0.983-2.522c0.807-1.598,2.652-2.651,3.181-4.664
					C90.343,93.338,90.258,93.076,90.117,93.006z M63.131,69.367c0.211,0.008,0.244,0.186,0.492,0.166
					c0.074-0.044,0.074-0.178,0.104-0.277h0.218c0.141,0.163,0.045,0.223,0.056,0.492c-0.218,0.126-0.503,0.199-0.824,0.219
					C63.061,69.841,63.038,69.556,63.131,69.367z M61.455,68.561c0.155,0.193,0.233,0.447,0.174,0.814
					c-0.399,0.11-0.839,0.145-1.228-0.016c0.259-0.572-0.525-1.205-0.991-1.42c0.406-0.592,0.647-0.377,1.12-0.062
					C60.9,68.132,61.248,68.302,61.455,68.561z M58.09,70.969c-0.122,0.222-0.219,0.455-0.24,0.699
					c-0.943,0.141-1.036-0.674-0.788-1.38c0.1-0.292,1.405-2.075,1.405-2.075c0.155,0.119,0.322,0.062,0.44,0.115
					c-0.008,0.633-0.118,1.225-0.366,1.809C58.423,70.402,58.237,70.68,58.09,70.969z M58.737,66.46
					c0.218,0.296,0.436,0.596,0.551,0.991c-1.229,0.015-2.094,0.303-3.296,0.219c-0.052-0.17-0.263-0.174-0.273-0.385
					C56.743,66.963,57.438,65.868,58.737,66.46z M93.039,51.665c-0.148-0.233-0.296-0.462-0.463-0.669
					C92.731,51.207,92.884,51.432,93.039,51.665z M98.891,71.068c-0.215-1.953-0.399-3.828-0.659-5.707
					c-0.1-0.703-0.151-1.446-0.263-2.142c-0.166-0.651-0.351-1.298-0.555-1.941c-0.247-0.64-0.536-1.291-0.776-1.946
					c-0.248-0.673-0.462-1.383-0.685-2.06c-0.681-1.608-1.457-3.163-2.312-4.668c-0.207-0.329-0.41-0.64-0.606-0.939
					c0.344,0.577,0.633,1.21,0.858,1.909c-0.341-0.304-0.703-1.162-1.04-1.1c0.318,1.694,0.655,3.363,0.929,5.105
					c-0.085,0.188-0.429,0.113-0.437,0.381c0.337,0.965,0.562,2.033,0.658,3.236c0.459,0.876,1.058,1.883,1.095,2.962
					c0.033,0.736-0.188,1.454-0.214,2.134c-0.037,0.862-0.008,1.799,0.11,2.638c0.192,1.357,0.973,2.634,1.15,4.058
					c0.06,0.529-0.096,0.961,0,1.424c0.107,0.566,0.521,1.158,0.437,1.812c0.222,0.089,0.562,0.062,0.77,0.162
					c0.155,0.326,0.292,0.659,0.329,1.096c0.226,0.081,0.437,0.185,0.662,0.277c0.178-1.336,0.851-2.563,0.873-3.898
					C99.234,72.98,98.99,72.008,98.891,71.068z M92.195,51.432c-0.303-0.244-0.273-0.828-0.718-0.936
					C91.648,50.848,91.855,51.443,92.195,51.432z M87.757,50.448c-0.11-0.843-0.418-1.96-0.884-2.634
					c-0.362-0.129-0.703-0.285-1.258-0.222c-0.784-0.403-1.535-0.843-2.359-1.21c-0.033,0.13-0.182,0.152-0.222,0.277
					c0.332,0.385,0.592,0.84,0.987,1.154c0.104-0.141,0.215-0.262,0.443-0.277c1.328,0.722,2.253,1.842,3.122,3.019
					C87.612,50.488,87.657,50.444,87.757,50.448z M66.086,85.819c0.267-0.226,0.314-0.673,0.77-0.71
					c-0.366-0.152-0.729-0.621-1.206-0.711c-0.369-0.074-0.806,0.074-1.205,0.045c-1.306-0.056-2.682-0.965-3.847-0.484
					c-0.074,0.178-0.145,0.365-0.219,0.543c0.991,0.248,1.982,0.289,2.911,0.658c0.532,0.219,1.128,0.825,1.646,0.825
					C65.357,85.993,65.661,85.482,66.086,85.819z M32.136,47.707c-0.078,0.145-0.289,0.145-0.273,0.381
					C31.984,48.025,32.243,47.818,32.136,47.707z M72.008,85.549c-0.07,0.621,0.329,0.748,0.776,0.715
					c0.045-0.314,0.267-0.463,0.382-0.715C72.784,85.238,72.434,85.397,72.008,85.549z M36.467,59.332
					c0.229-0.029,0.325-0.191,0.496-0.273c-0.097-0.385,0.07-0.422,0.218-0.658c-0.366,0.196-0.155-0.263-0.44-0.277
					c-0.011,0.082-0.114,0.066-0.162,0.111C36.752,58.693,36.378,58.804,36.467,59.332z M38.279,40.957
					c-0.215,0.041-0.447,0.06-0.548,0.215c0.078,0.033,0.134,0.089,0.167,0.166C38.109,41.297,38.19,41.123,38.279,40.957z
					 M72.67,86.755c0.044-0.081,0.133-0.114,0.273-0.107c-0.003-0.062,0.012-0.151-0.052-0.167
					C72.87,86.592,72.452,86.585,72.67,86.755z M64.277,86.755v0.552c0.459,0.314,1.254-0.078,1.372-0.607
					C65.15,86.618,64.691,86.544,64.277,86.755z M67.514,85.819c0.082,0.181,0.204,0.313,0.274,0.499
					c1.235,0.521,2.267,0.093,3.454-0.219c0.041-0.34-0.17-0.41-0.159-0.717c-1.047-0.082-1.964-0.152-3.185-0.219
					C67.84,85.449,67.596,85.557,67.514,85.819z M43.272,35.365c-0.196-0.033-0.285,0.044-0.333,0.162
					C43.088,35.55,43.402,35.269,43.272,35.365z M70.147,36.678c-0.433-0.059-0.722-0.27-1.154-0.329
					c0.012,0.222,0.167,0.308,0.163,0.548c0.259,0.074,0.536,0.121,0.817,0.162c-0.093,0.186-0.281,0.26-0.381,0.444
					c0.381,0.776,1.683,0.869,2.415,0.329c-0.462-0.414-1.032-0.725-1.809-0.828C70.096,36.926,70.277,36.797,70.147,36.678z
					 M54.628,32.069c-0.223-0.155-0.566,0.029-0.773,0.056c-0.178-0.041-0.418,0.066-0.111,0.055
					C53.987,32.243,54.564,32.447,54.628,32.069z M53.525,47.43c0.352,0,0.606-0.092,0.825-0.218v-0.333
					c-0.548,0.052-0.407-0.577-0.929-0.273C53.263,46.979,53.385,47.111,53.525,47.43z M54.568,51.214
					c-0.074-0.314,0.126-0.352,0.166-0.548c-0.096-0.307-0.199-0.599-0.277-0.932c-0.277-0.126-0.429-0.381-0.769-0.439
					c-0.455,0.348-0.825,0.779-1.095,1.316C52.93,51.137,53.625,51.303,54.568,51.214z M51.007,48.029
					c-0.585-0.141-1.28-0.939-1.705-0.27c0.081,0.281,0.236,0.495,0.388,0.713c0.478-0.17,0.836,0.289,1.266,0.381
					c0.317,0.07,0.654-0.154,0.983,0.06c0.026-0.532-0.163-0.739,0-1.153C51.487,47.56,51.276,47.889,51.007,48.029z M43.761,34.977
					c0.507-0.296,1.231-0.373,1.594-0.821C44.641,34.211,44.023,34.654,43.761,34.977z M47.933,47.315
					c0.174,0.03,0.196,0.211,0.385,0.222c0.318-0.399,1.217-0.215,1.705-0.436c-0.222-1.096-1.213-0.268-1.979-0.111
					C48.104,47.197,47.907,47.148,47.933,47.315z M53.033,48.58c0.559,0.029,0.862,0.311,1.206,0.551
					c-0.011-0.377,0.451-0.454,0.277-0.824c-0.381-0.025-0.625-0.186-0.88-0.326C53.478,48.218,53.118,48.266,53.033,48.58z"/>
			</g>
		</g>
		<g opacity="0.6">
			<path fill="#FFFFFF" d="M57.397,71.405c13.083,10.923,30.744,4.923,41.767-0.788C97.551,48.643,79.224,31.33,56.836,31.33
				c-22.451,0-40.815,17.479-42.321,39.568C24.73,65.898,43.335,59.636,57.397,71.405z"/>
		</g>
	</g>
	<g>
		<g>
			<g>
				
					<linearGradient id="SVGID_23_" gradientUnits="userSpaceOnUse" x1="-294.9253" y1="856.9375" x2="-343.1993" y2="823.1357" gradientTransform="matrix(1 0 0 1 412.6201 -813.9912)">
					<stop  offset="0" style="stop-color:#181500"/>
					<stop  offset="1" style="stop-color:#5F5D5C"/>
				</linearGradient>
				<path fill="url(#SVGID_23_)" d="M118.652,11.757c-0.926,0-1.676,0.751-1.676,1.676v23.549H95.234V13.433
					c0-0.925-0.75-1.676-1.676-1.676c-0.928,0-1.678,0.751-1.678,1.676v23.549h-21.74V13.433c0-0.925-0.75-1.676-1.676-1.676
					s-1.676,0.751-1.676,1.676v25.225c0,0.926,0.75,1.676,1.676,1.676h23.408v12.129c0,0.926,0.75,1.676,1.676,1.676
					s1.676-0.75,1.676-1.676v-12.13h23.43c0.811,0,1.484-0.574,1.642-1.338c0.021-0.108,0.034-0.222,0.034-0.339V13.433
					C120.328,12.508,119.578,11.757,118.652,11.757z"/>
			</g>
		</g>
		
			<linearGradient id="SVGID_24_" gradientUnits="userSpaceOnUse" x1="-336.9492" y1="831.7744" x2="-351.1701" y2="821.8171" gradientTransform="matrix(1 0 0 1 412.6201 -813.9912)">
			<stop  offset="0" style="stop-color:#FF1F00"/>
			<stop  offset="1" style="stop-color:#FF9D00"/>
		</linearGradient>
		<path fill="url(#SVGID_24_)" d="M76.951,14.694c0,2.211-1.795,4.004-4.006,4.004h-8.768c-2.212,0-4.006-1.793-4.006-4.004v-3.777
			c0-2.213,1.794-4.006,4.006-4.006h8.768c2.211,0,4.006,1.793,4.006,4.006V14.694z"/>
		
			<linearGradient id="SVGID_25_" gradientUnits="userSpaceOnUse" x1="-311.8257" y1="831.7754" x2="-326.0456" y2="821.8184" gradientTransform="matrix(1 0 0 1 412.6201 -813.9912)">
			<stop  offset="0" style="stop-color:#FF1F00"/>
			<stop  offset="1" style="stop-color:#FF9D00"/>
		</linearGradient>
		<path fill="url(#SVGID_25_)" d="M102.072,14.694c0,2.211-1.793,4.004-4.004,4.004H89.3c-2.213,0-4.006-1.793-4.006-4.004v-3.777
			c0-2.213,1.793-4.006,4.006-4.006h8.769c2.211,0,4.005,1.793,4.005,4.006L102.072,14.694L102.072,14.694z"/>
		
			<linearGradient id="SVGID_26_" gradientUnits="userSpaceOnUse" x1="-286.8604" y1="831.7754" x2="-301.0819" y2="821.8173" gradientTransform="matrix(1 0 0 1 412.6201 -813.9912)">
			<stop  offset="0" style="stop-color:#FF1F00"/>
			<stop  offset="1" style="stop-color:#FF9D00"/>
		</linearGradient>
		<path fill="url(#SVGID_26_)" d="M127.039,14.694c0,2.211-1.795,4.004-4.006,4.004h-8.768c-2.211,0-4.008-1.793-4.008-4.004v-3.777
			c0-2.213,1.797-4.006,4.008-4.006h8.768c2.211,0,4.006,1.793,4.006,4.006V14.694z"/>
		<path opacity="0.5" fill="#FFFFFF" d="M72.692,7.626H64.54c-2.057,0-3.725,1.667-3.725,3.725v0.656
			c0-2.058,1.668-3.725,3.725-3.725h8.152c2.055,0,3.725,1.667,3.725,3.725v-0.656C76.417,9.293,74.747,7.626,72.692,7.626z"/>
		<path opacity="0.5" fill="#FFFFFF" d="M97.692,7.626H89.54c-2.057,0-3.725,1.667-3.725,3.725v0.656
			c0-2.058,1.668-3.725,3.725-3.725h8.152c2.055,0,3.725,1.667,3.725,3.725v-0.656C101.417,9.293,99.747,7.626,97.692,7.626z"/>
		<path opacity="0.5" fill="#FFFFFF" d="M122.942,7.626h-8.152c-2.057,0-3.725,1.667-3.725,3.725v0.656
			c0-2.058,1.668-3.725,3.725-3.725h8.152c2.055,0,3.725,1.667,3.725,3.725v-0.656C126.667,9.293,124.997,7.626,122.942,7.626z"/>
	</g>
</g>
</svg>
