<?xml version="1.0" encoding="utf-8"?>
<!-- Generator: Adobe Illustrator 13.0.0, SVG Export Plug-In . SVG Version: 6.00 Build 14948)  -->
<!DOCTYPE svg PUBLIC "-//W3C//DTD SVG 1.1//EN" "http://www.w3.org/Graphics/SVG/1.1/DTD/svg11.dtd">
<svg version="1.1" id="Layer_1" xmlns="http://www.w3.org/2000/svg" xmlns:xlink="http://www.w3.org/1999/xlink" x="0px" y="0px"
	 width="128px" height="128px" viewBox="0 0 128 128" enable-background="new 0 0 128 128" xml:space="preserve">
<g>
	<g>
		
			<radialGradient id="SVGID_1_" cx="39.1934" cy="45.3164" r="38.0305" gradientTransform="matrix(1 0 0 1 0 -9.765625e-04)" gradientUnits="userSpaceOnUse">
			<stop  offset="0" style="stop-color:#FAFAFA"/>
			<stop  offset="0.3109" style="stop-color:#F4F4F4"/>
			<stop  offset="0.7262" style="stop-color:#E3E3E3"/>
			<stop  offset="1" style="stop-color:#D4D4D4"/>
		</radialGradient>
		<path fill="url(#SVGID_1_)" stroke="#B3B3B3" d="M71.174,15.403v59.823c0,7.362-5.973,13.331-13.34,13.331H20.553
			c-7.369,0-13.34-5.969-13.34-13.331V15.403c0-7.362,5.971-13.33,13.34-13.33h37.281C65.201,2.074,71.174,8.042,71.174,15.403
			L71.174,15.403z"/>
		<path fill="#B3B3B3" d="M57.975,86.893H20.69c-7.369,0-13.339-5.969-13.339-13.33v1.664c0,7.362,5.97,13.331,13.339,13.331h37.284
			c7.367,0,13.339-5.969,13.339-13.331v-1.664C71.313,80.924,65.342,86.893,57.975,86.893z"/>
		<path fill="#FFFFFF" d="M15.205,7.789c1.486-1.24,3.172-2.08,5.485-2.08h37.284c2.316,0,3.998,0.839,5.487,2.08h1.882
			c-1.876-1.893-4.156-3.033-7.369-3.033H20.69c-3.214,0-5.491,1.14-7.367,3.033H15.205z"/>
	</g>
	<g>
		<linearGradient id="SVGID_2_" gradientUnits="userSpaceOnUse" x1="33.3076" y1="19.3472" x2="33.3076" y2="48.085">
			<stop  offset="0" style="stop-color:#32AECE"/>
			<stop  offset="1" style="stop-color:#094E86"/>
		</linearGradient>
		<path fill="url(#SVGID_2_)" d="M49.551,42.875c0,2.877-2.334,5.209-5.211,5.209H22.275c-2.877,0-5.211-2.333-5.211-5.209V24.557
			c0-2.879,2.334-5.21,5.211-5.21H44.34c2.877,0,5.211,2.331,5.211,5.21V42.875z"/>
		<g>
			<linearGradient id="SVGID_3_" gradientUnits="userSpaceOnUse" x1="31.6523" y1="43.6973" x2="27.9534" y2="41.1072">
				<stop  offset="0" style="stop-color:#DEDEDE"/>
				<stop  offset="1" style="stop-color:#FEFEFE"/>
			</linearGradient>
			<polygon opacity="0.8" fill="url(#SVGID_3_)" points="28.566,40.233 28.559,44.61 33.1,41.631 28.566,40.233 			"/>
			<linearGradient id="SVGID_4_" gradientUnits="userSpaceOnUse" x1="41.1934" y1="38.5635" x2="28.5293" y2="29.696">
				<stop  offset="0" style="stop-color:#DEDEDE"/>
				<stop  offset="1" style="stop-color:#FEFEFE"/>
			</linearGradient>
			<polygon fill="url(#SVGID_4_)" points="46.932,30.37 28.431,39.848 22.792,37.891 46.932,30.37 			"/>
			<linearGradient id="SVGID_5_" gradientUnits="userSpaceOnUse" x1="43.1797" y1="38.9048" x2="34.073" y2="32.5282">
				<stop  offset="0" style="stop-color:#DEDEDE"/>
				<stop  offset="1" style="stop-color:#FEFEFE"/>
			</linearGradient>
			<polygon fill="url(#SVGID_5_)" points="47.099,30.535 28.852,39.987 39.911,43.574 47.099,30.535 			"/>
		</g>
		<g>
			<path fill="#FFFFFF" d="M32.527,28.206c0,0,0.166-0.753-0.548-1.04c-0.712-0.29-1.296,0.462-1.296,0.462s0.838-1.712-0.909-2.133
				c-1.747-0.417-2.203,1.435-2.203,1.435s0.071-2.551-1.782-2.132c-1.368,0.311-2.492,1.233-2.559,2.171
				c-0.153-0.161-0.391-0.163-0.67-0.26c-1.039-0.365-3.424,1.587-1.164,3.053c1.33,0.864,2.073-0.257,2.073-0.257
				c0.769,0.792,1.585,0.957,2.728,0.722c1.141-0.233,1.654-0.884,1.654-0.884c1.328,1.305,2.936-0.233,2.936-0.233
				c0.537,0.653,1.585-0.142,1.585-0.142c0.538,0.606,1.414,0.498,1.43-0.296C33.814,27.877,32.527,28.206,32.527,28.206z"/>
			<path fill="#E6E6E6" d="M33.686,29.055c0,0-0.914,0.121-1.172-0.515c0,0-1.131,0.834-1.41-0.042c-0.02,0.08-0.02,0.08-0.02,0.08
				s-2.701,1.053-3.197-0.218c0,0-2.582,2.384-3.971,0.238c0,0-2.129,1.788-3.359,0.259c-0.006-0.006,0,0.048,0.047,0
				c0.033,0.315,0.346,0.766,0.908,1.02c1.445,0.651,1.958-0.373,1.958-0.373c0.769,0.792,1.585,0.957,2.728,0.722
				c1.141-0.233,1.654-0.884,1.654-0.884c1.328,1.305,2.936-0.233,2.936-0.233c0.537,0.653,1.585-0.142,1.585-0.142
				c0.429,0.485,1.073,0.512,1.324,0.102L33.686,29.055z"/>
		</g>
		<g>
			<path fill="#094763" d="M44.344,46.451H22.271c-2.879,0-5.212-2.334-5.212-5.213v1.629c0,2.879,2.333,5.213,5.212,5.213h22.072
				c2.879,0,5.213-2.333,5.213-5.213v-1.629C49.557,44.117,47.223,46.451,44.344,46.451z"/>
			<path opacity="0.7" fill="#FFFFFF" d="M43.342,20.505H23.223c-2.624,0-4.75,2.126-4.75,4.751v0.768
				c0-2.625,2.126-4.751,4.75-4.751h20.119c2.621,0,4.748,2.127,4.748,4.751v-0.768C48.09,22.632,45.963,20.505,43.342,20.505z"/>
		</g>
	</g>
	<linearGradient id="SVGID_6_" gradientUnits="userSpaceOnUse" x1="54.8115" y1="79.1768" x2="23.5758" y2="57.3052">
		<stop  offset="0" style="stop-color:#181500"/>
		<stop  offset="1" style="stop-color:#5F5D5C"/>
	</linearGradient>
	<polygon fill="url(#SVGID_6_)" points="17.06,66.611 61.328,66.611 61.328,69.871 17.06,69.871 17.06,66.611 	"/>
	<linearGradient id="SVGID_7_" gradientUnits="userSpaceOnUse" x1="44.9121" y1="85.7803" x2="21.6263" y2="69.4754">
		<stop  offset="0" style="stop-color:#181500"/>
		<stop  offset="1" style="stop-color:#5F5D5C"/>
	</linearGradient>
	<polygon fill="url(#SVGID_7_)" points="17.06,75.998 49.48,75.998 49.48,79.258 17.06,79.258 17.06,75.998 	"/>
	<linearGradient id="SVGID_8_" gradientUnits="userSpaceOnUse" x1="44.9126" y1="66.5166" x2="21.626" y2="50.2111">
		<stop  offset="0" style="stop-color:#181500"/>
		<stop  offset="1" style="stop-color:#5F5D5C"/>
	</linearGradient>
	<polygon fill="url(#SVGID_8_)" points="17.06,56.734 49.48,56.734 49.48,59.994 17.06,59.994 17.06,56.734 	"/>
	<g>
		
			<radialGradient id="SVGID_9_" cx="81.4473" cy="72.9658" r="46.5778" gradientTransform="matrix(1 0 0 1 0 -9.765625e-04)" gradientUnits="userSpaceOnUse">
			<stop  offset="0" style="stop-color:#FAFAFA"/>
			<stop  offset="0.3109" style="stop-color:#F4F4F4"/>
			<stop  offset="0.7262" style="stop-color:#E3E3E3"/>
			<stop  offset="1" style="stop-color:#D4D4D4"/>
		</radialGradient>
		<path fill="url(#SVGID_9_)" stroke="#B3B3B3" stroke-width="1.7" d="M120.615,36.33v73.27c0,9.016-7.312,16.326-16.336,16.326
			H58.615c-9.022,0-16.336-7.311-16.336-16.326V36.33c0-9.016,7.313-16.325,16.336-16.325h45.664
			C113.303,20.004,120.615,27.313,120.615,36.33L120.615,36.33z"/>
		<path fill="#B3B3B3" d="M104.451,123.887H58.786c-9.022,0-16.337-7.311-16.337-16.326v2.039c0,9.016,7.314,16.326,16.337,16.326
			h45.665c9.023,0,16.337-7.311,16.337-16.326v-2.039C120.788,116.576,113.475,123.887,104.451,123.887z"/>
		<path fill="#FFFFFF" d="M52.067,27.005c1.822-1.521,3.886-2.546,6.719-2.546h45.665c2.835,0,4.896,1.025,6.721,2.546h2.305
			c-2.299-2.318-5.09-3.715-9.025-3.715H58.786c-3.934,0-6.724,1.397-9.022,3.715H52.067z"/>
	</g>
	<g>
		<linearGradient id="SVGID_10_" gradientUnits="userSpaceOnUse" x1="100.5762" y1="114.4375" x2="62.32" y2="87.6502">
			<stop  offset="0" style="stop-color:#181500"/>
			<stop  offset="1" style="stop-color:#5F5D5C"/>
		</linearGradient>
		<polygon fill="url(#SVGID_10_)" points="54.34,99.048 108.557,99.048 108.557,103.041 54.34,103.041 54.34,99.048 		"/>
		<linearGradient id="SVGID_11_" gradientUnits="userSpaceOnUse" x1="88.4521" y1="122.5254" x2="59.9322" y2="102.5555">
			<stop  offset="0" style="stop-color:#181500"/>
			<stop  offset="1" style="stop-color:#5F5D5C"/>
		</linearGradient>
		<polygon fill="url(#SVGID_11_)" points="54.34,110.545 94.047,110.545 94.047,114.537 54.34,114.537 54.34,110.545 		"/>
		<linearGradient id="SVGID_12_" gradientUnits="userSpaceOnUse" x1="88.4521" y1="99.5322" x2="59.933" y2="79.5629">
			<stop  offset="0" style="stop-color:#181500"/>
			<stop  offset="1" style="stop-color:#5F5D5C"/>
		</linearGradient>
		<polygon fill="url(#SVGID_12_)" points="54.34,87.552 94.047,87.552 94.047,91.543 54.34,91.543 54.34,87.552 		"/>
	</g>
	<g>
		<g>
			<g>
				<g>
					
						<linearGradient id="SVGID_13_" gradientUnits="userSpaceOnUse" x1="-312.7432" y1="881.6846" x2="-348.757" y2="856.4673" gradientTransform="matrix(1 0 0 1 412.6201 -813.9912)">
						<stop  offset="0" style="stop-color:#FF1F00"/>
						<stop  offset="1" style="stop-color:#FF9D00"/>
					</linearGradient>
					<path fill="url(#SVGID_13_)" d="M97.414,39.542c-3.98-3.977-9.473-6.439-15.545-6.439c-12.137,0-21.977,9.84-21.977,21.983
						c0,12.14,9.84,21.983,21.977,21.983c12.139,0,21.981-9.843,21.981-21.983H81.871L97.414,39.542z"/>
				</g>
			</g>
			<g>
				<g>
					<path fill="#808080" d="M85.481,53.57h21.981c0-6.07-2.462-11.563-6.439-15.541L85.481,53.57z"/>
				</g>
			</g>
		</g>
		<path opacity="0.5" fill="#FFFFFF" d="M62.501,53.957c2.333-9.64,10.991-16.804,21.342-16.804c3.268,0,6.358,0.731,9.146,2.013
			l1.298-0.629c-3.276-1.938-7.084-3.072-11.167-3.072c-11.14,0-20.323,8.297-21.763,19.047L62.501,53.957z"/>
	</g>
</g>
</svg>
