<?xml version="1.0" encoding="utf-8"?>
<!-- Generator: Adobe Illustrator 13.0.0, SVG Export Plug-In . SVG Version: 6.00 Build 14948)  -->
<!DOCTYPE svg PUBLIC "-//W3C//DTD SVG 1.1//EN" "http://www.w3.org/Graphics/SVG/1.1/DTD/svg11.dtd">
<svg version="1.1" id="Layer_1" xmlns="http://www.w3.org/2000/svg" xmlns:xlink="http://www.w3.org/1999/xlink" x="0px" y="0px"
	 width="128.007px" height="128.007px" viewBox="0 0 128.007 128.007" enable-background="new 0 0 128.007 128.007"
	 xml:space="preserve">
<g>
	<g>
		<path fill="#99DBF6" d="M29.112,47.308l0.022-0.004l0.07-0.082l-0.03,0.012C29.16,47.259,29.135,47.286,29.112,47.308
			L29.112,47.308z"/>
		<path fill="#99DBF6" d="M29.142,47.208c0.033-0.037,0.048-0.053,0.056-0.07l-0.025,0.004l-0.03,0.04l-0.011-0.007l0.044-0.049
			l-0.029,0.012c0,0-0.093,0.096-0.122,0.133h0.011l0.056-0.052h0.015c-0.011,0.011-0.055,0.066-0.055,0.077
			C29.079,47.267,29.108,47.234,29.142,47.208L29.142,47.208z"/>
		<path fill="#99DBF6" d="M28.413,47.47c0,0-0.029-0.004-0.218,0.174l-0.022,0.008c-0.022,0.012-0.159,0.174-0.159,0.196
			c0,0,0.078-0.052,0.174-0.151c0.052,0,0.13-0.049,0.151-0.063c0.026-0.015,0.056-0.036,0.078-0.06
			c0.037-0.033,0.147-0.162,0.137-0.181l0,0C28.554,47.393,28.439,47.453,28.413,47.47L28.413,47.47z"/>
		<path fill="#99DBF6" d="M27.722,48.095c0,0,0.033-0.033,0.059-0.059c0.026-0.033,0.03-0.041,0.03-0.041l0,0
			C27.811,47.996,27.722,48.074,27.722,48.095L27.722,48.095z"/>
		<polygon fill="#99DBF6" points="27.777,47.97 27.677,48.074 27.707,48.055 27.788,47.97 		"/>
		<path fill="#99DBF6" d="M27.585,48.107c0-0.029-0.052,0.021-0.078,0.045l-0.089,0.096c-0.007,0.019-0.015,0.033-0.029,0.045
			c-0.133,0.144-0.133,0.147-0.133,0.147s0.011,0.007,0.048-0.026l0.056-0.055l0.066-0.053l0.044-0.048h0.015l0.111-0.13h-0.008
			c-0.011,0.02-0.033,0.033-0.044,0.049c0.07-0.089,0.07-0.096,0.07-0.096c-0.015,0-0.019,0.014-0.019,0.014L27.585,48.107z"/>
		<path fill="#99DBF6" d="M27.226,48.447c-0.019,0.008-0.044,0.02-0.059,0.033l-0.097,0.115c0.052-0.033,0.052-0.033,0.082-0.059
			c0.036-0.03,0.104-0.123,0.104-0.123S27.248,48.425,27.226,48.447L27.226,48.447z"/>
		<path fill="#99DBF6" d="M27.066,48.58l0.012-0.01c0,0,0.029-0.03,0.096-0.119c0.026-0.029,0.052-0.059,0.082-0.088h-0.019
			c-0.022,0.01-0.111,0.11-0.163,0.162c-0.104,0.089-0.104,0.089-0.211,0.211c0.012-0.008,0.026-0.016,0.033-0.029
			c0.022-0.022,0.093-0.082,0.186-0.16L27.066,48.58L27.066,48.58z"/>
		<path fill="#99DBF6" d="M26.646,48.917c0,0,0.007,0,0.052-0.06c0.015-0.019,0.029-0.034,0.048-0.056c-0.026,0.019-0.1,0.1-0.1,0.1
			V48.917z"/>
		<path fill="#99DBF6" d="M26.179,49.32c-0.033,0.041-0.066,0.086-0.106,0.122v0.004c0,0,0.019-0.015,0.048-0.052
			c0.07-0.074,0.07-0.078,0.07-0.078l0.004-0.007L26.179,49.32L26.179,49.32z"/>
		<path fill="#A4D9E6" d="M18.153,72.296l-0.019,0.012c-0.008,0.021-0.052,0.154-0.056,0.207c0,0.033,0.015,0.055,0.044,0.044
			c0.004,0.04,0.008,0.06,0.008,0.06c0.015-0.004,0.029-0.02,0.041-0.137l0.003-0.004c0-0.019,0.012-0.033,0.019-0.053
			C18.208,72.371,18.175,72.296,18.153,72.296L18.153,72.296z"/>
		<path fill="#A4D9E6" d="M18.545,72.874c0,0-0.025-0.011-0.011-0.118c-0.019-0.008-0.026-0.012-0.026-0.012
			c-0.019,0.004-0.048,0.012-0.052,0.104c0,0.041,0,0.063,0,0.063c0.008,0.029,0.019,0.056,0.022,0.089
			c0,0.021-0.008,0.048-0.004,0.074l0.015,0.029c0.015,0.018,0.063,0.037,0.085-0.089C18.59,72.896,18.545,72.874,18.545,72.874
			L18.545,72.874z"/>
		<path fill="#A4D9E6" d="M18.833,73.07l-0.015-0.004l-0.025,0.004c-0.026,0-0.033,0-0.033,0c-0.03,0-0.052,0.004-0.056,0.037
			c-0.008,0.029,0,0.104,0.011,0.125c0.022,0.045,0.056-0.029,0.06-0.044c0.022-0.004,0.048-0.011,0.066-0.015l0.004-0.022
			C18.855,73.084,18.841,73.074,18.833,73.07L18.833,73.07z"/>
		<path fill="#A4D9E6" d="M18.955,73.606c0,0,0.07,0.007,0.089-0.114c0.008-0.101-0.036-0.127-0.055-0.134
			c-0.012-0.073-0.022-0.093-0.056-0.093c0,0-0.037,0.008-0.07,0.045c-0.008,0.019,0,0.033,0,0.033
			c0.004,0.122,0.033,0.133,0.062,0.107C18.911,73.599,18.934,73.621,18.955,73.606L18.955,73.606z"/>
		<path fill="#A4D9E6" d="M19.3,74.301c-0.008-0.033-0.004-0.07-0.012-0.104c-0.003-0.026-0.011-0.06-0.025-0.085
			c-0.019-0.052-0.06-0.141-0.141-0.166c0.015-0.045,0.015-0.07,0-0.097c-0.019,0.019-0.06,0.06-0.041,0.321
			c-0.062,0.053-0.081,0.156-0.089,0.219c-0.003,0.052,0.019,0.129,0.037,0.162l0.012,0.012c0.003,0.059-0.008,0.133-0.004,0.185
			C19.044,74.982,19.1,75,19.1,75l0.008-0.008c0,0,0.007-0.026,0.007-0.033c0.008-0.037,0.008-0.106,0.056-0.188
			c0.037-0.062,0.118-0.089,0.151-0.152l0.037-0.121c0.015-0.07-0.019-0.148-0.055-0.193L19.3,74.301L19.3,74.301z"/>
		<path fill="#A4D9E6" d="M23.627,101.553l0.17,0.237c0,0-0.037-0.063-0.07-0.107c-0.055-0.082-0.089-0.122-0.089-0.122
			L23.627,101.553z"/>
		<path fill="#A4D9E6" d="M23.834,101.804v0.008c0.089,0.126,0.122,0.17,0.137,0.178c0,0,0-0.008-0.073-0.111
			C23.871,101.841,23.849,101.808,23.834,101.804L23.834,101.804z"/>
		<path fill="#99DBF6" d="M30.147,103.861h-0.007l0.011,0.067c0,0,0.008,0.019,0.03,0.04c0.025,0.029,0.11,0.104,0.158,0.115
			c0,0,0.063,0.015,0.026-0.041C30.337,103.995,30.185,103.861,30.147,103.861L30.147,103.861z"/>
		<path fill="none" d="M101.507,74.117c1.65,23.619-16.145,44.104-39.747,45.756c-23.598,1.65-44.066-16.159-45.716-39.779
			c-1.653-23.612,16.138-44.1,39.742-45.746C79.386,32.691,99.855,50.503,101.507,74.117L101.507,74.117z"/>
		
			<linearGradient id="SVGID_1_" gradientUnits="userSpaceOnUse" x1="-155.3379" y1="-686.8369" x2="-225.5366" y2="-637.6837" gradientTransform="matrix(1 0 0 -1 246.7271 -588.7627)">
			<stop  offset="0" style="stop-color:#DEDEDE"/>
			<stop  offset="1" style="stop-color:#FEFEFE"/>
		</linearGradient>
		<path fill="url(#SVGID_1_)" stroke="#094763" stroke-miterlimit="3.8637" d="M99.021,70.506
			c1.654,23.616-16.145,44.104-39.742,45.753c-23.602,1.654-44.07-16.156-45.72-39.775c-1.65-23.613,16.141-44.1,39.746-45.75
			C76.904,29.081,97.369,46.894,99.021,70.506L99.021,70.506z"/>
		<g>
			
				<linearGradient id="SVGID_2_" gradientUnits="userSpaceOnUse" x1="-243.8906" y1="-662.4648" x2="-243.8906" y2="-656.7871" gradientTransform="matrix(1 0 0 -1 246.7271 -588.7627)">
				<stop  offset="0" style="stop-color:#32AECE"/>
				<stop  offset="1" style="stop-color:#094E86"/>
			</linearGradient>
			<polygon fill="url(#SVGID_2_)" points="5.385,73.703 0,73.417 0.277,68.025 5.674,68.309 			"/>
			
				<linearGradient id="SVGID_3_" gradientUnits="userSpaceOnUse" x1="-240.5752" y1="-647.1079" x2="-240.5752" y2="-640.188" gradientTransform="matrix(1 0 0 -1 246.7271 -588.7627)">
				<stop  offset="0" style="stop-color:#32AECE"/>
				<stop  offset="1" style="stop-color:#094E86"/>
			</linearGradient>
			<polygon fill="url(#SVGID_3_)" points="7.76,58.345 2.692,56.503 4.534,51.425 9.612,53.274 			"/>
			
				<linearGradient id="SVGID_4_" gradientUnits="userSpaceOnUse" x1="-232.5747" y1="-633.1001" x2="-232.5747" y2="-625.522" gradientTransform="matrix(1 0 0 -1 246.7271 -588.7627)">
				<stop  offset="0" style="stop-color:#32AECE"/>
				<stop  offset="1" style="stop-color:#094E86"/>
			</linearGradient>
			<polygon fill="url(#SVGID_4_)" points="14.624,44.337 10.363,41.013 13.692,36.759 17.942,40.081 			"/>
			
				<linearGradient id="SVGID_5_" gradientUnits="userSpaceOnUse" x1="-220.6465" y1="-622.063" x2="-220.6465" y2="-614.5405" gradientTransform="matrix(1 0 0 -1 246.7271 -588.7627)">
				<stop  offset="0" style="stop-color:#32AECE"/>
				<stop  offset="1" style="stop-color:#094E86"/>
			</linearGradient>
			<polygon fill="url(#SVGID_5_)" points="25.421,33.3 22.325,28.877 26.745,25.778 29.837,30.205 			"/>
			
				<linearGradient id="SVGID_6_" gradientUnits="userSpaceOnUse" x1="-205.8794" y1="-614.5767" x2="-205.8794" y2="-607.8423" gradientTransform="matrix(1 0 0 -1 246.7271 -588.7627)">
				<stop  offset="0" style="stop-color:#32AECE"/>
				<stop  offset="1" style="stop-color:#094E86"/>
			</linearGradient>
			<polygon fill="url(#SVGID_6_)" points="39.059,25.814 37.479,20.652 42.643,19.08 44.218,24.239 			"/>
			
				<linearGradient id="SVGID_7_" gradientUnits="userSpaceOnUse" x1="-189.8047" y1="-611.604" x2="-189.8047" y2="-606.2036" gradientTransform="matrix(1 0 0 -1 246.7271 -588.7627)">
				<stop  offset="0" style="stop-color:#32AECE"/>
				<stop  offset="1" style="stop-color:#094E86"/>
			</linearGradient>
			<polygon fill="url(#SVGID_7_)" points="54.227,22.841 54.223,17.441 59.623,17.441 59.623,22.841 			"/>
			
				<linearGradient id="SVGID_8_" gradientUnits="userSpaceOnUse" x1="-173.5908" y1="-615.0688" x2="-173.5908" y2="-608.2642" gradientTransform="matrix(1 0 0 -1 246.7271 -588.7627)">
				<stop  offset="0" style="stop-color:#32AECE"/>
				<stop  offset="1" style="stop-color:#094E86"/>
			</linearGradient>
			<polygon fill="url(#SVGID_8_)" points="69.736,24.638 71.404,19.501 76.537,21.169 74.869,26.306 			"/>
			
				<linearGradient id="SVGID_9_" gradientUnits="userSpaceOnUse" x1="-159.0195" y1="-622.9771" x2="-159.0195" y2="-615.436" gradientTransform="matrix(1 0 0 -1 246.7271 -588.7627)">
				<stop  offset="0" style="stop-color:#32AECE"/>
				<stop  offset="1" style="stop-color:#094E86"/>
			</linearGradient>
			<polygon fill="url(#SVGID_9_)" points="83.935,31.037 87.109,26.673 91.48,29.846 88.298,34.214 			"/>
			
				<linearGradient id="SVGID_10_" gradientUnits="userSpaceOnUse" x1="-147.3965" y1="-634.5503" x2="-147.3965" y2="-627.0083" gradientTransform="matrix(1 0 0 -1 246.7271 -588.7627)">
				<stop  offset="0" style="stop-color:#32AECE"/>
				<stop  offset="1" style="stop-color:#094E86"/>
			</linearGradient>
			<polygon fill="url(#SVGID_10_)" points="95.56,41.419 99.935,38.246 103.101,42.611 98.74,45.788 			"/>
			
				<linearGradient id="SVGID_11_" gradientUnits="userSpaceOnUse" x1="-139.8066" y1="-648.7271" x2="-139.8066" y2="-641.9292" gradientTransform="matrix(1 0 0 -1 246.7271 -588.7627)">
				<stop  offset="0" style="stop-color:#32AECE"/>
				<stop  offset="1" style="stop-color:#094E86"/>
			</linearGradient>
			<polygon fill="url(#SVGID_11_)" points="103.519,54.832 108.654,53.167 110.322,58.3 105.187,59.964 			"/>
			
				<linearGradient id="SVGID_12_" gradientUnits="userSpaceOnUse" x1="-137.0107" y1="-664.0762" x2="-137.0107" y2="-658.5879" gradientTransform="matrix(1 0 0 -1 246.7271 -588.7627)">
				<stop  offset="0" style="stop-color:#32AECE"/>
				<stop  offset="1" style="stop-color:#094E86"/>
			</linearGradient>
			<polygon fill="url(#SVGID_12_)" points="106.97,69.918 112.367,69.826 112.462,75.222 107.066,75.314 			"/>
			
				<linearGradient id="SVGID_13_" gradientUnits="userSpaceOnUse" x1="-140.1396" y1="-682.7812" x2="-140.1396" y2="-675.8613" gradientTransform="matrix(1 0 0 -1 246.7271 -588.7627)">
				<stop  offset="0" style="stop-color:#32AECE"/>
				<stop  offset="1" style="stop-color:#094E86"/>
			</linearGradient>
			<polygon fill="url(#SVGID_13_)" points="104.972,87.099 110.044,88.941 108.199,94.019 103.13,92.169 			"/>
			
				<linearGradient id="SVGID_14_" gradientUnits="userSpaceOnUse" x1="-148.1455" y1="-697.4512" x2="-148.1455" y2="-689.8711" gradientTransform="matrix(1 0 0 -1 246.7271 -588.7627)">
				<stop  offset="0" style="stop-color:#32AECE"/>
				<stop  offset="1" style="stop-color:#094E86"/>
			</linearGradient>
			<polygon fill="url(#SVGID_14_)" points="98.115,101.109 102.369,104.435 99.041,108.689 94.794,105.363 			"/>
			
				<linearGradient id="SVGID_15_" gradientUnits="userSpaceOnUse" x1="-160.0693" y1="-708.4277" x2="-160.0693" y2="-700.9082" gradientTransform="matrix(1 0 0 -1 246.7271 -588.7627)">
				<stop  offset="0" style="stop-color:#32AECE"/>
				<stop  offset="1" style="stop-color:#094E86"/>
			</linearGradient>
			<polygon fill="url(#SVGID_15_)" points="87.32,112.146 90.416,116.57 85.996,119.666 82.9,115.246 			"/>
			
				<linearGradient id="SVGID_16_" gradientUnits="userSpaceOnUse" x1="-174.8408" y1="-715.127" x2="-174.8408" y2="-708.3906" gradientTransform="matrix(1 0 0 -1 246.7271 -588.7627)">
				<stop  offset="0" style="stop-color:#32AECE"/>
				<stop  offset="1" style="stop-color:#094E86"/>
			</linearGradient>
			<polygon fill="url(#SVGID_16_)" points="73.681,119.628 75.253,124.789 70.097,126.365 68.519,121.205 			"/>
			
				<linearGradient id="SVGID_17_" gradientUnits="userSpaceOnUse" x1="-190.918" y1="-716.7695" x2="-190.918" y2="-711.373" gradientTransform="matrix(1 0 0 -1 246.7271 -588.7627)">
				<stop  offset="0" style="stop-color:#32AECE"/>
				<stop  offset="1" style="stop-color:#094E86"/>
			</linearGradient>
			<polygon fill="url(#SVGID_17_)" points="58.51,122.611 58.51,128.007 53.109,128.007 53.109,122.611 			"/>
			
				<linearGradient id="SVGID_18_" gradientUnits="userSpaceOnUse" x1="-207.1274" y1="-714.7051" x2="-207.1274" y2="-707.9023" gradientTransform="matrix(1 0 0 -1 246.7271 -588.7627)">
				<stop  offset="0" style="stop-color:#32AECE"/>
				<stop  offset="1" style="stop-color:#094E86"/>
			</linearGradient>
			<polygon fill="url(#SVGID_18_)" points="43.001,120.809 41.333,125.943 36.199,124.275 37.867,119.14 			"/>
			
				<linearGradient id="SVGID_19_" gradientUnits="userSpaceOnUse" x1="-221.6968" y1="-707.5371" x2="-221.6968" y2="-699.9951" gradientTransform="matrix(1 0 0 -1 246.7271 -588.7627)">
				<stop  offset="0" style="stop-color:#32AECE"/>
				<stop  offset="1" style="stop-color:#094E86"/>
			</linearGradient>
			<polygon fill="url(#SVGID_19_)" points="28.802,114.406 25.628,118.775 21.26,115.601 24.434,111.233 			"/>
			
				<linearGradient id="SVGID_20_" gradientUnits="userSpaceOnUse" x1="-233.3237" y1="-695.9629" x2="-233.3237" y2="-688.4219" gradientTransform="matrix(1 0 0 -1 246.7271 -588.7627)">
				<stop  offset="0" style="stop-color:#32AECE"/>
				<stop  offset="1" style="stop-color:#094E86"/>
			</linearGradient>
			<polygon fill="url(#SVGID_20_)" points="17.169,104.032 12.809,107.201 9.639,102.833 13.999,99.66 			"/>
			
				<linearGradient id="SVGID_21_" gradientUnits="userSpaceOnUse" x1="-240.9116" y1="-681.043" x2="-240.9116" y2="-674.2412" gradientTransform="matrix(1 0 0 -1 246.7271 -588.7627)">
				<stop  offset="0" style="stop-color:#32AECE"/>
				<stop  offset="1" style="stop-color:#094E86"/>
			</linearGradient>
			<polygon fill="url(#SVGID_21_)" points="9.217,90.617 4.083,92.281 2.415,87.147 7.549,85.479 			"/>
		</g>
		<g>
			<g>
				
					<linearGradient id="SVGID_22_" gradientUnits="userSpaceOnUse" x1="-183.0107" y1="-703.8003" x2="-183.0107" y2="-619.8208" gradientTransform="matrix(1 0 0 -1 246.7271 -588.7627)">
					<stop  offset="0" style="stop-color:#32AECE"/>
					<stop  offset="1" style="stop-color:#094E86"/>
				</linearGradient>
				<path id="SVGID_37_" fill="url(#SVGID_22_)" d="M68.078,33.449c-0.354-0.362-0.799-0.277-1.312-0.325
					c-1.303-0.134-2.726-0.688-4.005-0.88c-0.045,0.01-0.107,0.003-0.111,0.055c0.614,0.393,1.287,0.393,2.138,0.496
					C65.908,32.923,66.964,33.615,68.078,33.449z M84.208,48.92c-0.045,0.011-0.066,0.041-0.059,0.107
					c0.27,0.358,0.562,0.784,0.879,1.15c0.293,0.337,0.633,0.939,1.1,0.876C85.822,50.042,85.214,49.039,84.208,48.92z
					 M79.052,47.875c-0.285-0.519-0.436-1.174-0.662-1.758c-0.373,0.078-0.637,0.273-0.924,0.44
					c-0.078,0.528-0.182,1.032-0.441,1.372C77.513,48.396,78.701,48.658,79.052,47.875z M59.634,44.804
					c-0.677-0.086-1.139-0.049-1.701-0.056c-0.111,0.104-0.122,0.317-0.273,0.385c-1.402-0.274-1.779,0.722-2.689,1.099
					c0.078,0.75,0.759,0.887,1.376,1.098c0.178-0.211,0.507-0.262,0.548-0.599c0.025-0.192-0.277-0.345-0.107-0.495
					c0.196,0.373,0.433-0.137,0.71-0.167c0.06,0.448-0.418,0.776-0.385,1.368c-0.433-0.007-0.503,0.337-0.599,0.658
					c0.125,0.256,0.462,0.301,0.766,0.389c-0.252,0.022-0.418,0.13-0.662,0.163c-0.581-0.211-1.979-1.243-2.245-0.385
					c0.011,0.077,0.27-0.052,0.437,0c0.232,0.403,0.447,0.832,0.658,1.261c0.507-0.251,0.884,0.026,1.206,0.107
					c1.01,0.264,1.461-0.389,2.248-0.107c0.06-0.225,0.093-0.506-0.055-0.658c-0.548,0.186-0.622-0.392-0.933-0.439
					c0.226-0.163,0.825,0.225,1.154-0.107c0.141-0.236,0.229-0.604,0.11-0.936c0.211-0.352,0.581-0.548,1.099-0.6
					c0.57-0.551,0.437-1.52,0.722-2.305C60.533,44.763,59.967,44.25,59.634,44.804z M54.315,50.503
					c0.185,0.037,0.166,0.273,0.27,0.385c0.521-0.115,0.662-0.617,0.991-0.924c-0.188-0.104-0.158-0.434-0.388-0.496
					c-0.178,0.303-0.744,0.199-0.933,0.496C54.338,50.164,54.264,50.389,54.315,50.503z M54.315,32.132
					c0.004,0.496,1.391,0.48,1.643,0.055C55.484,32.117,54.804,31.996,54.315,32.132z M61.99,45.517
					c-0.114,0.485-0.532,0.666-0.714,1.096c-0.271-0.093-0.377,0.085-0.6,0.162c0.086,0.174,0.03,0.311-0.059,0.444
					c0.706,0.484,1.639,0.747,2.8,0.766c0.185-0.07,0.207-0.308,0.44-0.325c1.553,0.104,2.141,1.184,3.125,1.863
					c0.285,0.041,0.361-0.117,0.596-0.114c0.104,0.093,0.141,0.233,0.109,0.444c-0.055,0.125-0.365-0.004-0.328,0.215
					c0.111,0.605,1.354,0.077,1.424,0.717c-0.033,0.174-0.207,0.229-0.215,0.44c0.389,1.22,1.328,1.938,2.471,2.474
					c0.992,0.459,1.373,1.203,2.578,1.203c0.541-0.223,0.98-0.555,1.1-1.203c-0.281-0.983-1.18-1.35-1.215-2.585
					c0.174-0.155,0.359-0.3,0.553-0.433c0.029-0.307,0.088-0.577,0.162-0.824c-0.562-1.162,0.426-1.969,0.82-2.693
					c-0.107-0.555-0.488-0.82-0.766-1.15c-0.162-0.188-0.15-0.355-0.332-0.492c-0.086-0.07-0.256-0.07-0.381-0.166
					c-0.559-0.43-0.91-1.176-1.32-1.531c-0.277-0.252-0.77-0.447-1.092-0.718c-0.295-0.247-0.373-0.562-0.721-0.603
					c-0.248-0.062-0.211,0.151-0.439,0.111c-0.383-0.574-0.793-1.106-1.1-1.758c-0.232,0.049-0.258-0.104-0.439-0.107
					c0.051,0.475-0.996,0.271-0.988,0.873c-0.477-0.011-0.82-0.158-1.365-0.107c-0.414,0.686-1.043,1.154-1.916,1.373
					c-0.041,0.218,0.045,0.314,0.052,0.492c-0.137,0.051-0.236,0.129-0.443,0.11c-0.082,0.685-0.947,0.589-1.258,1.04
					c0.048,0.284,0.188,0.469,0.226,0.769C62.497,45.363,62.363,45.554,61.99,45.517z M91.451,53.359
					c-0.348-0.725-0.951-1.283-1.213-1.92c-0.322-0.779-0.234-1.482-0.654-2.086c0.299,0.17,0.457-0.107,0.816-0.051
					c0.174-0.452-0.223-0.866-0.551-1.262c0.029,0.129-0.326,0.078-0.322,0.329c-0.402-0.208-0.695-0.515-0.832-0.987
					c0.219,0.014,0.207-0.2,0.277-0.33c0.422,0.057,0.604,0.541,0.855,0.744c-1.078-1.406-2.234-2.733-3.475-3.991
					c-0.879-0.817-1.715-1.62-2.566-2.404c-2.482-2.146-5.215-4.005-8.145-5.544c-0.506-0.236-1.021-0.471-1.535-0.707
					c-1.217-0.551-2.426-1.105-3.672-1.605c-3.23-1.176-6.628-1.979-10.161-2.355c-6.462-0.467-12.968,0.322-17.596,2.208
					c-2.907,1.188-5.744,2.249-8.118,3.843c0.592-0.303,1.054-0.736,1.757-0.936c-1.047,0.821-2.063,1.668-3.019,2.582
					c0.082,0.029,0.281-0.062,0.274,0.055c-0.43,0.404-1.11,0.855-0.988,1.48c-0.385,0.048-0.473-0.404-0.82-0.438
					c-0.281-0.033-0.821,0.271-1.206,0.485c-0.714,0.407-1.494,0.691-1.757,1.323c1.028,0.274,1.701-0.742,2.796-0.332
					c-0.07,0.366-0.122,0.747-0.11,1.209c0.351,0.119,0.284,0.344,0.329,0.711c0.532-0.215,1.013-0.488,1.701-0.544
					c-0.078,0.792,0.081,1.343,0.547,1.587c0.314-0.695,0.74-1.221,1.158-1.805c0.207-0.305,0.311-0.641,0.492-0.988
					c0.292-0.543,1.116-1.231,0.495-1.92c0.921-0.539,1.347-1.582,2.356-2.034c0-0.144-0.019-0.313,0.056-0.384
					c0.28-0.101,0.595-0.174,0.662-0.492c0.558-0.438,1.283-0.596,1.805-1.1c0.107-0.096,0.162-0.232,0.273-0.324
					c0.277-0.219,0.666-0.33,0.991-0.552c0.308-0.207,0.573-0.528,0.873-0.714c0.973-0.588,2.312-0.784,3.514-1.205
					c1.202-0.426,2.508-0.67,3.729-0.881c-0.048,0.052-0.381,0.085-0.219,0.166c0.488-0.111,0.873-0.015,1.373-0.051
					c0.677-0.061,1.287-0.408,1.979-0.496c0.636-0.086,1.42,0.062,2.138,0c1.018-0.089,2.438-0.322,3.507-0.166
					c0.144,0.021-0.119,0.106,0.106,0.11c0.992,0.011,1.897,0.134,2.745,0.163c0.211,0.007,0.188,0.255,0.388,0.273
					c1.624-0.122,2.704,0.369,3.836,0.658c1.268,0.333,2.281,0.637,3.352,1.043c0.535,0.207,1.184,0.393,1.59,0.604
					c0.186,0.096,0.295,0.311,0.492,0.385c0.291,0.114,0.65,0.062,0.932,0.166c0.447,0.162,0.836,0.51,1.262,0.714
					c0.543,0.247,1.258,0.311,1.59,0.872c-1.279,0.127-1.506-1.271-2.906-1.205c0.146,0.48,1.18,1.039,0.82,1.701
					c0.811,0.614,1.432,1.417,2.471,1.809c0.285,0.588,0.84,0.666,1.373,1.039c0.283,0.207,0.494,0.545,0.768,0.719
					c0.475,0.299,1.043,0.414,1.426,0.769c0.432,0.396,0.58,1.065,0.986,1.535c0.574,0.658,1.25,0.936,2.031,1.313
					c0.037-0.256-0.074-0.655,0.055-0.822c0.512-0.014,0.844,0.145,1.262,0.219c-0.596-1.18-1.717-1.83-2.74-2.578
					c-1.602-0.369-2.453-1.79-3.566-2.463c1.1,0.229,1.436,1.225,2.527,1.476c0.191,0.089,0.029-0.185,0.158-0.167
					c1.85,1.21,3.957,2.445,4.498,4.771c-0.418-0.314-0.918-0.836-1.59-0.709c0.592,0.524,1.33,0.895,1.918,1.424
					c0,0.147-0.021,0.317,0.053,0.385c0.377,0.34,0.492,0.82,0.766,1.261c0.57,0.896,1.512,1.668,1.705,2.688
					c0.096,0.508-0.016,1.029,0.273,1.535c1.92,0.281,2.455,2.227,1.92,4.006c0.836,0.988,1.391,2.268,2.244,3.236
					c0.131-0.41,0.5-0.41,0.607-0.77c0.066-0.225,0.012-0.64,0-0.82C92.478,55.26,91.972,54.48,91.451,53.359z M89.531,93.013
					c-0.303-0.129-1.953-0.26-2.197-0.219c-0.654,0.119-1.168,0.795-1.646,0.936c-0.18-0.055-0.17-0.303-0.439-0.273
					c-0.939,0.277-2.016,0.041-2.852,0.544c0.092-1.161-0.529-2.589-1.809-2.515c-0.799,0.033-1.416,0.699-2.301,0.71
					c0-0.241,0.016-0.495-0.059-0.662h-0.766c-0.758-0.614-1.621-1.117-2.805-1.317c-0.494,0.304-1.123,0.407-1.859,0.389
					c-1.373-0.037-2.949-0.114-4.059,0.381c0.1-0.195,0.178-0.536,0-0.71c-1.398,0.706-2.885,1.321-3.617,2.686
					c-0.721,0.044-1.272-0.267-1.919-0.167c-0.27,0.049-0.491,0.314-0.772,0.334c-0.77,0.047-1.354-0.504-2.083-0.715
					c0.448-1.054,0.186-2.411-0.273-3.291c-1.062-0.285-2.475-0.444-3.617-0.326c0.259-1.209,0.821-2.107,1.316-3.074
					c-0.799-0.357-1.49-0.473-2.359-0.106c-0.718,0.3-1.302,1.076-1.976,1.206c-0.762,0.145-1.716-0.182-2.578-0.33
					c-0.089-0.465,0.06-0.762-0.055-1.209c-0.097-0.389-0.515-0.674-0.548-1.039c-0.025-0.307,0.211-0.607,0.273-0.877
					c0.2-0.881,0.304-1.812,0.329-2.8c0.329-0.281,0.585-0.718,0.984-0.821c1.176-0.299,1.643,0.385,2.415,0.44
					c0.325,0.022,0.795-0.048,1.099-0.167c0.255-0.1,0.41-0.447,0.77-0.547c0.873-0.248,1.734-0.178,2.618-0.219
					c0.655-0.029,0.814,0.104,0.995,0.785c0.233,0.883,0.914,1.338,1.095,2.223c0.06,0.288,0.796-0.359,0.844-0.43
					c0.273-0.414,0.418-1.205,0.277-1.693c-0.1-0.352-0.359-0.621-0.496-0.962c-0.133-0.345-0.089-0.685-0.232-1.021
					c0.51-0.966,1.672-1.17,2.355-1.916c0.219-0.24,0.496-0.637,0.662-0.933c0.229-0.429,0.607-1.206,0.765-1.757
					c0.205-0.695-0.117-1.379,0.219-2.197c0.777-0.314,1.59-0.6,2.246-1.035c-0.131-0.152-0.285-0.263-0.33-0.496
					c0.244-0.365,0.566-0.861,0.828-1.043c0.156-1.062,0.307-2.145,0.488-3.181c0.393-0.134,0.658-0.407,1.158-0.44
					c-0.021-0.199-0.223-0.222-0.166-0.496c-0.414-0.003-1.279,0.012-1.42-0.439c0.734-0.998,2.592-0.551,3.506-1.369
					c0.078-0.284,0.158-0.572,0.328-0.766c0.174,0.13,0.305,0.012,0.385,0.16c-0.121,0.532-0.395,1.197-0.221,1.701
					c0.592-0.41,1.375-0.641,1.92-1.096c0.01,0.057,0.059,0.086,0.107,0.107c0.035-0.211-0.346-0.178-0.6-0.218
					c-0.57-0.64-0.885-1.535-1.262-2.36c-1.105-0.803-2.748-0.961-3.844-1.756c-0.502-0.367-0.662-1.021-1.258-1.15
					c-0.299,0.307-0.344,0.869-0.721,1.094c-0.402,0.004-0.812,0.016-1.15-0.051c-0.324-0.852-0.769-1.576-1.368-2.142
					c-0.91-0.155-2.127-0.211-2.689,0.277c-0.033,1.653-0.033,3.28,0.929,3.946c-0.256,0.544-0.939,0.803-0.987,1.535
					c-0.03,0.569,0.688,1.68-0.159,2.027c-0.57-0.545-1.129-1.1-0.984-2.354c-0.592-0.144-1.117-0.377-1.705-0.605
					c-0.525-0.207-1.12-0.592-1.642-0.658c-0.6-0.078-1.258,0.191-1.81-0.219c-0.277-0.588-0.799-0.888-0.828-1.587
					c-0.044-1.173,1.217-1.702,1.649-2.53c0.718-0.085,1.214-0.684,1.587-0.928c-0.151,0.699,0.222,1.102,0.714,1.312
					c0.296-0.155,0.437-0.48,0.662-0.71c0.255,0.144,0.551,0.248,0.929,0.274v-0.492c-0.77-0.311-1.535-0.618-1.976-1.262
					c0.78-0.333,2.101-0.677,1.372-1.867c0.204,0.01,0.285-0.455,0.544-0.552c0.747,0.614,2.23,0.481,2.911,1.157
					c-0.081,0.451-0.252,0.807-0.329,1.262c-0.481,0.141-0.821,0.422-1.317,0.547c0.034,0.256-0.088,0.352-0.11,0.552
					c0.532-0.06,1.035-0.13,1.538-0.218c0.763,0.532,1.62,0.969,2.626,1.257c0.219-0.151,0.473-0.263,0.773-0.329
					c0.062-0.573,0.658-0.787,0.496-1.424c-0.557-0.27-1.191-0.455-1.428-1.043c0.713-0.041,1.127,0.307,1.752,0.055
					c0.012-0.317-0.1-0.518-0.104-0.82c-0.502-0.326-0.98-0.67-1.812-0.658c-0.625-0.511-1.169-1.099-2.086-1.316
					c-0.107,0.144-0.244,0.266-0.548,0.218c-0.525-0.396-0.784-1.077-1.424-1.317c-0.614-0.225-1.401-0.154-2.245-0.328
					c-0.251,0.199-0.285,0.595-0.443,0.876c-0.107-0.237-0.223-0.478-0.437-0.603c-0.277-0.004-0.455,0.092-0.766,0.055
					c-0.399,0.548-0.674,1.721-0.115,2.301c0.57,0.192,1.084,0.137,1.702,0.219c-0.289,0.352-0.629,0.658-1.044,0.88
					c-0.351-0.159-0.606-0.521-1.039-0.44c-0.647-0.462-0.991-1.201-1.535-1.756c-0.366,0.34-0.366,1.305,0.163,1.479
					c-0.111,0.223,0.096,0.566-0.06,0.821c-0.244-0.188-0.362,0.244-0.543,0.111c0.114-0.415,0.177-0.962-0.107-1.206
					c-0.799,0.025-1.14,0.507-1.595,0.877c-1.139-0.13-1.912-0.559-2.852,0c-0.203-0.178-0.555-0.211-0.54-0.604
					c0.991,0.1,2.397,0.344,3.062-0.385c-0.321,0.057-0.336-0.588-0.603-0.766c0.044-0.525-0.104-0.847-0.107-1.32
					c-0.34-0.154-0.488-0.58-0.983-0.603c-0.174-0.007-0.366,0.155-0.548,0.167c-0.861,0.055-1.231-0.285-1.535-0.766
					c0.052-0.152,0.111-0.297,0.107-0.5c-0.389-0.182-0.577-0.107-1.043-0.052c-0.288-0.204-0.459-0.528-0.828-0.655
					c-0.496,0.519-0.877,1.162-1.31,1.75c0.318,0.5,1.231,0.074,1.753,0.385c0.252-0.24,0.418-0.566,0.773-0.71
					c0.096,0.325-0.308,0.414-0.385,0.821c-0.093,0.462,0.296,1.157-0.111,1.535c-0.776-0.596-2.138-0.604-2.686-1.428
					c-0.1-0.02-0.273,0.154-0.332,0c-0.074-0.17,0.141-0.326,0-0.381c-0.707,0.425-1.21-0.271-2.139-0.111
					c-0.311-0.252-0.658-0.478-1.098-0.604c-0.074-0.688-0.274-1.157-0.766-1.476c-0.821-0.536-1.754-0.474-0.988-1.594
					c-0.292-0.237-0.392-0.585-0.385-0.987c-0.766-0.285-1.668-0.389-2.578-0.271c-0.392,0.662-1.29,1.202-2.189,0.873
					c-0.044,0.2-0.077,0.481-0.114,0.821c0.137,0.121,0.267,0.248,0.385,0.392c-0.267,0.026-0.267,0.314-0.496,0.382
					c-0.229-0.026-0.314-0.197-0.543-0.223c-0.922,0.159-1.044,0.488-1.539,1.266c-0.451,0.706-0.544,1.472-0.766,2.189
					c0.129,0.033,0.396-0.063,0.44,0.059c-0.296,0.437-1.58,0.577-2.087,0.273c0.101,0.5,0.474,0.726,0.821,0.984
					c0.57-0.256,1.317-0.463,1.809-0.104c-0.399,0.318,0.289,0.525-0.11,0.873c0.388-0.06,0.477-0.396,0.547-0.77
					c0.459-0.178,0.722-0.969,1.262-0.711c-0.07,0.322-0.381,0.662-0.377,0.873c0.503,0.248,0.876-0.04,1.312-0.162
					c-0.06,0.178-0.147,0.329-0.166,0.547c0.188-0.025,0.311,0.026,0.439,0.057c0.5,1.184,1.731,1.642,1.702,3.351
					c0.174-0.011,0.332-0.004,0.381,0.106c0.599,1.344,0.056,3.467,0.392,4.883c-0.813,0.559-0.118,1.165,0.048,1.697
					c0.378,1.177-0.236,2.29-0.603,3.186c-0.192,0.48-0.54,0.891-0.71,1.379c-0.159,0.44-0.07,0.862-0.06,1.34
					c0.03,1.087-0.044,2.189,0.155,3.262c0.045,0.222,0.082,0.459,0.111,0.688c0.025,0.167-0.037,0.471-0.022,0.578
					c0.037,0.354,0.44,0.491,0.651,0.729c0.199,0.232,0.344,0.547,0.532,0.803c0.229,0.291,0.596,0.555,0.773,0.928
					c0.255,0.562,0.107,1.139,0.214,1.713c0.06,0.314,0.237,0.307,0.318,0.543c0.074,0.203-0.056,0.363-0.04,0.566
					c0.011,0.232,0.158,0.436,0.266,0.637c0.141,0.27,0.188,0.584,0.341,0.843c0.137,0.233,0.377,0.333,0.514,0.536
					c0.344,0.507,0.466,1.165,0.851,1.693c0.366,0.504,0.729,1.059,1.313,1.043c0.019-0.229,0.277-1.224-0.048-1.367
					c-0.618-0.274-1.158-1.11-1.495-1.661c-0.174-0.292-0.562-0.833-0.64-1.117c-0.17-0.64,0.326-1.446,0.111-1.993
					c0.325,0.055,0.307,0.396,0.373,0.654c0.219,0.881,0.47,1.738,0.711,2.522c0.994,0.44,1.498,1.01,2.09,1.812
					c0.325,0.44,0.725,0.892,0.924,1.313c0.312,0.625,0.215,1.312,0.444,1.979c0.226,0.658,0.906,1.087,1.099,1.701
					c1.753,0.637,3.473,1.312,4.826,2.355c1.199-0.725,2.023,0.186,2.853,0.658c1.646,0.94,4.46,0.622,4.989,2.412
					c0.207,0.052,0.362,0.156,0.44,0.333c0.066,0.226-0.111,0.214-0.107,0.385c0.632,0.247,1.221,0.532,1.535,1.099
					c0.917,0.406,2.326,0.277,3.229-0.06c0.24,0.389,0.844,0.411,1.103,0.77c0.015,0.481,0.096,0.799-0.052,1.157
					c-0.148,0.359-0.862,1.547-1.099,1.809c-0.322,0.367-0.795,0.562-0.98,0.984c-0.284,0.647-0.1,1.25,0.052,1.812
					c-0.84,0.344-0.406,1.369-0.107,2.031c0.43,0.11,0.77,0.321,1.146,0.491c0.352,1.409,1.646,1.864,1.919,3.347
					c1.033,0.422,2.18-0.277,3.074,0.382c0.037,0.21,0.133,0.348,0.162,0.555c-0.316,0.429-0.598,0.892-0.713,1.531
					c-1.27,1.327-1.48,3.706-3.562,4.228c-0.126,0.385-0.314,0.711-0.496,1.039c0.082,0.008,0.204-0.018,0.223,0.056
					c-0.507,0.429-1.868,0.285-1.92,0.987c0.621,0.229,1.483-0.181,2.245-0.166c0.137-0.078-0.104-0.174,0.111-0.159
					c2.055-0.718,3.991-1.431,5.817-2.474c0.756-0.264,1.395-0.367,2.086-0.659c0.66-0.277,1.021-0.813,1.592-1.15
					c0.373-0.226,0.762-0.344,1.146-0.606c1.387-0.936,3.059-1.664,4.057-2.9c0.193-0.669,0.641-1.027,1.1-1.375
					c1.893-1.446,4.201-2.889,5.484-4.883c0.459-0.703,0.518-1.583,0.984-2.522c0.807-1.598,2.652-2.651,3.18-4.664
					C89.757,93.345,89.671,93.083,89.531,93.013z M62.545,69.375c0.211,0.008,0.244,0.186,0.492,0.166
					c0.074-0.044,0.074-0.178,0.104-0.277h0.218c0.141,0.163,0.045,0.223,0.056,0.492c-0.218,0.126-0.503,0.199-0.824,0.219
					C62.475,69.848,62.452,69.563,62.545,69.375z M60.869,68.568c0.155,0.193,0.233,0.447,0.174,0.814
					c-0.399,0.11-0.839,0.145-1.228-0.016c0.259-0.572-0.525-1.205-0.991-1.42c0.406-0.592,0.647-0.377,1.12-0.062
					C60.314,68.139,60.662,68.309,60.869,68.568z M57.504,70.976c-0.122,0.222-0.219,0.455-0.24,0.699
					c-0.943,0.141-1.036-0.674-0.788-1.38c0.1-0.292,1.405-2.075,1.405-2.075c0.155,0.119,0.322,0.062,0.44,0.115
					c-0.008,0.633-0.118,1.225-0.366,1.809C57.837,70.41,57.651,70.687,57.504,70.976z M58.151,66.467
					c0.218,0.296,0.436,0.596,0.551,0.991c-1.229,0.015-2.094,0.303-3.296,0.219c-0.052-0.17-0.263-0.174-0.273-0.385
					C56.157,66.97,56.853,65.875,58.151,66.467z M92.453,51.672c-0.148-0.233-0.295-0.462-0.463-0.669
					C92.146,51.214,92.298,51.439,92.453,51.672z M98.304,71.076c-0.215-1.953-0.398-3.828-0.658-5.707
					c-0.1-0.703-0.152-1.446-0.264-2.142c-0.166-0.651-0.35-1.298-0.555-1.941c-0.246-0.64-0.535-1.291-0.775-1.946
					c-0.248-0.673-0.463-1.383-0.686-2.06c-0.68-1.608-1.457-3.163-2.311-4.668c-0.207-0.329-0.41-0.64-0.607-0.939
					c0.344,0.577,0.633,1.21,0.859,1.909c-0.342-0.304-0.703-1.162-1.041-1.1c0.318,1.694,0.656,3.363,0.93,5.105
					c-0.086,0.188-0.43,0.113-0.438,0.381c0.338,0.965,0.562,2.033,0.658,3.236c0.459,0.876,1.059,1.883,1.096,2.962
					c0.033,0.736-0.189,1.454-0.215,2.134c-0.037,0.862-0.008,1.799,0.111,2.638c0.191,1.357,0.973,2.634,1.15,4.058
					c0.059,0.529-0.096,0.961,0,1.424c0.107,0.566,0.521,1.158,0.436,1.812c0.223,0.089,0.562,0.062,0.77,0.162
					c0.156,0.326,0.293,0.659,0.33,1.096c0.225,0.081,0.436,0.185,0.662,0.277c0.178-1.336,0.85-2.563,0.873-3.898
					C98.648,72.988,98.404,72.015,98.304,71.076z M91.609,51.439c-0.303-0.244-0.273-0.828-0.717-0.936
					C91.062,50.855,91.269,51.451,91.609,51.439z M87.171,50.456c-0.111-0.843-0.418-1.96-0.885-2.634
					c-0.361-0.129-0.703-0.285-1.258-0.222c-0.783-0.403-1.535-0.843-2.359-1.21c-0.033,0.13-0.182,0.152-0.221,0.277
					c0.332,0.385,0.592,0.84,0.986,1.154c0.104-0.141,0.215-0.262,0.443-0.277c1.328,0.722,2.254,1.842,3.123,3.019
					C87.027,50.496,87.072,50.452,87.171,50.456z M65.5,85.827c0.268-0.226,0.314-0.673,0.77-0.71
					c-0.365-0.152-0.729-0.621-1.205-0.711c-0.369-0.074-0.806,0.074-1.206,0.045c-1.306-0.056-2.682-0.965-3.847-0.484
					c-0.074,0.178-0.145,0.365-0.219,0.543c0.991,0.248,1.982,0.289,2.911,0.658c0.532,0.219,1.128,0.825,1.646,0.825
					C64.771,86,65.076,85.49,65.5,85.827z M31.55,47.714c-0.078,0.145-0.289,0.145-0.273,0.381
					C31.398,48.033,31.657,47.826,31.55,47.714z M71.421,85.556c-0.07,0.621,0.33,0.748,0.777,0.715
					c0.045-0.314,0.266-0.463,0.381-0.715C72.199,85.246,71.847,85.405,71.421,85.556z M35.881,59.339
					c0.229-0.029,0.325-0.191,0.496-0.273c-0.097-0.385,0.07-0.422,0.218-0.658c-0.366,0.196-0.155-0.263-0.44-0.277
					c-0.011,0.082-0.114,0.066-0.162,0.111C36.166,58.701,35.792,58.811,35.881,59.339z M37.693,40.964
					c-0.215,0.041-0.447,0.06-0.548,0.215c0.078,0.033,0.134,0.089,0.167,0.166C37.523,41.304,37.604,41.13,37.693,40.964z
					 M72.083,86.762c0.045-0.081,0.133-0.114,0.273-0.107c-0.002-0.062,0.012-0.151-0.051-0.167
					C72.285,86.599,71.867,86.592,72.083,86.762z M63.691,86.762v0.552c0.459,0.314,1.253-0.078,1.373-0.607
					C64.564,86.625,64.105,86.551,63.691,86.762z M66.927,85.827c0.082,0.181,0.205,0.313,0.275,0.499
					c1.234,0.521,2.266,0.093,3.453-0.219c0.041-0.34-0.17-0.41-0.158-0.717c-1.047-0.082-1.965-0.152-3.186-0.219
					C67.253,85.457,67.009,85.564,66.927,85.827z M42.687,35.373c-0.196-0.033-0.285,0.044-0.333,0.162
					C42.502,35.557,42.816,35.276,42.687,35.373z M69.562,36.685c-0.434-0.059-0.723-0.27-1.154-0.329
					c0.012,0.222,0.166,0.308,0.162,0.548c0.26,0.074,0.537,0.121,0.818,0.162c-0.094,0.186-0.281,0.26-0.381,0.444
					c0.381,0.776,1.682,0.869,2.414,0.329c-0.461-0.414-1.031-0.725-1.809-0.828C69.509,36.933,69.691,36.804,69.562,36.685z
					 M54.042,32.077c-0.223-0.155-0.566,0.029-0.773,0.056c-0.178-0.041-0.418,0.066-0.111,0.055
					C53.401,32.25,53.979,32.455,54.042,32.077z M52.939,47.437c0.352,0,0.606-0.092,0.825-0.218v-0.333
					c-0.548,0.052-0.407-0.577-0.929-0.273C52.677,46.986,52.799,47.119,52.939,47.437z M53.982,51.221
					c-0.074-0.314,0.126-0.352,0.166-0.548c-0.096-0.307-0.199-0.599-0.277-0.932c-0.277-0.126-0.429-0.381-0.769-0.439
					c-0.455,0.348-0.825,0.779-1.095,1.316C52.344,51.144,53.039,51.31,53.982,51.221z M50.421,48.037
					c-0.585-0.141-1.28-0.939-1.705-0.27c0.081,0.281,0.236,0.495,0.388,0.713c0.478-0.17,0.836,0.289,1.266,0.381
					c0.317,0.07,0.654-0.154,0.983,0.06c0.026-0.532-0.163-0.739,0-1.153C50.901,47.567,50.69,47.896,50.421,48.037z M43.175,34.984
					c0.507-0.296,1.231-0.373,1.594-0.821C44.055,34.218,43.438,34.662,43.175,34.984z M47.347,47.323
					c0.174,0.03,0.196,0.211,0.385,0.222c0.318-0.399,1.217-0.215,1.705-0.436c-0.222-1.096-1.213-0.268-1.979-0.111
					C47.518,47.205,47.321,47.156,47.347,47.323z M52.447,48.587c0.559,0.029,0.862,0.311,1.206,0.551
					c-0.011-0.377,0.451-0.454,0.277-0.824c-0.381-0.025-0.625-0.186-0.88-0.326C52.892,48.225,52.532,48.273,52.447,48.587z"/>
			</g>
		</g>
		<g opacity="0.6">
			<path fill="#FFFFFF" d="M56.812,71.413c13.083,10.923,30.745,4.923,41.766-0.788C96.964,48.65,78.638,31.337,56.25,31.337
				c-22.451,0-40.815,17.479-42.321,39.568C24.145,65.906,42.749,59.643,56.812,71.413z"/>
		</g>
	</g>
	<g>
		<g>
			
				<linearGradient id="SVGID_23_" gradientUnits="userSpaceOnUse" x1="-925.8179" y1="1826.4839" x2="-930.1928" y2="1823.4205" gradientTransform="matrix(0.9809 0.1946 -0.1946 0.9809 1341.0225 -1552.7123)">
				<stop  offset="0" style="stop-color:#181500"/>
				<stop  offset="1" style="stop-color:#5F5D5C"/>
			</linearGradient>
			<polygon fill="url(#SVGID_23_)" points="86.068,43.15 65.728,67.212 64.58,70.24 67.292,68.539 87.726,44.363 			"/>
			
				<linearGradient id="SVGID_24_" gradientUnits="userSpaceOnUse" x1="-927.8647" y1="1789.5562" x2="-884.769" y2="1789.5562" gradientTransform="matrix(0.9809 0.1946 -0.1946 0.9809 1341.0225 -1552.7123)">
				<stop  offset="0" style="stop-color:#FAFAFA"/>
				<stop  offset="0.3629" style="stop-color:#E5E5E5"/>
				<stop  offset="1" style="stop-color:#C4C4C4"/>
			</linearGradient>
			<path fill="url(#SVGID_24_)" stroke="#000000" stroke-miterlimit="3.8637" d="M98.8,2.029l-4.021,4.762
				c0,0,0.801,2.053,1.838,3.709c1.24,1.974,2.473,3.467,2.473,3.467L80.781,31.799c0,0,1.701,8.284,6.197,12.087
				c4.496,3.805,12.18,4.714,12.18,4.714l15.131-21.772c0,0,1.785,1.139,3.996,2.005c1.725,0.673,3.738,1.003,3.738,1.003
				l4.027-4.763L98.8,2.029L98.8,2.029z"/>
			<g>
				<g>
					
						<linearGradient id="SVGID_25_" gradientUnits="userSpaceOnUse" x1="-940.2095" y1="1811.8599" x2="-902.8921" y2="1811.8599" gradientTransform="matrix(0.9809 0.1946 -0.1946 0.9809 1341.0225 -1552.7123)">
						<stop  offset="0" style="stop-color:#FAFAFA"/>
						<stop  offset="0.3629" style="stop-color:#E5E5E5"/>
						<stop  offset="1" style="stop-color:#C4C4C4"/>
					</linearGradient>
					<path id="SVGID_38_" fill="url(#SVGID_25_)" stroke="#000000" stroke-miterlimit="3.8637" d="M80.812,31.541
						c0,0-5.049-0.976-7.799-0.422c-0.99,0.198-5.312,3.173-5.312,3.173s1.023,7.886,12.164,17.313
						c11.143,9.428,19.209,9.23,19.209,9.23s2.389-4.254,2.498-5.553c0.27-3.221-1.736-7.646-1.736-7.646s-5.51-0.217-11.652-5.67
						C82.302,36.746,80.812,31.541,80.812,31.541L80.812,31.541z"/>
				</g>
				<g>
					<g>
						<defs>
							<path id="SVGID_26_" d="M80.812,31.541c0,0-5.049-0.976-7.799-0.422c-0.99,0.198-5.312,3.173-5.312,3.173
								s1.023,7.886,12.164,17.313c11.143,9.428,19.209,9.23,19.209,9.23s2.389-4.254,2.498-5.553
								c0.27-3.221-1.736-7.646-1.736-7.646s-5.51-0.217-11.652-5.67C82.302,36.746,80.812,31.541,80.812,31.541L80.812,31.541z"/>
						</defs>
						<clipPath id="SVGID_27_">
							<use xlink:href="#SVGID_26_"  overflow="visible"/>
						</clipPath>
						
							<linearGradient id="SVGID_28_" gradientUnits="userSpaceOnUse" x1="-918.3711" y1="1816.9702" x2="-918.3711" y2="1797.9263" gradientTransform="matrix(0.9809 0.1946 -0.1946 0.9809 1341.0225 -1552.7123)">
							<stop  offset="0" style="stop-color:#181500"/>
							<stop  offset="1" style="stop-color:#5F5D5C"/>
						</linearGradient>
						<path clip-path="url(#SVGID_27_)" fill="url(#SVGID_28_)" d="M74.509,29.933c0,0,0.531,7.131,10.896,15.903
							c10.365,8.769,17.053,7.745,17.053,7.745l-1.344-6.135l-11.787-5.902l-8.512-11.273L74.509,29.933L74.509,29.933z"/>
					</g>
				</g>
			</g>
			
				<linearGradient id="SVGID_29_" gradientUnits="userSpaceOnUse" x1="-900.4492" y1="1784.4106" x2="-900.4492" y2="1766.6079" gradientTransform="matrix(0.9809 0.1946 -0.1946 0.9809 1341.0225 -1552.7123)">
				<stop  offset="0" style="stop-color:#181500"/>
				<stop  offset="1" style="stop-color:#5F5D5C"/>
			</linearGradient>
			<path fill="url(#SVGID_29_)" stroke="#000000" stroke-miterlimit="3.8637" d="M98.707,2.14c0.84-0.994,7.619,3.357,15.143,9.727
				c7.521,6.365,12.939,12.33,12.098,13.328c-0.844,0.996-7.621-3.357-15.146-9.723C103.281,9.105,97.865,3.136,98.707,2.14
				L98.707,2.14z"/>
		</g>
		<path opacity="0.66" fill="#666666" d="M113.259,10.433C106.041,4.41,99.677,0.375,98.865,1.335
			c-0.803,0.947,4.09,6.422,11.066,12.451C110.785,12.47,111.921,11.337,113.259,10.433z"/>
	</g>
</g>
</svg>
