<?xml version="1.0" encoding="utf-8"?>
<!-- Generator: Adobe Illustrator 13.0.0, SVG Export Plug-In . SVG Version: 6.00 Build 14948)  -->
<!DOCTYPE svg PUBLIC "-//W3C//DTD SVG 1.1//EN" "http://www.w3.org/Graphics/SVG/1.1/DTD/svg11.dtd">
<svg version="1.1" id="Layer_1" xmlns="http://www.w3.org/2000/svg" xmlns:xlink="http://www.w3.org/1999/xlink" x="0px" y="0px"
	 width="128px" height="128px" viewBox="0 0 128 128" enable-background="new 0 0 128 128" xml:space="preserve">
<g>
	<g>
		<g>
			<g>
				
					<linearGradient id="SVGID_1_" gradientUnits="userSpaceOnUse" x1="1170.8369" y1="2776.6777" x2="1170.8369" y2="2758.0527" gradientTransform="matrix(2.2592 0 0 2.2596 -2602.8799 -6162.731)">
					<stop  offset="0" style="stop-color:#9A9A9A"/>
					<stop  offset="1" style="stop-color:#DEDEDE"/>
				</linearGradient>
				<path fill="url(#SVGID_1_)" d="M53.147,111.449c4.553,0,8.281-3.738,8.281-8.281V77.645c0-4.553-3.729-8.281-8.281-8.281
					l-21.753,0.008c-4.558-0.008-8.29,3.721-8.271,8.273v25.523c-0.019,4.553,3.714,8.281,8.256,8.281H53.147L53.147,111.449z"/>
				<path opacity="0.8" fill="#FFFFFF" d="M52.156,70.604l-19.75,0.008c-4.138-0.008-7.527,3.377-7.51,7.51v1.576
					c-0.018-4.133,3.372-7.518,7.51-7.51l19.75-0.008c4.133,0,7.519,3.385,7.519,7.518v-1.576
					C59.675,73.988,56.289,70.604,52.156,70.604z"/>
				<radialGradient id="SVGID_2_" cx="42.27" cy="89.3721" r="15.2688" gradientUnits="userSpaceOnUse">
					<stop  offset="0" style="stop-color:#FAFAFA"/>
					<stop  offset="0.3109" style="stop-color:#F4F4F4"/>
					<stop  offset="0.7262" style="stop-color:#E3E3E3"/>
					<stop  offset="1" style="stop-color:#D4D4D4"/>
				</radialGradient>
				<path fill="url(#SVGID_2_)" d="M31.168,74.098L53.369,74.1c2.3,0,4.162,1.863,4.162,4.164l0.002,22.217
					c0,2.301-1.863,4.166-4.162,4.166l-22.202-0.002c-2.297,0-4.162-1.865-4.162-4.166V78.262
					C27.006,75.961,28.869,74.098,31.168,74.098L31.168,74.098z"/>
				<path fill="#CCCCCC" d="M35.436,94.291c-2.958,0-5.794-0.342-8.429-0.961v7.148c0,2.301,1.863,4.166,4.161,4.166l22.203,0.002
					c2.298,0,4.161-1.865,4.161-4.166L57.531,85.59C53.291,90.771,44.987,94.291,35.436,94.291z"/>
			</g>
			<g>
				
					<linearGradient id="SVGID_3_" gradientUnits="userSpaceOnUse" x1="1190.0693" y1="2776.6777" x2="1190.0693" y2="2758.0527" gradientTransform="matrix(2.2592 0 0 2.2596 -2602.8799 -6162.731)">
					<stop  offset="0" style="stop-color:#9A9A9A"/>
					<stop  offset="1" style="stop-color:#DEDEDE"/>
				</linearGradient>
				<path fill="url(#SVGID_3_)" d="M96.596,111.449c4.553,0,8.281-3.738,8.281-8.281V77.645c0-4.553-3.729-8.281-8.281-8.281
					l-21.752,0.008c-4.559-0.008-8.291,3.721-8.271,8.273v25.523c-0.02,4.553,3.713,8.281,8.256,8.281H96.596L96.596,111.449z"/>
				<path opacity="0.8" fill="#FFFFFF" d="M95.605,70.604l-19.75,0.008c-4.139-0.008-7.527,3.377-7.51,7.51v1.576
					c-0.018-4.133,3.371-7.518,7.51-7.51l19.75-0.008c4.133,0,7.518,3.385,7.518,7.518v-1.576
					C103.123,73.988,99.738,70.604,95.605,70.604z"/>
				<radialGradient id="SVGID_4_" cx="85.7188" cy="89.3721" r="15.269" gradientUnits="userSpaceOnUse">
					<stop  offset="0" style="stop-color:#FAFAFA"/>
					<stop  offset="0.3109" style="stop-color:#F4F4F4"/>
					<stop  offset="0.7262" style="stop-color:#E3E3E3"/>
					<stop  offset="1" style="stop-color:#D4D4D4"/>
				</radialGradient>
				<path fill="url(#SVGID_4_)" d="M74.617,74.098L96.818,74.1c2.299,0,4.162,1.863,4.162,4.164l0.002,22.217
					c0,2.301-1.863,4.166-4.162,4.166l-22.203-0.002c-2.297,0-4.162-1.865-4.162-4.166V78.262
					C70.455,75.961,72.318,74.098,74.617,74.098L74.617,74.098z"/>
				<path fill="#CCCCCC" d="M78.885,94.291c-2.959,0-5.795-0.342-8.43-0.961v7.148c0,2.301,1.863,4.166,4.162,4.166l22.203,0.002
					c2.297,0,4.16-1.865,4.16-4.166V85.59C96.74,90.771,88.436,94.291,78.885,94.291z"/>
			</g>
		</g>
		<g>
			<g>
				
					<linearGradient id="SVGID_5_" gradientUnits="userSpaceOnUse" x1="1161.2207" y1="2753.3057" x2="1161.2207" y2="2734.6807" gradientTransform="matrix(2.2592 0 0 2.2596 -2602.8799 -6162.731)">
					<stop  offset="0" style="stop-color:#9A9A9A"/>
					<stop  offset="1" style="stop-color:#DEDEDE"/>
				</linearGradient>
				<path fill="url(#SVGID_5_)" d="M31.423,58.637c4.553,0,8.281-3.738,8.281-8.281V24.833c0-4.553-3.729-8.281-8.281-8.281
					L9.67,16.559c-4.558-0.008-8.29,3.721-8.271,8.273v25.523c-0.019,4.553,3.714,8.281,8.256,8.281H31.423L31.423,58.637z"/>
				<path opacity="0.8" fill="#FFFFFF" d="M30.432,17.792l-19.75,0.008c-4.138-0.008-7.527,3.377-7.51,7.51v1.576
					c-0.018-4.133,3.372-7.518,7.51-7.51l19.75-0.008c4.133,0,7.519,3.385,7.519,7.518v-1.576
					C37.95,21.176,34.564,17.792,30.432,17.792z"/>
				<radialGradient id="SVGID_6_" cx="20.5454" cy="36.5601" r="15.2688" gradientUnits="userSpaceOnUse">
					<stop  offset="0" style="stop-color:#FAFAFA"/>
					<stop  offset="0.3109" style="stop-color:#F4F4F4"/>
					<stop  offset="0.7262" style="stop-color:#E3E3E3"/>
					<stop  offset="1" style="stop-color:#D4D4D4"/>
				</radialGradient>
				<path fill="url(#SVGID_6_)" d="M9.443,21.286l22.201,0.002c2.3,0,4.162,1.864,4.162,4.165l0.002,22.217
					c0,2.3-1.863,4.165-4.162,4.165L9.444,51.833c-2.297,0-4.162-1.866-4.162-4.166V25.451C5.281,23.15,7.145,21.286,9.443,21.286
					L9.443,21.286z"/>
				<path fill="#CCCCCC" d="M13.711,41.479c-2.958,0-5.794-0.342-8.429-0.961v7.149c0,2.3,1.863,4.166,4.161,4.166l22.203,0.001
					c2.298,0,4.161-1.865,4.161-4.165l-0.001-14.891C31.566,37.959,23.263,41.479,13.711,41.479z"/>
			</g>
			<g>
				
					<linearGradient id="SVGID_7_" gradientUnits="userSpaceOnUse" x1="1180.4531" y1="2753.3057" x2="1180.4531" y2="2734.6807" gradientTransform="matrix(2.2592 0 0 2.2596 -2602.8799 -6162.731)">
					<stop  offset="0" style="stop-color:#9A9A9A"/>
					<stop  offset="1" style="stop-color:#DEDEDE"/>
				</linearGradient>
				<path fill="url(#SVGID_7_)" d="M74.871,58.637c4.553,0,8.281-3.738,8.281-8.281V24.833c0-4.553-3.729-8.281-8.281-8.281
					l-21.752,0.008c-4.559-0.008-8.291,3.721-8.271,8.273v25.523c-0.02,4.553,3.713,8.281,8.256,8.281H74.871L74.871,58.637z"/>
				<path opacity="0.8" fill="#FFFFFF" d="M73.881,17.792l-19.75,0.008c-4.139-0.008-7.527,3.377-7.51,7.51v1.576
					c-0.018-4.133,3.371-7.518,7.51-7.51l19.75-0.008c4.133,0,7.518,3.385,7.518,7.518v-1.576
					C81.398,21.176,78.014,17.792,73.881,17.792z"/>
				<radialGradient id="SVGID_8_" cx="63.9941" cy="36.5601" r="15.269" gradientUnits="userSpaceOnUse">
					<stop  offset="0" style="stop-color:#FAFAFA"/>
					<stop  offset="0.3109" style="stop-color:#F4F4F4"/>
					<stop  offset="0.7262" style="stop-color:#E3E3E3"/>
					<stop  offset="1" style="stop-color:#D4D4D4"/>
				</radialGradient>
				<path fill="url(#SVGID_8_)" d="M52.893,21.286l22.201,0.002c2.299,0,4.162,1.864,4.162,4.165l0.002,22.217
					c0,2.3-1.863,4.165-4.162,4.165l-22.203-0.001c-2.297,0-4.162-1.866-4.162-4.166V25.451
					C48.73,23.15,50.594,21.286,52.893,21.286L52.893,21.286z"/>
				<path fill="#CCCCCC" d="M57.16,41.479c-2.959,0-5.795-0.342-8.43-0.961v7.149c0,2.3,1.863,4.166,4.162,4.166l22.203,0.001
					c2.297,0,4.16-1.865,4.16-4.165V32.779C75.016,37.959,66.711,41.479,57.16,41.479z"/>
			</g>
			<g>
				
					<linearGradient id="SVGID_9_" gradientUnits="userSpaceOnUse" x1="1199.6846" y1="2753.3057" x2="1199.6846" y2="2734.6807" gradientTransform="matrix(2.2592 0 0 2.2596 -2602.8799 -6162.731)">
					<stop  offset="0" style="stop-color:#9A9A9A"/>
					<stop  offset="1" style="stop-color:#DEDEDE"/>
				</linearGradient>
				<path fill="url(#SVGID_9_)" d="M118.32,58.637c4.553,0,8.281-3.738,8.281-8.281V24.833c0-4.553-3.729-8.281-8.281-8.281
					l-21.753,0.008c-4.558-0.008-8.29,3.721-8.271,8.273v25.523c-0.019,4.553,3.714,8.281,8.256,8.281H118.32L118.32,58.637z"/>
				<path opacity="0.8" fill="#FFFFFF" d="M117.329,17.792l-19.75,0.008c-4.138-0.008-7.527,3.377-7.51,7.51v1.576
					c-0.018-4.133,3.372-7.518,7.51-7.51l19.75-0.008c4.133,0,7.519,3.385,7.519,7.518v-1.576
					C124.848,21.176,121.462,17.792,117.329,17.792z"/>
				<radialGradient id="SVGID_10_" cx="107.4434" cy="36.5601" r="15.2686" gradientUnits="userSpaceOnUse">
					<stop  offset="0" style="stop-color:#FAFAFA"/>
					<stop  offset="0.3109" style="stop-color:#F4F4F4"/>
					<stop  offset="0.7262" style="stop-color:#E3E3E3"/>
					<stop  offset="1" style="stop-color:#D4D4D4"/>
				</radialGradient>
				<path fill="url(#SVGID_10_)" d="M96.341,21.286l22.201,0.002c2.3,0,4.162,1.864,4.162,4.165l0.002,22.217
					c0,2.3-1.863,4.165-4.162,4.165l-22.202-0.001c-2.297,0-4.162-1.866-4.162-4.166V25.451
					C92.179,23.15,94.042,21.286,96.341,21.286L96.341,21.286z"/>
				<path fill="#CCCCCC" d="M100.608,41.479c-2.958,0-5.794-0.342-8.429-0.961v7.149c0,2.3,1.863,4.166,4.161,4.166l22.203,0.001
					c2.298,0,4.161-1.865,4.161-4.165l-0.001-14.891C118.464,37.959,110.16,41.479,100.608,41.479z"/>
			</g>
		</g>
	</g>
	
		<linearGradient id="SVGID_11_" gradientUnits="userSpaceOnUse" x1="-382.5835" y1="857.9482" x2="-402.3999" y2="844.0726" gradientTransform="matrix(1 0 0 1 412.6201 -813.9912)">
		<stop  offset="0" style="stop-color:#EC008C"/>
		<stop  offset="1" style="stop-color:#C40075"/>
	</linearGradient>
	<path fill="url(#SVGID_11_)" d="M28.36,46.35h-2.83V33.89l-4.299,9.083l-2.082-0.01l-4.42-9.111V46.35h-2.835V27.688h2.835
		l5.45,11.614l5.351-11.614h2.83V46.35L28.36,46.35z"/>
	
		<linearGradient id="SVGID_12_" gradientUnits="userSpaceOnUse" x1="-343.3491" y1="854.7461" x2="-354.0165" y2="847.2767" gradientTransform="matrix(1 0 0 1 412.6201 -813.9912)">
		<stop  offset="0" style="stop-color:#EC008C"/>
		<stop  offset="1" style="stop-color:#C40075"/>
	</linearGradient>
	<path fill="url(#SVGID_12_)" d="M65.352,46.35h-2.829V27.688h2.829V46.35z"/>
	
		<linearGradient id="SVGID_13_" gradientUnits="userSpaceOnUse" x1="-296.5537" y1="858.9688" x2="-313.2543" y2="847.2748" gradientTransform="matrix(1 0 0 1 412.6201 -813.9912)">
		<stop  offset="0" style="stop-color:#EC008C"/>
		<stop  offset="1" style="stop-color:#C40075"/>
	</linearGradient>
	<path fill="url(#SVGID_13_)" d="M115.106,46.35h-11.822V27.688h2.834v16.123h8.988V46.35z"/>
	
		<linearGradient id="SVGID_14_" gradientUnits="userSpaceOnUse" x1="-361.1104" y1="909.8232" x2="-379.6436" y2="896.8461" gradientTransform="matrix(1 0 0 1 412.6201 -813.9912)">
		<stop  offset="0" style="stop-color:#EC008C"/>
		<stop  offset="1" style="stop-color:#C40075"/>
	</linearGradient>
	<path fill="url(#SVGID_14_)" d="M49.622,98.527l-3.344,0.008l-5.235-9.207l-3.14,3.787v5.412h-2.834V79.865h2.834v9.383
		l7.619-9.383l3.463-0.01l-6.05,7.314L49.622,98.527z"/>
	
		<linearGradient id="SVGID_15_" gradientUnits="userSpaceOnUse" x1="-321.6733" y1="905.6113" x2="-336.0909" y2="895.516" gradientTransform="matrix(1 0 0 1 412.6201 -813.9912)">
		<stop  offset="0" style="stop-color:#EC008C"/>
		<stop  offset="1" style="stop-color:#C40075"/>
	</linearGradient>
	<path fill="url(#SVGID_15_)" d="M91.694,79.865l-5.584,10.98v7.682h-2.834v-7.682l-5.584-10.98h3.092l3.91,8.213l3.907-8.213
		H91.694z"/>
</g>
</svg>
