<?xml version="1.0"?>
<!DOCTYPE svg PUBLIC "-//W3C//DTD SVG 1.0//EN"
	"http://www.w3.org/TR/2001/REC-SVG-20010904/DTD/svg10.dtd">
<svg xmlns:x="http://ns.adobe.com/Extensibility/1.0/"
	xmlns:i="http://ns.adobe.com/AdobeIllustrator/10.0/" xmlns:graph=""
	xmlns="http://www.w3.org/2000/svg" xmlns:xlink="http://www.w3.org/1999/xlink"
	xmlns:a="http://ns.adobe.com/AdobeSVGViewerExtensions/3.0/" width="118"
	height="119" viewBox="0.306 -0.359 118 119" overflow="visible"
	enable-background="new 0.306 -0.359 118 119" xml:space="preserve">
	<g id="Layer_1_2_">
		<g>
			<g id="Layer_x005F_1_2_">
				<g>
					<g>
						<linearGradient id="XMLID_1_" gradientUnits="userSpaceOnUse" x1="56.8345"
							y1="124.265" x2="56.8345" y2="20.0069"
							gradientTransform="matrix(1 0 0 1 2.5 7.5)">
							<stop offset="0" style="stop-color:rgb(0,149,255)"/>
							<stop offset="1" style="stop-color:rgb(0,225,255)"/>
						</linearGradient>
						<path
							d="M118.668 113.543 C118.668 116.37 116.375 118.664 113.547 118.664 L5.124 118.664 C2.294
								118.664 0 116.37 0 113.543 L0 5.123 C0 2.294 2.294 0 5.124 0 L113.548
								0 C116.376 0 118.669 2.294 118.669 5.123 L118.669 113.543 z"
							 style="fill:url(#XMLID_1_)"/>
						<path
							d="M114.148 88.803 C114.148 91.634 111.854 93.927 109.022 93.927 L9.266 93.927 C6.438
								93.927 4.146 91.634 4.146 88.803 L4.146 9.143 C4.146 6.313 6.438 4.02
								9.266 4.02 L109.022 4.02 C111.854 4.02 114.148 6.314 114.148 9.143 L114.148
								88.806 z"
							 style="fill:url(#XMLID_1_)"/>
						<path
							d="M70.823 10.046 C38.781 10.046 12.809 23.202 12.809 39.43 C12.809 55.659 38.782 68.816
								70.823 68.816 C72.925 68.816 74.999 68.757 77.041 68.647 L73.46 86.399
								L114.271 58.9 L114.271 19.961 C103.641 13.881 88.119 10.046 70.823 10.046
								z"
							 style="fill:url(#XMLID_1_)"/>
						<g>
							<path
								d="M47.528 37.986 L46.938 37.986 C46.642 37.922 46.224 37.869 45.685 37.83 C45.143 37.792
									44.611 37.774 44.081 37.774 C43.209 37.774 42.366 37.827 41.556 37.931
									C40.745 38.037 39.909 38.205 39.049 38.439 L35.857 49.729 L29.202
									49.729 L33.971 32.866 L40.625 32.866 L39.943 35.35 C41.194 34.601 42.442
									33.991 43.689 33.52 C44.936 33.05 46.191 32.812 47.458 32.812 C47.688
									32.812 47.952 32.819 48.24 32.832 C48.528 32.844 48.784 32.857 49.004
									32.867 L47.53 37.989 L47.53 37.986 z"
								 style="fill:url(#XMLID_1_)"/>
							<path
								d="M59.595 50.207 C56.073 50.207 53.357 49.574 51.444 48.305 C49.529 47.034 48.571 45.279
									48.571 43.034 C48.571 41.5 48.884 40.094 49.511 38.81 C50.137 37.53
									51.035 36.404 52.213 35.435 C53.341 34.502 54.748 33.761 56.438 33.211
									C58.131 32.657 59.986 32.382 62.009 32.382 C65.084 32.382 67.403 32.885
									68.963 33.896 C70.526 34.903 71.308 36.398 71.308 38.38 C71.308 39.053
									71.225 39.713 71.061 40.362 C70.894 41.011 70.678 41.66 70.407 42.306
									L55.084 42.306 C55.084 42.368 55.084 42.426 55.084 42.481 C55.084 42.536
									55.084 42.587 55.084 42.636 C55.084 43.806 55.585 44.719 56.593 45.378
									C57.599 46.037 59.141 46.364 61.213 46.364 C62.662 46.364 64.034 46.165
									65.328 45.766 C66.621 45.366 67.746 44.926 68.704 44.442 L69.439
									44.442 L68.209 48.801 C66.918 49.272 65.563 49.62 64.14 49.855 C62.717
									50.089 61.202 50.207 59.595 50.207 zM64.632 39.16 C64.667 38.977 64.695
									38.811 64.714 38.656 C64.735 38.504 64.741 38.348 64.741 38.189 C64.741
									37.404 64.441 36.801 63.843 36.378 C63.241 35.956 62.38 35.744 61.252
									35.744 C59.894 35.744 58.753 36.045 57.829 36.645 C56.904 37.245 56.204
									38.084 55.727 39.16 z"
								 style="fill:url(#XMLID_1_)"/>
							<path
								d="M85.958 47.939 C85.541 48.166 85.04 48.434 84.453 48.751 C83.866 49.064 83.322 49.317
									82.821 49.502 C82.133 49.726 81.495 49.899 80.894 50.024 C80.293 50.146
									79.46 50.208 78.399 50.208 C76.686 50.208 75.289 49.815 74.206 49.027
									C73.124 48.238 72.581 47.209 72.581 45.942 C72.581 44.611 72.967 43.482
									73.733 42.552 C74.503 41.623 75.642 40.881 77.151 40.323 C78.566
									39.795 80.251 39.416 82.209 39.188 C84.165 38.96 86.288 38.792 88.566 38.68
									C88.579 38.619 88.604 38.517 88.644 38.383 C88.686 38.246 88.707 38.094
									88.707 37.926 C88.707 37.234 88.303 36.751 87.502 36.478 C86.693
									36.204 85.494 36.065 83.896 36.065 C82.811 36.065 81.617 36.212 80.302
									36.508 C78.991 36.802 78.007 37.046 77.349 37.238 L76.745 37.238 L77.719
									33.232 C78.488 33.071 79.679 32.89 81.291 32.688 C82.907 32.483 84.511
									32.381 86.112 32.381 C89.338 32.381 91.706 32.729 93.216 33.423 C94.723
									34.115 95.48 35.187 95.48 36.637 C95.48 36.833 95.456 37.094 95.414
									37.419 C95.369 37.745 95.314 38.023 95.237 38.256 L92.01 49.728 L85.46
									49.728 L85.961 47.94 zM87.693 41.775 C86.519 41.861 85.419 41.959 84.386
									42.069 C83.359 42.18 82.483 42.34 81.762 42.548 C81.015 42.77 80.446
									43.079 80.052 43.477 C79.66 43.875 79.464 44.407 79.464 45.068 C79.464
									45.645 79.726 46.049 80.247 46.283 C80.768 46.517 81.524 46.632 82.518
									46.632 C83.166 46.632 83.866 46.51 84.604 46.265 C85.347 46.019 86.042
									45.703 86.693 45.324 L87.692 41.779 L87.692 41.775 z"
								 style="fill:url(#XMLID_1_)"/>
							<path d="M111.418 26.353 L104.781 49.729 L98.127 49.729 L104.764 26.353 z"
								 style="fill:url(#XMLID_1_)"/>
						</g>
					</g>
				</g>
				<g>
					<g>
						<path
							d="M118.668 113.543 C118.668 116.37 116.375 118.664 113.547 118.664 L5.124 118.664 C2.294
								118.664 0 116.37 0 113.543 L0 5.123 C0 2.294 2.294 0 5.124 0 L113.548
								0 C116.376 0 118.669 2.294 118.669 5.123 L118.669 113.543 z"/>
						<linearGradient id="XMLID_8_" gradientUnits="userSpaceOnUse" x1="59.1465"
							y1="-78.9648" x2="59.1465" y2="130.547">
							<stop offset="0" style="stop-color:rgb(255,255,255)"/>
							<stop offset="0.0626" style="stop-color:rgb(230,249,255)"/>
							<stop offset="0.1386" style="stop-color:rgb(206,242,255)"/>
							<stop offset="0.1854" style="stop-color:rgb(197,240,255)"/>
							<stop offset="1" style="stop-color:rgb(29,116,217)"/>
						</linearGradient>
						<path
							d="M114.148 88.803 C114.148 91.634 111.854 93.927 109.022 93.927 L9.266 93.927 C6.438
								93.927 4.146 91.634 4.146 88.803 L4.146 9.143 C4.146 6.313 6.438 4.02
								9.266 4.02 L109.022 4.02 C111.854 4.02 114.148 6.314 114.148 9.143 L114.148
								88.806 z"
							 style="fill-rule:evenodd;clip-rule:evenodd;fill:url(#XMLID_8_)"/>
						<path
							d="M70.823 10.046 C38.781 10.046 12.809 23.202 12.809 39.43 C12.809 55.659 38.782 68.816
								70.823 68.816 C72.925 68.816 74.999 68.757 77.041 68.647 L73.46 86.399
								L114.271 58.9 L114.271 19.961 C103.641 13.881 88.119 10.046 70.823 10.046
								z"/>
						<g>
							<path
								d="M47.528 37.986 L46.938 37.986 C46.642 37.922 46.224 37.869 45.685 37.83 C45.143 37.792
									44.611 37.774 44.081 37.774 C43.209 37.774 42.366 37.827 41.556 37.931
									C40.745 38.037 39.909 38.205 39.049 38.439 L35.857 49.729 L29.202
									49.729 L33.971 32.866 L40.625 32.866 L39.943 35.35 C41.194 34.601 42.442
									33.991 43.689 33.52 C44.936 33.05 46.191 32.812 47.458 32.812 C47.688
									32.812 47.952 32.819 48.24 32.832 C48.528 32.844 48.784 32.857 49.004
									32.867 L47.53 37.989 L47.53 37.986 z"
								 style="fill:rgb(255,255,255)"/>
							<path
								d="M59.595 50.207 C56.073 50.207 53.357 49.574 51.444 48.305 C49.529 47.034 48.571 45.279
									48.571 43.034 C48.571 41.5 48.884 40.094 49.511 38.81 C50.137 37.53
									51.035 36.404 52.213 35.435 C53.341 34.502 54.748 33.761 56.438 33.211
									C58.131 32.657 59.986 32.382 62.009 32.382 C65.084 32.382 67.403 32.885
									68.963 33.896 C70.526 34.903 71.308 36.398 71.308 38.38 C71.308 39.053
									71.225 39.713 71.061 40.362 C70.894 41.011 70.678 41.66 70.407 42.306
									L55.084 42.306 C55.084 42.368 55.084 42.426 55.084 42.481 C55.084 42.536
									55.084 42.587 55.084 42.636 C55.084 43.806 55.585 44.719 56.593 45.378
									C57.599 46.037 59.141 46.364 61.213 46.364 C62.662 46.364 64.034 46.165
									65.328 45.766 C66.621 45.366 67.746 44.926 68.704 44.442 L69.439
									44.442 L68.209 48.801 C66.918 49.272 65.563 49.62 64.14 49.855 C62.717
									50.089 61.202 50.207 59.595 50.207 zM64.632 39.16 C64.667 38.977 64.695
									38.811 64.714 38.656 C64.735 38.504 64.741 38.348 64.741 38.189 C64.741
									37.404 64.441 36.801 63.843 36.378 C63.241 35.956 62.38 35.744 61.252
									35.744 C59.894 35.744 58.753 36.045 57.829 36.645 C56.904 37.245 56.204
									38.084 55.727 39.16 z"
								 style="fill:rgb(255,255,255)"/>
							<path
								d="M85.958 47.939 C85.541 48.166 85.04 48.434 84.453 48.751 C83.866 49.064 83.322 49.317
									82.821 49.502 C82.133 49.726 81.495 49.899 80.894 50.024 C80.293 50.146
									79.46 50.208 78.399 50.208 C76.686 50.208 75.289 49.815 74.206 49.027
									C73.124 48.238 72.581 47.209 72.581 45.942 C72.581 44.611 72.967 43.482
									73.733 42.552 C74.503 41.623 75.642 40.881 77.151 40.323 C78.566
									39.795 80.251 39.416 82.209 39.188 C84.165 38.96 86.288 38.792 88.566 38.68
									C88.579 38.619 88.604 38.517 88.644 38.383 C88.686 38.246 88.707 38.094
									88.707 37.926 C88.707 37.234 88.303 36.751 87.502 36.478 C86.693
									36.204 85.494 36.065 83.896 36.065 C82.811 36.065 81.617 36.212 80.302
									36.508 C78.991 36.802 78.007 37.046 77.349 37.238 L76.745 37.238 L77.719
									33.232 C78.488 33.071 79.679 32.89 81.291 32.688 C82.907 32.483 84.511
									32.381 86.112 32.381 C89.338 32.381 91.706 32.729 93.216 33.423 C94.723
									34.115 95.48 35.187 95.48 36.637 C95.48 36.833 95.456 37.094 95.414
									37.419 C95.369 37.745 95.314 38.023 95.237 38.256 L92.01 49.728 L85.46
									49.728 L85.961 47.94 zM87.693 41.775 C86.519 41.861 85.419 41.959 84.386
									42.069 C83.359 42.18 82.483 42.34 81.762 42.548 C81.015 42.77 80.446
									43.079 80.052 43.477 C79.66 43.875 79.464 44.407 79.464 45.068 C79.464
									45.645 79.726 46.049 80.247 46.283 C80.768 46.517 81.524 46.632 82.518
									46.632 C83.166 46.632 83.866 46.51 84.604 46.265 C85.347 46.019 86.042
									45.703 86.693 45.324 L87.692 41.779 L87.692 41.775 z"
								 style="fill:rgb(255,255,255)"/>
							<path d="M111.418 26.353 L104.781 49.729 L98.127 49.729 L104.764 26.353 z"
								 style="fill:rgb(255,255,255)"/>
						</g>
					</g>
				</g>
			</g>
			<linearGradient id="XMLID_9_" gradientUnits="userSpaceOnUse" x1="57.1421"
				y1="-13.4736" x2="57.1421" y2="65.3397">
				<stop offset="2.87356%" style="stop-color:rgb(255,255,255)"/>
				<stop offset="100%" style="stop-opacity:0;stop-color:rgb(255,255,255)"/>
			</linearGradient>
			<path a:adobe-blending-mode="screen"
				d="M107.384 6.74 C107.037 6.654 106.681 6.594 106.306 6.594 L11.385 6.594 C8.91 6.594
					6.9 8.603 6.9 11.08 L6.9 67.97 C13.195 69.289 19.775 70 26.556 70 C69.392
					70 104.444 42.085 107.384 6.74 z"
				 style="fill:url(#XMLID_9_)"/>
		</g>
	</g>
</svg>
