<?xml version="1.0" encoding="utf-8"?>
<!-- Generator: Adobe Illustrator 13.0.0, SVG Export Plug-In . SVG Version: 6.00 Build 14948)  -->
<!DOCTYPE svg PUBLIC "-//W3C//DTD SVG 1.1//EN" "http://www.w3.org/Graphics/SVG/1.1/DTD/svg11.dtd">
<svg version="1.1" id="Layer_1" xmlns="http://www.w3.org/2000/svg" xmlns:xlink="http://www.w3.org/1999/xlink" x="0px" y="0px"
	 width="128px" height="128px" viewBox="0 0 128 128" enable-background="new 0 0 128 128" xml:space="preserve">
<g>
	<g>
		<g>
			<g>
				<linearGradient id="SVGID_1_" gradientUnits="userSpaceOnUse" x1="79.1826" y1="109.8389" x2="54.5227" y2="92.5718">
					<stop  offset="0" style="stop-color:#181500"/>
					<stop  offset="1" style="stop-color:#5F5D5C"/>
				</linearGradient>
				<path fill="url(#SVGID_1_)" d="M67.771,82.113h-5.832c-1.148,15.471-3.318,28.266-10.49,28.043H78.26
					C71.084,110.379,68.911,97.584,67.771,82.113z"/>
				<linearGradient id="SVGID_2_" gradientUnits="userSpaceOnUse" x1="64" y1="109.5479" x2="64" y2="117.8443">
					<stop  offset="0" style="stop-color:#181500"/>
					<stop  offset="1" style="stop-color:#5F5D5C"/>
				</linearGradient>
				<path fill="url(#SVGID_2_)" d="M96.507,114.953c0,2.287-1.856,2.869-4.146,2.869H35.643c-2.293,0-4.149-0.578-4.149-2.869v0.176
					c0-2.291,1.856-4.146,4.149-4.146l18.038-1.277h22.242l16.438,1.277c2.289,0,4.146,1.855,4.146,4.146V114.953z"/>
			</g>
			<g opacity="0.79">
				<path fill="#808080" d="M91.211,111.244l-15.767-1.225H54.11l-17.302,1.225c-2.17,0-2.882,1.023-3.949,3.053
					c0.006,0.279,2.064-1.473,3.949-1.473l17.302-1.227h21.334l15.767,1.227c1.884,0,3.92,1.594,3.926,1.312
					C94.069,112.055,93.38,111.244,91.211,111.244z"/>
				<linearGradient id="SVGID_3_" gradientUnits="userSpaceOnUse" x1="32.8335" y1="115.0498" x2="32.8335" y2="115.2215">
					<stop  offset="0" style="stop-color:#FFFFFF"/>
					<stop  offset="1" style="stop-color:#000000"/>
				</linearGradient>
				<path fill="url(#SVGID_3_)" d="M32.829,115.221c0-0.031,0.009-0.057,0.009-0.086s-0.009-0.053-0.009-0.082V115.221z"/>
				<linearGradient id="SVGID_4_" gradientUnits="userSpaceOnUse" x1="95.1846" y1="115.0498" x2="95.1846" y2="115.2215">
					<stop  offset="0" style="stop-color:#FFFFFF"/>
					<stop  offset="1" style="stop-color:#000000"/>
				</linearGradient>
				<path fill="url(#SVGID_4_)" d="M95.18,115.135c0.002,0.029,0.01,0.055,0.01,0.086v-0.168
					C95.189,115.082,95.182,115.105,95.18,115.135z"/>
			</g>
			<linearGradient id="SVGID_5_" gradientUnits="userSpaceOnUse" x1="122.1797" y1="89.5859" x2="7.7211" y2="9.4412">
				<stop  offset="0" style="stop-color:#181500"/>
				<stop  offset="1" style="stop-color:#5F5D5C"/>
			</linearGradient>
			<path fill="url(#SVGID_5_)" d="M125.842,74.688c0,8.783-7.118,15.902-15.902,15.902H18.059c-8.779,0-15.898-7.121-15.898-15.902
				V23.009c0-8.783,7.119-15.902,15.898-15.902h91.881c8.784,0,15.902,7.121,15.902,15.902V74.688z"/>
			<path fill="#999999" d="M8.215,14.767c2.672-2.885,7.912-5.529,12.508-5.529l86.958,0.115c4.597,0,9.14,2.529,11.811,5.414h0.991
				c-2.629-3.82-7.479-6.395-13.044-6.395H20.002c-5.565,0-10.415,2.574-13.044,6.395H8.215z"/>
			<path d="M119.226,83.123c-2.672,2.889-7.912,5.531-12.507,5.531L19.76,88.539c-4.598,0-9.139-2.527-11.811-5.416H6.958
				c2.629,3.822,7.479,6.395,13.044,6.395h87.437c5.565,0,10.415-2.572,13.044-6.395H119.226z"/>
			<linearGradient id="SVGID_6_" gradientUnits="userSpaceOnUse" x1="113.2412" y1="83.4375" x2="14.4462" y2="14.2605">
				<stop  offset="0" style="stop-color:#00B2DE"/>
				<stop  offset="1" style="stop-color:#99DBF6"/>
			</linearGradient>
			<path fill="url(#SVGID_6_)" d="M119.078,70.961c0,7.51-6.356,13.602-14.201,13.602H22.81c-7.844,0-14.201-6.092-14.201-13.602
				V26.742c0-7.514,6.357-13.605,14.201-13.605h82.067c7.845,0,14.201,6.092,14.201,13.605V70.961z"/>
			<path fill="#94D9F8" d="M104.877,13.136H22.81c-7.844,0-14.201,6.092-14.201,13.605v32.855
				c11.184,3.045,23.731,4.754,36.99,4.754c31.368,0,58.749-9.564,73.479-23.785V26.742
				C119.078,19.228,112.722,13.136,104.877,13.136z"/>
		</g>
	</g>
	<g>
		<linearGradient id="SVGID_7_" gradientUnits="userSpaceOnUse" x1="64.6074" y1="28.4263" x2="64.6074" y2="74.3872">
			<stop  offset="0" style="stop-color:#5F5D5C"/>
			<stop  offset="1" style="stop-color:#181500"/>
		</linearGradient>
		<path fill="url(#SVGID_7_)" d="M31.84,33.979l10.516-3.072l17.094-2.48l17.314,0.139l5.127,3.053l12.271,1.968
			c0,0,2.355,0.399,3.078,1.347c0.723,0.946,0.938,8.208,0.938,8.208l-0.561,22.821c0,0,0.176,4.98-1.291,6.141
			c-1.469,1.162-3.561,1.375-3.561,1.375l-47.113,0.91l-14.615-0.881L31.84,33.979L31.84,33.979z"/>
		<linearGradient id="SVGID_8_" gradientUnits="userSpaceOnUse" x1="70.3857" y1="24.5044" x2="70.3857" y2="41.3433">
			<stop  offset="0" style="stop-color:#5F5D5C"/>
			<stop  offset="1" style="stop-color:#181500"/>
		</linearGradient>
		<path fill="url(#SVGID_8_)" d="M55.826,41.343l3.887-13.011c0,0,0.852-2.743,1.617-3.289c0.594-0.425,1.07-0.511,1.334-0.528
			c0-0.024,15.518,0,15.518,0s1.203,0.003,1.844,1.393s4.92,15.271,4.92,15.271L55.826,41.343L55.826,41.343z"/>
		<linearGradient id="SVGID_9_" gradientUnits="userSpaceOnUse" x1="95.2305" y1="58.748" x2="89.3388" y2="54.6227">
			<stop  offset="0" style="stop-color:#D5D7D8"/>
			<stop  offset="1" style="stop-color:#5C5F61"/>
		</linearGradient>
		<path fill="url(#SVGID_9_)" d="M90.994,52.262c0,0,2.785-0.125,3.15,0.474c0.363,0.601,0.723,6.8,0.215,7.251
			c-0.512,0.451-4.18,0.515-4.18,0.515L90.994,52.262L90.994,52.262z"/>
		<linearGradient id="SVGID_10_" gradientUnits="userSpaceOnUse" x1="42.9712" y1="33.7207" x2="37.5699" y2="29.9387">
			<stop  offset="0" style="stop-color:#6D6F71"/>
			<stop  offset="1" style="stop-color:#939598"/>
		</linearGradient>
		<path fill="url(#SVGID_10_)" d="M36.088,32.327c0,0,1.08-3.071,4.057-3.123c2.977-0.053,3.9,2.984,3.9,2.984L36.088,32.327
			L36.088,32.327z"/>
		<linearGradient id="SVGID_11_" gradientUnits="userSpaceOnUse" x1="87.6855" y1="67.8809" x2="53.4468" y2="43.9066">
			<stop  offset="0" style="stop-color:#5F5D5C"/>
			<stop  offset="1" style="stop-color:#181500"/>
		</linearGradient>
		<path fill="url(#SVGID_11_)" stroke="#999999" stroke-width="2" stroke-miterlimit="3.8637" d="M49.674,56.258
			c-0.201-11.539,8.986-21.053,20.527-21.254c11.539-0.2,21.059,8.99,21.258,20.526c0.203,11.54-8.986,21.053-20.525,21.254
			S49.875,67.795,49.674,56.258L49.674,56.258z"/>
		<linearGradient id="SVGID_12_" gradientUnits="userSpaceOnUse" x1="46.625" y1="53.6699" x2="29.8247" y2="53.6699">
			<stop  offset="0" style="stop-color:#5F5D5C"/>
			<stop  offset="1" style="stop-color:#181500"/>
		</linearGradient>
		<path fill="url(#SVGID_12_)" d="M29.846,39.868c0,0-0.236-3.403,0.875-4.822c1.111-1.42,2.844-2.586,3.713-2.689
			s8.385-0.322,8.385-0.322s1.846,0.145,2.383,1.358c0.539,1.215,0.609,5.148,0.609,5.148l0.633,26.307c0,0,0.51,8.115-0.18,9.086
			c-0.689,0.973-1.82,1.256-2.867,1.273c-1.047,0.02-10.748,0.1-10.748,0.1s-1.312,0.023-1.682-0.84
			c-0.367-0.865-0.627-1.201-0.662-3.309C30.268,69.055,29.846,39.868,29.846,39.868L29.846,39.868z"/>
		<linearGradient id="SVGID_13_" gradientUnits="userSpaceOnUse" x1="70.1914" y1="26.3481" x2="70.1914" y2="29.7144">
			<stop  offset="0" style="stop-color:#D5D7D8"/>
			<stop  offset="1" style="stop-color:#5C5F61"/>
		</linearGradient>
		<path fill="url(#SVGID_13_)" d="M62.541,26.348l15.297,0.002c0.592,0,1.072,0.479,1.072,1.069v1.225c0,0.591-0.479,1.07-1.07,1.07
			l-15.297-0.003c-0.59,0-1.07-0.478-1.07-1.069v-1.225C61.473,26.827,61.951,26.348,62.541,26.348L62.541,26.348z"/>
		<g>
			
				<linearGradient id="SVGID_14_" gradientUnits="userSpaceOnUse" x1="-521.1729" y1="-775.478" x2="-495.564" y2="-757.5465" gradientTransform="matrix(-1 0 0 -1 -437.8008 -710.6162)">
				<stop  offset="0" style="stop-color:#181500"/>
				<stop  offset="1" style="stop-color:#5F5D5C"/>
			</linearGradient>
			<path fill="url(#SVGID_14_)" d="M54.938,55.895c0-8.632,6.998-15.629,15.631-15.629c8.629,0,15.629,6.997,15.629,15.629
				c0,8.632-6.998,15.63-15.629,15.63C61.936,71.525,54.938,64.527,54.938,55.895z"/>
			
				<linearGradient id="SVGID_15_" gradientUnits="userSpaceOnUse" x1="-508.3677" y1="-752.5815" x2="-508.3677" y2="-780.4419" gradientTransform="matrix(-1 0 0 -1 -437.8008 -710.6162)">
				<stop  offset="0" style="stop-color:#181500"/>
				<stop  offset="1" style="stop-color:#5F5D5C"/>
			</linearGradient>
			<circle fill="url(#SVGID_15_)" cx="70.566" cy="55.895" r="13.93"/>
			
				<linearGradient id="SVGID_16_" gradientUnits="userSpaceOnUse" x1="-517.8467" y1="-773.1489" x2="-498.8886" y2="-759.8743" gradientTransform="matrix(-1 0 0 -1 -437.8008 -710.6162)">
				<stop  offset="0" style="stop-color:#00B2DE"/>
				<stop  offset="1" style="stop-color:#99DBF6"/>
			</linearGradient>
			<circle fill="url(#SVGID_16_)" cx="70.567" cy="55.895" r="11.571"/>
			<path opacity="0.5" fill="#94D9F8" d="M70.811,54.987c3.02,2.525,7.1,1.141,9.641-0.179c-0.373-5.073-4.602-9.073-9.768-9.073
				c-5.186,0-9.428,4.033-9.773,9.137C63.264,53.715,67.562,52.269,70.811,54.987z"/>
		</g>
	</g>
</g>
</svg>
