<?xml version="1.0" encoding="UTF-8" standalone="no"?>
<!-- Created with Inkscape (http://www.inkscape.org/) -->

<svg
   xmlns:dc="http://purl.org/dc/elements/1.1/"
   xmlns:cc="http://creativecommons.org/ns#"
   xmlns:rdf="http://www.w3.org/1999/02/22-rdf-syntax-ns#"
   xmlns:svg="http://www.w3.org/2000/svg"
   xmlns="http://www.w3.org/2000/svg"
   xmlns:xlink="http://www.w3.org/1999/xlink"
   xmlns:sodipodi="http://sodipodi.sourceforge.net/DTD/sodipodi-0.dtd"
   xmlns:inkscape="http://www.inkscape.org/namespaces/inkscape"
   width="128"
   height="128"
   id="svg2"
   sodipodi:version="0.32"
   inkscape:version="0.91 r13725"
   sodipodi:docname="sc-apps-skrooge-black.svgz"
   inkscape:output_extension="org.inkscape.output.svgz.inkscape"
   version="1.0"
   inkscape:export-filename="/home/s/Bureau/teeshirt/skrooge_black_title.png"
   inkscape:export-xdpi="2812.5"
   inkscape:export-ydpi="2812.5"
   style="display:inline">
  <defs
     id="defs4">
    <linearGradient
       id="linearGradient3101">
      <stop
         style="stop-color:#d45500;stop-opacity:1;"
         offset="0"
         id="stop3103" />
      <stop
         id="stop3105"
         offset="0.43652287"
         style="stop-color:#d45500;stop-opacity:0.41330168;" />
      <stop
         style="stop-color:#d45500;stop-opacity:1;"
         offset="1"
         id="stop3107" />
    </linearGradient>
    <linearGradient
       id="linearGradient3257">
      <stop
         style="stop-color:#d45500;stop-opacity:1;"
         offset="0"
         id="stop3259" />
      <stop
         id="stop3273"
         offset="0.86461538"
         style="stop-color:#d45500;stop-opacity:0.41330168;" />
      <stop
         style="stop-color:#d45500;stop-opacity:1;"
         offset="1"
         id="stop3261" />
    </linearGradient>
    <linearGradient
       id="linearGradient3172">
      <stop
         style="stop-color:#ffffff;stop-opacity:0.66983372;"
         offset="0"
         id="stop3174" />
      <stop
         style="stop-color:#ffffff;stop-opacity:0;"
         offset="1"
         id="stop3176" />
    </linearGradient>
    <linearGradient
       id="linearGradient3222">
      <stop
         style="stop-color:#c5bebe;stop-opacity:1;"
         offset="0"
         id="stop3224" />
      <stop
         style="stop-color:#ffffff;stop-opacity:0;"
         offset="1"
         id="stop3226" />
    </linearGradient>
    <linearGradient
       id="linearGradient3194">
      <stop
         style="stop-color:#ff9b0c;stop-opacity:1;"
         offset="0"
         id="stop3196" />
      <stop
         id="stop3202"
         offset="0.72923076"
         style="stop-color:#e59324;stop-opacity:0.49803922;" />
      <stop
         style="stop-color:#ff9200;stop-opacity:1;"
         offset="1"
         id="stop3198" />
    </linearGradient>
    <inkscape:perspective
       sodipodi:type="inkscape:persp3d"
       inkscape:vp_x="0 : 526.18109 : 1"
       inkscape:vp_y="6.1230318e-014 : 1000 : 0"
       inkscape:vp_z="744.09448 : 526.18109 : 1"
       inkscape:persp3d-origin="372.04724 : 350.78739 : 1"
       id="perspective10" />
    <inkscape:perspective
       id="perspective2390"
       inkscape:persp3d-origin="372.04724 : 350.78739 : 1"
       inkscape:vp_z="744.09448 : 526.18109 : 1"
       inkscape:vp_y="0 : 1000 : 0"
       inkscape:vp_x="0 : 526.18109 : 1"
       sodipodi:type="inkscape:persp3d" />
    <linearGradient
       inkscape:collect="always"
       xlink:href="#linearGradient3222"
       id="linearGradient3228"
       x1="3.154345"
       y1="33.369652"
       x2="124.66478"
       y2="33.369652"
       gradientUnits="userSpaceOnUse"
       gradientTransform="translate(8.3009079,64.249027)" />
    <linearGradient
       inkscape:collect="always"
       xlink:href="#linearGradient3257"
       id="linearGradient3271"
       x1="60.973572"
       y1="43.582222"
       x2="103.71644"
       y2="85.4188"
       gradientUnits="userSpaceOnUse" />
    <linearGradient
       inkscape:collect="always"
       xlink:href="#linearGradient3172"
       id="linearGradient2445"
       gradientUnits="userSpaceOnUse"
       gradientTransform="translate(-2.9883308,1.8378729)"
       x1="-28.887161"
       y1="3.071336"
       x2="114.05447"
       y2="55.865112" />
    <linearGradient
       inkscape:collect="always"
       xlink:href="#linearGradient3257"
       id="linearGradient3062"
       gradientUnits="userSpaceOnUse"
       x1="60.973572"
       y1="43.582222"
       x2="103.71644"
       y2="85.4188" />
    <linearGradient
       inkscape:collect="always"
       xlink:href="#linearGradient3172"
       id="linearGradient3064"
       gradientUnits="userSpaceOnUse"
       gradientTransform="translate(-2.9883308,1.8378729)"
       x1="-28.887161"
       y1="3.071336"
       x2="114.05447"
       y2="55.865112" />
    <linearGradient
       inkscape:collect="always"
       xlink:href="#linearGradient3172"
       id="linearGradient3067"
       gradientUnits="userSpaceOnUse"
       gradientTransform="translate(-2.9883308,1.8378729)"
       x1="-28.887161"
       y1="3.071336"
       x2="114.05447"
       y2="55.865112" />
    <linearGradient
       inkscape:collect="always"
       xlink:href="#linearGradient3257"
       id="linearGradient3081"
       gradientUnits="userSpaceOnUse"
       x1="60.973572"
       y1="43.582222"
       x2="103.71644"
       y2="85.4188" />
    <linearGradient
       inkscape:collect="always"
       xlink:href="#linearGradient3172-9"
       id="linearGradient3963"
       gradientUnits="userSpaceOnUse"
       gradientTransform="matrix(2.8798899,0,0,2.8798899,8.2011283,-14.018486)"
       x1="-28.887161"
       y1="3.071336"
       x2="114.05447"
       y2="55.865112" />
    <linearGradient
       id="linearGradient3172-9">
      <stop
         id="stop3174-4"
         offset="0"
         style="stop-color:#ffffff;stop-opacity:0.66983372;" />
      <stop
         id="stop3176-8"
         offset="1"
         style="stop-color:#ffffff;stop-opacity:0;" />
    </linearGradient>
    <linearGradient
       inkscape:collect="always"
       xlink:href="#linearGradient3257-36"
       id="linearGradient3968"
       gradientUnits="userSpaceOnUse"
       x1="60.973572"
       y1="43.582222"
       x2="103.71644"
       y2="85.4188"
       gradientTransform="matrix(2.8798899,0,0,2.8798899,16.807192,-19.311358)" />
    <linearGradient
       id="linearGradient3257-36">
      <stop
         id="stop3259-5"
         offset="0"
         style="stop-color:#d45500;stop-opacity:1;" />
      <stop
         style="stop-color:#d45500;stop-opacity:0.41330168;"
         offset="0.86461538"
         id="stop3273-6" />
      <stop
         id="stop3261-3"
         offset="1"
         style="stop-color:#d45500;stop-opacity:1;" />
    </linearGradient>
    <filter
       color-interpolation-filters="sRGB"
       inkscape:collect="always"
       id="filter3924">
      <feGaussianBlur
         inkscape:collect="always"
         stdDeviation="5.8518405"
         id="feGaussianBlur3926" />
    </filter>
    <linearGradient
       inkscape:collect="always"
       xlink:href="#linearGradient3257-36"
       id="linearGradient3168"
       gradientUnits="userSpaceOnUse"
       gradientTransform="matrix(2.8798899,0,0,2.8798899,-275.26919,-234.40757)"
       x1="60.973572"
       y1="43.582222"
       x2="103.71644"
       y2="85.4188" />
    <linearGradient
       inkscape:collect="always"
       xlink:href="#linearGradient3172-9"
       id="linearGradient3170"
       gradientUnits="userSpaceOnUse"
       gradientTransform="matrix(2.8798899,0,0,2.8798899,-283.87525,-229.1147)"
       x1="-28.887161"
       y1="3.071336"
       x2="114.05447"
       y2="55.865112" />
    <linearGradient
       inkscape:collect="always"
       xlink:href="#linearGradient3257-36"
       id="linearGradient3153"
       gradientUnits="userSpaceOnUse"
       gradientTransform="matrix(0.95576121,0,0,0.95576121,3.8910043,3.4636315)"
       x1="60.973572"
       y1="43.582222"
       x2="103.71644"
       y2="85.4188" />
    <linearGradient
       inkscape:collect="always"
       xlink:href="#linearGradient3172-9"
       id="linearGradient3162"
       gradientUnits="userSpaceOnUse"
       gradientTransform="matrix(0.95576121,0,0,0.95576121,1.0348748,5.2201986)"
       x1="-28.887161"
       y1="3.071336"
       x2="114.05447"
       y2="55.865112" />
    <linearGradient
       inkscape:collect="always"
       xlink:href="#linearGradient3257-36"
       id="linearGradient3053"
       gradientUnits="userSpaceOnUse"
       gradientTransform="matrix(0.95576121,0,0,0.95576121,3.8910043,3.4636315)"
       x1="60.973572"
       y1="43.582222"
       x2="103.71644"
       y2="85.4188" />
    <linearGradient
       inkscape:collect="always"
       xlink:href="#linearGradient3172-9"
       id="linearGradient3055"
       gradientUnits="userSpaceOnUse"
       gradientTransform="matrix(0.95576121,0,0,0.95576121,1.0348748,5.2201986)"
       x1="-28.887161"
       y1="3.071336"
       x2="114.05447"
       y2="55.865112" />
    <linearGradient
       inkscape:collect="always"
       xlink:href="#linearGradient3172-9"
       id="linearGradient3058"
       gradientUnits="userSpaceOnUse"
       gradientTransform="matrix(0.95576121,0,0,0.95576121,1.0348748,5.2201986)"
       x1="-28.887161"
       y1="3.071336"
       x2="114.05447"
       y2="55.865112" />
    <linearGradient
       inkscape:collect="always"
       xlink:href="#linearGradient3257-36"
       id="linearGradient3068"
       gradientUnits="userSpaceOnUse"
       gradientTransform="matrix(0.95576121,0,0,0.95576121,3.8910043,3.4636315)"
       x1="60.973572"
       y1="43.582222"
       x2="103.71644"
       y2="85.4188" />
    <linearGradient
       inkscape:collect="always"
       xlink:href="#linearGradient3257-36"
       id="linearGradient3096"
       gradientUnits="userSpaceOnUse"
       gradientTransform="matrix(0.95576121,0,0,0.95576121,3.8910043,3.4636315)"
       x1="60.973572"
       y1="43.582222"
       x2="103.71644"
       y2="85.4188" />
    <filter
       inkscape:collect="always"
       id="filter3877"
       color-interpolation-filters="sRGB">
      <feGaussianBlur
         inkscape:collect="always"
         stdDeviation="1.6574892"
         id="feGaussianBlur3879" />
    </filter>
    <linearGradient
       inkscape:collect="always"
       xlink:href="#linearGradient3257-36"
       id="linearGradient3069"
       gradientUnits="userSpaceOnUse"
       gradientTransform="matrix(0.95576121,0,0,0.95576121,3.8910043,3.4636315)"
       x1="60.973572"
       y1="43.582222"
       x2="103.71644"
       y2="85.4188" />
  </defs>
  <sodipodi:namedview
     id="base"
     pagecolor="#ffffff"
     bordercolor="#666666"
     borderopacity="1.0"
     inkscape:pageopacity="0.0"
     inkscape:pageshadow="2"
     inkscape:zoom="7.8863319"
     inkscape:cx="44.074392"
     inkscape:cy="64"
     inkscape:document-units="px"
     inkscape:current-layer="g3070"
     showgrid="true"
     inkscape:window-width="1680"
     inkscape:window-height="982"
     inkscape:window-x="-4"
     inkscape:window-y="0"
     showguides="true"
     width="480px"
     inkscape:guide-bbox="true"
     inkscape:window-maximized="1">
    <inkscape:grid
       type="xygrid"
       id="grid3300" />
  </sodipodi:namedview>
  <metadata
     id="metadata7">
    <rdf:RDF>
      <cc:Work
         rdf:about="">
        <dc:format>image/svg+xml</dc:format>
        <dc:type
           rdf:resource="http://purl.org/dc/dcmitype/StillImage" />
        <dc:title></dc:title>
        <cc:license
           rdf:resource="http://creativecommons.org/licenses/by-sa/3.0/" />
      </cc:Work>
      <cc:License
         rdf:about="http://creativecommons.org/licenses/by-sa/3.0/">
        <cc:permits
           rdf:resource="http://creativecommons.org/ns#Reproduction" />
        <cc:permits
           rdf:resource="http://creativecommons.org/ns#Distribution" />
        <cc:requires
           rdf:resource="http://creativecommons.org/ns#Notice" />
        <cc:requires
           rdf:resource="http://creativecommons.org/ns#Attribution" />
        <cc:permits
           rdf:resource="http://creativecommons.org/ns#DerivativeWorks" />
        <cc:requires
           rdf:resource="http://creativecommons.org/ns#ShareAlike" />
      </cc:License>
    </rdf:RDF>
  </metadata>
  <g
     inkscape:groupmode="layer"
     id="layer4"
     inkscape:label="ombre oblique"
     style="display:none">
    <path
       inkscape:connector-curvature="0"
       style="fill:#000000;fill-opacity:0.40888887;fill-rule:nonzero;display:inline;filter:url(#filter3924)"
       d="m -174.97648,4.2160508 c -42.11172,-0.116894 -82.22233,29.3928772 -110.78579,63.0875882 -11.48301,15.541816 -19.66875,32.639309 -24.56906,51.298041 l -44.00832,0 -10.16961,25.64902 49.6781,0 c -0.79064,6.87849 -0.80576,13.78883 -0.89996,20.69921 l -42.0284,0 -10.16961,25.64902 54.08793,0 c 5.40753,36.84225 21.98163,68.08932 48.32816,90.26656 14.02266,11.80357 34.50449,21.76209 51.56804,25.01904 18.4946,1.1227 37.12907,0.81366 55.1679,-3.50987 31.91485,-10.33975 63.75177,-39.30119 79.106971,-71.90726 5.197164,-11.03605 8.044656,-20.21014 12.239532,-39.86847 l -55.437883,0 10.25961,-25.64902 49.138122,0 c 0.568116,-6.71273 0.852015,-13.76927 0.899965,-20.69921 l -41.758407,0 10.349605,-25.64902 30.14885,0 C -70.407942,77.567823 -93.291925,45.00608 -125.11839,19.42547 -141.6409,8.7944368 -158.49801,4.2617898 -174.97648,4.2160508 z M -63.830735,118.60168 c 0.900542,7.47537 1.323799,16.4222 1.259952,25.64902 l 48.058167,0 10.1696101,-25.64902 z m 0.359987,46.34823 c -0.499632,8.67034 -2.248215,17.16296 -3.959849,25.64902 l 34.558676,0 10.169615,-25.64902 z"
       id="path3099"
       mask="none"
       sodipodi:nodetypes="scccccccccsccscccccccccscccccccccc"
       transform="matrix(0.23293184,0,0.13448263,0.23293184,68.171642,40.513691)" />
  </g>
  <g
     inkscape:groupmode="layer"
     id="layer2"
     inkscape:label="ombre2"
     style="display:none">
    <path
       style="fill:#000000;fill-opacity:1;fill-rule:nonzero;display:inline;filter:url(#filter3877)"
       mask="none"
       d="M 69.09375,13.84375 C 55.117956,13.80496 41.791976,23.598841 32.3125,34.78125 28.501588,39.939176 25.782537,45.620145 24.15625,51.8125 l -14.59375,0 -3.375,8.5 16.46875,0 c -0.262393,2.282793 -0.249987,4.581627 -0.28125,6.875 l -13.96875,0 -3.375,8.53125 17.96875,0 c 1.794623,12.226996 7.287516,22.57745 16.03125,29.9375 4.65376,3.9173 11.462051,7.2316 17.125,8.3125 6.137881,0.37259 12.325877,0.27861 18.3125,-1.15625 10.591716,-3.4315 21.154005,-13.053889 26.25,-23.875 1.72481,-3.662583 2.67032,-6.694658 4.0625,-13.21875 l 11.46875,0 3.375,-8.53125 -13.53125,0 c 0.18854,-2.227782 0.26534,-4.575128 0.28125,-6.875 l 15.96875,0 3.375,-8.5 -19.75,0 C 103.78594,38.19442 96.187385,27.395795 85.625,18.90625 80.141608,15.378085 74.562529,13.85893 69.09375,13.84375 z"
       id="path2402-5"
       inkscape:connector-curvature="0" />
  </g>
  <g
     style="display:inline"
     inkscape:label="prinicpal"
     id="g3070"
     inkscape:groupmode="layer">
    <path
       style="fill:#000000;fill-opacity:1;fill-rule:nonzero;display:inline"
       mask="none"
       d="M 69.09375 13.84375 C 64.726314 13.831628 60.422293 14.78692 56.28125 16.4375 C 54.63324 17.094381 52.996997 17.886832 51.40625 18.75 C 48.20041 20.489546 45.117392 22.590278 42.21875 24.96875 C 40.767451 26.159609 39.386776 27.417733 38.03125 28.71875 C 37.366673 29.356603 36.701813 30.029146 36.0625 30.6875 C 34.758504 32.030334 33.502063 33.377989 32.3125 34.78125 C 30.883408 36.715472 29.621534 38.732974 28.5 40.8125 C 27.378466 42.892026 26.408141 45.024975 25.59375 47.25 C 25.590436 47.259038 25.597059 47.27221 25.59375 47.28125 C 25.055028 48.755806 24.560302 50.274005 24.15625 51.8125 L 9.5625 51.8125 L 6.1875 60.3125 L 6.1875 60.34375 L 22.65625 60.34375 C 22.527383 61.474902 22.475119 62.614964 22.4375 63.75 C 22.399538 64.895363 22.390631 66.040813 22.375 67.1875 L 8.4375 67.1875 L 8.40625 67.1875 L 5.03125 75.71875 L 5.0625 75.71875 L 23 75.71875 C 23.112164 76.482937 23.233997 77.219351 23.375 77.96875 C 23.39259 78.062673 23.419464 78.156317 23.4375 78.25 C 23.580277 78.987798 23.735622 79.714725 23.90625 80.4375 C 24.004504 80.855521 24.111212 81.274643 24.21875 81.6875 C 24.308805 82.031963 24.403527 82.377951 24.5 82.71875 C 24.582425 83.010917 24.662815 83.304286 24.75 83.59375 C 24.944007 84.235923 25.157973 84.871595 25.375 85.5 C 28.135036 93.491706 32.734494 100.35595 39.03125 105.65625 C 43.68501 109.57355 50.493301 112.88785 56.15625 113.96875 C 62.294131 114.34134 68.482127 114.24736 74.46875 112.8125 C 85.060466 109.381 95.622755 99.758611 100.71875 88.9375 C 102.44356 85.274917 103.38907 82.242842 104.78125 75.71875 L 86.375 75.71875 L 89.78125 67.1875 L 106.09375 67.1875 C 106.28229 64.959718 106.35909 62.612372 106.375 60.3125 L 92.53125 60.3125 L 95.625 52.625 L 95.65625 52.625 L 95.96875 51.8125 L 99 51.8125 L 105.96875 51.8125 C 105.8895 51.318077 105.7809 50.830784 105.6875 50.34375 C 105.69713 50.34187 105.70913 50.345626 105.71875 50.34375 C 105.6821 50.152363 105.63256 49.9715 105.59375 49.78125 C 105.55951 49.61339 105.53591 49.448227 105.5 49.28125 C 105.40422 48.835276 105.29507 48.40846 105.1875 47.96875 C 105.09533 47.592018 105.00693 47.215903 104.90625 46.84375 C 104.79604 46.436533 104.68278 46.026772 104.5625 45.625 C 104.44334 45.226683 104.31639 44.830489 104.1875 44.4375 C 104.13883 44.289107 104.08129 44.147637 104.03125 44 C 103.81712 43.367992 103.58264 42.743223 103.34375 42.125 C 103.09234 41.474354 102.84063 40.823024 102.5625 40.1875 C 102.51213 40.072417 102.45748 39.95834 102.40625 39.84375 C 102.27421 39.54853 102.13772 39.260712 102 38.96875 C 101.78978 38.522661 101.56699 38.094772 101.34375 37.65625 C 100.97814 36.938077 100.61835 36.229321 100.21875 35.53125 C 100.21167 35.518888 100.19459 35.512356 100.1875 35.5 C 100.0612 35.279662 99.942116 35.062101 99.8125 34.84375 C 99.532448 34.372167 99.232734 33.899864 98.9375 33.4375 C 98.811674 33.240568 98.691032 33.03902 98.5625 32.84375 C 98.439398 32.656593 98.313063 32.466885 98.1875 32.28125 C 97.874322 31.818627 97.546934 31.359478 97.21875 30.90625 C 96.860124 30.410549 96.501104 29.922062 96.125 29.4375 C 96.019279 29.301305 95.919575 29.166571 95.8125 29.03125 C 95.417025 28.53137 95.007359 28.05052 94.59375 27.5625 C 94.498159 27.449785 94.409038 27.330836 94.3125 27.21875 C 93.874374 26.709801 93.426042 26.214816 92.96875 25.71875 C 92.889817 25.633156 92.798241 25.553962 92.71875 25.46875 C 92.181656 24.893002 91.624472 24.308459 91.0625 23.75 C 90.624645 23.315112 90.171174 22.86202 89.71875 22.4375 C 89.584428 22.311457 89.448075 22.187634 89.3125 22.0625 C 88.743112 21.536918 88.153467 21.040935 87.5625 20.53125 C 87.540342 20.51214 87.522188 20.487837 87.5 20.46875 C 86.885786 19.940353 86.261384 19.417745 85.625 18.90625 C 84.254152 18.024209 82.881031 17.262411 81.5 16.625 C 80.128272 15.991883 78.7495 15.470704 77.375 15.0625 C 77.365298 15.059629 77.353452 15.06536 77.34375 15.0625 C 75.96994 14.655968 74.588041 14.35456 73.21875 14.15625 C 73.208418 14.154765 73.197832 14.157724 73.1875 14.15625 C 72.50823 14.058592 71.833062 13.986953 71.15625 13.9375 C 71.145861 13.936752 71.135388 13.938237 71.125 13.9375 C 70.437938 13.888024 69.777347 13.845648 69.09375 13.84375 z M 105.96875 51.8125 C 106.26761 54.293382 106.39619 57.25036 106.375 60.3125 L 122.34375 60.3125 L 125.71875 51.8125 L 105.96875 51.8125 z M 106.09375 67.1875 C 105.92793 70.064962 105.34929 72.902445 104.78125 75.71875 L 116.25 75.71875 L 119.625 67.1875 L 106.09375 67.1875 z M 81.15625 19.125 C 81.363346 19.125827 81.572256 19.128158 81.78125 19.15625 L 82.46875 20.8125 C 82.066798 20.654116 81.665138 20.566269 81.28125 20.5625 C 80.895891 20.555197 80.507875 20.636246 80.15625 20.78125 C 79.70517 20.967286 79.385094 21.210467 79.15625 21.5625 C 78.929491 21.909533 78.830736 22.32748 78.84375 22.8125 L 81.6875 21.625 L 81.65625 22.875 L 79.03125 23.9375 C 79.047582 23.997264 79.070935 24.059608 79.09375 24.125 L 79.21875 24.4375 L 79.28125 24.59375 C 79.306772 24.645567 79.346546 24.691089 79.375 24.75 L 81.65625 23.8125 L 81.59375 25.03125 L 80 25.6875 C 80.356291 26.047584 80.757889 26.285779 81.15625 26.375 C 81.558156 26.462762 81.95872 26.403315 82.40625 26.21875 C 82.757873 26.07374 83.08121 25.864104 83.34375 25.59375 C 83.608367 25.318387 83.817361 24.997388 84 24.59375 L 84.6875 26.21875 C 84.430636 26.553256 84.140867 26.841965 83.8125 27.09375 C 83.487673 27.344075 83.116546 27.554697 82.71875 27.71875 C 81.788175 28.102524 80.923492 28.198075 80.09375 28 C 79.266091 27.796912 78.531505 27.322834 77.90625 26.5625 L 76.75 27.03125 L 76.78125 25.8125 L 77.3125 25.59375 C 77.288442 25.545494 77.275524 25.489316 77.25 25.4375 L 77.15625 25.21875 L 77.03125 24.96875 C 77.011366 24.910461 77.018421 24.867246 77 24.8125 L 76 25.21875 L 76.03125 23.96875 L 76.71875 23.6875 C 76.631904 22.700977 76.806738 21.84392 77.25 21.125 C 77.696816 20.404632 78.381929 19.852532 79.3125 19.46875 C 79.7103 19.304705 80.124399 19.207682 80.53125 19.15625 C 80.736449 19.129812 80.949154 19.124173 81.15625 19.125 z M 74.625 23.90625 L 76.84375 29.28125 C 77.239233 30.240238 77.211852 31.088919 76.8125 31.84375 C 76.418152 32.60067 75.650777 33.212911 74.5 33.6875 C 74.127057 33.841301 73.777759 33.975779 73.40625 34.0625 C 73.034735 34.149218 72.649963 34.190945 72.25 34.21875 L 71.625 32.75 C 72.037965 32.804108 72.423502 32.789483 72.78125 32.75 C 73.140458 32.714068 73.489283 32.633295 73.8125 32.5 C 74.437612 32.242199 74.821536 31.924851 75 31.53125 C 75.178454 31.137651 75.146469 30.644997 74.90625 30.0625 L 74.75 29.65625 C 74.630711 30.112722 74.436226 30.487504 74.1875 30.78125 C 73.938766 31.075 73.603057 31.297372 73.1875 31.46875 C 72.459379 31.769031 71.743019 31.75056 71.03125 31.375 C 70.318015 30.995891 69.772445 30.356702 69.40625 29.46875 C 69.038592 28.577253 68.977175 27.733323 69.21875 26.96875 C 69.458862 26.200637 69.959382 25.675287 70.6875 25.375 C 71.103059 25.203628 71.491509 25.12324 71.875 25.15625 C 72.258488 25.189275 72.654651 25.350523 73.0625 25.59375 L 72.6875 24.6875 L 74.625 23.90625 z M 72.53125 26.34375 C 72.346719 26.334656 72.16765 26.386726 71.96875 26.46875 C 71.574499 26.631347 71.318848 26.899192 71.21875 27.28125 C 71.11865 27.663319 71.186532 28.123485 71.40625 28.65625 C 71.631825 29.20323 71.888458 29.553746 72.21875 29.75 C 72.547573 29.942708 72.935291 29.980952 73.34375 29.8125 C 73.741548 29.648448 73.993647 29.350817 74.09375 28.96875 C 74.193846 28.58669 74.124498 28.154222 73.90625 27.625 C 73.68653 27.092236 73.40282 26.700437 73.0625 26.5 C 72.892337 26.399788 72.715781 26.352844 72.53125 26.34375 z M 88.625 26.6875 C 88.66727 26.6823 88.677572 26.687477 88.71875 26.6875 C 89.336401 26.687796 89.855712 27.281773 90.3125 28.375 C 90.389904 28.560258 90.47379 28.721894 90.53125 28.90625 C 90.543945 28.946243 90.550743 28.990878 90.5625 29.03125 C 90.657691 29.364166 90.717886 29.713119 90.75 30.125 C 90.767963 30.355385 90.782841 30.597685 90.78125 30.875 C 90.781218 30.885988 90.781314 30.895175 90.78125 30.90625 C 90.776957 31.455786 90.735651 32.112138 90.65625 32.9375 C 90.575632 33.775513 90.438265 34.782303 90.28125 36.03125 C 90.183363 36.809855 90.057124 37.768545 89.875 38.875 C 89.847529 39.04163 89.841813 39.138814 89.8125 39.3125 C 89.643365 40.321866 89.414958 41.395605 89.1875 42.625 C 89.11575 43.011988 89.077117 43.31191 89 43.71875 C 88.930541 44.086969 88.855035 44.490957 88.78125 44.875 C 88.522576 46.216782 88.243213 47.584417 87.9375 49.09375 C 87.7193 50.173045 87.521512 51.220546 87.28125 52.375 C 87.084908 53.319054 86.896326 54.203043 86.6875 55.1875 C 85.263087 61.902492 83.572131 69.431167 81.75 77.09375 C 76.746724 98.133878 74.857445 104.14252 72.375 106.96875 C 69.786129 109.91613 66.091342 109.68149 63.28125 106.40625 C 60.871606 103.59777 56.528131 97.434969 49.53125 86.875 C 46.981783 83.027242 44.214622 78.993786 41.59375 75.21875 C 40.504383 73.649699 39.449838 72.122393 38.4375 70.6875 C 38.363179 70.582604 38.292513 70.510185 38.21875 70.40625 C 37.1483 68.891134 36.139167 67.478245 35.21875 66.21875 C 33.911308 64.429649 32.782259 62.9052 31.9375 61.84375 C 30.731006 60.327776 29.770668 59.077514 29.03125 58 C 29.02225 57.986884 29.008934 57.981807 29 57.96875 C 28.274994 56.909122 27.771087 56.025272 27.46875 55.3125 C 27.315719 54.951722 27.207265 54.631007 27.15625 54.34375 C 27.003205 53.481979 27.279521 52.916962 27.96875 52.53125 C 28.137199 52.436982 28.377855 52.407964 28.6875 52.4375 C 28.705357 52.439004 28.731591 52.435551 28.75 52.4375 C 28.989859 52.46289 29.282086 52.521215 29.625 52.625 C 29.681557 52.642357 29.721661 52.667967 29.78125 52.6875 C 29.792064 52.691005 29.801584 52.683922 29.8125 52.6875 C 30.27193 52.839233 30.81153 53.058339 31.46875 53.34375 C 31.479437 53.348379 31.489255 53.339084 31.5 53.34375 C 32.163099 53.632219 32.945777 54.003368 33.84375 54.4375 C 34.425469 54.718737 34.966794 54.980437 35.5 55.21875 C 35.508143 55.222393 35.523119 55.215116 35.53125 55.21875 C 36.042406 55.446742 36.530961 55.658714 37 55.84375 C 37.00849 55.847107 37.022773 55.840406 37.03125 55.84375 C 37.498344 56.027519 37.947721 56.198229 38.375 56.34375 C 38.44838 56.36874 38.521494 56.41373 38.59375 56.4375 C 38.854171 56.52596 39.135138 56.615802 39.375 56.6875 C 39.489019 56.71969 39.607722 56.75254 39.71875 56.78125 C 40.526161 56.990052 41.273018 57.104252 41.9375 57.125 C 42.601982 57.145748 43.181839 57.07857 43.71875 56.90625 C 43.98721 56.82009 44.227425 56.698443 44.46875 56.5625 C 44.942421 56.29567 45.394617 55.932032 45.78125 55.46875 C 45.786394 55.462537 45.77612 55.443749 45.78125 55.4375 C 46.165566 54.969347 46.530099 54.390205 46.84375 53.71875 C 46.84755 53.71065 46.83995 53.6957 46.84375 53.6875 C 46.944351 53.470792 47.030067 53.206896 47.125 52.96875 C 47.234917 52.694419 47.358568 52.40538 47.46875 52.09375 C 47.49298 52.02202 47.53862 51.948344 47.5625 51.875 C 47.62277 51.699946 47.689181 51.499444 47.75 51.3125 C 47.884678 50.859836 47.998742 50.352204 48.125 49.84375 C 48.205484 49.519634 48.302183 49.200929 48.40625 48.90625 C 48.409508 48.897116 48.402971 48.884104 48.40625 48.875 C 48.620321 48.280608 48.892459 47.736594 49.1875 47.28125 C 49.33728 47.050091 49.489663 46.847144 49.65625 46.65625 C 49.817937 46.47097 50.012519 46.300829 50.1875 46.15625 C 50.540739 45.867559 50.920913 45.63774 51.3125 45.53125 C 51.322309 45.528697 51.333924 45.533681 51.34375 45.53125 C 51.544346 45.479051 51.731037 45.46875 51.9375 45.46875 C 52.00163 45.46875 52.100617 45.505074 52.1875 45.53125 C 52.218665 45.540639 52.247285 45.518594 52.28125 45.53125 C 52.404911 45.578969 52.561347 45.662094 52.71875 45.75 C 53.232926 46.037156 53.946095 46.589478 54.75 47.25 C 54.982141 47.441023 55.187127 47.595069 55.4375 47.8125 C 55.444351 47.818441 55.461887 47.80654 55.46875 47.8125 C 55.734949 48.043918 56.028807 48.334977 56.3125 48.59375 C 56.628838 48.882051 56.915854 49.14951 57.25 49.46875 C 58.049772 50.232847 58.783264 50.885492 59.4375 51.46875 C 60.091736 52.052008 60.67478 52.546442 61.21875 52.96875 C 61.76272 53.391058 62.249776 53.750002 62.71875 54.03125 C 62.725789 54.035493 62.742974 54.027037 62.75 54.03125 C 62.97579 54.165841 63.191688 54.300983 63.40625 54.40625 C 63.628602 54.515339 63.847875 54.607461 64.0625 54.6875 C 64.0716 54.6909 64.08462 54.6841 64.09375 54.6875 C 64.266072 54.751 64.423778 54.797616 64.59375 54.84375 C 64.602928 54.846215 64.615798 54.841252 64.625 54.84375 C 64.657666 54.852555 64.686192 54.866525 64.71875 54.875 C 64.855697 54.91113 64.987568 54.944463 65.125 54.96875 C 65.804632 55.088865 66.511328 55.086781 67.28125 55 C 67.838308 54.93722 68.356098 54.827069 68.875 54.65625 C 69.134443 54.57084 69.402688 54.460616 69.65625 54.34375 C 70.036584 54.168453 70.407752 53.974006 70.78125 53.71875 C 71.154748 53.463494 71.531098 53.157152 71.90625 52.8125 C 72.656554 52.123196 73.410899 51.25976 74.21875 50.15625 C 74.22344 50.149843 74.214058 50.131422 74.21875 50.125 C 74.622674 49.573244 75.043822 48.982589 75.46875 48.3125 C 75.893678 47.642411 76.347527 46.925007 76.8125 46.125 C 78.052428 43.991653 79.406812 41.33825 81 38.15625 C 81.490905 37.175783 81.96731 36.282615 82.40625 35.4375 C 83.284129 33.747269 84.056238 32.33195 84.75 31.15625 C 84.754967 31.147833 84.745042 31.133391 84.75 31.125 C 85.443763 29.9493 86.052442 29.040753 86.59375 28.34375 C 86.864404 27.995248 87.136523 27.704296 87.375 27.46875 C 87.495015 27.351227 87.606152 27.245872 87.71875 27.15625 C 87.933668 26.982732 88.121839 26.856778 88.3125 26.78125 C 88.411316 26.743994 88.532002 26.699036 88.625 26.6875 z M 65.375 27.78125 C 65.832591 27.754616 66.2543 27.841611 66.65625 28 C 67.463694 28.315329 68.095715 28.957211 68.5 29.9375 C 68.904273 30.917801 68.912931 31.800915 68.5625 32.59375 C 68.215609 33.385127 67.526465 33.982931 66.5 34.40625 C 65.469976 34.831037 64.560999 34.907608 63.75 34.59375 C 62.942551 34.27843 62.341779 33.636548 61.9375 32.65625 C 61.533222 31.675958 61.493314 30.761595 61.84375 29.96875 C 62.19774 29.174452 62.876228 28.581043 63.90625 28.15625 C 64.419484 27.944593 64.917409 27.807884 65.375 27.78125 z M 65.09375 29.40625 C 64.903314 29.395435 64.676529 29.445564 64.46875 29.53125 C 64.046085 29.705565 63.816541 29.97727 63.71875 30.375 C 63.623044 30.767724 63.67042 31.240665 63.90625 31.8125 C 64.142078 32.384343 64.435066 32.785365 64.78125 33 C 65.129517 33.209624 65.514833 33.236811 65.9375 33.0625 C 66.353057 32.891124 66.623041 32.611472 66.71875 32.21875 C 66.812986 31.822483 66.735825 31.321844 66.5 30.75 C 66.264167 30.178166 65.969714 29.804843 65.625 29.59375 C 65.451907 29.486434 65.284186 29.417065 65.09375 29.40625 z M 57.875 30.875 C 58.332591 30.848366 58.7543 30.935361 59.15625 31.09375 C 59.963694 31.409079 60.564465 32.050961 60.96875 33.03125 C 61.373023 34.011551 61.412931 34.894665 61.0625 35.6875 C 60.715609 36.478877 60.026465 37.076681 59 37.5 C 57.969976 37.924787 57.060999 38.001358 56.25 37.6875 C 55.442551 37.37218 54.841779 36.730298 54.4375 35.75 C 54.033222 34.769708 53.993314 33.855345 54.34375 33.0625 C 54.69774 32.268202 55.376228 31.674793 56.40625 31.25 C 56.919484 31.038343 57.417409 30.901634 57.875 30.875 z M 52.34375 31.21875 L 52.59375 32.40625 L 51.1875 32.96875 C 51.50599 33.101259 51.752036 33.298544 51.9375 33.5625 L 52.78125 33.21875 L 53.03125 34.375 L 52.3125 34.6875 C 52.352476 35.011468 52.347852 35.283835 52.25 35.5625 C 52.159415 35.838177 51.999818 36.127528 51.8125 36.375 C 51.62945 36.612208 51.421486 36.828245 51.15625 37.03125 C 50.898283 37.231264 50.607285 37.421115 50.3125 37.59375 C 50.566347 37.693335 50.852304 37.799003 51.15625 37.9375 C 51.460192 38.076004 51.777803 38.238657 52.09375 38.40625 C 52.40669 38.566576 52.719577 38.728382 53.03125 38.90625 C 53.342915 39.084123 53.61297 39.256181 53.875 39.4375 L 51.90625 40.25 C 51.6194 40.070405 51.315941 39.886348 51 39.71875 C 50.691329 39.548155 50.379717 39.400051 50.0625 39.25 C 49.752555 39.096954 49.457194 38.943729 49.15625 38.8125 C 48.855306 38.681276 48.566349 38.568334 48.3125 38.46875 L 47.875 37.375 L 49.03125 36.90625 C 49.46042 36.729263 49.825115 36.524086 50.125 36.28125 C 50.421882 36.03115 50.574689 35.727692 50.625 35.375 L 47.5625 36.625 L 47.125 35.5625 L 50.3125 34.25 C 50.202857 34.107977 50.07106 33.993072 49.9375 33.9375 C 49.808212 33.871669 49.678908 33.850953 49.53125 33.84375 C 49.390865 33.833563 49.248231 33.836833 49.09375 33.875 C 48.946543 33.910183 48.794458 33.94301 48.65625 34 L 46.8125 34.78125 L 46.34375 33.6875 L 52.34375 31.21875 z M 57.59375 32.5 C 57.403314 32.489185 57.176529 32.539314 56.96875 32.625 C 56.546085 32.799315 56.285291 33.07102 56.1875 33.46875 C 56.091794 33.861474 56.17042 34.334415 56.40625 34.90625 C 56.642078 35.478093 56.935066 35.879115 57.28125 36.09375 C 57.629517 36.303374 58.014833 36.330561 58.4375 36.15625 C 58.853057 35.984874 59.123041 35.705222 59.21875 35.3125 C 59.312986 34.916233 59.235825 34.415594 59 33.84375 C 58.764167 33.271916 58.469714 32.898593 58.125 32.6875 C 57.951907 32.580184 57.784186 32.510815 57.59375 32.5 z M 41.125 35 L 42.96875 39.53125 L 44.28125 36.4375 L 46.5 35.5 L 44.71875 39.4375 L 49.1875 41.375 L 46.875 42.34375 L 43.5 40.8125 L 44.53125 43.28125 L 42.625 44.09375 L 39.21875 35.78125 L 41.125 35 z M 34.9375 37.5625 L 35.4375 38.75 C 35.804396 38.631945 36.182417 38.554856 36.5625 38.46875 C 36.942578 38.382662 37.320466 38.302053 37.71875 38.25 L 38.28125 39.59375 C 37.864546 39.59106 37.482616 39.622721 37.09375 39.6875 C 36.703413 39.748743 36.303553 39.838574 35.9375 39.96875 L 36.59375 41.5 L 36.75 41.46875 C 37.710744 41.238774 38.468773 41.221795 38.96875 41.40625 C 39.470804 41.585701 39.82569 42.006277 40.09375 42.65625 C 40.363263 43.309785 40.38205 43.907173 40.09375 44.4375 C 39.803973 44.964282 39.231782 45.432226 38.375 45.84375 L 39.03125 47.4375 L 38.15625 47.8125 L 37.5 46.1875 C 37.048698 46.35284 36.605498 46.504063 36.15625 46.59375 C 35.706998 46.683439 35.235554 46.733034 34.78125 46.75 L 34.21875 45.34375 C 34.713628 45.384859 35.193816 45.370224 35.65625 45.3125 C 36.120768 45.249764 36.564371 45.131784 37 44.96875 L 36.3125 43.3125 L 36.125 43.375 C 35.214598 43.575911 34.521811 43.577973 34.03125 43.40625 C 33.544241 43.23307 33.185049 42.850259 32.9375 42.25 C 32.675306 41.614234 32.68191 41.033889 32.96875 40.5 C 33.257679 39.961108 33.800675 39.520729 34.59375 39.15625 L 34.09375 37.90625 L 34.9375 37.5625 z M 35.09375 40.34375 C 34.847431 40.461964 34.663959 40.625209 34.5625 40.8125 C 34.463127 40.994788 34.453616 41.186761 34.53125 41.375 C 34.617671 41.584562 34.749177 41.717621 34.9375 41.78125 C 35.124357 41.841339 35.366026 41.832292 35.65625 41.75 L 35.09375 40.34375 z M 37.71875 43.03125 C 37.583652 43.04125 37.424257 43.073917 37.25 43.125 L 37.84375 44.59375 C 38.151288 44.462766 38.364356 44.305198 38.46875 44.125 C 38.576687 43.943344 38.596671 43.765672 38.5 43.53125 C 38.400391 43.289732 38.252906 43.121123 38.0625 43.0625 C 37.966561 43.031417 37.853848 43.02125 37.71875 43.03125 z M 82.34375 46.03125 C 82.31657 46.03815 82.28376 46.03533 82.25 46.0625 C 82.21827 46.08951 82.183851 46.101284 82.125 46.1875 C 82.110735 46.2049 82.109089 46.234552 82.09375 46.25 C 82.088637 46.255149 82.06783 46.24274 82.0625 46.25 C 82.00572 46.33666 81.981927 46.433985 81.90625 46.5625 C 81.690133 46.929503 81.373718 47.4386 81.03125 48.09375 C 81.026052 48.103667 81.036464 48.115025 81.03125 48.125 C 80.347906 49.433554 79.469381 51.239715 78.53125 53.21875 C 77.986158 54.368649 77.479889 55.42369 77 56.375 C 76.893049 56.590284 76.760503 56.855511 76.65625 57.0625 C 76.311186 57.735793 75.945336 58.400587 75.625 59 C 72.227257 65.352564 70.170176 66.968752 66.65625 66.96875 C 64.60817 66.968747 63.083193 66.323812 61.375 64.65625 C 61.103385 64.391096 60.81413 64.101316 60.53125 63.78125 C 60.316649 63.535219 60.070239 63.251211 59.84375 62.96875 C 59.697303 62.786111 59.560003 62.636793 59.40625 62.4375 C 59.264119 62.253276 59.138836 62.082138 59 61.90625 C 58.828728 61.68927 58.664541 61.447565 58.5 61.25 C 58.202075 60.892286 57.905381 60.580824 57.65625 60.3125 C 57.418982 60.056953 57.196565 59.838092 57.03125 59.6875 C 57.01832 59.67588 57.010895 59.667433 57 59.65625 C 56.93535 59.59815 56.92501 59.568616 56.875 59.53125 C 56.85452 59.51748 56.83148 59.51119 56.8125 59.5 C 56.76361 59.46688 56.716602 59.44345 56.6875 59.4375 C 56.67592 59.433 56.66727 59.4409 56.65625 59.4375 C 56.596505 59.437501 56.520258 59.506432 56.4375 59.65625 C 56.189225 60.105705 55.878892 61.152057 55.625 62.375 C 55.622974 62.384758 55.627048 62.396501 55.625 62.40625 C 55.450781 63.235409 55.188378 64.052152 54.875 64.78125 C 54.716469 65.150085 54.528241 65.482717 54.34375 65.8125 C 53.974768 66.472066 53.558911 67.050845 53.125 67.5 C 52.799567 67.836866 52.461421 68.098309 52.125 68.28125 C 51.79869 68.458693 51.472614 68.558122 51.15625 68.5625 C 51.131306 68.562387 51.089209 68.563905 51.0625 68.5625 C 50.903889 68.556634 50.720252 68.520628 50.5 68.46875 C 50.255872 68.411249 49.998783 68.328685 49.6875 68.21875 C 49.064934 67.998881 48.305837 67.685022 47.46875 67.28125 C 46.639134 66.881081 45.719794 66.390875 44.75 65.84375 C 44.742664 65.839607 44.726092 65.847901 44.71875 65.84375 C 43.746607 65.29466 42.729122 64.662521 41.6875 64 C 41.679477 63.994892 41.664249 64.00508 41.65625 64 C 41.254423 63.744202 40.893212 63.522201 40.53125 63.3125 C 40.276875 63.165131 40.063853 63.054691 39.84375 62.9375 C 39.735403 62.880846 39.653114 62.825583 39.5625 62.78125 C 39.552768 62.776307 39.54053 62.785994 39.53125 62.78125 C 39.385271 62.7071 39.307505 62.648032 39.1875 62.59375 C 39.12137 62.56511 39.087797 62.5526 39.03125 62.53125 C 38.941547 62.497383 38.849751 62.454865 38.78125 62.4375 C 38.768516 62.434773 38.762211 62.439839 38.75 62.4375 C 38.597188 62.40478 38.497268 62.39922 38.46875 62.46875 C 38.469082 62.47555 38.467754 62.49257 38.46875 62.5 C 38.483385 62.604297 38.542877 62.763312 38.65625 62.96875 C 38.664299 62.983767 38.678951 62.984508 38.6875 63 C 38.799302 63.198971 38.945561 63.432383 39.125 63.6875 C 39.13093 63.695978 39.119005 63.710227 39.125 63.71875 C 39.246305 63.891211 39.415477 64.068574 39.5625 64.25 C 39.596824 64.292365 39.621298 64.331473 39.65625 64.375 C 39.665832 64.386889 39.677877 64.394267 39.6875 64.40625 C 40.06343 64.874385 40.935553 66.015427 42.0625 67.53125 C 43.197781 69.055254 44.559529 70.893229 45.9375 72.78125 C 46.025713 72.902114 46.099464 73.004216 46.1875 73.125 C 48.991539 76.972129 52.653738 81.968021 54.375 84.1875 C 56.096282 86.407008 59.164441 90.501157 61.1875 93.3125 C 61.372029 93.55665 61.388535 93.582671 61.5625 93.8125 C 62.841261 95.501896 63.679862 96.622643 64.21875 97.3125 C 64.29483 97.40687 64.332398 97.440674 64.40625 97.53125 C 65.229162 98.540562 65.954069 99.35141 66.3125 99.65625 C 66.744378 100.02355 67.177832 100.30651 67.59375 100.5 C 68.425576 100.887 69.17439 100.93755 69.875 100.625 C 70.225306 100.46874 70.574335 100.20723 70.875 99.875 C 70.93186 99.81221 71.020469 99.684686 71.09375 99.53125 C 71.460139 98.764037 72.020883 96.902215 72.78125 93.9375 C 74.301971 88.008072 76.567201 77.760604 79.5 63.71875 C 80.026017 61.200253 80.45712 59.069042 80.84375 57.09375 C 81.224593 55.148025 81.535762 53.456737 81.78125 52.03125 C 82.023493 50.624603 82.233414 49.375372 82.34375 48.46875 C 82.528358 46.951789 82.522909 46.156791 82.34375 46.03125 z M 60.375 68.5625 C 61.276377 68.562493 61.939206 69.885094 64.09375 76.09375 C 66.523019 83.093983 68.320035 91.884591 67.78125 94.03125 C 67.492009 95.183743 67.121353 95.46875 65.84375 95.46875 C 63.044976 95.46875 61.715185 91.43462 59.6875 76.40625 C 58.992881 71.258253 59.235722 68.562493 60.375 68.5625 z "
       id="path3072" />
  </g>
</svg>
