<?xml version="1.0" encoding="UTF-8" standalone="no"?>
<!-- Created with Inkscape (http://www.inkscape.org/) -->

<svg
   xmlns:dc="http://purl.org/dc/elements/1.1/"
   xmlns:cc="http://creativecommons.org/ns#"
   xmlns:rdf="http://www.w3.org/1999/02/22-rdf-syntax-ns#"
   xmlns:svg="http://www.w3.org/2000/svg"
   xmlns="http://www.w3.org/2000/svg"
   xmlns:xlink="http://www.w3.org/1999/xlink"
   xmlns:sodipodi="http://sodipodi.sourceforge.net/DTD/sodipodi-0.dtd"
   xmlns:inkscape="http://www.inkscape.org/namespaces/inkscape"
   width="128"
   height="128"
   id="svg2"
   sodipodi:version="0.32"
   inkscape:version="0.91 r13725"
   sodipodi:docname="sc-apps-skrooge-initial.svgz"
   inkscape:output_extension="org.inkscape.output.svgz.inkscape"
   version="1.0"
   inkscape:export-filename="/home/s/Bureau/coul.png"
   inkscape:export-xdpi="2109.375"
   inkscape:export-ydpi="2109.375"
   style="display:inline">
  <defs
     id="defs4">
    <linearGradient
       id="linearGradient3101">
      <stop
         style="stop-color:#d45500;stop-opacity:1;"
         offset="0"
         id="stop3103" />
      <stop
         id="stop3105"
         offset="0.43652287"
         style="stop-color:#d45500;stop-opacity:0.41330168;" />
      <stop
         style="stop-color:#d45500;stop-opacity:1;"
         offset="1"
         id="stop3107" />
    </linearGradient>
    <linearGradient
       id="linearGradient3257">
      <stop
         style="stop-color:#d45500;stop-opacity:1;"
         offset="0"
         id="stop3259" />
      <stop
         id="stop3273"
         offset="0.86461538"
         style="stop-color:#d45500;stop-opacity:0.41330168;" />
      <stop
         style="stop-color:#d45500;stop-opacity:1;"
         offset="1"
         id="stop3261" />
    </linearGradient>
    <linearGradient
       id="linearGradient3172">
      <stop
         style="stop-color:#ffffff;stop-opacity:0.66983372;"
         offset="0"
         id="stop3174" />
      <stop
         style="stop-color:#ffffff;stop-opacity:0;"
         offset="1"
         id="stop3176" />
    </linearGradient>
    <linearGradient
       id="linearGradient3222">
      <stop
         style="stop-color:#c5bebe;stop-opacity:1;"
         offset="0"
         id="stop3224" />
      <stop
         style="stop-color:#ffffff;stop-opacity:0;"
         offset="1"
         id="stop3226" />
    </linearGradient>
    <linearGradient
       id="linearGradient3194">
      <stop
         style="stop-color:#ff9b0c;stop-opacity:1;"
         offset="0"
         id="stop3196" />
      <stop
         id="stop3202"
         offset="0.72923076"
         style="stop-color:#e59324;stop-opacity:0.49803922;" />
      <stop
         style="stop-color:#ff9200;stop-opacity:1;"
         offset="1"
         id="stop3198" />
    </linearGradient>
    <inkscape:perspective
       sodipodi:type="inkscape:persp3d"
       inkscape:vp_x="0 : 526.18109 : 1"
       inkscape:vp_y="6.1230318e-014 : 1000 : 0"
       inkscape:vp_z="744.09448 : 526.18109 : 1"
       inkscape:persp3d-origin="372.04724 : 350.78739 : 1"
       id="perspective10" />
    <inkscape:perspective
       id="perspective2390"
       inkscape:persp3d-origin="372.04724 : 350.78739 : 1"
       inkscape:vp_z="744.09448 : 526.18109 : 1"
       inkscape:vp_y="0 : 1000 : 0"
       inkscape:vp_x="0 : 526.18109 : 1"
       sodipodi:type="inkscape:persp3d" />
    <linearGradient
       inkscape:collect="always"
       xlink:href="#linearGradient3222"
       id="linearGradient3228"
       x1="3.154345"
       y1="33.369652"
       x2="124.66478"
       y2="33.369652"
       gradientUnits="userSpaceOnUse"
       gradientTransform="translate(8.3009079,64.249027)" />
    <linearGradient
       inkscape:collect="always"
       xlink:href="#linearGradient3257"
       id="linearGradient3271"
       x1="60.973572"
       y1="43.582222"
       x2="103.71644"
       y2="85.4188"
       gradientUnits="userSpaceOnUse" />
    <linearGradient
       inkscape:collect="always"
       xlink:href="#linearGradient3172"
       id="linearGradient2445"
       gradientUnits="userSpaceOnUse"
       gradientTransform="translate(-2.9883308,1.8378729)"
       x1="-28.887161"
       y1="3.071336"
       x2="114.05447"
       y2="55.865112" />
    <linearGradient
       inkscape:collect="always"
       xlink:href="#linearGradient3257"
       id="linearGradient3062"
       gradientUnits="userSpaceOnUse"
       x1="60.973572"
       y1="43.582222"
       x2="103.71644"
       y2="85.4188" />
    <linearGradient
       inkscape:collect="always"
       xlink:href="#linearGradient3172"
       id="linearGradient3064"
       gradientUnits="userSpaceOnUse"
       gradientTransform="translate(-2.9883308,1.8378729)"
       x1="-28.887161"
       y1="3.071336"
       x2="114.05447"
       y2="55.865112" />
    <linearGradient
       inkscape:collect="always"
       xlink:href="#linearGradient3172"
       id="linearGradient3067"
       gradientUnits="userSpaceOnUse"
       gradientTransform="translate(-2.9883308,1.8378729)"
       x1="-28.887161"
       y1="3.071336"
       x2="114.05447"
       y2="55.865112" />
    <linearGradient
       inkscape:collect="always"
       xlink:href="#linearGradient3257"
       id="linearGradient3081"
       gradientUnits="userSpaceOnUse"
       x1="60.973572"
       y1="43.582222"
       x2="103.71644"
       y2="85.4188" />
    <linearGradient
       inkscape:collect="always"
       xlink:href="#linearGradient3172-9"
       id="linearGradient3963"
       gradientUnits="userSpaceOnUse"
       gradientTransform="matrix(2.8798899,0,0,2.8798899,8.2011283,-14.018486)"
       x1="-28.887161"
       y1="3.071336"
       x2="114.05447"
       y2="55.865112" />
    <linearGradient
       id="linearGradient3172-9">
      <stop
         id="stop3174-4"
         offset="0"
         style="stop-color:#ffffff;stop-opacity:0.66983372;" />
      <stop
         id="stop3176-8"
         offset="1"
         style="stop-color:#ffffff;stop-opacity:0;" />
    </linearGradient>
    <linearGradient
       inkscape:collect="always"
       xlink:href="#linearGradient3257-36"
       id="linearGradient3968"
       gradientUnits="userSpaceOnUse"
       x1="60.973572"
       y1="43.582222"
       x2="103.71644"
       y2="85.4188"
       gradientTransform="matrix(2.8798899,0,0,2.8798899,16.807192,-19.311358)" />
    <linearGradient
       id="linearGradient3257-36">
      <stop
         id="stop3259-5"
         offset="0"
         style="stop-color:#d45500;stop-opacity:1;" />
      <stop
         style="stop-color:#d45500;stop-opacity:0.41330168;"
         offset="0.86461538"
         id="stop3273-6" />
      <stop
         id="stop3261-3"
         offset="1"
         style="stop-color:#d45500;stop-opacity:1;" />
    </linearGradient>
    <filter
       color-interpolation-filters="sRGB"
       inkscape:collect="always"
       id="filter3924">
      <feGaussianBlur
         inkscape:collect="always"
         stdDeviation="5.8518405"
         id="feGaussianBlur3926" />
    </filter>
    <linearGradient
       inkscape:collect="always"
       xlink:href="#linearGradient3257-36"
       id="linearGradient3168"
       gradientUnits="userSpaceOnUse"
       gradientTransform="matrix(2.8798899,0,0,2.8798899,-275.26919,-234.40757)"
       x1="60.973572"
       y1="43.582222"
       x2="103.71644"
       y2="85.4188" />
    <linearGradient
       inkscape:collect="always"
       xlink:href="#linearGradient3172-9"
       id="linearGradient3170"
       gradientUnits="userSpaceOnUse"
       gradientTransform="matrix(2.8798899,0,0,2.8798899,-283.87525,-229.1147)"
       x1="-28.887161"
       y1="3.071336"
       x2="114.05447"
       y2="55.865112" />
    <linearGradient
       inkscape:collect="always"
       xlink:href="#linearGradient3257-36"
       id="linearGradient3153"
       gradientUnits="userSpaceOnUse"
       gradientTransform="matrix(0.95576121,0,0,0.95576121,3.8910043,3.4636315)"
       x1="60.973572"
       y1="43.582222"
       x2="103.71644"
       y2="85.4188" />
    <linearGradient
       inkscape:collect="always"
       xlink:href="#linearGradient3172-9"
       id="linearGradient3162"
       gradientUnits="userSpaceOnUse"
       gradientTransform="matrix(0.95576121,0,0,0.95576121,1.0348748,5.2201986)"
       x1="-28.887161"
       y1="3.071336"
       x2="114.05447"
       y2="55.865112" />
    <linearGradient
       inkscape:collect="always"
       xlink:href="#linearGradient3257-36"
       id="linearGradient3053"
       gradientUnits="userSpaceOnUse"
       gradientTransform="matrix(0.95576121,0,0,0.95576121,3.8910043,3.4636315)"
       x1="60.973572"
       y1="43.582222"
       x2="103.71644"
       y2="85.4188" />
    <linearGradient
       inkscape:collect="always"
       xlink:href="#linearGradient3172-9"
       id="linearGradient3055"
       gradientUnits="userSpaceOnUse"
       gradientTransform="matrix(0.95576121,0,0,0.95576121,1.0348748,5.2201986)"
       x1="-28.887161"
       y1="3.071336"
       x2="114.05447"
       y2="55.865112" />
    <linearGradient
       inkscape:collect="always"
       xlink:href="#linearGradient3172-9"
       id="linearGradient3058"
       gradientUnits="userSpaceOnUse"
       gradientTransform="matrix(0.95576121,0,0,0.95576121,1.0348748,5.2201986)"
       x1="-28.887161"
       y1="3.071336"
       x2="114.05447"
       y2="55.865112" />
    <linearGradient
       inkscape:collect="always"
       xlink:href="#linearGradient3257-36"
       id="linearGradient3068"
       gradientUnits="userSpaceOnUse"
       gradientTransform="matrix(0.95576121,0,0,0.95576121,3.8910043,3.4636315)"
       x1="60.973572"
       y1="43.582222"
       x2="103.71644"
       y2="85.4188" />
    <linearGradient
       inkscape:collect="always"
       xlink:href="#linearGradient3257-36"
       id="linearGradient3096"
       gradientUnits="userSpaceOnUse"
       gradientTransform="matrix(0.95576121,0,0,0.95576121,3.8910043,3.4636315)"
       x1="60.973572"
       y1="43.582222"
       x2="103.71644"
       y2="85.4188" />
    <filter
       inkscape:collect="always"
       id="filter3877"
       color-interpolation-filters="sRGB">
      <feGaussianBlur
         inkscape:collect="always"
         stdDeviation="1.6574892"
         id="feGaussianBlur3879" />
    </filter>
  </defs>
  <sodipodi:namedview
     id="base"
     pagecolor="#ffffff"
     bordercolor="#666666"
     borderopacity="1.0"
     inkscape:pageopacity="0.0"
     inkscape:pageshadow="2"
     inkscape:zoom="5.8359375"
     inkscape:cx="-8.6532806"
     inkscape:cy="64"
     inkscape:document-units="px"
     inkscape:current-layer="g3070"
     showgrid="true"
     inkscape:window-width="1680"
     inkscape:window-height="982"
     inkscape:window-x="-4"
     inkscape:window-y="0"
     showguides="true"
     width="480px"
     inkscape:guide-bbox="true"
     inkscape:window-maximized="1">
    <inkscape:grid
       type="xygrid"
       id="grid3300" />
  </sodipodi:namedview>
  <metadata
     id="metadata7">
    <rdf:RDF>
      <cc:Work
         rdf:about="">
        <dc:format>image/svg+xml</dc:format>
        <dc:type
           rdf:resource="http://purl.org/dc/dcmitype/StillImage" />
        <dc:title></dc:title>
        <cc:license
           rdf:resource="http://creativecommons.org/licenses/by-sa/3.0/" />
      </cc:Work>
      <cc:License
         rdf:about="http://creativecommons.org/licenses/by-sa/3.0/">
        <cc:permits
           rdf:resource="http://creativecommons.org/ns#Reproduction" />
        <cc:permits
           rdf:resource="http://creativecommons.org/ns#Distribution" />
        <cc:requires
           rdf:resource="http://creativecommons.org/ns#Notice" />
        <cc:requires
           rdf:resource="http://creativecommons.org/ns#Attribution" />
        <cc:permits
           rdf:resource="http://creativecommons.org/ns#DerivativeWorks" />
        <cc:requires
           rdf:resource="http://creativecommons.org/ns#ShareAlike" />
      </cc:License>
    </rdf:RDF>
  </metadata>
  <g
     inkscape:groupmode="layer"
     id="layer4"
     inkscape:label="ombre oblique"
     style="display:inline">
    <path
       inkscape:connector-curvature="0"
       style="fill:#000000;fill-opacity:0.40888887;fill-rule:nonzero;display:inline;filter:url(#filter3924)"
       d="m -174.97648,4.2160508 c -42.11172,-0.116894 -82.22233,29.3928772 -110.78579,63.0875882 -11.48301,15.541816 -19.66875,32.639309 -24.56906,51.298041 l -44.00832,0 -10.16961,25.64902 49.6781,0 c -0.79064,6.87849 -0.80576,13.78883 -0.89996,20.69921 l -42.0284,0 -10.16961,25.64902 54.08793,0 c 5.40753,36.84225 21.98163,68.08932 48.32816,90.26656 14.02266,11.80357 34.50449,21.76209 51.56804,25.01904 18.4946,1.1227 37.12907,0.81366 55.1679,-3.50987 31.91485,-10.33975 63.75177,-39.30119 79.106971,-71.90726 5.197164,-11.03605 8.044656,-20.21014 12.239532,-39.86847 l -55.437883,0 10.25961,-25.64902 49.138122,0 c 0.568116,-6.71273 0.852015,-13.76927 0.899965,-20.69921 l -41.758407,0 10.349605,-25.64902 30.14885,0 C -70.407942,77.567823 -93.291925,45.00608 -125.11839,19.42547 -141.6409,8.7944368 -158.49801,4.2617898 -174.97648,4.2160508 z M -63.830735,118.60168 c 0.900542,7.47537 1.323799,16.4222 1.259952,25.64902 l 48.058167,0 10.1696101,-25.64902 z m 0.359987,46.34823 c -0.499632,8.67034 -2.248215,17.16296 -3.959849,25.64902 l 34.558676,0 10.169615,-25.64902 z"
       id="path3099"
       mask="none"
       sodipodi:nodetypes="scccccccccsccscccccccccscccccccccc"
       transform="matrix(0.23293184,0,0.13448263,0.23293184,68.171642,40.513691)" />
  </g>
  <g
     inkscape:groupmode="layer"
     id="layer2"
     inkscape:label="ombre2"
     style="display:inline">
    <path
       style="fill:#000000;fill-opacity:1;fill-rule:nonzero;display:inline;filter:url(#filter3877)"
       mask="none"
       d="M 69.09375,13.84375 C 55.117956,13.80496 41.791976,23.598841 32.3125,34.78125 28.501588,39.939176 25.782537,45.620145 24.15625,51.8125 l -14.59375,0 -3.375,8.5 16.46875,0 c -0.262393,2.282793 -0.249987,4.581627 -0.28125,6.875 l -13.96875,0 -3.375,8.53125 17.96875,0 c 1.794623,12.226996 7.287516,22.57745 16.03125,29.9375 4.65376,3.9173 11.462051,7.2316 17.125,8.3125 6.137881,0.37259 12.325877,0.27861 18.3125,-1.15625 10.591716,-3.4315 21.154005,-13.053889 26.25,-23.875 1.72481,-3.662583 2.67032,-6.694658 4.0625,-13.21875 l 11.46875,0 3.375,-8.53125 -13.53125,0 c 0.18854,-2.227782 0.26534,-4.575128 0.28125,-6.875 l 15.96875,0 3.375,-8.5 -19.75,0 C 103.78594,38.19442 96.187385,27.395795 85.625,18.90625 80.141608,15.378085 74.562529,13.85893 69.09375,13.84375 z"
       id="path2402-5"
       inkscape:connector-curvature="0" />
  </g>
  <g
     style="display:inline"
     inkscape:label="prinicpal"
     id="g3070"
     inkscape:groupmode="layer">
    <path
       inkscape:connector-curvature="0"
       style="fill:url(#linearGradient3068);fill-opacity:1;fill-rule:nonzero;display:inline"
       d="m 69.080649,13.850057 c -13.975794,-0.03879 -27.287468,9.754739 -36.766944,20.937148 -3.810912,5.157926 -6.527551,10.832142 -8.153838,17.024497 l -14.6052267,0 -3.3750314,8.512245 16.4868811,0 c -0.262393,2.282793 -0.267411,4.576161 -0.298674,6.869534 l -13.9481424,0 -3.3750314,8.512249 17.9503898,0 c 1.794623,12.226996 7.295136,22.59709 16.03887,29.95714 4.65376,3.9173 11.451151,7.22228 17.1141,8.30318 6.137881,0.37259 12.322181,0.27003 18.308804,-1.16483 10.591716,-3.4315 21.157569,-13.043059 26.253564,-23.86417 1.72481,-3.662583 2.66981,-6.707228 4.06199,-13.23132 l -18.398409,0 3.4049,-8.512249 16.307679,0 c 0.18854,-2.227782 0.28276,-4.569662 0.29867,-6.869534 l -13.858537,0 3.434769,-8.512245 10.005628,0 C 103.78425,38.193622 96.189649,27.387216 85.627264,18.897671 80.143872,15.369506 74.549428,13.865237 69.080649,13.850057 z m 36.886411,37.961645 c 0.29886,2.480882 0.43933,5.450105 0.41814,8.512245 l 15.94927,0 3.37503,-8.512245 z m 0.11947,15.381779 c -0.16582,2.877462 -0.74613,5.695944 -1.31417,8.512249 l 11.46913,0 3.37503,-8.512249 z M 88.614019,26.693101 c 0.04227,-0.0052 0.07829,-2.3e-5 0.119468,0 0.617651,2.96e-4 1.126192,0.579353 1.58298,1.67258 0.619228,1.482061 0.59819,2.68017 -0.02987,7.675959 -0.783094,6.228837 -4.407463,23.650604 -8.542114,41.037996 -5.003276,21.040128 -6.895962,27.071184 -9.378407,29.897414 -2.588871,2.94738 -6.269642,2.70775 -9.079734,-0.56749 C 60.876698,103.60108 56.514288,97.436157 49.517407,86.876188 44.710232,79.621006 39.133186,71.57516 35.210857,66.207855 33.903415,64.418754 32.770188,62.908643 31.925429,61.847193 27.09945,55.783297 26.144969,53.557085 27.982912,52.52852 c 0.653683,-0.365815 2.222728,0.155938 5.854039,1.911523 0.581719,0.281237 1.139374,0.538243 1.67258,0.776556 1.042377,0.465888 1.995221,0.837962 2.867283,1.134966 0.07338,0.02499 0.136819,0.06583 0.209075,0.0896 0.260421,0.08846 0.536693,0.167241 0.776555,0.238939 0.114019,0.03219 0.247383,0.06089 0.358411,0.0896 1.614817,0.417604 2.928425,0.464113 4.002251,0.119472 0.268456,-0.08616 0.505361,-0.192597 0.746687,-0.328543 0.959319,-0.540407 1.723861,-1.476584 2.359536,-2.837415 0.0038,-0.0081 -0.0038,-0.02167 0,-0.02987 0.100601,-0.216708 0.203744,-0.478676 0.298677,-0.716822 0.109917,-0.274331 0.21836,-0.584397 0.328542,-0.896027 0.02423,-0.07173 0.06572,-0.135727 0.0896,-0.209071 0.06027,-0.175054 0.118383,-0.38054 0.179205,-0.567485 0.134675,-0.452663 0.262021,-0.955055 0.388276,-1.463509 0.663616,-2.672437 2.171341,-4.390527 3.823045,-4.390527 0.697066,4e-6 2.781352,1.580269 5.316426,4.002251 3.199085,3.056389 5.092803,4.586501 6.809797,5.226816 0.0091,0.0034 0.02074,-0.0034 0.02987,0 0.172322,0.0635 0.337775,0.103206 0.507747,0.14934 0.169973,0.04613 0.337835,0.08944 0.507748,0.119468 0.679632,0.120116 1.38054,0.116651 2.150465,0.02987 0.557055,-0.06278 1.093944,-0.15772 1.612846,-0.328542 0.259443,-0.08541 0.522994,-0.181811 0.776556,-0.298677 1.521334,-0.70119 2.954029,-2.004301 4.569732,-4.211321 0.807848,-1.103512 1.638662,-2.432107 2.56861,-4.032119 1.239929,-2.133348 2.618136,-4.762764 4.211321,-7.944764 3.927244,-7.843734 6.128257,-11.284553 7.616225,-11.469135 z m -6.272184,19.324296 c -0.02718,0.0069 -0.05584,0.0027 -0.0896,0.02987 -0.03173,0.02701 -0.06062,0.06312 -0.119471,0.149336 -0.01902,0.0232 -0.03841,0.0307 -0.05973,0.05974 -0.05678,0.08666 -0.103528,0.170158 -0.179205,0.298673 -0.216117,0.367003 -0.523691,0.897962 -0.866159,1.553112 -0.684945,1.310302 -1.565643,3.117557 -2.508873,5.107348 -5.381453,11.352442 -7.445658,13.739072 -11.857414,13.739069 -2.792543,-4e-6 -4.639187,-1.14565 -7.257811,-4.539867 C 59.086108,62.00319 58.7756,61.60756 58.47768,61.249846 c -0.595851,-0.715428 -1.125392,-1.27904 -1.463509,-1.58298 -0.06465,-0.0581 -0.09933,-0.111971 -0.14934,-0.149337 -0.02048,-0.01377 -0.04075,-0.01868 -0.05973,-0.02987 -0.04889,-0.03312 -0.09037,-0.05378 -0.119472,-0.05973 -0.01158,-0.0045 -0.01885,0.0034 -0.02987,0 -0.23898,3e-6 -0.706846,1.326296 -1.045368,2.956887 -0.697244,3.358716 -2.744025,6.190436 -4.480132,6.182581 -1.343656,-0.0061 -5.269045,-1.896721 -9.468007,-4.569736 -0.401827,-0.255798 -0.773005,-0.477252 -1.134967,-0.686953 -0.254375,-0.147369 -0.46685,-0.271085 -0.686953,-0.388276 -0.117769,-0.06158 -0.196974,-0.09946 -0.298676,-0.14934 -0.145979,-0.07415 -0.238406,-0.124924 -0.358411,-0.179206 -0.06613,-0.02864 -0.09279,-0.03838 -0.149337,-0.05973 -0.09967,-0.03763 -0.197903,-0.07442 -0.268808,-0.0896 -0.152812,-0.03272 -0.270159,-0.03966 -0.298677,0.02987 3.32e-4,0.0068 -9.96e-4,0.02244 0,0.02987 0.02927,0.208593 0.279163,0.65739 0.657088,1.194704 0.156568,0.222601 0.343241,0.444894 0.537616,0.686953 0.777498,0.9682 3.707065,4.904056 6.511123,8.751188 2.804039,3.847129 6.49231,8.831508 8.213572,11.050987 1.721282,2.219508 4.786741,6.328124 6.8098,9.139467 0.184529,0.24415 0.184446,0.24805 0.358411,0.477879 1.278761,1.689396 2.119325,2.804646 2.658213,3.494503 0.07608,0.09437 0.135219,0.148364 0.209071,0.23894 0.822912,1.009312 1.523226,1.81576 1.881657,2.1206 0.431878,0.367303 0.868385,0.642793 1.284303,0.836283 0.831826,0.387 1.599189,0.43202 2.299799,0.11947 0.350306,-0.15626 0.684965,-0.41445 0.98563,-0.746679 0.05686,-0.06279 0.135793,-0.175107 0.209074,-0.328543 0.366389,-0.767213 0.942081,-2.650387 1.702448,-5.615102 1.520721,-5.929428 3.787395,-16.154227 6.720194,-30.196081 1.555455,-7.447307 2.501755,-12.504197 2.837419,-15.262311 0.184605,-1.51696 0.179156,-2.323597 0,-2.449139 z m -21.95264,22.549994 c 0.901377,-7e-6 1.54903,1.317962 3.703574,7.526618 2.429269,7.000233 4.242358,15.803731 3.703573,17.95039 -0.289241,1.152493 -0.663785,1.43364 -1.941388,1.43364 -2.798774,0 -4.125027,-4.056986 -6.152712,-19.085356 -0.694619,-5.147997 -0.452325,-7.825299 0.686953,-7.825292 z"
       id="path3072"
       mask="none"
       sodipodi:nodetypes="scccccccccsccscccccccccscccccccccccccssssssssssscccssccccccssscccsssssssccccccssssscccccccsscccscccscsscsccsccccsssccscssc" />
    <path
       inkscape:connector-curvature="0"
       style="fill:#ffffff;fill-opacity:1;fill-rule:nonzero;stroke:none;display:inline"
       d="m 92.585465,60.229744 c 0.02907,-0.08258 0.802618,-2.010457 1.718959,-4.284174 l 1.666075,-4.134028 4.998221,0.03965 4.99822,0.03967 0.18538,2.22143 c 0.10196,1.221788 0.19122,3.131824 0.19834,4.244522 l 0.013,2.023088 -6.915521,0 c -4.280032,0 -6.89537,-0.05722 -6.862638,-0.150143 l 0,-7e-6 z"
       id="path3078" />
    <path
       inkscape:connector-curvature="0"
       style="fill:#ffffff;fill-opacity:1;fill-rule:nonzero;stroke:none;display:inline"
       d="m 86.529411,75.578957 c 0,-0.110906 0.731882,-2.040074 1.626406,-4.287038 l 1.626406,-4.085392 8.13203,-0.0017 8.132027,-0.0017 -0.003,0.51569 c -0.005,0.790289 -0.42815,3.614628 -0.89114,5.940472 l -0.41658,2.092636 -9.103112,0.01447 c -7.263956,0.01155 -9.103127,-0.02625 -9.103127,-0.187174 l 0,-3e-6 z"
       id="path3080" />
    <path
       inkscape:connector-curvature="0"
       style="fill:#ffffff;fill-opacity:1;fill-rule:nonzero;stroke:none;display:inline"
       d="m 67.073397,108.86428 c -0.954583,-0.22646 -2.068359,-0.84873 -2.960835,-1.65425 C 62.569045,105.8169 57.939728,99.458044 52.256604,90.924585 44.376453,79.092194 36.989245,68.481807 32.833718,63.027116 c -4.422804,-5.805523 -5.42754,-7.391851 -5.599059,-8.840084 -0.08366,-0.706351 -0.05062,-0.811788 0.393543,-1.255955 0.266677,-0.266681 0.638433,-0.484868 0.826114,-0.484868 0.587647,0 2.566088,0.735486 4.937482,1.835507 6.303556,2.924037 9.044923,3.463512 11.195548,2.203163 1.416522,-0.830143 2.473787,-2.716782 3.419207,-6.101428 0.781693,-2.798479 1.840976,-4.342634 3.273442,-4.771813 0.554047,-0.165994 0.714113,-0.148408 1.318924,0.144909 0.858048,0.416134 2.526107,1.768598 4.893203,3.96742 3.122187,2.900243 4.343686,3.857846 5.950266,4.664768 1.028711,0.516688 1.62929,0.638523 3.065084,0.621806 2.662116,-0.031 4.747501,-1.171108 6.830745,-3.734478 2.040004,-2.51015 3.256426,-4.572091 7.360001,-12.475792 3.666822,-7.062479 5.134951,-9.567263 6.386551,-10.896128 1.185515,-1.258692 1.741859,-1.42905 2.427567,-0.743338 1.785872,1.785871 1.544052,5.837956 -1.17279,19.652486 -2.960916,15.055434 -9.039769,41.227692 -11.590638,49.902884 -1.997766,6.794195 -3.512958,9.877035 -5.539794,11.271545 -1.290476,0.88787 -2.767996,1.20103 -4.135717,0.87656 l 0,0 z m 3.259397,-8.55123 c 0.486906,-0.322228 0.680774,-0.614822 1.02795,-1.551431 1.061719,-2.86438 3.015961,-11.030981 6.26093,-26.163848 3.907249,-18.221465 5.25407,-25.649726 4.798248,-26.464248 -0.209051,-0.373544 -0.430673,0.02555 -3.902104,7.026716 -3.218569,6.491215 -4.544858,8.885458 -5.807364,10.483562 -1.846373,2.337211 -3.135203,3.07958 -5.562544,3.204066 -2.931435,0.150343 -4.732659,-0.816762 -7.234221,-3.884169 -1.576097,-1.9326 -3.042251,-3.535845 -3.233507,-3.535845 -0.233211,0 -0.481284,0.644995 -1.029364,2.67642 -1.067752,3.95758 -2.785354,6.365626 -4.541692,6.367389 -1.199397,0.0013 -4.714363,-1.632088 -8.4817,-3.941169 -2.906368,-1.781375 -4.176149,-2.388897 -4.176149,-1.998072 0,0.231001 0.517528,0.986984 2.436906,3.559729 1.139381,1.527235 3.814526,5.133092 5.944763,8.013023 2.130238,2.879928 5.53931,7.44973 7.57571,10.155116 2.036403,2.705389 5.0356,6.703965 6.664884,8.88573 3.189238,4.270696 4.837777,6.261006 5.685397,6.864091 1.272578,0.90547 2.505458,1.00996 3.573857,0.30294 l 0,0 z"
       id="path3082" />
    <path
       inkscape:connector-curvature="0"
       style="fill:#ffffff;fill-opacity:1;fill-rule:nonzero;stroke:none;display:inline"
       d="m 64.87045,95.222801 c -1.644162,-0.730757 -2.784561,-3.96439 -4.034018,-11.438533 -0.986293,-5.899914 -1.338455,-8.921658 -1.349938,-11.58318 -0.01231,-2.857902 0.136762,-3.452451 0.887588,-3.539581 0.775835,-0.09003 1.329438,0.941945 3.081601,5.744417 3.073972,8.425437 5.028957,17.998568 4.1199,20.174263 -0.350064,0.837859 -1.598559,1.134432 -2.705133,0.642608 l 0,6e-6 z"
       id="path3084" />
    <path
       inkscape:connector-curvature="0"
       style="fill:url(#linearGradient3058);fill-opacity:1;fill-rule:evenodd;stroke:none;display:inline"
       mask="none"
       d="m 69.09184,13.857534 c -13.975791,-0.03879 -27.287465,9.754739 -36.766938,20.937148 -3.810915,5.157926 -6.527551,10.832142 -8.153837,17.024494 l -14.6052273,0 -3.3750314,8.512248 16.4868807,0 c -0.262393,2.282794 -0.267414,4.576161 -0.298677,6.869534 l -13.948139,0 -3.3750314,8.512249 17.9503894,0 c 0.502056,3.420587 1.287533,6.691872 2.359536,9.796552 5.519882,-3.804374 10.917799,-7.225855 16.218073,-10.3043 -2.319141,-3.340334 -4.520953,-6.471136 -6.361787,-8.990127 -1.307438,-1.789104 -2.440666,-3.299212 -3.285428,-4.360662 -4.825976,-6.063896 -5.780459,-8.290108 -3.942517,-9.318673 0.653683,-0.365811 2.222731,0.155938 5.854039,1.911523 0.581723,0.28124 1.139377,0.538243 1.672583,0.776556 1.042374,0.465888 1.995218,0.837962 2.867284,1.134966 0.07338,0.02499 0.136818,0.06583 0.209071,0.0896 0.260421,0.08846 0.536697,0.167241 0.776559,0.23894 0.114019,0.03219 0.247379,0.06089 0.358407,0.0896 1.614821,0.417604 2.928429,0.464113 4.002251,0.119472 0.26846,-0.08616 0.505365,-0.1926 0.74669,-0.328543 0.959319,-0.540407 1.723861,-1.476584 2.359536,-2.837418 0.0038,-0.0081 -0.0038,-0.02167 0,-0.02987 0.100601,-0.216707 0.203745,-0.478675 0.298674,-0.716821 0.10992,-0.274331 0.218363,-0.584398 0.328542,-0.896028 0.02423,-0.07173 0.06572,-0.135726 0.0896,-0.20907 0.06027,-0.175054 0.118386,-0.380541 0.179205,-0.567485 0.134678,-0.452664 0.262022,-0.955055 0.38828,-1.463509 0.663616,-2.672434 2.17134,-4.390527 3.823045,-4.390527 0.697062,3e-6 2.781348,1.580266 5.316419,4.002251 3.199088,3.056388 5.092802,4.586501 6.8098,5.226816 0.0091,0.0034 0.02074,-0.0034 0.02987,0 0.172322,0.06351 0.337775,0.103206 0.507748,0.14934 0.169972,0.04613 0.337831,0.08944 0.507747,0.119468 0.679632,0.120115 1.38054,0.116651 2.150462,0.02987 0.557058,-0.06278 1.093947,-0.157723 1.612849,-0.328542 0.259439,-0.08541 0.522991,-0.181811 0.776556,-0.298677 1.521331,-0.701191 2.954029,-2.004301 4.569732,-4.211321 0.807848,-1.103512 1.638662,-2.432107 2.568607,-4.03212 1.239928,-2.133347 2.618136,-4.762763 4.211324,-7.944763 3.927241,-7.843734 6.128254,-11.284553 7.616222,-11.469138 0.04227,-0.0052 0.07829,-2e-5 0.119471,0 0.617651,2.98e-4 1.126192,0.579356 1.58298,1.672583 0.619228,1.48206 0.59819,2.680169 -0.02987,7.675958 -0.437975,3.483724 -1.806272,10.623171 -3.613971,19.145094 3.133039,-0.976211 6.127271,-1.836336 8.960259,-2.56861 l 0.328545,-0.806425 3.016621,0 C 101.36471,51.2537 103.59957,50.767013 105.70944,50.355658 103.23265,37.422366 95.820601,27.089074 85.638458,18.905148 80.155063,15.376983 74.560619,13.872714 69.09184,13.857534 z m 13.261186,32.16734 c -0.02718,0.0069 -0.05585,0.0027 -0.0896,0.02987 -0.03173,0.02701 -0.06062,0.06312 -0.119468,0.149337 -0.01902,0.0232 -0.03841,0.0307 -0.05973,0.05973 -0.05678,0.08666 -0.103528,0.170161 -0.179205,0.298676 -0.216117,0.367004 -0.523691,0.897962 -0.866159,1.553112 -0.684948,1.310302 -1.565643,3.117553 -2.508876,5.107348 -1.090184,2.299799 -2.032146,4.145843 -2.897149,5.764437 1.764761,-0.663032 3.499813,-1.295116 5.196951,-1.881654 0.758416,-3.873839 1.300791,-6.80384 1.523243,-8.63172 0.184608,-1.516961 0.179159,-2.323598 0,-2.449139 z M 56.666944,59.4354 c -0.238976,4e-6 -0.706843,1.326292 -1.045364,2.956887 -0.697241,3.358716 -2.744023,6.190436 -4.48013,6.182577 -1.343656,-0.0061 -5.269044,-1.896717 -9.468009,-4.569732 -0.401824,-0.255798 -0.773005,-0.477251 -1.134967,-0.686953 -0.254372,-0.147368 -0.466848,-0.271085 -0.686953,-0.388279 -0.117766,-0.06158 -0.196971,-0.09946 -0.298677,-0.149337 -0.145975,-0.07415 -0.238402,-0.124924 -0.358408,-0.179206 -0.06612,-0.02864 -0.09279,-0.03838 -0.14934,-0.05973 -0.09966,-0.03763 -0.197903,-0.07442 -0.268808,-0.0896 -0.152808,-0.03272 -0.270155,-0.03966 -0.298673,0.02987 3.32e-4,0.0068 -9.96e-4,0.02243 0,0.02987 0.02927,0.208593 0.279159,0.65739 0.657084,1.194704 0.156572,0.222601 0.343241,0.444894 0.537616,0.686953 0.751861,0.93627 3.525125,4.670078 6.242315,8.392777 5.376499,-2.975584 10.607809,-5.604638 15.650591,-7.914898 -0.690952,-0.642349 -1.367378,-1.434115 -2.150462,-2.449139 -0.317467,-0.411487 -0.627975,-0.807118 -0.925896,-1.164832 -0.59585,-0.715428 -1.125388,-1.279043 -1.463508,-1.58298 -0.06465,-0.0581 -0.09933,-0.111971 -0.149337,-0.149337 -0.02048,-0.01377 -0.04074,-0.01868 -0.05973,-0.02987 -0.04889,-0.03316 -0.09037,-0.05378 -0.119472,-0.05973 -0.01158,-0.0045 -0.01885,0.0034 -0.02987,0 z"
       id="path3086"
       sodipodi:nodetypes="scccccccccccsssssscccssccccccssscccssssssscccsccccccscccccssccsccccsscccscccscccssccccc" />
    <text
       xml:space="preserve"
       style="font-size:11.80257702px;font-style:normal;font-variant:normal;font-weight:bold;font-stretch:normal;text-align:start;line-height:125%;letter-spacing:0px;word-spacing:0px;writing-mode:lr-tb;text-anchor:start;fill:#ffffff;fill-opacity:1;stroke:none;display:inline;font-family:AlMateen;-inkscape-font-specification:AlMateen Bold"
       x="13.407681"
       y="57.00745"
       id="text3074"
       sodipodi:linespacing="125%"
       transform="matrix(0.92446954,-0.38125592,0.38125592,0.92446954,0,0)"><tspan
         sodipodi:role="line"
         id="tspan3076"
         x="13.407681"
         y="57.00745">$k₹oog€</tspan></text>
  </g>
</svg>
