<?xml version="1.0" encoding="utf-8"?>
<!-- Generator: Adobe Illustrator 13.0.0, SVG Export Plug-In . SVG Version: 6.00 Build 14948)  -->
<!DOCTYPE svg PUBLIC "-//W3C//DTD SVG 1.1//EN" "http://www.w3.org/Graphics/SVG/1.1/DTD/svg11.dtd">
<svg version="1.1" id="Layer_1" xmlns="http://www.w3.org/2000/svg" xmlns:xlink="http://www.w3.org/1999/xlink" x="0px" y="0px"
	 width="128px" height="128px" viewBox="0 0 128 128" enable-background="new 0 0 128 128" xml:space="preserve">
<g>
	
		<linearGradient id="SVGID_1_" gradientUnits="userSpaceOnUse" x1="-352.0713" y1="816.3721" x2="-351.9211" y2="941.4579" gradientTransform="matrix(1 0.0012 -0.0012 1 417.05 -814.4921)">
		<stop  offset="0" style="stop-color:#5F5D5C"/>
		<stop  offset="1" style="stop-color:#181500"/>
	</linearGradient>
	<path fill="url(#SVGID_1_)" d="M112.889,21.127c0.014-10.813-8.742-19.59-19.557-19.604l-58.52-0.066
		C23.999,1.444,15.223,10.2,15.209,21.015l-0.1,85.858c-0.012,10.814,8.744,19.59,19.559,19.604l58.518,0.066
		c10.813,0.014,19.592-8.742,19.604-19.557L112.889,21.127z"/>
	
		<linearGradient id="SVGID_2_" gradientUnits="userSpaceOnUse" x1="-348.6206" y1="856.2891" x2="-348.6206" y2="835.4355" gradientTransform="matrix(1 0 0 1 412.6201 -813.9912)">
		<stop  offset="0" style="stop-color:#00B2DE"/>
		<stop  offset="1" style="stop-color:#99DBF6"/>
	</linearGradient>
	<path fill="url(#SVGID_2_)" d="M104.285,31.953c0,5.713-4.631,10.344-10.344,10.344H34.057c-5.713,0-10.344-4.631-10.344-10.344
		v-0.166c0-5.713,4.631-10.344,10.344-10.344h59.885c5.713,0,10.344,4.631,10.344,10.344V31.953z"/>
	<g>
		
			<linearGradient id="SVGID_3_" gradientUnits="userSpaceOnUse" x1="-378.5806" y1="863.5898" x2="-378.5806" y2="877.5098" gradientTransform="matrix(1 0 0 1 412.6201 -813.9912)">
			<stop  offset="0" style="stop-color:#FF9D00"/>
			<stop  offset="1" style="stop-color:#FF1F00"/>
		</linearGradient>
		<path fill="url(#SVGID_3_)" d="M41,61.706c0,1.002-0.812,1.812-1.814,1.812H28.893c-1.002,0-1.813-0.813-1.813-1.812V51.41
			c0-0.999,0.813-1.812,1.813-1.812h10.293c1.002,0,1.813,0.812,1.813,1.812L41,61.706L41,61.706z"/>
		
			<linearGradient id="SVGID_4_" gradientUnits="userSpaceOnUse" x1="-360.9561" y1="863.5898" x2="-360.9561" y2="877.5098" gradientTransform="matrix(1 0 0 1 412.6201 -813.9912)">
			<stop  offset="0" style="stop-color:#FF9D00"/>
			<stop  offset="1" style="stop-color:#FF1F00"/>
		</linearGradient>
		<path fill="url(#SVGID_4_)" d="M58.625,61.706c0,1.002-0.812,1.812-1.814,1.812H46.518c-1.002,0-1.814-0.811-1.814-1.812V51.41
			c0-0.999,0.812-1.812,1.814-1.812h10.293c1.002,0,1.814,0.812,1.814,1.812V61.706L58.625,61.706z"/>
		
			<linearGradient id="SVGID_5_" gradientUnits="userSpaceOnUse" x1="-343.3315" y1="863.5898" x2="-343.3315" y2="877.5098" gradientTransform="matrix(1 0 0 1 412.6201 -813.9912)">
			<stop  offset="0" style="stop-color:#FF9D00"/>
			<stop  offset="1" style="stop-color:#FF1F00"/>
		</linearGradient>
		<path fill="url(#SVGID_5_)" d="M76.25,61.706c0,1.002-0.812,1.812-1.812,1.812H64.143c-1.002,0-1.814-0.811-1.814-1.812V51.41
			c0-0.999,0.814-1.812,1.814-1.812h10.295c1,0,1.812,0.812,1.812,1.812V61.706z"/>
		
			<linearGradient id="SVGID_6_" gradientUnits="userSpaceOnUse" x1="-378.5806" y1="880.9102" x2="-378.5806" y2="894.8301" gradientTransform="matrix(1 0 0 1 412.6201 -813.9912)">
			<stop  offset="0" style="stop-color:#FF9D00"/>
			<stop  offset="1" style="stop-color:#FF1F00"/>
		</linearGradient>
		<path fill="url(#SVGID_6_)" d="M41,79.027c0,1-0.812,1.812-1.814,1.812H28.893c-1.002,0-1.813-0.812-1.813-1.812V68.732
			c0-1.004,0.813-1.813,1.813-1.813h10.293c1.002,0,1.813,0.81,1.813,1.813L41,79.027L41,79.027z"/>
		
			<linearGradient id="SVGID_7_" gradientUnits="userSpaceOnUse" x1="-360.9561" y1="880.9102" x2="-360.9561" y2="894.8301" gradientTransform="matrix(1 0 0 1 412.6201 -813.9912)">
			<stop  offset="0" style="stop-color:#FF9D00"/>
			<stop  offset="1" style="stop-color:#FF1F00"/>
		</linearGradient>
		<path fill="url(#SVGID_7_)" d="M58.625,79.027c0,1-0.812,1.812-1.814,1.812H46.518c-1.002,0-1.814-0.812-1.814-1.812V68.732
			c0-1.004,0.812-1.813,1.814-1.813h10.293c1.002,0,1.814,0.81,1.814,1.813V79.027L58.625,79.027z"/>
		
			<linearGradient id="SVGID_8_" gradientUnits="userSpaceOnUse" x1="-343.3315" y1="880.9102" x2="-343.3315" y2="894.8301" gradientTransform="matrix(1 0 0 1 412.6201 -813.9912)">
			<stop  offset="0" style="stop-color:#FF9D00"/>
			<stop  offset="1" style="stop-color:#FF1F00"/>
		</linearGradient>
		<path fill="url(#SVGID_8_)" d="M76.25,79.027c0,1-0.812,1.812-1.812,1.812H64.143c-1.002,0-1.814-0.812-1.814-1.812V68.732
			c0-1.004,0.814-1.813,1.814-1.813h10.295c1,0,1.812,0.81,1.812,1.813V79.027z"/>
		
			<linearGradient id="SVGID_9_" gradientUnits="userSpaceOnUse" x1="-378.5806" y1="898.2324" x2="-378.5806" y2="912.1543" gradientTransform="matrix(1 0 0 1 412.6201 -813.9912)">
			<stop  offset="0" style="stop-color:#FF9D00"/>
			<stop  offset="1" style="stop-color:#FF1F00"/>
		</linearGradient>
		<path fill="url(#SVGID_9_)" d="M41,96.35c0,1.002-0.812,1.813-1.814,1.813H28.893c-1.002,0-1.813-0.813-1.813-1.813V86.057
			c0-1.004,0.813-1.816,1.813-1.816l10.293,0.004c1.002,0,1.813,0.809,1.813,1.812L41,96.35L41,96.35z"/>
		
			<linearGradient id="SVGID_10_" gradientUnits="userSpaceOnUse" x1="-360.9561" y1="898.2363" x2="-360.9561" y2="912.1543" gradientTransform="matrix(1 0 0 1 412.6201 -813.9912)">
			<stop  offset="0" style="stop-color:#FF9D00"/>
			<stop  offset="1" style="stop-color:#FF1F00"/>
		</linearGradient>
		<path fill="url(#SVGID_10_)" d="M58.625,96.35c0,1.002-0.812,1.813-1.814,1.813H46.518c-1.002,0-1.814-0.813-1.814-1.813V86.057
			c0-1.004,0.812-1.812,1.814-1.812h10.293c1.002,0,1.814,0.809,1.814,1.812V96.35L58.625,96.35z"/>
		
			<linearGradient id="SVGID_11_" gradientUnits="userSpaceOnUse" x1="-343.3315" y1="898.2363" x2="-343.3315" y2="912.1543" gradientTransform="matrix(1 0 0 1 412.6201 -813.9912)">
			<stop  offset="0" style="stop-color:#FF9D00"/>
			<stop  offset="1" style="stop-color:#FF1F00"/>
		</linearGradient>
		<path fill="url(#SVGID_11_)" d="M76.25,96.35c0,1.002-0.812,1.813-1.812,1.813H64.143c-1.002,0-1.814-0.813-1.814-1.813V86.057
			c0-1.004,0.814-1.812,1.814-1.812h10.295c1,0,1.812,0.809,1.812,1.812V96.35z"/>
		
			<linearGradient id="SVGID_12_" gradientUnits="userSpaceOnUse" x1="-378.5806" y1="915.5547" x2="-378.5806" y2="929.4766" gradientTransform="matrix(1 0 0 1 412.6201 -813.9912)">
			<stop  offset="0" style="stop-color:#FF9D00"/>
			<stop  offset="1" style="stop-color:#FF1F00"/>
		</linearGradient>
		<path fill="url(#SVGID_12_)" d="M41,113.671c0,1.002-0.812,1.813-1.814,1.813H28.893c-1.002,0-1.813-0.812-1.813-1.813v-10.297
			c0-1,0.813-1.812,1.813-1.812h10.293c1.002,0,1.813,0.812,1.813,1.812L41,113.671L41,113.671z"/>
		
			<linearGradient id="SVGID_13_" gradientUnits="userSpaceOnUse" x1="-360.9561" y1="915.5547" x2="-360.9561" y2="929.4766" gradientTransform="matrix(1 0 0 1 412.6201 -813.9912)">
			<stop  offset="0" style="stop-color:#FF9D00"/>
			<stop  offset="1" style="stop-color:#FF1F00"/>
		</linearGradient>
		<path fill="url(#SVGID_13_)" d="M58.625,113.671c0,1.002-0.812,1.813-1.814,1.813H46.518c-1.002,0-1.814-0.812-1.814-1.813
			v-10.297c0-1,0.812-1.812,1.814-1.812h10.293c1.002,0,1.814,0.812,1.814,1.812V113.671L58.625,113.671z"/>
		
			<linearGradient id="SVGID_14_" gradientUnits="userSpaceOnUse" x1="-343.3315" y1="915.5547" x2="-343.3315" y2="929.4766" gradientTransform="matrix(1 0 0 1 412.6201 -813.9912)">
			<stop  offset="0" style="stop-color:#FF9D00"/>
			<stop  offset="1" style="stop-color:#FF1F00"/>
		</linearGradient>
		<path fill="url(#SVGID_14_)" d="M76.25,113.671c0,1.002-0.812,1.813-1.812,1.813H64.143c-1.002,0-1.814-0.812-1.814-1.813v-10.297
			c0-1,0.814-1.812,1.814-1.812h10.295c1,0,1.812,0.812,1.812,1.812V113.671z"/>
		
			<linearGradient id="SVGID_15_" gradientUnits="userSpaceOnUse" x1="-318.6597" y1="863.5898" x2="-318.6597" y2="877.5098" gradientTransform="matrix(1 0 0 1 412.6201 -813.9912)">
			<stop  offset="0" style="stop-color:#FF9D00"/>
			<stop  offset="1" style="stop-color:#FF1F00"/>
		</linearGradient>
		<path fill="url(#SVGID_15_)" d="M100.922,61.706c0,1.002-0.811,1.812-1.812,1.812H88.814c-1,0-1.814-0.811-1.814-1.812V51.41
			c0-0.999,0.814-1.812,1.814-1.812h10.295c1.002,0,1.812,0.812,1.812,1.812V61.706z"/>
		
			<linearGradient id="SVGID_16_" gradientUnits="userSpaceOnUse" x1="-318.6597" y1="880.9102" x2="-318.6597" y2="894.8301" gradientTransform="matrix(1 0 0 1 412.6201 -813.9912)">
			<stop  offset="0" style="stop-color:#FF9D00"/>
			<stop  offset="1" style="stop-color:#FF1F00"/>
		</linearGradient>
		<path fill="url(#SVGID_16_)" d="M100.922,79.027c0,1-0.811,1.812-1.812,1.812H88.814c-1,0-1.814-0.812-1.814-1.812V68.732
			c0-1.004,0.814-1.813,1.814-1.813h10.295c1.002,0,1.812,0.81,1.812,1.813V79.027z"/>
		
			<linearGradient id="SVGID_17_" gradientUnits="userSpaceOnUse" x1="-318.6597" y1="898.2363" x2="-318.6597" y2="912.1543" gradientTransform="matrix(1 0 0 1 412.6201 -813.9912)">
			<stop  offset="0" style="stop-color:#FF9D00"/>
			<stop  offset="1" style="stop-color:#FF1F00"/>
		</linearGradient>
		<path fill="url(#SVGID_17_)" d="M100.922,96.35c0,1.002-0.811,1.813-1.812,1.813H88.814c-1,0-1.814-0.813-1.814-1.813V86.057
			c0-1.004,0.814-1.812,1.814-1.812h10.295c1.002,0,1.812,0.809,1.812,1.812V96.35z"/>
		
			<linearGradient id="SVGID_18_" gradientUnits="userSpaceOnUse" x1="-318.6597" y1="915.5547" x2="-318.6597" y2="929.4766" gradientTransform="matrix(1 0 0 1 412.6201 -813.9912)">
			<stop  offset="0" style="stop-color:#FF9D00"/>
			<stop  offset="1" style="stop-color:#FF1F00"/>
		</linearGradient>
		<path fill="url(#SVGID_18_)" d="M100.922,113.671c0,1.002-0.811,1.813-1.812,1.813H88.814c-1,0-1.814-0.812-1.814-1.813v-10.297
			c0-1,0.814-1.812,1.814-1.812h10.295c1.002,0,1.812,0.812,1.812,1.812V113.671z"/>
	</g>
	<g>
		<path opacity="0.4" fill="#808080" d="M94.814,8.164H33.182c-7.584,0-13.73,6.143-13.73,13.721v6.561
			c0-7.578,6.146-13.721,13.73-13.721h61.633c7.583,0,13.732,6.143,13.732,13.721v-6.561C108.547,14.307,102.397,8.164,94.814,8.164
			z"/>
		<path fill="#FFFFFF" d="M94.778,7.504H33.176c-7.582,0-13.725,6.14-13.725,13.713v0.881c0-7.574,6.143-13.713,13.725-13.713
			h61.603c7.577,0,13.726,6.139,13.726,13.713v-0.881C108.504,13.644,102.355,7.504,94.778,7.504z"/>
	</g>
</g>
</svg>
