<?xml version="1.0" encoding="utf-8"?>
<!-- Generator: Adobe Illustrator 13.0.0, SVG Export Plug-In . SVG Version: 6.00 Build 14948)  -->
<!DOCTYPE svg PUBLIC "-//W3C//DTD SVG 1.1//EN" "http://www.w3.org/Graphics/SVG/1.1/DTD/svg11.dtd">
<svg version="1.1" id="Layer_1" xmlns="http://www.w3.org/2000/svg" xmlns:xlink="http://www.w3.org/1999/xlink" x="0px" y="0px"
	 width="128px" height="128px" viewBox="0 0 128 128" enable-background="new 0 0 128 128" xml:space="preserve">
<g>
	
		<linearGradient id="SVGID_1_" gradientUnits="userSpaceOnUse" x1="-235.5708" y1="775.4072" x2="-235.5708" y2="839.0859" gradientTransform="matrix(1 0 0 1 246.6895 -715.6445)">
		<stop  offset="0.1044" style="stop-color:#6CBE45"/>
		<stop  offset="0.8681" style="stop-color:#24933C"/>
	</linearGradient>
	<path fill="url(#SVGID_1_)" d="M20.249,114.312c0,5.041-4.088,9.129-9.131,9.129l0,0c-5.041,0-9.129-4.088-9.129-9.129V68.891
		c0-5.041,4.088-9.127,9.129-9.127l0,0c5.043,0,9.131,4.086,9.131,9.127V114.312z"/>
	
		<linearGradient id="SVGID_2_" gradientUnits="userSpaceOnUse" x1="-209.1304" y1="761.6045" x2="-209.1304" y2="839.0859" gradientTransform="matrix(1 0 0 1 246.6895 -715.6445)">
		<stop  offset="0.1044" style="stop-color:#6CBE45"/>
		<stop  offset="0.8681" style="stop-color:#24933C"/>
	</linearGradient>
	<path fill="url(#SVGID_2_)" d="M46.688,114.312c0,5.041-4.088,9.129-9.129,9.129l0,0c-5.041,0-9.129-4.088-9.129-9.129V55.09
		c0-5.042,4.088-9.129,9.129-9.129l0,0c5.041,0,9.129,4.087,9.129,9.129V114.312z"/>
	
		<linearGradient id="SVGID_3_" gradientUnits="userSpaceOnUse" x1="-182.6895" y1="747.8037" x2="-182.6895" y2="839.0859" gradientTransform="matrix(1 0 0 1 246.6895 -715.6445)">
		<stop  offset="0.1044" style="stop-color:#6CBE45"/>
		<stop  offset="0.8681" style="stop-color:#24933C"/>
	</linearGradient>
	<path fill="url(#SVGID_3_)" d="M73.129,114.312c0,5.041-4.088,9.129-9.13,9.129l0,0c-5.041,0-9.127-4.088-9.127-9.129V41.289
		c0-5.042,4.086-9.129,9.127-9.129l0,0c5.042,0,9.13,4.087,9.13,9.129V114.312L73.129,114.312z"/>
	
		<linearGradient id="SVGID_4_" gradientUnits="userSpaceOnUse" x1="-156.2505" y1="734.0029" x2="-156.2505" y2="839.0859" gradientTransform="matrix(1 0 0 1 246.6895 -715.6445)">
		<stop  offset="0" style="stop-color:#FFD207"/>
		<stop  offset="1" style="stop-color:#FAA61A"/>
	</linearGradient>
	<path fill="url(#SVGID_4_)" d="M99.568,114.312c0,5.041-4.086,9.129-9.129,9.129l0,0c-5.041,0-9.129-4.088-9.129-9.129V27.488
		c0-5.043,4.088-9.129,9.129-9.129l0,0c5.043,0,9.129,4.086,9.129,9.129V114.312z"/>
	
		<linearGradient id="SVGID_5_" gradientUnits="userSpaceOnUse" x1="-129.8081" y1="720.2021" x2="-129.8081" y2="839.0859" gradientTransform="matrix(1 0 0 1 246.6895 -715.6445)">
		<stop  offset="0" style="stop-color:#FFD207"/>
		<stop  offset="1" style="stop-color:#FAA61A"/>
	</linearGradient>
	<path fill="url(#SVGID_5_)" d="M126.012,114.312c0,5.041-4.09,9.129-9.131,9.129l0,0c-5.043,0-9.129-4.088-9.129-9.129V13.688
		c0-5.041,4.086-9.129,9.129-9.129l0,0c5.041,0,9.131,4.088,9.131,9.129V114.312z"/>
	<g>
		<path opacity="0.5" fill="#70993E" d="M11.118,59.764c-5.041,0-9.129,4.086-9.129,9.127v19.309
			c5.332-2.172,11.625-4.328,18.26-5.747V68.891C20.249,63.85,16.161,59.764,11.118,59.764z"/>
		<path opacity="0.5" fill="#70993E" d="M37.559,45.961c-5.041,0-9.129,4.087-9.129,9.129v26.048
			c6.188-0.637,12.434-0.41,18.258,1.217V55.09C46.688,50.048,42.6,45.961,37.559,45.961z"/>
		<path opacity="0.5" fill="#70993E" d="M63.999,32.16c-5.041,0-9.127,4.087-9.127,9.129v43.624
			c5.389,1.411,11.613,2.371,18.257,2.816v-46.44C73.129,36.247,69.041,32.16,63.999,32.16z"/>
		<path opacity="0.3" fill="#FFFFFF" d="M90.439,18.359c-5.041,0-9.129,4.086-9.129,9.129v60.523
			c5.986,0.018,12.16-0.37,18.258-1.206V27.488C99.568,22.445,95.482,18.359,90.439,18.359z"/>
		<path opacity="0.3" fill="#FFFFFF" d="M116.881,4.559c-5.043,0-9.129,4.088-9.129,9.129v71.71
			c6.432-1.346,12.629-3.235,18.26-5.718V13.688C126.012,8.646,121.922,4.559,116.881,4.559z"/>
	</g>
	<g>
		<path fill="#246B3C" d="M11.118,121.223c-5.043,0-9.129-4.088-9.129-9.129v2.219c0,5.041,4.086,9.129,9.129,9.129
			c5.041,0,9.131-4.088,9.131-9.129v-2.219C20.249,117.135,16.159,121.223,11.118,121.223z"/>
	</g>
	<g>
		<path fill="#246B3C" d="M37.557,121.223c-5.043,0-9.129-4.088-9.129-9.129v2.219c0,5.041,4.086,9.129,9.129,9.129
			c5.041,0,9.131-4.088,9.131-9.129v-2.219C46.688,117.135,42.598,121.223,37.557,121.223z"/>
	</g>
	<g>
		<path fill="#246B3C" d="M63.999,121.223c-5.041,0-9.129-4.088-9.129-9.129v2.219c0,5.041,4.088,9.129,9.129,9.129
			c5.042,0,9.13-4.088,9.13-9.129v-2.219C73.129,117.135,69.041,121.223,63.999,121.223z"/>
	</g>
	<g>
		<path fill="#FA8F1A" d="M90.438,121.223c-5.043,0-9.129-4.088-9.129-9.129v2.219c0,5.041,4.086,9.129,9.129,9.129
			c5.041,0,9.131-4.088,9.131-9.129v-2.219C99.568,117.135,95.479,121.223,90.438,121.223z"/>
	</g>
	<g>
		<path fill="#FA8F1A" d="M116.881,121.223c-5.043,0-9.129-4.088-9.129-9.129v2.219c0,5.041,4.086,9.129,9.129,9.129
			c5.041,0,9.131-4.088,9.131-9.129v-2.219C126.012,117.135,121.922,121.223,116.881,121.223z"/>
	</g>
</g>
</svg>
