<?xml version="1.0" encoding="utf-8"?>
<!-- Generator: Adobe Illustrator 13.0.0, SVG Export Plug-In . SVG Version: 6.00 Build 14948)  -->
<!DOCTYPE svg PUBLIC "-//W3C//DTD SVG 1.1//EN" "http://www.w3.org/Graphics/SVG/1.1/DTD/svg11.dtd">
<svg version="1.1" id="Layer_1" xmlns="http://www.w3.org/2000/svg" xmlns:xlink="http://www.w3.org/1999/xlink" x="0px" y="0px"
	 width="128px" height="128px" viewBox="0 0 128 128" enable-background="new 0 0 128 128" xml:space="preserve">
<g>
	<path fill="#F2F2F2" stroke="#B3B3B3" stroke-width="2" d="M109.502,16.77H18.5c-9.342,0-16.913,7.572-16.913,16.91v67.379
		c0,9.342,7.571,16.914,16.913,16.914h91.002c9.34,0,16.912-7.572,16.912-16.914V33.68C126.414,24.342,118.842,16.77,109.502,16.77z
		"/>
	<linearGradient id="SVGID_1_" gradientUnits="userSpaceOnUse" x1="63.9346" y1="118.8604" x2="63.9346" y2="52.3595">
		<stop  offset="0.0934" style="stop-color:#D1D1D1"/>
		<stop  offset="0.431" style="stop-color:#D9D9D9"/>
		<stop  offset="0.9519" style="stop-color:#EFEFEF"/>
		<stop  offset="0.9725" style="stop-color:#F0F0F0"/>
	</linearGradient>
	<path fill="url(#SVGID_1_)" d="M38.497,82.25c-12.658,0-24.773-1.07-35.96-3.022v22.106c0,9.189,7.447,16.639,16.637,16.639h89.522
		c9.188,0,16.637-7.449,16.637-16.639V59.823C107.314,73.284,75.166,82.25,38.497,82.25z"/>
	<path fill="#B3B3B3" d="M108.934,114.956l-89.744,0.001c-9.212,0-16.679-7.469-16.679-16.681v3.288
		c0,9.213,7.467,16.68,16.679,16.68h89.744c9.209,0,16.676-7.467,16.676-16.68v-3.288
		C125.609,107.488,118.143,114.956,108.934,114.956z"/>
	<linearGradient id="SVGID_2_" gradientUnits="userSpaceOnUse" x1="64.1597" y1="45.8682" x2="64.1597" y2="13.9716">
		<stop  offset="0" style="stop-color:#FFD207"/>
		<stop  offset="1" style="stop-color:#FAA61A"/>
	</linearGradient>
	<path fill="url(#SVGID_2_)" d="M125.838,45.442V34.264c0-9.229-7.482-16.712-16.713-16.712h-89.93
		c-9.231,0-16.714,7.483-16.714,16.713v11.178H125.838z"/>
	<path opacity="0.5" fill="#FFFFFF" d="M109.102,17.552H19.191c-9.229,0-16.71,7.481-16.71,16.707v4.94
		c0-9.227,7.48-16.708,16.71-16.708h89.911c9.227,0,16.709,7.481,16.709,16.708v-4.94C125.811,25.033,118.328,17.552,109.102,17.552
		z"/>
	<g>
		<g>
			<path fill="#C6C5C5" stroke="#FFFFFF" d="M86.006,60.591c0,0.896-0.729,1.621-1.625,1.621h-9.213
				c-0.896,0-1.623-0.727-1.623-1.621v-9.216c0-0.896,0.727-1.622,1.623-1.622h9.213c0.896,0,1.625,0.727,1.625,1.622V60.591z"/>
			<path fill="#969696" stroke="#FFFFFF" d="M101.781,60.591c0,0.896-0.727,1.621-1.623,1.621h-9.215
				c-0.896,0-1.623-0.725-1.623-1.621v-9.216c0-0.896,0.727-1.622,1.623-1.622h9.215c0.896,0,1.623,0.727,1.623,1.622V60.591
				L101.781,60.591z"/>
			<path fill="#969696" stroke="#FFFFFF" d="M117.557,60.591c0,0.896-0.727,1.621-1.623,1.621h-9.215
				c-0.896,0-1.623-0.725-1.623-1.621v-9.216c0-0.896,0.729-1.622,1.623-1.622h9.215c0.896,0,1.623,0.727,1.623,1.622V60.591
				L117.557,60.591z"/>
		</g>
		<g>
			<path fill="#C6C5C5" stroke="#FFFFFF" d="M38.68,76.096c0,0.895-0.729,1.621-1.623,1.621H27.84c-0.895,0-1.621-0.729-1.621-1.621
				v-9.215c0-0.899,0.727-1.624,1.621-1.624h9.217c0.895,0,1.623,0.725,1.623,1.624V76.096z"/>
			<path fill="#C6C5C5" stroke="#FFFFFF" d="M54.454,76.096c0,0.895-0.727,1.621-1.623,1.621h-9.215
				c-0.895,0-1.621-0.729-1.621-1.621v-9.215c0-0.899,0.727-1.624,1.621-1.624h9.215c0.896,0,1.623,0.725,1.623,1.624V76.096z"/>
			<path fill="#C6C5C5" stroke="#FFFFFF" d="M70.23,76.096c0,0.896-0.729,1.621-1.623,1.621h-9.216
				c-0.896,0-1.621-0.729-1.621-1.621v-9.215c0-0.899,0.727-1.624,1.621-1.624h9.216c0.895,0,1.623,0.725,1.623,1.624V76.096z"/>
			<path fill="#C6C5C5" stroke="#FFFFFF" d="M86.006,76.096c0,0.896-0.729,1.621-1.625,1.621h-9.213
				c-0.896,0-1.623-0.727-1.623-1.621v-9.215c0-0.899,0.727-1.624,1.623-1.624h9.213c0.896,0,1.625,0.725,1.625,1.624V76.096z"/>
			<path fill="#C6C5C5" stroke="#FFFFFF" d="M22.903,76.096c0,0.895-0.727,1.621-1.621,1.621h-9.215
				c-0.896,0-1.623-0.729-1.623-1.621v-9.217c0-0.897,0.727-1.622,1.623-1.622h9.215c0.895,0,1.621,0.725,1.621,1.624V76.096z"/>
			<path fill="#969696" stroke="#FFFFFF" d="M101.781,76.096c0,0.896-0.727,1.621-1.623,1.621h-9.215
				c-0.896,0-1.623-0.727-1.623-1.621v-9.215c0-0.899,0.727-1.624,1.623-1.624h9.215c0.896,0,1.623,0.725,1.623,1.624V76.096
				L101.781,76.096z"/>
			<path fill="#969696" stroke="#FFFFFF" d="M117.557,76.096c0,0.896-0.727,1.621-1.623,1.621h-9.215
				c-0.896,0-1.623-0.727-1.623-1.621v-9.215c0-0.899,0.729-1.624,1.623-1.624h9.215c0.896,0,1.623,0.725,1.623,1.624V76.096
				L117.557,76.096z"/>
		</g>
		<g>
			<path fill="#C6C5C5" stroke="#FFFFFF" d="M38.68,91.598c0,0.896-0.729,1.623-1.623,1.623H27.84c-0.895,0-1.621-0.729-1.621-1.623
				v-9.215c0-0.896,0.727-1.623,1.621-1.623h9.217c0.895,0,1.623,0.728,1.623,1.623V91.598z"/>
			<path fill="#C6C5C5" stroke="#FFFFFF" d="M54.454,91.598c0,0.896-0.727,1.623-1.623,1.623h-9.215
				c-0.895,0-1.621-0.729-1.621-1.623v-9.215c0-0.896,0.727-1.623,1.621-1.623h9.215c0.896,0,1.623,0.728,1.623,1.623V91.598z"/>
			<path fill="#C6C5C5" stroke="#FFFFFF" d="M70.23,91.598c0,0.896-0.729,1.623-1.623,1.623h-9.216
				c-0.896,0-1.621-0.729-1.621-1.623v-9.215c0-0.896,0.727-1.623,1.621-1.623h9.216c0.895,0,1.623,0.728,1.623,1.623V91.598z"/>
			<path fill="#C6C5C5" stroke="#FFFFFF" d="M86.006,91.598c0,0.896-0.729,1.623-1.625,1.623h-9.213
				c-0.896,0-1.623-0.729-1.623-1.623v-9.215c0-0.896,0.727-1.623,1.623-1.623l9.213,0.002c0.896,0,1.625,0.726,1.625,1.621V91.598z
				"/>
			<path fill="#C6C5C5" stroke="#FFFFFF" d="M22.903,91.598c0,0.896-0.727,1.623-1.621,1.623h-9.215
				c-0.896,0-1.623-0.729-1.623-1.623v-9.215c0-0.896,0.727-1.623,1.623-1.623h9.215c0.895,0,1.621,0.728,1.621,1.623V91.598z"/>
			<path fill="#969696" stroke="#FFFFFF" d="M101.781,91.598c0,0.896-0.727,1.623-1.623,1.623h-9.215
				c-0.896,0-1.623-0.729-1.623-1.623v-9.215c0-0.896,0.727-1.621,1.623-1.621h9.215c0.896,0,1.623,0.726,1.623,1.621V91.598
				L101.781,91.598z"/>
			<path fill="#969696" stroke="#FFFFFF" d="M117.557,91.598c0,0.896-0.727,1.623-1.623,1.623h-9.215
				c-0.896,0-1.623-0.729-1.623-1.623v-9.215c0-0.896,0.729-1.621,1.623-1.621h9.215c0.896,0,1.623,0.726,1.623,1.621V91.598
				L117.557,91.598z"/>
		</g>
		<g>
			<path fill="#C6C5C5" stroke="#FFFFFF" d="M38.68,107.102c0,0.896-0.729,1.623-1.623,1.623H27.84
				c-0.895,0-1.621-0.728-1.621-1.623v-9.215c0-0.896,0.727-1.623,1.621-1.623h9.217c0.895,0,1.623,0.728,1.623,1.623V107.102z"/>
			<path fill="#C6C5C5" stroke="#FFFFFF" d="M54.454,107.102c0,0.896-0.727,1.623-1.623,1.623h-9.215
				c-0.895,0-1.621-0.728-1.621-1.623v-9.215c0-0.896,0.727-1.623,1.621-1.623h9.215c0.896,0,1.623,0.728,1.623,1.623V107.102z"/>
			<path fill="#C6C5C5" stroke="#FFFFFF" d="M70.23,107.102c0,0.896-0.729,1.623-1.623,1.623h-9.216
				c-0.896,0-1.621-0.728-1.621-1.623v-9.215c0-0.896,0.727-1.623,1.621-1.623l9.216,0.002c0.895,0,1.623,0.726,1.623,1.621V107.102
				z"/>
			<path fill="#C6C5C5" stroke="#FFFFFF" d="M86.006,107.102c0,0.896-0.729,1.623-1.625,1.623h-9.213
				c-0.896,0-1.623-0.728-1.623-1.623v-9.215c0-0.896,0.727-1.621,1.623-1.621h9.213c0.896,0,1.625,0.726,1.625,1.621V107.102z"/>
			<path fill="#C6C5C5" stroke="#FFFFFF" d="M22.903,107.102c0,0.896-0.727,1.623-1.621,1.623h-9.215
				c-0.896-0.002-1.623-0.728-1.623-1.623v-9.215c0-0.896,0.727-1.623,1.623-1.623h9.215c0.895,0,1.621,0.728,1.621,1.623V107.102z"
				/>
			<path fill="#969696" stroke="#FFFFFF" d="M101.781,107.102c0,0.896-0.727,1.623-1.623,1.623h-9.215
				c-0.896,0-1.623-0.728-1.623-1.623v-9.215c0-0.896,0.727-1.621,1.623-1.621h9.215c0.896,0,1.623,0.726,1.623,1.621V107.102
				L101.781,107.102z"/>
			<path fill="#969696" stroke="#FFFFFF" d="M117.557,107.102c0,0.896-0.727,1.623-1.623,1.623h-9.215
				c-0.896,0-1.623-0.728-1.623-1.623v-9.215c0-0.896,0.729-1.621,1.623-1.621h9.215c0.896,0,1.623,0.726,1.623,1.621V107.102
				L117.557,107.102z"/>
		</g>
	</g>
	
		<linearGradient id="SVGID_3_" gradientUnits="userSpaceOnUse" x1="-318.7661" y1="814.0156" x2="-318.7661" y2="853.1426" gradientTransform="matrix(1 0 0 1 412.6201 -813.9912)">
		<stop  offset="0" style="stop-color:#57C7F1"/>
		<stop  offset="1" style="stop-color:#99DBF6"/>
	</linearGradient>
	<polygon fill="url(#SVGID_3_)" stroke="#0091DE" points="110.146,8.673 102.418,1.943 94.844,14.686 92.543,0.024 82.811,3.345 
		90.08,16.261 76.285,10.91 74.283,20.962 89.113,21.261 77.633,30.446 85.363,37.177 92.924,24.559 94.047,31.856 95.168,39.151 
		104.9,35.83 97.631,22.914 111.426,28.266 113.426,18.212 106.012,18.064 98.652,17.982 	"/>
</g>
</svg>
