<?xml version="1.0" encoding="utf-8"?>
<!-- Generator: Adobe Illustrator 13.0.0, SVG Export Plug-In . SVG Version: 6.00 Build 14948)  -->
<!DOCTYPE svg PUBLIC "-//W3C//DTD SVG 1.1//EN" "http://www.w3.org/Graphics/SVG/1.1/DTD/svg11.dtd">
<svg version="1.1" id="Layer_1" xmlns="http://www.w3.org/2000/svg" xmlns:xlink="http://www.w3.org/1999/xlink" x="0px" y="0px"
	 width="128px" height="128px" viewBox="0 0 128 128" enable-background="new 0 0 128 128" xml:space="preserve">
<g>
	
		<linearGradient id="SVGID_1_" gradientUnits="userSpaceOnUse" x1="1578.4746" y1="7035.3477" x2="1643.4413" y2="7035.4932" gradientTransform="matrix(0.0022 1 -1 0.0022 7095.8618 -1537.1702)">
		<stop  offset="0" style="stop-color:#EB7680"/>
		<stop  offset="1" style="stop-color:#C1282F"/>
	</linearGradient>
	<path fill="url(#SVGID_1_)" d="M68.543,120.635c0.152-0.109,0.291-0.232,0.428-0.363l52.141-52.082
		c1.217-1.215,1.904-2.896,1.9-4.615c-0.008-3.6-2.938-6.516-6.537-6.508l-12.17,0.033l-5.25,0.012
		C86.422,69.725,74.15,81.984,74.08,82.045l-1.256,1.033c-2.566,1.822-5.578,2.789-8.726,2.797
		c-3.139,0.008-6.156-0.945-8.715-2.736c0,0-1.322-1.086-1.43-1.193L28.999,57.201l-5.234,0.004l-12.17,0.027v-0.016
		c-3.598,0.008-6.516,2.939-6.508,6.537c0.004,1.742,0.684,3.381,1.912,4.607l52.389,51.932c0.131,0.131,0.27,0.252,0.424,0.359
		c1.291,0.902,2.805,1.383,4.369,1.381C65.746,122.029,67.256,121.541,68.543,120.635z"/>
	
		<linearGradient id="SVGID_2_" gradientUnits="userSpaceOnUse" x1="1534.7422" y1="7035.3477" x2="1599.7089" y2="7035.4932" gradientTransform="matrix(0.0022 1 -1 0.0022 7095.8618 -1537.1702)">
		<stop  offset="0" style="stop-color:#EB7680"/>
		<stop  offset="1" style="stop-color:#C1282F"/>
	</linearGradient>
	<path fill="url(#SVGID_2_)" d="M68.875,76.549l52.139-52.082c1.217-1.223,1.904-2.904,1.9-4.615
		c-0.008-3.6-2.939-6.525-6.537-6.518l-12.17,0.045L23.667,13.48l-12.17,0.027v-0.016c-3.6,0.01-6.516,2.939-6.508,6.537
		c0.004,1.742,0.684,3.377,1.912,4.602L59.29,76.568c0.131,0.125,0.27,0.246,0.424,0.354c1.291,0.91,2.803,1.383,4.369,1.379
		c1.564-0.004,3.076-0.482,4.363-1.398C68.598,76.793,68.736,76.672,68.875,76.549z"/>
	<path opacity="0.5" fill="#FFFFFF" d="M117.445,20.392c1.211,0.001,2.197-0.684,2.203-1.526l0,0
		c0.004-0.845-0.978-1.53-2.191-1.532L12.366,17.241c-1.213,0-2.197,0.682-2.204,1.526l0,0c-0.001,0.846,0.979,1.529,2.19,1.53
		L117.445,20.392z"/>
	<g>
		<path opacity="0.5" fill="#FFFFFF" d="M33.789,61.723l-21.423-0.019c-1.213,0-2.197,0.682-2.204,1.526
			c-0.001,0.846,0.979,1.529,2.19,1.53l24.523,0.021L33.789,61.723z"/>
		<path opacity="0.5" fill="#FFFFFF" d="M117.457,61.796l-23.346-0.021l-3.059,3.056l26.393,0.023
			c1.211,0.001,2.197-0.684,2.203-1.526C119.652,62.483,118.671,61.798,117.457,61.796z"/>
	</g>
</g>
</svg>
