<?xml version="1.0" encoding="utf-8"?>
<!-- Generator: Adobe Illustrator 13.0.0, SVG Export Plug-In . SVG Version: 6.00 Build 14948)  -->
<!DOCTYPE svg PUBLIC "-//W3C//DTD SVG 1.1//EN" "http://www.w3.org/Graphics/SVG/1.1/DTD/svg11.dtd">
<svg version="1.1" id="Layer_1" xmlns="http://www.w3.org/2000/svg" xmlns:xlink="http://www.w3.org/1999/xlink" x="0px" y="0px"
	 width="128px" height="128px" viewBox="0 0 128 128" enable-background="new 0 0 128 128" xml:space="preserve">
<g>
	
		<linearGradient id="SVGID_1_" gradientUnits="userSpaceOnUse" x1="6439.3848" y1="-1461.9609" x2="6374.418" y2="-1462.1064" gradientTransform="matrix(-0.0022 -1 1 -0.0022 1540.3381 6448.9707)">
		<stop  offset="0" style="stop-color:#EB7680"/>
		<stop  offset="1" style="stop-color:#C1282F"/>
	</linearGradient>
	<path fill="url(#SVGID_1_)" d="M59.457,14.261c-0.152,0.109-0.291,0.232-0.428,0.363L6.889,66.706
		c-1.217,1.215-1.904,2.896-1.9,4.615c0.008,3.6,2.938,6.516,6.537,6.508l12.17-0.033l5.25-0.012
		C41.578,65.171,53.85,52.912,53.92,52.851l1.256-1.033c2.566-1.822,5.578-2.789,8.727-2.797c3.139-0.008,6.156,0.945,8.715,2.736
		c0,0,1.322,1.086,1.43,1.193l24.955,24.744l5.234-0.004l12.17-0.027v0.016c3.598-0.008,6.516-2.939,6.508-6.537
		c-0.004-1.742-0.684-3.381-1.912-4.607L68.613,14.603c-0.131-0.131-0.27-0.252-0.424-0.359c-1.291-0.902-2.805-1.383-4.369-1.381
		C62.254,12.867,60.744,13.355,59.457,14.261z"/>
	
		<linearGradient id="SVGID_2_" gradientUnits="userSpaceOnUse" x1="6395.6514" y1="-1461.9614" x2="6330.6846" y2="-1462.1069" gradientTransform="matrix(-0.0022 -1 1 -0.0022 1540.3381 6448.9707)">
		<stop  offset="0" style="stop-color:#EB7680"/>
		<stop  offset="1" style="stop-color:#C1282F"/>
	</linearGradient>
	<path fill="url(#SVGID_2_)" d="M59.125,58.347L6.986,110.429c-1.217,1.223-1.904,2.904-1.9,4.615
		c0.008,3.6,2.939,6.525,6.537,6.518l12.17-0.045l80.541-0.102l12.17-0.027v0.016c3.6-0.01,6.516-2.939,6.508-6.537
		c-0.004-1.742-0.684-3.377-1.912-4.602L68.711,58.328c-0.131-0.125-0.27-0.246-0.424-0.354c-1.291-0.91-2.803-1.383-4.369-1.379
		c-1.564,0.004-3.076,0.482-4.363,1.398C59.402,58.103,59.264,58.224,59.125,58.347z"/>
	<path opacity="0.5" fill="#FFFFFF" d="M62.025,60.58c0.596-0.598,1.564-0.6,2.162-0.006l0,0c0.6,0.596,0.602,1.564,0.006,2.164
		l-51.627,51.857c-0.596,0.598-1.562,0.602-2.162,0.006l0,0c-0.598-0.598-0.6-1.564-0.004-2.162L62.025,60.58z"/>
	<path opacity="0.5" fill="#FFFFFF" d="M61.928,16.062c0.596-0.6,1.564-0.602,2.162-0.006l0,0c0.598,0.596,0.6,1.564,0.004,2.162
		L12.469,70.077c-0.596,0.598-1.564,0.602-2.164,0.004l0,0c-0.596-0.596-0.6-1.562-0.004-2.162L61.928,16.062z"/>
</g>
</svg>
