<?xml version="1.0" encoding="utf-8"?>
<!-- Generator: Adobe Illustrator 13.0.0, SVG Export Plug-In . SVG Version: 6.00 Build 14948)  -->
<!DOCTYPE svg PUBLIC "-//W3C//DTD SVG 1.1//EN" "http://www.w3.org/Graphics/SVG/1.1/DTD/svg11.dtd">
<svg version="1.1" id="Layer_1" xmlns="http://www.w3.org/2000/svg" xmlns:xlink="http://www.w3.org/1999/xlink" x="0px" y="0px"
	 width="128px" height="128px" viewBox="0 0 128 128" enable-background="new 0 0 128 128" xml:space="preserve">
<g>
	
		<linearGradient id="SVGID_1_" gradientUnits="userSpaceOnUse" x1="6420.7305" y1="-1461.9541" x2="6355.7637" y2="-1462.0996" gradientTransform="matrix(-0.0022 -1 1 -0.0022 1540.3381 6448.9707)">
		<stop  offset="0" style="stop-color:#EB7680"/>
		<stop  offset="1" style="stop-color:#C1282F"/>
	</linearGradient>
	<path fill="url(#SVGID_1_)" d="M59.076,33.268L6.938,85.35c-1.217,1.223-1.904,2.904-1.9,4.615c0.008,3.6,2.939,6.525,6.537,6.518
		l12.17-0.045l80.541-0.102l12.17-0.027v0.016c3.6-0.01,6.516-2.939,6.508-6.537c-0.004-1.742-0.684-3.377-1.912-4.602
		L68.662,33.248c-0.131-0.125-0.27-0.246-0.424-0.354c-1.291-0.91-2.803-1.383-4.369-1.379c-1.564,0.004-3.076,0.482-4.363,1.398
		C59.354,33.023,59.215,33.145,59.076,33.268z"/>
	<path opacity="0.5" fill="#FFFFFF" d="M61.977,35.5c0.596-0.598,1.564-0.6,2.162-0.006l0,0c0.6,0.596,0.602,1.564,0.006,2.164
		L12.518,89.516c-0.596,0.598-1.562,0.602-2.162,0.006l0,0c-0.598-0.598-0.6-1.564-0.004-2.162L61.977,35.5z"/>
</g>
</svg>
