<?xml version="1.0" encoding="utf-8"?>
<!-- Generator: Adobe Illustrator 13.0.0, SVG Export Plug-In . SVG Version: 6.00 Build 14948)  -->
<!DOCTYPE svg PUBLIC "-//W3C//DTD SVG 1.1//EN" "http://www.w3.org/Graphics/SVG/1.1/DTD/svg11.dtd">
<svg version="1.1" id="Layer_1" xmlns="http://www.w3.org/2000/svg" xmlns:xlink="http://www.w3.org/1999/xlink" x="0px" y="0px"
	 width="128px" height="128px" viewBox="0 0 128 128" enable-background="new 0 0 128 128" xml:space="preserve">
<g>
	<g>
		
			<linearGradient id="SVGID_1_" gradientUnits="userSpaceOnUse" x1="-531.4854" y1="3.4951" x2="-425.3433" y2="3.4951" gradientTransform="matrix(0 1 1 0 54.6475 550.8433)">
			<stop  offset="0" style="stop-color:#ECEEF0"/>
			<stop  offset="0.2485" style="stop-color:#E8E8E9"/>
			<stop  offset="0.5636" style="stop-color:#EEEFF2"/>
			<stop  offset="0.9212" style="stop-color:#D4D5D6"/>
		</linearGradient>
		<path fill="url(#SVGID_1_)" stroke="#B3B3B3" stroke-width="2" d="M102.38,110.518l-0.049-76.176
			c0-8.276-6.708-14.984-14.983-14.984H28.889c-8.275,0-14.984,6.708-14.984,14.984v76.176c0,8.274,6.709,14.982,14.984,14.982
			h58.507C95.674,125.5,102.38,118.792,102.38,110.518z"/>
		<path fill="#FFFFFF" d="M29.056,27.406h58.316c7.39,0,13.512,5.367,14.717,12.413l-0.002-3.687c0-8.214-6.655-14.87-14.868-14.87
			H29.208c-8.211,0-14.869,6.656-14.869,14.87v3.671C15.552,32.765,21.671,27.406,29.056,27.406z"/>
		<path fill="#B3B3B3" d="M87.221,121.014H29.21c-8.066,0-14.614-6.425-14.847-14.435c-0.006-0.038-0.018-0.075-0.024-0.113
			l0.003,3.687c0,8.215,6.655,14.871,14.868,14.871h58.011c8.211,0,14.868-6.656,14.868-14.871v-3.67
			c-0.006,0.033-0.016,0.066-0.021,0.103C101.832,114.591,95.283,121.014,87.221,121.014z"/>
		<g>
			
				<linearGradient id="SVGID_2_" gradientUnits="userSpaceOnUse" x1="-267.1777" y1="106.626" x2="-274.1819" y2="111.5303" gradientTransform="matrix(1 0 0 -1 289.2754 151.834)">
				<stop  offset="0" style="stop-color:#9A9A9A"/>
				<stop  offset="1" style="stop-color:#DEDEDE"/>
			</linearGradient>
			<path fill="url(#SVGID_2_)" d="M22.87,42.758c0,2.359-1.914,4.272-4.276,4.272c-2.36,0-4.273-1.913-4.273-4.272
				c0-2.364,1.913-4.275,4.273-4.275C20.956,38.482,22.87,40.394,22.87,42.758z"/>
			
				<linearGradient id="SVGID_3_" gradientUnits="userSpaceOnUse" x1="-267.1777" y1="94.7549" x2="-274.1815" y2="99.6589" gradientTransform="matrix(1 0 0 -1 289.2754 151.834)">
				<stop  offset="0" style="stop-color:#9A9A9A"/>
				<stop  offset="1" style="stop-color:#DEDEDE"/>
			</linearGradient>
			<path fill="url(#SVGID_3_)" d="M22.87,54.628c0,2.359-1.914,4.271-4.276,4.271c-2.36,0-4.273-1.912-4.273-4.271
				c0-2.365,1.913-4.277,4.273-4.277C20.956,50.351,22.87,52.263,22.87,54.628z"/>
			
				<linearGradient id="SVGID_4_" gradientUnits="userSpaceOnUse" x1="-267.1782" y1="82.8857" x2="-274.1816" y2="87.7896" gradientTransform="matrix(1 0 0 -1 289.2754 151.834)">
				<stop  offset="0" style="stop-color:#9A9A9A"/>
				<stop  offset="1" style="stop-color:#DEDEDE"/>
			</linearGradient>
			<path fill="url(#SVGID_4_)" d="M22.87,66.497c0,2.358-1.914,4.271-4.276,4.271c-2.36,0-4.273-1.912-4.273-4.271
				c0-2.365,1.913-4.275,4.273-4.275C20.956,62.222,22.87,64.132,22.87,66.497z"/>
			
				<linearGradient id="SVGID_5_" gradientUnits="userSpaceOnUse" x1="-267.1777" y1="71.0166" x2="-274.1819" y2="75.921" gradientTransform="matrix(1 0 0 -1 289.2754 151.834)">
				<stop  offset="0" style="stop-color:#9A9A9A"/>
				<stop  offset="1" style="stop-color:#DEDEDE"/>
			</linearGradient>
			<path fill="url(#SVGID_5_)" d="M22.87,78.365c0,2.359-1.914,4.271-4.276,4.271c-2.36,0-4.273-1.912-4.273-4.271
				c0-2.363,1.913-4.274,4.273-4.274C20.956,74.091,22.87,76.002,22.87,78.365z"/>
			
				<linearGradient id="SVGID_6_" gradientUnits="userSpaceOnUse" x1="-267.1772" y1="59.147" x2="-274.1825" y2="64.052" gradientTransform="matrix(1 0 0 -1 289.2754 151.834)">
				<stop  offset="0" style="stop-color:#9A9A9A"/>
				<stop  offset="1" style="stop-color:#DEDEDE"/>
			</linearGradient>
			<circle fill="url(#SVGID_6_)" cx="18.595" cy="90.234" r="4.275"/>
			
				<linearGradient id="SVGID_7_" gradientUnits="userSpaceOnUse" x1="-267.1777" y1="47.2778" x2="-274.1824" y2="52.1825" gradientTransform="matrix(1 0 0 -1 289.2754 151.834)">
				<stop  offset="0" style="stop-color:#9A9A9A"/>
				<stop  offset="1" style="stop-color:#DEDEDE"/>
			</linearGradient>
			<circle fill="url(#SVGID_7_)" cx="18.595" cy="102.103" r="4.275"/>
		</g>
		
			<linearGradient id="SVGID_8_" gradientUnits="userSpaceOnUse" x1="-269.4849" y1="104.957" x2="-281.2567" y2="113.1998" gradientTransform="matrix(1 0 0 -1 289.2754 151.834)">
			<stop  offset="0" style="stop-color:#FF1F00"/>
			<stop  offset="1" style="stop-color:#FF9D00"/>
		</linearGradient>
		<path fill="url(#SVGID_8_)" d="M22.021,42.755c0,1.639-1.328,2.968-2.966,2.968H8.756c-1.638,0-2.968-1.329-2.968-2.968l0,0
			c0-1.64,1.33-2.965,2.968-2.965h10.299C20.692,39.79,22.021,41.115,22.021,42.755L22.021,42.755z"/>
		
			<linearGradient id="SVGID_9_" gradientUnits="userSpaceOnUse" x1="-269.4858" y1="93.0869" x2="-281.2578" y2="101.3297" gradientTransform="matrix(1 0 0 -1 289.2754 151.834)">
			<stop  offset="0" style="stop-color:#FF1F00"/>
			<stop  offset="1" style="stop-color:#FF9D00"/>
		</linearGradient>
		<path fill="url(#SVGID_9_)" d="M22.021,54.624c0,1.638-1.328,2.968-2.966,2.968H8.756c-1.638,0-2.968-1.33-2.968-2.968l0,0
			c0-1.641,1.33-2.965,2.968-2.965h10.299C20.692,51.659,22.021,52.983,22.021,54.624L22.021,54.624z"/>
		
			<linearGradient id="SVGID_10_" gradientUnits="userSpaceOnUse" x1="-269.4854" y1="81.2168" x2="-281.2575" y2="89.4597" gradientTransform="matrix(1 0 0 -1 289.2754 151.834)">
			<stop  offset="0" style="stop-color:#FF1F00"/>
			<stop  offset="1" style="stop-color:#FF9D00"/>
		</linearGradient>
		<path fill="url(#SVGID_10_)" d="M22.021,66.495c0,1.637-1.328,2.968-2.966,2.968H8.756c-1.638,0-2.968-1.331-2.968-2.968l0,0
			c0-1.642,1.33-2.968,2.968-2.968h10.299C20.692,63.527,22.021,64.854,22.021,66.495L22.021,66.495z"/>
		
			<linearGradient id="SVGID_11_" gradientUnits="userSpaceOnUse" x1="-269.4858" y1="69.3486" x2="-281.257" y2="77.5909" gradientTransform="matrix(1 0 0 -1 289.2754 151.834)">
			<stop  offset="0" style="stop-color:#FF1F00"/>
			<stop  offset="1" style="stop-color:#FF9D00"/>
		</linearGradient>
		<path fill="url(#SVGID_11_)" d="M22.021,78.365c0,1.637-1.328,2.966-2.966,2.966H8.756c-1.638,0-2.968-1.329-2.968-2.966l0,0
			c0-1.641,1.33-2.967,2.968-2.967h10.299C20.692,75.398,22.021,76.725,22.021,78.365L22.021,78.365z"/>
		
			<linearGradient id="SVGID_12_" gradientUnits="userSpaceOnUse" x1="-269.4849" y1="57.48" x2="-281.257" y2="65.7228" gradientTransform="matrix(1 0 0 -1 289.2754 151.834)">
			<stop  offset="0" style="stop-color:#FF1F00"/>
			<stop  offset="1" style="stop-color:#FF9D00"/>
		</linearGradient>
		<path fill="url(#SVGID_12_)" d="M22.021,90.23c0,1.642-1.328,2.969-2.966,2.969H8.756c-1.638,0-2.968-1.327-2.968-2.969l0,0
			c0-1.637,1.33-2.965,2.968-2.965h10.299C20.692,87.268,22.021,88.594,22.021,90.23L22.021,90.23z"/>
		
			<linearGradient id="SVGID_13_" gradientUnits="userSpaceOnUse" x1="-269.4844" y1="45.6099" x2="-281.2567" y2="53.853" gradientTransform="matrix(1 0 0 -1 289.2754 151.834)">
			<stop  offset="0" style="stop-color:#FF1F00"/>
			<stop  offset="1" style="stop-color:#FF9D00"/>
		</linearGradient>
		<path fill="url(#SVGID_13_)" d="M22.021,102.102c0,1.642-1.328,2.969-2.966,2.969H8.756c-1.638,0-2.968-1.327-2.968-2.969l0,0
			c0-1.64,1.33-2.967,2.968-2.967h10.299C20.692,99.135,22.021,100.462,22.021,102.102L22.021,102.102z"/>
	</g>
	<g>
		<g>
			
				<linearGradient id="SVGID_14_" gradientUnits="userSpaceOnUse" x1="-454.5796" y1="-626.1729" x2="-458.8793" y2="-623.1621" gradientTransform="matrix(1 0 0 -1 535.9648 -563.8105)">
				<stop  offset="0" style="stop-color:#181500"/>
				<stop  offset="1" style="stop-color:#5F5D5C"/>
			</linearGradient>
			<polygon fill="url(#SVGID_14_)" points="86.643,45.702 71.635,72.792 71.105,75.932 73.396,73.771 88.473,46.555 			"/>
			
				<linearGradient id="SVGID_15_" gradientUnits="userSpaceOnUse" x1="-456.5889" y1="-589.874" x2="-414.2285" y2="-589.874" gradientTransform="matrix(1 0 0 -1 535.9648 -563.8105)">
				<stop  offset="0" style="stop-color:#FAFAFA"/>
				<stop  offset="0.3629" style="stop-color:#E5E5E5"/>
				<stop  offset="1" style="stop-color:#C4C4C4"/>
			</linearGradient>
			<path fill="url(#SVGID_15_)" stroke="#000000" stroke-width="1.6" stroke-miterlimit="3.8637" d="M91.057,3.621l-2.97,5.36
				c0,0,1.167,1.826,2.481,3.223c1.574,1.668,3.049,2.871,3.049,2.871L79.376,35.77c0,0,3.224,7.661,8.284,10.468
				c5.062,2.81,12.645,2.216,12.645,2.216l10.426-23.886c0,0,1.938,0.758,4.235,1.17c1.792,0.318,3.798,0.251,3.798,0.251
				l2.973-5.362L91.057,3.621L91.057,3.621z"/>
			<g>
				<g>
					
						<linearGradient id="SVGID_16_" gradientUnits="userSpaceOnUse" x1="-468.7246" y1="-611.7969" x2="-432.0459" y2="-611.7969" gradientTransform="matrix(1 0 0 -1 535.9648 -563.8105)">
						<stop  offset="0" style="stop-color:#FAFAFA"/>
						<stop  offset="0.3629" style="stop-color:#E5E5E5"/>
						<stop  offset="1" style="stop-color:#C4C4C4"/>
					</linearGradient>
					<path id="SVGID_24_" fill="url(#SVGID_16_)" stroke="#000000" stroke-width="1.6" stroke-miterlimit="3.8637" d="
						M79.354,35.514c0,0-5.055,0.025-7.6,1.086c-0.916,0.38-4.514,4.073-4.514,4.073s2.494,7.408,15.037,14.368
						c12.546,6.959,20.287,5.225,20.287,5.225s1.487-4.558,1.345-5.831c-0.354-3.157-3.136-7.042-3.136-7.042
						s-5.354,0.847-12.318-3.236C81.788,40.248,79.354,35.514,79.354,35.514L79.354,35.514z"/>
				</g>
				<g>
					<g>
						<g>
							<defs>
								<path id="SVGID_17_" d="M79.354,35.514c0,0-5.055,0.025-7.6,1.086c-0.916,0.38-4.514,4.073-4.514,4.073
									s2.494,7.408,15.037,14.368c12.546,6.959,20.287,5.225,20.287,5.225s1.487-4.558,1.345-5.831
									c-0.354-3.157-3.136-7.042-3.136-7.042s-5.354,0.847-12.318-3.236C81.788,40.248,79.354,35.514,79.354,35.514L79.354,35.514
									z"/>
							</defs>
							<clipPath id="SVGID_18_">
								<use xlink:href="#SVGID_17_"  overflow="visible"/>
							</clipPath>
							
								<linearGradient id="SVGID_19_" gradientUnits="userSpaceOnUse" x1="-447.2588" y1="-616.8198" x2="-447.2588" y2="-598.0996" gradientTransform="matrix(1 0 0 -1 535.9648 -563.8105)">
								<stop  offset="0" style="stop-color:#181500"/>
								<stop  offset="1" style="stop-color:#5F5D5C"/>
							</linearGradient>
							<path clip-path="url(#SVGID_18_)" fill="url(#SVGID_19_)" d="M72.971,35.169c0,0,1.877,6.775,13.547,13.249
								c11.67,6.473,17.924,4.207,17.924,4.207l-2.469-5.657l-12.494-3.438l-10.361-9.242L72.971,35.169L72.971,35.169z"/>
						</g>
					</g>
				</g>
			</g>
			
				<linearGradient id="SVGID_20_" gradientUnits="userSpaceOnUse" x1="-429.644" y1="-584.8159" x2="-429.644" y2="-567.3164" gradientTransform="matrix(1 0 0 -1 535.9648 -563.8105)">
				<stop  offset="0" style="stop-color:#181500"/>
				<stop  offset="1" style="stop-color:#5F5D5C"/>
			</linearGradient>
			<path fill="url(#SVGID_20_)" stroke="#000000" stroke-width="2" stroke-miterlimit="3.8637" d="M90.984,3.746
				c0.619-1.12,7.99,1.781,16.459,6.481c8.472,4.698,14.836,9.414,14.214,10.537c-0.622,1.122-7.99-1.779-16.462-6.478
				C96.729,9.585,90.363,4.867,90.984,3.746L90.984,3.746z"/>
		</g>
		<path opacity="0.66" fill="#666666" enable-background="new    " d="M106.604,8.934c-8.11-4.426-15.018-7.102-15.617-6.018
			c-0.592,1.068,5.171,5.408,13.052,9.888C104.607,11.372,105.484,10.062,106.604,8.934z"/>
	</g>
</g>
</svg>
