<?xml version="1.0" encoding="utf-8"?>
<!-- Generator: Adobe Illustrator 13.0.0, SVG Export Plug-In . SVG Version: 6.00 Build 14948)  -->
<!DOCTYPE svg PUBLIC "-//W3C//DTD SVG 1.1//EN" "http://www.w3.org/Graphics/SVG/1.1/DTD/svg11.dtd">
<svg version="1.1" id="Layer_1" xmlns="http://www.w3.org/2000/svg" xmlns:xlink="http://www.w3.org/1999/xlink" x="0px" y="0px"
	 width="128px" height="128px" viewBox="0 0 128 128" enable-background="new 0 0 128 128" xml:space="preserve">
<g>
	<g>
		
			<linearGradient id="SVGID_1_" gradientUnits="userSpaceOnUse" x1="-499.8535" y1="-668.5278" x2="-507.229" y2="-663.3633" gradientTransform="matrix(1 0 0 -1 535.9648 -563.8105)">
			<stop  offset="0" style="stop-color:#181500"/>
			<stop  offset="1" style="stop-color:#5F5D5C"/>
		</linearGradient>
		<polygon fill="url(#SVGID_1_)" points="45.131,76.139 19.382,122.613 18.474,127.999 22.403,124.294 48.271,77.602 		"/>
		
			<linearGradient id="SVGID_2_" gradientUnits="userSpaceOnUse" x1="-503.3018" y1="-606.2559" x2="-430.627" y2="-606.2559" gradientTransform="matrix(1 0 0 -1 535.9648 -563.8105)">
			<stop  offset="0" style="stop-color:#FAFAFA"/>
			<stop  offset="0.3629" style="stop-color:#E5E5E5"/>
			<stop  offset="1" style="stop-color:#C4C4C4"/>
		</linearGradient>
		<path fill="url(#SVGID_2_)" stroke="#000000" stroke-width="2" stroke-miterlimit="3.8637" d="M52.701,3.942l-5.093,9.195
			c0,0,2.002,3.134,4.259,5.53c2.698,2.86,5.229,4.925,5.229,4.925L32.663,59.097c0,0,5.529,13.145,14.214,17.959
			c8.687,4.819,21.693,3.803,21.693,3.803L86.455,39.88c0,0,3.326,1.299,7.268,2.006c3.074,0.547,6.517,0.431,6.517,0.431
			l5.099-9.199L52.701,3.942L52.701,3.942z"/>
		<g>
			<g>
				
					<linearGradient id="SVGID_3_" gradientUnits="userSpaceOnUse" x1="-524.1196" y1="-643.8652" x2="-461.1914" y2="-643.8652" gradientTransform="matrix(1 0 0 -1 535.9648 -563.8105)">
					<stop  offset="0" style="stop-color:#FAFAFA"/>
					<stop  offset="0.3629" style="stop-color:#E5E5E5"/>
					<stop  offset="1" style="stop-color:#C4C4C4"/>
				</linearGradient>
				<path id="SVGID_14_" fill="url(#SVGID_3_)" stroke="#000000" stroke-width="2" stroke-miterlimit="3.8637" d="M32.627,58.657
					c0,0-8.672,0.045-13.038,1.863c-1.572,0.652-7.744,6.99-7.744,6.99s4.279,12.709,25.799,24.648
					c21.524,11.939,34.806,8.965,34.806,8.965s2.553-7.818,2.307-10.004c-0.608-5.418-5.379-12.082-5.379-12.082
					s-9.187,1.453-21.135-5.553C36.802,66.779,32.627,58.657,32.627,58.657L32.627,58.657z"/>
			</g>
			<g>
				<g>
					<g>
						<defs>
							<path id="SVGID_4_" d="M32.627,58.657c0,0-8.672,0.045-13.038,1.863c-1.572,0.652-7.744,6.99-7.744,6.99
								s4.279,12.709,25.799,24.648c21.524,11.939,34.806,8.965,34.806,8.965s2.553-7.818,2.307-10.004
								c-0.608-5.418-5.379-12.082-5.379-12.082s-9.187,1.453-21.135-5.553C36.802,66.779,32.627,58.657,32.627,58.657
								L32.627,58.657z"/>
						</defs>
						<clipPath id="SVGID_5_">
							<use xlink:href="#SVGID_4_"  overflow="visible"/>
						</clipPath>
						
							<linearGradient id="SVGID_6_" gradientUnits="userSpaceOnUse" x1="-487.2944" y1="-652.4829" x2="-487.2944" y2="-620.3687" gradientTransform="matrix(1 0 0 -1 535.9648 -563.8105)">
							<stop  offset="0" style="stop-color:#181500"/>
							<stop  offset="1" style="stop-color:#5F5D5C"/>
						</linearGradient>
						<path clip-path="url(#SVGID_5_)" fill="url(#SVGID_6_)" d="M21.675,58.067c0,0,3.219,11.623,23.24,22.729
							c20.022,11.104,30.751,7.218,30.751,7.218l-4.236-9.703l-21.435-5.896L32.218,56.558L21.675,58.067L21.675,58.067z"/>
					</g>
				</g>
			</g>
		</g>
		
			<linearGradient id="SVGID_7_" gradientUnits="userSpaceOnUse" x1="-457.0737" y1="-597.5776" x2="-457.0737" y2="-567.5547" gradientTransform="matrix(1 0 0 -1 535.9648 -563.8105)">
			<stop  offset="0" style="stop-color:#181500"/>
			<stop  offset="1" style="stop-color:#5F5D5C"/>
		</linearGradient>
		<path fill="url(#SVGID_7_)" stroke="#000000" stroke-width="2" stroke-miterlimit="3.8637" d="M52.579,4.157
			c1.064-1.922,13.708,3.055,28.239,11.119c14.533,8.061,25.451,16.151,24.385,18.078c-1.066,1.924-13.709-3.054-28.242-11.113
			C62.433,14.174,51.515,6.079,52.579,4.157L52.579,4.157z"/>
	</g>
	<g>
		
			<linearGradient id="SVGID_8_" gradientUnits="userSpaceOnUse" x1="-422.5713" y1="-677.2754" x2="-475.7755" y2="-640.0217" gradientTransform="matrix(1 0 0 -1 535.9648 -563.8105)">
			<stop  offset="0" style="stop-color:#181500"/>
			<stop  offset="1" style="stop-color:#5F5D5C"/>
		</linearGradient>
		<path fill="url(#SVGID_8_)" d="M65.381,74.762l42.82,0.002c4.434,0,8.023,3.598,8.023,8.034l0.002,24.085
			c0,4.436-3.591,8.031-8.023,8.031l-42.82-0.002c-4.431,0-8.024-3.598-8.024-8.033l-0.002-24.083
			C57.354,78.357,60.949,74.762,65.381,74.762L65.381,74.762z"/>
		<g>
			
				<linearGradient id="SVGID_9_" gradientUnits="userSpaceOnUse" x1="-225.0195" y1="64.1567" x2="-179.9473" y2="64.1567" gradientTransform="matrix(1 0 0 -1 289.2754 151.834)">
				<stop  offset="0" style="stop-color:#FFFFFF"/>
				<stop  offset="1" style="stop-color:#C4C4C4"/>
			</linearGradient>
			<polygon fill="url(#SVGID_9_)" points="64.256,86.018 109.328,86.018 109.328,89.337 64.256,89.337 			"/>
			
				<linearGradient id="SVGID_10_" gradientUnits="userSpaceOnUse" x1="-225.0195" y1="49.833" x2="-179.9473" y2="49.833" gradientTransform="matrix(1 0 0 -1 289.2754 151.834)">
				<stop  offset="0" style="stop-color:#FFFFFF"/>
				<stop  offset="1" style="stop-color:#C4C4C4"/>
			</linearGradient>
			<polygon fill="url(#SVGID_10_)" points="64.256,100.342 109.328,100.342 109.328,103.66 64.256,103.66 			"/>
			
				<linearGradient id="SVGID_11_" gradientUnits="userSpaceOnUse" x1="-218.9883" y1="56.9951" x2="-185.9805" y2="56.9951" gradientTransform="matrix(1 0 0 -1 289.2754 151.834)">
				<stop  offset="0" style="stop-color:#FFFFFF"/>
				<stop  offset="1" style="stop-color:#C4C4C4"/>
			</linearGradient>
			<polygon fill="url(#SVGID_11_)" points="70.287,93.18 103.295,93.18 103.295,96.498 70.287,96.498 			"/>
		</g>
	</g>
	<path opacity="0.5" fill="#FFFFFF" enable-background="new    " d="M77.122,97.826c0-9.408,4.481-17.766,11.426-23.062
		l-23.167-0.002c-4.432,0-8.026,3.596-8.024,8.034l0.002,24.083c0,4.436,3.594,8.033,8.024,8.033l17.312,0.001
		C79.193,110.12,77.122,104.217,77.122,97.826z"/>
	<path opacity="0.66" fill="#666666" enable-background="new    " d="M79.374,13.098C65.458,5.504,53.608,0.914,52.579,2.772
		c-1.016,1.833,8.871,9.28,22.392,16.964C75.95,17.28,77.456,15.034,79.374,13.098z"/>
</g>
</svg>
