<?xml version="1.0" encoding="utf-8"?>
<!-- Generator: Adobe Illustrator 13.0.0, SVG Export Plug-In . SVG Version: 6.00 Build 14948)  -->
<!DOCTYPE svg PUBLIC "-//W3C//DTD SVG 1.1//EN" "http://www.w3.org/Graphics/SVG/1.1/DTD/svg11.dtd">
<svg version="1.1" id="Layer_1" xmlns="http://www.w3.org/2000/svg" xmlns:xlink="http://www.w3.org/1999/xlink" x="0px" y="0px"
	 width="128px" height="128px" viewBox="0 0 128 128" enable-background="new 0 0 128 128" xml:space="preserve">
<g>
	<g>
		<g>
			<g>
				
					<linearGradient id="SVGID_1_" gradientUnits="userSpaceOnUse" x1="-145.6636" y1="-694.6392" x2="-145.6636" y2="-811.3409" gradientTransform="matrix(1 0 0 -1 209.6631 -688.7129)">
					<stop  offset="0" style="stop-color:#D5D7D8"/>
					<stop  offset="1" style="stop-color:#5C5F61"/>
				</linearGradient>
				<path fill="url(#SVGID_1_)" d="M121.392,21.104l-11.987,17.023c-1.554,2.206-4.091,3.521-6.793,3.521
					c-1.716,0-3.364-0.529-4.767-1.516l-10.643-7.491c-3.736-2.628-4.633-7.819-2.002-11.562L97.191,4.059
					c-0.902-0.086-1.803-0.125-2.703-0.125c-9.659,0-18.737,4.708-24.29,12.592c-5.935,8.423-7.077,19.134-3.055,28.668l0.557,1.308
					l-2.308,2.481L7.771,99.659c-13.054,10.98,9.806,33.838,20.942,20.942l50.533-57.279l2.487-2.873l1.205,0.508
					c3.668,1.553,7.549,2.334,11.541,2.334l0,0c9.646,0,18.721-4.709,24.272-12.584C124.873,42.024,125.818,30.661,121.392,21.104z"
					/>
			</g>
			<path opacity="0.5" fill="#FFFFFF" d="M94.206,8.19l1.553-2.226C77.87,4.545,60.208,28.805,70.386,44.505l1.303-1.638
				C64.383,28.212,77.858,8.854,94.206,8.19z"/>
		</g>
		<path opacity="0.5" fill="#FFFFFF" d="M9.346,105.01c-0.33,0.284-0.898,0.163-1.278-0.27l0,0
			c-0.381-0.435-0.423-1.019-0.095-1.306l61.73-53.776c0.327-0.286,0.899-0.162,1.277,0.272l0,0c0.38,0.435,0.422,1.017,0.096,1.302
			L9.346,105.01z"/>
	</g>
	<g>
		<g>
			<g>
				<linearGradient id="SVGID_2_" gradientUnits="userSpaceOnUse" x1="74.4512" y1="108.0293" x2="39.2034" y2="83.3485">
					<stop  offset="0" style="stop-color:#5F5D5C"/>
					<stop  offset="1" style="stop-color:#181500"/>
				</linearGradient>
				<path fill="url(#SVGID_2_)" d="M67.212,70.033h-9.586c-3.838,0-6.948,3.111-6.948,6.947v14.023H36.652
					c-3.837,0-6.947,3.113-6.947,6.949v9.588c0,3.836,3.11,6.947,6.947,6.947h30.56c3.838,0,6.948-3.109,6.948-6.947V76.98
					C74.16,73.145,71.05,70.033,67.212,70.033z"/>
			</g>
		</g>
		<g>
			<g>
				<path fill="#FFFFFF" d="M63.206,84.834c0-1.25-1.014-2.262-2.264-2.262s-2.263,1.012-2.263,2.262v16.165l-9.005,0.003
					l1.065-1.045c0.432-0.432,0.658-0.977,0.658-1.611c0-0.611-0.228-1.156-0.658-1.609c-0.453-0.43-0.998-0.656-1.609-0.656
					c-0.635,0-1.156,0.227-1.609,0.656l-4.92,4.945c-0.453,0.432-0.68,0.977-0.68,1.588c0,0.635,0.227,1.178,0.681,1.609
					l4.921,4.941c0.453,0.43,0.974,0.658,1.609,0.658c0.611,0,1.156-0.229,1.608-0.66c0.431-0.453,0.658-0.996,0.659-1.609
					c-0.001-0.635-0.229-1.156-0.659-1.609l-1.065-1.041l11.263-0.004c0.636,0,1.179-0.227,1.609-0.68
					c0.454-0.434,0.658-0.975,0.658-1.611c0-0.049-0.01-0.095-0.013-0.144c0.002-0.042,0.013-0.081,0.013-0.124V84.834z"/>
			</g>
		</g>
	</g>
</g>
</svg>
