<?xml version="1.0" encoding="utf-8"?>
<!-- Generator: Adobe Illustrator 13.0.0, SVG Export Plug-In . SVG Version: 6.00 Build 14948)  -->
<!DOCTYPE svg PUBLIC "-//W3C//DTD SVG 1.1//EN" "http://www.w3.org/Graphics/SVG/1.1/DTD/svg11.dtd">
<svg version="1.1" id="Layer_1" xmlns="http://www.w3.org/2000/svg" xmlns:xlink="http://www.w3.org/1999/xlink" x="0px" y="0px"
	 width="128px" height="128px" viewBox="0 0 128 128" enable-background="new 0 0 128 128" xml:space="preserve">
<g>
	<g>
		
			<linearGradient id="SVGID_1_" gradientUnits="userSpaceOnUse" x1="-614.0933" y1="-735.7871" x2="-668.7769" y2="-697.4973" gradientTransform="matrix(1 0 0 -1 701.8955 -662.1562)">
			<stop  offset="0" style="stop-color:#000096"/>
			<stop  offset="1" style="stop-color:#3396ED"/>
		</linearGradient>
		<path fill="url(#SVGID_1_)" d="M108.332,3.264c-6.697-3.979-15.366-1.769-19.34,4.936l-42.324,71.34l-6.778-16.14
			c-3.022-7.197-11.289-10.572-18.479-7.545c-7.182,3.007-10.566,11.288-7.551,18.481l17.622,41.997
			c2.071,4.919,6.726,8.252,12.047,8.626c5.313,0.363,10.384-2.3,13.104-6.883l56.631-95.457
			C117.242,15.916,115.031,7.243,108.332,3.264L108.332,3.264z"/>
	</g>
	<g opacity="0.5">
		<path fill="#FFFFFF" d="M22.914,59.604c6.66-2.9,14.681,0.779,17.91,8.215l-0.91-2.094c-3.233-7.442-11.25-11.116-17.91-8.216
			c-6.66,2.904-9.434,11.286-6.204,18.724l0.91,2.092C13.481,70.889,16.256,62.507,22.914,59.604z"/>
	</g>
	<path opacity="0.5" fill="#FFFFFF" enable-background="new    " d="M48.132,83.423l-0.779-2.208L89.686,9.738
		c0,0,1.746-2.603,2.57-3.474c1.579-1.674,3.018-2.083,3.018-2.083L48.132,83.423z"/>
</g>
</svg>
