<?xml version="1.0" encoding="utf-8"?>
<!-- Generator: Adobe Illustrator 13.0.0, SVG Export Plug-In . SVG Version: 6.00 Build 14948)  -->
<!DOCTYPE svg PUBLIC "-//W3C//DTD SVG 1.1//EN" "http://www.w3.org/Graphics/SVG/1.1/DTD/svg11.dtd">
<svg version="1.1" id="Layer_1" xmlns="http://www.w3.org/2000/svg" xmlns:xlink="http://www.w3.org/1999/xlink" x="0px" y="0px"
	 width="128px" height="128px" viewBox="0 0 128 128" enable-background="new 0 0 128 128" xml:space="preserve">
<g>
	<linearGradient id="SVGID_1_" gradientUnits="userSpaceOnUse" x1="63.9995" y1="5.333" x2="63.9995" y2="122.6675">
		<stop  offset="0" style="stop-color:#E20A16"/>
		<stop  offset="1" style="stop-color:#B51015"/>
	</linearGradient>
	<circle fill="url(#SVGID_1_)" cx="64" cy="63.999" r="58.667"/>
	<path opacity="0.5" fill="#FFFFFF" d="M16.377,38.372C27.104,22.755,45.82,9.954,64.254,9.954s36.65,12.801,47.373,28.418h2.039
		C102.299,19.99,84.852,7.131,64.004,7.131c-20.854,0-38.301,12.859-49.67,31.241H16.377z"/>
	<g>
		<g>
			
				<radialGradient id="SVGID_2_" cx="-348.6201" cy="877.9922" r="33.3477" gradientTransform="matrix(1 0 0 1 412.6201 -813.9912)" gradientUnits="userSpaceOnUse">
				<stop  offset="0" style="stop-color:#FAFAFA"/>
				<stop  offset="0.3109" style="stop-color:#F4F4F4"/>
				<stop  offset="0.7262" style="stop-color:#E3E3E3"/>
				<stop  offset="1" style="stop-color:#D4D4D4"/>
			</radialGradient>
			<path fill="url(#SVGID_2_)" d="M64,30.652c-18.417,0-33.348,14.932-33.348,33.35c0,18.416,14.931,33.346,33.348,33.346
				c18.418,0,33.348-14.93,33.348-33.346C97.348,45.584,82.418,30.652,64,30.652z M64,43.271c3.46,0,6.716,0.859,9.583,2.359
				L45.632,73.582c-1.499-2.867-2.358-6.121-2.358-9.58C43.273,52.553,52.553,43.271,64,43.271z M64,84.729
				c-3.46,0-6.715-0.857-9.582-2.357L82.369,54.42c1.499,2.867,2.357,6.123,2.357,9.582C84.729,75.447,75.447,84.729,64,84.729z"/>
		</g>
	</g>
</g>
</svg>
