<?xml version="1.0" encoding="utf-8"?>
<!-- Generator: Adobe Illustrator 13.0.0, SVG Export Plug-In . SVG Version: 6.00 Build 14948)  -->
<!DOCTYPE svg PUBLIC "-//W3C//DTD SVG 1.1//EN" "http://www.w3.org/Graphics/SVG/1.1/DTD/svg11.dtd">
<svg version="1.1" id="Layer_1" xmlns="http://www.w3.org/2000/svg" xmlns:xlink="http://www.w3.org/1999/xlink" x="0px" y="0px"
	 width="128px" height="128px" viewBox="0 0 128 128" enable-background="new 0 0 128 128" xml:space="preserve">
<g>
	<g>
		
			<radialGradient id="SVGID_1_" cx="63.8677" cy="63.3711" r="53.1356" gradientTransform="matrix(1 0 0 1 0 -9.765625e-04)" gradientUnits="userSpaceOnUse">
			<stop  offset="0" style="stop-color:#FAFAFA"/>
			<stop  offset="0.3109" style="stop-color:#F4F4F4"/>
			<stop  offset="0.7262" style="stop-color:#E3E3E3"/>
			<stop  offset="1" style="stop-color:#D4D4D4"/>
		</radialGradient>
		<path fill="url(#SVGID_1_)" stroke="#B3B3B3" stroke-width="2" d="M108.551,21.576v83.586c0,10.285-8.344,18.625-18.637,18.625
			H37.821c-10.295,0-18.637-8.34-18.637-18.625V21.576c0-10.285,8.342-18.623,18.637-18.623h52.093
			C100.207,2.953,108.551,11.291,108.551,21.576L108.551,21.576z"/>
		<path fill="#B3B3B3" d="M90.109,121.461H38.016c-10.295,0-18.637-8.34-18.637-18.625v2.326c0,10.285,8.342,18.625,18.637,18.625
			h52.094c10.293,0,18.637-8.34,18.637-18.625v-2.326C108.746,113.121,100.402,121.461,90.109,121.461z"/>
		<path fill="#FFFFFF" d="M30.351,10.939c2.079-1.734,4.432-2.905,7.665-2.905h52.094c3.234,0,5.586,1.171,7.666,2.905h2.629
			C97.783,8.294,94.6,6.701,90.109,6.701H38.016c-4.489,0-7.673,1.593-10.294,4.238H30.351z"/>
	</g>
	<g>
		<linearGradient id="SVGID_2_" gradientUnits="userSpaceOnUse" x1="81.7031" y1="70.8086" x2="81.7031" y2="116.2783">
			<stop  offset="0" style="stop-color:#5F5D5C"/>
			<stop  offset="1" style="stop-color:#181500"/>
		</linearGradient>
		<circle fill="url(#SVGID_2_)" cx="81.703" cy="93.544" r="22.735"/>
		<radialGradient id="SVGID_3_" cx="81.7031" cy="93.5439" r="19.4004" gradientUnits="userSpaceOnUse">
			<stop  offset="0" style="stop-color:#FAFAFA"/>
			<stop  offset="0.3109" style="stop-color:#F4F4F4"/>
			<stop  offset="0.7262" style="stop-color:#E3E3E3"/>
			<stop  offset="1" style="stop-color:#D4D4D4"/>
		</radialGradient>
		<circle fill="url(#SVGID_3_)" cx="81.703" cy="93.544" r="19.4"/>
		<path opacity="0.5" fill="#FFFFFF" d="M63.247,83.612C67.404,77.56,74.657,72.6,81.801,72.6s14.203,4.96,18.358,11.013h0.79
			c-4.404-7.124-11.166-12.106-19.245-12.106c-8.081,0-14.843,4.982-19.248,12.106H63.247z"/>
		<g>
			
				<linearGradient id="SVGID_4_" gradientUnits="userSpaceOnUse" x1="139.4619" y1="69.7734" x2="145.1045" y2="69.7734" gradientTransform="matrix(0.9999 -0.0166 0.0166 0.9999 -61.8602 26.7754)">
				<stop  offset="0" style="stop-color:#5F5D5C"/>
				<stop  offset="1" style="stop-color:#181500"/>
			</linearGradient>
			<path fill="url(#SVGID_4_)" d="M84.389,94.134c-0.026-1.558-1.311-2.8-2.867-2.774c-1.559,0.026-2.801,1.31-2.774,2.868
				c0.025,1.559,1.311,2.8,2.868,2.773C83.172,96.976,84.414,95.691,84.389,94.134"/>
			
				<linearGradient id="SVGID_5_" gradientUnits="userSpaceOnUse" x1="133.2393" y1="72.749" x2="143.4746" y2="72.749" gradientTransform="matrix(0.9999 -0.0166 0.0166 0.9999 -61.8602 26.7754)">
				<stop  offset="0" style="stop-color:#5F5D5C"/>
				<stop  offset="1" style="stop-color:#181500"/>
			</linearGradient>
			<path fill="url(#SVGID_5_)" d="M82.597,93.878c-0.296-0.433-0.889-0.548-1.322-0.25l-8.238,5.61
				c-0.436,0.298-0.548,0.89-0.252,1.325c0.296,0.434,0.89,0.547,1.322,0.251l8.239-5.612
				C82.781,94.905,82.893,94.312,82.597,93.878"/>
			
				<linearGradient id="SVGID_6_" gradientUnits="userSpaceOnUse" x1="142.0459" y1="62.5137" x2="143.2354" y2="62.5137" gradientTransform="matrix(0.9999 -0.0166 0.0166 0.9999 -61.8602 26.7754)">
				<stop  offset="0" style="stop-color:#5F5D5C"/>
				<stop  offset="1" style="stop-color:#181500"/>
			</linearGradient>
			<path fill="url(#SVGID_6_)" d="M81.799,78.94c-0.264,0.001-0.477,0.215-0.475,0.477l0.01,14.999c0,0.262,0.212,0.477,0.477,0.475
				c0.264-0.001,0.476-0.214,0.476-0.477l-0.012-14.997C82.275,79.154,82.063,78.94,81.799,78.94"/>
			
				<linearGradient id="SVGID_7_" gradientUnits="userSpaceOnUse" x1="140.6533" y1="69.7734" x2="143.9141" y2="69.7734" gradientTransform="matrix(0.9999 -0.0166 0.0166 0.9999 -61.8602 26.7754)">
				<stop  offset="0" style="stop-color:#5F5D5C"/>
				<stop  offset="1" style="stop-color:#181500"/>
			</linearGradient>
			<path fill="url(#SVGID_7_)" d="M83.198,94.153c-0.016-0.898-0.757-1.618-1.658-1.604c-0.899,0.016-1.616,0.759-1.602,1.658
				s0.755,1.618,1.656,1.604C82.497,95.796,83.213,95.053,83.198,94.153"/>
		</g>
	</g>
</g>
</svg>
