<?xml version="1.0" encoding="utf-8"?>
<!-- Generator: Adobe Illustrator 13.0.0, SVG Export Plug-In . SVG Version: 6.00 Build 14948)  -->
<!DOCTYPE svg PUBLIC "-//W3C//DTD SVG 1.1//EN" "http://www.w3.org/Graphics/SVG/1.1/DTD/svg11.dtd">
<svg version="1.1" id="Layer_1" xmlns="http://www.w3.org/2000/svg" xmlns:xlink="http://www.w3.org/1999/xlink" x="0px" y="0px"
	 width="128px" height="128px" viewBox="0 0 128 128" enable-background="new 0 0 128 128" xml:space="preserve">
<g>
	<path d="M29.12,51.534h68.967c8.16,0,14.774,6.621,14.774,14.786v16.232c0,8.164-6.614,14.785-14.774,14.785H29.12
		c-8.16,0-14.775-6.621-14.775-14.785V66.32C14.345,58.155,20.96,51.534,29.12,51.534L29.12,51.534z"/>
	<g>
		
			<radialGradient id="SVGID_1_" cx="-226.0664" cy="106.5098" r="30.1646" gradientTransform="matrix(1 0 0 -1 289.2754 151.834)" gradientUnits="userSpaceOnUse">
			<stop  offset="0" style="stop-color:#FAFAFA"/>
			<stop  offset="0.3109" style="stop-color:#F4F4F4"/>
			<stop  offset="0.7262" style="stop-color:#E3E3E3"/>
			<stop  offset="1" style="stop-color:#D4D4D4"/>
		</radialGradient>
		<path fill="url(#SVGID_1_)" stroke="#B3B3B3" d="M96.927,33.245v38.211H29.491V33.245c0-7.762,6.295-14.053,14.062-14.053h39.311
			C90.63,19.192,96.927,25.483,96.927,33.245L96.927,33.245z"/>
		<path fill="#FFFFFF" d="M33.509,29.472c2.336-3.74,6.478-6.891,11.215-6.891h36.971c4.736,0,8.879,3.15,11.215,6.891h0.945
			c-2.021-4.715-6.703-8.018-12.16-8.018H44.724c-5.459,0-10.141,3.303-12.161,8.018H33.509z"/>
	</g>
	<g>
		
			<radialGradient id="SVGID_2_" cx="-257.856" cy="127.2852" r="22.0703" gradientTransform="matrix(1 0 0 -1 289.2754 151.834)" gradientUnits="userSpaceOnUse">
			<stop  offset="0" style="stop-color:#FAFAFA"/>
			<stop  offset="0.4142" style="stop-color:#E3E3E3"/>
			<stop  offset="1" style="stop-color:#C7C7C7"/>
		</radialGradient>
		<path fill="url(#SVGID_2_)" stroke="#B3B3B3" d="M9.357,24.55c0-12.195,9.878-22.08,22.063-22.08s22.062,9.885,22.062,22.08
			c0,12.191-9.878,22.076-22.062,22.076C19.235,46.626,9.357,36.741,9.357,24.55L9.357,24.55z"/>
		
			<linearGradient id="SVGID_3_" gradientUnits="userSpaceOnUse" x1="-265.3687" y1="139.6426" x2="-265.3687" y2="123.0488" gradientTransform="matrix(1 0 0 -1 289.2754 151.834)">
			<stop  offset="0" style="stop-color:#32AECE"/>
			<stop  offset="1" style="stop-color:#094E86"/>
		</linearGradient>
		<path fill="url(#SVGID_3_)" d="M15.614,20.491c0-4.582,3.714-8.299,8.292-8.299c4.579,0,8.292,3.717,8.292,8.299
			c0,4.582-3.713,8.295-8.292,8.295C19.328,28.786,15.614,25.073,15.614,20.491L15.614,20.491z"/>
		<path opacity="0.5" fill="#094763" enable-background="new    " d="M23.638,20.294c2.284,1.91,5.373,0.861,7.297-0.137
			c-0.283-3.838-3.483-6.865-7.393-6.865c-3.926,0-7.137,3.051-7.396,6.912C17.927,19.331,21.181,18.237,23.638,20.294z"/>
		<path fill="#F2F2F2" d="M14.716,13.116C18.4,8.058,25.175,4.183,31.509,4.183c6.331,0,12.932,3.875,16.615,8.934h0.701
			c-3.905-5.955-10.242-9.85-17.404-9.85c-7.164,0-13.5,3.895-17.404,9.85L14.716,13.116L14.716,13.116z"/>
	</g>
	
		<linearGradient id="SVGID_4_" gradientUnits="userSpaceOnUse" x1="-225.2754" y1="92.707" x2="-225.2754" y2="34.832" gradientTransform="matrix(1 0 0 -1 289.2754 151.834)">
		<stop  offset="0" style="stop-color:#D5D7D8"/>
		<stop  offset="1" style="stop-color:#5C5F61"/>
	</linearGradient>
	<path fill="url(#SVGID_4_)" d="M20.425,59.128h87.148c10.311,0,18.67,8.362,18.67,18.683v20.51c0,10.318-8.359,18.682-18.67,18.682
		H20.425c-10.311,0-18.668-8.363-18.668-18.682v-20.51C1.757,67.49,10.114,59.128,20.425,59.128L20.425,59.128z"/>
	
		<linearGradient id="SVGID_5_" gradientUnits="userSpaceOnUse" x1="-225.2759" y1="60.605" x2="-225.2759" y2="36.9429" gradientTransform="matrix(1 0 0 -1 289.2754 151.834)">
		<stop  offset="0" style="stop-color:#5F5D5C"/>
		<stop  offset="1" style="stop-color:#181500"/>
	</linearGradient>
	<path fill="url(#SVGID_5_)" d="M37.694,91.229h52.611c6.225,0,11.271,5.051,11.271,11.279v12.383H26.423v-12.383
		C26.423,96.279,31.47,91.229,37.694,91.229L37.694,91.229z"/>
	<g>
		
			<linearGradient id="SVGID_6_" gradientUnits="userSpaceOnUse" x1="-272.5605" y1="80.2324" x2="-272.5605" y2="72.1094" gradientTransform="matrix(1 0 0 -1 289.2754 151.834)">
			<stop  offset="0" style="stop-color:#80E21B"/>
			<stop  offset="1" style="stop-color:#80B400"/>
		</linearGradient>
		<path fill="url(#SVGID_6_)" d="M12.655,75.663c0-2.242,1.816-4.062,4.059-4.062c2.243,0,4.061,1.819,4.061,4.062
			c0,2.243-1.818,4.062-4.061,4.062C14.471,79.725,12.655,77.906,12.655,75.663L12.655,75.663z"/>
	</g>
	<g>
		
			<linearGradient id="SVGID_7_" gradientUnits="userSpaceOnUse" x1="-272.5605" y1="69.043" x2="-272.5605" y2="60.9189" gradientTransform="matrix(1 0 0 -1 289.2754 151.834)">
			<stop  offset="0" style="stop-color:#E20A16"/>
			<stop  offset="1" style="stop-color:#B51015"/>
		</linearGradient>
		<path fill="url(#SVGID_7_)" d="M12.655,86.854c0-2.242,1.816-4.062,4.059-4.062c2.243,0,4.061,1.82,4.061,4.062
			c0,2.244-1.818,4.062-4.061,4.062C14.471,90.915,12.655,89.098,12.655,86.854L12.655,86.854z"/>
	</g>
	<path fill="#4D4D4D" d="M107.573,114.904H20.425c-10.311,0-18.668-8.362-18.668-18.682v2.596c0,10.318,8.357,18.683,18.668,18.683
		h87.148c10.311,0,18.67-8.362,18.67-18.683v-2.596C126.243,106.542,117.884,114.904,107.573,114.904z"/>
	<g>
		
			<linearGradient id="SVGID_8_" gradientUnits="userSpaceOnUse" x1="-225.2764" y1="87.6797" x2="-225.2764" y2="57.8359" gradientTransform="matrix(1 0 0 -1 289.2754 151.834)">
			<stop  offset="0" style="stop-color:#D5D7D8"/>
			<stop  offset="1" style="stop-color:#5C5F61"/>
		</linearGradient>
		<path opacity="0.5" fill="url(#SVGID_8_)" enable-background="new    " d="M105.264,64.155H22.735
			c-9.764,0-17.678,7.92-17.678,17.691v12.152c0-9.771,7.914-17.691,17.678-17.691h82.527c9.764,0,17.68,7.92,17.68,17.691v-12.15
			C122.941,72.075,115.025,64.155,105.264,64.155z"/>
		<path fill="#FFFFFF" d="M105.264,62.636H22.735c-9.764,0-17.678,7.92-17.678,17.691v1.688c0-9.771,7.914-17.69,17.678-17.69
			h82.527c9.764,0,17.68,7.92,17.68,17.69v-1.688C122.941,70.557,115.025,62.636,105.264,62.636z"/>
	</g>
</g>
</svg>
