<?xml version="1.0" encoding="utf-8"?>
<!-- Generator: Adobe Illustrator 13.0.0, SVG Export Plug-In . SVG Version: 6.00 Build 14948)  -->
<!DOCTYPE svg PUBLIC "-//W3C//DTD SVG 1.1//EN" "http://www.w3.org/Graphics/SVG/1.1/DTD/svg11.dtd">
<svg version="1.1" id="Layer_1" xmlns="http://www.w3.org/2000/svg" xmlns:xlink="http://www.w3.org/1999/xlink" x="0px" y="0px"
	 width="128px" height="128px" viewBox="0 0 128 128" enable-background="new 0 0 128 128" xml:space="preserve">
<g>
	<g>
		<g>
			<g>
				<linearGradient id="SVGID_1_" gradientUnits="userSpaceOnUse" x1="64.1655" y1="90.8018" x2="64.1655" y2="19.5044">
					<stop  offset="0" style="stop-color:#ECEEF0"/>
					<stop  offset="0.2485" style="stop-color:#E8E8E9"/>
					<stop  offset="0.5636" style="stop-color:#EEEFF2"/>
					<stop  offset="0.9212" style="stop-color:#D4D5D6"/>
				</linearGradient>
				<path fill="url(#SVGID_1_)" d="M96.865,25.788c-0.558-3.56-3.629-6.284-7.344-6.284H62.232c-3.646,0-6.675,2.625-7.312,6.089
					H33.672c-7.506,0-13.59,6.088-13.59,13.6v38.01c0,7.51,6.084,13.6,13.59,13.6h60.986c7.506,0,13.59-6.09,13.59-13.6v-38.01
					C108.248,32.435,103.319,26.845,96.865,25.788z"/>
			</g>
			<g>
				<path fill="none" stroke="#B3B3B3" d="M96.865,25.788c-0.558-3.56-3.629-6.284-7.344-6.284H62.232
					c-3.646,0-6.675,2.625-7.312,6.089H33.672c-7.506,0-13.59,6.088-13.59,13.6v38.01c0,7.51,6.084,13.6,13.59,13.6h60.986
					c7.506,0,13.59-6.09,13.59-13.6v-38.01C108.248,32.435,103.319,26.845,96.865,25.788z"/>
			</g>
		</g>
		<path opacity="0.75" fill="#F2F2F2" d="M57.59,22.964c0.844-1.266,2.088-2.07,3.475-2.07h29.73c1.385,0,2.627,0.805,3.473,2.07
			h0.588c-0.924-1.615-2.398-2.67-4.061-2.67h-29.73c-1.664,0-3.139,1.055-4.062,2.67H57.59z"/>
	</g>
	<linearGradient id="SVGID_2_" gradientUnits="userSpaceOnUse" x1="64" y1="36.958" x2="64" y2="118.499">
		<stop  offset="0" style="stop-color:#9A9A9A"/>
		<stop  offset="1" style="stop-color:#DEDEDE"/>
	</linearGradient>
	<path fill="url(#SVGID_2_)" d="M26.568,36.958h79.812c15.377,0,20.582,8.637,18.867,18.882l-9.738,47.437
		c-2.402,10.949-7.709,15.223-18.129,15.223h-66.68c-10.422,0-15.564-2.727-18.869-18.882l-9-43.777
		C0.77,45.386,6.809,36.958,21.701,36.958H26.568z"/>
	<path fill="#999999" d="M98.064,115.499H30.02c-8.578,0-13.65-1.816-17.062-11.168c3.338,11.982,8.434,14.168,17.744,14.168h66.68
		c9.906,0,15.184-3.875,17.746-13.66C112.219,112.415,106.98,115.499,98.064,115.499z"/>
	<path fill="#FFFFFF" d="M24.049,42.767h4.596h75.338c12.355,0,17.754,5.908,18.086,13.633c0.104-8.211-5.197-14.646-18.086-14.646
		H28.645h-4.596c-12.664,0-18.525,6.466-18.141,14.96l0.002-0.008C6.029,48.723,11.9,42.767,24.049,42.767z"/>
	<linearGradient id="SVGID_3_" gradientUnits="userSpaceOnUse" x1="64.0005" y1="65.7529" x2="64.0005" y2="42.7827">
		<stop  offset="0" style="stop-color:#999999"/>
		<stop  offset="1" style="stop-color:#CCCCCC"/>
	</linearGradient>
	<path fill="url(#SVGID_3_)" d="M7.301,65.658c2.408-4.782,7.938-7.927,16.771-7.927h4.594h75.338
		c9.127,0,14.455,3.225,16.754,8.021l1.057-5.146c1.619-9.672-3.295-17.824-17.811-17.824H28.666h-4.594
		c-14.059,0-19.758,7.955-17.811,17.824L7.301,65.658z"/>
</g>
</svg>
