<?xml version="1.0" encoding="utf-8"?>
<!-- Generator: Adobe Illustrator 13.0.0, SVG Export Plug-In . SVG Version: 6.00 Build 14948)  -->
<!DOCTYPE svg PUBLIC "-//W3C//DTD SVG 1.1//EN" "http://www.w3.org/Graphics/SVG/1.1/DTD/svg11.dtd">
<svg version="1.1" id="Layer_1" xmlns="http://www.w3.org/2000/svg" xmlns:xlink="http://www.w3.org/1999/xlink" x="0px" y="0px"
	 width="128px" height="128px" viewBox="0 0 128 128" enable-background="new 0 0 128 128" xml:space="preserve">
<g>
	<g>
		
			<linearGradient id="SVGID_1_" gradientUnits="userSpaceOnUse" x1="-9074.3027" y1="3717.3525" x2="-9074.3027" y2="3659.3359" gradientTransform="matrix(0.3308 -0.346 -0.3461 -0.3305 4354.2202 -1842.9312)">
			<stop  offset="0" style="stop-color:#FFD207"/>
			<stop  offset="1" style="stop-color:#FAA61A"/>
		</linearGradient>
		<path fill="url(#SVGID_1_)" d="M88.339,42.994L40.048,93.5c0.459,0.446,1.856,1.963,2.254,4.147
			c2.353-0.19,4.978,0.612,5.613,1.207c2.26,2.165,1.544,5.828,1.544,5.828s4.164-0.484,6.186,1.65
			c0.534,0.562,1.301,2.597,1.626,4.802c1.707-0.04,3.441,2.02,3.824,2.507l48.308-50.528c0.848-0.884,0.818-2.287-0.067-3.132
			c0,0-1.986-4.331-8.209-10.274c-6.223-5.938-9.655-6.783-9.655-6.783C90.587,42.077,89.185,42.108,88.339,42.994z"/>
		
			<linearGradient id="SVGID_2_" gradientUnits="userSpaceOnUse" x1="-8975.2715" y1="3689.0332" x2="-8974.8623" y2="3711.5046" gradientTransform="matrix(0.3308 -0.346 -0.3461 -0.3305 4354.2202 -1842.9312)">
			<stop  offset="0" style="stop-color:#F66B87"/>
			<stop  offset="1" style="stop-color:#FCD0D9"/>
		</linearGradient>
		<path fill="url(#SVGID_2_)" d="M101.446,29.281L91.002,40.205c0.228,0.225,6.521,4.049,11.693,8.984
			c5.136,4.904,9.161,10.915,9.354,11.156L122.513,49.4c2.706-2.828-1.515-8.033-7.737-13.973
			C108.554,29.486,103.61,27.02,101.446,29.281z"/>
		
			<linearGradient id="SVGID_3_" gradientUnits="userSpaceOnUse" x1="-9161.8975" y1="3710.0469" x2="-9156.8564" y2="3688.2007" gradientTransform="matrix(0.3308 -0.346 -0.3461 -0.3305 4354.2202 -1842.9312)">
			<stop  offset="0" style="stop-color:#FAEDB0"/>
			<stop  offset="1" style="stop-color:#FFC76E"/>
		</linearGradient>
		<path fill="url(#SVGID_3_)" d="M61.177,113.744c0,0-0.033-0.038-0.082-0.103l-0.17,0.172L61.177,113.744z"/>
		
			<linearGradient id="SVGID_4_" gradientUnits="userSpaceOnUse" x1="-9148.2402" y1="3711.7646" x2="-9143.3711" y2="3690.6648" gradientTransform="matrix(0.3308 -0.346 -0.3461 -0.3305 4354.2202 -1842.9312)">
			<stop  offset="0" style="stop-color:#FAEDB0"/>
			<stop  offset="1" style="stop-color:#FFC76E"/>
		</linearGradient>
		<path fill="url(#SVGID_4_)" d="M39.903,93.355l-0.095,0.396l0.238-0.252C39.96,93.406,39.903,93.355,39.903,93.355z"/>
		<path fill="#F6921E" d="M57.271,111.135c-0.325-2.205-1.091-4.244-1.626-4.802c-2.021-2.135-6.183-1.653-6.183-1.653
			s0.716-3.66-1.547-5.826c-0.634-0.596-3.257-1.398-5.611-1.206c-0.396-2.183-1.797-3.703-2.254-4.148l-0.238,0.25l-0.996,4.05
			c0.028,0.036,0.052,0.075,0.083,0.104l17.86,17.064c0.02,0.017,0.04,0.022,0.059,0.038l4.108-1.197l0.173-0.172
			C60.714,113.154,58.981,111.092,57.271,111.135z"/>
		
			<linearGradient id="SVGID_5_" gradientUnits="userSpaceOnUse" x1="-9166.7412" y1="3706.792" x2="-9164.1182" y2="3688.4363" gradientTransform="matrix(0.3308 -0.346 -0.3461 -0.3305 4354.2202 -1842.9312)">
			<stop  offset="0" style="stop-color:#FAEDB0"/>
			<stop  offset="1" style="stop-color:#FFC76E"/>
		</linearGradient>
		<path fill="url(#SVGID_5_)" d="M49.459,104.683c0,0,0.716-3.663-1.544-5.828c-0.636-0.595-3.261-1.397-5.613-1.207
			c-0.397-2.182-1.795-3.701-2.254-4.147l-0.238,0.252l-0.997,4.049l-2.431,9.861l-0.702,2.842l4.266,4.088l4.265,4.073l2.811-0.813
			l9.793-2.849l4.112-1.2l0.173-0.171c-0.385-0.487-2.117-2.549-3.83-2.507c-0.326-2.204-1.092-4.24-1.627-4.799
			C53.623,104.198,49.459,104.683,49.459,104.683z"/>
		
			<linearGradient id="SVGID_6_" gradientUnits="userSpaceOnUse" x1="-9191.1582" y1="3691.1855" x2="-9194.4248" y2="3702.2107" gradientTransform="matrix(0.3308 -0.346 -0.3461 -0.3305 4354.2202 -1842.9312)">
			<stop  offset="0" style="stop-color:#231F20"/>
			<stop  offset="1" style="stop-color:#FFFFFF"/>
		</linearGradient>
		<polygon fill="url(#SVGID_6_)" points="35.69,110.527 32.892,121.99 44.217,118.677 44.212,118.67 39.945,114.595 		"/>
		
			<linearGradient id="SVGID_7_" gradientUnits="userSpaceOnUse" x1="-8613.4053" y1="-2916.9795" x2="-8629.7734" y2="-2903.1089" gradientTransform="matrix(0.4786 -0.011 -0.0108 -0.4784 4194.1494 -1433.9998)">
			<stop  offset="0" style="stop-color:#808080"/>
			<stop  offset="1" style="stop-color:#F2F2F2"/>
		</linearGradient>
		<path fill="url(#SVGID_7_)" d="M91.091,40.021l-5.797,6.152c0.234,0.223,5.868,3.604,11.047,8.542
			c5.131,4.901,9.806,11.368,10.012,11.587l5.804-6.158c0.388-0.411-3.542-5.916-9.763-11.861
			C96.176,42.343,91.478,39.611,91.091,40.021z"/>
		<g opacity="0.6">
			<path fill="#FFF8A2" d="M103.246,30.653L43.198,93.547c0.293,0.561,0.551,1.213,0.684,1.948c0.98-0.077,1.998,0.029,2.896,0.217
				l60.199-63.052C104.128,30.198,103.171,30.604,103.246,30.653z"/>
		</g>
		
			<linearGradient id="SVGID_8_" gradientUnits="userSpaceOnUse" x1="-2267.7051" y1="-261.6616" x2="-2267.7051" y2="-261.6616" gradientTransform="matrix(0.9576 -0.2881 0.2881 0.9576 2288.9893 -309.3038)">
			<stop  offset="0" style="stop-color:#DEDEDE"/>
			<stop  offset="1" style="stop-color:#FEFEFE"/>
		</linearGradient>
		<path fill="url(#SVGID_8_)" stroke="#181512" stroke-width="1.0006" stroke-miterlimit="3.8637" d="M42.05,93.455"/>
		<g opacity="0.6">
			<path fill="#FFF8A2" d="M43.186,99.666l-0.009-0.006c-0.753-0.109-1.552-0.163-2.326-0.099c-0.139-0.755-0.399-1.425-0.696-2.002
				l-0.118-0.084l-6.06,22.489L43.186,99.666z"/>
		</g>
	</g>
	<g>
		<g>
			<path fill="none" d="M48.798,13.021c-1.646-2.015-4.395-2.746-6.773-3.295C33.419,7.71,22.981,6.979,15.11,11.739
				c-4.396,2.931-8.057,8.058-7.873,13.55c0.183,6.226,5.676,8.972,10.802,10.803c7.873,3.112,26.549,2.746,28.746,12.999
				c1.831,8.239-5.31,17.943-9.521,23.984c-9.705,13.731-19.774,27.099-27.647,42.11"/>
			<path d="M51.124,10.188C46.28,5.36,37.608,4.886,31.142,4.737C23.603,4.565,15.458,6.794,10.36,12.64
				c-4.204,4.82-8.174,12.998-4.545,19.264c3.115,5.383,9.561,7.535,15.311,8.873c5.966,1.391,12.137,1.961,17.729,4.627
				c8.785,4.189,4.864,13.436,0.951,19.887C29.681,81.982,16.88,96.729,7.667,114.061c-2.131,4.01,1.74,6.309,3.896,2.25
				c8.356-15.724,19.162-29.793,29.246-44.404c5.812-8.419,14.451-22.91,4.328-31.417c-8.351-7.012-21.668-4.812-30.979-10.311
				c-3.994-2.359-5.207-6.703-3.134-10.857c2.281-4.565,7.356-6.367,12.013-7.295c6.176-1.229,18.638-0.951,23.435,3.828
				C48.933,18.304,53.138,12.192,51.124,10.188L51.124,10.188z"/>
		</g>
	</g>
</g>
</svg>
