<?xml version="1.0" encoding="utf-8"?>
<!-- Generator: Adobe Illustrator 13.0.0, SVG Export Plug-In . SVG Version: 6.00 Build 14948)  -->
<!DOCTYPE svg PUBLIC "-//W3C//DTD SVG 1.1//EN" "http://www.w3.org/Graphics/SVG/1.1/DTD/svg11.dtd">
<svg version="1.1" id="Layer_1" xmlns="http://www.w3.org/2000/svg" xmlns:xlink="http://www.w3.org/1999/xlink" x="0px" y="0px"
	 width="128px" height="128px" viewBox="0 0 128 128" enable-background="new 0 0 128 128" xml:space="preserve">
<g>
	<g>
		
			<radialGradient id="SVGID_1_" cx="-213.4492" cy="91.5469" r="50.4786" gradientTransform="matrix(1 0 0 -1 289.2754 151.834)" gradientUnits="userSpaceOnUse">
			<stop  offset="0" style="stop-color:#FAFAFA"/>
			<stop  offset="0.3109" style="stop-color:#F4F4F4"/>
			<stop  offset="0.7262" style="stop-color:#E3E3E3"/>
			<stop  offset="1" style="stop-color:#D4D4D4"/>
		</radialGradient>
		<path fill="url(#SVGID_1_)" stroke="#B3B3B3" stroke-width="1.8" d="M118.275,20.583v79.406c0,9.771-7.928,17.693-17.705,17.693
			H51.082c-9.78,0-17.705-7.922-17.705-17.693V20.583c0-9.771,7.925-17.691,17.705-17.691h49.488
			C110.35,2.892,118.275,10.813,118.275,20.583L118.275,20.583z"/>
		<path fill="#B3B3B3" d="M100.756,115.474H51.267c-9.78,0-17.705-7.922-17.705-17.693v2.209c0,9.771,7.925,17.693,17.705,17.693
			h49.489c9.778,0,17.705-7.922,17.705-17.693V97.78C118.461,107.552,110.534,115.474,100.756,115.474z"/>
		<path fill="#FFFFFF" d="M43.985,10.479c1.975-1.648,4.21-2.761,7.281-2.761h49.489c3.072,0,5.308,1.111,7.283,2.761h2.497
			c-2.49-2.515-5.516-4.027-9.78-4.027H51.267c-4.265,0-7.289,1.514-9.779,4.027H43.985z"/>
	</g>
	<g>
		
			<radialGradient id="SVGID_2_" cx="-245.0996" cy="76.0586" r="42.5086" gradientTransform="matrix(1 0 0 -1 289.2754 151.834)" gradientUnits="userSpaceOnUse">
			<stop  offset="0" style="stop-color:#FAFAFA"/>
			<stop  offset="0.3109" style="stop-color:#F4F4F4"/>
			<stop  offset="0.7262" style="stop-color:#E3E3E3"/>
			<stop  offset="1" style="stop-color:#D4D4D4"/>
		</radialGradient>
		<path fill="url(#SVGID_2_)" stroke="#B3B3B3" stroke-width="1.5" d="M79.922,42.34v66.868c0,8.229-6.676,14.9-14.91,14.9H23.338
			c-8.236,0-14.909-6.672-14.909-14.9V42.34c0-8.228,6.673-14.898,14.909-14.898h41.674C73.246,27.441,79.922,34.113,79.922,42.34
			L79.922,42.34z"/>
		<path fill="#B3B3B3" d="M65.168,122.249H23.493c-8.235,0-14.909-6.672-14.909-14.902v1.861c0,8.229,6.674,14.9,14.909,14.9h41.675
			c8.234,0,14.91-6.672,14.91-14.9v-1.861C80.078,115.577,73.402,122.249,65.168,122.249z"/>
		<path fill="#FFFFFF" d="M17.361,33.832c1.663-1.388,3.545-2.324,6.132-2.324h41.675c2.588,0,4.469,0.938,6.133,2.324h2.104
			c-2.096-2.117-4.644-3.392-8.235-3.392H23.493c-3.591,0-6.138,1.273-8.235,3.392H17.361z"/>
	</g>
</g>
</svg>
