<?xml version="1.0" encoding="utf-8"?>
<!-- Generator: Adobe Illustrator 13.0.0, SVG Export Plug-In . SVG Version: 6.00 Build 14948)  -->
<!DOCTYPE svg PUBLIC "-//W3C//DTD SVG 1.1//EN" "http://www.w3.org/Graphics/SVG/1.1/DTD/svg11.dtd">
<svg version="1.1" id="Layer_1" xmlns="http://www.w3.org/2000/svg" xmlns:xlink="http://www.w3.org/1999/xlink" x="0px" y="0px"
	 width="128px" height="128px" viewBox="0 0 128 128" enable-background="new 0 0 128 128" xml:space="preserve">
<g>
	<g>
		<g>
			<path fill="#F2F2F2" stroke="#B3B3B3" stroke-width="2" d="M109.502,16.77H18.5c-9.342,0-16.914,7.572-16.914,16.91v67.379
				c0,9.342,7.572,16.914,16.914,16.914h91.002c9.34,0,16.912-7.572,16.912-16.914V33.68
				C126.414,24.342,118.842,16.77,109.502,16.77z"/>
			<linearGradient id="SVGID_1_" gradientUnits="userSpaceOnUse" x1="63.9351" y1="118.8604" x2="63.9351" y2="52.3595">
				<stop  offset="0.0934" style="stop-color:#D1D1D1"/>
				<stop  offset="0.431" style="stop-color:#D9D9D9"/>
				<stop  offset="0.9519" style="stop-color:#EFEFEF"/>
				<stop  offset="0.9725" style="stop-color:#F0F0F0"/>
			</linearGradient>
			<path fill="url(#SVGID_1_)" d="M38.496,82.25c-12.658,0-24.773-1.07-35.959-3.022v22.106c0,9.189,7.447,16.639,16.637,16.639
				h89.521c9.188,0,16.637-7.449,16.637-16.639V59.823C107.314,73.284,75.166,82.25,38.496,82.25z"/>
			<linearGradient id="SVGID_2_" gradientUnits="userSpaceOnUse" x1="64.1597" y1="45.8682" x2="64.1597" y2="13.9716">
				<stop  offset="0" style="stop-color:#80E21B"/>
				<stop  offset="1" style="stop-color:#80B400"/>
			</linearGradient>
			<path fill="url(#SVGID_2_)" d="M125.838,45.442V34.264c0-9.229-7.482-16.712-16.713-16.712h-89.93
				c-9.232,0-16.715,7.483-16.715,16.713v11.178H125.838z"/>
			<path opacity="0.5" fill="#FFFFFF" d="M109.102,17.552h-89.91c-9.23,0-16.711,7.481-16.711,16.707v4.94
				c0-9.227,7.48-16.708,16.711-16.708h89.91c9.227,0,16.709,7.481,16.709,16.708v-4.94
				C125.811,25.033,118.328,17.552,109.102,17.552z"/>
		</g>
		<path fill="#B3B3B3" d="M108.934,114.956l-89.744,0.001c-9.211,0-16.678-7.469-16.678-16.681v3.288
			c0,9.213,7.467,16.68,16.678,16.68h89.744c9.209,0,16.676-7.467,16.676-16.68v-3.288
			C125.609,107.488,118.143,114.956,108.934,114.956z"/>
	</g>
	<g>
		
			<linearGradient id="SVGID_3_" gradientUnits="userSpaceOnUse" x1="-347.6533" y1="830.6875" x2="-294.5322" y2="830.6875" gradientTransform="matrix(1 0 0 1 412.6201 -813.9912)">
			<stop  offset="0" style="stop-color:#5F5D5C"/>
			<stop  offset="1" style="stop-color:#181500"/>
		</linearGradient>
		<path fill="url(#SVGID_3_)" d="M118.088,23.378c0,4.971-4.027,9-9,9H73.967c-4.972,0-9-4.029-9-9V10.015c0-4.971,4.028-9,9-9
			h35.121c4.971,0,9,4.029,9,9V23.378L118.088,23.378z"/>
		<g>
			<g>
				<g>
					<path fill="#FFFFFF" d="M76.237,26.169h-0.159V7.224h0.159c0.722,0,1.306-0.481,1.306-1.08c0-0.596-0.584-1.08-1.306-1.08
						h-2.86c-0.721,0-1.306,0.484-1.306,1.08c0,0.599,0.585,1.08,1.306,1.08h0.242v18.945h-0.242c-0.721,0-1.306,0.482-1.306,1.079
						c0,0.599,0.585,1.08,1.306,1.08h2.86c0.722,0,1.306-0.481,1.306-1.08C77.543,26.652,76.959,26.169,76.237,26.169z"/>
				</g>
			</g>
		</g>
	</g>
	<g>
		<polygon points="10.606,52.474 117.452,52.474 117.452,56.946 10.606,56.946 		"/>
		<polygon points="10.606,71.727 117.452,71.727 117.452,76.197 10.606,76.197 		"/>
		<polygon points="10.606,62.099 88.854,62.099 88.854,66.572 10.606,66.572 		"/>
		<polygon points="10.606,90.977 117.452,90.977 117.452,95.449 10.606,95.449 		"/>
		<polygon points="10.606,81.352 88.854,81.352 88.854,85.822 10.606,85.822 		"/>
		<polygon points="10.606,100.602 88.854,100.602 88.854,105.074 10.606,105.074 		"/>
	</g>
</g>
</svg>
