<?xml version="1.0" encoding="utf-8"?>
<!-- Generator: Adobe Illustrator 13.0.0, SVG Export Plug-In . SVG Version: 6.00 Build 14948)  -->
<!DOCTYPE svg PUBLIC "-//W3C//DTD SVG 1.1//EN" "http://www.w3.org/Graphics/SVG/1.1/DTD/svg11.dtd">
<svg version="1.1" id="Layer_1" xmlns="http://www.w3.org/2000/svg" xmlns:xlink="http://www.w3.org/1999/xlink" x="0px" y="0px"
	 width="128px" height="128px" viewBox="0 0 128 128" enable-background="new 0 0 128 128" xml:space="preserve">
<g>
	<linearGradient id="SVGID_1_" gradientUnits="userSpaceOnUse" x1="63.9995" y1="21.834" x2="63.9995" y2="106.1665">
		<stop  offset="0" style="stop-color:#99DBF6"/>
		<stop  offset="1" style="stop-color:#00B2DE"/>
	</linearGradient>
	<path fill="url(#SVGID_1_)" d="M111.322,21.834H48.988c-0.808,0-1.592,0.093-2.35,0.258c-1.795,0.218-3.534,1.009-4.912,2.387
		L8.133,58.072c-3.274,3.273-3.273,8.582,0,11.855l33.594,33.596c1.381,1.38,3.123,2.171,4.922,2.388
		c0.755,0.163,1.536,0.255,2.34,0.255h62.334c6.074,0,11-4.924,11-11V32.834C122.322,26.758,117.396,21.834,111.322,21.834z"/>
	<g>
		
			<linearGradient id="SVGID_2_" gradientUnits="userSpaceOnUse" x1="-363.1279" y1="878.9922" x2="-310.0068" y2="878.9922" gradientTransform="matrix(1 0 0 1 412.6201 -813.9912)">
			<stop  offset="0" style="stop-color:#5F5D5C"/>
			<stop  offset="1" style="stop-color:#181500"/>
		</linearGradient>
		<path fill="url(#SVGID_2_)" d="M102.613,71.682c0,4.971-4.027,9-9,9H58.492c-4.972,0-9-4.029-9-9V58.318c0-4.971,4.028-9,9-9
			h35.121c4.971,0,9,4.029,9,9V71.682L102.613,71.682z"/>
		<g>
			<g>
				<g>
					<path fill="#FFFFFF" d="M60.763,74.473h-0.159V55.527h0.159c0.722,0,1.306-0.481,1.306-1.08c0-0.596-0.584-1.08-1.306-1.08
						h-2.86c-0.721,0-1.306,0.484-1.306,1.08c0,0.599,0.585,1.08,1.306,1.08h0.242v18.945h-0.242c-0.721,0-1.306,0.482-1.306,1.079
						c0,0.599,0.585,1.08,1.306,1.08h2.86c0.722,0,1.306-0.481,1.306-1.08C62.068,74.956,61.484,74.473,60.763,74.473z"/>
				</g>
			</g>
		</g>
	</g>
	<path opacity="0.3" fill="#FFFFFF" d="M42.9,27.521c1.314-1.313,2.976-2.067,4.688-2.274c0.718-0.156,1.463-0.242,2.229-0.242
		h59.358c5.786,0,10.476,4.689,10.476,10.476v25.988c-13.233,6.829-31.114,12.344-51.484,12.344
		c-23.933,0-44.519-3.965-57.818-12.993c0.39-0.952-0.212-0.532,0.561-1.305L42.9,27.521z"/>
</g>
</svg>
