<?xml version="1.0" encoding="utf-8"?>
<!-- Generator: Adobe Illustrator 13.0.0, SVG Export Plug-In . SVG Version: 6.00 Build 14948)  -->
<!DOCTYPE svg PUBLIC "-//W3C//DTD SVG 1.1//EN" "http://www.w3.org/Graphics/SVG/1.1/DTD/svg11.dtd">
<svg version="1.1" id="Layer_1" xmlns="http://www.w3.org/2000/svg" xmlns:xlink="http://www.w3.org/1999/xlink" x="0px" y="0px"
	 width="128px" height="128px" viewBox="0 0 128 128" enable-background="new 0 0 128 128" xml:space="preserve">
<g>
	<g>
		<g>
			
				<linearGradient id="SVGID_1_" gradientUnits="userSpaceOnUse" x1="-411.127" y1="863.9736" x2="-286.8379" y2="863.9736" gradientTransform="matrix(1 0 0 1 412.6201 -813.9912)">
				<stop  offset="0" style="stop-color:#5F5D5C"/>
				<stop  offset="1" style="stop-color:#181500"/>
			</linearGradient>
			<path fill="url(#SVGID_1_)" d="M125.782,65.615c0,11.63-9.423,21.058-21.058,21.058H22.551c-11.633,0-21.058-9.428-21.058-21.058
				V34.349c0-11.631,9.425-21.058,21.058-21.058h82.174c11.631,0,21.058,9.427,21.058,21.058V65.615L125.782,65.615z"/>
			<g>
				<g>
					<g>
						<path fill="#FFFFFF" d="M27.863,72.146H27.49V27.818h0.373c1.688,0,3.055-1.126,3.055-2.526c0-1.395-1.366-2.527-3.055-2.527
							h-6.692c-1.687,0-3.056,1.133-3.056,2.527c0,1.4,1.369,2.526,3.056,2.526h0.566v44.327h-0.566
							c-1.687,0-3.056,1.129-3.056,2.524c0,1.401,1.369,2.527,3.056,2.527h6.692c1.688,0,3.055-1.126,3.055-2.527
							C30.918,73.276,29.552,72.146,27.863,72.146z"/>
					</g>
				</g>
			</g>
		</g>
		<g>
			
				<linearGradient id="SVGID_2_" gradientUnits="userSpaceOnUse" x1="46.2559" y1="-867.6689" x2="99.2664" y2="-837.4625" gradientTransform="matrix(0.9078 -0.0051 -0.0051 -0.9079 -5.0056 -717.3772)">
				<stop  offset="0" style="stop-color:#F1F1F1"/>
				<stop  offset="0.2485" style="stop-color:#DDDDDE"/>
				<stop  offset="0.5636" style="stop-color:#E3E4E7"/>
				<stop  offset="0.9212" style="stop-color:#B5B6B7"/>
			</linearGradient>
			<path fill="url(#SVGID_2_)" stroke="#999999" stroke-miterlimit="3.8637" d="M45.934,75.992
				c-10.877-10.76-10.977-28.297-0.227-39.176C56.456,25.94,73.986,25.842,84.861,36.6C95.736,47.36,95.84,64.897,85.088,75.773
				C74.338,86.649,56.811,86.751,45.934,75.992L45.934,75.992z"/>
			
				<linearGradient id="SVGID_3_" gradientUnits="userSpaceOnUse" x1="100.9648" y1="-852.7324" x2="44.5658" y2="-852.4155" gradientTransform="matrix(0.9078 -0.0051 -0.0051 -0.9079 -5.0056 -717.3772)">
				<stop  offset="0" style="stop-color:#F1F1F1"/>
				<stop  offset="0.2485" style="stop-color:#DDDDDE"/>
				<stop  offset="0.5636" style="stop-color:#E3E4E7"/>
				<stop  offset="0.9212" style="stop-color:#B5B6B7"/>
			</linearGradient>
			<path fill="url(#SVGID_3_)" d="M47.4,74.507c-10.057-9.947-10.15-26.162-0.209-36.223c9.938-10.055,26.146-10.146,36.203-0.199
				c10.054,9.949,10.149,26.163,0.207,36.221C73.664,84.362,57.457,84.455,47.4,74.507L47.4,74.507z"/>
			
				<linearGradient id="SVGID_4_" gradientUnits="userSpaceOnUse" x1="72.6152" y1="-878.9131" x2="72.9113" y2="-826.2181" gradientTransform="matrix(0.9078 -0.0051 -0.0051 -0.9079 -5.0056 -717.3772)">
				<stop  offset="0" style="stop-color:#5081B2"/>
				<stop  offset="0.1178" style="stop-color:#477DAF"/>
				<stop  offset="0.3137" style="stop-color:#2D74A8"/>
				<stop  offset="0.5621" style="stop-color:#04659C"/>
				<stop  offset="0.5843" style="stop-color:#00639B"/>
				<stop  offset="1" style="stop-color:#004E8C"/>
			</linearGradient>
			<path fill="url(#SVGID_4_)" d="M48.589,73.304c-9.394-9.291-9.479-24.434-0.194-33.828c9.281-9.395,24.418-9.479,33.811-0.188
				c9.392,9.292,9.48,24.437,0.197,33.829C73.117,82.509,57.982,82.597,48.589,73.304L48.589,73.304z"/>
			
				<linearGradient id="SVGID_5_" gradientUnits="userSpaceOnUse" x1="103.0352" y1="-902.1597" x2="119.5014" y2="-882.7605" gradientTransform="matrix(0.9078 -0.0051 -0.0051 -0.9079 -5.0056 -717.3772)">
				<stop  offset="0" style="stop-color:#F1F1F1"/>
				<stop  offset="0.2485" style="stop-color:#DDDDDE"/>
				<stop  offset="0.5636" style="stop-color:#E3E4E7"/>
				<stop  offset="0.9212" style="stop-color:#B5B6B7"/>
			</linearGradient>
			<path fill="url(#SVGID_5_)" stroke="#999999" stroke-miterlimit="3.8637" d="M90.203,68.554l28.075,24.97
				c4.433,4.387,3.805,12.216,0.461,15.595l-0.381,0.383c-3.342,3.379-11.156,4.1-15.589-0.285L77.602,81.168
				c2.901-1.827,4.986-2.926,7.201-5.167C87.022,73.76,88.65,71.549,90.203,68.554L90.203,68.554z"/>
			<path opacity="0.5" fill="#094763" d="M65.711,54.514c7.306,6.104,17.188,2.752,23.336-0.439
				C88.142,41.8,77.906,32.116,65.404,32.116c-12.553,0-22.824,9.758-23.651,22.109C47.446,51.433,57.853,47.935,65.711,54.514z"/>
			<path fill="#B3B3B3" d="M120.656,97.136c0.593,4.006-0.546,8.176-2.827,10.481l-0.424,0.427c-2.831,2.863-8.55,4.004-13.296,2.23
				c4.529,3.166,11.263,2.308,14.301-0.767l0.381-0.384C121.341,106.548,122.303,101.39,120.656,97.136z"/>
		</g>
	</g>
	<path opacity="0.3" fill="#FFFFFF" d="M102.719,15.952H24.557c-11.064,0-20.029,8.967-20.029,20.029v3.987
		c0-11.062,8.965-20.029,20.029-20.029h78.162c11.062,0,20.029,8.967,20.029,20.029v-3.987
		C122.748,24.919,113.781,15.952,102.719,15.952z"/>
</g>
</svg>
