<?xml version="1.0" encoding="utf-8"?>
<!-- Generator: Adobe Illustrator 13.0.0, SVG Export Plug-In . SVG Version: 6.00 Build 14948)  -->
<!DOCTYPE svg PUBLIC "-//W3C//DTD SVG 1.1//EN" "http://www.w3.org/Graphics/SVG/1.1/DTD/svg11.dtd">
<svg version="1.1" id="Layer_1" xmlns="http://www.w3.org/2000/svg" xmlns:xlink="http://www.w3.org/1999/xlink" x="0px" y="0px"
	 width="128px" height="128px" viewBox="0 0 128 128" enable-background="new 0 0 128 128" xml:space="preserve">
<g>
	<g>
		
			<radialGradient id="SVGID_1_" cx="63.3481" cy="63.1387" r="53.1356" gradientTransform="matrix(1 0 0 1 0 -9.765625e-04)" gradientUnits="userSpaceOnUse">
			<stop  offset="0" style="stop-color:#FAFAFA"/>
			<stop  offset="0.3109" style="stop-color:#F4F4F4"/>
			<stop  offset="0.7262" style="stop-color:#E3E3E3"/>
			<stop  offset="1" style="stop-color:#D4D4D4"/>
		</radialGradient>
		<path fill="url(#SVGID_1_)" stroke="#B3B3B3" stroke-width="2" d="M108.031,21.344v83.585c0,10.285-8.344,18.625-18.637,18.625
			H37.302c-10.295,0-18.637-8.34-18.637-18.625V21.344c0-10.285,8.342-18.623,18.637-18.623h52.093
			C99.688,2.721,108.031,11.059,108.031,21.344L108.031,21.344z"/>
		<path fill="#B3B3B3" d="M89.59,121.229H37.496c-10.295,0-18.637-8.34-18.637-18.625v2.326c0,10.285,8.342,18.625,18.637,18.625
			H89.59c10.293,0,18.637-8.34,18.637-18.625v-2.326C108.227,112.889,99.883,121.229,89.59,121.229z"/>
		<path fill="#FFFFFF" d="M29.831,10.708c2.079-1.734,4.432-2.905,7.665-2.905H89.59c3.234,0,5.586,1.171,7.666,2.905h2.629
			C97.264,8.062,94.08,6.469,89.59,6.469H37.496c-4.489,0-7.673,1.593-10.294,4.238H29.831z"/>
	</g>
	<g>
		<g>
			
				<linearGradient id="SVGID_2_" gradientUnits="userSpaceOnUse" x1="-349.2124" y1="-477.4082" x2="-349.2124" y2="-534.6455" gradientTransform="matrix(1 0 0 -1 412.6577 -439.8887)">
				<stop  offset="0" style="stop-color:#E20A16"/>
				<stop  offset="1" style="stop-color:#B51015"/>
			</linearGradient>
			<path fill="url(#SVGID_2_)" d="M52.057,41.364L63.445,52.76l11.391-11.398c4.488-4.492,11.121-5.139,14.812-1.445
				s3.045,10.332-1.445,14.824L76.814,66.137l11.389,11.396c4.49,4.494,5.135,11.131,1.443,14.824
				c-3.691,3.695-10.322,3.047-14.812-1.445L63.445,79.516L52.057,90.912c-4.49,4.494-11.123,5.141-14.814,1.447
				c-3.691-3.695-3.045-10.332,1.445-14.824l11.389-11.398L38.689,54.741c-4.49-4.492-5.137-11.129-1.445-14.822
				C40.936,36.223,47.568,36.87,52.057,41.364L52.057,41.364z"/>
		</g>
		<g opacity="0.5">
			<path fill="#FFFFFF" d="M39.074,41.567c3.34-3.252,9.051-2.811,12.748,0.988l-1.041-1.07c-3.701-3.801-9.408-4.24-12.75-0.988
				c-3.34,3.254-3.045,8.971,0.654,12.77l1.041,1.07C36.027,50.538,35.732,44.821,39.074,41.567z"/>
		</g>
		<path opacity="0.5" fill="#FFFFFF" d="M65.02,54.2l-0.678-0.678L76.646,41.02c0,0,1.105-1,1.586-1.307
			c0.92-0.59,1.631-0.613,1.631-0.613L65.02,54.2z"/>
	</g>
</g>
</svg>
