<?xml version="1.0" encoding="utf-8"?>
<!-- Generator: Adobe Illustrator 13.0.0, SVG Export Plug-In . SVG Version: 6.00 Build 14948)  -->
<!DOCTYPE svg PUBLIC "-//W3C//DTD SVG 1.1//EN" "http://www.w3.org/Graphics/SVG/1.1/DTD/svg11.dtd">
<svg version="1.1" id="Layer_1" xmlns="http://www.w3.org/2000/svg" xmlns:xlink="http://www.w3.org/1999/xlink" x="0px" y="0px"
	 width="128px" height="128px" viewBox="0 0 128 128" enable-background="new 0 0 128 128" xml:space="preserve">
<g>
	<g>
		
			<linearGradient id="SVGID_1_" gradientUnits="userSpaceOnUse" x1="-321.0557" y1="861.0479" x2="-336.3844" y2="850.3146" gradientTransform="matrix(1 0 0 1 412.6201 -813.9912)">
			<stop  offset="0" style="stop-color:#FE9840"/>
			<stop  offset="1" style="stop-color:#FFBF00"/>
		</linearGradient>
		<path fill="url(#SVGID_1_)" d="M69.176,46.405c5.708-5.939,9.688-7.029,16.77-6.803c7.082,0.23,6.674-3.396,7.633-6.395
			c1.545-4.838,6.953-2.519,5.875,0.56c-1.06,3.021-2.773,8.547-7.994,9.231c-5.603,0.738-8.434-1.318-14.067,3.478
			c-2.55,2.169-3.196,9.351-3.196,9.351l-4.789-8.513"/>
		
			<radialGradient id="SVGID_2_" cx="-1782.3105" cy="-1683.5908" r="5.996" gradientTransform="matrix(0.7531 0.6579 -0.6579 0.7531 307.3271 2488.376)" gradientUnits="userSpaceOnUse">
			<stop  offset="0" style="stop-color:#5F5D5C"/>
			<stop  offset="1" style="stop-color:#181500"/>
		</radialGradient>
		<path fill="url(#SVGID_2_)" d="M78.289,52.766c-1.489,1.708-4.086,1.882-5.795,0.39L67.509,48.8
			c-1.708-1.491-1.884-4.086-0.392-5.797l0,0c1.494-1.709,4.088-1.883,5.799-0.389l4.983,4.354
			C79.609,48.46,79.783,51.056,78.289,52.766L78.289,52.766z"/>
		
			<radialGradient id="SVGID_3_" cx="-369.2578" cy="893.8506" r="41.6079" gradientTransform="matrix(1 0 0 1 412.6201 -813.9912)" gradientUnits="userSpaceOnUse">
			<stop  offset="0" style="stop-color:#5F5D5C"/>
			<stop  offset="1" style="stop-color:#181500"/>
		</radialGradient>
		<path fill="url(#SVGID_3_)" d="M84.97,79.861c0,22.977-18.63,41.605-41.608,41.605S1.755,102.838,1.755,79.861
			c0-22.981,18.628-41.61,41.606-41.61S84.97,56.88,84.97,79.861z"/>
		
			<linearGradient id="SVGID_4_" gradientUnits="userSpaceOnUse" x1="-545.7139" y1="-1191.3779" x2="-467.0757" y2="-1136.3151" gradientTransform="matrix(-0.9921 0.1258 -0.1258 -0.9921 -566.9821 -1066.1129)">
			<stop  offset="0" style="stop-color:#FBB318"/>
			<stop  offset="1" style="stop-color:#FFE600"/>
		</linearGradient>
		<path fill="url(#SVGID_4_)" d="M70.345,37.583c15.489-5.637,16.392-8.824,5.287-20.942C90.427,23.804,93.22,22.03,94.18,5.573
			c5.639,15.489,8.822,16.389,20.943,5.287c-7.164,14.793-5.39,17.586,11.067,18.547c-15.489,5.639-16.39,8.822-5.286,20.942
			c-14.795-7.163-17.588-5.386-18.551,11.069c-5.638-15.489-8.82-16.391-20.943-5.291C88.574,41.335,86.802,38.546,70.345,37.583z"
			/>
	</g>
	<path opacity="0.3" fill="#FFFFFF" d="M43.126,98.406c16.243,0.065,30.704-7.626,39.887-19.588
		c-0.554-21.446-18.057-38.707-39.654-38.794C21.762,39.938,4.124,57.056,3.397,78.498C12.483,90.533,26.882,98.341,43.126,98.406z"
		/>
</g>
</svg>
