<?xml version="1.0" encoding="utf-8"?>
<!-- Generator: Adobe Illustrator 13.0.0, SVG Export Plug-In . SVG Version: 6.00 Build 14948)  -->
<!DOCTYPE svg PUBLIC "-//W3C//DTD SVG 1.1//EN" "http://www.w3.org/Graphics/SVG/1.1/DTD/svg11.dtd">
<svg version="1.1" id="Layer_1" xmlns="http://www.w3.org/2000/svg" xmlns:xlink="http://www.w3.org/1999/xlink" x="0px" y="0px"
	 width="128px" height="128px" viewBox="0 0 128 128" enable-background="new 0 0 128 128" xml:space="preserve">
<g>
	<g>
		<linearGradient id="SVGID_1_" gradientUnits="userSpaceOnUse" x1="68.6699" y1="22.2012" x2="68.6699" y2="53.3779">
			<stop  offset="0" style="stop-color:#FBB318"/>
			<stop  offset="1" style="stop-color:#FFE600"/>
		</linearGradient>
		<path fill="url(#SVGID_1_)" d="M36.447,22.201c0,0,13.023,5.426,23.4,7.967c17.847,4.369,46.957,7.199,46.957,7.199
			s-24.275,8.191-36.016,11.229c-6.242,1.613-19.087,3.695-26.582,4.516c-4,0.438-13.672,0.205-13.672,0.205L36.447,22.201z"/>
		<linearGradient id="SVGID_2_" gradientUnits="userSpaceOnUse" x1="23.4316" y1="31.5981" x2="108.7588" y2="31.5981">
			<stop  offset="0" style="stop-color:#FBB318"/>
			<stop  offset="1" style="stop-color:#FFE600"/>
		</linearGradient>
		<path fill="url(#SVGID_2_)" d="M23.432,6.5c0,0,20.586,9.596,37.749,11.172c32.628,2.998,47.578-0.412,47.578-0.412
			S84.15,32.006,74.977,36.904S42.223,51.928,35.949,53.602c-6.274,1.674-12.518,3.095-12.518,3.095V6.5z"/>
		<g>
			<linearGradient id="SVGID_3_" gradientUnits="userSpaceOnUse" x1="21.7832" y1="1.6797" x2="21.7832" y2="124.5122">
				<stop  offset="0" style="stop-color:#5F5D5C"/>
				<stop  offset="1" style="stop-color:#181500"/>
			</linearGradient>
			<path fill="url(#SVGID_3_)" d="M24.625,121.67c0,1.57-1.272,2.842-2.842,2.842l0,0c-1.568,0-2.842-1.271-2.842-2.842V4.52
				c0-1.568,1.273-2.84,2.842-2.84l0,0c1.569,0,2.842,1.271,2.842,2.84V121.67z"/>
		</g>
	</g>
	<path opacity="0.3" fill="#FFFFFF" d="M59.979,19.347C44.309,17.907,25.512,9.146,25.512,9.146v23.316
		c9.646,1.619,21.657,0.994,34.692,0.473c13.978-0.56,23.236-3.969,32.042-7.324c6.168-3.639,11.177-6.64,11.177-6.64
		S89.772,22.085,59.979,19.347z"/>
</g>
</svg>
