<?xml version="1.0" encoding="utf-8"?>
<!-- Generator: Adobe Illustrator 13.0.0, SVG Export Plug-In . SVG Version: 6.00 Build 14948)  -->
<!DOCTYPE svg PUBLIC "-//W3C//DTD SVG 1.1//EN" "http://www.w3.org/Graphics/SVG/1.1/DTD/svg11.dtd">
<svg version="1.1" id="Layer_1" xmlns="http://www.w3.org/2000/svg" xmlns:xlink="http://www.w3.org/1999/xlink" x="0px" y="0px"
	 width="128px" height="128px" viewBox="0 0 128 128" enable-background="new 0 0 128 128" xml:space="preserve">
<g>
	<g>
		<path fill="#D0D0D0" d="M24.033,9.044l79.883,0.006c8.27,0,14.975,6.709,14.975,14.984l0.005,79.938
			c0,8.275-6.705,14.984-14.975,14.984l-79.884-0.004c-8.269,0-14.975-6.709-14.975-14.984L9.06,24.03
			C9.059,15.755,15.764,9.044,24.033,9.044L24.033,9.044z"/>
		<path fill="#B3B3B3" d="M39.386,81.696c-10.641,0-20.846-1.223-30.326-3.453l0.001,25.725c0,8.275,6.705,14.984,14.975,14.984
			l79.884,0.004c8.269,0,14.975-6.709,14.975-14.984l-0.004-53.576C103.633,69.032,73.755,81.696,39.386,81.696z"/>
		<path fill="#999999" d="M103.943,114.374l-80.005-0.006c-7.562,0-13.799-5.607-14.83-12.891v2.139
			c0,8.275,6.705,14.984,14.975,14.984l79.883,0.006c8.27,0,14.975-6.711,14.975-14.986v-4.25
			C118.938,107.655,112.224,114.374,103.943,114.374z"/>
		<path fill="#FFFFFF" d="M26.728,16.89l74.656,0.004c7.055,0,12.875,5.232,13.838,12.029v-1.996
			c0-7.723-6.257-13.982-13.974-13.982l-74.54-0.004c-7.717,0-13.974,6.262-13.974,13.984v3.965
			C12.736,23.159,19.002,16.89,26.728,16.89z"/>
	</g>
	<g>
		<g>
			<g>
				<g>
					<path fill="none" d="M56.426,39.065c-1.091-1.334-2.91-1.82-4.487-2.184c-5.699-1.334-12.611-1.818-17.825,1.334
						c-2.911,1.941-5.335,5.336-5.214,8.975c0.121,4.122,3.76,5.941,7.154,7.154c5.214,2.061,17.583,1.818,19.039,8.609
						c1.212,5.457-3.518,11.885-6.307,15.887c-6.428,9.094-13.096,17.945-18.311,27.891"/>
					<path fill="#00B2DE" d="M58.301,35.818c-3.501-3.178-9.688-3.405-14.167-3.382c-4.937,0.026-9.536,1.746-13.084,5.162
						c-3.282,3.158-5.271,7.835-4.688,12.385c0.575,4.486,4.757,6.523,8.571,7.877c7.419,2.635,22.194,1.779,15.832,13.835
						c-2.949,5.589-7.247,10.615-10.867,15.775c-4.105,5.852-7.994,11.831-11.371,18.136c-2.145,4.006,1.729,6.3,3.897,2.25
						c5.538-10.343,12.61-19.629,19.262-29.255c3.846-5.565,9.764-15.324,3.964-21.543c-4.346-4.66-12.147-3.982-17.722-5.961
						c-2.09-0.742-4.055-1.628-5.549-3.322c-3.849-4.362,3.767-7.591,6.77-8.231c4.419-0.942,11.959-0.356,15.401,2.769
						C56.663,44.23,60.658,37.958,58.301,35.818L58.301,35.818z"/>
				</g>
			</g>
			<g>
				<g>
					<path fill="none" d="M80.333,43.073c-0.838-1.023-2.233-1.395-3.442-1.674c-4.373-1.023-9.676-1.395-13.676,1.023
						c-2.233,1.488-4.094,4.094-4.001,6.885c0.093,3.162,2.884,4.559,5.489,5.488c3.997,1.581,13.491,1.399,14.606,6.605
						c0.931,4.188-2.698,9.117-4.838,12.188c-4.931,6.979-10.048,13.77-14.049,21.398"/>
					<path fill="#FFB800" d="M81.646,40.8c-5.509-4.572-16.175-3.304-20.997,1.622c-4.512,4.609-4.491,11.357,1.622,14.216
						c5.969,2.792,19.293,1.335,13.732,11.752c-4.827,9.044-12.048,16.722-16.944,25.81c-1.509,2.802,1.204,4.405,2.729,1.574
						c4.258-7.904,9.667-14.987,14.729-22.372c2.521-3.68,6.825-10.183,4.141-14.848c-2.413-4.192-8.237-4.576-12.498-5.448
						c-1.533-0.314-2.942-0.864-4.355-1.525c-4.645-2.172-1.967-6.684,1.801-8.02c3.69-1.309,10.345-0.762,13.415,1.786
						C80.59,46.649,83.356,42.22,81.646,40.8L81.646,40.8z"/>
				</g>
			</g>
			<g>
				<g>
					<path fill="none" d="M99.106,45.548c-0.676-0.826-1.801-1.125-2.777-1.35c-3.527-0.826-7.807-1.127-11.034,0.824
						c-1.802,1.203-3.303,3.305-3.228,5.557c0.074,2.551,2.326,3.678,4.43,4.428c3.226,1.274,10.883,1.127,11.784,5.328
						c0.751,3.379-2.177,7.357-3.903,9.836C90.399,75.8,86.271,81.28,83.042,87.437"/>
					<path fill="#E80073" d="M100.044,43.924c-3.49-2.898-11.496-3.089-15.117-0.207c-2.896,2.306-6.692,8.388-2.343,11.375
						c3.962,2.721,16.175,2.033,14.059,9.076c-1.295,4.31-5.381,8.404-7.931,12.047c-2.406,3.439-4.646,6.967-6.645,10.659
						c-1.082,2,0.856,3.145,1.949,1.125c3.405-6.295,7.662-11.992,11.746-17.85c2.327-3.337,4.998-7.565,3.527-11.769
						c-1.184-3.382-6.698-3.847-9.574-4.409c-1.155-0.226-2.239-0.572-3.335-1c-2.908-1.135-6.012-4.964,1.186-7.332
						c2.953-0.971,8.185-0.477,10.603,1.532C99.289,48.102,101.266,44.938,100.044,43.924L100.044,43.924z"/>
				</g>
			</g>
		</g>
	</g>
</g>
</svg>
