<?xml version="1.0" encoding="utf-8"?>
<!-- Generator: Adobe Illustrator 13.0.0, SVG Export Plug-In . SVG Version: 6.00 Build 14948)  -->
<!DOCTYPE svg PUBLIC "-//W3C//DTD SVG 1.1//EN" "http://www.w3.org/Graphics/SVG/1.1/DTD/svg11.dtd">
<svg version="1.1" id="Layer_1" xmlns="http://www.w3.org/2000/svg" xmlns:xlink="http://www.w3.org/1999/xlink" x="0px" y="0px"
	 width="128px" height="128px" viewBox="0 0 128 128" enable-background="new 0 0 128 128" xml:space="preserve">
<g>
	<g>
		<path fill="#D0D0D0" d="M24.253,9.007l79.883,0.004c8.27,0,14.975,6.709,14.975,14.986l0.005,79.936
			c0,8.277-6.705,14.986-14.975,14.986l-79.884-0.004c-8.269,0-14.975-6.711-14.975-14.986L9.279,23.991
			C9.278,15.716,15.983,9.007,24.253,9.007L24.253,9.007z"/>
		<path fill="#B3B3B3" d="M39.605,81.659c-10.641,0-20.846-1.225-30.326-3.453l0.001,25.723c0,8.275,6.705,14.986,14.975,14.986
			l79.884,0.004c8.269,0,14.975-6.709,14.975-14.986l-0.004-53.576C103.853,68.995,73.975,81.659,39.605,81.659z"/>
		<path fill="#999999" d="M104.163,114.335l-80.005-0.004c-7.562,0-13.799-5.607-14.83-12.891v2.137
			c0,8.277,6.705,14.986,14.975,14.986l79.883,0.004c8.27,0,14.975-6.709,14.975-14.984v-4.252
			C119.157,107.616,112.443,114.335,104.163,114.335z"/>
		<path fill="#FFFFFF" d="M26.947,16.853l74.656,0.004c7.055,0,12.875,5.232,13.838,12.027V26.89
			c0-7.723-6.257-13.984-13.974-13.984l-74.54-0.004c-7.717,0-13.974,6.262-13.974,13.984v3.967
			C12.956,23.12,19.222,16.853,26.947,16.853z"/>
	</g>
	<g>
		<polygon points="41.672,88.011 102.571,88.011 102.571,93.642 41.672,93.642 41.672,88.011 		"/>
		<polygon points="41.672,34.286 102.571,34.286 102.571,39.915 41.672,39.915 41.672,34.286 		"/>
		<polygon points="41.672,61.149 102.571,61.149 102.571,66.778 41.672,66.778 41.672,61.149 		"/>
		<circle cx="29.785" cy="37.099" r="3.917"/>
		<circle cx="29.785" cy="63.962" r="3.917"/>
		<circle cx="29.785" cy="90.825" r="3.917"/>
	</g>
</g>
</svg>
