<?xml version="1.0" encoding="utf-8"?>
<!-- Generator: Adobe Illustrator 13.0.0, SVG Export Plug-In . SVG Version: 6.00 Build 14948)  -->
<!DOCTYPE svg PUBLIC "-//W3C//DTD SVG 1.1//EN" "http://www.w3.org/Graphics/SVG/1.1/DTD/svg11.dtd">
<svg version="1.1" id="Layer_1" xmlns="http://www.w3.org/2000/svg" xmlns:xlink="http://www.w3.org/1999/xlink" x="0px" y="0px"
	 width="128px" height="128px" viewBox="0 0 128 128" enable-background="new 0 0 128 128" xml:space="preserve">
<g>
	<g>
		<path fill="#D0D0D0" d="M24.112,8.974l79.883,0.006c8.27,0,14.975,6.709,14.975,14.984l0.005,79.938
			c0,8.275-6.705,14.984-14.975,14.984l-79.884-0.004c-8.269,0-14.975-6.709-14.975-14.984L9.139,23.96
			C9.138,15.685,15.843,8.974,24.112,8.974L24.112,8.974z"/>
		<path fill="#B3B3B3" d="M39.465,81.626c-10.641,0-20.846-1.223-30.326-3.453l0.001,25.725c0,8.275,6.705,14.984,14.975,14.984
			l79.884,0.004c8.269,0,14.975-6.709,14.975-14.984l-0.004-53.576C103.712,68.962,73.834,81.626,39.465,81.626z"/>
		<path fill="#999999" d="M104.022,114.304l-80.005-0.006c-7.562,0-13.799-5.607-14.83-12.891v2.139
			c0,8.275,6.705,14.984,14.975,14.984l79.883,0.006c8.27,0,14.975-6.711,14.975-14.986V99.3
			C119.017,107.585,112.303,114.304,104.022,114.304z"/>
		<path fill="#FFFFFF" d="M26.807,16.819l74.656,0.004c7.055,0,12.875,5.232,13.838,12.029v-1.996
			c0-7.723-6.257-13.982-13.974-13.982l-74.54-0.004c-7.717,0-13.974,6.262-13.974,13.984v3.965
			C12.815,23.089,19.081,16.819,26.807,16.819z"/>
	</g>
	<g>
		<g>
			<polygon points="37.017,35.386 37.017,91.36 33.851,91.36 33.851,35.386 37.017,35.386 			"/>
			<path d="M40.374,36.257c0-1.564-1.27-2.832-2.834-2.832h-4.033c-1.564,0-2.832,1.268-2.832,2.832l0,0
				c0,1.564,1.268,2.834,2.832,2.834h4.033C39.104,39.091,40.374,37.821,40.374,36.257L40.374,36.257z"/>
			<path d="M40.374,91.603c0-1.564-1.27-2.832-2.834-2.832h-4.033c-1.564,0-2.832,1.268-2.832,2.832l0,0
				c0,1.564,1.268,2.834,2.832,2.834h4.033C39.104,94.437,40.374,93.167,40.374,91.603L40.374,91.603z"/>
		</g>
		<path d="M95.78,67.937c1.136-1.08,1.703-2.443,1.703-3.977c0-1.592-0.567-2.953-1.703-4.035L83.449,47.538
			c-1.136-1.082-2.442-1.648-4.033-1.648c-1.535,0-2.898,0.566-4.035,1.648c-1.077,1.135-1.647,2.498-1.647,4.033
			c0,1.592,0.57,2.898,1.647,4.033l2.671,2.613l-20.08-0.002c-1.592,0-2.954,0.57-4.033,1.705c-1.138,1.082-1.648,2.443-1.648,4.035
			c0,1.533,0.511,2.898,1.648,3.979c1.079,1.135,2.441,1.646,4.033,1.703l20.08,0.002l-2.671,2.613
			c-1.077,1.08-1.647,2.443-1.647,4.035c0,1.533,0.57,2.898,1.647,4.033c1.137,1.08,2.5,1.648,4.035,1.648
			c1.591,0,2.897-0.568,4.033-1.646L95.78,67.937z"/>
	</g>
</g>
</svg>
