<?xml version="1.0" encoding="utf-8"?>
<!-- Generator: Adobe Illustrator 13.0.0, SVG Export Plug-In . SVG Version: 6.00 Build 14948)  -->
<!DOCTYPE svg PUBLIC "-//W3C//DTD SVG 1.1//EN" "http://www.w3.org/Graphics/SVG/1.1/DTD/svg11.dtd">
<svg version="1.1" id="Layer_1" xmlns="http://www.w3.org/2000/svg" xmlns:xlink="http://www.w3.org/1999/xlink" x="0px" y="0px"
	 width="128px" height="128px" viewBox="0 0 128 128" enable-background="new 0 0 128 128" xml:space="preserve">
<g>
	<g>
		<path fill="#D0D0D0" d="M23.817,8.633L103.7,8.638c8.27,0,14.975,6.709,14.975,14.985l0.005,79.937
			c0,8.276-6.705,14.985-14.975,14.985l-79.884-0.004c-8.269,0-14.975-6.71-14.975-14.985L8.844,23.618
			C8.843,15.343,15.548,8.633,23.817,8.633L23.817,8.633z"/>
		<path fill="#B3B3B3" d="M39.17,81.285c-10.641,0-20.846-1.224-30.326-3.453l0.001,25.724c0,8.275,6.705,14.985,14.975,14.985
			l79.884,0.004c8.269,0,14.975-6.709,14.975-14.985l-0.004-53.576C103.417,68.621,73.539,81.285,39.17,81.285z"/>
		<path fill="#999999" d="M103.728,113.962l-80.005-0.005c-7.562,0-13.799-5.607-14.83-12.891v2.138
			c0,8.276,6.705,14.985,14.975,14.985l79.883,0.005c8.27,0,14.975-6.71,14.975-14.985v-4.251
			C118.722,107.243,112.008,113.962,103.728,113.962z"/>
		<path fill="#FFFFFF" d="M26.512,16.479l74.656,0.004c7.055,0,12.875,5.232,13.838,12.028v-1.995
			c0-7.723-6.257-13.983-13.974-13.983l-74.54-0.004c-7.717,0-13.974,6.262-13.974,13.984v3.966
			C12.521,22.747,18.786,16.479,26.512,16.479z"/>
	</g>
	<g>
		<g>
			<polygon points="90.847,92.134 90.847,36.159 94.013,36.159 94.013,92.134 90.847,92.134 			"/>
			<path d="M87.49,91.261c0,1.564,1.269,2.834,2.833,2.834h4.033c1.564,0,2.833-1.27,2.833-2.834l0,0
				c0-1.564-1.269-2.832-2.833-2.832h-4.033C88.759,88.429,87.49,89.696,87.49,91.261L87.49,91.261z"/>
			<path d="M87.49,35.915c0,1.564,1.269,2.834,2.833,2.834h4.033c1.564,0,2.833-1.27,2.833-2.834l0,0
				c0-1.564-1.269-2.832-2.833-2.832h-4.033C88.759,33.083,87.49,34.351,87.49,35.915L87.49,35.915z"/>
		</g>
		<path d="M32.083,59.581c-1.135,1.08-1.703,2.443-1.703,3.977c0,1.592,0.568,2.953,1.703,4.035l12.332,12.387
			c1.135,1.082,2.441,1.648,4.033,1.648c1.535,0,2.898-0.566,4.035-1.648c1.076-1.135,1.646-2.498,1.646-4.033
			c0-1.592-0.57-2.898-1.646-4.033l-2.672-2.612l20.08,0.001c1.592,0,2.955-0.57,4.033-1.705c1.139-1.082,1.648-2.443,1.648-4.035
			c0-1.533-0.51-2.898-1.648-3.979c-1.078-1.135-2.441-1.646-4.033-1.703l-20.08-0.002l2.672-2.613
			c1.076-1.08,1.646-2.443,1.646-4.035c0-1.533-0.57-2.898-1.646-4.033c-1.137-1.08-2.5-1.648-4.035-1.648
			c-1.592,0-2.898,0.568-4.033,1.646L32.083,59.581z"/>
	</g>
</g>
</svg>
