<?xml version="1.0" encoding="utf-8"?>
<!-- Generator: Adobe Illustrator 13.0.0, SVG Export Plug-In . SVG Version: 6.00 Build 14948)  -->
<!DOCTYPE svg PUBLIC "-//W3C//DTD SVG 1.1//EN" "http://www.w3.org/Graphics/SVG/1.1/DTD/svg11.dtd">
<svg version="1.1" id="Layer_1" xmlns="http://www.w3.org/2000/svg" xmlns:xlink="http://www.w3.org/1999/xlink" x="0px" y="0px"
	 width="128px" height="128px" viewBox="0 0 128 128" enable-background="new 0 0 128 128" xml:space="preserve">
<g>
	<path fill="#D0D0D0" d="M23.479,8.182l79.883,0.005c8.27,0,14.975,6.709,14.975,14.985l0.005,79.937
		c0,8.276-6.706,14.985-14.975,14.985l-79.884-0.004c-8.27,0-14.975-6.71-14.975-14.985L8.505,23.167
		C8.504,14.892,15.209,8.182,23.479,8.182L23.479,8.182z"/>
	<path fill="#B3B3B3" d="M38.831,80.834c-10.642,0-20.847-1.224-30.326-3.453l0.001,25.724c0,8.275,6.705,14.985,14.975,14.985
		l79.883,0.004c8.27,0,14.975-6.709,14.975-14.985l-0.003-53.576C103.078,68.17,73.199,80.834,38.831,80.834z"/>
	<path fill="#999999" d="M103.389,113.511l-80.005-0.005c-7.562,0-13.8-5.607-14.831-12.891v2.138
		c0,8.276,6.706,14.985,14.975,14.985l79.884,0.005c8.27,0,14.975-6.71,14.975-14.985v-4.251
		C118.382,106.792,111.668,113.511,103.389,113.511z"/>
	<path fill="#FFFFFF" d="M26.173,16.027l74.655,0.004c7.056,0,12.876,5.232,13.839,12.028v-1.995
		c0-7.723-6.257-13.983-13.974-13.983l-74.54-0.004c-7.718,0-13.974,6.262-13.974,13.984v3.966
		C12.182,22.296,18.446,16.027,26.173,16.027z"/>
	<path d="M56.094,33.569l0.505-1.599h30.408l-0.597,1.599c-2.756,0-4.858,0.618-6.314,1.858c-1.454,1.237-2.732,3.824-3.832,7.758
		L64.825,83.089c-0.825,2.849-1.24,4.754-1.24,5.715c0,1.114,0.43,1.982,1.287,2.602c1.101,0.806,3.182,1.239,6.243,1.302
		l-0.459,1.599H39.839l0.505-1.599c3.092,0,5.355-0.598,6.795-1.79c1.438-1.192,2.739-3.803,3.902-7.828l11.434-39.903
		c0.705-2.478,1.055-4.351,1.055-5.622c0-1.146-0.428-2.044-1.284-2.694C61.39,34.218,59.338,33.784,56.094,33.569L56.094,33.569z"
		/>
</g>
</svg>
