<?xml version="1.0" encoding="utf-8"?>
<!-- Generator: Adobe Illustrator 13.0.0, SVG Export Plug-In . SVG Version: 6.00 Build 14948)  -->
<!DOCTYPE svg PUBLIC "-//W3C//DTD SVG 1.1//EN" "http://www.w3.org/Graphics/SVG/1.1/DTD/svg11.dtd">
<svg version="1.1" id="Layer_1" xmlns="http://www.w3.org/2000/svg" xmlns:xlink="http://www.w3.org/1999/xlink" x="0px" y="0px"
	 width="128px" height="128px" viewBox="0 0 128 128" enable-background="new 0 0 128 128" xml:space="preserve">
<g>
	<g>
		<path fill="#D0D0D0" d="M24.472,8.724l79.883,0.005c8.27,0,14.975,6.709,14.975,14.985l0.005,79.937
			c0,8.276-6.705,14.985-14.975,14.985l-79.884-0.004c-8.269,0-14.975-6.71-14.975-14.985L9.498,23.709
			C9.497,15.434,16.202,8.724,24.472,8.724L24.472,8.724z"/>
		<path fill="#B3B3B3" d="M39.824,81.376c-10.641,0-20.846-1.224-30.326-3.453l0.001,25.724c0,8.275,6.705,14.985,14.975,14.985
			l79.884,0.004c8.269,0,14.975-6.709,14.975-14.985l-0.004-53.576C104.071,68.712,74.193,81.376,39.824,81.376z"/>
		<path fill="#999999" d="M104.382,114.053l-80.005-0.005c-7.562,0-13.799-5.607-14.83-12.891v2.138
			c0,8.276,6.705,14.985,14.975,14.985l79.883,0.005c8.27,0,14.975-6.71,14.975-14.985v-4.251
			C119.376,107.334,112.662,114.053,104.382,114.053z"/>
		<path fill="#FFFFFF" d="M27.166,16.569l74.656,0.004c7.055,0,12.875,5.232,13.838,12.028v-1.995
			c0-7.723-6.257-13.983-13.974-13.983l-74.54-0.004c-7.717,0-13.974,6.262-13.974,13.984v3.966
			C13.175,22.838,19.44,16.569,27.166,16.569z"/>
	</g>
	<g>
		<g>
			<polygon points="43.2,87.727 104.1,87.727 104.1,93.357 43.2,93.357 43.2,87.727 			"/>
			<polygon points="43.2,34.002 104.1,34.002 104.1,39.631 43.2,39.631 43.2,34.002 			"/>
			<polygon points="31.12,34.541 31.12,92.471 27.953,92.471 27.953,34.541 31.12,34.541 			"/>
			<polygon points="43.2,60.865 104.1,60.865 104.1,66.494 43.2,66.494 43.2,60.865 			"/>
			<path d="M34.476,36.834c0-1.564-1.269-2.832-2.833-2.832h-4.033c-1.564,0-2.832,1.268-2.832,2.832l0,0
				c0,1.564,1.268,2.834,2.832,2.834h4.033C33.207,39.668,34.476,38.398,34.476,36.834L34.476,36.834z"/>
			<path d="M34.476,63.426c0-1.564-1.269-2.832-2.833-2.832h-4.033c-1.564,0-2.832,1.268-2.832,2.832l0,0
				c0,1.564,1.268,2.834,2.832,2.834h4.033C33.207,66.26,34.476,64.99,34.476,63.426L34.476,63.426z"/>
			<path d="M34.476,90.525c0-1.564-1.269-2.834-2.833-2.834h-4.033c-1.564,0-2.832,1.27-2.832,2.834l0,0
				c0,1.564,1.268,2.832,2.832,2.832h4.033C33.207,93.357,34.476,92.09,34.476,90.525L34.476,90.525z"/>
		</g>
	</g>
</g>
</svg>
