<?xml version="1.0" encoding="utf-8"?>
<!-- Generator: Adobe Illustrator 13.0.0, SVG Export Plug-In . SVG Version: 6.00 Build 14948)  -->
<!DOCTYPE svg PUBLIC "-//W3C//DTD SVG 1.1//EN" "http://www.w3.org/Graphics/SVG/1.1/DTD/svg11.dtd">
<svg version="1.1" id="Layer_1" xmlns="http://www.w3.org/2000/svg" xmlns:xlink="http://www.w3.org/1999/xlink" x="0px" y="0px"
	 width="128px" height="128px" viewBox="0 0 128 128" enable-background="new 0 0 128 128" xml:space="preserve">
<g>
	<g>
		<path fill="#D0D0D0" d="M23.793,8.509l79.883,0.005c8.27,0,14.975,6.709,14.975,14.985l0.005,79.937
			c0,8.276-6.705,14.985-14.975,14.985l-79.884-0.004c-8.269,0-14.975-6.71-14.975-14.985L8.819,23.494
			C8.818,15.219,15.523,8.509,23.793,8.509L23.793,8.509z"/>
		<path fill="#B3B3B3" d="M39.146,81.161c-10.641,0-20.846-1.224-30.326-3.453l0.001,25.724c0,8.275,6.705,14.985,14.975,14.985
			l79.884,0.004c8.269,0,14.975-6.709,14.975-14.985l-0.004-53.576C103.393,68.497,73.515,81.161,39.146,81.161z"/>
		<path fill="#999999" d="M103.703,113.838l-80.005-0.005c-7.562,0-13.799-5.607-14.83-12.891v2.138
			c0,8.276,6.705,14.985,14.975,14.985l79.883,0.005c8.27,0,14.975-6.71,14.975-14.985v-4.251
			C118.697,107.119,111.983,113.838,103.703,113.838z"/>
		<path fill="#FFFFFF" d="M26.487,16.354l74.656,0.004c7.055,0,12.875,5.232,13.838,12.028v-1.995
			c0-7.723-6.257-13.983-13.974-13.983l-74.54-0.004c-7.717,0-13.974,6.262-13.974,13.984v3.966
			C12.496,22.623,18.762,16.354,26.487,16.354z"/>
	</g>
	<g>
		<polygon points="25.537,30.282 101.982,30.282 101.982,35.911 25.537,35.911 25.537,30.282 		"/>
		<polygon points="25.537,54.576 101.982,54.576 101.982,60.206 25.537,60.206 25.537,54.576 		"/>
		<polygon points="25.537,78.87 101.982,78.87 101.982,84.501 25.537,84.501 25.537,78.87 		"/>
		<polygon points="45.998,91.017 101.982,91.017 101.982,96.647 45.998,96.647 45.998,91.017 		"/>
		<polygon points="45.998,42.429 101.982,42.429 101.982,48.06 45.998,48.06 45.998,42.429 		"/>
		<polygon points="45.998,66.724 101.982,66.724 101.982,72.353 45.998,72.353 45.998,66.724 		"/>
	</g>
</g>
</svg>
