<?xml version="1.0" encoding="utf-8"?>
<!-- Generator: Adobe Illustrator 13.0.0, SVG Export Plug-In . SVG Version: 6.00 Build 14948)  -->
<!DOCTYPE svg PUBLIC "-//W3C//DTD SVG 1.1//EN" "http://www.w3.org/Graphics/SVG/1.1/DTD/svg11.dtd">
<svg version="1.1" id="Layer_1" xmlns="http://www.w3.org/2000/svg" xmlns:xlink="http://www.w3.org/1999/xlink" x="0px" y="0px"
	 width="128px" height="128px" viewBox="0 0 128 128" enable-background="new 0 0 128 128" xml:space="preserve">
<g>
	<path fill="#D0D0D0" d="M23.478,8.182l79.883,0.005c8.27,0,14.975,6.709,14.975,14.985l0.005,79.937
		c0,8.276-6.705,14.985-14.975,14.985l-79.884-0.004c-8.269,0-14.975-6.71-14.975-14.985L8.504,23.167
		C8.503,14.892,15.208,8.182,23.478,8.182L23.478,8.182z"/>
	<path fill="#B3B3B3" d="M38.83,80.834c-10.641,0-20.846-1.224-30.326-3.453l0.001,25.724c0,8.275,6.705,14.985,14.975,14.985
		l79.884,0.004c8.269,0,14.975-6.709,14.975-14.985l-0.004-53.576C103.077,68.17,73.199,80.834,38.83,80.834z"/>
	<path fill="#999999" d="M103.388,113.511l-80.005-0.005c-7.562,0-13.799-5.607-14.83-12.891v2.138
		c0,8.276,6.705,14.985,14.975,14.985l79.883,0.005c8.27,0,14.975-6.71,14.975-14.985v-4.251
		C118.382,106.792,111.668,113.511,103.388,113.511z"/>
	<path fill="#FFFFFF" d="M26.172,16.027l74.656,0.004c7.055,0,12.875,5.232,13.838,12.028v-1.995
		c0-7.723-6.257-13.983-13.974-13.983l-74.54-0.004c-7.717,0-13.974,6.262-13.974,13.984v3.966
		C12.181,22.296,18.446,16.027,26.172,16.027z"/>
	<path fill-rule="evenodd" clip-rule="evenodd" d="M77.211,62.46c4.297,0.918,7.513,2.385,9.645,4.402
		c2.956,2.812,4.435,6.25,4.435,10.314c0,3.088-0.976,6.046-2.925,8.873c-1.948,2.825-4.621,4.89-8.018,6.188
		c-3.395,1.3-8.581,1.953-15.555,1.953H35.555v-1.688h2.316c2.573,0,4.419-0.823,5.541-2.467c0.693-1.067,1.042-3.336,1.042-6.809
		V43.045c0-3.837-0.438-6.261-1.317-7.264c-1.18-1.341-2.935-2.012-5.266-2.012h-2.316v-1.684h26.759
		c4.991,0,8.993,0.367,12.008,1.1c4.567,1.094,8.053,3.038,10.456,5.831c2.406,2.791,3.607,6,3.607,9.629
		c0,3.111-0.94,5.894-2.827,8.349C83.674,59.45,80.892,61.272,77.211,62.46L77.211,62.46z M53.26,59.923
		c1.128,0.213,2.415,0.372,3.861,0.477c1.448,0.107,3.04,0.161,4.778,0.161c4.447,0,7.792-0.479,10.03-1.435
		c2.241-0.958,3.951-2.426,5.131-4.398c1.182-1.977,1.771-4.133,1.771-6.471c0-3.618-1.477-6.701-4.428-9.251
		c-2.954-2.555-7.262-3.831-12.923-3.831c-3.047,0-5.786,0.335-8.221,1.004V59.923L53.26,59.923z M53.26,89.675
		c3.55,0.822,7.054,1.235,10.511,1.235c5.538,0,9.763-1.244,12.667-3.728c2.907-2.486,4.361-5.557,4.361-9.215
		c0-2.408-0.675-4.725-2.021-6.95c-1.35-2.226-3.5-3.979-6.456-5.26s-6.613-1.918-10.97-1.918c-1.891,0-3.507,0.029-4.848,0.09
		c-1.34,0.062-2.423,0.168-3.244,0.32V89.675L53.26,89.675z"/>
</g>
</svg>
