<?xml version="1.0" encoding="utf-8"?>
<!-- Generator: Adobe Illustrator 13.0.0, SVG Export Plug-In . SVG Version: 6.00 Build 14948)  -->
<!DOCTYPE svg PUBLIC "-//W3C//DTD SVG 1.1//EN" "http://www.w3.org/Graphics/SVG/1.1/DTD/svg11.dtd">
<svg version="1.1" id="Layer_1" xmlns="http://www.w3.org/2000/svg" xmlns:xlink="http://www.w3.org/1999/xlink" x="0px" y="0px"
	 width="128px" height="128px" viewBox="0 0 128 128" enable-background="new 0 0 128 128" xml:space="preserve">
<g>
	<path fill="#D0D0D0" d="M24.034,9.044l79.882,0.005c8.27,0,14.975,6.709,14.975,14.985l0.006,79.936
		c0,8.277-6.705,14.986-14.975,14.986l-79.884-0.004c-8.269,0-14.975-6.711-14.975-14.986L9.06,24.03
		C9.059,15.754,15.764,9.044,24.034,9.044L24.034,9.044z"/>
	<path fill="#B3B3B3" d="M39.386,81.697c-10.641,0-20.846-1.225-30.326-3.453l0.001,25.723c0,8.275,6.705,14.986,14.975,14.986
		l79.884,0.004c8.268,0,14.975-6.709,14.975-14.986l-0.004-53.576C103.633,69.033,73.756,81.697,39.386,81.697z"/>
	<path fill="#999999" d="M103.943,114.373l-80.004-0.004c-7.562,0-13.799-5.607-14.83-12.891v2.137
		c0,8.277,6.705,14.986,14.975,14.986l79.883,0.004c8.27,0,14.975-6.709,14.975-14.984v-4.252
		C118.938,107.654,112.225,114.373,103.943,114.373z"/>
	<path fill="#FFFFFF" d="M26.728,16.89l74.657,0.004c7.055,0,12.875,5.232,13.838,12.028v-1.995c0-7.723-6.258-13.983-13.975-13.983
		l-74.54-0.004c-7.717,0-13.974,6.262-13.974,13.984v3.966C12.737,23.159,19.002,16.89,26.728,16.89z"/>
	<g>
		<polygon fill="#1A1A1A" points="22.128,27.231 106.219,27.231 106.219,33.424 22.128,33.424 22.128,27.231 		"/>
		<polygon fill="#1A1A1A" points="22.128,40.592 106.219,40.592 106.219,46.787 22.128,46.787 22.128,40.592 		"/>
		<polygon fill="#1A1A1A" points="22.128,53.954 106.219,53.954 106.219,60.148 22.128,60.148 22.128,53.954 		"/>
		<polygon fill="#1A1A1A" points="22.128,67.316 106.219,67.316 106.219,73.508 22.128,73.508 22.128,67.316 		"/>
		<polygon fill="#1A1A1A" points="22.128,80.68 106.219,80.68 106.219,86.871 22.128,86.871 22.128,80.68 		"/>
		<polygon fill="#1A1A1A" points="22.128,94.039 83.711,94.039 83.711,100.232 22.128,100.232 22.128,94.039 		"/>
	</g>
</g>
</svg>
