<?xml version="1.0" encoding="utf-8"?>
<!-- Generator: Adobe Illustrator 13.0.0, SVG Export Plug-In . SVG Version: 6.00 Build 14948)  -->
<!DOCTYPE svg PUBLIC "-//W3C//DTD SVG 1.1//EN" "http://www.w3.org/Graphics/SVG/1.1/DTD/svg11.dtd">
<svg version="1.1" id="Layer_1" xmlns="http://www.w3.org/2000/svg" xmlns:xlink="http://www.w3.org/1999/xlink" x="0px" y="0px"
	 width="128px" height="128px" viewBox="0 0 128 128" enable-background="new 0 0 128 128" xml:space="preserve">
<g>
	<g>
		<path fill="#D0D0D0" d="M24.04,8.119l79.883,0.005c8.27,0,14.975,6.709,14.975,14.985l0.005,79.937
			c0,8.276-6.705,14.985-14.975,14.985l-79.884-0.004c-8.269,0-14.975-6.71-14.975-14.985L9.066,23.104
			C9.065,14.829,15.771,8.119,24.04,8.119L24.04,8.119z"/>
		<path fill="#B3B3B3" d="M39.393,80.771c-10.641,0-20.846-1.224-30.326-3.453l0.001,25.724c0,8.275,6.705,14.985,14.975,14.985
			l79.884,0.004c8.269,0,14.975-6.709,14.975-14.985l-0.004-53.576C103.64,68.107,73.762,80.771,39.393,80.771z"/>
		<path fill="#999999" d="M103.95,113.448l-80.005-0.005c-7.562,0-13.799-5.607-14.83-12.891v2.138
			c0,8.276,6.705,14.985,14.975,14.985l79.883,0.005c8.27,0,14.975-6.71,14.975-14.985v-4.251
			C118.944,106.729,112.23,113.448,103.95,113.448z"/>
		<path fill="#FFFFFF" d="M26.734,15.965l74.656,0.004c7.055,0,12.875,5.232,13.838,12.028v-1.995
			c0-7.723-6.257-13.983-13.974-13.983l-74.54-0.004c-7.717,0-13.974,6.262-13.974,13.984v3.966
			C12.743,22.233,19.009,15.965,26.734,15.965z"/>
	</g>
	<g>
		<g>
			<linearGradient id="SVGID_1_" gradientUnits="userSpaceOnUse" x1="63.499" y1="76.4395" x2="26.8276" y2="50.7618">
				<stop  offset="0" style="stop-color:#00B2DE"/>
				<stop  offset="1" style="stop-color:#99DBF6"/>
			</linearGradient>
			<path fill="url(#SVGID_1_)" stroke="#0091DE" d="M63.467,72.162c0,3.852-1.19,6.828-3.57,8.934s-5.489,3.158-9.33,3.158H33.287
				V41.535h16.62c3.999,0,7.149,1.047,9.45,3.141c2.299,2.094,3.449,4.936,3.449,8.525c0,2.113-0.6,4.047-1.8,5.803
				c-1.079,1.475-2.399,2.553-3.96,3.23C61.326,63.92,63.467,67.229,63.467,72.162z M56.327,53.445c0-1.951-0.641-3.443-1.92-4.479
				c-1.2-1.074-2.88-1.613-5.04-1.613h-9.6v12.182h9.6c2.16,0,3.859-0.527,5.1-1.582S56.327,55.395,56.327,53.445z M56.986,71.865
				c0-1.93-0.609-3.496-1.829-4.703c-1.221-1.205-2.95-1.809-5.19-1.809H39.768v13.08h10.199c2.12,0,3.84-0.602,5.16-1.808
				C56.366,75.381,56.986,73.793,56.986,71.865z"/>
			<linearGradient id="SVGID_2_" gradientUnits="userSpaceOnUse" x1="97.7041" y1="80.001" x2="69.5577" y2="60.2927">
				<stop  offset="0" style="stop-color:#FF1F00"/>
				<stop  offset="1" style="stop-color:#FF9D00"/>
			</linearGradient>
			<path fill="url(#SVGID_2_)" stroke="#FF1F00" d="M94.727,84.254h-6v-2.76c-2.08,2.08-4.78,3.121-8.1,3.121
				c-3.6,0-6.32-0.92-8.16-2.762c-1.6-1.68-2.4-3.859-2.4-6.539c0-2.6,0.916-4.711,2.748-6.33s4.438-2.43,7.82-2.43h8.092v-2.16
				c0-3.801-2.24-5.699-6.72-5.699c-2.906,0-5.147,0.98-6.72,2.939l-4.021-3.781c1.359-1.598,2.87-2.729,4.53-3.389
				c1.659-0.66,3.789-0.99,6.391-0.99c8.359,0,12.539,3.48,12.539,10.439V84.254z M88.727,73.273v-2.459h-7.208
				c-3.675,0-5.512,1.461-5.512,4.381c0,2.879,1.878,4.318,5.634,4.318c2.623,0,4.542-0.578,5.754-1.74
				C88.282,76.895,88.727,75.395,88.727,73.273z"/>
		</g>
	</g>
</g>
</svg>
