<?xml version="1.0" encoding="utf-8"?>
<!-- Generator: Adobe Illustrator 13.0.0, SVG Export Plug-In . SVG Version: 6.00 Build 14948)  -->
<!DOCTYPE svg PUBLIC "-//W3C//DTD SVG 1.1//EN" "http://www.w3.org/Graphics/SVG/1.1/DTD/svg11.dtd">
<svg version="1.1" id="Layer_1" xmlns="http://www.w3.org/2000/svg" xmlns:xlink="http://www.w3.org/1999/xlink" x="0px" y="0px"
	 width="128px" height="128px" viewBox="0 0 128 128" enable-background="new 0 0 128 128" xml:space="preserve">
<g>
	<g>
		<path fill="#D0D0D0" d="M23.637,8.723l79.883,0.005c8.27,0,14.975,6.709,14.975,14.985l0.005,79.937
			c0,8.276-6.705,14.985-14.975,14.985l-79.884-0.004c-8.269,0-14.975-6.71-14.975-14.985L8.663,23.708
			C8.662,15.433,15.367,8.723,23.637,8.723L23.637,8.723z"/>
		<path fill="#B3B3B3" d="M38.989,81.375c-10.641,0-20.846-1.224-30.326-3.453l0.001,25.724c0,8.275,6.705,14.985,14.975,14.985
			l79.884,0.004c8.269,0,14.975-6.709,14.975-14.985l-0.004-53.576C103.236,68.711,73.358,81.375,38.989,81.375z"/>
		<path fill="#999999" d="M103.547,114.052l-80.005-0.005c-7.562,0-13.799-5.607-14.83-12.891v2.138
			c0,8.276,6.705,14.985,14.975,14.985l79.883,0.005c8.27,0,14.975-6.71,14.975-14.985v-4.251
			C118.541,107.333,111.827,114.052,103.547,114.052z"/>
		<path fill="#FFFFFF" d="M26.331,16.568l74.656,0.004c7.055,0,12.875,5.232,13.838,12.028v-1.995
			c0-7.723-6.257-13.983-13.974-13.983l-74.54-0.004c-7.717,0-13.974,6.262-13.974,13.984v3.966
			C12.34,22.837,18.605,16.568,26.331,16.568z"/>
	</g>
	<g>
		<g>
			<g>
				<path d="M55.891,83.666c0,1.893-0.586,3.357-1.756,4.393s-2.699,1.553-4.587,1.553l-8.495-0.002V68.605l8.171,0.002
					c1.966,0,3.515,0.514,4.646,1.545c1.131,1.029,1.697,2.426,1.697,4.189c0,1.041-0.295,1.992-0.885,2.854
					c-0.531,0.727-1.181,1.256-1.947,1.59C54.838,79.613,55.891,81.24,55.891,83.666z M52.38,74.463
					c0-0.959-0.315-1.693-0.944-2.201c-0.59-0.529-1.416-0.793-2.478-0.793h-4.72v5.988h4.72c1.062,0,1.897-0.26,2.507-0.777
					C52.074,76.16,52.38,75.422,52.38,74.463z M52.705,83.52c0-0.949-0.301-1.719-0.9-2.312c-0.6-0.592-1.451-0.889-2.552-0.889
					h-5.015v6.432h5.015c1.042,0,1.888-0.297,2.537-0.891C52.399,85.248,52.705,84.467,52.705,83.52z"/>
				<path d="M94.887,89.611h-6.902l-2.889-8.58H68.201l-2.953,8.58h-6.901l15.659-42.721h5.221L94.887,89.611z M83.221,75.57
					l-6.445-18.975L70.139,75.57H83.221z"/>
			</g>
			<path d="M45.895,56.133L32.742,40.619c-0.899-1.061-0.26-2.873,1.011-2.873c3.866,0,23.407,0,27.268,0
				c1.261,0,1.839,1.822,0.95,2.873L48.815,56.133C48.008,57.084,46.702,57.084,45.895,56.133z"/>
		</g>
	</g>
</g>
</svg>
