<?xml version="1.0" encoding="utf-8"?>
<!-- Generator: Adobe Illustrator 13.0.0, SVG Export Plug-In . SVG Version: 6.00 Build 14948)  -->
<!DOCTYPE svg PUBLIC "-//W3C//DTD SVG 1.1//EN" "http://www.w3.org/Graphics/SVG/1.1/DTD/svg11.dtd">
<svg version="1.1" id="Layer_1" xmlns="http://www.w3.org/2000/svg" xmlns:xlink="http://www.w3.org/1999/xlink" x="0px" y="0px"
	 width="128px" height="128px" viewBox="0 0 128 128" enable-background="new 0 0 128 128" xml:space="preserve">
<g>
	<g>
		<path fill="#D0D0D0" d="M23.659,8.628l79.883,0.004c8.27,0,14.975,6.709,14.975,14.986l0.005,79.936
			c0,8.277-6.705,14.986-14.975,14.986l-79.884-0.004c-8.269,0-14.975-6.711-14.975-14.986L8.686,23.612
			C8.685,15.337,15.39,8.628,23.659,8.628L23.659,8.628z"/>
		<path fill="#B3B3B3" d="M39.012,81.28c-10.641,0-20.846-1.225-30.326-3.453l0.001,25.723c0,8.275,6.705,14.986,14.975,14.986
			l79.884,0.004c8.269,0,14.975-6.709,14.975-14.986l-0.004-53.576C103.259,68.616,73.381,81.28,39.012,81.28z"/>
		<path fill="#999999" d="M103.569,113.956l-80.005-0.004c-7.562,0-13.799-5.607-14.83-12.891v2.137
			c0,8.277,6.705,14.986,14.975,14.986l79.883,0.004c8.27,0,14.975-6.709,14.975-14.984v-4.252
			C118.563,107.237,111.85,113.956,103.569,113.956z"/>
		<path fill="#FFFFFF" d="M26.354,16.474l74.656,0.004c7.055,0,12.875,5.232,13.838,12.027v-1.994
			c0-7.723-6.257-13.984-13.974-13.984l-74.54-0.004c-7.717,0-13.974,6.262-13.974,13.984v3.967
			C12.362,22.741,18.628,16.474,26.354,16.474z"/>
	</g>
	<g>
		<polygon points="25.403,30.401 101.849,30.401 101.849,36.03 25.403,36.03 25.403,30.401 		"/>
		<polygon points="25.403,54.694 101.849,54.694 101.849,60.325 25.403,60.325 25.403,54.694 		"/>
		<polygon points="25.403,78.989 101.849,78.989 101.849,84.62 25.403,84.62 25.403,78.989 		"/>
		<polygon points="35.634,91.136 91.618,91.136 91.618,96.767 35.634,96.767 35.634,91.136 		"/>
		<polygon points="35.634,42.548 91.618,42.548 91.618,48.179 35.634,48.179 35.634,42.548 		"/>
		<polygon points="35.634,66.843 91.618,66.843 91.618,72.472 35.634,72.472 35.634,66.843 		"/>
	</g>
</g>
</svg>
