<?xml version="1.0" encoding="utf-8"?>
<!-- Generator: Adobe Illustrator 13.0.0, SVG Export Plug-In . SVG Version: 6.00 Build 14948)  -->
<!DOCTYPE svg PUBLIC "-//W3C//DTD SVG 1.1//EN" "http://www.w3.org/Graphics/SVG/1.1/DTD/svg11.dtd">
<svg version="1.1" id="Layer_1" xmlns="http://www.w3.org/2000/svg" xmlns:xlink="http://www.w3.org/1999/xlink" x="0px" y="0px"
	 width="128px" height="128px" viewBox="0 0 128 128" enable-background="new 0 0 128 128" xml:space="preserve">
<g>
	<g>
		<path fill="#D0D0D0" d="M23.675,8.472l79.883,0.004c8.27,0,14.975,6.709,14.975,14.986l0.005,79.936
			c0,8.277-6.705,14.986-14.975,14.986l-79.884-0.004c-8.269,0-14.975-6.711-14.975-14.986L8.701,23.456
			C8.7,15.181,15.405,8.472,23.675,8.472L23.675,8.472z"/>
		<path fill="#B3B3B3" d="M39.027,81.124c-10.641,0-20.846-1.225-30.326-3.453l0.001,25.723c0,8.275,6.705,14.986,14.975,14.986
			l79.884,0.004c8.269,0,14.975-6.709,14.975-14.986l-0.004-53.576C103.274,68.46,73.396,81.124,39.027,81.124z"/>
		<path fill="#999999" d="M103.585,113.8l-80.005-0.004c-7.562,0-13.799-5.607-14.83-12.891v2.137
			c0,8.277,6.705,14.986,14.975,14.986l79.883,0.004c8.27,0,14.975-6.709,14.975-14.984v-4.252
			C118.579,107.081,111.865,113.8,103.585,113.8z"/>
		<path fill="#FFFFFF" d="M26.369,16.317l74.656,0.004c7.055,0,12.875,5.232,13.838,12.027v-1.994
			c0-7.723-6.257-13.984-13.974-13.984l-74.54-0.004c-7.717,0-13.974,6.262-13.974,13.984v3.967
			C12.378,22.585,18.644,16.317,26.369,16.317z"/>
	</g>
	<g>
		<g>
			<g>
				<path d="M65.218,90.849l-6.902,0.002l-2.889-8.582H38.533l-2.954,8.58h-6.901l15.66-42.719h5.22L65.218,90.849z M53.553,76.81
					l-6.445-18.975L40.471,76.81H53.553z"/>
			</g>
			<path d="M85.033,72.464l13.152,15.514c0.899,1.059,0.26,2.873-1.011,2.873c-3.866,0-23.407,0-27.269,0
				c-1.26,0-1.838-1.822-0.949-2.873l13.155-15.514C82.92,71.513,84.227,71.513,85.033,72.464z"/>
			<g>
				<path d="M90.205,51.165c0,1.902-0.697,3.404-2.09,4.502c-1.394,1.1-3.209,1.648-5.445,1.648c-3.12,0-5.592-0.922-7.418-2.766
					l2.12-2.09c1.334,1.334,3.12,2,5.356,2c1.373,0,2.438-0.279,3.193-0.838s1.134-1.35,1.134-2.369
					c0-0.922-0.275-1.648-0.824-2.178c-0.472-0.412-1.236-0.707-2.296-0.885l-2.473-0.352c-1.707-0.236-3.031-0.795-3.973-1.678
					c-1.021-0.963-1.531-2.297-1.531-4.004c0-1.824,0.628-3.307,1.884-4.445c1.255-1.137,2.963-1.707,5.122-1.707
					c2.59,0,4.758,0.795,6.504,2.385l-2.031,2.002c-1.138-1.08-2.658-1.619-4.562-1.619c-1.197,0-2.134,0.305-2.812,0.912
					c-0.676,0.609-1.015,1.395-1.015,2.355c0,0.805,0.265,1.461,0.794,1.971c0.511,0.453,1.295,0.766,2.355,0.943l2.384,0.354
					c1.727,0.234,3.032,0.754,3.915,1.559C89.636,47.888,90.205,49.319,90.205,51.165z"/>
			</g>
		</g>
	</g>
</g>
</svg>
