<?xml version="1.0" encoding="utf-8"?>
<!-- Generator: Adobe Illustrator 13.0.0, SVG Export Plug-In . SVG Version: 6.00 Build 14948)  -->
<!DOCTYPE svg PUBLIC "-//W3C//DTD SVG 1.1//EN" "http://www.w3.org/Graphics/SVG/1.1/DTD/svg11.dtd">
<svg version="1.1" id="Layer_1" xmlns="http://www.w3.org/2000/svg" xmlns:xlink="http://www.w3.org/1999/xlink" x="0px" y="0px"
	 width="128px" height="128px" viewBox="0 0 128 128" enable-background="new 0 0 128 128" xml:space="preserve">
<g>
	<g>
		<path fill="#D0D0D0" d="M23.676,8.479l79.883,0.005c8.27,0,14.975,6.709,14.975,14.985l0.005,79.937
			c0,8.276-6.705,14.985-14.975,14.985l-79.884-0.004c-8.269,0-14.975-6.71-14.975-14.985L8.702,23.464
			C8.701,15.188,15.406,8.479,23.676,8.479L23.676,8.479z"/>
		<path fill="#B3B3B3" d="M39.028,81.131c-10.641,0-20.846-1.224-30.326-3.453l0.001,25.724c0,8.275,6.705,14.985,14.975,14.985
			l79.884,0.004c8.269,0,14.975-6.709,14.975-14.985l-0.004-53.576C103.275,68.467,73.397,81.131,39.028,81.131z"/>
		<path fill="#999999" d="M103.586,113.808l-80.005-0.005c-7.562,0-13.799-5.607-14.83-12.891v2.138
			c0,8.276,6.705,14.985,14.975,14.985l79.883,0.005c8.27,0,14.975-6.71,14.975-14.985v-4.251
			C118.58,107.089,111.866,113.808,103.586,113.808z"/>
		<path fill="#FFFFFF" d="M26.37,16.324l74.656,0.004c7.055,0,12.875,5.232,13.838,12.028v-1.995
			c0-7.723-6.257-13.983-13.974-13.983l-74.54-0.004c-7.717,0-13.974,6.262-13.974,13.984v3.966
			C12.379,22.593,18.645,16.324,26.37,16.324z"/>
	</g>
	<g>
		<g>
			<g>
				<path d="M64.657,77.273c0,3.852-1.19,6.83-3.57,8.936s-5.489,3.158-9.329,3.158h-17.28V46.646h16.62
					c3.999,0,7.149,1.047,9.45,3.143c2.299,2.094,3.449,4.936,3.449,8.523c0,2.115-0.6,4.049-1.8,5.803
					c-1.08,1.477-2.399,2.553-3.96,3.232C62.517,69.031,64.657,72.34,64.657,77.273z M57.518,58.557c0-1.949-0.641-3.443-1.92-4.477
					c-1.2-1.076-2.88-1.613-5.04-1.613h-9.6v12.18h9.6c2.16,0,3.859-0.527,5.1-1.582C56.896,62.01,57.518,60.508,57.518,58.557z
					 M58.178,76.977c0-1.928-0.61-3.496-1.83-4.701c-1.221-1.205-2.95-1.809-5.19-1.809H40.958v13.08h10.199
					c2.12,0,3.84-0.604,5.16-1.809C57.557,80.494,58.178,78.906,58.178,76.977z"/>
				<path d="M86.838,89.367h-3.386l-1.418-4.209h-8.287l-1.449,4.209h-3.386l7.683-20.957h2.561L86.838,89.367z M81.115,82.479
					l-3.162-9.309l-3.256,9.309H81.115z"/>
			</g>
			<path d="M76.304,55.889L63.151,40.375c-0.899-1.061-0.26-2.873,1.011-2.873c3.865,0,23.407,0,27.268,0
				c1.261,0,1.839,1.822,0.95,2.873L79.225,55.889C78.417,56.84,77.111,56.84,76.304,55.889z"/>
		</g>
	</g>
</g>
</svg>
