<?xml version="1.0" encoding="utf-8"?>
<!-- Generator: Adobe Illustrator 13.0.0, SVG Export Plug-In . SVG Version: 6.00 Build 14948)  -->
<!DOCTYPE svg PUBLIC "-//W3C//DTD SVG 1.1//EN" "http://www.w3.org/Graphics/SVG/1.1/DTD/svg11.dtd">
<svg version="1.1" id="Layer_1" xmlns="http://www.w3.org/2000/svg" xmlns:xlink="http://www.w3.org/1999/xlink" x="0px" y="0px"
	 width="128px" height="128px" viewBox="0 0 128 128" enable-background="new 0 0 128 128" xml:space="preserve">
<g>
	<g>
		
			<linearGradient id="SVGID_1_" gradientUnits="userSpaceOnUse" x1="-8.7471" y1="439.0049" x2="-2.6423" y2="483.8712" gradientTransform="matrix(0.8963 0.4435 -0.4435 0.8963 288.3843 -321.2917)">
			<stop  offset="0" style="stop-color:#5F5D5C"/>
			<stop  offset="1" style="stop-color:#181500"/>
		</linearGradient>
		<path fill="url(#SVGID_1_)" d="M123.084,108.021c2.873-8.818,0.084-18.1-6.354-23.932l-0.062-0.053
			c-3.902-3.383-9.234-7.164-16.413-10.715c-4.177-2.066-8.984-4.062-14.505-5.855c-15.485-5.061-27.646-5.598-35.366-4.68
			c-7.343,1.064-13.84,5.573-17.227,12.399c-0.474,0.959-0.893,1.984-1.239,3.066c-3.539,10.859,1.539,22.477,11.523,27.416
			c0.97,0.48,1.98,0.895,3.023,1.236c8.539,2.787,17.512,0.264,23.368-5.744c2.583-0.117,4.563,0.271,6.21,1.088
			c1.051,0.523,2.016,1.23,2.968,2.244c1.13,7.131,5.62,13.496,12.354,16.832c0.97,0.48,1.977,0.893,3.017,1.238
			c10.909,3.553,22.522-1.531,27.467-11.514C122.32,110.074,122.74,109.061,123.084,108.021z"/>
		<g>
			
				<linearGradient id="SVGID_2_" gradientUnits="userSpaceOnUse" x1="-8.5444" y1="439.1572" x2="-5.161" y2="464.7057" gradientTransform="matrix(0.8963 0.4435 -0.4435 0.8963 288.3843 -321.2917)">
				<stop  offset="0" style="stop-color:#6D6F71"/>
				<stop  offset="1" style="stop-color:#939598"/>
			</linearGradient>
			<path fill="url(#SVGID_2_)" d="M34.02,75.607c3.169-6.4,9.345-10.84,16.522-11.881l0,0c5.688-0.674,17.795-0.95,34.905,4.649l0,0
				c5.108,1.656,9.946,3.609,14.381,5.803l0,0c6.188,3.064,11.646,6.615,16.227,10.6l0,0c6.396,5.781,8.779,14.777,6.114,22.945l0,0
				c-0.166,0.504,3.537-12.592-7.381-21.521l0,0c-4.427-3.84-9.743-7.312-15.809-10.312l0,0c-4.341-2.15-9.093-4.062-14.127-5.695
				l0,0c-16.838-5.504-28.645-5.207-34.061-4.566l0,0C37.958,66.93,33.786,76.082,34.02,75.607L34.02,75.607z"/>
		</g>
		
			<linearGradient id="SVGID_3_" gradientUnits="userSpaceOnUse" x1="-4.4282" y1="470.0137" x2="-8.768" y2="442.0974" gradientTransform="matrix(0.8963 0.4435 -0.4435 0.8963 288.3843 -321.2917)">
			<stop  offset="0" style="stop-color:#5F5D5C"/>
			<stop  offset="1" style="stop-color:#181500"/>
		</linearGradient>
		<path fill="url(#SVGID_3_)" d="M45.138,102.238c-8.354-4.135-12.474-13.936-9.578-22.801c0.277-0.887,0.623-1.734,1.028-2.555
			c2.755-5.551,8.118-9.414,14.347-10.314c5.357-0.633,16.987-0.9,33.625,4.535c4.992,1.623,9.698,3.521,13.997,5.65
			c5.976,2.957,11.228,6.379,15.605,10.174c5.526,5.002,7.598,12.814,5.28,19.908c-0.293,0.869-0.638,1.727-1.027,2.512
			c-4.137,8.357-13.959,12.479-22.85,9.582c-0.83-0.279-1.683-0.631-2.502-1.035c-5.477-2.711-9.314-7.945-10.273-14l-0.185-1.158
			l-0.805-0.861c-1.225-1.307-2.549-2.299-4.049-3.055c-2.309-1.141-4.952-1.625-8.091-1.48l-1.512,0.062l-1.057,1.09
			c-5.075,5.199-12.521,7.035-19.447,4.773C46.795,102.988,45.954,102.641,45.138,102.238L45.138,102.238z"/>
		
			<linearGradient id="SVGID_4_" gradientUnits="userSpaceOnUse" x1="99.7266" y1="86.2979" x2="127.5928" y2="86.2979" gradientTransform="matrix(0.9499 0.3126 -0.3126 0.9499 21.7827 -16.8312)">
			<stop  offset="0" style="stop-color:#808285"/>
			<stop  offset="1" style="stop-color:#BCBEC0"/>
		</linearGradient>
		<path fill="url(#SVGID_4_)" d="M96.592,113.158c-6.882-3.406-9.715-11.781-6.308-18.664c3.405-6.883,11.782-9.711,18.666-6.307
			c6.881,3.406,9.713,11.783,6.309,18.664C111.853,113.736,103.477,116.564,96.592,113.158L96.592,113.158z"/>
		
			<radialGradient id="SVGID_5_" cx="20.7759" cy="460.5059" r="12.0181" gradientTransform="matrix(0.8963 0.4435 -0.4435 0.8963 288.3843 -321.2917)" gradientUnits="userSpaceOnUse">
			<stop  offset="0" style="stop-color:#FAFAFA"/>
			<stop  offset="0.3629" style="stop-color:#E5E5E5"/>
			<stop  offset="1" style="stop-color:#C4C4C4"/>
		</radialGradient>
		<path fill="url(#SVGID_5_)" d="M113.543,106.004c-2.947,5.949-10.154,8.383-16.104,5.439c-5.95-2.943-8.387-10.152-5.44-16.102
			c2.943-5.949,10.152-8.383,16.099-5.441C114.051,92.846,116.486,100.051,113.543,106.004z"/>
		
			<linearGradient id="SVGID_6_" gradientUnits="userSpaceOnUse" x1="19.5112" y1="451.6426" x2="21.9489" y2="468.8073" gradientTransform="matrix(0.8963 0.4435 -0.4435 0.8963 288.3843 -321.2917)">
			<stop  offset="0" style="stop-color:#80E21B"/>
			<stop  offset="1" style="stop-color:#80B400"/>
		</linearGradient>
		<path fill="url(#SVGID_6_)" d="M111.273,103.453c0.488-1.488-0.323-3.088-1.814-3.572l-3.117-1.018l1.021-3.127
			c0.484-1.488-0.323-3.086-1.815-3.574c-1.487-0.484-3.089,0.328-3.574,1.814l-1.021,3.125l-3.119-1.02
			c-1.487-0.49-3.088,0.326-3.576,1.812c-0.439,1.355,0.193,2.801,1.433,3.418c0.122,0.061,0.248,0.111,0.381,0.158l3.123,1.018
			l-1.024,3.123c-0.44,1.354,0.19,2.803,1.439,3.42c0.118,0.057,0.247,0.111,0.379,0.152c1.488,0.486,3.088-0.326,3.575-1.814
			l1.018-3.119l3.121,1.018C109.189,105.754,110.789,104.941,111.273,103.453z"/>
		
			<linearGradient id="SVGID_7_" gradientUnits="userSpaceOnUse" x1="47.4541" y1="86.3682" x2="75.3232" y2="86.3682" gradientTransform="matrix(0.9499 0.3126 -0.3126 0.9499 21.7827 -16.8312)">
			<stop  offset="0" style="stop-color:#808285"/>
			<stop  offset="1" style="stop-color:#BCBEC0"/>
		</linearGradient>
		<path fill="url(#SVGID_7_)" d="M46.915,96.885c-6.88-3.404-9.713-11.783-6.305-18.668c3.402-6.879,11.781-9.711,18.663-6.305
			c6.885,3.406,9.718,11.785,6.313,18.666C62.178,97.461,53.801,100.291,46.915,96.885L46.915,96.885z"/>
		
			<radialGradient id="SVGID_8_" cx="-30.9644" cy="467.9492" r="12.0186" gradientTransform="matrix(0.8963 0.4435 -0.4435 0.8963 288.3843 -321.2917)" gradientUnits="userSpaceOnUse">
			<stop  offset="0" style="stop-color:#FAFAFA"/>
			<stop  offset="0.3629" style="stop-color:#E5E5E5"/>
			<stop  offset="1" style="stop-color:#C4C4C4"/>
		</radialGradient>
		<path fill="url(#SVGID_8_)" d="M63.869,89.727c-2.944,5.953-10.154,8.387-16.104,5.441c-5.945-2.941-8.387-10.152-5.443-16.102
			c2.944-5.947,10.156-8.381,16.103-5.439C64.375,76.572,66.813,83.781,63.869,89.727z"/>
		<g>
			
				<linearGradient id="SVGID_9_" gradientUnits="userSpaceOnUse" x1="-39.6592" y1="465.585" x2="-33.498" y2="465.585" gradientTransform="matrix(0.8963 0.4435 -0.4435 0.8963 288.3843 -321.2917)">
				<stop  offset="0" style="stop-color:#00B2DE"/>
				<stop  offset="1" style="stop-color:#99DBF6"/>
			</linearGradient>
			<path fill="url(#SVGID_9_)" d="M48.156,82.717c1.619,0.529,3.357-0.355,3.885-1.975c0.53-1.619-0.353-3.354-1.971-3.883
				c-1.621-0.529-3.356,0.352-3.886,1.973C45.655,80.447,46.536,82.189,48.156,82.717z"/>
			
				<linearGradient id="SVGID_10_" gradientUnits="userSpaceOnUse" x1="53.9482" y1="91.1016" x2="60.1055" y2="91.1016" gradientTransform="matrix(0.9499 0.3126 -0.3126 0.9499 21.7827 -16.8312)">
				<stop  offset="0" style="stop-color:#F39600"/>
				<stop  offset="1" style="stop-color:#FFBF00"/>
			</linearGradient>
			<path fill="url(#SVGID_10_)" d="M48.432,84.602c-1.618-0.529-3.359,0.355-3.883,1.973c-0.529,1.619,0.352,3.357,1.971,3.891
				c1.619,0.525,3.356-0.359,3.882-1.977C50.932,86.873,50.052,85.129,48.432,84.602z"/>
			
				<linearGradient id="SVGID_11_" gradientUnits="userSpaceOnUse" x1="-30.4785" y1="463.0312" x2="-24.3169" y2="463.0312" gradientTransform="matrix(0.8963 0.4435 -0.4435 0.8963 288.3843 -321.2917)">
				<stop  offset="0" style="stop-color:#FF1F00"/>
				<stop  offset="1" style="stop-color:#FF9D00"/>
			</linearGradient>
			<path fill="url(#SVGID_11_)" d="M57.514,84.498c1.619,0.527,3.354-0.352,3.888-1.969c0.524-1.619-0.356-3.359-1.977-3.889
				c-1.614-0.527-3.354,0.355-3.881,1.975C55.012,82.23,55.896,83.971,57.514,84.498z"/>
			
				<linearGradient id="SVGID_12_" gradientUnits="userSpaceOnUse" x1="-28.5132" y1="470.6982" x2="-22.353" y2="470.6982" gradientTransform="matrix(0.8963 0.4435 -0.4435 0.8963 288.3843 -321.2917)">
				<stop  offset="0" style="stop-color:#80E21B"/>
				<stop  offset="1" style="stop-color:#80B400"/>
			</linearGradient>
			<path fill="url(#SVGID_12_)" d="M59.761,90.271c0.529-1.619-0.353-3.355-1.971-3.887c-1.618-0.527-3.355,0.355-3.886,1.977
				c-0.531,1.615,0.354,3.352,1.974,3.883C57.495,92.773,59.23,91.887,59.761,90.271z"/>
		</g>
	</g>
	<g>
		<g>
			
				<linearGradient id="SVGID_13_" gradientUnits="userSpaceOnUse" x1="-1113.6465" y1="2856.3271" x2="-1178.0293" y2="2856.3179" gradientTransform="matrix(-1.000000e-04 -0.6994 0.6996 0 -1921.6675 -766.7272)">
				<stop  offset="0" style="stop-color:#EC008C"/>
				<stop  offset="1" style="stop-color:#C40075"/>
			</linearGradient>
			<path fill="url(#SVGID_13_)" d="M50.646,29.667c-1.418,1.35-2.123,3.051-2.123,4.963c0,1.988,0.709,3.684,2.125,5.033
				l15.393,15.463c1.418,1.348,3.049,2.059,5.037,2.059c1.914,0,3.619-0.711,5.037-2.059c1.346-1.416,2.055-3.119,2.055-5.033
				c0-1.984-0.709-3.617-2.059-5.035l-3.332-3.262L97.846,41.8c1.986,0,3.688-0.711,5.031-2.129c1.424-1.35,2.061-3.051,2.061-5.033
				c0-1.916-0.637-3.619-2.061-4.967c-1.344-1.418-3.049-2.057-5.033-2.127H72.775l3.336-3.264c1.346-1.35,2.059-3.051,2.055-5.037
				c0-1.91-0.711-3.613-2.055-5.031c-1.42-1.348-3.123-2.057-5.037-2.057c-1.986,0-3.617,0.705-5.037,2.057L50.646,29.667z"/>
			<g opacity="0.6">
				<path fill="#FFFFFF" d="M52.251,31.405l14.295-14.356c1.319-1.255,2.834-1.909,4.679-1.909c1.778,0,3.36,0.658,4.679,1.909
					c0.961,1.014,1.568,2.185,1.8,3.479c0.007-0.123,0.016-0.243,0.016-0.367c0-1.774-0.659-3.356-1.907-4.674
					c-1.319-1.251-2.901-1.91-4.679-1.91c-1.846,0-3.36,0.655-4.679,1.91L52.16,29.841c-1.317,1.253-1.973,2.834-1.973,4.609
					c0,0.424,0.039,0.832,0.108,1.227C50.374,34.04,51.018,32.577,52.251,31.405z"/>
				<path fill="#FFFFFF" d="M70.548,29.809h27.003c1.844,0.064,3.428,0.658,4.675,1.976c1.007,0.953,1.587,2.096,1.809,3.373
					c0.004-0.108,0.014-0.214,0.014-0.322c0-1.78-0.592-3.362-1.914-4.613c-1.248-1.317-2.832-1.911-4.675-1.976H72.145
					L70.548,29.809z"/>
			</g>
		</g>
		<g>
			
				<linearGradient id="SVGID_14_" gradientUnits="userSpaceOnUse" x1="3578.9873" y1="4400.04" x2="3578.9873" y2="4445.0684" gradientTransform="matrix(-1 0 0 -1 3613.6562 4482.1367)">
				<stop  offset="0" style="stop-color:#80C11B"/>
				<stop  offset="1" style="stop-color:#80E21B"/>
			</linearGradient>
			<path fill="url(#SVGID_14_)" d="M60.751,64.586c1.416-1.35,2.123-3.051,2.123-4.967c0-1.984-0.707-3.684-2.125-5.031
				L45.353,39.126c-1.416-1.348-3.049-2.057-5.035-2.057c-1.916,0-3.621,0.709-5.037,2.057c-1.346,1.416-2.059,3.117-2.059,5.033
				c0,1.988,0.713,3.617,2.062,5.035l3.332,3.262L13.55,52.453c-1.986,0-3.688,0.713-5.033,2.129
				c-1.42,1.352-2.057,3.049-2.057,5.033c0,1.916,0.637,3.617,2.057,4.967c1.348,1.418,3.051,2.059,5.035,2.123l25.066,0.004
				l-3.332,3.264c-1.348,1.35-2.059,3.053-2.059,5.037c0,1.912,0.713,3.613,2.059,5.031c1.418,1.346,3.123,2.057,5.033,2.057
				c1.99,0,3.621-0.705,5.041-2.057L60.751,64.586z"/>
			<g opacity="0.6">
				<path fill="#FFFFFF" d="M59.414,56.168L45.119,41.812c-1.319-1.255-2.834-1.909-4.679-1.909c-1.778,0-3.36,0.658-4.679,1.909
					c-0.961,1.014-1.568,2.185-1.8,3.479c-0.007-0.123-0.016-0.243-0.016-0.367c0-1.774,0.659-3.356,1.907-4.674
					c1.319-1.251,2.901-1.91,4.679-1.91c1.846,0,3.36,0.655,4.679,1.91l14.295,14.355c1.317,1.253,1.973,2.834,1.973,4.609
					c0,0.424-0.039,0.832-0.108,1.227C61.292,58.803,60.647,57.34,59.414,56.168z"/>
				<path fill="#FFFFFF" d="M40.977,54.643H13.974c-1.844,0.064-3.428,0.658-4.675,1.976c-1.007,0.953-1.587,2.096-1.809,3.373
					c-0.004-0.108-0.014-0.214-0.014-0.322c0-1.78,0.592-3.362,1.914-4.613c1.248-1.317,2.832-1.911,4.675-1.976H39.38
					L40.977,54.643z"/>
			</g>
		</g>
	</g>
</g>
</svg>
