<?xml version="1.0" encoding="utf-8"?>
<!-- Generator: Adobe Illustrator 13.0.0, SVG Export Plug-In . SVG Version: 6.00 Build 14948)  -->
<!DOCTYPE svg PUBLIC "-//W3C//DTD SVG 1.1//EN" "http://www.w3.org/Graphics/SVG/1.1/DTD/svg11.dtd">
<svg version="1.1" id="Layer_1" xmlns="http://www.w3.org/2000/svg" xmlns:xlink="http://www.w3.org/1999/xlink" x="0px" y="0px"
	 width="128px" height="128px" viewBox="0 0 128 128" enable-background="new 0 0 128 128" xml:space="preserve">
<g>
	<radialGradient id="SVGID_1_" cx="63.418" cy="64.0005" r="62.0549" gradientUnits="userSpaceOnUse">
		<stop  offset="0" style="stop-color:#FAFAFA"/>
		<stop  offset="0.3109" style="stop-color:#F4F4F4"/>
		<stop  offset="0.7262" style="stop-color:#E3E3E3"/>
		<stop  offset="1" style="stop-color:#D4D4D4"/>
	</radialGradient>
	<path fill="url(#SVGID_1_)" stroke="#B3B3B3" stroke-width="2" d="M18.299,1.924l90.232,0.006c9.342,0,16.916,7.578,16.916,16.927
		l0.004,90.294c0,9.349-7.574,16.927-16.914,16.927l-90.234-0.004c-9.341,0-16.915-7.58-16.915-16.928L1.385,18.851
		C1.384,9.503,8.958,1.924,18.299,1.924L18.299,1.924z"/>
	<g>
		<g>
			<g>
				<linearGradient id="SVGID_2_" gradientUnits="userSpaceOnUse" x1="63.4185" y1="21.0498" x2="63.4185" y2="108.9517">
					<stop  offset="0" style="stop-color:#5F5D5C"/>
					<stop  offset="1" style="stop-color:#181500"/>
				</linearGradient>
				<path fill="url(#SVGID_2_)" d="M105.506,21.05H21.332c-1.029,0-1.863,0.834-1.863,1.863c0,0.184,0.035,0.357,0.084,0.524v15.785
					c-0.049,0.167-0.084,0.341-0.084,0.524s0.035,0.357,0.084,0.524v15.789c-0.049,0.167-0.084,0.341-0.084,0.524
					c0,0.183,0.035,0.356,0.084,0.523v15.787c-0.049,0.168-0.084,0.341-0.084,0.524c0,0.183,0.035,0.356,0.084,0.523v15.786
					c-0.049,0.168-0.084,0.341-0.084,0.524s0.035,0.356,0.084,0.524v15.787c-0.049,0.167-0.084,0.34-0.084,0.523
					c0,1.029,0.834,1.863,1.863,1.863h84.174c1.029,0,1.863-0.834,1.863-1.863V22.913C107.369,21.884,106.535,21.05,105.506,21.05z
					 M56.916,58.445h13.092v13.11H56.916V58.445z M53.189,71.556H40.095v-13.11h13.094V71.556z M73.732,58.445h13.092v13.11H73.732
					V58.445z M73.732,54.722V41.61h13.092v13.111H73.732z M70.008,54.722H56.916V41.61h13.092V54.722z M53.189,54.722H40.095V41.61
					h13.094V54.722z M36.371,54.722H23.279V41.61h13.092V54.722z M36.371,58.445v13.11H23.279v-13.11H36.371z M36.371,75.28V88.39
					H23.279V75.28H36.371z M40.095,75.28h13.094V88.39H40.095V75.28z M56.916,75.28h13.092V88.39H56.916V75.28z M73.732,75.28
					h13.092V88.39H73.732V75.28z M90.551,75.28h13.094V88.39H90.551V75.28z M90.551,71.556v-13.11h13.094v13.11H90.551z
					 M90.551,54.722V41.61h13.094v13.111H90.551z M90.551,37.884V24.776h13.094v13.107H90.551z M86.824,37.884H73.732V24.776h13.092
					V37.884z M70.008,37.884H56.916V24.776h13.092V37.884z M53.189,37.884H40.095V24.776h13.094V37.884z M36.371,37.884H23.279
					V24.776h13.092V37.884z M23.279,92.116h13.092v13.108H23.279V92.116z M40.095,92.116h13.094v13.108H40.095V92.116z
					 M56.916,92.116h13.092v13.108H56.916V92.116z M73.732,92.116h13.092v13.108H73.732V92.116z M90.551,92.116h13.094v13.108
					H90.551V92.116z"/>
			</g>
		</g>
	</g>
	<path fill="#B3B3B3" d="M108.562,120.9l-90.371-0.005c-8.541,0-15.588-6.334-16.753-14.562v2.415
		c0,9.349,7.574,16.927,16.915,16.927l90.234,0.005c9.34,0,16.916-7.578,16.916-16.926v-4.803
		C125.498,113.312,117.916,120.9,108.562,120.9z"/>
	<path fill="#FFFFFF" d="M21.341,10.786l84.329,0.004c7.971,0,14.545,5.911,15.631,13.588v-2.254
		c0-8.724-7.066-15.795-15.783-15.795L21.321,6.324c-8.718,0-15.784,7.073-15.784,15.796v4.48
		C5.539,17.867,12.615,10.786,21.341,10.786z"/>
</g>
</svg>
