<?xml version="1.0" encoding="utf-8"?>
<!-- Generator: Adobe Illustrator 13.0.0, SVG Export Plug-In . SVG Version: 6.00 Build 14948)  -->
<!DOCTYPE svg PUBLIC "-//W3C//DTD SVG 1.1//EN" "http://www.w3.org/Graphics/SVG/1.1/DTD/svg11.dtd">
<svg version="1.1" id="Layer_1" xmlns="http://www.w3.org/2000/svg" xmlns:xlink="http://www.w3.org/1999/xlink" x="0px" y="0px"
	 width="128px" height="128px" viewBox="0 0 128 128" enable-background="new 0 0 128 128" xml:space="preserve">
<g>
	<g>
		<linearGradient id="SVGID_1_" gradientUnits="userSpaceOnUse" x1="33.584" y1="75.0264" x2="33.584" y2="82">
			<stop  offset="0" style="stop-color:#D5D7D8"/>
			<stop  offset="1" style="stop-color:#5C5F61"/>
		</linearGradient>
		<path fill="url(#SVGID_1_)" d="M36.979,80.012c0,1.099-0.89,1.988-1.986,1.988h-2.816c-1.1,0-1.988-0.892-1.988-1.988v-3
			c0-1.098,0.891-1.985,1.988-1.985h2.814c1.099,0,1.986,0.89,1.986,1.985L36.979,80.012L36.979,80.012z"/>
		
			<radialGradient id="SVGID_2_" cx="-483.7466" cy="585.1348" r="9.2674" gradientTransform="matrix(0.9345 -1.404280e-05 0 0.9345 485.6724 -475.3534)" gradientUnits="userSpaceOnUse">
			<stop  offset="0" style="stop-color:#FAFAFA"/>
			<stop  offset="0.3109" style="stop-color:#F4F4F4"/>
			<stop  offset="0.7262" style="stop-color:#E3E3E3"/>
			<stop  offset="1" style="stop-color:#D4D4D4"/>
		</radialGradient>
		<path fill="url(#SVGID_2_)" stroke="#999999" d="M41.415,74.554c-0.546,2.943-2.352,5.253-5.252,5.253h-5.105
			c-2.899,0-4.628-2.329-5.251-5.253l-1.167-6.172c0-2.9,2.353-5.252,5.251-5.252h7.44c2.901,0,5.252,2.351,5.252,5.252
			L41.415,74.554z"/>
		
			<linearGradient id="SVGID_3_" gradientUnits="userSpaceOnUse" x1="-360.0679" y1="868.6338" x2="-400.6535" y2="840.2154" gradientTransform="matrix(1 0 0 1 412.6201 -813.9912)">
			<stop  offset="0" style="stop-color:#FF1F00"/>
			<stop  offset="1" style="stop-color:#FF9D00"/>
		</linearGradient>
		<path fill="url(#SVGID_3_)" d="M24.079,68.278c0,0-1.207-7.325-4.997-13.651c-3.791-6.328-9.241-12.096-8.285-23.145
			c0.871-10.078,12.681-18.49,23.303-18.49s21.486,8.863,22.293,18.49c0.81,9.625-6.061,18.32-8.812,23.998
			c-2.751,5.676-4.576,12.798-4.576,12.798s-6.708,0.908-9.783,0.845C30.147,69.058,24.079,68.278,24.079,68.278z"/>
		<path opacity="0.5" fill="#FFFFFF" d="M15.227,27.915c3.668-6.085,11.535-10.473,18.791-10.473
			c7.188,0,14.494,4.536,17.947,10.473h1.248C50.645,20.723,42.25,14.77,34.018,14.77c-8.281,0-17.363,5.713-20.086,13.146H15.227z"
			/>
	</g>
	<g>
		
			<linearGradient id="SVGID_4_" gradientUnits="userSpaceOnUse" x1="-13.0679" y1="440.9688" x2="-6.9631" y2="485.8351" gradientTransform="matrix(0.8963 0.4435 -0.4435 0.8963 288.3843 -321.2917)">
			<stop  offset="0" style="stop-color:#5F5D5C"/>
			<stop  offset="1" style="stop-color:#181500"/>
		</linearGradient>
		<path fill="url(#SVGID_4_)" d="M118.341,107.866c2.873-8.817,0.084-18.1-6.354-23.932l-0.062-0.053
			c-3.902-3.383-9.234-7.163-16.413-10.714c-4.177-2.067-8.984-4.063-14.505-5.856c-15.485-5.061-27.646-5.598-35.365-4.68
			c-7.343,1.064-13.84,5.573-17.227,12.398c-0.474,0.959-0.893,1.984-1.239,3.066c-3.539,10.859,1.539,22.478,11.523,27.416
			c0.97,0.48,1.98,0.895,3.023,1.236c8.539,2.787,17.512,0.264,23.367-5.744c2.583-0.117,4.563,0.271,6.21,1.088
			c1.051,0.523,2.016,1.231,2.968,2.245c1.13,7.131,5.62,13.495,12.354,16.831c0.97,0.481,1.977,0.893,3.017,1.238
			c10.909,3.554,22.522-1.531,27.467-11.514C117.577,109.92,117.997,108.905,118.341,107.866z"/>
		<g>
			
				<linearGradient id="SVGID_5_" gradientUnits="userSpaceOnUse" x1="-12.8643" y1="441.123" x2="-9.481" y2="466.6705" gradientTransform="matrix(0.8963 0.4435 -0.4435 0.8963 288.3843 -321.2917)">
				<stop  offset="0" style="stop-color:#6D6F71"/>
				<stop  offset="1" style="stop-color:#939598"/>
			</linearGradient>
			<path fill="url(#SVGID_5_)" d="M29.277,75.452c3.169-6.4,9.345-10.84,16.522-11.881l0,0c5.688-0.674,17.795-0.95,34.904,4.649
				l0,0c5.108,1.655,9.946,3.608,14.381,5.802l0,0c6.188,3.064,11.646,6.615,16.227,10.6l0,0c6.396,5.781,8.779,14.777,6.114,22.945
				l0,0c-0.166,0.504,3.537-12.591-7.381-21.521l0,0c-4.427-3.841-9.743-7.312-15.809-10.313l0,0
				c-4.341-2.149-9.093-4.062-14.127-5.694l0,0c-16.838-5.505-28.645-5.208-34.061-4.567l0,0
				C33.216,66.774,29.043,75.927,29.277,75.452L29.277,75.452z"/>
		</g>
		
			<linearGradient id="SVGID_6_" gradientUnits="userSpaceOnUse" x1="-8.7471" y1="471.9775" x2="-13.0869" y2="444.0612" gradientTransform="matrix(0.8963 0.4435 -0.4435 0.8963 288.3843 -321.2917)">
			<stop  offset="0" style="stop-color:#5F5D5C"/>
			<stop  offset="1" style="stop-color:#181500"/>
		</linearGradient>
		<path fill="url(#SVGID_6_)" d="M40.396,102.083c-8.354-4.135-12.474-13.936-9.578-22.801c0.277-0.887,0.623-1.734,1.028-2.555
			c2.755-5.551,8.118-9.413,14.347-10.314c5.357-0.633,16.986-0.899,33.625,4.535c4.992,1.623,9.698,3.521,13.997,5.65
			c5.976,2.957,11.228,6.379,15.605,10.175c5.526,5.001,7.598,12.814,5.28,19.907c-0.293,0.869-0.638,1.728-1.027,2.513
			c-4.137,8.356-13.959,12.479-22.85,9.581c-0.83-0.279-1.683-0.631-2.502-1.035c-5.477-2.71-9.314-7.944-10.273-14l-0.185-1.158
			l-0.805-0.86c-1.225-1.307-2.549-2.3-4.049-3.055c-2.309-1.142-4.952-1.626-8.091-1.481l-1.512,0.063l-1.057,1.09
			c-5.074,5.199-12.521,7.034-19.446,4.772C42.053,102.833,41.211,102.485,40.396,102.083L40.396,102.083z"/>
		
			<linearGradient id="SVGID_7_" gradientUnits="userSpaceOnUse" x1="95.1719" y1="87.6338" x2="123.0391" y2="87.6338" gradientTransform="matrix(0.9499 0.3126 -0.3126 0.9499 21.7827 -16.8312)">
			<stop  offset="0" style="stop-color:#808285"/>
			<stop  offset="1" style="stop-color:#BCBEC0"/>
		</linearGradient>
		<path fill="url(#SVGID_7_)" d="M91.849,113.003c-6.882-3.405-9.715-11.781-6.308-18.664c3.405-6.883,11.782-9.711,18.666-6.307
			c6.881,3.406,9.713,11.783,6.309,18.664C107.109,113.581,98.733,116.41,91.849,113.003L91.849,113.003z"/>
		
			<radialGradient id="SVGID_8_" cx="16.4556" cy="462.4707" r="12.0186" gradientTransform="matrix(0.8963 0.4435 -0.4435 0.8963 288.3843 -321.2917)" gradientUnits="userSpaceOnUse">
			<stop  offset="0" style="stop-color:#FAFAFA"/>
			<stop  offset="0.3629" style="stop-color:#E5E5E5"/>
			<stop  offset="1" style="stop-color:#C4C4C4"/>
		</radialGradient>
		<path fill="url(#SVGID_8_)" d="M108.8,105.849c-2.947,5.949-10.154,8.384-16.104,5.44c-5.95-2.944-8.387-10.152-5.44-16.103
			c2.943-5.949,10.152-8.383,16.099-5.441C109.308,92.69,111.743,99.896,108.8,105.849z"/>
		
			<linearGradient id="SVGID_9_" gradientUnits="userSpaceOnUse" x1="15.1914" y1="453.6084" x2="17.629" y2="470.7721" gradientTransform="matrix(0.8963 0.4435 -0.4435 0.8963 288.3843 -321.2917)">
			<stop  offset="0" style="stop-color:#80E21B"/>
			<stop  offset="1" style="stop-color:#80B400"/>
		</linearGradient>
		<path fill="url(#SVGID_9_)" d="M106.53,103.299c0.488-1.488-0.323-3.088-1.814-3.573l-3.117-1.018l1.021-3.127
			c0.484-1.488-0.323-3.086-1.815-3.573c-1.487-0.485-3.089,0.327-3.574,1.813l-1.021,3.125l-3.119-1.02
			c-1.487-0.49-3.088,0.326-3.576,1.813c-0.439,1.354,0.193,2.8,1.433,3.417c0.122,0.061,0.248,0.111,0.381,0.158l3.123,1.018
			l-1.024,3.123c-0.44,1.354,0.19,2.803,1.439,3.42c0.118,0.057,0.247,0.111,0.379,0.152c1.488,0.486,3.088-0.326,3.575-1.813
			l1.018-3.12l3.121,1.018C104.446,105.599,106.046,104.786,106.53,103.299z"/>
		
			<linearGradient id="SVGID_10_" gradientUnits="userSpaceOnUse" x1="42.8999" y1="87.7031" x2="70.7686" y2="87.7031" gradientTransform="matrix(0.9499 0.3126 -0.3126 0.9499 21.7827 -16.8312)">
			<stop  offset="0" style="stop-color:#808285"/>
			<stop  offset="1" style="stop-color:#BCBEC0"/>
		</linearGradient>
		<path fill="url(#SVGID_10_)" d="M42.172,96.729c-6.88-3.404-9.713-11.783-6.305-18.667c3.402-6.88,11.781-9.712,18.663-6.306
			c6.885,3.406,9.718,11.785,6.312,18.666C57.436,97.306,49.059,100.137,42.172,96.729L42.172,96.729z"/>
		
			<radialGradient id="SVGID_11_" cx="-35.2837" cy="469.9141" r="12.0186" gradientTransform="matrix(0.8963 0.4435 -0.4435 0.8963 288.3843 -321.2917)" gradientUnits="userSpaceOnUse">
			<stop  offset="0" style="stop-color:#FAFAFA"/>
			<stop  offset="0.3629" style="stop-color:#E5E5E5"/>
			<stop  offset="1" style="stop-color:#C4C4C4"/>
		</radialGradient>
		<path fill="url(#SVGID_11_)" d="M59.126,89.572c-2.944,5.952-10.154,8.386-16.104,5.441c-5.945-2.942-8.387-10.152-5.443-16.103
			c2.944-5.947,10.156-8.381,16.103-5.439C59.632,76.417,62.07,83.626,59.126,89.572z"/>
		<g>
			
				<linearGradient id="SVGID_12_" gradientUnits="userSpaceOnUse" x1="-43.978" y1="467.5488" x2="-37.8164" y2="467.5488" gradientTransform="matrix(0.8963 0.4435 -0.4435 0.8963 288.3843 -321.2917)">
				<stop  offset="0" style="stop-color:#00B2DE"/>
				<stop  offset="1" style="stop-color:#99DBF6"/>
			</linearGradient>
			<path fill="url(#SVGID_12_)" d="M43.413,82.562c1.619,0.529,3.357-0.354,3.885-1.974c0.53-1.619-0.353-3.354-1.971-3.884
				c-1.621-0.529-3.356,0.352-3.886,1.974C40.912,80.292,41.793,82.034,43.413,82.562z"/>
			
				<linearGradient id="SVGID_13_" gradientUnits="userSpaceOnUse" x1="49.3945" y1="92.4365" x2="55.5527" y2="92.4365" gradientTransform="matrix(0.9499 0.3126 -0.3126 0.9499 21.7827 -16.8312)">
				<stop  offset="0" style="stop-color:#F39600"/>
				<stop  offset="1" style="stop-color:#FFBF00"/>
			</linearGradient>
			<path fill="url(#SVGID_13_)" d="M43.689,84.447c-1.618-0.53-3.359,0.354-3.883,1.972c-0.529,1.619,0.352,3.357,1.971,3.891
				c1.619,0.525,3.356-0.358,3.882-1.977C46.189,86.718,45.31,84.975,43.689,84.447z"/>
			
				<linearGradient id="SVGID_14_" gradientUnits="userSpaceOnUse" x1="-34.7988" y1="464.9961" x2="-28.6357" y2="464.9961" gradientTransform="matrix(0.8963 0.4435 -0.4435 0.8963 288.3843 -321.2917)">
				<stop  offset="0" style="stop-color:#FF1F00"/>
				<stop  offset="1" style="stop-color:#FF9D00"/>
			</linearGradient>
			<path fill="url(#SVGID_14_)" d="M52.771,84.343c1.619,0.527,3.354-0.352,3.888-1.968c0.524-1.62-0.356-3.36-1.977-3.89
				c-1.614-0.527-3.354,0.356-3.881,1.975C50.27,82.076,51.153,83.815,52.771,84.343z"/>
			
				<linearGradient id="SVGID_15_" gradientUnits="userSpaceOnUse" x1="-32.8315" y1="472.6621" x2="-26.6724" y2="472.6621" gradientTransform="matrix(0.8963 0.4435 -0.4435 0.8963 288.3843 -321.2917)">
				<stop  offset="0" style="stop-color:#80E21B"/>
				<stop  offset="1" style="stop-color:#80B400"/>
			</linearGradient>
			<path fill="url(#SVGID_15_)" d="M55.019,90.117c0.529-1.619-0.353-3.356-1.971-3.888c-1.618-0.527-3.355,0.356-3.886,1.978
				c-0.531,1.614,0.354,3.352,1.974,3.882C52.752,92.618,54.487,91.732,55.019,90.117z"/>
		</g>
	</g>
</g>
</svg>
