<?xml version="1.0" encoding="utf-8"?>
<!-- Generator: Adobe Illustrator 13.0.0, SVG Export Plug-In . SVG Version: 6.00 Build 14948)  -->
<!DOCTYPE svg PUBLIC "-//W3C//DTD SVG 1.1//EN" "http://www.w3.org/Graphics/SVG/1.1/DTD/svg11.dtd">
<svg version="1.1" id="Layer_1" xmlns="http://www.w3.org/2000/svg" xmlns:xlink="http://www.w3.org/1999/xlink" x="0px" y="0px"
	 width="128px" height="128px" viewBox="0 0 128 128" enable-background="new 0 0 128 128" xml:space="preserve">
<g>
	<g>
		
			<radialGradient id="SVGID_1_" cx="63.9023" cy="64.002" r="53.1358" gradientTransform="matrix(1 0 0 1 0 -9.765625e-04)" gradientUnits="userSpaceOnUse">
			<stop  offset="0" style="stop-color:#FAFAFA"/>
			<stop  offset="0.3109" style="stop-color:#F4F4F4"/>
			<stop  offset="0.7262" style="stop-color:#E3E3E3"/>
			<stop  offset="1" style="stop-color:#D4D4D4"/>
		</radialGradient>
		<path fill="url(#SVGID_1_)" stroke="#B3B3B3" stroke-width="2" d="M108.586,22.207v83.586c0,10.285-8.344,18.625-18.637,18.625
			H37.856c-10.295,0-18.637-8.34-18.637-18.625V22.207c0-10.285,8.342-18.623,18.637-18.623h52.093
			C100.242,3.584,108.586,11.922,108.586,22.207L108.586,22.207z"/>
		<path fill="#B3B3B3" d="M90.145,122.092H38.05c-10.295,0-18.637-8.34-18.637-18.625v2.326c0,10.285,8.342,18.625,18.637,18.625
			h52.094c10.293,0,18.637-8.34,18.637-18.625v-2.326C108.781,113.752,100.438,122.092,90.145,122.092z"/>
		<path fill="#FFFFFF" d="M30.385,11.57c2.079-1.734,4.432-2.905,7.665-2.905h52.094c3.234,0,5.586,1.171,7.666,2.905h2.629
			c-2.621-2.646-5.805-4.238-10.295-4.238H38.05c-4.489,0-7.673,1.593-10.294,4.238H30.385z"/>
	</g>
	<g>
		
			<linearGradient id="SVGID_2_" gradientUnits="userSpaceOnUse" x1="-1219.9351" y1="-1577.9399" x2="-1219.9351" y2="-1625.2612" gradientTransform="matrix(1 0 0 1 1283.9355 1694.668)">
			<stop  offset="0" style="stop-color:#00006A"/>
			<stop  offset="1" style="stop-color:#3396ED"/>
		</linearGradient>
		<path fill="url(#SVGID_2_)" stroke="#00006A" stroke-miterlimit="3.8637" d="M81.16,102.036c1.133-1.189,1.725-2.559,1.725-4.226
			c0-1.604-0.596-3.034-1.725-4.224c-1.189-1.129-2.617-1.725-4.221-1.725c-1.666-0.003-3.094,0.595-4.225,1.725l-2.736,2.797
			l-0.002-21.028c-0.059-1.664-0.594-3.092-1.783-4.224c-1.131-1.19-2.559-1.725-4.166-1.725c-1.666,0-3.09,0.534-4.221,1.725
			c-1.189,1.13-1.787,2.558-1.787,4.222l0.002,21.028l-2.734-2.797c-1.189-1.13-2.557-1.727-4.225-1.727
			c-1.607,0-3.033,0.597-4.221,1.726c-1.131,1.189-1.727,2.616-1.727,4.224c0,1.666,0.596,3.035,1.727,4.226l12.967,12.911
			c1.133,1.189,2.559,1.784,4.223,1.784c1.607,0,3.031-0.593,4.166-1.782L81.16,102.036z"/>
		<g opacity="0.5">
			<path fill="#FFFFFF" d="M60.585,72.914c0.921-0.971,2.081-1.407,3.438-1.407c1.31,0,2.472,0.437,3.394,1.407
				c0.939,0.894,1.375,2.015,1.443,3.318h0.01v-0.519c-0.047-1.355-0.484-2.519-1.453-3.44c-0.922-0.97-2.084-1.405-3.394-1.405
				c-1.357,0-2.518,0.436-3.438,1.405c-0.969,0.92-1.456,2.083-1.456,3.439v0.64C59.131,74.997,59.617,73.834,60.585,72.914z"/>
		</g>
	</g>
</g>
</svg>
