<?xml version="1.0" encoding="utf-8"?>
<!-- Generator: Adobe Illustrator 13.0.0, SVG Export Plug-In . SVG Version: 6.00 Build 14948)  -->
<!DOCTYPE svg PUBLIC "-//W3C//DTD SVG 1.1//EN" "http://www.w3.org/Graphics/SVG/1.1/DTD/svg11.dtd">
<svg version="1.1" id="Layer_1" xmlns="http://www.w3.org/2000/svg" xmlns:xlink="http://www.w3.org/1999/xlink" x="0px" y="0px"
	 width="128px" height="128px" viewBox="0 0 128 128" enable-background="new 0 0 128 128" xml:space="preserve">
<g>
	<g>
		<g>
			
				<radialGradient id="SVGID_1_" cx="-348.6201" cy="877.7432" r="54.5249" gradientTransform="matrix(1 0 0 1 412.6201 -813.9912)" gradientUnits="userSpaceOnUse">
				<stop  offset="0" style="stop-color:#FAFAFA"/>
				<stop  offset="0.3109" style="stop-color:#F4F4F4"/>
				<stop  offset="0.7262" style="stop-color:#E3E3E3"/>
				<stop  offset="1" style="stop-color:#D4D4D4"/>
			</radialGradient>
			<path fill="url(#SVGID_1_)" stroke="#B3B3B3" stroke-width="2" d="M101.48,9.227H77.967c-9.414,0-17.045,7.633-17.045,17.043
				v34.4H26.518c-9.412,0-17.043,7.634-17.043,17.045v23.519c0,9.41,7.631,17.043,17.043,17.043h74.963
				c0.588,0,1.17-0.029,1.742-0.088c8.596-0.873,15.303-8.131,15.303-16.955V26.27C118.525,16.857,110.895,9.227,101.48,9.227z"/>
		</g>
		<g>
			<radialGradient id="SVGID_2_" cx="64" cy="63.7515" r="54.5252" gradientUnits="userSpaceOnUse">
				<stop  offset="0" style="stop-color:#FAFAFA"/>
				<stop  offset="0.3109" style="stop-color:#F4F4F4"/>
				<stop  offset="0.7262" style="stop-color:#E3E3E3"/>
				<stop  offset="1" style="stop-color:#D4D4D4"/>
			</radialGradient>
			<path fill="url(#SVGID_2_)" stroke="#B3B3B3" stroke-width="2" d="M101.48,9.227H77.967c-9.414,0-17.045,7.633-17.045,17.043
				v34.4H26.518c-9.412,0-17.043,7.634-17.043,17.045v23.519c0,9.41,7.631,17.043,17.043,17.043h74.963
				c0.588,0,1.17-0.029,1.742-0.088c8.596-0.873,15.303-8.131,15.303-16.955V26.27C118.525,16.857,110.895,9.227,101.48,9.227z"/>
		</g>
	</g>
	<g>
		<g>
			<g>
				
					<linearGradient id="SVGID_3_" gradientUnits="userSpaceOnUse" x1="-347.0718" y1="853.9736" x2="-347.0718" y2="922.4258" gradientTransform="matrix(1 0 0 1 412.6201 -813.9912)">
					<stop  offset="0" style="stop-color:#99DBF6"/>
					<stop  offset="1" style="stop-color:#00B2DE"/>
				</linearGradient>
				<path fill="url(#SVGID_3_)" d="M91.654,45.533c0-3.066-2.486-5.551-5.553-5.551c-3.067,0-5.553,2.483-5.553,5.551v39.649
					L58.462,85.19l2.613-2.562c1.059-1.061,1.614-2.396,1.614-3.953c0-1.496-0.56-2.838-1.614-3.945
					c-1.112-1.057-2.446-1.61-3.949-1.608c-1.556,0-2.835,0.553-3.946,1.608l-12.07,12.127c-1.109,1.06-1.666,2.396-1.666,3.896
					c0,1.561,0.558,2.893,1.668,3.945l12.07,12.121c1.111,1.059,2.389,1.615,3.949,1.615c1.5,0,2.836-0.56,3.945-1.617
					c1.058-1.111,1.613-2.445,1.613-3.95c0-1.558-0.559-2.835-1.613-3.942l-2.612-2.561L86.09,96.36
					c1.561,0,2.895-0.557,3.947-1.668c1.113-1.062,1.613-2.396,1.613-3.953c0-0.12-0.008-0.236-0.016-0.355
					c0.006-0.102,0.016-0.199,0.016-0.301v-44.55H91.654z"/>
			</g>
		</g>
		<g>
			<g>
				<linearGradient id="SVGID_4_" gradientUnits="userSpaceOnUse" x1="65.5488" y1="39.9824" x2="65.5488" y2="108.4351">
					<stop  offset="0" style="stop-color:#FF9D00"/>
					<stop  offset="1" style="stop-color:#FF1F00"/>
				</linearGradient>
				<path fill="url(#SVGID_4_)" d="M91.654,45.533c0-3.066-2.486-5.551-5.553-5.551c-3.067,0-5.553,2.483-5.553,5.551v39.649
					L58.462,85.19l2.613-2.562c1.059-1.061,1.614-2.396,1.614-3.953c0-1.496-0.56-2.838-1.614-3.945
					c-1.112-1.057-2.446-1.61-3.949-1.608c-1.556,0-2.835,0.553-3.946,1.608l-12.07,12.127c-1.109,1.06-1.666,2.396-1.666,3.896
					c0,1.561,0.558,2.893,1.668,3.945l12.07,12.121c1.111,1.059,2.389,1.615,3.949,1.615c1.5,0,2.836-0.56,3.945-1.617
					c1.058-1.111,1.613-2.445,1.613-3.95c0-1.558-0.559-2.835-1.613-3.942l-2.612-2.561L86.09,96.36
					c1.561,0,2.895-0.557,3.947-1.668c1.113-1.062,1.613-2.396,1.613-3.953c0-0.12-0.008-0.236-0.016-0.355
					c0.006-0.102,0.016-0.199,0.016-0.301v-44.55H91.654z"/>
			</g>
		</g>
	</g>
	<path fill="#FFFFFF" d="M79.65,13.989h21.003c4.508,0,8.611,1.769,11.694,4.658h1.684c-3.179-3.948-7.991-6.466-13.378-6.466H79.65
		c-5.388,0-10.199,2.518-13.379,6.466h1.684C71.039,15.758,75.142,13.989,79.65,13.989z"/>
	<path fill="#B3B3B3" d="M99.743,115.807H28.062c-9.829,0-17.797-7.967-17.797-17.797v2.967c0,9.829,7.968,17.797,17.797,17.797
		h71.682c9.83,0,17.797-7.968,17.797-17.797V98.01C117.54,107.84,109.573,115.807,99.743,115.807z"/>
	<path opacity="0.5" fill="#FFFFFF" d="M41.966,90.206c-0.297,0.305-0.734,0.359-0.974,0.125l0,0
		c-0.241-0.235-0.195-0.674,0.102-0.979l14.011-14.329c0.298-0.305,0.734-0.36,0.976-0.125l0,0c0.24,0.235,0.194,0.673-0.103,0.978
		L41.966,90.206z"/>
	<g opacity="0.5">
		<path fill="#FFFFFF" d="M86.049,42.721c2.712-0.01,4.919,1.945,4.927,4.973l-0.003-0.852c-0.008-3.031-2.214-5.477-4.927-5.467
			c-2.713,0.012-4.903,2.475-4.896,5.503l0.002,0.853C81.145,44.703,83.336,42.731,86.049,42.721z"/>
	</g>
</g>
</svg>
