<?xml version="1.0" encoding="utf-8"?>
<!-- Generator: Adobe Illustrator 13.0.0, SVG Export Plug-In . SVG Version: 6.00 Build 14948)  -->
<!DOCTYPE svg PUBLIC "-//W3C//DTD SVG 1.1//EN" "http://www.w3.org/Graphics/SVG/1.1/DTD/svg11.dtd">
<svg version="1.1" id="Layer_1" xmlns="http://www.w3.org/2000/svg" xmlns:xlink="http://www.w3.org/1999/xlink" x="0px" y="0px"
	 width="128px" height="128px" viewBox="0 0 128 128" enable-background="new 0 0 128 128" xml:space="preserve">
<g>
	<g>
		
			<radialGradient id="SVGID_1_" cx="71.9375" cy="61.2314" r="52.0734" gradientTransform="matrix(1 0 0 1 0 -9.765625e-04)" gradientUnits="userSpaceOnUse">
			<stop  offset="0" style="stop-color:#FAFAFA"/>
			<stop  offset="0.3109" style="stop-color:#F4F4F4"/>
			<stop  offset="0.7262" style="stop-color:#E3E3E3"/>
			<stop  offset="1" style="stop-color:#D4D4D4"/>
		</radialGradient>
		<path fill="url(#SVGID_1_)" stroke="#B3B3B3" stroke-width="2" d="M115.728,20.273v81.915c0,10.08-8.177,18.252-18.265,18.252
			H46.412c-10.089,0-18.264-8.172-18.264-18.252V20.273c0-10.079,8.175-18.251,18.264-18.251h51.051
			C107.551,2.022,115.728,10.194,115.728,20.273L115.728,20.273z"/>
		<path fill="#B3B3B3" d="M97.654,118.16H46.603c-10.089,0-18.264-8.174-18.264-18.252v2.279c0,10.08,8.175,18.252,18.264,18.252
			h51.052c10.088,0,18.265-8.172,18.265-18.252v-2.279C115.919,109.986,107.742,118.16,97.654,118.16z"/>
		<path fill="#FFFFFF" d="M39.091,9.849c2.038-1.7,4.343-2.848,7.512-2.848h51.052c3.17,0,5.475,1.147,7.513,2.848h2.577
			c-2.569-2.593-5.689-4.153-10.09-4.153H46.603c-4.4,0-7.519,1.561-10.088,4.153H39.091z"/>
	</g>
	<g>
		
			<radialGradient id="SVGID_2_" cx="48.9019" cy="76.4502" r="43.7831" gradientTransform="matrix(1 0 0 1 0 -9.765625e-04)" gradientUnits="userSpaceOnUse">
			<stop  offset="0" style="stop-color:#FAFAFA"/>
			<stop  offset="0.3109" style="stop-color:#F4F4F4"/>
			<stop  offset="0.7262" style="stop-color:#E3E3E3"/>
			<stop  offset="1" style="stop-color:#D4D4D4"/>
		</radialGradient>
		<path fill="url(#SVGID_2_)" stroke="#B3B3B3" stroke-width="1.8" d="M85.72,42.011v68.874c0,8.475-6.875,15.348-15.356,15.348
			H27.44c-8.483,0-15.356-6.873-15.356-15.348V42.011c0-8.475,6.873-15.346,15.356-15.346h42.923
			C78.845,26.666,85.72,33.537,85.72,42.011L85.72,42.011z"/>
		<path fill="#B3B3B3" d="M70.523,124.314H27.599c-8.481,0-15.356-6.871-15.356-15.348v1.918c0,8.475,6.875,15.348,15.356,15.348
			h42.925c8.481,0,15.356-6.873,15.356-15.348v-1.918C85.88,117.443,79.005,124.314,70.523,124.314z"/>
		<path fill="#FFFFFF" d="M21.284,33.247c1.713-1.429,3.65-2.394,6.314-2.394h42.925c2.666,0,4.604,0.965,6.316,2.394h2.167
			c-2.16-2.18-4.783-3.492-8.483-3.492H27.599c-3.699,0-6.32,1.312-8.48,3.492H21.284z"/>
	</g>
	<g>
		<g>
			
				<linearGradient id="SVGID_3_" gradientUnits="userSpaceOnUse" x1="-3273.3843" y1="4428.9355" x2="-3273.3843" y2="4388.6543" gradientTransform="matrix(1 0 0 -1 3354.7539 4482.1367)">
				<stop  offset="0" style="stop-color:#80E21B"/>
				<stop  offset="1" style="stop-color:#80B400"/>
			</linearGradient>
			<path fill="url(#SVGID_3_)" stroke="#70993E" d="M71.805,91.643c1.271,1.209,2.729,1.84,4.509,1.84
				c1.71,0,3.235-0.635,4.503-1.84c1.203-1.268,1.843-2.789,1.843-4.502c0-1.773-0.638-3.299-1.843-4.504l-2.98-2.92l22.425-0.006
				c1.774-0.057,3.298-0.629,4.505-1.898c1.27-1.207,1.839-2.729,1.839-4.443c0-1.775-0.569-3.293-1.839-4.504
				c-1.204-1.266-2.727-1.902-4.503-1.902l-22.425,0.002l2.979-2.918c1.208-1.268,1.846-2.724,1.846-4.504
				c0-1.715-0.638-3.236-1.842-4.504c-1.266-1.203-2.792-1.837-4.506-1.837c-1.777,0-3.237,0.634-4.505,1.837L58.036,68.871
				c-1.267,1.205-1.9,2.725-1.9,4.502c0,1.713,0.634,3.236,1.899,4.441L71.805,91.643z"/>
			<g opacity="0.6">
				<path fill="#FFFFFF" d="M59.232,70.287l12.788-12.844c1.181-1.123,2.535-1.709,4.186-1.709c1.591,0,3.007,0.591,4.185,1.709
					c0.861,0.907,1.404,1.954,1.612,3.112c0.005-0.111,0.013-0.217,0.013-0.328c0-1.59-0.589-3.003-1.705-4.182
					c-1.181-1.119-2.596-1.709-4.187-1.709c-1.651,0-3.006,0.586-4.186,1.709L59.149,68.889c-1.178,1.119-1.764,2.535-1.764,4.121
					c0,0.381,0.034,0.746,0.096,1.1C57.552,72.645,58.128,71.334,59.232,70.287z"/>
				<path fill="#FFFFFF" d="M75.727,68.92h24.157c1.648,0.059,3.066,0.592,4.182,1.77c0.9,0.852,1.42,1.873,1.618,3.018
					c0.004-0.098,0.011-0.191,0.011-0.289c0-1.592-0.529-3.008-1.711-4.125c-1.116-1.18-2.534-1.713-4.182-1.77H77.154L75.727,68.92
					z"/>
			</g>
		</g>
	</g>
</g>
</svg>
