<?xml version="1.0" encoding="utf-8"?>
<!-- Generator: Adobe Illustrator 13.0.0, SVG Export Plug-In . SVG Version: 6.00 Build 14948)  -->
<!DOCTYPE svg PUBLIC "-//W3C//DTD SVG 1.1//EN" "http://www.w3.org/Graphics/SVG/1.1/DTD/svg11.dtd">
<svg version="1.1" id="Layer_1" xmlns="http://www.w3.org/2000/svg" xmlns:xlink="http://www.w3.org/1999/xlink" x="0px" y="0px"
	 width="128px" height="129.936px" viewBox="0 0 128 129.936" enable-background="new 0 0 128 129.936" xml:space="preserve">
<g>
	<g>
		<g>
			
				<radialGradient id="SVGID_1_" cx="159.2871" cy="360.9553" r="30.0583" gradientTransform="matrix(1.2329 0 0 1.1831 -132.3845 -332.991)" gradientUnits="userSpaceOnUse">
				<stop  offset="0" style="stop-color:#FAFAFA"/>
				<stop  offset="0.3629" style="stop-color:#E5E5E5"/>
				<stop  offset="1" style="stop-color:#C4C4C4"/>
			</radialGradient>
			<path fill="url(#SVGID_1_)" stroke="#808080" d="M72.617,68.861l30.14,42.767c4.659,7.387,2.643,13.43-4.486,13.43H29.424
				c-7.124,0-8.834-5.649-3.795-12.553l29.354-44.521C60.021,61.079,67.957,61.475,72.617,68.861L72.617,68.861z"/>
			<path opacity="0.5" fill="#FFFFFF" d="M40.191,120.159c0-20.967,16.75-38.172,38.109-39.983l-6.442-9.141
				c-4.355-6.9-11.771-7.271-16.479-0.816l-27.424,41.598c-4.709,6.449-3.114,11.729,3.545,11.729h8.85
				C40.253,122.426,40.191,121.301,40.191,120.159z"/>
		</g>
		<g>
			<radialGradient id="SVGID_2_" cx="64" cy="40.2444" r="37.5918" gradientUnits="userSpaceOnUse">
				<stop  offset="0" style="stop-color:#FAFAFA"/>
				<stop  offset="0.467" style="stop-color:#FFFFFF"/>
				<stop  offset="0.6607" style="stop-color:#E8E8E8"/>
				<stop  offset="1" style="stop-color:#C4C4C4"/>
			</radialGradient>
			<path fill="url(#SVGID_2_)" stroke="#808080" d="M63.999,2.654c-20.76,0-37.592,16.83-37.592,37.591s16.832,37.591,37.592,37.591
				c20.762,0,37.594-16.83,37.594-37.591S84.761,2.654,63.999,2.654z M63.999,58.549c-10.107,0-18.304-8.196-18.304-18.307
				c0-10.106,8.196-18.303,18.304-18.303c10.111,0,18.303,8.196,18.303,18.303C82.302,50.353,74.11,58.549,63.999,58.549z"/>
			<g>
				
					<linearGradient id="SVGID_3_" gradientUnits="userSpaceOnUse" x1="-255.2178" y1="-629.8328" x2="-156.0696" y2="-629.8328" gradientTransform="matrix(1 0 0 -1 238.3271 -561.8745)">
					<stop  offset="0" style="stop-color:#E20A16"/>
					<stop  offset="0.4874" style="stop-color:#E00A16"/>
					<stop  offset="0.6918" style="stop-color:#D90B16"/>
					<stop  offset="0.8432" style="stop-color:#CC0D16"/>
					<stop  offset="0.9678" style="stop-color:#BB0F15"/>
					<stop  offset="1" style="stop-color:#B51015"/>
				</linearGradient>
				<path fill="url(#SVGID_3_)" d="M64.216,58.621c-1.345,0-2.654-0.153-3.915-0.427l-7.837,17.637
					c3.696,1.221,7.644,1.891,11.747,1.891c3.948,0,7.751-0.615,11.323-1.746L68.022,58.22
					C66.796,58.481,65.52,58.621,64.216,58.621z"/>
				
					<linearGradient id="SVGID_4_" gradientUnits="userSpaceOnUse" x1="-185.2437" y1="-560.3733" x2="-114.1609" y2="-631.456" gradientTransform="matrix(1 0 0 -1 238.3271 -561.8745)">
					<stop  offset="0" style="stop-color:#E20A16"/>
					<stop  offset="1" style="stop-color:#B51015"/>
				</linearGradient>
				<path fill="url(#SVGID_4_)" d="M64.216,21.867c1.27,0,2.512,0.128,3.711,0.375l7.604-17.73
					c-3.572-1.131-7.374-1.745-11.32-1.745c-4.097,0-8.036,0.668-11.726,1.884l7.927,17.615
					C61.64,22.008,62.909,21.867,64.216,21.867z"/>
			</g>
			<g>
				
					<linearGradient id="SVGID_5_" gradientUnits="userSpaceOnUse" x1="1364.5586" y1="-5817.3643" x2="1293.6252" y2="-5746.4312" gradientTransform="matrix(0 1 1 0 5792.8467 -1266.3328)">
					<stop  offset="0" style="stop-color:#E20A16"/>
					<stop  offset="0.4874" style="stop-color:#E00A16"/>
					<stop  offset="0.6918" style="stop-color:#D90B16"/>
					<stop  offset="0.8432" style="stop-color:#CC0D16"/>
					<stop  offset="0.9678" style="stop-color:#BB0F15"/>
					<stop  offset="1" style="stop-color:#B51015"/>
				</linearGradient>
				<path fill="url(#SVGID_5_)" d="M45.623,40.46c0-1.345,0.15-2.652,0.427-3.914l-17.637-7.838
					c-1.221,3.696-1.891,7.644-1.891,11.749c0,3.948,0.612,7.751,1.748,11.32l17.754-7.509
					C45.764,43.037,45.623,41.766,45.623,40.46z"/>
				
					<linearGradient id="SVGID_6_" gradientUnits="userSpaceOnUse" x1="1295.7129" y1="-5709.1211" x2="1366.4568" y2="-5638.377" gradientTransform="matrix(0 1 1 0 5792.8467 -1266.3328)">
					<stop  offset="0" style="stop-color:#E20A16"/>
					<stop  offset="1" style="stop-color:#B51015"/>
				</linearGradient>
				<path fill="url(#SVGID_6_)" d="M82.377,40.46c0,1.27-0.13,2.511-0.376,3.711l17.733,7.603c1.129-3.57,1.742-7.372,1.742-11.316
					c0-4.097-0.667-8.038-1.884-11.728l-17.618,7.928C82.236,37.882,82.377,39.154,82.377,40.46z"/>
			</g>
		</g>
	</g>
	<g>
		<linearGradient id="SVGID_7_" gradientUnits="userSpaceOnUse" x1="83.7578" y1="104.7356" x2="83.7578" y2="110.0227">
			<stop  offset="0" style="stop-color:#D5D7D8"/>
			<stop  offset="1" style="stop-color:#5C5F61"/>
		</linearGradient>
		<path fill="url(#SVGID_7_)" d="M86.332,108.516c0,0.832-0.675,1.507-1.506,1.507h-2.135c-0.834,0-1.508-0.676-1.508-1.507v-2.275
			c0-0.832,0.676-1.505,1.508-1.505h2.133c0.833,0,1.506,0.675,1.506,1.505L86.332,108.516L86.332,108.516z"/>
		
			<radialGradient id="SVGID_8_" cx="-430.0625" cy="617.7805" r="7.0255" gradientTransform="matrix(0.9345 -1.404280e-05 0 0.9345 485.6724 -475.2899)" gradientUnits="userSpaceOnUse">
			<stop  offset="0" style="stop-color:#FAFAFA"/>
			<stop  offset="0.3109" style="stop-color:#F4F4F4"/>
			<stop  offset="0.7262" style="stop-color:#E3E3E3"/>
			<stop  offset="1" style="stop-color:#D4D4D4"/>
		</radialGradient>
		<path fill="url(#SVGID_8_)" stroke="#999999" d="M89.694,104.377c-0.414,2.231-1.782,3.982-3.981,3.982h-3.87
			c-2.198,0-3.509-1.766-3.981-3.982l-0.884-4.679c0-2.198,1.783-3.981,3.98-3.981h5.641c2.199,0,3.981,1.782,3.981,3.981
			L89.694,104.377z"/>
		
			<linearGradient id="SVGID_9_" gradientUnits="userSpaceOnUse" x1="-314.4834" y1="903.2747" x2="-345.2504" y2="881.7313" gradientTransform="matrix(1 0 0 1 412.6201 -813.9912)">
			<stop  offset="0" style="stop-color:#FF1F00"/>
			<stop  offset="1" style="stop-color:#FF9D00"/>
		</linearGradient>
		<path fill="url(#SVGID_9_)" d="M76.553,99.62c0,0-0.916-5.554-3.789-10.349c-2.874-4.798-7.006-9.17-6.28-17.546
			c0.66-7.641,9.612-14.018,17.665-14.018s16.289,6.719,16.9,14.018c0.613,7.296-4.595,13.888-6.68,18.192
			c-2.086,4.303-3.47,9.702-3.47,9.702s-5.085,0.688-7.416,0.641C81.152,100.211,76.553,99.62,76.553,99.62z"/>
		<path opacity="0.5" fill="#FFFFFF" d="M69.841,69.021c2.781-4.612,8.745-7.938,14.246-7.938c5.448,0,10.987,3.438,13.605,7.938
			h0.946c-1.947-5.452-8.312-9.966-14.552-9.966c-6.278,0-13.163,4.332-15.228,9.966H69.841z"/>
	</g>
</g>
</svg>
