<?xml version="1.0" encoding="utf-8"?>
<!-- Generator: Adobe Illustrator 13.0.0, SVG Export Plug-In . SVG Version: 6.00 Build 14948)  -->
<!DOCTYPE svg PUBLIC "-//W3C//DTD SVG 1.1//EN" "http://www.w3.org/Graphics/SVG/1.1/DTD/svg11.dtd">
<svg version="1.1" id="Layer_1" xmlns="http://www.w3.org/2000/svg" xmlns:xlink="http://www.w3.org/1999/xlink" x="0px" y="0px"
	 width="128px" height="128px" viewBox="0 0 128 128" enable-background="new 0 0 128 128" xml:space="preserve">
<g>
	<linearGradient id="SVGID_1_" gradientUnits="userSpaceOnUse" x1="64.0005" y1="122.668" x2="64.0005" y2="5.3335">
		<stop  offset="0" style="stop-color:#000096"/>
		<stop  offset="1" style="stop-color:#3396ED"/>
	</linearGradient>
	<circle fill="url(#SVGID_1_)" cx="64" cy="64" r="58.667"/>
	<path opacity="0.5" fill="#FFFFFF" d="M16.377,38.372C27.104,22.755,45.82,9.954,64.254,9.954s36.65,12.801,47.373,28.418h2.039
		C102.299,19.99,84.852,7.131,64.004,7.131c-20.854,0-38.301,12.859-49.67,31.241H16.377z"/>
	<g>
		
			<linearGradient id="SVGID_2_" gradientUnits="userSpaceOnUse" x1="-331.3389" y1="902.5098" x2="-369.0775" y2="876.0849" gradientTransform="matrix(1 0 0 1 412.6201 -813.9912)">
			<stop  offset="0" style="stop-color:#DEDEDE"/>
			<stop  offset="1" style="stop-color:#FEFEFE"/>
		</linearGradient>
		<path fill="url(#SVGID_2_)" d="M77.538,93.865c-1.557,1.359-4.84,2.459-7.199,2.844c-2.277,0.363-5.048,0.527-7.576,0.564
			c-4.836,0.059-11.758-1.186-12.602-5.031c-0.539-2.469,0.936-6.498,1.695-8.846c1.768-5.496,3.535-9.463,5.062-15.697
			c0.563-2.299,1.858-7.053-0.162-8.483c-2.794-1.982-7.72,1.145-10.817-0.543c1.806-1.191,6.451-2.503,9.438-2.949
			c6.478-0.967,19.708-2.91,20.979,4.575c0.401,2.359-0.719,5.616-1.353,8.118c-1.321,5.209-3.096,8.74-4.901,13.896
			c-0.89,2.557-2.172,6.986-1.59,9.008C69.583,94.975,75.548,91.994,77.538,93.865z"/>
		
			<linearGradient id="SVGID_3_" gradientUnits="userSpaceOnUse" x1="-334.7241" y1="862.917" x2="-352.1534" y2="850.7127" gradientTransform="matrix(1 0 0 1 412.6201 -813.9912)">
			<stop  offset="0" style="stop-color:#DEDEDE"/>
			<stop  offset="1" style="stop-color:#FEFEFE"/>
		</linearGradient>
		<path fill="url(#SVGID_3_)" d="M80.142,42.821c0,5.498-4.912,9.951-10.965,9.951c-6.05,0-10.953-4.453-10.953-9.951
			c0-5.494,4.903-9.95,10.953-9.95C75.229,32.871,80.142,37.327,80.142,42.821z"/>
	</g>
</g>
</svg>
