<?xml version="1.0" encoding="utf-8"?>
<!-- Generator: Adobe Illustrator 13.0.0, SVG Export Plug-In . SVG Version: 6.00 Build 14948)  -->
<!DOCTYPE svg PUBLIC "-//W3C//DTD SVG 1.1//EN" "http://www.w3.org/Graphics/SVG/1.1/DTD/svg11.dtd">
<svg version="1.1" id="Layer_1" xmlns="http://www.w3.org/2000/svg" xmlns:xlink="http://www.w3.org/1999/xlink" x="0px" y="0px"
	 width="128px" height="128px" viewBox="0 0 128 128" enable-background="new 0 0 128 128" xml:space="preserve">
<g>
	<g>
		
			<radialGradient id="SVGID_1_" cx="159.2871" cy="359.9873" r="30.0583" gradientTransform="matrix(1.2329 0 0 1.1831 -132.3845 -332.8138)" gradientUnits="userSpaceOnUse">
			<stop  offset="0" style="stop-color:#FAFAFA"/>
			<stop  offset="0.3629" style="stop-color:#E5E5E5"/>
			<stop  offset="1" style="stop-color:#C4C4C4"/>
		</radialGradient>
		<path fill="url(#SVGID_1_)" stroke="#808080" d="M72.617,67.893l30.14,42.767c4.659,7.387,2.643,13.43-4.486,13.43H29.424
			c-7.124,0-8.834-5.649-3.795-12.553l29.354-44.521C60.021,60.111,67.957,60.507,72.617,67.893L72.617,67.893z"/>
		<path opacity="0.5" fill="#FFFFFF" d="M40.191,119.191c0-20.967,16.75-38.172,38.109-39.983l-6.442-9.141
			c-4.355-6.9-11.771-7.271-16.479-0.816l-27.424,41.598c-4.709,6.449-3.114,11.729,3.545,11.729h8.85
			C40.253,121.458,40.191,120.333,40.191,119.191z"/>
	</g>
	<g>
		<radialGradient id="SVGID_2_" cx="64" cy="39.2764" r="37.5918" gradientUnits="userSpaceOnUse">
			<stop  offset="0" style="stop-color:#FAFAFA"/>
			<stop  offset="0.467" style="stop-color:#FFFFFF"/>
			<stop  offset="0.6607" style="stop-color:#E8E8E8"/>
			<stop  offset="1" style="stop-color:#C4C4C4"/>
		</radialGradient>
		<path fill="url(#SVGID_2_)" stroke="#808080" d="M63.999,1.686c-20.76,0-37.592,16.83-37.592,37.591s16.832,37.591,37.592,37.591
			c20.762,0,37.594-16.83,37.594-37.591S84.761,1.686,63.999,1.686z M63.999,57.581c-10.107,0-18.304-8.196-18.304-18.307
			c0-10.106,8.196-18.303,18.304-18.303c10.111,0,18.303,8.196,18.303,18.303C82.302,49.385,74.11,57.581,63.999,57.581z"/>
		<g>
			
				<linearGradient id="SVGID_3_" gradientUnits="userSpaceOnUse" x1="-255.2178" y1="-630.8008" x2="-156.0696" y2="-630.8008" gradientTransform="matrix(1 0 0 -1 238.3271 -563.8105)">
				<stop  offset="0" style="stop-color:#E20A16"/>
				<stop  offset="0.4874" style="stop-color:#E00A16"/>
				<stop  offset="0.6918" style="stop-color:#D90B16"/>
				<stop  offset="0.8432" style="stop-color:#CC0D16"/>
				<stop  offset="0.9678" style="stop-color:#BB0F15"/>
				<stop  offset="1" style="stop-color:#B51015"/>
			</linearGradient>
			<path fill="url(#SVGID_3_)" d="M64.216,57.653c-1.345,0-2.654-0.153-3.915-0.427l-7.837,17.637
				c3.696,1.221,7.644,1.891,11.747,1.891c3.948,0,7.751-0.615,11.323-1.746l-7.512-17.756
				C66.796,57.513,65.52,57.653,64.216,57.653z"/>
			
				<linearGradient id="SVGID_4_" gradientUnits="userSpaceOnUse" x1="-185.2437" y1="-561.3413" x2="-114.1609" y2="-632.424" gradientTransform="matrix(1 0 0 -1 238.3271 -563.8105)">
				<stop  offset="0" style="stop-color:#E20A16"/>
				<stop  offset="1" style="stop-color:#B51015"/>
			</linearGradient>
			<path fill="url(#SVGID_4_)" d="M64.216,20.899c1.27,0,2.512,0.128,3.711,0.375l7.604-17.73c-3.572-1.131-7.374-1.745-11.32-1.745
				c-4.097,0-8.036,0.668-11.726,1.884l7.927,17.615C61.64,21.04,62.909,20.899,64.216,20.899z"/>
		</g>
		<g>
			
				<linearGradient id="SVGID_5_" gradientUnits="userSpaceOnUse" x1="1364.5586" y1="-5818.3325" x2="1293.6252" y2="-5747.3994" gradientTransform="matrix(0 1 1 0 5793.8145 -1267.3008)">
				<stop  offset="0" style="stop-color:#E20A16"/>
				<stop  offset="0.4874" style="stop-color:#E00A16"/>
				<stop  offset="0.6918" style="stop-color:#D90B16"/>
				<stop  offset="0.8432" style="stop-color:#CC0D16"/>
				<stop  offset="0.9678" style="stop-color:#BB0F15"/>
				<stop  offset="1" style="stop-color:#B51015"/>
			</linearGradient>
			<path fill="url(#SVGID_5_)" d="M45.623,39.492c0-1.345,0.15-2.652,0.427-3.914L28.413,27.74
				c-1.221,3.696-1.891,7.644-1.891,11.749c0,3.948,0.612,7.751,1.748,11.32l17.754-7.509
				C45.764,42.069,45.623,40.798,45.623,39.492z"/>
			
				<linearGradient id="SVGID_6_" gradientUnits="userSpaceOnUse" x1="1295.7129" y1="-5710.0889" x2="1366.4568" y2="-5639.3447" gradientTransform="matrix(0 1 1 0 5793.8145 -1267.3008)">
				<stop  offset="0" style="stop-color:#E20A16"/>
				<stop  offset="1" style="stop-color:#B51015"/>
			</linearGradient>
			<path fill="url(#SVGID_6_)" d="M82.377,39.492c0,1.27-0.13,2.511-0.376,3.711l17.733,7.603c1.129-3.57,1.742-7.372,1.742-11.316
				c0-4.097-0.667-8.038-1.884-11.728l-17.618,7.928C82.236,36.914,82.377,38.186,82.377,39.492z"/>
		</g>
	</g>
</g>
</svg>
