<?xml version="1.0" encoding="utf-8"?>
<!-- Generator: Adobe Illustrator 13.0.0, SVG Export Plug-In . SVG Version: 6.00 Build 14948)  -->
<!DOCTYPE svg PUBLIC "-//W3C//DTD SVG 1.1//EN" "http://www.w3.org/Graphics/SVG/1.1/DTD/svg11.dtd">
<svg version="1.1" id="Layer_1" xmlns="http://www.w3.org/2000/svg" xmlns:xlink="http://www.w3.org/1999/xlink" x="0px" y="0px"
	 width="128px" height="128px" viewBox="0 0 128 128" enable-background="new 0 0 128 128" xml:space="preserve">
<g>
	<g>
		<g>
			<radialGradient id="SVGID_1_" cx="63.9995" cy="64" r="54.9075" gradientUnits="userSpaceOnUse">
				<stop  offset="0" style="stop-color:#FAFAFA"/>
				<stop  offset="0.467" style="stop-color:#FFFFFF"/>
				<stop  offset="0.6607" style="stop-color:#E8E8E8"/>
				<stop  offset="1" style="stop-color:#C4C4C4"/>
			</radialGradient>
			<path fill="url(#SVGID_1_)" stroke="#808080" d="M63.998,9.094c-30.322,0-54.907,24.583-54.907,54.905
				c0,30.324,24.585,54.907,54.907,54.907c30.325,0,54.91-24.583,54.91-54.907C118.908,33.677,94.323,9.094,63.998,9.094z
				 M63.998,90.734c-14.763,0-26.733-11.969-26.733-26.738c0-14.761,11.971-26.734,26.733-26.734
				c14.769,0,26.733,11.974,26.733,26.734C90.731,78.766,78.767,90.734,63.998,90.734z"/>
			<g>
				
					<linearGradient id="SVGID_2_" gradientUnits="userSpaceOnUse" x1="-292.4824" y1="-668.29" x2="-147.6592" y2="-668.29" gradientTransform="matrix(1 0 0 -1 238.3271 -563.8105)">
					<stop  offset="0" style="stop-color:#E20A16"/>
					<stop  offset="0.4874" style="stop-color:#E00A16"/>
					<stop  offset="0.6918" style="stop-color:#D90B16"/>
					<stop  offset="0.8432" style="stop-color:#CC0D16"/>
					<stop  offset="0.9678" style="stop-color:#BB0F15"/>
					<stop  offset="1" style="stop-color:#B51015"/>
				</linearGradient>
				<path fill="url(#SVGID_2_)" d="M64.314,90.84c-1.962,0-3.877-0.223-5.718-0.621l-11.447,25.76
					c5.401,1.782,11.166,2.762,17.16,2.762c5.765,0,11.318-0.898,16.538-2.551L69.875,90.256
					C68.084,90.634,66.22,90.84,64.314,90.84z"/>
				
					<linearGradient id="SVGID_3_" gradientUnits="userSpaceOnUse" x1="-190.2734" y1="-566.834" x2="-86.44" y2="-670.6674" gradientTransform="matrix(1 0 0 -1 238.3271 -563.8105)">
					<stop  offset="0" style="stop-color:#E20A16"/>
					<stop  offset="1" style="stop-color:#B51015"/>
				</linearGradient>
				<path fill="url(#SVGID_3_)" d="M64.314,37.156c1.854,0,3.67,0.189,5.421,0.549l11.107-25.898
					C75.625,10.154,70.071,9.26,64.31,9.26c-5.986,0-11.74,0.975-17.129,2.75l11.58,25.729
					C60.553,37.361,62.406,37.156,64.314,37.156z"/>
			</g>
			<g>
				
					<linearGradient id="SVGID_4_" gradientUnits="userSpaceOnUse" x1="1415.9863" y1="-5859.1021" x2="1312.3834" y2="-5755.499" gradientTransform="matrix(0 1 1 0 5793.8145 -1267.3008)">
					<stop  offset="0" style="stop-color:#E20A16"/>
					<stop  offset="0.4874" style="stop-color:#E00A16"/>
					<stop  offset="0.6918" style="stop-color:#D90B16"/>
					<stop  offset="0.8432" style="stop-color:#CC0D16"/>
					<stop  offset="0.9678" style="stop-color:#BB0F15"/>
					<stop  offset="1" style="stop-color:#B51015"/>
				</linearGradient>
				<path fill="url(#SVGID_4_)" d="M37.159,64.314c0-1.965,0.219-3.873,0.622-5.716L12.021,47.149
					C10.238,52.547,9.26,58.312,9.26,64.31c0,5.768,0.896,11.321,2.553,16.534l25.932-10.965
					C37.365,68.078,37.159,66.221,37.159,64.314z"/>
				
					<linearGradient id="SVGID_5_" gradientUnits="userSpaceOnUse" x1="1315.4326" y1="-5701.001" x2="1418.7609" y2="-5597.6729" gradientTransform="matrix(0 1 1 0 5793.8145 -1267.3008)">
					<stop  offset="0" style="stop-color:#E20A16"/>
					<stop  offset="1" style="stop-color:#B51015"/>
				</linearGradient>
				<path fill="url(#SVGID_5_)" d="M90.843,64.314c0,1.855-0.191,3.666-0.551,5.422l25.903,11.102
					c1.648-5.215,2.544-10.767,2.544-16.528c0-5.981-0.976-11.739-2.752-17.129l-25.731,11.58
					C90.638,60.549,90.843,62.406,90.843,64.314z"/>
			</g>
		</g>
		<g>
			<g>
				
					<linearGradient id="SVGID_6_" gradientUnits="userSpaceOnUse" x1="-361.6274" y1="861.9092" x2="-361.6274" y2="877.5049" gradientTransform="matrix(1 0 0 1 412.6201 -813.9912)">
					<stop  offset="0" style="stop-color:#C51015"/>
					<stop  offset="1" style="stop-color:#E20A16"/>
				</linearGradient>
				<path id="SVGID_29_" fill="url(#SVGID_6_)" d="M43.199,55.717c0-4.307,3.488-7.799,7.794-7.799c4.305,0,7.793,3.492,7.793,7.799
					c0,4.308-3.488,7.797-7.793,7.797C46.688,63.514,43.199,60.023,43.199,55.717L43.199,55.717z"/>
			</g>
		</g>
	</g>
	<path opacity="0.5" fill="#FFFFFF" d="M51.196,55.219c2.229,1.859,5.238,0.838,7.115-0.135c-0.277-3.744-3.398-6.696-7.209-6.696
		c-3.83,0-6.961,2.976-7.213,6.741C45.626,54.277,48.801,53.213,51.196,55.219z"/>
	<g>
		
			<linearGradient id="SVGID_7_" gradientUnits="userSpaceOnUse" x1="94.3271" y1="61.3164" x2="94.3271" y2="113.2095" gradientTransform="matrix(1 0 0 1 0 -9.765625e-04)">
			<stop  offset="0" style="stop-color:#5F5D5C"/>
			<stop  offset="1" style="stop-color:#181500"/>
		</linearGradient>
		<path fill="url(#SVGID_7_)" d="M113.517,69.313v35.896c0,4.417-3.584,7.998-8.004,7.998H83.142c-4.422,0-8.004-3.581-8.004-7.998
			V69.313c0-4.417,3.582-7.998,8.004-7.998h22.371C109.933,61.315,113.517,64.896,113.517,69.313L113.517,69.313z"/>
		<path opacity="0.5" fill="#FFFFFF" d="M104.724,63.132H83.899c-4.117,0-7.451,3.333-7.451,7.444v2.065
			c0-4.112,3.334-7.445,7.451-7.445h20.824c4.115,0,7.451,3.333,7.451,7.445v-2.065C112.175,66.465,108.839,63.132,104.724,63.132z"
			/>
		<g>
			
				<radialGradient id="SVGID_8_" cx="-318.251" cy="899.0791" r="5.7017" gradientTransform="matrix(1 0 0 1 412.6201 -813.9912)" gradientUnits="userSpaceOnUse">
				<stop  offset="0" style="stop-color:#FAFAFA"/>
				<stop  offset="0.3109" style="stop-color:#F4F4F4"/>
				<stop  offset="0.7262" style="stop-color:#E3E3E3"/>
				<stop  offset="1" style="stop-color:#D4D4D4"/>
			</radialGradient>
			<path fill="url(#SVGID_8_)" d="M101.968,85.086c0,1.493-1.207,2.7-2.697,2.7H89.47c-1.49,0-2.699-1.207-2.699-2.7l0,0
				c0-1.489,1.209-2.697,2.699-2.697h9.801C100.761,82.389,101.968,83.597,101.968,85.086L101.968,85.086z"/>
			
				<radialGradient id="SVGID_9_" cx="994.8906" cy="1514.4541" r="2.515" gradientTransform="matrix(2.267 0 0 2.2669 -2161.0483 -3356.7397)" gradientUnits="userSpaceOnUse">
				<stop  offset="0" style="stop-color:#FAFAFA"/>
				<stop  offset="0.3109" style="stop-color:#F4F4F4"/>
				<stop  offset="0.7262" style="stop-color:#E3E3E3"/>
				<stop  offset="1" style="stop-color:#D4D4D4"/>
			</radialGradient>
			<path fill="url(#SVGID_9_)" d="M101.968,76.375c0,1.49-1.207,2.699-2.699,2.699h-9.801c-1.488,0-2.697-1.209-2.697-2.699l0,0
				c0-1.489,1.209-2.697,2.697-2.697h9.801C100.761,73.678,101.968,74.886,101.968,76.375L101.968,76.375z"/>
			
				<radialGradient id="SVGID_10_" cx="994.8906" cy="1522.1387" r="2.515" gradientTransform="matrix(2.267 0 0 2.2669 -2161.0483 -3356.7397)" gradientUnits="userSpaceOnUse">
				<stop  offset="0" style="stop-color:#FAFAFA"/>
				<stop  offset="0.3109" style="stop-color:#F4F4F4"/>
				<stop  offset="0.7262" style="stop-color:#E3E3E3"/>
				<stop  offset="1" style="stop-color:#D4D4D4"/>
			</radialGradient>
			<path fill="url(#SVGID_10_)" d="M101.968,93.797c0,1.491-1.207,2.698-2.697,2.698H89.47c-1.49,0-2.699-1.207-2.699-2.698l0,0
				c0-1.49,1.209-2.698,2.699-2.698h9.801C100.761,91.099,101.968,92.307,101.968,93.797L101.968,93.797z"/>
			
				<radialGradient id="SVGID_11_" cx="994.8906" cy="1525.9814" r="2.515" gradientTransform="matrix(2.267 0 0 2.2669 -2161.0483 -3356.7397)" gradientUnits="userSpaceOnUse">
				<stop  offset="0" style="stop-color:#FAFAFA"/>
				<stop  offset="0.3109" style="stop-color:#F4F4F4"/>
				<stop  offset="0.7262" style="stop-color:#E3E3E3"/>
				<stop  offset="1" style="stop-color:#D4D4D4"/>
			</radialGradient>
			<path fill="url(#SVGID_11_)" d="M101.968,102.508c0,1.49-1.207,2.699-2.697,2.699H89.47c-1.49,0-2.699-1.209-2.699-2.699l0,0
				c0-1.49,1.209-2.699,2.699-2.699h9.801C100.761,99.809,101.968,101.018,101.968,102.508L101.968,102.508z"/>
		</g>
	</g>
</g>
</svg>
