<?xml version="1.0" encoding="utf-8"?>
<!-- Generator: Adobe Illustrator 13.0.0, SVG Export Plug-In . SVG Version: 6.00 Build 14948)  -->
<!DOCTYPE svg PUBLIC "-//W3C//DTD SVG 1.1//EN" "http://www.w3.org/Graphics/SVG/1.1/DTD/svg11.dtd">
<svg version="1.1" id="Layer_1" xmlns="http://www.w3.org/2000/svg" xmlns:xlink="http://www.w3.org/1999/xlink" x="0px" y="0px"
	 width="128px" height="128px" viewBox="0 0 128 128" enable-background="new 0 0 128 128" xml:space="preserve">
<g>
	<g>
		<radialGradient id="SVGID_1_" cx="53.8716" cy="51.5298" r="48.9951" gradientUnits="userSpaceOnUse">
			<stop  offset="0" style="stop-color:#FAFAFA"/>
			<stop  offset="0.3109" style="stop-color:#F4F4F4"/>
			<stop  offset="0.7262" style="stop-color:#E3E3E3"/>
			<stop  offset="1" style="stop-color:#D4D4D4"/>
		</radialGradient>
		<path fill="url(#SVGID_1_)" stroke="#B3B3B3" stroke-width="1.6" d="M18.248,2.518L89.49,2.522
			c7.377,0,13.355,5.983,13.355,13.364l0.004,71.291c0,7.382-5.98,13.364-13.355,13.364l-71.243-0.003
			c-7.376,0-13.355-5.984-13.355-13.365L4.894,15.882C4.893,8.502,10.873,2.518,18.248,2.518L18.248,2.518z"/>
		<path fill="#B3B3B3" d="M89.515,96.455l-71.352-0.004c-6.743,0-12.308-5.001-13.228-11.497v1.907
			c0,7.382,5.98,13.364,13.355,13.364l71.244,0.004c7.375,0,13.355-5.984,13.355-13.364v-3.792
			C102.887,90.463,96.899,96.455,89.515,96.455z"/>
		<path fill="#FFFFFF" d="M20.649,9.515l66.582,0.003c6.294,0,11.483,4.668,12.341,10.729v-1.778
			c0-6.889-5.578-12.473-12.461-12.473L20.634,5.991c-6.883,0-12.462,5.586-12.462,12.472v3.538
			C8.173,15.106,13.76,9.515,20.649,9.515z"/>
	</g>
	<g>
		
			<linearGradient id="SVGID_2_" gradientUnits="userSpaceOnUse" x1="-7.6079" y1="-110.2397" x2="-40.7275" y2="-87.0492" gradientTransform="matrix(1 0 0 -1 123.3447 2.9531)">
			<stop  offset="0" style="stop-color:#80C11B"/>
			<stop  offset="1" style="stop-color:#80E21B"/>
		</linearGradient>
		<path fill="url(#SVGID_2_)" stroke="#70993E" stroke-miterlimit="3.8637" d="M105.186,85.342v10.241h10.236
			c4.036,0,7.307,2.695,7.307,6.014c0,3.322-3.271,6.012-7.307,6.012h-10.236v10.241c0,4.038-2.688,7.312-6.007,7.312
			s-6.01-3.273-6.01-7.312v-10.241H82.933c-4.033,0-7.307-2.692-7.307-6.012c0-3.32,3.273-6.014,7.307-6.014h10.236V85.342
			c0-4.038,2.689-7.312,6.008-7.312S105.186,81.304,105.186,85.342L105.186,85.342z"/>
		<g opacity="0.5">
			<path fill="#FFFFFF" d="M99.281,80.435c2.64,0,4.78,2.604,4.78,5.814v-0.904c0-3.213-2.141-5.814-4.78-5.814
				s-4.777,2.604-4.777,5.814v0.904C94.504,83.038,96.642,80.435,99.281,80.435z"/>
		</g>
	</g>
	<g>
		
			<linearGradient id="SVGID_3_" gradientUnits="userSpaceOnUse" x1="-336.3418" y1="874.6807" x2="-387.4763" y2="838.8757" gradientTransform="matrix(1 0 0 1 412.6201 -813.9912)">
			<stop  offset="0" style="stop-color:#181500"/>
			<stop  offset="1" style="stop-color:#5F5D5C"/>
		</linearGradient>
		<path fill="url(#SVGID_3_)" d="M77.63,26.938H59.021v58.396H48.765V26.938h-18.61v-9.211h47.477L77.63,26.938L77.63,26.938z"/>
	</g>
</g>
</svg>
