<?xml version="1.0" encoding="utf-8"?>
<!-- Generator: Adobe Illustrator 13.0.0, SVG Export Plug-In . SVG Version: 6.00 Build 14948)  -->
<!DOCTYPE svg PUBLIC "-//W3C//DTD SVG 1.1//EN" "http://www.w3.org/Graphics/SVG/1.1/DTD/svg11.dtd">
<svg version="1.1" id="Layer_1" xmlns="http://www.w3.org/2000/svg" xmlns:xlink="http://www.w3.org/1999/xlink" x="0px" y="0px"
	 width="128px" height="128px" viewBox="0 0 128 128" enable-background="new 0 0 128 128" xml:space="preserve">
<g>
	<g>
		
			<linearGradient id="SVGID_1_" gradientUnits="userSpaceOnUse" x1="-11.7793" y1="-104.4341" x2="-44.8992" y2="-81.2433" gradientTransform="matrix(1 0 0 -1 123.3447 2.9531)">
			<stop  offset="0" style="stop-color:#80C11B"/>
			<stop  offset="1" style="stop-color:#80E21B"/>
		</linearGradient>
		<path fill="url(#SVGID_1_)" stroke="#70993E" stroke-miterlimit="3.8637" d="M101.014,79.536v10.241h10.236
			c4.036,0,7.307,2.695,7.307,6.014c0,3.322-3.271,6.012-7.307,6.012h-10.236v10.241c0,4.038-2.688,7.312-6.007,7.312
			s-6.01-3.273-6.01-7.312v-10.241H78.761c-4.033,0-7.307-2.692-7.307-6.012c0-3.32,3.273-6.014,7.307-6.014h10.236V79.536
			c0-4.038,2.689-7.312,6.008-7.312S101.014,75.498,101.014,79.536L101.014,79.536z"/>
		<g opacity="0.5">
			<path fill="#FFFFFF" d="M95.109,74.629c2.64,0,4.78,2.604,4.78,5.814v-0.904c0-3.213-2.141-5.814-4.78-5.814
				s-4.777,2.604-4.777,5.814v0.904C90.332,77.232,92.47,74.629,95.109,74.629z"/>
		</g>
	</g>
	
		<linearGradient id="SVGID_2_" gradientUnits="userSpaceOnUse" x1="-2981.3384" y1="-2056.4062" x2="-2938.2114" y2="-2014.752" gradientTransform="matrix(0.7071 0.7071 -0.7321 0.7321 691.1401 3622.075)">
		<stop  offset="0" style="stop-color:#D5D7D8"/>
		<stop  offset="1" style="stop-color:#5C5F61"/>
	</linearGradient>
	<path fill="url(#SVGID_2_)" stroke="#808080" d="M112.267,15.232c-9.531-9.533-25.271-9.265-35.139,0.608L65.405,27.564
		c-9.875,9.87-10.148,25.604-0.611,35.143c9.535,9.534,25.271,9.262,35.146-0.609l11.719-11.721
		C121.53,40.5,121.804,24.769,112.267,15.232z M90.149,52.309c-4.271,4.266-11.101,4.385-15.219,0.264
		c-4.121-4.123-4.009-10.953,0.264-15.215l11.721-11.726c4.27-4.271,11.096-4.388,15.217-0.265
		c4.121,4.121,4.008,10.949-0.264,15.215L90.149,52.309z"/>
	<g opacity="0.5">
		<path fill="#FFFFFF" d="M105.546,20.235c6.913,5.914,9.333,15.177,7.015,23.633c5.802-8.968,4.438-20.861-3.627-27.76
			c-8.232-7.045-20.539-6.389-28.487,1.171C88.572,13.317,98.443,14.156,105.546,20.235z"/>
	</g>
	
		<linearGradient id="SVGID_3_" gradientUnits="userSpaceOnUse" x1="-2981.3379" y1="-1989.2705" x2="-2938.2109" y2="-1947.6162" gradientTransform="matrix(0.7071 0.7071 -0.7321 0.7321 691.1401 3622.075)">
		<stop  offset="0" style="stop-color:#D5D7D8"/>
		<stop  offset="1" style="stop-color:#5C5F61"/>
	</linearGradient>
	<path fill="url(#SVGID_3_)" stroke="#808080" d="M63.118,64.384c-9.535-9.534-25.273-9.265-35.145,0.609l-11.72,11.723
		c-9.871,9.873-10.146,25.604-0.61,35.139c9.539,9.537,25.271,9.266,35.146-0.605l11.72-11.725
		C72.378,89.653,72.651,73.919,63.118,64.384z M40.998,101.46c-4.271,4.266-11.099,4.383-15.219,0.26
		c-4.121-4.121-4.007-10.945,0.265-15.215l11.723-11.721c4.268-4.271,11.097-4.391,15.215-0.266
		c4.121,4.119,4.006,10.949-0.264,15.215L40.998,101.46z"/>
	
		<linearGradient id="SVGID_4_" gradientUnits="userSpaceOnUse" x1="-6738.8438" y1="-2573.7168" x2="-6690.9902" y2="-2573.7168" gradientTransform="matrix(0.2762 0.2762 -0.5805 0.5805 424.5105 3412.3113)">
		<stop  offset="0" style="stop-color:#D5D7D8"/>
		<stop  offset="1" style="stop-color:#5C5F61"/>
	</linearGradient>
	<path fill="url(#SVGID_4_)" stroke="#808080" d="M58.521,82.194c-3.78,3.779-9.804,3.885-13.45,0.232
		c-3.648-3.648-3.544-9.67,0.233-13.447l23.961-23.96c3.776-3.777,9.799-3.882,13.448-0.232c3.647,3.646,3.545,9.668-0.231,13.449
		L58.521,82.194z"/>
</g>
</svg>
