<?xml version="1.0" encoding="utf-8"?>
<!-- Generator: Adobe Illustrator 13.0.0, SVG Export Plug-In . SVG Version: 6.00 Build 14948)  -->
<!DOCTYPE svg PUBLIC "-//W3C//DTD SVG 1.1//EN" "http://www.w3.org/Graphics/SVG/1.1/DTD/svg11.dtd">
<svg version="1.1" id="Layer_1" xmlns="http://www.w3.org/2000/svg" xmlns:xlink="http://www.w3.org/1999/xlink" x="0px" y="0px"
	 width="128px" height="128px" viewBox="0 0 128 128" enable-background="new 0 0 128 128" xml:space="preserve">
<g>
	
		<linearGradient id="SVGID_1_" gradientUnits="userSpaceOnUse" x1="-59.8608" y1="-78.0073" x2="-59.8608" y2="-42.3623" gradientTransform="matrix(1 0 0 -1 123.3447 2.9531)">
		<stop  offset="0" style="stop-color:#C51015"/>
		<stop  offset="1" style="stop-color:#E20A16"/>
	</linearGradient>
	<path fill="url(#SVGID_1_)" d="M126.021,65.093c0,8.767-7.102,15.868-15.868,15.868H16.819c-8.766,0-15.873-7.102-15.873-15.868
		v-3.909c0-8.761,7.107-15.868,15.873-15.868h93.328c8.766,0,15.873,7.107,15.873,15.868V65.093L126.021,65.093z"/>
	<path opacity="0.8" fill="#EC8690" d="M107.981,47.118H19.06c-8.354,0-15.123,6.77-15.123,15.119v2.826
		c0-8.35,6.77-15.119,15.123-15.119h88.922c8.354,0,15.123,6.77,15.123,15.119v-2.826C123.104,53.888,116.335,47.118,107.981,47.118
		z"/>
	<path fill="#A51C20" d="M16.812,80.961h93.303c8.766,0,15.869-7.101,15.869-15.865V62.13c0,8.761-7.104,15.86-15.869,15.86H16.812
		c-8.761,0-15.865-7.1-15.865-15.86v2.966C0.946,73.86,8.051,80.961,16.812,80.961z"/>
</g>
</svg>
