<?xml version="1.0" encoding="utf-8"?>
<!-- Generator: Adobe Illustrator 13.0.0, SVG Export Plug-In . SVG Version: 6.00 Build 14948)  -->
<!DOCTYPE svg PUBLIC "-//W3C//DTD SVG 1.1//EN" "http://www.w3.org/Graphics/SVG/1.1/DTD/svg11.dtd">
<svg version="1.1" id="Layer_1" xmlns="http://www.w3.org/2000/svg" xmlns:xlink="http://www.w3.org/1999/xlink" x="0px" y="0px"
	 width="128px" height="128px" viewBox="0 0 128 128" enable-background="new 0 0 128 128" xml:space="preserve">
<g>
	<g>
		
			<linearGradient id="SVGID_1_" gradientUnits="userSpaceOnUse" x1="-16.3872" y1="-90.5879" x2="-103.4083" y2="-29.6551" gradientTransform="matrix(1 0 0 -1 123.3447 2.9531)">
			<stop  offset="0" style="stop-color:#80C11B"/>
			<stop  offset="1" style="stop-color:#80E21B"/>
		</linearGradient>
		<path fill="url(#SVGID_1_)" stroke="#70993E" stroke-miterlimit="3.8637" d="M79.23,20.365v26.909h26.896
			c10.607,0,19.198,7.082,19.198,15.801c0,8.73-8.591,15.796-19.198,15.796H79.23v26.908c0,10.611-7.062,19.213-15.78,19.213
			c-8.72,0-15.791-8.602-15.791-19.213V78.871H20.764c-10.598,0-19.199-7.074-19.199-15.796c0-8.724,8.602-15.801,19.199-15.801
			h26.896V20.365c0-10.61,7.066-19.211,15.786-19.211C72.164,1.154,79.23,9.754,79.23,20.365L79.23,20.365z"/>
		<g opacity="0.5">
			<path fill="#FFFFFF" d="M63.717,7.471c6.938,0,12.562,6.841,12.562,15.277v-2.376c0-8.441-5.624-15.277-12.562-15.277
				c-6.934,0-12.553,6.841-12.553,15.277v2.376C51.164,14.312,56.783,7.471,63.717,7.471z"/>
		</g>
	</g>
	<g>
		<path fill="#70993E" d="M63.438,122.186c-8.575,0-15.525-8.455-15.525-18.881v2.936c0,10.434,6.95,18.883,15.525,18.883
			c8.569,0,15.514-8.455,15.514-18.883v-2.936C78.952,113.73,72.008,122.186,63.438,122.186z"/>
	</g>
</g>
</svg>
