<?xml version="1.0" encoding="utf-8"?>
<!-- Generator: Adobe Illustrator 13.0.0, SVG Export Plug-In . SVG Version: 6.00 Build 14948)  -->
<!DOCTYPE svg PUBLIC "-//W3C//DTD SVG 1.1//EN" "http://www.w3.org/Graphics/SVG/1.1/DTD/svg11.dtd">
<svg version="1.1" id="Layer_1" xmlns="http://www.w3.org/2000/svg" xmlns:xlink="http://www.w3.org/1999/xlink" x="0px" y="0px"
	 width="128px" height="128px" viewBox="0 0 128 128" enable-background="new 0 0 128 128" xml:space="preserve">
<g>
	<g>
		<linearGradient id="SVGID_1_" gradientUnits="userSpaceOnUse" x1="63.814" y1="113.6201" x2="63.814" y2="48.6452">
			<stop  offset="0" style="stop-color:#00B2DE"/>
			<stop  offset="1" style="stop-color:#99DBF6"/>
		</linearGradient>
		<path fill="url(#SVGID_1_)" d="M107.066,34.926H20.564c-8.881,0-16.08,7.199-16.08,16.076v45.357
			c0,8.881,7.199,16.078,16.08,16.078h86.502c8.879,0,16.076-7.197,16.076-16.078V51.002
			C123.143,42.125,115.945,34.926,107.066,34.926z"/>
		<path fill="none" stroke="#FFFFFF" stroke-width="2" stroke-miterlimit="3.8637" d="M6.42,43.354l36.027,36.037
			c0,0,11.473,13.584,21.795,13.584c10.32,0,22.369-13.582,22.369-13.582l34.643-35.955"/>
		
			<line fill="none" stroke="#FFFFFF" stroke-width="2" stroke-miterlimit="3.8637" x1="9.217" y1="107.746" x2="40.904" y2="77.848"/>
		
			<line fill="none" stroke="#FFFFFF" stroke-width="2" stroke-miterlimit="3.8637" x1="88.238" y1="77.703" x2="118.412" y2="107.754"/>
		<path fill="#FFFFFF" d="M11.377,42.26c2.4-2.766,5.934-4.525,9.875-4.525h84.494c3.941,0,7.475,1.76,9.875,4.525h1.67
			c-2.625-3.531-6.816-5.834-11.545-5.834H21.252c-4.729,0-8.92,2.303-11.545,5.834H11.377z"/>
		<path fill="#059CC2" d="M107.066,109.771H20.564c-8.881,0-16.08-7.197-16.08-16.078v2.667c0,8.881,7.199,16.078,16.08,16.078
			h86.502c8.879,0,16.076-7.197,16.076-16.078v-2.667C123.143,102.573,115.945,109.771,107.066,109.771z"/>
	</g>
	
		<radialGradient id="SVGID_2_" cx="-349.1494" cy="870.833" r="45.459" gradientTransform="matrix(1 0 0 1 412.6201 -813.9912)" gradientUnits="userSpaceOnUse">
		<stop  offset="0" style="stop-color:#FAFAFA"/>
		<stop  offset="0.3109" style="stop-color:#F4F4F4"/>
		<stop  offset="0.7262" style="stop-color:#E3E3E3"/>
		<stop  offset="1" style="stop-color:#D4D4D4"/>
	</radialGradient>
	<path fill="url(#SVGID_2_)" stroke="#B3B3B3" stroke-width="2" d="M112.087,79.112c0,10.933-8.861,19.794-19.793,19.794H34.646
		c-10.93,0-19.791-8.861-19.791-19.794V34.567c0-10.93,8.861-19.791,19.791-19.791h57.648c10.932,0,19.793,8.861,19.793,19.791
		V79.112z"/>
	<g>
		<g>
			<g>
				<path fill="none" d="M58.165,39.415c2.42-5.024,7.815-11.91,4.652-17.865c-2.605,1.675-3.908,7.443-4.466,10.421
					c-1.117,5.024-0.373,9.862,0.187,14.889c0.187,2.048,0.743,3.162-0.744,4.651c-1.861,2.048-7.631,1.859-10.049,0.744
					c-5.211-2.047-8.002-13.584-1.117-14.887c3.164-0.744,7.815,0.371,11.166,0.743"/>
				<path fill="#231F20" d="M58.165,41.915c2.399-4.732,5.584-9.172,5.639-14.668c0.013-1.309,0.018-2.617-0.006-3.927
					c-0.036-2.155-0.207-5.519-2.392-2.829c-3.056,3.762-3.604,10.694-3.651,15.305c-0.053,5.396,0.641,10.636,1.033,16.009
					c0.002-1.638,0.004-3.274,0.006-4.911c-0.826,3.771-4.998,3.829-8.164,3.579c-3.396-0.269-5.555-2.267-7.021-5.198
					c-0.585-1.17-0.505-4.158-0.909-1.423c0.213-1.438,1.092-2.519,2.219-3.351c3.178-2.344,9.381-0.34,12.875,0.11
					c-0.176-0.022,0.248-4.968,0-5c-6.813-0.881-15.226-2.976-15.279,6.257c-0.03,5.164,0.42,11.094,6.049,13.191
					c3.297,1.229,7.88,0.82,10-2.118c0.859-1.188,0.266-4.373,0.242-5.708c-0.088-5.163-1.146-9.679-0.026-14.831
					c0.448-2.06,1.122-4.028,2.029-5.928c0.479-1.003,1.17-1.729,2.008-2.427c0.259-0.215,0.951,3.713,0.968,3.93
					c-0.002-1.637-0.004-3.273-0.007-4.911c-0.323,5.173-3.342,9.366-5.612,13.847C57.485,38.255,58.829,40.605,58.165,41.915
					L58.165,41.915z"/>
			</g>
		</g>
		<g>
			<g>
				<path fill="none" d="M62.445,36.437c0,1.117,0.558,5.211,1.86,5.396c1.675,0.186,4.467-5.396,5.77-6.326
					c0.188,1.488-0.373,3.164,0,4.652c1.303-1.304,2.604-2.979,4.094-4.095c0.373,8.188,6.143-0.744,10.979-1.304"/>
				<path fill="#231F20" d="M62.438,38.848c0.068,1.42,0.264,5.767,2.35,5.401c2.151-0.377,3.769-4.834,5.287-6.242
					c-0.009-0.834-0.017-1.668-0.025-2.5c0,0.512,0,1.023,0,1.537c0.01-0.834,0.019-1.668,0.025-2.5
					c-0.141,1.787-0.156,3.547-0.146,5.34c0.003,0.41-0.013,0.828,0.021,1.238c-0.232,1.871,0.137,2.039,1.104,0.504
					c1.018-1.072,1.987-2.1,3.114-3.062c-0.576,0.492,0.586,2.763,0.979,3.202c0.688,0.771,2.23-0.232,2.836-0.574
					c2.426-1.369,4.346-3.355,7.164-3.932c0.363-0.073-0.29-4.94,0-5c-3.279,0.671-5.486,3.285-8.468,4.588
					c-1.591,0.693-2.128-0.85-2.399-2.074c-0.48-2.165-1.083-0.398-2.229,0.766c-1.146,1.166-1.866,3.481-2.104,0.58
					c0,1.668,0,3.334,0,5c0.148-1.879,0.149-3.728,0.15-5.615c0-0.309-0.254-2.289-0.025-2.5c-1.863,1.727-2.88,4.181-4.761,5.918
					c-2.187,2.021-2.812-3.854-2.862-4.898C62.509,35.202,62.365,37.343,62.438,38.848L62.438,38.848z"/>
			</g>
		</g>
	</g>
	<g>
		<g>
			<g>
				<path fill="none" d="M58.165,39.414c2.42-5.024,7.815-11.91,4.652-17.865c-2.605,1.675-3.908,7.443-4.466,10.42
					c-1.117,5.025-0.373,9.863,0.187,14.89c0.187,2.047,0.743,3.162-0.744,4.651c-1.861,2.048-7.631,1.859-10.049,0.744
					c-5.211-2.047-8.002-13.584-1.117-14.887c3.164-0.744,7.815,0.371,11.166,0.744"/>
				<path fill="#231F20" d="M58.165,41.914c2.399-4.732,5.584-9.172,5.639-14.668c0.013-1.309,0.018-2.617-0.006-3.927
					c-0.036-2.155-0.207-5.519-2.392-2.829c-3.056,3.762-3.604,10.694-3.651,15.305c-0.053,5.396,0.641,10.636,1.033,16.008
					c0.002-1.637,0.004-3.273,0.006-4.91c-0.826,3.771-4.998,3.829-8.164,3.579c-3.396-0.269-5.555-2.267-7.021-5.198
					c-0.585-1.17-0.505-4.158-0.909-1.423c0.213-1.438,1.092-2.519,2.219-3.351c3.178-2.344,9.381-0.34,12.875,0.11
					c-0.176-0.022,0.248-4.968,0-5c-6.813-0.881-15.226-2.976-15.279,6.257c-0.03,5.163,0.42,11.092,6.049,13.191
					c3.297,1.229,7.88,0.82,10-2.117c0.859-1.189,0.266-4.374,0.242-5.708c-0.088-5.163-1.146-9.679-0.026-14.831
					c0.448-2.061,1.122-4.027,2.029-5.928c0.479-1.003,1.17-1.729,2.008-2.426c0.259-0.215,0.951,3.713,0.968,3.929
					c-0.002-1.638-0.004-3.272-0.007-4.911c-0.323,5.172-3.342,9.366-5.612,13.848C57.485,38.254,58.829,40.604,58.165,41.914
					L58.165,41.914z"/>
			</g>
		</g>
		<g>
			<g>
				<path fill="none" d="M62.445,36.436c0,1.117,0.558,5.211,1.86,5.396c1.675,0.186,4.467-5.396,5.77-6.326
					c0.188,1.488-0.373,3.164,0,4.652c1.303-1.304,2.604-2.98,4.094-4.095c0.373,8.188,6.143-0.744,10.979-1.304"/>
				<path fill="#231F20" d="M62.438,38.846c0.068,1.42,0.264,5.767,2.35,5.4c2.151-0.377,3.769-4.834,5.287-6.242
					c-0.009-0.832-0.017-1.666-0.025-2.5c0,0.513,0,1.024,0,1.537c0.01-0.832,0.019-1.666,0.025-2.5
					c-0.141,1.787-0.156,3.547-0.146,5.34c0.003,0.41-0.013,0.83,0.021,1.238c-0.232,1.871,0.137,2.039,1.104,0.506
					c1.018-1.074,1.987-2.101,3.114-3.062c-0.576,0.492,0.586,2.764,0.979,3.202c0.688,0.772,2.23-0.233,2.836-0.574
					c2.426-1.369,4.346-3.354,7.164-3.931c0.363-0.074-0.29-4.941,0-5c-3.279,0.67-5.486,3.285-8.468,4.587
					c-1.591,0.694-2.128-0.851-2.399-2.074c-0.48-2.165-1.083-0.399-2.229,0.767c-1.146,1.166-1.866,3.479-2.104,0.58
					c0,1.666,0,3.332,0,5c0.148-1.881,0.149-3.729,0.15-5.615c0-0.31-0.254-2.289-0.025-2.5c-1.863,1.726-2.88,4.18-4.761,5.918
					c-2.187,2.021-2.812-3.855-2.862-4.899C62.509,35.201,62.365,37.342,62.438,38.846L62.438,38.846z"/>
			</g>
		</g>
	</g>
	<g>
		<g>
			
				<linearGradient id="SVGID_3_" gradientUnits="userSpaceOnUse" x1="-309.665" y1="876.2891" x2="-309.665" y2="921.5986" gradientTransform="matrix(1 0 0 1 412.6201 -813.9902)">
				<stop  offset="0" style="stop-color:#80E21B"/>
				<stop  offset="1" style="stop-color:#80B400"/>
			</linearGradient>
			<path fill="url(#SVGID_3_)" stroke="#70993E" stroke-miterlimit="3.8637" d="M119.192,63.024
				c-2.453-1.458-5.628-0.648-7.084,1.807l-15.501,26.13l-2.483-5.911c-1.106-2.636-4.134-3.872-6.768-2.764
				c-2.631,1.102-3.869,4.134-2.766,6.769l6.454,15.383c0.759,1.801,2.464,3.021,4.412,3.158c1.946,0.134,3.804-0.842,4.8-2.521
				l20.742-34.961C122.456,67.658,121.646,64.481,119.192,63.024L119.192,63.024z"/>
		</g>
		<g opacity="0.5">
			<path fill="#FFFFFF" d="M87.907,83.659c2.439-1.062,5.377,0.286,6.56,3.009l-0.333-0.766c-1.185-2.727-4.121-4.072-6.561-3.01
				c-2.438,1.063-3.455,4.133-2.271,6.857l0.334,0.766C84.452,87.793,85.468,84.723,87.907,83.659z"/>
		</g>
		<path opacity="0.5" fill="#FFFFFF" d="M97.143,92.383l-0.284-0.809l15.505-26.179c0,0,0.64-0.954,0.94-1.272
			c0.579-0.613,1.105-0.764,1.105-0.764L97.143,92.383z"/>
	</g>
</g>
</svg>
