<?xml version="1.0" encoding="utf-8"?>
<!-- Generator: Adobe Illustrator 13.0.0, SVG Export Plug-In . SVG Version: 6.00 Build 14948)  -->
<!DOCTYPE svg PUBLIC "-//W3C//DTD SVG 1.1//EN" "http://www.w3.org/Graphics/SVG/1.1/DTD/svg11.dtd">
<svg version="1.1" id="Layer_1" xmlns="http://www.w3.org/2000/svg" xmlns:xlink="http://www.w3.org/1999/xlink" x="0px" y="0px"
	 width="128px" height="128px" viewBox="0 0 128 128" enable-background="new 0 0 128 128" xml:space="preserve">
<g>
	
		<linearGradient id="SVGID_1_" gradientUnits="userSpaceOnUse" x1="-182.8208" y1="-358.4575" x2="-182.8208" y2="-404.9419" gradientTransform="matrix(1 0 0 -1 246.7271 -289.8564)">
		<stop  offset="0" style="stop-color:#D5D7D8"/>
		<stop  offset="1" style="stop-color:#5C5F61"/>
	</linearGradient>
	<path fill="url(#SVGID_1_)" stroke="#4D4D4D" stroke-width="1.0006" stroke-miterlimit="3.8637" d="M63.906,68.601
		c1.834,0,3.32,1.592,3.32,3.553l-0.002,36.298l30.712,0.002c1.962,0,3.554,1.485,3.553,3.318c0,1.829-1.589,3.313-3.553,3.313
		h-33.74h-0.579h-33.74c-1.963,0-3.554-1.483-3.554-3.315c0-1.83,1.591-3.317,3.554-3.317l30.709,0.002v-36.3
		C60.586,70.192,62.073,68.601,63.906,68.601L63.906,68.601z"/>
	
		<linearGradient id="SVGID_2_" gradientUnits="userSpaceOnUse" x1="-182.8208" y1="-395.0435" x2="-182.8208" y2="-408.2153" gradientTransform="matrix(1 0 0 -1 246.7271 -289.8564)">
		<stop  offset="0" style="stop-color:#D5D7D8"/>
		<stop  offset="1" style="stop-color:#5C5F61"/>
	</linearGradient>
	<path fill="url(#SVGID_2_)" stroke="#4D4D4D" stroke-width="1.0006" stroke-miterlimit="3.8637" d="M58.436,105.187h10.94
		c1.496,0,2.709,1.209,2.709,2.705v7.76c0,1.495-1.213,2.707-2.709,2.707h-10.94c-1.494,0-2.708-1.212-2.708-2.707v-7.76
		C55.728,106.396,56.941,105.187,58.436,105.187L58.436,105.187z"/>
	
		<linearGradient id="SVGID_3_" gradientUnits="userSpaceOnUse" x1="-182.8218" y1="-298.793" x2="-182.8218" y2="-384.8931" gradientTransform="matrix(1 0 0 -1 246.7271 -289.8564)">
		<stop  offset="0" style="stop-color:#5F5D5C"/>
		<stop  offset="1" style="stop-color:#181500"/>
	</linearGradient>
	<path fill="url(#SVGID_3_)" d="M23.575,8.937h80.659c9.923,0,17.971,8.038,17.971,17.955v50.193
		c0,9.914-8.046,17.951-17.971,17.951H23.575c-9.925,0-17.969-8.04-17.969-17.951V26.892C5.606,16.975,13.649,8.937,23.575,8.937
		L23.575,8.937z"/>
	<g>
		<path opacity="0.4" fill="#808080" d="M102.489,14.187H25.32c-9.496,0-17.191,7.69-17.191,17.179v8.215
			c0-9.487,7.695-17.179,17.191-17.179h77.169c9.494,0,17.193,7.691,17.193,17.179v-8.215
			C119.683,21.877,111.983,14.187,102.489,14.187z"/>
		<path fill="#FFFFFF" d="M102.442,13.36H25.312c-9.491,0-17.183,7.688-17.183,17.17v1.103c0-9.483,7.691-17.169,17.183-17.169
			h77.131c9.488,0,17.185,7.686,17.185,17.169V30.53C119.627,21.048,111.931,13.36,102.442,13.36z"/>
	</g>
	<path d="M23.577,95.036h80.659c9.926,0,17.969-8.038,17.969-17.955V71.64c0,9.917-8.043,17.955-17.969,17.955H23.577
		c-9.923,0-17.971-8.038-17.971-17.955v5.441C5.606,86.998,13.654,95.036,23.577,95.036z"/>
	<g>
		<g>
			
				<linearGradient id="SVGID_4_" gradientUnits="userSpaceOnUse" x1="-348.7515" y1="-467.9751" x2="-348.7515" y2="-521.7754" gradientTransform="matrix(1 0 0 -1 412.6577 -439.8887)">
				<stop  offset="0" style="stop-color:#E20A16"/>
				<stop  offset="1" style="stop-color:#B51015"/>
			</linearGradient>
			<path fill="url(#SVGID_4_)" d="M53.201,31.699l10.703,10.712l10.707-10.713c4.221-4.223,10.455-4.831,13.924-1.358
				c3.471,3.472,2.861,9.71-1.357,13.933L76.471,54.986l10.705,10.712c4.221,4.224,4.826,10.462,1.357,13.934
				c-3.471,3.475-9.703,2.864-13.922-1.358L63.904,67.562L53.199,78.274c-4.219,4.223-10.453,4.83-13.924,1.359
				c-3.469-3.473-2.861-9.711,1.359-13.934L51.34,54.986L40.635,44.274c-4.221-4.224-4.828-10.461-1.357-13.934
				S48.98,27.476,53.201,31.699L53.201,31.699z"/>
		</g>
		<g opacity="0.5">
			<path fill="#FFFFFF" d="M40.996,31.892c3.141-3.059,8.508-2.643,11.984,0.928l-0.979-1.006c-3.48-3.573-8.844-3.986-11.984-0.928
				s-2.863,8.432,0.613,12.002l0.98,1.005C38.133,40.322,37.857,34.949,40.996,31.892z"/>
		</g>
		<path opacity="0.5" fill="#FFFFFF" d="M65.385,43.765l-0.637-0.636l11.566-11.753c0,0,1.037-0.938,1.49-1.228
			c0.865-0.554,1.533-0.577,1.533-0.577L65.385,43.765z"/>
	</g>
</g>
</svg>
