<?xml version="1.0" encoding="utf-8"?>
<!-- Generator: Adobe Illustrator 13.0.0, SVG Export Plug-In . SVG Version: 6.00 Build 14948)  -->
<!DOCTYPE svg PUBLIC "-//W3C//DTD SVG 1.1//EN" "http://www.w3.org/Graphics/SVG/1.1/DTD/svg11.dtd">
<svg version="1.1" id="Layer_1" xmlns="http://www.w3.org/2000/svg" xmlns:xlink="http://www.w3.org/1999/xlink" x="0px" y="0px"
	 width="128px" height="128px" viewBox="0 0 128 128" enable-background="new 0 0 128 128" xml:space="preserve">
<g>
	
		<radialGradient id="SVGID_1_" cx="-5175.7349" cy="-1046.7598" r="53.1366" gradientTransform="matrix(0 1 -1 0 -982.8965 5245.6016)" gradientUnits="userSpaceOnUse">
		<stop  offset="0" style="stop-color:#FAFAFA"/>
		<stop  offset="0.3109" style="stop-color:#F4F4F4"/>
		<stop  offset="0.7262" style="stop-color:#E3E3E3"/>
		<stop  offset="1" style="stop-color:#D4D4D4"/>
	</radialGradient>
	<path fill="url(#SVGID_1_)" stroke="#B3B3B3" stroke-width="2" d="M105.658,114.551H22.07c-10.285,0-18.625-8.344-18.625-18.637
		V43.819c0-10.295,8.34-18.637,18.625-18.637h83.588c10.285,0,18.623,8.342,18.623,18.637v52.095
		C124.281,106.207,115.943,114.551,105.658,114.551L105.658,114.551z"/>
	<path fill="#B3B3B3" d="M105.02,110.597H22.583c-10.143,0-18.367-8.229-18.367-18.379v3.698c0,10.151,8.225,18.38,18.367,18.38
		h82.437c10.144,0,18.365-8.229,18.365-18.38v-3.698C123.385,102.368,115.163,110.597,105.02,110.597z"/>
	<path opacity="0.5" fill="#FFFFFF" d="M24.822,32.751h78.083c5.723,0,10.792,2.77,13.962,7.037h2.071
		c-2.64-6.253-8.824-10.64-16.033-10.64H24.822c-7.209,0-13.395,4.387-16.034,10.64h2.071C14.03,35.521,19.1,32.751,24.822,32.751z"
		/>
	<g>
		<linearGradient id="SVGID_2_" gradientUnits="userSpaceOnUse" x1="88.5488" y1="64.3545" x2="88.5488" y2="106.2158">
			<stop  offset="0" style="stop-color:#99DBF6"/>
			<stop  offset="1" style="stop-color:#00B2DE"/>
		</linearGradient>
		<path fill="url(#SVGID_2_)" d="M112.208,98.626c0,4.192-3.397,7.59-7.589,7.59H72.481c-4.192,0-7.591-3.397-7.591-7.59V71.944
			c0-4.191,3.398-7.59,7.591-7.59h32.138c4.191,0,7.589,3.398,7.589,7.59V98.626z"/>
		<g>
			<linearGradient id="SVGID_3_" gradientUnits="userSpaceOnUse" x1="86.1387" y1="99.8242" x2="80.7486" y2="96.05">
				<stop  offset="0" style="stop-color:#DEDEDE"/>
				<stop  offset="1" style="stop-color:#FEFEFE"/>
			</linearGradient>
			<polygon opacity="0.8" fill="url(#SVGID_3_)" points="81.642,94.777 81.631,101.153 88.247,96.815 81.642,94.777 			"/>
			<linearGradient id="SVGID_4_" gradientUnits="userSpaceOnUse" x1="100.0361" y1="92.3467" x2="81.5892" y2="79.43">
				<stop  offset="0" style="stop-color:#DEDEDE"/>
				<stop  offset="1" style="stop-color:#FEFEFE"/>
			</linearGradient>
			<polygon fill="url(#SVGID_4_)" points="108.394,80.412 81.446,94.215 73.233,91.365 108.394,80.412 			"/>
			<linearGradient id="SVGID_5_" gradientUnits="userSpaceOnUse" x1="102.9287" y1="92.8438" x2="89.6655" y2="83.5567">
				<stop  offset="0" style="stop-color:#DEDEDE"/>
				<stop  offset="1" style="stop-color:#FEFEFE"/>
			</linearGradient>
			<polygon fill="url(#SVGID_5_)" points="108.637,80.651 82.059,94.421 98.167,99.646 108.637,80.651 			"/>
		</g>
		<g>
			<path fill="#FFFFFF" d="M87.413,77.258c0,0,0.239-1.098-0.799-1.515c-1.037-0.42-1.887,0.674-1.887,0.674
				s1.222-2.493-1.324-3.104c-2.546-0.61-3.209,2.086-3.209,2.086s0.102-3.717-2.598-3.105c-1.994,0.452-3.629,1.797-3.727,3.164
				c-0.224-0.233-0.566-0.236-0.975-0.379c-1.516-0.532-4.988,2.311-1.697,4.446c1.938,1.259,3.021-0.372,3.021-0.372
				c1.121,1.152,2.309,1.392,3.972,1.051c1.663-0.34,2.411-1.29,2.411-1.29c1.934,1.903,4.275-0.339,4.275-0.339
				c0.782,0.95,2.311-0.205,2.311-0.205c0.78,0.883,2.061,0.724,2.081-0.433C89.288,76.78,87.413,77.258,87.413,77.258z"/>
			<path fill="#E6E6E6" d="M89.1,78.496c0,0-1.329,0.175-1.706-0.752c0,0-1.648,1.216-2.055-0.059
				c-0.027,0.117-0.027,0.117-0.027,0.117s-3.938,1.532-4.659-0.318c0,0-3.761,3.472-5.785,0.348c0,0-3.101,2.604-4.894,0.376
				c-0.005-0.009,0,0.071,0.069,0c0.048,0.46,0.505,1.115,1.323,1.484c2.104,0.95,2.854-0.54,2.854-0.54
				c1.121,1.152,2.309,1.392,3.972,1.051c1.663-0.34,2.411-1.29,2.411-1.29c1.934,1.903,4.275-0.339,4.275-0.339
				c0.782,0.95,2.311-0.205,2.311-0.205c0.622,0.705,1.562,0.746,1.927,0.146L89.1,78.496z"/>
		</g>
	</g>
	<g>
		<polygon points="13.984,67.468 55.879,67.468 55.879,70.554 13.984,70.554 		"/>
		<polygon points="13.984,80.782 55.879,80.782 55.879,83.868 13.984,83.868 		"/>
		<polygon points="13.984,94.097 55.879,94.097 55.879,97.183 13.984,97.183 		"/>
		<polygon points="13.984,100.753 44.666,100.753 44.666,103.839 13.984,103.839 		"/>
		<polygon points="13.984,74.126 44.666,74.126 44.666,77.212 13.984,77.212 		"/>
		<polygon points="13.984,87.44 44.666,87.44 44.666,90.524 13.984,90.524 		"/>
	</g>
	
		<linearGradient id="SVGID_6_" gradientUnits="userSpaceOnUse" x1="-349.2856" y1="853.4707" x2="-349.2856" y2="871.2656" gradientTransform="matrix(1 0 0 1 412.6201 -813.9912)">
		<stop  offset="0" style="stop-color:#99DBF6"/>
		<stop  offset="1" style="stop-color:#00B2DE"/>
	</linearGradient>
	<path fill="url(#SVGID_6_)" d="M112.686,48.376c0,4.915-3.984,8.898-8.897,8.898H22.882c-4.914,0-8.897-3.983-8.897-8.898l0,0
		c0-4.914,3.983-8.896,8.897-8.896h80.905C108.701,39.478,112.686,43.462,112.686,48.376L112.686,48.376z"/>
	<g>
		<g>
			
				<linearGradient id="SVGID_7_" gradientUnits="userSpaceOnUse" x1="-309.1685" y1="-451.3081" x2="-309.1685" y2="-488.2275" gradientTransform="matrix(1 0 0 -1 412.6577 -439.8887)">
				<stop  offset="0" style="stop-color:#E20A16"/>
				<stop  offset="1" style="stop-color:#B51015"/>
			</linearGradient>
			<path fill="url(#SVGID_7_)" d="M96.144,13.898l7.345,7.351l7.348-7.352c2.896-2.897,7.175-3.314,9.555-0.932
				c2.382,2.383,1.964,6.664-0.932,9.562l-7.348,7.353l7.348,7.35c2.896,2.898,3.311,7.18,0.931,9.562
				c-2.382,2.384-6.659,1.966-9.554-0.932l-7.348-7.352l-7.347,7.352c-2.896,2.897-7.173,3.314-9.554,0.934
				c-2.381-2.384-1.965-6.665,0.933-9.562l7.346-7.352l-7.346-7.352c-2.897-2.898-3.313-7.179-0.933-9.562
				C88.97,10.583,93.246,11,96.144,13.898L96.144,13.898z"/>
		</g>
		<g opacity="0.5">
			<path fill="#FFFFFF" d="M87.768,14.031c2.155-2.1,5.839-1.813,8.225,0.636l-0.672-0.689c-2.388-2.453-6.068-2.736-8.225-0.637
				c-2.154,2.099-1.964,5.785,0.422,8.236l0.672,0.689C85.803,19.816,85.613,16.129,87.768,14.031z"/>
		</g>
		<path opacity="0.5" fill="#FFFFFF" d="M104.504,22.179l-0.437-0.437l7.938-8.065c0,0,0.712-0.645,1.022-0.842
			c0.594-0.38,1.052-0.396,1.052-0.396L104.504,22.179z"/>
	</g>
</g>
</svg>
