<?xml version="1.0" encoding="utf-8"?>
<!-- Generator: Adobe Illustrator 13.0.0, SVG Export Plug-In . SVG Version: 6.00 Build 14948)  -->
<!DOCTYPE svg PUBLIC "-//W3C//DTD SVG 1.1//EN" "http://www.w3.org/Graphics/SVG/1.1/DTD/svg11.dtd">
<svg version="1.1" id="Layer_1" xmlns="http://www.w3.org/2000/svg" xmlns:xlink="http://www.w3.org/1999/xlink" x="0px" y="0px"
	 width="128px" height="128px" viewBox="0 0 128 128" enable-background="new 0 0 128 128" xml:space="preserve">
<g>
	<line fill="none" stroke="#000000" stroke-width="2" stroke-dasharray="3" x1="63.885" y1="18.863" x2="63.885" y2="112.258"/>
	<g>
		
			<linearGradient id="SVGID_1_" gradientUnits="userSpaceOnUse" x1="5995.542" y1="2551.9307" x2="6014.647" y2="2514.1125" gradientTransform="matrix(2.5116 1.4966 1.2688 -2.1294 -18264.7793 -3529.1084)">
			<stop  offset="0" style="stop-color:#FFD207"/>
			<stop  offset="1" style="stop-color:#FAA61A"/>
		</linearGradient>
		<path fill="url(#SVGID_1_)" d="M46.561,116.66H15.777c-6.472,0-11.881-5.621-9.209-11.848
			c8.276-19.289,28.686-70.916,36.166-87.086c2.838-6.135,10.373-7.219,13.045-2.316c0,0,1.368,2.273,1.368,4.633
			c0,0.26,0,84.77,0,84.77C57.147,110.58,57.8,116.66,46.561,116.66z"/>
		<linearGradient id="SVGID_2_" gradientUnits="userSpaceOnUse" x1="96.2578" y1="12.3315" x2="96.2578" y2="116.6606">
			<stop  offset="0" style="stop-color:#FF9D00"/>
			<stop  offset="1" style="stop-color:#FF1F00"/>
		</linearGradient>
		<path fill="url(#SVGID_2_)" d="M81.209,116.66h30.784c6.471,0,11.88-5.621,9.209-11.848
			c-8.276-19.289-28.686-70.916-36.167-87.086c-2.838-6.135-10.372-7.219-13.044-2.316c0,0-1.368,2.273-1.368,4.633
			c0,0.26,0,84.77,0,84.77C70.623,110.58,69.971,116.66,81.209,116.66z"/>
	</g>
	<g>
		<g>
			<g>
				
					<linearGradient id="SVGID_3_" gradientUnits="userSpaceOnUse" x1="-8896.9141" y1="-10150.7227" x2="-8917.2031" y2="-10128.4756" gradientTransform="matrix(0.7124 -0.7018 0.7018 0.7124 13525.0264 1058.2412)">
					<stop  offset="0" style="stop-color:#5F5D5C"/>
					<stop  offset="1" style="stop-color:#181500"/>
				</linearGradient>
				<path fill="url(#SVGID_3_)" d="M84.279,92.01c1.955,1.981,3.448,3.495,3.761,3.81c0.993,1.009,2.253,1.539,3.696,1.584
					c1.447-0.025,2.711-0.536,3.718-1.531c1.048-1.03,1.537-2.251,1.586-3.697l0.068-16.129c0.044-1.443-0.467-2.709-1.461-3.718
					c-1.03-1.045-2.288-1.575-3.733-1.548l-16.132-0.148c-1.447,0.026-2.675,0.498-3.718,1.529
					c-1.011,0.996-1.539,2.252-1.584,3.697c0.027,1.445,0.538,2.713,1.53,3.72c0.315,0.318,1.84,1.863,3.829,3.879
					c-21.438,16.743-38.792-2.212-44.445-9.735c-0.537-0.718-1.725-0.353-1.582,0.533c1.042,6.359,3.984,12.467,8.849,17.406
					C51.166,104.354,71.588,104.509,84.279,92.01z"/>
			</g>
		</g>
		<path opacity="0.5" fill="#FFFFFF" d="M92.947,72.498c0.388,0.008,0.696,0.36,0.688,0.788l0,0
			c-0.008,0.427-0.326,0.767-0.713,0.762l-18.196-0.321c-0.386-0.007-0.696-0.358-0.687-0.788l0,0
			c0.008-0.426,0.326-0.77,0.713-0.762L92.947,72.498z"/>
	</g>
	<path opacity="0.5" fill="#FFFFFF" d="M10.861,106.179c-0.365,0.872-1.067,1.41-1.568,1.2l0,0c-0.502-0.21-0.613-1.087-0.25-1.96
		l34.24-82.123c0.363-0.874,1.064-1.412,1.566-1.201l0,0c0.502,0.209,0.614,1.084,0.25,1.957L10.861,106.179z"/>
</g>
</svg>
