<?xml version="1.0" encoding="utf-8"?>
<!-- Generator: Adobe Illustrator 13.0.0, SVG Export Plug-In . SVG Version: 6.00 Build 14948)  -->
<!DOCTYPE svg PUBLIC "-//W3C//DTD SVG 1.1//EN" "http://www.w3.org/Graphics/SVG/1.1/DTD/svg11.dtd">
<svg version="1.1" id="Layer_1" xmlns="http://www.w3.org/2000/svg" xmlns:xlink="http://www.w3.org/1999/xlink" x="0px" y="0px"
	 width="128px" height="128px" viewBox="0 0 128 128" enable-background="new 0 0 128 128" xml:space="preserve">
<g>
	
		<linearGradient id="SVGID_1_" gradientUnits="userSpaceOnUse" x1="-235.2607" y1="775.3164" x2="-235.2607" y2="838.9951" gradientTransform="matrix(1 0 0 1 246.6895 -715.6445)">
		<stop  offset="0" style="stop-color:#D5D7D8"/>
		<stop  offset="1" style="stop-color:#5C5F61"/>
	</linearGradient>
	<path fill="url(#SVGID_1_)" d="M20.559,114.222c0,5.041-4.088,9.129-9.131,9.129l0,0c-5.041,0-9.129-4.088-9.129-9.129V68.8
		c0-5.041,4.088-9.127,9.129-9.127l0,0c5.043,0,9.131,4.086,9.131,9.127V114.222z"/>
	
		<linearGradient id="SVGID_2_" gradientUnits="userSpaceOnUse" x1="-208.8203" y1="761.5137" x2="-208.8203" y2="838.9951" gradientTransform="matrix(1 0 0 1 246.6895 -715.6445)">
		<stop  offset="0" style="stop-color:#D5D7D8"/>
		<stop  offset="1" style="stop-color:#5C5F61"/>
	</linearGradient>
	<path fill="url(#SVGID_2_)" d="M46.998,114.222c0,5.041-4.088,9.129-9.129,9.129l0,0c-5.041,0-9.129-4.088-9.129-9.129V54.999
		c0-5.042,4.088-9.129,9.129-9.129l0,0c5.041,0,9.129,4.087,9.129,9.129V114.222z"/>
	<linearGradient id="SVGID_3_" gradientUnits="userSpaceOnUse" x1="64.3101" y1="32.0693" x2="64.3101" y2="123.3511">
		<stop  offset="0" style="stop-color:#D5D7D8"/>
		<stop  offset="1" style="stop-color:#5C5F61"/>
	</linearGradient>
	<path fill="url(#SVGID_3_)" d="M73.439,114.222c0,5.041-4.088,9.129-9.131,9.129l0,0c-5.041,0-9.127-4.088-9.127-9.129V41.198
		c0-5.042,4.086-9.129,9.127-9.129l0,0c5.043,0,9.131,4.087,9.131,9.129V114.222L73.439,114.222z"/>
	
		<linearGradient id="SVGID_4_" gradientUnits="userSpaceOnUse" x1="-155.9399" y1="733.9121" x2="-155.9399" y2="838.9951" gradientTransform="matrix(1 0 0 1 246.6895 -715.6445)">
		<stop  offset="0" style="stop-color:#D5D7D8"/>
		<stop  offset="1" style="stop-color:#5C5F61"/>
	</linearGradient>
	<path fill="url(#SVGID_4_)" d="M99.879,114.222c0,5.041-4.086,9.129-9.129,9.129l0,0c-5.041,0-9.129-4.088-9.129-9.129V27.397
		c0-5.043,4.088-9.129,9.129-9.129l0,0c5.043,0,9.129,4.086,9.129,9.129V114.222z"/>
	
		<linearGradient id="SVGID_5_" gradientUnits="userSpaceOnUse" x1="-129.4976" y1="720.1113" x2="-129.4976" y2="838.9951" gradientTransform="matrix(1 0 0 1 246.6895 -715.6445)">
		<stop  offset="0" style="stop-color:#D5D7D8"/>
		<stop  offset="1" style="stop-color:#5C5F61"/>
	</linearGradient>
	<path fill="url(#SVGID_5_)" d="M126.322,114.222c0,5.041-4.09,9.129-9.131,9.129l0,0c-5.043,0-9.129-4.088-9.129-9.129V13.597
		c0-5.041,4.086-9.129,9.129-9.129l0,0c5.041,0,9.131,4.088,9.131,9.129V114.222z"/>
	<g opacity="0.3">
		<path fill="#FFFFFF" d="M11.428,59.673c-5.041,0-9.129,4.086-9.129,9.127v19.309c5.332-2.172,11.625-4.328,18.26-5.747V68.8
			C20.559,63.759,16.471,59.673,11.428,59.673z"/>
		<path fill="#FFFFFF" d="M37.869,45.87c-5.041,0-9.129,4.087-9.129,9.129v26.048c6.188-0.637,12.434-0.41,18.258,1.217V54.999
			C46.998,49.957,42.91,45.87,37.869,45.87z"/>
		<path fill="#FFFFFF" d="M64.309,32.069c-5.041,0-9.127,4.087-9.127,9.129v43.624c5.389,1.411,11.613,2.371,18.258,2.816v-46.44
			C73.439,36.156,69.352,32.069,64.309,32.069z"/>
		<path fill="#FFFFFF" d="M90.75,18.269c-5.041,0-9.129,4.086-9.129,9.129v60.523c5.986,0.018,12.16-0.37,18.258-1.206V27.397
			C99.879,22.354,95.793,18.269,90.75,18.269z"/>
		<path fill="#FFFFFF" d="M117.191,4.468c-5.043,0-9.129,4.088-9.129,9.129v71.71c6.432-1.346,12.629-3.235,18.26-5.718V13.597
			C126.322,8.556,122.232,4.468,117.191,4.468z"/>
	</g>
	<g>
		<path fill="#595959" d="M11.428,121.132c-5.043,0-9.129-4.088-9.129-9.129v2.219c0,5.041,4.086,9.129,9.129,9.129
			c5.041,0,9.131-4.088,9.131-9.129v-2.219C20.559,117.044,16.469,121.132,11.428,121.132z"/>
	</g>
	<g>
		<path fill="#595959" d="M37.867,121.132c-5.043,0-9.129-4.088-9.129-9.129v2.219c0,5.041,4.086,9.129,9.129,9.129
			c5.041,0,9.131-4.088,9.131-9.129v-2.219C46.998,117.044,42.908,121.132,37.867,121.132z"/>
	</g>
	<g>
		<path fill="#595959" d="M64.309,121.132c-5.041,0-9.129-4.088-9.129-9.129v2.219c0,5.041,4.088,9.129,9.129,9.129
			c5.043,0,9.131-4.088,9.131-9.129v-2.219C73.439,117.044,69.352,121.132,64.309,121.132z"/>
	</g>
	<g>
		<path fill="#595959" d="M90.748,121.132c-5.043,0-9.129-4.088-9.129-9.129v2.219c0,5.041,4.086,9.129,9.129,9.129
			c5.041,0,9.131-4.088,9.131-9.129v-2.219C99.879,117.044,95.789,121.132,90.748,121.132z"/>
	</g>
	<g>
		<path fill="#595959" d="M117.191,121.132c-5.043,0-9.129-4.088-9.129-9.129v2.219c0,5.041,4.086,9.129,9.129,9.129
			c5.041,0,9.131-4.088,9.131-9.129v-2.219C126.322,117.044,122.232,121.132,117.191,121.132z"/>
	</g>
</g>
</svg>
