<?xml version="1.0" encoding="utf-8"?>
<!-- Generator: Adobe Illustrator 13.0.0, SVG Export Plug-In . SVG Version: 6.00 Build 14948)  -->
<!DOCTYPE svg PUBLIC "-//W3C//DTD SVG 1.1//EN" "http://www.w3.org/Graphics/SVG/1.1/DTD/svg11.dtd">
<svg version="1.1" id="Layer_1" xmlns="http://www.w3.org/2000/svg" xmlns:xlink="http://www.w3.org/1999/xlink" x="0px" y="0px"
	 width="128px" height="128px" viewBox="0 0 128 128" enable-background="new 0 0 128 128" xml:space="preserve">
<g>
	
		<linearGradient id="SVGID_1_" gradientUnits="userSpaceOnUse" x1="-225.2759" y1="142.166" x2="-225.2759" y2="30.3672" gradientTransform="matrix(1 0 0 -1 289.2754 151.834)">
		<stop  offset="0" style="stop-color:#D5D7D8"/>
		<stop  offset="1" style="stop-color:#5C5F61"/>
	</linearGradient>
	<path fill="url(#SVGID_1_)" d="M112.346,104.346c0,9.455-7.669,17.121-17.121,17.121h-62.45c-9.455,0-17.121-7.666-17.121-17.121
		V26.791c0-9.457,7.666-17.123,17.121-17.123h62.45c9.452,0,17.121,7.666,17.121,17.123V104.346z"/>
	<path opacity="0.5" fill="#FFFFFF" enable-background="new    " d="M93.811,13.031H34.187c-9.025,0-16.348,7.32-16.348,16.348
		v0.623h1.334c2.506-5.812,8.283-9.885,15.014-9.885h59.624c6.731,0,12.508,4.072,15.016,9.885h1.333v-0.623
		C110.158,20.351,102.84,13.031,93.811,13.031z"/>
	<path opacity="0.3" fill="#666666" enable-background="new    " d="M47.678,77c-11.428,0-22.26-1.33-32.024-3.705v31.051
		c0,9.455,7.666,17.121,17.121,17.121h62.45c9.452,0,17.121-7.666,17.121-17.121V58.388C98.482,69.6,74.7,77,47.678,77z"/>
	<path fill="#666666" d="M32.777,121.467h62.448c9.457,0,17.121-7.666,17.121-17.121v-4.635c0,9.457-7.664,17.125-17.121,17.125
		H32.777c-9.457,0-17.121-7.668-17.121-17.125v4.635C15.656,113.801,23.32,121.467,32.777,121.467z"/>
	<path fill="#595959" d="M32.655,120.875h62c9.39,0,17-7.611,17-17v-4.602c0,9.389-7.61,17-17,17h-62c-9.389,0-17-7.611-17-17v4.602
		C15.655,113.264,23.266,120.875,32.655,120.875z"/>
	<g>
		<g>
			
				<linearGradient id="SVGID_2_" gradientUnits="userSpaceOnUse" x1="-655.6992" y1="-726.4448" x2="-655.6992" y2="-702.5756" gradientTransform="matrix(1 0 0 -1 701.8955 -662.1562)">
				<stop  offset="0" style="stop-color:#EC008C"/>
				<stop  offset="1" style="stop-color:#C40075"/>
			</linearGradient>
			<path fill="url(#SVGID_2_)" d="M58.312,57.89c0,0-1.861-17.564-23.375-20.78c0,0-7.654,29.936,10.549,32.658
				C63.689,72.486,58.312,57.89,58.312,57.89z"/>
			
				<linearGradient id="SVGID_3_" gradientUnits="userSpaceOnUse" x1="-619.9067" y1="-726.4448" x2="-619.9067" y2="-702.5756" gradientTransform="matrix(1 0 0 -1 701.8955 -662.1562)">
				<stop  offset="0" style="stop-color:#EC008C"/>
				<stop  offset="1" style="stop-color:#C40075"/>
			</linearGradient>
			<path fill="url(#SVGID_3_)" d="M69.875,57.89c0,0,1.861-17.564,23.373-20.78c0,0,7.654,29.936-10.549,32.658
				C64.496,72.486,69.875,57.89,69.875,57.89z"/>
			
				<linearGradient id="SVGID_4_" gradientUnits="userSpaceOnUse" x1="-627.7349" y1="-740.481" x2="-656.0786" y2="-720.6345" gradientTransform="matrix(1 0 0 -1 701.8955 -662.1562)">
				<stop  offset="0" style="stop-color:#DEDEDE"/>
				<stop  offset="1" style="stop-color:#FEFEFE"/>
			</linearGradient>
			<path fill="url(#SVGID_4_)" d="M63.998,98.962c15.273,0,28.206-10.041,32.613-23.899c-4.407-13.865-17.34-34.98-32.613-34.98
				c-15.27,0-28.203,21.116-32.609,34.98C35.794,88.921,48.728,98.962,63.998,98.962z"/>
			<g>
				<g>
					<g>
						<line fill="none" x1="52.826" y1="87.374" x2="35.3" y2="100.999"/>
						
							<linearGradient id="SVGID_5_" gradientUnits="userSpaceOnUse" x1="-254.4136" y1="57.6475" x2="-236.0122" y2="57.6475" gradientTransform="matrix(1 0 0 -1 289.2754 151.834)">
							<stop  offset="0" style="stop-color:#EC008C"/>
							<stop  offset="1" style="stop-color:#C4008C"/>
						</linearGradient>
						<path fill="url(#SVGID_5_)" d="M52.587,86.934l-17.525,13.625c-0.203,0.16-0.262,0.481-0.129,0.729
							c0.133,0.242,0.402,0.311,0.605,0.152l17.525-13.623c0.203-0.158,0.262-0.484,0.129-0.729
							C53.062,86.846,52.791,86.775,52.587,86.934z"/>
					</g>
					<g>
						<line fill="none" x1="56.771" y1="87.896" x2="39.244" y2="101.523"/>
						
							<linearGradient id="SVGID_6_" gradientUnits="userSpaceOnUse" x1="-250.4702" y1="57.1226" x2="-232.0684" y2="57.1226" gradientTransform="matrix(1 0 0 -1 289.2754 151.834)">
							<stop  offset="0" style="stop-color:#EC008C"/>
							<stop  offset="1" style="stop-color:#C4008C"/>
						</linearGradient>
						<path fill="url(#SVGID_6_)" d="M56.531,87.46l-17.527,13.623c-0.203,0.155-0.26,0.481-0.127,0.728
							c0.131,0.244,0.402,0.312,0.605,0.155l17.525-13.629c0.203-0.157,0.262-0.481,0.129-0.728
							C57.003,87.368,56.734,87.3,56.531,87.46z"/>
					</g>
				</g>
				<g>
					<g>
						<line fill="none" x1="75.172" y1="87.374" x2="92.697" y2="100.999"/>
						
							<linearGradient id="SVGID_7_" gradientUnits="userSpaceOnUse" x1="-214.542" y1="57.6475" x2="-196.1406" y2="57.6475" gradientTransform="matrix(1 0 0 -1 289.2754 151.834)">
							<stop  offset="0" style="stop-color:#EC008C"/>
							<stop  offset="1" style="stop-color:#C4008C"/>
						</linearGradient>
						<path fill="url(#SVGID_7_)" d="M75.41,86.934l17.525,13.625c0.203,0.16,0.26,0.481,0.129,0.729
							c-0.131,0.242-0.402,0.311-0.605,0.152L74.934,87.814c-0.203-0.158-0.262-0.483-0.129-0.729
							C74.938,86.846,75.209,86.775,75.41,86.934z"/>
					</g>
					<g>
						<line fill="none" x1="71.229" y1="87.896" x2="88.754" y2="101.523"/>
						
							<linearGradient id="SVGID_8_" gradientUnits="userSpaceOnUse" x1="-218.4854" y1="57.123" x2="-200.0845" y2="57.123" gradientTransform="matrix(1 0 0 -1 289.2754 151.834)">
							<stop  offset="0" style="stop-color:#EC008C"/>
							<stop  offset="1" style="stop-color:#C4008C"/>
						</linearGradient>
						<path fill="url(#SVGID_8_)" d="M71.467,87.46l17.525,13.623c0.201,0.155,0.26,0.481,0.129,0.728
							c-0.135,0.242-0.404,0.312-0.605,0.155L70.99,88.337c-0.203-0.157-0.262-0.481-0.129-0.728
							C70.994,87.368,71.266,87.3,71.467,87.46z"/>
					</g>
				</g>
			</g>
			<path fill="#FFFFFF" d="M45.714,70.807c0,0,12.131-3.232,9.436,9.703C55.15,80.51,43.83,82.938,45.714,70.807z"/>
			<path fill="#FFFFFF" d="M82.283,70.807c0,0-12.131-3.232-9.434,9.703C72.85,80.51,84.168,82.938,82.283,70.807z"/>
			<line fill="none" stroke="#4D4D4D" x1="64" y1="88.803" x2="64" y2="93.854"/>
			
				<linearGradient id="SVGID_9_" gradientUnits="userSpaceOnUse" x1="-650.7573" y1="-712.5425" x2="-641.3726" y2="-712.5425" gradientTransform="matrix(1 0 0 -1 701.8955 -662.1562)">
				<stop  offset="0" style="stop-color:#9A9A9A"/>
				<stop  offset="1" style="stop-color:#DEDEDE"/>
			</linearGradient>
			<polygon fill="url(#SVGID_9_)" points="51.138,44.134 60.523,59.074 57.308,41.699 			"/>
			
				<linearGradient id="SVGID_10_" gradientUnits="userSpaceOnUse" x1="-643.0054" y1="-711.2651" x2="-637.0225" y2="-711.2651" gradientTransform="matrix(1 0 0 -1 701.8955 -662.1562)">
				<stop  offset="0" style="stop-color:#9A9A9A"/>
				<stop  offset="1" style="stop-color:#DEDEDE"/>
			</linearGradient>
			<polygon fill="url(#SVGID_10_)" points="58.89,40.568 63.439,57.65 64.873,40.688 			"/>
			
				<linearGradient id="SVGID_11_" gradientUnits="userSpaceOnUse" x1="-652.9175" y1="-736.5454" x2="-646.7915" y2="-736.5454" gradientTransform="matrix(1 0 0 -1 701.8955 -662.1562)">
				<stop  offset="0" style="stop-color:#5F5D5C"/>
				<stop  offset="1" style="stop-color:#181500"/>
			</linearGradient>
			<circle fill="url(#SVGID_11_)" cx="52.041" cy="74.389" r="3.063"/>
			
				<linearGradient id="SVGID_12_" gradientUnits="userSpaceOnUse" x1="-629.042" y1="-736.5454" x2="-622.917" y2="-736.5454" gradientTransform="matrix(1 0 0 -1 701.8955 -662.1562)">
				<stop  offset="0" style="stop-color:#5F5D5C"/>
				<stop  offset="1" style="stop-color:#181500"/>
			</linearGradient>
			<circle fill="url(#SVGID_12_)" cx="75.916" cy="74.389" r="3.063"/>
			<path fill="#595959" d="M45.49,69.96l-0.553,0.146l-0.088,0.562c-0.623,4.004,0.064,6.979,2.039,8.846
				c3.123,2.949,8.229,1.896,8.443,1.852l0.561-0.118l0.113-0.562c0.887-4.246,0.33-7.352-1.648-9.227
				C51.205,68.479,45.722,69.898,45.49,69.96z M53.156,72.736c1.004,0.955,1.51,2.41,1.51,4.353c0,0.795-0.105,1.692-0.277,2.651
				c-1.279,0.158-4.385,0.312-6.301-1.506c-1.137-1.075-1.709-2.713-1.709-4.881c0-0.559,0.076-1.188,0.154-1.822
				C47.857,71.29,51.214,70.896,53.156,72.736z"/>
			<path fill="#595959" d="M73.641,71.46c-1.979,1.875-2.535,4.979-1.647,9.229l0.114,0.559l0.56,0.119
				c0.215,0.047,5.319,1.1,8.442-1.852c1.978-1.865,2.662-4.843,2.039-8.845l-0.088-0.563l-0.553-0.146
				C82.277,69.898,76.793,68.479,73.641,71.46z M73.332,77.087c0-1.938,0.506-3.396,1.51-4.351c1.941-1.842,5.301-1.448,6.625-1.205
				c0.076,0.632,0.152,1.265,0.152,1.822c0,2.168-0.572,3.806-1.707,4.881c-1.918,1.814-5.021,1.664-6.303,1.506
				C73.439,78.781,73.332,77.882,73.332,77.087z"/>
			<g>
				<path fill="#595959" d="M62.419,90.544c0.869,1.037,2.29,1.037,3.157,0l3.93-4.7c0.152-0.185,0.271-0.359,0.352-0.527
					c-1.758-0.527-3.746-0.828-5.855-0.828c-2.109,0-4.102,0.301-5.857,0.828c0.082,0.168,0.195,0.346,0.35,0.527L62.419,90.544z"/>
			</g>
		</g>
		<path opacity="0.5" fill="#FFFFFF" enable-background="new    " d="M35.589,38.275c0,0,5.551,1.315,7.488,2.203
			s6.58,3.792,6.58,3.792l-0.688,0.526c0,0-4.248-2.857-6.104-3.664C41.007,40.325,35.589,38.275,35.589,38.275z"/>
		<path opacity="0.5" fill="#FFFFFF" enable-background="new    " d="M92.436,38.275c0,0-5.551,1.315-7.487,2.203
			c-1.938,0.888-6.58,3.792-6.58,3.792l0.688,0.526c0,0,4.248-2.857,6.104-3.664C87.018,40.325,92.436,38.275,92.436,38.275z"/>
	</g>
</g>
</svg>
