<?xml version="1.0" encoding="utf-8"?>
<!-- Generator: Adobe Illustrator 13.0.0, SVG Export Plug-In . SVG Version: 6.00 Build 14948)  -->
<!DOCTYPE svg PUBLIC "-//W3C//DTD SVG 1.1//EN" "http://www.w3.org/Graphics/SVG/1.1/DTD/svg11.dtd">
<svg version="1.1" id="Layer_1" xmlns="http://www.w3.org/2000/svg" xmlns:xlink="http://www.w3.org/1999/xlink" x="0px" y="0px"
	 width="128px" height="128px" viewBox="0 0 128 128" enable-background="new 0 0 128 128" xml:space="preserve">
<g>
	
		<linearGradient id="SVGID_1_" gradientUnits="userSpaceOnUse" x1="-59.0244" y1="849.2002" x2="-59.0244" y2="954.292" gradientTransform="matrix(1 0 0 1 123.3823 -838.9521)">
		<stop  offset="0" style="stop-color:#FFD207"/>
		<stop  offset="1" style="stop-color:#FAA61A"/>
	</linearGradient>
	<path fill="url(#SVGID_1_)" d="M64.044,10.249c-3.609,0.028-6.894,2.104-8.471,5.354c0,0-8.488,17.523-11.572,23.891
		c-6.99,1.068-26.235,4.009-26.235,4.009c-3.22,0.491-5.933,2.591-7.236,5.521c-0.146,0.324-0.272,0.653-0.379,0.996
		c-1.092,3.443-0.133,7.209,2.472,9.715c0,0,14.045,13.486,19.145,18.386c-1.145,6.979-4.293,26.193-4.293,26.193
		c-0.584,3.565,0.904,7.153,3.844,9.258c2.938,2.102,6.814,2.352,10.001,0.646c0,0,17.169-9.188,23.403-12.522
		c6.283,3.244,23.584,12.18,23.584,12.18c3.214,1.656,7.082,1.348,9.99-0.799c1.351-0.993,2.379-2.303,3.035-3.774
		c0.76-1.706,1.014-3.627,0.674-5.534c0,0-3.435-19.17-4.683-26.129c5.027-4.973,18.871-18.665,18.871-18.665
		c0.854-0.848,1.522-1.827,1.998-2.889c0.944-2.128,1.095-4.57,0.33-6.859c-1.14-3.43-4.127-5.912-7.709-6.404
		c0,0-19.289-2.656-26.293-3.624c-3.179-6.318-11.925-23.714-11.925-23.714C70.974,12.253,67.659,10.226,64.044,10.249
		L64.044,10.249z"/>
	<g opacity="0.3">
		<path opacity="0.63" fill="#FFFFFF" d="M88.746,39.778c-1.64-0.227-3.095-0.427-4.227-0.583
			c-3.179-6.318-11.925-23.714-11.925-23.714c-1.621-3.229-4.936-5.256-8.551-5.232c-3.609,0.028-6.894,2.104-8.471,5.354
			c0,0-8.488,17.523-11.572,23.891c-6.99,1.068-26.235,4.009-26.235,4.009c-3.22,0.491-5.933,2.591-7.236,5.521
			c-0.146,0.324-0.272,0.653-0.379,0.996c-1.092,3.443-0.133,7.209,2.472,9.715c0,0,14.045,13.486,19.145,18.386
			c-0.26,1.583-0.623,3.8-1.029,6.275C61.968,83.899,87.272,64.314,88.746,39.778z"/>
	</g>
</g>
</svg>
