<?xml version="1.0" encoding="utf-8"?>
<!-- Generator: Adobe Illustrator 13.0.0, SVG Export Plug-In . SVG Version: 6.00 Build 14948)  -->
<!DOCTYPE svg PUBLIC "-//W3C//DTD SVG 1.1//EN" "http://www.w3.org/Graphics/SVG/1.1/DTD/svg11.dtd">
<svg version="1.1" id="Layer_1" xmlns="http://www.w3.org/2000/svg" xmlns:xlink="http://www.w3.org/1999/xlink" x="0px" y="0px"
	 width="128px" height="128px" viewBox="0 0 128 128" enable-background="new 0 0 128 128" xml:space="preserve">
<g>
	
		<linearGradient id="SVGID_1_" gradientUnits="userSpaceOnUse" x1="-183.021" y1="-290.8555" x2="-183.021" y2="-414.8716" gradientTransform="matrix(1 0 0 -1 246.7271 -289.8564)">
		<stop  offset="0" style="stop-color:#5F5D5C"/>
		<stop  offset="1" style="stop-color:#181500"/>
	</linearGradient>
	<path fill="url(#SVGID_1_)" d="M125.67,20.097v85.82c0,10.547-8.545,19.098-19.084,19.098H20.827
		c-10.539,0-19.084-8.551-19.084-19.098v-85.82c0-10.548,8.545-19.098,19.084-19.098h85.759
		C117.125,0.999,125.67,9.549,125.67,20.097L125.67,20.097z"/>
	<g>
		
			<linearGradient id="SVGID_2_" gradientUnits="userSpaceOnUse" x1="1254.418" y1="-3199.9492" x2="1254.418" y2="-3169" gradientTransform="matrix(-1 0 0 -1 1318.1191 -3160.2061)">
			<stop  offset="0" style="stop-color:#6D6F71"/>
			<stop  offset="1" style="stop-color:#939598"/>
		</linearGradient>
		<path fill="url(#SVGID_2_)" d="M24.783,22.408l77.838,0.001c9.564,0,17.32,7.761,17.32,17.334V26.129
			c0-9.573-7.756-17.335-17.32-17.335H24.783c-9.566,0-17.322,7.761-17.322,17.334v13.615C7.461,30.17,15.217,22.408,24.783,22.408z
			"/>
		<path fill="#FFFFFF" d="M102.629,8.304H24.783c-9.566,0-17.322,7.762-17.322,17.336v1.873c0-9.574,7.756-17.336,17.322-17.336
			h77.846c9.566,0,17.322,7.762,17.322,17.336V25.64C119.951,16.065,112.195,8.304,102.629,8.304z"/>
	</g>
	<g>
		<g>
			
				<linearGradient id="SVGID_3_" gradientUnits="userSpaceOnUse" x1="-83.25" y1="866.752" x2="-83.25" y2="888.8994" gradientTransform="matrix(1 0 0 1 123.3823 -838.9521)">
				<stop  offset="0" style="stop-color:#80E21B"/>
				<stop  offset="1" style="stop-color:#80B400"/>
			</linearGradient>
			<path fill="url(#SVGID_3_)" d="M29.065,38.874c0-6.115,4.954-11.073,11.065-11.073s11.068,4.958,11.068,11.073
				c0,6.114-4.957,11.074-11.068,11.074S29.065,44.988,29.065,38.874L29.065,38.874z"/>
			<g>
				<path fill="#FFFFFF" d="M40.057,29.656c4.412,0,8.179,2.391,9.713,5.762c-1.261-3.746-5.129-6.479-9.713-6.479
					c-4.586,0-8.455,2.734-9.713,6.486C31.874,32.05,35.643,29.656,40.057,29.656z"/>
			</g>
		</g>
		<g>
			
				<linearGradient id="SVGID_4_" gradientUnits="userSpaceOnUse" x1="-83.25" y1="894.6914" x2="-83.25" y2="916.8379" gradientTransform="matrix(1 0 0 1 123.3823 -838.9521)">
				<stop  offset="0" style="stop-color:#80E21B"/>
				<stop  offset="1" style="stop-color:#80B400"/>
			</linearGradient>
			<path fill="url(#SVGID_4_)" d="M29.065,66.812c0-6.114,4.954-11.072,11.065-11.072s11.068,4.958,11.068,11.072
				c0,6.115-4.957,11.074-11.068,11.074S29.065,72.928,29.065,66.812L29.065,66.812z"/>
			<g>
				<path fill="#FFFFFF" d="M40.057,57.594c4.412,0,8.179,2.392,9.713,5.764c-1.261-3.746-5.129-6.479-9.713-6.479
					c-4.586,0-8.455,2.735-9.713,6.486C31.874,59.989,35.643,57.594,40.057,57.594z"/>
			</g>
		</g>
		<g>
			
				<linearGradient id="SVGID_5_" gradientUnits="userSpaceOnUse" x1="-83.25" y1="922.6309" x2="-83.25" y2="944.7773" gradientTransform="matrix(1 0 0 1 123.3823 -838.9521)">
				<stop  offset="0" style="stop-color:#80E21B"/>
				<stop  offset="1" style="stop-color:#80B400"/>
			</linearGradient>
			<path fill="url(#SVGID_5_)" d="M29.065,94.752c0-6.115,4.954-11.073,11.065-11.073s11.068,4.958,11.068,11.073
				c0,6.114-4.957,11.074-11.068,11.074S29.065,100.866,29.065,94.752L29.065,94.752z"/>
			<g>
				<path fill="#FFFFFF" d="M40.057,85.533c4.412,0,8.179,2.391,9.713,5.764c-1.261-3.746-5.129-6.479-9.713-6.479
					c-4.586,0-8.455,2.733-9.713,6.486C31.874,87.928,35.643,85.533,40.057,85.533z"/>
			</g>
		</g>
		<g>
			
				<linearGradient id="SVGID_6_" gradientUnits="userSpaceOnUse" x1="-36.1035" y1="866.752" x2="-36.1035" y2="888.8994" gradientTransform="matrix(1 0 0 1 123.3823 -838.9521)">
				<stop  offset="0" style="stop-color:#80E21B"/>
				<stop  offset="1" style="stop-color:#80B400"/>
			</linearGradient>
			<path fill="url(#SVGID_6_)" d="M76.211,38.874c0-6.115,4.957-11.073,11.065-11.073c6.112,0,11.071,4.958,11.071,11.073
				c0,6.114-4.959,11.074-11.071,11.074C81.168,49.948,76.211,44.988,76.211,38.874L76.211,38.874z"/>
			<g>
				<path fill="#FFFFFF" d="M87.203,29.656c4.411,0,8.18,2.391,9.713,5.762c-1.26-3.746-5.13-6.479-9.713-6.479
					c-4.584,0-8.456,2.734-9.712,6.486C79.021,32.05,82.789,29.656,87.203,29.656z"/>
			</g>
		</g>
		<g>
			
				<linearGradient id="SVGID_7_" gradientUnits="userSpaceOnUse" x1="-36.1035" y1="894.6914" x2="-36.1035" y2="916.8379" gradientTransform="matrix(1 0 0 1 123.3823 -838.9521)">
				<stop  offset="0" style="stop-color:#80E21B"/>
				<stop  offset="1" style="stop-color:#80B400"/>
			</linearGradient>
			<path fill="url(#SVGID_7_)" d="M76.211,66.812c0-6.114,4.957-11.072,11.065-11.072c6.112,0,11.071,4.958,11.071,11.072
				c0,6.115-4.959,11.074-11.071,11.074C81.168,77.887,76.211,72.928,76.211,66.812L76.211,66.812z"/>
			<g>
				<path fill="#FFFFFF" d="M87.203,57.594c4.411,0,8.18,2.392,9.713,5.764c-1.26-3.746-5.13-6.479-9.713-6.479
					c-4.584,0-8.456,2.735-9.712,6.486C79.021,59.989,82.789,57.594,87.203,57.594z"/>
			</g>
		</g>
		<g>
			
				<linearGradient id="SVGID_8_" gradientUnits="userSpaceOnUse" x1="-36.1035" y1="922.6309" x2="-36.1035" y2="944.7773" gradientTransform="matrix(1 0 0 1 123.3823 -838.9521)">
				<stop  offset="0" style="stop-color:#80E21B"/>
				<stop  offset="1" style="stop-color:#80B400"/>
			</linearGradient>
			<path fill="url(#SVGID_8_)" d="M76.211,94.752c0-6.115,4.957-11.073,11.065-11.073c6.112,0,11.071,4.958,11.071,11.073
				c0,6.114-4.959,11.074-11.071,11.074C81.168,105.826,76.211,100.866,76.211,94.752L76.211,94.752z"/>
			<g>
				<path fill="#FFFFFF" d="M87.203,85.533c4.411,0,8.18,2.391,9.713,5.764c-1.26-3.746-5.13-6.479-9.713-6.479
					c-4.584,0-8.456,2.733-9.712,6.486C79.021,87.928,82.789,85.533,87.203,85.533z"/>
			</g>
		</g>
	</g>
</g>
</svg>
