<?xml version="1.0" encoding="utf-8"?>
<!-- Generator: Adobe Illustrator 13.0.0, SVG Export Plug-In . SVG Version: 6.00 Build 14948)  -->
<!DOCTYPE svg PUBLIC "-//W3C//DTD SVG 1.1//EN" "http://www.w3.org/Graphics/SVG/1.1/DTD/svg11.dtd">
<svg version="1.1" id="Layer_1" xmlns="http://www.w3.org/2000/svg" xmlns:xlink="http://www.w3.org/1999/xlink" x="0px" y="0px"
	 width="128px" height="128px" viewBox="0 0 128 128" enable-background="new 0 0 128 128" xml:space="preserve">
<g>
	<g>
		<path fill="#F2F2F2" stroke="#B3B3B3" stroke-width="2" d="M109.502,16.905H18.5c-9.342,0-16.914,7.572-16.914,16.91v67.379
			c0,9.342,7.572,16.914,16.914,16.914h91.002c9.34,0,16.912-7.572,16.912-16.914V33.815
			C126.414,24.478,118.842,16.905,109.502,16.905z"/>
		<linearGradient id="SVGID_1_" gradientUnits="userSpaceOnUse" x1="63.9351" y1="118.9961" x2="63.9351" y2="52.4952">
			<stop  offset="0.0934" style="stop-color:#D1D1D1"/>
			<stop  offset="0.431" style="stop-color:#D9D9D9"/>
			<stop  offset="0.9519" style="stop-color:#EFEFEF"/>
			<stop  offset="0.9725" style="stop-color:#F0F0F0"/>
		</linearGradient>
		<path fill="url(#SVGID_1_)" d="M38.496,82.386c-12.658,0-24.773-1.07-35.959-3.022v22.106c0,9.189,7.447,16.639,16.637,16.639
			h89.521c9.188,0,16.637-7.449,16.637-16.639V59.959C107.314,73.42,75.166,82.386,38.496,82.386z"/>
		<linearGradient id="SVGID_2_" gradientUnits="userSpaceOnUse" x1="64.1587" y1="17.2617" x2="64.1587" y2="49.1583">
			<stop  offset="0" style="stop-color:#5F5D5C"/>
			<stop  offset="1" style="stop-color:#181500"/>
		</linearGradient>
		<path fill="url(#SVGID_2_)" d="M125.838,45.578V34.399c0-9.229-7.482-16.712-16.713-16.712h-89.93
			C9.963,17.688,2.48,25.171,2.48,34.4v11.178H125.838z"/>
		<path opacity="0.5" fill="#FFFFFF" d="M109.102,17.688h-89.91c-9.23,0-16.711,7.481-16.711,16.707v4.94
			c0-9.227,7.48-16.708,16.711-16.708h89.91c9.227,0,16.709,7.481,16.709,16.708v-4.94
			C125.811,25.169,118.328,17.688,109.102,17.688z"/>
	</g>
	<path fill="#B3B3B3" d="M108.934,115.092l-89.744,0.001c-9.211,0-16.678-7.469-16.678-16.681v3.288
		c0,9.213,7.467,16.68,16.678,16.68h89.744c9.209,0,16.676-7.467,16.676-16.68v-3.288
		C125.609,107.624,118.143,115.092,108.934,115.092z"/>
	<g>
		
			<linearGradient id="SVGID_3_" gradientUnits="userSpaceOnUse" x1="114.2129" y1="29.0073" x2="73.1593" y2="57.7534" gradientTransform="matrix(1 0 0 -1 0.0376 126.8779)">
			<stop  offset="0" style="stop-color:#181500"/>
			<stop  offset="1" style="stop-color:#5F5D5C"/>
		</linearGradient>
		<path fill="url(#SVGID_3_)" d="M66.237,115.386l-0.918-1.991l10.749-7.553c0.799-0.553,1.196-1.522,1.026-2.478
			c-0.563-3.175-0.65-6.402-0.25-9.601c0.058-0.46-0.02-0.912-0.199-1.315c-0.198-0.445-0.526-0.832-0.957-1.102l-11.09-6.854
			l2.412-6.532l12.942,2.262c0.955,0.173,1.917-0.222,2.472-1.018c1.838-2.646,4.068-4.989,6.611-6.974
			c0.764-0.596,1.109-1.575,0.885-2.522l-3-12.688l6.32-2.91l7.559,10.754c0.555,0.801,1.521,1.198,2.47,1.031
			c3.175-0.562,6.399-0.646,9.603-0.246c0.965,0.121,1.904-0.33,2.413-1.157l6.843-11.089l3.34,1.187v27.262
			c-6.512-6.777-16.824-9.121-25.89-5.084c-11.552,5.145-16.764,18.735-11.613,30.298c1.48,3.332,3.668,6.139,6.3,8.319
			L66.237,115.386L66.237,115.386z"/>
	</g>
	<g>
		
			<linearGradient id="SVGID_4_" gradientUnits="userSpaceOnUse" x1="-228.5654" y1="-654.1641" x2="-239.5874" y2="-646.4464" gradientTransform="matrix(1 0 0 -1 246.7271 -588.7695)">
			<stop  offset="0" style="stop-color:#181500"/>
			<stop  offset="1" style="stop-color:#5F5D5C"/>
		</linearGradient>
		<path fill="url(#SVGID_4_)" d="M17.277,65.079c0,1.394-0.457,2.518-1.369,3.37c-0.854,0.811-1.938,1.212-3.256,1.212
			c-1.303,0-2.396-0.416-3.278-1.248C8.49,67.581,8.05,66.472,8.05,65.078v-7.094c0-1.393,0.437-2.504,1.313-3.335
			c0.875-0.83,1.974-1.247,3.289-1.247c1.289,0,2.381,0.421,3.278,1.258c0.897,0.838,1.347,1.945,1.347,3.323V65.079L17.277,65.079z
			 M14.99,65.015v-6.961c0-0.779-0.207-1.407-0.619-1.887c-0.411-0.48-0.985-0.719-1.719-0.719c-0.717,0-1.283,0.231-1.694,0.694
			c-0.41,0.463-0.617,1.103-0.617,1.909v6.96c0,0.776,0.201,1.414,0.606,1.907c0.418,0.465,0.988,0.697,1.705,0.697
			c0.72,0,1.289-0.245,1.707-0.729C14.779,66.402,14.99,65.776,14.99,65.015z"/>
		
			<linearGradient id="SVGID_5_" gradientUnits="userSpaceOnUse" x1="-216.7295" y1="-653.4697" x2="-226.6081" y2="-646.5526" gradientTransform="matrix(1 0 0 -1 246.7271 -588.7695)">
			<stop  offset="0" style="stop-color:#181500"/>
			<stop  offset="1" style="stop-color:#5F5D5C"/>
		</linearGradient>
		<path fill="url(#SVGID_5_)" d="M26.619,69.526h-2.291V56.032l-3.121,2.738l-0.001-2.539l3.128-2.687l2.285-0.007V69.526z"/>
		
			<linearGradient id="SVGID_6_" gradientUnits="userSpaceOnUse" x1="-204.6299" y1="-654.165" x2="-215.6511" y2="-646.4481" gradientTransform="matrix(1 0 0 -1 246.7271 -588.7695)">
			<stop  offset="0" style="stop-color:#181500"/>
			<stop  offset="1" style="stop-color:#5F5D5C"/>
		</linearGradient>
		<path fill="url(#SVGID_6_)" d="M41.212,65.079c0,1.394-0.456,2.518-1.369,3.37c-0.854,0.811-1.938,1.212-3.256,1.212
			c-1.302,0-2.396-0.416-3.278-1.248c-0.884-0.83-1.324-1.941-1.324-3.335v-7.094c0-1.393,0.438-2.504,1.313-3.335
			c0.875-0.83,1.972-1.247,3.289-1.247c1.288,0,2.381,0.421,3.278,1.258c0.896,0.838,1.346,1.945,1.346,3.323L41.212,65.079
			L41.212,65.079z M38.923,65.015v-6.961c0-0.779-0.206-1.407-0.617-1.887c-0.413-0.48-0.985-0.719-1.718-0.719
			c-0.719,0-1.284,0.231-1.695,0.694c-0.412,0.463-0.617,1.103-0.617,1.909v6.96c0,0.776,0.203,1.414,0.606,1.907
			c0.418,0.465,0.987,0.697,1.706,0.697s1.288-0.245,1.707-0.729C38.713,66.402,38.923,65.776,38.923,65.015z"/>
		
			<linearGradient id="SVGID_7_" gradientUnits="userSpaceOnUse" x1="-192.7959" y1="-653.4697" x2="-202.6737" y2="-646.5532" gradientTransform="matrix(1 0 0 -1 246.7271 -588.7695)">
			<stop  offset="0" style="stop-color:#181500"/>
			<stop  offset="1" style="stop-color:#5F5D5C"/>
		</linearGradient>
		<path fill="url(#SVGID_7_)" d="M50.553,69.526h-2.289V56.032l-3.123,2.738v-2.539l3.127-2.687l2.285-0.007V69.526L50.553,69.526z"
			/>
		
			<linearGradient id="SVGID_8_" gradientUnits="userSpaceOnUse" x1="-180.6973" y1="-654.165" x2="-191.7195" y2="-646.4473" gradientTransform="matrix(1 0 0 -1 246.7271 -588.7695)">
			<stop  offset="0" style="stop-color:#181500"/>
			<stop  offset="1" style="stop-color:#5F5D5C"/>
		</linearGradient>
		<path fill="url(#SVGID_8_)" d="M65.146,65.079c0,1.394-0.457,2.518-1.371,3.37c-0.854,0.811-1.938,1.212-3.256,1.212
			c-1.301,0-2.393-0.416-3.277-1.248c-0.883-0.83-1.325-1.941-1.325-3.335v-7.094c0-1.393,0.438-2.504,1.313-3.335
			c0.875-0.83,1.971-1.247,3.289-1.247c1.287,0,2.381,0.421,3.279,1.258c0.896,0.838,1.346,1.945,1.346,3.323L65.146,65.079
			L65.146,65.079z M62.857,65.015v-6.961c0-0.779-0.203-1.407-0.617-1.887c-0.414-0.48-0.983-0.719-1.719-0.719
			c-0.719,0-1.283,0.231-1.692,0.694c-0.414,0.463-0.619,1.103-0.619,1.909v6.96c0,0.776,0.203,1.414,0.606,1.907
			c0.418,0.465,0.986,0.697,1.705,0.697c0.721,0,1.289-0.245,1.707-0.729C62.646,66.401,62.857,65.776,62.857,65.015z"/>
		
			<linearGradient id="SVGID_9_" gradientUnits="userSpaceOnUse" x1="-168.8604" y1="-653.4697" x2="-178.7398" y2="-646.5521" gradientTransform="matrix(1 0 0 -1 246.7271 -588.7695)">
			<stop  offset="0" style="stop-color:#181500"/>
			<stop  offset="1" style="stop-color:#5F5D5C"/>
		</linearGradient>
		<path fill="url(#SVGID_9_)" d="M74.488,69.526h-2.291V56.032l-3.121,2.738l-0.002-2.539l3.127-2.687l2.283-0.007v15.987
			L74.488,69.526L74.488,69.526z"/>
	</g>
</g>
</svg>
