<?xml version="1.0" encoding="utf-8"?>
<!-- Generator: Adobe Illustrator 13.0.0, SVG Export Plug-In . SVG Version: 6.00 Build 14948)  -->
<!DOCTYPE svg PUBLIC "-//W3C//DTD SVG 1.1//EN" "http://www.w3.org/Graphics/SVG/1.1/DTD/svg11.dtd">
<svg version="1.1" id="Layer_1" xmlns="http://www.w3.org/2000/svg" xmlns:xlink="http://www.w3.org/1999/xlink" x="0px" y="0px"
	 width="128px" height="128px" viewBox="0 0 128 128" enable-background="new 0 0 128 128" xml:space="preserve">
<g>
	<g>
		
			<radialGradient id="SVGID_1_" cx="63.8804" cy="63.418" r="53.1356" gradientTransform="matrix(1 0 0 1 0 -9.765625e-04)" gradientUnits="userSpaceOnUse">
			<stop  offset="0" style="stop-color:#FAFAFA"/>
			<stop  offset="0.3109" style="stop-color:#F4F4F4"/>
			<stop  offset="0.7262" style="stop-color:#E3E3E3"/>
			<stop  offset="1" style="stop-color:#D4D4D4"/>
		</radialGradient>
		<path fill="url(#SVGID_1_)" stroke="#B3B3B3" stroke-width="2" d="M108.563,21.623v83.587c0,10.285-8.344,18.624-18.637,18.624
			H37.834c-10.295,0-18.637-8.339-18.637-18.624V21.623C19.197,11.338,27.539,3,37.834,3h52.093
			C100.22,3,108.563,11.338,108.563,21.623L108.563,21.623z"/>
		<path fill="#B3B3B3" d="M89.965,121.509H37.87c-10.295,0-18.637-8.341-18.637-18.626v2.327c0,10.285,8.342,18.624,18.637,18.624
			h52.095c10.293,0,18.637-8.339,18.637-18.624v-2.327C108.602,113.168,100.258,121.509,89.965,121.509z"/>
		<path fill="#FFFFFF" d="M30.206,10.987c2.078-1.735,4.431-2.907,7.664-2.907h52.095c3.234,0,5.586,1.172,7.666,2.907h2.628
			c-2.621-2.646-5.804-4.239-10.294-4.239H37.87c-4.489,0-7.672,1.593-10.293,4.239H30.206z"/>
	</g>
	<g>
		
			<linearGradient id="SVGID_2_" gradientUnits="userSpaceOnUse" x1="96.5234" y1="22.8711" x2="55.4706" y2="51.6166" gradientTransform="matrix(1 0 0 -1 0.0376 126.8779)">
			<stop  offset="0" style="stop-color:#181500"/>
			<stop  offset="1" style="stop-color:#5F5D5C"/>
		</linearGradient>
		<path fill="url(#SVGID_2_)" d="M48.549,121.521l-0.918-1.991l10.749-7.553c0.799-0.553,1.196-1.522,1.026-2.478
			c-0.563-3.175-0.65-6.402-0.25-9.601c0.058-0.46-0.02-0.912-0.199-1.315c-0.198-0.445-0.526-0.832-0.957-1.102l-11.09-6.854
			l2.412-6.532l12.942,2.262c0.955,0.173,1.917-0.222,2.472-1.018c1.838-2.646,4.068-4.989,6.611-6.974
			c0.764-0.596,1.109-1.575,0.885-2.522l-3-12.688l6.32-2.91L83.111,71c0.555,0.801,1.521,1.198,2.47,1.031
			c3.175-0.562,6.399-0.646,9.603-0.246c0.965,0.121,1.904-0.33,2.413-1.157l6.843-11.089l3.34,1.187v27.262
			c-6.512-6.777-16.824-9.121-25.89-5.084c-11.552,5.145-16.764,18.735-11.613,30.298c1.48,3.332,3.668,6.139,6.3,8.319
			L48.549,121.521L48.549,121.521z"/>
	</g>
	<g>
		
			<linearGradient id="SVGID_3_" gradientUnits="userSpaceOnUse" x1="-205.4097" y1="-621.9844" x2="-216.4312" y2="-614.267" gradientTransform="matrix(1 0 0 -1 246.7271 -588.7695)">
			<stop  offset="0" style="stop-color:#181500"/>
			<stop  offset="1" style="stop-color:#5F5D5C"/>
		</linearGradient>
		<path fill="url(#SVGID_3_)" d="M40.434,32.899c0,1.394-0.457,2.518-1.369,3.37c-0.854,0.811-1.938,1.212-3.256,1.212
			c-1.303,0-2.396-0.416-3.278-1.248c-0.884-0.832-1.324-1.941-1.324-3.335v-7.094c0-1.393,0.437-2.504,1.313-3.335
			c0.875-0.83,1.974-1.247,3.289-1.247c1.289,0,2.381,0.421,3.278,1.258c0.897,0.838,1.347,1.945,1.347,3.323V32.899L40.434,32.899z
			 M38.146,32.835v-6.961c0-0.779-0.207-1.407-0.619-1.887c-0.411-0.48-0.985-0.719-1.719-0.719c-0.717,0-1.283,0.231-1.694,0.694
			c-0.41,0.463-0.617,1.103-0.617,1.909v6.96c0,0.776,0.201,1.414,0.606,1.907c0.418,0.465,0.988,0.697,1.705,0.697
			c0.72,0,1.289-0.245,1.707-0.729C37.936,34.223,38.146,33.597,38.146,32.835z"/>
		
			<linearGradient id="SVGID_4_" gradientUnits="userSpaceOnUse" x1="-193.5723" y1="-621.2896" x2="-203.4517" y2="-614.3719" gradientTransform="matrix(1 0 0 -1 246.7271 -588.7695)">
			<stop  offset="0" style="stop-color:#181500"/>
			<stop  offset="1" style="stop-color:#5F5D5C"/>
		</linearGradient>
		<path fill="url(#SVGID_4_)" d="M49.775,37.347h-2.291V23.853l-3.121,2.738l-0.001-2.539l3.128-2.687l2.285-0.007V37.347z"/>
		
			<linearGradient id="SVGID_5_" gradientUnits="userSpaceOnUse" x1="-181.4736" y1="-621.9858" x2="-192.4955" y2="-614.2684" gradientTransform="matrix(1 0 0 -1 246.7271 -588.7695)">
			<stop  offset="0" style="stop-color:#181500"/>
			<stop  offset="1" style="stop-color:#5F5D5C"/>
		</linearGradient>
		<path fill="url(#SVGID_5_)" d="M64.368,32.899c0,1.394-0.456,2.518-1.369,3.37c-0.854,0.811-1.938,1.212-3.256,1.212
			c-1.302,0-2.396-0.416-3.278-1.248c-0.884-0.83-1.324-1.941-1.324-3.335v-7.094c0-1.393,0.438-2.504,1.313-3.335
			c0.875-0.83,1.972-1.247,3.289-1.247c1.288,0,2.381,0.421,3.278,1.258c0.896,0.838,1.346,1.945,1.346,3.323L64.368,32.899
			L64.368,32.899z M62.079,32.835v-6.961c0-0.779-0.206-1.407-0.617-1.887c-0.413-0.48-0.985-0.719-1.718-0.719
			c-0.719,0-1.284,0.231-1.695,0.694c-0.412,0.463-0.617,1.103-0.617,1.909v6.96c0,0.776,0.203,1.414,0.606,1.907
			c0.418,0.465,0.987,0.697,1.706,0.697s1.288-0.245,1.707-0.729C61.869,34.223,62.079,33.597,62.079,32.835z"/>
		
			<linearGradient id="SVGID_6_" gradientUnits="userSpaceOnUse" x1="-169.6387" y1="-621.291" x2="-179.5164" y2="-614.3745" gradientTransform="matrix(1 0 0 -1 246.7271 -588.7695)">
			<stop  offset="0" style="stop-color:#181500"/>
			<stop  offset="1" style="stop-color:#5F5D5C"/>
		</linearGradient>
		<path fill="url(#SVGID_6_)" d="M73.709,37.347H71.42V23.853l-3.123,2.738v-2.539l3.127-2.687l2.285-0.007V37.347L73.709,37.347z"
			/>
		
			<linearGradient id="SVGID_7_" gradientUnits="userSpaceOnUse" x1="-157.54" y1="-621.9849" x2="-168.5626" y2="-614.2668" gradientTransform="matrix(1 0 0 -1 246.7271 -588.7695)">
			<stop  offset="0" style="stop-color:#181500"/>
			<stop  offset="1" style="stop-color:#5F5D5C"/>
		</linearGradient>
		<path fill="url(#SVGID_7_)" d="M88.303,32.899c0,1.394-0.457,2.518-1.371,3.37c-0.854,0.811-1.938,1.212-3.256,1.212
			c-1.301,0-2.393-0.416-3.277-1.248c-0.883-0.83-1.325-1.941-1.325-3.335v-7.094c0-1.393,0.438-2.504,1.313-3.335
			c0.875-0.83,1.971-1.247,3.289-1.247c1.287,0,2.381,0.421,3.279,1.258c0.896,0.838,1.346,1.945,1.346,3.323L88.303,32.899
			L88.303,32.899z M86.014,32.835v-6.961c0-0.779-0.203-1.407-0.617-1.887c-0.414-0.48-0.983-0.719-1.719-0.719
			c-0.719,0-1.283,0.231-1.692,0.694c-0.414,0.463-0.619,1.103-0.619,1.909v6.96c0,0.776,0.203,1.414,0.606,1.907
			c0.418,0.465,0.986,0.697,1.705,0.697c0.721,0,1.289-0.245,1.707-0.729C85.803,34.222,86.014,33.597,86.014,32.835z"/>
		
			<linearGradient id="SVGID_8_" gradientUnits="userSpaceOnUse" x1="-145.7051" y1="-621.29" x2="-155.5838" y2="-614.373" gradientTransform="matrix(1 0 0 -1 246.7271 -588.7695)">
			<stop  offset="0" style="stop-color:#181500"/>
			<stop  offset="1" style="stop-color:#5F5D5C"/>
		</linearGradient>
		<path fill="url(#SVGID_8_)" d="M97.645,37.347h-2.291V23.853l-3.121,2.738l-0.002-2.539l3.127-2.687l2.283-0.007v15.987
			L97.645,37.347L97.645,37.347z"/>
	</g>
</g>
</svg>
