<?xml version="1.0" encoding="utf-8"?>
<!-- Generator: Adobe Illustrator 13.0.0, SVG Export Plug-In . SVG Version: 6.00 Build 14948)  -->
<!DOCTYPE svg PUBLIC "-//W3C//DTD SVG 1.1//EN" "http://www.w3.org/Graphics/SVG/1.1/DTD/svg11.dtd">
<svg version="1.1" id="Layer_1" xmlns="http://www.w3.org/2000/svg" xmlns:xlink="http://www.w3.org/1999/xlink" x="0px" y="0px"
	 width="128px" height="128px" viewBox="0 0 128 128" enable-background="new 0 0 128 128" xml:space="preserve">
<g>
	<g>
		<path fill="#F2F2F2" stroke="#B3B3B3" stroke-width="2" d="M109.502,16.906H18.5c-9.342,0-16.914,7.572-16.914,16.91v67.379
			c0,9.342,7.572,16.914,16.914,16.914h91.002c9.34,0,16.912-7.572,16.912-16.914V33.816
			C126.414,24.478,118.842,16.906,109.502,16.906z"/>
		<linearGradient id="SVGID_1_" gradientUnits="userSpaceOnUse" x1="63.9351" y1="118.9971" x2="63.9351" y2="52.4957">
			<stop  offset="0.0934" style="stop-color:#D1D1D1"/>
			<stop  offset="0.431" style="stop-color:#D9D9D9"/>
			<stop  offset="0.9519" style="stop-color:#EFEFEF"/>
			<stop  offset="0.9725" style="stop-color:#F0F0F0"/>
		</linearGradient>
		<path fill="url(#SVGID_1_)" d="M38.496,82.387c-12.658,0-24.773-1.07-35.959-3.023v22.107c0,9.189,7.447,16.639,16.637,16.639
			h89.521c9.188,0,16.637-7.449,16.637-16.639V59.959C107.314,73.42,75.166,82.387,38.496,82.387z"/>
		<path fill="#B3B3B3" d="M108.934,115.092l-89.744,0.002c-9.211,0-16.678-7.469-16.678-16.682v3.289
			c0,9.213,7.467,16.68,16.678,16.68h89.744c9.209,0,16.676-7.467,16.676-16.68v-3.289
			C125.609,107.625,118.143,115.092,108.934,115.092z"/>
		<path fill="#FFFFFF" d="M105.5,21.43H21.314c-8.643,0-15.646,7.005-15.646,15.643v4.626c0-8.64,7.004-15.645,15.646-15.645H105.5
			c8.639,0,15.645,7.005,15.645,15.645v-4.626C121.145,28.435,114.139,21.43,105.5,21.43z"/>
	</g>
	<g>
		
			<linearGradient id="SVGID_2_" gradientUnits="userSpaceOnUse" x1="-303.8706" y1="914.8652" x2="-403.317" y2="845.2321" gradientTransform="matrix(1 0 0 1 412.6201 -813.9912)">
			<stop  offset="0" style="stop-color:#DEDEDE"/>
			<stop  offset="1" style="stop-color:#FEFEFE"/>
		</linearGradient>
		<path fill="url(#SVGID_2_)" stroke="#000000" d="M96.8,32.964H31.091c-6.746,0-12.213,5.468-12.213,12.21v48.65
			c0,6.744,5.467,12.211,12.213,12.211H96.8c6.742,0,12.211-5.467,12.211-12.211v-48.65C109.011,38.434,103.542,32.964,96.8,32.964z
			"/>
		
			<linearGradient id="SVGID_3_" gradientUnits="userSpaceOnUse" x1="-391.3574" y1="844.1543" x2="-391.3574" y2="854.7676" gradientTransform="matrix(1 0 0 1 412.6201 -813.9912)">
			<stop  offset="0" style="stop-color:#5F5D5C"/>
			<stop  offset="1" style="stop-color:#181500"/>
		</linearGradient>
		<path fill="url(#SVGID_3_)" d="M26.142,38.776c0,1.105-0.896,2-2,2h-5.758c-1.104,0-2-0.895-2-2v-6.612c0-1.104,0.896-2,2-2h5.758
			c1.104,0,2,0.896,2,2V38.776z"/>
		
			<linearGradient id="SVGID_4_" gradientUnits="userSpaceOnUse" x1="-305.9946" y1="844.1543" x2="-305.9946" y2="854.7676" gradientTransform="matrix(1 0 0 1 412.6201 -813.9912)">
			<stop  offset="0" style="stop-color:#5F5D5C"/>
			<stop  offset="1" style="stop-color:#181500"/>
		</linearGradient>
		<path fill="url(#SVGID_4_)" d="M111.505,38.776c0,1.105-0.896,2-2,2h-5.758c-1.104,0-2-0.895-2-2v-6.612c0-1.104,0.896-2,2-2
			h5.758c1.104,0,2,0.896,2,2V38.776z"/>
		
			<linearGradient id="SVGID_5_" gradientUnits="userSpaceOnUse" x1="-4265.5234" y1="5422.9014" x2="-4265.4907" y2="5412.2705" gradientTransform="matrix(-1 0.0031 -0.0031 -1 -4141.9863 5534.1152)">
			<stop  offset="0" style="stop-color:#5F5D5C"/>
			<stop  offset="1" style="stop-color:#181500"/>
		</linearGradient>
		<path fill="url(#SVGID_5_)" d="M101.837,100.256c-0.004-1.104,0.889-2.002,1.993-2.006l5.758-0.018
			c1.104-0.004,2.003,0.889,2.007,1.994l0.021,6.611c0.004,1.105-0.891,2.002-1.993,2.008l-5.758,0.018
			c-1.104,0.004-2.005-0.891-2.009-1.994L101.837,100.256z"/>
		
			<linearGradient id="SVGID_6_" gradientUnits="userSpaceOnUse" x1="-4180.1602" y1="5422.9053" x2="-4180.1274" y2="5412.2744" gradientTransform="matrix(-1 0.0031 -0.0031 -1 -4141.9863 5534.1152)">
			<stop  offset="0" style="stop-color:#5F5D5C"/>
			<stop  offset="1" style="stop-color:#181500"/>
		</linearGradient>
		<path fill="url(#SVGID_6_)" d="M16.474,100.52c-0.002-1.105,0.891-2.004,1.994-2.008l5.758-0.02
			c1.104-0.002,2.004,0.889,2.006,1.994l0.021,6.613c0.003,1.104-0.89,2.004-1.994,2.006l-5.758,0.018
			c-1.104,0.004-2.003-0.889-2.006-1.992L16.474,100.52z"/>
	</g>
</g>
</svg>
