<?xml version="1.0" encoding="utf-8"?>
<!-- Generator: Adobe Illustrator 13.0.0, SVG Export Plug-In . SVG Version: 6.00 Build 14948)  -->
<!DOCTYPE svg PUBLIC "-//W3C//DTD SVG 1.1//EN" "http://www.w3.org/Graphics/SVG/1.1/DTD/svg11.dtd">
<svg version="1.1" id="Layer_1" xmlns="http://www.w3.org/2000/svg" xmlns:xlink="http://www.w3.org/1999/xlink" x="0px" y="0px"
	 width="128px" height="128px" viewBox="0 0 128 128" enable-background="new 0 0 128 128" xml:space="preserve">
<g>
	<g>
		
			<radialGradient id="SVGID_1_" cx="63.9751" cy="63.791" r="53.1356" gradientTransform="matrix(1 0 0 1 0 -9.765625e-04)" gradientUnits="userSpaceOnUse">
			<stop  offset="0" style="stop-color:#FAFAFA"/>
			<stop  offset="0.3109" style="stop-color:#F4F4F4"/>
			<stop  offset="0.7262" style="stop-color:#E3E3E3"/>
			<stop  offset="1" style="stop-color:#D4D4D4"/>
		</radialGradient>
		<path fill="url(#SVGID_1_)" stroke="#B3B3B3" stroke-width="2" d="M108.658,21.996v83.586c0,10.285-8.344,18.625-18.637,18.625
			H37.929c-10.295,0-18.637-8.34-18.637-18.625V21.996c0-10.285,8.342-18.623,18.637-18.623h52.093
			C100.314,3.373,108.658,11.711,108.658,21.996L108.658,21.996z"/>
		<path fill="#B3B3B3" d="M90.217,121.881H38.123c-10.295,0-18.637-8.34-18.637-18.625v2.326c0,10.285,8.342,18.625,18.637,18.625
			h52.094c10.293,0,18.637-8.34,18.637-18.625v-2.326C108.854,113.541,100.51,121.881,90.217,121.881z"/>
		<path fill="#FFFFFF" d="M30.458,11.359c2.079-1.734,4.431-2.905,7.665-2.905h52.094c3.234,0,5.586,1.171,7.666,2.905h2.629
			c-2.621-2.646-5.805-4.238-10.295-4.238H38.123c-4.49,0-7.672,1.593-10.294,4.238H30.458z"/>
	</g>
	<linearGradient id="SVGID_2_" gradientUnits="userSpaceOnUse" x1="64.0337" y1="4.166" x2="64.0337" y2="26.5918">
		<stop  offset="0" style="stop-color:#80E21B"/>
		<stop  offset="1" style="stop-color:#80B400"/>
	</linearGradient>
	<path fill="url(#SVGID_2_)" d="M107.91,26.592v-4.14c0-10.099-8.193-18.286-18.302-18.286h-51.15c-10.108,0-18.3,8.188-18.3,18.286
		v4.14H107.91z"/>
	<path opacity="0.5" fill="#FFFFFF" d="M89.608,4.106h-51.15c-10.108,0-18.3,8.188-18.3,18.286v3.538
		c0-10.099,8.191-18.286,18.3-18.286h51.15c10.108,0,18.302,8.188,18.302,18.286v-3.538C107.91,12.294,99.717,4.106,89.608,4.106z"
		/>
	<g>
		<g>
			
				<linearGradient id="SVGID_3_" gradientUnits="userSpaceOnUse" x1="-182.1284" y1="-684.4097" x2="-182.1284" y2="-696.4194" gradientTransform="matrix(1 0 0 -1 246.7271 -588.7695)">
				<stop  offset="0" style="stop-color:#99DBF6"/>
				<stop  offset="1" style="stop-color:#00B2DE"/>
			</linearGradient>
			<circle fill="url(#SVGID_3_)" cx="64.598" cy="101.645" r="6.005"/>
			<g>
				<g>
					
						<linearGradient id="SVGID_4_" gradientUnits="userSpaceOnUse" x1="-182.6538" y1="-629.665" x2="-182.6538" y2="-679.8882" gradientTransform="matrix(1 0 0 -1 246.7271 -588.7695)">
						<stop  offset="0" style="stop-color:#99DBF6"/>
						<stop  offset="1" style="stop-color:#00B2DE"/>
					</linearGradient>
					<path fill="url(#SVGID_4_)" d="M76.848,45.634c-3.488-3.158-7.76-4.738-12.814-4.738c-5.113,0-9.383,1.625-12.811,4.873
						c-3.289,3.117-4.982,7.07-5.117,11.846c-0.025,0.193-0.041,0.391-0.041,0.59c0,2.553,2.07,4.623,4.623,4.623
						s4.623-2.068,4.623-4.623c0-0.107-0.008-0.213-0.016-0.318c0.068-2.381,0.855-4.422,2.377-6.115
						c1.594-1.775,3.715-2.66,6.361-2.66c2.588,0,4.705,0.867,6.363,2.611c1.652,1.74,2.48,3.873,2.48,6.395
						c0,1.982-0.943,4.266-2.832,6.846l-7.07,9.449c-2,2.781-3,5.771-3,8.973v2.629c-0.016,0.158-0.025,0.318-0.025,0.482
						c0,2.553,2.07,4.623,4.625,4.623c2.553,0,4.623-2.07,4.623-4.623c0-0.129-0.008-0.258-0.018-0.385v-2.264
						c0-1.803,0.541-3.428,1.627-4.873l6.945-9.742c2.887-4.092,4.33-7.789,4.33-11.1C82.078,52.958,80.334,48.79,76.848,45.634z"/>
				</g>
			</g>
		</g>
		<path opacity="0.44" fill="#FFFFFF" d="M49.014,50.228c0,0,3.533-8.645,15.473-8.621c11.348,0.021,14.746,8.682,14.746,8.682
			s0.285,0.549,0,0.701c-0.273,0.146-0.637-0.35-0.637-0.35s-4.25-8.195-14.109-8.195c-11.602,0-14.607,8.197-14.607,8.197
			s-0.408,0.4-0.684,0.275C48.938,50.798,49.014,50.228,49.014,50.228z"/>
		<path opacity="0.44" fill="#FFFFFF" d="M64.727,101.263c1.734,1.447,4.078,0.652,5.537-0.104
			c-0.215-2.914-2.643-5.213-5.611-5.213c-2.979,0-5.416,2.316-5.613,5.246C60.391,100.532,62.861,99.7,64.727,101.263z"/>
	</g>
</g>
</svg>
