<?xml version="1.0" encoding="utf-8"?>
<!-- Generator: Adobe Illustrator 13.0.0, SVG Export Plug-In . SVG Version: 6.00 Build 14948)  -->
<!DOCTYPE svg PUBLIC "-//W3C//DTD SVG 1.1//EN" "http://www.w3.org/Graphics/SVG/1.1/DTD/svg11.dtd">
<svg version="1.1" id="Layer_1" xmlns="http://www.w3.org/2000/svg" xmlns:xlink="http://www.w3.org/1999/xlink" x="0px" y="0px"
	 width="128px" height="128px" viewBox="0 0 128 128" enable-background="new 0 0 128 128" xml:space="preserve">
<g>
	<g>
		<g>
			<g>
				
					<linearGradient id="SVGID_1_" gradientUnits="userSpaceOnUse" x1="-514.3872" y1="756.4141" x2="-514.3872" y2="685.1152" gradientTransform="matrix(1 0 0 1 578.5508 -665.1104)">
					<stop  offset="0" style="stop-color:#ECEEF0"/>
					<stop  offset="0.2485" style="stop-color:#E8E8E9"/>
					<stop  offset="0.5636" style="stop-color:#EEEFF2"/>
					<stop  offset="0.9212" style="stop-color:#D4D5D6"/>
				</linearGradient>
				<path fill="url(#SVGID_1_)" d="M96.865,26.288c-0.559-3.56-3.631-6.284-7.346-6.284H62.23c-3.646,0-6.675,2.625-7.312,6.089
					H33.67c-7.506,0-13.59,6.088-13.59,13.6v38.01c0,7.511,6.084,13.601,13.59,13.601h60.987c7.506,0,13.59-6.09,13.59-13.601
					v-38.01C108.247,32.933,103.318,27.344,96.865,26.288z"/>
			</g>
			<g>
				<path fill="none" stroke="#B3B3B3" d="M96.865,26.288c-0.559-3.56-3.631-6.284-7.346-6.284H62.23
					c-3.646,0-6.675,2.625-7.312,6.089H33.67c-7.506,0-13.59,6.088-13.59,13.6v38.01c0,7.511,6.084,13.601,13.59,13.601h60.987
					c7.506,0,13.59-6.09,13.59-13.601v-38.01C108.247,32.933,103.318,27.344,96.865,26.288z"/>
			</g>
		</g>
		<path opacity="0.75" fill="#F2F2F2" enable-background="new    " d="M57.588,23.463c0.844-1.266,2.088-2.07,3.475-2.07h29.731
			c1.386,0,2.627,0.805,3.474,2.07h0.588c-0.924-1.615-2.397-2.67-4.062-2.67H61.063c-1.664,0-3.139,1.055-4.062,2.67H57.588z"/>
	</g>
	<g>
		<g>
			
				<radialGradient id="SVGID_2_" cx="-514.4644" cy="713.5635" r="40.1447" gradientTransform="matrix(1 0 0 1 578.5508 -665.1104)" gradientUnits="userSpaceOnUse">
				<stop  offset="0" style="stop-color:#FAFAFA"/>
				<stop  offset="0.3109" style="stop-color:#F4F4F4"/>
				<stop  offset="0.7262" style="stop-color:#E3E3E3"/>
				<stop  offset="1" style="stop-color:#D4D4D4"/>
			</radialGradient>
			<path fill="url(#SVGID_2_)" stroke="#B3B3B3" d="M97.846,16.877v63.15c0,7.771-6.304,14.07-14.08,14.07H44.407
				c-7.777,0-14.08-6.301-14.08-14.07v-63.15c0-7.771,6.303-14.07,14.08-14.07h39.358C91.542,2.805,97.846,9.106,97.846,16.877
				L97.846,16.877z"/>
			<path fill="#B3B3B3" d="M83.913,92.342H44.554c-7.778,0-14.081-6.301-14.081-14.072v1.758c0,7.771,6.303,14.07,14.081,14.07
				h39.359c7.776,0,14.08-6.301,14.08-14.07V78.27C97.993,86.041,91.689,92.342,83.913,92.342z"/>
			<path fill="#FFFFFF" d="M38.763,8.84c1.57-1.311,3.347-2.195,5.791-2.195h39.359c2.442,0,4.22,0.885,5.791,2.195h1.985
				c-1.979-1.999-4.385-3.202-7.776-3.202H44.554c-3.393,0-5.796,1.203-7.777,3.202H38.763z"/>
		</g>
		
			<linearGradient id="SVGID_3_" gradientUnits="userSpaceOnUse" x1="-514.4209" y1="668.5146" x2="-514.4209" y2="685.457" gradientTransform="matrix(1 0 0 1 578.5508 -665.1104)">
			<stop  offset="0" style="stop-color:#80E21B"/>
			<stop  offset="1" style="stop-color:#80B400"/>
		</linearGradient>
		<path fill="url(#SVGID_3_)" d="M97.279,20.347V17.22c0-7.63-6.189-13.816-13.826-13.816H44.807
			c-7.637,0-13.826,6.187-13.826,13.816v3.127H97.279z"/>
		<path opacity="0.5" fill="#FFFFFF" enable-background="new    " d="M83.453,3.36H44.807c-7.637,0-13.826,6.187-13.826,13.816
			v2.673c0-7.63,6.189-13.815,13.826-13.815h38.646c7.637,0,13.826,6.186,13.826,13.815v-2.673C97.279,9.547,91.09,3.36,83.453,3.36
			z"/>
	</g>
	
		<linearGradient id="SVGID_4_" gradientUnits="userSpaceOnUse" x1="-514.5518" y1="702.5684" x2="-514.5518" y2="784.1113" gradientTransform="matrix(1 0 0 1 578.5508 -665.1104)">
		<stop  offset="0" style="stop-color:#9A9A9A"/>
		<stop  offset="1" style="stop-color:#DEDEDE"/>
	</linearGradient>
	<path fill="url(#SVGID_4_)" d="M26.567,37.458h79.813c15.377,0,20.582,8.637,18.867,18.882l-9.738,47.437
		C113.107,114.725,107.8,119,97.38,119H30.7c-10.422,0-15.564-2.728-18.869-18.883l-9-43.777C0.768,45.884,6.807,37.458,21.7,37.458
		H26.567z"/>
	<path fill="#999999" d="M98.062,115.998H30.018c-8.578,0-13.65-1.816-17.062-11.168c3.338,11.982,8.434,14.168,17.744,14.168h66.68
		c9.906,0,15.185-3.875,17.746-13.66C112.218,112.914,106.979,115.998,98.062,115.998z"/>
	<path fill="#FFFFFF" d="M24.047,43.265h4.596h75.337c12.354,0,17.754,5.908,18.086,13.633c0.104-8.211-5.196-14.646-18.086-14.646
		H28.643h-4.596c-12.664,0-18.525,6.466-18.141,14.96c0,0,0.002-0.004,0.002-0.008C6.028,49.221,11.899,43.265,24.047,43.265z"/>
	
		<linearGradient id="SVGID_5_" gradientUnits="userSpaceOnUse" x1="-514.5518" y1="731.3633" x2="-514.5518" y2="708.3926" gradientTransform="matrix(1 0 0 1 578.5508 -665.1104)">
		<stop  offset="0" style="stop-color:#999999"/>
		<stop  offset="1" style="stop-color:#CCCCCC"/>
	</linearGradient>
	<path fill="url(#SVGID_5_)" d="M7.299,66.157c2.408-4.782,7.938-7.927,16.771-7.927h4.594h75.338
		c9.127,0,14.455,3.225,16.754,8.021l1.057-5.146c1.619-9.672-3.295-17.824-17.811-17.824H28.665h-4.594
		c-14.059,0-19.758,7.955-17.811,17.824L7.299,66.157z"/>
	<g>
		
			<linearGradient id="SVGID_6_" gradientUnits="userSpaceOnUse" x1="-597.4019" y1="-761.1978" x2="-630.5219" y2="-738.0068" gradientTransform="matrix(1 0 0 -1 701.8955 -662.1562)">
			<stop  offset="0" style="stop-color:#80C11B"/>
			<stop  offset="1" style="stop-color:#80E21B"/>
		</linearGradient>
		<path fill="url(#SVGID_6_)" stroke="#70993E" stroke-miterlimit="3.8637" d="M93.941,71.192v10.241h10.235
			c4.036,0,7.308,2.695,7.308,6.014c0,3.322-3.271,6.012-7.308,6.012H93.941V103.7c0,4.038-2.688,7.312-6.006,7.312
			c-3.319,0-6.012-3.271-6.012-7.312V93.459H71.689c-4.033,0-7.309-2.691-7.309-6.012s3.273-6.014,7.309-6.014h10.234V71.192
			c0-4.038,2.689-7.312,6.01-7.312C91.252,63.881,93.941,67.154,93.941,71.192L93.941,71.192z"/>
		<g opacity="0.5">
			<path fill="#FFFFFF" d="M88.038,66.285c2.64,0,4.78,2.604,4.78,5.814v-0.904c0-3.213-2.143-5.814-4.78-5.814
				c-2.64,0-4.777,2.604-4.777,5.814V72.1C83.261,68.889,85.398,66.285,88.038,66.285z"/>
		</g>
	</g>
</g>
</svg>
