<?xml version="1.0" encoding="utf-8"?>
<!-- Generator: Adobe Illustrator 13.0.0, SVG Export Plug-In . SVG Version: 6.00 Build 14948)  -->
<!DOCTYPE svg PUBLIC "-//W3C//DTD SVG 1.1//EN" "http://www.w3.org/Graphics/SVG/1.1/DTD/svg11.dtd">
<svg version="1.1" id="Layer_1" xmlns="http://www.w3.org/2000/svg" xmlns:xlink="http://www.w3.org/1999/xlink" x="0px" y="0px"
	 width="128px" height="128px" viewBox="0 0 128 128" enable-background="new 0 0 128 128" xml:space="preserve">
<g>
	<g>
		
			<linearGradient id="SVGID_1_" gradientUnits="userSpaceOnUse" x1="-182.7271" y1="-291.8486" x2="-182.7271" y2="-415.8647" gradientTransform="matrix(1 0 0 -1 246.7271 -289.8564)">
			<stop  offset="0" style="stop-color:#5F5D5C"/>
			<stop  offset="1" style="stop-color:#181500"/>
		</linearGradient>
		<path fill="url(#SVGID_1_)" d="M125.964,21.09v85.82c0,10.547-8.545,19.098-19.084,19.098H21.121
			c-10.539,0-19.084-8.551-19.084-19.098V21.09c0-10.548,8.545-19.098,19.084-19.098h85.759
			C117.419,1.992,125.964,10.542,125.964,21.09L125.964,21.09z"/>
		<g>
			
				<linearGradient id="SVGID_2_" gradientUnits="userSpaceOnUse" x1="1254.123" y1="-3200.9424" x2="1254.123" y2="-3169.9932" gradientTransform="matrix(-1 0 0 -1 1318.1191 -3160.2061)">
				<stop  offset="0" style="stop-color:#6D6F71"/>
				<stop  offset="1" style="stop-color:#939598"/>
			</linearGradient>
			<path fill="url(#SVGID_2_)" d="M25.077,23.401l77.838,0.001c9.564,0,17.32,7.761,17.32,17.334V27.122
				c0-9.573-7.756-17.335-17.32-17.335H25.077c-9.566,0-17.322,7.761-17.322,17.334v13.615
				C7.755,31.163,15.511,23.401,25.077,23.401z"/>
			<path fill="#FFFFFF" d="M102.923,9.297H25.077c-9.566,0-17.322,7.762-17.322,17.336v1.873c0-9.574,7.756-17.336,17.322-17.336
				h77.846c9.566,0,17.322,7.762,17.322,17.336v-1.873C120.245,17.059,112.489,9.297,102.923,9.297z"/>
		</g>
		<g>
			
				<linearGradient id="SVGID_3_" gradientUnits="userSpaceOnUse" x1="-1149.5903" y1="2868.1895" x2="-1213.9731" y2="2868.1802" gradientTransform="matrix(-1.000000e-04 -0.6994 0.6996 0 -1921.6675 -766.7272)">
				<stop  offset="0" style="stop-color:#EC008C"/>
				<stop  offset="1" style="stop-color:#C40075"/>
			</linearGradient>
			<path fill="url(#SVGID_3_)" d="M58.948,54.808c-1.418,1.35-2.123,3.051-2.123,4.963c0,1.988,0.709,3.684,2.125,5.033
				l15.393,15.463c1.418,1.348,3.049,2.059,5.037,2.059c1.914,0,3.619-0.711,5.037-2.059c1.346-1.416,2.055-3.119,2.055-5.033
				c0-1.984-0.709-3.617-2.059-5.035l-3.332-3.262l25.066,0.004c1.986,0,3.688-0.711,5.031-2.129
				c1.424-1.35,2.061-3.051,2.061-5.033c0-1.916-0.637-3.619-2.061-4.967c-1.344-1.418-3.049-2.057-5.033-2.127H81.077l3.336-3.264
				c1.346-1.35,2.059-3.051,2.055-5.037c0-1.91-0.711-3.613-2.055-5.031c-1.42-1.348-3.123-2.057-5.037-2.057
				c-1.986,0-3.617,0.705-5.037,2.057L58.948,54.808z"/>
			
				<linearGradient id="SVGID_4_" gradientUnits="userSpaceOnUse" x1="3570.6865" y1="4374.8994" x2="3570.6865" y2="4419.9268" gradientTransform="matrix(-1 0 0 -1 3613.6562 4482.1367)">
				<stop  offset="0" style="stop-color:#80C11B"/>
				<stop  offset="1" style="stop-color:#80E21B"/>
			</linearGradient>
			<path fill="url(#SVGID_4_)" d="M69.054,89.726c1.416-1.35,2.123-3.051,2.123-4.967c0-1.984-0.707-3.684-2.125-5.031
				L53.655,64.267c-1.416-1.348-3.049-2.057-5.035-2.057c-1.916,0-3.621,0.709-5.037,2.057c-1.346,1.416-2.059,3.117-2.059,5.033
				c0,1.988,0.713,3.617,2.062,5.035l3.332,3.262l-25.066-0.004c-1.986,0-3.688,0.713-5.033,2.129
				c-1.42,1.352-2.057,3.049-2.057,5.033c0,1.916,0.637,3.617,2.057,4.967c1.348,1.418,3.051,2.059,5.035,2.123l25.066,0.004
				l-3.332,3.264c-1.348,1.35-2.059,3.053-2.059,5.037c0,1.912,0.713,3.613,2.059,5.031c1.418,1.346,3.123,2.057,5.033,2.057
				c1.99,0,3.621-0.705,5.041-2.057L69.054,89.726z"/>
		</g>
	</g>
	<g opacity="0.6">
		<path fill="#FFFFFF" d="M60.554,56.545l14.295-14.356c1.319-1.255,2.834-1.909,4.679-1.909c1.778,0,3.36,0.658,4.679,1.909
			c0.961,1.014,1.568,2.185,1.8,3.479c0.007-0.123,0.016-0.243,0.016-0.367c0-1.774-0.659-3.356-1.907-4.674
			c-1.319-1.251-2.901-1.91-4.679-1.91c-1.846,0-3.36,0.655-4.679,1.91L60.462,54.981c-1.317,1.253-1.973,2.834-1.973,4.609
			c0,0.424,0.039,0.832,0.108,1.227C58.676,59.18,59.32,57.717,60.554,56.545z"/>
		<path fill="#FFFFFF" d="M78.85,54.949h27.003c1.844,0.064,3.428,0.658,4.675,1.976c1.007,0.953,1.587,2.096,1.809,3.373
			c0.004-0.108,0.014-0.214,0.014-0.322c0-1.78-0.592-3.362-1.914-4.613c-1.248-1.317-2.832-1.911-4.675-1.976H80.446L78.85,54.949z
			"/>
	</g>
	<g opacity="0.6">
		<path fill="#FFFFFF" d="M67.716,81.309L53.421,66.952c-1.319-1.255-2.834-1.909-4.679-1.909c-1.778,0-3.36,0.658-4.679,1.909
			c-0.961,1.014-1.568,2.185-1.8,3.479c-0.007-0.123-0.016-0.243-0.016-0.367c0-1.774,0.659-3.356,1.907-4.674
			c1.319-1.251,2.901-1.91,4.679-1.91c1.846,0,3.36,0.655,4.679,1.91l14.295,14.355c1.317,1.253,1.973,2.834,1.973,4.609
			c0,0.424-0.039,0.832-0.108,1.227C69.594,83.943,68.949,82.48,67.716,81.309z"/>
		<path fill="#FFFFFF" d="M49.279,79.783H22.276c-1.844,0.064-3.428,0.658-4.675,1.976c-1.007,0.953-1.587,2.096-1.809,3.373
			c-0.004-0.108-0.014-0.214-0.014-0.322c0-1.78,0.592-3.362,1.914-4.613c1.248-1.317,2.832-1.911,4.675-1.976h25.314L49.279,79.783
			z"/>
	</g>
</g>
</svg>
