<?xml version="1.0" encoding="utf-8"?>
<!-- Generator: Adobe Illustrator 13.0.0, SVG Export Plug-In . SVG Version: 6.00 Build 14948)  -->
<!DOCTYPE svg PUBLIC "-//W3C//DTD SVG 1.1//EN" "http://www.w3.org/Graphics/SVG/1.1/DTD/svg11.dtd">
<svg version="1.1" id="Layer_1" xmlns="http://www.w3.org/2000/svg" xmlns:xlink="http://www.w3.org/1999/xlink" x="0px" y="0px"
	 width="128px" height="128px" viewBox="0 0 128 128" enable-background="new 0 0 128 128" xml:space="preserve">
<g>
	<g>
		<g>
			<g>
				
					<linearGradient id="SVGID_1_" gradientUnits="userSpaceOnUse" x1="3595.3105" y1="815.5518" x2="3595.3105" y2="914.2412" gradientTransform="matrix(-1 0 0 1 3647.9453 -813.9912)">
					<stop  offset="0" style="stop-color:#99DBF6"/>
					<stop  offset="1" style="stop-color:#00B2DE"/>
				</linearGradient>
				<path fill="url(#SVGID_1_)" d="M3.29,16.983v67.842c0,7.986,6.069,14.555,13.849,15.345c0.518,0.054,1.045,0.079,1.577,0.079
					h67.841c8.518,0,15.424-6.907,15.424-15.424V63.542c0-8.518-6.906-15.426-15.424-15.426H55.421V16.983
					c0-8.516-6.905-15.424-15.425-15.424h-21.28C10.195,1.56,3.29,8.466,3.29,16.983z"/>
			</g>
		</g>
		<path opacity="0.6" fill="#FFFFFF" d="M38.472,5.87H19.465c-4.08,0-7.794,1.6-10.584,4.215H7.357
			c2.877-3.572,7.232-5.852,12.107-5.852h19.007c4.876,0,9.23,2.279,12.108,5.852h-1.523C46.266,7.47,42.553,5.87,38.472,5.87z"/>
		<path fill="#00B2DE" d="M20.288,98.015H85.16c8.895,0,16.105-7.211,16.105-16.106v2.685c0,8.896-7.211,16.106-16.105,16.106
			H20.288c-8.896,0-16.106-7.211-16.106-16.106v-2.685C4.182,90.804,11.392,98.015,20.288,98.015z"/>
	</g>
	<g>
		<g>
			<g>
				
					<radialGradient id="SVGID_2_" cx="-342.4365" cy="885.4102" r="54.5254" gradientTransform="matrix(1 0 0 1 412.6201 -813.9912)" gradientUnits="userSpaceOnUse">
					<stop  offset="0" style="stop-color:#FAFAFA"/>
					<stop  offset="0.3109" style="stop-color:#F4F4F4"/>
					<stop  offset="0.7262" style="stop-color:#E3E3E3"/>
					<stop  offset="1" style="stop-color:#D4D4D4"/>
				</radialGradient>
				<path fill="url(#SVGID_2_)" stroke="#B3B3B3" stroke-width="2" d="M107.664,16.894H84.15c-9.414,0-17.045,7.633-17.045,17.043
					v34.4H32.701c-9.412,0-17.043,7.634-17.043,17.045V108.9c0,9.41,7.631,17.043,17.043,17.043h74.963
					c0.588,0,1.17-0.029,1.742-0.088c8.596-0.873,15.303-8.131,15.303-16.955V33.937C124.709,24.524,117.078,16.894,107.664,16.894z
					"/>
			</g>
		</g>
		<path fill="#FFFFFF" d="M85.834,21.656h21.003c4.508,0,8.611,1.769,11.694,4.658h1.684c-3.179-3.948-7.991-6.466-13.378-6.466
			H85.834c-5.388,0-10.199,2.518-13.379,6.466h1.684C77.223,23.425,81.325,21.656,85.834,21.656z"/>
		<path fill="#B3B3B3" d="M105.927,123.474H34.245c-9.829,0-17.797-7.967-17.797-17.797v2.967c0,9.829,7.968,17.797,17.797,17.797
			h71.682c9.83,0,17.797-7.968,17.797-17.797v-2.967C123.724,115.507,115.757,123.474,105.927,123.474z"/>
	</g>
</g>
</svg>
