<?xml version="1.0" encoding="utf-8"?>
<!-- Generator: Adobe Illustrator 13.0.0, SVG Export Plug-In . SVG Version: 6.00 Build 14948)  -->
<!DOCTYPE svg PUBLIC "-//W3C//DTD SVG 1.1//EN" "http://www.w3.org/Graphics/SVG/1.1/DTD/svg11.dtd">
<svg version="1.1" id="Layer_1" xmlns="http://www.w3.org/2000/svg" xmlns:xlink="http://www.w3.org/1999/xlink" x="0px" y="0px"
	 width="128px" height="128px" viewBox="0 0 128 128" enable-background="new 0 0 128 128" xml:space="preserve">
<g>
	
		<linearGradient id="SVGID_1_" gradientUnits="userSpaceOnUse" x1="2872.7588" y1="8.5898" x2="2872.7588" y2="108.0696" gradientTransform="matrix(-1 0 0 1 2936.8672 0)">
		<stop  offset="0" style="stop-color:#FFD207"/>
		<stop  offset="1" style="stop-color:#FAA61A"/>
	</linearGradient>
	<path fill="url(#SVGID_1_)" d="M9.467,63.233c0,30.177,24.463,54.64,54.643,54.64c30.178,0,54.641-24.463,54.641-54.64
		c0-30.18-24.463-54.644-54.641-54.644C33.93,8.59,9.467,33.054,9.467,63.233z M53.066,63.49
		c0.002-6.133,4.965-11.101,11.104-11.101v-0.003c6.127,0.003,11.097,4.971,11.1,11.104c-0.003,6.132-4.973,11.101-11.1,11.101
		C58.031,74.591,53.068,69.622,53.066,63.49z"/>
	<g>
		<linearGradient id="SVGID_2_" gradientUnits="userSpaceOnUse" x1="45.3828" y1="56.3149" x2="45.3828" y2="66.8653">
			<stop  offset="0" style="stop-color:#E2A616"/>
			<stop  offset="1" style="stop-color:#C20000"/>
		</linearGradient>
		<path fill="url(#SVGID_2_)" d="M51.656,66.722c-0.287-1.025-0.449-2.099-0.449-3.215c0-1.09,0.158-2.141,0.43-3.145
			c-3.488-2.888-7.559-4.927-12.527-5.542C44.224,56.829,48.223,61.558,51.656,66.722z"/>
		<path fill="#FF1F00" d="M90.435,36.657c9.109,6.709,19.384,19.096,19.948,30.604c0.424,8.631-12.889,14.775-18.39,15.162
			c-8.007,0.564-12.48-9.166-10.437-14.723c1.568-4.253,8.082-10.08,12.675-6.195C89.59,53.08,76.01,62.771,74.57,69.221
			c-2.578,11.498,10.684,17.36,9.842,29.479c-0.508,7.313-5.824,13.068-12.213,14.6c-4.52,1.08-10.414-2.532-10.119-8.001
			c0.287-5.226,4.268-6.823,5.711-13.057c1.305-5.616-1.132-10.916-4.034-16.004c-0.136-0.241-0.277-0.479-0.416-0.718
			c-0.036,0.001-0.077,0.006-0.116,0.006c-3.076,0-5.877-1.167-8.003-3.068c0.284,0.471,0.562,0.939,0.835,1.401
			c6.921,11.639,2.388,20.023-5.217,26.237c-6.177,5.055-15.867,7.297-22.191-1.403c-6.474-8.915-0.428-15.725,7.018-16.564
			c-6.043-2.668-13.695-3.416-18.258-0.284c-2.273,1.555-3.705,4.177-0.43,8.687c2.297,3.188,2.568,4.808,8.316,10.266
			c31.67,30.078,72.192,14.862,87.674-13.627c0.469-0.703,4.16-7.257,4.603-16.899C117.998,60.984,115.756,45.021,90.435,36.657z"/>
	</g>
	<path fill="#FFFFFF" d="M64.104,13.889c18.843,0,35.447,9.571,45.224,24.117c-9.007-15.644-25.879-26.184-45.224-26.184
		c-19.342,0-36.21,10.534-45.214,26.169C28.666,23.454,45.264,13.889,64.104,13.889z"/>
	<path fill="#A51C20" d="M64.054,115.908c-22.544,0-41.958-13.375-50.764-32.617c7.97,20.246,27.685,34.582,50.764,34.582
		s42.797-14.336,50.768-34.586C106.012,102.53,86.602,115.908,64.054,115.908z"/>
	<linearGradient id="SVGID_3_" gradientUnits="userSpaceOnUse" x1="45.8555" y1="63.4604" x2="82.5303" y2="63.4604">
		<stop  offset="0" style="stop-color:#5F5D5C"/>
		<stop  offset="1" style="stop-color:#181500"/>
	</linearGradient>
	<path fill="url(#SVGID_3_)" d="M45.855,63.462c0.003,10.129,8.207,18.333,18.344,18.333c10.119,0,18.331-8.204,18.331-18.333
		c0-10.126-8.212-18.329-18.331-18.336v0.007C54.062,45.133,45.858,53.336,45.855,63.462z M53.205,63.462
		c0.003-6.069,4.916-10.982,10.99-10.982v-0.005c6.066,0.005,10.984,4.918,10.988,10.987c-0.004,6.069-4.922,10.985-10.988,10.985
		C58.121,74.447,53.208,69.531,53.205,63.462z"/>
</g>
</svg>
