<?xml version="1.0" encoding="utf-8"?>
<!-- Generator: Adobe Illustrator 13.0.0, SVG Export Plug-In . SVG Version: 6.00 Build 14948)  -->
<!DOCTYPE svg PUBLIC "-//W3C//DTD SVG 1.1//EN" "http://www.w3.org/Graphics/SVG/1.1/DTD/svg11.dtd">
<svg version="1.1" id="Layer_1" xmlns="http://www.w3.org/2000/svg" xmlns:xlink="http://www.w3.org/1999/xlink" x="0px" y="0px"
	 width="128px" height="128px" viewBox="0 0 128 128" enable-background="new 0 0 128 128" xml:space="preserve">
<g>
	<g>
		
			<linearGradient id="SVGID_1_" gradientUnits="userSpaceOnUse" x1="2903.3301" y1="1.0879" x2="2903.3301" y2="56.9574" gradientTransform="matrix(-1 0 0 1 2936.8672 0)">
			<stop  offset="0" style="stop-color:#FFD207"/>
			<stop  offset="1" style="stop-color:#FAA61A"/>
		</linearGradient>
		<path fill="url(#SVGID_1_)" d="M2.85,31.776c0,16.948,13.739,30.687,30.689,30.687c16.948,0,30.687-13.738,30.687-30.687
			c0-16.949-13.738-30.688-30.687-30.688C16.589,1.088,2.85,14.827,2.85,31.776z M27.336,31.921
			c0.003-3.445,2.788-6.234,6.235-6.234v-0.002c3.441,0.002,6.232,2.791,6.234,6.236c-0.002,3.443-2.793,6.233-6.234,6.233
			C30.124,38.154,27.339,35.364,27.336,31.921z"/>
		<path fill="#FA8F1A" d="M33.462,61.198c-16.738,0-30.336-13.4-30.674-30.058c-0.005,0.211-0.014,0.421-0.014,0.635
			c0,16.949,13.738,30.688,30.688,30.688s30.688-13.738,30.688-30.688c0-0.214-0.01-0.424-0.017-0.635
			C63.795,47.798,50.2,61.198,33.462,61.198z"/>
		<path fill="#FFFFFF" d="M33.534,4.063c10.584,0,19.908,5.375,25.399,13.545C53.874,8.823,44.399,2.903,33.534,2.903
			c-10.861,0-20.336,5.916-25.392,14.696C13.632,9.437,22.955,4.063,33.534,4.063z"/>
		<linearGradient id="SVGID_2_" gradientUnits="userSpaceOnUse" x1="23.2861" y1="31.9033" x2="43.8838" y2="31.9033">
			<stop  offset="0" style="stop-color:#5F5D5C"/>
			<stop  offset="1" style="stop-color:#181500"/>
		</linearGradient>
		<path fill="url(#SVGID_2_)" d="M23.286,31.904C23.288,37.593,27.896,42.2,33.588,42.2c5.684,0,10.296-4.607,10.296-10.296
			c0-5.687-4.612-10.294-10.296-10.298v0.004C27.896,21.61,23.288,26.218,23.286,31.904z M27.414,31.904
			c0.002-3.409,2.761-6.168,6.173-6.168v-0.003c3.406,0.003,6.17,2.762,6.172,6.171c-0.002,3.409-2.766,6.17-6.172,6.17
			C30.175,38.074,27.416,35.313,27.414,31.904z"/>
	</g>
	<g>
		
			<linearGradient id="SVGID_3_" gradientUnits="userSpaceOnUse" x1="2866.3789" y1="18.002" x2="2866.3789" y2="117.655" gradientTransform="matrix(-1 0 0 1 2936.8672 0)">
			<stop  offset="0" style="stop-color:#FFD207"/>
			<stop  offset="1" style="stop-color:#FAA61A"/>
		</linearGradient>
		<path fill="url(#SVGID_3_)" d="M15.751,72.74c0,30.23,24.505,54.735,54.739,54.735c30.231,0,54.735-24.505,54.735-54.735
			c0-30.232-24.504-54.738-54.735-54.738C40.256,18.002,15.751,42.508,15.751,72.74z M59.427,72.998
			c0.004-6.145,4.974-11.119,11.122-11.119v-0.004c6.138,0.004,11.117,4.979,11.12,11.123c-0.003,6.143-4.982,11.119-11.12,11.119
			C64.4,84.117,59.431,79.141,59.427,72.998z"/>
		<path fill="#FA8F1A" d="M70.353,125.22c-29.854,0-54.108-23.902-54.711-53.613c-0.01,0.376-0.025,0.751-0.025,1.132
			c0,30.232,24.506,54.737,54.736,54.737c30.231,0,54.737-24.505,54.737-54.737c0-0.381-0.017-0.756-0.029-1.132
			C124.458,101.317,100.208,125.22,70.353,125.22z"/>
		<path fill="#FFFFFF" d="M70.482,23.311c18.877,0,35.509,9.587,45.304,24.158c-9.023-15.67-25.924-26.229-45.304-26.229
			c-19.373,0-36.272,10.552-45.291,26.214C34.983,32.893,51.612,23.311,70.482,23.311z"/>
		<linearGradient id="SVGID_4_" gradientUnits="userSpaceOnUse" x1="52.2031" y1="72.9678" x2="88.9424" y2="72.9678">
			<stop  offset="0" style="stop-color:#5F5D5C"/>
			<stop  offset="1" style="stop-color:#181500"/>
		</linearGradient>
		<path fill="url(#SVGID_4_)" d="M52.203,72.969c0.003,10.146,8.222,18.365,18.375,18.365c10.138,0,18.364-8.219,18.364-18.365
			c0-10.144-8.227-18.36-18.364-18.367v0.007C60.425,54.608,52.206,62.825,52.203,72.969z M59.565,72.969
			c0.004-6.08,4.925-11.002,11.01-11.002v-0.004c6.076,0.004,11.006,4.926,11.009,11.006c-0.003,6.081-4.933,11.005-11.009,11.005
			C64.49,83.974,59.569,79.05,59.565,72.969z"/>
	</g>
</g>
</svg>
