<?xml version="1.0" encoding="utf-8"?>
<!-- Generator: Adobe Illustrator 13.0.0, SVG Export Plug-In . SVG Version: 6.00 Build 14948)  -->
<!DOCTYPE svg PUBLIC "-//W3C//DTD SVG 1.1//EN" "http://www.w3.org/Graphics/SVG/1.1/DTD/svg11.dtd">
<svg version="1.1" id="Layer_1" xmlns="http://www.w3.org/2000/svg" xmlns:xlink="http://www.w3.org/1999/xlink" x="0px" y="0px"
	 width="128px" height="128px" viewBox="0 0 128 128" enable-background="new 0 0 128 128" xml:space="preserve">
<g>
	
		<radialGradient id="SVGID_1_" cx="147.9473" cy="360.8789" r="30.0578" gradientTransform="matrix(1.2329 0 0 1.1831 -132.3845 -332.8138)" gradientUnits="userSpaceOnUse">
		<stop  offset="0" style="stop-color:#FAFAFA"/>
		<stop  offset="0.3629" style="stop-color:#E5E5E5"/>
		<stop  offset="1" style="stop-color:#C4C4C4"/>
	</radialGradient>
	<path fill="url(#SVGID_1_)" stroke="#808080" d="M58.636,68.949l30.14,42.766c4.659,7.387,2.643,13.43-4.486,13.43H15.442
		c-7.124,0-8.834-5.648-3.795-12.553l29.354-44.52C46.039,61.167,53.976,61.563,58.636,68.949L58.636,68.949z"/>
	
		<radialGradient id="SVGID_2_" cx="147.9453" cy="307.0449" r="23.3159" gradientTransform="matrix(1.2329 0 0 1.1831 -132.3845 -332.8138)" gradientUnits="userSpaceOnUse">
		<stop  offset="0" style="stop-color:#FAFAFA"/>
		<stop  offset="0.4142" style="stop-color:#E3E3E3"/>
		<stop  offset="1" style="stop-color:#C7C7C7"/>
	</radialGradient>
	<path fill="url(#SVGID_2_)" stroke="#808080" d="M21.281,30.452c0-15.243,12.867-27.597,28.736-27.597s28.734,12.354,28.734,27.597
		c0,15.24-12.865,27.595-28.734,27.595S21.281,45.692,21.281,30.452L21.281,30.452z"/>
	<linearGradient id="SVGID_3_" gradientUnits="userSpaceOnUse" x1="39.127" y1="16.4204" x2="39.127" y2="30.8013">
		<stop  offset="0" style="stop-color:#FF9D00"/>
		<stop  offset="1" style="stop-color:#FF1F00"/>
	</linearGradient>
	<path fill="url(#SVGID_3_)" d="M31.639,23.611c0-3.971,3.355-7.19,7.488-7.19c4.136,0,7.488,3.22,7.488,7.19
		c0,3.974-3.353,7.19-7.488,7.19C34.994,30.801,31.639,27.584,31.639,23.611L31.639,23.611z"/>
	<path fill="#EC8690" d="M38.886,23.442c2.062,1.654,4.851,0.745,6.588-0.119c-0.258-3.327-3.146-5.95-6.676-5.95
		c-3.546,0-6.444,2.645-6.678,5.99C33.727,22.607,36.668,21.661,38.886,23.442z"/>
	<path fill="#F2F2F2" d="M28.262,16.161c4.8-6.322,13.622-11.166,21.869-11.166c8.245,0,16.842,4.844,21.641,11.166h0.914
		C67.6,8.719,59.347,3.851,50.018,3.851c-9.327,0-17.582,4.868-22.668,12.31H28.262z"/>
	<linearGradient id="SVGID_4_" gradientUnits="userSpaceOnUse" x1="50.0171" y1="40.4526" x2="50.0171" y2="52.7593">
		<stop  offset="0" style="stop-color:#FF9D00"/>
		<stop  offset="1" style="stop-color:#FF1F00"/>
	</linearGradient>
	<path fill="url(#SVGID_4_)" d="M71.772,40.453c-4.8,6.321-13.62,11.163-21.868,11.163c-8.247,0-16.843-4.842-21.642-11.163H27.35
		c5.086,7.44,13.341,12.307,22.667,12.307c9.33,0,17.584-4.866,22.669-12.307H71.772z"/>
	<path opacity="0.5" fill="#FFFFFF" d="M26.21,120.248c0-20.967,16.75-38.172,38.109-39.984l-6.442-9.141
		c-4.355-6.9-11.771-7.27-16.479-0.816l-27.424,41.598c-4.709,6.449-3.114,11.729,3.545,11.729h8.85
		C26.271,122.514,26.21,121.389,26.21,120.248z"/>
	<g>
		
			<linearGradient id="SVGID_5_" gradientUnits="userSpaceOnUse" x1="-139.2788" y1="-602.918" x2="-139.2788" y2="-626.7661" gradientTransform="matrix(1 0 0 -1 246.7271 -588.7695)">
			<stop  offset="0" style="stop-color:#FF9D00"/>
			<stop  offset="1" style="stop-color:#FF1F00"/>
		</linearGradient>
		<path fill="url(#SVGID_5_)" stroke="#ED1F00" stroke-width="0.5" d="M107.413,14.149c-1.311,0.021-2.356,1.098-2.338,2.408v3.776
			l-2.668-2.666c-0.449-0.462-1.071-0.715-1.713-0.714c-0.643,0.001-1.26,0.25-1.705,0.714c-0.911,0.939-0.889,2.444,0.049,3.36
			l2.678,2.675H97.94c-0.86-0.013-1.66,0.438-2.093,1.179c-0.434,0.74-0.434,1.658,0,2.396c0.433,0.743,1.232,1.193,2.093,1.182
			h3.775l-2.668,2.666c-0.615,0.598-0.862,1.478-0.645,2.308c0.219,0.829,0.867,1.478,1.695,1.696
			c0.83,0.217,1.713-0.031,2.309-0.645l2.668-2.666v3.764c-0.013,0.858,0.438,1.66,1.178,2.091c0.741,0.432,1.657,0.432,2.398,0
			c0.74-0.432,1.19-1.232,1.18-2.091v-3.764l2.666,2.666c0.598,0.613,1.48,0.861,2.309,0.645c0.83-0.219,1.477-0.867,1.693-1.696
			c0.219-0.83-0.027-1.719-0.644-2.318l-2.654-2.655h3.764c0.645,0.007,1.261-0.25,1.716-0.702c0.452-0.457,0.704-1.073,0.693-1.717
			c-0.023-1.309-1.1-2.353-2.409-2.338h-3.775l2.675-2.675c0.462-0.449,0.715-1.062,0.713-1.705c0-0.645-0.261-1.258-0.723-1.705
			c-0.941-0.91-2.444-0.887-3.357,0.05l-2.668,2.666v-3.777c0.01-0.644-0.247-1.261-0.703-1.714
			C108.672,14.388,108.055,14.137,107.413,14.149L107.413,14.149z"/>
		<g>
			<path fill="#ED1F00" d="M107.489,37.475c-0.642,0.012-1.257-0.238-1.712-0.692c-0.456-0.453-0.713-1.072-0.704-1.714v0.521
				c-0.009,0.644,0.248,1.261,0.704,1.713c0.455,0.456,1.07,0.706,1.712,0.693c1.311-0.021,2.356-1.098,2.339-2.406v-0.522
				C109.846,36.377,108.8,37.454,107.489,37.475z"/>
			<path fill="#ED1F00" d="M105.073,31.292l-2.666,2.666c-0.914,0.937-2.418,0.959-3.358,0.049
				c-0.401-0.387-0.648-0.898-0.709-1.446c-0.009,0.087-0.015,0.175-0.015,0.265c0,0.645,0.26,1.257,0.724,1.703
				c0.94,0.91,2.444,0.889,3.358-0.049l2.666-2.666V31.292z"/>
			<path fill="#ED1F00" d="M115.913,33.958c-0.447,0.463-1.062,0.712-1.704,0.713c-0.644,0.001-1.266-0.251-1.714-0.713
				l-2.667-2.665v0.521l2.667,2.665c0.448,0.463,1.07,0.715,1.714,0.713c0.642,0,1.257-0.25,1.704-0.713
				c0.512-0.526,0.719-1.23,0.645-1.908C116.501,33.075,116.294,33.565,115.913,33.958z"/>
		</g>
		<path opacity="0.5" fill="#FFFFFF" d="M107.411,15.113c0.549-0.007,1.076,0.206,1.467,0.595c0.188,0.188,0.337,0.41,0.439,0.653
			c-0.024-0.465-0.22-0.905-0.55-1.234c-0.36-0.357-0.846-0.556-1.354-0.548c-0.991,0.016-1.788,0.799-1.842,1.775
			C105.877,15.637,106.581,15.127,107.411,15.113z"/>
		<path opacity="0.5" fill="#FFFFFF" d="M99.604,18.399c0.383-0.395,0.907-0.616,1.459-0.617c0.266,0,0.528,0.052,0.771,0.15
			c-0.346-0.311-0.796-0.482-1.262-0.482c-0.509,0.001-0.992,0.205-1.345,0.57c-0.688,0.711-0.698,1.829-0.047,2.557
			C98.89,19.853,99.029,18.996,99.604,18.399z"/>
		<path opacity="0.5" fill="#FFFFFF" d="M96.351,26.12c-0.008-0.551,0.206-1.076,0.595-1.468c0.188-0.188,0.411-0.338,0.652-0.439
			c-0.465,0.024-0.904,0.22-1.234,0.55c-0.357,0.36-0.555,0.847-0.546,1.354c0.014,0.991,0.797,1.788,1.773,1.841
			C96.873,27.653,96.364,26.949,96.351,26.12z"/>
		<path opacity="0.5" fill="#FFFFFF" d="M118.61,26.049c0.01,0.551-0.205,1.077-0.594,1.469c-0.188,0.189-0.41,0.338-0.652,0.439
			c0.464-0.023,0.903-0.221,1.232-0.55c0.357-0.361,0.557-0.848,0.548-1.354c-0.016-0.991-0.799-1.789-1.774-1.841
			C118.088,24.517,118.597,25.221,118.61,26.049z"/>
		<path opacity="0.5" fill="#FFFFFF" d="M115.304,18.399c-0.382-0.395-0.906-0.616-1.457-0.617c-0.267,0-0.529,0.052-0.772,0.15
			c0.345-0.311,0.796-0.482,1.262-0.482c0.508,0.001,0.991,0.205,1.345,0.57c0.689,0.711,0.699,1.829,0.047,2.557
			C116.019,19.853,115.882,18.996,115.304,18.399z"/>
	</g>
	
		<linearGradient id="SVGID_6_" gradientUnits="userSpaceOnUse" x1="-2038.71" y1="-214.2642" x2="-1992.8156" y2="-159.0027" gradientTransform="matrix(0.7693 0.6389 -0.6389 0.7693 1499.2614 1503.9128)">
		<stop  offset="0" style="stop-color:#FF9D00"/>
		<stop  offset="1" style="stop-color:#FF1F00"/>
	</linearGradient>
	<path fill="url(#SVGID_6_)" stroke="#ED1F00" stroke-width="0.5" d="M37.624,108.383l49.354-65.931c0,0,5.33-8.587,9.593-5.048
		c4.263,3.54-2.881,10.434-2.881,10.434L37.624,108.383z"/>
	<path opacity="0.5" fill="#FFFFFF" d="M94.981,39.042c0.844,0.539,1.434,1.393,1.639,2.377c0.098,0.477,0.101,0.962,0.014,1.436
		c0.429-0.732,0.573-1.599,0.401-2.431c-0.191-0.906-0.731-1.695-1.514-2.193c-1.526-0.972-3.525-0.578-4.587,0.855
		C92.12,38.3,93.704,38.231,94.981,39.042z"/>
</g>
</svg>
