<?xml version="1.0" encoding="utf-8"?>
<!-- Generator: Adobe Illustrator 13.0.0, SVG Export Plug-In . SVG Version: 6.00 Build 14948)  -->
<!DOCTYPE svg PUBLIC "-//W3C//DTD SVG 1.1//EN" "http://www.w3.org/Graphics/SVG/1.1/DTD/svg11.dtd">
<svg version="1.1" id="Layer_1" xmlns="http://www.w3.org/2000/svg" xmlns:xlink="http://www.w3.org/1999/xlink" x="0px" y="0px"
	 width="128px" height="128px" viewBox="0 0 128 128" enable-background="new 0 0 128 128" xml:space="preserve">
<g>
	<g>
		
			<linearGradient id="SVGID_1_" gradientUnits="userSpaceOnUse" x1="-511.6641" y1="-610.5166" x2="-533.194" y2="-595.4412" gradientTransform="matrix(1 0 0 -1 535.9648 -563.8105)">
			<stop  offset="0" style="stop-color:#C51015"/>
			<stop  offset="1" style="stop-color:#E20A16"/>
		</linearGradient>
		<path fill="url(#SVGID_1_)" d="M22.023,49.959h-4.59v-2.11c-1.592,1.592-3.656,2.387-6.197,2.387c-2.754,0-4.834-0.703-6.24-2.111
			c-1.225-1.285-1.836-2.952-1.836-5.003c0-1.988,0.699-3.603,2.102-4.843c1.402-1.238,3.396-1.857,5.981-1.857h6.19v-1.652
			c0-2.906-1.715-4.359-5.142-4.359c-2.224,0-3.937,0.75-5.14,2.249l-3.075-2.892c1.039-1.225,2.194-2.09,3.465-2.595
			s2.897-0.757,4.888-0.757c6.396,0,9.594,2.662,9.594,7.986V49.959z M17.434,41.56v-1.883H11.92c-2.812,0-4.216,1.118-4.216,3.352
			c0,2.203,1.437,3.305,4.31,3.305c2.008,0,3.475-0.443,4.401-1.331C17.094,44.329,17.434,43.181,17.434,41.56z"/>
		
			<linearGradient id="SVGID_2_" gradientUnits="userSpaceOnUse" x1="-488.0586" y1="-608.9014" x2="-513.6569" y2="-590.9771" gradientTransform="matrix(1 0 0 -1 535.9648 -563.8105)">
			<stop  offset="0" style="stop-color:#C51015"/>
			<stop  offset="1" style="stop-color:#E20A16"/>
		</linearGradient>
		<path fill="url(#SVGID_2_)" d="M48.275,38.302c0,4.771-0.871,8.062-2.615,9.867c-1.377,1.377-3.274,2.064-5.691,2.064
			c-2.539,0-4.59-0.918-6.15-2.754v2.479H29.23V17.28h4.588v11.75c1.479-1.744,3.527-2.616,6.145-2.616
			c2.401,0,4.296,0.688,5.682,2.065C47.398,30.224,48.275,33.498,48.275,38.302z M43.596,38.302c0-2.416-0.279-4.223-0.835-5.416
			c-0.741-1.529-2.085-2.295-4.03-2.295c-1.946,0-3.291,0.764-4.031,2.295c-0.588,1.225-0.881,3.029-0.881,5.416
			c0,2.448,0.293,4.254,0.881,5.415c0.74,1.562,2.084,2.341,4.029,2.341c1.946,0,3.291-0.779,4.031-2.341
			C43.316,42.554,43.596,40.75,43.596,38.302z"/>
		
			<linearGradient id="SVGID_3_" gradientUnits="userSpaceOnUse" x1="-463.0117" y1="-608.5977" x2="-481.474" y2="-595.6703" gradientTransform="matrix(1 0 0 -1 535.9648 -563.8105)">
			<stop  offset="0" style="stop-color:#C51015"/>
			<stop  offset="1" style="stop-color:#E20A16"/>
		</linearGradient>
		<path fill="url(#SVGID_3_)" d="M71.454,46.929c-2.082,2.203-4.636,3.305-7.665,3.305c-2.969,0-5.354-0.901-7.159-2.707
			c-2.144-2.08-3.213-5.155-3.213-9.227c0-4.037,1.069-7.113,3.213-9.225c1.865-1.773,4.252-2.662,7.159-2.662
			c3.029,0,5.583,1.086,7.665,3.259l-3.213,3.121c-1.347-1.47-2.83-2.203-4.452-2.203c-1.773,0-3.213,0.688-4.314,2.065
			c-0.918,1.193-1.377,3.074-1.377,5.645c0,2.541,0.459,4.438,1.377,5.691c1.071,1.377,2.51,2.064,4.314,2.064
			c1.591,0,3.075-0.734,4.452-2.203L71.454,46.929z"/>
	</g>
	
		<linearGradient id="SVGID_4_" gradientUnits="userSpaceOnUse" x1="-437.0806" y1="-637.5493" x2="-487.8075" y2="-602.0297" gradientTransform="matrix(1 0 0 -1 535.9648 -563.8105)">
		<stop  offset="0" style="stop-color:#C51015"/>
		<stop  offset="1" style="stop-color:#E20A16"/>
	</linearGradient>
	<path fill="url(#SVGID_4_)" d="M117.932,8.465c-6.215-3.688-14.255-1.639-17.942,4.578l-39.263,66.18l-6.287-14.972
		c-2.805-6.675-10.473-9.809-17.144-7c-6.66,2.791-9.8,10.468-7.003,17.144l16.348,38.957c1.918,4.563,6.236,7.653,11.174,8.002
		c4.929,0.338,9.631-2.135,12.158-6.388l52.533-88.547C126.193,20.201,124.145,12.158,117.932,8.465L117.932,8.465z"/>
	<path fill="#B5252B" d="M57.84,118.999c-4.431-0.312-8.532-3.794-11.652-6.729l0.453,1.081c1.918,4.563,6.236,7.653,11.174,8.002
		c4.929,0.338,9.631-2.135,12.158-6.388l1.081-1.822C67.396,116.13,62.704,119.332,57.84,118.999z"/>
	<g opacity="0.5">
		<path fill="#FFFFFF" d="M38.692,60.534c6.08-2.337,12.859,0.576,15.138,6.505l-0.642-1.67c-2.28-5.934-9.059-8.842-15.139-6.506
			c-6.081,2.338-9.157,9.041-6.879,14.969l0.643,1.671C29.534,69.574,32.611,62.871,38.692,60.534z"/>
	</g>
	<polygon opacity="0.5" fill="#FFFFFF" points="62.413,81.024 61.507,80.149 102.868,11.755 101.853,16.248 	"/>
</g>
</svg>
