<?xml version="1.0" encoding="utf-8"?>
<!-- Generator: Adobe Illustrator 13.0.0, SVG Export Plug-In . SVG Version: 6.00 Build 14948)  -->
<!DOCTYPE svg PUBLIC "-//W3C//DTD SVG 1.1//EN" "http://www.w3.org/Graphics/SVG/1.1/DTD/svg11.dtd">
<svg version="1.1" id="Layer_1" xmlns="http://www.w3.org/2000/svg" xmlns:xlink="http://www.w3.org/1999/xlink" x="0px" y="0px"
	 width="128px" height="128px" viewBox="0 0 128 128" enable-background="new 0 0 128 128" xml:space="preserve">
<g>
	<g>
		<g>
			<radialGradient id="SVGID_1_" cx="64.0107" cy="73.9404" r="56.728" gradientUnits="userSpaceOnUse">
				<stop  offset="0" style="stop-color:#FAFAFA"/>
				<stop  offset="0.3109" style="stop-color:#F4F4F4"/>
				<stop  offset="0.7262" style="stop-color:#E3E3E3"/>
				<stop  offset="1" style="stop-color:#D4D4D4"/>
			</radialGradient>
			<path fill="url(#SVGID_1_)" stroke="#000000" stroke-miterlimit="3.8637" d="M97.336,29.546
				c-0.278-2.314-67.824-11.773-67.812-0.717c-0.015,0.444-0.002,0.889-0.006,1.334C12.675,39.358,1.567,55.092,1.567,72.961
				c0,28.356,27.959,51.348,62.443,51.348c34.487,0,62.443-22.989,62.443-51.348C126.454,54.683,114.829,38.645,97.336,29.546z"/>
		</g>
	</g>
	<g>
		<g>
			<g>
				<g>
					<defs>
						<ellipse id="SVGID_2_" cx="64.044" cy="72.944" rx="61.912" ry="50.91"/>
					</defs>
					<clipPath id="SVGID_3_">
						<use xlink:href="#SVGID_2_"  overflow="visible"/>
					</clipPath>
					<g clip-path="url(#SVGID_3_)">
						<g>
							<linearGradient id="SVGID_4_" gradientUnits="userSpaceOnUse" x1="63.5493" y1="51.29" x2="63.5493" y2="123.8491">
								<stop  offset="0" style="stop-color:#5F5D5C"/>
								<stop  offset="1" style="stop-color:#181500"/>
							</linearGradient>
							<path fill="url(#SVGID_4_)" d="M34.768,123.849h7.097V83.305c-2.442-0.771-4.814-1.657-7.097-2.666V123.849z M1.122,51.291
								v72.558H8.22V57.813c-1.228-2.097-2.275-4.276-3.149-6.523L1.122,51.291L1.122,51.291z M51.591,123.849h7.097V86.482
								c-2.405-0.17-4.776-0.438-7.097-0.829V123.849z M17.944,123.849h7.1V75.306c-2.541-1.697-4.916-3.556-7.1-5.557V123.849z
								 M85.234,123.849h7.096V81.055c-2.29,0.972-4.652,1.837-7.096,2.567V123.849z M123.016,51.295
								c-1.094,2.821-2.488,5.53-4.138,8.114v64.439h7.099V51.295H123.016z M102.056,123.849h7.098V70.625
								c-2.195,1.921-4.566,3.696-7.098,5.319V123.849z M68.411,123.849h7.097v-38.05c-2.325,0.356-4.69,0.606-7.097,0.746V123.849z
								"/>
						</g>
					</g>
				</g>
			</g>
		</g>
	</g>
	<path fill="none" stroke="#000000" stroke-miterlimit="3.8637" d="M6.392,54.351c0,0,13.878,32.194,57.504,32.194
		s57.797-32.201,57.797-32.201"/>
	<g>
		<g>
			<linearGradient id="SVGID_5_" gradientUnits="userSpaceOnUse" x1="61.1826" y1="39.2935" x2="105.0684" y2="39.2935">
				<stop  offset="0" style="stop-color:#5F5D5C"/>
				<stop  offset="1" style="stop-color:#181500"/>
			</linearGradient>
			<path fill="url(#SVGID_5_)" d="M100.094,60.151c-4.394,2.199-8.967,2.537-13.742,2.305c-2.353-0.189-4.685-0.648-6.943-1.355
				c-6.768-2.137-12.818-6.533-16.367-12.795c-1.529-2.623-2.033-5.58-1.807-8.537c1.293-11.938,11.278-22.258,23.461-23.609
				c8.295-0.844,17.266,4.23,18.762,12.9C104.275,31.888,108.051,56.26,100.094,60.151z"/>
			<linearGradient id="SVGID_6_" gradientUnits="userSpaceOnUse" x1="19.3574" y1="32.3877" x2="76.2305" y2="32.3877">
				<stop  offset="0" style="stop-color:#5F5D5C"/>
				<stop  offset="1" style="stop-color:#181500"/>
			</linearGradient>
			<path fill="url(#SVGID_6_)" d="M76.178,35.415c0.111,4.652-1.565,9.171-3.953,13.197c-1.239,1.921-2.73,3.676-4.439,5.228
				c-1.714,1.544-3.636,2.881-5.732,3.972c-9.034,4.684-19.409,6.692-29.287,3.683c-3.093-0.923-5.813-2.558-7.945-4.728
				c-2.131-2.166-3.675-4.871-4.441-7.967c-0.363-2.295-0.651-4.689-0.826-7.14c-0.179-2.448-0.241-4.944-0.16-7.44
				C19.379,20.15,26.579,0.733,43.148,1.907c2.429,0.138,4.814,0.578,7.133,1.271c2.322,0.691,4.565,1.643,6.717,2.809
				c8.579,4.79,15.775,12.323,18.598,21.901C76.135,30.312,76.336,32.835,76.178,35.415z"/>
		</g>
		<g>
			
				<linearGradient id="SVGID_7_" gradientUnits="userSpaceOnUse" x1="-1366.4297" y1="205.4395" x2="-1368.2656" y2="204.154" gradientTransform="matrix(19.8314 3.000000e-04 0 19.8298 27202.6074 -4020.8477)">
				<stop  offset="0" style="stop-color:#DEDEDE"/>
				<stop  offset="1" style="stop-color:#FEFEFE"/>
			</linearGradient>
			<path fill="url(#SVGID_7_)" d="M99.151,58.977c-4.123,2.065-8.413,2.382-12.894,2.161c-2.208-0.177-4.396-0.605-6.516-1.27
				c-6.35-2.004-12.027-6.131-15.357-12.006c-1.435-2.461-1.906-5.235-1.694-8.008C63.904,28.653,73.273,18.97,84.703,17.7
				c7.783-0.79,16.199,3.971,17.602,12.105C103.073,32.459,106.616,55.327,99.151,58.977z"/>
			
				<linearGradient id="SVGID_8_" gradientUnits="userSpaceOnUse" x1="-1255.145" y1="89.7012" x2="-1256.9137" y2="88.4627" gradientTransform="matrix(8.5332 0 0 8.5323 10804.8486 -721.7168)">
				<stop  offset="0" style="stop-color:#181500"/>
				<stop  offset="1" style="stop-color:#5F5D5C"/>
			</linearGradient>
			<path fill="url(#SVGID_8_)" d="M95.815,37.622c0.247,5.538-3.382,10.171-8.837,10.339c-5.467,0.185-10.015-3.794-9.856-8.938
				c0.181-5.188,4.655-9.908,9.744-10.475C91.891,28.026,95.615,32.095,95.815,37.622z"/>
			
				<linearGradient id="SVGID_9_" gradientUnits="userSpaceOnUse" x1="-1354.7075" y1="203.9619" x2="-1356.481" y2="202.72" gradientTransform="matrix(26.0873 4.000000e-04 0 26.0856 35409.8828 -5268.8984)">
				<stop  offset="0" style="stop-color:#DEDEDE"/>
				<stop  offset="1" style="stop-color:#FEFEFE"/>
			</linearGradient>
			<path fill="url(#SVGID_9_)" d="M75.073,35.515c0.105,4.412-1.485,8.697-3.75,12.518c-1.175,1.822-2.591,3.488-4.212,4.96
				c-1.624,1.464-3.448,2.731-5.436,3.767c-8.57,4.443-18.414,6.349-27.784,3.492c-2.934-0.875-5.515-2.425-7.536-4.482
				c-2.021-2.057-3.485-4.623-4.213-7.559c-0.346-2.176-0.618-4.449-0.784-6.771c-0.169-2.322-0.229-4.691-0.151-7.059
				C21.191,21.032,28.021,2.614,43.74,3.728c2.304,0.132,4.568,0.55,6.768,1.207c2.2,0.656,4.328,1.559,6.37,2.665
				c8.137,4.542,14.964,11.688,17.643,20.776C75.033,30.671,75.225,33.065,75.073,35.515z"/>
			
				<linearGradient id="SVGID_10_" gradientUnits="userSpaceOnUse" x1="-1465.1948" y1="215.1211" x2="-1467.0907" y2="213.7936" gradientTransform="matrix(7.0558 1.000000e-04 0 7.0552 10392.8145 -1477.6125)">
				<stop  offset="0" style="stop-color:#181500"/>
				<stop  offset="1" style="stop-color:#5F5D5C"/>
			</linearGradient>
			<path fill="url(#SVGID_10_)" d="M55.763,35.786c0.203,2.864-1.381,5.248-3.769,6.52c-2.695,1.271-6.188,1.271-8.569-0.953
				c-1.591-1.666-2.623-3.968-2.817-6.305c-0.201-2.334,0.434-4.707,2.213-6.448c2.925-3.003,7.727-1.827,10.338,1.312
				C54.699,31.533,55.692,33.628,55.763,35.786z"/>
			
				<linearGradient id="SVGID_11_" gradientUnits="userSpaceOnUse" x1="-1440.4102" y1="-252.1763" x2="-1442.1788" y2="-253.4147" gradientTransform="matrix(3.3922 1.000000e-04 0 3.3913 4975.1592 893.8416)">
				<stop  offset="0" style="stop-color:#DEDEDE"/>
				<stop  offset="1" style="stop-color:#FEFEFE"/>
			</linearGradient>
			<path fill="url(#SVGID_11_)" d="M89.56,36.11c0.099,2.201-1.345,4.037-3.516,4.111c-2.17,0.069-3.974-1.511-3.919-3.559
				c0.077-2.059,1.854-3.932,3.875-4.158C87.998,32.298,89.479,33.91,89.56,36.11z"/>
			
				<linearGradient id="SVGID_12_" gradientUnits="userSpaceOnUse" x1="-1907.1318" y1="104.7559" x2="-1909.0277" y2="103.4283" gradientTransform="matrix(2.8049 1.000000e-04 0 2.8042 5398.0659 -259.2128)">
				<stop  offset="0" style="stop-color:#DEDEDE"/>
				<stop  offset="1" style="stop-color:#FEFEFE"/>
			</linearGradient>
			<path fill="url(#SVGID_12_)" d="M49.204,32.709c0.079,1.142-0.549,2.087-1.501,2.591c-1.068,0.506-2.459,0.506-3.406-0.379
				c-0.631-0.661-1.039-1.577-1.12-2.506c-0.077-0.926,0.177-1.871,0.882-2.564c1.16-1.192,3.074-0.729,4.11,0.524
				C48.784,31.017,49.175,31.847,49.204,32.709z"/>
		</g>
		<g>
			<g>
				
					<linearGradient id="SVGID_13_" gradientUnits="userSpaceOnUse" x1="-324.2202" y1="-424.2305" x2="-324.2202" y2="-470.9766" gradientTransform="matrix(1 0 0 -1 370.0342 -413.7783)">
					<stop  offset="0" style="stop-color:#E20A16"/>
					<stop  offset="1" style="stop-color:#B51015"/>
				</linearGradient>
				<path fill="url(#SVGID_13_)" d="M60.354,41.745c1.049-2.051,1.653-4.367,1.653-6.83c0-8.29-6.723-15.012-15.015-15.012
					c-3.038,0-5.86,0.908-8.224,2.459l-13.261-11.91c0,0-1.436,1.865-2.528,4.387c-0.704,1.629-1.232,3.977-1.232,3.977
					l11.407,10.262c-0.76,1.795-1.179,3.767-1.179,5.838c0,8.297,6.725,15.018,15.017,15.018c2.635,0,5.108-0.684,7.262-1.875
					l10.162,9.141c0,0,2.345-0.77,3.865-2.627c1.302-1.76,1.599-4.348,1.599-4.348L60.354,41.745z"/>
			</g>
		</g>
	</g>
</g>
</svg>
