<?xml version="1.0" encoding="utf-8"?>
<!-- Generator: Adobe Illustrator 13.0.0, SVG Export Plug-In . SVG Version: 6.00 Build 14948)  -->
<!DOCTYPE svg PUBLIC "-//W3C//DTD SVG 1.1//EN" "http://www.w3.org/Graphics/SVG/1.1/DTD/svg11.dtd">
<svg version="1.1" id="Layer_1" xmlns="http://www.w3.org/2000/svg" xmlns:xlink="http://www.w3.org/1999/xlink" x="0px" y="0px"
	 width="128px" height="128px" viewBox="0 0 128 128" enable-background="new 0 0 128 128" xml:space="preserve">
<g>
	<g>
		<linearGradient id="SVGID_1_" gradientUnits="userSpaceOnUse" x1="63.9995" y1="2.0586" x2="63.9995" y2="125.9429">
			<stop  offset="0" style="stop-color:#5F5D5C"/>
			<stop  offset="1" style="stop-color:#181500"/>
		</linearGradient>
		<path fill="url(#SVGID_1_)" d="M105.715,34.371c-8.893-10.215-20.725-16.383-33.14-18.329c0.001-3.761,0.002-6.655,0.003-7.245
			c0-1.822-0.673-3.434-1.954-4.785c-1.343-1.281-2.96-1.953-4.784-1.953c-1.884-0.002-3.435,0.674-4.782,1.955L46.432,18.703
			c-1.349,1.279-2.021,2.893-2.021,4.783c-0.002,1.82,0.674,3.436,2.017,4.723l14.614,14.695c1.349,1.277,2.897,1.951,4.784,1.951
			c1.823,0.002,3.438-0.67,4.784-1.955c1.282-1.342,1.958-2.963,1.955-4.783c0.001-0.578,0.003-3.382,0.004-7.042
			c8.258,1.778,16.029,6.122,22.002,12.989c14.652,16.906,12.873,42.449-3.979,57.164c-16.905,14.65-42.448,12.875-57.163-3.979
			c-9.32-10.715-11.997-24.896-8.416-37.629l-0.004,0.002c1.111-3.928-1.18-8.004-5.104-9.111c-3.923-1.105-8.002,1.178-9.111,5.102
			c-4.889,17.314-1.202,36.732,11.493,51.33c20.046,23.035,54.957,25.461,77.996,5.428
			C123.321,92.322,125.751,57.416,105.715,34.371z"/>
		
			<linearGradient id="SVGID_2_" gradientUnits="userSpaceOnUse" x1="-1977.0508" y1="-880.8335" x2="-1956.9927" y2="-875.8395" gradientTransform="matrix(-0.6563 -0.7545 -0.7545 0.6563 -1889.6737 -837.1184)">
			<stop  offset="0" style="stop-color:#EC008C"/>
			<stop  offset="1" style="stop-color:#C40075"/>
		</linearGradient>
		<circle fill="url(#SVGID_2_)" cx="63.989" cy="70.549" r="10.333"/>
	</g>
	<path opacity="0.5" fill="#FFFFFF" d="M48.311,21.081c-0.352,0.344-0.328,0.937,0.051,1.323l0,0
		c0.379,0.39,0.973,0.426,1.324,0.083L66.209,6.333c0.35-0.344,0.328-0.938-0.053-1.326l0,0c-0.379-0.388-0.973-0.425-1.322-0.081
		L48.311,21.081z"/>
</g>
</svg>
