<?xml version="1.0" encoding="utf-8"?>
<!-- Generator: Adobe Illustrator 13.0.0, SVG Export Plug-In . SVG Version: 6.00 Build 14948)  -->
<!DOCTYPE svg PUBLIC "-//W3C//DTD SVG 1.1//EN" "http://www.w3.org/Graphics/SVG/1.1/DTD/svg11.dtd">
<svg version="1.1" id="Layer_1" xmlns="http://www.w3.org/2000/svg" xmlns:xlink="http://www.w3.org/1999/xlink" x="0px" y="0px"
	 width="38.743px" height="38.742px" viewBox="0 0 38.743 38.742" enable-background="new 0 0 38.743 38.742" xml:space="preserve">
<g>
	<g>
		<g>
			
				<linearGradient id="SVGID_1_" gradientUnits="userSpaceOnUse" x1="5838.1821" y1="-1934.314" x2="5840.0444" y2="-1930.6278" gradientTransform="matrix(2.9019 1.7292 -1.466 2.4603 -19758.2207 -5336.4141)">
				<stop  offset="0" style="stop-color:#5F5D5C"/>
				<stop  offset="1" style="stop-color:#181500"/>
			</linearGradient>
			<path fill="url(#SVGID_1_)" d="M23.469,11.581h-8.074c-0.734,0-1.35-0.639-1.045-1.344c0.938-2.189,3.254-8.049,4.104-9.885
				c0.323-0.695,1.343-0.697,1.583,0l4.232,9.885C24.487,10.87,24.129,11.581,23.469,11.581z"/>
			
				<linearGradient id="SVGID_2_" gradientUnits="userSpaceOnUse" x1="9732.9062" y1="-1446.5322" x2="9731.0439" y2="-1450.2192" gradientTransform="matrix(-2.9019 -1.7292 1.466 -2.4603 30383.8457 13297.0879)">
				<stop  offset="0" style="stop-color:#5F5D5C"/>
				<stop  offset="1" style="stop-color:#181500"/>
			</linearGradient>
			<path fill="url(#SVGID_2_)" d="M15.133,26.318h8.075c0.734,0,1.349,0.639,1.046,1.347c-0.939,2.188-3.256,8.05-4.104,9.884
				c-0.323,0.696-1.345,0.698-1.583,0l-4.233-9.884C14.116,27.031,14.473,26.318,15.133,26.318z"/>
		</g>
		<g>
			
				<linearGradient id="SVGID_3_" gradientUnits="userSpaceOnUse" x1="7963.4692" y1="-3973.2817" x2="7960.9014" y2="-3971.4819" gradientTransform="matrix(1.7258 -2.9035 2.4621 1.4668 -3954.6787 28964.5781)">
				<stop  offset="0" style="stop-color:#5F5D5C"/>
				<stop  offset="1" style="stop-color:#181500"/>
			</linearGradient>
			<path fill="url(#SVGID_3_)" d="M11.928,14.78l0.008,8.079c0,0.734-0.637,1.351-1.344,1.046c-2.189-0.938-8.053-3.259-9.889-4.106
				c-0.697-0.322-0.699-1.345-0.001-1.585l9.879-4.234C11.215,13.763,11.926,14.12,11.928,14.78z"/>
			
				<linearGradient id="SVGID_4_" gradientUnits="userSpaceOnUse" x1="7607.1079" y1="592.626" x2="7609.6748" y2="590.8267" gradientTransform="matrix(-1.7258 2.9035 -2.4621 -1.4668 14620 -21204.7891)">
				<stop  offset="0" style="stop-color:#5F5D5C"/>
				<stop  offset="1" style="stop-color:#181500"/>
			</linearGradient>
			<path fill="url(#SVGID_4_)" d="M26.676,23.12l-0.011-8.077c-0.001-0.737,0.638-1.353,1.345-1.047
				c2.189,0.938,8.053,3.256,9.89,4.106c0.696,0.322,0.698,1.345,0.002,1.583l-9.88,4.235C27.387,24.139,26.676,23.78,26.676,23.12z
				"/>
		</g>
	</g>
	
		<linearGradient id="SVGID_5_" gradientUnits="userSpaceOnUse" x1="403.4155" y1="-482.8955" x2="400.3907" y2="-476.1685" gradientTransform="matrix(1.1554 1.183512e-05 0 -1.1554 -445.0565 -535.1046)">
		<stop  offset="0" style="stop-color:#FF1F00"/>
		<stop  offset="1" style="stop-color:#FF9D00"/>
	</linearGradient>
	<circle fill="url(#SVGID_5_)" stroke="#ED1F00" stroke-width="0.5" cx="19.301" cy="18.951" r="4.26"/>
</g>
</svg>
