<?xml version="1.0" encoding="utf-8"?>
<!-- Generator: Adobe Illustrator 13.0.0, SVG Export Plug-In . SVG Version: 6.00 Build 14948)  -->
<!DOCTYPE svg PUBLIC "-//W3C//DTD SVG 1.1//EN" "http://www.w3.org/Graphics/SVG/1.1/DTD/svg11.dtd">
<svg version="1.1" id="Layer_1" xmlns="http://www.w3.org/2000/svg" xmlns:xlink="http://www.w3.org/1999/xlink" x="0px" y="0px"
	 width="128px" height="128px" viewBox="0 0 128 128" enable-background="new 0 0 128 128" xml:space="preserve">
<g>
	<g>
		<path fill="#F2F2F2" d="M5.989,67.436c1.278-0.795,2.783-1.258,4.396-1.258H64.58c1.596,0,3.087,0.452,4.355,1.229l0.643-0.579
			c-1.442-0.938-3.154-1.488-4.998-1.488H10.387c-1.838,0-3.544,0.548-4.98,1.478L5.989,67.436z"/>
		
			<radialGradient id="SVGID_1_" cx="-251.8467" cy="61.208" r="31.4116" gradientTransform="matrix(1 0 0 -1 289.2754 151.834)" gradientUnits="userSpaceOnUse">
			<stop  offset="0" style="stop-color:#FAFAFA"/>
			<stop  offset="0.3629" style="stop-color:#E5E5E5"/>
			<stop  offset="1" style="stop-color:#C4C4C4"/>
		</radialGradient>
		<path fill="url(#SVGID_1_)" stroke="#808080" d="M30.125,112.878L4.578,75.105c-3.951-6.523-2.24-11.862,3.801-11.862h58.357
			c6.041,0,7.488,4.989,3.217,11.086l-24.88,39.325C40.803,119.752,34.075,119.402,30.125,112.878L30.125,112.878z"/>
		
			<radialGradient id="SVGID_2_" cx="-251.1665" cy="117.4668" r="24.3655" gradientTransform="matrix(1 0 0 -1 289.2754 151.834)" gradientUnits="userSpaceOnUse">
			<stop  offset="0" style="stop-color:#FAFAFA"/>
			<stop  offset="0.4142" style="stop-color:#E3E3E3"/>
			<stop  offset="1" style="stop-color:#C7C7C7"/>
		</radialGradient>
		<path fill="url(#SVGID_2_)" stroke="#808080" d="M13.752,34.368c0-13.463,10.905-24.375,24.358-24.375
			c13.451,0,24.356,10.912,24.356,24.375c0,13.461-10.905,24.373-24.356,24.373C24.657,58.741,13.752,47.829,13.752,34.368
			L13.752,34.368z"/>
		
			<linearGradient id="SVGID_3_" gradientUnits="userSpaceOnUse" x1="-240.1631" y1="129.8604" x2="-240.1631" y2="117.1572" gradientTransform="matrix(1 0 0 -1 289.2754 151.834)">
			<stop  offset="0" style="stop-color:#80C11B"/>
			<stop  offset="1" style="stop-color:#80E21B"/>
		</linearGradient>
		<path fill="url(#SVGID_3_)" d="M42.765,28.325c0-3.507,2.841-6.351,6.348-6.351c3.504,0,6.346,2.844,6.346,6.351
			c0,3.51-2.842,6.352-6.346,6.352C45.605,34.677,42.765,31.835,42.765,28.325L42.765,28.325z"/>
		<path opacity="0.5" fill="#FFFFFF" d="M49.104,28.177c1.748,1.46,4.112,0.658,5.585-0.105c-0.218-2.938-2.667-5.256-5.659-5.256
			c-3.005,0-5.463,2.336-5.66,5.291C44.73,27.438,47.223,26.603,49.104,28.177z"/>
		<path fill="#F2F2F2" d="M20.424,21.745c4.067-5.584,11.546-9.862,18.537-9.862c6.99,0,14.277,4.278,18.344,9.862h0.773
			c-4.311-6.572-11.307-10.873-19.213-10.873c-7.908,0-14.905,4.301-19.215,10.873H20.424z"/>
		
			<linearGradient id="SVGID_4_" gradientUnits="userSpaceOnUse" x1="-251.0347" y1="97.7627" x2="-251.0347" y2="108.6328" gradientTransform="matrix(1 0 0 -1 289.2754 151.834)">
			<stop  offset="0" style="stop-color:#00B2DE"/>
			<stop  offset="1" style="stop-color:#99DBF6"/>
		</linearGradient>
		<path fill="url(#SVGID_4_)" d="M56.683,43.201c-4.068,5.584-11.547,9.86-18.538,9.86c-6.99,0-14.276-4.276-18.345-9.86h-0.773
			c4.312,6.572,11.307,10.87,19.214,10.87c7.908,0,14.904-4.298,19.214-10.87H56.683z"/>
		<g>
			
				<radialGradient id="SVGID_5_" cx="-198.7056" cy="61.21" r="31.4114" gradientTransform="matrix(1 0 0 -1 289.2754 151.834)" gradientUnits="userSpaceOnUse">
				<stop  offset="0" style="stop-color:#FAFAFA"/>
				<stop  offset="0.3629" style="stop-color:#E5E5E5"/>
				<stop  offset="1" style="stop-color:#C4C4C4"/>
			</radialGradient>
			<path fill="url(#SVGID_5_)" stroke="#808080" d="M97.874,68.371l25.547,37.773c3.95,6.524,2.24,11.862-3.802,11.862H61.262
				c-6.039,0-7.488-4.989-3.217-11.088l24.88-39.323C87.195,61.498,93.923,61.848,97.874,68.371L97.874,68.371z"/>
			
				<radialGradient id="SVGID_6_" cx="-198.7075" cy="117.4668" r="24.3655" gradientTransform="matrix(1 0 0 -1 289.2754 151.834)" gradientUnits="userSpaceOnUse">
				<stop  offset="0" style="stop-color:#FAFAFA"/>
				<stop  offset="0.4142" style="stop-color:#E3E3E3"/>
				<stop  offset="1" style="stop-color:#C7C7C7"/>
			</radialGradient>
			<path fill="url(#SVGID_6_)" stroke="#808080" d="M66.211,34.368c0-13.463,10.906-24.375,24.357-24.375
				s24.356,10.912,24.356,24.375c0,13.461-10.905,24.373-24.356,24.373S66.211,47.829,66.211,34.368L66.211,34.368z"/>
			
				<linearGradient id="SVGID_7_" gradientUnits="userSpaceOnUse" x1="-207.938" y1="129.8604" x2="-207.938" y2="117.1572" gradientTransform="matrix(1 0 0 -1 289.2754 151.834)">
				<stop  offset="0" style="stop-color:#EC008C"/>
				<stop  offset="1" style="stop-color:#C40075"/>
			</linearGradient>
			<path fill="url(#SVGID_7_)" d="M74.99,28.325c0-3.507,2.843-6.351,6.348-6.351s6.348,2.844,6.348,6.351
				c0,3.51-2.843,6.352-6.348,6.352S74.99,31.835,74.99,28.325L74.99,28.325z"/>
			<path fill="#EC8690" d="M81.132,28.177c1.749,1.46,4.112,0.658,5.585-0.105c-0.218-2.938-2.667-5.256-5.658-5.256
				c-3.006,0-5.463,2.336-5.66,5.291C76.76,27.438,79.252,26.603,81.132,28.177z"/>
			<path fill="#F2F2F2" d="M72.127,21.745c4.068-5.584,11.547-9.862,18.537-9.862s14.277,4.278,18.345,9.862h0.773
				c-4.312-6.572-11.308-10.873-19.214-10.873c-7.907,0-14.903,4.301-19.215,10.873H72.127z"/>
			
				<linearGradient id="SVGID_8_" gradientUnits="userSpaceOnUse" x1="-217.9199" y1="103.1982" x2="-179.4922" y2="103.1982" gradientTransform="matrix(1 0 0 -1 289.2754 151.834)">
				<stop  offset="0" style="stop-color:#EC008C"/>
				<stop  offset="1" style="stop-color:#C40075"/>
			</linearGradient>
			<path fill="url(#SVGID_8_)" d="M109.01,43.201c-4.068,5.584-11.546,9.86-18.537,9.86c-6.99,0-14.277-4.276-18.345-9.86h-0.772
				c4.311,6.572,11.307,10.87,19.213,10.87c7.908,0,14.904-4.298,19.215-10.87H109.01z"/>
			<path opacity="0.5" fill="#FFFFFF" enable-background="new    " d="M70.389,113.977c0-18.521,14.197-33.717,32.303-35.315
				l-5.461-8.074c-3.69-6.095-9.978-6.422-13.969-0.722l-23.246,36.742c-3.991,5.695-2.639,10.358,3.006,10.358h7.501
				C70.439,115.979,70.389,114.984,70.389,113.977z"/>
		</g>
		<path fill="#BFBFBF" d="M69.219,69.729c-0.02,1.277-0.377,2.566-1.119,3.722l-24.857,38.739c-0.73,1.142-1.738,2-2.877,2.551
			l0.121,0.727c1.33-0.601,2.51-1.572,3.355-2.891L68.7,73.835c0.842-1.312,1.233-2.785,1.229-4.239L69.219,69.729z"/>
		<path opacity="0.5" fill="#FFFFFF" enable-background="new    " d="M10.821,82.086c7.245-5.721,16.386-9.143,26.332-9.143
			c9.8,0,18.815,3.322,26.007,8.889l4.379-6.917c3.99-5.696,2.636-10.356-3.006-10.356h-54.52c-5.645,0-7.242,4.986-3.551,11.08
			L10.821,82.086z"/>
	</g>
	<g>
		
			<linearGradient id="SVGID_9_" gradientUnits="userSpaceOnUse" x1="-225.3188" y1="91.1758" x2="-225.3188" y2="39.2832" gradientTransform="matrix(1 0 0 -1 289.2754 151.834)">
			<stop  offset="0" style="stop-color:#80E21B"/>
			<stop  offset="1" style="stop-color:#80B400"/>
		</linearGradient>
		<path fill="url(#SVGID_9_)" stroke="#70993E" d="M83.146,68.656v35.896c0,4.418-3.584,7.998-8.004,7.998H52.771
			c-4.422,0-8.004-3.58-8.004-7.998V68.656c0-4.417,3.582-7.997,8.004-7.997h22.372C79.562,60.659,83.146,64.24,83.146,68.656
			L83.146,68.656z"/>
		<path opacity="0.5" fill="#FFFFFF" enable-background="new    " d="M74.354,62.476H53.529c-4.117,0-7.451,3.333-7.451,7.444v2.064
			c0-4.111,3.334-7.444,7.451-7.444h20.825c4.114,0,7.451,3.333,7.451,7.444V69.92C81.805,65.809,78.469,62.476,74.354,62.476z"/>
		<path fill="#70993E" d="M75.227,111.553H52.855c-4.422,0-8.004-3.58-8.004-7.998v1c0,4.416,3.582,7.998,8.004,7.998h22.372
			c4.42,0,8.004-3.582,8.004-7.998v-1C83.23,107.973,79.646,111.553,75.227,111.553z"/>
		<g>
			
				<radialGradient id="SVGID_10_" cx="-637.8965" cy="-746.5874" r="5.7019" gradientTransform="matrix(1 0 0 -1 701.8955 -662.1562)" gradientUnits="userSpaceOnUse">
				<stop  offset="0" style="stop-color:#FAFAFA"/>
				<stop  offset="0.3109" style="stop-color:#F4F4F4"/>
				<stop  offset="0.7262" style="stop-color:#E3E3E3"/>
				<stop  offset="1" style="stop-color:#D4D4D4"/>
			</radialGradient>
			<path fill="url(#SVGID_10_)" d="M71.598,84.43c0,1.493-1.207,2.7-2.697,2.7h-9.8c-1.49,0-2.699-1.207-2.699-2.7l0,0
				c0-1.488,1.209-2.697,2.699-2.697h9.8C70.391,81.732,71.598,82.939,71.598,84.43L71.598,84.43z"/>
			
				<radialGradient id="SVGID_11_" cx="556.8418" cy="-1176.4756" r="2.515" gradientTransform="matrix(2.267 0 0 -2.2669 -1198.3629 -2591.2319)" gradientUnits="userSpaceOnUse">
				<stop  offset="0" style="stop-color:#FAFAFA"/>
				<stop  offset="0.3109" style="stop-color:#F4F4F4"/>
				<stop  offset="0.7262" style="stop-color:#E3E3E3"/>
				<stop  offset="1" style="stop-color:#D4D4D4"/>
			</radialGradient>
			<path fill="url(#SVGID_11_)" d="M71.598,75.719c0,1.49-1.207,2.699-2.699,2.699h-9.8c-1.488,0-2.697-1.209-2.697-2.699l0,0
				c0-1.488,1.209-2.697,2.697-2.697h9.8C70.391,73.021,71.598,74.229,71.598,75.719L71.598,75.719z"/>
			
				<radialGradient id="SVGID_12_" cx="556.8418" cy="-1184.1602" r="2.5148" gradientTransform="matrix(2.267 0 0 -2.2669 -1198.3629 -2591.2319)" gradientUnits="userSpaceOnUse">
				<stop  offset="0" style="stop-color:#FAFAFA"/>
				<stop  offset="0.3109" style="stop-color:#F4F4F4"/>
				<stop  offset="0.7262" style="stop-color:#E3E3E3"/>
				<stop  offset="1" style="stop-color:#D4D4D4"/>
			</radialGradient>
			<path fill="url(#SVGID_12_)" d="M71.598,93.141c0,1.491-1.207,2.698-2.697,2.698h-9.8c-1.49,0-2.699-1.207-2.699-2.698l0,0
				c0-1.49,1.209-2.697,2.699-2.697h9.8C70.391,90.441,71.598,91.65,71.598,93.141L71.598,93.141z"/>
			
				<radialGradient id="SVGID_13_" cx="556.8418" cy="-1188.0029" r="2.5151" gradientTransform="matrix(2.267 0 0 -2.2669 -1198.3629 -2591.2319)" gradientUnits="userSpaceOnUse">
				<stop  offset="0" style="stop-color:#FAFAFA"/>
				<stop  offset="0.3109" style="stop-color:#F4F4F4"/>
				<stop  offset="0.7262" style="stop-color:#E3E3E3"/>
				<stop  offset="1" style="stop-color:#D4D4D4"/>
			</radialGradient>
			<path fill="url(#SVGID_13_)" d="M71.598,101.852c0,1.49-1.207,2.699-2.697,2.699h-9.8c-1.49,0-2.699-1.209-2.699-2.699l0,0
				c0-1.49,1.209-2.699,2.699-2.699h9.8C70.391,99.152,71.598,100.361,71.598,101.852L71.598,101.852z"/>
		</g>
	</g>
</g>
</svg>
