<?xml version="1.0" encoding="utf-8"?>
<!-- Generator: Adobe Illustrator 13.0.0, SVG Export Plug-In . SVG Version: 6.00 Build 14948)  -->
<!DOCTYPE svg PUBLIC "-//W3C//DTD SVG 1.1//EN" "http://www.w3.org/Graphics/SVG/1.1/DTD/svg11.dtd">
<svg version="1.1" id="Layer_1" xmlns="http://www.w3.org/2000/svg" xmlns:xlink="http://www.w3.org/1999/xlink" x="0px" y="0px"
	 width="128px" height="128px" viewBox="0 0 128 128" enable-background="new 0 0 128 128" xml:space="preserve">
<g>
	<g>
		<g>
			<g>
				<g>
					
						<linearGradient id="SVGID_1_" gradientUnits="userSpaceOnUse" x1="-235.6719" y1="88.7129" x2="-235.6719" y2="43.9434" gradientTransform="matrix(1 0 0 -1 289.2754 151.834)">
						<stop  offset="0" style="stop-color:#D5D7D8"/>
						<stop  offset="1" style="stop-color:#5C5F61"/>
					</linearGradient>
					<path fill="url(#SVGID_1_)" d="M91.616,73.402c-8.044-6.184-22.058-10.281-38.012-10.281c-15.954,0-29.969,4.098-38.013,10.281
						H8.405v12.613h0.026c0.55,12.127,20.558,21.875,45.173,21.875c24.696,0,44.755-9.812,45.179-21.994h0.02V73.402H91.616z"/>
				</g>
				<g>
					<path fill="none" stroke="#4D4D4D" stroke-width="2" d="M91.616,73.402c-8.044-6.184-22.058-10.281-38.012-10.281
						c-15.954,0-29.969,4.098-38.013,10.281H8.405v12.613h0.026c0.55,12.127,20.558,21.875,45.173,21.875
						c24.696,0,44.755-9.812,45.179-21.994h0.02V73.402H91.616z"/>
				</g>
			</g>
			<g>
				<g>
					
						<linearGradient id="SVGID_2_" gradientUnits="userSpaceOnUse" x1="-235.6719" y1="100.2666" x2="-235.6719" y2="55.4961" gradientTransform="matrix(1 0 0 -1 289.2754 151.834)">
						<stop  offset="0" style="stop-color:#D5D7D8"/>
						<stop  offset="1" style="stop-color:#5C5F61"/>
					</linearGradient>
					<path fill="url(#SVGID_2_)" d="M91.613,61.847c-8.045-6.182-22.059-10.279-38.009-10.279c-15.952,0-29.965,4.097-38.01,10.279
						H8.405v12.616h0.026C8.98,86.59,28.988,96.338,53.604,96.338c24.697,0,44.757-9.812,45.179-21.994h0.02V61.847H91.613z"/>
				</g>
				<g>
					<path fill="none" stroke="#4D4D4D" stroke-width="2" d="M91.613,61.847c-8.045-6.182-22.059-10.279-38.009-10.279
						c-15.952,0-29.965,4.097-38.01,10.279H8.405v12.616h0.026C8.98,86.59,28.988,96.338,53.604,96.338
						c24.697,0,44.757-9.812,45.179-21.994h0.02V61.847H91.613z"/>
				</g>
			</g>
			<g>
				<g>
					
						<linearGradient id="SVGID_3_" gradientUnits="userSpaceOnUse" x1="-235.6719" y1="111.8193" x2="-235.6719" y2="67.0508" gradientTransform="matrix(1 0 0 -1 289.2754 151.834)">
						<stop  offset="0" style="stop-color:#D5D7D8"/>
						<stop  offset="1" style="stop-color:#5C5F61"/>
					</linearGradient>
					<path fill="url(#SVGID_3_)" d="M91.615,50.295c-8.045-6.183-22.059-10.28-38.011-10.28c-15.953,0-29.968,4.098-38.012,10.28
						H8.405v12.613h0.026c0.548,12.126,20.557,21.875,45.173,21.875c24.695,0,44.755-9.812,45.179-21.992h0.02V50.295H91.615z"/>
				</g>
				<g>
					<path fill="none" stroke="#4D4D4D" stroke-width="2" d="M91.615,50.295c-8.045-6.183-22.059-10.28-38.011-10.28
						c-15.953,0-29.968,4.098-38.012,10.28H8.405v12.613h0.026c0.548,12.126,20.557,21.875,45.173,21.875
						c24.695,0,44.755-9.812,45.179-21.992h0.02V50.295H91.615z"/>
				</g>
			</g>
			
				<linearGradient id="SVGID_4_" gradientUnits="userSpaceOnUse" x1="-235.6719" y1="124.6494" x2="-235.6719" y2="79.877" gradientTransform="matrix(1 0 0 -1 289.2754 151.834)">
				<stop  offset="0" style="stop-color:#D5D7D8"/>
				<stop  offset="1" style="stop-color:#5C5F61"/>
			</linearGradient>
			<ellipse fill="url(#SVGID_4_)" stroke="#4D4D4D" stroke-width="2" cx="53.604" cy="49.571" rx="45.199" ry="22.386"/>
			
				<linearGradient id="SVGID_5_" gradientUnits="userSpaceOnUse" x1="-235.6772" y1="123.1621" x2="-235.6772" y2="102.6787" gradientTransform="matrix(1 0 0 -1 289.2754 151.834)">
				<stop  offset="0" style="stop-color:#999999"/>
				<stop  offset="1" style="stop-color:#CCCCCC"/>
			</linearGradient>
			<path fill="url(#SVGID_5_)" d="M56.274,45.935c12.582,5.032,28.666,3.296,40.71,0.672c-3.601-10.188-21.539-17.934-43.141-17.934
				c-22.899,0-41.688,8.707-43.632,19.798C21.633,44.558,41.028,39.837,56.274,45.935z"/>
		</g>
	</g>
	<g>
		
			<linearGradient id="SVGID_6_" gradientUnits="userSpaceOnUse" x1="2040.4424" y1="-6063.8179" x2="2040.4424" y2="-6010.8179" gradientTransform="matrix(-1 0 0 1 2138.8906 6083.9268)">
			<stop  offset="0" style="stop-color:#99DBF6"/>
			<stop  offset="1" style="stop-color:#00B2DE"/>
		</linearGradient>
		<path fill="url(#SVGID_6_)" stroke="#FFFFFF" stroke-miterlimit="3.8637" d="M79.229,36.565c-1.268,1.332-1.932,2.866-1.932,4.733
			c0,1.797,0.668,3.397,1.932,4.73c1.332,1.264,2.933,1.931,4.728,1.931c1.867,0.004,3.467-0.666,4.731-1.931l3.064-3.133
			l0.002,23.552c0.066,1.863,0.666,3.463,1.998,4.73c1.266,1.332,2.865,1.932,4.666,1.932c1.865,0,3.461-0.6,4.727-1.932
			c1.332-1.267,2.002-2.865,2.002-4.73l-0.002-23.551l3.062,3.133c1.332,1.266,2.863,1.934,4.73,1.934
			c1.801,0,3.397-0.668,4.729-1.933c1.266-1.332,1.934-2.931,1.934-4.73c0-1.866-0.668-3.399-1.934-4.732l-14.523-14.461
			c-1.27-1.332-2.865-1.998-4.729-1.998c-1.801,0-3.396,0.664-4.666,1.996L79.229,36.565z"/>
		<g>
			<path opacity="0.8" fill="#FFFFFF" enable-background="new    " d="M80.559,37.857l13.515-13.459
				c1.182-1.239,2.67-1.855,4.342-1.855c1.735,0,3.224,0.62,4.401,1.859l13.521,13.461c1.041,1.092,1.476,0.504,0-1.184
				l-13.521-13.461c-1.18-1.24-2.666-1.859-4.401-1.859c-1.672,0-3.16,0.618-4.342,1.857L80.559,36.675
				C78.887,38.333,79.518,38.952,80.559,37.857z"/>
		</g>
	</g>
</g>
</svg>
