<?xml version="1.0" encoding="utf-8"?>
<!-- Generator: Adobe Illustrator 13.0.0, SVG Export Plug-In . SVG Version: 6.00 Build 14948)  -->
<!DOCTYPE svg PUBLIC "-//W3C//DTD SVG 1.1//EN" "http://www.w3.org/Graphics/SVG/1.1/DTD/svg11.dtd">
<svg version="1.1" id="Layer_1" xmlns="http://www.w3.org/2000/svg" xmlns:xlink="http://www.w3.org/1999/xlink" x="0px" y="0px"
	 width="128px" height="128px" viewBox="0 0 128 128" enable-background="new 0 0 128 128" xml:space="preserve">
<g>
	<g>
		<g>
			<g>
				<g>
					
						<linearGradient id="SVGID_1_" gradientUnits="userSpaceOnUse" x1="-235.6699" y1="88.7129" x2="-235.6699" y2="43.9434" gradientTransform="matrix(1 0 0 -1 289.2754 151.834)">
						<stop  offset="0" style="stop-color:#D5D7D8"/>
						<stop  offset="1" style="stop-color:#5C5F61"/>
					</linearGradient>
					<path fill="url(#SVGID_1_)" d="M91.617,73.402c-8.043-6.184-22.059-10.281-38.012-10.281c-15.955,0-29.97,4.098-38.013,10.281
						H8.406v12.613h0.026c0.55,12.127,20.557,21.875,45.173,21.875c24.695,0,44.756-9.812,45.179-21.994h0.021V73.402H91.617z"/>
				</g>
				<g>
					<path fill="none" stroke="#4D4D4D" stroke-width="2" d="M91.617,73.402c-8.043-6.184-22.059-10.281-38.012-10.281
						c-15.955,0-29.97,4.098-38.013,10.281H8.406v12.613h0.026c0.55,12.127,20.557,21.875,45.173,21.875
						c24.695,0,44.756-9.812,45.179-21.994h0.021V73.402H91.617z"/>
				</g>
			</g>
			<g>
				<g>
					
						<linearGradient id="SVGID_2_" gradientUnits="userSpaceOnUse" x1="-235.6699" y1="100.2666" x2="-235.6699" y2="55.4961" gradientTransform="matrix(1 0 0 -1 289.2754 151.834)">
						<stop  offset="0" style="stop-color:#D5D7D8"/>
						<stop  offset="1" style="stop-color:#5C5F61"/>
					</linearGradient>
					<path fill="url(#SVGID_2_)" d="M91.614,61.847c-8.046-6.182-22.058-10.279-38.009-10.279c-15.953,0-29.966,4.097-38.01,10.279
						H8.406v12.616h0.026C8.981,86.59,28.989,96.338,53.605,96.338c24.696,0,44.756-9.812,45.179-21.994h0.021V61.847H91.614z"/>
				</g>
				<g>
					<path fill="none" stroke="#4D4D4D" stroke-width="2" d="M91.614,61.847c-8.046-6.182-22.058-10.279-38.009-10.279
						c-15.953,0-29.966,4.097-38.01,10.279H8.406v12.616h0.026C8.981,86.59,28.989,96.338,53.605,96.338
						c24.696,0,44.756-9.812,45.179-21.994h0.021V61.847H91.614z"/>
				</g>
			</g>
			<g>
				<g>
					
						<linearGradient id="SVGID_3_" gradientUnits="userSpaceOnUse" x1="-235.6699" y1="111.8193" x2="-235.6699" y2="67.0508" gradientTransform="matrix(1 0 0 -1 289.2754 151.834)">
						<stop  offset="0" style="stop-color:#D5D7D8"/>
						<stop  offset="1" style="stop-color:#5C5F61"/>
					</linearGradient>
					<path fill="url(#SVGID_3_)" d="M91.616,50.295c-8.044-6.183-22.058-10.28-38.011-10.28c-15.955,0-29.968,4.098-38.012,10.28
						H8.406v12.613h0.026C8.98,75.034,28.988,84.783,53.605,84.783c24.694,0,44.754-9.812,45.178-21.992h0.021V50.295H91.616z"/>
				</g>
				<g>
					<path fill="none" stroke="#4D4D4D" stroke-width="2" d="M91.616,50.295c-8.044-6.183-22.058-10.28-38.011-10.28
						c-15.955,0-29.968,4.098-38.012,10.28H8.406v12.613h0.026C8.98,75.034,28.988,84.783,53.605,84.783
						c24.694,0,44.754-9.812,45.178-21.992h0.021V50.295H91.616z"/>
				</g>
			</g>
			
				<linearGradient id="SVGID_4_" gradientUnits="userSpaceOnUse" x1="-235.6699" y1="124.6494" x2="-235.6699" y2="79.877" gradientTransform="matrix(1 0 0 -1 289.2754 151.834)">
				<stop  offset="0" style="stop-color:#D5D7D8"/>
				<stop  offset="1" style="stop-color:#5C5F61"/>
			</linearGradient>
			<ellipse fill="url(#SVGID_4_)" stroke="#4D4D4D" stroke-width="2" cx="53.605" cy="49.571" rx="45.2" ry="22.386"/>
			
				<linearGradient id="SVGID_5_" gradientUnits="userSpaceOnUse" x1="-235.6772" y1="123.1621" x2="-235.6772" y2="102.6787" gradientTransform="matrix(1 0 0 -1 289.2754 151.834)">
				<stop  offset="0" style="stop-color:#999999"/>
				<stop  offset="1" style="stop-color:#CCCCCC"/>
			</linearGradient>
			<path fill="url(#SVGID_5_)" d="M56.275,45.935c12.581,5.032,28.665,3.296,40.709,0.672
				c-3.601-10.188-21.539-17.934-43.141-17.934c-22.898,0-41.688,8.707-43.632,19.798C21.634,44.558,41.028,39.837,56.275,45.935z"
				/>
		</g>
	</g>
	<g>
		
			<linearGradient id="SVGID_6_" gradientUnits="userSpaceOnUse" x1="-1474.7627" y1="1826.3936" x2="-1474.7627" y2="1773.3926" gradientTransform="matrix(1 0 0 -1 1573.2109 1846.5039)">
			<stop  offset="0" style="stop-color:#99DBF6"/>
			<stop  offset="1" style="stop-color:#00B2DE"/>
		</linearGradient>
		<path fill="url(#SVGID_6_)" stroke="#FFFFFF" stroke-miterlimit="3.8637" d="M117.668,56.654c1.27-1.332,1.932-2.865,1.932-4.732
			c0-1.797-0.666-3.398-1.932-4.73c-1.332-1.265-2.932-1.932-4.727-1.932c-1.866-0.003-3.465,0.666-4.731,1.932l-3.065,3.133
			l-0.002-23.552c-0.064-1.864-0.664-3.463-1.996-4.73c-1.268-1.333-2.865-1.932-4.666-1.932c-1.866,0-3.461,0.599-4.728,1.932
			c-1.333,1.266-2.002,2.864-2.002,4.729l0.002,23.552l-3.062-3.133c-1.332-1.266-2.863-1.934-4.731-1.934
			c-1.8,0-3.397,0.668-4.728,1.933c-1.268,1.332-1.935,2.93-1.935,4.73c0,1.865,0.667,3.399,1.935,4.732l14.522,14.459
			c1.269,1.334,2.865,2,4.729,2c1.8,0,3.395-0.664,4.666-1.996L117.668,56.654z"/>
		<g opacity="0.8">
			<path fill="#FFFFFF" d="M94.624,24.038c1.03-1.087,2.331-1.576,3.853-1.576c1.467,0,2.77,0.489,3.801,1.576
				c1.053,1.001,1.541,2.256,1.617,3.717h0.01v-0.581c-0.053-1.519-0.541-2.821-1.627-3.854c-1.031-1.086-2.334-1.574-3.801-1.574
				c-1.521,0-2.82,0.488-3.853,1.574c-1.085,1.03-1.631,2.333-1.631,3.853v0.716C92.996,26.371,93.539,25.068,94.624,24.038z"/>
		</g>
	</g>
</g>
</svg>
