<?xml version="1.0" encoding="utf-8"?>
<!-- Generator: Adobe Illustrator 13.0.0, SVG Export Plug-In . SVG Version: 6.00 Build 14948)  -->
<!DOCTYPE svg PUBLIC "-//W3C//DTD SVG 1.1//EN" "http://www.w3.org/Graphics/SVG/1.1/DTD/svg11.dtd">
<svg version="1.1" id="Layer_1" xmlns="http://www.w3.org/2000/svg" xmlns:xlink="http://www.w3.org/1999/xlink" x="0px" y="0px"
	 width="128px" height="128px" viewBox="0 0 128 128" enable-background="new 0 0 128 128" xml:space="preserve">
<g>
	<g>
		<path fill="#F2F2F2" stroke="#B3B3B3" stroke-width="2" d="M109.502,20.657H18.5c-9.342,0-16.914,7.572-16.914,16.91v67.379
			c0,9.342,7.572,16.914,16.914,16.914h91.002c9.34,0,16.912-7.572,16.912-16.914V37.567
			C126.414,28.229,118.842,20.657,109.502,20.657z"/>
		<linearGradient id="SVGID_1_" gradientUnits="userSpaceOnUse" x1="63.9346" y1="122.748" x2="63.9346" y2="56.2472">
			<stop  offset="0.0934" style="stop-color:#D1D1D1"/>
			<stop  offset="0.431" style="stop-color:#D9D9D9"/>
			<stop  offset="0.9519" style="stop-color:#EFEFEF"/>
			<stop  offset="0.9725" style="stop-color:#F0F0F0"/>
		</linearGradient>
		<path fill="url(#SVGID_1_)" d="M38.496,86.138c-12.658,0-24.773-1.07-35.959-3.022v22.106c0,9.189,7.447,16.639,16.637,16.639
			h89.522c9.188,0,16.637-7.449,16.637-16.639V63.711C107.314,77.172,75.166,86.138,38.496,86.138z"/>
		<path fill="#B3B3B3" d="M108.934,118.844l-89.745,0.001c-9.211,0-16.678-7.469-16.678-16.681v3.288
			c0,9.213,7.467,16.68,16.678,16.68h89.745c9.209,0,16.676-7.467,16.676-16.68v-3.288
			C125.609,111.376,118.143,118.844,108.934,118.844z"/>
		<path fill="#FFFFFF" d="M105.5,25.182H21.314c-8.643,0-15.646,7.005-15.646,15.643v4.626c0-8.64,7.004-15.645,15.646-15.645H105.5
			c8.639,0,15.645,7.005,15.645,15.645v-4.626C121.145,32.187,114.139,25.182,105.5,25.182z"/>
	</g>
	<g>
		
			<linearGradient id="SVGID_2_" gradientUnits="userSpaceOnUse" x1="-322.0063" y1="-495.9932" x2="-322.0063" y2="-498.7725" gradientTransform="matrix(1 0 0 -1 412.6577 -439.8887)">
			<stop  offset="0" style="stop-color:#EB7680"/>
			<stop  offset="1" style="stop-color:#C1282F"/>
		</linearGradient>
		<path fill="url(#SVGID_2_)" d="M72.223,56.104h36.857c1.211,0,2.189,0.623,2.189,1.391l0,0c0,0.768-0.98,1.389-2.189,1.389H72.223
			c-1.209,0-2.189-0.621-2.189-1.389l0,0C70.033,56.728,71.014,56.104,72.223,56.104L72.223,56.104z"/>
		
			<linearGradient id="SVGID_3_" gradientUnits="userSpaceOnUse" x1="-322.0063" y1="-520.0522" x2="-322.0063" y2="-522.8306" gradientTransform="matrix(1 0 0 -1 412.6577 -439.8887)">
			<stop  offset="0" style="stop-color:#EB7680"/>
			<stop  offset="1" style="stop-color:#C1282F"/>
		</linearGradient>
		<path fill="url(#SVGID_3_)" d="M72.223,80.163h36.857c1.211,0,2.189,0.622,2.189,1.39l0,0c0,0.77-0.98,1.389-2.189,1.389H72.223
			c-1.209,0-2.189-0.619-2.189-1.389l0,0C70.033,80.785,71.014,80.163,72.223,80.163L72.223,80.163z"/>
		
			<linearGradient id="SVGID_4_" gradientUnits="userSpaceOnUse" x1="-322.0063" y1="-544.1099" x2="-322.0063" y2="-546.8911" gradientTransform="matrix(1 0 0 -1 412.6577 -439.8887)">
			<stop  offset="0" style="stop-color:#EB7680"/>
			<stop  offset="1" style="stop-color:#C1282F"/>
		</linearGradient>
		<path fill="url(#SVGID_4_)" d="M72.223,104.221h36.857c1.211,0,2.189,0.623,2.189,1.393l0,0c0,0.768-0.98,1.389-2.189,1.389
			H72.223c-1.209,0-2.189-0.621-2.189-1.389l0,0C70.033,104.844,71.014,104.221,72.223,104.221L72.223,104.221z"/>
		
			<linearGradient id="SVGID_5_" gradientUnits="userSpaceOnUse" x1="-384.8208" y1="-483.3662" x2="-384.8208" y2="-500.8428" gradientTransform="matrix(1 0 0 -1 412.6577 -439.8887)">
			<stop  offset="0" style="stop-color:#EB7680"/>
			<stop  offset="1" style="stop-color:#C1282F"/>
		</linearGradient>
		<path fill="url(#SVGID_5_)" d="M34.925,43.478c0.627,0,1.143,0.482,1.189,1.1c1.607,0.281,2.828,1.685,2.828,3.373v9.578
			c0,1.892-1.531,3.426-3.424,3.426h-0.77H20.154c-1.953,0-3.424-1.473-3.424-3.286v-9.185V47.95c0-1.893,1.533-3.426,3.424-3.426
			h8.215c0.074-0.59,0.578-1.047,1.188-1.047H34.925L34.925,43.478z"/>
		
			<linearGradient id="SVGID_6_" gradientUnits="userSpaceOnUse" x1="-384.8208" y1="-507.2983" x2="-384.8208" y2="-524.7759" gradientTransform="matrix(1 0 0 -1 412.6577 -439.8887)">
			<stop  offset="0" style="stop-color:#EB7680"/>
			<stop  offset="1" style="stop-color:#C1282F"/>
		</linearGradient>
		<path fill="url(#SVGID_6_)" d="M34.925,67.409c0.627,0,1.143,0.482,1.189,1.101c1.607,0.282,2.828,1.688,2.828,3.375v9.576
			c0,1.893-1.531,3.426-3.424,3.426h-0.77H20.154c-1.953,0-3.424-1.472-3.424-3.285v-9.186v-0.531c0-1.895,1.533-3.427,3.424-3.427
			h8.215c0.074-0.592,0.578-1.049,1.188-1.049H34.925L34.925,67.409z"/>
		
			<linearGradient id="SVGID_7_" gradientUnits="userSpaceOnUse" x1="-384.8208" y1="-531.2329" x2="-384.8208" y2="-548.7114" gradientTransform="matrix(1 0 0 -1 412.6577 -439.8887)">
			<stop  offset="0" style="stop-color:#EB7680"/>
			<stop  offset="1" style="stop-color:#C1282F"/>
		</linearGradient>
		<path fill="url(#SVGID_7_)" d="M34.925,91.344c0.627,0,1.143,0.482,1.189,1.1c1.607,0.281,2.828,1.688,2.828,3.375v9.576
			c0,1.895-1.531,3.428-3.424,3.428h-0.77H20.154c-1.953,0-3.424-1.473-3.424-3.285V96.35v-0.531c0-1.893,1.533-3.428,3.424-3.428
			h8.215c0.074-0.59,0.578-1.047,1.188-1.047H34.925L34.925,91.344z"/>
		<linearGradient id="SVGID_8_" gradientUnits="userSpaceOnUse" x1="55.7222" y1="76.1348" x2="58.3667" y2="76.1348">
			<stop  offset="0" style="stop-color:#EB7680"/>
			<stop  offset="1" style="stop-color:#C1282F"/>
		</linearGradient>
		<path fill="url(#SVGID_8_)" d="M58.367,44.315v63.641c0,2.089-0.592,3.782-1.32,3.782c-0.73,0-1.324-1.693-1.324-3.782V44.315
			c0-2.09,0.594-3.783,1.324-3.783C57.775,40.532,58.367,42.226,58.367,44.315L58.367,44.315z"/>
	</g>
</g>
</svg>
