<?xml version="1.0" encoding="utf-8"?>
<!-- Generator: Adobe Illustrator 13.0.0, SVG Export Plug-In . SVG Version: 6.00 Build 14948)  -->
<!DOCTYPE svg PUBLIC "-//W3C//DTD SVG 1.1//EN" "http://www.w3.org/Graphics/SVG/1.1/DTD/svg11.dtd">
<svg version="1.1" id="Layer_1" xmlns="http://www.w3.org/2000/svg" xmlns:xlink="http://www.w3.org/1999/xlink" x="0px" y="0px"
	 width="128px" height="128px" viewBox="0 0 128 128" enable-background="new 0 0 128 128" xml:space="preserve">
<g>
	<g>
		<path fill="#F2F2F2" stroke="#B3B3B3" stroke-width="2" d="M109.502,16.905H18.5c-9.342,0-16.914,7.572-16.914,16.91v67.379
			c0,9.342,7.572,16.914,16.914,16.914h91.002c9.34,0,16.912-7.572,16.912-16.914V33.815
			C126.414,24.478,118.842,16.905,109.502,16.905z"/>
		<linearGradient id="SVGID_1_" gradientUnits="userSpaceOnUse" x1="63.9346" y1="118.9961" x2="63.9346" y2="52.4952">
			<stop  offset="0.0934" style="stop-color:#D1D1D1"/>
			<stop  offset="0.431" style="stop-color:#D9D9D9"/>
			<stop  offset="0.9519" style="stop-color:#EFEFEF"/>
			<stop  offset="0.9725" style="stop-color:#F0F0F0"/>
		</linearGradient>
		<path fill="url(#SVGID_1_)" d="M38.496,82.386c-12.658,0-24.773-1.07-35.959-3.022v22.106c0,9.189,7.447,16.639,16.637,16.639
			h89.522c9.188,0,16.637-7.449,16.637-16.639V59.959C107.314,73.42,75.166,82.386,38.496,82.386z"/>
		<path fill="#B3B3B3" d="M108.934,115.092l-89.745,0.001c-9.211,0-16.678-7.469-16.678-16.681v3.288
			c0,9.213,7.467,16.68,16.678,16.68h89.745c9.209,0,16.676-7.467,16.676-16.68v-3.288
			C125.609,107.624,118.143,115.092,108.934,115.092z"/>
		<linearGradient id="SVGID_2_" gradientUnits="userSpaceOnUse" x1="64.1587" y1="17.2617" x2="64.1587" y2="49.1583">
			<stop  offset="0" style="stop-color:#EC008C"/>
			<stop  offset="1" style="stop-color:#C4008C"/>
		</linearGradient>
		<path fill="url(#SVGID_2_)" d="M125.838,45.578V34.399c0-9.229-7.482-16.712-16.713-16.712h-89.93
			C9.962,17.688,2.48,25.171,2.48,34.4v11.178H125.838z"/>
		<path opacity="0.5" fill="#FFFFFF" d="M109.102,17.688H19.191c-9.23,0-16.711,7.481-16.711,16.707v4.94
			c0-9.227,7.48-16.708,16.711-16.708h89.911c9.227,0,16.709,7.481,16.709,16.708v-4.94
			C125.811,25.169,118.328,17.688,109.102,17.688z"/>
		<g>
			<g>
				
					<linearGradient id="SVGID_3_" gradientUnits="userSpaceOnUse" x1="-375.0532" y1="870.2734" x2="-375.0532" y2="884.1895" gradientTransform="matrix(1 0 0 1 412.6201 -813.9912)">
					<stop  offset="0" style="stop-color:#EC008C"/>
					<stop  offset="1" style="stop-color:#C4008C"/>
				</linearGradient>
				<path fill="url(#SVGID_3_)" d="M44.527,68.386c0,1.002-0.813,1.812-1.813,1.812H32.418c-1,0-1.812-0.812-1.812-1.812V58.093
					c0-1.002,0.812-1.811,1.812-1.811h10.295c1,0,1.813,0.809,1.813,1.811V68.386L44.527,68.386z"/>
				
					<linearGradient id="SVGID_4_" gradientUnits="userSpaceOnUse" x1="-357.4321" y1="870.2734" x2="-357.4321" y2="884.1895" gradientTransform="matrix(1 0 0 1 412.6201 -813.9912)">
					<stop  offset="0" style="stop-color:#EC008C"/>
					<stop  offset="1" style="stop-color:#C4008C"/>
				</linearGradient>
				<path fill="url(#SVGID_4_)" d="M62.148,68.386c0,1.002-0.812,1.812-1.813,1.812H50.042c-1.001,0-1.813-0.811-1.813-1.812V58.093
					c0-1.002,0.812-1.811,1.813-1.811h10.292c1.003,0,1.812,0.809,1.812,1.811L62.148,68.386L62.148,68.386z"/>
				
					<linearGradient id="SVGID_5_" gradientUnits="userSpaceOnUse" x1="-339.8091" y1="870.2734" x2="-339.8091" y2="884.1895" gradientTransform="matrix(1 0 0 1 412.6201 -813.9912)">
					<stop  offset="0" style="stop-color:#EC008C"/>
					<stop  offset="1" style="stop-color:#C4008C"/>
				</linearGradient>
				<path fill="url(#SVGID_5_)" d="M79.771,68.386c0,1.002-0.814,1.812-1.814,1.812H67.664c-1,0-1.812-0.811-1.812-1.812V58.093
					c0-1.002,0.812-1.811,1.812-1.811h10.295c1,0,1.812,0.809,1.812,1.811V68.386L79.771,68.386z"/>
				
					<linearGradient id="SVGID_6_" gradientUnits="userSpaceOnUse" x1="-322.188" y1="870.2734" x2="-322.188" y2="884.1895" gradientTransform="matrix(1 0 0 1 412.6201 -813.9912)">
					<stop  offset="0" style="stop-color:#EC008C"/>
					<stop  offset="1" style="stop-color:#C4008C"/>
				</linearGradient>
				<path fill="url(#SVGID_6_)" d="M97.393,68.386c0,1.002-0.812,1.812-1.812,1.812H85.285c-1,0-1.812-0.811-1.812-1.812V58.093
					c0-1.002,0.812-1.811,1.812-1.811H95.58c1,0,1.812,0.809,1.812,1.811V68.386z"/>
			</g>
			<g>
				
					<linearGradient id="SVGID_7_" gradientUnits="userSpaceOnUse" x1="-375.0532" y1="887.5371" x2="-375.0532" y2="901.457" gradientTransform="matrix(1 0 0 1 412.6201 -813.9912)">
					<stop  offset="0" style="stop-color:#EC008C"/>
					<stop  offset="1" style="stop-color:#C4008C"/>
				</linearGradient>
				<path fill="url(#SVGID_7_)" d="M44.527,85.653c0,1-0.813,1.812-1.813,1.812H32.418c-1,0-1.812-0.812-1.812-1.812V75.358
					c0-1.002,0.812-1.812,1.812-1.812h10.295c1,0,1.813,0.812,1.813,1.812V85.653L44.527,85.653z"/>
				
					<linearGradient id="SVGID_8_" gradientUnits="userSpaceOnUse" x1="-357.4321" y1="887.5371" x2="-357.4321" y2="901.457" gradientTransform="matrix(1 0 0 1 412.6201 -813.9912)">
					<stop  offset="0" style="stop-color:#EC008C"/>
					<stop  offset="1" style="stop-color:#C4008C"/>
				</linearGradient>
				<path fill="url(#SVGID_8_)" d="M62.148,85.653c0,1-0.812,1.812-1.813,1.812H50.042c-1.001,0-1.813-0.812-1.813-1.812V75.358
					c0-1.002,0.812-1.812,1.813-1.812l10.292,0.004c1.003,0,1.812,0.809,1.812,1.811L62.148,85.653L62.148,85.653z"/>
				
					<linearGradient id="SVGID_9_" gradientUnits="userSpaceOnUse" x1="-339.8091" y1="887.5391" x2="-339.8091" y2="901.457" gradientTransform="matrix(1 0 0 1 412.6201 -813.9912)">
					<stop  offset="0" style="stop-color:#EC008C"/>
					<stop  offset="1" style="stop-color:#C4008C"/>
				</linearGradient>
				<path fill="url(#SVGID_9_)" d="M79.771,85.653c0,1-0.814,1.812-1.814,1.812H67.664c-1,0-1.812-0.812-1.812-1.812V75.358
					c0-1.002,0.812-1.811,1.812-1.811h10.295c1,0,1.812,0.809,1.812,1.811V85.653L79.771,85.653z"/>
				
					<linearGradient id="SVGID_10_" gradientUnits="userSpaceOnUse" x1="-322.188" y1="887.5391" x2="-322.188" y2="901.457" gradientTransform="matrix(1 0 0 1 412.6201 -813.9912)">
					<stop  offset="0" style="stop-color:#EC008C"/>
					<stop  offset="1" style="stop-color:#C4008C"/>
				</linearGradient>
				<path fill="url(#SVGID_10_)" d="M97.393,85.653c0,1-0.812,1.812-1.812,1.812H85.285c-1,0-1.812-0.812-1.812-1.812V75.358
					c0-1.002,0.812-1.811,1.812-1.811H95.58c1,0,1.812,0.809,1.812,1.811V85.653z"/>
			</g>
			<g>
				
					<linearGradient id="SVGID_11_" gradientUnits="userSpaceOnUse" x1="-375.0532" y1="904.8027" x2="-375.0532" y2="918.7227" gradientTransform="matrix(1 0 0 1 412.6201 -813.9912)">
					<stop  offset="0" style="stop-color:#EC008C"/>
					<stop  offset="1" style="stop-color:#C4008C"/>
				</linearGradient>
				<path fill="url(#SVGID_11_)" d="M44.527,102.919c0,1-0.813,1.812-1.813,1.812H32.418c-1,0-1.812-0.812-1.812-1.812V92.624
					c0-1,0.812-1.812,1.812-1.812l10.295,0.002c1,0,1.813,0.811,1.813,1.811V102.919L44.527,102.919z"/>
				
					<linearGradient id="SVGID_12_" gradientUnits="userSpaceOnUse" x1="-357.4321" y1="904.8047" x2="-357.4321" y2="918.7227" gradientTransform="matrix(1 0 0 1 412.6201 -813.9912)">
					<stop  offset="0" style="stop-color:#EC008C"/>
					<stop  offset="1" style="stop-color:#C4008C"/>
				</linearGradient>
				<path fill="url(#SVGID_12_)" d="M62.148,102.919c0,1-0.812,1.812-1.813,1.812H50.042c-1.001,0-1.813-0.812-1.813-1.812V92.624
					c0-1,0.812-1.811,1.813-1.811h10.292c1.003,0,1.812,0.811,1.812,1.811L62.148,102.919L62.148,102.919z"/>
				
					<linearGradient id="SVGID_13_" gradientUnits="userSpaceOnUse" x1="-339.8091" y1="904.8047" x2="-339.8091" y2="918.7227" gradientTransform="matrix(1 0 0 1 412.6201 -813.9912)">
					<stop  offset="0" style="stop-color:#EC008C"/>
					<stop  offset="1" style="stop-color:#C4008C"/>
				</linearGradient>
				<path fill="url(#SVGID_13_)" d="M79.771,102.919c0,1-0.814,1.812-1.814,1.812H67.664c-1,0-1.812-0.812-1.812-1.812V92.624
					c0-1,0.812-1.811,1.812-1.811h10.295c1,0,1.812,0.811,1.812,1.811V102.919L79.771,102.919z"/>
				
					<linearGradient id="SVGID_14_" gradientUnits="userSpaceOnUse" x1="-322.188" y1="904.8047" x2="-322.188" y2="918.7227" gradientTransform="matrix(1 0 0 1 412.6201 -813.9912)">
					<stop  offset="0" style="stop-color:#EC008C"/>
					<stop  offset="1" style="stop-color:#C4008C"/>
				</linearGradient>
				<path fill="url(#SVGID_14_)" d="M97.393,102.919c0,1-0.812,1.812-1.812,1.812H85.285c-1,0-1.812-0.812-1.812-1.812V92.624
					c0-1,0.812-1.811,1.812-1.811H95.58c1,0,1.812,0.811,1.812,1.811V102.919z"/>
			</g>
		</g>
	</g>
	<g>
		<g>
			<linearGradient id="SVGID_15_" gradientUnits="userSpaceOnUse" x1="97.5439" y1="50.7031" x2="97.5439" y2="110.6675">
				<stop  offset="0" style="stop-color:#5F5D5C"/>
				<stop  offset="1" style="stop-color:#181500"/>
			</linearGradient>
			<path fill="url(#SVGID_15_)" d="M112.408,103.377c0,4.025-3.264,7.29-7.291,7.29H89.971c-4.025,0-7.291-3.265-7.291-7.29V57.994
				c0-4.027,3.266-7.291,7.291-7.291h15.146c4.027,0,7.291,3.264,7.291,7.291V103.377z"/>
			<linearGradient id="SVGID_16_" gradientUnits="userSpaceOnUse" x1="97.5439" y1="60.9082" x2="97.5439" y2="52.0527">
				<stop  offset="0" style="stop-color:#6D6F71"/>
				<stop  offset="1" style="stop-color:#939598"/>
			</linearGradient>
			<path fill="url(#SVGID_16_)" d="M103.775,52.053H91.311c-3.951,0-7.158,3.207-7.158,7.164v1.691c0-3.958,3.207-7.164,7.158-7.164
				h12.465c3.955,0,7.16,3.206,7.16,7.164v-1.691C110.936,55.26,107.73,52.053,103.775,52.053z"/>
		</g>
		<radialGradient id="SVGID_17_" cx="97.5449" cy="67.7734" r="6.7935" gradientUnits="userSpaceOnUse">
			<stop  offset="0" style="stop-color:#FAFAFA"/>
			<stop  offset="0.3109" style="stop-color:#F4F4F4"/>
			<stop  offset="0.7262" style="stop-color:#E3E3E3"/>
			<stop  offset="1" style="stop-color:#D4D4D4"/>
		</radialGradient>
		<path fill="url(#SVGID_17_)" d="M106.773,67.773c0,1.476-1.195,2.672-2.672,2.672H90.988c-1.477,0-2.672-1.196-2.672-2.672l0,0
			c0-1.475,1.195-2.671,2.672-2.671h13.113C105.578,65.103,106.773,66.299,106.773,67.773L106.773,67.773z"/>
		<radialGradient id="SVGID_18_" cx="97.5449" cy="76.9678" r="6.7933" gradientUnits="userSpaceOnUse">
			<stop  offset="0" style="stop-color:#FAFAFA"/>
			<stop  offset="0.3109" style="stop-color:#F4F4F4"/>
			<stop  offset="0.7262" style="stop-color:#E3E3E3"/>
			<stop  offset="1" style="stop-color:#D4D4D4"/>
		</radialGradient>
		<path fill="url(#SVGID_18_)" d="M106.773,76.969c0,1.475-1.195,2.67-2.672,2.67H90.988c-1.477,0-2.672-1.195-2.672-2.67l0,0
			c0-1.475,1.195-2.672,2.672-2.672h13.113C105.578,74.297,106.773,75.494,106.773,76.969L106.773,76.969z"/>
	</g>
</g>
</svg>
