<?xml version="1.0" encoding="utf-8"?>
<!-- Generator: Adobe Illustrator 13.0.0, SVG Export Plug-In . SVG Version: 6.00 Build 14948)  -->
<!DOCTYPE svg PUBLIC "-//W3C//DTD SVG 1.1//EN" "http://www.w3.org/Graphics/SVG/1.1/DTD/svg11.dtd">
<svg version="1.1" id="Layer_1" xmlns="http://www.w3.org/2000/svg" xmlns:xlink="http://www.w3.org/1999/xlink" x="0px" y="0px"
	 width="128px" height="128px" viewBox="0 0 128 128" enable-background="new 0 0 128 128" xml:space="preserve">
<g>
	<g>
		<path fill="#F2F2F2" stroke="#B3B3B3" stroke-width="2" d="M109.502,16.906H18.5c-9.342,0-16.914,7.572-16.914,16.91v67.379
			c0,9.342,7.572,16.914,16.914,16.914h91.002c9.34,0,16.912-7.572,16.912-16.914V33.816
			C126.414,24.478,118.842,16.906,109.502,16.906z"/>
		<linearGradient id="SVGID_1_" gradientUnits="userSpaceOnUse" x1="63.9351" y1="118.9971" x2="63.9351" y2="52.4957">
			<stop  offset="0.0934" style="stop-color:#D1D1D1"/>
			<stop  offset="0.431" style="stop-color:#D9D9D9"/>
			<stop  offset="0.9519" style="stop-color:#EFEFEF"/>
			<stop  offset="0.9725" style="stop-color:#F0F0F0"/>
		</linearGradient>
		<path fill="url(#SVGID_1_)" d="M38.496,82.387c-12.658,0-24.773-1.07-35.959-3.023v22.107c0,9.189,7.447,16.639,16.637,16.639
			h89.521c9.188,0,16.637-7.449,16.637-16.639V59.959C107.314,73.42,75.166,82.387,38.496,82.387z"/>
		<path fill="#B3B3B3" d="M108.934,115.092l-89.744,0.002c-9.211,0-16.678-7.469-16.678-16.682v3.289
			c0,9.213,7.467,16.68,16.678,16.68h89.744c9.209,0,16.676-7.467,16.676-16.68v-3.289
			C125.609,107.625,118.143,115.092,108.934,115.092z"/>
		<path fill="#FFFFFF" d="M105.5,21.43H21.315c-8.643,0-15.647,7.005-15.647,15.643v4.626c0-8.64,7.005-15.645,15.647-15.645H105.5
			c8.64,0,15.646,7.005,15.646,15.645v-4.626C121.146,28.435,114.14,21.43,105.5,21.43z"/>
	</g>
	<g>
		<g>
			
				<linearGradient id="SVGID_2_" gradientUnits="userSpaceOnUse" x1="-308.3701" y1="928.7217" x2="-388.8686" y2="872.3561" gradientTransform="matrix(1 0 0 1 412.6201 -813.9912)">
				<stop  offset="0" style="stop-color:#FF1F00"/>
				<stop  offset="1" style="stop-color:#FF9D00"/>
			</linearGradient>
			<path fill="url(#SVGID_2_)" d="M4.017,86.547c3.735-1.502,6.524-1.502,6.524-4.074c0-2.576,2.358-6.867,6.438-6.867
				c4.076,0,6.006-2.146,6.006-5.146c0-3.008,3.647-7.299,3.647-6.224c0,1.074,4.722,0.644,4.722-2.36
				c0-3.003,1.93-9.869,4.291-7.51c2.358,2.359,3.646-4.075,6.864-9.227c3.22-5.15,5.902-11.588,5.902-2.469
				c0,9.12,0.965,23.495,2.896,21.563c1.932-1.932,5.795-4.72,6.866,0.857c1.072,5.578,5.793,12.016,5.793,10.299
				s0.857-9.01,3.861-0.428s9.013,8.797,9.013,7.08c0-1.719,3.54-2.469,4.936-1.072c1.396,1.395,16.093,5.793,18.453,3.432
				c2.359-2.357,10.728-1.502,10.728-1.502l13.026,3.648H4.017L4.017,86.547z"/>
			
				<linearGradient id="SVGID_3_" gradientUnits="userSpaceOnUse" x1="-390.4941" y1="939.1094" x2="-306.7456" y2="880.4681" gradientTransform="matrix(1 0 0 1 412.6201 -813.9912)">
				<stop  offset="0" style="stop-color:#000000"/>
				<stop  offset="0.8462" style="stop-color:#EAEAEA"/>
				<stop  offset="0.9121" style="stop-color:#F2F2F2"/>
				<stop  offset="1" style="stop-color:#D1D1D1"/>
			</linearGradient>
			<path fill="url(#SVGID_3_)" stroke="#000000" stroke-width="0.5" d="M124.202,98.334c0,1.062-0.864,1.928-1.93,1.928H5.726
				c-1.064,0-1.929-0.863-1.929-1.928v-5.072c0-1.066,0.863-1.93,1.929-1.93h116.549c1.062,0,1.929,0.861,1.929,1.93L124.202,98.334
				L124.202,98.334z"/>
		</g>
		<line fill="none" stroke="#000000" x1="27.953" y1="86.547" x2="27.953" y2="34.601"/>
		<line fill="none" stroke="#000000" x1="51.892" y1="86.547" x2="51.892" y2="34.601"/>
		<line fill="none" stroke="#000000" x1="75.827" y1="86.547" x2="75.827" y2="34.601"/>
		<line fill="none" stroke="#000000" x1="99.765" y1="86.547" x2="99.765" y2="34.601"/>
	</g>
</g>
</svg>
