<?xml version="1.0" encoding="utf-8"?>
<!-- Generator: Adobe Illustrator 13.0.0, SVG Export Plug-In . SVG Version: 6.00 Build 14948)  -->
<!DOCTYPE svg PUBLIC "-//W3C//DTD SVG 1.1//EN" "http://www.w3.org/Graphics/SVG/1.1/DTD/svg11.dtd">
<svg version="1.1" id="Layer_1" xmlns="http://www.w3.org/2000/svg" xmlns:xlink="http://www.w3.org/1999/xlink" x="0px" y="0px"
	 width="128px" height="128px" viewBox="0 0 128 128" enable-background="new 0 0 128 128" xml:space="preserve">
<g>
	<path fill="#F2F2F2" stroke="#B3B3B3" stroke-width="2" d="M109.502,16.905H18.5c-9.342,0-16.913,7.572-16.913,16.91v67.379
		c0,9.342,7.571,16.914,16.913,16.914h91.002c9.34,0,16.912-7.572,16.912-16.914V33.815
		C126.414,24.478,118.842,16.905,109.502,16.905z"/>
	<linearGradient id="SVGID_1_" gradientUnits="userSpaceOnUse" x1="63.9346" y1="118.9961" x2="63.9346" y2="52.4952">
		<stop  offset="0.0934" style="stop-color:#D1D1D1"/>
		<stop  offset="0.431" style="stop-color:#D9D9D9"/>
		<stop  offset="0.9519" style="stop-color:#EFEFEF"/>
		<stop  offset="0.9725" style="stop-color:#F0F0F0"/>
	</linearGradient>
	<path fill="url(#SVGID_1_)" d="M38.497,82.386c-12.658,0-24.773-1.07-35.96-3.022v22.106c0,9.189,7.447,16.639,16.637,16.639
		h89.522c9.188,0,16.637-7.449,16.637-16.639V59.959C107.314,73.42,75.166,82.386,38.497,82.386z"/>
	<path fill="#B3B3B3" d="M108.934,115.092l-89.744,0.001c-9.212,0-16.679-7.469-16.679-16.681v3.288
		c0,9.213,7.467,16.68,16.679,16.68h89.744c9.209,0,16.676-7.467,16.676-16.68v-3.288
		C125.609,107.624,118.143,115.092,108.934,115.092z"/>
	<linearGradient id="SVGID_2_" gradientUnits="userSpaceOnUse" x1="64.1592" y1="17.2617" x2="64.1592" y2="49.1583">
		<stop  offset="0" style="stop-color:#99DBF6"/>
		<stop  offset="1" style="stop-color:#00B2DE"/>
	</linearGradient>
	<path fill="url(#SVGID_2_)" d="M125.838,45.578V34.399c0-9.229-7.482-16.712-16.713-16.712h-89.93
		c-9.231,0-16.714,7.483-16.714,16.713v11.178H125.838z"/>
	<path fill="#94D9F8" d="M109.102,17.688H19.191c-9.229,0-16.71,7.481-16.71,16.707v4.94c0-9.227,7.48-16.708,16.71-16.708h89.911
		c9.227,0,16.709,7.481,16.709,16.708v-4.94C125.811,25.169,118.328,17.688,109.102,17.688z"/>
	<g>
		<path d="M49.809,99.184h-6.564V70.297l-7.323,6.363l-0.011-7.083l7.323-6.363l6.575,0.013V99.184z"/>
		<path d="M83.998,94.083h-3.281v5.101h-6.312v-5.101H59.708v-6.212l12.322-24.645h7.172L66.879,87.871h7.525v-6.717h6.312v6.717
			h3.281V94.083z"/>
	</g>
	<g>
		<path fill="#FFFFFF" d="M46.782,41.102c0,0.877-0.257,1.616-0.771,2.219c-0.515,0.602-1.294,0.903-2.337,0.903h-1.409v-1.946
			h1.006c0.82,0,1.23-0.438,1.23-1.315V28.299h2.281V41.102z M46.849,26.062h-2.416v-2.415h2.416V26.062z"/>
		<path fill="#FFFFFF" d="M59.486,39.616h-2.237v-1.141c-0.76,0.85-1.767,1.274-3.02,1.274c-1.162,0-2.095-0.343-2.795-1.028
			c-0.761-0.745-1.141-1.812-1.141-3.198v-7.247h2.281v6.911c0,0.806,0.226,1.446,0.678,1.924c0.405,0.402,0.947,0.604,1.625,0.604
			c0.693,0,1.261-0.212,1.705-0.637c0.444-0.426,0.666-1.055,0.666-1.891v-6.911h2.237V39.616z"/>
		<path fill="#FFFFFF" d="M72.301,39.616H70.02v-6.911c0-0.835-0.211-1.465-0.633-1.89c-0.42-0.425-0.979-0.638-1.67-0.638
			c-0.662,0-1.221,0.201-1.672,0.604c-0.467,0.463-0.699,1.104-0.699,1.924v6.911h-2.237v-11.34h2.237v1.141
			c0.789-0.85,1.797-1.274,3.02-1.274c1.162,0,2.094,0.343,2.795,1.029c0.762,0.745,1.141,1.812,1.141,3.198V39.616z"/>
		<path fill="#FFFFFF" d="M84.848,34.606h-7.336c0,0.97,0.246,1.741,0.738,2.314c0.492,0.574,1.207,0.861,2.146,0.861
			c1.059,0,1.977-0.388,2.752-1.163l1.453,1.364c-0.582,0.582-1.186,1.021-1.811,1.319c-0.688,0.299-1.5,0.447-2.439,0.447
			c-3.414,0-5.121-1.938-5.121-5.814c0-1.819,0.428-3.239,1.287-4.261c0.855-1.021,2.031-1.532,3.521-1.532s2.666,0.503,3.523,1.51
			s1.285,2.322,1.285,3.947V34.606z M82.59,33.019c0-0.611-0.105-1.126-0.312-1.544c-0.4-0.953-1.143-1.431-2.227-1.431
			s-1.834,0.478-2.25,1.431c-0.193,0.433-0.289,0.947-0.289,1.544H82.59z"/>
	</g>
</g>
</svg>
