<?xml version="1.0" encoding="utf-8"?>
<!-- Generator: Adobe Illustrator 13.0.0, SVG Export Plug-In . SVG Version: 6.00 Build 14948)  -->
<!DOCTYPE svg PUBLIC "-//W3C//DTD SVG 1.1//EN" "http://www.w3.org/Graphics/SVG/1.1/DTD/svg11.dtd">
<svg version="1.1" id="Layer_1" xmlns="http://www.w3.org/2000/svg" xmlns:xlink="http://www.w3.org/1999/xlink" x="0px" y="0px"
	 width="128px" height="128px" viewBox="0 0 128 128" enable-background="new 0 0 128 128" xml:space="preserve">
<g>
	<g>
		<path fill="#F2F2F2" stroke="#B3B3B3" stroke-width="2" d="M109.502,18.294H18.5c-9.342,0-16.914,7.572-16.914,16.91v67.379
			c0,9.342,7.572,16.914,16.914,16.914h91.002c9.34,0,16.912-7.572,16.912-16.914V35.204
			C126.414,25.866,118.842,18.294,109.502,18.294z"/>
		<linearGradient id="SVGID_1_" gradientUnits="userSpaceOnUse" x1="63.9346" y1="120.3848" x2="63.9346" y2="53.8839">
			<stop  offset="0.0934" style="stop-color:#D1D1D1"/>
			<stop  offset="0.431" style="stop-color:#D9D9D9"/>
			<stop  offset="0.9519" style="stop-color:#EFEFEF"/>
			<stop  offset="0.9725" style="stop-color:#F0F0F0"/>
		</linearGradient>
		<path fill="url(#SVGID_1_)" d="M38.496,83.774c-12.658,0-24.773-1.07-35.959-3.022v22.106c0,9.189,7.447,16.639,16.637,16.639
			h89.522c9.188,0,16.637-7.449,16.637-16.639V61.348C107.314,74.809,75.166,83.774,38.496,83.774z"/>
		<path fill="#B3B3B3" d="M108.934,116.48l-89.745,0.001c-9.211,0-16.678-7.469-16.678-16.681v3.288
			c0,9.213,7.467,16.68,16.678,16.68h89.745c9.209,0,16.676-7.467,16.676-16.68v-3.288
			C125.609,109.013,118.143,116.48,108.934,116.48z"/>
		<path fill="#FFFFFF" d="M105.5,22.818H21.315c-8.643,0-15.647,7.005-15.647,15.643v4.626c0-8.64,7.005-15.645,15.647-15.645H105.5
			c8.639,0,15.645,7.005,15.645,15.645v-4.626C121.145,29.823,114.139,22.818,105.5,22.818z"/>
	</g>
	<g>
		
			<linearGradient id="SVGID_2_" gradientUnits="userSpaceOnUse" x1="-363.3921" y1="-472.2676" x2="-363.3921" y2="-542.9653" gradientTransform="matrix(1 0 0 -1 412.6577 -439.8887)">
			<stop  offset="0" style="stop-color:#EB7680"/>
			<stop  offset="1" style="stop-color:#C1282F"/>
		</linearGradient>
		<path fill="url(#SVGID_2_)" d="M40.651,76.227h18.795c0.668,0,1.209,0.621,1.209,1.389c0,0.77-0.541,1.395-1.209,1.395H40.651
			v20.857l-0.012,0.424h18.807c0.668,0,1.209,0.621,1.209,1.391c0,0.771-0.541,1.395-1.209,1.395H39.093
			c-0.668,0-1.209-0.623-1.209-1.395c0-0.197,0.035-0.391,0.103-0.562c-0.072-0.383-0.113-0.809-0.113-1.25V35.533
			c0-1.742,0.623-3.154,1.391-3.154s1.389,1.412,1.389,3.154v16.629h18.795c0.669,0,1.209,0.623,1.209,1.389
			c0,0.77-0.54,1.391-1.209,1.391H40.651V76.227L40.651,76.227z"/>
		
			<linearGradient id="SVGID_3_" gradientUnits="userSpaceOnUse" x1="-333.6382" y1="-484.2617" x2="-333.6382" y2="-501.7402" gradientTransform="matrix(1 0 0 -1 412.6577 -439.8887)">
			<stop  offset="0" style="stop-color:#EB7680"/>
			<stop  offset="1" style="stop-color:#C1282F"/>
		</linearGradient>
		<path fill="url(#SVGID_3_)" d="M86.107,44.373c0.627,0,1.145,0.482,1.189,1.1c1.605,0.283,2.828,1.688,2.828,3.375v9.578
			c0,1.891-1.533,3.426-3.424,3.426H85.93H71.338c-1.953,0-3.424-1.475-3.424-3.287v-9.184v-0.533c0-1.893,1.531-3.426,3.424-3.426
			h8.217c0.072-0.592,0.576-1.049,1.188-1.049H86.107L86.107,44.373z"/>
		
			<linearGradient id="SVGID_4_" gradientUnits="userSpaceOnUse" x1="-333.6382" y1="-508.1958" x2="-333.6382" y2="-525.6724" gradientTransform="matrix(1 0 0 -1 412.6577 -439.8887)">
			<stop  offset="0" style="stop-color:#EB7680"/>
			<stop  offset="1" style="stop-color:#C1282F"/>
		</linearGradient>
		<path fill="url(#SVGID_4_)" d="M86.107,68.307c0.627,0,1.145,0.482,1.189,1.1c1.605,0.283,2.828,1.688,2.828,3.375v9.576
			c0,1.893-1.533,3.426-3.424,3.426H85.93H71.338c-1.953,0-3.424-1.471-3.424-3.285v-9.186v-0.531c0-1.893,1.531-3.426,3.424-3.426
			h8.217c0.072-0.592,0.576-1.049,1.188-1.049H86.107L86.107,68.307z"/>
		
			<linearGradient id="SVGID_5_" gradientUnits="userSpaceOnUse" x1="-333.6382" y1="-532.1294" x2="-333.6382" y2="-549.6079" gradientTransform="matrix(1 0 0 -1 412.6577 -439.8887)">
			<stop  offset="0" style="stop-color:#EB7680"/>
			<stop  offset="1" style="stop-color:#C1282F"/>
		</linearGradient>
		<path fill="url(#SVGID_5_)" d="M86.107,92.24c0.627,0,1.145,0.484,1.189,1.1c1.605,0.281,2.828,1.688,2.828,3.375v9.576
			c0,1.895-1.533,3.428-3.424,3.428H85.93H71.338c-1.953,0-3.424-1.473-3.424-3.285v-9.188v-0.531c0-1.891,1.531-3.428,3.424-3.428
			h8.217c0.072-0.588,0.576-1.047,1.188-1.047H86.107L86.107,92.24z"/>
	</g>
</g>
</svg>
