<?xml version="1.0" encoding="utf-8"?>
<!-- Generator: Adobe Illustrator 13.0.0, SVG Export Plug-In . SVG Version: 6.00 Build 14948)  -->
<!DOCTYPE svg PUBLIC "-//W3C//DTD SVG 1.1//EN" "http://www.w3.org/Graphics/SVG/1.1/DTD/svg11.dtd">
<svg version="1.1" id="Layer_1" xmlns="http://www.w3.org/2000/svg" xmlns:xlink="http://www.w3.org/1999/xlink" x="0px" y="0px"
	 width="128px" height="128px" viewBox="0 0 128 128" enable-background="new 0 0 128 128" xml:space="preserve">
<g>
	<path fill="#F2F2F2" stroke="#B3B3B3" stroke-width="2" d="M109.502,16.905H18.5c-9.342,0-16.914,7.572-16.914,16.91v67.379
		c0,9.342,7.572,16.914,16.914,16.914h91.002c9.34,0,16.912-7.572,16.912-16.914V33.815
		C126.414,24.478,118.842,16.905,109.502,16.905z"/>
	<linearGradient id="SVGID_1_" gradientUnits="userSpaceOnUse" x1="63.9351" y1="118.9961" x2="63.9351" y2="52.4952">
		<stop  offset="0.0934" style="stop-color:#D1D1D1"/>
		<stop  offset="0.431" style="stop-color:#D9D9D9"/>
		<stop  offset="0.9519" style="stop-color:#EFEFEF"/>
		<stop  offset="0.9725" style="stop-color:#F0F0F0"/>
	</linearGradient>
	<path fill="url(#SVGID_1_)" d="M38.496,82.386c-12.658,0-24.773-1.07-35.959-3.022v22.106c0,9.189,7.447,16.639,16.637,16.639
		h89.521c9.188,0,16.637-7.449,16.637-16.639V59.959C107.314,73.42,75.166,82.386,38.496,82.386z"/>
	<path fill="#B3B3B3" d="M108.934,115.092l-89.744,0.001c-9.211,0-16.678-7.469-16.678-16.681v3.288
		c0,9.213,7.467,16.68,16.678,16.68h89.744c9.209,0,16.676-7.467,16.676-16.68v-3.288
		C125.609,107.624,118.143,115.092,108.934,115.092z"/>
	<linearGradient id="SVGID_2_" gradientUnits="userSpaceOnUse" x1="64.1587" y1="17.2617" x2="64.1587" y2="49.1583">
		<stop  offset="0" style="stop-color:#FF9D00"/>
		<stop  offset="1" style="stop-color:#FF1F00"/>
	</linearGradient>
	<path fill="url(#SVGID_2_)" d="M125.838,45.578V34.399c0-9.229-7.482-16.712-16.713-16.712h-89.93
		C9.963,17.688,2.48,25.171,2.48,34.4v11.178H125.838z"/>
	<path opacity="0.5" fill="#FFFFFF" d="M109.102,17.688h-89.91c-9.23,0-16.711,7.481-16.711,16.707v4.94
		c0-9.227,7.48-16.708,16.711-16.708h89.91c9.227,0,16.709,7.481,16.709,16.708v-4.94C125.811,25.169,118.328,17.688,109.102,17.688
		z"/>
	<g>
		<g>
			
				<linearGradient id="SVGID_3_" gradientUnits="userSpaceOnUse" x1="-312.0923" y1="877.1992" x2="-312.0923" y2="924.0615" gradientTransform="matrix(1 0 0 1 412.6201 -813.9902)">
				<stop  offset="0" style="stop-color:#80E21B"/>
				<stop  offset="1" style="stop-color:#80B400"/>
			</linearGradient>
			<path fill="url(#SVGID_3_)" stroke="#70993E" d="M117.322,63.959c-2.537-1.508-5.821-0.671-7.326,1.869L93.963,92.854
				l-2.567-6.114c-1.146-2.727-4.276-4.005-7.001-2.858c-2.72,1.139-4.002,4.276-2.86,7.001l6.676,15.909
				c0.784,1.863,2.548,3.126,4.563,3.268c2.013,0.138,3.934-0.871,4.964-2.607l21.453-36.16
				C120.697,68.751,119.86,65.466,117.322,63.959L117.322,63.959z"/>
		</g>
		<g opacity="0.5">
			<path fill="#FFFFFF" d="M84.964,85.301c2.523-1.098,5.562,0.295,6.785,3.112l-0.345-0.794c-1.225-2.818-4.262-4.21-6.784-3.111
				c-2.523,1.1-3.574,4.275-2.351,7.092l0.345,0.793C81.391,89.576,82.441,86.4,84.964,85.301z"/>
		</g>
		<path opacity="0.5" fill="#FFFFFF" d="M94.517,94.324l-0.295-0.836l16.037-27.077c0,0,0.661-0.986,0.974-1.316
			c0.599-0.634,1.144-0.789,1.144-0.789L94.517,94.324z"/>
	</g>
</g>
</svg>
