<?xml version="1.0" encoding="utf-8"?>
<!-- Generator: Adobe Illustrator 13.0.0, SVG Export Plug-In . SVG Version: 6.00 Build 14948)  -->
<!DOCTYPE svg PUBLIC "-//W3C//DTD SVG 1.1//EN" "http://www.w3.org/Graphics/SVG/1.1/DTD/svg11.dtd">
<svg version="1.1" id="Layer_1" xmlns="http://www.w3.org/2000/svg" xmlns:xlink="http://www.w3.org/1999/xlink" x="0px" y="0px"
	 width="128px" height="128px" viewBox="0 0 128 128" enable-background="new 0 0 128 128" xml:space="preserve">
<g>
	<path fill="#F2F2F2" stroke="#B3B3B3" stroke-width="2" d="M109.502,16.906H18.5c-9.342,0-16.914,7.572-16.914,16.91v67.379
		c0,9.342,7.572,16.914,16.914,16.914h91.002c9.34,0,16.912-7.572,16.912-16.914V33.816
		C126.414,24.478,118.842,16.906,109.502,16.906z"/>
	<linearGradient id="SVGID_1_" gradientUnits="userSpaceOnUse" x1="63.9346" y1="118.9971" x2="63.9346" y2="52.4957">
		<stop  offset="0.0934" style="stop-color:#D1D1D1"/>
		<stop  offset="0.431" style="stop-color:#D9D9D9"/>
		<stop  offset="0.9519" style="stop-color:#EFEFEF"/>
		<stop  offset="0.9725" style="stop-color:#F0F0F0"/>
	</linearGradient>
	<path fill="url(#SVGID_1_)" d="M38.496,82.387c-12.658,0-24.773-1.07-35.959-3.023v22.107c0,9.189,7.447,16.639,16.637,16.639
		h89.522c9.188,0,16.637-7.449,16.637-16.639V59.959C107.314,73.42,75.166,82.387,38.496,82.387z"/>
	<path fill="#B3B3B3" d="M108.934,115.092l-89.745,0.002c-9.211,0-16.678-7.469-16.678-16.682v3.289
		c0,9.213,7.467,16.68,16.678,16.68h89.745c9.209,0,16.676-7.467,16.676-16.68v-3.289
		C125.609,107.625,118.143,115.092,108.934,115.092z"/>
	<linearGradient id="SVGID_2_" gradientUnits="userSpaceOnUse" x1="64.1587" y1="17.2622" x2="64.1587" y2="49.1588">
		<stop  offset="0" style="stop-color:#5F5D5C"/>
		<stop  offset="1" style="stop-color:#181500"/>
	</linearGradient>
	<path fill="url(#SVGID_2_)" d="M125.838,45.579V34.4c0-9.229-7.482-16.712-16.713-16.712h-89.93
		c-9.232,0-16.715,7.483-16.715,16.713v11.178H125.838z"/>
	<path opacity="0.5" fill="#FFFFFF" d="M106.439,20.739H21.611c-8.709,0-15.767,7.059-15.767,15.763v4.661
		c0-8.705,7.058-15.764,15.767-15.764h84.829c8.705,0,15.764,7.059,15.764,15.764v-4.661
		C122.203,27.797,115.145,20.739,106.439,20.739z"/>
	<g>
		<g>
			
				<linearGradient id="SVGID_3_" gradientUnits="userSpaceOnUse" x1="-303.0352" y1="912.125" x2="-330.9167" y2="892.6021" gradientTransform="matrix(1 0 0 1 412.6201 -813.9912)">
				<stop  offset="0" style="stop-color:#181500"/>
				<stop  offset="1" style="stop-color:#5F5D5C"/>
			</linearGradient>
			<polygon fill="url(#SVGID_3_)" points="75.887,86.916 115.4,86.916 115.4,89.826 75.887,89.826 			"/>
			
				<linearGradient id="SVGID_4_" gradientUnits="userSpaceOnUse" x1="-311.8716" y1="915.917" x2="-332.6575" y2="901.3624" gradientTransform="matrix(1 0 0 1 412.6201 -813.9912)">
				<stop  offset="0" style="stop-color:#181500"/>
				<stop  offset="1" style="stop-color:#5F5D5C"/>
			</linearGradient>
			<polygon fill="url(#SVGID_4_)" points="75.887,93.191 104.824,93.191 104.824,96.104 75.887,96.104 			"/>
			
				<linearGradient id="SVGID_5_" gradientUnits="userSpaceOnUse" x1="-311.873" y1="903.3584" x2="-332.6575" y2="888.8051" gradientTransform="matrix(1 0 0 1 412.6201 -813.9912)">
				<stop  offset="0" style="stop-color:#181500"/>
				<stop  offset="1" style="stop-color:#5F5D5C"/>
			</linearGradient>
			<polygon fill="url(#SVGID_5_)" points="75.887,80.637 104.824,80.637 104.824,83.545 75.887,83.545 			"/>
		</g>
		<g>
			
				<linearGradient id="SVGID_6_" gradientUnits="userSpaceOnUse" x1="-303.0347" y1="899.5645" x2="-330.9162" y2="880.0416" gradientTransform="matrix(1 0 0 1 412.6201 -813.9912)">
				<stop  offset="0" style="stop-color:#181500"/>
				<stop  offset="1" style="stop-color:#5F5D5C"/>
			</linearGradient>
			<polygon fill="url(#SVGID_6_)" points="75.887,74.355 115.4,74.355 115.4,77.268 75.887,77.268 			"/>
			
				<linearGradient id="SVGID_7_" gradientUnits="userSpaceOnUse" x1="-311.8726" y1="890.8027" x2="-332.657" y2="876.2494" gradientTransform="matrix(1 0 0 1 412.6201 -813.9912)">
				<stop  offset="0" style="stop-color:#181500"/>
				<stop  offset="1" style="stop-color:#5F5D5C"/>
			</linearGradient>
			<polygon fill="url(#SVGID_7_)" points="75.887,68.08 104.824,68.08 104.824,70.988 75.887,70.988 			"/>
		</g>
	</g>
	<g>
		<g>
			<g>
				
					<linearGradient id="SVGID_8_" gradientUnits="userSpaceOnUse" x1="76.417" y1="694.2559" x2="51.79" y2="694.2559" gradientTransform="matrix(0.7071 0.7071 -0.7071 0.7071 477.4161 -466.8396)">
					<stop  offset="0" style="stop-color:#00B2DE"/>
					<stop  offset="1" style="stop-color:#99DBF6"/>
				</linearGradient>
				<path fill="url(#SVGID_8_)" d="M38.563,80.082l16.989-16.988c-10.101-9.275-25.808-9.02-35.596,0.768
					c-4.522,4.521-7.004,10.308-7.457,16.22H38.563z"/>
			</g>
			
				<linearGradient id="SVGID_9_" gradientUnits="userSpaceOnUse" x1="103.3545" y1="698.7393" x2="78.71" y2="698.7393" gradientTransform="matrix(0.7071 0.7071 -0.7071 0.7071 477.4161 -466.8396)">
				<stop  offset="0" style="stop-color:#FF1F00"/>
				<stop  offset="1" style="stop-color:#FF9D00"/>
			</linearGradient>
			<path fill="url(#SVGID_9_)" d="M57.174,64.715l-36.361,36.363c10.099,9.285,25.813,9.035,35.605-0.756
				C66.211,90.529,66.459,74.814,57.174,64.715z"/>
			
				<linearGradient id="SVGID_10_" gradientUnits="userSpaceOnUse" x1="75.6318" y1="714.0605" x2="58.7109" y2="714.0605" gradientTransform="matrix(0.7071 0.7071 -0.7071 0.7071 477.4161 -466.8396)">
				<stop  offset="0" style="stop-color:#FBB318"/>
				<stop  offset="1" style="stop-color:#FFE600"/>
			</linearGradient>
			<path fill="url(#SVGID_10_)" d="M10.637,82.969c0.056,6.164,2.307,12.311,6.763,17.164l17.164-17.162L10.637,82.969z"/>
		</g>
		<path fill="#F2F2F2" d="M14.926,79.021c1.321-7.396,6.601-15.138,13.438-18.466c6.835-3.324,15.998-2.609,22.633,0.914
			l0.757-0.367c-7.344-4.375-16.233-5.254-23.966-1.49C20.053,63.377,15.256,70.91,14.17,79.391L14.926,79.021z"/>
		<path fill="#ED3612" d="M61.651,77.771c0.855,7.463-1.983,16.396-7.58,21.543c-5.595,5.146-14.579,7.086-21.944,5.613l-0.62,0.57
			c8.291,2.088,17.058,0.379,23.386-5.443c6.332-5.824,8.768-14.416,7.379-22.852L61.651,77.771z"/>
	</g>
</g>
</svg>
