<?xml version="1.0" encoding="utf-8"?>
<!-- Generator: Adobe Illustrator 13.0.0, SVG Export Plug-In . SVG Version: 6.00 Build 14948)  -->
<!DOCTYPE svg PUBLIC "-//W3C//DTD SVG 1.1//EN" "http://www.w3.org/Graphics/SVG/1.1/DTD/svg11.dtd">
<svg version="1.1" id="Layer_1" xmlns="http://www.w3.org/2000/svg" xmlns:xlink="http://www.w3.org/1999/xlink" x="0px" y="0px"
	 width="128px" height="128px" viewBox="0 0 128 128" enable-background="new 0 0 128 128" xml:space="preserve">
<g>
	<g>
		<path fill="#F2F2F2" stroke="#B3B3B3" stroke-width="2" d="M109.502,21.444H18.5c-9.342,0-16.914,7.572-16.914,16.91v67.379
			c0,9.342,7.572,16.914,16.914,16.914h91.002c9.34,0,16.912-7.572,16.912-16.914V38.354
			C126.414,29.017,118.842,21.444,109.502,21.444z"/>
		<linearGradient id="SVGID_1_" gradientUnits="userSpaceOnUse" x1="63.9346" y1="123.5352" x2="63.9346" y2="57.0343">
			<stop  offset="0.0934" style="stop-color:#D1D1D1"/>
			<stop  offset="0.431" style="stop-color:#D9D9D9"/>
			<stop  offset="0.9519" style="stop-color:#EFEFEF"/>
			<stop  offset="0.9725" style="stop-color:#F0F0F0"/>
		</linearGradient>
		<path fill="url(#SVGID_1_)" d="M38.496,86.925c-12.658,0-24.773-1.07-35.959-3.022v22.106c0,9.189,7.447,16.639,16.637,16.639
			h89.522c9.188,0,16.637-7.449,16.637-16.639V64.498C107.314,77.959,75.166,86.925,38.496,86.925z"/>
		<path fill="#B3B3B3" d="M108.934,119.631l-89.745,0.001c-9.211,0-16.678-7.469-16.678-16.681v3.288
			c0,9.213,7.467,16.68,16.678,16.68h89.745c9.209,0,16.676-7.467,16.676-16.68v-3.288
			C125.609,112.163,118.143,119.631,108.934,119.631z"/>
		<path fill="#FFFFFF" d="M105.5,25.969H21.315c-8.643,0-15.647,7.005-15.647,15.643v4.626c0-8.64,7.005-15.645,15.647-15.645H105.5
			c8.639,0,15.645,7.005,15.645,15.645v-4.626C121.145,32.974,114.139,25.969,105.5,25.969z"/>
	</g>
	<g>
		<path fill="#FFFFFF" stroke="#999999" stroke-width="1.0006" stroke-miterlimit="3.8637" d="M111.766,92.694
			c0,9.389-7.611,17-17,17H33.234c-9.389,0-17-7.611-17-17V57.669c0-9.389,7.611-17,17-17h61.532c9.389,0,17,7.611,17,17V92.694
			L111.766,92.694z"/>
		
			<linearGradient id="SVGID_2_" gradientUnits="userSpaceOnUse" x1="-8805.5537" y1="-5061.1567" x2="-8791.0117" y2="-5075.6987" gradientTransform="matrix(-0.7071 0.7071 -0.7071 -0.7071 -9712.0938 2694.9824)">
			<stop  offset="0" style="stop-color:#EB7680"/>
			<stop  offset="1" style="stop-color:#C1282F"/>
		</linearGradient>
		<path fill="url(#SVGID_2_)" d="M82.797,64.505c-0.023,0.914,0.305,1.709,0.938,2.342c0.656,0.654,1.451,0.982,2.363,0.959
			l10.188,0.023c0.91-0.023,1.684-0.328,2.34-0.982c0.633-0.633,0.959-1.43,0.982-2.342c-0.023-0.914-0.352-1.709-0.982-2.342
			c-0.656-0.656-1.43-0.959-2.342-0.982l-2.178,0.023l8.271-8.273c0.656-0.656,0.984-1.451,0.961-2.365
			c0.023-0.914-0.328-1.686-0.984-2.34c-0.631-0.633-1.402-0.984-2.316-0.961c-0.912-0.023-1.686,0.328-2.363,0.961L89.4,56.497
			l0.021-2.176c0-0.891-0.324-1.686-0.98-2.342c-0.633-0.633-1.432-0.959-2.342-0.984c-0.912,0.025-1.707,0.352-2.342,0.984
			c-0.654,0.656-0.961,1.428-0.982,2.34L82.797,64.505z"/>
		
			<linearGradient id="SVGID_3_" gradientUnits="userSpaceOnUse" x1="-1034.771" y1="2709.7012" x2="-1020.2292" y2="2695.1594" gradientTransform="matrix(0.7071 0.7071 0.7071 -0.7071 -1149.4011 2694.9824)">
			<stop  offset="0" style="stop-color:#EB7680"/>
			<stop  offset="1" style="stop-color:#C1282F"/>
		</linearGradient>
		<path fill="url(#SVGID_3_)" d="M45.224,54.321c-0.023-0.912-0.328-1.684-0.982-2.34c-0.633-0.633-1.428-0.959-2.342-0.984
			c-0.911,0.025-1.709,0.352-2.34,0.984c-0.656,0.656-0.982,1.451-0.983,2.342l0.022,2.176l-8.272-8.271
			c-0.679-0.633-1.452-0.984-2.364-0.961c-0.914-0.023-1.686,0.328-2.318,0.961c-0.655,0.654-1.006,1.426-0.982,2.34
			c-0.023,0.914,0.303,1.709,0.959,2.365l8.273,8.273l-2.178-0.023c-0.912,0.023-1.686,0.328-2.341,0.982
			c-0.633,0.633-0.959,1.43-0.983,2.342c0.023,0.912,0.351,1.709,0.983,2.342c0.655,0.654,1.429,0.959,2.341,0.982L41.9,67.808
			c0.914,0.021,1.709-0.305,2.365-0.959c0.631-0.633,0.959-1.428,0.937-2.342L45.224,54.321z"/>
		
			<linearGradient id="SVGID_4_" gradientUnits="userSpaceOnUse" x1="-2776.9453" y1="4484.9316" x2="-2791.4858" y2="4499.4722" gradientTransform="matrix(0.7071 -0.7071 0.7071 0.7071 -1172.7761 -5052.3115)">
			<stop  offset="0" style="stop-color:#EB7680"/>
			<stop  offset="1" style="stop-color:#C1282F"/>
		</linearGradient>
		<path fill="url(#SVGID_4_)" d="M45.202,85.854c0.022-0.912-0.306-1.709-0.937-2.34c-0.656-0.656-1.451-0.984-2.365-0.963
			L31.716,82.53c-0.912,0.021-1.686,0.328-2.341,0.982c-0.633,0.633-0.96,1.43-0.983,2.342c0.024,0.912,0.351,1.709,0.983,2.342
			c0.655,0.656,1.429,0.959,2.341,0.982l2.178-0.023l-8.273,8.271c-0.656,0.656-0.982,1.453-0.959,2.365
			c-0.023,0.914,0.327,1.688,0.982,2.342c0.633,0.633,1.404,0.982,2.318,0.959c0.912,0.023,1.686-0.326,2.364-0.959l8.272-8.271
			l-0.022,2.178c0.001,0.889,0.327,1.686,0.983,2.342c0.631,0.631,1.429,0.959,2.34,0.982c0.914-0.023,1.709-0.354,2.342-0.984
			c0.654-0.654,0.959-1.428,0.982-2.34L45.202,85.854z"/>
		
			<linearGradient id="SVGID_5_" gradientUnits="userSpaceOnUse" x1="-10580.8662" y1="-3318.9346" x2="-10595.4082" y2="-3304.3926" gradientTransform="matrix(-0.7071 -0.7071 -0.7071 0.7071 -9735.4932 -5052.3115)">
			<stop  offset="0" style="stop-color:#EB7680"/>
			<stop  offset="1" style="stop-color:#C1282F"/>
		</linearGradient>
		<path fill="url(#SVGID_5_)" d="M82.775,96.04c0.021,0.914,0.328,1.686,0.98,2.34c0.635,0.633,1.43,0.961,2.344,0.984
			c0.912-0.023,1.709-0.354,2.34-0.982c0.656-0.656,0.98-1.453,0.982-2.342L89.4,93.862l8.271,8.271
			c0.68,0.635,1.451,0.982,2.363,0.961c0.914,0.021,1.688-0.328,2.316-0.961c0.656-0.654,1.006-1.428,0.982-2.342
			c0.023-0.912-0.303-1.709-0.959-2.365l-8.273-8.271l2.18,0.025c0.91-0.025,1.686-0.328,2.34-0.984
			c0.633-0.633,0.959-1.428,0.982-2.342c-0.021-0.912-0.352-1.709-0.982-2.34c-0.654-0.656-1.43-0.963-2.34-0.984L86.1,82.554
			c-0.914-0.02-1.709,0.305-2.365,0.961c-0.631,0.633-0.959,1.428-0.938,2.342L82.775,96.04z"/>
	</g>
</g>
</svg>
