<?xml version="1.0" encoding="utf-8"?>
<!-- Generator: Adobe Illustrator 13.0.0, SVG Export Plug-In . SVG Version: 6.00 Build 14948)  -->
<!DOCTYPE svg PUBLIC "-//W3C//DTD SVG 1.1//EN" "http://www.w3.org/Graphics/SVG/1.1/DTD/svg11.dtd">
<svg version="1.1" id="Layer_1" xmlns="http://www.w3.org/2000/svg" xmlns:xlink="http://www.w3.org/1999/xlink" x="0px" y="0px"
	 width="128px" height="128px" viewBox="0 0 128 128" enable-background="new 0 0 128 128" xml:space="preserve">
<g>
	<path fill="#F2F2F2" stroke="#B3B3B3" stroke-width="2" d="M109.502,16.905H18.5c-9.342,0-16.914,7.572-16.914,16.91v67.379
		c0,9.342,7.572,16.914,16.914,16.914h91.002c9.34,0,16.912-7.572,16.912-16.914V33.815
		C126.414,24.478,118.842,16.905,109.502,16.905z"/>
	<linearGradient id="SVGID_1_" gradientUnits="userSpaceOnUse" x1="63.9351" y1="118.9961" x2="63.9351" y2="52.4952">
		<stop  offset="0.0934" style="stop-color:#D1D1D1"/>
		<stop  offset="0.431" style="stop-color:#D9D9D9"/>
		<stop  offset="0.9519" style="stop-color:#EFEFEF"/>
		<stop  offset="0.9725" style="stop-color:#F0F0F0"/>
	</linearGradient>
	<path fill="url(#SVGID_1_)" d="M38.496,82.386c-12.658,0-24.773-1.07-35.959-3.022v22.106c0,9.189,7.447,16.639,16.637,16.639
		h89.521c9.188,0,16.637-7.449,16.637-16.639V59.959C107.314,73.42,75.166,82.386,38.496,82.386z"/>
	<g>
		<g>
			
				<linearGradient id="SVGID_2_" gradientUnits="userSpaceOnUse" x1="-357.4316" y1="870.2734" x2="-357.4316" y2="884.1914" gradientTransform="matrix(1 0 0 1 412.6201 -813.9912)">
				<stop  offset="0" style="stop-color:#EC008C"/>
				<stop  offset="1" style="stop-color:#C4008C"/>
			</linearGradient>
			<path fill="url(#SVGID_2_)" d="M62.148,68.387c0,1.002-0.812,1.812-1.813,1.812H50.042c-1,0-1.813-0.811-1.813-1.812V58.094
				c0-1.003,0.813-1.812,1.813-1.812h10.293c1.002,0,1.813,0.809,1.813,1.812V68.387z"/>
			
				<linearGradient id="SVGID_3_" gradientUnits="userSpaceOnUse" x1="-339.8091" y1="870.2734" x2="-339.8091" y2="884.1914" gradientTransform="matrix(1 0 0 1 412.6201 -813.9912)">
				<stop  offset="0" style="stop-color:#EC008C"/>
				<stop  offset="1" style="stop-color:#C4008C"/>
			</linearGradient>
			<path fill="url(#SVGID_3_)" d="M79.771,68.387c0,1.002-0.813,1.812-1.813,1.812H67.664c-1.001,0-1.812-0.811-1.812-1.812V58.094
				c0-1.003,0.812-1.812,1.812-1.812h10.294c1,0,1.813,0.809,1.813,1.812V68.387z"/>
			
				<linearGradient id="SVGID_4_" gradientUnits="userSpaceOnUse" x1="-322.188" y1="870.2734" x2="-322.188" y2="884.1914" gradientTransform="matrix(1 0 0 1 412.6201 -813.9912)">
				<stop  offset="0" style="stop-color:#EC008C"/>
				<stop  offset="1" style="stop-color:#C4008C"/>
			</linearGradient>
			<path fill="url(#SVGID_4_)" d="M97.393,68.387c0,1.002-0.812,1.812-1.812,1.812H85.286c-1.001,0-1.813-0.811-1.813-1.812V58.094
				c0-1.003,0.813-1.812,1.813-1.812h10.293c1.002,0,1.813,0.809,1.813,1.812V68.387L97.393,68.387z"/>
		</g>
		<g>
			
				<linearGradient id="SVGID_5_" gradientUnits="userSpaceOnUse" x1="-339.8091" y1="887.541" x2="-339.8091" y2="901.457" gradientTransform="matrix(1 0 0 1 412.6201 -813.9912)">
				<stop  offset="0" style="stop-color:#EC008C"/>
				<stop  offset="1" style="stop-color:#C4008C"/>
			</linearGradient>
			<path fill="url(#SVGID_5_)" d="M79.771,85.654c0,1-0.813,1.812-1.813,1.812H67.664c-1.001,0-1.812-0.812-1.812-1.812V75.359
				c0-1.002,0.812-1.811,1.812-1.811h10.294c1,0,1.813,0.809,1.813,1.811V85.654z"/>
			
				<linearGradient id="SVGID_6_" gradientUnits="userSpaceOnUse" x1="-322.188" y1="887.541" x2="-322.188" y2="901.457" gradientTransform="matrix(1 0 0 1 412.6201 -813.9912)">
				<stop  offset="0" style="stop-color:#EC008C"/>
				<stop  offset="1" style="stop-color:#C4008C"/>
			</linearGradient>
			<path fill="url(#SVGID_6_)" d="M97.393,85.654c0,1-0.812,1.812-1.812,1.812H85.286c-1.001,0-1.813-0.812-1.813-1.812V75.359
				c0-1.002,0.813-1.811,1.813-1.811h10.293c1.002,0,1.813,0.809,1.813,1.811V85.654L97.393,85.654z"/>
		</g>
		
			<linearGradient id="SVGID_7_" gradientUnits="userSpaceOnUse" x1="-322.188" y1="904.8066" x2="-322.188" y2="918.7246" gradientTransform="matrix(1 0 0 1 412.6201 -813.9912)">
			<stop  offset="0" style="stop-color:#EC008C"/>
			<stop  offset="1" style="stop-color:#C4008C"/>
		</linearGradient>
		<path fill="url(#SVGID_7_)" d="M97.393,102.92c0,1-0.812,1.812-1.812,1.812H85.286c-1.001,0-1.813-0.812-1.813-1.812V92.625
			c0-1,0.813-1.811,1.813-1.811h10.293c1.002,0,1.813,0.811,1.813,1.811V102.92L97.393,102.92z"/>
		<g>
			<g>
				
					<linearGradient id="SVGID_8_" gradientUnits="userSpaceOnUse" x1="-357.4302" y1="870.2734" x2="-357.4302" y2="918.7246" gradientTransform="matrix(1 0 0 1 412.6201 -813.9912)">
					<stop  offset="0" style="stop-color:#EC008C"/>
					<stop  offset="1" style="stop-color:#C4008C"/>
				</linearGradient>
				<path fill="url(#SVGID_8_)" d="M78.564,102.322H33.02V81.711h27.926c0.664,0,1.203-0.539,1.203-1.205
					c0-0.664-0.539-1.203-1.203-1.203H33.02V57.485c0-0.664-0.539-1.203-1.205-1.203s-1.205,0.539-1.205,1.203v46.042
					c0,0.666,0.539,1.205,1.203,1.205h46.754c0.666,0,1.205-0.539,1.205-1.205S79.23,102.322,78.564,102.322z"/>
			</g>
		</g>
	</g>
	<path fill="#B3B3B3" d="M108.934,115.092l-89.744,0.001c-9.211,0-16.678-7.469-16.678-16.681v3.288
		c0,9.213,7.467,16.68,16.678,16.68h89.744c9.209,0,16.676-7.467,16.676-16.68v-3.288
		C125.609,107.624,118.143,115.092,108.934,115.092z"/>
	<linearGradient id="SVGID_9_" gradientUnits="userSpaceOnUse" x1="64.1587" y1="17.2617" x2="64.1587" y2="49.1583">
		<stop  offset="0" style="stop-color:#EC008C"/>
		<stop  offset="1" style="stop-color:#C4008C"/>
	</linearGradient>
	<path fill="url(#SVGID_9_)" d="M125.838,45.578V34.399c0-9.229-7.482-16.712-16.713-16.712h-89.93
		C9.963,17.688,2.48,25.171,2.48,34.4v11.178H125.838z"/>
	<path opacity="0.5" fill="#FFFFFF" d="M109.102,17.688h-89.91c-9.23,0-16.711,7.481-16.711,16.707v4.94
		c0-9.227,7.48-16.708,16.711-16.708h89.91c9.227,0,16.709,7.481,16.709,16.708v-4.94C125.811,25.169,118.328,17.688,109.102,17.688
		z"/>
</g>
</svg>
