<?xml version="1.0" encoding="utf-8"?>
<!-- Generator: Adobe Illustrator 13.0.0, SVG Export Plug-In . SVG Version: 6.00 Build 14948)  -->
<!DOCTYPE svg PUBLIC "-//W3C//DTD SVG 1.1//EN" "http://www.w3.org/Graphics/SVG/1.1/DTD/svg11.dtd">
<svg version="1.1" id="Layer_1" xmlns="http://www.w3.org/2000/svg" xmlns:xlink="http://www.w3.org/1999/xlink" x="0px" y="0px"
	 width="128px" height="128px" viewBox="0 0 128 128" enable-background="new 0 0 128 128" xml:space="preserve">
<g>
	<g>
		<path fill="#F2F2F2" stroke="#B3B3B3" stroke-width="2" d="M109.502,21.757H18.5c-9.342,0-16.914,7.572-16.914,16.91v67.379
			c0,9.342,7.572,16.914,16.914,16.914h91.002c9.34,0,16.912-7.572,16.912-16.914V38.667
			C126.414,29.329,118.842,21.757,109.502,21.757z"/>
		<linearGradient id="SVGID_1_" gradientUnits="userSpaceOnUse" x1="63.9346" y1="123.8477" x2="63.9346" y2="57.3462">
			<stop  offset="0.0934" style="stop-color:#D1D1D1"/>
			<stop  offset="0.431" style="stop-color:#D9D9D9"/>
			<stop  offset="0.9519" style="stop-color:#EFEFEF"/>
			<stop  offset="0.9725" style="stop-color:#F0F0F0"/>
		</linearGradient>
		<path fill="url(#SVGID_1_)" d="M38.496,87.237c-12.658,0-24.773-1.07-35.959-3.022v22.106c0,9.189,7.447,16.639,16.637,16.639
			h89.522c9.188,0,16.637-7.449,16.637-16.639V64.811C107.314,78.271,75.166,87.237,38.496,87.237z"/>
		<path fill="#B3B3B3" d="M108.934,119.943l-89.745,0.001c-9.211,0-16.678-7.469-16.678-16.681v3.288
			c0,9.213,7.467,16.68,16.678,16.68h89.745c9.209,0,16.676-7.467,16.676-16.68v-3.288
			C125.609,112.476,118.143,119.943,108.934,119.943z"/>
		<path fill="#FFFFFF" d="M105.5,26.281H21.315c-8.643,0-15.647,7.005-15.647,15.643v4.626c0-8.64,7.005-15.645,15.647-15.645H105.5
			c8.639,0,15.645,7.005,15.645,15.645v-4.626C121.145,33.286,114.139,26.281,105.5,26.281z"/>
	</g>
	<g>
		
			<linearGradient id="SVGID_2_" gradientUnits="userSpaceOnUse" x1="-334.1309" y1="-490.9375" x2="-334.1309" y2="-493.7168" gradientTransform="matrix(1 0 0 -1 412.6577 -439.8887)">
			<stop  offset="0" style="stop-color:#EB7680"/>
			<stop  offset="1" style="stop-color:#C1282F"/>
		</linearGradient>
		<path fill="url(#SVGID_2_)" d="M48.684,51.049h59.687c1.957,0,3.547,0.623,3.547,1.391l0,0c0,0.766-1.59,1.389-3.547,1.389H48.684
			c-1.961,0-3.549-0.623-3.549-1.389l0,0C45.135,51.672,46.723,51.049,48.684,51.049L48.684,51.049z"/>
		
			<linearGradient id="SVGID_3_" gradientUnits="userSpaceOnUse" x1="-385.3354" y1="-483.4805" x2="-385.3354" y2="-501.1719" gradientTransform="matrix(1 0 0 -1 412.6577 -439.8887)">
			<stop  offset="0" style="stop-color:#EB7680"/>
			<stop  offset="1" style="stop-color:#C1282F"/>
		</linearGradient>
		<path fill="url(#SVGID_3_)" d="M34.495,43.594c0.635,0,1.156,0.49,1.207,1.113c1.625,0.285,2.861,1.705,2.861,3.414v9.693
			c0,1.916-1.553,3.469-3.467,3.469h-0.777H19.545c-1.941-0.07-3.389-1.525-3.465-3.328V48.66v-0.539
			c0-1.916,1.551-3.469,3.465-3.469h8.314c0.074-0.598,0.584-1.061,1.201-1.061L34.495,43.594L34.495,43.594z"/>
		
			<linearGradient id="SVGID_4_" gradientUnits="userSpaceOnUse" x1="-334.1309" y1="-514.9946" x2="-334.1309" y2="-517.7759" gradientTransform="matrix(1 0 0 -1 412.6577 -439.8887)">
			<stop  offset="0" style="stop-color:#EB7680"/>
			<stop  offset="1" style="stop-color:#C1282F"/>
		</linearGradient>
		<path fill="url(#SVGID_4_)" d="M48.684,75.105h59.687c1.957,0,3.547,0.621,3.547,1.391l0,0c0,0.77-1.59,1.391-3.547,1.391H48.684
			c-1.961,0-3.549-0.621-3.549-1.391l0,0C45.135,75.729,46.723,75.105,48.684,75.105L48.684,75.105z"/>
		
			<linearGradient id="SVGID_5_" gradientUnits="userSpaceOnUse" x1="-385.3354" y1="-507.5396" x2="-385.3354" y2="-525.2271" gradientTransform="matrix(1 0 0 -1 412.6577 -439.8887)">
			<stop  offset="0" style="stop-color:#EB7680"/>
			<stop  offset="1" style="stop-color:#C1282F"/>
		</linearGradient>
		<path fill="url(#SVGID_5_)" d="M34.495,67.652c0.635,0,1.156,0.488,1.207,1.111c1.625,0.285,2.861,1.705,2.861,3.414v9.693
			c0,1.916-1.553,3.467-3.467,3.467h-0.777H19.545c-1.941-0.07-3.389-1.525-3.465-3.324v-9.297v-0.539
			c0-1.914,1.551-3.467,3.465-3.467h8.314c0.074-0.6,0.584-1.061,1.201-1.061h5.434V67.652z"/>
		
			<linearGradient id="SVGID_6_" gradientUnits="userSpaceOnUse" x1="-334.1309" y1="-539.0532" x2="-334.1309" y2="-541.8325" gradientTransform="matrix(1 0 0 -1 412.6577 -439.8887)">
			<stop  offset="0" style="stop-color:#EB7680"/>
			<stop  offset="1" style="stop-color:#C1282F"/>
		</linearGradient>
		<path fill="url(#SVGID_6_)" d="M48.684,99.164h59.687c1.957,0,3.547,0.623,3.547,1.391l0,0c0,0.766-1.59,1.389-3.547,1.389H48.684
			c-1.961,0-3.549-0.623-3.549-1.389l0,0C45.135,99.787,46.723,99.164,48.684,99.164L48.684,99.164z"/>
		
			<linearGradient id="SVGID_7_" gradientUnits="userSpaceOnUse" x1="-385.3354" y1="-531.5942" x2="-385.3354" y2="-549.2856" gradientTransform="matrix(1 0 0 -1 412.6577 -439.8887)">
			<stop  offset="0" style="stop-color:#EB7680"/>
			<stop  offset="1" style="stop-color:#C1282F"/>
		</linearGradient>
		<path fill="url(#SVGID_7_)" d="M34.495,91.709c0.635,0,1.156,0.488,1.207,1.111c1.625,0.285,2.861,1.705,2.861,3.416v9.691
			c0,1.914-1.553,3.469-3.467,3.469h-0.777H19.545c-1.941-0.068-3.389-1.523-3.465-3.326v-9.297v-0.537
			c0-1.916,1.551-3.469,3.465-3.469h8.314c0.074-0.6,0.584-1.062,1.201-1.062h5.434V91.709z"/>
	</g>
</g>
</svg>
