<?xml version="1.0" encoding="utf-8"?>
<!-- Generator: Adobe Illustrator 13.0.0, SVG Export Plug-In . SVG Version: 6.00 Build 14948)  -->
<!DOCTYPE svg PUBLIC "-//W3C//DTD SVG 1.1//EN" "http://www.w3.org/Graphics/SVG/1.1/DTD/svg11.dtd">
<svg version="1.1" id="Layer_1" xmlns="http://www.w3.org/2000/svg" xmlns:xlink="http://www.w3.org/1999/xlink" x="0px" y="0px"
	 width="128px" height="128px" viewBox="0 0 128 128" enable-background="new 0 0 128 128" xml:space="preserve">
<g>
	
		<linearGradient id="SVGID_1_" gradientUnits="userSpaceOnUse" x1="-371.2451" y1="920.2666" x2="-409.2149" y2="893.6799" gradientTransform="matrix(1 0 0 1 412.6201 -813.9912)">
		<stop  offset="0" style="stop-color:#80C11B"/>
		<stop  offset="1" style="stop-color:#80E21B"/>
	</linearGradient>
	<path fill="url(#SVGID_1_)" d="M35.376,110.895c0,6.91-5.603,12.514-12.513,12.514h-0.946c-6.91,0-12.513-5.604-12.513-12.514
		V75.066c0-6.91,5.603-12.511,12.513-12.511h0.946c6.91,0,12.513,5.601,12.513,12.511V110.895z"/>
	
		<linearGradient id="SVGID_2_" gradientUnits="userSpaceOnUse" x1="-322.6885" y1="910.3428" x2="-374.5526" y2="874.0271" gradientTransform="matrix(1 0 0 1 412.6201 -813.9912)">
		<stop  offset="0" style="stop-color:#00B2DE"/>
		<stop  offset="1" style="stop-color:#99DBF6"/>
	</linearGradient>
	<path fill="url(#SVGID_2_)" d="M76.986,110.895c0,6.91-5.603,12.514-12.512,12.514h-0.947c-6.909,0-12.512-5.604-12.512-12.514
		V45.493c0-6.91,5.603-12.513,12.512-12.513h0.947c6.91,0,12.512,5.603,12.512,12.513V110.895z"/>
	
		<linearGradient id="SVGID_3_" gradientUnits="userSpaceOnUse" x1="-307.0068" y1="818.5352" x2="-307.0068" y2="937.4004" gradientTransform="matrix(1 0 0 1 412.6201 -813.9912)">
		<stop  offset="0" style="stop-color:#E20A16"/>
		<stop  offset="1" style="stop-color:#B51015"/>
	</linearGradient>
	<path fill="url(#SVGID_3_)" d="M118.6,110.895c0,6.91-5.603,12.514-12.513,12.514h-0.946c-6.91,0-12.513-5.604-12.513-12.514
		V17.057c0-6.91,5.603-12.513,12.513-12.513h0.946c6.91,0,12.513,5.603,12.513,12.513V110.895z"/>
	<path fill="#A51C20" d="M106.103,120.515h-0.946c-6.91,0-12.513-5.604-12.513-12.514v2.917c0,6.91,5.603,12.514,12.513,12.514
		h0.946c6.91,0,12.513-5.604,12.513-12.514v-2.917C118.615,114.911,113.013,120.515,106.103,120.515z"/>
	<path fill="#00A9DE" d="M64.269,120.515h-0.946c-6.91,0-12.513-5.604-12.513-12.514v2.917c0,6.91,5.603,12.514,12.513,12.514h0.946
		c6.91,0,12.513-5.604,12.513-12.514v-2.917C76.781,114.911,71.179,120.515,64.269,120.515z"/>
	<path fill="#58B300" d="M22.844,120.515h-0.946c-6.91,0-12.513-5.604-12.513-12.514v2.917c0,6.91,5.603,12.514,12.513,12.514h0.946
		c6.91,0,12.513-5.604,12.513-12.514v-2.917C35.356,114.911,29.754,120.515,22.844,120.515z"/>
	<path opacity="0.5" fill="#FFFFFF" d="M22.225,67.137h0.805c5.871,0,10.629,4.76,10.629,10.631V75.29
		c0-5.87-4.758-10.631-10.629-10.631h-0.805c-5.87,0-10.629,4.761-10.629,10.631v2.478C11.596,71.896,16.354,67.137,22.225,67.137z"
		/>
	<path opacity="0.5" fill="#FFFFFF" d="M63.568,37.997h0.805c5.871,0,10.629,4.76,10.629,10.631V46.15
		c0-5.87-4.758-10.631-10.629-10.631h-0.805c-5.87,0-10.629,4.761-10.629,10.631v2.478C52.939,42.757,57.698,37.997,63.568,37.997z"
		/>
	<path opacity="0.5" fill="#FFFFFF" d="M105.398,10.408h0.805c5.871,0,10.629,4.76,10.629,10.631v-2.478
		c0-5.87-4.758-10.631-10.629-10.631h-0.805c-5.87,0-10.629,4.761-10.629,10.631v2.478C94.77,15.168,99.528,10.408,105.398,10.408z"
		/>
</g>
</svg>
