<?xml version="1.0" encoding="utf-8"?>
<!-- Generator: Adobe Illustrator 13.0.0, SVG Export Plug-In . SVG Version: 6.00 Build 14948)  -->
<!DOCTYPE svg PUBLIC "-//W3C//DTD SVG 1.1//EN" "http://www.w3.org/Graphics/SVG/1.1/DTD/svg11.dtd">
<svg version="1.1" id="Layer_1" xmlns="http://www.w3.org/2000/svg" xmlns:xlink="http://www.w3.org/1999/xlink" x="0px" y="0px"
	 width="128px" height="128px" viewBox="0 0 128 128" enable-background="new 0 0 128 128" xml:space="preserve">
<g>
	<g>
		<path fill="#F2F2F2" stroke="#B3B3B3" stroke-width="2" d="M109.502,21.53H18.5c-9.342,0-16.914,7.572-16.914,16.91v67.379
			c0,9.342,7.572,16.914,16.914,16.914h91.002c9.34,0,16.912-7.572,16.912-16.914V38.44C126.414,29.103,118.842,21.53,109.502,21.53
			z"/>
		<linearGradient id="SVGID_1_" gradientUnits="userSpaceOnUse" x1="63.9351" y1="123.6211" x2="63.9351" y2="57.1197">
			<stop  offset="0.0934" style="stop-color:#D1D1D1"/>
			<stop  offset="0.431" style="stop-color:#D9D9D9"/>
			<stop  offset="0.9519" style="stop-color:#EFEFEF"/>
			<stop  offset="0.9725" style="stop-color:#F0F0F0"/>
		</linearGradient>
		<path fill="url(#SVGID_1_)" d="M38.496,87.011c-12.658,0-24.773-1.07-35.959-3.022v22.106c0,9.189,7.447,16.639,16.637,16.639
			h89.521c9.188,0,16.637-7.449,16.637-16.639V64.584C107.314,78.045,75.166,87.011,38.496,87.011z"/>
		<path fill="#B3B3B3" d="M108.934,119.717l-89.744,0.001c-9.211,0-16.678-7.469-16.678-16.681v3.288
			c0,9.213,7.467,16.68,16.678,16.68h89.744c9.209,0,16.676-7.467,16.676-16.68v-3.288
			C125.609,112.249,118.143,119.717,108.934,119.717z"/>
		<path fill="#FFFFFF" d="M105.5,26.055H21.315c-8.643,0-15.647,7.005-15.647,15.643v4.626c0-8.64,7.005-15.645,15.647-15.645H105.5
			c8.64,0,15.646,7.005,15.646,15.645v-4.626C121.146,33.06,114.14,26.055,105.5,26.055z"/>
	</g>
	<g>
		
			<linearGradient id="SVGID_2_" gradientUnits="userSpaceOnUse" x1="-333.4321" y1="-491.708" x2="-333.4321" y2="-494.4873" gradientTransform="matrix(1 0 0 -1 412.6577 -439.8887)">
			<stop  offset="0" style="stop-color:#EB7680"/>
			<stop  offset="1" style="stop-color:#C1282F"/>
		</linearGradient>
		<path fill="url(#SVGID_2_)" d="M49.38,51.819h59.689c1.959,0,3.549,0.621,3.549,1.391l0,0c0,0.766-1.59,1.389-3.549,1.389H49.38
			c-1.959,0-3.547-0.623-3.547-1.389l0,0C45.833,52.44,47.421,51.819,49.38,51.819L49.38,51.819z"/>
		
			<linearGradient id="SVGID_3_" gradientUnits="userSpaceOnUse" x1="-333.4321" y1="-515.7671" x2="-333.4321" y2="-518.5464" gradientTransform="matrix(1 0 0 -1 412.6577 -439.8887)">
			<stop  offset="0" style="stop-color:#EB7680"/>
			<stop  offset="1" style="stop-color:#C1282F"/>
		</linearGradient>
		<path fill="url(#SVGID_3_)" d="M49.38,75.878h59.689c1.959,0,3.549,0.621,3.549,1.391l0,0c0,0.768-1.59,1.389-3.549,1.389H49.38
			c-1.959,0-3.547-0.621-3.547-1.389l0,0C45.833,76.499,47.421,75.878,49.38,75.878L49.38,75.878z"/>
		
			<linearGradient id="SVGID_4_" gradientUnits="userSpaceOnUse" x1="-333.4321" y1="-539.8218" x2="-333.4321" y2="-542.605" gradientTransform="matrix(1 0 0 -1 412.6577 -439.8887)">
			<stop  offset="0" style="stop-color:#EB7680"/>
			<stop  offset="1" style="stop-color:#C1282F"/>
		</linearGradient>
		<path fill="url(#SVGID_4_)" d="M49.38,99.933h59.689c1.959,0,3.549,0.625,3.549,1.393l0,0c0,0.768-1.59,1.391-3.549,1.391H49.38
			c-1.959,0-3.547-0.623-3.547-1.391l0,0C45.833,100.558,47.421,99.933,49.38,99.933L49.38,99.933z"/>
		
			<linearGradient id="SVGID_5_" gradientUnits="userSpaceOnUse" x1="-385.8877" y1="-491.708" x2="-385.8877" y2="-494.4873" gradientTransform="matrix(1 0 0 -1 412.6577 -439.8887)">
			<stop  offset="0" style="stop-color:#EB7680"/>
			<stop  offset="1" style="stop-color:#C1282F"/>
		</linearGradient>
		<path fill="url(#SVGID_5_)" d="M16.593,51.819h20.355c0.668,0,1.209,0.621,1.209,1.391l0,0c0,0.766-0.541,1.389-1.209,1.389
			H16.593c-0.668,0-1.211-0.623-1.211-1.389l0,0C15.382,52.44,15.925,51.819,16.593,51.819L16.593,51.819z"/>
		
			<linearGradient id="SVGID_6_" gradientUnits="userSpaceOnUse" x1="-385.8877" y1="-515.7671" x2="-385.8877" y2="-518.5464" gradientTransform="matrix(1 0 0 -1 412.6577 -439.8887)">
			<stop  offset="0" style="stop-color:#EB7680"/>
			<stop  offset="1" style="stop-color:#C1282F"/>
		</linearGradient>
		<path fill="url(#SVGID_6_)" d="M16.593,75.878h20.355c0.668,0,1.209,0.621,1.209,1.391l0,0c0,0.768-0.541,1.389-1.209,1.389
			H16.593c-0.668,0-1.211-0.621-1.211-1.389l0,0C15.382,76.499,15.925,75.878,16.593,75.878L16.593,75.878z"/>
		
			<linearGradient id="SVGID_7_" gradientUnits="userSpaceOnUse" x1="-385.8877" y1="-539.8218" x2="-385.8877" y2="-542.605" gradientTransform="matrix(1 0 0 -1 412.6577 -439.8887)">
			<stop  offset="0" style="stop-color:#EB7680"/>
			<stop  offset="1" style="stop-color:#C1282F"/>
		</linearGradient>
		<path fill="url(#SVGID_7_)" d="M16.593,99.933h20.355c0.668,0,1.209,0.625,1.209,1.393l0,0c0,0.768-0.541,1.391-1.209,1.391
			H16.593c-0.668,0-1.211-0.623-1.211-1.391l0,0C15.382,100.558,15.925,99.933,16.593,99.933L16.593,99.933z"/>
	</g>
</g>
</svg>
