<?xml version="1.0" encoding="utf-8"?>
<!-- Generator: Adobe Illustrator 13.0.0, SVG Export Plug-In . SVG Version: 6.00 Build 14948)  -->
<!DOCTYPE svg PUBLIC "-//W3C//DTD SVG 1.1//EN" "http://www.w3.org/Graphics/SVG/1.1/DTD/svg11.dtd">
<svg version="1.1" id="Layer_1" xmlns="http://www.w3.org/2000/svg" xmlns:xlink="http://www.w3.org/1999/xlink" x="0px" y="0px"
	 width="128px" height="128px" viewBox="0 0 128 128" enable-background="new 0 0 128 128" xml:space="preserve">
<g>
	<path fill="#F2F2F2" stroke="#B3B3B3" stroke-width="2" d="M109.502,16.906H18.5c-9.342,0-16.914,7.572-16.914,16.91v67.379
		c0,9.342,7.572,16.914,16.914,16.914h91.002c9.34,0,16.912-7.572,16.912-16.914V33.816
		C126.414,24.478,118.842,16.906,109.502,16.906z"/>
	<linearGradient id="SVGID_1_" gradientUnits="userSpaceOnUse" x1="63.9351" y1="118.9971" x2="63.9351" y2="52.4957">
		<stop  offset="0.0934" style="stop-color:#D1D1D1"/>
		<stop  offset="0.431" style="stop-color:#D9D9D9"/>
		<stop  offset="0.9519" style="stop-color:#EFEFEF"/>
		<stop  offset="0.9725" style="stop-color:#F0F0F0"/>
	</linearGradient>
	<path fill="url(#SVGID_1_)" d="M38.496,82.387c-12.658,0-24.773-1.07-35.959-3.023v22.107c0,9.189,7.447,16.639,16.637,16.639
		h89.521c9.188,0,16.637-7.449,16.637-16.639V59.959C107.314,73.42,75.166,82.387,38.496,82.387z"/>
	<path fill="#B3B3B3" d="M108.934,115.092l-89.744,0.002c-9.211,0-16.678-7.469-16.678-16.682v3.289
		c0,9.213,7.467,16.68,16.678,16.68h89.744c9.209,0,16.676-7.467,16.676-16.68v-3.289
		C125.609,107.625,118.143,115.092,108.934,115.092z"/>
	<linearGradient id="SVGID_2_" gradientUnits="userSpaceOnUse" x1="64.1587" y1="17.2622" x2="64.1587" y2="49.1588">
		<stop  offset="0" style="stop-color:#99DBF6"/>
		<stop  offset="1" style="stop-color:#00B2DE"/>
	</linearGradient>
	<path fill="url(#SVGID_2_)" d="M125.838,45.579V34.4c0-9.229-7.482-16.712-16.713-16.712h-89.93
		c-9.232,0-16.715,7.483-16.715,16.713v11.178H125.838z"/>
	<path opacity="0.5" fill="#FFFFFF" d="M109.102,17.688h-89.91c-9.23,0-16.711,7.481-16.711,16.707v4.94
		c0-9.227,7.48-16.708,16.711-16.708h89.91c9.227,0,16.709,7.481,16.709,16.708v-4.94C125.811,25.169,118.328,17.688,109.102,17.688
		z"/>
	<g>
		<g>
			<polygon fill="#181512" points="68.233,61.195 110.128,61.195 110.128,64.28 68.233,64.28 			"/>
			<polygon fill="#181512" points="68.233,74.508 110.128,74.508 110.128,77.594 68.233,77.594 			"/>
			<polygon fill="#181512" points="68.233,87.822 110.128,87.822 110.128,90.908 68.233,90.908 			"/>
			<polygon fill="#181512" points="68.233,94.477 98.917,94.477 98.917,97.562 68.233,97.562 			"/>
			<polygon fill="#181512" points="68.233,67.85 98.917,67.85 98.917,70.936 68.233,70.936 			"/>
			<polygon fill="#181512" points="68.233,81.164 98.917,81.164 98.917,84.248 68.233,84.248 			"/>
		</g>
		
			<linearGradient id="SVGID_3_" gradientUnits="userSpaceOnUse" x1="2140.0186" y1="1188.207" x2="2111.9053" y2="1158.3231" gradientTransform="matrix(0.7097 -0.1473 0.1481 0.7096 -1648.8568 -438.0011)">
			<stop  offset="0" style="stop-color:#181500"/>
			<stop  offset="1" style="stop-color:#5F5D5C"/>
		</linearGradient>
		<path fill="url(#SVGID_3_)" d="M35.598,52.736c0,0-0.002,38.176,0.008,40.042c-8.104-2.539-18.022,2.971-17.728,8.34
			c0.193,3.523,4.396,6.811,10.949,5.75c6.215-1.004,9.838-4.951,9.908-8.643c0.066-3.484,0.006-34.563,0.006-34.563
			c3.776,2.315,5.795,3.608,7.739,7.045c1.933,3.412,1.112,6.855-1.569,11.078c-0.24,0.379,0.232,0.744,0.711,0.266
			c0.443-0.443,9.313-8.16,3.363-14.779c-2.395-2.666-3.383-3.67-5.01-5.297c-2.758-2.758-4.264-4.926-5.198-10.283L35.598,52.736z"
			/>
	</g>
</g>
</svg>
