<?xml version="1.0" encoding="utf-8"?>
<!-- Generator: Adobe Illustrator 13.0.0, SVG Export Plug-In . SVG Version: 6.00 Build 14948)  -->
<!DOCTYPE svg PUBLIC "-//W3C//DTD SVG 1.1//EN" "http://www.w3.org/Graphics/SVG/1.1/DTD/svg11.dtd">
<svg version="1.1" id="Layer_1" xmlns="http://www.w3.org/2000/svg" xmlns:xlink="http://www.w3.org/1999/xlink" x="0px" y="0px"
	 width="128px" height="128px" viewBox="0 0 128 128" enable-background="new 0 0 128 128" xml:space="preserve">
<g>
	<path fill="#F2F2F2" stroke="#B3B3B3" stroke-width="2" d="M109.502,16.905H18.5c-9.342,0-16.914,7.572-16.914,16.91v67.379
		c0,9.342,7.572,16.914,16.914,16.914h91.002c9.34,0,16.912-7.572,16.912-16.914V33.815
		C126.414,24.478,118.842,16.905,109.502,16.905z"/>
	<linearGradient id="SVGID_1_" gradientUnits="userSpaceOnUse" x1="63.9351" y1="118.9961" x2="63.9351" y2="52.4952">
		<stop  offset="0.0934" style="stop-color:#D1D1D1"/>
		<stop  offset="0.431" style="stop-color:#D9D9D9"/>
		<stop  offset="0.9519" style="stop-color:#EFEFEF"/>
		<stop  offset="0.9725" style="stop-color:#F0F0F0"/>
	</linearGradient>
	<path fill="url(#SVGID_1_)" d="M38.496,82.386c-12.658,0-24.773-1.07-35.959-3.022v22.106c0,9.189,7.447,16.639,16.637,16.639
		h89.521c9.188,0,16.637-7.449,16.637-16.639V59.959C107.314,73.42,75.166,82.386,38.496,82.386z"/>
	<path fill="#B3B3B3" d="M108.934,115.092l-89.744,0.001c-9.211,0-16.678-7.469-16.678-16.681v3.288
		c0,9.213,7.467,16.68,16.678,16.68h89.744c9.209,0,16.676-7.467,16.676-16.68v-3.288
		C125.609,107.624,118.143,115.092,108.934,115.092z"/>
	<linearGradient id="SVGID_2_" gradientUnits="userSpaceOnUse" x1="64.1587" y1="17.2617" x2="64.1587" y2="49.1583">
		<stop  offset="0" style="stop-color:#EC008C"/>
		<stop  offset="1" style="stop-color:#C4008C"/>
	</linearGradient>
	<path fill="url(#SVGID_2_)" d="M125.838,45.578V34.399c0-9.229-7.482-16.712-16.713-16.712h-89.93
		C9.963,17.688,2.48,25.171,2.48,34.4v11.178H125.838z"/>
	<path opacity="0.5" fill="#FFFFFF" d="M109.102,17.688h-89.91c-9.23,0-16.711,7.481-16.711,16.707v4.94
		c0-9.227,7.48-16.708,16.711-16.708h89.91c9.227,0,16.709,7.481,16.709,16.708v-4.94C125.811,25.169,118.328,17.688,109.102,17.688
		z"/>
	<g>
		<g>
			
				<linearGradient id="SVGID_3_" gradientUnits="userSpaceOnUse" x1="-375.0527" y1="870.2734" x2="-375.0527" y2="884.1895" gradientTransform="matrix(1 0 0 1 412.6201 -813.9912)">
				<stop  offset="0" style="stop-color:#EC008C"/>
				<stop  offset="1" style="stop-color:#C4008C"/>
			</linearGradient>
			<path fill="url(#SVGID_3_)" d="M44.527,68.386c0,1.002-0.813,1.812-1.813,1.812H32.419c-1,0-1.812-0.812-1.812-1.812V58.093
				c0-1.002,0.812-1.811,1.812-1.811h10.295c1,0,1.813,0.809,1.813,1.811V68.386L44.527,68.386z"/>
			
				<linearGradient id="SVGID_4_" gradientUnits="userSpaceOnUse" x1="-357.4316" y1="870.2734" x2="-357.4316" y2="884.1895" gradientTransform="matrix(1 0 0 1 412.6201 -813.9912)">
				<stop  offset="0" style="stop-color:#EC008C"/>
				<stop  offset="1" style="stop-color:#C4008C"/>
			</linearGradient>
			<path fill="url(#SVGID_4_)" d="M62.148,68.386c0,1.002-0.812,1.812-1.813,1.812H50.042c-1.001,0-1.813-0.811-1.813-1.812V58.093
				c0-1.002,0.812-1.811,1.813-1.811h10.292c1.003,0,1.812,0.809,1.812,1.811L62.148,68.386L62.148,68.386z"/>
			
				<linearGradient id="SVGID_5_" gradientUnits="userSpaceOnUse" x1="-339.8091" y1="870.2734" x2="-339.8091" y2="884.1895" gradientTransform="matrix(1 0 0 1 412.6201 -813.9912)">
				<stop  offset="0" style="stop-color:#EC008C"/>
				<stop  offset="1" style="stop-color:#C4008C"/>
			</linearGradient>
			<path fill="url(#SVGID_5_)" d="M79.771,68.386c0,1.002-0.813,1.812-1.813,1.812H67.664c-1,0-1.812-0.811-1.812-1.812V58.093
				c0-1.002,0.812-1.811,1.812-1.811h10.295c1,0,1.812,0.809,1.812,1.811V68.386L79.771,68.386z"/>
			
				<linearGradient id="SVGID_6_" gradientUnits="userSpaceOnUse" x1="-322.188" y1="870.2734" x2="-322.188" y2="884.1895" gradientTransform="matrix(1 0 0 1 412.6201 -813.9912)">
				<stop  offset="0" style="stop-color:#EC008C"/>
				<stop  offset="1" style="stop-color:#C4008C"/>
			</linearGradient>
			<path fill="url(#SVGID_6_)" d="M97.393,68.386c0,1.002-0.812,1.812-1.812,1.812H85.285c-1,0-1.812-0.811-1.812-1.812V58.093
				c0-1.002,0.812-1.811,1.812-1.811H95.58c1,0,1.812,0.809,1.812,1.811V68.386z"/>
		</g>
		<g>
			
				<linearGradient id="SVGID_7_" gradientUnits="userSpaceOnUse" x1="-375.0527" y1="887.5371" x2="-375.0527" y2="901.457" gradientTransform="matrix(1 0 0 1 412.6201 -813.9912)">
				<stop  offset="0" style="stop-color:#EC008C"/>
				<stop  offset="1" style="stop-color:#C4008C"/>
			</linearGradient>
			<path fill="url(#SVGID_7_)" d="M44.527,85.653c0,1-0.813,1.812-1.813,1.812H32.419c-1,0-1.812-0.812-1.812-1.812V75.358
				c0-1.002,0.812-1.812,1.812-1.812h10.295c1,0,1.813,0.812,1.813,1.812V85.653L44.527,85.653z"/>
			
				<linearGradient id="SVGID_8_" gradientUnits="userSpaceOnUse" x1="-357.4316" y1="887.5371" x2="-357.4316" y2="901.457" gradientTransform="matrix(1 0 0 1 412.6201 -813.9912)">
				<stop  offset="0" style="stop-color:#EC008C"/>
				<stop  offset="1" style="stop-color:#C4008C"/>
			</linearGradient>
			<path fill="url(#SVGID_8_)" d="M62.148,85.653c0,1-0.812,1.812-1.813,1.812H50.042c-1.001,0-1.813-0.812-1.813-1.812V75.358
				c0-1.002,0.812-1.812,1.813-1.812l10.292,0.004c1.003,0,1.812,0.809,1.812,1.811L62.148,85.653L62.148,85.653z"/>
			
				<linearGradient id="SVGID_9_" gradientUnits="userSpaceOnUse" x1="-339.8091" y1="887.5391" x2="-339.8091" y2="901.457" gradientTransform="matrix(1 0 0 1 412.6201 -813.9912)">
				<stop  offset="0" style="stop-color:#EC008C"/>
				<stop  offset="1" style="stop-color:#C4008C"/>
			</linearGradient>
			<path fill="url(#SVGID_9_)" d="M79.771,85.653c0,1-0.813,1.812-1.813,1.812H67.664c-1,0-1.812-0.812-1.812-1.812V75.358
				c0-1.002,0.812-1.811,1.812-1.811h10.295c1,0,1.812,0.809,1.812,1.811V85.653L79.771,85.653z"/>
			
				<linearGradient id="SVGID_10_" gradientUnits="userSpaceOnUse" x1="-322.188" y1="887.5391" x2="-322.188" y2="901.457" gradientTransform="matrix(1 0 0 1 412.6201 -813.9912)">
				<stop  offset="0" style="stop-color:#EC008C"/>
				<stop  offset="1" style="stop-color:#C4008C"/>
			</linearGradient>
			<path fill="url(#SVGID_10_)" d="M97.393,85.653c0,1-0.812,1.812-1.812,1.812H85.285c-1,0-1.812-0.812-1.812-1.812V75.358
				c0-1.002,0.812-1.811,1.812-1.811H95.58c1,0,1.812,0.809,1.812,1.811V85.653z"/>
		</g>
		<g>
			
				<linearGradient id="SVGID_11_" gradientUnits="userSpaceOnUse" x1="-375.0527" y1="904.8027" x2="-375.0527" y2="918.7227" gradientTransform="matrix(1 0 0 1 412.6201 -813.9912)">
				<stop  offset="0" style="stop-color:#EC008C"/>
				<stop  offset="1" style="stop-color:#C4008C"/>
			</linearGradient>
			<path fill="url(#SVGID_11_)" d="M44.527,102.919c0,1-0.813,1.812-1.813,1.812H32.419c-1,0-1.812-0.812-1.812-1.812V92.624
				c0-1,0.812-1.812,1.812-1.812l10.295,0.002c1,0,1.813,0.811,1.813,1.811V102.919L44.527,102.919z"/>
			
				<linearGradient id="SVGID_12_" gradientUnits="userSpaceOnUse" x1="-357.4316" y1="904.8047" x2="-357.4316" y2="918.7227" gradientTransform="matrix(1 0 0 1 412.6201 -813.9912)">
				<stop  offset="0" style="stop-color:#EC008C"/>
				<stop  offset="1" style="stop-color:#C4008C"/>
			</linearGradient>
			<path fill="url(#SVGID_12_)" d="M62.148,102.919c0,1-0.812,1.812-1.813,1.812H50.042c-1.001,0-1.813-0.812-1.813-1.812V92.624
				c0-1,0.812-1.811,1.813-1.811h10.292c1.003,0,1.812,0.811,1.812,1.811L62.148,102.919L62.148,102.919z"/>
			
				<linearGradient id="SVGID_13_" gradientUnits="userSpaceOnUse" x1="-339.8091" y1="904.8047" x2="-339.8091" y2="918.7227" gradientTransform="matrix(1 0 0 1 412.6201 -813.9912)">
				<stop  offset="0" style="stop-color:#EC008C"/>
				<stop  offset="1" style="stop-color:#C4008C"/>
			</linearGradient>
			<path fill="url(#SVGID_13_)" d="M79.771,102.919c0,1-0.813,1.812-1.813,1.812H67.664c-1,0-1.812-0.812-1.812-1.812V92.624
				c0-1,0.812-1.811,1.812-1.811h10.295c1,0,1.812,0.811,1.812,1.811V102.919L79.771,102.919z"/>
			
				<linearGradient id="SVGID_14_" gradientUnits="userSpaceOnUse" x1="-322.188" y1="904.8047" x2="-322.188" y2="918.7227" gradientTransform="matrix(1 0 0 1 412.6201 -813.9912)">
				<stop  offset="0" style="stop-color:#EC008C"/>
				<stop  offset="1" style="stop-color:#C4008C"/>
			</linearGradient>
			<path fill="url(#SVGID_14_)" d="M97.393,102.919c0,1-0.812,1.812-1.812,1.812H85.285c-1,0-1.812-0.812-1.812-1.812V92.624
				c0-1,0.812-1.811,1.812-1.811H95.58c1,0,1.812,0.811,1.812,1.811V102.919z"/>
		</g>
	</g>
	<g>
		<path fill="#F2F2F2" d="M77.864,82.706c0.728-0.451,1.581-0.715,2.499-0.715h30.8c0.908,0,1.755,0.258,2.477,0.701l0.365-0.33
			c-0.82-0.533-1.794-0.848-2.842-0.848h-30.8c-1.045,0-2.015,0.312-2.831,0.841L77.864,82.706z"/>
		<radialGradient id="SVGID_15_" cx="95.7324" cy="95.8867" r="17.8522" gradientUnits="userSpaceOnUse">
			<stop  offset="0" style="stop-color:#FAFAFA"/>
			<stop  offset="0.3629" style="stop-color:#E5E5E5"/>
			<stop  offset="1" style="stop-color:#C4C4C4"/>
		</radialGradient>
		<path fill="url(#SVGID_15_)" stroke="#808080" d="M91.581,108.534L77.062,87.065c-2.247-3.707-1.274-6.742,2.159-6.742h33.168
			c3.434,0,4.254,2.837,1.827,6.303l-14.14,22.348C97.649,112.441,93.826,112.241,91.581,108.534L91.581,108.534z"/>
		<radialGradient id="SVGID_16_" cx="96.1182" cy="63.9121" r="13.8481" gradientUnits="userSpaceOnUse">
			<stop  offset="0" style="stop-color:#FAFAFA"/>
			<stop  offset="0.4142" style="stop-color:#E3E3E3"/>
			<stop  offset="1" style="stop-color:#C7C7C7"/>
		</radialGradient>
		<path fill="url(#SVGID_16_)" stroke="#808080" d="M82.274,63.914c0-7.653,6.199-13.854,13.845-13.854s13.843,6.201,13.843,13.854
			c0,7.648-6.197,13.851-13.843,13.851S82.274,71.562,82.274,63.914L82.274,63.914z"/>
		<linearGradient id="SVGID_17_" gradientUnits="userSpaceOnUse" x1="102.3711" y1="56.8701" x2="102.3711" y2="64.0879">
			<stop  offset="0" style="stop-color:#80C11B"/>
			<stop  offset="1" style="stop-color:#80E21B"/>
		</linearGradient>
		<path fill="url(#SVGID_17_)" d="M98.765,60.479c0-1.993,1.615-3.608,3.608-3.608c1.99,0,3.605,1.615,3.605,3.608
			c0,1.995-1.615,3.609-3.605,3.609C100.38,64.088,98.765,62.474,98.765,60.479L98.765,60.479z"/>
		<path fill="#70993E" d="M102.368,60.396c0.993,0.828,2.336,0.372,3.174-0.061c-0.125-1.671-1.518-2.987-3.216-2.987
			c-1.709,0-3.104,1.327-3.218,3.007C99.883,59.976,101.298,59.499,102.368,60.396z"/>
		<path fill="#F2F2F2" d="M86.067,56.739c2.312-3.174,6.562-5.604,10.535-5.604c3.973,0,8.115,2.431,10.426,5.604h0.44
			c-2.45-3.737-6.426-6.18-10.92-6.18c-4.495,0-8.471,2.442-10.92,6.18H86.067z"/>
		<linearGradient id="SVGID_18_" gradientUnits="userSpaceOnUse" x1="96.1924" y1="75.1123" x2="96.1924" y2="68.9346">
			<stop  offset="0" style="stop-color:#00B2DE"/>
			<stop  offset="1" style="stop-color:#99DBF6"/>
		</linearGradient>
		<path fill="url(#SVGID_18_)" d="M106.675,68.935c-2.312,3.172-6.562,5.602-10.537,5.602c-3.972,0-8.112-2.43-10.426-5.602h-0.439
			c2.451,3.734,6.428,6.178,10.921,6.178c4.494,0,8.472-2.443,10.919-6.178H106.675z"/>
		<path fill="#BFBFBF" d="M113.8,84.009c-0.011,0.728-0.215,1.461-0.636,2.117l-14.128,22.018c-0.414,0.648-0.988,1.135-1.636,1.449
			l0.07,0.411c0.757-0.339,1.426-0.892,1.907-1.64l14.127-22.021c0.479-0.746,0.701-1.583,0.698-2.407L113.8,84.009z"/>
		<path opacity="0.5" fill="#FFFFFF" d="M80.61,91.034c4.117-3.25,9.313-5.197,14.965-5.197c5.57,0,10.695,1.887,14.781,5.053
			l2.488-3.934c2.27-3.236,1.498-5.885-1.708-5.885H80.15c-3.207,0-4.115,2.835-2.017,6.298L80.61,91.034z"/>
	</g>
</g>
</svg>
