<?xml version="1.0" encoding="utf-8"?>
<!-- Generator: Adobe Illustrator 13.0.0, SVG Export Plug-In . SVG Version: 6.00 Build 14948)  -->
<!DOCTYPE svg PUBLIC "-//W3C//DTD SVG 1.1//EN" "http://www.w3.org/Graphics/SVG/1.1/DTD/svg11.dtd">
<svg version="1.1" id="Layer_1" xmlns="http://www.w3.org/2000/svg" xmlns:xlink="http://www.w3.org/1999/xlink" x="0px" y="0px"
	 width="128px" height="128px" viewBox="0 0 128 128" enable-background="new 0 0 128 128" xml:space="preserve">
<g>
	<radialGradient id="SVGID_1_" cx="63.9746" cy="64" r="62.0547" gradientUnits="userSpaceOnUse">
		<stop  offset="0" style="stop-color:#FAFAFA"/>
		<stop  offset="0.3109" style="stop-color:#F4F4F4"/>
		<stop  offset="0.7262" style="stop-color:#E3E3E3"/>
		<stop  offset="1" style="stop-color:#D4D4D4"/>
	</radialGradient>
	<path fill="url(#SVGID_1_)" stroke="#B3B3B3" stroke-width="2" d="M18.855,1.923l90.233,0.006c9.342,0,16.914,7.578,16.914,16.927
		l0.006,90.294c0,9.348-7.574,16.926-16.916,16.926l-90.233-0.004c-9.341,0-16.915-7.58-16.915-16.928L1.941,18.85
		C1.94,9.502,9.514,1.923,18.855,1.923L18.855,1.923z"/>
	<path fill="#B3B3B3" d="M109.119,120.9l-90.372-0.006c-8.541,0-15.588-6.334-16.753-14.561v2.414
		c0,9.35,7.574,16.928,16.915,16.928l90.235,0.004c9.34,0,16.914-7.578,16.914-16.926v-4.803
		C126.055,113.311,118.471,120.9,109.119,120.9z"/>
	<path fill="#FFFFFF" d="M21.897,10.786l84.33,0.004c7.971,0,14.545,5.911,15.631,13.588v-2.254c0-8.724-7.066-15.795-15.783-15.795
		L21.876,6.324c-8.718,0-15.784,7.073-15.784,15.796v4.48C6.094,17.867,13.17,10.786,21.897,10.786z"/>
	<g>
		
			<linearGradient id="SVGID_2_" gradientUnits="userSpaceOnUse" x1="-348.6465" y1="846.8359" x2="-348.6465" y2="913.1445" gradientTransform="matrix(1 0 0 1 412.6201 -813.9912)">
			<stop  offset="0" style="stop-color:#E20A16"/>
			<stop  offset="1" style="stop-color:#B51015"/>
		</linearGradient>
		<circle fill="url(#SVGID_2_)" cx="63.974" cy="65.999" r="33.154"/>
		<g>
			<g>
				
					<linearGradient id="SVGID_3_" gradientUnits="userSpaceOnUse" x1="-300.3135" y1="913.834" x2="-396.9782" y2="846.1486" gradientTransform="matrix(1 0 0 1 412.6201 -813.9912)">
					<stop  offset="0" style="stop-color:#DEDEDE"/>
					<stop  offset="1" style="stop-color:#FEFEFE"/>
				</linearGradient>
				<path fill="url(#SVGID_3_)" d="M106.77,24.75c0-0.879-0.713-1.59-1.592-1.59H22.77c-0.878,0-1.591,0.711-1.591,1.59
					c0,0.016,0.005,0.029,0.005,0.045s-0.005,0.029-0.005,0.045v82.411c0,0.877,0.713,1.59,1.591,1.59h82.408
					c0.66,0,1.225-0.4,1.465-0.971c0.08-0.189,0.125-0.398,0.125-0.619V24.841c0-0.016-0.004-0.03-0.006-0.046
					C106.764,24.779,106.77,24.765,106.77,24.75z M60.986,63.167h5.977v5.956h-5.977V63.167z M57.806,69.123h-5.978v-5.956h5.978
					V69.123z M70.143,63.167h5.977v5.956h-5.977V63.167z M70.143,59.989v-5.954h5.977v5.954H70.143z M66.963,59.989h-5.977v-5.954
					h5.977V59.989z M57.806,59.989h-5.978v-5.954h5.978V59.989z M48.649,59.989h-5.977v-5.954h5.977V59.989z M48.649,63.167v5.956
					h-5.977v-5.956H48.649z M48.649,72.303v5.955h-5.977v-5.955H48.649z M51.829,72.303h5.978v5.955h-5.978V72.303z M60.986,72.303
					h5.977v5.955h-5.977V72.303z M70.143,72.303h5.977v5.955h-5.977V72.303z M79.299,72.303h5.977v5.955h-5.977V72.303z
					 M79.299,69.123v-5.956h5.977v5.956H79.299z M79.299,59.989v-5.954h5.977v5.954H79.299z M79.299,50.855v-5.954h5.977v5.954
					H79.299z M76.119,50.855h-5.977v-5.954h5.977V50.855z M66.963,50.855h-5.977v-5.954h5.977V50.855z M57.806,50.855h-5.978v-5.954
					h5.978V50.855z M48.649,50.855h-5.977v-5.954h5.977V50.855z M39.493,50.855h-5.978v-5.954h5.978V50.855z M39.493,54.035v5.954
					h-5.978v-5.954H39.493z M39.493,63.167v5.956h-5.978v-5.956H39.493z M39.493,72.303v5.955h-5.978v-5.955H39.493z M39.493,81.438
					v5.955h-5.978v-5.955H39.493z M42.672,81.438h5.977v5.955h-5.977V81.438z M51.829,81.438h5.978v5.955h-5.978V81.438z
					 M60.986,81.438h5.977v5.955h-5.977V81.438z M70.143,81.438h5.977v5.955h-5.977V81.438z M79.299,81.438h5.977v5.955h-5.977
					V81.438z M88.455,81.438h5.979v5.955h-5.979V81.438z M88.455,78.258v-5.955h5.979v5.955H88.455z M88.455,69.123v-5.956h5.979
					v5.956H88.455z M88.455,59.989v-5.954h5.979v5.954H88.455z M88.455,50.855v-5.954h5.979v5.954H88.455z M88.455,41.721v-5.956
					h5.979v5.956H88.455z M85.275,41.721h-5.977v-5.956h5.977V41.721z M76.119,41.721h-5.977v-5.956h5.977V41.721z M66.963,41.721
					h-5.977v-5.956h5.977V41.721z M57.806,41.721h-5.978v-5.956h5.978V41.721z M48.649,41.721h-5.977v-5.956h5.977V41.721z
					 M39.493,41.721h-5.978v-5.956h5.978V41.721z M30.336,41.721H24.36v-5.956h5.977V41.721z M30.336,44.9v5.955H24.36V44.9H30.336z
					 M30.336,54.035v5.954H24.36v-5.954H30.336z M30.336,63.167v5.956H24.36v-5.956H30.336z M30.336,72.303v5.955H24.36v-5.955
					H30.336z M30.336,81.438v5.955H24.36v-5.955H30.336z M30.336,90.57v5.955H24.36V90.57H30.336z M33.517,90.57h5.977v5.955h-5.977
					V90.57z M42.672,90.57h5.977v5.955h-5.977V90.57z M51.829,90.57h5.978v5.955h-5.978V90.57z M60.986,90.57h5.977v5.955h-5.977
					V90.57z M70.143,90.57h5.977v5.955h-5.977V90.57z M79.299,90.57h5.977v5.955h-5.977V90.57z M88.455,90.57h5.979v5.955h-5.979
					V90.57z M97.611,90.57h5.977v5.955h-5.977V90.57z M97.611,87.393v-5.955h5.977v5.955H97.611z M97.611,78.258v-5.955h5.977v5.955
					H97.611z M97.611,69.123v-5.956h5.977v5.956H97.611z M97.611,59.989v-5.954h5.977v5.954H97.611z M97.611,50.855v-5.954h5.977
					v5.954H97.611z M97.611,41.721v-5.956h5.977v5.956H97.611z M97.611,32.587v-6.248h5.977v6.248H97.611z M94.432,32.587h-5.979
					v-6.248h5.979V32.587z M85.275,32.587h-5.977v-6.248h5.977V32.587z M76.119,32.587h-5.977v-6.248h5.977V32.587z M66.963,32.587
					h-5.977v-6.248h5.977V32.587z M57.806,32.587h-5.978v-6.248h5.978V32.587z M48.649,32.587h-5.977v-6.248h5.977V32.587z
					 M39.493,32.587h-5.978v-6.248h5.978V32.587z M30.336,32.587H24.36v-6.248h5.977V32.587z M24.36,99.705h5.977v5.955H24.36
					V99.705z M33.517,99.705h5.977v5.955h-5.977V99.705z M42.672,99.705h5.977v5.955h-5.977V99.705z M51.829,99.705h5.978v5.955
					h-5.978V99.705z M60.986,99.705h5.977v5.955h-5.977V99.705z M70.143,99.705h5.977v5.955h-5.977V99.705z M79.299,99.705h5.977
					v5.955h-5.977V99.705z M88.455,99.705h5.979v5.955h-5.979V99.705z M97.611,99.705h5.977v5.955h-5.977V99.705z"/>
			</g>
			<g>
				<path fill="none" stroke="#969696" stroke-miterlimit="3.8637" d="M106.77,24.75c0-0.879-0.713-1.59-1.592-1.59H22.77
					c-0.878,0-1.591,0.711-1.591,1.59c0,0.016,0.005,0.029,0.005,0.045s-0.005,0.029-0.005,0.045v82.411
					c0,0.877,0.713,1.59,1.591,1.59h82.408c0.66,0,1.225-0.4,1.465-0.971c0.08-0.189,0.125-0.398,0.125-0.619V24.841
					c0-0.016-0.004-0.03-0.006-0.046C106.764,24.779,106.77,24.765,106.77,24.75z M60.986,63.167h5.977v5.956h-5.977V63.167z
					 M57.806,69.123h-5.978v-5.956h5.978V69.123z M70.143,63.167h5.977v5.956h-5.977V63.167z M70.143,59.989v-5.954h5.977v5.954
					H70.143z M66.963,59.989h-5.977v-5.954h5.977V59.989z M57.806,59.989h-5.978v-5.954h5.978V59.989z M48.649,59.989h-5.977v-5.954
					h5.977V59.989z M48.649,63.167v5.956h-5.977v-5.956H48.649z M48.649,72.303v5.955h-5.977v-5.955H48.649z M51.829,72.303h5.978
					v5.955h-5.978V72.303z M60.986,72.303h5.977v5.955h-5.977V72.303z M70.143,72.303h5.977v5.955h-5.977V72.303z M79.299,72.303
					h5.977v5.955h-5.977V72.303z M79.299,69.123v-5.956h5.977v5.956H79.299z M79.299,59.989v-5.954h5.977v5.954H79.299z
					 M79.299,50.855v-5.954h5.977v5.954H79.299z M76.119,50.855h-5.977v-5.954h5.977V50.855z M66.963,50.855h-5.977v-5.954h5.977
					V50.855z M57.806,50.855h-5.978v-5.954h5.978V50.855z M48.649,50.855h-5.977v-5.954h5.977V50.855z M39.493,50.855h-5.978v-5.954
					h5.978V50.855z M39.493,54.035v5.954h-5.978v-5.954H39.493z M39.493,63.167v5.956h-5.978v-5.956H39.493z M39.493,72.303v5.955
					h-5.978v-5.955H39.493z M39.493,81.438v5.955h-5.978v-5.955H39.493z M42.672,81.438h5.977v5.955h-5.977V81.438z M51.829,81.438
					h5.978v5.955h-5.978V81.438z M60.986,81.438h5.977v5.955h-5.977V81.438z M70.143,81.438h5.977v5.955h-5.977V81.438z
					 M79.299,81.438h5.977v5.955h-5.977V81.438z M88.455,81.438h5.979v5.955h-5.979V81.438z M88.455,78.258v-5.955h5.979v5.955
					H88.455z M88.455,69.123v-5.956h5.979v5.956H88.455z M88.455,59.989v-5.954h5.979v5.954H88.455z M88.455,50.855v-5.954h5.979
					v5.954H88.455z M88.455,41.721v-5.956h5.979v5.956H88.455z M85.275,41.721h-5.977v-5.956h5.977V41.721z M76.119,41.721h-5.977
					v-5.956h5.977V41.721z M66.963,41.721h-5.977v-5.956h5.977V41.721z M57.806,41.721h-5.978v-5.956h5.978V41.721z M48.649,41.721
					h-5.977v-5.956h5.977V41.721z M39.493,41.721h-5.978v-5.956h5.978V41.721z M30.336,41.721H24.36v-5.956h5.977V41.721z
					 M30.336,44.9v5.955H24.36V44.9H30.336z M30.336,54.035v5.954H24.36v-5.954H30.336z M30.336,63.167v5.956H24.36v-5.956H30.336z
					 M30.336,72.303v5.955H24.36v-5.955H30.336z M30.336,81.438v5.955H24.36v-5.955H30.336z M30.336,90.57v5.955H24.36V90.57H30.336
					z M33.517,90.57h5.977v5.955h-5.977V90.57z M42.672,90.57h5.977v5.955h-5.977V90.57z M51.829,90.57h5.978v5.955h-5.978V90.57z
					 M60.986,90.57h5.977v5.955h-5.977V90.57z M70.143,90.57h5.977v5.955h-5.977V90.57z M79.299,90.57h5.977v5.955h-5.977V90.57z
					 M88.455,90.57h5.979v5.955h-5.979V90.57z M97.611,90.57h5.977v5.955h-5.977V90.57z M97.611,87.393v-5.955h5.977v5.955H97.611z
					 M97.611,78.258v-5.955h5.977v5.955H97.611z M97.611,69.123v-5.956h5.977v5.956H97.611z M97.611,59.989v-5.954h5.977v5.954
					H97.611z M97.611,50.855v-5.954h5.977v5.954H97.611z M97.611,41.721v-5.956h5.977v5.956H97.611z M97.611,32.587v-6.248h5.977
					v6.248H97.611z M94.432,32.587h-5.979v-6.248h5.979V32.587z M85.275,32.587h-5.977v-6.248h5.977V32.587z M76.119,32.587h-5.977
					v-6.248h5.977V32.587z M66.963,32.587h-5.977v-6.248h5.977V32.587z M57.806,32.587h-5.978v-6.248h5.978V32.587z M48.649,32.587
					h-5.977v-6.248h5.977V32.587z M39.493,32.587h-5.978v-6.248h5.978V32.587z M30.336,32.587H24.36v-6.248h5.977V32.587z
					 M24.36,99.705h5.977v5.955H24.36V99.705z M33.517,99.705h5.977v5.955h-5.977V99.705z M42.672,99.705h5.977v5.955h-5.977V99.705
					z M51.829,99.705h5.978v5.955h-5.978V99.705z M60.986,99.705h5.977v5.955h-5.977V99.705z M70.143,99.705h5.977v5.955h-5.977
					V99.705z M79.299,99.705h5.977v5.955h-5.977V99.705z M88.455,99.705h5.979v5.955h-5.979V99.705z M97.611,99.705h5.977v5.955
					h-5.977V99.705z"/>
			</g>
		</g>
	</g>
</g>
</svg>
