<?xml version="1.0" encoding="utf-8"?>
<!-- Generator: Adobe Illustrator 13.0.0, SVG Export Plug-In . SVG Version: 6.00 Build 14948)  -->
<!DOCTYPE svg PUBLIC "-//W3C//DTD SVG 1.1//EN" "http://www.w3.org/Graphics/SVG/1.1/DTD/svg11.dtd">
<svg version="1.1" id="Layer_1" xmlns="http://www.w3.org/2000/svg" xmlns:xlink="http://www.w3.org/1999/xlink" x="0px" y="0px"
	 width="128px" height="128px" viewBox="0 0 128 128" enable-background="new 0 0 128 128" xml:space="preserve">
<g>
	<path fill="#F2F2F2" stroke="#B3B3B3" stroke-width="2" d="M109.501,16.905H18.499c-9.342,0-16.914,7.572-16.914,16.91v67.379
		c0,9.342,7.572,16.914,16.914,16.914h91.002c9.34,0,16.912-7.572,16.912-16.914V33.815
		C126.413,24.478,118.841,16.905,109.501,16.905z"/>
	<linearGradient id="SVGID_1_" gradientUnits="userSpaceOnUse" x1="63.9341" y1="118.9961" x2="63.9341" y2="52.4952">
		<stop  offset="0.0934" style="stop-color:#D1D1D1"/>
		<stop  offset="0.431" style="stop-color:#D9D9D9"/>
		<stop  offset="0.9519" style="stop-color:#EFEFEF"/>
		<stop  offset="0.9725" style="stop-color:#F0F0F0"/>
	</linearGradient>
	<path fill="url(#SVGID_1_)" d="M38.495,82.386c-12.658,0-24.773-1.07-35.959-3.022v22.106c0,9.189,7.447,16.639,16.637,16.639
		h89.521c9.188,0,16.637-7.449,16.637-16.639V59.959C107.313,73.42,75.165,82.386,38.495,82.386z"/>
	<path fill="#B3B3B3" d="M108.933,115.092l-89.744,0.001c-9.211,0-16.678-7.469-16.678-16.681v3.288
		c0,9.213,7.467,16.68,16.678,16.68h89.744c9.209,0,16.676-7.467,16.676-16.68v-3.288
		C125.608,107.624,118.142,115.092,108.933,115.092z"/>
	<linearGradient id="SVGID_2_" gradientUnits="userSpaceOnUse" x1="64.1577" y1="17.2617" x2="64.1577" y2="49.1583">
		<stop  offset="0" style="stop-color:#FF9D00"/>
		<stop  offset="1" style="stop-color:#FF1F00"/>
	</linearGradient>
	<path fill="url(#SVGID_2_)" d="M125.837,45.578V34.399c0-9.229-7.482-16.712-16.713-16.712h-89.93
		c-9.232,0-16.715,7.483-16.715,16.713v11.178H125.837z"/>
	<path opacity="0.5" fill="#FFFFFF" d="M109.101,17.688H19.19c-9.23,0-16.711,7.481-16.711,16.707v4.94
		c0-9.227,7.48-16.708,16.711-16.708h89.91c9.227,0,16.709,7.481,16.709,16.708v-4.94C125.81,25.169,118.327,17.688,109.101,17.688z
		"/>
	<g>
		<linearGradient id="SVGID_3_" gradientUnits="userSpaceOnUse" x1="101.3828" y1="71.3604" x2="101.3828" y2="110.0713">
			<stop  offset="0" style="stop-color:#5F5D5C"/>
			<stop  offset="1" style="stop-color:#181500"/>
		</linearGradient>
		<circle fill="url(#SVGID_3_)" cx="101.383" cy="90.717" r="19.355"/>
		<radialGradient id="SVGID_4_" cx="101.3828" cy="90.7168" r="16.5171" gradientUnits="userSpaceOnUse">
			<stop  offset="0" style="stop-color:#FAFAFA"/>
			<stop  offset="0.3109" style="stop-color:#F4F4F4"/>
			<stop  offset="0.7262" style="stop-color:#E3E3E3"/>
			<stop  offset="1" style="stop-color:#D4D4D4"/>
		</radialGradient>
		<circle fill="url(#SVGID_4_)" cx="101.383" cy="90.717" r="16.517"/>
		<path opacity="0.5" fill="#FFFFFF" d="M85.671,82.262c3.539-5.153,9.714-9.376,15.796-9.376c6.081,0,12.092,4.223,15.629,9.376
			h0.673c-3.749-6.065-9.506-10.307-16.385-10.307s-12.637,4.241-16.386,10.307H85.671z"/>
		<g>
			
				<linearGradient id="SVGID_5_" gradientUnits="userSpaceOnUse" x1="159.627" y1="67.1797" x2="164.4307" y2="67.1797" gradientTransform="matrix(0.9999 -0.0166 0.0166 0.9999 -61.8602 26.7754)">
				<stop  offset="0" style="stop-color:#5F5D5C"/>
				<stop  offset="1" style="stop-color:#181500"/>
			</linearGradient>
			<path fill="url(#SVGID_5_)" d="M103.67,91.219c-0.022-1.326-1.116-2.384-2.441-2.361c-1.326,0.022-2.384,1.114-2.362,2.441
				c0.022,1.327,1.116,2.384,2.442,2.36C102.634,93.638,103.691,92.545,103.67,91.219"/>
			
				<linearGradient id="SVGID_6_" gradientUnits="userSpaceOnUse" x1="154.3291" y1="69.7119" x2="163.042" y2="69.7119" gradientTransform="matrix(0.9999 -0.0166 0.0166 0.9999 -61.8602 26.7754)">
				<stop  offset="0" style="stop-color:#5F5D5C"/>
				<stop  offset="1" style="stop-color:#181500"/>
			</linearGradient>
			<path fill="url(#SVGID_6_)" d="M102.144,91.001c-0.251-0.368-0.756-0.467-1.125-0.213l-7.014,4.776
				c-0.371,0.253-0.466,0.757-0.215,1.128c0.252,0.369,0.758,0.467,1.126,0.214l7.015-4.778
				C102.302,91.875,102.396,91.37,102.144,91.001"/>
			
				<linearGradient id="SVGID_7_" gradientUnits="userSpaceOnUse" x1="161.8252" y1="60.999" x2="162.8389" y2="60.999" gradientTransform="matrix(0.9999 -0.0166 0.0166 0.9999 -61.8602 26.7754)">
				<stop  offset="0" style="stop-color:#5F5D5C"/>
				<stop  offset="1" style="stop-color:#181500"/>
			</linearGradient>
			<path fill="url(#SVGID_7_)" d="M101.465,78.284c-0.224,0-0.405,0.184-0.404,0.405l0.008,12.77c0,0.222,0.181,0.405,0.406,0.404
				s0.405-0.183,0.405-0.406l-0.01-12.768C101.87,78.466,101.69,78.284,101.465,78.284"/>
			
				<linearGradient id="SVGID_8_" gradientUnits="userSpaceOnUse" x1="160.6416" y1="67.1787" x2="163.416" y2="67.1787" gradientTransform="matrix(0.9999 -0.0166 0.0166 0.9999 -61.8602 26.7754)">
				<stop  offset="0" style="stop-color:#5F5D5C"/>
				<stop  offset="1" style="stop-color:#181500"/>
			</linearGradient>
			<path fill="url(#SVGID_8_)" d="M102.655,91.235c-0.012-0.765-0.643-1.378-1.41-1.365c-0.767,0.014-1.376,0.646-1.364,1.412
				c0.013,0.765,0.643,1.377,1.41,1.364C102.06,92.634,102.669,92.001,102.655,91.235"/>
		</g>
	</g>
</g>
</svg>
