<?xml version="1.0" encoding="utf-8"?>
<!-- Generator: Adobe Illustrator 13.0.0, SVG Export Plug-In . SVG Version: 6.00 Build 14948)  -->
<!DOCTYPE svg PUBLIC "-//W3C//DTD SVG 1.1//EN" "http://www.w3.org/Graphics/SVG/1.1/DTD/svg11.dtd">
<svg version="1.1" id="Layer_1" xmlns="http://www.w3.org/2000/svg" xmlns:xlink="http://www.w3.org/1999/xlink" x="0px" y="0px"
	 width="128px" height="128px" viewBox="0 0 128 128" enable-background="new 0 0 128 128" xml:space="preserve">
<g>
	<g>
		<path fill="#F2F2F2" stroke="#B3B3B3" stroke-width="2" d="M109.502,21.658H18.5c-9.342,0-16.914,7.572-16.914,16.91v67.379
			c0,9.342,7.572,16.914,16.914,16.914h91.001c9.34,0,16.912-7.572,16.912-16.914V38.568
			C126.414,29.23,118.842,21.658,109.502,21.658z"/>
		<linearGradient id="SVGID_1_" gradientUnits="userSpaceOnUse" x1="63.9351" y1="123.749" x2="63.9351" y2="57.2476">
			<stop  offset="0.0934" style="stop-color:#D1D1D1"/>
			<stop  offset="0.431" style="stop-color:#D9D9D9"/>
			<stop  offset="0.9519" style="stop-color:#EFEFEF"/>
			<stop  offset="0.9725" style="stop-color:#F0F0F0"/>
		</linearGradient>
		<path fill="url(#SVGID_1_)" d="M38.497,87.139c-12.658,0-24.773-1.07-35.959-3.022v22.106c0,9.189,7.447,16.639,16.637,16.639
			h89.521c9.188,0,16.637-7.449,16.637-16.639V64.712C107.314,78.173,75.166,87.139,38.497,87.139z"/>
		<path fill="#B3B3B3" d="M108.934,119.845l-89.744,0.001c-9.211,0-16.678-7.469-16.678-16.681v3.288
			c0,9.213,7.467,16.68,16.678,16.68h89.744c9.209,0,16.676-7.467,16.676-16.68v-3.288
			C125.609,112.377,118.143,119.845,108.934,119.845z"/>
		<path fill="#FFFFFF" d="M105.5,26.183H21.316c-8.643,0-15.647,7.005-15.647,15.643v4.626c0-8.64,7.005-15.645,15.647-15.645H105.5
			c8.641,0,15.646,7.005,15.646,15.645v-4.626C121.146,33.188,114.141,26.183,105.5,26.183z"/>
	</g>
	<g>
		
			<linearGradient id="SVGID_2_" gradientUnits="userSpaceOnUse" x1="-348.6572" y1="-482.9775" x2="-348.6572" y2="-500.4531" gradientTransform="matrix(1 0 0 -1 412.6577 -439.8887)">
			<stop  offset="0" style="stop-color:#EB7680"/>
			<stop  offset="1" style="stop-color:#C1282F"/>
		</linearGradient>
		<path fill="url(#SVGID_2_)" d="M71.088,43.089c0.627,0,1.146,0.481,1.191,1.098c1.607,0.283,2.828,1.687,2.828,3.375v9.576
			c0,1.894-1.533,3.427-3.424,3.427h-0.77H56.317c-1.954,0-3.424-1.472-3.424-3.285v-9.185v-0.533c0-1.892,1.533-3.425,3.424-3.425
			h8.216c0.072-0.592,0.576-1.048,1.186-1.048H71.088L71.088,43.089z"/>
		
			<linearGradient id="SVGID_3_" gradientUnits="userSpaceOnUse" x1="-348.6572" y1="-506.9097" x2="-348.6572" y2="-524.3882" gradientTransform="matrix(1 0 0 -1 412.6577 -439.8887)">
			<stop  offset="0" style="stop-color:#EB7680"/>
			<stop  offset="1" style="stop-color:#C1282F"/>
		</linearGradient>
		<path fill="url(#SVGID_3_)" d="M71.088,67.021c0.627,0,1.146,0.483,1.191,1.101c1.607,0.283,2.828,1.687,2.828,3.375v9.576
			c0,1.894-1.533,3.426-3.424,3.426h-0.77H56.317c-1.954,0-3.424-1.471-3.424-3.284v-9.187v-0.531c0-1.895,1.533-3.426,3.424-3.426
			h8.216c0.072-0.594,0.576-1.051,1.186-1.051L71.088,67.021L71.088,67.021z"/>
		
			<linearGradient id="SVGID_4_" gradientUnits="userSpaceOnUse" x1="-348.6572" y1="-530.8413" x2="-348.6572" y2="-548.3198" gradientTransform="matrix(1 0 0 -1 412.6577 -439.8887)">
			<stop  offset="0" style="stop-color:#EB7680"/>
			<stop  offset="1" style="stop-color:#C1282F"/>
		</linearGradient>
		<path fill="url(#SVGID_4_)" d="M71.088,90.952c0.627,0,1.146,0.483,1.191,1.102c1.607,0.281,2.828,1.688,2.828,3.374v9.577
			c0,1.895-1.533,3.426-3.424,3.426h-0.77H56.317c-1.954,0-3.424-1.471-3.424-3.284V95.96v-0.532c0-1.892,1.533-3.427,3.424-3.427
			h8.216c0.072-0.59,0.576-1.049,1.186-1.049H71.088L71.088,90.952z"/>
		
			<linearGradient id="SVGID_5_" gradientUnits="userSpaceOnUse" x1="-308.8511" y1="-482.9775" x2="-308.8511" y2="-500.4531" gradientTransform="matrix(1 0 0 -1 412.6577 -439.8887)">
			<stop  offset="0" style="stop-color:#EB7680"/>
			<stop  offset="1" style="stop-color:#C1282F"/>
		</linearGradient>
		<path fill="url(#SVGID_5_)" d="M110.895,43.089c0.627,0,1.143,0.481,1.191,1.098c1.605,0.283,2.828,1.687,2.828,3.375v9.576
			c0,1.894-1.533,3.427-3.426,3.427h-0.771H96.123c-1.953,0-3.424-1.472-3.424-3.285v-9.185v-0.533c0-1.892,1.533-3.425,3.424-3.425
			h8.215c0.074-0.592,0.578-1.048,1.189-1.048H110.895L110.895,43.089z"/>
		
			<linearGradient id="SVGID_6_" gradientUnits="userSpaceOnUse" x1="-308.8511" y1="-506.9097" x2="-308.8511" y2="-524.3882" gradientTransform="matrix(1 0 0 -1 412.6577 -439.8887)">
			<stop  offset="0" style="stop-color:#EB7680"/>
			<stop  offset="1" style="stop-color:#C1282F"/>
		</linearGradient>
		<path fill="url(#SVGID_6_)" d="M110.895,67.021c0.627,0,1.143,0.483,1.191,1.101c1.605,0.283,2.828,1.687,2.828,3.375v9.576
			c0,1.894-1.533,3.426-3.426,3.426h-0.771H96.123c-1.953,0-3.424-1.471-3.424-3.284v-9.187v-0.531c0-1.895,1.533-3.426,3.424-3.426
			h8.215c0.074-0.594,0.578-1.051,1.189-1.051L110.895,67.021L110.895,67.021z"/>
		
			<linearGradient id="SVGID_7_" gradientUnits="userSpaceOnUse" x1="-308.8511" y1="-530.8413" x2="-308.8511" y2="-548.3198" gradientTransform="matrix(1 0 0 -1 412.6577 -439.8887)">
			<stop  offset="0" style="stop-color:#EB7680"/>
			<stop  offset="1" style="stop-color:#C1282F"/>
		</linearGradient>
		<path fill="url(#SVGID_7_)" d="M110.895,90.952c0.627,0,1.143,0.483,1.191,1.102c1.605,0.281,2.828,1.688,2.828,3.374v9.577
			c0,1.895-1.533,3.426-3.426,3.426h-0.771H96.123c-1.953,0-3.424-1.471-3.424-3.284V95.96v-0.532c0-1.892,1.533-3.427,3.424-3.427
			h8.215c0.074-0.59,0.578-1.049,1.189-1.049H110.895L110.895,90.952z"/>
		
			<linearGradient id="SVGID_8_" gradientUnits="userSpaceOnUse" x1="-388.4634" y1="-482.9775" x2="-388.4634" y2="-500.4531" gradientTransform="matrix(1 0 0 -1 412.6577 -439.8887)">
			<stop  offset="0" style="stop-color:#EB7680"/>
			<stop  offset="1" style="stop-color:#C1282F"/>
		</linearGradient>
		<path fill="url(#SVGID_8_)" d="M31.282,43.089c0.627,0,1.143,0.481,1.192,1.098c1.606,0.283,2.827,1.687,2.827,3.375v9.576
			c0,1.894-1.532,3.427-3.424,3.427h-0.77H16.51c-1.953,0-3.424-1.472-3.424-3.285v-9.185v-0.533c0-1.892,1.533-3.425,3.424-3.425
			h8.217c0.072-0.592,0.576-1.048,1.188-1.048H31.282L31.282,43.089z"/>
		
			<linearGradient id="SVGID_9_" gradientUnits="userSpaceOnUse" x1="-388.4634" y1="-506.9097" x2="-388.4634" y2="-524.3882" gradientTransform="matrix(1 0 0 -1 412.6577 -439.8887)">
			<stop  offset="0" style="stop-color:#EB7680"/>
			<stop  offset="1" style="stop-color:#C1282F"/>
		</linearGradient>
		<path fill="url(#SVGID_9_)" d="M31.282,67.021c0.627,0,1.143,0.483,1.192,1.101c1.606,0.283,2.827,1.687,2.827,3.375v9.576
			c0,1.894-1.532,3.426-3.424,3.426h-0.77H16.51c-1.953,0-3.424-1.471-3.424-3.284v-9.187v-0.531c0-1.895,1.533-3.426,3.424-3.426
			h8.217c0.072-0.594,0.576-1.051,1.188-1.051L31.282,67.021L31.282,67.021z"/>
		
			<linearGradient id="SVGID_10_" gradientUnits="userSpaceOnUse" x1="-388.4634" y1="-530.8413" x2="-388.4634" y2="-548.3198" gradientTransform="matrix(1 0 0 -1 412.6577 -439.8887)">
			<stop  offset="0" style="stop-color:#EB7680"/>
			<stop  offset="1" style="stop-color:#C1282F"/>
		</linearGradient>
		<path fill="url(#SVGID_10_)" d="M31.282,90.952c0.627,0,1.143,0.483,1.192,1.102c1.606,0.281,2.827,1.688,2.827,3.374v9.577
			c0,1.895-1.532,3.426-3.424,3.426h-0.77H16.51c-1.953,0-3.424-1.471-3.424-3.284V95.96v-0.532c0-1.892,1.533-3.427,3.424-3.427
			h8.217c0.072-0.59,0.576-1.049,1.188-1.049H31.282L31.282,90.952z"/>
	</g>
</g>
</svg>
