<?xml version="1.0" encoding="utf-8"?>
<!-- Generator: Adobe Illustrator 13.0.0, SVG Export Plug-In . SVG Version: 6.00 Build 14948)  -->
<!DOCTYPE svg PUBLIC "-//W3C//DTD SVG 1.1//EN" "http://www.w3.org/Graphics/SVG/1.1/DTD/svg11.dtd">
<svg version="1.1" id="Layer_1" xmlns="http://www.w3.org/2000/svg" xmlns:xlink="http://www.w3.org/1999/xlink" x="0px" y="0px"
	 width="128.007px" height="128px" viewBox="0 0 128.007 128" enable-background="new 0 0 128.007 128" xml:space="preserve">
<g>
	<g>
		
			<linearGradient id="SVGID_1_" gradientUnits="userSpaceOnUse" x1="-197.1357" y1="-602.6592" x2="-197.1357" y2="-689.4625" gradientTransform="matrix(1 0 0 -1 246.7271 -588.7695)">
			<stop  offset="0" style="stop-color:#5F5D5C"/>
			<stop  offset="1" style="stop-color:#181500"/>
		</linearGradient>
		<path fill="url(#SVGID_1_)" d="M83.717,15.049H15.466c-7.007,0-12.686,5.679-12.686,12.683v50.532
			c0,7.007,5.679,12.686,12.686,12.686h68.251c7.005,0,12.685-5.679,12.685-12.686V27.731
			C96.402,20.729,90.722,15.049,83.717,15.049z"/>
		<g>
			<radialGradient id="SVGID_2_" cx="29.5571" cy="59.4302" r="21.0012" gradientUnits="userSpaceOnUse">
				<stop  offset="0" style="stop-color:#FAFAFA"/>
				<stop  offset="0.4142" style="stop-color:#E3E3E3"/>
				<stop  offset="1" style="stop-color:#C7C7C7"/>
			</radialGradient>
			<path fill="url(#SVGID_2_)" d="M8.563,59.431c0-11.604,9.399-21.009,20.995-21.009c11.593,0,20.993,9.405,20.993,21.009
				c0,11.603-9.4,21.008-20.993,21.008C17.962,80.438,8.563,71.033,8.563,59.431L8.563,59.431z"/>
			<linearGradient id="SVGID_3_" gradientUnits="userSpaceOnUse" x1="39.0396" y1="48.749" x2="39.0396" y2="59.6963">
				<stop  offset="0" style="stop-color:#99DBF6"/>
				<stop  offset="1" style="stop-color:#00B2DE"/>
			</linearGradient>
			<path fill="url(#SVGID_3_)" d="M33.569,54.223c0-3.023,2.449-5.474,5.472-5.474c3.02,0,5.47,2.45,5.47,5.474
				c0,3.025-2.45,5.474-5.47,5.474C36.018,59.696,33.569,57.248,33.569,54.223L33.569,54.223z"/>
			<path fill="#F2F2F2" d="M14.313,48.55c3.506-4.813,9.951-8.5,15.978-8.5c6.025,0,12.306,3.687,15.812,8.5h0.666
				c-3.716-5.664-9.745-9.371-16.56-9.371c-6.817,0-12.848,3.707-16.562,9.371H14.313z"/>
			<linearGradient id="SVGID_4_" gradientUnits="userSpaceOnUse" x1="29.6689" y1="76.4131" x2="29.6689" y2="67.0439">
				<stop  offset="0" style="stop-color:#00B2DE"/>
				<stop  offset="1" style="stop-color:#99DBF6"/>
			</linearGradient>
			<path fill="url(#SVGID_4_)" d="M45.566,67.044c-3.507,4.812-9.953,8.5-15.979,8.5s-12.306-3.688-15.812-8.5h-0.667
				c3.717,5.665,9.746,9.369,16.562,9.369c6.816,0,12.847-3.704,16.561-9.369H45.566z"/>
		</g>
		<g>
			<g>
				
					<linearGradient id="SVGID_5_" gradientUnits="userSpaceOnUse" x1="-168.7173" y1="-668.3945" x2="-188.9337" y2="-654.2388" gradientTransform="matrix(1 0 0 -1 246.7271 -588.7695)">
					<stop  offset="0.0824" style="stop-color:#C2C2C2"/>
					<stop  offset="0.2635" style="stop-color:#D2D2D2"/>
					<stop  offset="0.5594" style="stop-color:#E6E6E6"/>
					<stop  offset="0.7582" style="stop-color:#EDEDED"/>
				</linearGradient>
				<polygon fill="url(#SVGID_5_)" points="54.035,70.84 81.771,70.84 81.771,74.256 54.035,74.256 				"/>
			</g>
			<g>
				
					<linearGradient id="SVGID_6_" gradientUnits="userSpaceOnUse" x1="-160.2476" y1="-663.4053" x2="-187.2652" y2="-644.4874" gradientTransform="matrix(1 0 0 -1 246.7271 -588.7695)">
					<stop  offset="0.0824" style="stop-color:#C2C2C2"/>
					<stop  offset="0.2635" style="stop-color:#D2D2D2"/>
					<stop  offset="0.5594" style="stop-color:#E6E6E6"/>
					<stop  offset="0.7582" style="stop-color:#EDEDED"/>
				</linearGradient>
				<polygon fill="url(#SVGID_6_)" points="54.035,63.469 91.908,63.469 91.908,66.885 54.035,66.885 				"/>
				
					<linearGradient id="SVGID_7_" gradientUnits="userSpaceOnUse" x1="-168.7168" y1="-653.6514" x2="-188.9332" y2="-639.4957" gradientTransform="matrix(1 0 0 -1 246.7271 -588.7695)">
					<stop  offset="0.0824" style="stop-color:#C2C2C2"/>
					<stop  offset="0.2635" style="stop-color:#D2D2D2"/>
					<stop  offset="0.5594" style="stop-color:#E6E6E6"/>
					<stop  offset="0.7582" style="stop-color:#EDEDED"/>
				</linearGradient>
				<polygon fill="url(#SVGID_7_)" points="54.035,56.098 81.771,56.098 81.771,59.513 54.035,59.513 				"/>
			</g>
		</g>
		
			<linearGradient id="SVGID_8_" gradientUnits="userSpaceOnUse" x1="-197.1357" y1="-605.4941" x2="-197.1357" y2="-621.6753" gradientTransform="matrix(1 0 0 -1 246.7271 -588.7695)">
			<stop  offset="0" style="stop-color:#80E21B"/>
			<stop  offset="1" style="stop-color:#80B400"/>
		</linearGradient>
		<path fill="url(#SVGID_8_)" d="M82.678,16.725H16.506c-6.793,0-12.299,5.507-12.299,12.295v3.886h90.768v-3.887
			C94.975,22.23,89.47,16.725,82.678,16.725z"/>
		<path opacity="0.8" fill="#70993E" d="M17.432,19.479h64.524c5.585,0,10.264,3.824,11.597,8.99
			c-0.592-6.016-5.666-10.719-11.841-10.719H17.675c-6.177,0-11.252,4.705-11.844,10.721C7.165,23.305,11.845,19.479,17.432,19.479z
			"/>
	</g>
	<g>
		<g>
			<g>
				
					<linearGradient id="SVGID_9_" gradientUnits="userSpaceOnUse" x1="-168.3042" y1="-624.4663" x2="-168.3042" y2="-711.2707" gradientTransform="matrix(1 0 0 -1 246.7271 -588.5762)">
					<stop  offset="0" style="stop-color:#5F5D5C"/>
					<stop  offset="1" style="stop-color:#181500"/>
				</linearGradient>
				<path fill="url(#SVGID_9_)" d="M112.55,37.05H44.298c-7.006,0-12.686,5.679-12.686,12.683v50.534
					c0,7.007,5.68,12.685,12.686,12.685h9.617c-0.161-0.492-0.249-1.018-0.249-1.568c0-2.789,2.263-5.052,5.055-5.052h4.494
					c2.791,0,5.055,2.265,5.055,5.052c0,0.549-0.09,1.076-0.251,1.568h20.807c-0.16-0.492-0.248-1.018-0.248-1.568
					c0-2.789,2.264-5.052,5.054-5.052h4.494c2.793,0,5.054,2.265,5.054,5.052c0,0.549-0.088,1.076-0.251,1.568h9.62
					c7.005,0,12.685-5.678,12.685-12.685V49.734C125.234,42.73,119.555,37.05,112.55,37.05z"/>
			</g>
			<g>
				<radialGradient id="SVGID_10_" cx="58.1143" cy="81.4316" r="21.0022" gradientUnits="userSpaceOnUse">
					<stop  offset="0" style="stop-color:#FAFAFA"/>
					<stop  offset="0.4142" style="stop-color:#E3E3E3"/>
					<stop  offset="1" style="stop-color:#C7C7C7"/>
				</radialGradient>
				<path fill="url(#SVGID_10_)" d="M37.12,81.432c0-11.603,9.4-21.009,20.994-21.009s20.995,9.406,20.995,21.009
					c0,11.604-9.401,21.01-20.995,21.01S37.12,93.035,37.12,81.432L37.12,81.432z"/>
				<linearGradient id="SVGID_11_" gradientUnits="userSpaceOnUse" x1="50.1577" y1="70.75" x2="50.1577" y2="81.6982">
					<stop  offset="0" style="stop-color:#EC008C"/>
					<stop  offset="1" style="stop-color:#C40075"/>
				</linearGradient>
				<path fill="url(#SVGID_11_)" d="M44.687,76.225c0-3.022,2.45-5.475,5.471-5.475c3.021,0,5.471,2.452,5.471,5.475
					c0,3.024-2.449,5.474-5.471,5.474C47.137,81.698,44.687,79.249,44.687,76.225L44.687,76.225z"/>
				<path fill="#F2F2F2" d="M42.219,70.553c3.507-4.812,9.952-8.5,15.977-8.5c6.025,0,12.307,3.688,15.812,8.5h0.668
					c-3.716-5.665-9.746-9.371-16.561-9.371c-6.816,0-12.847,3.706-16.562,9.371H42.219z"/>
				<linearGradient id="SVGID_12_" gradientUnits="userSpaceOnUse" x1="41.5532" y1="93.7305" x2="74.6753" y2="93.7305">
					<stop  offset="0" style="stop-color:#EC008C"/>
					<stop  offset="1" style="stop-color:#C40075"/>
				</linearGradient>
				<path fill="url(#SVGID_12_)" d="M74.009,89.046c-3.507,4.813-9.952,8.5-15.978,8.5c-6.026,0-12.306-3.687-15.812-8.5h-0.667
					c3.715,5.665,9.745,9.37,16.56,9.37c6.816,0,12.848-3.705,16.562-9.37H74.009z"/>
			</g>
			<g>
				<g>
					
						<linearGradient id="SVGID_13_" gradientUnits="userSpaceOnUse" x1="-139.7856" y1="-690.022" x2="-160.0021" y2="-675.8663" gradientTransform="matrix(1 0 0 -1 246.7271 -588.7695)">
						<stop  offset="0.0824" style="stop-color:#C2C2C2"/>
						<stop  offset="0.2635" style="stop-color:#D2D2D2"/>
						<stop  offset="0.5594" style="stop-color:#E6E6E6"/>
						<stop  offset="0.7582" style="stop-color:#EDEDED"/>
					</linearGradient>
					<polygon fill="url(#SVGID_13_)" points="82.966,92.467 110.703,92.467 110.703,95.883 82.966,95.883 					"/>
				</g>
				<g>
					
						<linearGradient id="SVGID_14_" gradientUnits="userSpaceOnUse" x1="-131.3154" y1="-685.0322" x2="-158.3339" y2="-666.1138" gradientTransform="matrix(1 0 0 -1 246.7271 -588.7695)">
						<stop  offset="0.0824" style="stop-color:#C2C2C2"/>
						<stop  offset="0.2635" style="stop-color:#D2D2D2"/>
						<stop  offset="0.5594" style="stop-color:#E6E6E6"/>
						<stop  offset="0.7582" style="stop-color:#EDEDED"/>
					</linearGradient>
					<polygon fill="url(#SVGID_14_)" points="82.966,85.096 120.839,85.096 120.839,88.512 82.966,88.512 					"/>
					
						<linearGradient id="SVGID_15_" gradientUnits="userSpaceOnUse" x1="-139.7856" y1="-675.2803" x2="-160.0013" y2="-661.1251" gradientTransform="matrix(1 0 0 -1 246.7271 -588.7695)">
						<stop  offset="0.0824" style="stop-color:#C2C2C2"/>
						<stop  offset="0.2635" style="stop-color:#D2D2D2"/>
						<stop  offset="0.5594" style="stop-color:#E6E6E6"/>
						<stop  offset="0.7582" style="stop-color:#EDEDED"/>
					</linearGradient>
					<polygon fill="url(#SVGID_15_)" points="82.966,77.725 110.703,77.725 110.703,81.141 82.966,81.141 					"/>
				</g>
			</g>
			
				<linearGradient id="SVGID_16_" gradientUnits="userSpaceOnUse" x1="-168.2041" y1="-627.1201" x2="-168.2041" y2="-643.3022" gradientTransform="matrix(1 0 0 -1 246.7271 -588.7695)">
				<stop  offset="0" style="stop-color:#EC008C"/>
				<stop  offset="1" style="stop-color:#C4008C"/>
			</linearGradient>
			<path fill="url(#SVGID_16_)" d="M111.611,38.351H45.439c-6.793,0-12.3,5.508-12.3,12.296v3.886h90.768v-3.887
				C123.907,43.857,118.402,38.351,111.611,38.351z"/>
			<path opacity="0.8" fill="#EC8690" d="M46.365,41.106h64.523c5.586,0,10.264,3.824,11.598,8.991
				c-0.592-6.016-5.666-10.719-11.841-10.719H46.607c-6.177,0-11.251,4.703-11.843,10.721
				C36.097,44.932,40.778,41.106,46.365,41.106z"/>
		</g>
	</g>
</g>
</svg>
