<?xml version="1.0" encoding="utf-8"?>
<!-- Generator: Adobe Illustrator 13.0.0, SVG Export Plug-In . SVG Version: 6.00 Build 14948)  -->
<!DOCTYPE svg PUBLIC "-//W3C//DTD SVG 1.1//EN" "http://www.w3.org/Graphics/SVG/1.1/DTD/svg11.dtd">
<svg version="1.1" id="Layer_1" xmlns="http://www.w3.org/2000/svg" xmlns:xlink="http://www.w3.org/1999/xlink" x="0px" y="0px"
	 width="128px" height="128px" viewBox="0 0 128 128" enable-background="new 0 0 128 128" xml:space="preserve">
<g>
	<g>
		
			<linearGradient id="SVGID_1_" gradientUnits="userSpaceOnUse" x1="-549.2559" y1="13.8613" x2="-424.7808" y2="13.8613" gradientTransform="matrix(0 1 1 0 54.6475 550.8433)">
			<stop  offset="0" style="stop-color:#ECEEF0"/>
			<stop  offset="0.2485" style="stop-color:#E8E8E9"/>
			<stop  offset="0.5636" style="stop-color:#EEEFF2"/>
			<stop  offset="0.9212" style="stop-color:#D4D5D6"/>
		</linearGradient>
		<path fill="url(#SVGID_1_)" stroke="#B3B3B3" d="M120.387,108.492l-0.058-89.331c0-9.707-7.864-17.574-17.571-17.574H34.204
			c-9.705,0-17.573,7.867-17.573,17.574v89.331c0,9.705,7.868,17.57,17.573,17.57h68.612
			C112.523,126.062,120.387,118.197,120.387,108.492z"/>
		<path fill="#FFFFFF" d="M22.706,15.431c2.913-4.558,8.005-7.588,13.815-7.588h63.976c5.811,0,10.902,3.031,13.813,7.588h1.395
			c-2.422-6.029-8.312-10.29-15.208-10.29H36.521c-6.895,0-12.786,4.261-15.21,10.29H22.706z"/>
		<path fill="#B3B3B3" d="M102.609,121.71H34.58c-9.46,0-17.138-7.533-17.41-16.927c-0.008-0.045-0.021-0.089-0.029-0.133
			l0.002,4.323c0,9.632,7.806,17.438,17.437,17.438h68.029c9.629,0,17.438-7.807,17.438-17.438v-4.306
			c-0.008,0.041-0.02,0.08-0.026,0.12C119.745,114.179,112.064,121.71,102.609,121.71z"/>
		<g>
			
				<linearGradient id="SVGID_2_" gradientUnits="userSpaceOnUse" x1="-263.0366" y1="119.9297" x2="-271.2502" y2="125.6809" gradientTransform="matrix(1 0 0 -1 289.2754 151.834)">
				<stop  offset="0" style="stop-color:#9A9A9A"/>
				<stop  offset="1" style="stop-color:#DEDEDE"/>
			</linearGradient>
			<path fill="url(#SVGID_2_)" d="M27.145,29.031c0,2.767-2.246,5.01-5.015,5.01c-2.768,0-5.011-2.243-5.011-5.01
				c0-2.773,2.245-5.015,5.011-5.015C24.9,24.015,27.145,26.257,27.145,29.031z"/>
			
				<linearGradient id="SVGID_3_" gradientUnits="userSpaceOnUse" x1="-263.0371" y1="106.0117" x2="-271.2508" y2="111.763" gradientTransform="matrix(1 0 0 -1 289.2754 151.834)">
				<stop  offset="0" style="stop-color:#9A9A9A"/>
				<stop  offset="1" style="stop-color:#DEDEDE"/>
			</linearGradient>
			<path fill="url(#SVGID_3_)" d="M27.145,42.95c0,2.767-2.246,5.009-5.015,5.009c-2.768,0-5.011-2.243-5.011-5.009
				c0-2.774,2.245-5.016,5.011-5.016C24.9,37.934,27.145,40.177,27.145,42.95z"/>
			
				<linearGradient id="SVGID_4_" gradientUnits="userSpaceOnUse" x1="-263.0361" y1="92.0918" x2="-271.2494" y2="97.8427" gradientTransform="matrix(1 0 0 -1 289.2754 151.834)">
				<stop  offset="0" style="stop-color:#9A9A9A"/>
				<stop  offset="1" style="stop-color:#DEDEDE"/>
			</linearGradient>
			<path fill="url(#SVGID_4_)" d="M27.145,56.869c0,2.767-2.246,5.01-5.015,5.01c-2.768,0-5.011-2.243-5.011-5.01
				c0-2.773,2.245-5.014,5.011-5.014C24.9,51.854,27.145,54.096,27.145,56.869z"/>
			
				<linearGradient id="SVGID_5_" gradientUnits="userSpaceOnUse" x1="-263.0376" y1="78.1709" x2="-271.2507" y2="83.9218" gradientTransform="matrix(1 0 0 -1 289.2754 151.834)">
				<stop  offset="0" style="stop-color:#9A9A9A"/>
				<stop  offset="1" style="stop-color:#DEDEDE"/>
			</linearGradient>
			<path fill="url(#SVGID_5_)" d="M27.145,70.787c0,2.77-2.246,5.01-5.015,5.01c-2.768,0-5.011-2.24-5.011-5.01
				c0-2.771,2.245-5.012,5.011-5.012C24.9,65.775,27.145,68.016,27.145,70.787z"/>
			
				<linearGradient id="SVGID_6_" gradientUnits="userSpaceOnUse" x1="-263.0371" y1="64.252" x2="-271.2505" y2="70.0031" gradientTransform="matrix(1 0 0 -1 289.2754 151.834)">
				<stop  offset="0" style="stop-color:#9A9A9A"/>
				<stop  offset="1" style="stop-color:#DEDEDE"/>
			</linearGradient>
			<path fill="url(#SVGID_6_)" d="M27.145,84.707c0,2.77-2.246,5.01-5.015,5.01c-2.768,0-5.011-2.24-5.011-5.01
				c0-2.773,2.245-5.012,5.011-5.012C24.9,79.695,27.145,81.934,27.145,84.707z"/>
			
				<linearGradient id="SVGID_7_" gradientUnits="userSpaceOnUse" x1="-263.0371" y1="50.332" x2="-271.2507" y2="56.0833" gradientTransform="matrix(1 0 0 -1 289.2754 151.834)">
				<stop  offset="0" style="stop-color:#9A9A9A"/>
				<stop  offset="1" style="stop-color:#DEDEDE"/>
			</linearGradient>
			<path fill="url(#SVGID_7_)" d="M27.145,98.625c0,2.771-2.246,5.012-5.015,5.012c-2.768,0-5.011-2.24-5.011-5.012
				c0-2.77,2.245-5.012,5.011-5.012C24.9,93.613,27.145,95.855,27.145,98.625z"/>
		</g>
		
			<linearGradient id="SVGID_8_" gradientUnits="userSpaceOnUse" x1="-272.644" y1="119.3262" x2="-272.644" y2="126.2832" gradientTransform="matrix(1 0 0 -1 289.2754 151.834)">
			<stop  offset="0" style="stop-color:#EC008C"/>
			<stop  offset="1" style="stop-color:#C4008C"/>
		</linearGradient>
		<path fill="url(#SVGID_8_)" d="M26.15,29.026c0,1.92-1.558,3.481-3.479,3.481H10.594c-1.92,0-3.481-1.56-3.481-3.481l0,0
			c0-1.922,1.56-3.477,3.481-3.477h12.077C24.591,25.55,26.15,27.103,26.15,29.026L26.15,29.026z"/>
		
			<linearGradient id="SVGID_9_" gradientUnits="userSpaceOnUse" x1="-272.644" y1="105.4062" x2="-272.644" y2="112.3643" gradientTransform="matrix(1 0 0 -1 289.2754 151.834)">
			<stop  offset="0" style="stop-color:#EC008C"/>
			<stop  offset="1" style="stop-color:#C4008C"/>
		</linearGradient>
		<path fill="url(#SVGID_9_)" d="M26.15,42.945c0,1.92-1.558,3.482-3.479,3.482H10.594c-1.92,0-3.481-1.561-3.481-3.482l0,0
			c0-1.922,1.56-3.476,3.481-3.476h12.077C24.591,39.47,26.15,41.022,26.15,42.945L26.15,42.945z"/>
		
			<linearGradient id="SVGID_10_" gradientUnits="userSpaceOnUse" x1="-272.644" y1="91.4854" x2="-272.644" y2="98.4453" gradientTransform="matrix(1 0 0 -1 289.2754 151.834)">
			<stop  offset="0" style="stop-color:#EC008C"/>
			<stop  offset="1" style="stop-color:#C4008C"/>
		</linearGradient>
		<path fill="url(#SVGID_10_)" d="M26.15,56.867c0,1.919-1.558,3.481-3.479,3.481H10.594c-1.92,0-3.481-1.561-3.481-3.481l0,0
			c0-1.924,1.56-3.479,3.481-3.479h12.077C24.591,53.388,26.15,54.943,26.15,56.867L26.15,56.867z"/>
		
			<linearGradient id="SVGID_11_" gradientUnits="userSpaceOnUse" x1="-272.644" y1="77.5684" x2="-272.644" y2="84.5264" gradientTransform="matrix(1 0 0 -1 289.2754 151.834)">
			<stop  offset="0" style="stop-color:#EC008C"/>
			<stop  offset="1" style="stop-color:#C4008C"/>
		</linearGradient>
		<path fill="url(#SVGID_11_)" d="M26.15,70.787c0,1.919-1.558,3.479-3.479,3.479H10.594c-1.92,0-3.481-1.559-3.481-3.479l0,0
			c0-1.924,1.56-3.479,3.481-3.479h12.077C24.591,67.309,26.15,68.863,26.15,70.787L26.15,70.787z"/>
		
			<linearGradient id="SVGID_12_" gradientUnits="userSpaceOnUse" x1="-272.644" y1="63.6509" x2="-272.644" y2="70.6099" gradientTransform="matrix(1 0 0 -1 289.2754 151.834)">
			<stop  offset="0" style="stop-color:#EC008C"/>
			<stop  offset="1" style="stop-color:#C4008C"/>
		</linearGradient>
		<path fill="url(#SVGID_12_)" d="M26.15,84.703c0,1.924-1.558,3.48-3.479,3.48H10.594c-1.92,0-3.481-1.557-3.481-3.48l0,0
			c0-1.92,1.56-3.479,3.481-3.479h12.077C24.591,81.225,26.15,82.783,26.15,84.703L26.15,84.703z"/>
		
			<linearGradient id="SVGID_13_" gradientUnits="userSpaceOnUse" x1="-272.644" y1="49.731" x2="-272.644" y2="56.6899" gradientTransform="matrix(1 0 0 -1 289.2754 151.834)">
			<stop  offset="0" style="stop-color:#EC008C"/>
			<stop  offset="1" style="stop-color:#C4008C"/>
		</linearGradient>
		<path fill="url(#SVGID_13_)" d="M26.15,98.623c0,1.924-1.558,3.48-3.479,3.48H10.594c-1.92,0-3.481-1.556-3.481-3.48l0,0
			c0-1.922,1.56-3.479,3.481-3.479h12.077C24.591,95.145,26.15,96.701,26.15,98.623L26.15,98.623z"/>
	</g>
	<g>
		<g>
			<g>
				<path fill="none" d="M81.207,100.936c2.395-4.975,7.736-11.791,4.605-17.687c-2.58,1.658-3.869,7.369-4.422,10.315
					c-1.106,4.976-0.369,9.766,0.185,14.743c0.185,2.027,0.736,3.13-0.737,4.603c-1.842,2.027-7.553,1.841-9.947,0.736
					c-5.16-2.025-7.922-13.447-1.105-14.737c3.131-0.737,7.736,0.367,11.053,0.737"/>
				<path fill="#E43B7D" d="M81.207,103.41c2.374-4.684,5.527-9.08,5.582-14.521c0.016-1.295,0.02-2.592-0.006-3.887
					c-0.037-2.134-0.205-5.463-2.367-2.802c-3.027,3.726-3.568,10.587-3.615,15.152c-0.055,5.343,0.635,10.529,1.021,15.848
					c0.002-1.62,0.004-3.237,0.007-4.86c-0.817,3.733-4.946,3.793-8.082,3.545c-3.362-0.266-5.499-2.244-6.95-5.145
					c-0.58-1.158-0.5-4.117-0.899-1.41c0.211-1.424,1.082-2.496,2.197-3.317c3.146-2.32,9.287-0.339,12.747,0.108
					c-0.175-0.021,0.245-4.92,0-4.95c-6.746-0.872-15.074-2.946-15.127,6.193c-0.028,5.112,0.416,10.983,5.991,13.06
					c3.264,1.217,7.801,0.814,9.899-2.096c0.848-1.178,0.263-4.328,0.239-5.651c-0.087-5.11-1.134-9.582-0.024-14.683
					c0.443-2.04,1.111-3.987,2.01-5.869c0.475-0.993,1.158-1.711,1.987-2.4c0.257-0.215,0.941,3.676,0.958,3.888
					c-0.002-1.62-0.005-3.239-0.007-4.86c-0.319,5.119-3.308,9.273-5.556,13.709C80.533,99.789,81.864,102.113,81.207,103.41
					L81.207,103.41z"/>
			</g>
		</g>
		<g>
			<g>
				<path fill="none" d="M85.444,97.986c0,1.106,0.554,5.159,1.841,5.344c1.658,0.184,4.423-5.344,5.713-6.264
					c0.184,1.472-0.369,3.133,0,4.604c1.289-1.29,2.577-2.948,4.053-4.053c0.368,8.105,6.079-0.736,10.869-1.291"/>
				<path fill="#E43B7D" d="M85.438,100.373c0.065,1.406,0.261,5.71,2.327,5.344c2.128-0.373,3.729-4.785,5.233-6.176
					c-0.01-0.825-0.018-1.65-0.025-2.475c0,0.507,0,1.012,0,1.521c0.01-0.827,0.02-1.65,0.025-2.475
					c-0.14,1.766-0.154,3.512-0.146,5.287c0.002,0.405-0.011,0.819,0.021,1.223c-0.229,1.852,0.134,2.02,1.093,0.502
					c1.01-1.062,1.969-2.081,3.083-3.032c-0.569,0.485,0.581,2.735,0.97,3.169c0.68,0.764,2.206-0.229,2.807-0.566
					c2.402-1.356,4.304-3.322,7.094-3.895c0.359-0.071-0.287-4.889,0-4.949c-3.246,0.662-5.432,3.252-8.385,4.541
					c-1.576,0.688-2.105-0.843-2.375-2.053c-0.475-2.142-1.072-0.393-2.205,0.76c-1.136,1.154-1.85,3.447-2.083,0.574
					c0,1.65,0,3.301,0,4.949c0.146-1.859,0.146-3.69,0.146-5.557c0-0.307-0.252-2.266-0.023-2.475
					c-1.846,1.709-2.851,4.139-4.715,5.858c-2.164,2.001-2.783-3.815-2.831-4.849C85.507,96.765,85.365,98.885,85.438,100.373
					L85.438,100.373z"/>
			</g>
		</g>
	</g>
</g>
</svg>
