<?xml version="1.0" encoding="utf-8"?>
<!-- Generator: Adobe Illustrator 13.0.0, SVG Export Plug-In . SVG Version: 6.00 Build 14948)  -->
<!DOCTYPE svg PUBLIC "-//W3C//DTD SVG 1.1//EN" "http://www.w3.org/Graphics/SVG/1.1/DTD/svg11.dtd">
<svg version="1.1" id="Layer_1" xmlns="http://www.w3.org/2000/svg" xmlns:xlink="http://www.w3.org/1999/xlink" x="0px" y="0px"
	 width="128px" height="128px" viewBox="0 0 128 128" enable-background="new 0 0 128 128" xml:space="preserve">
<g>
	<g>
		<linearGradient id="SVGID_1_" gradientUnits="userSpaceOnUse" x1="21.8438" y1="54.9668" x2="115.1377" y2="54.9668">
			<stop  offset="0" style="stop-color:#99DBF6"/>
			<stop  offset="1" style="stop-color:#00B2DE"/>
		</linearGradient>
		<path fill="url(#SVGID_1_)" d="M34.562,8.288l67.853,0.005c7.025,0,12.719,5.698,12.719,12.728l0.004,67.898
			c0,7.031-5.695,12.729-12.719,12.729l-67.854-0.002c-7.024,0-12.72-5.701-12.72-12.73l-0.002-67.898
			C21.843,13.987,27.539,8.288,34.562,8.288L34.562,8.288z"/>
		<path fill="#00A4DE" d="M102.438,97.754L34.481,97.75c-6.422,0-11.722-4.762-12.598-10.949v1.816
			c0,7.029,5.696,12.729,12.72,12.729l67.854,0.004c7.023,0,12.719-5.699,12.719-12.729V85.01
			C115.173,92.047,109.472,97.754,102.438,97.754z"/>
		<path opacity="0.8" fill="#FFFFFF" d="M36.85,14.952l63.413,0.003c5.994,0,10.938,4.445,11.754,10.218v-1.694
			c0-6.561-5.312-11.878-11.867-11.878l-63.314-0.004c-6.556,0-11.869,5.319-11.869,11.878v3.369
			C24.967,20.277,30.288,14.952,36.85,14.952z"/>
	</g>
	<g>
		<radialGradient id="SVGID_2_" cx="47.2407" cy="76.2168" r="46.6633" gradientUnits="userSpaceOnUse">
			<stop  offset="0" style="stop-color:#FAFAFA"/>
			<stop  offset="0.3109" style="stop-color:#F4F4F4"/>
			<stop  offset="0.7262" style="stop-color:#E3E3E3"/>
			<stop  offset="1" style="stop-color:#D4D4D4"/>
		</radialGradient>
		<path fill="url(#SVGID_2_)" stroke="#B3B3B3" stroke-width="1.6" d="M13.312,29.538l67.853,0.005
			c7.025,0,12.719,5.698,12.719,12.728l0.004,67.898c0,7.031-5.695,12.729-12.719,12.729l-67.854-0.002
			c-7.024,0-12.72-5.701-12.72-12.73L0.594,42.266C0.593,35.237,6.289,29.538,13.312,29.538L13.312,29.538z"/>
		<path fill="#B3B3B3" d="M81.188,119.004L13.231,119c-6.422,0-11.722-4.762-12.598-10.949v1.816c0,7.029,5.696,12.729,12.72,12.729
			l67.854,0.004c7.023,0,12.719-5.699,12.719-12.729v-3.611C93.923,113.297,88.222,119.004,81.188,119.004z"/>
		<path fill="#FFFFFF" d="M15.6,36.202l63.413,0.003c5.994,0,10.938,4.445,11.754,10.218v-1.694c0-6.561-5.312-11.878-11.867-11.878
			l-63.314-0.004c-6.556,0-11.869,5.319-11.869,11.878v3.369C3.717,41.527,9.038,36.202,15.6,36.202z"/>
	</g>
	<g>
		
			<linearGradient id="SVGID_3_" gradientUnits="userSpaceOnUse" x1="-9032.8027" y1="3744.9307" x2="-9032.8027" y2="3686.9121" gradientTransform="matrix(0.3308 -0.346 -0.3461 -0.3305 4354.2202 -1842.9312)">
			<stop  offset="0" style="stop-color:#FFD207"/>
			<stop  offset="1" style="stop-color:#FAA61A"/>
		</linearGradient>
		<path fill="url(#SVGID_3_)" d="M92.522,19.521L44.231,70.027c0.459,0.445,1.856,1.963,2.254,4.146
			c2.353-0.189,4.978,0.613,5.613,1.207c2.26,2.166,1.544,5.828,1.544,5.828s4.164-0.484,6.186,1.65
			c0.534,0.562,1.301,2.598,1.626,4.803c1.707-0.041,3.441,2.02,3.824,2.506l48.309-50.528c0.848-0.884,0.818-2.287-0.068-3.132
			c0,0-1.986-4.331-8.209-10.274c-6.223-5.938-9.654-6.783-9.654-6.783C94.771,18.604,93.368,18.635,92.522,19.521z"/>
		
			<linearGradient id="SVGID_4_" gradientUnits="userSpaceOnUse" x1="-8933.7705" y1="3716.6094" x2="-8933.3613" y2="3739.0823" gradientTransform="matrix(0.3308 -0.346 -0.3461 -0.3305 4354.2202 -1842.9312)">
			<stop  offset="0" style="stop-color:#F66B87"/>
			<stop  offset="1" style="stop-color:#FCD0D9"/>
		</linearGradient>
		<path fill="url(#SVGID_4_)" d="M105.63,5.808L95.187,16.732c0.227,0.225,6.52,4.049,11.693,8.984
			c5.135,4.904,9.16,10.915,9.354,11.156l10.463-10.945c2.707-2.828-1.514-8.033-7.736-13.973
			C112.737,6.013,107.794,3.546,105.63,5.808z"/>
		
			<linearGradient id="SVGID_5_" gradientUnits="userSpaceOnUse" x1="-9120.3975" y1="3737.624" x2="-9115.3564" y2="3715.7778" gradientTransform="matrix(0.3308 -0.346 -0.3461 -0.3305 4354.2202 -1842.9312)">
			<stop  offset="0" style="stop-color:#FAEDB0"/>
			<stop  offset="1" style="stop-color:#FFC76E"/>
		</linearGradient>
		<path fill="url(#SVGID_5_)" d="M65.36,90.271c0,0-0.033-0.039-0.082-0.104l-0.17,0.172L65.36,90.271z"/>
		
			<linearGradient id="SVGID_6_" gradientUnits="userSpaceOnUse" x1="-9106.7412" y1="3739.3408" x2="-9101.8721" y2="3718.241" gradientTransform="matrix(0.3308 -0.346 -0.3461 -0.3305 4354.2202 -1842.9312)">
			<stop  offset="0" style="stop-color:#FAEDB0"/>
			<stop  offset="1" style="stop-color:#FFC76E"/>
		</linearGradient>
		<path fill="url(#SVGID_6_)" d="M44.087,69.883l-0.095,0.396l0.238-0.252C44.144,69.934,44.087,69.883,44.087,69.883z"/>
		<path fill="#F6921E" d="M61.454,87.662c-0.325-2.205-1.091-4.244-1.626-4.803c-2.021-2.135-6.183-1.652-6.183-1.652
			s0.716-3.66-1.547-5.826c-0.634-0.596-3.257-1.398-5.611-1.207c-0.396-2.182-1.797-3.703-2.254-4.148l-0.238,0.25l-0.996,4.051
			c0.028,0.035,0.052,0.074,0.083,0.104l17.86,17.064c0.02,0.018,0.04,0.023,0.059,0.039l4.109-1.197l0.172-0.172
			C64.897,89.682,63.165,87.619,61.454,87.662z"/>
		
			<linearGradient id="SVGID_7_" gradientUnits="userSpaceOnUse" x1="-9125.2402" y1="3734.3682" x2="-9122.6172" y2="3716.0132" gradientTransform="matrix(0.3308 -0.346 -0.3461 -0.3305 4354.2202 -1842.9312)">
			<stop  offset="0" style="stop-color:#FAEDB0"/>
			<stop  offset="1" style="stop-color:#FFC76E"/>
		</linearGradient>
		<path fill="url(#SVGID_7_)" d="M53.643,81.209c0,0,0.716-3.662-1.544-5.828c-0.636-0.594-3.261-1.396-5.613-1.207
			c-0.397-2.182-1.795-3.701-2.254-4.146l-0.238,0.252l-0.997,4.049l-2.431,9.861l-0.702,2.842l4.266,4.088l4.265,4.072l2.811-0.812
			l9.793-2.85l4.113-1.199l0.172-0.172c-0.385-0.486-2.117-2.549-3.83-2.506c-0.326-2.205-1.092-4.24-1.627-4.799
			C57.807,80.725,53.643,81.209,53.643,81.209z"/>
		
			<linearGradient id="SVGID_8_" gradientUnits="userSpaceOnUse" x1="-9149.6592" y1="3718.7617" x2="-9152.9268" y2="3729.7878" gradientTransform="matrix(0.3308 -0.346 -0.3461 -0.3305 4354.2202 -1842.9312)">
			<stop  offset="0" style="stop-color:#231F20"/>
			<stop  offset="1" style="stop-color:#FFFFFF"/>
		</linearGradient>
		<polygon fill="url(#SVGID_8_)" points="39.874,87.055 37.075,98.518 48.4,95.203 48.396,95.197 44.129,91.121 		"/>
		
			<linearGradient id="SVGID_9_" gradientUnits="userSpaceOnUse" x1="-8603.5596" y1="-2868.1416" x2="-8619.9277" y2="-2854.271" gradientTransform="matrix(0.4786 -0.011 -0.0108 -0.4784 4194.1494 -1433.9998)">
			<stop  offset="0" style="stop-color:#808080"/>
			<stop  offset="1" style="stop-color:#F2F2F2"/>
		</linearGradient>
		<path fill="url(#SVGID_9_)" d="M95.274,16.548l-5.797,6.152c0.234,0.223,5.869,3.604,11.047,8.542
			c5.131,4.901,9.807,11.368,10.012,11.587l5.805-6.158c0.387-0.411-3.543-5.916-9.764-11.861
			C100.36,18.87,95.661,16.138,95.274,16.548z"/>
		<g opacity="0.6">
			<path fill="#FFF8A2" d="M107.431,7.18L47.382,70.074c0.293,0.561,0.551,1.213,0.684,1.947c0.98-0.076,1.998,0.029,2.896,0.217
				l60.2-63.051C108.312,6.725,107.354,7.13,107.431,7.18z"/>
		</g>
		
			<linearGradient id="SVGID_10_" gradientUnits="userSpaceOnUse" x1="-2256.936" y1="-282.9336" x2="-2256.936" y2="-282.9336" gradientTransform="matrix(0.9576 -0.2881 0.2881 0.9576 2288.9893 -309.3038)">
			<stop  offset="0" style="stop-color:#DEDEDE"/>
			<stop  offset="1" style="stop-color:#FEFEFE"/>
		</linearGradient>
		<path fill="url(#SVGID_10_)" stroke="#181512" stroke-width="1.0006" stroke-miterlimit="3.8637" d="M46.233,69.982"/>
		<g opacity="0.6">
			<path fill="#FFF8A2" d="M47.369,76.193l-0.009-0.006c-0.753-0.109-1.552-0.164-2.326-0.1c-0.139-0.754-0.399-1.424-0.696-2.002
				l-0.118-0.084l-6.06,22.49L47.369,76.193z"/>
		</g>
	</g>
</g>
</svg>
