<?xml version="1.0" encoding="utf-8"?>
<!-- Generator: Adobe Illustrator 13.0.0, SVG Export Plug-In . SVG Version: 6.00 Build 14948)  -->
<!DOCTYPE svg PUBLIC "-//W3C//DTD SVG 1.1//EN" "http://www.w3.org/Graphics/SVG/1.1/DTD/svg11.dtd">
<svg version="1.1" id="Layer_1" xmlns="http://www.w3.org/2000/svg" xmlns:xlink="http://www.w3.org/1999/xlink" x="0px" y="0px"
	 width="128px" height="128px" viewBox="0 0 128 128" enable-background="new 0 0 128 128" xml:space="preserve">
<g>
	<g>
		
			<radialGradient id="SVGID_1_" cx="63.9023" cy="64.0015" r="53.1361" gradientTransform="matrix(1 0 0 1 0 -9.765625e-04)" gradientUnits="userSpaceOnUse">
			<stop  offset="0" style="stop-color:#FAFAFA"/>
			<stop  offset="0.3109" style="stop-color:#F4F4F4"/>
			<stop  offset="0.7262" style="stop-color:#E3E3E3"/>
			<stop  offset="1" style="stop-color:#D4D4D4"/>
		</radialGradient>
		<path fill="url(#SVGID_1_)" stroke="#B3B3B3" stroke-width="2" d="M108.586,22.206v83.587c0,10.285-8.344,18.625-18.637,18.625
			H37.856c-10.295,0-18.637-8.34-18.637-18.625V22.206c0-10.285,8.342-18.623,18.637-18.623h52.093
			C100.242,3.583,108.586,11.921,108.586,22.206L108.586,22.206z"/>
		<path fill="#B3B3B3" d="M90.145,122.092H38.05c-10.295,0-18.637-8.34-18.637-18.625v2.326c0,10.285,8.342,18.625,18.637,18.625
			h52.094c10.293,0,18.637-8.34,18.637-18.625v-2.326C108.781,113.752,100.438,122.092,90.145,122.092z"/>
		<path fill="#FFFFFF" d="M30.385,11.569c2.079-1.734,4.432-2.905,7.665-2.905h52.094c3.234,0,5.586,1.171,7.666,2.905h2.629
			c-2.621-2.646-5.805-4.238-10.295-4.238H38.05c-4.489,0-7.673,1.593-10.294,4.238H30.385z"/>
	</g>
	<g>
		
			<linearGradient id="SVGID_2_" gradientUnits="userSpaceOnUse" x1="-3695.5293" y1="9803.4434" x2="-3685.9502" y2="9803.4434" gradientTransform="matrix(-4.371139e-08 1 -1 -4.371139e-08 9867.3848 3759.4902)">
			<stop  offset="0" style="stop-color:#EB7680"/>
			<stop  offset="1" style="stop-color:#C1282F"/>
		</linearGradient>
		<path fill="url(#SVGID_2_)" stroke="#AD2228" stroke-width="0.5" stroke-miterlimit="3.8637" d="M60.695,73.539
			c-1.084,0-1.963-0.879-1.963-1.963v-5.652c0-1.084,0.877-1.963,1.963-1.963h6.493c1.082,0,1.963,0.879,1.963,1.963v5.652
			c0,1.084-0.881,1.963-1.963,1.963H60.695z"/>
		<g>
			
				<linearGradient id="SVGID_3_" gradientUnits="userSpaceOnUse" x1="2716.3467" y1="6689.749" x2="2716.3467" y2="6659.7988" gradientTransform="matrix(-1 0 0 -1 2780.3477 6708.1621)">
				<stop  offset="0" style="stop-color:#EB7680"/>
				<stop  offset="1" style="stop-color:#C1282F"/>
			</linearGradient>
			<path fill="url(#SVGID_3_)" stroke="#AD2228" stroke-width="0.5" stroke-miterlimit="3.8637" d="M53.14,27.712
				c-0.717,0.754-1.092,1.619-1.092,2.674c0,1.016,0.377,1.92,1.092,2.674c0.752,0.715,1.656,1.092,2.672,1.092
				c1.055,0,1.959-0.377,2.674-1.092l1.73-1.771l0.002,13.309c0.037,1.053,0.375,1.957,1.129,2.674
				c0.715,0.754,1.619,1.092,2.637,1.092c1.053,0,1.956-0.338,2.67-1.092c0.754-0.717,1.131-1.619,1.131-2.672V31.291l1.73,1.771
				c0.754,0.715,1.619,1.092,2.674,1.092c1.018,0,1.92-0.377,2.67-1.092c0.717-0.754,1.094-1.656,1.094-2.674
				c0-1.055-0.377-1.922-1.094-2.674l-8.205-8.172c-0.719-0.752-1.619-1.129-2.674-1.129c-1.016,0-1.918,0.375-2.635,1.127
				L53.14,27.712z"/>
			<g>
				<path opacity="0.8" fill="#FFFFFF" d="M53.892,28.44l7.637-7.604c0.668-0.701,1.508-1.049,2.453-1.049
					c0.981,0,1.821,0.35,2.489,1.049l7.639,7.607c0.588,0.617,0.832,0.285,0-0.668l-7.639-7.607
					c-0.668-0.701-1.508-1.051-2.489-1.051c-0.945,0-1.785,0.35-2.453,1.049l-7.637,7.607C52.947,28.71,53.304,29.06,53.892,28.44z"
					/>
			</g>
		</g>
		<g>
			
				<linearGradient id="SVGID_4_" gradientUnits="userSpaceOnUse" x1="2716.3477" y1="-5589.0244" x2="2716.3477" y2="-5559.0732" gradientTransform="matrix(-1 0 0 1 2780.3496 5674.6611)">
				<stop  offset="0" style="stop-color:#EB7680"/>
				<stop  offset="1" style="stop-color:#C1282F"/>
			</linearGradient>
			<path fill="url(#SVGID_4_)" stroke="#AD2228" stroke-width="0.5" stroke-miterlimit="3.8637" d="M61.345,114.459
				c0.717,0.752,1.619,1.129,2.635,1.129c1.055,0,1.956-0.377,2.674-1.131l8.205-8.17c0.717-0.754,1.094-1.621,1.094-2.676
				c0-1.018-0.377-1.92-1.094-2.672c-0.75-0.715-1.652-1.094-2.67-1.094c-1.055,0-1.92,0.379-2.674,1.094l-1.73,1.77V89.402
				c0-1.053-0.377-1.957-1.131-2.674c-0.715-0.752-1.617-1.092-2.67-1.092c-1.018,0-1.922,0.34-2.637,1.092
				c-0.754,0.717-1.092,1.621-1.129,2.674l-0.002,13.309l-1.73-1.771c-0.715-0.713-1.619-1.092-2.674-1.09
				c-1.016,0-1.92,0.377-2.672,1.09c-0.715,0.754-1.092,1.658-1.092,2.674c0,1.055,0.375,1.922,1.092,2.676L61.345,114.459z"/>
			<g opacity="0.8">
				<path fill="#FFFFFF" d="M66.191,87.965c-0.596-0.629-1.35-0.912-2.229-0.912c-0.852,0-1.605,0.283-2.203,0.912
					c-0.609,0.58-0.893,1.309-0.936,2.154h-0.008v-0.336c0.031-0.879,0.314-1.635,0.943-2.234c0.598-0.627,1.352-0.912,2.203-0.912
					c0.879,0,1.633,0.285,2.229,0.912c0.631,0.6,0.945,1.355,0.945,2.234v0.414C67.137,89.318,66.822,88.562,66.191,87.965z"/>
			</g>
		</g>
	</g>
</g>
</svg>
