<?xml version="1.0" encoding="utf-8"?>
<!-- Generator: Adobe Illustrator 13.0.0, SVG Export Plug-In . SVG Version: 6.00 Build 14948)  -->
<!DOCTYPE svg PUBLIC "-//W3C//DTD SVG 1.1//EN" "http://www.w3.org/Graphics/SVG/1.1/DTD/svg11.dtd">
<svg version="1.1" id="Layer_1" xmlns="http://www.w3.org/2000/svg" xmlns:xlink="http://www.w3.org/1999/xlink" x="0px" y="0px"
	 width="128px" height="128px" viewBox="0 0 128 128" enable-background="new 0 0 128 128" xml:space="preserve">
<g>
	<g>
		
			<radialGradient id="SVGID_1_" cx="63.9023" cy="64.0015" r="53.1361" gradientTransform="matrix(1 0 0 1 0 -9.765625e-04)" gradientUnits="userSpaceOnUse">
			<stop  offset="0" style="stop-color:#FAFAFA"/>
			<stop  offset="0.3109" style="stop-color:#F4F4F4"/>
			<stop  offset="0.7262" style="stop-color:#E3E3E3"/>
			<stop  offset="1" style="stop-color:#D4D4D4"/>
		</radialGradient>
		<path fill="url(#SVGID_1_)" stroke="#B3B3B3" stroke-width="2" d="M108.586,22.207v83.586c0,10.285-8.344,18.625-18.637,18.625
			H37.856c-10.295,0-18.637-8.34-18.637-18.625V22.207c0-10.286,8.342-18.624,18.637-18.624h52.093
			C100.242,3.583,108.586,11.921,108.586,22.207L108.586,22.207z"/>
		<path fill="#B3B3B3" d="M90.145,122.092H38.05c-10.295,0-18.637-8.34-18.637-18.625v2.326c0,10.285,8.342,18.625,18.637,18.625
			h52.094c10.293,0,18.637-8.34,18.637-18.625v-2.326C108.781,113.752,100.438,122.092,90.145,122.092z"/>
		<path fill="#FFFFFF" d="M30.385,11.569c2.079-1.734,4.432-2.905,7.665-2.905h52.094c3.234,0,5.586,1.171,7.666,2.905h2.629
			c-2.621-2.646-5.805-4.238-10.295-4.238H38.05c-4.489,0-7.673,1.593-10.294,4.238H30.385z"/>
	</g>
	
		<linearGradient id="SVGID_2_" gradientUnits="userSpaceOnUse" x1="-3742.1465" y1="9831.5645" x2="-3732.5684" y2="9831.5645" gradientTransform="matrix(-4.371139e-08 1 -1 -4.371139e-08 9867.3848 3759.4902)">
		<stop  offset="0" style="stop-color:#EB7680"/>
		<stop  offset="1" style="stop-color:#C1282F"/>
	</linearGradient>
	<path fill="url(#SVGID_2_)" stroke="#AD2228" stroke-width="0.5" stroke-miterlimit="3.8637" d="M32.573,26.921
		c-1.084,0-1.963-0.879-1.963-1.963v-5.652c0-1.083,0.877-1.962,1.963-1.962h6.492c1.082,0,1.963,0.879,1.963,1.962v5.652
		c0,1.084-0.88,1.963-1.963,1.963H32.573z"/>
	<g>
		
			<linearGradient id="SVGID_3_" gradientUnits="userSpaceOnUse" x1="5976.3652" y1="-2347.832" x2="5952.4619" y2="-2347.832" gradientTransform="matrix(4.371139e-08 -1 1 4.371139e-08 2414.832 5986.8188)">
			<stop  offset="0" style="stop-color:#EB7680"/>
			<stop  offset="1" style="stop-color:#C1282F"/>
		</linearGradient>
		<path fill="url(#SVGID_3_)" stroke="#AD2228" stroke-width="0.5" stroke-miterlimit="3.8637" d="M72.676,11.545
			c-0.754-0.717-1.619-1.092-2.674-1.092c-1.016,0-1.92,0.377-2.674,1.092c-0.715,0.752-1.092,1.656-1.092,2.672
			c0,1.055,0.377,1.959,1.092,2.674l1.771,1.732H55.792c-1.053,0.037-1.957,0.377-2.674,1.129c-0.754,0.717-1.092,1.619-1.092,2.637
			c0,1.055,0.338,1.955,1.092,2.67c0.717,0.754,1.619,1.133,2.672,1.133l13.308-0.002l-1.771,1.73
			c-0.715,0.754-1.092,1.619-1.092,2.674c0,1.018,0.377,1.92,1.092,2.672c0.754,0.715,1.656,1.092,2.674,1.092
			c1.055,0,1.922-0.377,2.674-1.092l8.172-8.207c0.752-0.717,1.129-1.619,1.129-2.674c0-1.016-0.375-1.918-1.127-2.635
			L72.676,11.545z"/>
		<g>
			<path opacity="0.8" fill="#FFFFFF" d="M71.947,12.297l7.604,7.636c0.701,0.668,1.049,1.508,1.049,2.453
				c0,0.98-0.35,1.82-1.049,2.488l-7.607,7.639c-0.617,0.588-0.285,0.832,0.668,0l7.607-7.639c0.701-0.668,1.051-1.508,1.051-2.488
				c0-0.945-0.35-1.785-1.049-2.453l-7.607-7.636C71.678,11.353,71.328,11.709,71.947,12.297z"/>
		</g>
	</g>
	<g>
		
			<linearGradient id="SVGID_4_" gradientUnits="userSpaceOnUse" x1="2744.4707" y1="-5637.7002" x2="2744.4707" y2="-5607.749" gradientTransform="matrix(-1 0 0 1 2780.3496 5674.6611)">
			<stop  offset="0" style="stop-color:#EB7680"/>
			<stop  offset="1" style="stop-color:#C1282F"/>
		</linearGradient>
		<path fill="url(#SVGID_4_)" stroke="#AD2228" stroke-width="0.5" stroke-miterlimit="3.8637" d="M33.223,65.783
			c0.717,0.752,1.619,1.129,2.635,1.129c1.055,0,1.956-0.377,2.674-1.131l8.206-8.17c0.716-0.754,1.093-1.621,1.093-2.676
			c0-1.018-0.377-1.92-1.093-2.672c-0.751-0.715-1.653-1.094-2.671-1.094c-1.055,0-1.92,0.379-2.674,1.094l-1.73,1.77l0.001-13.307
			c0-1.053-0.378-1.957-1.132-2.674c-0.715-0.752-1.616-1.092-2.67-1.092c-1.018,0-1.921,0.34-2.637,1.092
			c-0.753,0.717-1.092,1.621-1.129,2.674l-0.001,13.309l-1.731-1.771c-0.715-0.713-1.619-1.092-2.674-1.09
			c-1.016,0-1.92,0.377-2.672,1.09c-0.715,0.754-1.092,1.658-1.092,2.674c0,1.055,0.375,1.922,1.092,2.676L33.223,65.783z"/>
		<g opacity="0.8">
			<path fill="#FFFFFF" d="M38.07,39.291c-0.597-0.631-1.35-0.912-2.229-0.912c-0.851,0-1.604,0.281-2.202,0.912
				c-0.609,0.578-0.893,1.307-0.937,2.152h-0.007v-0.336c0.031-0.879,0.314-1.635,0.943-2.232c0.598-0.629,1.352-0.912,2.202-0.912
				c0.88,0,1.633,0.283,2.229,0.912c0.63,0.598,0.945,1.354,0.945,2.232v0.414C39.015,40.642,38.7,39.886,38.07,39.291z"/>
		</g>
	</g>
</g>
</svg>
